<?xml version="1.0" encoding="UTF-8" standalone="no"?>
<!DOCTYPE svg PUBLIC "-//W3C//DTD SVG 1.1//EN" "http://www.w3.org/Graphics/SVG/1.1/DTD/svg11.dtd">
<svg width="205px" height="144px" version="1.1" xmlns="http://www.w3.org/2000/svg" xmlns:xlink="http://www.w3.org/1999/xlink" xml:space="preserve" xmlns:serif="http://www.serif.com/" style="fill-rule:evenodd;clip-rule:evenodd;stroke-linejoin:round;stroke-miterlimit:2;">
    <g transform="matrix(1,0,0,1,-637,-361)">
        <g id="aggregation">
            <g transform="matrix(0.223507,0,0,0.223507,527.744,315.199)">
                <g transform="matrix(1,0,0,1,490.092,205.708)">
                    <rect x="164.864" y="306.816" width="34.496" height="308.544" style="fill:rgb(199,210,215);fill-rule:nonzero;"/>
                </g>
                <g transform="matrix(1,0,0,1,490.092,205.708)">
                    <rect x="27.776" y="443.776" width="308.544" height="34.624" style="fill:rgb(199,210,215);fill-rule:nonzero;"/>
                </g>
                <g transform="matrix(1,0,0,1,490.092,205.708)">
                    <path d="M60.928,364.16L85.312,339.84L303.36,558.08L278.912,582.4L60.928,364.16Z" style="fill:rgb(199,210,215);fill-rule:nonzero;"/>
                </g>
                <g transform="matrix(1,0,0,1,490.092,205.708)">
                    <path d="M85.312,582.528L60.928,558.208L278.784,339.648L303.232,364.032L85.312,582.528Z" style="fill:rgb(199,210,215);fill-rule:nonzero;"/>
                </g>
                <g transform="matrix(1,0,0,1,490.092,205.708)">
                    <path d="M182.08,643.136C82.258,643.031 0.14,560.942 0,461.12C0,360.704 81.664,279.04 182.08,279.04C282.496,279.04 364.16,360.64 364.16,461.12C364.02,560.942 281.902,643.031 182.08,643.136ZM182.08,317.696C103.464,317.836 38.825,382.504 38.72,461.12C38.72,540.096 103.04,604.352 182.08,604.352C261.12,604.352 325.44,540.096 325.44,461.12C325.335,382.504 260.696,317.836 182.08,317.696Z" style="fill:rgb(72,109,125);fill-rule:nonzero;"/>
                </g>
                <g transform="matrix(1,0,0,1,490.092,205.708)">
                    <rect x="715.072" y="306.816" width="34.56" height="308.544" style="fill:rgb(199,210,215);fill-rule:nonzero;"/>
                </g>
                <g transform="matrix(1,0,0,1,490.092,205.708)">
                    <rect x="578.112" y="443.776" width="308.48" height="34.624" style="fill:rgb(199,210,215);fill-rule:nonzero;"/>
                </g>
                <g transform="matrix(1,0,0,1,490.092,205.708)">
                    <path d="M611.2,364.096L635.584,339.776L853.504,558.208L829.056,582.528L611.2,364.096Z" style="fill:rgb(199,210,215);fill-rule:nonzero;"/>
                </g>
                <g transform="matrix(1,0,0,1,490.092,205.708)">
                    <path d="M635.584,582.592L611.136,558.272L828.864,339.648L853.312,363.968L635.584,582.592Z" style="fill:rgb(199,210,215);fill-rule:nonzero;"/>
                </g>
                <g transform="matrix(1,0,0,1,490.092,205.708)">
                    <path d="M732.352,643.136C632.506,643.066 550.348,560.966 550.208,461.12C550.313,361.249 632.481,279.11 732.352,279.04C832.174,279.18 914.263,361.298 914.368,461.12C914.263,560.931 832.163,643.031 732.352,643.136ZM732.352,317.696C653.712,317.801 589.033,382.48 588.928,461.12C589.103,539.701 653.771,604.282 732.352,604.352C810.922,604.282 875.572,539.69 875.712,461.12C875.607,382.504 810.968,317.836 732.352,317.696Z" style="fill:rgb(72,109,125);fill-rule:nonzero;"/>
                </g>
                <g transform="matrix(1,0,0,1,490.092,205.708)">
                    <path d="M284.864,127.296L320.384,114.176L464.064,503.04L428.48,516.16L284.864,127.296Z" style="fill:rgb(240,0,61);fill-rule:nonzero;"/>
                </g>
                <g transform="matrix(1,0,0,1,490.092,205.708)">
                    <path d="M170.304,472.256L203.392,490.624L345.344,224.576L312.192,206.272L170.304,472.256ZM441.856,465.28L476.16,482.88L634.112,207.936L599.744,190.336L441.856,465.28Z" style="fill:rgb(240,0,61);fill-rule:nonzero;"/>
                </g>
                <g transform="matrix(1,0,0,1,490.092,205.708)">
                    <path d="M757.184,498.176L722.048,512.256L532.928,40.128L580.416,45.056L757.184,498.176Z" style="fill:rgb(240,0,61);fill-rule:nonzero;"/>
                </g>
                <g transform="matrix(1,0,0,1,490.092,205.708)">
                    <rect x="328.832" y="166.72" width="291.008" height="37.824" style="fill:rgb(240,0,61);fill-rule:nonzero;"/>
                </g>
                <g transform="matrix(1,0,0,1,490.092,205.708)">
                    <path d="M625.92,83.136L624.768,83.136L560.128,79.488L535.087,40.352L626.368,42.56C636.16,42.24 666.56,38.272 666.56,-0L707.2,-0C707.2,60.992 658.56,83.136 625.92,83.136Z" style="fill:rgb(240,0,61);fill-rule:nonzero;"/>
                </g>
                <g transform="matrix(1,0,0,1,490.092,205.708)">
                    <path d="M643.456,80.704L639.296,40.32C645.696,39.552 666.624,34.176 666.624,-0L707.264,-0C707.2,59.072 665.472,78.656 643.456,80.704Z" style="fill:rgb(58,67,83);fill-rule:nonzero;"/>
                </g>
                <g transform="matrix(1,0,0,1,490.092,205.708)">
                    <path d="M375.552,51.968L254.912,76.864C236.928,80.704 225.472,99.264 229.504,118.464C233.472,137.664 241.344,152.256 269.312,146.432L271.488,144.832C282.24,143.04 299.904,132.672 317.312,116.672C325.312,109.248 332.16,101.824 337.6,94.848L339.84,93.056C357.888,89.344 414.912,85.248 414.592,75.648L413.76,71.488C412.736,65.472 408,45.184 375.552,51.968Z" style="fill:rgb(122,0,60);fill-rule:nonzero;"/>
                </g>
                <g transform="matrix(1,0,0,1,490.092,205.708)">
                    <path d="M516.224,497.664C516.224,535.936 481.024,558.912 437.696,558.912L234.88,516.16C190.464,503.424 156.288,498.304 156.288,453.76L156.288,470.016C156.288,431.616 184,428.288 227.328,428.288L437.696,428.288C481.024,428.288 516.224,459.264 516.224,497.664Z" style="fill:rgb(162,0,65);fill-rule:nonzero;"/>
                </g>
            </g>
            <g transform="matrix(0.0986911,0.0986911,-0.0986911,0.0986911,789.496,353.575)">
                <g>
                    <g transform="matrix(0.7071,0.7071,-0.7071,0.7071,205.866,-49.9212)">
                        <rect x="138.721" y="169.156" width="48.948" height="106.044" style="fill:rgb(0,131,53);"/>
                    </g>
                    <path d="M479.742,117.82C479.742,57.394 430.757,8.409 370.331,8.409L350.941,27.724L462.859,132.343L479.742,117.82Z" style="fill:rgb(211,210,212);fill-rule:nonzero;"/>
                    <path d="M268.55,126.802L361.349,219.601C361.349,219.601 408.933,189.62 424.049,178.55C440.738,166.328 488.151,126.229 488.151,126.229L361.922,0C361.922,0 321.823,47.413 309.601,64.102C298.531,79.217 268.55,126.802 268.55,126.802Z" style="fill:rgb(63,203,128);fill-rule:nonzero;"/>
                    <g transform="matrix(0.7071,0.7071,-0.7071,0.7071,271.285,-37.293)">
                        <rect x="115.063" y="117.569" width="131.197" height="379.785" style="fill:rgb(63,203,128);"/>
                    </g>
                    <g transform="matrix(-0.7071,-0.7071,0.7071,-0.7071,-196.884,773.786)">
                        <rect x="-3.782" y="404.486" width="131.197" height="43.64" style="fill:rgb(0,131,53);"/>
                    </g>
                    <path d="M309.601,64.073C307.221,67.323 303.966,72.075 300.323,77.531L410.59,187.798C416.046,184.156 420.798,180.9 424.048,178.52C429.705,174.377 438.895,167.029 448.57,159.126L328.995,39.551C321.092,49.226 313.744,58.416 309.601,64.073Z" style="fill:rgb(0,131,53);fill-rule:nonzero;"/>
                    <path d="M482.439,117.82C482.439,64.587 444.419,20.241 394.054,10.435C415.547,30.413 428.998,58.926 428.998,90.584L437.407,98.993C437.407,98.993 389.994,139.092 373.305,151.314C358.189,162.384 310.605,192.365 310.605,192.365L310.577,192.337L55.131,447.782L95.469,488.12L364.017,219.572L364.045,219.6C364.045,219.6 411.629,189.619 426.745,178.549C443.434,166.327 490.847,126.228 490.847,126.228L482.439,117.82Z" style="fill:rgb(9,68,54);fill-opacity:0.13;fill-rule:nonzero;"/>
                </g>
            </g>
        </g>
    </g>
</svg>
