<?xml version="1.0" encoding="UTF-8" standalone="no"?>
<!DOCTYPE svg PUBLIC "-//W3C//DTD SVG 1.1//EN" "http://www.w3.org/Graphics/SVG/1.1/DTD/svg11.dtd">
<svg width="584px" height="242px" version="1.1" xmlns="http://www.w3.org/2000/svg" xmlns:xlink="http://www.w3.org/1999/xlink" xml:space="preserve" xmlns:serif="http://www.serif.com/" style="fill-rule:evenodd;clip-rule:evenodd;stroke-linecap:round;stroke-linejoin:round;stroke-miterlimit:1.5;">
    <g transform="matrix(1,0,0,1,-1163,-82)">
        <g transform="matrix(0.389583,0,0,0.375926,1081,0)">
            <g id="bike-object-dark">
                <g transform="matrix(2.56684,0,0,2.6601,-1382.15,-927.594)">
                    <path d="M720,471.747L720,514.639C720,517.598 717.598,520 714.639,520L626.361,520C623.402,520 621,517.598 621,514.639L621,471.747C621,468.788 623.402,466.385 626.361,466.385L714.639,466.385C717.598,466.385 720,468.788 720,471.747Z" style="fill:none;stroke:white;stroke-width:1px;"/>
                </g>
                <g transform="matrix(2.56684,0,0,2.6601,-1226.28,-783.924)">
                    <g transform="matrix(16,0,0,16,697,390)">
                        <path d="M0.332,0.013C0.288,0.013 0.252,0.005 0.225,-0.01C0.199,-0.025 0.179,-0.049 0.167,-0.082C0.154,-0.115 0.148,-0.159 0.148,-0.213L0.148,-0.476L0.035,-0.476L0.035,-0.573L0.148,-0.573L0.148,-0.727L0.253,-0.727L0.253,-0.573L0.441,-0.573L0.441,-0.476L0.253,-0.476L0.253,-0.213C0.253,-0.179 0.255,-0.153 0.26,-0.134C0.265,-0.116 0.273,-0.103 0.284,-0.095C0.295,-0.087 0.311,-0.084 0.332,-0.084C0.354,-0.084 0.37,-0.085 0.38,-0.088C0.39,-0.091 0.398,-0.097 0.402,-0.105C0.407,-0.112 0.412,-0.126 0.418,-0.145L0.516,-0.112C0.507,-0.08 0.495,-0.056 0.481,-0.038C0.466,-0.02 0.447,-0.007 0.424,0.001C0.401,0.009 0.37,0.013 0.332,0.013Z" style="fill:rgb(230,97,26);fill-rule:nonzero;"/>
                    </g>
                    <g transform="matrix(16,0,0,16,705.727,390)">
                        <path d="M0.349,-0.562L0.349,-0.096L0.508,-0.096L0.508,-0L0.085,-0L0.085,-0.096L0.245,-0.096L0.245,-0.465L0.13,-0.465L0.13,-0.562L0.349,-0.562ZM0.28,-0.644C0.25,-0.644 0.229,-0.649 0.218,-0.66C0.207,-0.67 0.201,-0.69 0.201,-0.718C0.201,-0.747 0.207,-0.766 0.218,-0.777C0.229,-0.787 0.25,-0.793 0.28,-0.793C0.31,-0.793 0.331,-0.787 0.343,-0.777C0.354,-0.766 0.36,-0.747 0.36,-0.718C0.36,-0.69 0.354,-0.67 0.343,-0.66C0.331,-0.649 0.31,-0.644 0.28,-0.644Z" style="fill:rgb(230,97,26);fill-rule:nonzero;"/>
                    </g>
                    <g transform="matrix(16,0,0,16,714.455,390)">
                        <path d="M0.053,0.165L0.053,-0.562L0.158,-0.562L0.158,-0.556C0.193,-0.568 0.234,-0.575 0.279,-0.575C0.335,-0.575 0.38,-0.565 0.413,-0.545C0.445,-0.525 0.469,-0.494 0.483,-0.452C0.497,-0.409 0.505,-0.353 0.505,-0.282C0.505,-0.211 0.497,-0.154 0.483,-0.111C0.469,-0.069 0.445,-0.037 0.413,-0.017C0.38,0.003 0.335,0.013 0.279,0.013C0.236,0.013 0.196,0.005 0.158,-0.009L0.158,0.165L0.053,0.165ZM0.279,-0.084C0.311,-0.084 0.335,-0.09 0.352,-0.102C0.37,-0.114 0.382,-0.134 0.389,-0.162C0.396,-0.19 0.4,-0.23 0.4,-0.282C0.4,-0.333 0.396,-0.373 0.389,-0.401C0.382,-0.429 0.37,-0.449 0.352,-0.46C0.335,-0.472 0.311,-0.478 0.279,-0.478C0.198,-0.478 0.158,-0.461 0.158,-0.425L0.158,-0.211C0.158,-0.167 0.168,-0.135 0.186,-0.115C0.205,-0.094 0.236,-0.084 0.279,-0.084Z" style="fill:rgb(230,97,26);fill-rule:nonzero;"/>
                    </g>
                    <g transform="matrix(16,0,0,16,723.182,390)">
                        <path d="M0.273,0.013C0.216,0.013 0.172,0.003 0.14,-0.017C0.107,-0.037 0.084,-0.068 0.07,-0.111C0.055,-0.153 0.048,-0.21 0.048,-0.281C0.048,-0.352 0.055,-0.408 0.07,-0.451C0.084,-0.493 0.107,-0.525 0.14,-0.545C0.172,-0.565 0.216,-0.575 0.273,-0.575C0.329,-0.575 0.374,-0.565 0.406,-0.545C0.439,-0.525 0.463,-0.493 0.477,-0.451C0.491,-0.408 0.498,-0.352 0.498,-0.281C0.498,-0.21 0.491,-0.153 0.477,-0.111C0.463,-0.068 0.439,-0.037 0.406,-0.017C0.374,0.003 0.329,0.013 0.273,0.013ZM0.273,-0.084C0.304,-0.084 0.329,-0.09 0.346,-0.101C0.363,-0.113 0.375,-0.133 0.383,-0.161C0.39,-0.19 0.394,-0.229 0.394,-0.281C0.394,-0.332 0.39,-0.372 0.383,-0.4C0.375,-0.429 0.363,-0.449 0.346,-0.46C0.329,-0.472 0.304,-0.478 0.273,-0.478C0.241,-0.478 0.217,-0.472 0.2,-0.46C0.183,-0.449 0.171,-0.429 0.164,-0.4C0.156,-0.372 0.153,-0.332 0.153,-0.281C0.153,-0.229 0.156,-0.19 0.164,-0.161C0.171,-0.133 0.183,-0.113 0.2,-0.101C0.217,-0.09 0.241,-0.084 0.273,-0.084Z" style="fill:rgb(230,97,26);fill-rule:nonzero;"/>
                    </g>
                    <g transform="matrix(16,0,0,16,731.909,390)">
                        <rect x="-0.003" y="0.069" width="0.551" height="0.096" style="fill:rgb(230,97,26);fill-rule:nonzero;"/>
                    </g>
                    <g transform="matrix(16,0,0,16,740.636,390)">
                        <path d="M0.25,0.013C0.2,0.013 0.16,0.004 0.13,-0.015C0.101,-0.033 0.075,-0.065 0.051,-0.111L0.134,-0.179C0.146,-0.151 0.156,-0.131 0.165,-0.118C0.174,-0.105 0.185,-0.097 0.197,-0.091C0.21,-0.086 0.228,-0.084 0.25,-0.084C0.292,-0.084 0.323,-0.086 0.345,-0.091C0.366,-0.096 0.38,-0.104 0.388,-0.115C0.396,-0.126 0.4,-0.142 0.4,-0.164C0.4,-0.185 0.397,-0.2 0.39,-0.21C0.384,-0.22 0.373,-0.227 0.356,-0.232C0.34,-0.237 0.312,-0.242 0.274,-0.246C0.2,-0.255 0.147,-0.272 0.115,-0.295C0.082,-0.318 0.065,-0.355 0.065,-0.405C0.065,-0.446 0.073,-0.479 0.088,-0.503C0.103,-0.528 0.128,-0.546 0.161,-0.557C0.194,-0.569 0.239,-0.575 0.295,-0.575C0.349,-0.575 0.39,-0.567 0.42,-0.551C0.45,-0.535 0.477,-0.507 0.501,-0.467L0.425,-0.393C0.411,-0.418 0.4,-0.436 0.39,-0.447C0.38,-0.459 0.368,-0.467 0.355,-0.471C0.341,-0.476 0.321,-0.478 0.295,-0.478C0.261,-0.478 0.235,-0.476 0.217,-0.472C0.199,-0.468 0.187,-0.46 0.18,-0.45C0.173,-0.44 0.17,-0.425 0.17,-0.405C0.17,-0.391 0.174,-0.38 0.181,-0.373C0.188,-0.365 0.199,-0.36 0.214,-0.356C0.228,-0.353 0.251,-0.349 0.281,-0.345C0.338,-0.336 0.383,-0.326 0.415,-0.313C0.447,-0.301 0.47,-0.283 0.484,-0.26C0.498,-0.236 0.505,-0.204 0.505,-0.164C0.505,-0.121 0.497,-0.087 0.48,-0.061C0.464,-0.036 0.437,-0.017 0.4,-0.005C0.362,0.007 0.312,0.013 0.25,0.013Z" style="fill:rgb(230,97,26);fill-rule:nonzero;"/>
                    </g>
                    <g transform="matrix(16,0,0,16,749.364,390)">
                        <path d="M0.349,-0.562L0.349,-0.096L0.508,-0.096L0.508,-0L0.085,-0L0.085,-0.096L0.245,-0.096L0.245,-0.465L0.13,-0.465L0.13,-0.562L0.349,-0.562ZM0.28,-0.644C0.25,-0.644 0.229,-0.649 0.218,-0.66C0.207,-0.67 0.201,-0.69 0.201,-0.718C0.201,-0.747 0.207,-0.766 0.218,-0.777C0.229,-0.787 0.25,-0.793 0.28,-0.793C0.31,-0.793 0.331,-0.787 0.343,-0.777C0.354,-0.766 0.36,-0.747 0.36,-0.718C0.36,-0.69 0.354,-0.67 0.343,-0.66C0.331,-0.649 0.31,-0.644 0.28,-0.644Z" style="fill:rgb(230,97,26);fill-rule:nonzero;"/>
                    </g>
                    <g transform="matrix(16,0,0,16,758.091,390)">
                        <path d="M0.366,0.013C0.324,0.013 0.291,0.006 0.268,-0.006C0.244,-0.019 0.228,-0.04 0.218,-0.07C0.208,-0.1 0.203,-0.142 0.203,-0.195L0.203,-0.631L0.088,-0.631L0.088,-0.727L0.307,-0.727L0.307,-0.195C0.307,-0.153 0.312,-0.124 0.32,-0.108C0.328,-0.092 0.344,-0.084 0.366,-0.084C0.377,-0.084 0.389,-0.087 0.401,-0.095C0.414,-0.102 0.431,-0.115 0.454,-0.134L0.512,-0.045C0.485,-0.023 0.461,-0.008 0.44,0C0.42,0.009 0.395,0.013 0.366,0.013Z" style="fill:rgb(230,97,26);fill-rule:nonzero;"/>
                    </g>
                    <g transform="matrix(16,0,0,16,766.818,390)">
                        <path d="M0.366,0.013C0.324,0.013 0.291,0.006 0.268,-0.006C0.244,-0.019 0.228,-0.04 0.218,-0.07C0.208,-0.1 0.203,-0.142 0.203,-0.195L0.203,-0.631L0.088,-0.631L0.088,-0.727L0.307,-0.727L0.307,-0.195C0.307,-0.153 0.312,-0.124 0.32,-0.108C0.328,-0.092 0.344,-0.084 0.366,-0.084C0.377,-0.084 0.389,-0.087 0.401,-0.095C0.414,-0.102 0.431,-0.115 0.454,-0.134L0.512,-0.045C0.485,-0.023 0.461,-0.008 0.44,0C0.42,0.009 0.395,0.013 0.366,0.013Z" style="fill:rgb(230,97,26);fill-rule:nonzero;"/>
                    </g>
                    <g transform="matrix(16,0,0,16,775.545,390)">
                        <path d="M0.349,-0.562L0.349,-0.096L0.508,-0.096L0.508,-0L0.085,-0L0.085,-0.096L0.245,-0.096L0.245,-0.465L0.13,-0.465L0.13,-0.562L0.349,-0.562ZM0.28,-0.644C0.25,-0.644 0.229,-0.649 0.218,-0.66C0.207,-0.67 0.201,-0.69 0.201,-0.718C0.201,-0.747 0.207,-0.766 0.218,-0.777C0.229,-0.787 0.25,-0.793 0.28,-0.793C0.31,-0.793 0.331,-0.787 0.343,-0.777C0.354,-0.766 0.36,-0.747 0.36,-0.718C0.36,-0.69 0.354,-0.67 0.343,-0.66C0.331,-0.649 0.31,-0.644 0.28,-0.644Z" style="fill:rgb(230,97,26);fill-rule:nonzero;"/>
                    </g>
                    <g transform="matrix(16,0,0,16,784.273,390)">
                        <path d="M0.06,-0L0.06,-0.562L0.165,-0.562L0.165,-0.548C0.203,-0.566 0.247,-0.575 0.298,-0.575C0.35,-0.575 0.39,-0.567 0.418,-0.553C0.446,-0.539 0.466,-0.515 0.478,-0.481C0.49,-0.448 0.496,-0.4 0.496,-0.339L0.496,-0L0.391,-0L0.391,-0.339C0.391,-0.375 0.388,-0.403 0.382,-0.423C0.377,-0.443 0.367,-0.457 0.354,-0.465C0.341,-0.474 0.322,-0.478 0.298,-0.478C0.259,-0.478 0.23,-0.475 0.211,-0.468C0.193,-0.461 0.18,-0.448 0.174,-0.431C0.168,-0.413 0.165,-0.386 0.165,-0.349L0.165,-0L0.06,-0Z" style="fill:rgb(230,97,26);fill-rule:nonzero;"/>
                    </g>
                </g>
                <g transform="matrix(2.56684,0,0,2.6601,-1546.14,-665.648)">
                    <g transform="matrix(16,0,0,16,697,390)">
                        <path d="M0.249,0.013C0.196,0.013 0.153,0.007 0.121,-0.005C0.09,-0.018 0.067,-0.037 0.052,-0.062C0.038,-0.088 0.031,-0.122 0.031,-0.165C0.031,-0.214 0.038,-0.251 0.052,-0.278C0.066,-0.304 0.088,-0.323 0.12,-0.333C0.151,-0.344 0.194,-0.349 0.249,-0.349L0.364,-0.349L0.364,-0.369C0.364,-0.395 0.36,-0.414 0.354,-0.428C0.348,-0.442 0.336,-0.452 0.32,-0.458C0.304,-0.463 0.28,-0.466 0.249,-0.466C0.224,-0.466 0.204,-0.464 0.191,-0.459C0.178,-0.453 0.167,-0.444 0.16,-0.431C0.153,-0.418 0.146,-0.397 0.139,-0.37L0.039,-0.395C0.05,-0.438 0.064,-0.472 0.08,-0.498C0.096,-0.524 0.118,-0.543 0.145,-0.556C0.173,-0.568 0.207,-0.575 0.249,-0.575C0.328,-0.575 0.384,-0.558 0.418,-0.524C0.451,-0.49 0.468,-0.439 0.468,-0.369L0.468,-0.156C0.468,-0.132 0.471,-0.115 0.475,-0.107C0.48,-0.099 0.491,-0.095 0.506,-0.095C0.511,-0.095 0.522,-0.096 0.539,-0.097L0.539,-0.001C0.532,-0 0.522,-0 0.509,-0C0.456,-0 0.42,-0.012 0.4,-0.036C0.384,-0.019 0.363,-0.006 0.339,0.001C0.315,0.009 0.285,0.013 0.249,0.013ZM0.249,-0.084C0.28,-0.084 0.304,-0.087 0.32,-0.095C0.336,-0.102 0.348,-0.114 0.354,-0.132C0.36,-0.149 0.364,-0.175 0.364,-0.208L0.364,-0.253L0.249,-0.253C0.215,-0.253 0.19,-0.251 0.175,-0.248C0.161,-0.244 0.151,-0.237 0.145,-0.225C0.138,-0.213 0.135,-0.193 0.135,-0.165C0.135,-0.143 0.138,-0.126 0.145,-0.115C0.151,-0.104 0.162,-0.096 0.178,-0.091C0.194,-0.086 0.218,-0.084 0.249,-0.084Z" style="fill:rgb(230,97,26);fill-rule:nonzero;"/>
                    </g>
                    <g transform="matrix(16,0,0,16,705.727,390)">
                        <path d="M0.332,0.013C0.288,0.013 0.252,0.005 0.225,-0.01C0.199,-0.025 0.179,-0.049 0.167,-0.082C0.154,-0.115 0.148,-0.159 0.148,-0.213L0.148,-0.476L0.035,-0.476L0.035,-0.573L0.148,-0.573L0.148,-0.727L0.253,-0.727L0.253,-0.573L0.441,-0.573L0.441,-0.476L0.253,-0.476L0.253,-0.213C0.253,-0.179 0.255,-0.153 0.26,-0.134C0.265,-0.116 0.273,-0.103 0.284,-0.095C0.295,-0.087 0.311,-0.084 0.332,-0.084C0.354,-0.084 0.37,-0.085 0.38,-0.088C0.39,-0.091 0.398,-0.097 0.402,-0.105C0.407,-0.112 0.412,-0.126 0.418,-0.145L0.516,-0.112C0.507,-0.08 0.495,-0.056 0.481,-0.038C0.466,-0.02 0.447,-0.007 0.424,0.001C0.401,0.009 0.37,0.013 0.332,0.013Z" style="fill:rgb(230,97,26);fill-rule:nonzero;"/>
                    </g>
                    <g transform="matrix(16,0,0,16,714.455,390)">
                        <path d="M0.085,-0L0.085,-0.562L0.189,-0.562L0.189,-0.515C0.204,-0.531 0.222,-0.545 0.245,-0.557C0.268,-0.569 0.293,-0.575 0.32,-0.575C0.355,-0.575 0.384,-0.57 0.407,-0.56C0.43,-0.551 0.45,-0.536 0.467,-0.515C0.483,-0.494 0.498,-0.465 0.512,-0.428L0.418,-0.385C0.41,-0.412 0.402,-0.432 0.395,-0.445C0.387,-0.457 0.378,-0.466 0.367,-0.471C0.356,-0.476 0.34,-0.478 0.32,-0.478C0.273,-0.478 0.239,-0.462 0.219,-0.43C0.199,-0.397 0.189,-0.35 0.189,-0.288L0.189,-0L0.085,-0Z" style="fill:rgb(230,97,26);fill-rule:nonzero;"/>
                    </g>
                    <g transform="matrix(16,0,0,16,723.182,390)">
                        <path d="M0.349,-0.562L0.349,-0.096L0.508,-0.096L0.508,-0L0.085,-0L0.085,-0.096L0.245,-0.096L0.245,-0.465L0.13,-0.465L0.13,-0.562L0.349,-0.562ZM0.28,-0.644C0.25,-0.644 0.229,-0.649 0.218,-0.66C0.207,-0.67 0.201,-0.69 0.201,-0.718C0.201,-0.747 0.207,-0.766 0.218,-0.777C0.229,-0.787 0.25,-0.793 0.28,-0.793C0.31,-0.793 0.331,-0.787 0.343,-0.777C0.354,-0.766 0.36,-0.747 0.36,-0.718C0.36,-0.69 0.354,-0.67 0.343,-0.66C0.331,-0.649 0.31,-0.644 0.28,-0.644Z" style="fill:rgb(230,97,26);fill-rule:nonzero;"/>
                    </g>
                    <g transform="matrix(16,0,0,16,731.909,390)">
                        <path d="M0.284,0.013C0.23,0.013 0.187,0.006 0.155,-0.009C0.123,-0.023 0.092,-0.048 0.065,-0.084L0.065,-0.727L0.169,-0.727L0.169,-0.555C0.204,-0.568 0.242,-0.575 0.284,-0.575C0.338,-0.575 0.381,-0.565 0.413,-0.545C0.445,-0.525 0.468,-0.493 0.482,-0.451C0.496,-0.408 0.503,-0.352 0.503,-0.28C0.503,-0.209 0.496,-0.152 0.482,-0.11C0.468,-0.068 0.445,-0.037 0.413,-0.017C0.381,0.003 0.338,0.013 0.284,0.013ZM0.284,-0.084C0.313,-0.084 0.336,-0.09 0.353,-0.101C0.369,-0.113 0.381,-0.133 0.388,-0.161C0.395,-0.189 0.398,-0.228 0.398,-0.28C0.398,-0.332 0.395,-0.371 0.388,-0.4C0.381,-0.428 0.369,-0.448 0.353,-0.46C0.336,-0.472 0.313,-0.478 0.284,-0.478C0.252,-0.478 0.228,-0.475 0.212,-0.468C0.196,-0.461 0.185,-0.448 0.179,-0.43C0.172,-0.412 0.169,-0.385 0.169,-0.349L0.169,-0.117C0.184,-0.104 0.199,-0.095 0.215,-0.09C0.23,-0.086 0.253,-0.084 0.284,-0.084Z" style="fill:rgb(230,97,26);fill-rule:nonzero;"/>
                    </g>
                    <g transform="matrix(16,0,0,16,740.636,390)">
                        <path d="M0.257,0.013C0.208,0.013 0.169,0.005 0.141,-0.01C0.112,-0.024 0.092,-0.048 0.079,-0.082C0.066,-0.115 0.06,-0.161 0.06,-0.218L0.06,-0.562L0.165,-0.562L0.165,-0.218C0.165,-0.181 0.167,-0.152 0.172,-0.134C0.177,-0.115 0.187,-0.102 0.2,-0.095C0.213,-0.087 0.232,-0.084 0.257,-0.084C0.295,-0.084 0.323,-0.087 0.341,-0.093C0.36,-0.099 0.373,-0.11 0.38,-0.125C0.387,-0.14 0.391,-0.163 0.391,-0.194L0.391,-0.562L0.496,-0.562L0.496,-0L0.391,-0L0.391,-0.009C0.359,0.005 0.315,0.013 0.257,0.013Z" style="fill:rgb(230,97,26);fill-rule:nonzero;"/>
                    </g>
                    <g transform="matrix(16,0,0,16,749.364,390)">
                        <path d="M0.332,0.013C0.288,0.013 0.252,0.005 0.225,-0.01C0.199,-0.025 0.179,-0.049 0.167,-0.082C0.154,-0.115 0.148,-0.159 0.148,-0.213L0.148,-0.476L0.035,-0.476L0.035,-0.573L0.148,-0.573L0.148,-0.727L0.253,-0.727L0.253,-0.573L0.441,-0.573L0.441,-0.476L0.253,-0.476L0.253,-0.213C0.253,-0.179 0.255,-0.153 0.26,-0.134C0.265,-0.116 0.273,-0.103 0.284,-0.095C0.295,-0.087 0.311,-0.084 0.332,-0.084C0.354,-0.084 0.37,-0.085 0.38,-0.088C0.39,-0.091 0.398,-0.097 0.402,-0.105C0.407,-0.112 0.412,-0.126 0.418,-0.145L0.516,-0.112C0.507,-0.08 0.495,-0.056 0.481,-0.038C0.466,-0.02 0.447,-0.007 0.424,0.001C0.401,0.009 0.37,0.013 0.332,0.013Z" style="fill:rgb(230,97,26);fill-rule:nonzero;"/>
                    </g>
                    <g transform="matrix(16,0,0,16,758.091,390)">
                        <path d="M0.273,0.013C0.216,0.013 0.172,0.003 0.14,-0.017C0.107,-0.037 0.084,-0.068 0.07,-0.111C0.055,-0.153 0.048,-0.21 0.048,-0.281C0.048,-0.352 0.055,-0.408 0.07,-0.451C0.084,-0.493 0.107,-0.525 0.14,-0.545C0.172,-0.565 0.216,-0.575 0.273,-0.575C0.329,-0.575 0.374,-0.565 0.406,-0.545C0.439,-0.525 0.463,-0.493 0.477,-0.451C0.491,-0.408 0.498,-0.352 0.498,-0.281C0.498,-0.21 0.491,-0.153 0.477,-0.111C0.463,-0.068 0.439,-0.037 0.406,-0.017C0.374,0.003 0.329,0.013 0.273,0.013ZM0.273,-0.084C0.304,-0.084 0.329,-0.09 0.346,-0.101C0.363,-0.113 0.375,-0.133 0.383,-0.161C0.39,-0.19 0.394,-0.229 0.394,-0.281C0.394,-0.332 0.39,-0.372 0.383,-0.4C0.375,-0.429 0.363,-0.449 0.346,-0.46C0.329,-0.472 0.304,-0.478 0.273,-0.478C0.241,-0.478 0.217,-0.472 0.2,-0.46C0.183,-0.449 0.171,-0.429 0.164,-0.4C0.156,-0.372 0.153,-0.332 0.153,-0.281C0.153,-0.229 0.156,-0.19 0.164,-0.161C0.171,-0.133 0.183,-0.113 0.2,-0.101C0.217,-0.09 0.241,-0.084 0.273,-0.084Z" style="fill:rgb(230,97,26);fill-rule:nonzero;"/>
                    </g>
                    <g transform="matrix(16,0,0,16,766.818,390)">
                        <path d="M0.25,0.013C0.2,0.013 0.16,0.004 0.13,-0.015C0.101,-0.033 0.075,-0.065 0.051,-0.111L0.134,-0.179C0.146,-0.151 0.156,-0.131 0.165,-0.118C0.174,-0.105 0.185,-0.097 0.197,-0.091C0.21,-0.086 0.228,-0.084 0.25,-0.084C0.292,-0.084 0.323,-0.086 0.345,-0.091C0.366,-0.096 0.38,-0.104 0.388,-0.115C0.396,-0.126 0.4,-0.142 0.4,-0.164C0.4,-0.185 0.397,-0.2 0.39,-0.21C0.384,-0.22 0.373,-0.227 0.356,-0.232C0.34,-0.237 0.312,-0.242 0.274,-0.246C0.2,-0.255 0.147,-0.272 0.115,-0.295C0.082,-0.318 0.065,-0.355 0.065,-0.405C0.065,-0.446 0.073,-0.479 0.088,-0.503C0.103,-0.528 0.128,-0.546 0.161,-0.557C0.194,-0.569 0.239,-0.575 0.295,-0.575C0.349,-0.575 0.39,-0.567 0.42,-0.551C0.45,-0.535 0.477,-0.507 0.501,-0.467L0.425,-0.393C0.411,-0.418 0.4,-0.436 0.39,-0.447C0.38,-0.459 0.368,-0.467 0.355,-0.471C0.341,-0.476 0.321,-0.478 0.295,-0.478C0.261,-0.478 0.235,-0.476 0.217,-0.472C0.199,-0.468 0.187,-0.46 0.18,-0.45C0.173,-0.44 0.17,-0.425 0.17,-0.405C0.17,-0.391 0.174,-0.38 0.181,-0.373C0.188,-0.365 0.199,-0.36 0.214,-0.356C0.228,-0.353 0.251,-0.349 0.281,-0.345C0.338,-0.336 0.383,-0.326 0.415,-0.313C0.447,-0.301 0.47,-0.283 0.484,-0.26C0.498,-0.236 0.505,-0.204 0.505,-0.164C0.505,-0.121 0.497,-0.087 0.48,-0.061C0.464,-0.036 0.437,-0.017 0.4,-0.005C0.362,0.007 0.312,0.013 0.25,0.013Z" style="fill:rgb(230,97,26);fill-rule:nonzero;"/>
                    </g>
                </g>
                <g transform="matrix(2.56684,0,0,2.6601,-303.329,-528.58)">
                    <g transform="matrix(16,0,0,16,697,390)">
                        <path d="M0.06,-0L0.06,-0.562L0.165,-0.562L0.165,-0.548C0.203,-0.566 0.247,-0.575 0.298,-0.575C0.35,-0.575 0.39,-0.567 0.418,-0.553C0.446,-0.539 0.466,-0.515 0.478,-0.481C0.49,-0.448 0.496,-0.4 0.496,-0.339L0.496,-0L0.391,-0L0.391,-0.339C0.391,-0.375 0.388,-0.403 0.382,-0.423C0.377,-0.443 0.367,-0.457 0.354,-0.465C0.341,-0.474 0.322,-0.478 0.298,-0.478C0.259,-0.478 0.23,-0.475 0.211,-0.468C0.193,-0.461 0.18,-0.448 0.174,-0.431C0.168,-0.413 0.165,-0.386 0.165,-0.349L0.165,-0L0.06,-0Z" style="fill:rgb(230,97,26);fill-rule:nonzero;"/>
                    </g>
                    <g transform="matrix(16,0,0,16,705.727,390)">
                        <path d="M0.257,0.013C0.208,0.013 0.169,0.005 0.141,-0.01C0.112,-0.024 0.092,-0.048 0.079,-0.082C0.066,-0.115 0.06,-0.161 0.06,-0.218L0.06,-0.562L0.165,-0.562L0.165,-0.218C0.165,-0.181 0.167,-0.152 0.172,-0.134C0.177,-0.115 0.187,-0.102 0.2,-0.095C0.213,-0.087 0.232,-0.084 0.257,-0.084C0.295,-0.084 0.323,-0.087 0.341,-0.093C0.36,-0.099 0.373,-0.11 0.38,-0.125C0.387,-0.14 0.391,-0.163 0.391,-0.194L0.391,-0.562L0.496,-0.562L0.496,-0L0.391,-0L0.391,-0.009C0.359,0.005 0.315,0.013 0.257,0.013Z" style="fill:rgb(230,97,26);fill-rule:nonzero;"/>
                    </g>
                    <g transform="matrix(16,0,0,16,714.455,390)">
                        <path d="M0.022,-0L0.022,-0.562L0.126,-0.562L0.126,-0.565C0.154,-0.571 0.175,-0.574 0.192,-0.574C0.215,-0.574 0.233,-0.57 0.246,-0.564C0.259,-0.558 0.272,-0.546 0.284,-0.528C0.299,-0.546 0.315,-0.558 0.33,-0.564C0.344,-0.57 0.365,-0.574 0.39,-0.574C0.425,-0.574 0.451,-0.567 0.47,-0.552C0.49,-0.538 0.503,-0.514 0.511,-0.481C0.52,-0.448 0.524,-0.401 0.524,-0.342L0.524,-0L0.419,-0L0.419,-0.342C0.419,-0.39 0.417,-0.424 0.412,-0.442C0.407,-0.46 0.398,-0.469 0.385,-0.469C0.369,-0.469 0.358,-0.466 0.349,-0.459C0.341,-0.452 0.335,-0.44 0.331,-0.423C0.327,-0.406 0.325,-0.382 0.325,-0.352L0.325,-0L0.221,-0L0.221,-0.336C0.221,-0.387 0.218,-0.421 0.213,-0.44C0.208,-0.46 0.199,-0.469 0.186,-0.469C0.171,-0.469 0.158,-0.466 0.15,-0.459C0.142,-0.452 0.135,-0.44 0.132,-0.423C0.128,-0.406 0.126,-0.382 0.126,-0.352L0.126,-0L0.022,-0Z" style="fill:rgb(230,97,26);fill-rule:nonzero;"/>
                    </g>
                    <g transform="matrix(16,0,0,16,723.182,390)">
                        <rect x="-0.003" y="0.069" width="0.551" height="0.096" style="fill:rgb(230,97,26);fill-rule:nonzero;"/>
                    </g>
                    <g transform="matrix(16,0,0,16,731.909,390)">
                        <path d="M0.085,-0L0.085,-0.562L0.189,-0.562L0.189,-0.515C0.204,-0.531 0.222,-0.545 0.245,-0.557C0.268,-0.569 0.293,-0.575 0.32,-0.575C0.355,-0.575 0.384,-0.57 0.407,-0.56C0.43,-0.551 0.45,-0.536 0.467,-0.515C0.483,-0.494 0.498,-0.465 0.512,-0.428L0.418,-0.385C0.41,-0.412 0.402,-0.432 0.395,-0.445C0.387,-0.457 0.378,-0.466 0.367,-0.471C0.356,-0.476 0.34,-0.478 0.32,-0.478C0.273,-0.478 0.239,-0.462 0.219,-0.43C0.199,-0.397 0.189,-0.35 0.189,-0.288L0.189,-0L0.085,-0Z" style="fill:rgb(230,97,26);fill-rule:nonzero;"/>
                    </g>
                    <g transform="matrix(16,0,0,16,740.636,390)">
                        <path d="M0.249,0.013C0.196,0.013 0.153,0.007 0.121,-0.005C0.09,-0.018 0.067,-0.037 0.052,-0.062C0.038,-0.088 0.031,-0.122 0.031,-0.165C0.031,-0.214 0.038,-0.251 0.052,-0.278C0.066,-0.304 0.088,-0.323 0.12,-0.333C0.151,-0.344 0.194,-0.349 0.249,-0.349L0.364,-0.349L0.364,-0.369C0.364,-0.395 0.36,-0.414 0.354,-0.428C0.348,-0.442 0.336,-0.452 0.32,-0.458C0.304,-0.463 0.28,-0.466 0.249,-0.466C0.224,-0.466 0.204,-0.464 0.191,-0.459C0.178,-0.453 0.167,-0.444 0.16,-0.431C0.153,-0.418 0.146,-0.397 0.139,-0.37L0.039,-0.395C0.05,-0.438 0.064,-0.472 0.08,-0.498C0.096,-0.524 0.118,-0.543 0.145,-0.556C0.173,-0.568 0.207,-0.575 0.249,-0.575C0.328,-0.575 0.384,-0.558 0.418,-0.524C0.451,-0.49 0.468,-0.439 0.468,-0.369L0.468,-0.156C0.468,-0.132 0.471,-0.115 0.475,-0.107C0.48,-0.099 0.491,-0.095 0.506,-0.095C0.511,-0.095 0.522,-0.096 0.539,-0.097L0.539,-0.001C0.532,-0 0.522,-0 0.509,-0C0.456,-0 0.42,-0.012 0.4,-0.036C0.384,-0.019 0.363,-0.006 0.339,0.001C0.315,0.009 0.285,0.013 0.249,0.013ZM0.249,-0.084C0.28,-0.084 0.304,-0.087 0.32,-0.095C0.336,-0.102 0.348,-0.114 0.354,-0.132C0.36,-0.149 0.364,-0.175 0.364,-0.208L0.364,-0.253L0.249,-0.253C0.215,-0.253 0.19,-0.251 0.175,-0.248C0.161,-0.244 0.151,-0.237 0.145,-0.225C0.138,-0.213 0.135,-0.193 0.135,-0.165C0.135,-0.143 0.138,-0.126 0.145,-0.115C0.151,-0.104 0.162,-0.096 0.178,-0.091C0.194,-0.086 0.218,-0.084 0.249,-0.084Z" style="fill:rgb(230,97,26);fill-rule:nonzero;"/>
                    </g>
                    <g transform="matrix(16,0,0,16,749.364,390)">
                        <path d="M0.268,0.013C0.212,0.013 0.167,0.003 0.135,-0.017C0.103,-0.037 0.079,-0.068 0.065,-0.11C0.051,-0.152 0.044,-0.209 0.044,-0.28C0.044,-0.352 0.051,-0.408 0.065,-0.451C0.079,-0.493 0.103,-0.525 0.135,-0.545C0.167,-0.565 0.212,-0.575 0.268,-0.575C0.311,-0.575 0.352,-0.567 0.39,-0.553L0.39,-0.727L0.495,-0.727L0.495,-0L0.39,-0L0.39,-0.006C0.355,0.006 0.314,0.013 0.268,0.013ZM0.268,-0.084C0.31,-0.084 0.341,-0.088 0.36,-0.098C0.38,-0.107 0.39,-0.12 0.39,-0.136L0.39,-0.351C0.39,-0.395 0.38,-0.427 0.361,-0.447C0.342,-0.468 0.311,-0.478 0.268,-0.478C0.237,-0.478 0.212,-0.472 0.195,-0.46C0.178,-0.448 0.166,-0.428 0.159,-0.4C0.152,-0.371 0.148,-0.332 0.148,-0.28C0.148,-0.228 0.152,-0.189 0.159,-0.161C0.166,-0.133 0.178,-0.113 0.195,-0.101C0.212,-0.09 0.237,-0.084 0.268,-0.084Z" style="fill:rgb(230,97,26);fill-rule:nonzero;"/>
                    </g>
                    <g transform="matrix(16,0,0,16,758.091,390)">
                        <path d="M0.349,-0.562L0.349,-0.096L0.508,-0.096L0.508,-0L0.085,-0L0.085,-0.096L0.245,-0.096L0.245,-0.465L0.13,-0.465L0.13,-0.562L0.349,-0.562ZM0.28,-0.644C0.25,-0.644 0.229,-0.649 0.218,-0.66C0.207,-0.67 0.201,-0.69 0.201,-0.718C0.201,-0.747 0.207,-0.766 0.218,-0.777C0.229,-0.787 0.25,-0.793 0.28,-0.793C0.31,-0.793 0.331,-0.787 0.343,-0.777C0.354,-0.766 0.36,-0.747 0.36,-0.718C0.36,-0.69 0.354,-0.67 0.343,-0.66C0.331,-0.649 0.31,-0.644 0.28,-0.644Z" style="fill:rgb(230,97,26);fill-rule:nonzero;"/>
                    </g>
                    <g transform="matrix(16,0,0,16,766.818,390)">
                        <path d="M0.273,0.013C0.216,0.013 0.172,0.003 0.14,-0.017C0.107,-0.037 0.084,-0.068 0.07,-0.111C0.055,-0.153 0.048,-0.21 0.048,-0.281C0.048,-0.352 0.055,-0.408 0.07,-0.451C0.084,-0.493 0.107,-0.525 0.14,-0.545C0.172,-0.565 0.216,-0.575 0.273,-0.575C0.329,-0.575 0.374,-0.565 0.406,-0.545C0.439,-0.525 0.463,-0.493 0.477,-0.451C0.491,-0.408 0.498,-0.352 0.498,-0.281C0.498,-0.21 0.491,-0.153 0.477,-0.111C0.463,-0.068 0.439,-0.037 0.406,-0.017C0.374,0.003 0.329,0.013 0.273,0.013ZM0.273,-0.084C0.304,-0.084 0.329,-0.09 0.346,-0.101C0.363,-0.113 0.375,-0.133 0.383,-0.161C0.39,-0.19 0.394,-0.229 0.394,-0.281C0.394,-0.332 0.39,-0.372 0.383,-0.4C0.375,-0.429 0.363,-0.449 0.346,-0.46C0.329,-0.472 0.304,-0.478 0.273,-0.478C0.241,-0.478 0.217,-0.472 0.2,-0.46C0.183,-0.449 0.171,-0.429 0.164,-0.4C0.156,-0.372 0.153,-0.332 0.153,-0.281C0.153,-0.229 0.156,-0.19 0.164,-0.161C0.171,-0.133 0.183,-0.113 0.2,-0.101C0.217,-0.09 0.241,-0.084 0.273,-0.084Z" style="fill:rgb(230,97,26);fill-rule:nonzero;"/>
                    </g>
                    <g transform="matrix(16,0,0,16,775.545,390)">
                        <path d="M0.25,0.013C0.2,0.013 0.16,0.004 0.13,-0.015C0.101,-0.033 0.075,-0.065 0.051,-0.111L0.134,-0.179C0.146,-0.151 0.156,-0.131 0.165,-0.118C0.174,-0.105 0.185,-0.097 0.197,-0.091C0.21,-0.086 0.228,-0.084 0.25,-0.084C0.292,-0.084 0.323,-0.086 0.345,-0.091C0.366,-0.096 0.38,-0.104 0.388,-0.115C0.396,-0.126 0.4,-0.142 0.4,-0.164C0.4,-0.185 0.397,-0.2 0.39,-0.21C0.384,-0.22 0.373,-0.227 0.356,-0.232C0.34,-0.237 0.312,-0.242 0.274,-0.246C0.2,-0.255 0.147,-0.272 0.115,-0.295C0.082,-0.318 0.065,-0.355 0.065,-0.405C0.065,-0.446 0.073,-0.479 0.088,-0.503C0.103,-0.528 0.128,-0.546 0.161,-0.557C0.194,-0.569 0.239,-0.575 0.295,-0.575C0.349,-0.575 0.39,-0.567 0.42,-0.551C0.45,-0.535 0.477,-0.507 0.501,-0.467L0.425,-0.393C0.411,-0.418 0.4,-0.436 0.39,-0.447C0.38,-0.459 0.368,-0.467 0.355,-0.471C0.341,-0.476 0.321,-0.478 0.295,-0.478C0.261,-0.478 0.235,-0.476 0.217,-0.472C0.199,-0.468 0.187,-0.46 0.18,-0.45C0.173,-0.44 0.17,-0.425 0.17,-0.405C0.17,-0.391 0.174,-0.38 0.181,-0.373C0.188,-0.365 0.199,-0.36 0.214,-0.356C0.228,-0.353 0.251,-0.349 0.281,-0.345C0.338,-0.336 0.383,-0.326 0.415,-0.313C0.447,-0.301 0.47,-0.283 0.484,-0.26C0.498,-0.236 0.505,-0.204 0.505,-0.164C0.505,-0.121 0.497,-0.087 0.48,-0.061C0.464,-0.036 0.437,-0.017 0.4,-0.005C0.362,0.007 0.312,0.013 0.25,0.013Z" style="fill:rgb(230,97,26);fill-rule:nonzero;"/>
                    </g>
                </g>
                <g transform="matrix(2.56684,0,0,2.6601,-486.253,-737.908)">
                    <g transform="matrix(16,0,0,16,697,390)">
                        <path d="M0.271,0.178C0.228,0.178 0.195,0.172 0.17,0.161C0.144,0.149 0.119,0.129 0.095,0.099L0.171,0.034C0.188,0.054 0.202,0.067 0.214,0.073C0.226,0.079 0.245,0.082 0.271,0.082C0.302,0.082 0.325,0.078 0.342,0.07C0.358,0.063 0.37,0.05 0.376,0.031C0.383,0.013 0.386,-0.014 0.386,-0.05L0.386,-0.052C0.348,-0.037 0.308,-0.03 0.265,-0.03C0.208,-0.03 0.164,-0.04 0.131,-0.06C0.098,-0.081 0.075,-0.113 0.06,-0.157C0.046,-0.202 0.039,-0.261 0.039,-0.336C0.039,-0.393 0.047,-0.439 0.061,-0.474C0.076,-0.508 0.1,-0.534 0.133,-0.55C0.165,-0.566 0.209,-0.575 0.265,-0.575C0.309,-0.575 0.35,-0.568 0.386,-0.556L0.386,-0.562L0.491,-0.562L0.491,-0.058C0.491,0 0.484,0.046 0.47,0.08C0.455,0.114 0.432,0.139 0.4,0.155C0.369,0.17 0.325,0.178 0.271,0.178ZM0.265,-0.126C0.308,-0.126 0.339,-0.137 0.358,-0.157C0.377,-0.178 0.386,-0.21 0.386,-0.254L0.386,-0.425C0.386,-0.442 0.377,-0.455 0.357,-0.464C0.337,-0.473 0.306,-0.478 0.265,-0.478C0.232,-0.478 0.208,-0.474 0.191,-0.465C0.174,-0.457 0.162,-0.443 0.155,-0.422C0.148,-0.402 0.145,-0.373 0.145,-0.336C0.145,-0.281 0.148,-0.238 0.155,-0.208C0.163,-0.178 0.175,-0.157 0.192,-0.145C0.209,-0.133 0.233,-0.126 0.265,-0.126Z" style="fill:rgb(64,191,79);fill-rule:nonzero;"/>
                    </g>
                    <g transform="matrix(16,0,0,16,705.727,390)">
                        <path d="M0.349,-0.562L0.349,-0.096L0.508,-0.096L0.508,-0L0.085,-0L0.085,-0.096L0.245,-0.096L0.245,-0.465L0.13,-0.465L0.13,-0.562L0.349,-0.562ZM0.28,-0.644C0.25,-0.644 0.229,-0.649 0.218,-0.66C0.207,-0.67 0.201,-0.69 0.201,-0.718C0.201,-0.747 0.207,-0.766 0.218,-0.777C0.229,-0.787 0.25,-0.793 0.28,-0.793C0.31,-0.793 0.331,-0.787 0.343,-0.777C0.354,-0.766 0.36,-0.747 0.36,-0.718C0.36,-0.69 0.354,-0.67 0.343,-0.66C0.331,-0.649 0.31,-0.644 0.28,-0.644Z" style="fill:rgb(64,191,79);fill-rule:nonzero;"/>
                    </g>
                    <g transform="matrix(16,0,0,16,714.455,390)">
                        <path d="M0.085,-0L0.085,-0.562L0.189,-0.562L0.189,-0.515C0.204,-0.531 0.222,-0.545 0.245,-0.557C0.268,-0.569 0.293,-0.575 0.32,-0.575C0.355,-0.575 0.384,-0.57 0.407,-0.56C0.43,-0.551 0.45,-0.536 0.467,-0.515C0.483,-0.494 0.498,-0.465 0.512,-0.428L0.418,-0.385C0.41,-0.412 0.402,-0.432 0.395,-0.445C0.387,-0.457 0.378,-0.466 0.367,-0.471C0.356,-0.476 0.34,-0.478 0.32,-0.478C0.273,-0.478 0.239,-0.462 0.219,-0.43C0.199,-0.397 0.189,-0.35 0.189,-0.288L0.189,-0L0.085,-0Z" style="fill:rgb(64,191,79);fill-rule:nonzero;"/>
                    </g>
                    <g transform="matrix(16,0,0,16,723.182,390)">
                        <path d="M0.249,0.013C0.196,0.013 0.153,0.007 0.121,-0.005C0.09,-0.018 0.067,-0.037 0.052,-0.062C0.038,-0.088 0.031,-0.122 0.031,-0.165C0.031,-0.214 0.038,-0.251 0.052,-0.278C0.066,-0.304 0.088,-0.323 0.12,-0.333C0.151,-0.344 0.194,-0.349 0.249,-0.349L0.364,-0.349L0.364,-0.369C0.364,-0.395 0.36,-0.414 0.354,-0.428C0.348,-0.442 0.336,-0.452 0.32,-0.458C0.304,-0.463 0.28,-0.466 0.249,-0.466C0.224,-0.466 0.204,-0.464 0.191,-0.459C0.178,-0.453 0.167,-0.444 0.16,-0.431C0.153,-0.418 0.146,-0.397 0.139,-0.37L0.039,-0.395C0.05,-0.438 0.064,-0.472 0.08,-0.498C0.096,-0.524 0.118,-0.543 0.145,-0.556C0.173,-0.568 0.207,-0.575 0.249,-0.575C0.328,-0.575 0.384,-0.558 0.418,-0.524C0.451,-0.49 0.468,-0.439 0.468,-0.369L0.468,-0.156C0.468,-0.132 0.471,-0.115 0.475,-0.107C0.48,-0.099 0.491,-0.095 0.506,-0.095C0.511,-0.095 0.522,-0.096 0.539,-0.097L0.539,-0.001C0.532,-0 0.522,-0 0.509,-0C0.456,-0 0.42,-0.012 0.4,-0.036C0.384,-0.019 0.363,-0.006 0.339,0.001C0.315,0.009 0.285,0.013 0.249,0.013ZM0.249,-0.084C0.28,-0.084 0.304,-0.087 0.32,-0.095C0.336,-0.102 0.348,-0.114 0.354,-0.132C0.36,-0.149 0.364,-0.175 0.364,-0.208L0.364,-0.253L0.249,-0.253C0.215,-0.253 0.19,-0.251 0.175,-0.248C0.161,-0.244 0.151,-0.237 0.145,-0.225C0.138,-0.213 0.135,-0.193 0.135,-0.165C0.135,-0.143 0.138,-0.126 0.145,-0.115C0.151,-0.104 0.162,-0.096 0.178,-0.091C0.194,-0.086 0.218,-0.084 0.249,-0.084Z" style="fill:rgb(64,191,79);fill-rule:nonzero;"/>
                    </g>
                    <g transform="matrix(16,0,0,16,731.909,390)">
                        <path d="M0.085,-0L0.085,-0.562L0.189,-0.562L0.189,-0.515C0.204,-0.531 0.222,-0.545 0.245,-0.557C0.268,-0.569 0.293,-0.575 0.32,-0.575C0.355,-0.575 0.384,-0.57 0.407,-0.56C0.43,-0.551 0.45,-0.536 0.467,-0.515C0.483,-0.494 0.498,-0.465 0.512,-0.428L0.418,-0.385C0.41,-0.412 0.402,-0.432 0.395,-0.445C0.387,-0.457 0.378,-0.466 0.367,-0.471C0.356,-0.476 0.34,-0.478 0.32,-0.478C0.273,-0.478 0.239,-0.462 0.219,-0.43C0.199,-0.397 0.189,-0.35 0.189,-0.288L0.189,-0L0.085,-0Z" style="fill:rgb(64,191,79);fill-rule:nonzero;"/>
                    </g>
                </g>
                <g transform="matrix(2.56684,0,0,2.6601,-1546.48,-610.223)">
                    <g transform="matrix(16,0,0,16,697,390)">
                        <path d="M0.022,-0L0.022,-0.562L0.126,-0.562L0.126,-0.565C0.154,-0.571 0.175,-0.574 0.192,-0.574C0.215,-0.574 0.233,-0.57 0.246,-0.564C0.259,-0.558 0.272,-0.546 0.284,-0.528C0.299,-0.546 0.315,-0.558 0.33,-0.564C0.344,-0.57 0.365,-0.574 0.39,-0.574C0.425,-0.574 0.451,-0.567 0.47,-0.552C0.49,-0.538 0.503,-0.514 0.511,-0.481C0.52,-0.448 0.524,-0.401 0.524,-0.342L0.524,-0L0.419,-0L0.419,-0.342C0.419,-0.39 0.417,-0.424 0.412,-0.442C0.407,-0.46 0.398,-0.469 0.385,-0.469C0.369,-0.469 0.358,-0.466 0.349,-0.459C0.341,-0.452 0.335,-0.44 0.331,-0.423C0.327,-0.406 0.325,-0.382 0.325,-0.352L0.325,-0L0.221,-0L0.221,-0.336C0.221,-0.387 0.218,-0.421 0.213,-0.44C0.208,-0.46 0.199,-0.469 0.186,-0.469C0.171,-0.469 0.158,-0.466 0.15,-0.459C0.142,-0.452 0.135,-0.44 0.132,-0.423C0.128,-0.406 0.126,-0.382 0.126,-0.352L0.126,-0L0.022,-0Z" style="fill:rgb(64,191,79);fill-rule:nonzero;"/>
                    </g>
                    <g transform="matrix(16,0,0,16,705.727,390)">
                        <path d="M0.275,-0.575C0.334,-0.575 0.38,-0.564 0.413,-0.542C0.446,-0.521 0.47,-0.487 0.483,-0.44C0.497,-0.394 0.503,-0.332 0.502,-0.253L0.141,-0.253C0.143,-0.209 0.148,-0.175 0.157,-0.151C0.166,-0.127 0.179,-0.109 0.198,-0.099C0.217,-0.089 0.243,-0.084 0.275,-0.084C0.299,-0.084 0.318,-0.086 0.333,-0.09C0.348,-0.095 0.362,-0.103 0.374,-0.115C0.387,-0.127 0.401,-0.145 0.418,-0.168L0.502,-0.113C0.472,-0.066 0.44,-0.033 0.406,-0.015C0.373,0.003 0.329,0.013 0.275,0.013C0.215,0.013 0.168,0.003 0.133,-0.017C0.098,-0.037 0.073,-0.068 0.058,-0.111C0.043,-0.153 0.035,-0.21 0.035,-0.281C0.035,-0.352 0.043,-0.408 0.058,-0.451C0.073,-0.493 0.098,-0.525 0.133,-0.545C0.168,-0.565 0.215,-0.575 0.275,-0.575ZM0.395,-0.349C0.391,-0.382 0.385,-0.408 0.377,-0.426C0.369,-0.445 0.357,-0.458 0.34,-0.466C0.324,-0.474 0.303,-0.478 0.275,-0.478C0.245,-0.478 0.221,-0.474 0.203,-0.466C0.185,-0.458 0.171,-0.445 0.161,-0.426C0.152,-0.408 0.146,-0.382 0.143,-0.349L0.395,-0.349ZM0.428,-0.75L0.261,-0.605L0.193,-0.679L0.359,-0.823L0.428,-0.75Z" style="fill:rgb(64,191,79);fill-rule:nonzero;"/>
                    </g>
                    <g transform="matrix(16,0,0,16,714.455,390)">
                        <path d="M0.332,0.013C0.288,0.013 0.252,0.005 0.225,-0.01C0.199,-0.025 0.179,-0.049 0.167,-0.082C0.154,-0.115 0.148,-0.159 0.148,-0.213L0.148,-0.476L0.035,-0.476L0.035,-0.573L0.148,-0.573L0.148,-0.727L0.253,-0.727L0.253,-0.573L0.441,-0.573L0.441,-0.476L0.253,-0.476L0.253,-0.213C0.253,-0.179 0.255,-0.153 0.26,-0.134C0.265,-0.116 0.273,-0.103 0.284,-0.095C0.295,-0.087 0.311,-0.084 0.332,-0.084C0.354,-0.084 0.37,-0.085 0.38,-0.088C0.39,-0.091 0.398,-0.097 0.402,-0.105C0.407,-0.112 0.412,-0.126 0.418,-0.145L0.516,-0.112C0.507,-0.08 0.495,-0.056 0.481,-0.038C0.466,-0.02 0.447,-0.007 0.424,0.001C0.401,0.009 0.37,0.013 0.332,0.013Z" style="fill:rgb(64,191,79);fill-rule:nonzero;"/>
                    </g>
                    <g transform="matrix(16,0,0,16,723.182,390)">
                        <path d="M0.273,0.013C0.216,0.013 0.172,0.003 0.14,-0.017C0.107,-0.037 0.084,-0.068 0.07,-0.111C0.055,-0.153 0.048,-0.21 0.048,-0.281C0.048,-0.352 0.055,-0.408 0.07,-0.451C0.084,-0.493 0.107,-0.525 0.14,-0.545C0.172,-0.565 0.216,-0.575 0.273,-0.575C0.329,-0.575 0.374,-0.565 0.406,-0.545C0.439,-0.525 0.463,-0.493 0.477,-0.451C0.491,-0.408 0.498,-0.352 0.498,-0.281C0.498,-0.21 0.491,-0.153 0.477,-0.111C0.463,-0.068 0.439,-0.037 0.406,-0.017C0.374,0.003 0.329,0.013 0.273,0.013ZM0.273,-0.084C0.304,-0.084 0.329,-0.09 0.346,-0.101C0.363,-0.113 0.375,-0.133 0.383,-0.161C0.39,-0.19 0.394,-0.229 0.394,-0.281C0.394,-0.332 0.39,-0.372 0.383,-0.4C0.375,-0.429 0.363,-0.449 0.346,-0.46C0.329,-0.472 0.304,-0.478 0.273,-0.478C0.241,-0.478 0.217,-0.472 0.2,-0.46C0.183,-0.449 0.171,-0.429 0.164,-0.4C0.156,-0.372 0.153,-0.332 0.153,-0.281C0.153,-0.229 0.156,-0.19 0.164,-0.161C0.171,-0.133 0.183,-0.113 0.2,-0.101C0.217,-0.09 0.241,-0.084 0.273,-0.084Z" style="fill:rgb(64,191,79);fill-rule:nonzero;"/>
                    </g>
                    <g transform="matrix(16,0,0,16,731.909,390)">
                        <path d="M0.268,0.013C0.212,0.013 0.167,0.003 0.135,-0.017C0.103,-0.037 0.079,-0.068 0.065,-0.11C0.051,-0.152 0.044,-0.209 0.044,-0.28C0.044,-0.352 0.051,-0.408 0.065,-0.451C0.079,-0.493 0.103,-0.525 0.135,-0.545C0.167,-0.565 0.212,-0.575 0.268,-0.575C0.311,-0.575 0.352,-0.567 0.39,-0.553L0.39,-0.727L0.495,-0.727L0.495,-0L0.39,-0L0.39,-0.006C0.355,0.006 0.314,0.013 0.268,0.013ZM0.268,-0.084C0.31,-0.084 0.341,-0.088 0.36,-0.098C0.38,-0.107 0.39,-0.12 0.39,-0.136L0.39,-0.351C0.39,-0.395 0.38,-0.427 0.361,-0.447C0.342,-0.468 0.311,-0.478 0.268,-0.478C0.237,-0.478 0.212,-0.472 0.195,-0.46C0.178,-0.448 0.166,-0.428 0.159,-0.4C0.152,-0.371 0.148,-0.332 0.148,-0.28C0.148,-0.228 0.152,-0.189 0.159,-0.161C0.166,-0.133 0.178,-0.113 0.195,-0.101C0.212,-0.09 0.237,-0.084 0.268,-0.084Z" style="fill:rgb(64,191,79);fill-rule:nonzero;"/>
                    </g>
                    <g transform="matrix(16,0,0,16,740.636,390)">
                        <path d="M0.273,0.013C0.216,0.013 0.172,0.003 0.14,-0.017C0.107,-0.037 0.084,-0.068 0.07,-0.111C0.055,-0.153 0.048,-0.21 0.048,-0.281C0.048,-0.352 0.055,-0.408 0.07,-0.451C0.084,-0.493 0.107,-0.525 0.14,-0.545C0.172,-0.565 0.216,-0.575 0.273,-0.575C0.329,-0.575 0.374,-0.565 0.406,-0.545C0.439,-0.525 0.463,-0.493 0.477,-0.451C0.491,-0.408 0.498,-0.352 0.498,-0.281C0.498,-0.21 0.491,-0.153 0.477,-0.111C0.463,-0.068 0.439,-0.037 0.406,-0.017C0.374,0.003 0.329,0.013 0.273,0.013ZM0.273,-0.084C0.304,-0.084 0.329,-0.09 0.346,-0.101C0.363,-0.113 0.375,-0.133 0.383,-0.161C0.39,-0.19 0.394,-0.229 0.394,-0.281C0.394,-0.332 0.39,-0.372 0.383,-0.4C0.375,-0.429 0.363,-0.449 0.346,-0.46C0.329,-0.472 0.304,-0.478 0.273,-0.478C0.241,-0.478 0.217,-0.472 0.2,-0.46C0.183,-0.449 0.171,-0.429 0.164,-0.4C0.156,-0.372 0.153,-0.332 0.153,-0.281C0.153,-0.229 0.156,-0.19 0.164,-0.161C0.171,-0.133 0.183,-0.113 0.2,-0.101C0.217,-0.09 0.241,-0.084 0.273,-0.084Z" style="fill:rgb(64,191,79);fill-rule:nonzero;"/>
                    </g>
                    <g transform="matrix(16,0,0,16,749.364,390)">
                        <path d="M0.25,0.013C0.2,0.013 0.16,0.004 0.13,-0.015C0.101,-0.033 0.075,-0.065 0.051,-0.111L0.134,-0.179C0.146,-0.151 0.156,-0.131 0.165,-0.118C0.174,-0.105 0.185,-0.097 0.197,-0.091C0.21,-0.086 0.228,-0.084 0.25,-0.084C0.292,-0.084 0.323,-0.086 0.345,-0.091C0.366,-0.096 0.38,-0.104 0.388,-0.115C0.396,-0.126 0.4,-0.142 0.4,-0.164C0.4,-0.185 0.397,-0.2 0.39,-0.21C0.384,-0.22 0.373,-0.227 0.356,-0.232C0.34,-0.237 0.312,-0.242 0.274,-0.246C0.2,-0.255 0.147,-0.272 0.115,-0.295C0.082,-0.318 0.065,-0.355 0.065,-0.405C0.065,-0.446 0.073,-0.479 0.088,-0.503C0.103,-0.528 0.128,-0.546 0.161,-0.557C0.194,-0.569 0.239,-0.575 0.295,-0.575C0.349,-0.575 0.39,-0.567 0.42,-0.551C0.45,-0.535 0.477,-0.507 0.501,-0.467L0.425,-0.393C0.411,-0.418 0.4,-0.436 0.39,-0.447C0.38,-0.459 0.368,-0.467 0.355,-0.471C0.341,-0.476 0.321,-0.478 0.295,-0.478C0.261,-0.478 0.235,-0.476 0.217,-0.472C0.199,-0.468 0.187,-0.46 0.18,-0.45C0.173,-0.44 0.17,-0.425 0.17,-0.405C0.17,-0.391 0.174,-0.38 0.181,-0.373C0.188,-0.365 0.199,-0.36 0.214,-0.356C0.228,-0.353 0.251,-0.349 0.281,-0.345C0.338,-0.336 0.383,-0.326 0.415,-0.313C0.447,-0.301 0.47,-0.283 0.484,-0.26C0.498,-0.236 0.505,-0.204 0.505,-0.164C0.505,-0.121 0.497,-0.087 0.48,-0.061C0.464,-0.036 0.437,-0.017 0.4,-0.005C0.362,0.007 0.312,0.013 0.25,0.013Z" style="fill:rgb(64,191,79);fill-rule:nonzero;"/>
                    </g>
                </g>
                <g transform="matrix(2.56684,0,0,2.6601,-631.676,-184.255)">
                    <g transform="matrix(16,0,0,16,697,390)">
                        <path d="M0.053,0.165L0.053,-0.562L0.158,-0.562L0.158,-0.556C0.193,-0.568 0.234,-0.575 0.279,-0.575C0.335,-0.575 0.38,-0.565 0.413,-0.545C0.445,-0.525 0.469,-0.494 0.483,-0.452C0.497,-0.409 0.505,-0.353 0.505,-0.282C0.505,-0.211 0.497,-0.154 0.483,-0.111C0.469,-0.069 0.445,-0.037 0.413,-0.017C0.38,0.003 0.335,0.013 0.279,0.013C0.236,0.013 0.196,0.005 0.158,-0.009L0.158,0.165L0.053,0.165ZM0.279,-0.084C0.311,-0.084 0.335,-0.09 0.352,-0.102C0.37,-0.114 0.382,-0.134 0.389,-0.162C0.396,-0.19 0.4,-0.23 0.4,-0.282C0.4,-0.333 0.396,-0.373 0.389,-0.401C0.382,-0.429 0.37,-0.449 0.352,-0.46C0.335,-0.472 0.311,-0.478 0.279,-0.478C0.198,-0.478 0.158,-0.461 0.158,-0.425L0.158,-0.211C0.158,-0.167 0.168,-0.135 0.186,-0.115C0.205,-0.094 0.236,-0.084 0.279,-0.084Z" style="fill:rgb(64,191,79);fill-rule:nonzero;"/>
                    </g>
                    <g transform="matrix(16,0,0,16,705.727,390)">
                        <path d="M0.275,-0.575C0.334,-0.575 0.38,-0.564 0.413,-0.542C0.446,-0.521 0.47,-0.487 0.483,-0.44C0.497,-0.394 0.503,-0.332 0.502,-0.253L0.141,-0.253C0.143,-0.209 0.148,-0.175 0.157,-0.151C0.166,-0.127 0.179,-0.109 0.198,-0.099C0.217,-0.089 0.243,-0.084 0.275,-0.084C0.299,-0.084 0.318,-0.086 0.333,-0.09C0.348,-0.095 0.362,-0.103 0.374,-0.115C0.387,-0.127 0.401,-0.145 0.418,-0.168L0.502,-0.113C0.472,-0.066 0.44,-0.033 0.406,-0.015C0.373,0.003 0.329,0.013 0.275,0.013C0.215,0.013 0.168,0.003 0.133,-0.017C0.098,-0.037 0.073,-0.068 0.058,-0.111C0.043,-0.153 0.035,-0.21 0.035,-0.281C0.035,-0.352 0.043,-0.408 0.058,-0.451C0.073,-0.493 0.098,-0.525 0.133,-0.545C0.168,-0.565 0.215,-0.575 0.275,-0.575ZM0.395,-0.349C0.391,-0.382 0.385,-0.408 0.377,-0.426C0.369,-0.445 0.357,-0.458 0.34,-0.466C0.324,-0.474 0.303,-0.478 0.275,-0.478C0.245,-0.478 0.221,-0.474 0.203,-0.466C0.185,-0.458 0.171,-0.445 0.161,-0.426C0.152,-0.408 0.146,-0.382 0.143,-0.349L0.395,-0.349Z" style="fill:rgb(64,191,79);fill-rule:nonzero;"/>
                    </g>
                    <g transform="matrix(16,0,0,16,714.455,390)">
                        <path d="M0.268,0.013C0.212,0.013 0.167,0.003 0.135,-0.017C0.103,-0.037 0.079,-0.068 0.065,-0.11C0.051,-0.152 0.044,-0.209 0.044,-0.28C0.044,-0.352 0.051,-0.408 0.065,-0.451C0.079,-0.493 0.103,-0.525 0.135,-0.545C0.167,-0.565 0.212,-0.575 0.268,-0.575C0.311,-0.575 0.352,-0.567 0.39,-0.553L0.39,-0.727L0.495,-0.727L0.495,-0L0.39,-0L0.39,-0.006C0.355,0.006 0.314,0.013 0.268,0.013ZM0.268,-0.084C0.31,-0.084 0.341,-0.088 0.36,-0.098C0.38,-0.107 0.39,-0.12 0.39,-0.136L0.39,-0.351C0.39,-0.395 0.38,-0.427 0.361,-0.447C0.342,-0.468 0.311,-0.478 0.268,-0.478C0.237,-0.478 0.212,-0.472 0.195,-0.46C0.178,-0.448 0.166,-0.428 0.159,-0.4C0.152,-0.371 0.148,-0.332 0.148,-0.28C0.148,-0.228 0.152,-0.189 0.159,-0.161C0.166,-0.133 0.178,-0.113 0.195,-0.101C0.212,-0.09 0.237,-0.084 0.268,-0.084Z" style="fill:rgb(64,191,79);fill-rule:nonzero;"/>
                    </g>
                    <g transform="matrix(16,0,0,16,723.182,390)">
                        <path d="M0.249,0.013C0.196,0.013 0.153,0.007 0.121,-0.005C0.09,-0.018 0.067,-0.037 0.052,-0.062C0.038,-0.088 0.031,-0.122 0.031,-0.165C0.031,-0.214 0.038,-0.251 0.052,-0.278C0.066,-0.304 0.088,-0.323 0.12,-0.333C0.151,-0.344 0.194,-0.349 0.249,-0.349L0.364,-0.349L0.364,-0.369C0.364,-0.395 0.36,-0.414 0.354,-0.428C0.348,-0.442 0.336,-0.452 0.32,-0.458C0.304,-0.463 0.28,-0.466 0.249,-0.466C0.224,-0.466 0.204,-0.464 0.191,-0.459C0.178,-0.453 0.167,-0.444 0.16,-0.431C0.153,-0.418 0.146,-0.397 0.139,-0.37L0.039,-0.395C0.05,-0.438 0.064,-0.472 0.08,-0.498C0.096,-0.524 0.118,-0.543 0.145,-0.556C0.173,-0.568 0.207,-0.575 0.249,-0.575C0.328,-0.575 0.384,-0.558 0.418,-0.524C0.451,-0.49 0.468,-0.439 0.468,-0.369L0.468,-0.156C0.468,-0.132 0.471,-0.115 0.475,-0.107C0.48,-0.099 0.491,-0.095 0.506,-0.095C0.511,-0.095 0.522,-0.096 0.539,-0.097L0.539,-0.001C0.532,-0 0.522,-0 0.509,-0C0.456,-0 0.42,-0.012 0.4,-0.036C0.384,-0.019 0.363,-0.006 0.339,0.001C0.315,0.009 0.285,0.013 0.249,0.013ZM0.249,-0.084C0.28,-0.084 0.304,-0.087 0.32,-0.095C0.336,-0.102 0.348,-0.114 0.354,-0.132C0.36,-0.149 0.364,-0.175 0.364,-0.208L0.364,-0.253L0.249,-0.253C0.215,-0.253 0.19,-0.251 0.175,-0.248C0.161,-0.244 0.151,-0.237 0.145,-0.225C0.138,-0.213 0.135,-0.193 0.135,-0.165C0.135,-0.143 0.138,-0.126 0.145,-0.115C0.151,-0.104 0.162,-0.096 0.178,-0.091C0.194,-0.086 0.218,-0.084 0.249,-0.084Z" style="fill:rgb(64,191,79);fill-rule:nonzero;"/>
                    </g>
                    <g transform="matrix(16,0,0,16,731.909,390)">
                        <path d="M0.366,0.013C0.324,0.013 0.291,0.006 0.268,-0.006C0.244,-0.019 0.228,-0.04 0.218,-0.07C0.208,-0.1 0.203,-0.142 0.203,-0.195L0.203,-0.631L0.088,-0.631L0.088,-0.727L0.307,-0.727L0.307,-0.195C0.307,-0.153 0.312,-0.124 0.32,-0.108C0.328,-0.092 0.344,-0.084 0.366,-0.084C0.377,-0.084 0.389,-0.087 0.401,-0.095C0.414,-0.102 0.431,-0.115 0.454,-0.134L0.512,-0.045C0.485,-0.023 0.461,-0.008 0.44,0C0.42,0.009 0.395,0.013 0.366,0.013Z" style="fill:rgb(64,191,79);fill-rule:nonzero;"/>
                    </g>
                    <g transform="matrix(16,0,0,16,740.636,390)">
                        <path d="M0.275,-0.575C0.334,-0.575 0.38,-0.564 0.413,-0.542C0.446,-0.521 0.47,-0.487 0.483,-0.44C0.497,-0.394 0.503,-0.332 0.502,-0.253L0.141,-0.253C0.143,-0.209 0.148,-0.175 0.157,-0.151C0.166,-0.127 0.179,-0.109 0.198,-0.099C0.217,-0.089 0.243,-0.084 0.275,-0.084C0.299,-0.084 0.318,-0.086 0.333,-0.09C0.348,-0.095 0.362,-0.103 0.374,-0.115C0.387,-0.127 0.401,-0.145 0.418,-0.168L0.502,-0.113C0.472,-0.066 0.44,-0.033 0.406,-0.015C0.373,0.003 0.329,0.013 0.275,0.013C0.215,0.013 0.168,0.003 0.133,-0.017C0.098,-0.037 0.073,-0.068 0.058,-0.111C0.043,-0.153 0.035,-0.21 0.035,-0.281C0.035,-0.352 0.043,-0.408 0.058,-0.451C0.073,-0.493 0.098,-0.525 0.133,-0.545C0.168,-0.565 0.215,-0.575 0.275,-0.575ZM0.395,-0.349C0.391,-0.382 0.385,-0.408 0.377,-0.426C0.369,-0.445 0.357,-0.458 0.34,-0.466C0.324,-0.474 0.303,-0.478 0.275,-0.478C0.245,-0.478 0.221,-0.474 0.203,-0.466C0.185,-0.458 0.171,-0.445 0.161,-0.426C0.152,-0.408 0.146,-0.382 0.143,-0.349L0.395,-0.349Z" style="fill:rgb(64,191,79);fill-rule:nonzero;"/>
                    </g>
                    <g transform="matrix(16,0,0,16,749.364,390)">
                        <path d="M0.249,0.013C0.196,0.013 0.153,0.007 0.121,-0.005C0.09,-0.018 0.067,-0.037 0.052,-0.062C0.038,-0.088 0.031,-0.122 0.031,-0.165C0.031,-0.214 0.038,-0.251 0.052,-0.278C0.066,-0.304 0.088,-0.323 0.12,-0.333C0.151,-0.344 0.194,-0.349 0.249,-0.349L0.364,-0.349L0.364,-0.369C0.364,-0.395 0.36,-0.414 0.354,-0.428C0.348,-0.442 0.336,-0.452 0.32,-0.458C0.304,-0.463 0.28,-0.466 0.249,-0.466C0.224,-0.466 0.204,-0.464 0.191,-0.459C0.178,-0.453 0.167,-0.444 0.16,-0.431C0.153,-0.418 0.146,-0.397 0.139,-0.37L0.039,-0.395C0.05,-0.438 0.064,-0.472 0.08,-0.498C0.096,-0.524 0.118,-0.543 0.145,-0.556C0.173,-0.568 0.207,-0.575 0.249,-0.575C0.328,-0.575 0.384,-0.558 0.418,-0.524C0.451,-0.49 0.468,-0.439 0.468,-0.369L0.468,-0.156C0.468,-0.132 0.471,-0.115 0.475,-0.107C0.48,-0.099 0.491,-0.095 0.506,-0.095C0.511,-0.095 0.522,-0.096 0.539,-0.097L0.539,-0.001C0.532,-0 0.522,-0 0.509,-0C0.456,-0 0.42,-0.012 0.4,-0.036C0.384,-0.019 0.363,-0.006 0.339,0.001C0.315,0.009 0.285,0.013 0.249,0.013ZM0.249,-0.084C0.28,-0.084 0.304,-0.087 0.32,-0.095C0.336,-0.102 0.348,-0.114 0.354,-0.132C0.36,-0.149 0.364,-0.175 0.364,-0.208L0.364,-0.253L0.249,-0.253C0.215,-0.253 0.19,-0.251 0.175,-0.248C0.161,-0.244 0.151,-0.237 0.145,-0.225C0.138,-0.213 0.135,-0.193 0.135,-0.165C0.135,-0.143 0.138,-0.126 0.145,-0.115C0.151,-0.104 0.162,-0.096 0.178,-0.091C0.194,-0.086 0.218,-0.084 0.249,-0.084Z" style="fill:rgb(64,191,79);fill-rule:nonzero;"/>
                    </g>
                    <g transform="matrix(16,0,0,16,758.091,390)">
                        <path d="M0.085,-0L0.085,-0.562L0.189,-0.562L0.189,-0.515C0.204,-0.531 0.222,-0.545 0.245,-0.557C0.268,-0.569 0.293,-0.575 0.32,-0.575C0.355,-0.575 0.384,-0.57 0.407,-0.56C0.43,-0.551 0.45,-0.536 0.467,-0.515C0.483,-0.494 0.498,-0.465 0.512,-0.428L0.418,-0.385C0.41,-0.412 0.402,-0.432 0.395,-0.445C0.387,-0.457 0.378,-0.466 0.367,-0.471C0.356,-0.476 0.34,-0.478 0.32,-0.478C0.273,-0.478 0.239,-0.462 0.219,-0.43C0.199,-0.397 0.189,-0.35 0.189,-0.288L0.189,-0L0.085,-0Z" style="fill:rgb(64,191,79);fill-rule:nonzero;"/>
                    </g>
                </g>
                <g transform="matrix(2.56684,0,0,2.6601,-1232.05,-180.734)">
                    <g transform="matrix(16,0,0,16,697,390)">
                        <path d="M0.347,-0.74C0.388,-0.74 0.421,-0.736 0.446,-0.728C0.471,-0.72 0.491,-0.707 0.506,-0.69C0.521,-0.672 0.532,-0.647 0.541,-0.615L0.443,-0.582C0.438,-0.601 0.433,-0.614 0.428,-0.622C0.423,-0.63 0.414,-0.635 0.403,-0.639C0.391,-0.642 0.373,-0.644 0.347,-0.644C0.32,-0.644 0.3,-0.64 0.286,-0.634C0.273,-0.628 0.264,-0.617 0.258,-0.6C0.253,-0.584 0.25,-0.56 0.25,-0.527L0.25,-0.475L0.412,-0.475L0.412,-0.378L0.25,-0.378L0.25,-0L0.145,-0L0.145,-0.378L0.033,-0.378L0.033,-0.475L0.145,-0.475L0.145,-0.527C0.145,-0.58 0.152,-0.622 0.165,-0.652C0.178,-0.683 0.199,-0.705 0.229,-0.719C0.258,-0.733 0.298,-0.74 0.347,-0.74Z" style="fill:rgb(64,191,79);fill-rule:nonzero;"/>
                    </g>
                    <g transform="matrix(16,0,0,16,705.727,390)">
                        <path d="M0.085,-0L0.085,-0.562L0.189,-0.562L0.189,-0.515C0.204,-0.531 0.222,-0.545 0.245,-0.557C0.268,-0.569 0.293,-0.575 0.32,-0.575C0.355,-0.575 0.384,-0.57 0.407,-0.56C0.43,-0.551 0.45,-0.536 0.467,-0.515C0.483,-0.494 0.498,-0.465 0.512,-0.428L0.418,-0.385C0.41,-0.412 0.402,-0.432 0.395,-0.445C0.387,-0.457 0.378,-0.466 0.367,-0.471C0.356,-0.476 0.34,-0.478 0.32,-0.478C0.273,-0.478 0.239,-0.462 0.219,-0.43C0.199,-0.397 0.189,-0.35 0.189,-0.288L0.189,-0L0.085,-0Z" style="fill:rgb(64,191,79);fill-rule:nonzero;"/>
                    </g>
                    <g transform="matrix(16,0,0,16,714.455,390)">
                        <path d="M0.275,-0.575C0.334,-0.575 0.38,-0.564 0.413,-0.542C0.446,-0.521 0.47,-0.487 0.483,-0.44C0.497,-0.394 0.503,-0.332 0.502,-0.253L0.141,-0.253C0.143,-0.209 0.148,-0.175 0.157,-0.151C0.166,-0.127 0.179,-0.109 0.198,-0.099C0.217,-0.089 0.243,-0.084 0.275,-0.084C0.299,-0.084 0.318,-0.086 0.333,-0.09C0.348,-0.095 0.362,-0.103 0.374,-0.115C0.387,-0.127 0.401,-0.145 0.418,-0.168L0.502,-0.113C0.472,-0.066 0.44,-0.033 0.406,-0.015C0.373,0.003 0.329,0.013 0.275,0.013C0.215,0.013 0.168,0.003 0.133,-0.017C0.098,-0.037 0.073,-0.068 0.058,-0.111C0.043,-0.153 0.035,-0.21 0.035,-0.281C0.035,-0.352 0.043,-0.408 0.058,-0.451C0.073,-0.493 0.098,-0.525 0.133,-0.545C0.168,-0.565 0.215,-0.575 0.275,-0.575ZM0.395,-0.349C0.391,-0.382 0.385,-0.408 0.377,-0.426C0.369,-0.445 0.357,-0.458 0.34,-0.466C0.324,-0.474 0.303,-0.478 0.275,-0.478C0.245,-0.478 0.221,-0.474 0.203,-0.466C0.185,-0.458 0.171,-0.445 0.161,-0.426C0.152,-0.408 0.146,-0.382 0.143,-0.349L0.395,-0.349Z" style="fill:rgb(64,191,79);fill-rule:nonzero;"/>
                    </g>
                    <g transform="matrix(16,0,0,16,723.182,390)">
                        <path d="M0.06,-0L0.06,-0.562L0.165,-0.562L0.165,-0.548C0.203,-0.566 0.247,-0.575 0.298,-0.575C0.35,-0.575 0.39,-0.567 0.418,-0.553C0.446,-0.539 0.466,-0.515 0.478,-0.481C0.49,-0.448 0.496,-0.4 0.496,-0.339L0.496,-0L0.391,-0L0.391,-0.339C0.391,-0.375 0.388,-0.403 0.382,-0.423C0.377,-0.443 0.367,-0.457 0.354,-0.465C0.341,-0.474 0.322,-0.478 0.298,-0.478C0.259,-0.478 0.23,-0.475 0.211,-0.468C0.193,-0.461 0.18,-0.448 0.174,-0.431C0.168,-0.413 0.165,-0.386 0.165,-0.349L0.165,-0L0.06,-0Z" style="fill:rgb(64,191,79);fill-rule:nonzero;"/>
                    </g>
                    <g transform="matrix(16,0,0,16,731.909,390)">
                        <path d="M0.249,0.013C0.196,0.013 0.153,0.007 0.121,-0.005C0.09,-0.018 0.067,-0.037 0.052,-0.062C0.038,-0.088 0.031,-0.122 0.031,-0.165C0.031,-0.214 0.038,-0.251 0.052,-0.278C0.066,-0.304 0.088,-0.323 0.12,-0.333C0.151,-0.344 0.194,-0.349 0.249,-0.349L0.364,-0.349L0.364,-0.369C0.364,-0.395 0.36,-0.414 0.354,-0.428C0.348,-0.442 0.336,-0.452 0.32,-0.458C0.304,-0.463 0.28,-0.466 0.249,-0.466C0.224,-0.466 0.204,-0.464 0.191,-0.459C0.178,-0.453 0.167,-0.444 0.16,-0.431C0.153,-0.418 0.146,-0.397 0.139,-0.37L0.039,-0.395C0.05,-0.438 0.064,-0.472 0.08,-0.498C0.096,-0.524 0.118,-0.543 0.145,-0.556C0.173,-0.568 0.207,-0.575 0.249,-0.575C0.328,-0.575 0.384,-0.558 0.418,-0.524C0.451,-0.49 0.468,-0.439 0.468,-0.369L0.468,-0.156C0.468,-0.132 0.471,-0.115 0.475,-0.107C0.48,-0.099 0.491,-0.095 0.506,-0.095C0.511,-0.095 0.522,-0.096 0.539,-0.097L0.539,-0.001C0.532,-0 0.522,-0 0.509,-0C0.456,-0 0.42,-0.012 0.4,-0.036C0.384,-0.019 0.363,-0.006 0.339,0.001C0.315,0.009 0.285,0.013 0.249,0.013ZM0.249,-0.084C0.28,-0.084 0.304,-0.087 0.32,-0.095C0.336,-0.102 0.348,-0.114 0.354,-0.132C0.36,-0.149 0.364,-0.175 0.364,-0.208L0.364,-0.253L0.249,-0.253C0.215,-0.253 0.19,-0.251 0.175,-0.248C0.161,-0.244 0.151,-0.237 0.145,-0.225C0.138,-0.213 0.135,-0.193 0.135,-0.165C0.135,-0.143 0.138,-0.126 0.145,-0.115C0.151,-0.104 0.162,-0.096 0.178,-0.091C0.194,-0.086 0.218,-0.084 0.249,-0.084Z" style="fill:rgb(64,191,79);fill-rule:nonzero;"/>
                    </g>
                    <g transform="matrix(16,0,0,16,740.636,390)">
                        <path d="M0.085,-0L0.085,-0.562L0.189,-0.562L0.189,-0.515C0.204,-0.531 0.222,-0.545 0.245,-0.557C0.268,-0.569 0.293,-0.575 0.32,-0.575C0.355,-0.575 0.384,-0.57 0.407,-0.56C0.43,-0.551 0.45,-0.536 0.467,-0.515C0.483,-0.494 0.498,-0.465 0.512,-0.428L0.418,-0.385C0.41,-0.412 0.402,-0.432 0.395,-0.445C0.387,-0.457 0.378,-0.466 0.367,-0.471C0.356,-0.476 0.34,-0.478 0.32,-0.478C0.273,-0.478 0.239,-0.462 0.219,-0.43C0.199,-0.397 0.189,-0.35 0.189,-0.288L0.189,-0L0.085,-0Z" style="fill:rgb(64,191,79);fill-rule:nonzero;"/>
                    </g>
                </g>
                <g transform="matrix(2.56684,0,0,2.6601,-1472.79,-374.324)">
                    <g transform="matrix(16,0,0,16,697,390)">
                        <path d="M0.268,0.013C0.212,0.013 0.167,0.003 0.135,-0.017C0.103,-0.037 0.079,-0.068 0.065,-0.11C0.051,-0.152 0.044,-0.209 0.044,-0.28C0.044,-0.352 0.051,-0.408 0.065,-0.451C0.079,-0.493 0.103,-0.525 0.135,-0.545C0.167,-0.565 0.212,-0.575 0.268,-0.575C0.311,-0.575 0.352,-0.567 0.39,-0.553L0.39,-0.727L0.495,-0.727L0.495,-0L0.39,-0L0.39,-0.006C0.355,0.006 0.314,0.013 0.268,0.013ZM0.268,-0.084C0.31,-0.084 0.341,-0.088 0.36,-0.098C0.38,-0.107 0.39,-0.12 0.39,-0.136L0.39,-0.351C0.39,-0.395 0.38,-0.427 0.361,-0.447C0.342,-0.468 0.311,-0.478 0.268,-0.478C0.237,-0.478 0.212,-0.472 0.195,-0.46C0.178,-0.448 0.166,-0.428 0.159,-0.4C0.152,-0.371 0.148,-0.332 0.148,-0.28C0.148,-0.228 0.152,-0.189 0.159,-0.161C0.166,-0.133 0.178,-0.113 0.195,-0.101C0.212,-0.09 0.237,-0.084 0.268,-0.084Z" style="fill:rgb(230,97,26);fill-rule:nonzero;"/>
                    </g>
                    <g transform="matrix(16,0,0,16,705.727,390)">
                        <path d="M0.349,-0.562L0.349,-0.096L0.508,-0.096L0.508,-0L0.085,-0L0.085,-0.096L0.245,-0.096L0.245,-0.465L0.13,-0.465L0.13,-0.562L0.349,-0.562ZM0.28,-0.644C0.25,-0.644 0.229,-0.649 0.218,-0.66C0.207,-0.67 0.201,-0.69 0.201,-0.718C0.201,-0.747 0.207,-0.766 0.218,-0.777C0.229,-0.787 0.25,-0.793 0.28,-0.793C0.31,-0.793 0.331,-0.787 0.343,-0.777C0.354,-0.766 0.36,-0.747 0.36,-0.718C0.36,-0.69 0.354,-0.67 0.343,-0.66C0.331,-0.649 0.31,-0.644 0.28,-0.644Z" style="fill:rgb(230,97,26);fill-rule:nonzero;"/>
                    </g>
                    <g transform="matrix(16,0,0,16,714.455,390)">
                        <path d="M0.249,0.013C0.196,0.013 0.153,0.007 0.121,-0.005C0.09,-0.018 0.067,-0.037 0.052,-0.062C0.038,-0.088 0.031,-0.122 0.031,-0.165C0.031,-0.214 0.038,-0.251 0.052,-0.278C0.066,-0.304 0.088,-0.323 0.12,-0.333C0.151,-0.344 0.194,-0.349 0.249,-0.349L0.364,-0.349L0.364,-0.369C0.364,-0.395 0.36,-0.414 0.354,-0.428C0.348,-0.442 0.336,-0.452 0.32,-0.458C0.304,-0.463 0.28,-0.466 0.249,-0.466C0.224,-0.466 0.204,-0.464 0.191,-0.459C0.178,-0.453 0.167,-0.444 0.16,-0.431C0.153,-0.418 0.146,-0.397 0.139,-0.37L0.039,-0.395C0.05,-0.438 0.064,-0.472 0.08,-0.498C0.096,-0.524 0.118,-0.543 0.145,-0.556C0.173,-0.568 0.207,-0.575 0.249,-0.575C0.328,-0.575 0.384,-0.558 0.418,-0.524C0.451,-0.49 0.468,-0.439 0.468,-0.369L0.468,-0.156C0.468,-0.132 0.471,-0.115 0.475,-0.107C0.48,-0.099 0.491,-0.095 0.506,-0.095C0.511,-0.095 0.522,-0.096 0.539,-0.097L0.539,-0.001C0.532,-0 0.522,-0 0.509,-0C0.456,-0 0.42,-0.012 0.4,-0.036C0.384,-0.019 0.363,-0.006 0.339,0.001C0.315,0.009 0.285,0.013 0.249,0.013ZM0.249,-0.084C0.28,-0.084 0.304,-0.087 0.32,-0.095C0.336,-0.102 0.348,-0.114 0.354,-0.132C0.36,-0.149 0.364,-0.175 0.364,-0.208L0.364,-0.253L0.249,-0.253C0.215,-0.253 0.19,-0.251 0.175,-0.248C0.161,-0.244 0.151,-0.237 0.145,-0.225C0.138,-0.213 0.135,-0.193 0.135,-0.165C0.135,-0.143 0.138,-0.126 0.145,-0.115C0.151,-0.104 0.162,-0.096 0.178,-0.091C0.194,-0.086 0.218,-0.084 0.249,-0.084Z" style="fill:rgb(230,97,26);fill-rule:nonzero;"/>
                    </g>
                    <g transform="matrix(16,0,0,16,723.182,390)">
                        <path d="M0.022,-0L0.022,-0.562L0.126,-0.562L0.126,-0.565C0.154,-0.571 0.175,-0.574 0.192,-0.574C0.215,-0.574 0.233,-0.57 0.246,-0.564C0.259,-0.558 0.272,-0.546 0.284,-0.528C0.299,-0.546 0.315,-0.558 0.33,-0.564C0.344,-0.57 0.365,-0.574 0.39,-0.574C0.425,-0.574 0.451,-0.567 0.47,-0.552C0.49,-0.538 0.503,-0.514 0.511,-0.481C0.52,-0.448 0.524,-0.401 0.524,-0.342L0.524,-0L0.419,-0L0.419,-0.342C0.419,-0.39 0.417,-0.424 0.412,-0.442C0.407,-0.46 0.398,-0.469 0.385,-0.469C0.369,-0.469 0.358,-0.466 0.349,-0.459C0.341,-0.452 0.335,-0.44 0.331,-0.423C0.327,-0.406 0.325,-0.382 0.325,-0.352L0.325,-0L0.221,-0L0.221,-0.336C0.221,-0.387 0.218,-0.421 0.213,-0.44C0.208,-0.46 0.199,-0.469 0.186,-0.469C0.171,-0.469 0.158,-0.466 0.15,-0.459C0.142,-0.452 0.135,-0.44 0.132,-0.423C0.128,-0.406 0.126,-0.382 0.126,-0.352L0.126,-0L0.022,-0Z" style="fill:rgb(230,97,26);fill-rule:nonzero;"/>
                    </g>
                    <g transform="matrix(16,0,0,16,731.909,390)">
                        <rect x="-0.003" y="0.069" width="0.551" height="0.096" style="fill:rgb(230,97,26);fill-rule:nonzero;"/>
                    </g>
                    <g transform="matrix(16,0,0,16,740.636,390)">
                        <path d="M0.085,-0L0.085,-0.562L0.189,-0.562L0.189,-0.515C0.204,-0.531 0.222,-0.545 0.245,-0.557C0.268,-0.569 0.293,-0.575 0.32,-0.575C0.355,-0.575 0.384,-0.57 0.407,-0.56C0.43,-0.551 0.45,-0.536 0.467,-0.515C0.483,-0.494 0.498,-0.465 0.512,-0.428L0.418,-0.385C0.41,-0.412 0.402,-0.432 0.395,-0.445C0.387,-0.457 0.378,-0.466 0.367,-0.471C0.356,-0.476 0.34,-0.478 0.32,-0.478C0.273,-0.478 0.239,-0.462 0.219,-0.43C0.199,-0.397 0.189,-0.35 0.189,-0.288L0.189,-0L0.085,-0Z" style="fill:rgb(230,97,26);fill-rule:nonzero;"/>
                    </g>
                    <g transform="matrix(16,0,0,16,749.364,390)">
                        <path d="M0.257,0.013C0.208,0.013 0.169,0.005 0.141,-0.01C0.112,-0.024 0.092,-0.048 0.079,-0.082C0.066,-0.115 0.06,-0.161 0.06,-0.218L0.06,-0.562L0.165,-0.562L0.165,-0.218C0.165,-0.181 0.167,-0.152 0.172,-0.134C0.177,-0.115 0.187,-0.102 0.2,-0.095C0.213,-0.087 0.232,-0.084 0.257,-0.084C0.295,-0.084 0.323,-0.087 0.341,-0.093C0.36,-0.099 0.373,-0.11 0.38,-0.125C0.387,-0.14 0.391,-0.163 0.391,-0.194L0.391,-0.562L0.496,-0.562L0.496,-0L0.391,-0L0.391,-0.009C0.359,0.005 0.315,0.013 0.257,0.013Z" style="fill:rgb(230,97,26);fill-rule:nonzero;"/>
                    </g>
                    <g transform="matrix(16,0,0,16,758.091,390)">
                        <path d="M0.275,-0.575C0.334,-0.575 0.38,-0.564 0.413,-0.542C0.446,-0.521 0.47,-0.487 0.483,-0.44C0.497,-0.394 0.503,-0.332 0.502,-0.253L0.141,-0.253C0.143,-0.209 0.148,-0.175 0.157,-0.151C0.166,-0.127 0.179,-0.109 0.198,-0.099C0.217,-0.089 0.243,-0.084 0.275,-0.084C0.299,-0.084 0.318,-0.086 0.333,-0.09C0.348,-0.095 0.362,-0.103 0.374,-0.115C0.387,-0.127 0.401,-0.145 0.418,-0.168L0.502,-0.113C0.472,-0.066 0.44,-0.033 0.406,-0.015C0.373,0.003 0.329,0.013 0.275,0.013C0.215,0.013 0.168,0.003 0.133,-0.017C0.098,-0.037 0.073,-0.068 0.058,-0.111C0.043,-0.153 0.035,-0.21 0.035,-0.281C0.035,-0.352 0.043,-0.408 0.058,-0.451C0.073,-0.493 0.098,-0.525 0.133,-0.545C0.168,-0.565 0.215,-0.575 0.275,-0.575ZM0.395,-0.349C0.391,-0.382 0.385,-0.408 0.377,-0.426C0.369,-0.445 0.357,-0.458 0.34,-0.466C0.324,-0.474 0.303,-0.478 0.275,-0.478C0.245,-0.478 0.221,-0.474 0.203,-0.466C0.185,-0.458 0.171,-0.445 0.161,-0.426C0.152,-0.408 0.146,-0.382 0.143,-0.349L0.395,-0.349Z" style="fill:rgb(230,97,26);fill-rule:nonzero;"/>
                    </g>
                    <g transform="matrix(16,0,0,16,766.818,390)">
                        <path d="M0.268,0.013C0.212,0.013 0.167,0.003 0.135,-0.017C0.103,-0.037 0.079,-0.068 0.065,-0.11C0.051,-0.152 0.044,-0.209 0.044,-0.28C0.044,-0.352 0.051,-0.408 0.065,-0.451C0.079,-0.493 0.103,-0.525 0.135,-0.545C0.167,-0.565 0.212,-0.575 0.268,-0.575C0.311,-0.575 0.352,-0.567 0.39,-0.553L0.39,-0.727L0.495,-0.727L0.495,-0L0.39,-0L0.39,-0.006C0.355,0.006 0.314,0.013 0.268,0.013ZM0.268,-0.084C0.31,-0.084 0.341,-0.088 0.36,-0.098C0.38,-0.107 0.39,-0.12 0.39,-0.136L0.39,-0.351C0.39,-0.395 0.38,-0.427 0.361,-0.447C0.342,-0.468 0.311,-0.478 0.268,-0.478C0.237,-0.478 0.212,-0.472 0.195,-0.46C0.178,-0.448 0.166,-0.428 0.159,-0.4C0.152,-0.371 0.148,-0.332 0.148,-0.28C0.148,-0.228 0.152,-0.189 0.159,-0.161C0.166,-0.133 0.178,-0.113 0.195,-0.101C0.212,-0.09 0.237,-0.084 0.268,-0.084Z" style="fill:rgb(230,97,26);fill-rule:nonzero;"/>
                    </g>
                    <g transform="matrix(16,0,0,16,775.545,390)">
                        <path d="M0.249,0.013C0.196,0.013 0.153,0.007 0.121,-0.005C0.09,-0.018 0.067,-0.037 0.052,-0.062C0.038,-0.088 0.031,-0.122 0.031,-0.165C0.031,-0.214 0.038,-0.251 0.052,-0.278C0.066,-0.304 0.088,-0.323 0.12,-0.333C0.151,-0.344 0.194,-0.349 0.249,-0.349L0.364,-0.349L0.364,-0.369C0.364,-0.395 0.36,-0.414 0.354,-0.428C0.348,-0.442 0.336,-0.452 0.32,-0.458C0.304,-0.463 0.28,-0.466 0.249,-0.466C0.224,-0.466 0.204,-0.464 0.191,-0.459C0.178,-0.453 0.167,-0.444 0.16,-0.431C0.153,-0.418 0.146,-0.397 0.139,-0.37L0.039,-0.395C0.05,-0.438 0.064,-0.472 0.08,-0.498C0.096,-0.524 0.118,-0.543 0.145,-0.556C0.173,-0.568 0.207,-0.575 0.249,-0.575C0.328,-0.575 0.384,-0.558 0.418,-0.524C0.451,-0.49 0.468,-0.439 0.468,-0.369L0.468,-0.156C0.468,-0.132 0.471,-0.115 0.475,-0.107C0.48,-0.099 0.491,-0.095 0.506,-0.095C0.511,-0.095 0.522,-0.096 0.539,-0.097L0.539,-0.001C0.532,-0 0.522,-0 0.509,-0C0.456,-0 0.42,-0.012 0.4,-0.036C0.384,-0.019 0.363,-0.006 0.339,0.001C0.315,0.009 0.285,0.013 0.249,0.013ZM0.249,-0.084C0.28,-0.084 0.304,-0.087 0.32,-0.095C0.336,-0.102 0.348,-0.114 0.354,-0.132C0.36,-0.149 0.364,-0.175 0.364,-0.208L0.364,-0.253L0.249,-0.253C0.215,-0.253 0.19,-0.251 0.175,-0.248C0.161,-0.244 0.151,-0.237 0.145,-0.225C0.138,-0.213 0.135,-0.193 0.135,-0.165C0.135,-0.143 0.138,-0.126 0.145,-0.115C0.151,-0.104 0.162,-0.096 0.178,-0.091C0.194,-0.086 0.218,-0.084 0.249,-0.084Z" style="fill:rgb(230,97,26);fill-rule:nonzero;"/>
                    </g>
                </g>
                <g transform="matrix(2.10976,-0.657922,-0.634858,1.7463,-671.094,95.8776)">
                    <g transform="matrix(1.37222,0.516989,0.516989,1.71806,495.046,256.515)">
                        <path d="M235.237,23.345L237.136,18.281L242.541,18.086" style="fill:none;stroke:rgb(230,97,26);stroke-width:1px;stroke-linejoin:miter;stroke-miterlimit:10;"/>
                        <path d="M262.539,53.564C262.539,53.564 240.217,22.561 237.136,18.281" style="fill:none;stroke:rgb(230,97,26);stroke-width:1px;"/>
                    </g>
                </g>
                <g transform="matrix(2.56684,0,0,2.6601,-1382.15,-927.594)">
                    <g transform="matrix(1,-0,-0,1,620.461,430.707)">
                        <path d="M139.14,166.764L136.14,162.264L139.14,157.764" style="fill:none;stroke:rgb(230,97,26);stroke-width:1px;stroke-linejoin:miter;stroke-miterlimit:10;"/>
                        <path d="M190.539,162.264L136.14,162.264" style="fill:none;stroke:rgb(230,97,26);stroke-width:1px;"/>
                    </g>
                </g>
                <g transform="matrix(2.56684,0,0,2.6601,-1382.15,-927.594)">
                    <g transform="matrix(1,-0,-0,1,620.461,430.707)">
                        <path d="M485.078,107.451L490.033,109.618L489.939,115.025" style="fill:none;stroke:rgb(230,97,26);stroke-width:1px;stroke-linejoin:miter;stroke-miterlimit:10;"/>
                        <path d="M452.385,133.78C452.385,133.78 485.524,112.512 490.033,109.618" style="fill:none;stroke:rgb(230,97,26);stroke-width:1px;"/>
                    </g>
                </g>
                <g transform="matrix(2.56684,0,0,2.6601,-1382.15,-927.594)">
                    <g transform="matrix(1,-0,-0,1,620.461,430.707)">
                        <path d="M413.743,33.233L418.839,35.045L419.126,40.445" style="fill:none;stroke:rgb(64,191,79);stroke-width:1px;stroke-linejoin:miter;stroke-miterlimit:10;"/>
                        <path d="M391.461,55.479C391.461,55.479 415.146,37.801 418.839,35.045" style="fill:none;stroke:rgb(64,191,79);stroke-width:1px;"/>
                    </g>
                </g>
                <g transform="matrix(2.56684,0,0,2.6601,-1382.15,-927.594)">
                    <g transform="matrix(1,-0,-0,1,620.461,430.707)">
                        <path d="M199.535,225.075L194.189,224.252L192.892,219.002" style="fill:none;stroke:rgb(64,191,79);stroke-width:1px;stroke-linejoin:miter;stroke-miterlimit:10;"/>
                        <path d="M240.842,173.222C240.842,173.222 198.782,219.229 194.189,224.252" style="fill:none;stroke:rgb(64,191,79);stroke-width:1px;"/>
                    </g>
                </g>
                <g transform="matrix(2.56684,0,0,2.6601,-1382.15,-927.594)">
                    <g transform="matrix(1,-0,-0,1,620.461,430.707)">
                        <path d="M366.736,218.868L365.355,224.097L359.997,224.833" style="fill:none;stroke:rgb(64,191,79);stroke-width:1px;stroke-linejoin:miter;stroke-miterlimit:10;"/>
                        <path d="M336.118,191.07C336.118,191.07 361.831,220.116 365.355,224.097" style="fill:none;stroke:rgb(64,191,79);stroke-width:1px;"/>
                    </g>
                </g>
                <g transform="matrix(17.3706,0,0,18.0017,717.433,360.443)">
                    <path d="M29.998,23.707C25.786,23.707 22.371,20.293 22.371,16.08C22.371,12.99 24.213,10.335 26.855,9.137L26.006,7.253L19.062,16.574L19.062,18.443L20.079,18.443L20.079,19.461L17.027,19.461L17.027,18.443L18.045,18.443L18.045,17.425L15.168,17.155C14.644,20.856 11.472,23.706 7.626,23.706C3.414,23.707 0,20.293 0,16.08C0,11.868 3.414,8.454 7.627,8.454C8.728,8.454 9.772,8.692 10.717,9.111L12.623,4.323L11.758,1.907L10.741,1.907C9.787,1.907 10.042,0.89 10.042,0.89C10.042,0.89 10.105,-0 10.805,-0C11.505,-0 11.504,0.636 12.648,0.636C13.743,0.636 15.317,0.953 15.317,0.953C15.317,0.953 16.016,1.906 14.682,1.906L12.775,1.906L13.498,4.503L24.55,4.503L23.682,2.53L23.007,2.53L23.007,1.514L27.813,0.923L27.074,2.531L24.776,2.531L27.753,8.791C28.463,8.572 29.218,8.454 29.999,8.454C34.211,8.454 37.626,11.868 37.626,16.08C37.625,20.293 34.21,23.707 29.998,23.707ZM7.627,9.47C3.976,9.47 1.017,12.429 1.017,16.08C1.017,19.731 3.976,22.689 7.627,22.689C10.946,22.689 13.687,20.24 14.157,17.05L8.863,16.505C8.779,16.982 8.382,17.351 7.881,17.351C7.319,17.351 6.864,16.896 6.864,16.333C6.864,15.772 7.319,15.315 7.881,15.315C8.001,15.315 8.113,15.346 8.22,15.385L10.341,10.055C9.512,9.683 8.595,9.47 7.627,9.47ZM9.152,15.635L14.231,16.172C14.232,16.141 14.236,16.111 14.236,16.08C14.236,13.73 13.007,11.672 11.159,10.499L9.152,15.635ZM13.077,5.592L11.534,9.54C13.759,10.872 15.253,13.299 15.253,16.081C15.253,16.147 15.245,16.214 15.243,16.28L16.969,16.462L13.077,5.592ZM25.595,6.294L25.274,5.52L13.858,5.52L17.908,16.359L25.595,6.294ZM29.998,9.47C29.361,9.47 28.747,9.565 28.164,9.734L30.538,15.158C31.02,15.236 31.396,15.638 31.396,16.142C31.396,16.704 30.941,17.16 30.379,17.16C29.817,17.16 29.361,16.705 29.361,16.142C29.361,15.869 29.472,15.621 29.65,15.437L27.266,10.065C24.979,11.105 23.387,13.403 23.387,16.079C23.387,19.729 26.346,22.688 29.996,22.688C33.646,22.688 36.605,19.729 36.605,16.079C36.605,12.429 33.648,9.47 29.998,9.47Z" style="fill:none;fill-rule:nonzero;stroke:white;stroke-width:0.15px;stroke-linecap:butt;stroke-miterlimit:2;"/>
                </g>
            </g>
        </g>
    </g>
</svg>
