<?xml version="1.0" encoding="UTF-8" standalone="no"?>
<!DOCTYPE svg PUBLIC "-//W3C//DTD SVG 1.1//EN" "http://www.w3.org/Graphics/SVG/1.1/DTD/svg11.dtd">
<svg width="398px" height="306px" version="1.1" xmlns="http://www.w3.org/2000/svg" xmlns:xlink="http://www.w3.org/1999/xlink" xml:space="preserve" xmlns:serif="http://www.serif.com/" style="fill-rule:evenodd;clip-rule:evenodd;stroke-linejoin:round;stroke-miterlimit:2;">
    <g transform="matrix(1,0,0,1,-48.3453,-41.4851)">
        <g transform="matrix(0.242708,0,0,0.359259,0,0)">
            <g transform="matrix(6.80338,0,0,4.59622,-5523.54,-2170.06)">
                <g transform="matrix(1,0,0,1,917.267,497.263)">
                    <path d="M48.4,57.827C45.9,57.827 43.7,56.627 42.9,56.127C42,55.627 41.7,54.427 42.2,53.527C42.7,52.627 43.9,52.327 44.8,52.827C47,54.027 48.7,54.327 50,53.727C51.6,53.027 53.8,50.527 55.4,43.127C56.8,36.427 56.9,27.527 53.8,23.727C52.9,22.527 51.7,22.027 50.2,22.027C46.6,22.027 45.6,24.527 45.6,25.927C45.6,26.327 45.7,28.027 47.2,28.027C47.5,28.027 47.9,27.927 48.2,27.527C48.5,27.127 48.6,26.627 48.5,26.027C48.3,25.027 49,24.027 50,23.827C51,23.627 52,24.327 52.2,25.327C52.5,27.027 52.2,28.727 51.1,29.927C50.1,31.127 48.6,31.827 47.1,31.827C44,31.827 41.8,29.327 41.8,25.927C41.8,24.027 42.6,22.127 43.9,20.727C45,19.627 46.9,18.227 50.2,18.227C52.8,18.227 55.1,19.327 56.7,21.327C60.8,26.427 60.5,36.627 59,43.827C57.5,51.127 55,55.527 51.5,57.127C50.5,57.727 49.4,57.827 48.4,57.827" style="fill:rgb(137,102,76);fill-rule:nonzero;"/>
                    <path d="M28,25.827L26.1,39.227C21.2,39.227 20,48.327 21.4,56.727C21.5,57.527 26.9,58.427 26.9,58.427C25.9,53.127 27.3,50.527 27.3,50.527C27,55.227 27.6,60.027 35.7,60.027C43.2,60.027 47.3,57.427 47.7,50.527C48.9,28.527 28,25.827 28,25.827" style="fill:rgb(137,102,76);fill-rule:nonzero;"/>
                </g>
                <g transform="matrix(1,0,0,1,917.267,497.263)">
                    <path d="M21.5,55.727C19.1,56.727 13.1,57.227 14.6,59.927L26.5,59.927C28.4,57.227 24.7,54.327 21.5,55.727" style="fill:rgb(224,172,126);fill-rule:nonzero;"/>
                    <path d="M36.5,52.127C36.5,52.127 34.6,40.927 26.1,39.127C17.7,37.327 22.7,34.527 27,35.527C37.5,37.827 36.5,52.127 36.5,52.127" style="fill:rgb(224,172,126);fill-rule:nonzero;"/>
                </g>
                <g transform="matrix(1,0,0,1,917.267,497.263)">
                    <path d="M25.9,34.527L16.4,34.527L10,55.027L13.2,58.527L25.9,34.527Z" style="fill:rgb(137,102,76);fill-rule:nonzero;"/>
                </g>
                <g transform="matrix(1,0,0,1,917.267,497.263)">
                    <path d="M12.8,55.227C10.9,52.927 8,55.927 6.5,57.027C5.8,57.527 2,57.627 3.2,59.927L11.4,59.927C14,59.127 13.9,56.627 12.8,55.227" style="fill:rgb(224,172,126);fill-rule:nonzero;"/>
                </g>
                <g transform="matrix(1,0,0,1,917.267,497.263)">
                    <circle cx="36.8" cy="19.127" r="5.9" style="fill:rgb(137,102,76);"/>
                </g>
                <g transform="matrix(1,0,0,1,917.267,497.263)">
                    <circle cx="36.8" cy="19.127" r="3.8" style="fill:rgb(255,197,211);"/>
                </g>
                <g transform="matrix(1,0,0,1,917.267,497.263)">
                    <circle cx="5.9" cy="19.127" r="5.9" style="fill:rgb(137,102,76);"/>
                </g>
                <g transform="matrix(1,0,0,1,917.267,497.263)">
                    <circle cx="5.9" cy="19.127" r="3.8" style="fill:rgb(255,197,211);"/>
                </g>
                <g transform="matrix(1,0,0,1,917.267,497.263)">
                    <path d="M29.4,3.327C30.2,2.927 30.7,2.727 30.7,2.727C28.4,1.927 26.4,1.427 24.7,1.227C25.6,0.527 26.2,0.327 26.2,0.327C11.7,-1.773 4.8,6.627 4.8,14.127L37.8,14.127C37.4,8.927 34.5,5.327 29.4,3.327" style="fill:rgb(137,102,76);fill-rule:nonzero;"/>
                    <path d="M37.9,15.227C37.9,8.327 30.5,2.727 21.3,2.727C12.1,2.727 4.7,8.327 4.7,15.227C4.7,16.827 5.1,18.427 5.9,19.827C5.2,21.227 4.7,22.827 4.7,24.427C4.7,31.327 12.1,36.927 21.3,36.927C30.5,36.927 37.9,31.327 37.9,24.427C37.9,22.827 37.5,21.227 36.7,19.827C37.5,18.427 37.9,16.927 37.9,15.227" style="fill:rgb(137,102,76);fill-rule:nonzero;"/>
                </g>
                <g transform="matrix(1,0,0,1,917.267,497.263)">
                    <path d="M35.6,15.727C35.6,3.727 21.4,11.327 21.4,11.327C21.4,11.327 7.1,3.727 7.1,15.727C7.1,19.127 9.2,22.127 12.4,24.027C11.5,25.227 10.9,26.627 10.9,28.027C10.9,32.327 15.6,35.827 21.3,35.827C27.1,35.827 31.7,32.327 31.7,28.027C31.7,26.527 31.1,25.127 30.2,24.027C33.5,22.127 35.6,19.127 35.6,15.727" style="fill:rgb(224,172,126);fill-rule:nonzero;"/>
                </g>
                <g transform="matrix(1,0,0,1,917.267,497.263)">
                    <ellipse cx="22.9" cy="23.227" rx="0.7" ry="1.5" style="fill:rgb(59,48,42);"/>
                    <ellipse cx="19.8" cy="23.227" rx="0.7" ry="1.5" style="fill:rgb(59,48,42);"/>
                    <ellipse cx="27.5" cy="18.227" rx="2.5" ry="3.2" style="fill:rgb(59,48,42);"/>
                    <ellipse cx="15.2" cy="18.227" rx="2.5" ry="3.2" style="fill:rgb(59,48,42);"/>
                    <path d="M28.4,28.527C28.8,29.627 25.7,31.827 21.3,31.827C16.9,31.827 13.8,29.627 14.2,28.527C14.7,27.427 28,27.427 28.4,28.527" style="fill:rgb(59,48,42);fill-rule:nonzero;"/>
                </g>
            </g>
        </g>
        <g transform="matrix(0.242708,0,0,0.359259,0,0)">
            <g transform="matrix(0.797635,0,0,0.538866,165.56,542.445)">
                <g transform="matrix(1,0,0,1,765.438,271.276)">
                    <path d="M225.889,326.987L225.889,357.746C225.889,365.613 231.105,372.527 238.668,374.688L311.749,395.568C334.641,402.108 351.724,421.243 355.639,444.727L363.432,491.481C365.222,502.222 356.94,511.998 346.052,511.998L17.625,511.998C6.737,511.998 -1.546,502.221 0.245,491.481L8.038,444.727C11.952,421.242 29.035,402.108 51.928,395.568L125.009,374.688C132.574,372.526 137.788,365.612 137.788,357.746L137.788,326.987L225.889,326.987Z" style="fill:rgb(0,190,165);fill-rule:nonzero;"/>
                </g>
                <g transform="matrix(1,0,0,1,765.438,271.276)">
                    <path d="M181.839,441.519C219.071,441.519 250.13,415.121 257.342,380.024L238.669,374.689C231.104,372.528 225.89,365.613 225.89,357.747L225.89,326.988L137.788,326.988L137.788,357.747C137.788,365.614 132.572,372.528 125.009,374.689L106.336,380.024C113.547,415.122 144.607,441.519 181.839,441.519Z" style="fill:rgb(180,135,100);fill-rule:nonzero;"/>
                </g>
                <g transform="matrix(1,0,0,1,765.438,271.276)">
                    <path d="M225.889,335.798L201.661,326.988L137.788,326.988L137.788,357.747C137.788,365.614 132.572,372.528 125.009,374.689L106.336,380.024L106.336,380.025C180.605,415.443 225.889,335.798 225.889,335.798Z" style="fill:rgb(150,109,80);fill-rule:nonzero;"/>
                </g>
                <g transform="matrix(1,0,0,1,765.438,271.276)">
                    <path d="M305.181,36.253C307.384,20.835 323.903,28.911 323.903,28.911C312.89,-28.355 197.992,20.835 197.992,20.835L208.638,9.822C155.135,-20.325 88.233,28.544 88.233,28.544C67.309,21.936 14.448,42.494 14.448,92.784C14.448,144.177 40.878,221.266 40.878,221.266L331.612,221.266C331.612,221.266 340.422,124.354 340.422,89.114C340.422,53.874 305.181,36.253 305.181,36.253Z" style="fill:rgb(85,55,50);fill-rule:nonzero;"/>
                </g>
                <g transform="matrix(1,0,0,1,765.438,271.276)">
                    <path d="M323.902,28.911C287.56,-16.608 219.832,39.557 219.832,39.557C255.073,42.31 251.218,84.158 251.218,84.158C243.509,71.493 231.946,73.696 231.946,73.696C230.294,113.892 203.313,152.987 188.813,159.962L189.548,221.266L331.611,221.266C331.611,221.266 340.421,124.354 340.421,89.114C340.421,53.874 305.18,36.253 305.18,36.253C307.383,20.835 323.902,28.911 323.902,28.911Z" style="fill:rgb(100,70,60);fill-rule:nonzero;"/>
                </g>
                <g transform="matrix(1,0,0,1,765.438,271.276)">
                    <path d="M313.991,203.646L313.991,124.355L49.687,124.355L49.687,203.646C39.956,203.646 32.067,211.534 32.067,221.266L32.067,238.886C32.067,248.617 39.956,256.506 49.687,256.506C50.173,256.506 50.629,256.401 51.104,256.363C56.376,285.956 76.494,311.28 105.067,322.709L149.118,340.329C170.122,348.731 193.554,348.731 214.559,340.329L258.61,322.709C287.185,311.28 307.303,285.956 312.573,256.363C313.049,256.402 313.505,256.506 313.99,256.506C323.721,256.506 331.61,248.617 331.61,238.886L331.61,221.266C331.611,211.534 323.722,203.646 313.991,203.646Z" style="fill:rgb(195,151,114);fill-rule:nonzero;"/>
                </g>
                <g transform="matrix(1,0,0,1,765.438,271.276)">
                    <path d="M278.75,124.354L49.687,124.354L49.687,203.645C39.956,203.645 32.067,211.533 32.067,221.265L32.067,238.885C32.067,248.616 39.956,256.505 49.687,256.505C50.173,256.505 50.629,256.4 51.104,256.362C56.376,285.955 76.494,311.279 105.067,322.708L149.118,340.328C159.061,344.306 169.55,346.334 180.066,346.546C150.168,333.278 128.018,311.837 113.643,294.316C100.731,278.576 93.736,258.867 93.736,238.508L93.736,173.849C93.736,164.712 100.717,156.973 109.83,156.316C124.309,155.272 137.699,150.783 146.597,150.783C173.027,150.783 208.268,141.973 261.129,159.593C295.59,171.08 305.18,150.783 305.18,150.783L278.75,124.354Z" style="fill:rgb(180,135,100);fill-rule:nonzero;"/>
                </g>
                <g transform="matrix(1,0,0,1,765.438,271.276)">
                    <path d="M58.497,203.646C58.497,203.646 58.497,159.595 84.927,133.165C84.927,133.165 102.042,139.625 137.788,133.165C160.639,129.035 164.953,133.165 164.953,133.165C164.953,133.165 163.117,151.336 137.788,159.595C137.788,159.595 164.218,177.215 190.649,150.785L188.813,159.962C188.813,159.962 216.711,165.468 241.674,136.101C241.674,136.101 251.219,135.366 261.13,141.974C278.422,153.502 296.371,146.868 296.371,146.868C296.371,146.868 313.991,168.404 313.991,203.645L331.611,203.645L331.611,106.733L40.876,106.733L40.876,203.645L58.496,203.645L58.496,203.646L58.497,203.646Z" style="fill:rgb(85,55,50);fill-rule:nonzero;"/>
                </g>
                <g transform="matrix(1,0,0,1,765.438,271.276)">
                    <path d="M181.839,300.557C166.176,300.557 151.524,296.703 141.643,289.979C137.621,287.243 136.575,281.762 139.316,277.741C142.047,273.724 147.533,272.677 151.554,275.414C158.48,280.124 169.802,282.938 181.839,282.938C193.876,282.938 205.198,280.124 212.124,275.414C216.155,272.674 221.627,273.715 224.362,277.741C227.102,281.763 226.057,287.244 222.035,289.979C212.153,296.703 197.501,300.557 181.839,300.557Z" style="fill:rgb(150,109,80);fill-rule:nonzero;"/>
                </g>
                <g transform="matrix(1,0,0,1,765.438,271.276)">
                    <path d="M241.674,136.102C241.674,136.102 251.219,135.367 261.13,141.976C278.422,153.504 296.371,146.87 296.371,146.87C296.371,146.87 313.991,168.406 313.991,203.647L331.611,203.647L331.611,106.735L225.305,106.735C216.019,133.37 199.223,154.956 188.815,159.963C188.813,159.962 216.711,165.468 241.674,136.102Z" style="fill:rgb(100,70,60);fill-rule:nonzero;"/>
                </g>
                <g transform="matrix(1,0,0,1,765.438,271.276)">
                    <path d="M115.763,238.886C108.465,238.886 102.548,232.969 102.548,225.671L102.548,216.861C102.548,209.563 108.465,203.646 115.763,203.646C123.061,203.646 128.978,209.563 128.978,216.861L128.978,225.671C128.978,232.97 123.061,238.886 115.763,238.886Z" style="fill:rgb(90,65,55);fill-rule:nonzero;"/>
                    <path d="M247.915,238.886C240.617,238.886 234.7,232.969 234.7,225.671L234.7,216.861C234.7,209.563 240.617,203.646 247.915,203.646C255.213,203.646 261.13,209.563 261.13,216.861L261.13,225.671C261.13,232.97 255.213,238.886 247.915,238.886Z" style="fill:rgb(90,65,55);fill-rule:nonzero;"/>
                </g>
                <g transform="matrix(1,0,0,1,765.438,271.276)">
                    <path d="M181.839,459.14C226.146,459.14 264.775,427.972 274.274,384.863L257.352,380.028L257.342,380.026C250.13,415.121 219.071,441.52 181.839,441.52C144.607,441.52 113.548,415.122 106.336,380.026L106.326,380.028L89.404,384.863C98.902,427.971 137.53,459.14 181.839,459.14Z" style="fill:rgb(0,170,154);fill-rule:nonzero;"/>
                    <path d="M26.87,409.893C17.136,418.986 10.312,431.074 8.037,444.729L0.244,491.483C-1.545,502.223 6.736,512 17.624,512L67.305,512L67.305,481.778C67.305,472.775 64.546,463.989 59.401,456.602L26.87,409.893Z" style="fill:rgb(0,170,154);fill-rule:nonzero;"/>
                    <path d="M336.807,409.893C346.541,418.986 353.365,431.074 355.64,444.729L363.433,491.483C365.223,502.223 356.941,512 346.053,512L296.372,512L296.372,481.778C296.372,472.775 299.131,463.989 304.276,456.602L336.807,409.893Z" style="fill:rgb(0,170,154);fill-rule:nonzero;"/>
                </g>
            </g>
        </g>
        <g transform="matrix(0.242708,0,0,0.359259,0,0)">
            <g transform="matrix(3.22227,0,0,2.1769,101.172,19.0838)">
                <g transform="matrix(34.9012,0,0,34.9012,32,101)">
                    <path d="M0.777,-0.619L0.255,-0.619C0.222,-0.619 0.193,-0.61 0.167,-0.592C0.14,-0.573 0.121,-0.548 0.11,-0.517L-0.04,-0.104C-0.049,-0.079 -0.046,-0.056 -0.031,-0.034C-0.016,-0.011 0.005,-0 0.032,-0L0.552,-0L0.608,-0.155L0.21,-0.155L0.323,-0.464L0.721,-0.464L0.777,-0.619Z" style="fill:rgb(224,172,126);fill-rule:nonzero;"/>
                </g>
                <g transform="matrix(34.9012,0,0,34.9012,56.8496,101)">
                    <path d="M0.17,-0.618L-0.055,-0L0.545,-0L0.601,-0.154L0.233,-0.154L0.402,-0.618L0.17,-0.618Z" style="fill:rgb(224,172,126);fill-rule:nonzero;"/>
                </g>
                <g transform="matrix(34.9012,0,0,34.9012,80.0938,101)">
                    <path d="M-0.055,-0L0.133,-0.517C0.144,-0.548 0.163,-0.573 0.19,-0.592C0.216,-0.61 0.246,-0.619 0.279,-0.619L0.867,-0.619L0.642,-0L0.409,-0L0.466,-0.155L0.234,-0.155L0.177,-0L-0.055,-0ZM0.346,-0.464L0.29,-0.309L0.522,-0.309L0.578,-0.464L0.346,-0.464Z" style="fill:rgb(224,172,126);fill-rule:nonzero;"/>
                </g>
                <g transform="matrix(34.9012,0,0,34.9012,108.434,101)">
                    <path d="M0.867,-0.619L0.279,-0.619C0.246,-0.619 0.216,-0.61 0.19,-0.592C0.163,-0.573 0.144,-0.548 0.133,-0.517L0.067,-0.336C0.058,-0.311 0.061,-0.287 0.077,-0.265C0.092,-0.243 0.113,-0.232 0.14,-0.232L0.494,-0.232L0.466,-0.155L0.001,-0.155L-0.055,-0L0.533,-0C0.566,-0 0.596,-0.009 0.623,-0.027C0.649,-0.045 0.668,-0.07 0.679,-0.101L0.745,-0.283C0.754,-0.308 0.751,-0.332 0.736,-0.354C0.72,-0.376 0.699,-0.387 0.672,-0.387L0.318,-0.387L0.346,-0.464L0.811,-0.464L0.867,-0.619Z" style="fill:rgb(224,172,126);fill-rule:nonzero;"/>
                </g>
                <g transform="matrix(34.9012,0,0,34.9012,136.773,101)">
                    <path d="M0.867,-0.619L0.17,-0.619L-0.055,-0L0.642,-0L0.698,-0.155L0.234,-0.155L0.267,-0.255L0.654,-0.255L0.705,-0.384L0.318,-0.384L0.346,-0.464L0.811,-0.464L0.867,-0.619Z" style="fill:rgb(224,172,126);fill-rule:nonzero;"/>
                </g>
                <g transform="matrix(34.9012,0,0,34.9012,41.9468,135.901)">
                    <path d="M-0.055,-0L0.17,-0.619L0.756,-0.619C0.783,-0.619 0.804,-0.608 0.819,-0.586C0.834,-0.564 0.837,-0.54 0.828,-0.515L0.777,-0.375C0.759,-0.334 0.732,-0.313 0.696,-0.31L0.7,-0.31C0.702,-0.309 0.709,-0.308 0.712,-0.307C0.715,-0.306 0.717,-0.305 0.72,-0.304C0.722,-0.303 0.724,-0.301 0.727,-0.299C0.729,-0.296 0.731,-0.294 0.732,-0.291C0.733,-0.288 0.734,-0.284 0.735,-0.28C0.736,-0.275 0.736,-0.27 0.735,-0.264C0.733,-0.258 0.732,-0.252 0.73,-0.245L0.678,-0.102C0.667,-0.071 0.648,-0.046 0.622,-0.028C0.595,-0.009 0.566,-0 0.533,-0L-0.055,-0ZM0.335,-0.464L0.296,-0.366L0.549,-0.366L0.589,-0.464L0.335,-0.464ZM0.513,-0.255L0.26,-0.255L0.223,-0.155L0.476,-0.155L0.513,-0.255Z" style="fill:rgb(224,172,126);fill-rule:nonzero;"/>
                </g>
                <g transform="matrix(34.9012,0,0,34.9012,70.147,135.901)">
                    <path d="M-0.055,-0L0.133,-0.517C0.144,-0.548 0.163,-0.573 0.19,-0.592C0.216,-0.61 0.246,-0.619 0.279,-0.619L0.867,-0.619L0.642,-0L0.409,-0L0.466,-0.155L0.234,-0.155L0.177,-0L-0.055,-0ZM0.346,-0.464L0.29,-0.309L0.522,-0.309L0.578,-0.464L0.346,-0.464Z" style="fill:rgb(224,172,126);fill-rule:nonzero;"/>
                </g>
                <g transform="matrix(34.9012,0,0,34.9012,98.4867,135.901)">
                    <path d="M0.867,-0.619L0.279,-0.619C0.246,-0.619 0.216,-0.61 0.19,-0.592C0.163,-0.573 0.144,-0.548 0.133,-0.517L0.067,-0.336C0.058,-0.311 0.061,-0.287 0.077,-0.265C0.092,-0.243 0.113,-0.232 0.14,-0.232L0.494,-0.232L0.466,-0.155L0.001,-0.155L-0.055,-0L0.533,-0C0.566,-0 0.596,-0.009 0.623,-0.027C0.649,-0.045 0.668,-0.07 0.679,-0.101L0.745,-0.283C0.754,-0.308 0.751,-0.332 0.736,-0.354C0.72,-0.376 0.699,-0.387 0.672,-0.387L0.318,-0.387L0.346,-0.464L0.811,-0.464L0.867,-0.619Z" style="fill:rgb(224,172,126);fill-rule:nonzero;"/>
                </g>
                <g transform="matrix(34.9012,0,0,34.9012,126.826,135.901)">
                    <path d="M0.867,-0.619L0.17,-0.619L-0.055,-0L0.642,-0L0.698,-0.155L0.234,-0.155L0.267,-0.255L0.654,-0.255L0.705,-0.384L0.318,-0.384L0.346,-0.464L0.811,-0.464L0.867,-0.619Z" style="fill:rgb(224,172,126);fill-rule:nonzero;"/>
                </g>
            </g>
        </g>
        <g transform="matrix(0.242708,0,0,0.359259,0,0)">
            <g transform="matrix(3.22227,0,0,2.1769,1163.39,653.739)">
                <g transform="matrix(34.9012,0,0,34.9012,-9.89884,101)">
                    <path d="M0.867,-0.619L0.279,-0.619C0.246,-0.619 0.216,-0.61 0.19,-0.592C0.163,-0.573 0.144,-0.548 0.133,-0.517L0.067,-0.336C0.058,-0.311 0.061,-0.287 0.077,-0.265C0.092,-0.243 0.113,-0.232 0.14,-0.232L0.494,-0.232L0.466,-0.155L0.001,-0.155L-0.055,-0L0.533,-0C0.566,-0 0.596,-0.009 0.623,-0.027C0.649,-0.045 0.668,-0.07 0.679,-0.101L0.745,-0.283C0.754,-0.308 0.751,-0.332 0.736,-0.354C0.72,-0.376 0.699,-0.387 0.672,-0.387L0.318,-0.387L0.346,-0.464L0.811,-0.464L0.867,-0.619Z" style="fill:rgb(0,190,165);fill-rule:nonzero;"/>
                </g>
                <g transform="matrix(34.9012,0,0,34.9012,18.4409,101)">
                    <path d="M0.157,-0.619L-0.03,-0.104C-0.039,-0.079 -0.036,-0.055 -0.021,-0.033C-0.006,-0.011 0.016,-0 0.043,-0L0.502,-0C0.535,-0 0.565,-0.009 0.592,-0.028C0.618,-0.046 0.637,-0.071 0.648,-0.102L0.836,-0.619L0.604,-0.619L0.435,-0.155L0.221,-0.155L0.39,-0.619L0.157,-0.619Z" style="fill:rgb(0,190,165);fill-rule:nonzero;"/>
                </g>
                <g transform="matrix(34.9012,0,0,34.9012,45.6987,101)">
                    <path d="M-0.055,-0L0.17,-0.619L0.756,-0.619C0.783,-0.619 0.804,-0.608 0.819,-0.586C0.834,-0.564 0.837,-0.54 0.828,-0.515L0.777,-0.375C0.759,-0.334 0.732,-0.313 0.696,-0.31L0.7,-0.31C0.702,-0.309 0.709,-0.308 0.712,-0.307C0.715,-0.306 0.717,-0.305 0.72,-0.304C0.722,-0.303 0.724,-0.301 0.727,-0.299C0.729,-0.296 0.731,-0.294 0.732,-0.291C0.733,-0.288 0.734,-0.284 0.735,-0.28C0.736,-0.275 0.736,-0.27 0.735,-0.264C0.733,-0.258 0.732,-0.252 0.73,-0.245L0.678,-0.102C0.667,-0.071 0.648,-0.046 0.622,-0.028C0.595,-0.009 0.566,-0 0.533,-0L-0.055,-0ZM0.335,-0.464L0.296,-0.366L0.549,-0.366L0.589,-0.464L0.335,-0.464ZM0.513,-0.255L0.26,-0.255L0.223,-0.155L0.476,-0.155L0.513,-0.255Z" style="fill:rgb(0,190,165);fill-rule:nonzero;"/>
                </g>
                <g transform="matrix(34.9012,0,0,34.9012,73.8988,101)">
                    <path d="M0.777,-0.619L0.255,-0.619C0.222,-0.619 0.193,-0.61 0.167,-0.592C0.14,-0.573 0.121,-0.548 0.11,-0.517L-0.04,-0.104C-0.049,-0.079 -0.046,-0.056 -0.031,-0.034C-0.016,-0.011 0.005,-0 0.032,-0L0.552,-0L0.608,-0.155L0.21,-0.155L0.323,-0.464L0.721,-0.464L0.777,-0.619Z" style="fill:rgb(0,190,165);fill-rule:nonzero;"/>
                </g>
                <g transform="matrix(34.9012,0,0,34.9012,98.7485,101)">
                    <path d="M0.17,-0.618L-0.055,-0L0.545,-0L0.601,-0.154L0.233,-0.154L0.402,-0.618L0.17,-0.618Z" style="fill:rgb(0,190,165);fill-rule:nonzero;"/>
                </g>
                <g transform="matrix(34.9012,0,0,34.9012,121.993,101)">
                    <path d="M-0.055,-0L0.133,-0.517C0.144,-0.548 0.163,-0.573 0.19,-0.592C0.216,-0.61 0.246,-0.619 0.279,-0.619L0.867,-0.619L0.642,-0L0.409,-0L0.466,-0.155L0.234,-0.155L0.177,-0L-0.055,-0ZM0.346,-0.464L0.29,-0.309L0.522,-0.309L0.578,-0.464L0.346,-0.464Z" style="fill:rgb(0,190,165);fill-rule:nonzero;"/>
                </g>
                <g transform="matrix(34.9012,0,0,34.9012,150.332,101)">
                    <path d="M0.867,-0.619L0.279,-0.619C0.246,-0.619 0.216,-0.61 0.19,-0.592C0.163,-0.573 0.144,-0.548 0.133,-0.517L0.067,-0.336C0.058,-0.311 0.061,-0.287 0.077,-0.265C0.092,-0.243 0.113,-0.232 0.14,-0.232L0.494,-0.232L0.466,-0.155L0.001,-0.155L-0.055,-0L0.533,-0C0.566,-0 0.596,-0.009 0.623,-0.027C0.649,-0.045 0.668,-0.07 0.679,-0.101L0.745,-0.283C0.754,-0.308 0.751,-0.332 0.736,-0.354C0.72,-0.376 0.699,-0.387 0.672,-0.387L0.318,-0.387L0.346,-0.464L0.811,-0.464L0.867,-0.619Z" style="fill:rgb(0,190,165);fill-rule:nonzero;"/>
                </g>
                <g transform="matrix(34.9012,0,0,34.9012,178.672,101)">
                    <path d="M0.867,-0.619L0.17,-0.619L-0.055,-0L0.642,-0L0.698,-0.155L0.234,-0.155L0.267,-0.255L0.654,-0.255L0.705,-0.384L0.318,-0.384L0.346,-0.464L0.811,-0.464L0.867,-0.619Z" style="fill:rgb(0,190,165);fill-rule:nonzero;"/>
                </g>
            </g>
        </g>
        <g transform="matrix(0.242708,0,0,0.359259,0,0)">
            <g transform="matrix(9.15598e-17,1.01018,-1.86763,7.72589e-17,1888.57,-191.373)">
                <path d="M631,536.55L631,499.45L750.802,499.45L750.802,465L817,518L750.802,571L750.802,536.55L631,536.55Z" style="fill:rgb(242,175,13);"/>
            </g>
        </g>
    </g>
</svg>
