<?xml version="1.0" encoding="UTF-8" standalone="no"?>
<!DOCTYPE svg PUBLIC "-//W3C//DTD SVG 1.1//EN" "http://www.w3.org/Graphics/SVG/1.1/DTD/svg11.dtd">
<svg width="456px" height="293px" version="1.1" xmlns="http://www.w3.org/2000/svg" xmlns:xlink="http://www.w3.org/1999/xlink" xml:space="preserve" xmlns:serif="http://www.serif.com/" style="fill-rule:evenodd;clip-rule:evenodd;stroke-linecap:round;stroke-miterlimit:10;">
    <g transform="matrix(1,0,0,1,-123,-102)">
        <g transform="matrix(0.365625,0,0,0.451852,0,0)">
            <g id="mold-light">
                <g transform="matrix(0.579496,0,0,0.468911,-63.2933,376.029)">
                    <g transform="matrix(1,0,0,1,691.276,404.573)">
                        <rect x="0.537" y="214.109" width="510.795" height="31.297" style="fill:rgb(251,0,0);"/>
                    </g>
                    <g transform="matrix(1,0,0,1,691.276,404.573)">
                        <path d="M469.856,178.393L42.144,178.393L0,0L512,0L469.856,178.393Z" style="fill:rgb(255,132,0);fill-rule:nonzero;"/>
                    </g>
                    <g transform="matrix(1,0,0,1,691.276,404.573)">
                        <path d="M192,0L202.536,178.393L256.001,178.393L256.001,0L192,0Z" style="fill:rgb(255,83,0);fill-rule:nonzero;"/>
                        <path d="M64,0L95.608,178.393L149.072,178.393L128,0L64,0Z" style="fill:rgb(255,83,0);fill-rule:nonzero;"/>
                        <path d="M448,0L416.392,178.393L469.856,178.393L512,0L448,0Z" style="fill:rgb(255,83,0);fill-rule:nonzero;"/>
                        <path d="M320,0L309.464,178.393L362.928,178.393L384,0L320,0Z" style="fill:rgb(255,83,0);fill-rule:nonzero;"/>
                    </g>
                </g>
                <g transform="matrix(0.325359,0,0,0.263271,744.698,305.014)">
                    <g transform="matrix(1,0,0,1,435.276,175.276)">
                        <path d="M960,544L960,128C960,92.891 931.109,64 896,64L128,64C92.891,64 64,92.891 64,128L64,544L960,544Z" style="fill:rgb(236,194,0);fill-rule:nonzero;"/>
                    </g>
                    <g transform="matrix(1,0,0,1,435.276,175.276)">
                        <path d="M352,0C316.891,0 288,28.891 288,64L416,64C416,28.891 387.109,0 352,0ZM512,0C476.891,0 448,28.891 448,64L576,64C576,28.891 547.109,0 512,0ZM672,0C636.891,0 608,28.891 608,64L736,64C736,28.891 707.109,0 672,0Z" style="fill:rgb(252,27,48);fill-rule:nonzero;"/>
                    </g>
                    <g transform="matrix(1,0,0,1,435.276,175.276)">
                        <rect x="64" y="512" width="896" height="32" style="fill:none;fill-rule:nonzero;"/>
                    </g>
                    <g transform="matrix(1,0,0,1,435.276,175.276)">
                        <path d="M64,256L960,256L960,320L64,320L64,256ZM64,384L960,384L960,448L64,448L64,384Z" style="fill:rgb(231,231,231);fill-rule:nonzero;"/>
                    </g>
                    <g transform="matrix(1,0,0,1,435.276,175.276)">
                        <path d="M64,128L64,190.56C66.805,191.46 69.727,191.945 72.672,192C83.68,192 94.624,184.288 94.624,184.288L152.672,144C159.392,140.32 162.432,140.256 168.672,144L226.72,184.288C226.72,184.288 237.664,192 248.672,192C259.68,192 270.624,184.288 270.624,184.288L328.672,144C335.392,140.32 338.432,140.256 344.672,144L402.72,184.288C402.72,184.288 413.664,192 424.672,192C435.68,192 446.624,184.288 446.624,184.288L504.672,144C511.392,140.32 514.432,140.256 520.672,144L578.72,184.288C578.72,184.288 589.664,192 600.672,192C611.68,192 622.624,184.288 622.624,184.288L680.672,144C687.392,140.32 690.432,140.256 696.672,144L754.72,184.288C754.72,184.288 765.664,192 776.672,192C787.68,192 798.624,184.288 798.624,184.288L856.672,144C859.053,142.483 861.764,141.561 864.576,141.312C867.301,141.503 869.923,142.432 872.16,144L930.208,184.288C930.208,184.288 941.152,192 952.16,192C954.814,191.95 957.45,191.552 960,190.816L960,128C960,92.891 931.109,64 896,64L128,64C92.891,64 64,92.891 64,128Z" style="fill:rgb(64,38,12);fill-rule:nonzero;"/>
                    </g>
                </g>
                <g transform="matrix(0.325359,0,0,0.263271,744.698,491.446)">
                    <g transform="matrix(1,0,0,1,435.276,175.276)">
                        <path d="M960,544L960,128C960,92.891 931.109,64 896,64L128,64C92.891,64 64,92.891 64,128L64,544L960,544Z" style="fill:rgb(246,0,229);fill-rule:nonzero;"/>
                    </g>
                    <g transform="matrix(1,0,0,1,435.276,175.276)">
                        <path d="M352,0C316.891,0 288,28.891 288,64L416,64C416,28.891 387.109,0 352,0ZM512,0C476.891,0 448,28.891 448,64L576,64C576,28.891 547.109,0 512,0ZM672,0C636.891,0 608,28.891 608,64L736,64C736,28.891 707.109,0 672,0Z" style="fill:rgb(33,130,244);fill-rule:nonzero;"/>
                    </g>
                    <g transform="matrix(1,0,0,1,435.276,175.276)">
                        <rect x="64" y="512" width="896" height="32" style="fill:none;fill-rule:nonzero;"/>
                    </g>
                    <g transform="matrix(1,0,0,1,435.276,175.276)">
                        <path d="M64,256L960,256L960,320L64,320L64,256ZM64,384L960,384L960,448L64,448L64,384Z" style="fill:rgb(231,231,231);fill-rule:nonzero;"/>
                    </g>
                    <g transform="matrix(1,0,0,1,435.276,175.276)">
                        <path d="M64,128L64,190.56C66.805,191.46 69.727,191.945 72.672,192C83.68,192 94.624,184.288 94.624,184.288L152.672,144C159.392,140.32 162.432,140.256 168.672,144L226.72,184.288C226.72,184.288 237.664,192 248.672,192C259.68,192 270.624,184.288 270.624,184.288L328.672,144C335.392,140.32 338.432,140.256 344.672,144L402.72,184.288C402.72,184.288 413.664,192 424.672,192C435.68,192 446.624,184.288 446.624,184.288L504.672,144C511.392,140.32 514.432,140.256 520.672,144L578.72,184.288C578.72,184.288 589.664,192 600.672,192C611.68,192 622.624,184.288 622.624,184.288L680.672,144C687.392,140.32 690.432,140.256 696.672,144L754.72,184.288C754.72,184.288 765.664,192 776.672,192C787.68,192 798.624,184.288 798.624,184.288L856.672,144C859.053,142.483 861.764,141.561 864.576,141.312C867.301,141.503 869.923,142.432 872.16,144L930.208,184.288C930.208,184.288 941.152,192 952.16,192C954.814,191.95 957.45,191.552 960,190.816L960,128C960,92.891 931.109,64 896,64L128,64C92.891,64 64,92.891 64,128Z" style="fill:rgb(53,167,37);fill-rule:nonzero;"/>
                    </g>
                </g>
                <g transform="matrix(0.325359,0,0,0.263271,744.698,677.879)">
                    <g transform="matrix(1,0,0,1,435.276,175.276)">
                        <path d="M960,544L960,128C960,92.891 931.109,64 896,64L128,64C92.891,64 64,92.891 64,128L64,544L960,544Z" style="fill:rgb(246,55,39);fill-rule:nonzero;"/>
                    </g>
                    <g transform="matrix(1,0,0,1,435.276,175.276)">
                        <path d="M352,0C316.891,0 288,28.891 288,64L416,64C416,28.891 387.109,0 352,0ZM512,0C476.891,0 448,28.891 448,64L576,64C576,28.891 547.109,0 512,0ZM672,0C636.891,0 608,28.891 608,64L736,64C736,28.891 707.109,0 672,0Z" style="fill:rgb(0,203,124);fill-rule:nonzero;"/>
                    </g>
                    <g transform="matrix(1,0,0,1,435.276,175.276)">
                        <rect x="64" y="512" width="896" height="32" style="fill:none;fill-rule:nonzero;"/>
                    </g>
                    <g transform="matrix(1,0,0,1,435.276,175.276)">
                        <path d="M64,256L960,256L960,320L64,320L64,256ZM64,384L960,384L960,448L64,448L64,384Z" style="fill:rgb(231,231,231);fill-rule:nonzero;"/>
                    </g>
                    <g transform="matrix(1,0,0,1,435.276,175.276)">
                        <path d="M64,128L64,190.56C66.805,191.46 69.727,191.945 72.672,192C83.68,192 94.624,184.288 94.624,184.288L152.672,144C159.392,140.32 162.432,140.256 168.672,144L226.72,184.288C226.72,184.288 237.664,192 248.672,192C259.68,192 270.624,184.288 270.624,184.288L328.672,144C335.392,140.32 338.432,140.256 344.672,144L402.72,184.288C402.72,184.288 413.664,192 424.672,192C435.68,192 446.624,184.288 446.624,184.288L504.672,144C511.392,140.32 514.432,140.256 520.672,144L578.72,184.288C578.72,184.288 589.664,192 600.672,192C611.68,192 622.624,184.288 622.624,184.288L680.672,144C687.392,140.32 690.432,140.256 696.672,144L754.72,184.288C754.72,184.288 765.664,192 776.672,192C787.68,192 798.624,184.288 798.624,184.288L856.672,144C859.053,142.483 861.764,141.561 864.576,141.312C867.301,141.503 869.923,142.432 872.16,144L930.208,184.288C930.208,184.288 941.152,192 952.16,192C954.814,191.95 957.45,191.552 960,190.816L960,128C960,92.891 931.109,64 896,64L128,64C92.891,64 64,92.891 64,128Z" style="fill:rgb(0,153,209);fill-rule:nonzero;"/>
                    </g>
                </g>
                <g transform="matrix(1.65755,0,0,1.34124,-160.733,-311.934)">
                    <g transform="matrix(46.2014,0,0,46.2014,342.779,625.058)">
                        <path d="M0.585,-0.193C0.585,-0.179 0.581,-0.162 0.574,-0.14C0.556,-0.089 0.521,-0.048 0.468,-0.018C0.418,0.011 0.365,0.025 0.308,0.025C0.21,0.025 0.137,-0.015 0.088,-0.095C0.046,-0.161 0.025,-0.245 0.025,-0.349C0.025,-0.437 0.038,-0.52 0.064,-0.599C0.093,-0.69 0.136,-0.761 0.194,-0.811C0.236,-0.849 0.279,-0.868 0.323,-0.868C0.387,-0.868 0.435,-0.837 0.466,-0.775C0.491,-0.727 0.504,-0.667 0.504,-0.596C0.504,-0.561 0.498,-0.521 0.488,-0.475C0.473,-0.415 0.455,-0.385 0.433,-0.385C0.415,-0.385 0.403,-0.394 0.395,-0.413C0.4,-0.416 0.408,-0.422 0.419,-0.43C0.44,-0.451 0.451,-0.502 0.451,-0.583C0.451,-0.632 0.442,-0.679 0.424,-0.724C0.4,-0.782 0.368,-0.811 0.328,-0.811C0.295,-0.811 0.261,-0.792 0.225,-0.753C0.198,-0.723 0.175,-0.69 0.156,-0.651C0.114,-0.563 0.092,-0.454 0.093,-0.325C0.092,-0.239 0.108,-0.171 0.138,-0.12C0.175,-0.057 0.233,-0.025 0.313,-0.025C0.356,-0.025 0.395,-0.036 0.431,-0.059C0.467,-0.082 0.495,-0.113 0.514,-0.151C0.517,-0.164 0.524,-0.181 0.535,-0.204C0.542,-0.215 0.55,-0.22 0.56,-0.22C0.577,-0.22 0.585,-0.211 0.585,-0.193Z" style="fill-rule:nonzero;"/>
                    </g>
                    <g transform="matrix(46.2014,0,0,46.2014,370.384,625.058)">
                        <path d="M0.124,-0.013C0.124,0.009 0.112,0.02 0.089,0.02C0.052,0.02 0.034,-0.055 0.035,-0.206L0.039,-0.768C0.039,-0.777 0.038,-0.79 0.035,-0.807C0.033,-0.824 0.031,-0.837 0.031,-0.845C0.047,-0.857 0.06,-0.863 0.071,-0.863C0.083,-0.863 0.095,-0.858 0.106,-0.85C0.118,-0.842 0.124,-0.832 0.124,-0.82C0.124,-0.812 0.122,-0.801 0.118,-0.788C0.113,-0.771 0.11,-0.76 0.109,-0.756C0.099,-0.7 0.094,-0.62 0.094,-0.519C0.094,-0.355 0.093,-0.275 0.093,-0.281C0.095,-0.179 0.102,-0.102 0.113,-0.05C0.113,-0.048 0.114,-0.042 0.118,-0.033C0.122,-0.024 0.124,-0.018 0.124,-0.013Z" style="fill-rule:nonzero;"/>
                    </g>
                    <g transform="matrix(46.2014,0,0,46.2014,377.083,625.058)">
                        <path d="M0.42,0.036C0.42,0.048 0.411,0.054 0.393,0.054C0.373,0.054 0.36,0.045 0.356,0.029C0.355,0.026 0.355,0.01 0.355,-0.02C0.355,-0.028 0.354,-0.035 0.351,-0.04C0.305,-0.006 0.254,0.011 0.2,0.011C0.163,0.011 0.126,0.001 0.091,-0.02C0.051,-0.043 0.031,-0.073 0.031,-0.108C0.031,-0.142 0.055,-0.175 0.103,-0.208C0.146,-0.238 0.186,-0.253 0.223,-0.253L0.346,-0.253C0.351,-0.258 0.354,-0.266 0.354,-0.279C0.354,-0.335 0.349,-0.377 0.34,-0.405C0.325,-0.452 0.295,-0.476 0.251,-0.476C0.22,-0.476 0.19,-0.456 0.164,-0.416C0.14,-0.38 0.128,-0.345 0.128,-0.311L0.128,-0.298C0.128,-0.291 0.124,-0.288 0.118,-0.288C0.109,-0.288 0.1,-0.293 0.09,-0.303C0.08,-0.313 0.075,-0.321 0.075,-0.329C0.075,-0.352 0.082,-0.381 0.096,-0.417C0.11,-0.452 0.126,-0.479 0.143,-0.498C0.163,-0.52 0.189,-0.531 0.22,-0.531C0.268,-0.531 0.311,-0.516 0.351,-0.486C0.394,-0.454 0.415,-0.415 0.416,-0.369L0.42,0.036ZM0.354,-0.163C0.354,-0.196 0.328,-0.213 0.276,-0.213C0.235,-0.213 0.2,-0.205 0.169,-0.191C0.13,-0.173 0.11,-0.145 0.11,-0.109C0.11,-0.086 0.12,-0.069 0.141,-0.056C0.159,-0.045 0.18,-0.04 0.204,-0.04C0.24,-0.04 0.274,-0.052 0.306,-0.075C0.338,-0.098 0.354,-0.128 0.354,-0.163Z" style="fill-rule:nonzero;"/>
                    </g>
                    <g transform="matrix(46.2014,0,0,46.2014,397.932,625.058)">
                        <path d="M0.415,-0.074C0.415,-0.045 0.393,-0.02 0.349,-0C0.312,0.016 0.277,0.024 0.243,0.024C0.22,0.024 0.194,0.018 0.165,0.008C0.149,0.001 0.124,-0.017 0.089,-0.045C0.05,-0.076 0.031,-0.097 0.031,-0.109C0.031,-0.135 0.047,-0.146 0.078,-0.144L0.085,-0.144C0.087,-0.119 0.113,-0.092 0.165,-0.063C0.212,-0.036 0.249,-0.023 0.278,-0.023C0.314,-0.023 0.333,-0.035 0.333,-0.06C0.333,-0.075 0.31,-0.096 0.265,-0.123C0.203,-0.158 0.161,-0.187 0.139,-0.209C0.093,-0.253 0.07,-0.304 0.07,-0.361C0.07,-0.405 0.081,-0.446 0.104,-0.485C0.13,-0.532 0.162,-0.555 0.201,-0.555C0.23,-0.555 0.264,-0.542 0.304,-0.516C0.344,-0.489 0.367,-0.463 0.374,-0.436C0.38,-0.414 0.384,-0.388 0.384,-0.358C0.384,-0.325 0.378,-0.29 0.366,-0.251C0.359,-0.245 0.35,-0.243 0.34,-0.243C0.334,-0.243 0.325,-0.245 0.313,-0.249C0.3,-0.254 0.294,-0.259 0.294,-0.264C0.294,-0.26 0.298,-0.27 0.308,-0.291C0.314,-0.305 0.318,-0.331 0.318,-0.369C0.318,-0.458 0.29,-0.503 0.234,-0.503C0.205,-0.503 0.181,-0.483 0.164,-0.444C0.149,-0.412 0.141,-0.38 0.141,-0.348C0.141,-0.307 0.165,-0.267 0.213,-0.229C0.228,-0.215 0.272,-0.187 0.344,-0.143C0.391,-0.113 0.415,-0.09 0.415,-0.074Z" style="fill-rule:nonzero;"/>
                    </g>
                    <g transform="matrix(46.2014,0,0,46.2014,417.625,625.058)">
                        <path d="M0.398,-0.124C0.398,-0.087 0.373,-0.054 0.324,-0.025C0.28,0.002 0.238,0.015 0.199,0.015C0.087,0.015 0.031,-0.056 0.031,-0.198C0.031,-0.26 0.043,-0.327 0.065,-0.399C0.095,-0.492 0.133,-0.539 0.18,-0.539C0.22,-0.539 0.264,-0.519 0.311,-0.478C0.359,-0.438 0.383,-0.397 0.383,-0.358C0.383,-0.306 0.362,-0.261 0.32,-0.223C0.278,-0.184 0.231,-0.165 0.179,-0.165C0.174,-0.165 0.163,-0.169 0.147,-0.178C0.131,-0.186 0.12,-0.19 0.114,-0.19C0.103,-0.19 0.097,-0.187 0.098,-0.18C0.097,-0.084 0.129,-0.036 0.193,-0.036C0.225,-0.036 0.255,-0.047 0.283,-0.069C0.299,-0.081 0.318,-0.101 0.338,-0.128C0.353,-0.148 0.364,-0.159 0.369,-0.159C0.388,-0.159 0.398,-0.147 0.398,-0.124ZM0.311,-0.354C0.311,-0.383 0.303,-0.41 0.286,-0.436C0.27,-0.461 0.247,-0.474 0.22,-0.474C0.187,-0.474 0.16,-0.453 0.139,-0.411C0.121,-0.376 0.113,-0.34 0.113,-0.303C0.113,-0.278 0.12,-0.258 0.136,-0.242C0.151,-0.226 0.171,-0.218 0.195,-0.218C0.229,-0.218 0.258,-0.232 0.28,-0.261C0.301,-0.288 0.311,-0.319 0.311,-0.354Z" style="fill-rule:nonzero;"/>
                    </g>
                </g>
                <g transform="matrix(1.65755,0,0,1.34124,364.733,-558.266)">
                    <g transform="matrix(46.2014,0,0,46.2014,348.159,625.058)">
                        <path d="M0.67,-0.424C0.67,-0.306 0.644,-0.204 0.591,-0.118C0.53,-0.016 0.444,0.035 0.335,0.035C0.308,0.035 0.275,0.029 0.239,0.016C0.1,-0.028 0.03,-0.153 0.03,-0.359C0.03,-0.479 0.057,-0.587 0.11,-0.683C0.173,-0.798 0.26,-0.855 0.371,-0.855C0.468,-0.855 0.544,-0.805 0.6,-0.706C0.647,-0.624 0.67,-0.53 0.67,-0.424ZM0.6,-0.435C0.6,-0.62 0.538,-0.733 0.415,-0.775C0.402,-0.78 0.39,-0.783 0.38,-0.783C0.327,-0.783 0.274,-0.758 0.223,-0.709C0.135,-0.625 0.091,-0.497 0.091,-0.323C0.091,-0.307 0.095,-0.282 0.101,-0.248C0.115,-0.176 0.139,-0.123 0.171,-0.088C0.21,-0.048 0.263,-0.028 0.333,-0.028C0.428,-0.028 0.498,-0.075 0.545,-0.169C0.582,-0.241 0.6,-0.33 0.6,-0.435Z" style="fill-rule:nonzero;"/>
                    </g>
                    <g transform="matrix(46.2014,0,0,46.2014,381.193,625.058)">
                        <path d="M0.396,-0.278C0.396,-0.205 0.386,-0.144 0.366,-0.095C0.339,-0.027 0.294,0.008 0.231,0.008C0.215,0.008 0.194,0.003 0.168,-0.006C0.147,-0.014 0.126,-0.021 0.105,-0.029C0.103,-0.024 0.102,-0.018 0.103,-0.013C0.102,-0.008 0.105,0.02 0.105,0.024C0.105,0.036 0.098,0.043 0.084,0.043C0.07,0.043 0.058,0.037 0.049,0.025C0.043,0.019 0.038,-0.005 0.035,-0.049C0.033,-0.083 0.031,-0.11 0.031,-0.129L0.031,-0.136L0.055,-0.834L0.073,-0.834C0.084,-0.834 0.095,-0.828 0.106,-0.816C0.116,-0.804 0.121,-0.791 0.121,-0.779C0.121,-0.748 0.117,-0.702 0.109,-0.641C0.101,-0.58 0.097,-0.535 0.098,-0.504L0.098,-0.456C0.104,-0.459 0.113,-0.468 0.123,-0.485C0.135,-0.506 0.146,-0.52 0.155,-0.529C0.172,-0.544 0.192,-0.551 0.216,-0.551C0.257,-0.551 0.294,-0.535 0.328,-0.501C0.358,-0.471 0.378,-0.435 0.388,-0.393C0.393,-0.364 0.396,-0.326 0.396,-0.278ZM0.33,-0.27C0.33,-0.322 0.325,-0.366 0.314,-0.404C0.298,-0.462 0.271,-0.491 0.234,-0.491C0.188,-0.491 0.152,-0.458 0.125,-0.39C0.104,-0.337 0.094,-0.283 0.094,-0.229C0.094,-0.18 0.102,-0.139 0.119,-0.105C0.14,-0.059 0.171,-0.036 0.214,-0.036C0.256,-0.036 0.288,-0.066 0.309,-0.126C0.323,-0.169 0.33,-0.217 0.33,-0.27Z" style="fill-rule:nonzero;"/>
                    </g>
                    <g transform="matrix(46.2014,0,0,46.2014,399.096,625.058)">
                        <path d="M0.191,-0.616C0.191,-0.605 0.186,-0.595 0.176,-0.586C0.165,-0.578 0.154,-0.574 0.143,-0.574C0.13,-0.574 0.112,-0.589 0.089,-0.619L0.089,-0.636C0.089,-0.661 0.101,-0.674 0.126,-0.674C0.143,-0.674 0.158,-0.668 0.171,-0.658C0.185,-0.647 0.191,-0.633 0.191,-0.616ZM0.184,-0.489C0.17,-0.447 0.163,-0.408 0.163,-0.373C0.163,-0.316 0.164,-0.231 0.166,-0.118C0.169,-0.005 0.17,0.08 0.17,0.136C0.17,0.191 0.157,0.24 0.13,0.281C0.098,0.33 0.057,0.354 0.005,0.354C-0.022,0.354 -0.063,0.342 -0.115,0.318C-0.173,0.292 -0.203,0.267 -0.203,0.244C-0.203,0.23 -0.194,0.223 -0.176,0.223C-0.17,0.223 -0.166,0.223 -0.164,0.224C-0.125,0.27 -0.078,0.294 -0.021,0.294C0.065,0.294 0.109,0.218 0.109,0.068C0.109,0.063 0.106,-0.12 0.1,-0.481L0.11,-0.493C0.136,-0.499 0.15,-0.503 0.154,-0.503C0.165,-0.503 0.175,-0.498 0.184,-0.489Z" style="fill-rule:nonzero;"/>
                    </g>
                    <g transform="matrix(46.2014,0,0,46.2014,409.376,625.058)">
                        <path d="M0.398,-0.124C0.398,-0.087 0.373,-0.054 0.324,-0.025C0.28,0.002 0.238,0.015 0.199,0.015C0.087,0.015 0.031,-0.056 0.031,-0.198C0.031,-0.26 0.043,-0.327 0.065,-0.399C0.095,-0.492 0.133,-0.539 0.18,-0.539C0.22,-0.539 0.264,-0.519 0.311,-0.478C0.359,-0.438 0.383,-0.397 0.383,-0.358C0.383,-0.306 0.362,-0.261 0.32,-0.223C0.278,-0.184 0.231,-0.165 0.179,-0.165C0.174,-0.165 0.163,-0.169 0.147,-0.178C0.131,-0.186 0.12,-0.19 0.114,-0.19C0.103,-0.19 0.097,-0.187 0.098,-0.18C0.097,-0.084 0.129,-0.036 0.193,-0.036C0.225,-0.036 0.255,-0.047 0.283,-0.069C0.299,-0.081 0.318,-0.101 0.338,-0.128C0.353,-0.148 0.364,-0.159 0.369,-0.159C0.388,-0.159 0.398,-0.147 0.398,-0.124ZM0.311,-0.354C0.311,-0.383 0.303,-0.41 0.286,-0.436C0.27,-0.461 0.247,-0.474 0.22,-0.474C0.187,-0.474 0.16,-0.453 0.139,-0.411C0.121,-0.376 0.113,-0.34 0.113,-0.303C0.113,-0.278 0.12,-0.258 0.136,-0.242C0.151,-0.226 0.171,-0.218 0.195,-0.218C0.229,-0.218 0.258,-0.232 0.28,-0.261C0.301,-0.288 0.311,-0.319 0.311,-0.354Z" style="fill-rule:nonzero;"/>
                    </g>
                    <g transform="matrix(46.2014,0,0,46.2014,427.048,625.058)">
                        <path d="M0.293,-0.394C0.286,-0.389 0.27,-0.385 0.245,-0.381C0.218,-0.378 0.202,-0.375 0.198,-0.373C0.197,-0.363 0.196,-0.317 0.196,-0.234C0.196,-0.169 0.197,-0.125 0.199,-0.103C0.199,-0.093 0.201,-0.079 0.205,-0.059C0.209,-0.039 0.211,-0.023 0.211,-0.013C0.211,-0.006 0.207,0.001 0.199,0.008C0.19,0.014 0.183,0.018 0.176,0.018C0.16,0.018 0.146,0 0.136,-0.034C0.13,-0.059 0.126,-0.083 0.126,-0.105C0.126,-0.223 0.127,-0.309 0.129,-0.365C0.124,-0.369 0.105,-0.369 0.071,-0.365C0.045,-0.362 0.031,-0.371 0.031,-0.394C0.031,-0.425 0.065,-0.44 0.133,-0.438L0.149,-0.664C0.149,-0.666 0.148,-0.67 0.146,-0.676C0.144,-0.681 0.143,-0.685 0.143,-0.688C0.143,-0.693 0.146,-0.697 0.153,-0.702C0.159,-0.706 0.167,-0.708 0.176,-0.708C0.205,-0.705 0.22,-0.69 0.22,-0.664C0.22,-0.643 0.217,-0.612 0.211,-0.57C0.205,-0.528 0.203,-0.498 0.203,-0.478C0.203,-0.468 0.203,-0.458 0.205,-0.449L0.274,-0.453C0.297,-0.452 0.309,-0.443 0.309,-0.425C0.309,-0.412 0.303,-0.401 0.293,-0.394Z" style="fill-rule:nonzero;"/>
                    </g>
                    <g transform="matrix(46.2014,0,0,46.2014,440.909,625.058)">
                        <path d="M0.428,-0.246C0.428,-0.175 0.412,-0.112 0.38,-0.059C0.342,0.005 0.29,0.038 0.224,0.038C0.156,0.038 0.106,0.011 0.073,-0.041C0.045,-0.085 0.031,-0.142 0.031,-0.214C0.031,-0.285 0.047,-0.354 0.079,-0.423C0.119,-0.507 0.17,-0.549 0.231,-0.549C0.247,-0.549 0.27,-0.54 0.299,-0.521C0.385,-0.468 0.428,-0.376 0.428,-0.246ZM0.368,-0.248C0.368,-0.301 0.36,-0.349 0.346,-0.391C0.325,-0.45 0.293,-0.48 0.25,-0.48C0.2,-0.48 0.161,-0.447 0.133,-0.381C0.111,-0.33 0.1,-0.276 0.1,-0.218C0.1,-0.165 0.108,-0.121 0.123,-0.085C0.144,-0.036 0.178,-0.011 0.224,-0.011C0.274,-0.011 0.312,-0.04 0.338,-0.096C0.358,-0.14 0.368,-0.191 0.368,-0.248Z" style="fill-rule:nonzero;"/>
                    </g>
                    <g transform="matrix(46.2014,0,0,46.2014,461.642,625.058)">
                        <path d="M0.415,-0.074C0.415,-0.045 0.393,-0.02 0.349,-0C0.312,0.016 0.277,0.024 0.243,0.024C0.22,0.024 0.194,0.018 0.165,0.008C0.149,0.001 0.124,-0.017 0.089,-0.045C0.05,-0.076 0.031,-0.097 0.031,-0.109C0.031,-0.135 0.047,-0.146 0.078,-0.144L0.085,-0.144C0.087,-0.119 0.113,-0.092 0.165,-0.063C0.212,-0.036 0.249,-0.023 0.278,-0.023C0.314,-0.023 0.333,-0.035 0.333,-0.06C0.333,-0.075 0.31,-0.096 0.265,-0.123C0.203,-0.158 0.161,-0.187 0.139,-0.209C0.093,-0.253 0.07,-0.304 0.07,-0.361C0.07,-0.405 0.081,-0.446 0.104,-0.485C0.13,-0.532 0.162,-0.555 0.201,-0.555C0.23,-0.555 0.264,-0.542 0.304,-0.516C0.344,-0.489 0.367,-0.463 0.374,-0.436C0.38,-0.414 0.384,-0.388 0.384,-0.358C0.384,-0.325 0.378,-0.29 0.366,-0.251C0.359,-0.245 0.35,-0.243 0.34,-0.243C0.334,-0.243 0.325,-0.245 0.313,-0.249C0.3,-0.254 0.294,-0.259 0.294,-0.264C0.294,-0.26 0.298,-0.27 0.308,-0.291C0.314,-0.305 0.318,-0.331 0.318,-0.369C0.318,-0.458 0.29,-0.503 0.234,-0.503C0.205,-0.503 0.181,-0.483 0.164,-0.444C0.149,-0.412 0.141,-0.38 0.141,-0.348C0.141,-0.307 0.165,-0.267 0.213,-0.229C0.228,-0.215 0.272,-0.187 0.344,-0.143C0.391,-0.113 0.415,-0.09 0.415,-0.074Z" style="fill-rule:nonzero;"/>
                    </g>
                </g>
                <g transform="matrix(1.65755,0,0,1.34124,697.879,-382.412)">
                    <g transform="matrix(30,0,0,30,330,625.058)">
                        <path d="M0.56,-0.78C0.56,-0.759 0.553,-0.749 0.539,-0.749C0.54,-0.749 0.531,-0.753 0.511,-0.763C0.499,-0.769 0.467,-0.773 0.415,-0.773L0.359,-0.773C0.339,-0.773 0.326,-0.769 0.321,-0.763C0.316,-0.757 0.312,-0.743 0.309,-0.721C0.306,-0.699 0.302,-0.666 0.295,-0.623C0.279,-0.495 0.271,-0.359 0.271,-0.214C0.271,-0.106 0.282,-0.034 0.305,0.004C0.305,0.015 0.301,0.021 0.293,0.021C0.249,0.021 0.222,-0.004 0.21,-0.054C0.205,-0.073 0.203,-0.115 0.203,-0.179C0.203,-0.272 0.204,-0.343 0.208,-0.39C0.208,-0.413 0.213,-0.465 0.221,-0.548C0.228,-0.613 0.231,-0.666 0.231,-0.705C0.231,-0.752 0.232,-0.764 0.233,-0.74C0.232,-0.753 0.226,-0.759 0.216,-0.759C0.201,-0.759 0.179,-0.756 0.149,-0.75C0.12,-0.744 0.097,-0.741 0.083,-0.741C0.049,-0.741 0.028,-0.755 0.018,-0.781C0.026,-0.795 0.088,-0.81 0.204,-0.824C0.3,-0.835 0.371,-0.84 0.415,-0.84C0.512,-0.84 0.56,-0.82 0.56,-0.78Z" style="fill-rule:nonzero;"/>
                    </g>
                    <g transform="matrix(30,0,0,30,341.775,625.058)">
                        <path d="M0.42,0.036C0.42,0.048 0.411,0.054 0.393,0.054C0.373,0.054 0.36,0.045 0.356,0.029C0.355,0.026 0.355,0.01 0.355,-0.02C0.355,-0.028 0.354,-0.035 0.351,-0.04C0.305,-0.006 0.254,0.011 0.2,0.011C0.163,0.011 0.126,0.001 0.091,-0.02C0.051,-0.043 0.031,-0.073 0.031,-0.108C0.031,-0.142 0.055,-0.175 0.103,-0.208C0.146,-0.238 0.186,-0.253 0.223,-0.253L0.346,-0.253C0.351,-0.258 0.354,-0.266 0.354,-0.279C0.354,-0.335 0.349,-0.377 0.34,-0.405C0.325,-0.452 0.295,-0.476 0.251,-0.476C0.22,-0.476 0.19,-0.456 0.164,-0.416C0.14,-0.38 0.128,-0.345 0.128,-0.311L0.128,-0.298C0.128,-0.291 0.124,-0.288 0.118,-0.288C0.109,-0.288 0.1,-0.293 0.09,-0.303C0.08,-0.313 0.075,-0.321 0.075,-0.329C0.075,-0.352 0.082,-0.381 0.096,-0.417C0.11,-0.452 0.126,-0.479 0.143,-0.498C0.163,-0.52 0.189,-0.531 0.22,-0.531C0.268,-0.531 0.311,-0.516 0.351,-0.486C0.394,-0.454 0.415,-0.415 0.416,-0.369L0.42,0.036ZM0.354,-0.163C0.354,-0.196 0.328,-0.213 0.276,-0.213C0.235,-0.213 0.2,-0.205 0.169,-0.191C0.13,-0.173 0.11,-0.145 0.11,-0.109C0.11,-0.086 0.12,-0.069 0.141,-0.056C0.159,-0.045 0.18,-0.04 0.204,-0.04C0.24,-0.04 0.274,-0.052 0.306,-0.075C0.338,-0.098 0.354,-0.128 0.354,-0.163Z" style="fill-rule:nonzero;"/>
                    </g>
                    <g transform="matrix(30,0,0,30,356.1,625.058)">
                        <path d="M0.309,-0.445C0.309,-0.442 0.308,-0.435 0.308,-0.424C0.297,-0.407 0.286,-0.399 0.276,-0.399C0.27,-0.399 0.264,-0.403 0.259,-0.411C0.256,-0.464 0.235,-0.49 0.194,-0.49C0.167,-0.49 0.141,-0.441 0.115,-0.343C0.105,-0.307 0.1,-0.259 0.1,-0.199C0.1,-0.122 0.102,-0.075 0.106,-0.058C0.107,-0.055 0.109,-0.05 0.113,-0.042C0.116,-0.034 0.118,-0.028 0.118,-0.024C0.118,-0.005 0.105,0.004 0.08,0.004C0.052,0.004 0.038,-0.011 0.038,-0.04C0.038,-0.044 0.039,-0.05 0.041,-0.058C0.043,-0.066 0.044,-0.072 0.044,-0.076C0.044,-0.122 0.042,-0.191 0.038,-0.283C0.033,-0.374 0.031,-0.443 0.031,-0.489C0.031,-0.505 0.034,-0.516 0.04,-0.519C0.046,-0.523 0.057,-0.525 0.074,-0.525C0.095,-0.525 0.107,-0.518 0.11,-0.503C0.111,-0.486 0.112,-0.47 0.113,-0.454C0.134,-0.487 0.147,-0.506 0.15,-0.51C0.168,-0.531 0.188,-0.541 0.208,-0.541C0.223,-0.541 0.238,-0.537 0.253,-0.528C0.261,-0.523 0.272,-0.51 0.287,-0.489C0.301,-0.468 0.309,-0.453 0.309,-0.445Z" style="fill-rule:nonzero;"/>
                    </g>
                    <g transform="matrix(30,0,0,30,364.5,625.058)">
                        <path d="M0.293,-0.394C0.286,-0.389 0.27,-0.385 0.245,-0.381C0.218,-0.378 0.202,-0.375 0.198,-0.373C0.197,-0.363 0.196,-0.317 0.196,-0.234C0.196,-0.169 0.197,-0.125 0.199,-0.103C0.199,-0.093 0.201,-0.079 0.205,-0.059C0.209,-0.039 0.211,-0.023 0.211,-0.013C0.211,-0.006 0.207,0.001 0.199,0.008C0.19,0.014 0.183,0.018 0.176,0.018C0.16,0.018 0.146,0 0.136,-0.034C0.13,-0.059 0.126,-0.083 0.126,-0.105C0.126,-0.223 0.127,-0.309 0.129,-0.365C0.124,-0.369 0.105,-0.369 0.071,-0.365C0.045,-0.362 0.031,-0.371 0.031,-0.394C0.031,-0.425 0.065,-0.44 0.133,-0.438L0.149,-0.664C0.149,-0.666 0.148,-0.67 0.146,-0.676C0.144,-0.681 0.143,-0.685 0.143,-0.688C0.143,-0.693 0.146,-0.697 0.153,-0.702C0.159,-0.706 0.167,-0.708 0.176,-0.708C0.205,-0.705 0.22,-0.69 0.22,-0.664C0.22,-0.643 0.217,-0.612 0.211,-0.57C0.205,-0.528 0.203,-0.498 0.203,-0.478C0.203,-0.468 0.203,-0.458 0.205,-0.449L0.274,-0.453C0.297,-0.452 0.309,-0.443 0.309,-0.425C0.309,-0.412 0.303,-0.401 0.293,-0.394Z" style="fill-rule:nonzero;"/>
                    </g>
                    <g transform="matrix(30,0,0,30,372.675,625.058)">
                        <path d="M0.42,0.036C0.42,0.048 0.411,0.054 0.393,0.054C0.373,0.054 0.36,0.045 0.356,0.029C0.355,0.026 0.355,0.01 0.355,-0.02C0.355,-0.028 0.354,-0.035 0.351,-0.04C0.305,-0.006 0.254,0.011 0.2,0.011C0.163,0.011 0.126,0.001 0.091,-0.02C0.051,-0.043 0.031,-0.073 0.031,-0.108C0.031,-0.142 0.055,-0.175 0.103,-0.208C0.146,-0.238 0.186,-0.253 0.223,-0.253L0.346,-0.253C0.351,-0.258 0.354,-0.266 0.354,-0.279C0.354,-0.335 0.349,-0.377 0.34,-0.405C0.325,-0.452 0.295,-0.476 0.251,-0.476C0.22,-0.476 0.19,-0.456 0.164,-0.416C0.14,-0.38 0.128,-0.345 0.128,-0.311L0.128,-0.298C0.128,-0.291 0.124,-0.288 0.118,-0.288C0.109,-0.288 0.1,-0.293 0.09,-0.303C0.08,-0.313 0.075,-0.321 0.075,-0.329C0.075,-0.352 0.082,-0.381 0.096,-0.417C0.11,-0.452 0.126,-0.479 0.143,-0.498C0.163,-0.52 0.189,-0.531 0.22,-0.531C0.268,-0.531 0.311,-0.516 0.351,-0.486C0.394,-0.454 0.415,-0.415 0.416,-0.369L0.42,0.036ZM0.354,-0.163C0.354,-0.196 0.328,-0.213 0.276,-0.213C0.235,-0.213 0.2,-0.205 0.169,-0.191C0.13,-0.173 0.11,-0.145 0.11,-0.109C0.11,-0.086 0.12,-0.069 0.141,-0.056C0.159,-0.045 0.18,-0.04 0.204,-0.04C0.24,-0.04 0.274,-0.052 0.306,-0.075C0.338,-0.098 0.354,-0.128 0.354,-0.163Z" style="fill-rule:nonzero;"/>
                    </g>
                    <g transform="matrix(30,0,0,30,394.125,625.058)">
                        <path d="M0.428,-0.794C0.428,-0.775 0.425,-0.75 0.42,-0.72C0.414,-0.681 0.41,-0.656 0.409,-0.646C0.406,-0.62 0.402,-0.535 0.396,-0.389C0.391,-0.255 0.389,-0.182 0.389,-0.168C0.389,-0.078 0.397,-0.015 0.413,0.021C0.407,0.03 0.399,0.035 0.39,0.035C0.382,0.035 0.372,0.031 0.362,0.023C0.351,0.014 0.345,0.006 0.343,-0.003C0.343,-0.019 0.34,-0.045 0.335,-0.079C0.286,-0.016 0.239,0.015 0.194,0.015C0.14,0.015 0.098,-0.005 0.069,-0.046C0.044,-0.081 0.031,-0.128 0.031,-0.185C0.031,-0.255 0.044,-0.327 0.07,-0.403C0.103,-0.501 0.148,-0.55 0.203,-0.55C0.226,-0.55 0.25,-0.541 0.274,-0.524C0.279,-0.52 0.298,-0.503 0.333,-0.471C0.341,-0.528 0.345,-0.652 0.345,-0.844C0.351,-0.85 0.359,-0.853 0.369,-0.853C0.385,-0.853 0.398,-0.847 0.41,-0.835C0.422,-0.823 0.428,-0.81 0.428,-0.794ZM0.334,-0.333C0.334,-0.369 0.325,-0.402 0.309,-0.431C0.289,-0.466 0.262,-0.484 0.228,-0.484C0.186,-0.484 0.153,-0.441 0.128,-0.356C0.108,-0.292 0.097,-0.232 0.098,-0.175C0.097,-0.138 0.103,-0.107 0.115,-0.08C0.131,-0.045 0.155,-0.028 0.186,-0.028C0.238,-0.028 0.277,-0.067 0.304,-0.148C0.324,-0.205 0.334,-0.267 0.334,-0.333Z" style="fill-rule:nonzero;"/>
                    </g>
                    <g transform="matrix(30,0,0,30,407.887,625.058)">
                        <path d="M0.398,-0.124C0.398,-0.087 0.373,-0.054 0.324,-0.025C0.28,0.002 0.238,0.015 0.199,0.015C0.087,0.015 0.031,-0.056 0.031,-0.198C0.031,-0.26 0.043,-0.327 0.065,-0.399C0.095,-0.492 0.133,-0.539 0.18,-0.539C0.22,-0.539 0.264,-0.519 0.311,-0.478C0.359,-0.438 0.383,-0.397 0.383,-0.358C0.383,-0.306 0.362,-0.261 0.32,-0.223C0.278,-0.184 0.231,-0.165 0.179,-0.165C0.174,-0.165 0.163,-0.169 0.147,-0.178C0.131,-0.186 0.12,-0.19 0.114,-0.19C0.103,-0.19 0.097,-0.187 0.098,-0.18C0.097,-0.084 0.129,-0.036 0.193,-0.036C0.225,-0.036 0.255,-0.047 0.283,-0.069C0.299,-0.081 0.318,-0.101 0.338,-0.128C0.353,-0.148 0.364,-0.159 0.369,-0.159C0.388,-0.159 0.398,-0.147 0.398,-0.124ZM0.311,-0.354C0.311,-0.383 0.303,-0.41 0.286,-0.436C0.27,-0.461 0.247,-0.474 0.22,-0.474C0.187,-0.474 0.16,-0.453 0.139,-0.411C0.121,-0.376 0.113,-0.34 0.113,-0.303C0.113,-0.278 0.12,-0.258 0.136,-0.242C0.151,-0.226 0.171,-0.218 0.195,-0.218C0.229,-0.218 0.258,-0.232 0.28,-0.261C0.301,-0.288 0.311,-0.319 0.311,-0.354Z" style="fill-rule:nonzero;"/>
                    </g>
                    <g transform="matrix(30,0,0,30,428.475,625.058)">
                        <path d="M0.424,-0.13C0.424,-0.11 0.407,-0.083 0.373,-0.049C0.338,-0.016 0.31,0.004 0.289,0.01C0.26,0.019 0.235,0.024 0.216,0.024C0.155,0.024 0.109,0.002 0.076,-0.043C0.046,-0.082 0.031,-0.133 0.031,-0.195C0.031,-0.259 0.045,-0.331 0.073,-0.41C0.107,-0.508 0.149,-0.558 0.2,-0.558C0.224,-0.558 0.256,-0.546 0.296,-0.522C0.336,-0.498 0.359,-0.475 0.364,-0.454C0.37,-0.428 0.373,-0.403 0.373,-0.378C0.373,-0.286 0.359,-0.24 0.331,-0.24C0.325,-0.24 0.317,-0.243 0.308,-0.248C0.298,-0.253 0.294,-0.258 0.294,-0.265C0.294,-0.268 0.295,-0.273 0.299,-0.278C0.302,-0.284 0.304,-0.287 0.305,-0.289C0.308,-0.3 0.31,-0.325 0.31,-0.364C0.31,-0.456 0.289,-0.503 0.248,-0.503C0.202,-0.503 0.164,-0.46 0.135,-0.376C0.113,-0.311 0.102,-0.25 0.103,-0.191C0.102,-0.146 0.11,-0.109 0.124,-0.079C0.143,-0.04 0.172,-0.02 0.213,-0.02C0.237,-0.02 0.265,-0.033 0.298,-0.058C0.327,-0.08 0.348,-0.104 0.363,-0.129C0.366,-0.137 0.371,-0.149 0.378,-0.164C0.382,-0.17 0.388,-0.173 0.395,-0.173C0.4,-0.173 0.406,-0.167 0.413,-0.156C0.42,-0.144 0.424,-0.136 0.424,-0.13Z" style="fill-rule:nonzero;"/>
                    </g>
                    <g transform="matrix(30,0,0,30,442.125,625.058)">
                        <path d="M0.368,0.034C0.361,0.04 0.348,0.044 0.33,0.044C0.321,0.044 0.311,0.038 0.301,0.026C0.302,-0.045 0.303,-0.102 0.303,-0.145C0.303,-0.357 0.267,-0.463 0.196,-0.463C0.166,-0.463 0.141,-0.445 0.121,-0.41C0.104,-0.38 0.095,-0.349 0.095,-0.318C0.095,-0.314 0.094,-0.309 0.092,-0.302C0.09,-0.295 0.089,-0.29 0.089,-0.286L0.089,-0.126C0.089,-0.112 0.091,-0.092 0.095,-0.065C0.099,-0.038 0.101,-0.018 0.101,-0.005C0.101,0.008 0.091,0.015 0.071,0.015C0.057,0.015 0.045,0.008 0.036,-0.005C0.026,-0.018 0.021,-0.032 0.021,-0.046L0.029,-0.815C0.027,-0.82 0.026,-0.825 0.026,-0.83C0.026,-0.845 0.035,-0.853 0.051,-0.853C0.06,-0.853 0.072,-0.847 0.088,-0.836C0.104,-0.824 0.113,-0.815 0.113,-0.808C0.113,-0.788 0.109,-0.759 0.101,-0.721C0.093,-0.684 0.089,-0.655 0.089,-0.636C0.089,-0.635 0.09,-0.579 0.091,-0.47C0.122,-0.498 0.146,-0.511 0.163,-0.511C0.189,-0.511 0.221,-0.503 0.259,-0.488C0.331,-0.458 0.368,-0.378 0.368,-0.25L0.368,0.034Z" style="fill-rule:nonzero;"/>
                    </g>
                    <g transform="matrix(30,0,0,30,454.387,625.058)">
                        <path d="M0.428,-0.246C0.428,-0.175 0.412,-0.112 0.38,-0.059C0.342,0.005 0.29,0.038 0.224,0.038C0.156,0.038 0.106,0.011 0.073,-0.041C0.045,-0.085 0.031,-0.142 0.031,-0.214C0.031,-0.285 0.047,-0.354 0.079,-0.423C0.119,-0.507 0.17,-0.549 0.231,-0.549C0.247,-0.549 0.27,-0.54 0.299,-0.521C0.385,-0.468 0.428,-0.376 0.428,-0.246ZM0.368,-0.248C0.368,-0.301 0.36,-0.349 0.346,-0.391C0.325,-0.45 0.293,-0.48 0.25,-0.48C0.2,-0.48 0.161,-0.447 0.133,-0.381C0.111,-0.33 0.1,-0.276 0.1,-0.218C0.1,-0.165 0.108,-0.121 0.123,-0.085C0.144,-0.036 0.178,-0.011 0.224,-0.011C0.274,-0.011 0.312,-0.04 0.338,-0.096C0.358,-0.14 0.368,-0.191 0.368,-0.248Z" style="fill-rule:nonzero;"/>
                    </g>
                    <g transform="matrix(30,0,0,30,468.15,625.058)">
                        <path d="M0.424,-0.13C0.424,-0.11 0.407,-0.083 0.373,-0.049C0.338,-0.016 0.31,0.004 0.289,0.01C0.26,0.019 0.235,0.024 0.216,0.024C0.155,0.024 0.109,0.002 0.076,-0.043C0.046,-0.082 0.031,-0.133 0.031,-0.195C0.031,-0.259 0.045,-0.331 0.073,-0.41C0.107,-0.508 0.149,-0.558 0.2,-0.558C0.224,-0.558 0.256,-0.546 0.296,-0.522C0.336,-0.498 0.359,-0.475 0.364,-0.454C0.37,-0.428 0.373,-0.403 0.373,-0.378C0.373,-0.286 0.359,-0.24 0.331,-0.24C0.325,-0.24 0.317,-0.243 0.308,-0.248C0.298,-0.253 0.294,-0.258 0.294,-0.265C0.294,-0.268 0.295,-0.273 0.299,-0.278C0.302,-0.284 0.304,-0.287 0.305,-0.289C0.308,-0.3 0.31,-0.325 0.31,-0.364C0.31,-0.456 0.289,-0.503 0.248,-0.503C0.202,-0.503 0.164,-0.46 0.135,-0.376C0.113,-0.311 0.102,-0.25 0.103,-0.191C0.102,-0.146 0.11,-0.109 0.124,-0.079C0.143,-0.04 0.172,-0.02 0.213,-0.02C0.237,-0.02 0.265,-0.033 0.298,-0.058C0.327,-0.08 0.348,-0.104 0.363,-0.129C0.366,-0.137 0.371,-0.149 0.378,-0.164C0.382,-0.17 0.388,-0.173 0.395,-0.173C0.4,-0.173 0.406,-0.167 0.413,-0.156C0.42,-0.144 0.424,-0.136 0.424,-0.13Z" style="fill-rule:nonzero;"/>
                    </g>
                    <g transform="matrix(30,0,0,30,481.8,625.058)">
                        <path d="M0.428,-0.246C0.428,-0.175 0.412,-0.112 0.38,-0.059C0.342,0.005 0.29,0.038 0.224,0.038C0.156,0.038 0.106,0.011 0.073,-0.041C0.045,-0.085 0.031,-0.142 0.031,-0.214C0.031,-0.285 0.047,-0.354 0.079,-0.423C0.119,-0.507 0.17,-0.549 0.231,-0.549C0.247,-0.549 0.27,-0.54 0.299,-0.521C0.385,-0.468 0.428,-0.376 0.428,-0.246ZM0.368,-0.248C0.368,-0.301 0.36,-0.349 0.346,-0.391C0.325,-0.45 0.293,-0.48 0.25,-0.48C0.2,-0.48 0.161,-0.447 0.133,-0.381C0.111,-0.33 0.1,-0.276 0.1,-0.218C0.1,-0.165 0.108,-0.121 0.123,-0.085C0.144,-0.036 0.178,-0.011 0.224,-0.011C0.274,-0.011 0.312,-0.04 0.338,-0.096C0.358,-0.14 0.368,-0.191 0.368,-0.248Z" style="fill-rule:nonzero;"/>
                    </g>
                    <g transform="matrix(30,0,0,30,495.862,625.058)">
                        <path d="M0.124,-0.013C0.124,0.009 0.112,0.02 0.089,0.02C0.052,0.02 0.034,-0.055 0.035,-0.206L0.039,-0.768C0.039,-0.777 0.038,-0.79 0.035,-0.807C0.033,-0.824 0.031,-0.837 0.031,-0.845C0.047,-0.857 0.06,-0.863 0.071,-0.863C0.083,-0.863 0.095,-0.858 0.106,-0.85C0.118,-0.842 0.124,-0.832 0.124,-0.82C0.124,-0.812 0.122,-0.801 0.118,-0.788C0.113,-0.771 0.11,-0.76 0.109,-0.756C0.099,-0.7 0.094,-0.62 0.094,-0.519C0.094,-0.355 0.093,-0.275 0.093,-0.281C0.095,-0.179 0.102,-0.102 0.113,-0.05C0.113,-0.048 0.114,-0.042 0.118,-0.033C0.122,-0.024 0.124,-0.018 0.124,-0.013Z" style="fill-rule:nonzero;"/>
                    </g>
                    <g transform="matrix(30,0,0,30,500.212,625.058)">
                        <path d="M0.42,0.036C0.42,0.048 0.411,0.054 0.393,0.054C0.373,0.054 0.36,0.045 0.356,0.029C0.355,0.026 0.355,0.01 0.355,-0.02C0.355,-0.028 0.354,-0.035 0.351,-0.04C0.305,-0.006 0.254,0.011 0.2,0.011C0.163,0.011 0.126,0.001 0.091,-0.02C0.051,-0.043 0.031,-0.073 0.031,-0.108C0.031,-0.142 0.055,-0.175 0.103,-0.208C0.146,-0.238 0.186,-0.253 0.223,-0.253L0.346,-0.253C0.351,-0.258 0.354,-0.266 0.354,-0.279C0.354,-0.335 0.349,-0.377 0.34,-0.405C0.325,-0.452 0.295,-0.476 0.251,-0.476C0.22,-0.476 0.19,-0.456 0.164,-0.416C0.14,-0.38 0.128,-0.345 0.128,-0.311L0.128,-0.298C0.128,-0.291 0.124,-0.288 0.118,-0.288C0.109,-0.288 0.1,-0.293 0.09,-0.303C0.08,-0.313 0.075,-0.321 0.075,-0.329C0.075,-0.352 0.082,-0.381 0.096,-0.417C0.11,-0.452 0.126,-0.479 0.143,-0.498C0.163,-0.52 0.189,-0.531 0.22,-0.531C0.268,-0.531 0.311,-0.516 0.351,-0.486C0.394,-0.454 0.415,-0.415 0.416,-0.369L0.42,0.036ZM0.354,-0.163C0.354,-0.196 0.328,-0.213 0.276,-0.213C0.235,-0.213 0.2,-0.205 0.169,-0.191C0.13,-0.173 0.11,-0.145 0.11,-0.109C0.11,-0.086 0.12,-0.069 0.141,-0.056C0.159,-0.045 0.18,-0.04 0.204,-0.04C0.24,-0.04 0.274,-0.052 0.306,-0.075C0.338,-0.098 0.354,-0.128 0.354,-0.163Z" style="fill-rule:nonzero;"/>
                    </g>
                    <g transform="matrix(30,0,0,30,513.075,625.058)">
                        <path d="M0.293,-0.394C0.286,-0.389 0.27,-0.385 0.245,-0.381C0.218,-0.378 0.202,-0.375 0.198,-0.373C0.197,-0.363 0.196,-0.317 0.196,-0.234C0.196,-0.169 0.197,-0.125 0.199,-0.103C0.199,-0.093 0.201,-0.079 0.205,-0.059C0.209,-0.039 0.211,-0.023 0.211,-0.013C0.211,-0.006 0.207,0.001 0.199,0.008C0.19,0.014 0.183,0.018 0.176,0.018C0.16,0.018 0.146,0 0.136,-0.034C0.13,-0.059 0.126,-0.083 0.126,-0.105C0.126,-0.223 0.127,-0.309 0.129,-0.365C0.124,-0.369 0.105,-0.369 0.071,-0.365C0.045,-0.362 0.031,-0.371 0.031,-0.394C0.031,-0.425 0.065,-0.44 0.133,-0.438L0.149,-0.664C0.149,-0.666 0.148,-0.67 0.146,-0.676C0.144,-0.681 0.143,-0.685 0.143,-0.688C0.143,-0.693 0.146,-0.697 0.153,-0.702C0.159,-0.706 0.167,-0.708 0.176,-0.708C0.205,-0.705 0.22,-0.69 0.22,-0.664C0.22,-0.643 0.217,-0.612 0.211,-0.57C0.205,-0.528 0.203,-0.498 0.203,-0.478C0.203,-0.468 0.203,-0.458 0.205,-0.449L0.274,-0.453C0.297,-0.452 0.309,-0.443 0.309,-0.425C0.309,-0.412 0.303,-0.401 0.293,-0.394Z" style="fill-rule:nonzero;"/>
                    </g>
                    <g transform="matrix(30,0,0,30,521.887,625.058)">
                        <path d="M0.398,-0.124C0.398,-0.087 0.373,-0.054 0.324,-0.025C0.28,0.002 0.238,0.015 0.199,0.015C0.087,0.015 0.031,-0.056 0.031,-0.198C0.031,-0.26 0.043,-0.327 0.065,-0.399C0.095,-0.492 0.133,-0.539 0.18,-0.539C0.22,-0.539 0.264,-0.519 0.311,-0.478C0.359,-0.438 0.383,-0.397 0.383,-0.358C0.383,-0.306 0.362,-0.261 0.32,-0.223C0.278,-0.184 0.231,-0.165 0.179,-0.165C0.174,-0.165 0.163,-0.169 0.147,-0.178C0.131,-0.186 0.12,-0.19 0.114,-0.19C0.103,-0.19 0.097,-0.187 0.098,-0.18C0.097,-0.084 0.129,-0.036 0.193,-0.036C0.225,-0.036 0.255,-0.047 0.283,-0.069C0.299,-0.081 0.318,-0.101 0.338,-0.128C0.353,-0.148 0.364,-0.159 0.369,-0.159C0.388,-0.159 0.398,-0.147 0.398,-0.124ZM0.311,-0.354C0.311,-0.383 0.303,-0.41 0.286,-0.436C0.27,-0.461 0.247,-0.474 0.22,-0.474C0.187,-0.474 0.16,-0.453 0.139,-0.411C0.121,-0.376 0.113,-0.34 0.113,-0.303C0.113,-0.278 0.12,-0.258 0.136,-0.242C0.151,-0.226 0.171,-0.218 0.195,-0.218C0.229,-0.218 0.258,-0.232 0.28,-0.261C0.301,-0.288 0.311,-0.319 0.311,-0.354Z" style="fill-rule:nonzero;"/>
                    </g>
                </g>
                <g transform="matrix(1.65755,0,0,1.34124,697.879,-198.808)">
                    <g transform="matrix(30,0,0,30,330,625.058)">
                        <path d="M0.56,-0.78C0.56,-0.759 0.553,-0.749 0.539,-0.749C0.54,-0.749 0.531,-0.753 0.511,-0.763C0.499,-0.769 0.467,-0.773 0.415,-0.773L0.359,-0.773C0.339,-0.773 0.326,-0.769 0.321,-0.763C0.316,-0.757 0.312,-0.743 0.309,-0.721C0.306,-0.699 0.302,-0.666 0.295,-0.623C0.279,-0.495 0.271,-0.359 0.271,-0.214C0.271,-0.106 0.282,-0.034 0.305,0.004C0.305,0.015 0.301,0.021 0.293,0.021C0.249,0.021 0.222,-0.004 0.21,-0.054C0.205,-0.073 0.203,-0.115 0.203,-0.179C0.203,-0.272 0.204,-0.343 0.208,-0.39C0.208,-0.413 0.213,-0.465 0.221,-0.548C0.228,-0.613 0.231,-0.666 0.231,-0.705C0.231,-0.752 0.232,-0.764 0.233,-0.74C0.232,-0.753 0.226,-0.759 0.216,-0.759C0.201,-0.759 0.179,-0.756 0.149,-0.75C0.12,-0.744 0.097,-0.741 0.083,-0.741C0.049,-0.741 0.028,-0.755 0.018,-0.781C0.026,-0.795 0.088,-0.81 0.204,-0.824C0.3,-0.835 0.371,-0.84 0.415,-0.84C0.512,-0.84 0.56,-0.82 0.56,-0.78Z" style="fill-rule:nonzero;"/>
                    </g>
                    <g transform="matrix(30,0,0,30,341.775,625.058)">
                        <path d="M0.42,0.036C0.42,0.048 0.411,0.054 0.393,0.054C0.373,0.054 0.36,0.045 0.356,0.029C0.355,0.026 0.355,0.01 0.355,-0.02C0.355,-0.028 0.354,-0.035 0.351,-0.04C0.305,-0.006 0.254,0.011 0.2,0.011C0.163,0.011 0.126,0.001 0.091,-0.02C0.051,-0.043 0.031,-0.073 0.031,-0.108C0.031,-0.142 0.055,-0.175 0.103,-0.208C0.146,-0.238 0.186,-0.253 0.223,-0.253L0.346,-0.253C0.351,-0.258 0.354,-0.266 0.354,-0.279C0.354,-0.335 0.349,-0.377 0.34,-0.405C0.325,-0.452 0.295,-0.476 0.251,-0.476C0.22,-0.476 0.19,-0.456 0.164,-0.416C0.14,-0.38 0.128,-0.345 0.128,-0.311L0.128,-0.298C0.128,-0.291 0.124,-0.288 0.118,-0.288C0.109,-0.288 0.1,-0.293 0.09,-0.303C0.08,-0.313 0.075,-0.321 0.075,-0.329C0.075,-0.352 0.082,-0.381 0.096,-0.417C0.11,-0.452 0.126,-0.479 0.143,-0.498C0.163,-0.52 0.189,-0.531 0.22,-0.531C0.268,-0.531 0.311,-0.516 0.351,-0.486C0.394,-0.454 0.415,-0.415 0.416,-0.369L0.42,0.036ZM0.354,-0.163C0.354,-0.196 0.328,-0.213 0.276,-0.213C0.235,-0.213 0.2,-0.205 0.169,-0.191C0.13,-0.173 0.11,-0.145 0.11,-0.109C0.11,-0.086 0.12,-0.069 0.141,-0.056C0.159,-0.045 0.18,-0.04 0.204,-0.04C0.24,-0.04 0.274,-0.052 0.306,-0.075C0.338,-0.098 0.354,-0.128 0.354,-0.163Z" style="fill-rule:nonzero;"/>
                    </g>
                    <g transform="matrix(30,0,0,30,356.1,625.058)">
                        <path d="M0.309,-0.445C0.309,-0.442 0.308,-0.435 0.308,-0.424C0.297,-0.407 0.286,-0.399 0.276,-0.399C0.27,-0.399 0.264,-0.403 0.259,-0.411C0.256,-0.464 0.235,-0.49 0.194,-0.49C0.167,-0.49 0.141,-0.441 0.115,-0.343C0.105,-0.307 0.1,-0.259 0.1,-0.199C0.1,-0.122 0.102,-0.075 0.106,-0.058C0.107,-0.055 0.109,-0.05 0.113,-0.042C0.116,-0.034 0.118,-0.028 0.118,-0.024C0.118,-0.005 0.105,0.004 0.08,0.004C0.052,0.004 0.038,-0.011 0.038,-0.04C0.038,-0.044 0.039,-0.05 0.041,-0.058C0.043,-0.066 0.044,-0.072 0.044,-0.076C0.044,-0.122 0.042,-0.191 0.038,-0.283C0.033,-0.374 0.031,-0.443 0.031,-0.489C0.031,-0.505 0.034,-0.516 0.04,-0.519C0.046,-0.523 0.057,-0.525 0.074,-0.525C0.095,-0.525 0.107,-0.518 0.11,-0.503C0.111,-0.486 0.112,-0.47 0.113,-0.454C0.134,-0.487 0.147,-0.506 0.15,-0.51C0.168,-0.531 0.188,-0.541 0.208,-0.541C0.223,-0.541 0.238,-0.537 0.253,-0.528C0.261,-0.523 0.272,-0.51 0.287,-0.489C0.301,-0.468 0.309,-0.453 0.309,-0.445Z" style="fill-rule:nonzero;"/>
                    </g>
                    <g transform="matrix(30,0,0,30,364.5,625.058)">
                        <path d="M0.293,-0.394C0.286,-0.389 0.27,-0.385 0.245,-0.381C0.218,-0.378 0.202,-0.375 0.198,-0.373C0.197,-0.363 0.196,-0.317 0.196,-0.234C0.196,-0.169 0.197,-0.125 0.199,-0.103C0.199,-0.093 0.201,-0.079 0.205,-0.059C0.209,-0.039 0.211,-0.023 0.211,-0.013C0.211,-0.006 0.207,0.001 0.199,0.008C0.19,0.014 0.183,0.018 0.176,0.018C0.16,0.018 0.146,0 0.136,-0.034C0.13,-0.059 0.126,-0.083 0.126,-0.105C0.126,-0.223 0.127,-0.309 0.129,-0.365C0.124,-0.369 0.105,-0.369 0.071,-0.365C0.045,-0.362 0.031,-0.371 0.031,-0.394C0.031,-0.425 0.065,-0.44 0.133,-0.438L0.149,-0.664C0.149,-0.666 0.148,-0.67 0.146,-0.676C0.144,-0.681 0.143,-0.685 0.143,-0.688C0.143,-0.693 0.146,-0.697 0.153,-0.702C0.159,-0.706 0.167,-0.708 0.176,-0.708C0.205,-0.705 0.22,-0.69 0.22,-0.664C0.22,-0.643 0.217,-0.612 0.211,-0.57C0.205,-0.528 0.203,-0.498 0.203,-0.478C0.203,-0.468 0.203,-0.458 0.205,-0.449L0.274,-0.453C0.297,-0.452 0.309,-0.443 0.309,-0.425C0.309,-0.412 0.303,-0.401 0.293,-0.394Z" style="fill-rule:nonzero;"/>
                    </g>
                    <g transform="matrix(30,0,0,30,372.675,625.058)">
                        <path d="M0.42,0.036C0.42,0.048 0.411,0.054 0.393,0.054C0.373,0.054 0.36,0.045 0.356,0.029C0.355,0.026 0.355,0.01 0.355,-0.02C0.355,-0.028 0.354,-0.035 0.351,-0.04C0.305,-0.006 0.254,0.011 0.2,0.011C0.163,0.011 0.126,0.001 0.091,-0.02C0.051,-0.043 0.031,-0.073 0.031,-0.108C0.031,-0.142 0.055,-0.175 0.103,-0.208C0.146,-0.238 0.186,-0.253 0.223,-0.253L0.346,-0.253C0.351,-0.258 0.354,-0.266 0.354,-0.279C0.354,-0.335 0.349,-0.377 0.34,-0.405C0.325,-0.452 0.295,-0.476 0.251,-0.476C0.22,-0.476 0.19,-0.456 0.164,-0.416C0.14,-0.38 0.128,-0.345 0.128,-0.311L0.128,-0.298C0.128,-0.291 0.124,-0.288 0.118,-0.288C0.109,-0.288 0.1,-0.293 0.09,-0.303C0.08,-0.313 0.075,-0.321 0.075,-0.329C0.075,-0.352 0.082,-0.381 0.096,-0.417C0.11,-0.452 0.126,-0.479 0.143,-0.498C0.163,-0.52 0.189,-0.531 0.22,-0.531C0.268,-0.531 0.311,-0.516 0.351,-0.486C0.394,-0.454 0.415,-0.415 0.416,-0.369L0.42,0.036ZM0.354,-0.163C0.354,-0.196 0.328,-0.213 0.276,-0.213C0.235,-0.213 0.2,-0.205 0.169,-0.191C0.13,-0.173 0.11,-0.145 0.11,-0.109C0.11,-0.086 0.12,-0.069 0.141,-0.056C0.159,-0.045 0.18,-0.04 0.204,-0.04C0.24,-0.04 0.274,-0.052 0.306,-0.075C0.338,-0.098 0.354,-0.128 0.354,-0.163Z" style="fill-rule:nonzero;"/>
                    </g>
                    <g transform="matrix(30,0,0,30,394.125,625.058)">
                        <path d="M0.428,-0.794C0.428,-0.775 0.425,-0.75 0.42,-0.72C0.414,-0.681 0.41,-0.656 0.409,-0.646C0.406,-0.62 0.402,-0.535 0.396,-0.389C0.391,-0.255 0.389,-0.182 0.389,-0.168C0.389,-0.078 0.397,-0.015 0.413,0.021C0.407,0.03 0.399,0.035 0.39,0.035C0.382,0.035 0.372,0.031 0.362,0.023C0.351,0.014 0.345,0.006 0.343,-0.003C0.343,-0.019 0.34,-0.045 0.335,-0.079C0.286,-0.016 0.239,0.015 0.194,0.015C0.14,0.015 0.098,-0.005 0.069,-0.046C0.044,-0.081 0.031,-0.128 0.031,-0.185C0.031,-0.255 0.044,-0.327 0.07,-0.403C0.103,-0.501 0.148,-0.55 0.203,-0.55C0.226,-0.55 0.25,-0.541 0.274,-0.524C0.279,-0.52 0.298,-0.503 0.333,-0.471C0.341,-0.528 0.345,-0.652 0.345,-0.844C0.351,-0.85 0.359,-0.853 0.369,-0.853C0.385,-0.853 0.398,-0.847 0.41,-0.835C0.422,-0.823 0.428,-0.81 0.428,-0.794ZM0.334,-0.333C0.334,-0.369 0.325,-0.402 0.309,-0.431C0.289,-0.466 0.262,-0.484 0.228,-0.484C0.186,-0.484 0.153,-0.441 0.128,-0.356C0.108,-0.292 0.097,-0.232 0.098,-0.175C0.097,-0.138 0.103,-0.107 0.115,-0.08C0.131,-0.045 0.155,-0.028 0.186,-0.028C0.238,-0.028 0.277,-0.067 0.304,-0.148C0.324,-0.205 0.334,-0.267 0.334,-0.333Z" style="fill-rule:nonzero;"/>
                    </g>
                    <g transform="matrix(30,0,0,30,407.887,625.058)">
                        <path d="M0.398,-0.124C0.398,-0.087 0.373,-0.054 0.324,-0.025C0.28,0.002 0.238,0.015 0.199,0.015C0.087,0.015 0.031,-0.056 0.031,-0.198C0.031,-0.26 0.043,-0.327 0.065,-0.399C0.095,-0.492 0.133,-0.539 0.18,-0.539C0.22,-0.539 0.264,-0.519 0.311,-0.478C0.359,-0.438 0.383,-0.397 0.383,-0.358C0.383,-0.306 0.362,-0.261 0.32,-0.223C0.278,-0.184 0.231,-0.165 0.179,-0.165C0.174,-0.165 0.163,-0.169 0.147,-0.178C0.131,-0.186 0.12,-0.19 0.114,-0.19C0.103,-0.19 0.097,-0.187 0.098,-0.18C0.097,-0.084 0.129,-0.036 0.193,-0.036C0.225,-0.036 0.255,-0.047 0.283,-0.069C0.299,-0.081 0.318,-0.101 0.338,-0.128C0.353,-0.148 0.364,-0.159 0.369,-0.159C0.388,-0.159 0.398,-0.147 0.398,-0.124ZM0.311,-0.354C0.311,-0.383 0.303,-0.41 0.286,-0.436C0.27,-0.461 0.247,-0.474 0.22,-0.474C0.187,-0.474 0.16,-0.453 0.139,-0.411C0.121,-0.376 0.113,-0.34 0.113,-0.303C0.113,-0.278 0.12,-0.258 0.136,-0.242C0.151,-0.226 0.171,-0.218 0.195,-0.218C0.229,-0.218 0.258,-0.232 0.28,-0.261C0.301,-0.288 0.311,-0.319 0.311,-0.354Z" style="fill-rule:nonzero;"/>
                    </g>
                    <g transform="matrix(30,0,0,30,428.475,625.058)">
                        <path d="M0.47,0.049C0.449,0.065 0.433,0.074 0.42,0.074C0.402,0.074 0.37,0.047 0.325,-0.005C0.268,-0.073 0.238,-0.108 0.235,-0.111C0.225,-0.12 0.208,-0.139 0.183,-0.17C0.161,-0.196 0.142,-0.214 0.125,-0.224L0.103,-0.194L0.103,-0.07C0.102,-0.063 0.105,-0.052 0.111,-0.038C0.116,-0.024 0.119,-0.014 0.119,-0.006C0.119,-0.001 0.115,0.004 0.108,0.008C0.101,0.013 0.095,0.015 0.089,0.015C0.055,0.015 0.039,-0.003 0.039,-0.039L0.039,-0.214C0.039,-0.225 0.04,-0.241 0.043,-0.262C0.046,-0.283 0.048,-0.299 0.048,-0.31L0.048,-0.655C0.048,-0.704 0.045,-0.743 0.041,-0.771C0.041,-0.775 0.039,-0.785 0.035,-0.799C0.033,-0.81 0.031,-0.82 0.031,-0.828C0.031,-0.836 0.038,-0.844 0.051,-0.853C0.064,-0.861 0.075,-0.865 0.085,-0.865C0.093,-0.865 0.101,-0.863 0.109,-0.858C0.118,-0.854 0.123,-0.848 0.123,-0.841C0.123,-0.84 0.12,-0.83 0.116,-0.811C0.11,-0.789 0.108,-0.745 0.108,-0.68L0.103,-0.318L0.109,-0.311C0.135,-0.328 0.172,-0.359 0.219,-0.404C0.248,-0.434 0.277,-0.464 0.306,-0.494C0.354,-0.542 0.382,-0.566 0.39,-0.566C0.403,-0.566 0.413,-0.561 0.42,-0.549C0.428,-0.538 0.431,-0.526 0.43,-0.514L0.429,-0.508C0.397,-0.487 0.35,-0.449 0.289,-0.395C0.218,-0.333 0.183,-0.291 0.183,-0.271C0.183,-0.264 0.195,-0.245 0.22,-0.215C0.259,-0.169 0.298,-0.123 0.336,-0.078C0.389,-0.02 0.433,0.018 0.47,0.035L0.47,0.049Z" style="fill-rule:nonzero;"/>
                    </g>
                    <g transform="matrix(30,0,0,30,442.763,625.058)">
                        <path d="M0.145,-0.676C0.145,-0.648 0.132,-0.634 0.105,-0.634C0.089,-0.634 0.075,-0.64 0.061,-0.651C0.048,-0.663 0.041,-0.676 0.041,-0.691C0.041,-0.72 0.055,-0.734 0.084,-0.734C0.1,-0.734 0.115,-0.728 0.127,-0.718C0.139,-0.707 0.145,-0.693 0.145,-0.676ZM0.121,-0.489C0.121,-0.474 0.118,-0.451 0.111,-0.421C0.105,-0.391 0.101,-0.369 0.101,-0.354L0.101,-0.078C0.101,-0.059 0.105,-0.034 0.113,-0.003C0.109,0.004 0.105,0.008 0.099,0.008C0.058,0.008 0.038,-0.012 0.038,-0.051L0.038,-0.51C0.048,-0.516 0.059,-0.519 0.069,-0.519C0.079,-0.519 0.089,-0.516 0.1,-0.51C0.114,-0.504 0.121,-0.497 0.121,-0.489Z" style="fill-rule:nonzero;"/>
                    </g>
                    <g transform="matrix(30,0,0,30,448.05,625.058)">
                        <path d="M0.606,-0.399C0.606,-0.32 0.596,-0.241 0.575,-0.164C0.546,-0.054 0.503,0.001 0.448,0.001C0.407,0.001 0.372,-0.024 0.343,-0.075C0.332,-0.1 0.321,-0.125 0.31,-0.151L0.305,-0.149C0.293,-0.115 0.281,-0.082 0.269,-0.049C0.251,-0.01 0.225,0.009 0.19,0.009C0.084,0.009 0.031,-0.118 0.031,-0.373C0.031,-0.431 0.033,-0.477 0.036,-0.51C0.042,-0.518 0.05,-0.523 0.059,-0.523C0.068,-0.523 0.079,-0.519 0.091,-0.512C0.104,-0.505 0.11,-0.497 0.11,-0.488C0.11,-0.477 0.107,-0.46 0.102,-0.437C0.096,-0.414 0.094,-0.396 0.094,-0.383C0.094,-0.166 0.122,-0.058 0.178,-0.058C0.213,-0.058 0.242,-0.098 0.264,-0.18C0.281,-0.243 0.29,-0.299 0.289,-0.349L0.289,-0.469C0.289,-0.486 0.299,-0.495 0.319,-0.495C0.343,-0.495 0.355,-0.478 0.355,-0.445C0.355,-0.441 0.354,-0.435 0.353,-0.426C0.352,-0.418 0.351,-0.412 0.351,-0.408L0.351,-0.254C0.351,-0.218 0.358,-0.18 0.37,-0.139C0.386,-0.085 0.407,-0.058 0.434,-0.058C0.47,-0.058 0.5,-0.103 0.524,-0.194C0.542,-0.264 0.551,-0.325 0.551,-0.378C0.551,-0.43 0.548,-0.462 0.541,-0.474C0.541,-0.475 0.538,-0.478 0.533,-0.485C0.527,-0.492 0.524,-0.496 0.524,-0.499C0.524,-0.508 0.528,-0.517 0.536,-0.525C0.544,-0.533 0.552,-0.538 0.561,-0.538C0.591,-0.538 0.606,-0.491 0.606,-0.399Z" style="fill-rule:nonzero;"/>
                    </g>
                    <g transform="matrix(30,0,0,30,467.475,625.058)">
                        <path d="M0.145,-0.676C0.145,-0.648 0.132,-0.634 0.105,-0.634C0.089,-0.634 0.075,-0.64 0.061,-0.651C0.048,-0.663 0.041,-0.676 0.041,-0.691C0.041,-0.72 0.055,-0.734 0.084,-0.734C0.1,-0.734 0.115,-0.728 0.127,-0.718C0.139,-0.707 0.145,-0.693 0.145,-0.676ZM0.121,-0.489C0.121,-0.474 0.118,-0.451 0.111,-0.421C0.105,-0.391 0.101,-0.369 0.101,-0.354L0.101,-0.078C0.101,-0.059 0.105,-0.034 0.113,-0.003C0.109,0.004 0.105,0.008 0.099,0.008C0.058,0.008 0.038,-0.012 0.038,-0.051L0.038,-0.51C0.048,-0.516 0.059,-0.519 0.069,-0.519C0.079,-0.519 0.089,-0.516 0.1,-0.51C0.114,-0.504 0.121,-0.497 0.121,-0.489Z" style="fill-rule:nonzero;"/>
                    </g>
                </g>
                <g transform="matrix(1.65755,0,0,1.34124,697.879,-14.3998)">
                    <g transform="matrix(30,0,0,30,330,625.058)">
                        <path d="M0.56,-0.78C0.56,-0.759 0.553,-0.749 0.539,-0.749C0.54,-0.749 0.531,-0.753 0.511,-0.763C0.499,-0.769 0.467,-0.773 0.415,-0.773L0.359,-0.773C0.339,-0.773 0.326,-0.769 0.321,-0.763C0.316,-0.757 0.312,-0.743 0.309,-0.721C0.306,-0.699 0.302,-0.666 0.295,-0.623C0.279,-0.495 0.271,-0.359 0.271,-0.214C0.271,-0.106 0.282,-0.034 0.305,0.004C0.305,0.015 0.301,0.021 0.293,0.021C0.249,0.021 0.222,-0.004 0.21,-0.054C0.205,-0.073 0.203,-0.115 0.203,-0.179C0.203,-0.272 0.204,-0.343 0.208,-0.39C0.208,-0.413 0.213,-0.465 0.221,-0.548C0.228,-0.613 0.231,-0.666 0.231,-0.705C0.231,-0.752 0.232,-0.764 0.233,-0.74C0.232,-0.753 0.226,-0.759 0.216,-0.759C0.201,-0.759 0.179,-0.756 0.149,-0.75C0.12,-0.744 0.097,-0.741 0.083,-0.741C0.049,-0.741 0.028,-0.755 0.018,-0.781C0.026,-0.795 0.088,-0.81 0.204,-0.824C0.3,-0.835 0.371,-0.84 0.415,-0.84C0.512,-0.84 0.56,-0.82 0.56,-0.78Z" style="fill-rule:nonzero;"/>
                    </g>
                    <g transform="matrix(30,0,0,30,341.775,625.058)">
                        <path d="M0.42,0.036C0.42,0.048 0.411,0.054 0.393,0.054C0.373,0.054 0.36,0.045 0.356,0.029C0.355,0.026 0.355,0.01 0.355,-0.02C0.355,-0.028 0.354,-0.035 0.351,-0.04C0.305,-0.006 0.254,0.011 0.2,0.011C0.163,0.011 0.126,0.001 0.091,-0.02C0.051,-0.043 0.031,-0.073 0.031,-0.108C0.031,-0.142 0.055,-0.175 0.103,-0.208C0.146,-0.238 0.186,-0.253 0.223,-0.253L0.346,-0.253C0.351,-0.258 0.354,-0.266 0.354,-0.279C0.354,-0.335 0.349,-0.377 0.34,-0.405C0.325,-0.452 0.295,-0.476 0.251,-0.476C0.22,-0.476 0.19,-0.456 0.164,-0.416C0.14,-0.38 0.128,-0.345 0.128,-0.311L0.128,-0.298C0.128,-0.291 0.124,-0.288 0.118,-0.288C0.109,-0.288 0.1,-0.293 0.09,-0.303C0.08,-0.313 0.075,-0.321 0.075,-0.329C0.075,-0.352 0.082,-0.381 0.096,-0.417C0.11,-0.452 0.126,-0.479 0.143,-0.498C0.163,-0.52 0.189,-0.531 0.22,-0.531C0.268,-0.531 0.311,-0.516 0.351,-0.486C0.394,-0.454 0.415,-0.415 0.416,-0.369L0.42,0.036ZM0.354,-0.163C0.354,-0.196 0.328,-0.213 0.276,-0.213C0.235,-0.213 0.2,-0.205 0.169,-0.191C0.13,-0.173 0.11,-0.145 0.11,-0.109C0.11,-0.086 0.12,-0.069 0.141,-0.056C0.159,-0.045 0.18,-0.04 0.204,-0.04C0.24,-0.04 0.274,-0.052 0.306,-0.075C0.338,-0.098 0.354,-0.128 0.354,-0.163Z" style="fill-rule:nonzero;"/>
                    </g>
                    <g transform="matrix(30,0,0,30,356.1,625.058)">
                        <path d="M0.309,-0.445C0.309,-0.442 0.308,-0.435 0.308,-0.424C0.297,-0.407 0.286,-0.399 0.276,-0.399C0.27,-0.399 0.264,-0.403 0.259,-0.411C0.256,-0.464 0.235,-0.49 0.194,-0.49C0.167,-0.49 0.141,-0.441 0.115,-0.343C0.105,-0.307 0.1,-0.259 0.1,-0.199C0.1,-0.122 0.102,-0.075 0.106,-0.058C0.107,-0.055 0.109,-0.05 0.113,-0.042C0.116,-0.034 0.118,-0.028 0.118,-0.024C0.118,-0.005 0.105,0.004 0.08,0.004C0.052,0.004 0.038,-0.011 0.038,-0.04C0.038,-0.044 0.039,-0.05 0.041,-0.058C0.043,-0.066 0.044,-0.072 0.044,-0.076C0.044,-0.122 0.042,-0.191 0.038,-0.283C0.033,-0.374 0.031,-0.443 0.031,-0.489C0.031,-0.505 0.034,-0.516 0.04,-0.519C0.046,-0.523 0.057,-0.525 0.074,-0.525C0.095,-0.525 0.107,-0.518 0.11,-0.503C0.111,-0.486 0.112,-0.47 0.113,-0.454C0.134,-0.487 0.147,-0.506 0.15,-0.51C0.168,-0.531 0.188,-0.541 0.208,-0.541C0.223,-0.541 0.238,-0.537 0.253,-0.528C0.261,-0.523 0.272,-0.51 0.287,-0.489C0.301,-0.468 0.309,-0.453 0.309,-0.445Z" style="fill-rule:nonzero;"/>
                    </g>
                    <g transform="matrix(30,0,0,30,364.5,625.058)">
                        <path d="M0.293,-0.394C0.286,-0.389 0.27,-0.385 0.245,-0.381C0.218,-0.378 0.202,-0.375 0.198,-0.373C0.197,-0.363 0.196,-0.317 0.196,-0.234C0.196,-0.169 0.197,-0.125 0.199,-0.103C0.199,-0.093 0.201,-0.079 0.205,-0.059C0.209,-0.039 0.211,-0.023 0.211,-0.013C0.211,-0.006 0.207,0.001 0.199,0.008C0.19,0.014 0.183,0.018 0.176,0.018C0.16,0.018 0.146,0 0.136,-0.034C0.13,-0.059 0.126,-0.083 0.126,-0.105C0.126,-0.223 0.127,-0.309 0.129,-0.365C0.124,-0.369 0.105,-0.369 0.071,-0.365C0.045,-0.362 0.031,-0.371 0.031,-0.394C0.031,-0.425 0.065,-0.44 0.133,-0.438L0.149,-0.664C0.149,-0.666 0.148,-0.67 0.146,-0.676C0.144,-0.681 0.143,-0.685 0.143,-0.688C0.143,-0.693 0.146,-0.697 0.153,-0.702C0.159,-0.706 0.167,-0.708 0.176,-0.708C0.205,-0.705 0.22,-0.69 0.22,-0.664C0.22,-0.643 0.217,-0.612 0.211,-0.57C0.205,-0.528 0.203,-0.498 0.203,-0.478C0.203,-0.468 0.203,-0.458 0.205,-0.449L0.274,-0.453C0.297,-0.452 0.309,-0.443 0.309,-0.425C0.309,-0.412 0.303,-0.401 0.293,-0.394Z" style="fill-rule:nonzero;"/>
                    </g>
                    <g transform="matrix(30,0,0,30,372.675,625.058)">
                        <path d="M0.42,0.036C0.42,0.048 0.411,0.054 0.393,0.054C0.373,0.054 0.36,0.045 0.356,0.029C0.355,0.026 0.355,0.01 0.355,-0.02C0.355,-0.028 0.354,-0.035 0.351,-0.04C0.305,-0.006 0.254,0.011 0.2,0.011C0.163,0.011 0.126,0.001 0.091,-0.02C0.051,-0.043 0.031,-0.073 0.031,-0.108C0.031,-0.142 0.055,-0.175 0.103,-0.208C0.146,-0.238 0.186,-0.253 0.223,-0.253L0.346,-0.253C0.351,-0.258 0.354,-0.266 0.354,-0.279C0.354,-0.335 0.349,-0.377 0.34,-0.405C0.325,-0.452 0.295,-0.476 0.251,-0.476C0.22,-0.476 0.19,-0.456 0.164,-0.416C0.14,-0.38 0.128,-0.345 0.128,-0.311L0.128,-0.298C0.128,-0.291 0.124,-0.288 0.118,-0.288C0.109,-0.288 0.1,-0.293 0.09,-0.303C0.08,-0.313 0.075,-0.321 0.075,-0.329C0.075,-0.352 0.082,-0.381 0.096,-0.417C0.11,-0.452 0.126,-0.479 0.143,-0.498C0.163,-0.52 0.189,-0.531 0.22,-0.531C0.268,-0.531 0.311,-0.516 0.351,-0.486C0.394,-0.454 0.415,-0.415 0.416,-0.369L0.42,0.036ZM0.354,-0.163C0.354,-0.196 0.328,-0.213 0.276,-0.213C0.235,-0.213 0.2,-0.205 0.169,-0.191C0.13,-0.173 0.11,-0.145 0.11,-0.109C0.11,-0.086 0.12,-0.069 0.141,-0.056C0.159,-0.045 0.18,-0.04 0.204,-0.04C0.24,-0.04 0.274,-0.052 0.306,-0.075C0.338,-0.098 0.354,-0.128 0.354,-0.163Z" style="fill-rule:nonzero;"/>
                    </g>
                    <g transform="matrix(30,0,0,30,394.125,625.058)">
                        <path d="M0.428,-0.794C0.428,-0.775 0.425,-0.75 0.42,-0.72C0.414,-0.681 0.41,-0.656 0.409,-0.646C0.406,-0.62 0.402,-0.535 0.396,-0.389C0.391,-0.255 0.389,-0.182 0.389,-0.168C0.389,-0.078 0.397,-0.015 0.413,0.021C0.407,0.03 0.399,0.035 0.39,0.035C0.382,0.035 0.372,0.031 0.362,0.023C0.351,0.014 0.345,0.006 0.343,-0.003C0.343,-0.019 0.34,-0.045 0.335,-0.079C0.286,-0.016 0.239,0.015 0.194,0.015C0.14,0.015 0.098,-0.005 0.069,-0.046C0.044,-0.081 0.031,-0.128 0.031,-0.185C0.031,-0.255 0.044,-0.327 0.07,-0.403C0.103,-0.501 0.148,-0.55 0.203,-0.55C0.226,-0.55 0.25,-0.541 0.274,-0.524C0.279,-0.52 0.298,-0.503 0.333,-0.471C0.341,-0.528 0.345,-0.652 0.345,-0.844C0.351,-0.85 0.359,-0.853 0.369,-0.853C0.385,-0.853 0.398,-0.847 0.41,-0.835C0.422,-0.823 0.428,-0.81 0.428,-0.794ZM0.334,-0.333C0.334,-0.369 0.325,-0.402 0.309,-0.431C0.289,-0.466 0.262,-0.484 0.228,-0.484C0.186,-0.484 0.153,-0.441 0.128,-0.356C0.108,-0.292 0.097,-0.232 0.098,-0.175C0.097,-0.138 0.103,-0.107 0.115,-0.08C0.131,-0.045 0.155,-0.028 0.186,-0.028C0.238,-0.028 0.277,-0.067 0.304,-0.148C0.324,-0.205 0.334,-0.267 0.334,-0.333Z" style="fill-rule:nonzero;"/>
                    </g>
                    <g transform="matrix(30,0,0,30,407.887,625.058)">
                        <path d="M0.398,-0.124C0.398,-0.087 0.373,-0.054 0.324,-0.025C0.28,0.002 0.238,0.015 0.199,0.015C0.087,0.015 0.031,-0.056 0.031,-0.198C0.031,-0.26 0.043,-0.327 0.065,-0.399C0.095,-0.492 0.133,-0.539 0.18,-0.539C0.22,-0.539 0.264,-0.519 0.311,-0.478C0.359,-0.438 0.383,-0.397 0.383,-0.358C0.383,-0.306 0.362,-0.261 0.32,-0.223C0.278,-0.184 0.231,-0.165 0.179,-0.165C0.174,-0.165 0.163,-0.169 0.147,-0.178C0.131,-0.186 0.12,-0.19 0.114,-0.19C0.103,-0.19 0.097,-0.187 0.098,-0.18C0.097,-0.084 0.129,-0.036 0.193,-0.036C0.225,-0.036 0.255,-0.047 0.283,-0.069C0.299,-0.081 0.318,-0.101 0.338,-0.128C0.353,-0.148 0.364,-0.159 0.369,-0.159C0.388,-0.159 0.398,-0.147 0.398,-0.124ZM0.311,-0.354C0.311,-0.383 0.303,-0.41 0.286,-0.436C0.27,-0.461 0.247,-0.474 0.22,-0.474C0.187,-0.474 0.16,-0.453 0.139,-0.411C0.121,-0.376 0.113,-0.34 0.113,-0.303C0.113,-0.278 0.12,-0.258 0.136,-0.242C0.151,-0.226 0.171,-0.218 0.195,-0.218C0.229,-0.218 0.258,-0.232 0.28,-0.261C0.301,-0.288 0.311,-0.319 0.311,-0.354Z" style="fill-rule:nonzero;"/>
                    </g>
                    <g transform="matrix(30,0,0,30,428.475,625.058)">
                        <path d="M0.605,0.008C0.588,0.018 0.574,0.024 0.565,0.024C0.559,0.024 0.551,0.021 0.54,0.015C0.541,0.002 0.541,-0.021 0.541,-0.053C0.542,-0.082 0.543,-0.104 0.543,-0.12C0.543,-0.377 0.516,-0.505 0.463,-0.505C0.431,-0.505 0.403,-0.465 0.38,-0.385C0.362,-0.321 0.353,-0.267 0.353,-0.223L0.353,-0.098C0.353,-0.091 0.354,-0.081 0.358,-0.069C0.362,-0.057 0.364,-0.048 0.364,-0.043C0.364,-0.036 0.359,-0.029 0.35,-0.023C0.341,-0.016 0.333,-0.013 0.326,-0.013C0.319,-0.013 0.31,-0.018 0.301,-0.028C0.292,-0.039 0.288,-0.048 0.288,-0.055L0.288,-0.306C0.288,-0.333 0.283,-0.367 0.274,-0.408C0.262,-0.459 0.248,-0.485 0.231,-0.485C0.222,-0.485 0.208,-0.473 0.19,-0.45C0.128,-0.37 0.096,-0.272 0.096,-0.155C0.096,-0.141 0.098,-0.12 0.101,-0.092C0.105,-0.064 0.106,-0.043 0.106,-0.03C0.106,-0.005 0.096,0.008 0.075,0.008C0.065,0.008 0.056,0.003 0.049,-0.005C0.045,-0.009 0.042,-0.028 0.038,-0.061C0.033,-0.091 0.031,-0.112 0.031,-0.123L0.031,-0.418C0.031,-0.503 0.041,-0.545 0.061,-0.545C0.07,-0.545 0.078,-0.541 0.087,-0.533C0.096,-0.525 0.1,-0.517 0.1,-0.509C0.1,-0.491 0.097,-0.468 0.093,-0.44C0.088,-0.403 0.085,-0.38 0.084,-0.371L0.09,-0.365C0.106,-0.401 0.122,-0.437 0.138,-0.473C0.16,-0.518 0.187,-0.541 0.218,-0.541C0.261,-0.541 0.298,-0.495 0.33,-0.401C0.338,-0.411 0.349,-0.432 0.361,-0.464C0.374,-0.495 0.385,-0.518 0.395,-0.531C0.411,-0.551 0.43,-0.561 0.454,-0.561C0.476,-0.561 0.501,-0.546 0.529,-0.516C0.58,-0.462 0.605,-0.364 0.605,-0.223L0.605,0.008Z" style="fill-rule:nonzero;"/>
                    </g>
                    <g transform="matrix(30,0,0,30,448.05,625.058)">
                        <path d="M0.398,-0.124C0.398,-0.087 0.373,-0.054 0.324,-0.025C0.28,0.002 0.238,0.015 0.199,0.015C0.087,0.015 0.031,-0.056 0.031,-0.198C0.031,-0.26 0.043,-0.327 0.065,-0.399C0.095,-0.492 0.133,-0.539 0.18,-0.539C0.22,-0.539 0.264,-0.519 0.311,-0.478C0.359,-0.438 0.383,-0.397 0.383,-0.358C0.383,-0.306 0.362,-0.261 0.32,-0.223C0.278,-0.184 0.231,-0.165 0.179,-0.165C0.174,-0.165 0.163,-0.169 0.147,-0.178C0.131,-0.186 0.12,-0.19 0.114,-0.19C0.103,-0.19 0.097,-0.187 0.098,-0.18C0.097,-0.084 0.129,-0.036 0.193,-0.036C0.225,-0.036 0.255,-0.047 0.283,-0.069C0.299,-0.081 0.318,-0.101 0.338,-0.128C0.353,-0.148 0.364,-0.159 0.369,-0.159C0.388,-0.159 0.398,-0.147 0.398,-0.124ZM0.311,-0.354C0.311,-0.383 0.303,-0.41 0.286,-0.436C0.27,-0.461 0.247,-0.474 0.22,-0.474C0.187,-0.474 0.16,-0.453 0.139,-0.411C0.121,-0.376 0.113,-0.34 0.113,-0.303C0.113,-0.278 0.12,-0.258 0.136,-0.242C0.151,-0.226 0.171,-0.218 0.195,-0.218C0.229,-0.218 0.258,-0.232 0.28,-0.261C0.301,-0.288 0.311,-0.319 0.311,-0.354Z" style="fill-rule:nonzero;"/>
                    </g>
                    <g transform="matrix(30,0,0,30,460.725,625.058)">
                        <path d="M0.124,-0.013C0.124,0.009 0.112,0.02 0.089,0.02C0.052,0.02 0.034,-0.055 0.035,-0.206L0.039,-0.768C0.039,-0.777 0.038,-0.79 0.035,-0.807C0.033,-0.824 0.031,-0.837 0.031,-0.845C0.047,-0.857 0.06,-0.863 0.071,-0.863C0.083,-0.863 0.095,-0.858 0.106,-0.85C0.118,-0.842 0.124,-0.832 0.124,-0.82C0.124,-0.812 0.122,-0.801 0.118,-0.788C0.113,-0.771 0.11,-0.76 0.109,-0.756C0.099,-0.7 0.094,-0.62 0.094,-0.519C0.094,-0.355 0.093,-0.275 0.093,-0.281C0.095,-0.179 0.102,-0.102 0.113,-0.05C0.113,-0.048 0.114,-0.042 0.118,-0.033C0.122,-0.024 0.124,-0.018 0.124,-0.013Z" style="fill-rule:nonzero;"/>
                    </g>
                    <g transform="matrix(30,0,0,30,465.375,625.058)">
                        <path d="M0.3,-0.669L0.298,-0.661C0.29,-0.66 0.28,-0.657 0.268,-0.653C0.25,-0.644 0.232,-0.63 0.213,-0.611C0.183,-0.583 0.161,-0.569 0.146,-0.569C0.144,-0.569 0.141,-0.572 0.138,-0.578C0.135,-0.583 0.134,-0.588 0.134,-0.59L0.134,-0.595C0.206,-0.673 0.25,-0.711 0.266,-0.711C0.272,-0.711 0.279,-0.706 0.287,-0.694C0.295,-0.683 0.299,-0.675 0.3,-0.669ZM0.421,-0.246C0.421,-0.175 0.405,-0.112 0.374,-0.059C0.336,0.005 0.284,0.038 0.218,0.038C0.15,0.038 0.1,0.011 0.066,-0.041C0.039,-0.085 0.025,-0.142 0.025,-0.214C0.025,-0.285 0.041,-0.354 0.073,-0.423C0.113,-0.507 0.163,-0.549 0.225,-0.549C0.241,-0.549 0.263,-0.54 0.293,-0.521C0.378,-0.468 0.421,-0.376 0.421,-0.246ZM0.361,-0.248C0.361,-0.301 0.354,-0.349 0.34,-0.391C0.319,-0.45 0.287,-0.48 0.244,-0.48C0.194,-0.48 0.155,-0.447 0.126,-0.381C0.105,-0.33 0.094,-0.276 0.094,-0.218C0.094,-0.165 0.101,-0.121 0.116,-0.085C0.138,-0.036 0.172,-0.011 0.218,-0.011C0.268,-0.011 0.305,-0.04 0.331,-0.096C0.351,-0.14 0.361,-0.191 0.361,-0.248Z" style="fill-rule:nonzero;"/>
                    </g>
                    <g transform="matrix(30,0,0,30,478.762,625.058)">
                        <path d="M0.428,0.006C0.423,0.015 0.415,0.02 0.406,0.02C0.397,0.02 0.382,0.014 0.361,0.003L0.361,-0.008C0.361,-0.015 0.362,-0.026 0.363,-0.041C0.363,-0.056 0.364,-0.067 0.364,-0.074C0.364,-0.35 0.329,-0.489 0.26,-0.489C0.238,-0.489 0.215,-0.473 0.19,-0.441C0.127,-0.363 0.095,-0.264 0.095,-0.145C0.095,-0.129 0.098,-0.106 0.103,-0.076C0.109,-0.045 0.111,-0.022 0.111,-0.006C0.111,0.006 0.102,0.013 0.085,0.013C0.052,0.013 0.035,-0.014 0.035,-0.066L0.035,-0.35C0.035,-0.358 0.036,-0.368 0.038,-0.383C0.039,-0.397 0.04,-0.408 0.04,-0.415C0.04,-0.426 0.039,-0.442 0.036,-0.463C0.033,-0.483 0.031,-0.499 0.031,-0.509C0.031,-0.515 0.036,-0.523 0.047,-0.532C0.057,-0.541 0.065,-0.545 0.071,-0.545C0.082,-0.545 0.092,-0.539 0.101,-0.528C0.099,-0.473 0.097,-0.442 0.098,-0.433C0.097,-0.42 0.098,-0.408 0.099,-0.396C0.106,-0.399 0.116,-0.413 0.129,-0.438C0.145,-0.469 0.158,-0.491 0.169,-0.503C0.189,-0.526 0.212,-0.538 0.238,-0.538C0.248,-0.538 0.263,-0.534 0.283,-0.526C0.328,-0.51 0.36,-0.482 0.379,-0.444C0.411,-0.378 0.428,-0.291 0.428,-0.183L0.428,0.006Z" style="fill-rule:nonzero;"/>
                    </g>
                </g>
                <g transform="matrix(1.65755,0,0,1.34124,-538.347,28.8901)">
                    <g transform="matrix(1.65005,-0,-0,1.65005,527.74,146.765)">
                        <path d="M179.935,96.757L190.718,97.61L194.077,107.892" style="fill:none;stroke:black;stroke-width:2px;"/>
                        <path d="M126.019,179.787C126.019,179.787 183.491,106.789 190.718,97.61" style="fill:none;stroke:black;stroke-width:2px;stroke-linejoin:round;stroke-miterlimit:1.5;"/>
                    </g>
                </g>
                <g transform="matrix(1.65755,0,0,1.34124,-538.347,28.8901)">
                    <g transform="matrix(1.65005,-0,-0,1.65005,527.74,146.765)">
                        <path d="M194.611,260.194L190.764,270.304L179.952,270.64" style="fill:none;stroke:black;stroke-width:2px;"/>
                        <path d="M126.144,179.628C126.144,179.628 183.746,260.457 190.764,270.304" style="fill:none;stroke:black;stroke-width:2px;stroke-linejoin:round;stroke-miterlimit:1.5;"/>
                    </g>
                </g>
                <g transform="matrix(1.65755,0,0,1.34124,-538.347,28.8901)">
                    <g transform="matrix(1.65005,-0,-0,1.65005,527.74,146.765)">
                        <path d="M184.259,170.787L190.259,179.787L184.259,188.787" style="fill:none;stroke:black;stroke-width:2px;"/>
                        <path d="M126.258,179.787L190.259,179.787" style="fill:none;stroke:black;stroke-width:2px;stroke-linejoin:round;stroke-miterlimit:1.5;"/>
                    </g>
                </g>
            </g>
        </g>
    </g>
</svg>
