<svg xmlns="http://www.w3.org/2000/svg" xmlns:xlink="http://www.w3.org/1999/xlink" width="528" height="362" fill-rule="evenodd" stroke-linecap="round" stroke-miterlimit="10" xmlns:v="https://vecta.io/nano"><style><![CDATA[.B{fill:#e7e7e7}.C{stroke-linejoin:round}.D{stroke-miterlimit:1.5}.E{fill-rule:nonzero}]]></style><g transform="translate(-696 -359.043)"><path d="M372 137.087h588V499H372z" fill="url(#A)" transform="matrix(.897959 0 0 1 361.959 221.957)"/><g transform="matrix(.211878 0 0 .211878 585.858 465.909)"><path d="M691.813 618.682h510.795v31.297H691.813z" fill="#fb0000"/><g class="E"><path d="M1161.132 582.966H733.42l-42.144-178.393h512l-42.144 178.393z" fill="#ff8400"/><path d="M883.276 404.573l10.536 178.393h53.465V404.573h-64.001zm-128 0l31.608 178.393h53.464l-21.072-178.393h-64zm384 0l-31.608 178.393h53.464l42.144-178.393h-64zm-128 0l-10.536 178.393h53.464l21.072-178.393h-64z" fill="#ff5300"/></g></g><g class="E"><use xlink:href="#B" fill="#ecc200"/><use xlink:href="#C" fill="#fc1b30"/><use xlink:href="#D" class="B"/><use xlink:href="#E" fill="#40260c"/><use xlink:href="#B" y="84.24" fill="#f600e5"/><use xlink:href="#C" y="84.24" fill="#2182f4"/><use xlink:href="#D" y="84.24" class="B"/><use xlink:href="#E" y="84.24" fill="#35a725"/><use xlink:href="#B" y="168.48" fill="#f63727"/><use xlink:href="#C" y="168.48" fill="#00cb7c"/><use xlink:href="#D" y="168.48" class="B"/><use xlink:href="#E" y="168.48" fill="#0099d1"/><path d="M771.042 526.996c0 .498-.142 1.103-.391 1.886-.641 1.815-1.886 3.274-3.772 4.341a11.11 11.11 0 0 1-5.693 1.53c-3.487 0-6.085-1.423-7.828-4.27-1.495-2.349-2.242-5.338-2.242-9.038 0-3.131.463-6.085 1.388-8.896 1.032-3.238 2.562-5.765 4.626-7.544 1.495-1.352 3.025-2.028 4.59-2.028 2.277 0 3.985 1.103 5.088 3.309.89 1.708 1.352 3.843 1.352 6.369 0 1.245-.214 2.669-.569 4.306-.534 2.135-1.174 3.203-1.957 3.203-.641 0-1.068-.32-1.352-.996.178-.107.463-.32.854-.605.747-.747 1.139-2.562 1.139-5.444 0-1.744-.32-3.416-.961-5.017-.854-2.064-1.993-3.096-3.416-3.096-1.174 0-2.384.676-3.665 2.064-.961 1.068-1.779 2.242-2.455 3.63-1.495 3.131-2.277 7.01-2.242 11.6-.036 3.06.534 5.48 1.601 7.295 1.317 2.242 3.38 3.38 6.227 3.38a7.6 7.6 0 0 0 4.199-1.21 8.18 8.18 0 0 0 2.953-3.274c.107-.463.356-1.068.747-1.886.249-.391.534-.569.89-.569.605 0 .89.32.89.961zm4.858 6.405c0 .783-.427 1.174-1.245 1.174-1.317 0-1.957-2.669-1.922-8.042l.142-19.998c0-.32-.036-.783-.142-1.388l-.142-1.352c.569-.427 1.032-.641 1.423-.641.427 0 .854.178 1.245.463.427.285.641.641.641 1.068 0 .285-.071.676-.214 1.139l-.32 1.139c-.356 1.993-.534 4.839-.534 8.433l-.036 8.469c.071 3.63.32 6.369.712 8.22 0 .071.036.285.178.605s.214.534.214.712zm15.692 1.744c0 .427-.32.641-.961.641-.712 0-1.174-.32-1.317-.89-.036-.107-.036-.676-.036-1.744 0-.285-.036-.534-.142-.712-1.637 1.21-3.452 1.815-5.373 1.815-1.317 0-2.633-.356-3.879-1.103-1.423-.818-2.135-1.886-2.135-3.131 0-1.21.854-2.384 2.562-3.558 1.53-1.068 2.953-1.601 4.27-1.601h4.377c.178-.178.285-.463.285-.925 0-1.993-.178-3.487-.498-4.484-.534-1.672-1.601-2.526-3.167-2.526-1.103 0-2.171.712-3.096 2.135-.854 1.281-1.281 2.526-1.281 3.736v.463c0 .249-.142.356-.356.356-.32 0-.641-.178-.996-.534s-.534-.641-.534-.925c0-.818.249-1.85.747-3.131.498-1.245 1.068-2.206 1.672-2.882.712-.783 1.637-1.174 2.74-1.174 1.708 0 3.238.534 4.661 1.601 1.53 1.139 2.277 2.526 2.313 4.163l.142 14.411zm-2.349-7.081c0-1.174-.925-1.779-2.776-1.779-1.459 0-2.704.285-3.807.783-1.388.641-2.099 1.637-2.099 2.918 0 .818.356 1.423 1.103 1.886.641.391 1.388.569 2.242.569 1.281 0 2.491-.427 3.63-1.245s1.708-1.886 1.708-3.131z"/><use xlink:href="#F"/><use xlink:href="#G"/><path d="M966.19 407.471c0 4.199-.925 7.828-2.811 10.889-2.171 3.63-5.231 5.444-9.109 5.444-.961 0-2.135-.214-3.416-.676-4.946-1.566-7.437-6.014-7.437-13.344 0-4.27.961-8.113 2.847-11.529 2.242-4.092 5.338-6.12 9.287-6.12 3.452 0 6.156 1.779 8.149 5.302 1.672 2.918 2.491 6.263 2.491 10.035zm-2.491-.391c0-6.583-2.206-10.604-6.583-12.098-.463-.178-.89-.285-1.245-.285-1.886 0-3.772.89-5.587 2.633-3.131 2.989-4.697 7.544-4.697 13.735 0 .569.142 1.459.356 2.669.498 2.562 1.352 4.448 2.491 5.693 1.388 1.423 3.274 2.135 5.765 2.135 3.38 0 5.871-1.672 7.544-5.017 1.317-2.562 1.957-5.729 1.957-9.465zm18.184 5.586c0 2.598-.356 4.768-1.068 6.512-.961 2.42-2.562 3.665-4.804 3.665-.569 0-1.317-.178-2.242-.498l-2.242-.818c-.071.178-.107.391-.071.569-.036.178.071 1.174.071 1.317 0 .427-.249.676-.747.676s-.925-.214-1.245-.641c-.214-.214-.391-1.068-.498-2.633l-.142-2.847v-.249l.854-24.837h.641c.391 0 .783.214 1.174.641.356.427.534.89.534 1.317 0 1.103-.142 2.74-.427 4.911s-.427 3.772-.391 4.875v1.708c.214-.107.534-.427.89-1.032.427-.747.818-1.245 1.139-1.566.605-.534 1.317-.783 2.171-.783 1.459 0 2.776.569 3.985 1.779a7.92 7.92 0 0 1 2.135 3.843c.178 1.032.285 2.384.285 4.092zm-2.349.285c0-1.85-.178-3.416-.569-4.768-.569-2.064-1.53-3.096-2.847-3.096-1.637 0-2.918 1.174-3.879 3.594a15.46 15.46 0 0 0-1.103 5.729c0 1.744.285 3.203.89 4.412.747 1.637 1.85 2.455 3.38 2.455 1.495 0 2.633-1.068 3.38-3.203.498-1.53.747-3.238.747-5.124zm8.843-12.312c0 .391-.178.747-.534 1.068-.391.285-.783.427-1.174.427-.463 0-1.103-.534-1.922-1.601v-.605c0-.89.427-1.352 1.317-1.352.605 0 1.139.214 1.601.569.498.391.712.89.712 1.495zm-.249 4.519c-.498 1.495-.747 2.882-.747 4.128l.107 9.074.142 9.038c0 1.957-.463 3.701-1.423 5.16-1.139 1.744-2.598 2.598-4.448 2.598-.961 0-2.42-.427-4.27-1.281-2.064-.925-3.131-1.815-3.131-2.633 0-.498.32-.747.961-.747.214 0 .356 0 .427.036 1.388 1.637 3.06 2.491 5.088 2.491 3.06 0 4.626-2.704 4.626-8.042 0-.178-.107-6.69-.32-19.535l.356-.427c.925-.214 1.423-.356 1.566-.356.391 0 .747.178 1.068.498z"/><use xlink:href="#G" x="181.627" y="-111.306"/><path d="M1013.534 408.539c-.249.178-.818.32-1.708.463-.961.107-1.53.214-1.672.285-.036.356-.071 1.993-.071 4.946l.107 4.661c0 .356.071.854.214 1.566s.214 1.281.214 1.637c0 .249-.142.498-.427.747-.32.214-.569.356-.818.356-.569 0-1.068-.641-1.423-1.85-.214-.89-.356-1.744-.356-2.526l.107-9.252c-.178-.142-.854-.142-2.064 0-.925.107-1.423-.214-1.423-1.032 0-1.103 1.21-1.637 3.63-1.566l.569-8.042c0-.071-.036-.214-.107-.427a1.23 1.23 0 0 1-.107-.427c0-.178.107-.32.356-.498.214-.142.498-.214.818-.214 1.032.107 1.566.641 1.566 1.566 0 .747-.107 1.85-.32 3.345s-.285 2.562-.285 3.274c0 .356 0 .712.071 1.032l2.455-.142c.818.036 1.245.356 1.245.996a1.32 1.32 0 0 1-.569 1.103zm15.479 5.266c0 2.526-.569 4.768-1.708 6.654-1.352 2.277-3.203 3.452-5.551 3.452-2.42 0-4.199-.961-5.373-2.811-.996-1.566-1.495-3.594-1.495-6.156 0-2.526.569-4.982 1.708-7.437 1.423-2.989 3.238-4.484 5.409-4.484.569 0 1.388.32 2.42.996 3.06 1.886 4.59 5.16 4.59 9.785zm-2.135-.071c0-1.886-.285-3.594-.783-5.088-.747-2.099-1.886-3.167-3.416-3.167-1.779 0-3.167 1.174-4.163 3.523-.783 1.815-1.174 3.736-1.174 5.8 0 1.886.285 3.452.818 4.733.747 1.744 1.957 2.633 3.594 2.633 1.779 0 3.131-1.032 4.057-3.025.712-1.566 1.068-3.38 1.068-5.409z"/><use xlink:href="#F" x="237.047" y="-111.306"/><use xlink:href="#H"/><use xlink:href="#I"/><use xlink:href="#J"/><use xlink:href="#K"/><use xlink:href="#I" x="18.727"/><use xlink:href="#L"/><use xlink:href="#M"/><use xlink:href="#N"/><path d="M1138.799 502.636c-.127.109-.364.182-.691.182-.164 0-.345-.109-.527-.327l.036-3.109c0-3.854-.655-5.782-1.945-5.782-.545 0-1 .327-1.364.964-.309.545-.473 1.109-.473 1.673 0 .073-.018.164-.055.291s-.055.218-.055.291v2.909c0 .255.036.618.109 1.109l.109 1.091c0 .236-.182.364-.545.364-.255 0-.473-.127-.636-.364-.182-.236-.273-.491-.273-.745l.145-13.981a.73.73 0 0 1-.055-.273c0-.273.164-.418.455-.418.164 0 .382.109.673.309.291.218.455.382.455.509 0 .364-.073.891-.218 1.582-.145.673-.218 1.2-.218 1.545l.036 3.018c.564-.509 1-.745 1.309-.745.473 0 1.055.145 1.745.418 1.309.545 1.982 2 1.982 4.327v5.163z"/><use xlink:href="#O"/><use xlink:href="#N" x="24.045"/><use xlink:href="#O" x="16.613"/><use xlink:href="#P"/><use xlink:href="#I" x="96.02"/><use xlink:href="#K" x="90.043"/><use xlink:href="#M" x="69.089"/><use xlink:href="#H" y="82.962"/><use xlink:href="#I" y="82.962"/><use xlink:href="#J" y="82.962"/><use xlink:href="#K" y="82.962"/><use xlink:href="#I" x="18.727" y="82.962"/><use xlink:href="#L" y="82.962"/><use xlink:href="#M" y="82.962"/><path d="M1132.381 585.871c-.382.291-.673.455-.909.455-.327 0-.909-.491-1.727-1.436l-1.636-1.927c-.182-.164-.491-.509-.945-1.073-.4-.473-.745-.8-1.055-.982l-.4.545v2.254c-.018.127.036.327.145.582.091.255.145.436.145.582 0 .091-.073.182-.2.255-.127.091-.236.127-.345.127-.618 0-.909-.327-.909-.982v-3.182c0-.2.018-.491.073-.873l.091-.873v-6.273c0-.891-.055-1.6-.127-2.109 0-.073-.036-.255-.109-.509-.036-.2-.073-.382-.073-.527s.127-.291.364-.455c.236-.145.436-.218.618-.218.145 0 .291.036.436.127.164.073.255.182.255.309 0 .018-.055.2-.127.545-.109.4-.145 1.2-.145 2.382l-.091 6.582.109.127c.473-.309 1.145-.873 2-1.691l1.582-1.636c.873-.873 1.382-1.309 1.527-1.309a.58.58 0 0 1 .545.309.93.93 0 0 1 .182.636l-.018.109c-.582.382-1.436 1.073-2.545 2.054-1.291 1.127-1.927 1.891-1.927 2.254 0 .127.218.473.673 1.018l2.109 2.491c.964 1.055 1.764 1.745 2.436 2.054v.255z"/><use xlink:href="#Q"/><path d="M1146.717 577.726c0 1.436-.182 2.873-.564 4.273-.527 2-1.309 3-2.309 3-.745 0-1.382-.455-1.909-1.382l-.6-1.382-.091.036-.655 1.818c-.327.709-.8 1.055-1.436 1.055-1.927 0-2.891-2.309-2.891-6.945l.091-2.491c.109-.145.255-.236.418-.236s.364.073.582.2c.236.127.345.273.345.436 0 .2-.055.509-.145.927-.109.418-.145.745-.145.982 0 3.945.509 5.909 1.527 5.909.636 0 1.164-.727 1.564-2.218.309-1.145.473-2.164.455-3.073v-2.182c0-.309.182-.473.545-.473.436 0 .655.309.655.909 0 .073-.018.182-.036.345l-.036.327v2.8c0 .655.127 1.345.345 2.091.291.982.673 1.473 1.164 1.473.655 0 1.2-.818 1.636-2.473.327-1.273.491-2.382.491-3.345 0-.945-.055-1.527-.182-1.745 0-.018-.055-.073-.145-.2-.109-.127-.164-.2-.164-.255a.67.67 0 0 1 .218-.473c.145-.145.291-.236.455-.236.545 0 .818.855.818 2.527z"/><use xlink:href="#Q" x="14.976"/><use xlink:href="#H" y="166.287"/><use xlink:href="#I" y="166.287"/><use xlink:href="#J" y="166.287"/><use xlink:href="#K" y="166.287"/><use xlink:href="#I" x="18.727" y="166.287"/><use xlink:href="#L" y="166.287"/><use xlink:href="#M" y="166.287"/><path d="M1134.836 668.45c-.309.182-.564.291-.727.291-.109 0-.255-.055-.455-.164.018-.236.018-.655.018-1.236l.036-1.218c0-4.673-.491-7-1.455-7-.582 0-1.091.727-1.509 2.182-.327 1.164-.491 2.145-.491 2.945v2.273c0 .127.018.309.091.527s.109.382.109.473c0 .127-.091.255-.255.364-.164.127-.309.182-.436.182s-.291-.091-.455-.273c-.164-.2-.236-.364-.236-.491v-4.564c0-.491-.091-1.109-.255-1.854-.218-.927-.473-1.4-.782-1.4-.164 0-.418.218-.745.636-1.127 1.455-1.709 3.236-1.709 5.363 0 .255.036.636.091 1.145.073.509.091.891.091 1.127 0 .455-.182.691-.564.691-.182 0-.345-.091-.473-.236-.073-.073-.127-.418-.2-1.018-.091-.545-.127-.927-.127-1.127v-5.363c0-1.545.182-2.309.545-2.309.164 0 .309.073.473.218s.236.291.236.436c0 .327-.055.745-.127 1.255l-.164 1.255.109.109.873-1.964c.4-.818.891-1.236 1.455-1.236.782 0 1.455.836 2.036 2.545.145-.182.345-.564.564-1.145.236-.564.436-.982.618-1.218.291-.364.636-.545 1.073-.545.4 0 .855.273 1.364.818.927.982 1.382 2.764 1.382 5.327v4.2z"/><use xlink:href="#M" x="24.341" y="166.287"/><use xlink:href="#P" x="-21.294" y="166.287"/><path d="M1151.654 656.142l-.036.145c-.145.018-.327.073-.545.145-.327.164-.655.418-1 .764-.545.509-.945.764-1.218.764-.036 0-.091-.055-.145-.164a.49.49 0 0 1-.073-.218v-.091c1.309-1.418 2.109-2.109 2.4-2.109.109 0 .236.091.382.309.145.2.218.345.236.455zm2.2 7.691c0 1.291-.291 2.436-.855 3.4-.691 1.164-1.636 1.764-2.836 1.764-1.236 0-2.145-.491-2.764-1.436-.491-.8-.745-1.836-.745-3.145 0-1.291.291-2.545.873-3.8.727-1.527 1.636-2.291 2.764-2.291.291 0 .691.164 1.236.509 1.545.964 2.327 2.636 2.327 5zm-1.091-.036c0-.964-.127-1.836-.382-2.6-.382-1.073-.964-1.618-1.745-1.618-.909 0-1.618.6-2.145 1.8a7.69 7.69 0 0 0-.582 2.964c0 .964.127 1.764.4 2.418.4.891 1.018 1.345 1.854 1.345.909 0 1.582-.527 2.054-1.545.364-.8.545-1.727.545-2.764zm9.331 4.617c-.091.164-.236.255-.4.255s-.436-.109-.818-.309v-.2c0-.127.018-.327.036-.6l.018-.6c0-5.018-.636-7.545-1.891-7.545-.4 0-.818.291-1.273.873-1.145 1.418-1.727 3.218-1.727 5.382 0 .291.055.709.145 1.255.109.564.145.982.145 1.273 0 .218-.164.345-.473.345-.6 0-.909-.491-.909-1.436v-5.163c0-.145.018-.327.055-.6l.036-.582c0-.2-.018-.491-.073-.873l-.091-.836c0-.109.091-.255.291-.418.182-.164.327-.236.436-.236.2 0 .382.109.545.309l-.055 1.727c-.018.236 0 .455.018.673.127-.055.309-.309.545-.764.291-.564.527-.964.727-1.182.364-.418.782-.636 1.255-.636.182 0 .455.073.818.218.818.291 1.4.8 1.745 1.491.582 1.2.891 2.782.891 4.745v3.436z"/></g><g fill="none" stroke="#000" stroke-width="2"><path d="M911.936 494.757l10.783.853 3.359 10.281"/><path d="M858.02 577.787l64.699-82.176" class="C D"/><path d="M926.612 658.195l-3.847 10.109-10.812.337"/><path d="M858.145 577.628l64.62 90.676" class="C D"/><path d="M916.26 568.787l6 9-6 9"/><path d="M858.259 577.787h64.001" class="C D"/></g></g><defs><linearGradient id="A" x1="0" y1="0" x2="1" y2="0" gradientUnits="userSpaceOnUse" gradientTransform="matrix(588,361.913,-403.04,528,372,137.087)"><stop offset="0" stop-color="#e8e8e8"/><stop offset="1" stop-color="#c5c5c5"/></linearGradient><path id="B" d="M1047.262 519.386v-49.487c0-4.177-3.437-7.613-7.613-7.613h-91.361c-4.177 0-7.613 3.437-7.613 7.613v49.487h106.588z"/><path id="C" d="M974.934 454.672c-4.177 0-7.613 3.437-7.613 7.613h15.227c0-4.177-3.437-7.613-7.613-7.613zm19.034 0c-4.177 0-7.613 3.437-7.613 7.613h15.227c0-4.177-3.437-7.613-7.613-7.613zm19.034 0c-4.177 0-7.613 3.437-7.613 7.613h15.227c0-4.177-3.437-7.613-7.613-7.613z"/><path id="D" d="M940.674 485.126h106.588v7.613H940.674v-7.613zm0 15.227h106.588v7.613H940.674v-7.613z"/><path id="E" d="M940.674 469.899v7.442c.334.107.681.165 1.032.171 1.31 0 2.611-.917 2.611-.917l6.905-4.793c.799-.438 1.161-.445 1.903 0l6.905 4.793s1.302.917 2.611.917 2.611-.917 2.611-.917l6.905-4.793c.799-.438 1.161-.445 1.903 0l6.905 4.793s1.302.917 2.611.917 2.611-.917 2.611-.917l6.905-4.793c.799-.438 1.161-.445 1.903 0l6.905 4.793s1.302.917 2.611.917 2.611-.917 2.611-.917l6.905-4.793c.799-.438 1.161-.445 1.903 0l6.905 4.793s1.302.917 2.611.917 2.611-.917 2.611-.917l6.905-4.793c.283-.18.606-.29.94-.32a1.79 1.79 0 0 1 .902.32l6.905 4.793s1.302.917 2.611.917a3.61 3.61 0 0 0 .933-.141v-7.473c0-4.177-3.437-7.613-7.613-7.613h-91.361c-4.177 0-7.613 3.437-7.613 7.613z"/><path id="F" d="M807.471 531.231c0 1.032-.783 1.922-2.349 2.633-1.317.569-2.562.854-3.772.854-.818 0-1.744-.214-2.776-.569-.569-.249-1.459-.89-2.704-1.886-1.388-1.103-2.064-1.85-2.064-2.277 0-.925.569-1.317 1.672-1.245h.249c.071.89.996 1.85 2.847 2.882 1.672.961 2.989 1.423 4.021 1.423 1.281 0 1.957-.427 1.957-1.317 0-.534-.818-1.281-2.42-2.242-2.206-1.245-3.701-2.277-4.484-3.06-1.637-1.566-2.455-3.38-2.455-5.409 0-1.566.391-3.025 1.21-4.412.925-1.672 2.064-2.491 3.452-2.491 1.032 0 2.242.463 3.665 1.388 1.423.961 2.242 1.886 2.491 2.847.214.783.356 1.708.356 2.776 0 1.174-.214 2.42-.641 3.807-.249.214-.569.285-.925.285-.214 0-.534-.071-.961-.214-.463-.178-.676-.356-.676-.534 0 .142.142-.214.498-.961.214-.498.356-1.423.356-2.776 0-3.167-.996-4.768-2.989-4.768-1.032 0-1.886.712-2.491 2.099-.534 1.139-.818 2.277-.818 3.416 0 1.459.854 2.882 2.562 4.234.534.498 2.099 1.495 4.661 3.06 1.672 1.068 2.526 1.886 2.526 2.455z"/><path id="G" d="M822.033 529.452c0 1.317-.89 2.491-2.633 3.523-1.566.961-3.06 1.423-4.448 1.423-3.985 0-5.978-2.526-5.978-7.579 0-2.206.427-4.59 1.21-7.152 1.068-3.309 2.42-4.982 4.092-4.982 1.423 0 2.989.712 4.661 2.171 1.708 1.423 2.562 2.882 2.562 4.27 0 1.85-.747 3.452-2.242 4.804-1.495 1.388-3.167 2.064-5.017 2.064-.178 0-.569-.142-1.139-.463-.569-.285-.961-.427-1.174-.427-.391 0-.605.107-.569.356-.036 3.416 1.103 5.124 3.38 5.124 1.139 0 2.206-.391 3.203-1.174.569-.427 1.245-1.139 1.957-2.099.534-.712.925-1.103 1.103-1.103.676 0 1.032.427 1.032 1.245zm-3.096-8.184c0-1.032-.285-1.993-.89-2.918-.569-.89-1.388-1.352-2.349-1.352-1.174 0-2.135.747-2.882 2.242-.641 1.245-.925 2.526-.925 3.843 0 .89.249 1.601.818 2.171.534.569 1.245.854 2.099.854 1.21 0 2.242-.498 3.025-1.53.747-.961 1.103-2.064 1.103-3.309z"/><path id="H" d="M1074.338 487.837c0 .382-.127.564-.382.564.018 0-.145-.073-.509-.255-.218-.109-.8-.182-1.745-.182h-1.018c-.364 0-.6.073-.691.182s-.164.364-.218.764l-.255 1.782c-.291 2.327-.436 4.8-.436 7.436 0 1.964.2 3.273.618 3.964 0 .2-.073.309-.218.309-.8 0-1.291-.455-1.509-1.364-.091-.345-.127-1.109-.127-2.273l.091-3.836c0-.418.091-1.364.236-2.873l.182-2.854c0-.855.018-1.073.036-.636-.018-.236-.127-.345-.309-.345-.273 0-.673.055-1.218.164-.527.109-.945.164-1.2.164-.618 0-1-.255-1.182-.727.145-.255 1.273-.527 3.382-.782l3.836-.291c1.764 0 2.636.364 2.636 1.091z"/><path id="I" d="M1078.928 502.673c0 .218-.164.327-.491.327-.364 0-.6-.164-.673-.455-.018-.055-.018-.345-.018-.891 0-.145-.018-.273-.073-.364-.836.618-1.764.927-2.745.927a3.82 3.82 0 0 1-1.982-.564c-.727-.418-1.091-.964-1.091-1.6 0-.618.436-1.218 1.309-1.818.782-.545 1.509-.818 2.182-.818h2.236c.091-.091.145-.236.145-.473 0-1.018-.091-1.782-.255-2.291-.273-.855-.818-1.291-1.618-1.291-.564 0-1.109.364-1.582 1.091-.436.655-.655 1.291-.655 1.909v.236c0 .127-.073.182-.182.182-.164 0-.327-.091-.509-.273s-.273-.327-.273-.473c0-.418.127-.945.382-1.6.255-.636.545-1.127.855-1.473.364-.4.836-.6 1.4-.6.873 0 1.654.273 2.382.818.782.582 1.164 1.291 1.182 2.127l.073 7.363zm-1.2-3.618c0-.6-.473-.909-1.418-.909-.745 0-1.382.145-1.945.4-.709.327-1.073.836-1.073 1.491 0 .418.182.727.564.964.327.2.709.291 1.145.291.655 0 1.273-.218 1.854-.636s.873-.964.873-1.6z"/><path id="J" d="M1085.592 493.927c0 .055-.018.182-.018.382-.2.309-.4.455-.582.455-.109 0-.218-.073-.309-.218-.055-.964-.436-1.436-1.182-1.436-.491 0-.964.891-1.436 2.673-.182.655-.273 1.527-.273 2.618l.109 2.564c.018.055.055.145.127.291.055.145.091.255.091.327 0 .345-.236.509-.691.509-.509 0-.764-.273-.764-.8 0-.073.018-.182.055-.327s.055-.255.055-.327l-.109-3.764-.127-3.745c0-.291.055-.491.164-.545.109-.073.309-.109.618-.109.382 0 .6.127.655.4l.055.891.673-1.018c.327-.382.691-.564 1.055-.564.273 0 .545.073.818.236.145.091.345.327.618.709.255.382.4.655.4.8z"/><path id="K" d="M1090.392 494.855c-.127.091-.418.164-.873.236-.491.055-.782.109-.855.145-.018.182-.036 1.018-.036 2.527l.055 2.382c0 .182.036.436.109.8a4.75 4.75 0 0 1 .109.836c0 .127-.073.255-.218.382-.164.109-.291.182-.418.182-.291 0-.545-.327-.727-.945-.109-.455-.182-.891-.182-1.291l.055-4.727c-.091-.073-.436-.073-1.055 0-.473.055-.727-.109-.727-.527 0-.564.618-.836 1.854-.8l.291-4.109c0-.036-.018-.109-.055-.218-.036-.091-.055-.164-.055-.218 0-.091.055-.164.182-.255.109-.073.255-.109.418-.109.527.055.8.327.8.8 0 .382-.055.945-.164 1.709s-.145 1.309-.145 1.673c0 .182 0 .364.036.527l1.255-.073c.418.018.636.182.636.509 0 .236-.109.436-.291.564z"/><path id="L" d="M1110.8 487.582c0 .345-.055.8-.145 1.345l-.2 1.345c-.055.473-.127 2.018-.236 4.673l-.127 4.018c0 1.636.145 2.782.436 3.436-.109.164-.255.255-.418.255-.145 0-.327-.073-.509-.218-.2-.164-.309-.309-.345-.473 0-.291-.055-.764-.145-1.382-.891 1.145-1.745 1.709-2.564 1.709-.982 0-1.745-.364-2.273-1.109-.455-.636-.691-1.491-.691-2.527 0-1.273.236-2.582.709-3.964.6-1.782 1.418-2.673 2.418-2.673.418 0 .855.164 1.291.473.091.073.436.382 1.073.964.145-1.036.218-3.291.218-6.782a.59.59 0 0 1 .436-.164c.291 0 .527.109.745.327s.327.455.327.745zm-1.709 8.382c0-.655-.164-1.255-.455-1.782-.364-.636-.855-.964-1.473-.964-.764 0-1.364.782-1.818 2.327-.364 1.164-.564 2.254-.545 3.291-.018.673.091 1.236.309 1.727.291.636.727.945 1.291.945.945 0 1.654-.709 2.145-2.182.364-1.036.545-2.164.545-3.364z"/><path id="M" d="M1118.595 499.764c0 .673-.455 1.273-1.345 1.8-.8.491-1.564.727-2.273.727-2.036 0-3.054-1.291-3.054-3.873 0-1.127.218-2.345.618-3.654.545-1.691 1.236-2.545 2.091-2.545.727 0 1.527.364 2.382 1.109.873.727 1.309 1.473 1.309 2.182 0 .945-.382 1.764-1.145 2.454-.764.709-1.618 1.055-2.564 1.055-.091 0-.291-.073-.582-.236-.291-.145-.491-.218-.6-.218-.2 0-.309.055-.291.182-.018 1.745.564 2.618 1.727 2.618.582 0 1.127-.2 1.636-.6.291-.218.636-.582 1-1.073.273-.364.473-.564.564-.564.345 0 .527.218.527.636zm-1.582-4.182c0-.527-.145-1.018-.455-1.491-.291-.455-.709-.691-1.2-.691-.6 0-1.091.382-1.473 1.145a4.22 4.22 0 0 0-.473 1.964c0 .455.127.818.418 1.109.273.291.636.436 1.073.436.618 0 1.145-.255 1.545-.782a2.67 2.67 0 0 0 .564-1.691z"/><path id="N" d="M1131.545 499.654c0 .364-.309.855-.927 1.473-.636.6-1.145.964-1.527 1.073-.527.164-.982.255-1.327.255-1.109 0-1.945-.4-2.545-1.218-.545-.709-.818-1.636-.818-2.764 0-1.164.255-2.473.764-3.909.618-1.782 1.382-2.691 2.309-2.691.436 0 1.018.218 1.745.655s1.145.855 1.236 1.236c.109.473.164.927.164 1.382 0 1.673-.255 2.509-.764 2.509-.109 0-.255-.055-.418-.145-.182-.091-.255-.182-.255-.309 0-.055.018-.145.091-.236l.109-.2c.055-.2.091-.655.091-1.364 0-1.673-.382-2.527-1.127-2.527-.836 0-1.527.782-2.054 2.309-.4 1.182-.6 2.291-.582 3.364-.018.818.127 1.491.382 2.036.345.709.873 1.073 1.618 1.073.436 0 .945-.236 1.545-.691.527-.4.909-.836 1.182-1.291l.273-.636c.073-.109.182-.164.309-.164.091 0 .2.109.327.309.127.218.2.364.2.473z"/><path id="O" d="M1147.322 497.545c0 1.291-.291 2.436-.873 3.4-.691 1.164-1.636 1.764-2.836 1.764-1.236 0-2.145-.491-2.745-1.436-.509-.8-.764-1.836-.764-3.145 0-1.291.291-2.545.873-3.8.727-1.527 1.654-2.291 2.764-2.291.291 0 .709.164 1.236.509 1.564.964 2.345 2.636 2.345 5zm-1.091-.036c0-.964-.145-1.836-.4-2.6-.382-1.073-.964-1.618-1.745-1.618-.909 0-1.618.6-2.127 1.8a7.38 7.38 0 0 0-.6 2.964c0 .964.145 1.764.418 2.418.382.891 1 1.345 1.836 1.345.909 0 1.6-.527 2.073-1.545.364-.8.545-1.727.545-2.764z"/><path id="P" d="M1166.93 501.782c0 .4-.218.6-.636.6-.673 0-1-1.364-.982-4.109l.073-10.218c0-.164-.018-.4-.073-.709l-.073-.691c.291-.218.527-.327.727-.327.218 0 .436.091.636.236.218.145.327.327.327.545 0 .145-.036.345-.109.582l-.164.582c-.182 1.018-.273 2.473-.273 4.309l-.018 4.327c.036 1.854.164 3.254.364 4.2 0 .036.018.145.091.309s.109.273.109.364z"/><path id="Q" d="M1135.132 572.689c0 .509-.236.764-.727.764-.291 0-.545-.109-.8-.309-.236-.218-.364-.455-.364-.727 0-.527.255-.782.782-.782a1.22 1.22 0 0 1 .782.291.99.99 0 0 1 .327.764zm-.436 3.4c0 .273-.055.691-.182 1.236l-.182 1.218v5.018c0 .345.073.8.218 1.364-.073.127-.145.2-.255.2-.745 0-1.109-.364-1.109-1.073v-8.345c.182-.109.382-.164.564-.164s.364.055.564.164c.255.109.382.236.382.382z"/></defs></svg>