<?xml version="1.0" encoding="UTF-8" standalone="no"?>
<!DOCTYPE svg PUBLIC "-//W3C//DTD SVG 1.1//EN" "http://www.w3.org/Graphics/SVG/1.1/DTD/svg11.dtd">
<svg width="750px" height="590px" version="1.1" xmlns="http://www.w3.org/2000/svg" xmlns:xlink="http://www.w3.org/1999/xlink" xml:space="preserve" xmlns:serif="http://www.serif.com/" style="fill-rule:evenodd;clip-rule:evenodd;stroke-linecap:round;stroke-linejoin:round;stroke-miterlimit:1.5;">
    <g transform="matrix(1,0,0,1,0,-880)">
        <g id="obeys-owner2-light" transform="matrix(0.390625,0,0,0.546296,0,880)">
            <rect x="0" y="0" width="1920" height="1080" style="fill:none;"/>
            <g transform="matrix(-2.56,0,0,1.83051,1159.68,-104.339)">
                <path d="M120,124L402,124L402,607" style="fill:none;stroke:rgb(186,186,186);stroke-width:4px;"/>
            </g>
            <g transform="matrix(2.08689,0,0,1.49222,-1129.95,-559.018)">
                <g transform="matrix(32.1091,0,0,32.1091,601,440)">
                    <path d="M0.361,-0.11C0.381,-0.11 0.401,-0.114 0.421,-0.122C0.44,-0.13 0.461,-0.142 0.482,-0.157L0.554,-0.054C0.529,-0.032 0.499,-0.015 0.464,-0.002C0.43,0.011 0.392,0.017 0.352,0.017C0.294,0.017 0.244,0.005 0.202,-0.018C0.159,-0.042 0.127,-0.076 0.104,-0.119C0.082,-0.162 0.07,-0.212 0.07,-0.269C0.07,-0.325 0.082,-0.376 0.105,-0.421C0.128,-0.465 0.161,-0.5 0.204,-0.525C0.247,-0.55 0.297,-0.563 0.355,-0.563C0.396,-0.563 0.432,-0.557 0.464,-0.546C0.497,-0.534 0.527,-0.517 0.554,-0.494L0.484,-0.397C0.445,-0.424 0.404,-0.438 0.362,-0.438C0.323,-0.438 0.293,-0.424 0.272,-0.397C0.25,-0.37 0.239,-0.328 0.239,-0.269C0.239,-0.212 0.25,-0.171 0.272,-0.147C0.293,-0.122 0.323,-0.11 0.361,-0.11Z" style="fill-rule:nonzero;"/>
                </g>
                <g transform="matrix(32.1091,0,0,32.1091,620.759,440)">
                    <path d="M0.356,-0.171C0.356,-0.15 0.362,-0.135 0.374,-0.125C0.386,-0.115 0.404,-0.11 0.426,-0.11C0.451,-0.11 0.476,-0.116 0.503,-0.127L0.542,-0.018C0.497,0.005 0.444,0.017 0.385,0.017C0.321,0.017 0.273,-0.001 0.241,-0.038C0.21,-0.074 0.194,-0.126 0.194,-0.191L0.194,-0.65L0.033,-0.65L0.033,-0.761L0.356,-0.761L0.356,-0.171Z" style="fill-rule:nonzero;"/>
                </g>
                <g transform="matrix(32.1091,0,0,32.1091,640.519,440)">
                    <path d="M0.53,-0.157C0.53,-0.137 0.533,-0.122 0.538,-0.113C0.544,-0.103 0.553,-0.096 0.566,-0.091L0.533,0.015C0.5,0.012 0.472,0.005 0.451,-0.006C0.429,-0.018 0.412,-0.035 0.399,-0.056C0.379,-0.032 0.353,-0.014 0.321,-0.001C0.289,0.011 0.256,0.017 0.22,0.017C0.183,0.017 0.151,0.01 0.123,-0.004C0.095,-0.019 0.074,-0.039 0.058,-0.065C0.043,-0.091 0.036,-0.12 0.036,-0.154C0.036,-0.193 0.046,-0.226 0.067,-0.254C0.088,-0.282 0.118,-0.303 0.158,-0.317C0.198,-0.332 0.245,-0.339 0.301,-0.339L0.374,-0.339L0.374,-0.359C0.374,-0.415 0.338,-0.443 0.267,-0.443C0.249,-0.443 0.226,-0.441 0.198,-0.435C0.171,-0.43 0.144,-0.423 0.117,-0.414L0.08,-0.522C0.114,-0.535 0.15,-0.545 0.188,-0.552C0.226,-0.559 0.261,-0.563 0.292,-0.563C0.372,-0.563 0.432,-0.546 0.471,-0.514C0.511,-0.481 0.53,-0.434 0.53,-0.37L0.53,-0.157ZM0.276,-0.098C0.294,-0.098 0.313,-0.104 0.332,-0.115C0.351,-0.125 0.365,-0.14 0.374,-0.158L0.374,-0.247L0.334,-0.247C0.29,-0.247 0.257,-0.24 0.235,-0.226C0.214,-0.212 0.203,-0.192 0.203,-0.165C0.203,-0.144 0.209,-0.128 0.222,-0.116C0.235,-0.104 0.253,-0.098 0.276,-0.098Z" style="fill-rule:nonzero;"/>
                </g>
                <g transform="matrix(32.1091,0,0,32.1091,660.278,440)">
                    <path d="M0.29,-0.098C0.318,-0.098 0.34,-0.103 0.356,-0.112C0.372,-0.12 0.381,-0.133 0.381,-0.15C0.381,-0.162 0.377,-0.172 0.371,-0.179C0.364,-0.187 0.352,-0.194 0.334,-0.201C0.317,-0.208 0.289,-0.217 0.251,-0.227C0.197,-0.242 0.155,-0.262 0.126,-0.288C0.097,-0.313 0.083,-0.349 0.083,-0.394C0.083,-0.427 0.092,-0.456 0.11,-0.482C0.128,-0.507 0.155,-0.527 0.191,-0.541C0.226,-0.555 0.269,-0.563 0.319,-0.563C0.405,-0.563 0.479,-0.541 0.539,-0.496L0.475,-0.401C0.451,-0.415 0.427,-0.427 0.401,-0.435C0.375,-0.443 0.349,-0.447 0.324,-0.447C0.297,-0.447 0.278,-0.444 0.265,-0.437C0.252,-0.43 0.246,-0.419 0.246,-0.405C0.246,-0.396 0.249,-0.388 0.256,-0.381C0.262,-0.375 0.274,-0.368 0.292,-0.361C0.31,-0.354 0.337,-0.345 0.374,-0.335C0.414,-0.324 0.446,-0.312 0.47,-0.299C0.495,-0.286 0.514,-0.268 0.528,-0.246C0.542,-0.225 0.549,-0.197 0.549,-0.163C0.549,-0.124 0.537,-0.092 0.514,-0.064C0.491,-0.037 0.46,-0.017 0.421,-0.003C0.382,0.011 0.339,0.017 0.291,0.017C0.24,0.017 0.195,0.01 0.154,-0.004C0.113,-0.019 0.078,-0.039 0.049,-0.065L0.13,-0.156C0.153,-0.138 0.178,-0.124 0.205,-0.114C0.232,-0.104 0.26,-0.098 0.29,-0.098Z" style="fill-rule:nonzero;"/>
                </g>
                <g transform="matrix(32.1091,0,0,32.1091,680.038,440)">
                    <path d="M0.29,-0.098C0.318,-0.098 0.34,-0.103 0.356,-0.112C0.372,-0.12 0.381,-0.133 0.381,-0.15C0.381,-0.162 0.377,-0.172 0.371,-0.179C0.364,-0.187 0.352,-0.194 0.334,-0.201C0.317,-0.208 0.289,-0.217 0.251,-0.227C0.197,-0.242 0.155,-0.262 0.126,-0.288C0.097,-0.313 0.083,-0.349 0.083,-0.394C0.083,-0.427 0.092,-0.456 0.11,-0.482C0.128,-0.507 0.155,-0.527 0.191,-0.541C0.226,-0.555 0.269,-0.563 0.319,-0.563C0.405,-0.563 0.479,-0.541 0.539,-0.496L0.475,-0.401C0.451,-0.415 0.427,-0.427 0.401,-0.435C0.375,-0.443 0.349,-0.447 0.324,-0.447C0.297,-0.447 0.278,-0.444 0.265,-0.437C0.252,-0.43 0.246,-0.419 0.246,-0.405C0.246,-0.396 0.249,-0.388 0.256,-0.381C0.262,-0.375 0.274,-0.368 0.292,-0.361C0.31,-0.354 0.337,-0.345 0.374,-0.335C0.414,-0.324 0.446,-0.312 0.47,-0.299C0.495,-0.286 0.514,-0.268 0.528,-0.246C0.542,-0.225 0.549,-0.197 0.549,-0.163C0.549,-0.124 0.537,-0.092 0.514,-0.064C0.491,-0.037 0.46,-0.017 0.421,-0.003C0.382,0.011 0.339,0.017 0.291,0.017C0.24,0.017 0.195,0.01 0.154,-0.004C0.113,-0.019 0.078,-0.039 0.049,-0.065L0.13,-0.156C0.153,-0.138 0.178,-0.124 0.205,-0.114C0.232,-0.104 0.26,-0.098 0.29,-0.098Z" style="fill-rule:nonzero;"/>
                </g>
                <g transform="matrix(32.1091,0,0,32.1091,719.557,440)">
                    <path d="M0.589,-0.359C0.589,-0.226 0.558,-0.133 0.494,-0.08C0.431,-0.027 0.348,-0 0.245,-0L0.053,-0L0.053,-0.711L0.233,-0.711C0.302,-0.711 0.362,-0.701 0.414,-0.682C0.466,-0.662 0.508,-0.627 0.541,-0.575C0.573,-0.523 0.589,-0.451 0.589,-0.359ZM0.415,-0.359C0.415,-0.42 0.408,-0.467 0.395,-0.501C0.382,-0.534 0.364,-0.558 0.341,-0.57C0.318,-0.582 0.29,-0.589 0.257,-0.589L0.222,-0.589L0.222,-0.122L0.257,-0.122C0.291,-0.122 0.319,-0.129 0.342,-0.143C0.365,-0.157 0.383,-0.182 0.396,-0.216C0.408,-0.251 0.415,-0.299 0.415,-0.359Z" style="fill-rule:nonzero;"/>
                </g>
                <g transform="matrix(32.1091,0,0,32.1091,739.316,440)">
                    <path d="M0.488,-0.561C0.52,-0.561 0.55,-0.556 0.577,-0.545L0.547,-0.317L0.446,-0.317L0.446,-0.417C0.416,-0.412 0.389,-0.396 0.366,-0.368C0.342,-0.341 0.324,-0.306 0.311,-0.265L0.311,-0.109L0.418,-0.109L0.418,-0L0.077,-0L0.077,-0.109L0.149,-0.109L0.149,-0.437L0.077,-0.437L0.077,-0.545L0.272,-0.545L0.302,-0.422C0.322,-0.469 0.346,-0.504 0.377,-0.527C0.407,-0.55 0.444,-0.561 0.488,-0.561Z" style="fill-rule:nonzero;"/>
                </g>
                <g transform="matrix(32.1091,0,0,32.1091,759.075,440)">
                    <path d="M0.308,-0.563C0.363,-0.563 0.41,-0.551 0.45,-0.527C0.49,-0.503 0.52,-0.47 0.541,-0.426C0.562,-0.383 0.572,-0.332 0.572,-0.274C0.572,-0.213 0.562,-0.161 0.541,-0.118C0.52,-0.074 0.489,-0.041 0.45,-0.017C0.41,0.006 0.363,0.017 0.308,0.017C0.252,0.017 0.205,0.006 0.165,-0.017C0.125,-0.04 0.095,-0.073 0.074,-0.117C0.054,-0.16 0.043,-0.212 0.043,-0.273C0.043,-0.331 0.054,-0.381 0.075,-0.425C0.096,-0.468 0.126,-0.502 0.166,-0.526C0.206,-0.551 0.253,-0.563 0.308,-0.563ZM0.308,-0.443C0.275,-0.443 0.25,-0.429 0.234,-0.402C0.218,-0.375 0.21,-0.332 0.21,-0.273C0.21,-0.213 0.218,-0.169 0.234,-0.142C0.25,-0.115 0.274,-0.102 0.308,-0.102C0.341,-0.102 0.366,-0.115 0.382,-0.143C0.397,-0.17 0.405,-0.214 0.405,-0.274C0.405,-0.332 0.397,-0.375 0.381,-0.402C0.365,-0.429 0.341,-0.443 0.308,-0.443Z" style="fill-rule:nonzero;"/>
                </g>
                <g transform="matrix(32.1091,0,0,32.1091,778.835,440)">
                    <path d="M0.307,-0.83C0.325,-0.83 0.342,-0.826 0.356,-0.818C0.37,-0.81 0.382,-0.799 0.39,-0.785C0.398,-0.771 0.402,-0.756 0.402,-0.738C0.402,-0.721 0.398,-0.706 0.39,-0.692C0.382,-0.678 0.37,-0.667 0.356,-0.659C0.341,-0.651 0.325,-0.647 0.307,-0.647C0.288,-0.647 0.272,-0.651 0.257,-0.659C0.242,-0.667 0.231,-0.678 0.223,-0.692C0.214,-0.706 0.21,-0.721 0.21,-0.738C0.21,-0.756 0.214,-0.771 0.223,-0.785C0.231,-0.799 0.242,-0.81 0.257,-0.818C0.272,-0.826 0.288,-0.83 0.307,-0.83ZM0.093,-0.545L0.405,-0.545L0.405,-0.111L0.543,-0.111L0.543,-0L0.088,-0L0.088,-0.111L0.243,-0.111L0.243,-0.434L0.093,-0.434L0.093,-0.545Z" style="fill-rule:nonzero;"/>
                </g>
                <g transform="matrix(32.1091,0,0,32.1091,798.594,440)">
                    <path d="M0.382,-0.778L0.544,-0.761L0.544,-0L0.4,-0L0.392,-0.06C0.375,-0.037 0.355,-0.018 0.329,-0.004C0.304,0.01 0.275,0.017 0.241,0.017C0.197,0.017 0.16,0.006 0.13,-0.018C0.1,-0.042 0.078,-0.076 0.063,-0.119C0.048,-0.163 0.041,-0.214 0.041,-0.274C0.041,-0.33 0.05,-0.379 0.067,-0.423C0.085,-0.467 0.11,-0.501 0.143,-0.526C0.175,-0.55 0.214,-0.563 0.258,-0.563C0.307,-0.563 0.348,-0.546 0.382,-0.512L0.382,-0.778ZM0.302,-0.444C0.272,-0.444 0.249,-0.43 0.233,-0.403C0.216,-0.375 0.208,-0.332 0.208,-0.273C0.208,-0.21 0.215,-0.165 0.23,-0.14C0.245,-0.114 0.265,-0.102 0.292,-0.102C0.326,-0.102 0.356,-0.123 0.382,-0.165L0.382,-0.399C0.37,-0.414 0.357,-0.425 0.345,-0.433C0.332,-0.44 0.318,-0.444 0.302,-0.444Z" style="fill-rule:nonzero;"/>
                </g>
            </g>
            <g transform="matrix(2.08689,0,0,1.49222,-1076.86,-476.645)">
                <g transform="matrix(24.5341,0,0,24.5341,601,440)">
                    <path d="M0.309,-0.551C0.359,-0.551 0.401,-0.54 0.435,-0.517C0.47,-0.494 0.496,-0.462 0.514,-0.42C0.531,-0.378 0.54,-0.328 0.54,-0.27C0.54,-0.215 0.531,-0.165 0.513,-0.123C0.495,-0.081 0.469,-0.048 0.434,-0.024C0.399,-0 0.357,0.012 0.308,0.012C0.258,0.012 0.215,0 0.181,-0.023C0.146,-0.046 0.12,-0.078 0.102,-0.121C0.084,-0.163 0.075,-0.212 0.075,-0.269C0.075,-0.325 0.084,-0.375 0.102,-0.417C0.12,-0.459 0.147,-0.492 0.182,-0.516C0.217,-0.539 0.259,-0.551 0.309,-0.551ZM0.309,-0.481C0.262,-0.481 0.227,-0.464 0.203,-0.429C0.179,-0.394 0.168,-0.341 0.168,-0.269C0.168,-0.198 0.179,-0.146 0.203,-0.111C0.226,-0.076 0.261,-0.059 0.308,-0.059C0.355,-0.059 0.39,-0.076 0.413,-0.111C0.436,-0.146 0.448,-0.199 0.448,-0.27C0.448,-0.341 0.436,-0.394 0.413,-0.429C0.39,-0.464 0.355,-0.481 0.309,-0.481Z" style="fill:rgb(77,77,77);fill-rule:nonzero;"/>
                </g>
                <g transform="matrix(24.5341,0,0,24.5341,616.098,440)">
                    <path d="M0.189,-0.47C0.209,-0.496 0.232,-0.516 0.258,-0.53C0.284,-0.544 0.313,-0.551 0.343,-0.551C0.413,-0.551 0.464,-0.527 0.497,-0.477C0.529,-0.428 0.546,-0.359 0.546,-0.27C0.546,-0.215 0.537,-0.166 0.521,-0.124C0.505,-0.081 0.48,-0.048 0.448,-0.024C0.416,-0 0.377,0.012 0.332,0.012C0.3,0.012 0.272,0.006 0.248,-0.005C0.224,-0.016 0.203,-0.033 0.185,-0.056L0.178,-0L0.103,-0L0.103,-0.757L0.189,-0.768L0.189,-0.47ZM0.311,-0.058C0.357,-0.058 0.392,-0.076 0.416,-0.111C0.44,-0.146 0.452,-0.2 0.452,-0.271C0.452,-0.341 0.441,-0.394 0.419,-0.429C0.398,-0.464 0.366,-0.482 0.325,-0.482C0.297,-0.482 0.272,-0.474 0.249,-0.457C0.226,-0.441 0.206,-0.42 0.189,-0.395L0.189,-0.128C0.204,-0.106 0.221,-0.089 0.243,-0.076C0.264,-0.064 0.287,-0.058 0.311,-0.058Z" style="fill:rgb(77,77,77);fill-rule:nonzero;"/>
                </g>
                <g transform="matrix(24.5341,0,0,24.5341,631.196,440)">
                    <path d="M0.171,-0.239C0.172,-0.199 0.18,-0.166 0.194,-0.139C0.209,-0.112 0.228,-0.092 0.251,-0.079C0.274,-0.066 0.3,-0.06 0.329,-0.06C0.355,-0.06 0.38,-0.064 0.402,-0.072C0.425,-0.08 0.448,-0.092 0.473,-0.109L0.513,-0.052C0.488,-0.032 0.459,-0.016 0.426,-0.005C0.394,0.006 0.361,0.012 0.328,0.012C0.276,0.012 0.232,0 0.194,-0.023C0.157,-0.046 0.129,-0.079 0.109,-0.122C0.09,-0.164 0.081,-0.213 0.081,-0.269C0.081,-0.324 0.09,-0.372 0.11,-0.415C0.129,-0.458 0.157,-0.491 0.192,-0.515C0.228,-0.539 0.269,-0.551 0.316,-0.551C0.362,-0.551 0.401,-0.541 0.434,-0.519C0.467,-0.498 0.492,-0.468 0.509,-0.428C0.527,-0.388 0.536,-0.341 0.536,-0.287C0.536,-0.271 0.535,-0.255 0.534,-0.239L0.171,-0.239ZM0.317,-0.481C0.276,-0.481 0.242,-0.466 0.216,-0.437C0.189,-0.407 0.175,-0.364 0.171,-0.306L0.453,-0.306C0.452,-0.363 0.439,-0.406 0.415,-0.436C0.391,-0.466 0.359,-0.481 0.317,-0.481Z" style="fill:rgb(77,77,77);fill-rule:nonzero;"/>
                </g>
                <g transform="matrix(24.5341,0,0,24.5341,646.294,440)">
                    <path d="M0.363,0.004C0.349,0.044 0.332,0.079 0.313,0.108C0.293,0.138 0.268,0.162 0.237,0.181C0.205,0.201 0.167,0.212 0.122,0.217L0.108,0.148C0.144,0.142 0.173,0.133 0.195,0.121C0.217,0.108 0.234,0.093 0.246,0.074C0.258,0.055 0.27,0.03 0.281,-0L0.252,-0L0.063,-0.54L0.155,-0.54L0.31,-0.066L0.463,-0.54L0.552,-0.54L0.363,0.004Z" style="fill:rgb(77,77,77);fill-rule:nonzero;"/>
                </g>
                <g transform="matrix(24.5341,0,0,24.5341,661.392,440)">
                    <path d="M0.287,-0.059C0.328,-0.059 0.361,-0.067 0.385,-0.083C0.409,-0.098 0.421,-0.119 0.421,-0.145C0.421,-0.163 0.418,-0.178 0.412,-0.189C0.405,-0.2 0.393,-0.211 0.374,-0.221C0.355,-0.23 0.328,-0.239 0.29,-0.249C0.249,-0.259 0.215,-0.27 0.189,-0.282C0.163,-0.294 0.142,-0.31 0.128,-0.33C0.113,-0.349 0.106,-0.374 0.106,-0.404C0.106,-0.434 0.115,-0.46 0.132,-0.482C0.149,-0.504 0.173,-0.521 0.204,-0.533C0.235,-0.545 0.271,-0.551 0.311,-0.551C0.352,-0.551 0.389,-0.546 0.421,-0.535C0.454,-0.524 0.483,-0.51 0.507,-0.492L0.469,-0.433C0.447,-0.449 0.423,-0.461 0.398,-0.469C0.373,-0.477 0.345,-0.482 0.312,-0.482C0.272,-0.482 0.242,-0.475 0.223,-0.463C0.205,-0.45 0.195,-0.433 0.195,-0.411C0.195,-0.395 0.2,-0.382 0.208,-0.371C0.217,-0.361 0.231,-0.352 0.251,-0.344C0.271,-0.336 0.3,-0.326 0.339,-0.316C0.378,-0.305 0.41,-0.294 0.435,-0.281C0.46,-0.268 0.479,-0.251 0.493,-0.229C0.507,-0.208 0.514,-0.182 0.514,-0.149C0.514,-0.113 0.504,-0.082 0.483,-0.058C0.461,-0.034 0.434,-0.016 0.399,-0.005C0.365,0.006 0.327,0.012 0.287,0.012C0.202,0.012 0.131,-0.012 0.075,-0.061L0.125,-0.118C0.146,-0.099 0.171,-0.085 0.199,-0.075C0.227,-0.065 0.256,-0.059 0.287,-0.059Z" style="fill:rgb(77,77,77);fill-rule:nonzero;"/>
                </g>
                <g transform="matrix(24.5341,0,0,24.5341,676.489,440)">
                    <rect x="0.051" y="0.111" width="0.513" height="0.075" style="fill:rgb(77,77,77);fill-rule:nonzero;"/>
                </g>
                <g transform="matrix(24.5341,0,0,24.5341,691.587,440)">
                    <path d="M0.309,-0.551C0.359,-0.551 0.401,-0.54 0.435,-0.517C0.47,-0.494 0.496,-0.462 0.514,-0.42C0.531,-0.378 0.54,-0.328 0.54,-0.27C0.54,-0.215 0.531,-0.165 0.513,-0.123C0.495,-0.081 0.469,-0.048 0.434,-0.024C0.399,-0 0.357,0.012 0.308,0.012C0.258,0.012 0.215,0 0.181,-0.023C0.146,-0.046 0.12,-0.078 0.102,-0.121C0.084,-0.163 0.075,-0.212 0.075,-0.269C0.075,-0.325 0.084,-0.375 0.102,-0.417C0.12,-0.459 0.147,-0.492 0.182,-0.516C0.217,-0.539 0.259,-0.551 0.309,-0.551ZM0.309,-0.481C0.262,-0.481 0.227,-0.464 0.203,-0.429C0.179,-0.394 0.168,-0.341 0.168,-0.269C0.168,-0.198 0.179,-0.146 0.203,-0.111C0.226,-0.076 0.261,-0.059 0.308,-0.059C0.355,-0.059 0.39,-0.076 0.413,-0.111C0.436,-0.146 0.448,-0.199 0.448,-0.27C0.448,-0.341 0.436,-0.394 0.413,-0.429C0.39,-0.464 0.355,-0.481 0.309,-0.481Z" style="fill:rgb(77,77,77);fill-rule:nonzero;"/>
                </g>
                <g transform="matrix(24.5341,0,0,24.5341,706.685,440)">
                    <path d="M0.597,-0.54L0.503,-0L0.381,-0L0.311,-0.396L0.235,-0L0.116,-0L0.018,-0.54L0.106,-0.54L0.175,-0.053L0.261,-0.471L0.363,-0.471L0.445,-0.053L0.513,-0.54L0.597,-0.54Z" style="fill:rgb(77,77,77);fill-rule:nonzero;"/>
                </g>
                <g transform="matrix(24.5341,0,0,24.5341,721.783,440)">
                    <path d="M0.103,-0L0.103,-0.54L0.176,-0.54L0.183,-0.465C0.205,-0.492 0.232,-0.513 0.264,-0.528C0.297,-0.544 0.329,-0.551 0.362,-0.551C0.413,-0.551 0.451,-0.538 0.476,-0.51C0.501,-0.483 0.513,-0.444 0.513,-0.392L0.513,-0L0.427,-0L0.427,-0.329C0.427,-0.369 0.425,-0.4 0.421,-0.421C0.416,-0.442 0.408,-0.458 0.395,-0.468C0.381,-0.478 0.362,-0.484 0.335,-0.484C0.306,-0.484 0.278,-0.475 0.253,-0.457C0.227,-0.439 0.206,-0.418 0.189,-0.393L0.189,-0L0.103,-0Z" style="fill:rgb(77,77,77);fill-rule:nonzero;"/>
                </g>
                <g transform="matrix(24.5341,0,0,24.5341,736.881,440)">
                    <path d="M0.171,-0.239C0.172,-0.199 0.18,-0.166 0.194,-0.139C0.209,-0.112 0.228,-0.092 0.251,-0.079C0.274,-0.066 0.3,-0.06 0.329,-0.06C0.355,-0.06 0.38,-0.064 0.402,-0.072C0.425,-0.08 0.448,-0.092 0.473,-0.109L0.513,-0.052C0.488,-0.032 0.459,-0.016 0.426,-0.005C0.394,0.006 0.361,0.012 0.328,0.012C0.276,0.012 0.232,0 0.194,-0.023C0.157,-0.046 0.129,-0.079 0.109,-0.122C0.09,-0.164 0.081,-0.213 0.081,-0.269C0.081,-0.324 0.09,-0.372 0.11,-0.415C0.129,-0.458 0.157,-0.491 0.192,-0.515C0.228,-0.539 0.269,-0.551 0.316,-0.551C0.362,-0.551 0.401,-0.541 0.434,-0.519C0.467,-0.498 0.492,-0.468 0.509,-0.428C0.527,-0.388 0.536,-0.341 0.536,-0.287C0.536,-0.271 0.535,-0.255 0.534,-0.239L0.171,-0.239ZM0.317,-0.481C0.276,-0.481 0.242,-0.466 0.216,-0.437C0.189,-0.407 0.175,-0.364 0.171,-0.306L0.453,-0.306C0.452,-0.363 0.439,-0.406 0.415,-0.436C0.391,-0.466 0.359,-0.481 0.317,-0.481Z" style="fill:rgb(77,77,77);fill-rule:nonzero;"/>
                </g>
                <g transform="matrix(24.5341,0,0,24.5341,751.979,440)">
                    <path d="M0.468,-0.552C0.482,-0.552 0.495,-0.551 0.506,-0.549C0.518,-0.547 0.53,-0.544 0.544,-0.54L0.532,-0.357L0.461,-0.357L0.461,-0.472L0.456,-0.472C0.415,-0.472 0.379,-0.458 0.35,-0.428C0.32,-0.399 0.297,-0.354 0.278,-0.295L0.278,-0.066L0.388,-0.066L0.388,-0L0.108,-0L0.108,-0.066L0.192,-0.066L0.192,-0.474L0.108,-0.474L0.108,-0.54L0.258,-0.54L0.274,-0.412C0.296,-0.459 0.322,-0.494 0.352,-0.517C0.382,-0.54 0.421,-0.552 0.468,-0.552Z" style="fill:rgb(77,77,77);fill-rule:nonzero;"/>
                </g>
            </g>
            <g transform="matrix(2.08689,0,0,1.49222,-939.706,-157.475)">
                <g transform="matrix(24.5341,0,0,24.5341,601,440)">
                    <path d="M0.309,-0.551C0.359,-0.551 0.401,-0.54 0.435,-0.517C0.47,-0.494 0.496,-0.462 0.514,-0.42C0.531,-0.378 0.54,-0.328 0.54,-0.27C0.54,-0.215 0.531,-0.165 0.513,-0.123C0.495,-0.081 0.469,-0.048 0.434,-0.024C0.399,-0 0.357,0.012 0.308,0.012C0.258,0.012 0.215,0 0.181,-0.023C0.146,-0.046 0.12,-0.078 0.102,-0.121C0.084,-0.163 0.075,-0.212 0.075,-0.269C0.075,-0.325 0.084,-0.375 0.102,-0.417C0.12,-0.459 0.147,-0.492 0.182,-0.516C0.217,-0.539 0.259,-0.551 0.309,-0.551ZM0.309,-0.481C0.262,-0.481 0.227,-0.464 0.203,-0.429C0.179,-0.394 0.168,-0.341 0.168,-0.269C0.168,-0.198 0.179,-0.146 0.203,-0.111C0.226,-0.076 0.261,-0.059 0.308,-0.059C0.355,-0.059 0.39,-0.076 0.413,-0.111C0.436,-0.146 0.448,-0.199 0.448,-0.27C0.448,-0.341 0.436,-0.394 0.413,-0.429C0.39,-0.464 0.355,-0.481 0.309,-0.481Z" style="fill:rgb(77,77,77);fill-rule:nonzero;"/>
                </g>
                <g transform="matrix(24.5341,0,0,24.5341,616.098,440)">
                    <path d="M0.189,-0.47C0.209,-0.496 0.232,-0.516 0.258,-0.53C0.284,-0.544 0.313,-0.551 0.343,-0.551C0.413,-0.551 0.464,-0.527 0.497,-0.477C0.529,-0.428 0.546,-0.359 0.546,-0.27C0.546,-0.215 0.537,-0.166 0.521,-0.124C0.505,-0.081 0.48,-0.048 0.448,-0.024C0.416,-0 0.377,0.012 0.332,0.012C0.3,0.012 0.272,0.006 0.248,-0.005C0.224,-0.016 0.203,-0.033 0.185,-0.056L0.178,-0L0.103,-0L0.103,-0.757L0.189,-0.768L0.189,-0.47ZM0.311,-0.058C0.357,-0.058 0.392,-0.076 0.416,-0.111C0.44,-0.146 0.452,-0.2 0.452,-0.271C0.452,-0.341 0.441,-0.394 0.419,-0.429C0.398,-0.464 0.366,-0.482 0.325,-0.482C0.297,-0.482 0.272,-0.474 0.249,-0.457C0.226,-0.441 0.206,-0.42 0.189,-0.395L0.189,-0.128C0.204,-0.106 0.221,-0.089 0.243,-0.076C0.264,-0.064 0.287,-0.058 0.311,-0.058Z" style="fill:rgb(77,77,77);fill-rule:nonzero;"/>
                </g>
                <g transform="matrix(24.5341,0,0,24.5341,631.196,440)">
                    <path d="M0.171,-0.239C0.172,-0.199 0.18,-0.166 0.194,-0.139C0.209,-0.112 0.228,-0.092 0.251,-0.079C0.274,-0.066 0.3,-0.06 0.329,-0.06C0.355,-0.06 0.38,-0.064 0.402,-0.072C0.425,-0.08 0.448,-0.092 0.473,-0.109L0.513,-0.052C0.488,-0.032 0.459,-0.016 0.426,-0.005C0.394,0.006 0.361,0.012 0.328,0.012C0.276,0.012 0.232,0 0.194,-0.023C0.157,-0.046 0.129,-0.079 0.109,-0.122C0.09,-0.164 0.081,-0.213 0.081,-0.269C0.081,-0.324 0.09,-0.372 0.11,-0.415C0.129,-0.458 0.157,-0.491 0.192,-0.515C0.228,-0.539 0.269,-0.551 0.316,-0.551C0.362,-0.551 0.401,-0.541 0.434,-0.519C0.467,-0.498 0.492,-0.468 0.509,-0.428C0.527,-0.388 0.536,-0.341 0.536,-0.287C0.536,-0.271 0.535,-0.255 0.534,-0.239L0.171,-0.239ZM0.317,-0.481C0.276,-0.481 0.242,-0.466 0.216,-0.437C0.189,-0.407 0.175,-0.364 0.171,-0.306L0.453,-0.306C0.452,-0.363 0.439,-0.406 0.415,-0.436C0.391,-0.466 0.359,-0.481 0.317,-0.481Z" style="fill:rgb(77,77,77);fill-rule:nonzero;"/>
                </g>
                <g transform="matrix(24.5341,0,0,24.5341,646.294,440)">
                    <path d="M0.363,0.004C0.349,0.044 0.332,0.079 0.313,0.108C0.293,0.138 0.268,0.162 0.237,0.181C0.205,0.201 0.167,0.212 0.122,0.217L0.108,0.148C0.144,0.142 0.173,0.133 0.195,0.121C0.217,0.108 0.234,0.093 0.246,0.074C0.258,0.055 0.27,0.03 0.281,-0L0.252,-0L0.063,-0.54L0.155,-0.54L0.31,-0.066L0.463,-0.54L0.552,-0.54L0.363,0.004Z" style="fill:rgb(77,77,77);fill-rule:nonzero;"/>
                </g>
                <g transform="matrix(24.5341,0,0,24.5341,661.392,440)">
                    <path d="M0.287,-0.059C0.328,-0.059 0.361,-0.067 0.385,-0.083C0.409,-0.098 0.421,-0.119 0.421,-0.145C0.421,-0.163 0.418,-0.178 0.412,-0.189C0.405,-0.2 0.393,-0.211 0.374,-0.221C0.355,-0.23 0.328,-0.239 0.29,-0.249C0.249,-0.259 0.215,-0.27 0.189,-0.282C0.163,-0.294 0.142,-0.31 0.128,-0.33C0.113,-0.349 0.106,-0.374 0.106,-0.404C0.106,-0.434 0.115,-0.46 0.132,-0.482C0.149,-0.504 0.173,-0.521 0.204,-0.533C0.235,-0.545 0.271,-0.551 0.311,-0.551C0.352,-0.551 0.389,-0.546 0.421,-0.535C0.454,-0.524 0.483,-0.51 0.507,-0.492L0.469,-0.433C0.447,-0.449 0.423,-0.461 0.398,-0.469C0.373,-0.477 0.345,-0.482 0.312,-0.482C0.272,-0.482 0.242,-0.475 0.223,-0.463C0.205,-0.45 0.195,-0.433 0.195,-0.411C0.195,-0.395 0.2,-0.382 0.208,-0.371C0.217,-0.361 0.231,-0.352 0.251,-0.344C0.271,-0.336 0.3,-0.326 0.339,-0.316C0.378,-0.305 0.41,-0.294 0.435,-0.281C0.46,-0.268 0.479,-0.251 0.493,-0.229C0.507,-0.208 0.514,-0.182 0.514,-0.149C0.514,-0.113 0.504,-0.082 0.483,-0.058C0.461,-0.034 0.434,-0.016 0.399,-0.005C0.365,0.006 0.327,0.012 0.287,0.012C0.202,0.012 0.131,-0.012 0.075,-0.061L0.125,-0.118C0.146,-0.099 0.171,-0.085 0.199,-0.075C0.227,-0.065 0.256,-0.059 0.287,-0.059Z" style="fill:rgb(77,77,77);fill-rule:nonzero;"/>
                </g>
                <g transform="matrix(24.5341,0,0,24.5341,676.489,440)">
                    <rect x="0.051" y="0.111" width="0.513" height="0.075" style="fill:rgb(77,77,77);fill-rule:nonzero;"/>
                </g>
                <g transform="matrix(24.5341,0,0,24.5341,691.587,440)">
                    <path d="M0.309,-0.551C0.359,-0.551 0.401,-0.54 0.435,-0.517C0.47,-0.494 0.496,-0.462 0.514,-0.42C0.531,-0.378 0.54,-0.328 0.54,-0.27C0.54,-0.215 0.531,-0.165 0.513,-0.123C0.495,-0.081 0.469,-0.048 0.434,-0.024C0.399,-0 0.357,0.012 0.308,0.012C0.258,0.012 0.215,0 0.181,-0.023C0.146,-0.046 0.12,-0.078 0.102,-0.121C0.084,-0.163 0.075,-0.212 0.075,-0.269C0.075,-0.325 0.084,-0.375 0.102,-0.417C0.12,-0.459 0.147,-0.492 0.182,-0.516C0.217,-0.539 0.259,-0.551 0.309,-0.551ZM0.309,-0.481C0.262,-0.481 0.227,-0.464 0.203,-0.429C0.179,-0.394 0.168,-0.341 0.168,-0.269C0.168,-0.198 0.179,-0.146 0.203,-0.111C0.226,-0.076 0.261,-0.059 0.308,-0.059C0.355,-0.059 0.39,-0.076 0.413,-0.111C0.436,-0.146 0.448,-0.199 0.448,-0.27C0.448,-0.341 0.436,-0.394 0.413,-0.429C0.39,-0.464 0.355,-0.481 0.309,-0.481Z" style="fill:rgb(77,77,77);fill-rule:nonzero;"/>
                </g>
                <g transform="matrix(24.5341,0,0,24.5341,706.685,440)">
                    <path d="M0.597,-0.54L0.503,-0L0.381,-0L0.311,-0.396L0.235,-0L0.116,-0L0.018,-0.54L0.106,-0.54L0.175,-0.053L0.261,-0.471L0.363,-0.471L0.445,-0.053L0.513,-0.54L0.597,-0.54Z" style="fill:rgb(77,77,77);fill-rule:nonzero;"/>
                </g>
                <g transform="matrix(24.5341,0,0,24.5341,721.783,440)">
                    <path d="M0.103,-0L0.103,-0.54L0.176,-0.54L0.183,-0.465C0.205,-0.492 0.232,-0.513 0.264,-0.528C0.297,-0.544 0.329,-0.551 0.362,-0.551C0.413,-0.551 0.451,-0.538 0.476,-0.51C0.501,-0.483 0.513,-0.444 0.513,-0.392L0.513,-0L0.427,-0L0.427,-0.329C0.427,-0.369 0.425,-0.4 0.421,-0.421C0.416,-0.442 0.408,-0.458 0.395,-0.468C0.381,-0.478 0.362,-0.484 0.335,-0.484C0.306,-0.484 0.278,-0.475 0.253,-0.457C0.227,-0.439 0.206,-0.418 0.189,-0.393L0.189,-0L0.103,-0Z" style="fill:rgb(77,77,77);fill-rule:nonzero;"/>
                </g>
                <g transform="matrix(24.5341,0,0,24.5341,736.881,440)">
                    <path d="M0.171,-0.239C0.172,-0.199 0.18,-0.166 0.194,-0.139C0.209,-0.112 0.228,-0.092 0.251,-0.079C0.274,-0.066 0.3,-0.06 0.329,-0.06C0.355,-0.06 0.38,-0.064 0.402,-0.072C0.425,-0.08 0.448,-0.092 0.473,-0.109L0.513,-0.052C0.488,-0.032 0.459,-0.016 0.426,-0.005C0.394,0.006 0.361,0.012 0.328,0.012C0.276,0.012 0.232,0 0.194,-0.023C0.157,-0.046 0.129,-0.079 0.109,-0.122C0.09,-0.164 0.081,-0.213 0.081,-0.269C0.081,-0.324 0.09,-0.372 0.11,-0.415C0.129,-0.458 0.157,-0.491 0.192,-0.515C0.228,-0.539 0.269,-0.551 0.316,-0.551C0.362,-0.551 0.401,-0.541 0.434,-0.519C0.467,-0.498 0.492,-0.468 0.509,-0.428C0.527,-0.388 0.536,-0.341 0.536,-0.287C0.536,-0.271 0.535,-0.255 0.534,-0.239L0.171,-0.239ZM0.317,-0.481C0.276,-0.481 0.242,-0.466 0.216,-0.437C0.189,-0.407 0.175,-0.364 0.171,-0.306L0.453,-0.306C0.452,-0.363 0.439,-0.406 0.415,-0.436C0.391,-0.466 0.359,-0.481 0.317,-0.481Z" style="fill:rgb(77,77,77);fill-rule:nonzero;"/>
                </g>
                <g transform="matrix(24.5341,0,0,24.5341,751.979,440)">
                    <path d="M0.468,-0.552C0.482,-0.552 0.495,-0.551 0.506,-0.549C0.518,-0.547 0.53,-0.544 0.544,-0.54L0.532,-0.357L0.461,-0.357L0.461,-0.472L0.456,-0.472C0.415,-0.472 0.379,-0.458 0.35,-0.428C0.32,-0.399 0.297,-0.354 0.278,-0.295L0.278,-0.066L0.388,-0.066L0.388,-0L0.108,-0L0.108,-0.066L0.192,-0.066L0.192,-0.474L0.108,-0.474L0.108,-0.54L0.258,-0.54L0.274,-0.412C0.296,-0.459 0.322,-0.494 0.352,-0.517C0.382,-0.54 0.421,-0.552 0.468,-0.552Z" style="fill:rgb(77,77,77);fill-rule:nonzero;"/>
                </g>
            </g>
            <g transform="matrix(2.08689,0,0,1.49222,-939.706,91.4828)">
                <g transform="matrix(24.5341,0,0,24.5341,601,440)">
                    <path d="M0.309,-0.551C0.359,-0.551 0.401,-0.54 0.435,-0.517C0.47,-0.494 0.496,-0.462 0.514,-0.42C0.531,-0.378 0.54,-0.328 0.54,-0.27C0.54,-0.215 0.531,-0.165 0.513,-0.123C0.495,-0.081 0.469,-0.048 0.434,-0.024C0.399,-0 0.357,0.012 0.308,0.012C0.258,0.012 0.215,0 0.181,-0.023C0.146,-0.046 0.12,-0.078 0.102,-0.121C0.084,-0.163 0.075,-0.212 0.075,-0.269C0.075,-0.325 0.084,-0.375 0.102,-0.417C0.12,-0.459 0.147,-0.492 0.182,-0.516C0.217,-0.539 0.259,-0.551 0.309,-0.551ZM0.309,-0.481C0.262,-0.481 0.227,-0.464 0.203,-0.429C0.179,-0.394 0.168,-0.341 0.168,-0.269C0.168,-0.198 0.179,-0.146 0.203,-0.111C0.226,-0.076 0.261,-0.059 0.308,-0.059C0.355,-0.059 0.39,-0.076 0.413,-0.111C0.436,-0.146 0.448,-0.199 0.448,-0.27C0.448,-0.341 0.436,-0.394 0.413,-0.429C0.39,-0.464 0.355,-0.481 0.309,-0.481Z" style="fill:rgb(77,77,77);fill-rule:nonzero;"/>
                </g>
                <g transform="matrix(24.5341,0,0,24.5341,616.098,440)">
                    <path d="M0.189,-0.47C0.209,-0.496 0.232,-0.516 0.258,-0.53C0.284,-0.544 0.313,-0.551 0.343,-0.551C0.413,-0.551 0.464,-0.527 0.497,-0.477C0.529,-0.428 0.546,-0.359 0.546,-0.27C0.546,-0.215 0.537,-0.166 0.521,-0.124C0.505,-0.081 0.48,-0.048 0.448,-0.024C0.416,-0 0.377,0.012 0.332,0.012C0.3,0.012 0.272,0.006 0.248,-0.005C0.224,-0.016 0.203,-0.033 0.185,-0.056L0.178,-0L0.103,-0L0.103,-0.757L0.189,-0.768L0.189,-0.47ZM0.311,-0.058C0.357,-0.058 0.392,-0.076 0.416,-0.111C0.44,-0.146 0.452,-0.2 0.452,-0.271C0.452,-0.341 0.441,-0.394 0.419,-0.429C0.398,-0.464 0.366,-0.482 0.325,-0.482C0.297,-0.482 0.272,-0.474 0.249,-0.457C0.226,-0.441 0.206,-0.42 0.189,-0.395L0.189,-0.128C0.204,-0.106 0.221,-0.089 0.243,-0.076C0.264,-0.064 0.287,-0.058 0.311,-0.058Z" style="fill:rgb(77,77,77);fill-rule:nonzero;"/>
                </g>
                <g transform="matrix(24.5341,0,0,24.5341,631.196,440)">
                    <path d="M0.171,-0.239C0.172,-0.199 0.18,-0.166 0.194,-0.139C0.209,-0.112 0.228,-0.092 0.251,-0.079C0.274,-0.066 0.3,-0.06 0.329,-0.06C0.355,-0.06 0.38,-0.064 0.402,-0.072C0.425,-0.08 0.448,-0.092 0.473,-0.109L0.513,-0.052C0.488,-0.032 0.459,-0.016 0.426,-0.005C0.394,0.006 0.361,0.012 0.328,0.012C0.276,0.012 0.232,0 0.194,-0.023C0.157,-0.046 0.129,-0.079 0.109,-0.122C0.09,-0.164 0.081,-0.213 0.081,-0.269C0.081,-0.324 0.09,-0.372 0.11,-0.415C0.129,-0.458 0.157,-0.491 0.192,-0.515C0.228,-0.539 0.269,-0.551 0.316,-0.551C0.362,-0.551 0.401,-0.541 0.434,-0.519C0.467,-0.498 0.492,-0.468 0.509,-0.428C0.527,-0.388 0.536,-0.341 0.536,-0.287C0.536,-0.271 0.535,-0.255 0.534,-0.239L0.171,-0.239ZM0.317,-0.481C0.276,-0.481 0.242,-0.466 0.216,-0.437C0.189,-0.407 0.175,-0.364 0.171,-0.306L0.453,-0.306C0.452,-0.363 0.439,-0.406 0.415,-0.436C0.391,-0.466 0.359,-0.481 0.317,-0.481Z" style="fill:rgb(77,77,77);fill-rule:nonzero;"/>
                </g>
                <g transform="matrix(24.5341,0,0,24.5341,646.294,440)">
                    <path d="M0.363,0.004C0.349,0.044 0.332,0.079 0.313,0.108C0.293,0.138 0.268,0.162 0.237,0.181C0.205,0.201 0.167,0.212 0.122,0.217L0.108,0.148C0.144,0.142 0.173,0.133 0.195,0.121C0.217,0.108 0.234,0.093 0.246,0.074C0.258,0.055 0.27,0.03 0.281,-0L0.252,-0L0.063,-0.54L0.155,-0.54L0.31,-0.066L0.463,-0.54L0.552,-0.54L0.363,0.004Z" style="fill:rgb(77,77,77);fill-rule:nonzero;"/>
                </g>
                <g transform="matrix(24.5341,0,0,24.5341,661.392,440)">
                    <path d="M0.287,-0.059C0.328,-0.059 0.361,-0.067 0.385,-0.083C0.409,-0.098 0.421,-0.119 0.421,-0.145C0.421,-0.163 0.418,-0.178 0.412,-0.189C0.405,-0.2 0.393,-0.211 0.374,-0.221C0.355,-0.23 0.328,-0.239 0.29,-0.249C0.249,-0.259 0.215,-0.27 0.189,-0.282C0.163,-0.294 0.142,-0.31 0.128,-0.33C0.113,-0.349 0.106,-0.374 0.106,-0.404C0.106,-0.434 0.115,-0.46 0.132,-0.482C0.149,-0.504 0.173,-0.521 0.204,-0.533C0.235,-0.545 0.271,-0.551 0.311,-0.551C0.352,-0.551 0.389,-0.546 0.421,-0.535C0.454,-0.524 0.483,-0.51 0.507,-0.492L0.469,-0.433C0.447,-0.449 0.423,-0.461 0.398,-0.469C0.373,-0.477 0.345,-0.482 0.312,-0.482C0.272,-0.482 0.242,-0.475 0.223,-0.463C0.205,-0.45 0.195,-0.433 0.195,-0.411C0.195,-0.395 0.2,-0.382 0.208,-0.371C0.217,-0.361 0.231,-0.352 0.251,-0.344C0.271,-0.336 0.3,-0.326 0.339,-0.316C0.378,-0.305 0.41,-0.294 0.435,-0.281C0.46,-0.268 0.479,-0.251 0.493,-0.229C0.507,-0.208 0.514,-0.182 0.514,-0.149C0.514,-0.113 0.504,-0.082 0.483,-0.058C0.461,-0.034 0.434,-0.016 0.399,-0.005C0.365,0.006 0.327,0.012 0.287,0.012C0.202,0.012 0.131,-0.012 0.075,-0.061L0.125,-0.118C0.146,-0.099 0.171,-0.085 0.199,-0.075C0.227,-0.065 0.256,-0.059 0.287,-0.059Z" style="fill:rgb(77,77,77);fill-rule:nonzero;"/>
                </g>
                <g transform="matrix(24.5341,0,0,24.5341,676.489,440)">
                    <rect x="0.051" y="0.111" width="0.513" height="0.075" style="fill:rgb(77,77,77);fill-rule:nonzero;"/>
                </g>
                <g transform="matrix(24.5341,0,0,24.5341,691.587,440)">
                    <path d="M0.309,-0.551C0.359,-0.551 0.401,-0.54 0.435,-0.517C0.47,-0.494 0.496,-0.462 0.514,-0.42C0.531,-0.378 0.54,-0.328 0.54,-0.27C0.54,-0.215 0.531,-0.165 0.513,-0.123C0.495,-0.081 0.469,-0.048 0.434,-0.024C0.399,-0 0.357,0.012 0.308,0.012C0.258,0.012 0.215,0 0.181,-0.023C0.146,-0.046 0.12,-0.078 0.102,-0.121C0.084,-0.163 0.075,-0.212 0.075,-0.269C0.075,-0.325 0.084,-0.375 0.102,-0.417C0.12,-0.459 0.147,-0.492 0.182,-0.516C0.217,-0.539 0.259,-0.551 0.309,-0.551ZM0.309,-0.481C0.262,-0.481 0.227,-0.464 0.203,-0.429C0.179,-0.394 0.168,-0.341 0.168,-0.269C0.168,-0.198 0.179,-0.146 0.203,-0.111C0.226,-0.076 0.261,-0.059 0.308,-0.059C0.355,-0.059 0.39,-0.076 0.413,-0.111C0.436,-0.146 0.448,-0.199 0.448,-0.27C0.448,-0.341 0.436,-0.394 0.413,-0.429C0.39,-0.464 0.355,-0.481 0.309,-0.481Z" style="fill:rgb(77,77,77);fill-rule:nonzero;"/>
                </g>
                <g transform="matrix(24.5341,0,0,24.5341,706.685,440)">
                    <path d="M0.597,-0.54L0.503,-0L0.381,-0L0.311,-0.396L0.235,-0L0.116,-0L0.018,-0.54L0.106,-0.54L0.175,-0.053L0.261,-0.471L0.363,-0.471L0.445,-0.053L0.513,-0.54L0.597,-0.54Z" style="fill:rgb(77,77,77);fill-rule:nonzero;"/>
                </g>
                <g transform="matrix(24.5341,0,0,24.5341,721.783,440)">
                    <path d="M0.103,-0L0.103,-0.54L0.176,-0.54L0.183,-0.465C0.205,-0.492 0.232,-0.513 0.264,-0.528C0.297,-0.544 0.329,-0.551 0.362,-0.551C0.413,-0.551 0.451,-0.538 0.476,-0.51C0.501,-0.483 0.513,-0.444 0.513,-0.392L0.513,-0L0.427,-0L0.427,-0.329C0.427,-0.369 0.425,-0.4 0.421,-0.421C0.416,-0.442 0.408,-0.458 0.395,-0.468C0.381,-0.478 0.362,-0.484 0.335,-0.484C0.306,-0.484 0.278,-0.475 0.253,-0.457C0.227,-0.439 0.206,-0.418 0.189,-0.393L0.189,-0L0.103,-0Z" style="fill:rgb(77,77,77);fill-rule:nonzero;"/>
                </g>
                <g transform="matrix(24.5341,0,0,24.5341,736.881,440)">
                    <path d="M0.171,-0.239C0.172,-0.199 0.18,-0.166 0.194,-0.139C0.209,-0.112 0.228,-0.092 0.251,-0.079C0.274,-0.066 0.3,-0.06 0.329,-0.06C0.355,-0.06 0.38,-0.064 0.402,-0.072C0.425,-0.08 0.448,-0.092 0.473,-0.109L0.513,-0.052C0.488,-0.032 0.459,-0.016 0.426,-0.005C0.394,0.006 0.361,0.012 0.328,0.012C0.276,0.012 0.232,0 0.194,-0.023C0.157,-0.046 0.129,-0.079 0.109,-0.122C0.09,-0.164 0.081,-0.213 0.081,-0.269C0.081,-0.324 0.09,-0.372 0.11,-0.415C0.129,-0.458 0.157,-0.491 0.192,-0.515C0.228,-0.539 0.269,-0.551 0.316,-0.551C0.362,-0.551 0.401,-0.541 0.434,-0.519C0.467,-0.498 0.492,-0.468 0.509,-0.428C0.527,-0.388 0.536,-0.341 0.536,-0.287C0.536,-0.271 0.535,-0.255 0.534,-0.239L0.171,-0.239ZM0.317,-0.481C0.276,-0.481 0.242,-0.466 0.216,-0.437C0.189,-0.407 0.175,-0.364 0.171,-0.306L0.453,-0.306C0.452,-0.363 0.439,-0.406 0.415,-0.436C0.391,-0.466 0.359,-0.481 0.317,-0.481Z" style="fill:rgb(77,77,77);fill-rule:nonzero;"/>
                </g>
                <g transform="matrix(24.5341,0,0,24.5341,751.979,440)">
                    <path d="M0.468,-0.552C0.482,-0.552 0.495,-0.551 0.506,-0.549C0.518,-0.547 0.53,-0.544 0.544,-0.54L0.532,-0.357L0.461,-0.357L0.461,-0.472L0.456,-0.472C0.415,-0.472 0.379,-0.458 0.35,-0.428C0.32,-0.399 0.297,-0.354 0.278,-0.295L0.278,-0.066L0.388,-0.066L0.388,-0L0.108,-0L0.108,-0.066L0.192,-0.066L0.192,-0.474L0.108,-0.474L0.108,-0.54L0.258,-0.54L0.274,-0.412C0.296,-0.459 0.322,-0.494 0.352,-0.517C0.382,-0.54 0.421,-0.552 0.468,-0.552Z" style="fill:rgb(77,77,77);fill-rule:nonzero;"/>
                </g>
            </g>
            <g transform="matrix(2.08689,0,0,1.49222,-936.1,342.262)">
                <g transform="matrix(24.5341,0,0,24.5341,601,440)">
                    <path d="M0.309,-0.551C0.359,-0.551 0.401,-0.54 0.435,-0.517C0.47,-0.494 0.496,-0.462 0.514,-0.42C0.531,-0.378 0.54,-0.328 0.54,-0.27C0.54,-0.215 0.531,-0.165 0.513,-0.123C0.495,-0.081 0.469,-0.048 0.434,-0.024C0.399,-0 0.357,0.012 0.308,0.012C0.258,0.012 0.215,0 0.181,-0.023C0.146,-0.046 0.12,-0.078 0.102,-0.121C0.084,-0.163 0.075,-0.212 0.075,-0.269C0.075,-0.325 0.084,-0.375 0.102,-0.417C0.12,-0.459 0.147,-0.492 0.182,-0.516C0.217,-0.539 0.259,-0.551 0.309,-0.551ZM0.309,-0.481C0.262,-0.481 0.227,-0.464 0.203,-0.429C0.179,-0.394 0.168,-0.341 0.168,-0.269C0.168,-0.198 0.179,-0.146 0.203,-0.111C0.226,-0.076 0.261,-0.059 0.308,-0.059C0.355,-0.059 0.39,-0.076 0.413,-0.111C0.436,-0.146 0.448,-0.199 0.448,-0.27C0.448,-0.341 0.436,-0.394 0.413,-0.429C0.39,-0.464 0.355,-0.481 0.309,-0.481Z" style="fill:rgb(77,77,77);fill-rule:nonzero;"/>
                </g>
                <g transform="matrix(24.5341,0,0,24.5341,616.098,440)">
                    <path d="M0.189,-0.47C0.209,-0.496 0.232,-0.516 0.258,-0.53C0.284,-0.544 0.313,-0.551 0.343,-0.551C0.413,-0.551 0.464,-0.527 0.497,-0.477C0.529,-0.428 0.546,-0.359 0.546,-0.27C0.546,-0.215 0.537,-0.166 0.521,-0.124C0.505,-0.081 0.48,-0.048 0.448,-0.024C0.416,-0 0.377,0.012 0.332,0.012C0.3,0.012 0.272,0.006 0.248,-0.005C0.224,-0.016 0.203,-0.033 0.185,-0.056L0.178,-0L0.103,-0L0.103,-0.757L0.189,-0.768L0.189,-0.47ZM0.311,-0.058C0.357,-0.058 0.392,-0.076 0.416,-0.111C0.44,-0.146 0.452,-0.2 0.452,-0.271C0.452,-0.341 0.441,-0.394 0.419,-0.429C0.398,-0.464 0.366,-0.482 0.325,-0.482C0.297,-0.482 0.272,-0.474 0.249,-0.457C0.226,-0.441 0.206,-0.42 0.189,-0.395L0.189,-0.128C0.204,-0.106 0.221,-0.089 0.243,-0.076C0.264,-0.064 0.287,-0.058 0.311,-0.058Z" style="fill:rgb(77,77,77);fill-rule:nonzero;"/>
                </g>
                <g transform="matrix(24.5341,0,0,24.5341,631.196,440)">
                    <path d="M0.171,-0.239C0.172,-0.199 0.18,-0.166 0.194,-0.139C0.209,-0.112 0.228,-0.092 0.251,-0.079C0.274,-0.066 0.3,-0.06 0.329,-0.06C0.355,-0.06 0.38,-0.064 0.402,-0.072C0.425,-0.08 0.448,-0.092 0.473,-0.109L0.513,-0.052C0.488,-0.032 0.459,-0.016 0.426,-0.005C0.394,0.006 0.361,0.012 0.328,0.012C0.276,0.012 0.232,0 0.194,-0.023C0.157,-0.046 0.129,-0.079 0.109,-0.122C0.09,-0.164 0.081,-0.213 0.081,-0.269C0.081,-0.324 0.09,-0.372 0.11,-0.415C0.129,-0.458 0.157,-0.491 0.192,-0.515C0.228,-0.539 0.269,-0.551 0.316,-0.551C0.362,-0.551 0.401,-0.541 0.434,-0.519C0.467,-0.498 0.492,-0.468 0.509,-0.428C0.527,-0.388 0.536,-0.341 0.536,-0.287C0.536,-0.271 0.535,-0.255 0.534,-0.239L0.171,-0.239ZM0.317,-0.481C0.276,-0.481 0.242,-0.466 0.216,-0.437C0.189,-0.407 0.175,-0.364 0.171,-0.306L0.453,-0.306C0.452,-0.363 0.439,-0.406 0.415,-0.436C0.391,-0.466 0.359,-0.481 0.317,-0.481Z" style="fill:rgb(77,77,77);fill-rule:nonzero;"/>
                </g>
                <g transform="matrix(24.5341,0,0,24.5341,646.294,440)">
                    <path d="M0.363,0.004C0.349,0.044 0.332,0.079 0.313,0.108C0.293,0.138 0.268,0.162 0.237,0.181C0.205,0.201 0.167,0.212 0.122,0.217L0.108,0.148C0.144,0.142 0.173,0.133 0.195,0.121C0.217,0.108 0.234,0.093 0.246,0.074C0.258,0.055 0.27,0.03 0.281,-0L0.252,-0L0.063,-0.54L0.155,-0.54L0.31,-0.066L0.463,-0.54L0.552,-0.54L0.363,0.004Z" style="fill:rgb(77,77,77);fill-rule:nonzero;"/>
                </g>
                <g transform="matrix(24.5341,0,0,24.5341,661.392,440)">
                    <path d="M0.287,-0.059C0.328,-0.059 0.361,-0.067 0.385,-0.083C0.409,-0.098 0.421,-0.119 0.421,-0.145C0.421,-0.163 0.418,-0.178 0.412,-0.189C0.405,-0.2 0.393,-0.211 0.374,-0.221C0.355,-0.23 0.328,-0.239 0.29,-0.249C0.249,-0.259 0.215,-0.27 0.189,-0.282C0.163,-0.294 0.142,-0.31 0.128,-0.33C0.113,-0.349 0.106,-0.374 0.106,-0.404C0.106,-0.434 0.115,-0.46 0.132,-0.482C0.149,-0.504 0.173,-0.521 0.204,-0.533C0.235,-0.545 0.271,-0.551 0.311,-0.551C0.352,-0.551 0.389,-0.546 0.421,-0.535C0.454,-0.524 0.483,-0.51 0.507,-0.492L0.469,-0.433C0.447,-0.449 0.423,-0.461 0.398,-0.469C0.373,-0.477 0.345,-0.482 0.312,-0.482C0.272,-0.482 0.242,-0.475 0.223,-0.463C0.205,-0.45 0.195,-0.433 0.195,-0.411C0.195,-0.395 0.2,-0.382 0.208,-0.371C0.217,-0.361 0.231,-0.352 0.251,-0.344C0.271,-0.336 0.3,-0.326 0.339,-0.316C0.378,-0.305 0.41,-0.294 0.435,-0.281C0.46,-0.268 0.479,-0.251 0.493,-0.229C0.507,-0.208 0.514,-0.182 0.514,-0.149C0.514,-0.113 0.504,-0.082 0.483,-0.058C0.461,-0.034 0.434,-0.016 0.399,-0.005C0.365,0.006 0.327,0.012 0.287,0.012C0.202,0.012 0.131,-0.012 0.075,-0.061L0.125,-0.118C0.146,-0.099 0.171,-0.085 0.199,-0.075C0.227,-0.065 0.256,-0.059 0.287,-0.059Z" style="fill:rgb(77,77,77);fill-rule:nonzero;"/>
                </g>
                <g transform="matrix(24.5341,0,0,24.5341,676.489,440)">
                    <rect x="0.051" y="0.111" width="0.513" height="0.075" style="fill:rgb(77,77,77);fill-rule:nonzero;"/>
                </g>
                <g transform="matrix(24.5341,0,0,24.5341,691.587,440)">
                    <path d="M0.309,-0.551C0.359,-0.551 0.401,-0.54 0.435,-0.517C0.47,-0.494 0.496,-0.462 0.514,-0.42C0.531,-0.378 0.54,-0.328 0.54,-0.27C0.54,-0.215 0.531,-0.165 0.513,-0.123C0.495,-0.081 0.469,-0.048 0.434,-0.024C0.399,-0 0.357,0.012 0.308,0.012C0.258,0.012 0.215,0 0.181,-0.023C0.146,-0.046 0.12,-0.078 0.102,-0.121C0.084,-0.163 0.075,-0.212 0.075,-0.269C0.075,-0.325 0.084,-0.375 0.102,-0.417C0.12,-0.459 0.147,-0.492 0.182,-0.516C0.217,-0.539 0.259,-0.551 0.309,-0.551ZM0.309,-0.481C0.262,-0.481 0.227,-0.464 0.203,-0.429C0.179,-0.394 0.168,-0.341 0.168,-0.269C0.168,-0.198 0.179,-0.146 0.203,-0.111C0.226,-0.076 0.261,-0.059 0.308,-0.059C0.355,-0.059 0.39,-0.076 0.413,-0.111C0.436,-0.146 0.448,-0.199 0.448,-0.27C0.448,-0.341 0.436,-0.394 0.413,-0.429C0.39,-0.464 0.355,-0.481 0.309,-0.481Z" style="fill:rgb(77,77,77);fill-rule:nonzero;"/>
                </g>
                <g transform="matrix(24.5341,0,0,24.5341,706.685,440)">
                    <path d="M0.597,-0.54L0.503,-0L0.381,-0L0.311,-0.396L0.235,-0L0.116,-0L0.018,-0.54L0.106,-0.54L0.175,-0.053L0.261,-0.471L0.363,-0.471L0.445,-0.053L0.513,-0.54L0.597,-0.54Z" style="fill:rgb(77,77,77);fill-rule:nonzero;"/>
                </g>
                <g transform="matrix(24.5341,0,0,24.5341,721.783,440)">
                    <path d="M0.103,-0L0.103,-0.54L0.176,-0.54L0.183,-0.465C0.205,-0.492 0.232,-0.513 0.264,-0.528C0.297,-0.544 0.329,-0.551 0.362,-0.551C0.413,-0.551 0.451,-0.538 0.476,-0.51C0.501,-0.483 0.513,-0.444 0.513,-0.392L0.513,-0L0.427,-0L0.427,-0.329C0.427,-0.369 0.425,-0.4 0.421,-0.421C0.416,-0.442 0.408,-0.458 0.395,-0.468C0.381,-0.478 0.362,-0.484 0.335,-0.484C0.306,-0.484 0.278,-0.475 0.253,-0.457C0.227,-0.439 0.206,-0.418 0.189,-0.393L0.189,-0L0.103,-0Z" style="fill:rgb(77,77,77);fill-rule:nonzero;"/>
                </g>
                <g transform="matrix(24.5341,0,0,24.5341,736.881,440)">
                    <path d="M0.171,-0.239C0.172,-0.199 0.18,-0.166 0.194,-0.139C0.209,-0.112 0.228,-0.092 0.251,-0.079C0.274,-0.066 0.3,-0.06 0.329,-0.06C0.355,-0.06 0.38,-0.064 0.402,-0.072C0.425,-0.08 0.448,-0.092 0.473,-0.109L0.513,-0.052C0.488,-0.032 0.459,-0.016 0.426,-0.005C0.394,0.006 0.361,0.012 0.328,0.012C0.276,0.012 0.232,0 0.194,-0.023C0.157,-0.046 0.129,-0.079 0.109,-0.122C0.09,-0.164 0.081,-0.213 0.081,-0.269C0.081,-0.324 0.09,-0.372 0.11,-0.415C0.129,-0.458 0.157,-0.491 0.192,-0.515C0.228,-0.539 0.269,-0.551 0.316,-0.551C0.362,-0.551 0.401,-0.541 0.434,-0.519C0.467,-0.498 0.492,-0.468 0.509,-0.428C0.527,-0.388 0.536,-0.341 0.536,-0.287C0.536,-0.271 0.535,-0.255 0.534,-0.239L0.171,-0.239ZM0.317,-0.481C0.276,-0.481 0.242,-0.466 0.216,-0.437C0.189,-0.407 0.175,-0.364 0.171,-0.306L0.453,-0.306C0.452,-0.363 0.439,-0.406 0.415,-0.436C0.391,-0.466 0.359,-0.481 0.317,-0.481Z" style="fill:rgb(77,77,77);fill-rule:nonzero;"/>
                </g>
                <g transform="matrix(24.5341,0,0,24.5341,751.979,440)">
                    <path d="M0.468,-0.552C0.482,-0.552 0.495,-0.551 0.506,-0.549C0.518,-0.547 0.53,-0.544 0.544,-0.54L0.532,-0.357L0.461,-0.357L0.461,-0.472L0.456,-0.472C0.415,-0.472 0.379,-0.458 0.35,-0.428C0.32,-0.399 0.297,-0.354 0.278,-0.295L0.278,-0.066L0.388,-0.066L0.388,-0L0.108,-0L0.108,-0.066L0.192,-0.066L0.192,-0.474L0.108,-0.474L0.108,-0.54L0.258,-0.54L0.274,-0.412C0.296,-0.459 0.322,-0.494 0.352,-0.517C0.382,-0.54 0.421,-0.552 0.468,-0.552Z" style="fill:rgb(77,77,77);fill-rule:nonzero;"/>
                </g>
            </g>
            <g transform="matrix(2.56,0,0,1.83051,-476.16,-156.624)">
                <g transform="matrix(0.582474,0,0,1,319.825,0)">
                    <rect x="766" y="159.634" width="194" height="42.366" style="fill:rgb(235,235,235);stroke:black;stroke-width:1.22px;"/>
                </g>
                <g transform="matrix(0.582474,0,0,1,319.825,42.3661)">
                    <rect x="766" y="159.634" width="194" height="42.366" style="fill:rgb(235,235,235);stroke:black;stroke-width:1.22px;"/>
                </g>
                <g transform="matrix(0.582474,0,0,1,319.825,84.7323)">
                    <rect x="766" y="159.634" width="194" height="42.366" style="fill:rgb(235,235,235);stroke:black;stroke-width:1.22px;"/>
                </g>
                <g transform="matrix(0.582474,0,0,1,319.825,127.098)">
                    <rect x="766" y="159.634" width="194" height="42.366" style="fill:rgb(235,235,235);stroke:black;stroke-width:1.22px;"/>
                </g>
                <g transform="matrix(0.582474,0,0,1,319.825,169.465)">
                    <rect x="766" y="159.634" width="194" height="42.366" style="fill:rgb(235,235,235);stroke:black;stroke-width:1.22px;"/>
                </g>
                <g transform="matrix(0.582474,0,0,1,319.825,211.831)">
                    <rect x="766" y="159.634" width="194" height="42.366" style="fill:rgb(235,235,235);stroke:black;stroke-width:1.22px;"/>
                </g>
                <g transform="matrix(0.582474,0,0,1,319.825,254.197)">
                    <rect x="766" y="159.634" width="194" height="42.366" style="fill:rgb(235,235,235);stroke:black;stroke-width:1.22px;"/>
                </g>
                <g transform="matrix(0.582474,0,0,1,319.825,296.563)">
                    <rect x="766" y="159.634" width="194" height="42.366" style="fill:rgb(235,235,235);stroke:black;stroke-width:1.22px;"/>
                </g>
                <g transform="matrix(0.815193,0,0,0.815193,308.195,-170.935)">
                    <g transform="matrix(24.5341,0,0,24.5341,601,440)">
                        <path d="M0.581,-0.582L0.391,-0.582L0.391,-0L0.223,-0L0.223,-0.582L0.023,-0.582L0.023,-0.711L0.598,-0.711L0.581,-0.582Z" style="fill:rgb(20,198,124);fill-rule:nonzero;"/>
                    </g>
                    <g transform="matrix(24.5341,0,0,24.5341,616.098,440)">
                        <path d="M0.488,-0.561C0.52,-0.561 0.55,-0.556 0.577,-0.545L0.547,-0.317L0.446,-0.317L0.446,-0.417C0.416,-0.412 0.389,-0.396 0.366,-0.368C0.342,-0.341 0.324,-0.306 0.311,-0.265L0.311,-0.109L0.418,-0.109L0.418,-0L0.077,-0L0.077,-0.109L0.149,-0.109L0.149,-0.437L0.077,-0.437L0.077,-0.545L0.272,-0.545L0.302,-0.422C0.322,-0.469 0.346,-0.504 0.377,-0.527C0.407,-0.55 0.444,-0.561 0.488,-0.561Z" style="fill:rgb(20,198,124);fill-rule:nonzero;"/>
                    </g>
                    <g transform="matrix(24.5341,0,0,24.5341,631.196,440)">
                        <path d="M0.234,-0.172C0.234,-0.146 0.238,-0.129 0.248,-0.118C0.257,-0.108 0.271,-0.103 0.289,-0.103C0.306,-0.103 0.323,-0.108 0.339,-0.118C0.356,-0.129 0.37,-0.143 0.382,-0.162L0.382,-0.545L0.544,-0.545L0.544,-0L0.402,-0L0.395,-0.064C0.377,-0.038 0.353,-0.018 0.323,-0.004C0.293,0.01 0.262,0.017 0.228,0.017C0.176,0.017 0.137,0.003 0.111,-0.027C0.085,-0.057 0.072,-0.098 0.072,-0.152L0.072,-0.545L0.234,-0.545L0.234,-0.172Z" style="fill:rgb(20,198,124);fill-rule:nonzero;"/>
                    </g>
                    <g transform="matrix(24.5341,0,0,24.5341,646.294,440)">
                        <path d="M0.212,-0.225C0.217,-0.182 0.231,-0.151 0.254,-0.131C0.277,-0.111 0.307,-0.101 0.343,-0.101C0.389,-0.101 0.436,-0.116 0.483,-0.146L0.548,-0.057C0.521,-0.034 0.489,-0.016 0.452,-0.003C0.415,0.011 0.375,0.017 0.33,0.017C0.269,0.017 0.218,0.005 0.175,-0.019C0.133,-0.043 0.101,-0.077 0.079,-0.121C0.058,-0.164 0.047,-0.215 0.047,-0.272C0.047,-0.326 0.058,-0.375 0.078,-0.419C0.099,-0.464 0.13,-0.498 0.17,-0.524C0.21,-0.55 0.257,-0.563 0.313,-0.563C0.364,-0.563 0.409,-0.551 0.448,-0.529C0.486,-0.507 0.516,-0.475 0.537,-0.433C0.558,-0.391 0.568,-0.341 0.568,-0.283C0.568,-0.261 0.567,-0.242 0.565,-0.225L0.212,-0.225ZM0.313,-0.454C0.283,-0.454 0.259,-0.443 0.242,-0.422C0.224,-0.4 0.214,-0.367 0.21,-0.323L0.41,-0.323C0.409,-0.41 0.377,-0.454 0.313,-0.454Z" style="fill:rgb(20,198,124);fill-rule:nonzero;"/>
                    </g>
                </g>
                <g transform="matrix(0.815193,0,0,0.815193,301.164,-0.464898)">
                    <g transform="matrix(24.5341,0,0,24.5341,601,440)">
                        <path d="M0.561,-0.591L0.279,-0.591L0.279,-0.403L0.529,-0.403L0.529,-0.282L0.279,-0.282L0.279,-0L0.111,-0L0.111,-0.711L0.578,-0.711L0.561,-0.591Z" style="fill:rgb(198,20,20);fill-rule:nonzero;"/>
                    </g>
                    <g transform="matrix(24.5341,0,0,24.5341,616.098,440)">
                        <path d="M0.53,-0.157C0.53,-0.137 0.533,-0.122 0.538,-0.113C0.544,-0.103 0.553,-0.096 0.566,-0.091L0.533,0.015C0.5,0.012 0.472,0.005 0.451,-0.006C0.429,-0.018 0.412,-0.035 0.399,-0.056C0.379,-0.032 0.353,-0.014 0.321,-0.001C0.289,0.011 0.256,0.017 0.22,0.017C0.183,0.017 0.151,0.01 0.123,-0.004C0.095,-0.019 0.074,-0.039 0.058,-0.065C0.043,-0.091 0.036,-0.12 0.036,-0.154C0.036,-0.193 0.046,-0.226 0.067,-0.254C0.088,-0.282 0.118,-0.303 0.158,-0.317C0.198,-0.332 0.245,-0.339 0.301,-0.339L0.374,-0.339L0.374,-0.359C0.374,-0.415 0.338,-0.443 0.267,-0.443C0.249,-0.443 0.226,-0.441 0.198,-0.435C0.171,-0.43 0.144,-0.423 0.117,-0.414L0.08,-0.522C0.114,-0.535 0.15,-0.545 0.188,-0.552C0.226,-0.559 0.261,-0.563 0.292,-0.563C0.372,-0.563 0.432,-0.546 0.471,-0.514C0.511,-0.481 0.53,-0.434 0.53,-0.37L0.53,-0.157ZM0.276,-0.098C0.294,-0.098 0.313,-0.104 0.332,-0.115C0.351,-0.125 0.365,-0.14 0.374,-0.158L0.374,-0.247L0.334,-0.247C0.29,-0.247 0.257,-0.24 0.235,-0.226C0.214,-0.212 0.203,-0.192 0.203,-0.165C0.203,-0.144 0.209,-0.128 0.222,-0.116C0.235,-0.104 0.253,-0.098 0.276,-0.098Z" style="fill:rgb(198,20,20);fill-rule:nonzero;"/>
                    </g>
                    <g transform="matrix(24.5341,0,0,24.5341,631.196,440)">
                        <path d="M0.356,-0.171C0.356,-0.15 0.362,-0.135 0.374,-0.125C0.386,-0.115 0.404,-0.11 0.426,-0.11C0.451,-0.11 0.476,-0.116 0.503,-0.127L0.542,-0.018C0.497,0.005 0.444,0.017 0.385,0.017C0.321,0.017 0.273,-0.001 0.241,-0.038C0.21,-0.074 0.194,-0.126 0.194,-0.191L0.194,-0.65L0.033,-0.65L0.033,-0.761L0.356,-0.761L0.356,-0.171Z" style="fill:rgb(198,20,20);fill-rule:nonzero;"/>
                    </g>
                    <g transform="matrix(24.5341,0,0,24.5341,646.294,440)">
                        <path d="M0.29,-0.098C0.318,-0.098 0.34,-0.103 0.356,-0.112C0.372,-0.12 0.381,-0.133 0.381,-0.15C0.381,-0.162 0.377,-0.172 0.371,-0.179C0.364,-0.187 0.352,-0.194 0.334,-0.201C0.317,-0.208 0.289,-0.217 0.251,-0.227C0.197,-0.242 0.155,-0.262 0.126,-0.288C0.097,-0.313 0.083,-0.349 0.083,-0.394C0.083,-0.427 0.092,-0.456 0.11,-0.482C0.128,-0.507 0.155,-0.527 0.191,-0.541C0.226,-0.555 0.269,-0.563 0.319,-0.563C0.405,-0.563 0.479,-0.541 0.539,-0.496L0.475,-0.401C0.451,-0.415 0.427,-0.427 0.401,-0.435C0.375,-0.443 0.349,-0.447 0.324,-0.447C0.297,-0.447 0.278,-0.444 0.265,-0.437C0.252,-0.43 0.246,-0.419 0.246,-0.405C0.246,-0.396 0.249,-0.388 0.256,-0.381C0.262,-0.375 0.274,-0.368 0.292,-0.361C0.31,-0.354 0.337,-0.345 0.374,-0.335C0.414,-0.324 0.446,-0.312 0.47,-0.299C0.495,-0.286 0.514,-0.268 0.528,-0.246C0.542,-0.225 0.549,-0.197 0.549,-0.163C0.549,-0.124 0.537,-0.092 0.514,-0.064C0.491,-0.037 0.46,-0.017 0.421,-0.003C0.382,0.011 0.339,0.017 0.291,0.017C0.24,0.017 0.195,0.01 0.154,-0.004C0.113,-0.019 0.078,-0.039 0.049,-0.065L0.13,-0.156C0.153,-0.138 0.178,-0.124 0.205,-0.114C0.232,-0.104 0.26,-0.098 0.29,-0.098Z" style="fill:rgb(198,20,20);fill-rule:nonzero;"/>
                    </g>
                    <g transform="matrix(24.5341,0,0,24.5341,661.392,440)">
                        <path d="M0.212,-0.225C0.217,-0.182 0.231,-0.151 0.254,-0.131C0.277,-0.111 0.307,-0.101 0.343,-0.101C0.389,-0.101 0.436,-0.116 0.483,-0.146L0.548,-0.057C0.521,-0.034 0.489,-0.016 0.452,-0.003C0.415,0.011 0.375,0.017 0.33,0.017C0.269,0.017 0.218,0.005 0.175,-0.019C0.133,-0.043 0.101,-0.077 0.079,-0.121C0.058,-0.164 0.047,-0.215 0.047,-0.272C0.047,-0.326 0.058,-0.375 0.078,-0.419C0.099,-0.464 0.13,-0.498 0.17,-0.524C0.21,-0.55 0.257,-0.563 0.313,-0.563C0.364,-0.563 0.409,-0.551 0.448,-0.529C0.486,-0.507 0.516,-0.475 0.537,-0.433C0.558,-0.391 0.568,-0.341 0.568,-0.283C0.568,-0.261 0.567,-0.242 0.565,-0.225L0.212,-0.225ZM0.313,-0.454C0.283,-0.454 0.259,-0.443 0.242,-0.422C0.224,-0.4 0.214,-0.367 0.21,-0.323L0.41,-0.323C0.409,-0.41 0.377,-0.454 0.313,-0.454Z" style="fill:rgb(198,20,20);fill-rule:nonzero;"/>
                    </g>
                </g>
            </g>
            <g transform="matrix(0.24677,0,0,0.131765,1530.73,26.1406)">
                <path d="M680.519,181.818L119.481,181.818C85.195,181.818 57.143,209.87 57.143,244.156L57.143,493.506L742.857,493.506L742.857,244.156C742.857,209.87 714.805,181.818 680.519,181.818Z" style="fill:rgb(76,175,80);fill-rule:nonzero;"/>
                <path d="M57.143,493.506L57.143,555.844C57.143,590.13 85.195,618.182 119.481,618.182L384.416,618.182L384.416,540.26C384.416,530.909 390.649,524.675 400,524.675C409.351,524.675 415.584,530.909 415.584,540.26L415.584,618.182L680.519,618.182C714.805,618.182 742.857,590.13 742.857,555.844L742.857,493.506L57.143,493.506Z" style="fill:rgb(55,71,79);fill-rule:nonzero;"/>
                <path d="M135.065,524.675L166.234,524.675L166.234,618.182L135.065,618.182L135.065,524.675ZM197.403,524.675L228.571,524.675L228.571,618.182L197.403,618.182L197.403,524.675ZM259.74,524.675L290.909,524.675L290.909,618.182L259.74,618.182L259.74,524.675ZM322.078,524.675L353.247,524.675L353.247,618.182L322.078,618.182L322.078,524.675ZM446.753,524.675L477.922,524.675L477.922,618.182L446.753,618.182L446.753,524.675ZM509.091,524.675L540.26,524.675L540.26,618.182L509.091,618.182L509.091,524.675ZM571.429,524.675L602.597,524.675L602.597,618.182L571.429,618.182L571.429,524.675ZM633.766,524.675L664.935,524.675L664.935,618.182L633.766,618.182L633.766,524.675Z" style="fill:rgb(255,152,0);fill-rule:nonzero;"/>
                <path d="M337.662,275.325L462.338,275.325L462.338,431.169L337.662,431.169L337.662,275.325ZM524.675,275.325L649.351,275.325L649.351,431.169L524.675,431.169L524.675,275.325ZM150.649,275.325L275.325,275.325L275.325,431.169L150.649,431.169L150.649,275.325Z" style="fill:rgb(55,71,79);fill-rule:nonzero;"/>
            </g>
            <g transform="matrix(2.56,0,0,1.83051,-176.64,-104.339)">
                <g transform="matrix(1,-0,-0,1,69,57)">
                    <path d="M555,88.283L561,92.783L555,97.283L555,88.283Z"/>
                    <path d="M223.031,92.783L556.2,92.783" style="fill:none;stroke:black;stroke-width:1px;stroke-dasharray:5,4,0,0,0,0;"/>
                </g>
            </g>
            <g transform="matrix(2.56,0,0,1.83051,-176.64,-104.339)">
                <g transform="matrix(1,-0,-0,1,69,57)">
                    <path d="M555,259.501L561,264.001L555,268.501L555,259.501Z"/>
                    <path d="M223.031,104.391L353,104.391L512.61,264.001L556.2,264.001" style="fill:none;stroke:black;stroke-width:1px;stroke-dasharray:5,4,0,0,0,0;"/>
                </g>
            </g>
            <g transform="matrix(1.67524,0,0,1.19787,-450.586,-330.296)">
                <circle cx="960" cy="417" r="24" style="fill:rgb(160,69,234);"/>
                <g transform="matrix(1,0,0,1,105.169,-31.05)">
                    <g transform="matrix(37,0,0,37,844.912,461)">
                        <path d="M0.096,-0.495L0.096,-0.563C0.159,-0.569 0.203,-0.579 0.229,-0.594C0.254,-0.608 0.272,-0.642 0.285,-0.696L0.354,-0.696L0.354,-0L0.26,-0L0.26,-0.495L0.096,-0.495Z" style="fill:white;fill-rule:nonzero;"/>
                    </g>
                </g>
            </g>
            <g transform="matrix(1.67524,0,0,1.19787,-757.46,-266.602)">
                <g transform="matrix(1,0,0,1,101,36.95)">
                    <circle cx="960" cy="417" r="24" style="fill:rgb(160,69,234);"/>
                </g>
                <g transform="matrix(1,0,0,1,206.169,5.9)">
                    <g transform="matrix(37,0,0,37,844.912,461)">
                        <path d="M0.331,-0.248L0.331,-0.564L0.106,-0.248L0.331,-0.248ZM0.332,-0L0.332,-0.171L0.025,-0.171L0.025,-0.257L0.346,-0.701L0.42,-0.701L0.42,-0.248L0.523,-0.248L0.523,-0.171L0.42,-0.171L0.42,-0L0.332,-0Z" style="fill:white;fill-rule:nonzero;"/>
                    </g>
                </g>
            </g>
            <g transform="matrix(2.56,0,0,1.83051,-2355.2,0)">
                <g transform="matrix(1,-0,-0,1,920,-0)">
                    <path d="M107.777,262.644L113.777,267.144L107.777,271.644L107.777,262.644Z" style="fill:rgb(212,212,212);"/>
                    <path d="M104,116L104,267.144L108.977,267.144" style="fill:none;stroke:rgb(212,212,212);stroke-width:1px;stroke-dasharray:5,4,0,0,0,0;"/>
                </g>
            </g>
            <g transform="matrix(2.38208,0,0,1.83051,-2171.27,0)">
                <g transform="matrix(1.07469,-0,-0,1,911.502,-0)">
                    <path d="M107.777,398.649L113.777,403.149L107.777,407.649L107.777,398.649Z" style="fill:rgb(212,212,212);"/>
                    <path d="M87,116L87,403.149L108.977,403.149" style="fill:none;stroke:rgb(212,212,212);stroke-width:1px;stroke-dasharray:5,4,0,0,0,0;"/>
                </g>
            </g>
            <g transform="matrix(2.56,0,0,1.83051,-2355.2,0)">
                <g transform="matrix(1,-0,-0,1,920,-0)">
                    <path d="M109.185,535.649L115.185,540.149L109.185,544.649L109.185,535.649Z" style="fill:rgb(212,212,212);"/>
                    <path d="M70.79,116L70.79,540.149L110.385,540.149" style="fill:none;stroke:rgb(212,212,212);stroke-width:1px;stroke-dasharray:5,4,0,0,0,0;"/>
                </g>
            </g>
            <g transform="matrix(2.56,0,0,1.83051,-2355.2,0)">
                <g transform="matrix(1,-0,-0,1,920,-0)">
                    <path d="M555,97.492L561,101.992L555,106.492L555,97.492Z"/>
                    <path d="M265.998,267.144L375,267.144L540.152,101.992L556.2,101.992" style="fill:none;stroke:black;stroke-width:1px;stroke-dasharray:5,4,0,0,0,0;"/>
                </g>
            </g>
            <g transform="matrix(2.73188,0,0,1.85999,-2609.76,-11.8874)">
                <g transform="matrix(0.937083,-0,-0,0.984147,955.296,6.3911)">
                    <path d="M555,106.875L561,111.375L555,115.875L555,106.875Z"/>
                    <path d="M265.998,403.149L377.261,403.149L541.791,111.375L556.2,111.375" style="fill:none;stroke:black;stroke-width:1px;stroke-dasharray:5,4,0,0,0,0;"/>
                </g>
            </g>
            <g transform="matrix(1.67524,0,0,1.19787,-706.151,-11.8035)">
                <circle cx="960" cy="417" r="24" style="fill:rgb(160,69,234);"/>
                <g transform="matrix(1,0,0,1,105.169,-31.05)">
                    <g transform="matrix(37,0,0,37,844.912,461)">
                        <path d="M0.031,-0C0.035,-0.06 0.047,-0.113 0.069,-0.157C0.09,-0.202 0.132,-0.242 0.195,-0.279L0.289,-0.333C0.331,-0.357 0.361,-0.378 0.377,-0.396C0.404,-0.423 0.417,-0.453 0.417,-0.488C0.417,-0.529 0.405,-0.561 0.381,-0.585C0.356,-0.609 0.324,-0.621 0.283,-0.621C0.223,-0.621 0.181,-0.598 0.158,-0.553C0.146,-0.528 0.139,-0.494 0.138,-0.451L0.048,-0.451C0.049,-0.512 0.061,-0.562 0.082,-0.6C0.12,-0.668 0.187,-0.702 0.284,-0.702C0.364,-0.702 0.422,-0.68 0.459,-0.637C0.496,-0.593 0.515,-0.545 0.515,-0.492C0.515,-0.436 0.495,-0.388 0.456,-0.349C0.433,-0.326 0.392,-0.298 0.333,-0.265L0.266,-0.228C0.234,-0.21 0.209,-0.193 0.191,-0.177C0.158,-0.149 0.138,-0.118 0.129,-0.083L0.511,-0.083L0.511,-0L0.031,-0Z" style="fill:white;fill-rule:nonzero;"/>
                    </g>
                </g>
            </g>
            <g transform="matrix(1.67524,0,0,1.19787,-706.151,238.456)">
                <circle cx="960" cy="417" r="24" style="fill:rgb(160,69,234);"/>
                <g transform="matrix(1,0,0,1,105.169,-31.05)">
                    <g transform="matrix(37,0,0,37,844.912,461)">
                        <path d="M0.26,0.019C0.177,0.019 0.117,-0.004 0.08,-0.049C0.043,-0.094 0.024,-0.15 0.024,-0.215L0.116,-0.215C0.12,-0.17 0.128,-0.137 0.141,-0.116C0.164,-0.079 0.205,-0.061 0.265,-0.061C0.311,-0.061 0.348,-0.073 0.376,-0.098C0.404,-0.123 0.418,-0.155 0.418,-0.194C0.418,-0.242 0.403,-0.276 0.374,-0.295C0.344,-0.314 0.303,-0.324 0.251,-0.324C0.245,-0.324 0.239,-0.324 0.233,-0.323C0.227,-0.323 0.221,-0.323 0.215,-0.323L0.215,-0.4C0.224,-0.399 0.232,-0.399 0.238,-0.398C0.244,-0.398 0.251,-0.398 0.258,-0.398C0.291,-0.398 0.318,-0.403 0.339,-0.414C0.376,-0.432 0.395,-0.464 0.395,-0.511C0.395,-0.546 0.382,-0.573 0.357,-0.592C0.333,-0.611 0.304,-0.62 0.271,-0.62C0.212,-0.62 0.172,-0.601 0.149,-0.562C0.137,-0.54 0.13,-0.509 0.128,-0.47L0.042,-0.47C0.042,-0.522 0.052,-0.566 0.073,-0.603C0.109,-0.668 0.172,-0.7 0.262,-0.7C0.333,-0.7 0.388,-0.684 0.427,-0.653C0.466,-0.621 0.486,-0.575 0.486,-0.515C0.486,-0.472 0.474,-0.437 0.451,-0.41C0.437,-0.394 0.418,-0.381 0.396,-0.371C0.432,-0.361 0.461,-0.342 0.482,-0.313C0.502,-0.284 0.513,-0.249 0.513,-0.207C0.513,-0.14 0.491,-0.086 0.447,-0.044C0.403,-0.002 0.34,0.019 0.26,0.019Z" style="fill:white;fill-rule:nonzero;"/>
                    </g>
                </g>
            </g>
            <g transform="matrix(2.56,0,0,1.83051,-2355.2,0)">
                <g transform="matrix(1,-0,-0,1,920,-0)">
                    <path d="M555,271.5L561,276L555,280.5L555,271.5Z"/>
                    <path d="M265.998,540.149L368.08,540.149L539,276L556.2,276" style="fill:none;stroke:black;stroke-width:1px;stroke-dasharray:5,4,0,0,0,0;"/>
                </g>
            </g>
            <g transform="matrix(1.67524,0,0,1.19787,-706.151,489.236)">
                <circle cx="960" cy="417" r="24" style="fill:rgb(160,69,234);"/>
                <g transform="matrix(1,0,0,1,105.169,-31.05)">
                    <g transform="matrix(37,0,0,37,844.912,461)">
                        <path d="M0.124,-0.178C0.129,-0.128 0.153,-0.093 0.193,-0.074C0.214,-0.064 0.238,-0.06 0.266,-0.06C0.318,-0.06 0.356,-0.076 0.381,-0.109C0.406,-0.143 0.419,-0.179 0.419,-0.22C0.419,-0.269 0.404,-0.306 0.374,-0.333C0.344,-0.36 0.309,-0.373 0.267,-0.373C0.237,-0.373 0.211,-0.367 0.189,-0.355C0.168,-0.344 0.149,-0.327 0.134,-0.307L0.058,-0.311L0.111,-0.688L0.474,-0.688L0.474,-0.603L0.177,-0.603L0.147,-0.408C0.163,-0.421 0.179,-0.43 0.193,-0.436C0.219,-0.447 0.25,-0.452 0.284,-0.452C0.348,-0.452 0.402,-0.431 0.447,-0.39C0.491,-0.349 0.514,-0.296 0.514,-0.233C0.514,-0.167 0.493,-0.109 0.452,-0.058C0.412,-0.008 0.346,0.018 0.257,0.018C0.2,0.018 0.149,0.002 0.106,-0.031C0.062,-0.063 0.037,-0.112 0.032,-0.178L0.124,-0.178Z" style="fill:white;fill-rule:nonzero;"/>
                    </g>
                </g>
            </g>
            <g transform="matrix(0.53,0,0,0.378972,619.286,311.186)">
                <path d="M215.989,86L215.989,44.323C215.989,22.712 234.002,8 256.168,8L256.344,8C278.51,8 295.989,22.712 295.989,44.323L295.989,86L215.989,86Z" style="fill:rgb(149,156,179);fill-rule:nonzero;"/>
                <path d="M335.989,186L319.989,240L255.989,256L191.989,240L175.989,186L335.989,186Z" style="fill:rgb(149,156,179);fill-rule:nonzero;"/>
                <path d="M367.989,152.938C367.989,165.906 358.102,178.934 345.68,181.888L278.888,199.471C266.466,202.425 246.206,202.434 233.782,199.491L166.485,181.867C154.06,178.924 143.989,165.905 143.989,152.937L143.989,99.967C143.989,87 154.308,88 167.065,88L345.347,88C358.105,88 367.989,95 367.989,107.968L367.989,152.938Z" style="fill:rgb(199,207,226);fill-rule:nonzero;"/>
                <path d="M200.565,240C182.888,240 168.558,254.323 168.558,272C168.558,289.677 182.888,304 200.565,304L231.988,304L231.988,240L200.565,240Z" style="fill:rgb(199,207,226);fill-rule:nonzero;"/>
                <path d="M311.786,240C329.463,240 343.793,254.323 343.793,272C343.793,289.677 329.463,304 311.786,304L279.989,304L279.989,240L311.786,240Z" style="fill:rgb(199,207,226);fill-rule:nonzero;"/>
                <path d="M143.989,104L103.316,104C90.445,104 80.011,115.129 80.011,128C80.011,140.871 90.445,152 103.316,152L143.989,152L143.989,104Z" style="fill:rgb(112,116,135);fill-rule:nonzero;"/>
                <rect x="231.99" y="248" width="48" height="48" style="fill:rgb(255,100,100);"/>
                <circle cx="255.99" cy="144" r="31" style="fill:rgb(255,100,100);"/>
                <path d="M112.087,232C112.101,232 112.115,232.001 112.129,232.001C112.143,232.001 112.157,232 112.171,232L112.087,232Z" style="fill:rgb(149,156,179);fill-rule:nonzero;"/>
                <path d="M112.13,232.001C99.03,232.016 87.989,238.998 87.989,251.566L87.989,311.998C87.989,320.836 95.153,328 103.991,328L119.987,328C128.825,328 135.989,320.836 135.989,311.998L135.989,251.566C135.989,238.998 125.23,232.016 112.13,232.001Z" style="fill:rgb(199,207,226);fill-rule:nonzero;"/>
                <path d="M87.989,296L87.989,311.998C87.989,320.836 95.153,328 103.991,328L119.987,328C128.825,328 135.989,320.836 135.989,311.998L135.989,296L87.989,296Z" style="fill:rgb(112,116,135);fill-rule:nonzero;"/>
                <path d="M367.989,104L408.684,104C421.555,104 431.989,115.129 431.989,128C431.989,140.871 421.555,152 408.684,152L367.989,152L367.989,104Z" style="fill:rgb(112,116,135);fill-rule:nonzero;"/>
                <path d="M399.87,232.001C386.77,232.016 376.011,238.998 376.011,251.566L376.011,311.998C376.011,320.836 383.175,328 392.013,328L408.009,328C416.847,328 424.011,320.836 424.011,311.998L424.011,251.566C424.011,238.998 412.97,232.016 399.87,232.001Z" style="fill:rgb(199,207,226);fill-rule:nonzero;"/>
                <path d="M376.011,296L376.011,311.998C376.011,320.836 383.175,328 392.013,328L408.009,328C416.847,328 424.011,320.836 424.011,311.998L424.011,296L376.011,296Z" style="fill:rgb(112,116,135);fill-rule:nonzero;"/>
                <path d="M195.925,400L188.295,400C168.507,400 151.989,412.622 151.989,432.41L151.989,504L231.989,504L231.989,432.41C231.989,412.622 215.712,400 195.925,400Z" style="fill:rgb(162,170,194);fill-rule:nonzero;"/>
                <rect x="151.99" y="472" width="80" height="32" style="fill:rgb(112,116,135);"/>
                <circle cx="191.99" cy="352" r="16" style="fill:rgb(175,185,210);"/>
                <path d="M323.925,400L316.295,400C296.507,400 279.989,412.622 279.989,432.41L279.989,504L359.989,504L359.989,432.41C359.989,412.622 343.712,400 323.925,400Z" style="fill:rgb(162,170,194);fill-rule:nonzero;"/>
                <rect x="279.99" y="472" width="80" height="32" style="fill:rgb(112,116,135);"/>
                <circle cx="319.99" cy="352" r="16" style="fill:rgb(175,185,210);"/>
                <path d="M407.989,224.758L407.989,160L408.684,160C425.653,160 439.989,145.346 439.989,128C439.989,110.654 425.653,96 408.684,96L373.437,96C368.886,86.197 358.586,80 345.347,80L303.989,80L303.989,44.323C303.989,19.055 283.506,0 256.344,0L256.168,0C228.701,0 207.988,19.055 207.988,44.323L207.988,80L167.065,80C166.214,80 165.374,79.996 164.547,79.991C155.536,79.944 147.038,79.896 141.154,85.749C138.518,88.371 136.891,91.813 136.276,96L103.315,96C86.346,96 72.011,110.654 72.011,128C72.011,145.346 86.346,160 103.315,160L103.988,160L103.988,224.762C89.522,227.55 79.988,237.793 79.988,251.566L79.988,311.998C79.988,325.233 90.755,336 103.99,336L119.986,336C133.221,336 143.988,325.233 143.988,311.998L143.988,251.566C143.988,237.726 134.444,227.452 119.988,224.724L119.988,160L136.729,160C139.627,174.009 150.799,186.328 164.543,189.63L169.071,190.816L182.549,236.303C169.517,242.905 160.558,256.422 160.558,272C160.558,288.146 170.181,302.078 183.988,308.39L183.988,329.376C174.677,332.678 167.988,341.57 167.988,352C167.988,362.43 174.677,371.322 183.988,374.624L183.988,392C183.988,392.06 183.996,392.118 183.997,392.177C160.907,394.026 143.988,410.699 143.988,432.41L143.988,496C139.569,496 135.988,499.582 135.988,504C135.988,508.418 139.569,512 143.988,512L239.988,512C244.406,512 247.988,508.418 247.988,504C247.988,499.582 244.406,496 239.988,496L239.988,432.41C239.988,410.255 223.393,393.858 199.98,392.156C199.981,392.104 199.988,392.053 199.988,392L199.988,374.624C209.299,371.322 215.988,362.43 215.988,352C215.988,341.57 209.299,332.678 199.988,329.376L199.988,311.985C200.181,311.988 200.371,312 200.565,312L231.988,312C236.406,312 239.988,308.418 239.988,304L271.988,304C271.988,308.418 275.569,312 279.988,312L311.785,312C311.853,312 311.92,311.995 311.988,311.995L311.988,329.376C302.677,332.678 295.988,341.57 295.988,352C295.988,362.43 302.677,371.322 311.988,374.624L311.988,392C311.988,392.06 311.996,392.118 311.997,392.177C288.907,394.026 271.988,410.699 271.988,432.41L271.988,496C267.569,496 263.988,499.582 263.988,504C263.988,508.418 267.569,512 271.988,512L367.988,512C372.406,512 375.988,508.418 375.988,504C375.988,499.582 372.406,496 367.988,496L367.988,432.41C367.988,410.255 351.393,393.858 327.98,392.156C327.981,392.104 327.988,392.053 327.988,392L327.988,374.624C337.299,371.322 343.988,362.43 343.988,352C343.988,341.57 337.299,332.678 327.988,329.376L327.988,308.56C341.996,302.33 351.793,288.292 351.793,272C351.793,256.292 342.686,242.676 329.477,236.136L342.881,190.898L347.63,189.648C361.283,186.354 372.378,174.027 375.254,160L391.988,160L391.988,224.728C377.545,227.463 368.011,237.734 368.011,251.566L368.011,295.545C368.003,295.696 367.988,295.846 367.988,295.999C367.988,296.152 368.002,296.302 368.011,296.453L368.011,311.997C368.011,325.232 378.778,335.999 392.013,335.999L408.009,335.999C421.244,335.999 432.011,325.232 432.011,311.997L432.011,251.565C432.011,237.786 422.467,227.54 407.989,224.758ZM119.987,320L103.991,320C99.579,320 95.989,316.41 95.989,311.998L95.989,304L127.989,304L127.989,311.998C127.989,316.41 124.399,320 119.987,320ZM127.989,251.566L127.989,288L95.989,288L95.989,251.566C95.989,243.046 104.671,240.012 112.126,240C114.868,240.005 127.989,240.61 127.989,251.566ZM159.989,496L159.989,480L223.989,480L223.989,496L159.989,496ZM223.989,432.41L223.989,464L159.989,464L159.989,432.41C159.989,415.639 174.662,408 188.295,408L195.925,408C209.441,408 223.989,415.639 223.989,432.41ZM191.989,360C187.578,360 183.989,356.411 183.989,352C183.989,347.589 187.578,344 191.989,344C196.4,344 199.989,347.589 199.989,352C199.989,356.411 196.4,360 191.989,360ZM287.989,496L287.989,480L351.989,480L351.989,496L287.989,496ZM351.989,432.41L351.989,464L287.989,464L287.989,432.41C287.989,415.639 302.662,408 316.295,408L323.925,408C337.441,408 351.989,415.639 351.989,432.41ZM319.989,360C315.578,360 311.989,356.411 311.989,352C311.989,347.589 315.578,344 319.989,344C324.4,344 327.989,347.589 327.989,352C327.989,356.411 324.4,360 319.989,360ZM423.989,128C423.989,136.673 416.98,144 408.684,144L375.989,144L375.989,112L408.684,112C416.98,112 423.989,119.327 423.989,128ZM223.989,44.323C223.989,27.912 237.523,16 256.169,16L256.345,16C274.681,16 287.99,27.912 287.99,44.323L287.99,80L223.99,80L223.989,44.323ZM88.011,128C88.011,119.327 95.019,112 103.315,112L135.988,112L135.988,144L103.315,144C95.02,144 88.011,136.673 88.011,128ZM200.565,296C187.328,296 176.558,285.233 176.558,272C176.558,258.767 187.328,248 200.565,248L223.988,248L223.988,296L200.565,296ZM239.989,288L239.989,256L271.989,256L271.989,288L239.989,288ZM311.786,296L287.989,296L287.989,248L311.786,248C325.024,248 335.793,258.767 335.793,272C335.793,285.233 325.024,296 311.786,296ZM313.996,232.064C313.264,232.024 312.528,232 311.786,232L279.989,232C275.57,232 271.989,235.581 271.989,240L239.989,240C239.989,235.581 236.407,232 231.989,232L200.566,232C199.7,232 198.843,232.037 197.99,232.092L187.164,195.554L231.756,207.232C231.817,207.248 231.878,207.263 231.939,207.277C238.765,208.894 247.518,209.702 256.277,209.702C265.077,209.702 273.884,208.886 280.74,207.255C280.802,207.24 280.864,207.225 280.926,207.209L324.783,195.664L313.996,232.064ZM359.989,152.939C359.989,162.33 352.589,172.023 343.829,174.106C343.767,174.121 343.705,174.136 343.643,174.152L276.947,191.71C265.742,194.352 246.919,194.36 235.713,191.728L168.511,174.129C168.451,174.113 168.39,174.098 168.329,174.084C159.472,171.985 151.989,162.302 151.989,152.939L151.989,99.969C151.989,97.737 152.435,97.098 152.438,97.094C153.575,95.933 160.66,95.973 164.461,95.991C165.316,95.996 166.185,96 167.065,96L345.347,96C349.749,96 359.989,97.166 359.989,107.968L359.989,152.939ZM399.874,240C407.33,240.013 416.012,243.047 416.012,251.566L416.012,288L384.012,288L384.012,251.566C384.011,240.61 397.131,240.005 399.874,240ZM408.01,320L392.014,320C387.602,320 384.012,316.41 384.012,311.998L384.012,304L416.012,304L416.012,311.998C416.011,316.41 412.422,320 408.01,320ZM294.74,134.029C295.569,137.272 295.989,140.625 295.989,143.995C295.989,166.131 277.981,184.139 255.845,184.139C233.709,184.139 215.701,166.131 215.701,143.995C215.701,121.86 233.709,103.851 255.845,103.851C259.286,103.851 262.706,104.289 266.01,105.151C270.285,106.267 272.846,110.637 271.729,114.912C270.613,119.187 266.241,121.751 261.968,120.631C259.983,120.113 257.924,119.85 255.845,119.85C242.532,119.85 231.701,130.68 231.701,143.994C231.701,157.308 242.532,168.138 255.845,168.138C269.158,168.138 279.989,157.307 279.989,143.994C279.989,141.958 279.737,139.938 279.238,137.989C278.144,133.708 280.728,129.351 285.009,128.258C289.288,127.163 293.646,129.749 294.74,134.029ZM279.989,48C279.989,52.418 276.407,56 271.989,56L239.989,56C235.57,56 231.989,52.418 231.989,48C231.989,43.582 235.57,40 239.989,40L271.989,40C276.407,40 279.989,43.582 279.989,48Z" style="fill-rule:nonzero;"/>
            </g>
            <g transform="matrix(0.53,0,0,0.378972,619.286,561.966)">
                <path d="M215.989,86L215.989,44.323C215.989,22.712 234.002,8 256.168,8L256.344,8C278.51,8 295.989,22.712 295.989,44.323L295.989,86L215.989,86Z" style="fill:rgb(149,156,179);fill-rule:nonzero;"/>
                <path d="M335.989,186L319.989,240L255.989,256L191.989,240L175.989,186L335.989,186Z" style="fill:rgb(149,156,179);fill-rule:nonzero;"/>
                <path d="M367.989,152.938C367.989,165.906 358.102,178.934 345.68,181.888L278.888,199.471C266.466,202.425 246.206,202.434 233.782,199.491L166.485,181.867C154.06,178.924 143.989,165.905 143.989,152.937L143.989,99.967C143.989,87 154.308,88 167.065,88L345.347,88C358.105,88 367.989,95 367.989,107.968L367.989,152.938Z" style="fill:rgb(199,207,226);fill-rule:nonzero;"/>
                <path d="M200.565,240C182.888,240 168.558,254.323 168.558,272C168.558,289.677 182.888,304 200.565,304L231.988,304L231.988,240L200.565,240Z" style="fill:rgb(199,207,226);fill-rule:nonzero;"/>
                <path d="M311.786,240C329.463,240 343.793,254.323 343.793,272C343.793,289.677 329.463,304 311.786,304L279.989,304L279.989,240L311.786,240Z" style="fill:rgb(199,207,226);fill-rule:nonzero;"/>
                <path d="M143.989,104L103.316,104C90.445,104 80.011,115.129 80.011,128C80.011,140.871 90.445,152 103.316,152L143.989,152L143.989,104Z" style="fill:rgb(112,116,135);fill-rule:nonzero;"/>
                <rect x="231.99" y="248" width="48" height="48" style="fill:rgb(255,100,100);"/>
                <circle cx="255.99" cy="144" r="31" style="fill:rgb(255,100,100);"/>
                <path d="M112.087,232C112.101,232 112.115,232.001 112.129,232.001C112.143,232.001 112.157,232 112.171,232L112.087,232Z" style="fill:rgb(149,156,179);fill-rule:nonzero;"/>
                <path d="M112.13,232.001C99.03,232.016 87.989,238.998 87.989,251.566L87.989,311.998C87.989,320.836 95.153,328 103.991,328L119.987,328C128.825,328 135.989,320.836 135.989,311.998L135.989,251.566C135.989,238.998 125.23,232.016 112.13,232.001Z" style="fill:rgb(199,207,226);fill-rule:nonzero;"/>
                <path d="M87.989,296L87.989,311.998C87.989,320.836 95.153,328 103.991,328L119.987,328C128.825,328 135.989,320.836 135.989,311.998L135.989,296L87.989,296Z" style="fill:rgb(112,116,135);fill-rule:nonzero;"/>
                <path d="M367.989,104L408.684,104C421.555,104 431.989,115.129 431.989,128C431.989,140.871 421.555,152 408.684,152L367.989,152L367.989,104Z" style="fill:rgb(112,116,135);fill-rule:nonzero;"/>
                <path d="M399.87,232.001C386.77,232.016 376.011,238.998 376.011,251.566L376.011,311.998C376.011,320.836 383.175,328 392.013,328L408.009,328C416.847,328 424.011,320.836 424.011,311.998L424.011,251.566C424.011,238.998 412.97,232.016 399.87,232.001Z" style="fill:rgb(199,207,226);fill-rule:nonzero;"/>
                <path d="M376.011,296L376.011,311.998C376.011,320.836 383.175,328 392.013,328L408.009,328C416.847,328 424.011,320.836 424.011,311.998L424.011,296L376.011,296Z" style="fill:rgb(112,116,135);fill-rule:nonzero;"/>
                <path d="M195.925,400L188.295,400C168.507,400 151.989,412.622 151.989,432.41L151.989,504L231.989,504L231.989,432.41C231.989,412.622 215.712,400 195.925,400Z" style="fill:rgb(162,170,194);fill-rule:nonzero;"/>
                <rect x="151.99" y="472" width="80" height="32" style="fill:rgb(112,116,135);"/>
                <circle cx="191.99" cy="352" r="16" style="fill:rgb(175,185,210);"/>
                <path d="M323.925,400L316.295,400C296.507,400 279.989,412.622 279.989,432.41L279.989,504L359.989,504L359.989,432.41C359.989,412.622 343.712,400 323.925,400Z" style="fill:rgb(162,170,194);fill-rule:nonzero;"/>
                <rect x="279.99" y="472" width="80" height="32" style="fill:rgb(112,116,135);"/>
                <circle cx="319.99" cy="352" r="16" style="fill:rgb(175,185,210);"/>
                <path d="M407.989,224.758L407.989,160L408.684,160C425.653,160 439.989,145.346 439.989,128C439.989,110.654 425.653,96 408.684,96L373.437,96C368.886,86.197 358.586,80 345.347,80L303.989,80L303.989,44.323C303.989,19.055 283.506,0 256.344,0L256.168,0C228.701,0 207.988,19.055 207.988,44.323L207.988,80L167.065,80C166.214,80 165.374,79.996 164.547,79.991C155.536,79.944 147.038,79.896 141.154,85.749C138.518,88.371 136.891,91.813 136.276,96L103.315,96C86.346,96 72.011,110.654 72.011,128C72.011,145.346 86.346,160 103.315,160L103.988,160L103.988,224.762C89.522,227.55 79.988,237.793 79.988,251.566L79.988,311.998C79.988,325.233 90.755,336 103.99,336L119.986,336C133.221,336 143.988,325.233 143.988,311.998L143.988,251.566C143.988,237.726 134.444,227.452 119.988,224.724L119.988,160L136.729,160C139.627,174.009 150.799,186.328 164.543,189.63L169.071,190.816L182.549,236.303C169.517,242.905 160.558,256.422 160.558,272C160.558,288.146 170.181,302.078 183.988,308.39L183.988,329.376C174.677,332.678 167.988,341.57 167.988,352C167.988,362.43 174.677,371.322 183.988,374.624L183.988,392C183.988,392.06 183.996,392.118 183.997,392.177C160.907,394.026 143.988,410.699 143.988,432.41L143.988,496C139.569,496 135.988,499.582 135.988,504C135.988,508.418 139.569,512 143.988,512L239.988,512C244.406,512 247.988,508.418 247.988,504C247.988,499.582 244.406,496 239.988,496L239.988,432.41C239.988,410.255 223.393,393.858 199.98,392.156C199.981,392.104 199.988,392.053 199.988,392L199.988,374.624C209.299,371.322 215.988,362.43 215.988,352C215.988,341.57 209.299,332.678 199.988,329.376L199.988,311.985C200.181,311.988 200.371,312 200.565,312L231.988,312C236.406,312 239.988,308.418 239.988,304L271.988,304C271.988,308.418 275.569,312 279.988,312L311.785,312C311.853,312 311.92,311.995 311.988,311.995L311.988,329.376C302.677,332.678 295.988,341.57 295.988,352C295.988,362.43 302.677,371.322 311.988,374.624L311.988,392C311.988,392.06 311.996,392.118 311.997,392.177C288.907,394.026 271.988,410.699 271.988,432.41L271.988,496C267.569,496 263.988,499.582 263.988,504C263.988,508.418 267.569,512 271.988,512L367.988,512C372.406,512 375.988,508.418 375.988,504C375.988,499.582 372.406,496 367.988,496L367.988,432.41C367.988,410.255 351.393,393.858 327.98,392.156C327.981,392.104 327.988,392.053 327.988,392L327.988,374.624C337.299,371.322 343.988,362.43 343.988,352C343.988,341.57 337.299,332.678 327.988,329.376L327.988,308.56C341.996,302.33 351.793,288.292 351.793,272C351.793,256.292 342.686,242.676 329.477,236.136L342.881,190.898L347.63,189.648C361.283,186.354 372.378,174.027 375.254,160L391.988,160L391.988,224.728C377.545,227.463 368.011,237.734 368.011,251.566L368.011,295.545C368.003,295.696 367.988,295.846 367.988,295.999C367.988,296.152 368.002,296.302 368.011,296.453L368.011,311.997C368.011,325.232 378.778,335.999 392.013,335.999L408.009,335.999C421.244,335.999 432.011,325.232 432.011,311.997L432.011,251.565C432.011,237.786 422.467,227.54 407.989,224.758ZM119.987,320L103.991,320C99.579,320 95.989,316.41 95.989,311.998L95.989,304L127.989,304L127.989,311.998C127.989,316.41 124.399,320 119.987,320ZM127.989,251.566L127.989,288L95.989,288L95.989,251.566C95.989,243.046 104.671,240.012 112.126,240C114.868,240.005 127.989,240.61 127.989,251.566ZM159.989,496L159.989,480L223.989,480L223.989,496L159.989,496ZM223.989,432.41L223.989,464L159.989,464L159.989,432.41C159.989,415.639 174.662,408 188.295,408L195.925,408C209.441,408 223.989,415.639 223.989,432.41ZM191.989,360C187.578,360 183.989,356.411 183.989,352C183.989,347.589 187.578,344 191.989,344C196.4,344 199.989,347.589 199.989,352C199.989,356.411 196.4,360 191.989,360ZM287.989,496L287.989,480L351.989,480L351.989,496L287.989,496ZM351.989,432.41L351.989,464L287.989,464L287.989,432.41C287.989,415.639 302.662,408 316.295,408L323.925,408C337.441,408 351.989,415.639 351.989,432.41ZM319.989,360C315.578,360 311.989,356.411 311.989,352C311.989,347.589 315.578,344 319.989,344C324.4,344 327.989,347.589 327.989,352C327.989,356.411 324.4,360 319.989,360ZM423.989,128C423.989,136.673 416.98,144 408.684,144L375.989,144L375.989,112L408.684,112C416.98,112 423.989,119.327 423.989,128ZM223.989,44.323C223.989,27.912 237.523,16 256.169,16L256.345,16C274.681,16 287.99,27.912 287.99,44.323L287.99,80L223.99,80L223.989,44.323ZM88.011,128C88.011,119.327 95.019,112 103.315,112L135.988,112L135.988,144L103.315,144C95.02,144 88.011,136.673 88.011,128ZM200.565,296C187.328,296 176.558,285.233 176.558,272C176.558,258.767 187.328,248 200.565,248L223.988,248L223.988,296L200.565,296ZM239.989,288L239.989,256L271.989,256L271.989,288L239.989,288ZM311.786,296L287.989,296L287.989,248L311.786,248C325.024,248 335.793,258.767 335.793,272C335.793,285.233 325.024,296 311.786,296ZM313.996,232.064C313.264,232.024 312.528,232 311.786,232L279.989,232C275.57,232 271.989,235.581 271.989,240L239.989,240C239.989,235.581 236.407,232 231.989,232L200.566,232C199.7,232 198.843,232.037 197.99,232.092L187.164,195.554L231.756,207.232C231.817,207.248 231.878,207.263 231.939,207.277C238.765,208.894 247.518,209.702 256.277,209.702C265.077,209.702 273.884,208.886 280.74,207.255C280.802,207.24 280.864,207.225 280.926,207.209L324.783,195.664L313.996,232.064ZM359.989,152.939C359.989,162.33 352.589,172.023 343.829,174.106C343.767,174.121 343.705,174.136 343.643,174.152L276.947,191.71C265.742,194.352 246.919,194.36 235.713,191.728L168.511,174.129C168.451,174.113 168.39,174.098 168.329,174.084C159.472,171.985 151.989,162.302 151.989,152.939L151.989,99.969C151.989,97.737 152.435,97.098 152.438,97.094C153.575,95.933 160.66,95.973 164.461,95.991C165.316,95.996 166.185,96 167.065,96L345.347,96C349.749,96 359.989,97.166 359.989,107.968L359.989,152.939ZM399.874,240C407.33,240.013 416.012,243.047 416.012,251.566L416.012,288L384.012,288L384.012,251.566C384.011,240.61 397.131,240.005 399.874,240ZM408.01,320L392.014,320C387.602,320 384.012,316.41 384.012,311.998L384.012,304L416.012,304L416.012,311.998C416.011,316.41 412.422,320 408.01,320ZM294.74,134.029C295.569,137.272 295.989,140.625 295.989,143.995C295.989,166.131 277.981,184.139 255.845,184.139C233.709,184.139 215.701,166.131 215.701,143.995C215.701,121.86 233.709,103.851 255.845,103.851C259.286,103.851 262.706,104.289 266.01,105.151C270.285,106.267 272.846,110.637 271.729,114.912C270.613,119.187 266.241,121.751 261.968,120.631C259.983,120.113 257.924,119.85 255.845,119.85C242.532,119.85 231.701,130.68 231.701,143.994C231.701,157.308 242.532,168.138 255.845,168.138C269.158,168.138 279.989,157.307 279.989,143.994C279.989,141.958 279.737,139.938 279.238,137.989C278.144,133.708 280.728,129.351 285.009,128.258C289.288,127.163 293.646,129.749 294.74,134.029ZM279.989,48C279.989,52.418 276.407,56 271.989,56L239.989,56C235.57,56 231.989,52.418 231.989,48C231.989,43.582 235.57,40 239.989,40L271.989,40C276.407,40 279.989,43.582 279.989,48Z" style="fill-rule:nonzero;"/>
            </g>
            <g transform="matrix(0.53,0,0,0.378972,619.286,812.746)">
                <path d="M215.989,86L215.989,44.323C215.989,22.712 234.002,8 256.168,8L256.344,8C278.51,8 295.989,22.712 295.989,44.323L295.989,86L215.989,86Z" style="fill:rgb(149,156,179);fill-rule:nonzero;"/>
                <path d="M335.989,186L319.989,240L255.989,256L191.989,240L175.989,186L335.989,186Z" style="fill:rgb(149,156,179);fill-rule:nonzero;"/>
                <path d="M367.989,152.938C367.989,165.906 358.102,178.934 345.68,181.888L278.888,199.471C266.466,202.425 246.206,202.434 233.782,199.491L166.485,181.867C154.06,178.924 143.989,165.905 143.989,152.937L143.989,99.967C143.989,87 154.308,88 167.065,88L345.347,88C358.105,88 367.989,95 367.989,107.968L367.989,152.938Z" style="fill:rgb(199,207,226);fill-rule:nonzero;"/>
                <path d="M200.565,240C182.888,240 168.558,254.323 168.558,272C168.558,289.677 182.888,304 200.565,304L231.988,304L231.988,240L200.565,240Z" style="fill:rgb(199,207,226);fill-rule:nonzero;"/>
                <path d="M311.786,240C329.463,240 343.793,254.323 343.793,272C343.793,289.677 329.463,304 311.786,304L279.989,304L279.989,240L311.786,240Z" style="fill:rgb(199,207,226);fill-rule:nonzero;"/>
                <path d="M143.989,104L103.316,104C90.445,104 80.011,115.129 80.011,128C80.011,140.871 90.445,152 103.316,152L143.989,152L143.989,104Z" style="fill:rgb(112,116,135);fill-rule:nonzero;"/>
                <rect x="231.99" y="248" width="48" height="48" style="fill:rgb(255,100,100);"/>
                <circle cx="255.99" cy="144" r="31" style="fill:rgb(255,100,100);"/>
                <path d="M112.087,232C112.101,232 112.115,232.001 112.129,232.001C112.143,232.001 112.157,232 112.171,232L112.087,232Z" style="fill:rgb(149,156,179);fill-rule:nonzero;"/>
                <path d="M112.13,232.001C99.03,232.016 87.989,238.998 87.989,251.566L87.989,311.998C87.989,320.836 95.153,328 103.991,328L119.987,328C128.825,328 135.989,320.836 135.989,311.998L135.989,251.566C135.989,238.998 125.23,232.016 112.13,232.001Z" style="fill:rgb(199,207,226);fill-rule:nonzero;"/>
                <path d="M87.989,296L87.989,311.998C87.989,320.836 95.153,328 103.991,328L119.987,328C128.825,328 135.989,320.836 135.989,311.998L135.989,296L87.989,296Z" style="fill:rgb(112,116,135);fill-rule:nonzero;"/>
                <path d="M367.989,104L408.684,104C421.555,104 431.989,115.129 431.989,128C431.989,140.871 421.555,152 408.684,152L367.989,152L367.989,104Z" style="fill:rgb(112,116,135);fill-rule:nonzero;"/>
                <path d="M399.87,232.001C386.77,232.016 376.011,238.998 376.011,251.566L376.011,311.998C376.011,320.836 383.175,328 392.013,328L408.009,328C416.847,328 424.011,320.836 424.011,311.998L424.011,251.566C424.011,238.998 412.97,232.016 399.87,232.001Z" style="fill:rgb(199,207,226);fill-rule:nonzero;"/>
                <path d="M376.011,296L376.011,311.998C376.011,320.836 383.175,328 392.013,328L408.009,328C416.847,328 424.011,320.836 424.011,311.998L424.011,296L376.011,296Z" style="fill:rgb(112,116,135);fill-rule:nonzero;"/>
                <path d="M195.925,400L188.295,400C168.507,400 151.989,412.622 151.989,432.41L151.989,504L231.989,504L231.989,432.41C231.989,412.622 215.712,400 195.925,400Z" style="fill:rgb(162,170,194);fill-rule:nonzero;"/>
                <rect x="151.99" y="472" width="80" height="32" style="fill:rgb(112,116,135);"/>
                <circle cx="191.99" cy="352" r="16" style="fill:rgb(175,185,210);"/>
                <path d="M323.925,400L316.295,400C296.507,400 279.989,412.622 279.989,432.41L279.989,504L359.989,504L359.989,432.41C359.989,412.622 343.712,400 323.925,400Z" style="fill:rgb(162,170,194);fill-rule:nonzero;"/>
                <rect x="279.99" y="472" width="80" height="32" style="fill:rgb(112,116,135);"/>
                <circle cx="319.99" cy="352" r="16" style="fill:rgb(175,185,210);"/>
                <path d="M407.989,224.758L407.989,160L408.684,160C425.653,160 439.989,145.346 439.989,128C439.989,110.654 425.653,96 408.684,96L373.437,96C368.886,86.197 358.586,80 345.347,80L303.989,80L303.989,44.323C303.989,19.055 283.506,0 256.344,0L256.168,0C228.701,0 207.988,19.055 207.988,44.323L207.988,80L167.065,80C166.214,80 165.374,79.996 164.547,79.991C155.536,79.944 147.038,79.896 141.154,85.749C138.518,88.371 136.891,91.813 136.276,96L103.315,96C86.346,96 72.011,110.654 72.011,128C72.011,145.346 86.346,160 103.315,160L103.988,160L103.988,224.762C89.522,227.55 79.988,237.793 79.988,251.566L79.988,311.998C79.988,325.233 90.755,336 103.99,336L119.986,336C133.221,336 143.988,325.233 143.988,311.998L143.988,251.566C143.988,237.726 134.444,227.452 119.988,224.724L119.988,160L136.729,160C139.627,174.009 150.799,186.328 164.543,189.63L169.071,190.816L182.549,236.303C169.517,242.905 160.558,256.422 160.558,272C160.558,288.146 170.181,302.078 183.988,308.39L183.988,329.376C174.677,332.678 167.988,341.57 167.988,352C167.988,362.43 174.677,371.322 183.988,374.624L183.988,392C183.988,392.06 183.996,392.118 183.997,392.177C160.907,394.026 143.988,410.699 143.988,432.41L143.988,496C139.569,496 135.988,499.582 135.988,504C135.988,508.418 139.569,512 143.988,512L239.988,512C244.406,512 247.988,508.418 247.988,504C247.988,499.582 244.406,496 239.988,496L239.988,432.41C239.988,410.255 223.393,393.858 199.98,392.156C199.981,392.104 199.988,392.053 199.988,392L199.988,374.624C209.299,371.322 215.988,362.43 215.988,352C215.988,341.57 209.299,332.678 199.988,329.376L199.988,311.985C200.181,311.988 200.371,312 200.565,312L231.988,312C236.406,312 239.988,308.418 239.988,304L271.988,304C271.988,308.418 275.569,312 279.988,312L311.785,312C311.853,312 311.92,311.995 311.988,311.995L311.988,329.376C302.677,332.678 295.988,341.57 295.988,352C295.988,362.43 302.677,371.322 311.988,374.624L311.988,392C311.988,392.06 311.996,392.118 311.997,392.177C288.907,394.026 271.988,410.699 271.988,432.41L271.988,496C267.569,496 263.988,499.582 263.988,504C263.988,508.418 267.569,512 271.988,512L367.988,512C372.406,512 375.988,508.418 375.988,504C375.988,499.582 372.406,496 367.988,496L367.988,432.41C367.988,410.255 351.393,393.858 327.98,392.156C327.981,392.104 327.988,392.053 327.988,392L327.988,374.624C337.299,371.322 343.988,362.43 343.988,352C343.988,341.57 337.299,332.678 327.988,329.376L327.988,308.56C341.996,302.33 351.793,288.292 351.793,272C351.793,256.292 342.686,242.676 329.477,236.136L342.881,190.898L347.63,189.648C361.283,186.354 372.378,174.027 375.254,160L391.988,160L391.988,224.728C377.545,227.463 368.011,237.734 368.011,251.566L368.011,295.545C368.003,295.696 367.988,295.846 367.988,295.999C367.988,296.152 368.002,296.302 368.011,296.453L368.011,311.997C368.011,325.232 378.778,335.999 392.013,335.999L408.009,335.999C421.244,335.999 432.011,325.232 432.011,311.997L432.011,251.565C432.011,237.786 422.467,227.54 407.989,224.758ZM119.987,320L103.991,320C99.579,320 95.989,316.41 95.989,311.998L95.989,304L127.989,304L127.989,311.998C127.989,316.41 124.399,320 119.987,320ZM127.989,251.566L127.989,288L95.989,288L95.989,251.566C95.989,243.046 104.671,240.012 112.126,240C114.868,240.005 127.989,240.61 127.989,251.566ZM159.989,496L159.989,480L223.989,480L223.989,496L159.989,496ZM223.989,432.41L223.989,464L159.989,464L159.989,432.41C159.989,415.639 174.662,408 188.295,408L195.925,408C209.441,408 223.989,415.639 223.989,432.41ZM191.989,360C187.578,360 183.989,356.411 183.989,352C183.989,347.589 187.578,344 191.989,344C196.4,344 199.989,347.589 199.989,352C199.989,356.411 196.4,360 191.989,360ZM287.989,496L287.989,480L351.989,480L351.989,496L287.989,496ZM351.989,432.41L351.989,464L287.989,464L287.989,432.41C287.989,415.639 302.662,408 316.295,408L323.925,408C337.441,408 351.989,415.639 351.989,432.41ZM319.989,360C315.578,360 311.989,356.411 311.989,352C311.989,347.589 315.578,344 319.989,344C324.4,344 327.989,347.589 327.989,352C327.989,356.411 324.4,360 319.989,360ZM423.989,128C423.989,136.673 416.98,144 408.684,144L375.989,144L375.989,112L408.684,112C416.98,112 423.989,119.327 423.989,128ZM223.989,44.323C223.989,27.912 237.523,16 256.169,16L256.345,16C274.681,16 287.99,27.912 287.99,44.323L287.99,80L223.99,80L223.989,44.323ZM88.011,128C88.011,119.327 95.019,112 103.315,112L135.988,112L135.988,144L103.315,144C95.02,144 88.011,136.673 88.011,128ZM200.565,296C187.328,296 176.558,285.233 176.558,272C176.558,258.767 187.328,248 200.565,248L223.988,248L223.988,296L200.565,296ZM239.989,288L239.989,256L271.989,256L271.989,288L239.989,288ZM311.786,296L287.989,296L287.989,248L311.786,248C325.024,248 335.793,258.767 335.793,272C335.793,285.233 325.024,296 311.786,296ZM313.996,232.064C313.264,232.024 312.528,232 311.786,232L279.989,232C275.57,232 271.989,235.581 271.989,240L239.989,240C239.989,235.581 236.407,232 231.989,232L200.566,232C199.7,232 198.843,232.037 197.99,232.092L187.164,195.554L231.756,207.232C231.817,207.248 231.878,207.263 231.939,207.277C238.765,208.894 247.518,209.702 256.277,209.702C265.077,209.702 273.884,208.886 280.74,207.255C280.802,207.24 280.864,207.225 280.926,207.209L324.783,195.664L313.996,232.064ZM359.989,152.939C359.989,162.33 352.589,172.023 343.829,174.106C343.767,174.121 343.705,174.136 343.643,174.152L276.947,191.71C265.742,194.352 246.919,194.36 235.713,191.728L168.511,174.129C168.451,174.113 168.39,174.098 168.329,174.084C159.472,171.985 151.989,162.302 151.989,152.939L151.989,99.969C151.989,97.737 152.435,97.098 152.438,97.094C153.575,95.933 160.66,95.973 164.461,95.991C165.316,95.996 166.185,96 167.065,96L345.347,96C349.749,96 359.989,97.166 359.989,107.968L359.989,152.939ZM399.874,240C407.33,240.013 416.012,243.047 416.012,251.566L416.012,288L384.012,288L384.012,251.566C384.011,240.61 397.131,240.005 399.874,240ZM408.01,320L392.014,320C387.602,320 384.012,316.41 384.012,311.998L384.012,304L416.012,304L416.012,311.998C416.011,316.41 412.422,320 408.01,320ZM294.74,134.029C295.569,137.272 295.989,140.625 295.989,143.995C295.989,166.131 277.981,184.139 255.845,184.139C233.709,184.139 215.701,166.131 215.701,143.995C215.701,121.86 233.709,103.851 255.845,103.851C259.286,103.851 262.706,104.289 266.01,105.151C270.285,106.267 272.846,110.637 271.729,114.912C270.613,119.187 266.241,121.751 261.968,120.631C259.983,120.113 257.924,119.85 255.845,119.85C242.532,119.85 231.701,130.68 231.701,143.994C231.701,157.308 242.532,168.138 255.845,168.138C269.158,168.138 279.989,157.307 279.989,143.994C279.989,141.958 279.737,139.938 279.238,137.989C278.144,133.708 280.728,129.351 285.009,128.258C289.288,127.163 293.646,129.749 294.74,134.029ZM279.989,48C279.989,52.418 276.407,56 271.989,56L239.989,56C235.57,56 231.989,52.418 231.989,48C231.989,43.582 235.57,40 239.989,40L271.989,40C276.407,40 279.989,43.582 279.989,48Z" style="fill-rule:nonzero;"/>
            </g>
        </g>
    </g>
</svg>
