<svg xmlns="http://www.w3.org/2000/svg" xmlns:xlink="http://www.w3.org/1999/xlink" width="656" height="351" fill-rule="evenodd" stroke-linecap="round" stroke-linejoin="round" stroke-miterlimit="1.5" xmlns:v="https://vecta.io/nano"><g stroke="#000" stroke-width="8.336"><path d="M24.764 87.224H227.16v124.771H24.764zm0 134.296H227.16v124.771H24.764zm211.92-134.296H439.08v124.771H236.684z" fill="#fff"/><path d="M236.684 221.996H439.08v124.771H236.684z" fill="#3c6"/><path d="M448.604 87.224H651v124.771H448.604zm0 134.772H651v124.771H448.604z" fill="#fff"/></g><g fill-rule="nonzero"><path d="M8.084 2.416c1.691 0 3.167.286 4.453.81L11.489 5.75c-.881-.333-1.81-.476-2.786-.476-.786 0-1.333.119-1.643.405-.333.286-.5.738-.5 1.381v1.738h4.215l-.429 2.667H6.561v9.477H2.727v-9.477H-.011V8.798h2.738V6.917c0-.857.19-1.643.619-2.31.405-.691 1.024-1.214 1.833-1.619.81-.381 1.786-.571 2.905-.571zm12.01-.619c.429 0 .833.095 1.167.286s.619.452.81.786.286.691.286 1.095-.095.786-.286 1.119-.476.595-.81.786c-.357.19-.738.286-1.167.286-.452 0-.833-.095-1.191-.286a1.98 1.98 0 0 1-.81-.786c-.214-.333-.31-.714-.31-1.119s.095-.762.31-1.095a1.98 1.98 0 0 1 .81-.786 2.45 2.45 0 0 1 1.191-.286zm-5.096 7.001h7.429v9.501h3.286v2.643H14.88v-2.643h3.691v-6.834h-3.572V8.798zm26.559-.072c-.429.19-.976.31-1.572.405a18.81 18.81 0 0 1-2.167.119c.857.357 1.476.786 1.881 1.31.429.524.643 1.214.643 2.024a3.89 3.89 0 0 1-.691 2.238c-.452.667-1.095 1.167-1.929 1.548s-1.786.548-2.881.548c-.548 0-1.048-.048-1.5-.143a.84.84 0 0 0-.333.31.94.94 0 0 0-.095.429.69.69 0 0 0 .286.595c.19.143.571.214 1.143.214h2.119c.976 0 1.857.143 2.595.476.762.333 1.333.762 1.738 1.333s.619 1.214.619 1.929c0 .905-.262 1.667-.786 2.31s-1.31 1.119-2.334 1.476c-1.048.333-2.31.5-3.834.5-1.595 0-2.857-.167-3.786-.5-.905-.31-1.548-.786-1.929-1.381-.357-.619-.548-1.357-.548-2.286h3.405c0 .405.095.714.238.952.167.238.452.405.881.524.429.095 1.048.167 1.833.167 1.143 0 1.929-.143 2.357-.405.452-.238.667-.619.667-1.095a1.13 1.13 0 0 0-.476-.929c-.309-.238-.786-.333-1.405-.333h-2.072c-.905 0-1.643-.119-2.238-.357-.619-.238-1.048-.548-1.333-.929-.286-.405-.429-.833-.429-1.31a2.69 2.69 0 0 1 .381-1.381 3.29 3.29 0 0 1 1.072-1.072c-.81-.429-1.405-.952-1.762-1.548s-.548-1.31-.548-2.167c0-.952.238-1.786.738-2.5s1.167-1.262 2.048-1.643c.881-.405 1.881-.595 3-.595a12.8 12.8 0 0 0 2.453-.167c.714-.143 1.357-.357 1.905-.595.524-.238 1.119-.524 1.738-.905l.905 2.834zm-6.881 1.357c-.619 0-1.095.19-1.452.571s-.548.905-.548 1.595.19 1.238.548 1.643c.357.381.833.571 1.452.571.643 0 1.119-.19 1.452-.571.357-.381.524-.952.524-1.691 0-.714-.167-1.262-.5-1.595-.333-.357-.833-.524-1.476-.524zm12.01 8.549a2.55 2.55 0 0 1 .381-1.357c.238-.405.571-.738 1-1 .405-.238.857-.357 1.357-.357.476 0 .929.119 1.357.357a3.34 3.34 0 0 1 1 1c.238.429.357.881.357 1.357 0 .5-.119.952-.357 1.357a3.34 3.34 0 0 1-1 1c-.429.238-.881.357-1.357.357-.5 0-.952-.119-1.357-.357-.429-.262-.762-.595-1-1-.262-.405-.381-.857-.381-1.357zm22.678-1.429c0 .476.071.833.19 1.048.143.238.357.405.667.524l-.786 2.524c-.786-.071-1.452-.238-1.953-.5a3.3 3.3 0 0 1-1.238-1.191c-.476.571-1.095 1-1.857 1.31a6.73 6.73 0 0 1-2.405.429c-.881 0-1.643-.167-2.31-.5-.667-.357-1.167-.833-1.548-1.452-.357-.619-.524-1.31-.524-2.119 0-.929.238-1.714.738-2.381s1.214-1.167 2.167-1.5c.952-.357 2.072-.524 3.405-.524h1.738v-.476c0-1.333-.857-2-2.548-2-.429 0-.976.048-1.643.19a14.37 14.37 0 0 0-1.929.5l-.881-2.572a14.58 14.58 0 0 1 2.572-.714c.905-.167 1.738-.262 2.476-.262 1.905 0 3.334.405 4.262 1.167.952.786 1.405 1.905 1.405 3.429v5.072zm-6.048 1.405c.429 0 .881-.143 1.333-.405.452-.238.786-.595 1-1.024V15.06h-.952c-1.048 0-1.833.167-2.357.5-.5.333-.762.81-.762 1.452 0 .5.143.881.452 1.167s.738.429 1.286.429z"/><use xlink:href="#A"/><use xlink:href="#A" x="14.653"/><path d="M101.917 22.465h12.215v3.024h-12.215zm20.344-3.857c.667 0 1.191-.119 1.572-.333.381-.19.595-.5.595-.905a1.05 1.05 0 0 0-.238-.691c-.167-.19-.452-.357-.881-.524-.405-.167-1.072-.381-1.976-.619-1.286-.357-2.286-.833-2.976-1.452-.691-.595-1.024-1.452-1.024-2.524 0-.786.214-1.476.643-2.095.429-.595 1.072-1.072 1.929-1.405.833-.333 1.857-.524 3.048-.524 2.048 0 3.81.524 5.238 1.595l-1.524 2.262c-.571-.333-1.143-.619-1.762-.81a6.25 6.25 0 0 0-1.833-.286c-.643 0-1.095.071-1.405.238a.81.81 0 0 0-.452.762.77.77 0 0 0 .238.571c.143.143.429.31.857.476s1.072.381 1.953.619c.952.262 1.714.548 2.286.857.595.31 1.048.738 1.381 1.262.333.5.5 1.167.5 1.976 0 .929-.286 1.691-.833 2.357-.548.643-1.286 1.119-2.214 1.452s-1.953.476-3.095.476c-1.214 0-2.286-.167-3.262-.5-.976-.357-1.81-.833-2.5-1.452l1.929-2.167c.548.429 1.143.762 1.786 1a5.77 5.77 0 0 0 2.024.381zm13.32-1.762c0 .619.095 1.024.333 1.286.214.238.548.357.976.357.405 0 .81-.119 1.191-.357.405-.262.738-.595 1.024-1.048v-9.12h3.857v12.977h-3.381l-.167-1.524a4.2 4.2 0 0 1-1.714 1.429c-.714.333-1.452.5-2.262.5-1.238 0-2.167-.333-2.786-1.048s-.929-1.691-.929-2.976V7.964h3.857v8.882zm14.653-7.548a4.48 4.48 0 0 1 1.476-1.286 3.82 3.82 0 0 1 1.833-.476c1.619 0 2.834.619 3.619 1.81.786 1.214 1.167 2.905 1.167 5.072 0 1.357-.19 2.548-.595 3.595s-1 1.857-1.762 2.453c-.786.595-1.714.881-2.834.881-.643 0-1.238-.119-1.81-.405a3.63 3.63 0 0 1-1.381-1.167l-.167 1.167h-3.405V2.821l3.857-.405v6.881zm1.905 9.239c1.476 0 2.214-1.357 2.214-4.072 0-1.048-.071-1.857-.238-2.453s-.405-1.024-.691-1.262a1.73 1.73 0 0 0-1.095-.357c-.786 0-1.5.5-2.095 1.5v5.477c.238.381.524.691.833.881s.667.286 1.072.286zm16.058-11.001c1.643 0 2.834.595 3.595 1.81.762 1.191 1.143 2.881 1.143 5.072 0 1.357-.19 2.548-.595 3.595-.381 1.048-.952 1.857-1.714 2.453-.738.595-1.643.881-2.667.881-1.262 0-2.286-.452-3.072-1.333v5.929l-3.857.405V7.964h3.405l.19 1.452c.5-.643 1.048-1.119 1.667-1.405.619-.31 1.262-.476 1.905-.476zm-1.191 2.857a1.9 1.9 0 0 0-1.167.381 3.79 3.79 0 0 0-.952 1.119v5.477c.262.405.571.691.857.881s.643.262 1.048.262c.714 0 1.238-.31 1.619-.952.357-.643.548-1.667.548-3.095 0-1.048-.071-1.857-.214-2.453-.167-.595-.381-1.024-.667-1.262s-.643-.357-1.072-.357zm15.439 6.477c0 .5.143.857.429 1.095s.714.357 1.238.357c.595 0 1.191-.143 1.833-.405l.929 2.595c-1.072.548-2.334.833-3.738.833-1.524 0-2.667-.429-3.429-1.31-.738-.857-1.119-2.095-1.119-3.643V5.464h-3.834V2.821h7.691V16.87zm13.51-9.334c1.31 0 2.429.286 3.381.857s1.667 1.357 2.167 2.405c.5 1.024.738 2.238.738 3.619 0 1.452-.238 2.691-.738 3.715a5.6 5.6 0 0 1-2.167 2.405c-.952.548-2.072.81-3.381.81-1.333 0-2.453-.262-3.405-.81s-1.667-1.333-2.167-2.381c-.476-1.024-.738-2.262-.738-3.715 0-1.381.262-2.572.762-3.619.5-1.024 1.214-1.833 2.167-2.405.952-.595 2.072-.881 3.381-.881zm0 2.857c-.786 0-1.381.333-1.762.976s-.571 1.667-.571 3.072c0 1.429.19 2.476.571 3.119s.952.952 1.762.952c.786 0 1.381-.31 1.762-.976.357-.643.548-1.691.548-3.119 0-1.381-.19-2.405-.571-3.048s-.952-.976-1.738-.976zm20.701 9.787c-.548.357-1.167.643-1.905.857-.714.214-1.5.31-2.334.31-1.667 0-2.929-.405-3.762-1.262-.833-.833-1.262-2.024-1.262-3.572v-5.881h-2.714V7.964h2.714v-2.81l3.857-.452v3.262h4.191l-.381 2.667h-3.81v5.881c0 .643.143 1.119.452 1.381.286.286.738.429 1.405.429.81 0 1.572-.19 2.262-.595l1.286 2.453zm7.629-7.787c0 1.357.143 2.595.429 3.667s.762 2.143 1.429 3.191 1.595 2.214 2.786 3.5l-2.238 2.048c-1.357-1.167-2.5-2.381-3.429-3.595a15.14 15.14 0 0 1-2.119-4.024c-.5-1.452-.762-3.048-.762-4.786s.262-3.334.762-4.786a15.14 15.14 0 0 1 2.119-4.024c.929-1.214 2.072-2.429 3.429-3.572l2.238 2.024c-1.119 1.214-2.024 2.357-2.691 3.405-.667 1.072-1.167 2.167-1.476 3.262-.31 1.119-.476 2.357-.476 3.691z"/><path d="M239.319 3.583c1.238 0 2.286.238 3.167.667s1.548 1.024 2 1.762.667 1.548.667 2.429c0 .929-.214 1.81-.619 2.691-.429.857-1.119 1.833-2.095 2.881-.976 1.072-2.334 2.405-4.119 3.976h7.239l-.429 2.953H233.89v-2.738l4.5-4.5c1-1.095 1.714-2.024 2.167-2.786.452-.738.667-1.452.667-2.143s-.19-1.238-.595-1.619c-.405-.405-.952-.595-1.667-.595-.643 0-1.191.143-1.667.405s-.952.691-1.381 1.31l-2.357-1.786c.667-.929 1.452-1.643 2.405-2.143.929-.5 2.048-.762 3.357-.762z" fill="#09f"/><use xlink:href="#B"/><path d="M283.185 3.583c1.191 0 2.214.19 3.072.595.881.381 1.548.905 2 1.572.452.643.691 1.381.691 2.167 0 1.048-.31 1.905-.905 2.595-.619.667-1.452 1.167-2.548 1.476 2.667.357 4 1.762 4 4.191a4.66 4.66 0 0 1-.81 2.619c-.524.786-1.286 1.405-2.286 1.857-.976.476-2.143.691-3.453.691-1.262 0-2.381-.214-3.381-.643s-1.857-1.072-2.595-1.881l2.191-2.024c.929 1.072 2.095 1.595 3.524 1.595.857 0 1.548-.214 2.072-.643.5-.429.762-1.048.762-1.833 0-.881-.238-1.524-.714-1.929-.5-.405-1.214-.595-2.143-.595h-1.548l.452-2.667h1.095c.762 0 1.381-.19 1.857-.571.452-.381.691-.929.691-1.643 0-.619-.214-1.119-.667-1.5-.452-.357-1.048-.548-1.786-.548a4.43 4.43 0 0 0-1.786.357 6.59 6.59 0 0 0-1.595 1.095l-1.976-2.048c1.572-1.524 3.5-2.286 5.786-2.286z" fill="#f30"/><use xlink:href="#B" x="43.957"/><path d="M333.07 4.012l-.429 2.762h-6.191v3.643c.405-.167.81-.31 1.238-.405.452-.071.857-.119 1.262-.119.881 0 1.691.214 2.405.667s1.286 1.095 1.714 1.929c.429.81.643 1.786.643 2.905 0 1.143-.286 2.143-.833 3.048-.571.905-1.333 1.619-2.357 2.143-1 .524-2.143.762-3.453.762-1.191 0-2.262-.214-3.215-.667s-1.762-1.072-2.405-1.857l2.214-2.024c.405.524.881.929 1.405 1.191.524.286 1.095.405 1.691.405s1.119-.119 1.572-.357a2.55 2.55 0 0 0 1.024-1.048c.262-.452.381-.952.381-1.548 0-1-.214-1.738-.619-2.191-.405-.476-.952-.691-1.667-.691s-1.405.19-2.072.548h-2.619V4.012h10.31z" fill="#218442"/><path d="M343.437 12.393c0-1.333-.143-2.572-.476-3.691a12.03 12.03 0 0 0-1.476-3.262c-.667-1.048-1.548-2.191-2.691-3.405l2.262-2.024c1.333 1.143 2.476 2.357 3.405 3.572.929 1.238 1.643 2.572 2.143 4.024s.738 3.048.738 4.786-.238 3.334-.738 4.786-1.214 2.786-2.143 4.024c-.929 1.214-2.072 2.429-3.405 3.595l-2.262-2.048c1.191-1.286 2.119-2.453 2.786-3.5s1.143-2.119 1.429-3.191.429-2.31.429-3.667zM133.094 165.868h-6.243v-23.389c-2.262 2.126-4.931 3.664-8.007 4.705v-5.655c1.629-.498 3.393-1.538 5.293-2.986 1.9-1.493 3.212-3.212 3.891-5.203h5.067v32.527zm215.662-5.745v5.745h-21.76c.226-2.171.95-4.253 2.126-6.198s3.483-4.524 6.967-7.781c2.805-2.579 4.524-4.343 5.157-5.293.86-1.267 1.267-2.533 1.267-3.8 0-1.357-.362-2.443-1.086-3.167-.769-.769-1.81-1.131-3.122-1.131-1.267 0-2.307.407-3.076 1.176s-1.221 2.081-1.312 3.891l-6.198-.633c.362-3.393 1.538-5.881 3.483-7.329 1.945-1.493 4.343-2.262 7.284-2.262 3.167 0 5.7.86 7.51 2.579 1.855 1.719 2.76 3.891 2.76 6.424 0 1.493-.271 2.85-.769 4.207-.543 1.312-1.357 2.669-2.488 4.117-.769.95-2.126 2.352-4.072 4.117l-3.755 3.574c-.498.588-.905 1.176-1.267 1.764h12.35zm190.759-2.85l5.972-.724c.226 1.538.724 2.714 1.583 3.529.814.769 1.855 1.176 3.031 1.176a4.2 4.2 0 0 0 3.257-1.448c.86-.95 1.312-2.262 1.312-3.936 0-1.538-.452-2.805-1.267-3.71-.86-.905-1.855-1.357-3.076-1.357-.814 0-1.764.136-2.85.452l.679-5.067c1.674.045 2.941-.317 3.845-1.086.86-.769 1.312-1.81 1.312-3.076 0-1.086-.317-1.945-.95-2.579-.679-.679-1.538-.995-2.579-.995-1.086 0-1.991.362-2.714 1.086-.769.769-1.221 1.81-1.402 3.257l-5.7-.995c.407-1.945.995-3.529 1.81-4.66.769-1.176 1.9-2.126 3.348-2.805 1.448-.633 3.031-.995 4.841-.995 3.031 0 5.474.995 7.329 2.941 1.493 1.583 2.262 3.393 2.262 5.383 0 2.85-1.538 5.112-4.66 6.786 1.855.407 3.348 1.312 4.433 2.669 1.131 1.402 1.674 3.076 1.674 5.022 0 2.85-1.041 5.293-3.122 7.284s-4.66 2.986-7.736 2.986c-2.941 0-5.383-.814-7.284-2.533-1.945-1.674-3.076-3.891-3.348-6.605zM127.617 300.364v-6.514h-13.255v-5.429l14.024-20.584h5.203v20.539h4.026v5.474h-4.026v6.514h-5.972zm0-11.988v-11.038l-7.465 11.038h7.465zm199.355 2.537l6.198-.633c.181 1.402.724 2.488 1.583 3.302s1.855 1.221 2.986 1.221c1.312 0 2.398-.498 3.302-1.583.905-1.041 1.357-2.624 1.357-4.75 0-1.991-.452-3.483-1.357-4.479-.86-.995-2.036-1.493-3.483-1.493-1.764 0-3.348.814-4.795 2.398l-5.022-.724 3.167-16.874h16.422v5.791h-11.717l-.95 5.519c1.357-.679 2.805-1.041 4.253-1.041 2.714 0 5.067.995 6.967 2.986 1.945 2.036 2.895 4.614 2.895 7.826 0 2.669-.769 5.022-2.307 7.103-2.126 2.895-5.067 4.298-8.776 4.298-2.986 0-5.429-.814-7.329-2.398s-2.986-3.755-3.393-6.469zm233.54-15.576l-5.972.679c-.181-1.221-.543-2.126-1.176-2.714s-1.402-.905-2.398-.905c-1.312 0-2.443.588-3.348 1.764s-1.448 3.619-1.674 7.374c1.538-1.855 3.438-2.76 5.745-2.76 2.579 0 4.795.995 6.65 2.986 1.855 1.945 2.805 4.524 2.805 7.645 0 3.302-.995 5.972-2.941 7.962s-4.433 2.986-7.465 2.986c-3.302 0-5.972-1.267-8.098-3.8-2.081-2.533-3.167-6.695-3.167-12.486 0-5.926 1.131-10.224 3.302-12.848 2.217-2.624 5.067-3.936 8.55-3.936 2.488 0 4.524.679 6.107 2.081 1.629 1.357 2.669 3.393 3.076 5.972zm-14.069 13.572c0 1.991.498 3.574 1.402 4.66.95 1.086 1.991 1.629 3.167 1.629s2.126-.407 2.895-1.312 1.131-2.398 1.131-4.433c0-2.126-.407-3.664-1.221-4.614-.814-.995-1.855-1.493-3.076-1.493s-2.217.498-3.031 1.402c-.86.95-1.267 2.307-1.267 4.162z"/></g><path d="M0 87.225h15.239v259.066H0z" fill="#09f"/><path d="M24.764 79.129V63.89H651v15.239z" fill="#f30"/><defs><path id="A" d="M80.493 2.416l3.857.405v18.12h-3.429l-.19-1.429c-.405.548-.881 1-1.5 1.333-.595.333-1.286.5-2.095.5-1.048 0-1.929-.262-2.643-.833s-1.238-1.381-1.595-2.405c-.357-1.048-.524-2.262-.524-3.691 0-1.333.214-2.5.619-3.548.429-1.048 1.024-1.857 1.81-2.453.762-.571 1.691-.881 2.738-.881 1.167 0 2.143.405 2.953 1.214V2.416zm-1.905 7.953c-.714 0-1.262.333-1.643.976-.405.667-.595 1.691-.595 3.095 0 1.5.167 2.572.524 3.167.357.619.833.905 1.476.905.81 0 1.524-.5 2.143-1.5V11.44a3.89 3.89 0 0 0-.881-.81 2.11 2.11 0 0 0-1.024-.262z"/><path id="B" d="M254.568 15.917c.5 0 .952.119 1.357.333a2.61 2.61 0 0 1 .952.952c.238.405.333.857.333 1.357 0 .429-.071.881-.19 1.31-.143.429-.429 1.095-.857 2.048l-1.762 4h-2.572l1.262-5.191a2.53 2.53 0 0 1-.881-.929c-.19-.381-.286-.81-.286-1.262a2.54 2.54 0 0 1 .357-1.333c.214-.405.548-.714.929-.952.405-.214.857-.333 1.357-.333z"/></defs></svg>