<svg xmlns="http://www.w3.org/2000/svg" xmlns:xlink="http://www.w3.org/1999/xlink" width="447" height="472" fill-rule="evenodd" stroke-linecap="round" stroke-linejoin="round" stroke-miterlimit="1.5" xmlns:v="https://vecta.io/nano"><style><![CDATA[.B{stroke-width:2.69}.C{fill:none}.D{stroke-linecap:butt}.E{fill:#1a9aab}.F{stroke:#1a9aab}]]></style><path d="M105.609 194.557h82.575v123.862h-82.575z" fill="#ebebeb" stroke="#000" class="B"/><g class="C"><path d="M105.609 277.132h82.575" stroke="#f02fb9" stroke-width="5.374" class="D"/><path d="M146.896 194.557v-82.575h-20.644 41.287m-20.643 206.437v123.862h-20.644 41.287" stroke="#000" class="B"/></g><g stroke-width="4.17" stroke="#f02fb9" fill="#ebebeb"><circle cx="1182.5" cy="427.5" r="11.5" transform="matrix(.645117 0 0 .645117 -615.954 -205.093)"/><circle cx="1182.5" cy="427.5" r="11.5" transform="matrix(.645117 0 0 .645117 -615.954 187.138)"/><circle cx="1182.5" cy="427.5" r="11.5" transform="matrix(.645117 0 0 .645117 -615.954 -267.025)"/></g><g fill-rule="nonzero"><use xlink:href="#B"/><use xlink:href="#C"/><path d="M251.597 40.785c-.661 0-1.177-.113-1.564-.339-.371-.226-.645-.581-.806-1.064-.177-.468-.258-1.113-.258-1.935v-5.048h-1.822v-.935h1.822V28.85h1.016v2.613h3.048v.935h-3.048v5.048c0 .887.113 1.5.355 1.871.242.355.661.532 1.258.532.5 0 .871-.048 1.081-.177.21-.113.387-.355.532-.726l.952.323c-.194.581-.484.968-.855 1.193-.371.21-.935.323-1.71.323zm9.38 0c-.597 0-1.064-.113-1.403-.306-.339-.21-.564-.548-.71-1.016s-.21-1.129-.21-2V29.77H256.8v-.919h2.855v8.612c0 .613.048 1.097.129 1.435.065.355.21.597.403.742.177.145.452.21.79.21a1.18 1.18 0 0 0 .581-.129c.178-.097.419-.258.71-.5l.597.871c-.403.258-.726.452-1 .548a2.55 2.55 0 0 1-.887.145zm8.155-9.274v8.145h2.564v.919h-6.145v-.919h2.564V32.43h-1.839v-.919h2.855zm-.774-1.726c-.355 0-.613-.065-.742-.194s-.194-.355-.194-.694.065-.564.194-.694.387-.194.742-.194.613.065.742.194c.145.129.21.355.21.694s-.065.564-.21.694c-.129.129-.387.194-.742.194z"/><use xlink:href="#D"/><use xlink:href="#E"/><use xlink:href="#F"/><use xlink:href="#G"/><use xlink:href="#H"/><use xlink:href="#I"/><path d="M260.332 50.571v8.145h2.564v.919h-6.145v-.919h2.564V51.49h-1.839v-.919h2.855zm-.774-1.726c-.355 0-.613-.065-.742-.194s-.194-.355-.194-.694.065-.564.194-.694.387-.194.742-.194.613.065.742.194c.145.129.21.355.21.694s-.065.564-.21.694c-.129.129-.387.194-.742.194z"/><use xlink:href="#D" x="-8.793" y="19.06"/><use xlink:href="#E" x="-8.799" y="19.06"/><use xlink:href="#F" x="-8.793" y="19.06"/><use xlink:href="#J"/><path d="M233.34 115.49c-.919 0-1.629-.161-2.145-.452s-.887-.79-1.097-1.468c-.226-.677-.339-1.613-.339-2.822 0-1.193.113-2.145.339-2.822s.597-1.161 1.129-1.468c.516-.29 1.242-.452 2.177-.452.742 0 1.339.129 1.774.371s.855.661 1.274 1.29l-.855.516c-.323-.484-.629-.823-.935-.984-.306-.177-.726-.258-1.258-.258-.694 0-1.226.113-1.597.355-.371.226-.645.613-.79 1.161-.161.532-.242 1.306-.242 2.29s.081 1.758.242 2.29c.145.548.403.935.774 1.177.355.226.871.339 1.548.339.532 0 .968-.081 1.274-.258.323-.177.645-.5.984-1l.855.516c-.419.629-.855 1.081-1.306 1.306-.452.242-1.048.371-1.806.371z"/><use xlink:href="#K"/><path d="M247.481 117.942v-11.725h1v.581c.403-.516 1.161-.79 2.29-.79.839 0 1.5.161 1.968.452.484.306.823.79 1.032 1.468.194.677.306 1.613.306 2.806 0 1.21-.113 2.145-.306 2.822-.21.677-.548 1.177-1.032 1.484-.468.29-1.129.452-1.968.452-1.129 0-1.887-.355-2.29-1.048v3.5h-1zm3.29-3.387c.581 0 1.048-.113 1.371-.339.323-.242.564-.629.71-1.177s.21-1.322.21-2.306c0-.968-.065-1.742-.21-2.274-.145-.548-.387-.935-.71-1.161-.323-.242-.79-.355-1.371-.355-.71 0-1.258.097-1.677.274-.403.194-.613.5-.613.887v4.08c0 .839.194 1.435.597 1.806.387.387.952.564 1.693.564z"/><use xlink:href="#L"/><use xlink:href="#K" x="-225.527" y="2.463"/><path d="M27.374 108.68h1.161l-2.806 4.532 2.806 4.532h-1.161l-2.226-3.597-2.226 3.597h-1.161l2.806-4.532-2.806-4.532h1.161l2.226 3.597 2.226-3.597z"/><use xlink:href="#M"/><use xlink:href="#N"/><use xlink:href="#C" x="-190.313" y="77.168"/><use xlink:href="#N" x="17.592"/><use xlink:href="#L" y="330.717"/><use xlink:href="#O"/><use xlink:href="#P"/><use xlink:href="#M" y="330.718"/><use xlink:href="#N" y="330.717"/><use xlink:href="#C" x="-190.313" y="407.886"/><use xlink:href="#N" x="17.592" y="330.717"/><use xlink:href="#Q"/><use xlink:href="#R"/><use xlink:href="#O" x="21.93" y="-282.628"/><use xlink:href="#E" x="-238.752" y="125.259"/><use xlink:href="#S"/><use xlink:href="#T"/><use xlink:href="#C" x="-212.361" y="144.319"/><use xlink:href="#K" x="-203.597" y="69.614"/><use xlink:href="#P" x="21.936" y="-263.567"/><use xlink:href="#Q" x="35.191" y="19.06"/><use xlink:href="#O" x="48.322" y="-263.568"/><use xlink:href="#I" x="-177.17" y="125.259"/><use xlink:href="#D" x="-194.769" y="144.32"/><use xlink:href="#G" x="-212.361" y="144.32"/><use xlink:href="#U"/><path d="M38.285 204.164c-.871 0-1.532-.097-2.016-.29-.484-.21-.823-.516-1.016-.952-.21-.435-.323-1.048-.323-1.822h1.016c0 .564.065 1 .194 1.306.145.29.371.516.71.645.323.129.806.177 1.435.177.597 0 1.081-.065 1.403-.21.339-.145.581-.387.726-.742.145-.339.21-.823.21-1.452 0-.661-.065-1.177-.177-1.532-.129-.355-.339-.613-.629-.774s-.71-.258-1.242-.29h-1.161v-.952h1.161c.532-.032.952-.113 1.242-.258a1.2 1.2 0 0 0 .629-.629c.113-.29.177-.71.177-1.258 0-.564-.065-1.016-.21-1.322s-.387-.532-.726-.661c-.323-.129-.806-.21-1.403-.21-.645 0-1.129.065-1.452.177s-.548.323-.694.597c-.129.274-.194.677-.194 1.21H34.93c0-.742.113-1.322.306-1.742.21-.403.548-.71 1.016-.887.484-.177 1.161-.274 2.032-.274.839 0 1.516.097 2 .29s.823.516 1.032.968.323 1.064.323 1.855c0 .726-.097 1.274-.29 1.645s-.532.694-1.032.968c.5.29.839.645 1.032 1.097.194.435.29 1.097.29 1.984 0 .839-.113 1.5-.323 1.984s-.548.823-1.032 1.032-1.161.323-2 .323z"/><use xlink:href="#J" x="-247.545" y="144.319"/><use xlink:href="#H" x="-221.116" y="292.026"/><use xlink:href="#O" x="13.181" y="-96.801"/><use xlink:href="#E" x="-247.508" y="311.085"/><use xlink:href="#F" x="-247.502" y="311.085"/><use xlink:href="#Q" x="35.235" y="185.826"/><path d="M22.93 369.882c-.21.371-.516.645-.887.806-.387.161-.855.242-1.419.242-.839 0-1.484-.161-1.951-.452-.484-.306-.806-.806-1.016-1.484s-.306-1.613-.306-2.822c0-1.193.097-2.129.306-2.806s.532-1.161 1.016-1.468c.468-.29 1.113-.452 1.951-.452 1.129 0 1.903.274 2.306.79v-.581h1.016v11.725H22.93v-3.5zm-2.306.113c.758 0 1.322-.177 1.726-.564.387-.371.581-.968.581-1.806v-4.08c0-.387-.21-.694-.629-.887-.403-.177-.968-.274-1.677-.274-.581 0-1.032.113-1.371.355-.323.226-.548.613-.694 1.161-.129.532-.21 1.306-.21 2.274 0 .984.081 1.758.226 2.306.129.548.371.935.694 1.177.323.226.774.339 1.355.339z"/><use xlink:href="#C" x="-212.317" y="330.145"/><use xlink:href="#K" x="-203.553" y="255.44"/><use xlink:href="#P" x="21.98" y="-77.741"/><use xlink:href="#Q" x="35.235" y="204.886"/><use xlink:href="#O" x="48.366" y="-77.741"/><use xlink:href="#I" x="-177.126" y="311.085"/><use xlink:href="#D" x="-194.725" y="330.146"/><use xlink:href="#G" x="-212.317" y="330.146"/><use xlink:href="#U" x="0.044" y="185.826"/><use xlink:href="#V"/><use xlink:href="#J" x="-247.501" y="330.146"/><path d="M233.26 236.772c-.79 0-1.419-.097-1.887-.29-.468-.21-.903-.548-1.322-1.064v-10.58h1.016v3.435c.387-.645 1.129-.984 2.193-.984.806 0 1.435.161 1.903.468.452.29.79.79.984 1.468.21.677.306 1.613.306 2.822 0 1.193-.097 2.129-.306 2.806-.194.677-.532 1.177-.984 1.468-.468.29-1.097.452-1.903.452zm0-.935c.564 0 1-.113 1.306-.339.306-.242.532-.629.661-1.177.145-.532.21-1.29.21-2.274s-.065-1.758-.21-2.306c-.129-.548-.355-.935-.661-1.161-.306-.242-.742-.355-1.306-.355-.581 0-1.032.065-1.339.21s-.516.387-.661.726c-.129.339-.194.823-.194 1.468v4.484c.29.29.581.484.903.581.306.097.742.145 1.29.145z"/><use xlink:href="#B" x="8.829" y="195.987"/><path d="M252.9 227.499h1.161l-2.806 4.532 2.806 4.532H252.9l-2.226-3.597-2.226 3.597h-1.161l2.806-4.532-2.806-4.532h1.161l2.226 3.597 2.226-3.597z"/><use xlink:href="#W"/><use xlink:href="#P" x="310.338" y="-199.649"/><use xlink:href="#Q" x="323.587" y="82.978"/><use xlink:href="#D" x="76.041" y="208.238"/><use xlink:href="#E" x="76.042" y="208.237"/><use xlink:href="#T" x="349.979" y="63.919"/><use xlink:href="#C" x="137.618" y="208.237"/><use xlink:href="#K" x="146.382" y="133.532"/><use xlink:href="#E" x="111.227" y="208.237"/><use xlink:href="#Q" x="385.17" y="82.978"/><use xlink:href="#O" x="398.301" y="-199.649"/><use xlink:href="#I" x="172.809" y="189.177"/><use xlink:href="#D" x="155.217" y="208.238"/><use xlink:href="#E" x="40.851" y="227.297"/><path d="M335.1 268.082c-.806 0-1.435-.097-1.903-.258-.452-.177-.774-.452-.984-.839-.194-.403-.29-.935-.29-1.613 0-.742.097-1.306.29-1.71.21-.403.532-.677.984-.855.468-.177 1.097-.258 1.903-.258h2.193v-.758c0-.564-.081-1.016-.21-1.322a1.29 1.29 0 0 0-.661-.677c-.306-.129-.758-.21-1.322-.21-.419 0-.758.048-1.016.145-.242.081-.452.226-.597.452-.161.21-.29.516-.387.903l-.968-.226c.145-.581.339-1.016.581-1.339.226-.323.532-.564.919-.694.371-.145.871-.226 1.468-.226.806 0 1.452.113 1.903.323a1.95 1.95 0 0 1 1 1c.194.452.29 1.081.29 1.871v3.726c0 .387.032.694.113.903.065.21.177.339.339.419.145.065.387.097.694.097v.935c-.548.016-.968-.065-1.242-.226-.258-.145-.452-.435-.581-.823-.274.468-.581.79-.952.968-.371.194-.887.29-1.564.29zm0-.935c.564 0 1.016-.065 1.322-.226.306-.145.532-.403.661-.758s.21-.855.21-1.516v-1.161H335.1c-.581 0-1.016.048-1.322.161a1.08 1.08 0 0 0-.661.548c-.129.274-.177.661-.177 1.177 0 .468.048.823.177 1.081s.355.435.661.532c.323.113.758.161 1.322.161z"/><use xlink:href="#P" x="319.131" y="-180.589"/><path d="M353.047 270.743c-.581 0-1.032-.065-1.387-.21-.339-.129-.677-.371-1-.726l.742-.629c.242.258.468.419.694.516.226.081.532.129.952.129.581 0 1.016-.081 1.339-.242.306-.145.532-.419.661-.774.129-.371.194-.887.194-1.564v-1.032c-.21.371-.516.645-.887.806-.387.161-.855.242-1.403.242-.855 0-1.5-.161-1.968-.452-.468-.306-.806-.806-1.016-1.5-.21-.677-.306-1.645-.306-2.855 0-.968.097-1.726.306-2.29.21-.548.548-.952 1.016-1.193s1.113-.371 1.968-.371c1.113 0 1.887.274 2.29.79v-.581h1.016v8.306c0 .919-.097 1.645-.306 2.161-.194.516-.532.903-.984 1.129s-1.097.339-1.919.339zm-.097-4.419c.742 0 1.322-.194 1.71-.564s.581-.968.581-1.806v-3.258c0-.387-.21-.694-.613-.887-.419-.177-.984-.274-1.677-.274-.597 0-1.048.081-1.371.274-.339.177-.564.468-.71.887-.129.419-.194 1-.194 1.758 0 1 .065 1.774.194 2.339.145.548.371.935.71 1.177.323.226.774.355 1.371.355z"/><use xlink:href="#D" x="84.841" y="227.298"/><use xlink:href="#G" x="146.417" y="208.237"/><use xlink:href="#W" x="61.577" y="19.06"/><use xlink:href="#X"/><use xlink:href="#U" x="376.371" y="63.918"/><use xlink:href="#J" x="120.026" y="208.237"/><use xlink:href="#U" x="297.869" y="-46.764"/><path d="M336.161 157.401c-.871 0-1.532-.097-2.016-.29-.484-.21-.823-.516-1.016-.952-.21-.435-.323-1.048-.323-1.822h1.016c0 .564.065 1 .194 1.306.145.29.371.516.71.645.323.129.806.177 1.435.177.597 0 1.081-.065 1.403-.21a1.31 1.31 0 0 0 .726-.742c.145-.339.21-.823.21-1.452 0-.661-.065-1.177-.177-1.532-.129-.355-.339-.613-.629-.774s-.71-.258-1.242-.29h-1.161v-.952h1.161c.532-.032.952-.113 1.242-.258a1.2 1.2 0 0 0 .629-.629c.113-.29.177-.71.177-1.258 0-.564-.065-1.016-.21-1.322s-.387-.532-.726-.661c-.323-.129-.806-.21-1.403-.21-.645 0-1.129.065-1.452.177s-.548.323-.694.597c-.129.274-.194.677-.194 1.21h-1.016c0-.742.113-1.322.306-1.742.21-.403.548-.71 1.016-.887.484-.177 1.161-.274 2.032-.274.839 0 1.516.097 2 .29a1.84 1.84 0 0 1 1.032.968c.209.452.323 1.064.323 1.855 0 .726-.097 1.274-.29 1.645s-.532.694-1.032.968c.5.29.839.645 1.032 1.097.194.435.29 1.097.29 1.984 0 .839-.113 1.5-.323 1.984a1.9 1.9 0 0 1-1.032 1.032c-.484.209-1.161.323-2 .323zm18.06-6.548h3.58v.935h-3.58v3.58h-.935v-3.58h-3.58v-.935h3.58v-3.58h.935v3.58z"/><use xlink:href="#V" x="333.017" y="-232.59"/><use xlink:href="#Y"/><use xlink:href="#Z"/><path d="M409.649 148.901l.532.806-2.709 1.613 2.709 1.597-.532.806-2.597-1.548v3.161h-1.016v-3.161l-2.629 1.548-.532-.806 2.726-1.613-2.726-1.597.532-.79 2.629 1.564v-3.177h1.016v3.161l2.597-1.564z"/><use xlink:href="#W" x="97.442" y="-91.621"/><use xlink:href="#X" x="35.866" y="-110.681"/><use xlink:href="#U" x="412.229" y="-46.764"/><use xlink:href="#U" x="297.869" y="181.132"/><use xlink:href="#V" x="297.832" y="-4.695"/><path d="M350.979 378.748h5.564v.935h-5.564z"/><use xlink:href="#V" x="333.017" y="-4.695"/><use xlink:href="#Y" y="227.895"/><use xlink:href="#Z" y="227.895"/><path d="M409.649 376.797l.532.806-2.709 1.613 2.709 1.597-.532.806-2.597-1.548v3.161h-1.016v-3.161l-2.629 1.548-.532-.806 2.726-1.613-2.726-1.597.532-.79 2.629 1.564V375.2h1.016v3.161l2.597-1.564z"/><use xlink:href="#W" x="97.442" y="136.274"/><use xlink:href="#X" x="35.866" y="117.214"/><use xlink:href="#U" x="412.229" y="181.132"/><path d="M.006 283.311v-9.064h1v.597c.194-.306.403-.5.597-.613.21-.113.468-.177.806-.177.371 0 .645.097.839.258.21.161.371.468.532.919.242-.452.5-.758.758-.919.274-.161.613-.258 1.048-.258.468 0 .839.113 1.097.323s.435.564.548 1.048c.097.484.161 1.177.161 2.064v5.822H6.377v-5.822a10.52 10.52 0 0 0-.081-1.419c-.048-.339-.145-.581-.274-.742-.129-.145-.306-.21-.516-.21-.339 0-.597.065-.79.21-.177.145-.306.387-.387.726-.081.323-.113.806-.113 1.403v5.854H3.2v-5.725c0-.629-.032-1.129-.081-1.484-.065-.355-.145-.613-.274-.758a.68.68 0 0 0-.532-.226c-.323 0-.581.065-.774.21-.177.145-.323.387-.403.726-.081.323-.129.806-.129 1.403v5.854h-1z"/><use xlink:href="#D" x="-264.539" y="242.737"/><use xlink:href="#S" x="-34.592" y="117.477"/><use xlink:href="#O" x="13.737" y="-165.15"/><use xlink:href="#K" x="-202.991" y="168.031"/><use xlink:href="#P" x="22.535" y="-165.15"/><path d="M232.306 159.449h-.952l-1.597-9.064h1.032l1.193 7.048 1.306-4.242h.935l1.29 4.242 1.193-7.048h1.032l-1.597 9.064h-.952l-1.435-4.564-1.452 4.564z"/><use xlink:href="#R" x="213.065" y="-6.385"/><use xlink:href="#O" x="234.995" y="-289.013"/><use xlink:href="#F" x="-34.481" y="118.874"/><path d="M267.271 159.449h-1.016v-11.725h1.016v6.403h.548l2.935-3.742h1.226l-3.258 4.177 3.838 4.887h-1.21l-3.484-4.387h-.597v4.387z"/><use xlink:href="#D" x="0.704" y="118.874"/><use xlink:href="#E" x="0.704" y="118.874"/></g><path d="M172.445 26.761l-4.906-8.806 9.827-2.244-4.921 11.05z" class="E"/><path d="M222.198 42.295L173.432 20.58" class="B C D F"/><path d="M177.366 72.939l-9.827-2.245 4.906-8.805 4.921 11.05z" class="E"/><path d="M222.595 46.178L173.432 68.07" class="B C D F"/><g transform="matrix(.999999 .000001 -.000001 1.000002 .000832 -.000074)"><path d="M188.975 118.03l-8.064-6.048 8.064-6.048v12.096z" class="E"/><path d="M222.199 111.982h-34.837" class="B C D F"/></g><g transform="matrix(.999999 -.000001 .000001 1.000002 .000186 .000143)"><path d="M104.817 105.934l8.064 6.048-8.064 6.048v-12.096z" class="E"/><path d="M71.593 111.982h34.837" class="B C D F"/></g><g transform="matrix(.999999 -.000001 .000001 1.000002 -.000714 .000999)"><path d="M104.817 436.651l8.064 6.048-8.064 6.048v-12.096z" class="E"/><path d="M71.593 442.699h34.837" class="B C D F"/></g><g transform="matrix(.999999 -.000001 .000001 1.000002 .000053 .000546)"><path d="M90.859 271.084l8.064 6.047-8.064 6.048v-12.095z" class="E"/><path d="M57.635 277.131h34.837" class="B C D F"/></g><g transform="matrix(.999999 -.000001 .000001 1.000002 -.000041 -.000488)"><path d="M121.892 179.017l4.36 9.088-9.945 1.642 5.585-10.73z" class="E"/><path d="M71.593 159.654l48.937 25.473" class="B C D F"/></g><g transform="matrix(.999999 .000001 -.000001 1.000002 .00023 .000238)"><path d="M116.307 323.229l9.945 1.641-4.36 9.088-5.585-10.729z" class="E"/><path d="M71.593 353.321l48.937-25.472" class="B C D F"/></g><g transform="matrix(.999998 -.000003 0 1.000002 .00327 .000258)"><path d="M203.131 239.311l-8.064-6.047 8.064-6.048v12.095z" class="E"/><path d="M222.595 233.264h-21.077" class="B C D F"/></g><g transform="matrix(.999998 -.000001 0 1.000002 -.001963 -.000292)"><path d="M162.379 159.317l-8.064-6.048 8.064-6.048v12.096z" class="E"/><path d="M222.595 153.269h-61.829" class="B C D F"/></g><path d="M208.834 194.557h103.212v123.862H208.834m82.569-206.855l20.644.418v82.575m-20.644 247.724h20.644V318.419" stroke="gray" stroke-dasharray="6.25,4.17,0,0" stroke-width="1.342" class="C D"/><defs ><path id="B" d="M233.053 40.785c-.839 0-1.5-.161-1.968-.452-.468-.306-.806-.806-1.016-1.484s-.306-1.613-.306-2.806.097-2.129.306-2.806.548-1.177 1.016-1.468c.468-.306 1.129-.468 1.968-.468s1.5.161 1.968.468c.468.29.806.79 1.016 1.468s.306 1.613.306 2.806-.097 2.129-.306 2.806-.548 1.177-1.016 1.484c-.468.29-1.129.452-1.968.452zm0-.935c.581 0 1.032-.113 1.371-.339.323-.242.564-.629.694-1.177.145-.532.226-1.306.226-2.29s-.081-1.758-.226-2.29c-.129-.548-.371-.935-.694-1.161-.339-.242-.79-.355-1.371-.355-.597 0-1.048.113-1.371.355-.339.226-.564.613-.694 1.161-.145.532-.21 1.306-.21 2.29s.065 1.758.21 2.29c.129.548.355.935.694 1.177.323.226.774.339 1.371.339z"/><path id="C" d="M241.595 40.785c-.726 0-1.29-.113-1.71-.323-.403-.226-.694-.564-.871-1.064-.177-.484-.258-1.161-.258-2.032v-5.854h1.016v5.854c0 .661.048 1.161.161 1.516.097.339.29.597.548.742.274.161.645.226 1.113.226.661 0 1.161-.048 1.516-.177s.613-.339.774-.645c.145-.29.226-.726.226-1.274v-6.242h1v9.064h-1v-.661c-.274.323-.597.548-.968.677s-.887.194-1.548.194z"/><path id="D" d="M277.07 31.301c.855 0 1.516.161 2 .468s.823.806 1.032 1.516c.194.694.306 1.661.29 2.903h-5.838c.016.935.113 1.677.258 2.21.161.516.419.903.774 1.129.355.21.855.323 1.484.323.564 0 1.016-.081 1.339-.242.339-.177.694-.516 1.064-1l.806.548c-.435.613-.887 1.032-1.355 1.274-.452.226-1.081.355-1.855.355-.887 0-1.597-.161-2.097-.452-.516-.306-.887-.806-1.097-1.484-.226-.677-.339-1.613-.339-2.806s.113-2.129.339-2.806c.21-.677.581-1.177 1.097-1.468.5-.306 1.21-.468 2.097-.468zm2.274 3.951c-.048-.774-.145-1.371-.306-1.806-.145-.435-.387-.742-.694-.935s-.726-.274-1.274-.274c-.597 0-1.081.081-1.419.274-.355.194-.613.5-.774.935-.177.435-.274 1.032-.306 1.806h4.774z"/><path id="E" d="M283.127 40.575v-9.064h1.016v1.468c.177-.435.484-.823.935-1.161a2.46 2.46 0 0 1 1.516-.516c.71 0 1.258.145 1.661.419.387.274.726.774 1.016 1.5l-.903.403c-.194-.532-.419-.903-.661-1.097s-.613-.29-1.113-.29c-.581 0-1.064.161-1.435.5-.355.339-.629.758-.774 1.258a4.86 4.86 0 0 0-.242 1.5v5.08h-1.016z"/><path id="F" d="M294.259 40.785c-.726 0-1.29-.129-1.693-.355-.387-.242-.758-.661-1.113-1.274l.79-.645c.258.532.532.887.806 1.064.274.194.677.274 1.21.274.726 0 1.29-.048 1.677-.161.403-.097.677-.274.839-.532.177-.258.258-.613.258-1.081 0-.403-.065-.726-.21-.952-.129-.226-.371-.403-.71-.532-.323-.113-.806-.226-1.435-.29-1.113-.145-1.903-.403-2.355-.774-.468-.387-.71-.919-.71-1.645 0-.645.113-1.161.323-1.532s.548-.645 1.032-.806 1.161-.242 2.016-.242c.758 0 1.339.113 1.774.306.419.21.79.564 1.129 1.081l-.726.71c-.274-.452-.564-.758-.855-.919s-.726-.242-1.322-.242c-.613 0-1.081.048-1.419.145-.339.113-.581.274-.726.516-.145.226-.21.564-.21.984s.161.742.468.968c.306.21.839.371 1.613.484.871.113 1.532.274 2 .468.484.21.823.484 1.016.823.21.355.323.839.323 1.452 0 .694-.129 1.226-.371 1.613s-.629.661-1.161.839c-.548.161-1.306.258-2.258.258z"/><path id="G" d="M235.247 61.764c-.855 0-1.597-.339-2.242-1s-1.145-1.597-1.5-2.806-.532-2.597-.532-4.193c0-1.581.177-2.968.532-4.177s.855-2.145 1.5-2.806 1.387-1 2.242-1v.919c-.645 0-1.21.29-1.71.887-.484.581-.871 1.403-1.145 2.484-.274 1.064-.419 2.306-.419 3.693 0 1.403.145 2.645.419 3.709s.661 1.903 1.145 2.484c.5.581 1.064.887 1.71.887v.919z"/><path id="H" d="M243.046 47.7c.564 0 1.032.048 1.371.145.355.081.629.242.839.452.194.226.371.516.5.919l-.952.323c-.129-.355-.306-.597-.532-.726-.242-.129-.645-.194-1.226-.194-.5 0-.887.065-1.161.21-.274.129-.452.355-.564.661s-.177.758-.177 1.339v1.468h2.613v.935h-2.613v6.403h-1.016v-6.403h-1.806v-.935h1.806v-1.468c0-.79.097-1.419.274-1.871a1.72 1.72 0 0 1 .903-.968c.419-.194 1-.29 1.742-.29z"/><path id="I" d="M252.178 59.845c-.597 0-1.064-.113-1.403-.306-.339-.21-.564-.548-.71-1.016s-.21-1.129-.21-2v-7.693h-1.855v-.919h2.855v8.612c0 .613.048 1.097.129 1.435.065.355.21.597.403.742.177.145.452.21.79.21.21 0 .403-.032.581-.129s.419-.258.71-.5l.597.871c-.403.258-.726.452-1 .548-.258.097-.564.145-.887.145z"/><path id="J" d="M292.436 60.845c.645 0 1.226-.306 1.71-.887.5-.581.887-1.419 1.161-2.484s.403-2.306.403-3.709c0-1.387-.129-2.629-.403-3.693-.274-1.081-.661-1.903-1.161-2.484-.484-.597-1.064-.887-1.71-.887v-.919c.855 0 1.597.339 2.242 1s1.145 1.597 1.516 2.806c.355 1.21.532 2.597.532 4.177 0 1.597-.177 2.984-.532 4.193-.371 1.21-.871 2.145-1.516 2.806s-1.387 1-2.242 1v-.919z"/><path id="K" d="M241.495 115.49c-.806 0-1.435-.097-1.903-.258-.452-.177-.774-.452-.984-.839-.194-.403-.29-.935-.29-1.613 0-.742.097-1.306.29-1.71.21-.403.532-.677.984-.855.468-.177 1.097-.258 1.903-.258h2.193v-.758c0-.564-.081-1.016-.21-1.322a1.29 1.29 0 0 0-.661-.677c-.306-.129-.758-.21-1.322-.21-.419 0-.758.048-1.016.145-.242.081-.452.226-.597.452-.161.21-.29.516-.387.903l-.968-.226c.145-.581.339-1.016.581-1.339.226-.323.532-.564.919-.694.371-.145.871-.226 1.468-.226.806 0 1.452.113 1.903.323a1.95 1.95 0 0 1 1 1c.194.452.29 1.081.29 1.871v3.726c0 .387.032.694.113.903.065.21.177.339.339.419.145.065.387.097.694.097v.935c-.548.016-.968-.065-1.242-.226-.258-.145-.452-.435-.581-.823-.274.468-.581.79-.952.968-.371.194-.887.29-1.564.29zm0-.935c.564 0 1.016-.065 1.322-.226.306-.145.532-.403.661-.758s.21-.855.21-1.516v-1.161h-2.193c-.581 0-1.016.048-1.322.161a1.08 1.08 0 0 0-.661.548c-.129.274-.177.661-.177 1.177 0 .468.048.823.177 1.081s.355.435.661.532c.323.113.758.161 1.322.161z"/><path id="L" d="M3.862 117.744v-9.064h1v.597c.194-.306.403-.5.597-.613.21-.113.468-.177.806-.177.371 0 .645.097.839.258.21.161.371.468.532.919.242-.452.5-.758.758-.919.274-.161.613-.258 1.048-.258.468 0 .839.113 1.097.323s.435.564.548 1.048c.097.484.161 1.177.161 2.064v5.822h-1.016v-5.822a10.52 10.52 0 0 0-.081-1.419c-.048-.339-.145-.581-.274-.742-.129-.145-.306-.21-.516-.21-.339 0-.597.065-.79.21-.177.145-.306.387-.387.726-.081.323-.113.806-.113 1.403v5.854H7.056v-5.725c0-.629-.032-1.129-.081-1.484-.065-.355-.145-.613-.274-.758a.68.68 0 0 0-.532-.226c-.323 0-.581.065-.774.21-.177.145-.323.387-.403.726-.081.323-.129.806-.129 1.403v5.854h-1z"/><path id="M" d="M34.835 108.68v8.145h2.564v.919h-6.145v-.919h2.564v-7.225H31.98v-.919h2.855zm-.774-1.726c-.355 0-.613-.065-.742-.194s-.194-.355-.194-.694.065-.564.194-.694.387-.194.742-.194.613.065.742.194c.145.129.21.355.21.694s-.065.564-.21.694c-.129.129-.387.194-.742.194z"/><path id="N" d="M39.054 117.744v-9.064h1v.597c.194-.306.403-.5.597-.613.21-.113.468-.177.806-.177.371 0 .645.097.839.258.21.161.371.468.532.919.242-.452.5-.758.758-.919.274-.161.613-.258 1.048-.258.468 0 .839.113 1.097.323s.435.564.548 1.048c.097.484.161 1.177.161 2.064v5.822h-1.016v-5.822a10.52 10.52 0 0 0-.081-1.419c-.048-.339-.145-.581-.274-.742-.129-.145-.306-.21-.516-.21-.339 0-.597.065-.79.21-.177.145-.306.387-.387.726-.081.323-.113.806-.113 1.403v5.854h-1.016v-5.725c0-.629-.032-1.129-.081-1.484-.065-.355-.145-.613-.274-.758a.68.68 0 0 0-.532-.226c-.323 0-.581.065-.774.21-.177.145-.323.387-.403.726-.081.323-.129.806-.129 1.403v5.854h-1z"/><path id="O" d="M17.242 439.398v8.145h2.564v.919h-6.145v-.919h2.564v-7.225h-1.839v-.919h2.855zm-.774-1.726c-.355 0-.613-.065-.742-.194s-.194-.355-.194-.694.065-.564.194-.694.387-.194.742-.194.613.065.742.194c.145.129.21.355.21.694s-.065.564-.21.694c-.129.129-.387.194-.742.194z"/><path id="P" d="M22.052 448.461v-9.064h1.016v.742a2.33 2.33 0 0 1 .968-.726c.371-.145.887-.226 1.516-.226.742 0 1.306.113 1.726.323.403.226.694.581.871 1.081s.258 1.193.258 2.097v5.774h-1v-5.774c0-.661-.065-1.177-.177-1.548s-.29-.629-.564-.79c-.258-.145-.629-.226-1.113-.226-.677 0-1.177.065-1.532.194a1.24 1.24 0 0 0-.742.71c-.145.339-.21.839-.21 1.5v5.935h-1.016z"/><path id="Q" d="M21.644 166.044c-.661 0-1.177-.113-1.564-.339-.371-.226-.645-.581-.806-1.064-.177-.468-.258-1.113-.258-1.935v-5.048h-1.822v-.935h1.822v-2.613h1.016v2.613h3.048v.935h-3.048v5.048c0 .887.113 1.5.355 1.871.242.355.661.532 1.258.532.5 0 .871-.048 1.081-.177.21-.113.387-.355.532-.726l.952.323c-.194.581-.484.968-.855 1.193-.371.21-.935.323-1.71.323z"/><path id="R" d="M26.476 165.834v-11.725h1.016v3.371c.177-.323.452-.564.806-.694.355-.145.79-.226 1.339-.226.806 0 1.435.161 1.903.452.452.29.774.774.968 1.435.21.661.306 1.581.306 2.774v4.613h-1.016v-4.613c0-.968-.065-1.726-.194-2.258s-.355-.903-.661-1.129c-.323-.226-.758-.339-1.306-.339-.581 0-1.016.065-1.322.194-.29.129-.5.371-.629.71s-.194.839-.194 1.5v5.935h-1.016z"/><path id="S" d="M55.803 166.044c-.839 0-1.5-.161-1.968-.452s-.806-.79-1-1.468c-.21-.677-.306-1.613-.306-2.806 0-1.21.097-2.145.306-2.822.194-.677.532-1.177 1-1.468.468-.306 1.129-.468 1.968-.468.564 0 1.032.081 1.403.242a1.83 1.83 0 0 1 .903.806v-3.5h1.016v11.725h-1.016v-.564c-.419.516-1.177.774-2.306.774zm0-.935c.71 0 1.274-.081 1.677-.274.419-.194.629-.484.629-.887v-4.08c0-.839-.194-1.435-.581-1.806-.403-.387-.968-.564-1.726-.564-.581 0-1.032.113-1.355.355-.323.226-.564.613-.71 1.161-.129.548-.21 1.322-.21 2.306s.081 1.742.21 2.274c.129.548.371.935.694 1.177.323.226.79.339 1.371.339z"/><path id="T" d="M22.886 184.055c-.21.371-.516.645-.887.806-.387.161-.855.242-1.419.242-.839 0-1.484-.161-1.951-.452-.484-.306-.806-.806-1.016-1.484s-.306-1.613-.306-2.822c0-1.193.097-2.129.306-2.806s.532-1.161 1.016-1.468c.468-.29 1.113-.452 1.951-.452 1.129 0 1.903.274 2.306.79v-.581h1.016v11.725h-1.016v-3.5zm-2.306.113c.758 0 1.322-.177 1.726-.564.387-.371.581-.968.581-1.806v-4.08c0-.387-.21-.694-.629-.887-.403-.177-.968-.274-1.677-.274-.581 0-1.032.113-1.371.355-.323.226-.548.613-.694 1.161-.129.532-.21 1.306-.21 2.274 0 .984.081 1.758.226 2.306.129.548.371.935.694 1.177.323.226.774.339 1.355.339z"/><path id="U" d="M31.25 205.487c.161 0 .355-.016.581-.065l.629-.129c.613-.177 1.113-.242 1.5-.226v.935c-.226 0-.435 0-.613.032-.194.032-.419.081-.677.161l-.742.177c-.194.032-.419.048-.677.048-.323 0-.597-.048-.823-.113-.226-.081-.484-.177-.758-.339l-.774-.323c-.21-.065-.468-.097-.774-.097h-.532v-.935c.516.032.952-.129 1.274-.484-.742-.081-1.322-.306-1.742-.694-.419-.371-.71-.952-.903-1.71s-.274-1.774-.274-3.048v-1.177c0-1.387.113-2.468.323-3.258.226-.79.581-1.355 1.097-1.71.5-.339 1.21-.516 2.129-.516.903 0 1.613.177 2.129.516.5.355.871.919 1.097 1.71s.339 1.871.339 3.258v1.177c0 1.29-.097 2.322-.29 3.08-.194.774-.5 1.339-.935 1.71-.435.387-1.032.613-1.806.677-.097.306-.258.532-.484.71.113.032.29.113.548.242a4.06 4.06 0 0 0 .613.29 1.71 1.71 0 0 0 .548.097zm-4.306-6.806c0 1.161.081 2.081.242 2.742.161.645.419 1.113.774 1.403.371.274.871.403 1.532.403.645 0 1.161-.129 1.532-.403.355-.29.629-.758.774-1.403.161-.661.242-1.581.242-2.742v-1.177c0-1.177-.081-2.081-.242-2.742-.145-.661-.419-1.129-.774-1.403-.371-.274-.887-.419-1.532-.419-.661 0-1.177.145-1.548.419-.355.274-.613.742-.774 1.403s-.226 1.564-.226 2.742v1.177z"/><path id="V" d="M38.845 388.862h2.081v.919h-5.177v-.919h2.081v-8.37c-.613.532-1.403.806-2.371.806v-.952c.726 0 1.306-.194 1.726-.613.419-.403.629-.968.629-1.677h1.032v10.806z"/><path id="W" d="M329.574 237.087v.919h-2.371v9.886h2.371v.919h-5.758v-.919h2.371v-9.886h-2.371v-.919h5.758z"/><path id="X" d="M399.74 267.872l-3.355-5.048h-1.403v5.048h-1.016v-11.725h3.274c.823 0 1.484.097 1.951.306s.823.564 1.032 1.048.306 1.145.306 1.984c0 .823-.097 1.468-.29 1.935-.177.484-.484.823-.919 1.048-.419.21-1.016.323-1.758.355l3.355 5.048h-1.177zm-4.758-10.806v4.822h2.258c.597 0 1.048-.065 1.387-.21.323-.129.548-.371.694-.71.129-.339.194-.839.194-1.484 0-.629-.065-1.113-.21-1.452a1.31 1.31 0 0 0-.694-.742c-.323-.145-.774-.226-1.371-.226h-2.258z"/><path id="Y" d="M380.145 157.401c-.403 0-.661-.081-.806-.21s-.21-.387-.21-.742c0-.371.065-.613.21-.758.145-.129.403-.194.806-.194.387 0 .645.065.79.194.145.145.21.387.21.758 0 .355-.065.613-.21.742s-.403.21-.79.21z"/><path id="Z" d="M388.938 157.401c-.887 0-1.581-.097-2.081-.274s-.839-.484-1.048-.903c-.21-.403-.323-1-.323-1.742h1.016c0 .532.065.935.21 1.21.129.274.371.484.726.597.339.129.839.177 1.5.177.677 0 1.21-.081 1.581-.258s.629-.468.79-.871c.161-.419.242-1 .242-1.742 0-.758-.081-1.339-.242-1.742-.161-.419-.419-.694-.79-.871s-.903-.258-1.581-.258c-.387 0-.742.065-1.048.194-.323.145-.726.371-1.193.71h-.919v-6.161h6.419v.903h-5.403v4.145a2.74 2.74 0 0 1 .935-.564c.306-.113.71-.161 1.21-.161.919 0 1.645.113 2.161.355.516.226.903.629 1.129 1.161.226.548.339 1.322.339 2.29s-.113 1.726-.339 2.274c-.226.532-.613.935-1.129 1.161-.532.242-1.242.371-2.161.371z"/></defs></svg>