<svg xmlns="http://www.w3.org/2000/svg" xmlns:xlink="http://www.w3.org/1999/xlink" width="401" height="321" fill-rule="evenodd" stroke-linecap="round" stroke-linejoin="round" stroke-miterlimit="1.5" xmlns:v="https://vecta.io/nano"><style><![CDATA[.B{stroke:#000}.C{fill-rule:nonzero}.D{fill:#fff}.E{fill:#ceecff}.F{fill:#aeffb2}.G{fill:#fff2b1}.H{fill:#ffe0f6}]]></style><path d="M.5.5h100v40H.5z" fill="#7dcdff" class="B"/><path d="M32.121 14.458c0 .07-.053.245-.193.49-.052.105-.122.438-.175.98l-.455 8.593c0 .648.052 1.172.175 1.558.105.332.315.787.63 1.383.018.017.018.07.018.122 0 .315-.35.455-1.068.455h-.192c-.753 0-1.207-.613-1.365-1.785-.192-1.453-.297-3.43-.297-5.968l.035-2.712.035-2.713c0-.332.157-.665.525-.963.333-.315.683-.472 1.015-.472.262 0 .543.123.858.332.297.227.455.455.455.7zm8.676 11.428c-.018.682-.297 1.277-.875 1.785-.648.56-1.505.84-2.59.84-.472.017-.962-.088-1.505-.28-1.75-.665-2.625-1.19-2.625-1.61 0-.63.455-.963 1.383-.963l.402.018c.053.438.403.787 1.05 1.05.578.245 1.12.332 1.645.297.42-.035.63-.193.63-.473 0-.035 0-.105-.035-.193-.017-.087-.017-.157-.017-.21s-.28-.158-.84-.332l-1.05-.333c-1.663-.98-2.485-2.187-2.485-3.587 0-.84.227-1.627.718-2.345.542-.788 1.207-1.172 2.012-1.172.595 0 1.278.227 2.048.7.752.473 1.225.963 1.4 1.505.122.385.175.7.175.945 0 .262-.035.49-.105.648l-.263.665c-.28.193-.56.28-.822.28-.158 0-.403-.087-.735-.263-.35-.192-.525-.35-.525-.472 0-.07.087-.245.262-.578.105-.193.157-.35.157-.473 0-.875-.35-1.313-1.032-1.313-.402 0-.718.263-.928.788-.175.402-.245.84-.245 1.313 0 .578.402 1.102 1.242 1.575l2.293 1.015c.84.385 1.242.77 1.26 1.173zm3.631 1.61c0 .262-.122.49-.332.665-.21.192-.455.28-.718.28-.928 0-1.383-1.208-1.383-3.605l.035-4.935.035-4.917c0-.175-.035-.42-.07-.77-.053-.332-.07-.577-.07-.735.49-.315.858-.49 1.138-.49.315 0 .63.122.927.332.28.21.438.473.438.787 0 .157-.052.35-.122.577l-.175.56c-.192.91-.28 2.188-.28 3.85v4.078c.053 1.838.193 3.115.455 3.85.07.192.122.367.122.473zm8.806-3.133l-.175 3.99c-.07.455-.385.683-.91.683-.822 0-1.19-.42-1.102-1.225-.735.35-1.487.525-2.275.525a4.38 4.38 0 0 1-2.17-.578c-.805-.455-1.225-1.032-1.225-1.733 0-.682.473-1.312 1.4-1.925.857-.525 1.645-.805 2.398-.805h1.855v-.525c.017-1.523-.437-2.293-1.365-2.293-1.155 0-1.715.543-1.715 1.61 0 .368-.21.56-.613.56-.262 0-.508-.123-.787-.35-.263-.227-.403-.455-.403-.7 0-.822.297-1.488.875-2.012s1.278-.788 2.1-.788c2.747 0 4.112 1.855 4.112 5.565zm-2.205.787c0-.28-.227-.437-.665-.437-1.82 0-2.73.438-2.73 1.295 0 .473.403.7 1.208.7.49 0 .962-.14 1.4-.42.525-.298.788-.683.788-1.138zm11.752 2.783c-.227.332-.49.508-.823.508-.245 0-.647-.14-1.225-.437v-.263l.035-1.417.035-1.383c0-3.115-.473-4.69-1.4-4.69-.262 0-.56.21-.892.613-1.032 1.26-1.557 2.765-1.557 4.532 0 .245.053.613.14 1.102.105.49.14.858.14 1.103a.57.57 0 0 1-.28.507 1 1 0 0 1-.613.21c-.875 0-1.312-.56-1.312-1.68v-4.567c0-.105.018-.28.053-.508l.035-.525a4.93 4.93 0 0 0-.07-.752l-.088-.752c0-.228.14-.455.403-.665.28-.21.525-.315.735-.315.333 0 .648.175.998.543l-.07.875c.542-.857 1.207-1.295 1.995-1.295.508 0 1.05.175 1.61.525.578.35.98.752 1.242 1.19.595 1.102.91 2.573.91 4.375v3.168zm9.091-13.142c0 .315-.035.735-.123 1.243l-.228 1.225-.21 4.008-.14 3.675c0 1.4.157 2.45.455 3.15-.245.402-.525.613-.84.613a1.23 1.23 0 0 1-.91-.385 1.36 1.36 0 0 1-.437-.892c-.683.63-1.382.945-2.1.945-1.068 0-1.89-.367-2.468-1.12-.543-.665-.805-1.54-.805-2.643 0-1.277.263-2.59.788-3.92.665-1.662 1.54-2.503 2.625-2.503.63 0 1.295.28 1.96.84.07-.683.123-2.433.123-5.25 0-.262.192-.385.578-.385.472 0 .875.123 1.225.35.333.227.508.577.508 1.05zm-2.538 7.42c0-.507-.105-.945-.332-1.365-.28-.49-.63-.735-1.085-.735-.665 0-1.172.648-1.505 1.942a9.5 9.5 0 0 0-.402 2.748c0 1.365.402 2.047 1.19 2.047.805 0 1.4-.613 1.767-1.82.245-.823.367-1.75.367-2.818z" class="C"/><path d="M.5 40.5h100v40H.5z" class="B D"/><g class="C"><use xlink:href="#B"/><use xlink:href="#C"/><use xlink:href="#D"/><use xlink:href="#E"/><path d="M52.87 64.352c0 .224-.064.496-.176.848-.288.816-.848 1.472-1.696 1.952-.8.464-1.648.688-2.56.688-1.568 0-2.736-.64-3.52-1.92-.672-1.056-1.008-2.4-1.008-4.064 0-1.408.208-2.736.624-4 .464-1.456 1.152-2.592 2.08-3.392.672-.608 1.36-.912 2.064-.912 1.024 0 1.792.496 2.288 1.488.4.768.608 1.728.608 2.864 0 .56-.096 1.2-.256 1.936-.24.96-.528 1.44-.88 1.44-.288 0-.48-.144-.608-.448.08-.048.208-.144.384-.272.336-.336.512-1.152.512-2.448a6.02 6.02 0 0 0-.432-2.256c-.384-.928-.896-1.392-1.536-1.392-.528 0-1.072.304-1.648.928-.432.48-.8 1.008-1.104 1.632-.672 1.408-1.024 3.152-1.008 5.216-.016 1.376.24 2.464.72 3.28.592 1.008 1.52 1.52 2.8 1.52.688 0 1.312-.176 1.888-.544a3.68 3.68 0 0 0 1.328-1.472c.048-.208.16-.48.336-.848.112-.176.24-.256.4-.256.272 0 .4.144.4.432z"/><use xlink:href="#D" x="28.8"/><use xlink:href="#E" x="28.8"/><use xlink:href="#D" x="43.82"/><use xlink:href="#C" x="55.82"/><path d="M83.49 56.624c0 .448-.208.672-.64.672-.256 0-.48-.096-.704-.272-.208-.192-.32-.4-.32-.64 0-.464.224-.688.688-.688.256 0 .496.096.688.256a.87.87 0 0 1 .288.672zm-.384 2.992c0 .24-.048.608-.16 1.088l-.16 1.072v4.416c0 .304.064.704.192 1.2-.064.112-.128.176-.224.176-.656 0-.976-.32-.976-.944V59.28a.98.98 0 0 1 .496-.144c.16 0 .32.048.496.144.224.096.336.208.336.336z"/><use xlink:href="#D" x="59.26"/></g><path d="M100.5 40.5h100v40h-100z" class="B D"/><g class="C"><path d="M125.661 67.203c-1.225 0-2.117-.193-2.66-.56-.525-.368-.805-.98-.805-1.855a7.19 7.19 0 0 1 .175-1.47c.193-.91.438-1.575.753-2.03.315-.437.805-.822 1.453-1.155-.245-.192-.437-.402-.543-.648-.123-.227-.175-.525-.175-.892s.052-.788.157-1.26c.175-.84.42-1.488.735-1.96.332-.473.752-.822 1.313-1.032s1.278-.315 2.17-.315c1.102 0 1.907.175 2.398.508.507.332.752.892.752 1.68a6.36 6.36 0 0 1-.157 1.33c-.157.735-.35 1.295-.595 1.68s-.63.718-1.155 1.015c.35.227.612.472.787.752.157.297.245.648.245 1.102 0 .385-.07.858-.193 1.435-.192.928-.472 1.663-.822 2.187s-.84.892-1.435 1.138c-.612.228-1.4.35-2.397.35zm1.383-7.578c.647 0 1.137-.07 1.505-.192s.665-.35.875-.683c.21-.315.385-.788.507-1.417.088-.385.123-.7.123-.928 0-.42-.14-.735-.42-.892-.28-.175-.752-.263-1.435-.263-.63 0-1.12.07-1.505.21a1.76 1.76 0 0 0-.875.718c-.227.332-.385.788-.525 1.365l-.123.963c0 .438.14.735.42.892.262.157.752.227 1.453.227zm-1.348 6.352c.718 0 1.295-.087 1.733-.245.42-.175.77-.437.998-.822.245-.368.455-.91.595-1.593.105-.508.157-.892.157-1.155 0-.508-.157-.84-.49-1.032-.315-.175-.875-.263-1.68-.263-.735 0-1.312.07-1.733.227-.437.14-.77.403-1.015.788-.245.367-.437.928-.595 1.645-.105.42-.14.788-.14 1.085 0 .507.157.858.49 1.05.332.21.892.315 1.68.315z"/><use xlink:href="#F"/><use xlink:href="#F" x="9.545"/><use xlink:href="#F" x="19.091"/><path d="M160.063 65.943c.105-.508.35-.998.718-1.453.385-.455.822-.875 1.313-1.242l1.925-1.348 2.135-1.487a9.16 9.16 0 0 0 1.435-1.418c.42-.525.7-1.085.823-1.715.07-.297.123-.595.123-.858 0-.455-.175-.77-.49-.928s-.875-.245-1.68-.245c-.735 0-1.312.07-1.732.227-.42.14-.735.385-.963.735s-.403.84-.525 1.488l-1.295-.105c.157-.927.42-1.645.752-2.152s.805-.875 1.4-1.085c.595-.227 1.4-.333 2.397-.333 1.243 0 2.135.175 2.66.508.543.332.823.892.823 1.68 0 .403-.053.823-.157 1.278a5.55 5.55 0 0 1-1.032 2.205c-.525.665-1.103 1.242-1.733 1.715-.612.49-1.417 1.05-2.398 1.662l-2.117 1.505c-.472.385-.787.787-.963 1.225l6.458-.052-.28 1.225h-7.823l.228-1.032z"/><use xlink:href="#G"/></g><path d="M200.5 40.5h100v40h-100z" class="B D"/><g class="C"><use xlink:href="#G" x="52.272"/><use xlink:href="#F" x="100"/><path d="M244.752 67.203c-1.155 0-2.013-.193-2.52-.578-.525-.385-.787-1.015-.787-1.907 0-.508.07-1.085.21-1.698l.98-4.602c.245-1.12.542-1.995.91-2.625s.84-1.085 1.435-1.347c.595-.28 1.365-.42 2.345-.42 1.19 0 2.065.157 2.607.49s.805.875.805 1.628c0 .28-.035.63-.123 1.05l-1.33-.105a2.83 2.83 0 0 0 .105-.7c0-.437-.157-.735-.472-.893s-.858-.245-1.627-.245c-.7 0-1.243.105-1.662.297-.42.21-.753.543-1.015 1.015-.245.455-.472 1.12-.648 1.96l-.297 1.172a3.12 3.12 0 0 1 1.12-.63c.385-.105.892-.175 1.505-.175 1.172 0 2.012.193 2.537.56.507.35.77.98.77 1.855 0 .508-.088 1.138-.245 1.855-.21 1.032-.49 1.837-.858 2.415-.35.578-.822.98-1.417 1.243-.595.245-1.365.385-2.327.385zm.035-1.225c.682 0 1.225-.105 1.645-.28a2.13 2.13 0 0 0 .998-.927c.263-.42.472-1.032.63-1.82.14-.595.193-1.068.193-1.435 0-.542-.14-.91-.455-1.102-.298-.175-.805-.28-1.54-.28-.7 0-1.26.087-1.663.263-.42.157-.752.472-.997.892-.263.438-.473 1.068-.63 1.89-.123.56-.175 1.015-.175 1.347 0 .56.14.928.438 1.138.315.21.822.315 1.558.315zm9.511 1.225a2.38 2.38 0 0 1-1.558-.543c-.437-.35-.788-.858-1.015-1.505-.245-.648-.368-1.418-.368-2.293 0-.7.088-1.488.28-2.363.263-1.242.665-2.362 1.208-3.343s1.173-1.75 1.873-2.31c.718-.543 1.417-.823 2.153-.823a2.38 2.38 0 0 1 1.54.525c.438.367.787.875 1.015 1.522.245.665.368 1.418.368 2.293 0 .752-.088 1.54-.263 2.362-.262 1.242-.665 2.345-1.207 3.343-.543.98-1.173 1.75-1.873 2.293-.718.56-1.435.84-2.152.84zm.035-1.225c.472 0 .98-.245 1.505-.718s.997-1.138 1.435-1.96c.42-.84.752-1.768.98-2.8.158-.788.228-1.487.228-2.135 0-.945-.14-1.697-.455-2.258-.297-.578-.7-.858-1.19-.858-.472 0-.98.245-1.505.718s-.998 1.138-1.435 1.96a12.01 12.01 0 0 0-.98 2.8 10.7 10.7 0 0 0-.227 2.135c0 .927.14 1.697.438 2.257.315.578.718.858 1.208.858zm1.155-4.357c-.298 0-.543-.088-.718-.245s-.263-.367-.263-.612a1.03 1.03 0 0 1 .333-.805 1.18 1.18 0 0 1 .822-.315c.298 0 .542.07.718.245a.73.73 0 0 1 .28.612c0 .315-.123.578-.35.788a1.12 1.12 0 0 1-.822.333zm8.355 5.582c-.403 0-.683-.07-.858-.175-.175-.122-.262-.315-.262-.578a2.46 2.46 0 0 1 .053-.49c.087-.403.21-.683.385-.823s.49-.21.928-.21c.402 0 .683.052.857.175.175.105.263.315.263.578a2.34 2.34 0 0 1-.053.49c-.07.403-.21.665-.385.805-.175.157-.49.228-.928.228zm12.836-12.95l-2.433 11.498h2.258l-.263 1.225h-5.862l.28-1.225h2.257l1.803-8.488c-.788.49-1.663.717-2.678.717l.158-1.242c.822 0 1.505-.21 2.065-.665.56-.437.91-1.067 1.085-1.872l.665.053h.665z"/></g><path d="M300.5 40.5h100v40h-100z" class="B D"/><path d="M338.672 66.975h-6.65l2.695-12.722h1.33l-2.433 11.498h5.338l-.28 1.225zm8.985-12.722c1.085 0 1.873.175 2.38.542.49.35.735.945.735 1.767a6.6 6.6 0 0 1-.175 1.488c-.21.927-.472 1.662-.805 2.17s-.787.875-1.347 1.085-1.312.333-2.257.333h-2.398l-1.137 5.337h-1.33l2.695-12.722h3.64zm1.645 3.57c.105-.437.14-.787.14-1.067 0-.49-.14-.823-.437-.998-.28-.192-.788-.28-1.488-.28h-2.433l-1.05 4.918h2.293c.647 0 1.137-.07 1.522-.227.368-.14.665-.385.893-.753.227-.35.42-.892.56-1.593zm5.311 9.38c-1.208 0-2.065-.245-2.608-.735-.543-.473-.805-1.295-.805-2.45 0-.893.158-2.065.455-3.518.368-1.68.77-2.992 1.208-3.92.455-.91 1.015-1.575 1.68-1.96.683-.403 1.558-.595 2.625-.595.787 0 1.417.105 1.873.315.438.21.77.56.98 1.05.21.473.333 1.155.368 2.012l-1.295.21c-.035-.63-.105-1.103-.245-1.435-.123-.35-.315-.578-.578-.718-.28-.14-.647-.21-1.137-.21-.77 0-1.418.175-1.907.508-.508.333-.945.91-1.295 1.68-.35.788-.683 1.89-.98 3.29-.28 1.383-.437 2.398-.437 3.08 0 .788.175 1.348.507 1.68.333.315.875.49 1.61.49.683 0 1.207-.14 1.627-.42s.805-.752 1.19-1.435l.577-2.52h-2.765l.228-1.242h4.113l-.84 4.06c-.402.718-.77 1.295-1.155 1.68a3.18 3.18 0 0 1-1.26.858c-.473.157-1.05.245-1.733.245zm9.475 0c-1.155 0-1.978-.263-2.485-.753-.525-.507-.77-1.33-.77-2.485 0-.893.14-2.065.455-3.483.35-1.628.735-2.905 1.19-3.833.438-.927.98-1.61 1.645-2.012.648-.403 1.488-.613 2.52-.613.735 0 1.313.105 1.75.297.42.193.752.508.962.945.21.455.35 1.05.402 1.803l-1.295.332c-.053-.595-.14-1.05-.262-1.347s-.298-.508-.543-.63-.577-.175-1.05-.175c-.717 0-1.33.175-1.82.508s-.91.892-1.243 1.68c-.35.788-.665 1.873-.962 3.273-.298 1.383-.455 2.432-.455 3.15 0 .753.158 1.313.473 1.628s.822.49 1.522.49c.49 0 .893-.07 1.208-.21.332-.123.63-.35.892-.648.262-.315.543-.752.84-1.347l1.208.525c-.385.752-.752 1.347-1.138 1.75-.385.42-.805.718-1.277.892s-1.067.263-1.767.263z" class="C"/><path d="M.5 120.5h100v40H.5z" class="B D"/><g class="C"><use xlink:href="#H"/><use xlink:href="#D" x="5.86" y="80"/><path d="M50.898 139.872c-.56 3.392-1.984 5.024-4.304 4.88-1.264-.08-2.32-.48-3.184-1.232l-.144.096v.816c-.016.8.064 1.376.208 1.744.016.048.08.176.224.416.128.224.192.368.192.432 0 .16-.064.304-.176.448-.128.144-.272.208-.448.208-.4 0-.672-.128-.832-.4-.112-.208-.176-.528-.208-.96l-.048-2.064.08-1.792.08-1.84c0-.416.032-1.04.096-1.856l.096-1.824v-1.904a2.08 2.08 0 0 0-.064-.448c-.048-.192-.08-.336-.08-.432 0-.256.176-.384.528-.384.224 0 .416.096.56.304.16.192.24.416.24.64 0 .176-.048.416-.112.736a3.27 3.27 0 0 0-.112.736l.016.528.928-1.6c.72-1.008 1.664-1.504 2.864-1.504 1.28 0 2.24.528 2.896 1.584.528.864.8 1.968.8 3.296 0 .464-.032.928-.096 1.376zm-.88-1.136c0-1.04-.192-1.952-.544-2.736-.464-1.024-1.152-1.536-2.064-1.536-1.168 0-2.16.768-2.976 2.336-.704 1.328-1.04 2.64-1.04 3.936v1.056c.128-.064.224-.096.304-.096s.176.064.24.208a1.47 1.47 0 0 0 .192.256c-.016.048-.032.048-.064.032-.016 0-.032.016-.032.048 0 .064.048.192.16.352.512.8 1.312 1.2 2.4 1.2 1.008 0 1.776-.32 2.272-.992.384-.496.704-1.28.928-2.368.144-.752.224-1.312.224-1.696z"/><use xlink:href="#D" x="26.66" y="80"/><use xlink:href="#I"/><use xlink:href="#J"/><use xlink:href="#D" x="46.96" y="80"/></g><path d="M100.5 120.5h100v40h-100z" class="B D"/><g class="C"><path d="M130.434 147.203c-1.225 0-2.118-.192-2.66-.56-.525-.367-.805-.98-.805-1.855a7.19 7.19 0 0 1 .175-1.47c.193-.91.438-1.575.753-2.03.315-.437.805-.822 1.453-1.155-.245-.192-.437-.403-.543-.648-.122-.227-.175-.525-.175-.892s.053-.787.157-1.26c.175-.84.42-1.487.735-1.96.333-.472.752-.823 1.313-1.032s1.278-.315 2.17-.315c1.102 0 1.907.175 2.398.507.507.333.752.892.752 1.68a6.36 6.36 0 0 1-.157 1.33c-.157.735-.35 1.295-.595 1.68s-.63.718-1.155 1.015c.35.228.612.473.787.752.157.298.245.648.245 1.103 0 .385-.07.857-.193 1.435-.192.927-.472 1.662-.822 2.188s-.84.892-1.435 1.137c-.612.227-1.4.35-2.397.35zm1.382-7.577c.647 0 1.137-.07 1.505-.192s.665-.35.875-.683c.21-.315.385-.787.507-1.418a4.32 4.32 0 0 0 .123-.927c0-.42-.14-.735-.42-.893-.28-.175-.752-.262-1.435-.262-.63 0-1.12.07-1.505.21a1.76 1.76 0 0 0-.875.718c-.228.332-.385.787-.525 1.365l-.123.963c0 .438.14.735.42.893.263.157.752.227 1.453.227zm-1.347 6.352c.718 0 1.295-.088 1.732-.245.42-.175.77-.437.998-.822.245-.368.455-.91.595-1.593.105-.507.157-.893.157-1.155 0-.507-.157-.84-.49-1.032-.315-.175-.875-.262-1.68-.262-.735 0-1.312.07-1.733.227a1.83 1.83 0 0 0-1.015.787c-.245.368-.437.928-.595 1.645-.105.42-.14.787-.14 1.085 0 .508.157.858.49 1.05.333.21.892.315 1.68.315zm9.511 1.225c-1.173 0-2.013-.175-2.52-.507-.507-.35-.77-.91-.77-1.697 0-.403.053-.858.157-1.347l1.347.105c-.123.49-.175.84-.175 1.067 0 .438.157.735.455.91.298.157.805.245 1.54.245.647 0 1.172-.088 1.575-.245.385-.157.7-.42.945-.77.228-.368.42-.875.56-1.54.105-.542.175-.963.175-1.26 0-.455-.14-.787-.385-.963-.263-.175-.7-.297-1.313-.332h-1.435l.262-1.243h1.313c.595-.035 1.05-.123 1.382-.263a1.62 1.62 0 0 0 .787-.665c.21-.315.368-.77.49-1.347.07-.333.123-.63.123-.91 0-.437-.157-.752-.455-.928s-.805-.262-1.522-.262c-.7 0-1.225.07-1.61.192a1.75 1.75 0 0 0-.892.665c-.193.315-.368.752-.49 1.347l-1.33-.105c.193-.875.438-1.54.752-2.012s.77-.805 1.33-1.015c.56-.192 1.313-.297 2.275-.297 1.155 0 1.977.175 2.502.525.507.333.77.91.77 1.698a6.17 6.17 0 0 1-.157 1.33c-.157.735-.368 1.295-.648 1.68-.263.385-.683.735-1.26 1.032.28.21.49.438.63.718.123.28.192.63.192 1.05 0 .35-.07.875-.21 1.593-.192.91-.455 1.61-.787 2.117a3 3 0 0 1-1.365 1.103c-.56.21-1.312.332-2.24.332z"/><use xlink:href="#K"/><path d="M159.07 147.203c-1.225 0-2.1-.175-2.625-.49-.525-.333-.788-.893-.788-1.663 0-.402.053-.84.157-1.312l1.33.123-.14.98c0 .438.157.735.455.892.315.157.857.245 1.645.245.735 0 1.33-.105 1.767-.297a2.28 2.28 0 0 0 1.067-.928c.263-.437.472-1.067.648-1.873.123-.56.192-1.015.192-1.4 0-.56-.157-.945-.49-1.155-.333-.192-.893-.297-1.698-.297-.437 0-.822.07-1.207.21s-.875.403-1.47.805l-1.19-.035 1.435-6.755h7.193l-.245 1.207h-5.88l-.893 3.955c.368-.227.718-.385 1.067-.49.35-.087.752-.123 1.225-.123 1.243 0 2.118.175 2.66.56s.822 1.032.822 1.943c0 .49-.088 1.085-.228 1.802-.227 1.032-.525 1.855-.892 2.45a3.21 3.21 0 0 1-1.47 1.26c-.63.245-1.435.385-2.45.385z"/><use xlink:href="#L"/></g><path d="M200.5 120.5h100v40h-100z" class="B D"/><g class="C"><path d="M223.036 146.922a44.04 44.04 0 0 1 3.063-5.53l4.27-5.95-6.248.035.263-1.225h7.735l-.227 1.26-4.393 6.002a42.56 42.56 0 0 0-3.08 5.513l-1.382-.105zm12.171.281a2.38 2.38 0 0 1-1.558-.542c-.437-.35-.788-.858-1.015-1.505-.245-.648-.368-1.418-.368-2.293 0-.7.088-1.487.28-2.362.263-1.243.665-2.363 1.208-3.343s1.173-1.75 1.873-2.31c.718-.542 1.417-.822 2.153-.822a2.38 2.38 0 0 1 1.54.525c.438.368.787.875 1.015 1.523.245.665.367 1.417.367 2.293 0 .752-.087 1.54-.262 2.362-.262 1.243-.665 2.345-1.208 3.343-.542.98-1.172 1.75-1.873 2.292-.718.56-1.435.84-2.152.84zm.035-1.225c.472 0 .98-.245 1.505-.718s.998-1.137 1.435-1.96a12.01 12.01 0 0 0 .98-2.8c.157-.787.227-1.488.227-2.135 0-.945-.14-1.698-.455-2.258-.298-.577-.7-.857-1.19-.857-.472 0-.98.245-1.505.718s-.998 1.137-1.435 1.96a12.01 12.01 0 0 0-.98 2.8 10.7 10.7 0 0 0-.227 2.135c0 .928.14 1.698.438 2.258.315.577.718.857 1.208.857zm1.155-4.357c-.298 0-.543-.088-.718-.245s-.263-.368-.263-.613a1.03 1.03 0 0 1 .333-.805 1.18 1.18 0 0 1 .822-.315c.298 0 .543.07.718.245a.73.73 0 0 1 .28.613c0 .315-.123.577-.35.787a1.12 1.12 0 0 1-.822.333z"/><use xlink:href="#L" x="76.136"/><use xlink:href="#M"/><path d="M263.843 147.203c-1.173 0-2.012-.175-2.52-.507-.507-.35-.77-.91-.77-1.697 0-.403.053-.858.158-1.347l1.347.105c-.123.49-.175.84-.175 1.067 0 .438.158.735.455.91.297.157.805.245 1.54.245.648 0 1.173-.088 1.575-.245.385-.157.7-.42.945-.77.227-.368.42-.875.56-1.54.105-.542.175-.963.175-1.26 0-.455-.14-.787-.385-.963-.262-.175-.7-.297-1.312-.332h-1.435l.262-1.243h1.313c.595-.035 1.05-.123 1.383-.263s.595-.35.787-.665c.21-.315.368-.77.49-1.347.07-.333.123-.63.123-.91 0-.437-.157-.752-.455-.928s-.805-.262-1.523-.262c-.7 0-1.225.07-1.61.192-.403.14-.683.368-.893.665-.192.315-.368.752-.49 1.347l-1.33-.105c.192-.875.438-1.54.752-2.012s.77-.805 1.33-1.015c.56-.192 1.313-.297 2.275-.297 1.155 0 1.978.175 2.502.525.507.333.77.91.77 1.698a6.17 6.17 0 0 1-.157 1.33c-.158.735-.368 1.295-.648 1.68-.262.385-.682.735-1.26 1.032.28.21.49.438.63.718.123.28.192.63.192 1.05 0 .35-.07.875-.21 1.593-.192.91-.455 1.61-.788 2.117a3 3 0 0 1-1.365 1.103c-.56.21-1.312.332-2.24.332zm5.766-1.26c.105-.507.35-.998.718-1.453.385-.455.822-.875 1.313-1.242l1.925-1.347 2.135-1.488a9.16 9.16 0 0 0 1.435-1.417c.42-.525.7-1.085.822-1.715.07-.298.123-.595.123-.858 0-.455-.175-.77-.49-.927s-.875-.245-1.68-.245c-.735 0-1.312.07-1.733.227-.42.14-.735.385-.962.735s-.402.84-.525 1.487l-1.295-.105c.157-.928.42-1.645.752-2.153a2.71 2.71 0 0 1 1.4-1.085c.595-.227 1.4-.332 2.398-.332 1.243 0 2.135.175 2.66.507.543.333.822.892.822 1.68 0 .403-.052.822-.157 1.277a5.55 5.55 0 0 1-1.033 2.205c-.525.665-1.102 1.243-1.732 1.715-.613.49-1.418 1.05-2.398 1.662l-2.118 1.505c-.472.385-.787.787-.962 1.225l6.457-.052-.28 1.225h-7.822l.227-1.032z"/></g><path d="M300.5 120.5h100v40h-100z" class="B D"/><g class="C"><use xlink:href="#N"/><use xlink:href="#O"/><use xlink:href="#P"/><use xlink:href="#Q"/></g><path d="M.5 200.5h100v40H.5z" class="B D"/><g class="C"><use xlink:href="#H" x="-4.59" y="80"/><use xlink:href="#D" x="1.27" y="160"/><use xlink:href="#B" x="26.73" y="160"/><use xlink:href="#R"/><use xlink:href="#J" x="-6.95" y="80"/><use xlink:href="#S"/><use xlink:href="#C" x="51.55" y="160"/><use xlink:href="#D" x="51.55" y="160"/></g><path d="M100.5 200.5h100v40h-100z" class="B D"/><g class="C"><path d="M126.654 225.943c.105-.507.35-.998.718-1.453.385-.455.823-.875 1.313-1.242l1.925-1.347 2.135-1.488a9.16 9.16 0 0 0 1.435-1.417c.42-.525.7-1.085.823-1.715.07-.298.123-.595.123-.858 0-.455-.175-.77-.49-.927s-.875-.245-1.68-.245c-.735 0-1.312.07-1.732.227-.42.14-.735.385-.963.735s-.403.84-.525 1.487l-1.295-.105c.157-.928.42-1.645.752-2.153s.805-.875 1.4-1.085c.595-.227 1.4-.332 2.397-.332 1.243 0 2.135.175 2.66.507.543.333.823.892.823 1.68 0 .403-.053.822-.157 1.277a5.55 5.55 0 0 1-1.032 2.205c-.525.665-1.103 1.243-1.733 1.715-.612.49-1.417 1.05-2.398 1.662l-2.117 1.505c-.472.385-.787.787-.963 1.225l6.458-.052-.28 1.225h-7.823l.227-1.032z"/><use xlink:href="#T"/><path d="M149.525 227.203c-1.155 0-2.013-.192-2.52-.577-.525-.385-.787-1.015-.787-1.907a7.75 7.75 0 0 1 .21-1.698l.98-4.602c.245-1.12.542-1.995.91-2.625s.84-1.085 1.435-1.347c.595-.28 1.365-.42 2.345-.42 1.19 0 2.065.157 2.607.49s.805.875.805 1.627c0 .28-.035.63-.123 1.05l-1.33-.105a2.83 2.83 0 0 0 .105-.7c0-.437-.157-.735-.472-.892s-.858-.245-1.627-.245c-.7 0-1.243.105-1.662.297-.42.21-.753.543-1.015 1.015-.245.455-.472 1.12-.648 1.96l-.297 1.173a3.12 3.12 0 0 1 1.12-.63c.385-.105.892-.175 1.505-.175 1.172 0 2.012.192 2.537.56.507.35.77.98.77 1.855 0 .507-.088 1.137-.245 1.855-.21 1.032-.49 1.838-.858 2.415-.35.578-.822.98-1.417 1.243-.595.245-1.365.385-2.327.385zm.035-1.225c.683 0 1.225-.105 1.645-.28.42-.192.752-.49.998-.928.263-.42.472-1.032.63-1.82.14-.595.192-1.067.192-1.435 0-.542-.14-.91-.455-1.102-.298-.175-.805-.28-1.54-.28-.7 0-1.26.088-1.663.262-.42.158-.752.473-.997.893-.263.438-.473 1.067-.63 1.89-.123.56-.175 1.015-.175 1.348 0 .56.14.927.438 1.137.315.21.822.315 1.558.315zm6.885.944a44.16 44.16 0 0 1 3.062-5.53l4.27-5.95-6.248.035.263-1.225h7.735l-.227 1.26-4.393 6.002a42.56 42.56 0 0 0-3.08 5.513l-1.382-.105z"/><use xlink:href="#L" y="80"/></g><path d="M200.5 200.5h100v40h-100z" class="B D"/><g class="C"><path d="M225.661 227.203c-1.173 0-2.013-.175-2.52-.507-.507-.35-.77-.91-.77-1.697 0-.403.053-.858.157-1.347l1.347.105c-.123.49-.175.84-.175 1.067 0 .438.157.735.455.91.298.157.805.245 1.54.245.647 0 1.172-.088 1.575-.245.385-.157.7-.42.945-.77.228-.368.42-.875.56-1.54.105-.542.175-.963.175-1.26 0-.455-.14-.787-.385-.963-.262-.175-.7-.297-1.312-.332h-1.435l.262-1.243h1.313c.595-.035 1.05-.123 1.382-.263a1.62 1.62 0 0 0 .787-.665c.21-.315.368-.77.49-1.347.07-.333.123-.63.123-.91 0-.437-.157-.752-.455-.928s-.805-.262-1.522-.262c-.7 0-1.225.07-1.61.192a1.75 1.75 0 0 0-.892.665c-.193.315-.368.752-.49 1.347l-1.33-.105c.193-.875.438-1.54.752-2.012s.77-.805 1.33-1.015c.56-.192 1.313-.297 2.275-.297 1.155 0 1.977.175 2.502.525.507.333.77.91.77 1.698a6.17 6.17 0 0 1-.157 1.33c-.158.735-.368 1.295-.648 1.68-.263.385-.683.735-1.26 1.032.28.21.49.438.63.718.123.28.192.63.192 1.05 0 .35-.07.875-.21 1.593-.192.91-.455 1.61-.787 2.117a3 3 0 0 1-1.365 1.103c-.56.21-1.312.332-2.24.332zm9.546 0c-1.155 0-2.013-.192-2.52-.577-.525-.385-.787-1.015-.787-1.907a7.75 7.75 0 0 1 .21-1.698l.98-4.602c.245-1.12.542-1.995.91-2.625s.84-1.085 1.435-1.347c.595-.28 1.365-.42 2.345-.42 1.19 0 2.065.157 2.607.49s.805.875.805 1.627c0 .28-.035.63-.123 1.05l-1.33-.105a2.83 2.83 0 0 0 .105-.7c0-.437-.157-.735-.472-.892s-.858-.245-1.627-.245c-.7 0-1.243.105-1.662.297-.42.21-.753.543-1.015 1.015-.245.455-.472 1.12-.648 1.96l-.297 1.173a3.12 3.12 0 0 1 1.12-.63c.385-.105.892-.175 1.505-.175 1.172 0 2.012.192 2.537.56.507.35.77.98.77 1.855 0 .507-.088 1.137-.245 1.855-.21 1.032-.49 1.838-.858 2.415-.35.578-.822.98-1.417 1.243-.595.245-1.365.385-2.327.385zm.035-1.225c.682 0 1.225-.105 1.645-.28.42-.192.752-.49.998-.928.263-.42.472-1.032.63-1.82.14-.595.193-1.067.193-1.435 0-.542-.14-.91-.455-1.102-.298-.175-.805-.28-1.54-.28-.7 0-1.26.088-1.663.262-.42.158-.752.473-.997.893-.263.438-.473 1.067-.63 1.89-.123.56-.175 1.015-.175 1.348 0 .56.14.927.438 1.137.315.21.822.315 1.558.315zm9.51 1.225c-1.19 0-2.065-.175-2.608-.49-.542-.333-.822-.875-.822-1.645 0-.28.035-.63.123-1.032l1.347.088c-.07.262-.105.507-.105.718 0 .438.157.735.473.892s.857.245 1.627.245c.682 0 1.242-.105 1.662-.315.42-.192.752-.525 1.015-.998.245-.455.472-1.12.648-1.977l.298-1.155a3.12 3.12 0 0 1-1.12.63 6.07 6.07 0 0 1-1.523.175c-1.173 0-2.012-.193-2.52-.56s-.77-.998-.77-1.89c0-.472.088-1.085.227-1.82.227-1.032.507-1.838.875-2.415.35-.578.822-.998 1.4-1.243.595-.263 1.365-.385 2.345-.385 1.155 0 1.995.192 2.52.577s.788 1.015.788 1.907c0 .507-.07 1.067-.21 1.697l-.98 4.603c-.245 1.12-.543 1.995-.91 2.625s-.84 1.067-1.452 1.347c-.595.28-1.365.42-2.327.42zm1.067-6.107c.7 0 1.242-.088 1.645-.263.42-.175.752-.472.998-.91.263-.437.472-1.05.648-1.873.123-.56.175-1.015.175-1.347 0-.56-.14-.927-.455-1.137-.298-.21-.805-.315-1.54-.315-.683 0-1.225.088-1.645.28s-.752.49-1.015.927c-.245.42-.455 1.032-.613 1.82-.14.577-.192 1.05-.192 1.435 0 .525.14.892.455 1.085.298.192.805.298 1.54.298z"/><use xlink:href="#M" y="80"/><path d="M261.218 226.922a44.04 44.04 0 0 1 3.063-5.53l4.27-5.95-6.248.035.262-1.225h7.735l-.228 1.26-4.392 6.002a42.56 42.56 0 0 0-3.08 5.513l-1.382-.105zm12.171.281c-1.155 0-2.012-.192-2.52-.577-.525-.385-.787-1.015-.787-1.907a7.75 7.75 0 0 1 .21-1.698l.98-4.602c.245-1.12.543-1.995.91-2.625s.84-1.085 1.435-1.347c.595-.28 1.365-.42 2.345-.42 1.19 0 2.065.157 2.608.49s.805.875.805 1.627c0 .28-.035.63-.123 1.05l-1.33-.105a2.83 2.83 0 0 0 .105-.7c0-.437-.158-.735-.473-.892s-.857-.245-1.627-.245c-.7 0-1.243.105-1.662.297-.42.21-.752.543-1.015 1.015-.245.455-.473 1.12-.648 1.96l-.298 1.173a3.12 3.12 0 0 1 1.12-.63c.385-.105.893-.175 1.505-.175 1.173 0 2.013.192 2.538.56.507.35.77.98.77 1.855 0 .507-.087 1.137-.245 1.855-.21 1.032-.49 1.838-.857 2.415-.35.578-.822.98-1.418 1.243-.595.245-1.365.385-2.327.385zm.035-1.225c.683 0 1.225-.105 1.645-.28.42-.192.752-.49.998-.928.262-.42.472-1.032.63-1.82.14-.595.192-1.067.192-1.435 0-.542-.14-.91-.455-1.102-.297-.175-.805-.28-1.54-.28-.7 0-1.26.088-1.663.262-.42.158-.752.473-.998.893-.262.438-.472 1.067-.63 1.89-.123.56-.175 1.015-.175 1.348 0 .56.14.927.438 1.137.315.21.823.315 1.558.315z"/></g><path d="M300.5 200.5h100v40h-100z" class="B D"/><g class="C"><use xlink:href="#N" y="80"/><use xlink:href="#O" y="80"/><use xlink:href="#P" y="80"/><use xlink:href="#Q" y="80"/></g><path d="M.5 280.5h100v40H.5z" class="B D"/><g class="C"><path d="M18.596 294.736c-.144.144-.304.224-.496.224-.08 0-.192-.016-.352-.032l-.384-.032c-.56 0-1.312.112-2.24.336l-2.24.48-.416 3.76-.048.688c0 .288.096.432.304.432.048 0 .112 0 .176-.016 1.28-.32 2.208-.48 2.784-.48l.832-.032c.272.016.48.16.64.4l.064.496c-.032.096-.112.144-.192.144-.096 0-.224.016-.384.032-.144.032-.256.048-.336.048-1.152 0-2.448.208-3.888.656-.096.432-.144 1.424-.144 2.944 0 1.248.048 1.952.144 2.096a1.26 1.26 0 0 0 .192.24c.064.08.112.144.112.192 0 .096-.08.208-.224.32s-.256.176-.336.176c-.016 0-.224-.112-.608-.32-.272-.736-.416-1.712-.416-2.912 0-.944.08-2.352.224-4.208l.24-4.208c0-.192-.096-.32-.288-.336-.288-.064-.464-.112-.512-.144-.208-.128-.304-.256-.304-.368 0-.128.064-.256.176-.4.064-.016.224-.032.512-.048.224-.016.368-.064.448-.16.032-.112.048-.208.048-.304 0-.208.128-.384.4-.544.208-.112.384-.176.544-.176.128 0 .192.08.208.256v.416c.032.096.08.16.144.208l1.904-.4c.752-.144 1.392-.224 1.92-.224.752 0 1.36.272 1.792.8z"/><use xlink:href="#U"/><use xlink:href="#S" x="-40.28" y="80"/><use xlink:href="#C" x="11.27" y="240"/><use xlink:href="#V"/><use xlink:href="#S" x="-24.34" y="80"/><path d="M53.36 299.472c.08 1.152-.16 2.736-.72 4.752-.592 2.24-1.232 3.36-1.904 3.36-.8 0-1.536-.848-2.192-2.544-.416-1.024-.768-2.24-1.04-3.648-.144-.64-.208-1.328-.208-2.048 0-.112.064-.224.176-.336s.224-.176.336-.176c.16 0 .4.144.72.4-.064.24-.096.464-.08.688-.016.816.16 1.792.48 2.944a16.77 16.77 0 0 0 1.04 2.8c.224.448.4.672.56.672.512 0 .96-1.04 1.36-3.136.288-1.632.432-2.944.432-3.968 0-.08.064-.16.192-.256s.24-.144.336-.144c.32 0 .496.224.512.64z"/><use xlink:href="#S" x="-11.32" y="80"/><use xlink:href="#W"/><use xlink:href="#V" x="31.28"/><use xlink:href="#U" x="54.26"/><use xlink:href="#C" x="59.25" y="240"/><use xlink:href="#D" x="59.25" y="240"/></g><path d="M100.5 280.5h100v40h-100z" class="B D"/><g class="C"><path d="M128.951 294.253l-2.433 11.498h2.257l-.262 1.225h-5.863l.28-1.225h2.258l1.802-8.487c-.787.49-1.662.717-2.677.717l.157-1.243c.823 0 1.505-.21 2.065-.665.56-.437.91-1.068 1.085-1.873l.665.052h.665z"/><use xlink:href="#X"/><path d="M144.752 307.203c-1.19 0-2.065-.175-2.608-.49-.542-.333-.822-.875-.822-1.645 0-.28.035-.63.123-1.032l1.347.087c-.07.263-.105.507-.105.718 0 .438.157.735.473.892s.857.245 1.627.245c.682 0 1.242-.105 1.662-.315.42-.192.752-.525 1.015-.998.245-.455.472-1.12.648-1.978l.298-1.155a3.12 3.12 0 0 1-1.12.63 6.07 6.07 0 0 1-1.523.175c-1.173 0-2.012-.192-2.52-.56s-.77-.998-.77-1.89c0-.473.088-1.085.227-1.82.227-1.032.507-1.837.875-2.415.35-.577.822-.998 1.4-1.243.595-.262 1.365-.385 2.345-.385 1.155 0 1.995.192 2.52.577s.788 1.015.788 1.908c0 .507-.07 1.067-.21 1.697l-.98 4.602c-.245 1.12-.543 1.995-.91 2.625s-.84 1.067-1.452 1.348c-.595.28-1.365.42-2.327.42zm1.067-6.108c.7 0 1.242-.087 1.645-.262.42-.175.752-.473.998-.91.263-.437.472-1.05.648-1.873.123-.56.175-1.015.175-1.347 0-.56-.14-.928-.455-1.138-.298-.21-.805-.315-1.54-.315-.683 0-1.225.088-1.645.28s-.752.49-1.015.928c-.245.42-.455 1.032-.613 1.82-.14.577-.192 1.05-.192 1.435 0 .525.14.892.455 1.085.298.192.805.298 1.54.298zm5.854 5.828a44.04 44.04 0 0 1 3.063-5.53l4.27-5.95-6.248.035.263-1.225h7.735l-.227 1.26-4.393 6.002a42.56 42.56 0 0 0-3.08 5.512l-1.382-.105zm12.17.28c-1.173 0-2.013-.175-2.52-.507-.507-.35-.77-.91-.77-1.698 0-.402.053-.857.157-1.347l1.347.105c-.123.49-.175.84-.175 1.068 0 .438.157.735.455.91.298.158.805.245 1.54.245.647 0 1.172-.087 1.575-.245.385-.157.7-.42.945-.77.228-.368.42-.875.56-1.54.105-.543.175-.962.175-1.26 0-.455-.14-.788-.385-.962-.262-.175-.7-.298-1.312-.333H164l.262-1.243h1.313c.595-.035 1.05-.123 1.382-.262s.595-.35.787-.665c.21-.315.368-.77.49-1.348.07-.332.123-.63.123-.91 0-.437-.157-.752-.455-.927s-.805-.263-1.522-.263c-.7 0-1.225.07-1.61.192a1.75 1.75 0 0 0-.892.665c-.193.315-.368.752-.49 1.348l-1.33-.105c.193-.875.438-1.54.752-2.012s.77-.805 1.33-1.015c.56-.193 1.313-.298 2.275-.298 1.155 0 1.977.175 2.502.525.507.333.77.91.77 1.697 0 .42-.053.858-.157 1.33-.158.735-.368 1.295-.648 1.68-.263.385-.683.735-1.26 1.032.28.21.49.438.63.718.123.28.192.63.192 1.05 0 .35-.07.875-.21 1.593-.192.91-.455 1.61-.787 2.118a3 3 0 0 1-1.365 1.102c-.56.21-1.312.333-2.24.333zm5.766-1.26c.105-.507.35-.997.718-1.452.385-.455.822-.875 1.313-1.243l1.925-1.347 2.135-1.488a9.16 9.16 0 0 0 1.435-1.418c.42-.525.7-1.085.823-1.715.07-.298.123-.595.123-.858 0-.455-.175-.77-.49-.928s-.875-.245-1.68-.245c-.735 0-1.312.07-1.732.228-.42.14-.735.385-.963.735s-.403.84-.525 1.488l-1.295-.105c.157-.928.42-1.645.752-2.153a2.71 2.71 0 0 1 1.4-1.085c.595-.228 1.4-.332 2.397-.332 1.243 0 2.135.175 2.66.507.543.332.823.892.823 1.68 0 .402-.053.822-.157 1.277a5.55 5.55 0 0 1-1.032 2.205c-.525.665-1.103 1.242-1.733 1.715-.612.49-1.417 1.05-2.398 1.663l-2.117 1.505c-.472.385-.787.787-.963 1.225l6.458-.053-.28 1.225h-7.823l.228-1.033z"/></g><path d="M200.5 280.5h100v40h-100z" class="B D"/><g class="C"><use xlink:href="#X" x="100"/><path d="M244.752 307.203c-1.155 0-2.013-.192-2.52-.578-.525-.385-.787-1.015-.787-1.907 0-.507.07-1.085.21-1.697l.98-4.603c.245-1.12.542-1.995.91-2.625s.84-1.085 1.435-1.347c.595-.28 1.365-.42 2.345-.42 1.19 0 2.065.157 2.607.49s.805.875.805 1.627c0 .28-.035.63-.123 1.05l-1.33-.105a2.83 2.83 0 0 0 .105-.7c0-.437-.157-.735-.472-.893s-.858-.245-1.627-.245c-.7 0-1.243.105-1.662.298-.42.21-.753.543-1.015 1.015-.245.455-.472 1.12-.648 1.96l-.297 1.173a3.12 3.12 0 0 1 1.12-.63c.385-.105.892-.175 1.505-.175 1.172 0 2.012.192 2.537.56.507.35.77.98.77 1.855 0 .507-.088 1.137-.245 1.855-.21 1.032-.49 1.837-.858 2.415-.35.577-.822.98-1.417 1.242-.595.245-1.365.385-2.327.385zm.035-1.225c.682 0 1.225-.105 1.645-.28.42-.193.752-.49.998-.928.263-.42.472-1.033.63-1.82.14-.595.193-1.067.193-1.435 0-.543-.14-.91-.455-1.103-.298-.175-.805-.28-1.54-.28-.7 0-1.26.087-1.663.262-.42.157-.752.472-.997.892-.263.438-.473 1.067-.63 1.89-.123.56-.175 1.015-.175 1.348 0 .56.14.928.438 1.137.315.21.822.315 1.558.315zm9.511 1.225c-1.225 0-2.1-.175-2.625-.49-.525-.333-.788-.892-.788-1.663 0-.402.053-.84.157-1.312l1.33.123-.14.98c0 .438.157.735.455.892.315.158.857.245 1.645.245.735 0 1.33-.105 1.768-.298a2.28 2.28 0 0 0 1.067-.928c.262-.437.472-1.067.647-1.873.123-.56.192-1.015.192-1.4 0-.56-.157-.945-.49-1.155-.332-.192-.892-.298-1.697-.298-.437 0-.822.07-1.207.21s-.875.403-1.47.805l-1.19-.035 1.435-6.755h7.192l-.245 1.208h-5.88l-.893 3.955c.368-.228.718-.385 1.067-.49.35-.087.752-.123 1.225-.123 1.243 0 2.118.175 2.66.56s.822 1.033.822 1.942c0 .49-.087 1.085-.227 1.803-.228 1.033-.525 1.855-.893 2.45a3.21 3.21 0 0 1-1.47 1.26c-.63.245-1.435.385-2.45.385zm9.545 0c-1.19 0-2.065-.175-2.608-.49-.543-.333-.822-.875-.822-1.645 0-.28.035-.63.123-1.032l1.347.087c-.07.263-.105.507-.105.718 0 .438.157.735.472.892s.858.245 1.627.245c.683 0 1.243-.105 1.663-.315.42-.192.752-.525 1.015-.998.245-.455.473-1.12.648-1.978l.297-1.155a3.12 3.12 0 0 1-1.12.63 6.07 6.07 0 0 1-1.522.175c-1.173 0-2.012-.192-2.52-.56s-.77-.998-.77-1.89c0-.473.088-1.085.228-1.82.228-1.032.507-1.837.875-2.415.35-.577.822-.998 1.4-1.243.595-.262 1.365-.385 2.345-.385 1.155 0 1.995.192 2.52.577s.788 1.015.788 1.908c0 .507-.07 1.067-.21 1.697l-.98 4.602c-.245 1.12-.543 1.995-.91 2.625s-.84 1.067-1.452 1.348c-.595.28-1.365.42-2.327.42zm1.067-6.108c.7 0 1.243-.087 1.645-.262.42-.175.752-.473.998-.91.262-.437.473-1.05.648-1.873.122-.56.175-1.015.175-1.347 0-.56-.14-.928-.455-1.138-.298-.21-.805-.315-1.54-.315-.683 0-1.225.088-1.645.28s-.752.49-1.015.928c-.245.42-.455 1.032-.613 1.82-.14.577-.192 1.05-.192 1.435 0 .525.14.892.455 1.085.298.192.805.298 1.54.298z"/></g><path d="M300.5 280.5h100v40h-100z" class="B D"/><path d="M338.672 306.975h-6.65l2.695-12.723h1.33l-2.433 11.498h5.338l-.28 1.225zm8.985-12.722c1.085 0 1.873.175 2.38.543.49.35.735.945.735 1.767a6.6 6.6 0 0 1-.175 1.488c-.21.928-.472 1.663-.805 2.17s-.787.875-1.347 1.085-1.312.333-2.257.333h-2.398l-1.137 5.337h-1.33l2.695-12.723h3.64zm1.645 3.57c.105-.437.14-.788.14-1.068 0-.49-.14-.822-.437-.997-.28-.193-.788-.28-1.488-.28h-2.433l-1.05 4.918h2.293c.647 0 1.137-.07 1.522-.228a1.77 1.77 0 0 0 .893-.752c.227-.35.42-.892.56-1.592zm5.311 9.38c-1.208 0-2.065-.245-2.608-.735-.543-.473-.805-1.295-.805-2.45 0-.893.158-2.065.455-3.518.368-1.68.77-2.992 1.208-3.92.455-.91 1.015-1.575 1.68-1.96.683-.402 1.558-.595 2.625-.595.787 0 1.417.105 1.873.315.438.21.77.56.98 1.05.21.472.333 1.155.368 2.012l-1.295.21c-.035-.63-.105-1.102-.245-1.435-.123-.35-.315-.577-.578-.717-.28-.14-.647-.21-1.137-.21-.77 0-1.418.175-1.907.508-.508.332-.945.91-1.295 1.68-.35.788-.683 1.89-.98 3.29-.28 1.382-.437 2.397-.437 3.08 0 .788.175 1.348.507 1.68.333.315.875.49 1.61.49.683 0 1.207-.14 1.627-.42s.805-.752 1.19-1.435l.577-2.52h-2.765l.228-1.243h4.113l-.84 4.06c-.402.718-.77 1.295-1.155 1.68a3.19 3.19 0 0 1-1.26.858c-.473.157-1.05.245-1.733.245zm9.475 0c-1.155 0-1.978-.263-2.485-.752-.525-.508-.77-1.33-.77-2.485 0-.892.14-2.065.455-3.483.35-1.627.735-2.905 1.19-3.832.438-.928.98-1.61 1.645-2.012.648-.403 1.488-.613 2.52-.613.735 0 1.313.105 1.75.298a1.94 1.94 0 0 1 .962.945c.21.455.35 1.05.402 1.803l-1.295.332c-.053-.595-.14-1.05-.262-1.348s-.298-.507-.543-.63-.577-.175-1.05-.175c-.717 0-1.33.175-1.82.508s-.91.892-1.243 1.68c-.35.788-.665 1.873-.962 3.273-.298 1.382-.455 2.433-.455 3.15 0 .752.158 1.313.473 1.627s.822.49 1.522.49c.49 0 .893-.07 1.208-.21.332-.123.63-.35.892-.648.262-.315.543-.752.84-1.347l1.208.525c-.385.752-.752 1.348-1.138 1.75-.385.42-.805.718-1.277.892s-1.067.263-1.767.263z" class="C"/><path d="M.5 80.5h100v40H.5z" class="B E"/><g class="C"><path d="M36.38 94.96c0 .336-.112.496-.336.496.016 0-.128-.064-.448-.224-.192-.096-.704-.16-1.536-.16h-.896c-.32 0-.528.064-.608.16s-.144.32-.192.672l-.224 1.568c-.256 2.048-.384 4.224-.384 6.544 0 1.728.176 2.88.544 3.488 0 .176-.064.272-.192.272-.704 0-1.136-.4-1.328-1.2-.08-.304-.112-.976-.112-2l.08-3.376c0-.368.08-1.2.208-2.528l.16-2.512c0-.752.016-.944.032-.56-.016-.208-.112-.304-.272-.304-.24 0-.592.048-1.072.144-.464.096-.832.144-1.056.144-.544 0-.88-.224-1.04-.64.128-.224 1.12-.464 2.976-.688L34.06 94c1.552 0 2.32.32 2.32.96z"/><use xlink:href="#S" x="-30.74" y="-120"/><path d="M47.568 107.536c-.08.144-.208.224-.352.224s-.384-.096-.72-.272v-.176c0-.112.016-.288.032-.528l.016-.528c0-4.416-.56-6.64-1.664-6.64-.352 0-.72.256-1.12.768-1.008 1.248-1.52 2.832-1.52 4.736 0 .256.048.624.128 1.104a6.06 6.06 0 0 1 .128 1.12c0 .192-.144.304-.416.304-.528 0-.8-.432-.8-1.264v-4.544c0-.128.016-.288.048-.528l.032-.512c0-.176-.016-.432-.064-.768l-.08-.736c0-.096.08-.224.256-.368.16-.144.288-.208.384-.208.176 0 .336.096.48.272l-.048 1.52c-.016.208 0 .4.016.592.112-.048.272-.272.48-.672.256-.496.464-.848.64-1.04.32-.368.688-.56 1.104-.56.16 0 .4.064.72.192.72.256 1.232.704 1.536 1.312.512 1.056.784 2.448.784 4.176v3.024z"/><use xlink:href="#S" x="-16.54" y="-120"/><use xlink:href="#C" x="35.01" y="40"/><path d="M62.68 96.624c0 .448-.208.672-.64.672-.256 0-.48-.096-.704-.272-.208-.192-.32-.4-.32-.64 0-.464.224-.688.688-.688.256 0 .496.096.688.256a.87.87 0 0 1 .288.672zm-.384 2.992c0 .24-.048.608-.16 1.088l-.16 1.072v4.416c0 .304.064.704.192 1.2-.064.112-.128.176-.224.176-.656 0-.976-.32-.976-.944V99.28a.98.98 0 0 1 .496-.144c.16 0 .32.048.496.144.224.096.336.208.336.336zm6.884-4.512c0 .256-.192.4-.592.4-.08 0-.144-.016-.192-.048-.048-.56-.416-.832-1.12-.832-.656 0-1.152.736-1.52 2.24-.24 1.056-.352 2.048-.352 3.008h.352.544c.496.016.736.16.736.448 0 .096-.016.224-.032.4-.224.112-.544.176-1.008.176-.336 0-.56.032-.64.08l-.048 2.816v1.44c0 .656.064 1.296.208 1.952.032.064.048.128.048.176 0 .32-.224.48-.688.48-.4 0-.592-.544-.592-1.616l.08-5.2c.016 0-.32 0-1.024 0-.304 0-.464-.144-.464-.448 0-.384.272-.576.8-.576h.72l.08-1.024c.208-3.536 1.2-5.312 2.992-5.312 1.136 0 1.712.48 1.712 1.44z"/><use xlink:href="#S" x="2.12" y="-120"/></g><path d="M100.5 80.5h100v40h-100z" class="B F"/><g class="C"><path d="M125.661 107.203c-1.19 0-2.065-.175-2.608-.49-.543-.332-.822-.875-.822-1.645 0-.28.035-.63.122-1.032l1.348.087c-.07.263-.105.508-.105.718 0 .438.157.735.472.892s.858.245 1.627.245c.683 0 1.243-.105 1.663-.315.42-.192.752-.525 1.015-.998.245-.455.472-1.12.648-1.977l.298-1.155a3.12 3.12 0 0 1-1.12.63 6.07 6.07 0 0 1-1.523.175c-1.172 0-2.013-.192-2.52-.56s-.77-.997-.77-1.89c0-.472.088-1.085.228-1.82.228-1.032.507-1.838.875-2.415.35-.578.823-.997 1.4-1.242.595-.263 1.365-.385 2.345-.385 1.155 0 1.995.193 2.52.578s.788 1.015.788 1.907c0 .508-.07 1.067-.21 1.698l-.98 4.602c-.245 1.12-.543 1.995-.91 2.625s-.84 1.068-1.452 1.348c-.595.28-1.365.42-2.328.42zm1.067-6.108c.7 0 1.243-.088 1.645-.263.42-.175.752-.472.998-.91.263-.437.472-1.05.648-1.873.123-.56.175-1.015.175-1.347 0-.56-.14-.928-.455-1.138-.298-.21-.805-.315-1.54-.315-.683 0-1.225.087-1.645.28s-.752.49-1.015.927c-.245.42-.455 1.032-.612 1.82-.14.578-.192 1.05-.192 1.435 0 .525.14.892.455 1.085.297.192.805.297 1.54.297z"/><use xlink:href="#Y"/><path d="M144.752 107.203c-1.225 0-2.118-.193-2.66-.56-.525-.368-.805-.98-.805-1.855a7.19 7.19 0 0 1 .175-1.47c.192-.91.438-1.575.752-2.03.315-.437.805-.823 1.453-1.155-.245-.192-.437-.403-.543-.647-.122-.228-.175-.525-.175-.892s.053-.788.157-1.26c.175-.84.42-1.487.735-1.96.333-.472.752-.822 1.313-1.032s1.278-.315 2.17-.315c1.102 0 1.907.175 2.398.508.507.332.752.892.752 1.68a6.36 6.36 0 0 1-.157 1.33c-.157.735-.35 1.295-.595 1.68s-.63.718-1.155 1.015c.35.227.612.472.787.752.157.297.245.647.245 1.103 0 .385-.07.857-.193 1.435-.192.928-.472 1.663-.822 2.188s-.84.892-1.435 1.138c-.612.228-1.4.35-2.397.35zm1.382-7.578c.647 0 1.137-.07 1.505-.193s.665-.35.875-.682c.21-.315.385-.788.507-1.418a4.32 4.32 0 0 0 .123-.927c0-.42-.14-.735-.42-.893-.28-.175-.752-.262-1.435-.262-.63 0-1.12.07-1.505.21a1.76 1.76 0 0 0-.875.718c-.228.332-.385.787-.525 1.365l-.123.963c0 .438.14.735.42.892.263.157.752.228 1.453.228zm-1.347 6.352c.718 0 1.295-.087 1.732-.245.42-.175.77-.437.998-.822.245-.368.455-.91.595-1.593.105-.508.157-.892.157-1.155 0-.507-.157-.84-.49-1.032-.315-.175-.875-.263-1.68-.263-.735 0-1.312.07-1.733.228-.437.14-.77.402-1.015.787-.245.368-.437.927-.595 1.645a4.49 4.49 0 0 0-.14 1.085c0 .507.157.858.49 1.05.333.21.892.315 1.68.315zm9.511 1.226c-1.155 0-2.013-.193-2.52-.578-.525-.385-.787-1.015-.787-1.907 0-.508.07-1.085.21-1.698l.98-4.603c.245-1.12.542-1.995.91-2.625s.84-1.085 1.435-1.347c.595-.28 1.365-.42 2.345-.42 1.19 0 2.065.157 2.607.49s.805.875.805 1.627c0 .28-.035.63-.123 1.05l-1.33-.105a2.83 2.83 0 0 0 .105-.7c0-.437-.157-.735-.472-.892s-.858-.245-1.627-.245c-.7 0-1.243.105-1.662.297-.42.21-.753.542-1.015 1.015-.245.455-.472 1.12-.648 1.96l-.297 1.172a3.12 3.12 0 0 1 1.12-.63c.385-.105.892-.175 1.505-.175 1.172 0 2.012.193 2.537.56.507.35.77.98.77 1.855 0 .508-.088 1.138-.245 1.855-.21 1.032-.49 1.837-.858 2.415-.35.578-.822.98-1.417 1.243-.595.245-1.365.385-2.327.385zm.035-1.225c.682 0 1.225-.105 1.645-.28a2.13 2.13 0 0 0 .998-.927c.263-.42.472-1.032.63-1.82.14-.595.193-1.067.193-1.435 0-.543-.14-.91-.455-1.103-.298-.175-.805-.28-1.54-.28-.7 0-1.26.088-1.663.263-.42.157-.752.472-.997.892-.263.438-.473 1.067-.63 1.89-.123.56-.175 1.015-.175 1.347 0 .56.14.928.438 1.138.315.21.822.315 1.558.315z"/><use xlink:href="#Z"/><use xlink:href="#K" x="23.864" y="-40"/></g><path d="M200.5 80.5h100v40h-100z" class="B G"/><g class="C"><use xlink:href="#Y" x="85.682"/><use xlink:href="#Z" x="66.591"/><path d="M239.98 107.203c-1.173 0-2.013-.175-2.52-.508-.507-.35-.77-.91-.77-1.698 0-.402.053-.857.157-1.347l1.347.105c-.123.49-.175.84-.175 1.067 0 .438.157.735.455.91.298.158.805.245 1.54.245.647 0 1.172-.087 1.575-.245.385-.157.7-.42.945-.77.228-.367.42-.875.56-1.54.105-.543.175-.963.175-1.26 0-.455-.14-.787-.385-.963-.263-.175-.7-.297-1.313-.332h-1.435l.262-1.242h1.313c.595-.035 1.05-.123 1.382-.263s.595-.35.787-.665c.21-.315.368-.77.49-1.347.07-.332.123-.63.123-.91 0-.437-.157-.752-.455-.928s-.805-.262-1.522-.262c-.7 0-1.225.07-1.61.192-.403.14-.683.367-.892.665-.193.315-.368.753-.49 1.348l-1.33-.105c.193-.875.438-1.54.752-2.013s.77-.805 1.33-1.015c.56-.192 1.313-.297 2.275-.297 1.155 0 1.977.175 2.502.525.507.332.77.91.77 1.698 0 .42-.053.857-.157 1.33-.157.735-.368 1.295-.648 1.68-.263.385-.683.735-1.26 1.032.28.21.49.438.63.718.123.28.192.63.192 1.05 0 .35-.07.875-.21 1.593-.192.91-.455 1.61-.787 2.118a3 3 0 0 1-1.365 1.102c-.56.21-1.312.333-2.24.333z"/><use xlink:href="#K" x="100" y="-40"/><path d="M259.07 107.203c-.402 0-.683-.07-.857-.175-.175-.122-.263-.315-.263-.578a2.46 2.46 0 0 1 .053-.49c.088-.403.21-.683.385-.823s.49-.21.928-.21c.403 0 .683.052.858.175.175.105.262.315.262.578 0 .157-.017.332-.053.49-.07.403-.21.665-.385.805-.175.157-.49.228-.928.228zm9.546 0c-1.173 0-2.012-.175-2.52-.508-.507-.35-.77-.91-.77-1.698 0-.402.053-.857.158-1.347l1.347.105c-.123.49-.175.84-.175 1.067 0 .438.158.735.455.91.297.158.805.245 1.54.245.648 0 1.173-.087 1.575-.245.385-.157.7-.42.945-.77.227-.367.42-.875.56-1.54.105-.543.175-.963.175-1.26 0-.455-.14-.787-.385-.963-.262-.175-.7-.297-1.312-.332h-1.435l.262-1.242h1.313c.595-.035 1.05-.123 1.383-.263s.595-.35.787-.665c.21-.315.368-.77.49-1.347.07-.332.123-.63.123-.91 0-.437-.158-.752-.455-.928s-.805-.262-1.523-.262c-.7 0-1.225.07-1.61.192a1.75 1.75 0 0 0-.893.665c-.192.315-.368.753-.49 1.348l-1.33-.105c.192-.875.438-1.54.752-2.013s.77-.805 1.33-1.015c.56-.192 1.313-.297 2.275-.297 1.155 0 1.978.175 2.502.525.507.332.77.91.77 1.698a6.17 6.17 0 0 1-.157 1.33c-.158.735-.368 1.295-.648 1.68-.262.385-.683.735-1.26 1.032.28.21.49.438.63.718.123.28.192.63.192 1.05 0 .35-.07.875-.21 1.593-.192.91-.455 1.61-.788 2.118a3 3 0 0 1-1.365 1.102c-.56.21-1.312.333-2.24.333zm9.545 0c-1.225 0-2.118-.193-2.66-.56-.525-.368-.805-.98-.805-1.855a7.19 7.19 0 0 1 .175-1.47c.192-.91.438-1.575.752-2.03.315-.437.805-.823 1.452-1.155-.245-.192-.437-.403-.542-.647-.123-.228-.175-.525-.175-.892s.053-.788.157-1.26c.175-.84.42-1.487.735-1.96.333-.472.752-.822 1.313-1.032s1.278-.315 2.17-.315c1.103 0 1.907.175 2.397.508.507.332.752.892.752 1.68a6.36 6.36 0 0 1-.157 1.33c-.158.735-.35 1.295-.595 1.68s-.63.718-1.155 1.015c.35.227.613.472.787.752.158.297.245.647.245 1.103 0 .385-.07.857-.192 1.435-.192.928-.472 1.663-.822 2.188s-.84.892-1.435 1.138c-.613.228-1.4.35-2.397.35zm1.382-7.578c.647 0 1.137-.07 1.505-.193s.665-.35.875-.682c.21-.315.385-.788.507-1.418a4.32 4.32 0 0 0 .123-.927c0-.42-.14-.735-.42-.893-.28-.175-.752-.262-1.435-.262-.63 0-1.12.07-1.505.21a1.76 1.76 0 0 0-.875.718c-.227.332-.385.787-.525 1.365l-.123.963c0 .438.14.735.42.892.262.157.752.228 1.452.228zm-1.348 6.352c.718 0 1.295-.087 1.733-.245.42-.175.77-.437.998-.822.245-.368.455-.91.595-1.593.105-.508.157-.892.157-1.155 0-.507-.157-.84-.49-1.032-.315-.175-.875-.263-1.68-.263-.735 0-1.312.07-1.732.228-.437.14-.77.402-1.015.787-.245.368-.437.927-.595 1.645a4.49 4.49 0 0 0-.14 1.085c0 .507.157.858.49 1.05.333.21.893.315 1.68.315z"/></g><path d="M300.5 80.5h100v40h-100z" class="B H"/><g class="C"><path d="M335.207 107.203c-.77 0-1.4-.07-1.873-.21-.473-.123-.84-.332-1.12-.63-.262-.297-.49-.718-.647-1.243l1.19-.858c.087.473.21.823.367 1.068s.403.402.718.507c.315.088.788.14 1.4.14.665 0 1.208-.087 1.61-.245.42-.175.735-.437.98-.822.227-.385.438-.91.577-1.593.053-.28.087-.508.087-.665a1.27 1.27 0 0 0-.437-.997c-.297-.245-.822-.525-1.592-.805-1.085-.368-1.855-.752-2.31-1.138-.455-.403-.683-.91-.683-1.557 0-.245.035-.525.105-.84.175-.84.42-1.488.735-1.96.333-.472.753-.805 1.295-1.015.56-.21 1.278-.315 2.17-.315.7 0 1.277.053 1.715.175s.788.298 1.05.56.473.63.648 1.085l-1.12.927c-.088-.42-.21-.735-.368-.945a1.28 1.28 0 0 0-.683-.455c-.298-.087-.718-.122-1.278-.122-.63 0-1.12.07-1.505.21a1.82 1.82 0 0 0-.875.7c-.21.332-.368.787-.507 1.382a2.85 2.85 0 0 0-.053.543c0 .35.123.647.385.858.28.227.753.455 1.47.7 1.137.367 1.96.77 2.45 1.19.473.42.718.98.718 1.68 0 .28-.053.63-.123 1.032-.192.91-.473 1.645-.805 2.17-.35.525-.805.892-1.4 1.138-.577.228-1.347.35-2.292.35zm9.79 0c-1.155 0-1.978-.263-2.485-.753-.525-.507-.77-1.33-.77-2.485 0-.892.14-2.065.455-3.483.35-1.627.735-2.905 1.19-3.832.438-.927.98-1.61 1.645-2.013.648-.402 1.488-.612 2.52-.612.735 0 1.313.105 1.75.297.42.193.752.508.962.945.21.455.35 1.05.402 1.802l-1.295.332c-.053-.595-.14-1.05-.262-1.347s-.298-.507-.543-.63-.577-.175-1.05-.175c-.717 0-1.33.175-1.82.507s-.91.892-1.243 1.68c-.35.787-.665 1.872-.962 3.272-.298 1.383-.455 2.433-.455 3.15 0 .752.158 1.313.473 1.627s.822.49 1.522.49c.49 0 .893-.07 1.208-.21.332-.123.63-.35.892-.648.262-.315.543-.752.84-1.347l1.208.525c-.385.752-.752 1.347-1.138 1.75-.385.42-.805.718-1.277.892s-1.067.263-1.767.263z"/><use xlink:href="#P" y="-40"/><path d="M370.353 94.253l-.245 1.225h-5.967l-1.033 4.883h3.815l-.245 1.242h-3.85l-1.12 5.373h-1.348l2.712-12.722h7.28z"/></g><path d="M.5 160.5h100v40H.5z" class="B E"/><g class="C"><use xlink:href="#H" x="-1.54" y="40"/><use xlink:href="#D" x="4.32" y="120"/><use xlink:href="#W" x="-23.87" y="-120"/><path d="M49.898 179.712c0 .336-.16.688-.48 1.072l-2.528 2.8c-1.216 1.44-1.84 2.416-1.856 2.928.112.16.336.224.672.224.752 0 1.952-.176 3.584-.56.08-.016.176.064.288.24.112.16.176.32.176.48 0 .368-.256.544-.784.544-.464 0-1.088.048-1.872.128l-1.792.128c-.336 0-.64-.08-.896-.24a.87.87 0 0 1-.464-.784c0-.496.384-1.264 1.152-2.272.256-.352.976-1.2 2.16-2.576.784-.944 1.2-1.536 1.248-1.808-.128-.096-.336-.16-.64-.16-.528 0-1.04.112-1.536.336-.336.16-.672.368-1.024.64-.288.24-.448.352-.48.352-.336 0-.496-.224-.496-.672 0-.432.624-.816 1.888-1.152 1.008-.272 1.84-.4 2.48-.4.8 0 1.2.256 1.2.752z"/><use xlink:href="#D" x="25.46" y="120"/><use xlink:href="#C" x="37.46" y="120"/><use xlink:href="#R" x="15.37" y="-40"/><use xlink:href="#V" x="32.87" y="-120"/><use xlink:href="#S" x="8.53" y="-40"/></g><path d="M100.5 160.5h100v40h-100z" class="B F"/><g class="C"><path d="M128.951 174.253l-2.433 11.498h2.257l-.262 1.225h-5.863l.28-1.225h2.258l1.802-8.488c-.787.49-1.662.718-2.677.718l.157-1.243c.823 0 1.505-.21 2.065-.665.56-.437.91-1.067 1.085-1.873l.665.053h.665z"/><use xlink:href="#a"/><use xlink:href="#a" x="9.545"/><use xlink:href="#L" x="-14.318" y="40"/><use xlink:href="#T" x="23.863" y="-40"/><path d="M169.609 185.943c.105-.507.35-.998.718-1.453.385-.455.822-.875 1.313-1.242l1.925-1.347 2.135-1.488a9.16 9.16 0 0 0 1.435-1.417c.42-.525.7-1.085.823-1.715.07-.298.123-.595.123-.858 0-.455-.175-.77-.49-.927s-.875-.245-1.68-.245c-.735 0-1.312.07-1.732.227-.42.14-.735.385-.963.735s-.403.84-.525 1.487l-1.295-.105c.157-.928.42-1.645.752-2.153s.805-.875 1.4-1.085c.595-.227 1.4-.332 2.397-.332 1.243 0 2.135.175 2.66.507.543.333.823.892.823 1.68 0 .403-.053.822-.157 1.277a5.55 5.55 0 0 1-1.032 2.205c-.525.665-1.103 1.243-1.733 1.715-.612.49-1.417 1.05-2.398 1.662l-2.117 1.505c-.472.385-.787.787-.963 1.225l6.458-.052-.28 1.225h-7.823l.228-1.032z"/></g><path d="M200.5 160.5h100v40h-100z" class="B G"/><g class="C"><use xlink:href="#L" x="57.045" y="40"/><use xlink:href="#K" x="85.682" y="40"/><use xlink:href="#a" x="109.545"/><use xlink:href="#M" y="40"/><path d="M263.843 187.203c-1.19 0-2.065-.175-2.608-.49-.543-.333-.822-.875-.822-1.645 0-.28.035-.63.123-1.032l1.347.088c-.07.262-.105.507-.105.718 0 .438.157.735.472.892s.858.245 1.627.245c.683 0 1.243-.105 1.663-.315.42-.192.752-.525 1.015-.998.245-.455.473-1.12.648-1.977l.297-1.155a3.12 3.12 0 0 1-1.12.63 6.07 6.07 0 0 1-1.522.175c-1.173 0-2.012-.193-2.52-.56s-.77-.998-.77-1.89c0-.472.088-1.085.228-1.82.228-1.032.507-1.838.875-2.415.35-.578.822-.998 1.4-1.243.595-.263 1.365-.385 2.345-.385 1.155 0 1.995.192 2.52.577s.788 1.015.788 1.907c0 .507-.07 1.067-.21 1.697l-.98 4.603c-.245 1.12-.543 1.995-.91 2.625s-.84 1.067-1.452 1.347c-.595.28-1.365.42-2.327.42zm1.067-6.107c.7 0 1.243-.088 1.645-.263.42-.175.752-.472.998-.91.262-.437.473-1.05.648-1.873.122-.56.175-1.015.175-1.347 0-.56-.14-.927-.455-1.137-.298-.21-.805-.315-1.54-.315-.683 0-1.225.088-1.645.28s-.752.49-1.015.927c-.245.42-.455 1.032-.613 1.82-.14.577-.192 1.05-.192 1.435 0 .525.14.892.455 1.085.298.192.805.298 1.54.298zm11.209 5.879h-1.347l.717-3.325h-5.477l.192-1.032 7.472-8.365h1.138l-1.733 8.172h1.173l-.245 1.225h-1.173l-.718 3.325zm.84-10.115l-4.988 5.565h3.78l1.207-5.565z"/></g><path d="M300.5 160.5h100v40h-100z" class="B H"/><g class="C"><path d="M338.672 186.975h-6.65l2.695-12.722h1.33l-2.433 11.498h5.338l-.28 1.225zm8.985-12.722c1.085 0 1.873.175 2.38.542.49.35.735.945.735 1.768a6.6 6.6 0 0 1-.175 1.487c-.21.928-.472 1.663-.805 2.17s-.787.875-1.347 1.085-1.312.332-2.257.332h-2.398l-1.137 5.338h-1.33l2.695-12.722h3.64zm1.645 3.57c.105-.437.14-.787.14-1.067 0-.49-.14-.822-.437-.998-.28-.192-.788-.28-1.488-.28h-2.433l-1.05 4.917h2.293c.647 0 1.137-.07 1.522-.227a1.77 1.77 0 0 0 .893-.752c.227-.35.42-.893.56-1.593zm5.311 9.38c-1.208 0-2.065-.245-2.608-.735-.543-.472-.805-1.295-.805-2.45 0-.892.158-2.065.455-3.517.368-1.68.77-2.993 1.208-3.92.455-.91 1.015-1.575 1.68-1.96.683-.403 1.558-.595 2.625-.595.787 0 1.417.105 1.873.315.438.21.77.56.98 1.05.21.472.333 1.155.368 2.013l-1.295.21c-.035-.63-.105-1.102-.245-1.435-.123-.35-.315-.578-.578-.718-.28-.14-.647-.21-1.137-.21-.77 0-1.418.175-1.907.507-.508.333-.945.91-1.295 1.68-.35.787-.683 1.89-.98 3.29-.28 1.382-.437 2.398-.437 3.08 0 .787.175 1.347.507 1.68.333.315.875.49 1.61.49.683 0 1.207-.14 1.627-.42s.805-.752 1.19-1.435l.577-2.52h-2.765l.228-1.243h4.113l-.84 4.06c-.402.718-.77 1.295-1.155 1.68-.368.403-.788.683-1.26.857-.473.157-1.05.245-1.733.245z"/><use xlink:href="#O" x="19.091" y="40"/></g><path d="M.5 240.5h100v40H.5z" class="B E"/><g class="C"><path d="M32.724 266.592c-.064.16-.144.224-.24.224-.064 0-.128 0-.24-.032l-.224-.032c-.576 0-1.408.192-2.496.56s-1.904.544-2.48.544c-1.888 0-2.816-1.584-2.816-4.736l.192-6.416.048-.64c0-.112-.032-.24-.064-.416a2.15 2.15 0 0 1-.048-.352c0-.32.224-.496.672-.544.48-.048 1.456-.256 2.912-.608 1.328-.32 2.272-.48 2.848-.48.064 0 .16.016.272.032.208-.016.416.048.624.176.192.144.304.288.304.432 0 .256-.352.4-1.024.4-.624 0-1.52.096-2.704.32-1.328.256-2.16.512-2.48.768l-.384 4.768a.29.29 0 0 0 .224.096c.4 0 .992-.128 1.776-.384.784-.24 1.392-.368 1.808-.368.336 0 .656.08.992.256l.16.592c.032.064-.144.16-.512.288-.192-.128-.432-.176-.72-.176-.336 0-.96.112-1.888.352s-1.568.448-1.888.608c-.064.288-.096.976-.08 2.032-.016 2.016.512 3.024 1.536 3.024.496 0 1.2-.16 2.128-.496s1.632-.496 2.128-.512c.848.016 1.408.24 1.664.72z"/><use xlink:href="#I" x="-25.65" y="120"/><path d="M50.308 254.8l-.352.256c-.096.096-.16.224-.208.368-.304.752-.48 2.848-.528 6.272.48.112.72.272.72.48 0 .144-.064.288-.176.464-.144.048-.336.128-.576.24 0 .592.064 1.44.192 2.576a6.78 6.78 0 0 0 .208.608c.08.256.128.448.128.56 0 .16-.064.32-.176.48-.128.16-.256.24-.416.24-.368 0-.608-.272-.736-.8-.016-.064-.08-.496-.16-1.28l-.144-1.504a3.24 3.24 0 0 1 .064-.688c-.832.016-1.808.128-2.928.352l-2.88.576-.352.352.016 1.552c.048.784.176 1.296.384 1.52-.064.176-.144.256-.256.256s-.256.032-.4.096c-.16.048-.272.08-.352.08-.256 0-.416-.496-.48-1.504l-.064-1.872-.128-.208c-.064.016-.08.032-.08.032-.176 0-.336-.048-.48-.16-.16-.096-.224-.224-.224-.384 0-.112.064-.256.176-.448.128-.192.24-.288.368-.288.016 0 .048 0 .096.016a.36.36 0 0 0 .112.016s.032 0 .112-.016l.016-3.52c0-2.336.16-3.92.48-4.768.144-.352.384-.528.72-.528.208 0 .416.064.624.208.192.144.288.32.288.528 0 .08-.048.256-.176.544l-.224.576c-.352 1.28-.528 3.216-.528 5.792 0 .608.112.912.336.912.064 0 .416-.064 1.056-.208l2.88-.4c.128 0 .32-.032.608-.112.288-.064.576-.112.848-.112s.4-.176.384-.56l-.032-1.76a21.99 21.99 0 0 1 .16-3.392c.192-1.792.56-2.688 1.072-2.688.272 0 .512.144.72.432.176.256.272.528.288.816zm2.712 1.824c0 .448-.208.672-.64.672-.256 0-.48-.096-.704-.272-.208-.192-.32-.4-.32-.64 0-.464.224-.688.688-.688.256 0 .496.096.688.256a.87.87 0 0 1 .288.672zm-.384 2.992c0 .24-.048.608-.16 1.088l-.16 1.072v4.416c0 .304.064.704.192 1.2-.064.112-.128.176-.224.176-.656 0-.976-.32-.976-.944v-7.344a.98.98 0 0 1 .496-.144c.16 0 .32.048.496.144.224.096.336.208.336.336z"/><use xlink:href="#S" x="-11.5" y="40"/><use xlink:href="#C" x="40.05" y="200"/><use xlink:href="#C" x="45.49" y="200"/><use xlink:href="#R" x="23.4" y="40"/></g><path d="M100.5 240.5h100v40h-100z" class="B F"/><g class="C"><use xlink:href="#b"/><use xlink:href="#b" x="9.546"/><use xlink:href="#b" x="19.091"/><path d="M161.8 266.975h-1.347l.718-3.325h-5.478l.193-1.033 7.472-8.365h1.137l-1.732 8.172h1.172l-.245 1.225h-1.172l-.718 3.325zm.84-10.115l-4.988 5.565h3.78l1.208-5.565z"/><use xlink:href="#c"/></g><path d="M200.5 240.5h100v40h-100z" class="B G"/><g class="C"><path d="M221.881 265.943c.105-.507.35-.997.718-1.452.385-.455.822-.875 1.313-1.243l1.925-1.347 2.135-1.488a9.16 9.16 0 0 0 1.435-1.418c.42-.525.7-1.085.823-1.715.07-.298.123-.595.123-.858 0-.455-.175-.77-.49-.927s-.875-.245-1.68-.245c-.735 0-1.312.07-1.732.227-.42.14-.735.385-.963.735s-.403.84-.525 1.488l-1.295-.105c.157-.928.42-1.645.752-2.153s.805-.875 1.4-1.085c.595-.227 1.4-.332 2.397-.332 1.243 0 2.135.175 2.66.507.543.332.823.892.823 1.68 0 .402-.053.822-.157 1.277a5.55 5.55 0 0 1-1.032 2.205c-.525.665-1.103 1.242-1.733 1.715-.612.49-1.417 1.05-2.398 1.663l-2.117 1.505c-.472.385-.787.787-.963 1.225l6.458-.053-.28 1.225h-7.823l.228-1.033z"/><use xlink:href="#c" x="66.591"/><path d="M244.752 267.203c-1.225 0-2.118-.192-2.66-.56-.525-.368-.805-.98-.805-1.855a7.19 7.19 0 0 1 .175-1.47c.192-.91.438-1.575.752-2.03.315-.437.805-.822 1.453-1.155-.245-.193-.437-.403-.543-.648-.122-.227-.175-.525-.175-.892s.053-.788.157-1.26c.175-.84.42-1.488.735-1.96.333-.472.752-.823 1.313-1.032s1.278-.315 2.17-.315c1.102 0 1.907.175 2.398.507.507.332.752.892.752 1.68a6.36 6.36 0 0 1-.157 1.33c-.157.735-.35 1.295-.595 1.68s-.63.717-1.155 1.015c.35.228.612.473.787.752.157.298.245.648.245 1.103 0 .385-.07.858-.193 1.435-.192.928-.472 1.662-.822 2.188s-.84.892-1.435 1.137c-.612.228-1.4.35-2.397.35zm1.382-7.578c.647 0 1.137-.07 1.505-.192s.665-.35.875-.683c.21-.315.385-.787.507-1.417a4.32 4.32 0 0 0 .123-.928c0-.42-.14-.735-.42-.893-.28-.175-.752-.262-1.435-.262-.63 0-1.12.07-1.505.21a1.76 1.76 0 0 0-.875.717c-.228.333-.385.788-.525 1.365l-.123.962c0 .438.14.735.42.893.263.157.752.227 1.453.227zm-1.347 6.353c.718 0 1.295-.087 1.732-.245.42-.175.77-.437.998-.822.245-.368.455-.91.595-1.593.105-.507.157-.892.157-1.155 0-.507-.157-.84-.49-1.033-.315-.175-.875-.262-1.68-.262-.735 0-1.312.07-1.733.228a1.82 1.82 0 0 0-1.015.788c-.245.367-.437.927-.595 1.645-.105.42-.14.787-.14 1.085 0 .507.157.858.49 1.05.333.21.892.315 1.68.315zm9.511 1.225c-.403 0-.683-.07-.858-.175-.175-.123-.262-.315-.262-.577a2.46 2.46 0 0 1 .052-.49c.088-.403.21-.683.385-.822s.49-.21.927-.21c.403 0 .683.053.858.175.175.105.262.315.262.577 0 .158-.017.333-.052.49-.07.403-.21.665-.385.805-.175.158-.49.228-.927.228zm6.92-.28a44.04 44.04 0 0 1 3.063-5.53l4.27-5.95-6.248.035.262-1.225h7.735l-.228 1.26-4.392 6.003a42.56 42.56 0 0 0-3.08 5.512l-1.382-.105zm15.461-12.67l-2.433 11.497h2.258l-.263 1.225h-5.862l.28-1.225h2.257l1.803-8.487c-.788.49-1.663.717-2.678.717l.158-1.243c.822 0 1.505-.21 2.065-.665.56-.438.91-1.068 1.085-1.873l.665.053h.665z"/></g><path d="M300.5 240.5h100v40h-100z" class="B H"/><g class="C"><path d="M335.207 267.203c-.77 0-1.4-.07-1.873-.21-.473-.123-.84-.332-1.12-.63-.262-.298-.49-.717-.647-1.243l1.19-.857c.087.472.21.822.367 1.067s.403.402.718.507c.315.087.788.14 1.4.14.665 0 1.208-.087 1.61-.245.42-.175.735-.437.98-.822.227-.385.438-.91.577-1.593.053-.28.087-.507.087-.665a1.27 1.27 0 0 0-.437-.998c-.297-.245-.822-.525-1.592-.805-1.085-.368-1.855-.752-2.31-1.137-.455-.403-.683-.91-.683-1.558 0-.245.035-.525.105-.84.175-.84.42-1.487.735-1.96.333-.472.753-.805 1.295-1.015.56-.21 1.278-.315 2.17-.315.7 0 1.277.052 1.715.175s.788.298 1.05.56.473.63.648 1.085l-1.12.928c-.088-.42-.21-.735-.368-.945a1.28 1.28 0 0 0-.683-.455c-.298-.088-.718-.123-1.278-.123-.63 0-1.12.07-1.505.21a1.82 1.82 0 0 0-.875.7c-.21.332-.368.788-.507 1.382a2.85 2.85 0 0 0-.053.543c0 .35.123.647.385.857.28.228.753.455 1.47.7 1.137.368 1.96.77 2.45 1.19.473.42.718.98.718 1.68 0 .28-.053.63-.123 1.032-.192.91-.473 1.645-.805 2.17-.35.525-.805.892-1.4 1.137-.577.228-1.347.35-2.292.35zm9.79 0c-1.155 0-1.978-.263-2.485-.752-.525-.508-.77-1.33-.77-2.485 0-.892.14-2.065.455-3.483.35-1.627.735-2.905 1.19-3.832.438-.928.98-1.61 1.645-2.013.648-.403 1.488-.612 2.52-.612.735 0 1.313.105 1.75.297a1.94 1.94 0 0 1 .962.945c.21.455.35 1.05.402 1.803l-1.295.332c-.053-.595-.14-1.05-.262-1.348s-.298-.507-.543-.63-.577-.175-1.05-.175c-.717 0-1.33.175-1.82.507s-.91.893-1.243 1.68c-.35.788-.665 1.873-.962 3.273-.298 1.382-.455 2.433-.455 3.15 0 .752.158 1.313.473 1.627s.822.49 1.522.49c.49 0 .893-.07 1.208-.21.332-.123.63-.35.892-.648.262-.315.543-.752.84-1.347l1.208.525c-.385.752-.752 1.348-1.138 1.75-.385.42-.805.718-1.277.892s-1.067.263-1.767.263z"/><use xlink:href="#P" y="120"/><use xlink:href="#Q" y="120"/></g><path d="M100.5.5h100v40h-100z" fill="#00ea00" class="B"/><path d="M122.494 19.026a5.85 5.85 0 0 1-.07.857c-.56 3.378-2.17 5.058-4.795 5.058a6.57 6.57 0 0 1-3.605-1.033v.455c-.017.98.07 1.662.263 2.012l.42.875c0 .297-.123.56-.35.77-.227.227-.472.332-.77.332-.647 0-1.103-.227-1.33-.7-.14-.28-.228-.788-.263-1.558l-.052-1.697c0-.245.035-.63.105-1.12s.105-.875.105-1.137v-1.488c-.017-.437 0-1.085.088-1.943l.105-1.89v-1.96c0-.035-.07-.42-.227-1.19.385-.35.735-.525 1.085-.525.385 0 .7.14.928.438.245.28.35.63.35 1.032 0 .105 0 .21-.017.297.963-1.26 2.188-1.89 3.657-1.89 1.383 0 2.468.508 3.273 1.54.717.945 1.085 2.117 1.085 3.552v.455l.017.455zm-1.977-.35c0-.998-.14-1.855-.455-2.573-.42-.962-1.067-1.452-1.942-1.452-1.12 0-2.082.7-2.888 2.065-.718 1.19-1.067 2.398-1.067 3.605 0 2.03 1.015 3.045 3.063 3.045 1.085 0 1.89-.472 2.397-1.417.297-.525.56-1.488.84-2.87l.053-.402zm11.002 5.11c0 1.313-.333 2.433-.98 3.36-.752 1.067-1.767 1.61-3.01 1.61-1.295 0-2.257-.455-2.922-1.33-.595-.77-.892-1.82-.892-3.15 0-1.312.332-2.537.98-3.71.77-1.383 1.75-2.083 2.957-2.083.385 0 .857.175 1.417.508 1.645.98 2.45 2.573 2.45 4.795zm-1.925-.053c0-2.222-.542-3.342-1.61-3.342-.77 0-1.365.473-1.75 1.418-.297.717-.437 1.522-.437 2.432 0 1.943.578 2.905 1.733 2.905.735 0 1.295-.402 1.662-1.207.263-.613.403-1.348.403-2.205zm10.741-.857c0 1.488-.262 2.765-.787 3.797-.648 1.33-1.645 2.012-2.975 2.012-.718 0-1.33-.21-1.838-.612v1.313c0 1.4.157 2.502.49 3.307.14.315.21.525.21.613 0 .49-.28.735-.875.735-.437 0-.753-.088-.98-.245-.157-.105-.315-.455-.472-1.085-.14-.56-.21-.98-.21-1.277v-5.268l.088-1.977.123-1.942v-1.435l-.035-1.47c0-1.242.42-1.855 1.225-1.855.21 0 .403.07.578.21s.262.297.262.49c0 .315-.035.892-.105 1.75.56-.805 1.242-1.207 2.047-1.207 1.085 0 1.907.438 2.502 1.313.508.753.752 1.698.752 2.835zm-1.942-.192c0-1.575-.332-2.363-.998-2.363-.297 0-.683.28-1.137.857-.91 1.085-1.417 2.608-1.488 4.533.157.087.438.385.84.91.333.402.648.595.963.595 1.208 0 1.82-1.505 1.82-4.532zm10.215-2.398c0 .455-.053 1.137-.157 2.047-.123.91-.175 1.593-.175 2.065l.052 1.82.07 1.802c0 .332-.297.508-.857.508-.595 0-.963-.28-1.12-.858-.56.368-1.085.56-1.61.56-.437 0-.91-.123-1.453-.35s-.927-.49-1.137-.822c-.42-.613-.63-1.593-.63-2.958l.035-2.45.052-2.415c.438-.332.805-.49 1.085-.49.7 0 1.05.35 1.05 1.032 0 .227-.035.578-.088 1.05l-.105 1.05v3.08a2.45 2.45 0 0 0 .28 1.102c.245.438.507.648.84.648.63 0 1.085-.402 1.4-1.207.192-.543.298-1.225.298-2.012v-2.625c0-.332-.088-.735-.263-1.242.368-.333.718-.508 1.05-.508.35 0 .665.122.963.332.28.227.42.507.42.84zm3.968 7.21c0 .262-.123.49-.333.665-.21.192-.455.28-.718.28-.927 0-1.382-1.208-1.382-3.605l.035-4.935.035-4.917c0-.175-.035-.42-.07-.77a4.99 4.99 0 0 1-.07-.735c.49-.315.857-.49 1.137-.49.315 0 .63.122.928.332.28.21.438.473.438.787 0 .157-.053.35-.123.577l-.175.56c-.193.91-.28 2.188-.28 3.85v4.078c.052 1.838.192 3.115.455 3.85.07.192.123.367.123.473zm8.807-3.133l-.175 3.99c-.07.455-.385.683-.91.683-.822 0-1.19-.42-1.102-1.225-.735.35-1.488.525-2.275.525a4.38 4.38 0 0 1-2.17-.578c-.805-.455-1.225-1.032-1.225-1.733 0-.682.472-1.312 1.4-1.925.858-.525 1.645-.805 2.398-.805h1.855v-.525c.018-1.523-.437-2.293-1.365-2.293-1.155 0-1.715.543-1.715 1.61 0 .368-.21.56-.613.56-.262 0-.507-.123-.787-.35-.263-.227-.403-.455-.403-.7 0-.822.298-1.488.875-2.012s1.278-.788 2.1-.788c2.748 0 4.113 1.855 4.113 5.565zm-2.205.787c0-.28-.227-.437-.665-.437-1.82 0-2.73.438-2.73 1.295 0 .473.402.7 1.207.7.49 0 .963-.14 1.4-.42.525-.298.787-.683.787-1.138zm8.369-4.899c0 .402-.595.683-1.803.84-.035.315-.052 1.05-.052 2.188v1.435c0 .298.052.735.14 1.295.105.578.14.997.14 1.277 0 .227-.105.438-.35.613-.228.192-.455.28-.7.28-.368 0-.665-.315-.91-.945-.192-.472-.28-.945-.28-1.4v-4.637l-1.172-.192c-.368-.123-.56-.28-.56-.508a.87.87 0 0 1 .035-.193c.385-.542.805-.805 1.278-.805h.123a.48.48 0 0 0 .14.018c.298 0 .455-.35.438-1.067v-1.61c-.088-.158-.14-.298-.14-.403 0-.192.122-.367.35-.525.227-.14.438-.227.647-.227.298 0 .595.14.875.438.263.28.403.578.403.892 0 .35-.052.7-.157 1.05-.105.332-.157.7-.14 1.05v.087c1.137.123 1.697.473 1.697 1.05zm3.697-3.64a1.07 1.07 0 0 1-.315.788c-.227.192-.49.297-.822.297a1.62 1.62 0 0 1-1.05-.385 1.19 1.19 0 0 1-.49-.962c0-.332.105-.595.333-.787a1.19 1.19 0 0 1 .84-.315c.403 0 .735.14 1.05.385a1.24 1.24 0 0 1 .455.98zm-.193 3.063c0 .262-.052.63-.175 1.103-.123.49-.175.857-.175 1.12v4.515c0 .28.088.718.245 1.313-.227.332-.455.508-.718.508-.928 0-1.435-.473-1.523-1.383l-.21-3.85.175-3.64c-.017-.07-.017-.14-.017-.21 0-.262.192-.402.612-.402.35 0 .718.07 1.085.227.472.157.7.385.7.7zm8.396 4.112c0 1.313-.333 2.433-.98 3.36-.752 1.067-1.767 1.61-3.01 1.61-1.295 0-2.257-.455-2.922-1.33-.595-.77-.893-1.82-.893-3.15 0-1.312.333-2.537.98-3.71.77-1.383 1.75-2.083 2.958-2.083.385 0 .857.175 1.417.508 1.645.98 2.45 2.573 2.45 4.795zm-1.925-.053c0-2.222-.542-3.342-1.61-3.342-.77 0-1.365.473-1.75 1.418-.298.717-.437 1.522-.437 2.432 0 1.943.577 2.905 1.732 2.905.735 0 1.295-.402 1.662-1.207.263-.613.403-1.348.403-2.205zm11.126 4.2c-.228.332-.49.508-.823.508-.245 0-.647-.14-1.225-.437v-.263l.035-1.417.035-1.383c0-3.115-.472-4.69-1.4-4.69-.263 0-.56.21-.893.613-1.032 1.26-1.558 2.765-1.558 4.532 0 .245.053.613.14 1.102.105.49.14.858.14 1.103a.57.57 0 0 1-.28.507c-.192.14-.385.21-.612.21-.875 0-1.312-.56-1.312-1.68v-4.567a3.77 3.77 0 0 1 .052-.508l.035-.525a4.93 4.93 0 0 0-.07-.752l-.088-.752c0-.228.14-.455.403-.665.28-.21.525-.315.735-.315.332 0 .647.175.998.543l-.07.875c.543-.857 1.208-1.295 1.995-1.295.508 0 1.05.175 1.61.525.577.35.98.752 1.243 1.19.595 1.102.91 2.573.91 4.375v3.168z" class="C"/><path d="M200.5.5h100v40h-100z" fill="#ebb800" class="B"/><path d="M244.163 24.223c0 .7-.315 1.05-.928 1.067.07.332.228.788.472 1.348-.017.332-.14.595-.385.788a1.34 1.34 0 0 1-.875.315c-.262 0-.577-.087-.928-.245-.192-.367-.28-.823-.28-1.348l.018-.578.018-.543c0 .105-.228.157-.718.157l-2.905.105c-1.61.088-2.485.21-2.625.367s-.228.945-.263 2.345c-.192.28-.437.42-.718.42-.315 0-.63-.14-.945-.385-.333-.263-.49-.525-.49-.823 0-.105.14-.508.403-1.225l1.418-4.655c1.96-5.355 3.587-8.033 4.882-8.033 1.26 0 2.24 1.417 2.922 4.235.315 1.278.595 3.22.858 5.845.385.087.612.157.718.227.245.122.35.332.35.613zm-3.062-.84c-.63-5.093-1.208-7.63-1.715-7.63-.42 0-1.137 1.19-2.153 3.587l-1.732 4.48 2.082-.367c.84-.105 2.013-.123 3.518-.07zm10.36-2.817a3.17 3.17 0 0 1-.053.472c-.297.438-.63.665-.963.665-.28 0-.525-.158-.735-.49-.035-.647-.263-.98-.7-.98-.262 0-.595.7-.963 2.083-.175.612-.262 1.47-.262 2.555 0 1.032.035 1.662.14 1.89.122.28.175.455.175.56 0 .245-.105.455-.332.613a1.41 1.41 0 0 1-.753.227c-.787 0-1.19-.367-1.19-1.102a1.18 1.18 0 0 1 .053-.297c.035-.14.07-.228.07-.298l-.123-3.307-.105-3.29c0-.648.403-.98 1.19-.98.455 0 .77.14.963.402.403-.437.857-.665 1.365-.665.35 0 .682.087 1.015.28.21.123.472.367.77.752.28.385.438.7.438.91zm7.734 5.6c0 .735-.49 1.295-1.488 1.698a6.05 6.05 0 0 1-2.432.49c-2.24 0-3.36-1.277-3.36-3.832 0-1.05.245-2.205.77-3.5.613-1.575 1.383-2.363 2.275-2.363.787 0 1.662.368 2.59 1.067.928.718 1.382 1.47 1.382 2.24 0 .962-.437 1.733-1.295 2.293-.752.508-1.662.77-2.712.77-.192 0-.525-.122-.98-.367.052 1.383.472 2.065 1.225 2.065.647 0 1.277-.175 1.89-.543.63-.367 1.015-.543 1.19-.543.63 0 .945.175.945.525zm-2.38-4.13c0-.367-.105-.718-.315-1.05-.21-.315-.49-.49-.84-.49a1.24 1.24 0 0 0-1.12.63c-.228.367-.333.805-.333 1.295 0 .28.088.508.28.683a1.05 1.05 0 0 0 .735.262c1.05 0 1.593-.437 1.593-1.33zm11.152 2.327l-.175 3.99c-.07.455-.385.683-.91.683-.822 0-1.19-.42-1.103-1.225-.735.35-1.487.525-2.275.525a4.38 4.38 0 0 1-2.17-.578c-.805-.455-1.225-1.032-1.225-1.733 0-.682.472-1.312 1.4-1.925.858-.525 1.645-.805 2.397-.805h1.855v-.525c.017-1.523-.437-2.293-1.365-2.293-1.155 0-1.715.543-1.715 1.61 0 .368-.21.56-.613.56-.262 0-.507-.123-.788-.35-.262-.227-.402-.455-.402-.7 0-.822.298-1.488.875-2.012s1.277-.788 2.1-.788c2.748 0 4.112 1.855 4.112 5.565zm-2.205.787c0-.28-.228-.437-.665-.437-1.82 0-2.73.438-2.73 1.295 0 .473.402.7 1.207.7.49 0 .963-.14 1.4-.42.525-.298.787-.683.787-1.138z" class="C"/><path d="M300.5.5h100v40h-100z" fill="#ff90dc" class="B"/><path d="M328.662 19.026a5.85 5.85 0 0 1-.07.857c-.56 3.378-2.17 5.058-4.795 5.058a6.57 6.57 0 0 1-3.605-1.033v.455c-.017.98.07 1.662.262 2.012l.42.875c0 .297-.123.56-.35.77-.227.227-.472.332-.77.332-.647 0-1.103-.227-1.33-.7-.14-.28-.228-.788-.262-1.558l-.053-1.697c0-.245.035-.63.105-1.12s.105-.875.105-1.137v-1.488c-.017-.437 0-1.085.087-1.943l.105-1.89v-1.96c0-.035-.07-.42-.228-1.19.385-.35.735-.525 1.085-.525.385 0 .7.14.928.438.245.28.35.63.35 1.032 0 .105 0 .21-.017.297.962-1.26 2.188-1.89 3.658-1.89 1.382 0 2.467.508 3.272 1.54.717.945 1.085 2.117 1.085 3.552v.455l.018.455zm-1.978-.35c0-.998-.14-1.855-.455-2.573-.42-.962-1.067-1.452-1.942-1.452-1.12 0-2.083.7-2.888 2.065-.717 1.19-1.067 2.398-1.067 3.605 0 2.03 1.015 3.045 3.063 3.045 1.085 0 1.89-.472 2.398-1.417.297-.525.56-1.488.84-2.87l.053-.402zm9.223 1.89a3.04 3.04 0 0 1-.053.472c-.298.438-.63.665-.962.665-.28 0-.525-.158-.735-.49-.035-.647-.262-.98-.7-.98-.263 0-.595.7-.963 2.083-.175.612-.262 1.47-.262 2.555 0 1.032.035 1.662.14 1.89.123.28.175.455.175.56 0 .245-.105.455-.332.613a1.41 1.41 0 0 1-.752.227c-.788 0-1.19-.367-1.19-1.102a1.18 1.18 0 0 1 .053-.297c.035-.14.07-.228.07-.298l-.123-3.307-.105-3.29c0-.648.402-.98 1.19-.98.455 0 .77.14.962.402.403-.437.858-.665 1.365-.665a1.97 1.97 0 0 1 1.015.28c.21.123.472.367.77.752.28.385.438.7.438.91zm8.19 3.22c0 1.313-.332 2.433-.98 3.36-.752 1.067-1.767 1.61-3.01 1.61-1.295 0-2.257-.455-2.923-1.33-.595-.77-.892-1.82-.892-3.15 0-1.312.332-2.537.98-3.71.77-1.383 1.75-2.083 2.957-2.083.385 0 .858.175 1.418.508 1.645.98 2.45 2.573 2.45 4.795zm-1.925-.053c0-2.222-.543-3.342-1.61-3.342-.77 0-1.365.473-1.75 1.418-.297.717-.437 1.522-.437 2.432 0 1.943.578 2.905 1.733 2.905.735 0 1.295-.402 1.663-1.207.262-.613.402-1.348.402-2.205zm10.251-4.025c0 1.05-.35 2.66-1.015 4.813-.787 2.485-1.558 3.727-2.292 3.727-1.068 0-2.013-1.05-2.853-3.133-.507-1.295-.928-2.817-1.243-4.55-.07-.42-.105-.753-.105-.98 0-.245.105-.438.315-.63.21-.175.438-.28.665-.28.28 0 .7.227 1.295.648-.105.332-.158.612-.158.84 0 .788.192 1.82.577 3.098.385 1.26.805 2.222 1.26 2.852v.07c.525 0 .927-.98 1.225-2.975.21-1.348.315-2.59.315-3.71 0-.227.105-.42.333-.578s.455-.245.665-.245c.665 0 1.015.35 1.015 1.032zm4.121-3.097a1.07 1.07 0 0 1-.315.788c-.227.192-.49.297-.822.297a1.62 1.62 0 0 1-1.05-.385c-.332-.262-.49-.595-.49-.962 0-.332.105-.595.333-.787a1.19 1.19 0 0 1 .84-.315c.403 0 .735.14 1.05.385a1.24 1.24 0 0 1 .455.98zm-.192 3.063c0 .262-.053.63-.175 1.103-.123.49-.175.857-.175 1.12v4.515c0 .28.087.718.245 1.313-.228.332-.455.508-.718.508-.928 0-1.435-.473-1.522-1.383l-.21-3.85.175-3.64c-.017-.07-.017-.14-.017-.21 0-.262.192-.402.613-.402.35 0 .717.07 1.085.227.473.157.7.385.7.7zm9.043 8.259c-.228.332-.49.508-.822.508-.245 0-.648-.14-1.225-.437v-.263l.035-1.417.035-1.383c0-3.115-.472-4.69-1.4-4.69-.262 0-.56.21-.892.613-1.033 1.26-1.558 2.765-1.558 4.532 0 .245.052.613.14 1.102.105.49.14.858.14 1.103a.57.57 0 0 1-.28.507c-.192.14-.385.21-.613.21-.875 0-1.312-.56-1.312-1.68v-4.567a3.65 3.65 0 0 1 .053-.508l.035-.525a4.93 4.93 0 0 0-.07-.752l-.087-.752c0-.228.14-.455.402-.665.28-.21.525-.315.735-.315.332 0 .647.175.998.543l-.07.875c.542-.857 1.207-1.295 1.995-1.295.507 0 1.05.175 1.61.525.578.35.98.752 1.243 1.19.595 1.102.91 2.573.91 4.375v3.168zm9.021-2.31c0 .455-.332.98-1.015 1.593-.613.56-1.173.927-1.663 1.067a4.46 4.46 0 0 1-1.382.228c-1.155 0-2.065-.368-2.712-1.103-.648-.717-.963-1.662-.963-2.817 0-1.12.298-2.38.893-3.762.717-1.663 1.54-2.503 2.502-2.503.525 0 1.155.21 1.89.613.787.455 1.26.91 1.382 1.365.123.385.175.84.175 1.33 0 .455-.088.962-.28 1.54-.245.718-.525 1.085-.875 1.085a1.26 1.26 0 0 1-.7-.21c-.262-.157-.402-.367-.402-.595 0-.018.07-.175.21-.508.07-.14.105-.543.105-1.207 0-.525-.018-.875-.07-1.05-.088-.437-.298-.665-.613-.665-.718 0-1.26.613-1.663 1.855a8.89 8.89 0 0 0-.437 2.782c0 1.558.49 2.328 1.488 2.328.385 0 .84-.193 1.365-.613.455-.367.787-.753.98-1.155.227-.455.507-.7.857-.7.21 0 .42.14.63.385.192.262.298.49.298.717zm8.317.543c0 .735-.49 1.295-1.488 1.698-.77.332-1.575.49-2.433.49-2.24 0-3.36-1.277-3.36-3.832 0-1.05.245-2.205.77-3.5.612-1.575 1.382-2.363 2.275-2.363.788 0 1.663.368 2.59 1.067.928.718 1.383 1.47 1.383 2.24 0 .962-.437 1.733-1.295 2.293-.752.508-1.663.77-2.713.77-.192 0-.525-.122-.98-.367.053 1.383.472 2.065 1.225 2.065a3.61 3.61 0 0 0 1.89-.543c.63-.367 1.015-.543 1.19-.543.63 0 .945.175.945.525zm-2.38-4.13c0-.367-.105-.718-.315-1.05-.21-.315-.49-.49-.84-.49a1.24 1.24 0 0 0-1.12.63c-.227.367-.332.805-.332 1.295 0 .28.087.508.28.683a1.05 1.05 0 0 0 .735.262c1.05 0 1.593-.437 1.593-1.33z" class="C"/><defs ><path id="B" d="M19.514 64.144c0 1.088-.464 1.968-1.408 2.608-.848.608-1.888.912-3.12.912-1.6 0-2.768-.688-3.488-2.064-.56-1.056-.848-2.464-.848-4.224 0-1.776.352-3.408 1.04-4.912.896-1.904 2.112-2.864 3.664-2.864.112 0 .32.048.592.16.784.304 1.44.992 2 2.08.544 1.008.8 1.968.8 2.88 0 1.632-.32 2.432-.976 2.432-.368 0-.56-.144-.56-.448 0-.064.08-.256.256-.592.176-.32.272-.592.272-.8 0-.944-.192-1.872-.544-2.8-.464-1.184-1.104-1.792-1.92-1.792-.832 0-1.552.496-2.16 1.504-.48.784-.8 1.68-.976 2.672-.16.992-.256 1.856-.24 2.576-.016 1.408.112 2.448.352 3.104.368 1.04 1.088 1.728 2.16 2.048.352.096.624.16.848.16.608 0 1.184-.16 1.728-.464s.96-.72 1.248-1.248c.256-.48.4-.8.4-.992 0-.288-.224-.448-.688-.448-.912 0-1.648.144-2.192.4l-.784.384c-.432 0-.656-.352-.656-1.056 0-.16.08-.288.256-.4s.656-.224 1.456-.368l1.568-.192c.528 0 .976.16 1.36.48.368.32.56.736.56 1.264z"/><path id="C" d="M24.854 60.32c0 .048-.016.16-.016.336-.176.272-.352.4-.512.4-.096 0-.192-.064-.272-.192-.048-.848-.384-1.264-1.04-1.264-.432 0-.848.784-1.264 2.352-.16.576-.24 1.344-.24 2.304l.096 2.256c.016.048.048.128.112.256.048.128.08.224.08.288 0 .304-.208.448-.608.448-.448 0-.672-.24-.672-.704 0-.064.016-.16.048-.288s.048-.224.048-.288l-.096-3.312-.112-3.296c0-.256.048-.432.144-.48.096-.064.272-.096.544-.096.336 0 .528.112.576.352l.048.784.592-.896c.288-.336.608-.496.928-.496.24 0 .48.064.72.208.128.08.304.288.544.624.224.336.352.576.352.704z"/><path id="D" d="M30.99 68.016c0 .192-.144.288-.432.288-.32 0-.528-.144-.592-.4-.016-.048-.016-.304-.016-.784 0-.128-.016-.24-.064-.32-.736.544-1.552.816-2.416.816-.592 0-1.184-.16-1.744-.496-.64-.368-.96-.848-.96-1.408 0-.544.384-1.072 1.152-1.6.688-.48 1.328-.72 1.92-.72h1.968c.08-.08.128-.208.128-.416 0-.896-.08-1.568-.224-2.016-.24-.752-.72-1.136-1.424-1.136-.496 0-.976.32-1.392.96-.384.576-.576 1.136-.576 1.68v.208c0 .112-.064.16-.16.16-.144 0-.288-.08-.448-.24s-.24-.288-.24-.416c0-.368.112-.832.336-1.408.224-.56.48-.992.752-1.296.32-.352.736-.528 1.232-.528.768 0 1.456.24 2.096.72.688.512 1.024 1.136 1.04 1.872l.064 6.48zm-1.056-3.184c0-.528-.416-.8-1.248-.8-.656 0-1.216.128-1.712.352-.624.288-.944.736-.944 1.312 0 .368.16.64.496.848.288.176.624.256 1.008.256.576 0 1.12-.192 1.632-.56s.768-.848.768-1.408z"/><path id="E" d="M38.798 67.536c-.08.144-.208.224-.352.224s-.384-.096-.72-.272v-.176c0-.112.016-.288.032-.528l.016-.528c0-4.416-.56-6.64-1.664-6.64-.352 0-.72.256-1.12.768-1.008 1.248-1.52 2.832-1.52 4.736 0 .256.048.624.128 1.104a6.06 6.06 0 0 1 .128 1.12c0 .192-.144.304-.416.304-.528 0-.8-.432-.8-1.264V61.84c0-.128.016-.288.048-.528l.032-.512c0-.176-.016-.432-.064-.768l-.08-.736c0-.096.08-.224.256-.368.16-.144.288-.208.384-.208.176 0 .336.096.48.272l-.048 1.52a3.61 3.61 0 0 0 .016.592c.112-.048.272-.272.48-.672.256-.496.464-.848.64-1.04.32-.368.688-.56 1.104-.56.16 0 .4.064.72.192.72.256 1.232.704 1.536 1.312.512 1.056.784 2.448.784 4.176v3.024z"/><path id="F" d="M135.207 67.203c-1.225 0-2.1-.175-2.625-.49-.525-.332-.788-.892-.788-1.662 0-.403.053-.84.157-1.312l1.33.122-.14.98c0 .438.157.735.455.892.315.158.857.245 1.645.245.735 0 1.33-.105 1.767-.297a2.28 2.28 0 0 0 1.067-.927c.263-.437.472-1.068.648-1.873.123-.56.192-1.015.192-1.4 0-.56-.157-.945-.49-1.155-.333-.193-.893-.297-1.698-.297-.437 0-.822.07-1.207.21s-.875.402-1.47.805l-1.19-.035 1.435-6.755h7.193l-.245 1.207h-5.88l-.893 3.955c.368-.227.718-.385 1.067-.49.35-.088.752-.123 1.225-.123 1.243 0 2.118.175 2.66.56s.823 1.032.823 1.942c0 .49-.088 1.085-.227 1.803-.228 1.033-.525 1.855-.893 2.45a3.21 3.21 0 0 1-1.47 1.26c-.63.245-1.435.385-2.45.385z"/><path id="G" d="M176.679 54.253l-2.433 11.498h2.257l-.262 1.225h-5.863l.28-1.225h2.257l1.803-8.488c-.787.49-1.662.717-2.678.717l.157-1.242c.823 0 1.505-.21 2.065-.665.56-.437.91-1.067 1.085-1.872l.665.053h.665z"/><path id="H" d="M29.926 146.992c-1.216.48-2.608.704-4.16.704-1.136 0-1.936-.448-2.352-1.344-.304-.624-.464-1.584-.464-2.88 0-.816.064-2.048.192-3.696l.192-3.68c0-.176-.016-.416-.048-.752l-.032-.768.016-.416c.144-.176.352-.256.608-.256.464 0 .688.544.688 1.632 0 .944-.08 2.368-.256 4.256l-.256 4.272c0 1.792.592 2.688 1.792 2.688.4 0 .96-.112 1.696-.336.72-.224 1.296-.336 1.696-.336.208 0 .368.096.496.288s.192.4.192.624z"/><path id="I" d="M60.554 147.232c0 .352-.192.528-.56.528-.592 0-.88-1.2-.864-3.616l.064-8.992c0-.144-.016-.352-.064-.624l-.064-.608c.256-.192.464-.288.64-.288.192 0 .384.08.56.208.192.128.288.288.288.48 0 .128-.032.304-.096.512l-.144.512c-.16.896-.24 2.176-.24 3.792l-.016 3.808c.032 1.632.144 2.864.32 3.696 0 .032.016.128.08.272s.096.24.096.32z"/><path id="J" d="M70.89 147.568c-.272.16-.496.256-.64.256-.096 0-.224-.048-.4-.144.016-.208.016-.576.016-1.088l.032-1.072c0-4.112-.432-6.16-1.28-6.16-.512 0-.96.64-1.328 1.92-.288 1.024-.432 1.888-.432 2.592v2c0 .112.016.272.08.464s.096.336.096.416c0 .112-.08.224-.224.32-.144.112-.272.16-.384.16s-.256-.08-.4-.24c-.144-.176-.208-.32-.208-.432v-4.016c0-.432-.08-.976-.224-1.632-.192-.816-.416-1.232-.688-1.232-.144 0-.368.192-.656.56-.992 1.28-1.504 2.848-1.504 4.72 0 .224.032.56.08 1.008.064.448.08.784.08.992 0 .4-.16.608-.496.608-.16 0-.304-.08-.416-.208-.064-.064-.112-.368-.176-.896-.08-.48-.112-.816-.112-.992v-4.72c0-1.36.16-2.032.48-2.032.144 0 .272.064.416.192s.208.256.208.384c0 .288-.048.656-.112 1.104l-.144 1.104.096.096.768-1.728c.352-.72.784-1.088 1.28-1.088.688 0 1.28.736 1.792 2.24.128-.16.304-.496.496-1.008.208-.496.384-.864.544-1.072.256-.32.56-.48.944-.48.352 0 .752.24 1.2.72.816.864 1.216 2.432 1.216 4.688v3.696z"/><path id="K" d="M152.255 146.975h-1.347l.718-3.325h-5.478l.193-1.032 7.472-8.365h1.137l-1.732 8.172h1.172l-.245 1.225h-1.172l-.718 3.325zm.84-10.115l-4.988 5.565h3.78l1.208-5.565z"/><path id="L" d="M168.616 147.203c-1.225 0-2.118-.192-2.66-.56-.525-.367-.805-.98-.805-1.855a7.19 7.19 0 0 1 .175-1.47c.192-.91.438-1.575.752-2.03.315-.437.805-.822 1.453-1.155-.245-.192-.437-.403-.543-.648-.122-.227-.175-.525-.175-.892s.053-.787.157-1.26c.175-.84.42-1.487.735-1.96.333-.472.752-.823 1.313-1.032s1.278-.315 2.17-.315c1.102 0 1.907.175 2.398.507.507.333.752.892.752 1.68a6.36 6.36 0 0 1-.157 1.33c-.157.735-.35 1.295-.595 1.68s-.63.718-1.155 1.015c.35.228.612.473.787.752.157.298.245.648.245 1.103 0 .385-.07.857-.193 1.435-.192.927-.472 1.662-.822 2.188s-.84.892-1.435 1.137c-.612.227-1.4.35-2.397.35zm1.382-7.577c.647 0 1.137-.07 1.505-.192s.665-.35.875-.683c.21-.315.385-.787.507-1.418.088-.385.123-.7.123-.927 0-.42-.14-.735-.42-.893-.28-.175-.752-.262-1.435-.262-.63 0-1.12.07-1.505.21a1.76 1.76 0 0 0-.875.718c-.228.332-.385.787-.525 1.365l-.123.963c0 .438.14.735.42.893.263.157.752.227 1.453.227zm-1.347 6.352c.718 0 1.295-.088 1.732-.245.42-.175.77-.437.998-.822.245-.368.455-.91.595-1.593.105-.507.157-.893.157-1.155 0-.507-.157-.84-.49-1.032-.315-.175-.875-.262-1.68-.262-.735 0-1.312.07-1.733.227-.437.14-.77.403-1.015.787-.245.368-.437.928-.595 1.645-.105.42-.14.787-.14 1.085 0 .508.157.858.49 1.05.333.21.892.315 1.68.315z"/><path id="M" d="M254.298 147.203c-.403 0-.683-.07-.858-.175-.175-.123-.262-.315-.262-.578a2.46 2.46 0 0 1 .052-.49c.088-.403.21-.683.385-.823s.49-.21.927-.21c.403 0 .683.053.858.175.175.105.262.315.262.578 0 .157-.017.332-.052.49-.07.403-.21.665-.385.805-.175.157-.49.227-.927.227z"/><path id="N" d="M335.207 147.203c-.77 0-1.4-.07-1.873-.21-.473-.123-.84-.333-1.12-.63-.262-.297-.49-.718-.647-1.242l1.19-.858c.087.472.21.823.367 1.067s.403.403.718.508c.315.087.788.14 1.4.14.665 0 1.208-.088 1.61-.245.42-.175.735-.437.98-.822.227-.385.438-.91.577-1.593.053-.28.087-.507.087-.665a1.27 1.27 0 0 0-.437-.998c-.297-.245-.822-.525-1.592-.805-1.085-.368-1.855-.752-2.31-1.137-.455-.403-.683-.91-.683-1.558 0-.245.035-.525.105-.84.175-.84.42-1.488.735-1.96.333-.472.753-.805 1.295-1.015.56-.21 1.278-.315 2.17-.315.7 0 1.277.052 1.715.175s.788.298 1.05.56.473.63.648 1.085l-1.12.928c-.088-.42-.21-.735-.368-.945a1.28 1.28 0 0 0-.683-.455c-.298-.088-.718-.123-1.278-.123-.63 0-1.12.07-1.505.21-.368.14-.665.385-.875.7-.21.333-.368.787-.507 1.382a2.85 2.85 0 0 0-.053.542c0 .35.123.648.385.858.28.227.753.455 1.47.7 1.137.368 1.96.77 2.45 1.19.473.42.718.98.718 1.68 0 .28-.053.63-.123 1.032-.192.91-.473 1.645-.805 2.17-.35.525-.805.892-1.4 1.137-.577.227-1.347.35-2.292.35z"/><path id="O" d="M344.997 147.203c-1.155 0-1.978-.262-2.485-.752-.525-.507-.77-1.33-.77-2.485 0-.893.14-2.065.455-3.483.35-1.627.735-2.905 1.19-3.832.438-.928.98-1.61 1.645-2.013.648-.403 1.488-.612 2.52-.612.735 0 1.313.105 1.75.297.42.192.752.507.962.945.21.455.35 1.05.402 1.803l-1.295.333c-.053-.595-.14-1.05-.262-1.347s-.298-.508-.543-.63-.577-.175-1.05-.175c-.717 0-1.33.175-1.82.507s-.91.893-1.243 1.68c-.35.787-.665 1.873-.962 3.273-.298 1.382-.455 2.432-.455 3.15 0 .752.158 1.313.473 1.627s.822.49 1.522.49c.49 0 .893-.07 1.208-.21.332-.123.63-.35.892-.647.262-.315.543-.752.84-1.347l1.208.525c-.385.752-.752 1.347-1.138 1.75-.385.42-.805.718-1.277.893s-1.067.262-1.767.262z"/><path id="P" d="M361.455 134.253l-.245 1.225h-3.868l-2.45 11.498h-1.33l2.45-11.498h-3.868l.245-1.225h9.065z"/><path id="Q" d="M370.353 134.253l-.245 1.225h-5.967l-1.033 4.882h3.815l-.245 1.243h-3.85l-1.12 5.373h-1.348l2.712-12.722h7.28z"/><path id="R" d="M53.488 223.504c0 1.136-.256 2.144-.768 2.992-.608 1.024-1.44 1.552-2.496 1.552-1.088 0-1.888-.432-2.416-1.264-.448-.704-.672-1.616-.672-2.768 0-1.136.256-2.24.768-3.344.64-1.344 1.456-2.016 2.432-2.016.256 0 .624.144 1.088.448 1.376.848 2.064 2.32 2.064 4.4zm-.96-.032a7.23 7.23 0 0 0-.352-2.288c-.336-.944-.848-1.424-1.536-1.424-.8 0-1.424.528-1.872 1.584-.352.816-.528 1.68-.528 2.608 0 .848.128 1.552.368 2.128.336.784.88 1.184 1.616 1.184.8 0 1.408-.464 1.824-1.36.32-.704.48-1.52.48-2.432z"/><path id="S" d="M71.068 225.456c0 .592-.4 1.12-1.184 1.584-.704.432-1.376.64-2 .64-1.792 0-2.688-1.136-2.688-3.408 0-.992.192-2.064.544-3.216.48-1.488 1.088-2.24 1.84-2.24.64 0 1.344.32 2.096.976.768.64 1.152 1.296 1.152 1.92 0 .832-.336 1.552-1.008 2.16-.672.624-1.424.928-2.256.928-.08 0-.256-.064-.512-.208-.256-.128-.432-.192-.528-.192-.176 0-.272.048-.256.16-.016 1.536.496 2.304 1.52 2.304.512 0 .992-.176 1.44-.528.256-.192.56-.512.88-.944.24-.32.416-.496.496-.496.304 0 .464.192.464.56zm-1.392-3.68c0-.464-.128-.896-.4-1.312-.256-.4-.624-.608-1.056-.608-.528 0-.96.336-1.296 1.008-.288.56-.416 1.136-.416 1.728 0 .4.112.72.368.976.24.256.56.384.944.384.544 0 1.008-.224 1.36-.688a2.35 2.35 0 0 0 .496-1.488z"/><path id="T" d="M143.27 214.253l-2.433 11.498h2.257l-.262 1.225h-5.863l.28-1.225h2.257l1.803-8.488c-.787.49-1.662.718-2.678.718l.157-1.243c.823 0 1.505-.21 2.065-.665.56-.437.91-1.067 1.085-1.873l.665.053h.665z"/><path id="U" d="M24.024 299.952c0 .416-.048 1.04-.128 1.856-.096.816-.128 1.536-.128 2.128l.064 1.376.064 1.44c0 .592-.064.944-.192 1.072a.65.65 0 0 1-.336.08c-.304 0-.496-.128-.608-.384l-.16-.736c-.384.576-1.04.928-1.984 1.072-.336.064-.736-.096-1.2-.464-.416-.32-.688-.64-.816-.96-.192-.432-.272-1.28-.272-2.528v-4.352c-.08-.4.144-.592.672-.592.368 0 .56.208.56.64l-.064 2.496-.048 2.496c-.016.48.08.96.32 1.44.256.576.592.864 1.008.864.688 0 1.216-.448 1.584-1.36.272-.672.4-1.424.4-2.24v-2.624c0-.096-.032-.256-.112-.448-.064-.192-.112-.336-.112-.464 0-.064.016-.144.032-.224a.88.88 0 0 1 .56-.272c.592-.064.896.176.896.688z"/><path id="V" d="M40.348 301.136c-.112.08-.368.144-.768.208-.432.048-.688.096-.752.128-.016.16-.032.896-.032 2.224l.048 2.096c0 .16.032.384.096.704a4.18 4.18 0 0 1 .096.736c0 .112-.064.224-.192.336-.144.096-.256.16-.368.16-.256 0-.48-.288-.64-.832-.096-.4-.16-.784-.16-1.136l.048-4.16c-.08-.064-.384-.064-.928 0-.416.048-.64-.096-.64-.464 0-.496.544-.736 1.632-.704l.256-3.616c0-.032-.016-.096-.048-.192-.032-.08-.048-.144-.048-.192 0-.08.048-.144.16-.224.096-.064.224-.096.368-.096.464.048.704.288.704.704 0 .336-.048.832-.144 1.504s-.128 1.152-.128 1.472c0 .16 0 .32.032.464l1.104-.064c.368.016.56.16.56.448a.59.59 0 0 1-.256.496z"/><path id="W" d="M66.988 307.536c-.08.144-.208.224-.352.224s-.384-.096-.72-.272v-.176c0-.112.016-.288.032-.528l.016-.528c0-4.416-.56-6.64-1.664-6.64-.352 0-.72.256-1.12.768-1.008 1.248-1.52 2.832-1.52 4.736 0 .256.048.624.128 1.104a6.06 6.06 0 0 1 .128 1.12c0 .192-.144.304-.416.304-.528 0-.8-.432-.8-1.264v-4.544c0-.128.016-.288.048-.528l.032-.512c0-.176-.016-.432-.064-.768l-.08-.736c0-.096.08-.224.256-.368.16-.144.288-.208.384-.208.176 0 .336.096.48.272l-.048 1.52a3.61 3.61 0 0 0 .016.592c.112-.048.272-.272.48-.672.256-.496.464-.848.64-1.04.32-.368.688-.56 1.104-.56.16 0 .4.064.72.192.72.256 1.232.704 1.536 1.312.512 1.056.784 2.448.784 4.176v3.024z"/><path id="X" d="M138.497 294.253l-2.433 11.498h2.257l-.262 1.225h-5.863l.28-1.225h2.257l1.803-8.487c-.787.49-1.662.717-2.678.717l.157-1.243c.823 0 1.505-.21 2.065-.665.56-.437.91-1.068 1.085-1.873l.665.052h.665z"/><path id="Y" d="M131.427 105.943c.105-.508.35-.998.718-1.453.385-.455.822-.875 1.313-1.243l1.925-1.347 2.135-1.487a9.16 9.16 0 0 0 1.435-1.418c.42-.525.7-1.085.823-1.715.07-.298.123-.595.123-.858 0-.455-.175-.77-.49-.928s-.875-.245-1.68-.245c-.735 0-1.312.07-1.732.227-.42.14-.735.385-.963.735s-.403.84-.525 1.487l-1.295-.105c.157-.928.42-1.645.752-2.153s.805-.875 1.4-1.085c.595-.227 1.4-.332 2.397-.332 1.243 0 2.135.175 2.66.508.543.332.823.892.823 1.68 0 .403-.053.823-.157 1.278a5.55 5.55 0 0 1-1.032 2.205c-.525.665-1.103 1.243-1.733 1.715-.612.49-1.417 1.05-2.398 1.662l-2.117 1.505c-.472.385-.787.787-.963 1.225l6.458-.052-.28 1.225h-7.823l.228-1.032z"/><path id="Z" d="M163.843 107.203a2.38 2.38 0 0 1-1.558-.543c-.437-.35-.788-.858-1.015-1.505-.245-.648-.368-1.418-.368-2.293 0-.7.088-1.487.28-2.362.263-1.243.665-2.363 1.208-3.343s1.173-1.75 1.873-2.31c.718-.543 1.417-.823 2.153-.823a2.38 2.38 0 0 1 1.54.525c.438.367.787.875 1.015 1.522.245.665.367 1.418.367 2.293 0 .752-.087 1.54-.262 2.362-.262 1.243-.665 2.345-1.208 3.343-.542.98-1.172 1.75-1.873 2.293-.718.56-1.435.84-2.152.84zm.035-1.225c.472 0 .98-.245 1.505-.718s.998-1.138 1.435-1.96c.42-.84.752-1.767.98-2.8.157-.788.227-1.488.227-2.135 0-.945-.14-1.698-.455-2.258-.298-.577-.7-.857-1.19-.857-.472 0-.98.245-1.505.718s-.998 1.137-1.435 1.96c-.42.84-.752 1.767-.98 2.8a10.7 10.7 0 0 0-.227 2.135c0 .927.14 1.697.438 2.257.315.578.718.858 1.208.858zm1.155-4.358c-.298 0-.543-.087-.718-.245s-.263-.368-.263-.613a1.03 1.03 0 0 1 .333-.805 1.18 1.18 0 0 1 .822-.315c.298 0 .543.07.718.245a.73.73 0 0 1 .28.613c0 .315-.123.578-.35.787a1.12 1.12 0 0 1-.822.332z"/><path id="a" d="M135.207 187.203c-1.225 0-2.1-.175-2.625-.49-.525-.333-.788-.893-.788-1.663 0-.402.053-.84.157-1.312l1.33.123-.14.98c0 .438.157.735.455.892.315.157.857.245 1.645.245.735 0 1.33-.105 1.767-.297a2.28 2.28 0 0 0 1.067-.928c.263-.437.472-1.067.648-1.873.123-.56.192-1.015.192-1.4 0-.56-.157-.945-.49-1.155-.333-.192-.893-.297-1.698-.297-.437 0-.822.07-1.207.21s-.875.403-1.47.805l-1.19-.035 1.435-6.755h7.193l-.245 1.207h-5.88l-.893 3.955c.368-.227.718-.385 1.067-.49.35-.087.752-.123 1.225-.123 1.243 0 2.118.175 2.66.56s.823 1.032.823 1.943c0 .49-.088 1.085-.227 1.802-.228 1.032-.525 1.855-.893 2.45a3.21 3.21 0 0 1-1.47 1.26c-.63.245-1.435.385-2.45.385z"/><path id="b" d="M133.724 254.253l-2.433 11.497h2.257l-.262 1.225h-5.863l.28-1.225h2.257l1.803-8.487c-.787.49-1.662.717-2.678.717l.157-1.243c.823 0 1.505-.21 2.065-.665.56-.438.91-1.068 1.085-1.873l.665.053h.665z"/><path id="c" d="M165.991 266.923c.875-1.89 1.89-3.727 3.063-5.53l4.27-5.95-6.248.035.263-1.225h7.735l-.227 1.26-4.393 6.003a42.56 42.56 0 0 0-3.08 5.512l-1.382-.105z"/></defs></svg>