<svg xmlns="http://www.w3.org/2000/svg" xmlns:xlink="http://www.w3.org/1999/xlink" width="527" height="439" fill-rule="evenodd" stroke-linecap="round" stroke-linejoin="round" stroke-miterlimit="1.5" xmlns:v="https://vecta.io/nano"><style><![CDATA[.B{fill-rule:nonzero}.C{stroke:#4c4c4c}.D{stroke-width:.907}.E{fill:#fff}.F{fill:#696969}.G{fill:#d2d2d2}.H{stroke-width:.999}.I{stroke-linejoin:miter}.J{stroke-miterlimit:10}.K{fill:#d4fcd1}.L{fill:#f9efa2}.M{stroke-width:1.002}]]></style><g transform="matrix(1.10494 0 0 1.10494 -468.995 -162.973)"><use xlink:href="#B" class="C D G"/><g class="B"><path d="M546.101 275.89l2.976-7.776h1.108l3.182 7.776h-1.162l-.912-2.357h-3.247l-.858 2.357h-1.086zm2.237-3.193h2.639l-.815-2.15-.554-1.618a10.45 10.45 0 0 1-.413 1.488l-.858 2.281z"/><use xlink:href="#C"/><use xlink:href="#C" x="6.041"/><path d="M566.131 268.114h.956v7.776h-.956z"/><use xlink:href="#D"/></g></g><use xlink:href="#E" class="C F H"/><use xlink:href="#F" class="B E"/><path d="M202.808 49.176h106.074v35.358H202.808z" class="C F M"/><use xlink:href="#F" x="174.585" y="-70.716" class="B E"/><path d="M308.881 49.176h106.074v35.358H308.881z" class="C F M"/><use xlink:href="#G" class="B E"/><use xlink:href="#E" y="35.358" class="C F H"/><use xlink:href="#G" x="-280.658" y="106.074" class="B E"/><use xlink:href="#E" y="70.716" class="C F H"/><path d="M77.457 213.001c0-.528.128-1.008.416-1.456.288-.464.64-.864 1.056-1.216.416-.368.96-.784 1.632-1.264l1.536-1.2c.368-.32.672-.672.928-1.056.256-.4.384-.816.384-1.264 0-.48-.064-.848-.176-1.088-.128-.24-.336-.4-.64-.512-.288-.096-.752-.144-1.344-.144s-1.024.048-1.328.144c-.304.112-.512.272-.624.512-.128.24-.192.608-.192 1.088l.016.448h-1.664c-.048-.944.048-1.68.272-2.208a2.17 2.17 0 0 1 1.184-1.168c.56-.24 1.328-.352 2.336-.352.944 0 1.696.112 2.256.32s.96.56 1.216 1.04c.24.464.368 1.12.368 1.92a3.61 3.61 0 0 1-.528 1.92c-.352.592-.784 1.088-1.264 1.52-.496.432-1.136.928-1.904 1.488-.656.448-1.152.832-1.504 1.152s-.592.624-.72.944h5.888v1.536h-7.6v-1.104z" class="B E"/><use xlink:href="#E" y="106.074" class="C F H"/><path d="M81.265 249.671c-.96 0-1.696-.128-2.224-.352-.528-.24-.896-.608-1.12-1.104-.224-.512-.32-1.2-.32-2.064h1.68c0 .56.048.976.128 1.232.096.272.272.464.544.576.288.112.72.16 1.312.16.544 0 .944-.048 1.232-.16a1 1 0 0 0 .592-.576c.112-.272.16-.672.16-1.184 0-.592-.048-1.04-.144-1.312-.096-.288-.256-.48-.496-.592-.224-.096-.592-.176-1.072-.208h-1.472v-1.552h1.472c.512-.032.88-.096 1.104-.16.224-.08.384-.224.48-.432.08-.224.128-.576.128-1.056 0-.464-.048-.816-.16-1.056s-.304-.416-.592-.512-.688-.16-1.232-.16c-.608 0-1.056.064-1.328.16-.256.112-.432.288-.512.544-.08.272-.128.688-.128 1.264h-1.696c0-.896.096-1.584.32-2.08a2.02 2.02 0 0 1 1.12-1.088c.512-.224 1.264-.336 2.224-.336.896 0 1.616.112 2.144.32.528.224.912.576 1.152 1.04s.368 1.104.368 1.904c0 .64-.08 1.136-.224 1.472-.16.352-.416.656-.8.944a2.65 2.65 0 0 1 .8 1.104c.144.416.224 1.008.224 1.792 0 .848-.128 1.52-.352 2.016a2.28 2.28 0 0 1-1.152 1.104c-.528.224-1.248.352-2.16.352z" class="B E"/><use xlink:href="#E" y="141.432" class="C F H"/><path d="M84.049 284.821h-1.664v-2.944h-5.024v-1.2l5.296-7.488h1.392v7.152h1.088v1.536h-1.088v2.944zm-1.664-8.272l-2.848 3.792h2.848v-3.792z" class="B E"/><use xlink:href="#E" y="176.79" class="C F H"/><path d="M81.265 320.387c-.976 0-1.744-.112-2.288-.336-.528-.224-.912-.592-1.136-1.088s-.336-1.2-.336-2.096h1.696c0 .576.032.992.128 1.264.08.256.272.448.56.544.288.112.736.16 1.376.16.624 0 1.088-.064 1.392-.208a1.24 1.24 0 0 0 .672-.72c.128-.352.192-.848.192-1.504 0-.704-.064-1.232-.192-1.568-.128-.352-.352-.576-.656-.704s-.784-.192-1.408-.192a2.63 2.63 0 0 0-.96.176c-.288.128-.656.368-1.136.72h-1.376v-6.288h7.04v1.52h-5.36v2.672c.448-.224 1.056-.336 1.792-.336.992 0 1.76.112 2.32.368a2.32 2.32 0 0 1 1.232 1.232c.256.576.384 1.376.384 2.4 0 .976-.128 1.744-.384 2.336-.256.576-.672.992-1.232 1.248-.576.272-1.344.4-2.32.4z" class="B E"/><use xlink:href="#E" y="212.148" class="C F H"/><path d="M81.265 355.745c-.928 0-1.68-.128-2.208-.384-.544-.256-.944-.672-1.184-1.232s-.368-1.312-.368-2.256v-4c0-1.024.128-1.84.368-2.448s.64-1.056 1.184-1.328c.528-.272 1.28-.4 2.208-.4.88 0 1.584.096 2.128.272.544.192.944.496 1.216.912.256.416.384.976.384 1.664h-1.68c0-.352-.064-.608-.192-.8-.144-.192-.352-.32-.64-.4a5.81 5.81 0 0 0-1.216-.112c-.56 0-.992.08-1.28.224-.288.16-.496.416-.624.8-.112.368-.176.912-.176 1.616v.432c.528-.24 1.216-.368 2.08-.368.96 0 1.712.128 2.24.352a2.2 2.2 0 0 1 1.168 1.2c.24.56.352 1.344.352 2.368 0 .944-.112 1.712-.368 2.272-.24.56-.624.976-1.168 1.232s-1.28.384-2.224.384zm0-1.552c.56 0 .992-.064 1.28-.192a1.14 1.14 0 0 0 .624-.704c.128-.336.192-.816.192-1.44 0-.704-.064-1.216-.192-1.536-.112-.336-.32-.56-.608-.672s-.72-.16-1.296-.16c-.592 0-1.024.048-1.312.16s-.48.336-.592.672c-.128.336-.176.848-.176 1.552 0 .624.064 1.088.176 1.424.128.336.336.56.624.704.288.128.72.192 1.28.192z" class="B E"/><use xlink:href="#E" y="247.506" class="C F H"/><path d="M78.657 390.895c.256-1.12.592-2.208 1.008-3.232.4-1.04.848-2.016 1.312-2.928l1.952-3.6.192-.336h-5.664v-1.536h7.536v1.536c-.064.144-.16.288-.256.432l-.256.496-1.856 3.312-1.264 2.752c-.4.976-.72 2.016-.992 3.104h-1.712z" class="B E"/><use xlink:href="#E" y="282.863" class="C F H"/><path d="M81.265 426.46c-.96 0-1.728-.128-2.288-.368-.544-.224-.96-.608-1.2-1.12-.256-.512-.384-1.2-.384-2.064 0-.784.08-1.392.256-1.792.176-.416.496-.784.928-1.088-.32-.272-.528-.576-.656-.928-.128-.336-.192-.832-.192-1.472 0-.784.112-1.392.352-1.856.224-.48.592-.816 1.104-1.04.512-.208 1.2-.32 2.08-.32.864 0 1.568.112 2.08.32.512.224.88.56 1.12 1.04.224.464.352 1.072.352 1.856 0 .64-.064 1.136-.192 1.472-.128.352-.352.656-.688.928.448.304.752.672.944 1.088.176.4.256 1.008.256 1.792 0 .864-.112 1.552-.368 2.064s-.656.896-1.232 1.12c-.56.24-1.312.368-2.272.368zm0-7.136c.544 0 .944-.032 1.184-.112.256-.064.432-.224.528-.464.112-.224.16-.608.16-1.12 0-.448-.048-.784-.16-1.024s-.288-.4-.56-.512c-.256-.096-.64-.144-1.152-.144s-.912.048-1.168.144c-.256.112-.448.272-.544.512s-.16.576-.16 1.024c0 .512.064.896.16 1.12.096.24.272.4.528.464.24.08.64.112 1.184.112zm0 5.584c.592 0 1.056-.048 1.36-.176a1.05 1.05 0 0 0 .656-.592c.128-.288.192-.704.192-1.232 0-.608-.064-1.056-.176-1.344-.128-.272-.336-.464-.64-.56-.304-.08-.768-.128-1.392-.128-.64 0-1.104.048-1.392.128a.95.95 0 0 0-.624.56c-.128.288-.192.736-.192 1.344 0 .528.064.944.192 1.232.112.288.336.48.64.592.32.128.768.176 1.376.176z" class="B E"/><g transform="matrix(1.10494 0 0 1.10494 -256.848 -162.973)"><use xlink:href="#B" class="C D E"/><g class="B"><use xlink:href="#H"/><use xlink:href="#I"/><use xlink:href="#J"/><use xlink:href="#K"/><use xlink:href="#K" x="6.683"/><use xlink:href="#K" x="13.367"/></g></g><g transform="matrix(1.10494 0 0 1.10494 -362.921 -162.973)"><use xlink:href="#B" class="C D E"/><g class="B"><use xlink:href="#L"/><use xlink:href="#J" x="-6.682"/><use xlink:href="#I" x="6.683"/><use xlink:href="#M"/><use xlink:href="#H" x="26.733"/><use xlink:href="#M" x="13.366"/></g></g><g transform="matrix(1.10494 0 0 1.10494 -256.848 -92.257)"><use xlink:href="#B" class="C D E"/><g class="B"><use xlink:href="#H"/><use xlink:href="#N"/><use xlink:href="#M" x="-6.684"/><use xlink:href="#N" x="13.366"/><use xlink:href="#K" x="6.683"/><use xlink:href="#H" x="33.416"/></g></g><g transform="matrix(1.10494 0 0 1.10494 -362.921 -92.257)"><use xlink:href="#B" class="C D E"/><g class="B"><use xlink:href="#H"/><use xlink:href="#O"/><use xlink:href="#L" x="13.366"/><use xlink:href="#M"/><use xlink:href="#L" x="26.733"/><use xlink:href="#J" x="20.05"/></g></g><g transform="matrix(1.10494 0 0 1.10494 -256.848 -21.541)"><use xlink:href="#B" class="C D E"/><g class="B"><use xlink:href="#H"/><use xlink:href="#P"/><use xlink:href="#J"/><use xlink:href="#K"/><use xlink:href="#K" x="6.683"/><use xlink:href="#K" x="13.367"/></g></g><g transform="matrix(1.10494 0 0 1.10494 -362.921 -21.541)"><use xlink:href="#B" class="C D E"/><g class="B"><use xlink:href="#H"/><use xlink:href="#L" x="6.683"/><use xlink:href="#P" x="6.683"/><use xlink:href="#H" x="20.05"/><use xlink:href="#O" x="20.05"/><use xlink:href="#I" x="26.733"/></g></g><g transform="matrix(1.10494 0 0 1.10494 -256.848 49.175)"><use xlink:href="#B" class="C D E"/><g class="B"><use xlink:href="#M" x="-16.709"/><use xlink:href="#O" x="3.342"/><use xlink:href="#Q"/><use xlink:href="#K" x="3.342"/><use xlink:href="#I" x="23.391"/></g></g><g transform="matrix(1.10494 0 0 1.10494 -362.921 49.175)"><use xlink:href="#B" class="C D E"/><g class="B"><use xlink:href="#O" x="-3.342"/><use xlink:href="#M" x="-10.025"/><use xlink:href="#P" x="10.025"/><use xlink:href="#Q" x="6.682"/><use xlink:href="#M" x="10.025"/></g></g><g transform="matrix(1.10494 0 0 1.10494 -256.848 119.89)"><use xlink:href="#B" class="C D E"/><g class="B"><use xlink:href="#H"/><use xlink:href="#K" x="-13.366"/><use xlink:href="#P" x="6.683"/><use xlink:href="#J" x="6.684"/><use xlink:href="#K" x="6.683"/><use xlink:href="#K" x="13.367"/></g></g><g transform="matrix(1.10494 0 0 1.10494 -362.921 119.89)"><use xlink:href="#B" class="C D E"/><g class="B"><use xlink:href="#O" x="-3.342"/><use xlink:href="#I" x="3.341"/><use xlink:href="#O" x="10.025"/><use xlink:href="#P" x="16.708"/><use xlink:href="#N" x="23.391"/></g></g><g transform="matrix(1.10494 0 0 1.10494 -256.848 -127.615)"><use xlink:href="#B" class="C D K"/><g class="B"><use xlink:href="#L"/><use xlink:href="#Q" x="-10.025"/><use xlink:href="#J"/><use xlink:href="#P" x="13.367"/><use xlink:href="#N" x="20.049"/><use xlink:href="#J" x="20.05"/></g></g><g transform="matrix(1.10494 0 0 1.10494 -362.921 -127.615)"><use xlink:href="#B" class="C D L"/><g class="B"><use xlink:href="#L"/><use xlink:href="#K" x="-13.366"/><use xlink:href="#K" x="-6.683"/><use xlink:href="#J" x="6.684"/><use xlink:href="#N" x="20.049"/><use xlink:href="#I" x="26.733"/></g></g><g transform="matrix(1.10494 0 0 1.10494 -256.848 -56.899)"><use xlink:href="#B" class="C D K"/><g class="B"><use xlink:href="#H"/><use xlink:href="#Q" x="-10.025"/><use xlink:href="#N" x="6.682"/><use xlink:href="#K"/><use xlink:href="#K" x="6.683"/><use xlink:href="#K" x="13.367"/></g></g><g transform="matrix(1.10494 0 0 1.10494 -362.921 -56.899)"><use xlink:href="#B" class="C D L"/><g class="B"><use xlink:href="#H"/><use xlink:href="#I"/><use xlink:href="#N" x="6.682"/><use xlink:href="#K"/><use xlink:href="#H" x="26.733"/><use xlink:href="#M" x="13.366"/></g></g><g transform="matrix(1.10494 0 0 1.10494 -256.848 13.817)"><use xlink:href="#B" class="C D K"/><g class="B"><use xlink:href="#H"/><use xlink:href="#M" x="-13.367"/><use xlink:href="#O" x="6.683"/><use xlink:href="#K"/><use xlink:href="#K" x="6.683"/><use xlink:href="#K" x="13.367"/></g></g><g transform="matrix(1.10494 0 0 1.10494 -362.921 13.817)"><use xlink:href="#B" class="C D L"/><g class="B"><use xlink:href="#P" x="-3.342"/><use xlink:href="#L" x="10.025"/><use xlink:href="#L" x="16.708"/><use xlink:href="#L" x="23.391"/><use xlink:href="#I" x="23.391"/></g></g><g transform="matrix(1.10494 0 0 1.10494 -256.848 84.533)"><use xlink:href="#B" class="C D K"/><g class="B"><use xlink:href="#O" x="-6.683"/><use xlink:href="#J" x="-6.682"/><use xlink:href="#O" x="6.683"/><use xlink:href="#I" x="13.366"/><use xlink:href="#L" x="26.733"/><use xlink:href="#P" x="26.733"/></g></g><g transform="matrix(1.10494 0 0 1.10494 -362.921 84.533)"><use xlink:href="#B" class="C D L"/><g class="B"><use xlink:href="#H"/><use xlink:href="#O"/><use xlink:href="#H" x="13.366"/><use xlink:href="#P" x="13.367"/><use xlink:href="#I" x="20.049"/><use xlink:href="#M" x="13.366"/></g></g><g transform="matrix(1.10494 0 0 1.10494 -256.848 -198.331)"><use xlink:href="#B" fill="#00db00" class="C D"/><g class="B"><path d="M532.12 275.887v-7.776h5.767v1.314h-4.203v1.727h3.91v1.314h-3.91v2.107h4.344v1.314h-5.908zm7.124-5.636h1.368v.771c.489-.597 1.075-.891 1.759-.891.358 0 .673.076.934.217a1.85 1.85 0 0 1 .652.673c.25-.293.51-.521.804-.673.282-.141.586-.217.912-.217.413 0 .771.076 1.053.25.282.163.5.413.641.739.098.239.152.63.152 1.162v3.606h-1.488v-3.215c0-.565-.054-.923-.152-1.086-.141-.217-.348-.315-.641-.315-.206 0-.402.065-.586.185-.185.13-.315.315-.402.565-.076.239-.119.63-.119 1.162v2.704h-1.488v-3.084c0-.554-.022-.901-.076-1.064a.79.79 0 0 0-.25-.358c-.109-.076-.261-.109-.456-.109-.228 0-.434.054-.619.185-.185.119-.315.304-.391.532-.087.239-.119.619-.119 1.162v2.737h-1.488v-5.637zm9.722 0h1.39v.836c.174-.282.424-.521.728-.695a2.07 2.07 0 0 1 1.021-.261c.662 0 1.216.25 1.672.771.456.51.684 1.216.684 2.139 0 .934-.228 1.672-.695 2.194-.456.521-1.01.782-1.672.782a1.92 1.92 0 0 1-.836-.185c-.261-.13-.521-.337-.804-.641v2.835h-1.488v-7.776zm1.477 2.726c0 .63.119 1.097.369 1.401a1.16 1.16 0 0 0 .923.456c.348 0 .63-.141.858-.413.239-.282.348-.739.348-1.368 0-.597-.119-1.032-.358-1.314a1.06 1.06 0 0 0-.88-.434c-.358 0-.662.141-.901.424s-.358.695-.358 1.249zm5.2-4.866h1.488v7.776h-1.488zm2.67 4.877a3 3 0 0 1 .369-1.434c.239-.467.586-.815 1.032-1.064.445-.239.945-.358 1.499-.358.858 0 1.553.272 2.096.825s.815 1.249.815 2.096c0 .858-.272 1.564-.825 2.118-.543.565-1.238.847-2.074.847a3.22 3.22 0 0 1-1.477-.358c-.467-.228-.825-.565-1.064-1.021-.25-.445-.369-.999-.369-1.651zm1.531.087c0 .554.13.988.391 1.282.272.293.597.445.988.445a1.29 1.29 0 0 0 .977-.445c.261-.293.391-.728.391-1.292 0-.554-.13-.977-.391-1.271-.272-.304-.597-.445-.977-.445a1.26 1.26 0 0 0-.988.445c-.261.293-.391.717-.391 1.282zm4.745-2.824h1.586l1.347 4.007 1.314-4.007h1.542l-1.987 5.419-.358.988c-.13.326-.25.576-.369.749a1.72 1.72 0 0 1-.413.424 1.59 1.59 0 0 1-.565.25 2.76 2.76 0 0 1-.76.087 3.74 3.74 0 0 1-.847-.087l-.13-1.162a3.58 3.58 0 0 0 .63.065c.348 0 .608-.098.771-.304a2.19 2.19 0 0 0 .38-.782l-2.139-5.647z"/><use xlink:href="#R"/><use xlink:href="#R" x="6.04"/><path d="M582.883 274.28l1.499-.228c.065.293.195.51.391.662s.467.228.815.228c.38 0 .673-.076.869-.217a.47.47 0 0 0 .195-.402c0-.109-.033-.206-.109-.272-.065-.076-.239-.141-.5-.206-1.195-.261-1.955-.5-2.281-.717-.445-.304-.673-.728-.673-1.271 0-.489.195-.901.586-1.227.38-.337.977-.5 1.792-.5.771 0 1.336.119 1.716.369.369.261.63.63.771 1.119l-1.401.261c-.065-.217-.174-.391-.348-.51-.163-.109-.402-.174-.717-.174-.391 0-.673.054-.836.163-.119.087-.174.185-.174.304 0 .109.043.195.152.272.13.098.597.239 1.39.424.793.174 1.347.402 1.662.662.304.261.467.63.467 1.108 0 .51-.217.956-.652 1.325-.424.38-1.064.565-1.911.565-.771 0-1.379-.163-1.825-.467a2.2 2.2 0 0 1-.88-1.271z"/></g></g><g transform="matrix(1.10494 0 0 1.10494 -362.921 -198.331)"><use xlink:href="#B" fill="#e8ca00" class="C D"/><g class="B"><path d="M538.157 275.887v-7.776h3.302c.836 0 1.444.076 1.814.206a1.74 1.74 0 0 1 .901.749 2.25 2.25 0 0 1 .348 1.227c0 .586-.174 1.064-.521 1.444-.337.38-.847.619-1.531.717.337.195.619.413.836.652s.521.662.891 1.26l.956 1.52h-1.879l-1.14-1.694-.825-1.14c-.141-.152-.304-.261-.467-.326-.163-.054-.434-.087-.793-.087h-.315v3.247h-1.575zm1.575-4.485h1.162c.749 0 1.216-.033 1.412-.098.185-.065.326-.174.434-.326s.163-.348.163-.586c0-.261-.076-.467-.217-.63-.13-.163-.337-.261-.586-.304-.13-.022-.51-.033-1.14-.033h-1.227v1.977z"/><use xlink:href="#R" x="-25.345"/><path d="M553.572 275.887l-2.27-5.637h1.564l1.064 2.878.304.956.163-.478.152-.478 1.075-2.878h1.531l-2.237 5.637h-1.347z"/><use xlink:href="#R" x="-13.265"/><path d="M569.225 275.887h-1.488v-2.878c0-.608-.033-.999-.098-1.173a.77.77 0 0 0-.304-.424c-.141-.098-.315-.141-.521-.141-.25 0-.489.065-.695.206a1.07 1.07 0 0 0-.413.565c-.076.228-.119.662-.119 1.292v2.552h-1.488v-5.637h1.379v.836c.489-.641 1.108-.956 1.857-.956.326 0 .63.054.901.174s.478.272.619.456a1.63 1.63 0 0 1 .293.619c.054.239.076.576.076 1.01v3.497zm5.222 0v-.847a2.22 2.22 0 0 1-.804.717 2.3 2.3 0 0 1-1.064.261 2.12 2.12 0 0 1-1.021-.25c-.293-.174-.51-.402-.652-.706-.13-.293-.195-.717-.195-1.238v-3.573h1.488v2.596c0 .793.033 1.271.087 1.455.054.174.152.315.293.424a.98.98 0 0 0 .554.152 1.18 1.18 0 0 0 .684-.206 1.06 1.06 0 0 0 .413-.521c.076-.206.109-.717.109-1.52v-2.378h1.499v5.637h-1.39z"/><use xlink:href="#R" x="6.043"/></g></g><g transform="matrix(1.10494 0 0 1.10494 -468.995 -127.615)"><use xlink:href="#B" class="C D G"/><g class="B"><use xlink:href="#S"/><use xlink:href="#T"/><path d="M551.06 275.89v-5.637h.858v.793a1.94 1.94 0 0 1 .695-.662c.293-.174.63-.25 1.01-.25.413 0 .76.087 1.021.261.272.174.456.413.565.728.445-.662 1.032-.988 1.738-.988.565 0 .988.152 1.292.456.304.315.456.793.456 1.434v3.866h-.956v-3.551c0-.38-.033-.652-.087-.825-.065-.163-.174-.304-.337-.402a1.11 1.11 0 0 0-.576-.152c-.402 0-.728.13-.988.391-.261.272-.391.684-.391 1.271v3.269h-.956v-3.66c0-.424-.076-.739-.228-.956-.163-.206-.413-.315-.771-.315-.272 0-.51.065-.739.206a1.17 1.17 0 0 0-.5.63c-.098.272-.152.662-.152 1.173v2.921h-.956z"/><use xlink:href="#U"/><use xlink:href="#V"/><use xlink:href="#W"/><use xlink:href="#X"/></g></g><g transform="matrix(1.10494 0 0 1.10494 -468.995 -92.257)"><use xlink:href="#B" class="C D G"/><g class="B"><path d="M546.964 272.838v-.912h3.291v2.878a5.76 5.76 0 0 1-1.564.912c-.532.206-1.086.304-1.651.304a4.47 4.47 0 0 1-2.085-.489 3.25 3.25 0 0 1-1.412-1.423c-.315-.619-.478-1.303-.478-2.063s.163-1.466.478-2.129c.315-.652.771-1.14 1.368-1.455.586-.315 1.271-.478 2.053-.478.554 0 1.064.087 1.52.272s.815.434 1.064.76c.261.326.456.749.597 1.271l-.934.261c-.119-.402-.261-.706-.434-.934s-.424-.413-.739-.543c-.326-.141-.684-.206-1.075-.206-.467 0-.88.076-1.216.217a2.23 2.23 0 0 0-.836.565 2.73 2.73 0 0 0-.489.771 4.09 4.09 0 0 0-.293 1.564c0 .684.119 1.271.358 1.738s.586.815 1.043 1.043a3.33 3.33 0 0 0 1.455.337c.445 0 .88-.087 1.303-.261s.739-.358.967-.543v-1.455h-2.292z"/><use xlink:href="#Y"/><use xlink:href="#Y" x="6.04"/><use xlink:href="#X" x="-13.883"/><path d="M569.753 268.114h.956v7.776h-.956z"/><use xlink:href="#D" x="3.622"/></g></g><g transform="matrix(1.10494 0 0 1.10494 -468.995 -56.899)"><use xlink:href="#B" class="C D G"/><g class="B"><path d="M538.778 275.89v-7.776h1.553l1.835 5.506.369 1.151.413-1.249 1.868-5.408h1.379v7.776h-.988v-6.505l-2.259 6.505h-.923l-2.248-6.614v6.614h-.999zm8.96-6.679v-1.097h.956v1.097h-.956zm0 6.679v-5.637h.956v5.637h-.956z"/><use xlink:href="#Z"/><path d="M555.57 275.89v-5.637h.858v.858c.217-.402.424-.662.608-.793a1.11 1.11 0 0 1 .608-.185c.326 0 .652.098.988.304l-.337.891c-.228-.141-.467-.206-.695-.206-.206 0-.402.054-.565.185-.163.119-.282.293-.358.521a3.98 3.98 0 0 0-.152 1.119v2.943h-.956z"/><use xlink:href="#Y" x="7.543"/><use xlink:href="#U" x="5.131"/><use xlink:href="#Y" x="19.014"/><path d="M576.936 275.89v-4.887h-.847v-.749h.847v-.597c0-.38.033-.652.098-.836.098-.25.261-.456.489-.608s.554-.228.967-.228a4.65 4.65 0 0 1 .901.098l-.152.825c-.195-.033-.38-.043-.554-.043-.293 0-.5.054-.619.185-.119.119-.185.348-.185.695v.51h1.097v.749h-1.097v4.887h-.945zm4.875-.858l.141.847a3.79 3.79 0 0 1-.728.087c-.348 0-.619-.054-.804-.163-.195-.109-.326-.261-.402-.434-.076-.185-.119-.554-.119-1.129v-3.236h-.695v-.749h.695v-1.39l.945-.576v1.966h.967v.749h-.967v3.291c0 .272.022.445.054.521a.34.34 0 0 0 .163.185c.076.054.185.076.326.076.109 0 .25-.011.424-.043z"/></g></g><g transform="matrix(1.10494 0 0 1.10494 -468.995 -21.541)"><use xlink:href="#B" class="C D G"/><g class="B"><path d="M542.759 275.89v-7.776h1.032v3.193h4.04v-3.193h1.032v7.776h-1.032v-3.66h-4.04v3.66h-1.032z"/><use xlink:href="#V" x="-15.087"/><use xlink:href="#T" x="11.47"/><path d="M563.573 275.89l-1.727-5.637h.988l.891 3.258.337 1.206.293-1.162.891-3.302h.988l.836 3.269.282 1.075.326-1.086.967-3.258h.923l-1.759 5.637h-.988l-.901-3.378-.217-.956-1.14 4.333h-.988z"/><use xlink:href="#D" x="1.808"/><path d="M576.414 269.211v-1.097h.956v1.097h-.956zm0 6.679v-5.637h.956v5.637h-.956z"/></g></g><g transform="matrix(1.10494 0 0 1.10494 -468.995 13.817)"><use xlink:href="#B" class="C D G"/><g class="B"><path d="M551.482 275.89v-7.776h2.683c.597 0 1.064.043 1.379.109.445.109.825.293 1.14.565.413.348.717.782.923 1.325s.304 1.151.304 1.846c0 .597-.065 1.119-.206 1.575s-.315.825-.532 1.129c-.217.293-.456.532-.706.706-.261.174-.565.304-.934.391-.358.087-.771.13-1.249.13h-2.802zm1.032-.912h1.662c.51 0 .912-.054 1.206-.152.293-.087.521-.228.695-.402.239-.239.434-.565.565-.977.141-.413.206-.912.206-1.499 0-.815-.13-1.444-.402-1.879-.261-.434-.586-.728-.967-.88-.282-.098-.717-.152-1.336-.152h-1.629v5.941z"/><use xlink:href="#D" x="-9.36"/><path d="M565.224 268.114h.956v7.776h-.956zm2.413 0h.956v7.776h-.956z"/></g></g><g transform="matrix(1.10494 0 0 1.10494 -468.995 49.175)"><use xlink:href="#B" class="C D G"/><g class="B"><path d="M537.043 275.89v-7.776h5.246v.923h-4.214v2.4h3.649v.923h-3.649v3.53h-1.032z"/><use xlink:href="#T" x="-1.517"/><use xlink:href="#Z" x="-0.608"/><use xlink:href="#D" x="-13.592"/><path d="M561.894 275.89h-.891v-7.776h.956v2.78a1.88 1.88 0 0 1 1.542-.76c.348 0 .684.065.988.206s.565.337.76.586c.206.25.358.565.478.912.109.358.163.739.163 1.151 0 .967-.239 1.705-.717 2.237-.478.521-1.043.793-1.716.793a1.8 1.8 0 0 1-1.564-.836v.706zm-.011-2.856c0 .673.087 1.162.272 1.466.304.489.706.728 1.227.728.413 0 .771-.174 1.075-.543.304-.358.456-.901.456-1.618 0-.728-.141-1.271-.434-1.629-.293-.348-.641-.521-1.053-.521-.424 0-.782.185-1.086.543s-.456.891-.456 1.575z"/><use xlink:href="#Y" x="15.4"/><use xlink:href="#Y" x="21.44"/><path d="M579.134 275.89v-7.776h.956v4.431l2.259-2.292h1.238l-2.15 2.096 2.368 3.54h-1.173l-1.868-2.878-.673.641v2.237h-.956z"/></g></g><g transform="matrix(1.10494 0 0 1.10494 -468.995 84.533)"><use xlink:href="#B" class="C D G"/><g class="B"><path d="M540.063 275.89v-7.776h5.246v.923h-4.214v2.4h3.649v.923h-3.649v3.53h-1.032z"/><use xlink:href="#Y" x="-5.131"/><path d="M551.923 275.89l2.063-2.932-1.911-2.704h1.195l.869 1.325.391.63.434-.619.945-1.336h1.14l-1.944 2.661 2.096 2.976h-1.173l-1.162-1.749-.304-.478-1.477 2.226h-1.162z"/><use xlink:href="#Z" x="7.843"/><use xlink:href="#Y" x="11.77"/><use xlink:href="#W" x="-2.113"/><use xlink:href="#W" x="3.927"/></g></g><g transform="matrix(1.10494 0 0 1.10494 -468.995 119.89)"><use xlink:href="#B" class="C D G"/><g class="B"><use xlink:href="#S" x="10.564"/><use xlink:href="#Y" x="3.929"/><use xlink:href="#W" x="-9.953"/><path d="M567.621 278.062l-.109-.901c.206.054.391.087.554.087.206 0 .38-.033.5-.109.13-.065.239-.163.315-.293.065-.098.163-.337.293-.717.022-.043.043-.13.087-.228l-2.139-5.647h1.032l1.173 3.269c.152.413.282.847.402 1.303a11.73 11.73 0 0 1 .391-1.282l1.206-3.291h.956l-2.139 5.734-.532 1.271c-.174.315-.369.554-.586.695-.217.152-.478.217-.782.217a1.96 1.96 0 0 1-.619-.109z"/></g></g><g fill="none" stroke="#000"><path d="M456.66 97.714l3 4.5-3 4.5" class="I J"/><path d="M414.959 102.214h44.701"/><path d="M456.66 309.861l3 4.5-3 4.5" class="I J"/><path d="M414.959 314.361h44.701"/><path d="M456.66 62.356l3 4.5-3 4.5" class="I J"/><path d="M414.959 66.856h44.701"/><path d="M145.27 88.138l4.5-3 4.5 3" class="I J"/><path d="M149.77 119.895V85.138"/><path d="M76.764 88.138l4.5-3 4.5 3" class="I J"/><path d="M81.264 119.895V85.138"/></g><g class="B"><use xlink:href="#a"/><use xlink:href="#b"/><use xlink:href="#c"/><use xlink:href="#d"/><use xlink:href="#e"/><use xlink:href="#a" x="23.259"/><use xlink:href="#b" x="23.259"/><use xlink:href="#f"/><use xlink:href="#g"/><use xlink:href="#h"/><use xlink:href="#a" x="5.304" y="14.452"/><use xlink:href="#i"/><use xlink:href="#j"/><use xlink:href="#k"/><use xlink:href="#e" x="9.546" y="14.452"/><use xlink:href="#l"/><use xlink:href="#m"/><use xlink:href="#f" x="13.072" y="14.452"/><use xlink:href="#g" x="13.072" y="14.452"/><path d="M469.849 312.691l.65 3.129c.172.676.358 1.22.53 1.644.212.504.345.782.411.849.066-.04.133-.146.212-.292.093-.159.212-.438.358-.849.623-1.684 1.074-3.195 1.379-4.508.027-.119.093-.212.199-.278a.41.41 0 0 1 .331-.053c.119.027.199.093.265.186.066.106.08.212.053.331-.318 1.379-.782 2.917-1.405 4.614l-.411.981c-.146.252-.292.451-.464.57-.305.225-.61.239-.902.027-.305-.225-.583-.636-.835-1.233-.199-.464-.385-1.061-.57-1.763l-.65-3.195c-.027-.119 0-.225.066-.331.066-.093.159-.159.278-.186.119-.013.225.013.331.08.093.066.159.159.172.278z"/><use xlink:href="#f" x="-28.877" y="219.38"/><use xlink:href="#k" x="-14.645" y="204.928"/><use xlink:href="#j" x="-7.585" y="204.928"/><path d="M487.431 316.987v-1.366-.504l-.027-.57c-.013-.119-.013-.292-.027-.491s-.04-.385-.066-.557l-.08-.504c-.027-.119 0-.225.066-.331.066-.093.159-.159.278-.186.106-.013.225 0 .331.066a.42.42 0 0 1 .172.292c.119.544.186 1.18.212 1.909l.464-.597c.729-.835 1.498-1.432 2.307-1.763.119-.053.225-.053.345-.013a.52.52 0 0 1 .239.239c.04.119.04.225 0 .331-.053.119-.133.199-.239.239-.689.292-1.352.809-1.989 1.538-.676.782-1.034 1.498-1.101 2.175-.013.04-.013.08-.013.119v1.14l-.013.451v.199.027c-.013.013-.013.04-.013.053l-.027.08a.37.37 0 0 1-.212.212c-.093.053-.172.066-.252.04-.093-.04-.146-.066-.186-.093s-.08-.053-.106-.093-.053-.08-.066-.133c0-.013 0-.04-.013-.066v-.093l-.013-.941.027-.809z"/><use xlink:href="#a" x="22.403" y="219.38"/><use xlink:href="#g" x="-11.518" y="219.38"/><use xlink:href="#a" x="-341.72" y="-35.358"/><use xlink:href="#b" x="-341.72" y="-35.358"/><use xlink:href="#c" x="-341.72" y="-35.358"/><use xlink:href="#d" x="-341.72" y="-35.358"/><path d="M146.432 57.98c-.013.093-.027.305-.053.636l-.08.835-.053.941.013.981c.04.689.146 1.22.331 1.578.186.345.438.517.756.53.186 0 .371-.106.557-.331.199-.225.385-.57.557-1.034.239-.597.438-1.379.583-2.334l.159-1.074.053-.411a.61.61 0 0 0 .013-.133c0-.013 0-.04.013-.053v-.027l.027-.08c.013-.04.04-.066.066-.093a.43.43 0 0 1 .371-.146c.146.013.265.08.345.199.013.04.04.08.053.119.013.027.013.053.013.08v.04c0 2.135.159 3.978.464 5.556.027.119.013.225-.053.318-.066.106-.172.172-.292.199-.119.013-.239-.013-.331-.066-.106-.08-.172-.172-.186-.292-.133-.623-.239-1.26-.305-1.909-.04.146-.093.278-.146.411-.212.544-.451.981-.703 1.286-.371.438-.796.663-1.286.65-.676-.013-1.18-.358-1.525-1.021-.252-.464-.398-1.101-.438-1.909-.027-.265-.027-.61-.013-1.047l.053-1.008.08-.862.053-.61a.43.43 0 0 1 .159-.292c.093-.08.212-.119.331-.106s.212.053.305.146c.08.093.119.212.106.331z"/><use xlink:href="#a" x="-318.461" y="-35.358"/><use xlink:href="#b" x="-318.461" y="-35.358"/><use xlink:href="#f" x="-341.72" y="-35.358"/><use xlink:href="#g" x="-341.72" y="-35.358"/><use xlink:href="#h" x="-341.72" y="-35.358"/><use xlink:href="#a" x="-336.416" y="-20.906"/><use xlink:href="#n"/><use xlink:href="#c" x="-333.234" y="-20.906"/><use xlink:href="#k" x="-346.228" y="-35.358"/><use xlink:href="#f" x="-353.023" y="-20.906"/><use xlink:href="#g" x="-353.012" y="-20.906"/><path d="M151.807 7.925c-.507 0-.915-.06-1.203-.169-.298-.109-.507-.288-.636-.537-.129-.239-.189-.577-.189-.994 0-.467.06-.825.189-1.074a1 1 0 0 1 .627-.537c.288-.109.696-.159 1.213-.159h1.273v-.388c0-.318-.04-.567-.109-.736a.72.72 0 0 0-.388-.378c-.179-.07-.438-.109-.776-.109a1.94 1.94 0 0 0-.607.08c-.15.05-.269.149-.358.278s-.159.318-.229.567l-.726-.179c.099-.368.219-.666.378-.885a1.28 1.28 0 0 1 .597-.477c.239-.099.557-.149.945-.149.507 0 .905.07 1.203.209a1.24 1.24 0 0 1 .636.636c.129.288.199.676.199 1.144v2.247c0 .239.02.408.06.517.03.109.099.189.199.219.099.04.249.05.448.04v.696c-.348.01-.617-.02-.796-.099a.77.77 0 0 1-.408-.438c-.169.249-.368.428-.597.527-.239.099-.557.149-.945.149zm0-.696c.338 0 .597-.05.776-.129a.79.79 0 0 0 .388-.448c.07-.199.109-.497.109-.875V5.16h-1.273c-.348 0-.607.02-.786.08-.179.05-.298.149-.378.308-.07.149-.109.378-.109.676 0 .259.04.467.109.607a.68.68 0 0 0 .388.308c.179.06.438.09.776.09zm6.997-5.022h.875l-1.78 2.794 1.78 2.794h-.875l-1.333-2.108-1.343 2.108h-.865l1.77-2.794-1.77-2.794h.865l1.343 2.108 1.333-2.108zm4.709 0V7.1h1.581v.696h-3.928V7.1h1.581V2.903h-1.134v-.696h1.899zm-.547-.985c-.249 0-.418-.04-.507-.129-.099-.09-.139-.249-.139-.477s.04-.398.139-.477c.09-.09.259-.139.507-.139s.418.05.507.139c.099.08.139.249.139.477s-.04.388-.139.477c-.09.09-.259.129-.507.129zm5.127 6.703c-.467 0-.825-.08-1.094-.239-.259-.159-.497-.438-.716-.835l.597-.497a2.44 2.44 0 0 0 .318.537.87.87 0 0 0 .348.259c.139.05.328.08.547.08.438 0 .766-.03 1.004-.09s.398-.169.487-.308c.099-.149.149-.348.149-.607 0-.239-.04-.418-.119-.547-.08-.119-.219-.219-.408-.288-.199-.06-.477-.119-.865-.169-.696-.09-1.193-.249-1.492-.477-.308-.239-.457-.587-.457-1.044 0-.398.07-.716.209-.955.129-.229.358-.398.666-.507.308-.099.736-.159 1.273-.159.497 0 .875.07 1.144.199.269.139.507.378.736.726l-.557.537a2.19 2.19 0 0 0-.338-.467.9.9 0 0 0-.388-.229 2.32 2.32 0 0 0-.597-.07c-.368 0-.646.03-.845.09s-.338.149-.418.278-.129.318-.129.557a.61.61 0 0 0 .278.537c.179.109.497.199.955.259.547.07.965.169 1.263.298.298.119.517.298.646.517.129.229.199.537.199.915 0 .428-.08.766-.229 1.004-.159.249-.408.418-.746.527-.348.109-.815.169-1.422.169zm13.605-4.475h-5.062v-.706h5.062v.706zm0 2.168h-5.062v-.706h5.062v.706zM190.39 7.1h1.283v.696h-3.331V7.1h1.293V2.247c-.388.298-.875.438-1.472.438v-.706c.467 0 .825-.119 1.074-.358.259-.249.388-.597.388-1.054h.766V7.1z" fill="#717171"/></g><path d="M1231.241 433.572c-.459 0-.828-.054-1.089-.153-.27-.099-.459-.261-.576-.486-.117-.216-.171-.522-.171-.9 0-.423.054-.747.171-.972.108-.234.297-.396.567-.486.261-.099.63-.144 1.098-.144h1.152v-.351c0-.288-.036-.513-.099-.666-.072-.162-.189-.27-.351-.342-.162-.063-.396-.099-.702-.099a1.76 1.76 0 0 0-.549.072.64.64 0 0 0-.324.252c-.081.117-.144.288-.207.513l-.657-.162c.09-.333.198-.603.342-.801a1.16 1.16 0 0 1 .54-.432c.216-.09.504-.135.855-.135.459 0 .819.063 1.089.189s.459.315.576.576.18.612.18 1.035v2.034c0 .216.018.369.054.468.027.099.09.171.18.198.09.036.225.045.405.036v.63c-.315.009-.558-.018-.72-.09-.171-.081-.297-.207-.369-.396-.153.225-.333.387-.54.477-.216.09-.504.135-.855.135zm0-.63c.306 0 .54-.045.702-.117.162-.081.279-.216.351-.405.063-.18.099-.45.099-.792v-.558h-1.152c-.315 0-.549.018-.711.072a.51.51 0 0 0-.342.279c-.063.135-.099.342-.099.612 0 .234.036.423.099.549.072.126.189.225.351.279s.396.081.702.081zm6.332-4.545h.792l-1.611 2.529 1.611 2.529h-.792l-1.206-1.908-1.215 1.908h-.783l1.602-2.529-1.602-2.529h.783l1.215 1.908 1.206-1.908zm4.262 0v4.428h1.431v.63h-3.555v-.63h1.431v-3.798h-1.026v-.63h1.719zm-.495-.891c-.225 0-.378-.036-.459-.117-.09-.081-.126-.225-.126-.432s.036-.36.126-.432c.081-.081.234-.126.459-.126s.378.045.459.126c.09.072.126.225.126.432s-.036.351-.126.432c-.081.081-.234.117-.459.117zm4.64 6.066c-.423 0-.747-.072-.99-.216-.234-.144-.45-.396-.648-.756l.54-.45a2.22 2.22 0 0 0 .288.486.78.78 0 0 0 .315.234c.126.045.297.072.495.072.396 0 .693-.027.909-.081s.36-.153.441-.279c.09-.135.135-.315.135-.549 0-.216-.036-.378-.108-.495-.072-.108-.198-.198-.369-.261a4.98 4.98 0 0 0-.783-.153c-.63-.081-1.08-.225-1.35-.432-.279-.216-.414-.531-.414-.945 0-.36.063-.648.189-.864.117-.207.324-.36.603-.459.279-.09.666-.144 1.152-.144.45 0 .792.063 1.035.18.243.126.459.342.666.657l-.504.486c-.108-.189-.207-.324-.306-.423a.81.81 0 0 0-.351-.207c-.135-.036-.315-.063-.54-.063-.333 0-.585.027-.765.081s-.306.135-.378.252-.117.288-.117.504a.55.55 0 0 0 .252.486c.162.099.45.18.864.234.495.063.873.153 1.143.27.27.108.468.27.585.468.117.207.18.486.18.828 0 .387-.072.693-.207.909-.144.225-.369.378-.675.477-.315.099-.738.153-1.287.153zm12.313-4.05h-4.581v-.639h4.581v.639zm0 1.962h-4.581v-.639h4.581v.639zm7.524 2.088c-.387 0-.729-.144-1.044-.432-.306-.297-.558-.693-.738-1.215-.18-.513-.27-1.098-.27-1.746s.09-1.224.27-1.746c.18-.513.432-.918.738-1.206.315-.288.657-.432 1.044-.432.378 0 .729.144 1.035.432.315.288.558.693.738 1.206.18.522.27 1.098.27 1.746s-.09 1.233-.27 1.746c-.18.522-.423.918-.738 1.215-.306.288-.657.432-1.035.432zm0-.63c.234 0 .459-.117.666-.36.207-.234.378-.567.504-.99s.189-.891.189-1.413c0-.513-.063-.981-.189-1.404s-.297-.756-.504-.99c-.207-.243-.432-.36-.666-.36-.243 0-.468.117-.675.36-.207.234-.369.567-.495.99s-.189.891-.189 1.404c0 .522.063.99.189 1.413s.288.756.495.99c.207.243.432.36.675.36zm0-2.241c-.162 0-.297-.054-.396-.144-.108-.099-.153-.225-.153-.378 0-.144.045-.261.153-.36.099-.09.234-.135.396-.135s.297.045.396.135a.49.49 0 0 1 .153.36c0 .153-.054.279-.153.378-.099.09-.234.144-.396.144z" transform="matrix(0 -1.10494 1.10494 0 -471.146 1549.01)" fill="#717171" class="B"/><g class="B"><use xlink:href="#o"/><path d="M68.601 59.768c.146-.278.305-.53.477-.769.385-.57.782-.994 1.18-1.26.557-.371 1.074-.411 1.565-.119.318.186.57.583.756 1.207.146.451.252 1.021.331 1.724a23.69 23.69 0 0 1 .146 3.063c0 .119-.04.212-.133.305-.093.08-.199.119-.305.119-.119 0-.225-.04-.305-.133a.43.43 0 0 1-.133-.318c.013-.941-.027-1.923-.146-2.93-.066-.663-.172-1.18-.292-1.565-.119-.411-.252-.65-.371-.729-.172-.093-.385-.066-.636.106-.292.199-.61.544-.941 1.034a10.61 10.61 0 0 0-.769 1.366c-.225.491-.345.849-.371 1.074a6.37 6.37 0 0 0-.053.676l-.04.756c0 .013 0 .04-.013.053v.027c0 .04-.013.066-.027.106-.027.04-.053.08-.093.119-.119.119-.252.159-.411.119-.119-.027-.212-.093-.278-.199l-.04-.106-.013-.093c-.013-.013-.013-.027-.013-.053a1.26 1.26 0 0 1 .013-.186l.013-.477.027-.743.013-.875v-.57-.61c-.013-.106-.013-.292-.027-.544l-.027-.61-.053-.517-.093-.57c-.027-.119 0-.225.066-.331.066-.093.159-.159.278-.186.106-.013.225.013.331.066a.42.42 0 0 1 .172.292c.119.597.199 1.366.212 2.281z"/><use xlink:href="#h" x="-395.985" y="-50.157"/><use xlink:href="#c" x="-401.344" y="-35.704"/><use xlink:href="#i" x="-403.222" y="-50.157"/><use xlink:href="#a" x="-383.157" y="-35.704"/><use xlink:href="#g" x="-417.067" y="-35.704"/><use xlink:href="#h" x="-403.189" y="-35.704"/><use xlink:href="#a" x="-397.885" y="-21.252"/><use xlink:href="#n" x="-61.469" y="-0.346"/><use xlink:href="#c" x="-394.703" y="-21.252"/><use xlink:href="#k" x="-407.697" y="-35.704"/><use xlink:href="#f" x="-414.492" y="-21.252"/><use xlink:href="#g" x="-414.481" y="-21.252"/><use xlink:href="#o" x="403.189" y="0.346"/><path d="M471.79 60.115c.146-.278.305-.53.477-.769.385-.57.782-.994 1.18-1.26.557-.371 1.074-.411 1.565-.119.318.186.57.583.756 1.207.146.451.252 1.021.331 1.724a23.69 23.69 0 0 1 .146 3.063c0 .119-.04.212-.133.305-.093.08-.199.119-.305.119-.119 0-.225-.04-.305-.133a.43.43 0 0 1-.133-.318c.013-.941-.027-1.923-.146-2.93-.066-.663-.172-1.18-.292-1.565-.119-.411-.252-.65-.371-.729-.172-.093-.385-.066-.636.106-.292.199-.61.544-.941 1.034a10.61 10.61 0 0 0-.769 1.366c-.225.491-.345.849-.371 1.074a6.37 6.37 0 0 0-.053.676l-.04.756c0 .013 0 .04-.013.053v.027c0 .04-.013.066-.027.106a.73.73 0 0 1-.093.119c-.119.119-.252.159-.411.119-.119-.027-.212-.093-.278-.199l-.04-.106-.013-.093c-.013-.013-.013-.027-.013-.053a1.26 1.26 0 0 1 .013-.186l.013-.477.027-.743.013-.875v-.57-.61c-.013-.106-.013-.292-.027-.544l-.027-.61-.053-.517-.093-.57c-.027-.119 0-.225.066-.331.066-.093.159-.159.278-.186.106-.013.225.013.331.066a.42.42 0 0 1 .172.292c.119.597.199 1.366.212 2.281z"/><use xlink:href="#h" x="7.204" y="-49.81"/><use xlink:href="#c" x="1.845" y="-35.358"/><use xlink:href="#i" x="-0.033" y="-49.811"/><use xlink:href="#a" x="20.032" y="-35.358"/><use xlink:href="#g" x="-13.878" y="-35.358"/><use xlink:href="#h" y="-35.358"/><use xlink:href="#a" x="5.304" y="-20.906"/><use xlink:href="#i" y="-35.358"/><use xlink:href="#j" y="-35.358"/><use xlink:href="#k" y="-35.358"/><use xlink:href="#e" x="9.546" y="-20.906"/><use xlink:href="#l" y="-35.358"/><use xlink:href="#m" y="-35.358"/><use xlink:href="#f" x="13.072" y="-20.906"/><use xlink:href="#g" x="13.072" y="-20.906"/></g><g fill="none" stroke="#d3d3d3"><path d="M24.995 187.009l-4.5 3-4.5-3" class="I J"/><path d="M20.495 18.841v171.168"/><path d="M188.659 14.83l3 4.5-3 4.5" class="I J"/><path d="M20.492 19.33h171.167"/></g><defs ><path id="B" d="M512 256h96v32h-96z"/><path id="C" d="M554.072 278.051v-7.798h.869v.739c.206-.293.434-.5.695-.641.261-.152.576-.217.934-.217.489 0 .912.119 1.282.369.358.25.641.597.825 1.043.185.456.282.945.282 1.488 0 .576-.098 1.097-.304 1.553-.206.467-.51.815-.901 1.064-.402.239-.815.369-1.249.369a1.73 1.73 0 0 1-.858-.206c-.25-.13-.456-.304-.619-.51v2.748h-.956zm.869-4.941c0 .717.141 1.26.434 1.607s.652.51 1.064.51c.424 0 .793-.174 1.097-.532.293-.358.445-.912.445-1.672 0-.717-.141-1.249-.445-1.607-.293-.358-.641-.532-1.053-.532-.402 0-.76.185-1.075.565s-.467.934-.467 1.662z"/><path id="D" d="M572.421 274.076l.988.119c-.163.576-.445 1.021-.869 1.347-.424.315-.956.478-1.607.478-.825 0-1.477-.261-1.966-.76-.478-.51-.717-1.227-.717-2.139 0-.945.239-1.683.728-2.205s1.119-.782 1.901-.782c.749 0 1.368.25 1.846.771.478.51.717 1.227.717 2.161l-.011.25h-4.203c.043.619.217 1.097.532 1.423s.706.489 1.173.489c.348 0 .652-.087.901-.272.239-.185.445-.478.586-.88zm-3.139-1.542h3.15c-.043-.478-.163-.825-.358-1.064a1.47 1.47 0 0 0-1.184-.554c-.445 0-.815.152-1.108.445-.304.293-.467.684-.5 1.173z"/><path id="E" d="M65.794 119.892h30.938v35.358H65.794z"/><path id="F" d="M81.265 143.597c-.72 0-1.376-.272-1.968-.784-.592-.528-1.056-1.248-1.392-2.176-.336-.912-.496-1.936-.496-3.072 0-1.12.16-2.144.496-3.056.336-.928.8-1.648 1.392-2.176s1.248-.784 1.968-.784 1.36.256 1.952.784 1.072 1.248 1.408 2.176c.336.912.512 1.936.512 3.056 0 1.136-.176 2.16-.512 3.072-.336.928-.816 1.648-1.408 2.176-.592.512-1.232.784-1.952.784zm0-1.552c.368 0 .72-.192 1.056-.592s.608-.944.816-1.632.304-1.44.304-2.256-.096-1.568-.304-2.256-.48-1.232-.816-1.616c-.336-.4-.688-.608-1.056-.608s-.72.208-1.072.608c-.336.384-.608.928-.816 1.616a8.36 8.36 0 0 0-.304 2.256 8.36 8.36 0 0 0 .304 2.256c.208.688.48 1.232.816 1.632.352.4.704.592 1.072.592zm0-3.36c-.352 0-.64-.096-.864-.304s-.336-.48-.336-.816c0-.32.112-.576.336-.784a1.29 1.29 0 0 1 .864-.304 1.29 1.29 0 0 1 .864.304c.224.208.336.464.336.784 0 .336-.112.608-.336.816s-.512.304-.864.304z"/><path id="G" d="M362.755 71.137h2.08v1.536h-5.808v-1.536h2.064v-6.864c-.656.384-1.44.576-2.352.576v-1.552c.784 0 1.36-.192 1.744-.544.384-.368.576-.944.576-1.712h1.696v10.096z"/><path id="H" d="M544.11 268.446v6.907h1.607v.76h-4.431v-.76h1.89v-5.897l-1.759 1.075-.413-.673 2.292-1.412h.815z"/><path id="I" d="M551.532 273.496h.988v.749h-.988v1.868h-.901l-.011-1.868h-3.182v-.673l2.248-5.246.782.326-2.042 4.844h2.205l.119-2.172h.782v2.172z"/><path id="J" d="M558.942 269.163l-3.063 7.059-.869-.272 2.987-6.723h-3.595v-.782h4.54v.717z"/><path id="K" d="M563.345 268.327c.815 0 1.444.337 1.868 1.01.424.684.641 1.662.641 2.943s-.217 2.259-.641 2.943c-.424.673-1.053 1.021-1.868 1.021a2.1 2.1 0 0 1-1.879-1.021c-.424-.684-.641-1.662-.641-2.943s.217-2.259.641-2.943a2.09 2.09 0 0 1 1.879-1.01zm0 .749c-1.021 0-1.52 1.064-1.52 3.204 0 .847.065 1.52.195 1.998l2.346-4.713c-.239-.326-.576-.489-1.021-.489zm0 6.408c1.01 0 1.52-1.064 1.52-3.204 0-.869-.065-1.542-.195-2.02l-2.335 4.735c.119.163.261.293.434.369a1.36 1.36 0 0 0 .576.119z"/><path id="L" d="M542.948 268.327c.478 0 .891.087 1.238.272s.608.445.804.76c.185.326.272.695.272 1.097a3.1 3.1 0 0 1-.326 1.379c-.217.445-.576.934-1.053 1.477-.489.532-1.173 1.195-2.053 2.009h3.617l-.119.793h-4.561v-.76l2.237-2.259c.478-.543.815-.999.999-1.379a2.8 2.8 0 0 0 .272-1.216c0-.434-.119-.782-.358-1.032-.25-.239-.576-.369-1.01-.369-.369 0-.673.065-.912.195-.239.119-.489.326-.739.63l-.641-.5c.304-.38.641-.652 1.021-.836.369-.174.815-.261 1.314-.261z"/><path id="M" d="M565.42 268.446l-.13.749h-3.03v2.411c.228-.119.445-.206.652-.25.206-.054.434-.076.673-.076a2.14 2.14 0 0 1 1.097.282 1.89 1.89 0 0 1 .739.825c.174.369.261.793.261 1.292 0 .51-.109.956-.326 1.347a2.21 2.21 0 0 1-.912.901c-.391.206-.847.315-1.358.315-.445 0-.858-.076-1.216-.239s-.695-.391-1.01-.684l.576-.565c.239.25.489.424.76.543a2.34 2.34 0 0 0 .901.174c.5 0 .901-.163 1.184-.467.272-.304.413-.76.413-1.347 0-.576-.119-.999-.369-1.26-.25-.25-.586-.38-1.01-.38a2.93 2.93 0 0 0-.565.054c-.174.043-.38.109-.63.206h-.749v-3.834h4.051z"/><path id="N" d="M549.621 268.327c.467 0 .88.087 1.238.25.358.174.641.413.836.706a1.73 1.73 0 0 1 .282.956c0 .304-.065.576-.195.836-.141.25-.326.456-.554.63-.228.163-.478.272-.749.326a1.98 1.98 0 0 1 .869.261c.261.152.478.358.641.641a1.96 1.96 0 0 1 .239.967c0 .445-.109.847-.337 1.195-.228.358-.543.641-.945.847-.402.195-.858.304-1.379.304-.456 0-.891-.087-1.314-.261-.413-.174-.771-.424-1.043-.771l.63-.51a2.03 2.03 0 0 0 .771.576c.293.13.608.195.934.195.348 0 .652-.065.912-.195.25-.13.445-.304.586-.543.13-.239.206-.51.206-.836 0-.967-.532-1.444-1.596-1.444h-.641l.119-.749h.445c.261 0 .5-.043.717-.141a1.23 1.23 0 0 0 .543-.456c.13-.195.206-.445.206-.739 0-.272-.065-.51-.195-.706s-.304-.337-.521-.445c-.217-.098-.467-.152-.739-.152-.315 0-.608.054-.858.174-.25.109-.5.293-.76.532l-.521-.565c.619-.586 1.347-.88 2.172-.88z"/><path id="O" d="M552.27 270.271a1.47 1.47 0 0 1-.326.945c-.217.282-.554.532-.999.782.51.217.923.489 1.206.847.293.348.434.749.434 1.216 0 .413-.109.793-.326 1.119-.206.337-.521.597-.912.782-.402.185-.858.282-1.39.282-.543 0-.999-.098-1.39-.282-.391-.195-.684-.456-.891-.782a2.03 2.03 0 0 1-.315-1.108c0-.858.51-1.52 1.542-1.998-.424-.195-.728-.434-.934-.706-.195-.282-.293-.63-.293-1.043 0-.445.119-.815.348-1.119s.521-.521.88-.662a2.72 2.72 0 0 1 1.075-.217 2.91 2.91 0 0 1 1.108.206c.348.141.641.358.858.652s.326.652.326 1.086zm-3.671.065c0 .282.065.5.195.673.13.163.293.293.51.402.217.098.543.217.977.348.25-.141.456-.272.608-.402.152-.141.261-.293.348-.456.076-.163.109-.369.109-.597 0-.391-.119-.695-.358-.923-.239-.217-.576-.337-1.01-.337s-.771.119-1.021.348c-.239.217-.358.532-.358.945zm2.997 3.736c0-.326-.076-.597-.239-.793s-.38-.358-.641-.489c-.261-.119-.652-.272-1.173-.445-.358.163-.652.38-.869.662-.217.272-.326.63-.326 1.075s.141.782.413 1.032.662.369 1.184.369c.348 0 .652-.065.901-.185a1.34 1.34 0 0 0 .565-.5 1.37 1.37 0 0 0 .185-.728z"/><path id="P" d="M549.859 268.338c.554 0 1.01.119 1.379.369.38.261.652.619.847 1.086.185.467.272 1.021.272 1.672 0 1.021-.141 1.846-.413 2.454-.282.619-.706 1.108-1.282 1.466-.586.358-1.379.684-2.389.967l-.217-.717c.728-.206 1.336-.445 1.803-.717s.825-.608 1.075-1.021.391-.912.424-1.51c-.489.608-1.086.912-1.792.912-.424 0-.804-.098-1.129-.293-.337-.195-.597-.478-.782-.847s-.282-.804-.282-1.314c0-.532.109-.977.326-1.358s.521-.673.891-.858c.38-.195.804-.293 1.271-.293zm-.119 4.214c.337 0 .63-.076.891-.25s.51-.413.749-.739c0-.608-.065-1.086-.174-1.444s-.282-.619-.5-.782-.5-.25-.847-.25c-.5 0-.88.152-1.129.456-.261.304-.391.749-.391 1.336 0 .576.13.988.369 1.271.239.272.586.402 1.032.402z"/><path id="Q" d="M560.33 271.118c.402 0 .771.087 1.097.272.326.174.597.445.782.815.195.358.293.804.293 1.336 0 .543-.109 1.021-.326 1.434-.206.402-.5.717-.869.945-.369.217-.771.326-1.216.326-.891 0-1.542-.326-1.944-.977s-.597-1.575-.597-2.78c0-.836.109-1.575.337-2.205s.554-1.108.977-1.455c.434-.337.945-.5 1.531-.5.565 0 1.075.141 1.52.445l-.369.63c-.358-.217-.739-.326-1.162-.326a1.43 1.43 0 0 0-.999.38c-.282.25-.5.608-.652 1.064a5.58 5.58 0 0 0-.25 1.629c.239-.348.51-.619.815-.782s.652-.25 1.032-.25zm-.25 4.366c.478 0 .836-.174 1.086-.51s.38-.815.38-1.412-.119-1.032-.358-1.292c-.239-.25-.565-.38-.999-.38-.358 0-.673.098-.967.282a2.49 2.49 0 0 0-.728.804c.011.576.076 1.053.185 1.423.119.369.293.641.521.815.228.185.521.272.88.272z"/><path id="R" d="M574.593 274.095l1.488.25c-.195.543-.5.956-.901 1.238-.413.293-.934.434-1.553.434-.977 0-1.705-.326-2.172-.967-.369-.51-.554-1.151-.554-1.933 0-.934.239-1.672.728-2.194.489-.532 1.108-.793 1.857-.793.836 0 1.499.272 1.977.825.489.554.717 1.401.695 2.541h-3.736c.011.445.13.793.369 1.032.228.25.51.369.858.369.228 0 .424-.065.586-.185.163-.13.282-.337.358-.619zm.087-1.51c-.011-.424-.119-.76-.337-.977-.206-.228-.467-.337-.771-.337-.326 0-.597.119-.804.348-.217.239-.326.565-.315.967h2.226z"/><path id="S" d="M537.548 273.392l.967-.087c.054.391.152.706.326.956.163.25.424.456.782.608.348.152.749.228 1.195.228.391 0 .739-.054 1.032-.174.304-.119.532-.272.673-.478.152-.206.217-.424.217-.662 0-.25-.065-.456-.206-.641s-.38-.337-.706-.456c-.206-.087-.662-.217-1.379-.38-.717-.174-1.216-.337-1.499-.489-.369-.195-.652-.434-.836-.728-.174-.282-.272-.608-.272-.967 0-.391.119-.76.337-1.097.228-.337.543-.597.977-.782a3.73 3.73 0 0 1 1.423-.261c.576 0 1.086.098 1.531.282.434.185.771.456 1.01.815s.369.771.38 1.227l-.988.076c-.043-.5-.228-.869-.532-1.119s-.76-.38-1.358-.38c-.619 0-1.075.119-1.358.348s-.424.5-.424.825a.87.87 0 0 0 .293.684c.206.185.717.369 1.553.554.836.195 1.412.358 1.727.5.445.206.782.478.999.793.217.326.326.684.326 1.108 0 .413-.119.804-.358 1.173-.239.358-.576.641-1.021.847s-.945.304-1.499.304c-.706 0-1.292-.098-1.77-.304s-.847-.51-1.119-.923-.413-.88-.424-1.401z"/><path id="T" d="M548.691 275.195a3.58 3.58 0 0 1-1.021.641c-.326.119-.673.185-1.053.185-.619 0-1.086-.152-1.423-.456a1.48 1.48 0 0 1-.5-1.162c0-.272.065-.521.185-.749a1.64 1.64 0 0 1 .5-.554 2.46 2.46 0 0 1 .684-.315 7.44 7.44 0 0 1 .847-.141c.771-.087 1.336-.195 1.705-.326v-.25c0-.391-.087-.662-.261-.825-.25-.217-.608-.326-1.097-.326-.445 0-.771.087-.988.239-.217.163-.369.434-.478.836l-.934-.13c.087-.391.228-.717.424-.967.195-.239.478-.434.836-.565.369-.13.804-.195 1.282-.195s.869.054 1.173.163c.304.119.521.261.662.434.141.163.239.38.293.641.033.163.054.456.054.891v1.271l.054 1.683c.043.228.13.456.25.673h-.999c-.098-.195-.163-.434-.195-.695zm-.076-2.129c-.348.141-.869.261-1.564.358-.391.054-.662.119-.825.195a.82.82 0 0 0-.38.304c-.087.141-.13.293-.13.456 0 .25.098.467.282.63.195.174.478.261.847.261a2.11 2.11 0 0 0 .988-.239c.282-.163.489-.38.63-.662.098-.217.152-.532.152-.956v-.348z"/><path id="U" d="M559.727 274.207l.945-.141c.054.369.195.662.434.869.25.195.586.293 1.021.293s.76-.087.977-.261c.206-.185.315-.391.315-.63a.58.58 0 0 0-.282-.51c-.13-.087-.456-.195-.977-.326-.695-.174-1.184-.326-1.455-.456s-.467-.304-.608-.532a1.41 1.41 0 0 1-.217-.76c0-.25.065-.478.174-.695.119-.217.272-.391.467-.532.152-.109.358-.206.608-.282.261-.076.532-.109.825-.109.445 0 .836.065 1.173.185.326.13.576.304.739.521.152.217.261.51.326.869l-.934.13c-.043-.293-.163-.521-.369-.684s-.489-.239-.858-.239c-.445 0-.749.076-.945.217-.185.141-.282.315-.282.51 0 .119.043.239.119.337s.206.185.369.25l.836.25 1.423.434c.261.119.467.282.619.5.152.228.228.5.228.825a1.56 1.56 0 0 1-.272.891c-.185.282-.456.5-.804.652-.348.163-.749.239-1.195.239-.728 0-1.282-.152-1.672-.456-.38-.304-.619-.76-.728-1.358z"/><path id="V" d="M569.23 275.89v-.825c-.445.63-1.032.956-1.792.956a2.2 2.2 0 0 1-.923-.195c-.293-.13-.51-.282-.652-.478-.13-.195-.228-.434-.293-.706-.033-.185-.054-.489-.054-.891v-3.497h.956v3.128c0 .5.022.836.054 1.01.065.25.185.445.38.586s.434.217.728.217c.282 0 .554-.076.804-.217.25-.152.424-.348.532-.597.109-.261.152-.619.152-1.108v-3.019h.956v5.637h-.847z"/><path id="W" d="M571.577 275.89v-5.637h.858v.804c.413-.619 1.01-.923 1.792-.923.337 0 .652.054.934.185.282.119.5.282.641.478s.239.434.293.706c.043.174.054.478.054.923v3.464h-.956v-3.421c0-.391-.033-.684-.109-.88-.076-.185-.206-.348-.391-.456-.195-.119-.413-.174-.662-.174-.413 0-.76.13-1.053.391-.304.25-.445.739-.445 1.466v3.073h-.956z"/><path id="X" d="M577.444 276.357l.923.141c.043.282.152.489.326.619.239.185.565.272.967.272.445 0 .782-.087 1.032-.272.239-.174.402-.424.489-.739.043-.195.065-.608.065-1.227-.424.489-.934.739-1.564.739-.771 0-1.368-.282-1.792-.836-.424-.565-.641-1.227-.641-2.009 0-.543.098-1.032.293-1.488s.478-.804.847-1.053.804-.369 1.303-.369c.662 0 1.206.261 1.64.804v-.684h.88v4.876c0 .869-.087 1.499-.261 1.857a1.95 1.95 0 0 1-.858.869c-.38.217-.858.315-1.423.315-.673 0-1.216-.141-1.629-.445s-.608-.76-.597-1.368zm.793-3.388c0 .739.141 1.282.434 1.618.293.348.662.51 1.108.51.434 0 .804-.163 1.097-.5.304-.337.445-.869.445-1.596 0-.684-.152-1.206-.456-1.553s-.673-.532-1.108-.532c-.424 0-.782.174-1.075.521-.304.348-.445.858-.445 1.531z"/><path id="Y" d="M551.296 273.077c0-1.043.293-1.814.869-2.324.489-.413 1.075-.619 1.77-.619.782 0 1.412.25 1.901.76s.739 1.206.739 2.096c0 .728-.109 1.303-.326 1.716s-.532.739-.945.967c-.424.228-.869.348-1.368.348-.782 0-1.423-.261-1.911-.76-.478-.51-.728-1.238-.728-2.183zm.988 0c0 .717.152 1.26.467 1.618a1.5 1.5 0 0 0 1.184.532 1.5 1.5 0 0 0 1.184-.532c.315-.369.478-.912.478-1.651 0-.695-.163-1.227-.478-1.586a1.51 1.51 0 0 0-1.184-.543 1.51 1.51 0 0 0-1.184.543c-.315.358-.467.891-.467 1.618z"/><path id="Z" d="M553.822 273.827l.945.119c-.109.652-.369 1.151-.793 1.52s-.934.554-1.553.554c-.771 0-1.39-.25-1.857-.76-.467-.5-.706-1.227-.706-2.161 0-.608.098-1.14.304-1.596.195-.456.51-.804.923-1.032s.858-.337 1.336-.337c.619 0 1.119.152 1.51.456.38.315.63.749.739 1.325l-.923.141c-.087-.38-.25-.662-.467-.858a1.26 1.26 0 0 0-.815-.282c-.478 0-.869.174-1.173.521-.304.337-.456.891-.456 1.629 0 .76.152 1.314.434 1.651.293.348.673.51 1.14.51.369 0 .684-.109.934-.337s.413-.586.478-1.064z"/><path id="a" d="M472.919 95.075c.053-.013.133-.013.239-.027-.04-.199-.119-.398-.252-.623-.146-.239-.292-.424-.464-.57s-.318-.212-.438-.212c-.371 0-.703.239-.994.716a3.96 3.96 0 0 0-.345.756h1.233l1.021-.04zm-2.44.955l-.027.225c-.053.756.053 1.366.331 1.843.265.491.663.729 1.18.743.278.013.504-.027.676-.119s.411-.265.689-.53c.066-.066.133-.133.199-.225l.186-.239.186-.318.172-.278c.066-.106.172-.172.292-.199.119-.013.225 0 .331.066.093.066.159.172.186.292.013.119 0 .239-.066.331-.013.013-.08.093-.172.239l-.212.345-.239.331a1.27 1.27 0 0 1-.278.305c-.331.318-.65.544-.928.689s-.636.212-1.047.199c-.464-.013-.849-.133-1.18-.358-.345-.225-.583-.517-.756-.875-.172-.345-.292-.729-.358-1.114s-.093-.796-.053-1.207c.066-.875.292-1.631.676-2.267.464-.769 1.047-1.154 1.737-1.14.345 0 .663.119.941.371s.517.53.716.862c.172.305.292.597.358.875.04.159.053.305.04.438a.72.72 0 0 1-.265.477c-.093.066-.212.106-.385.146l-.424.053-1.074.04h-1.432z"/><path id="b" d="M475.049 92.052l1.246.027.146-1.631a.46.46 0 0 1 .159-.305c.093-.066.212-.106.331-.093a.43.43 0 0 1 .292.159c.066.093.106.199.093.318l-.146 1.525 1.034-.066c.119-.013.225.027.318.106s.133.172.146.292-.027.225-.106.318-.186.133-.305.146l-1.154.066c-.172 2.347-.146 4.084.066 5.237.066.292.146.504.252.623.106.133.199.199.292.212.106.013.239-.04.385-.159.146-.106.305-.292.451-.57.172-.106.331-.583.504-1.432a.47.47 0 0 1 .212-.265.41.41 0 0 1 .331-.027c.119.04.199.119.265.225a.41.41 0 0 1 .013.331c-.146.676-.331 1.193-.557 1.565-.199.385-.451.689-.743.915-.305.212-.61.305-.941.278-.345-.04-.623-.186-.849-.477-.239-.278-.385-.636-.464-1.074-.239-1.193-.265-2.983-.093-5.357a35.19 35.19 0 0 1-1.233-.027c-.119-.013-.212-.053-.305-.146-.08-.08-.119-.186-.106-.305s.053-.212.146-.305c.093-.08.199-.119.318-.106z"/><path id="c" d="M481.195 93.484c.066.796.08 1.79.053 2.983l-.066 2.917c0 .119-.04.225-.119.318-.093.08-.199.119-.318.119a.42.42 0 0 1-.305-.119.43.43 0 0 1-.133-.318l.066-2.944-.053-2.877c-.013-.119.027-.239.106-.331s.186-.133.305-.146.225.027.318.106c.08.08.133.172.146.292zm-.186-2.533c.093.08.133.186.133.305a.42.42 0 0 1-.119.305.43.43 0 0 1-.318.133c-.119 0-.225-.04-.305-.133-.093-.08-.133-.186-.133-.305a.43.43 0 0 1 .133-.318.42.42 0 0 1 .305-.119c.119 0 .225.04.305.133z"/><path id="d" d="M486.611 93.205l-.04 1.936-.04 2.307.013 1.83.08 2.188c.013.119-.027.225-.106.318s-.186.133-.305.146-.225-.027-.318-.106-.133-.186-.146-.305l-.093-2.891c-.133.159-.278.292-.424.411-.358.278-.743.438-1.127.477a1.59 1.59 0 0 1-1.047-.252c-.292-.186-.53-.451-.716-.782a2.69 2.69 0 0 1-.345-1.087c-.066-.61.04-1.286.318-2.015.265-.729.61-1.313 1.047-1.75.557-.57 1.114-.769 1.684-.61.252.066.477.212.689.424v-.265c0-.119.04-.212.133-.305.093-.08.199-.119.318-.119s.212.04.305.133c.08.093.119.199.119.318zm-.941 1.896c-.252-.729-.544-1.14-.862-1.233-.225-.066-.504.053-.822.371-.345.358-.636.849-.849 1.445-.225.61-.318 1.14-.265 1.604.027.292.106.544.225.756.119.225.252.385.424.477.358.225.743.159 1.18-.172.345-.278.663-.782.941-1.538.013-.013.013-.027.027-.04l.027-1.604c-.013-.027-.013-.053-.027-.066z"/><path id="e" d="M488.152 93.338c-.013.093-.027.305-.053.636l-.08.835-.053.941.013.981c.04.689.146 1.22.331 1.578.186.345.438.517.756.53.186 0 .371-.106.557-.331.199-.225.385-.57.557-1.034.239-.597.438-1.379.583-2.334l.159-1.074.053-.411c.013-.066.013-.106.013-.133 0-.013 0-.04.013-.053v-.027l.027-.08c.013-.04.04-.066.066-.093a.43.43 0 0 1 .371-.146c.146.013.265.08.345.199.013.04.04.08.053.119.013.027.013.053.013.08v.04c0 2.135.159 3.978.464 5.556.027.119.013.225-.053.318-.066.106-.172.172-.292.199-.119.013-.239-.013-.331-.066-.106-.08-.172-.172-.186-.292-.133-.623-.239-1.26-.305-1.909-.04.146-.093.278-.146.411-.212.544-.451.981-.703 1.286-.371.438-.796.663-1.286.65-.676-.013-1.18-.358-1.525-1.021-.252-.464-.398-1.101-.438-1.909-.027-.265-.027-.61-.013-1.047l.053-1.008.08-.862.053-.61a.43.43 0 0 1 .159-.292c.093-.08.212-.119.331-.106s.212.053.305.146c.08.093.119.212.106.331z"/><path id="f" d="M507.331 97.939c-.252-.597-.438-.994-.57-1.167-.292-.358-.663-.53-1.127-.517s-.822.225-1.087.636c-.358.544-.398 1.008-.093 1.392.133.172.318.292.583.371.239.093.53.106.849.053.385-.08.875-.331 1.445-.769zm-2.426-4.415c.756-.703 1.445-.941 2.055-.703.491.186.862.676 1.127 1.459l.199.769c.066.278.119.57.159.875l.093.769.053.743.04.504c0 .013.027.265.093.729l.04.411c.013.159.027.278.013.345l-.04.119c-.04.119-.119.199-.225.239-.172.093-.345.066-.491-.066-.04-.04-.066-.08-.093-.133a1.42 1.42 0 0 1-.08-.225l-.053-.186c-.013-.066-.027-.106-.04-.119l-.093-.265c-.57.424-1.114.676-1.618.769-.477.093-.915.066-1.313-.066-.411-.133-.729-.358-.968-.676-.252-.318-.385-.689-.371-1.127 0-.438.133-.862.411-1.273.278-.424.65-.729 1.101-.902a2.23 2.23 0 0 1 1.379-.066c.451.133.849.398 1.167.796.053.066.106.159.172.252-.093-.809-.212-1.445-.371-1.923-.172-.53-.385-.849-.61-.941-.265-.106-.65.066-1.154.53-.093.093-.199.133-.305.119-.119-.013-.225-.053-.305-.146-.093-.093-.133-.199-.119-.318s.053-.212.146-.292z"/><path id="g" d="M512.524 94.359c-.04-.04-.106-.093-.199-.172l-.172-.159c-.027-.027-.066-.066-.133-.106s-.119-.08-.159-.093-.093-.04-.159-.053c-.331-.066-.583-.013-.782.186-.199.186-.239.424-.133.716.053.146.159.305.318.464.159.172.411.398.756.689l.159.146.597.53c.146.146.305.358.477.61.172.265.265.517.305.769a1.69 1.69 0 0 1-.186 1.074c-.186.305-.438.544-.769.689-.292.146-.61.212-.968.199a2.14 2.14 0 0 1-.994-.265c-.331-.186-.597-.411-.796-.676-.199-.252-.371-.57-.544-.955-.053-.119-.053-.225-.013-.345.04-.106.119-.186.239-.239a.41.41 0 0 1 .331-.013.44.44 0 0 1 .239.225c.146.318.278.57.424.756.146.199.318.358.544.477.172.093.371.146.583.159s.411-.027.583-.119c.358-.172.517-.451.451-.835-.027-.199-.133-.411-.305-.623s-.438-.464-.769-.756c-.027-.027-.106-.093-.225-.199l-.265-.212-.239-.225c-.106-.093-.186-.186-.239-.252l-.212-.239-.186-.278a1.17 1.17 0 0 1-.119-.265c-.106-.318-.133-.623-.066-.902s.199-.53.398-.729a1.66 1.66 0 0 1 .729-.411 1.89 1.89 0 0 1 .862 0c.119.027.225.066.331.106.093.04.199.093.292.159l.225.172.212.199.159.159c.093.08.133.172.146.292s-.027.225-.106.318c-.093.093-.186.133-.305.146s-.225-.027-.318-.119z"/><path id="h" d="M474.152 105.271l.013 1.419-.013 1.432-.013 1.432.172 4.216c.013.119-.027.225-.093.318a.43.43 0 0 1-.292.159c-.119.013-.225-.027-.318-.093-.093-.08-.159-.186-.172-.305l-.066-.716-.358.371c-.57.53-1.246.663-2.029.398-.729-.239-1.167-.862-1.313-1.87-.119-.809-.027-1.644.265-2.533.318-.941.769-1.565 1.352-1.843.358-.172.729-.199 1.114-.053.305.119.597.331.875.663v-2.97a.43.43 0 0 1 .133-.318c.08-.093.186-.133.305-.133s.212.04.305.119c.093.093.133.186.133.305zm-.888 4.681l-.53-.941c-.225-.305-.438-.504-.65-.583-.146-.053-.278-.053-.411.013-.358.172-.663.623-.902 1.339-.252.756-.331 1.472-.239 2.135.093.65.331 1.034.716 1.167.464.146.849.08 1.18-.212.318-.292.61-.716.862-1.273l-.027-1.631v-.013z"/><path id="i" d="M487.084 109.687c-.027-.318-.08-.597-.146-.822-.08-.225-.159-.398-.252-.504-.093-.093-.186-.172-.265-.212s-.159-.066-.225-.053c-.199.013-.424.146-.676.398-.252.265-.438.65-.583 1.167-.159.544-.225 1.047-.172 1.512.04.464.133.875.292 1.207s.358.597.597.769c.358.252.743.278 1.154.106.544-.225 1.061-.782 1.565-1.644a.47.47 0 0 1 .265-.212c.119-.027.225-.013.331.04a.47.47 0 0 1 .212.265c.027.119.013.225-.04.331-.597 1.034-1.26 1.71-1.989 2.029-.716.305-1.379.239-2.002-.212-.557-.411-.941-1.008-1.14-1.817s-.172-1.684.08-2.612c.186-.636.464-1.154.835-1.565s.782-.623 1.233-.636c.504-.027.915.172 1.233.61.305.438.504 1.034.57 1.777.013.119-.027.225-.093.318a.46.46 0 0 1-.305.159c-.119.013-.225-.027-.318-.106-.093-.066-.146-.172-.159-.292z"/><path id="j" d="M492.428 108.281l-.199-.053c-.053-.013-.093-.027-.119-.027-.345.013-.663.225-.955.623-.305.411-.517.915-.636 1.538-.106.623-.08 1.193.066 1.697.146.517.411.862.782 1.061.464.225.888.186 1.273-.133.411-.331.703-.835.875-1.512.159-.65.146-1.273-.027-1.87a2.22 2.22 0 0 0-1.061-1.326zm.318-.822c.066.013.119.053.159.093a3.03 3.03 0 0 1 .928.809c.239.345.411.689.504 1.047.093.371.159.756.172 1.154a3.51 3.51 0 0 1-.146 1.127c-.212.875-.61 1.538-1.18 1.989-.676.544-1.419.623-2.214.212-.305-.146-.57-.371-.782-.663-.225-.278-.371-.583-.451-.928a5.25 5.25 0 0 1-.146-1.047 3.4 3.4 0 0 1 .08-1.047c.133-.756.385-1.392.769-1.909.464-.61.994-.928 1.618-.968h.013c.119-.053.225-.053.345-.013s.225.093.331.146z"/><path id="k" d="M495.919 104.979c.04.65.053 2.639.053 5.993l.027 1.419.013 1.459c0 .119-.04.225-.133.305s-.199.119-.318.119-.225-.04-.305-.133-.119-.199-.119-.318c.013-.305 0-.769-.013-1.405l-.027-1.445-.053-5.94c-.013-.119.027-.225.106-.318s.186-.133.305-.146.225.027.318.106.133.186.146.305z"/><path id="l" d="M503.099 107.87l.08.862.093.915c.013.093.013.186.013.292l.318-.689c.278-.544.57-.915.875-1.127.225-.159.464-.225.703-.212.252.027.491.146.703.371.159.172.292.451.411.849.066.225.119.491.186.796.119-.305.252-.583.398-.835.252-.477.504-.849.756-1.114.385-.385.769-.53 1.167-.464.252.04.477.199.65.464.133.186.239.438.331.743.146.491.239 1.127.292 1.923l.066 1.366.013 1.18v.743c0 .119-.04.225-.119.318-.093.093-.186.133-.305.133s-.225-.04-.318-.119c-.093-.093-.133-.186-.133-.305-.013-.212-.013-.464 0-.743l-.013-1.154-.053-1.352c-.066-.756-.146-1.339-.265-1.75-.066-.225-.146-.385-.212-.491-.013-.04-.04-.053-.053-.066l-.04-.04c-.093-.013-.212.066-.385.239-.199.199-.398.491-.61.902-.186.331-.345.689-.477 1.061a6.01 6.01 0 0 0-.265.822c-.04.252-.066.756-.066 1.485 0 .027 0 .08.013.172l.027.252a.87.87 0 0 1 0 .265c-.013.053-.027.106-.053.159-.093.199-.252.278-.464.239-.119-.013-.212-.08-.292-.172-.013-.027-.04-.053-.066-.093l-.04-.133v-.093c-.013-.04-.013-.093-.013-.159-.013-.093-.013-.239-.027-.424v-.278l-.027-.371-.225-1.856-.212-.994c-.08-.265-.146-.424-.212-.491s-.106-.093-.146-.106c-.027 0-.066.013-.119.053-.186.119-.385.398-.597.822-.186.358-.358.743-.504 1.18l-.292.955c-.066.331-.106.729-.146 1.207-.013.04 0 .172.013.385a1.5 1.5 0 0 1 .013.186v.066a.47.47 0 0 1-.027.133.44.44 0 0 1-.305.265c-.186.053-.331 0-.451-.159l-.08-.133v-.053c-.013-.013-.013-.027-.013-.04-.093-.504-.146-1.246-.159-2.228l-.04-1.724-.08-.902-.093-.849c-.013-.119.027-.239.106-.331s.186-.133.305-.146.225.027.318.106.133.172.146.292z"/><path id="m" d="M511.579 109.925c.146-.278.305-.53.477-.769.385-.57.782-.994 1.18-1.26.557-.371 1.074-.411 1.565-.119.318.186.57.583.756 1.207.146.451.252 1.021.331 1.724a23.69 23.69 0 0 1 .146 3.063c0 .119-.04.212-.133.305-.093.08-.199.119-.305.119-.119 0-.225-.04-.305-.133a.43.43 0 0 1-.133-.318c.013-.941-.027-1.923-.146-2.93-.066-.663-.172-1.18-.292-1.565-.119-.411-.252-.65-.371-.729-.172-.093-.385-.066-.636.106-.292.199-.61.544-.941 1.034a10.61 10.61 0 0 0-.769 1.366c-.225.491-.345.849-.371 1.074a6.37 6.37 0 0 0-.053.676l-.04.756c0 .013 0 .04-.013.053v.027c0 .04-.013.066-.027.106-.027.04-.053.08-.093.119-.119.119-.252.159-.411.119-.119-.027-.212-.093-.278-.199l-.04-.106-.013-.093c-.013-.013-.013-.027-.013-.053s0-.093.013-.186l.013-.477.027-.743.013-.875v-.57-.61c-.013-.106-.013-.292-.027-.544l-.027-.61-.053-.517-.093-.57c-.027-.119 0-.225.066-.331.066-.093.159-.159.278-.186.106-.013.225.013.331.066a.42.42 0 0 1 .172.292c.119.597.199 1.366.212 2.281z"/><path id="n" d="M146.213 71.504a3.52 3.52 0 0 0-.517-.994c-.212-.278-.411-.451-.61-.53-.146-.053-.265-.04-.371.04-.186.146-.345.451-.477.915-.146.517-.225 1.286-.239 2.294l1.114-.093c.119-.013.239.027.331.093a.43.43 0 0 1 .159.292c.013.119-.027.225-.093.318-.08.093-.172.159-.292.172l-1.207.093.027.464.119 2.042.093 1.883c0 .119-.04.225-.119.318s-.186.133-.305.133-.225-.04-.318-.119-.133-.186-.133-.305l-.093-1.883-.119-2.029-.027-.491a11.98 11.98 0 0 1-.689-.027.41.41 0 0 1-.305-.159c-.08-.093-.119-.199-.106-.318a.43.43 0 0 1 .159-.292c.093-.08.186-.119.305-.106l.623.027c.013-1.101.093-1.949.265-2.546.186-.65.451-1.114.796-1.366a1.21 1.21 0 0 1 1.233-.159c.345.133.663.385.941.769.292.385.517.809.676 1.273a.41.41 0 0 1-.013.331c-.053.119-.133.186-.252.225a.41.41 0 0 1-.331-.013c-.119-.053-.186-.133-.225-.252z"/><path id="o" d="M66.999 57.78c.066.796.08 1.79.053 2.983l-.066 2.917c0 .119-.04.225-.119.318-.093.08-.199.119-.318.119a.42.42 0 0 1-.305-.119.43.43 0 0 1-.133-.318l.066-2.944-.053-2.877c-.013-.119.027-.239.106-.331s.186-.133.305-.146c.106-.013.225.027.318.106s.133.172.146.292zm-1.114-1.538l.212-.292.119-.172a2.98 2.98 0 0 0 .172-.212c.013-.013.053-.066.133-.159l.239-.265a.46.46 0 0 1 .305-.159c.119-.013.212.027.318.106.08.08.133.172.146.292s-.027.225-.106.318l-.239.278-.186.239c-.04.053-.066.08-.08.093s-.04.066-.106.159l-.212.292c-.066.093-.159.159-.278.172a.48.48 0 0 1-.331-.08c-.106-.066-.172-.172-.186-.292s.013-.225.08-.318z"/></defs></svg>