<svg xmlns="http://www.w3.org/2000/svg" xmlns:xlink="http://www.w3.org/1999/xlink" width="361" height="361" fill-rule="evenodd" stroke-linecap="round" stroke-linejoin="round" stroke-miterlimit="1.5" xmlns:v="https://vecta.io/nano"><style><![CDATA[.B{fill-rule:nonzero}.C{fill:#f6c800}.D{fill:#ff4d20}.E{fill:#00b0f7}.F{fill:#678afc}]]></style><path d="M.497.499h51.428v51.428H.497z" class="C"/><g class="B"><path d="M12.99 20.528v-3.266h12.086v2.571c-1.003.977-2.006 2.366-3.034 4.217a24.6 24.6 0 0 0-2.366 5.837c-.54 2.057-.797 3.909-.797 5.529h-3.394c.051-2.546.566-5.143 1.569-7.791s2.314-5.014 3.96-7.097H12.99z"/><use xlink:href="#B"/></g><path d="M51.926.499h51.428v51.428H51.926z" class="D"/><g class="B"><use xlink:href="#C"/><use xlink:href="#D"/></g><use xlink:href="#E" class="E"/><g class="B"><use xlink:href="#F"/><use xlink:href="#G"/></g><use xlink:href="#E" x="51.428" fill="#f205f9"/><g class="B"><use xlink:href="#H"/><use xlink:href="#G" x="51.429"/></g><g transform="matrix(2.57143 0 0 1.28571 -1285.214 -256.6429)"><path d="M600 200h40v40h-40z" fill="#f205f9"/><g class="B"><use xlink:href="#I"/><use xlink:href="#J"/><path d="M626.078 223.358l1.32-.32c.05.68.16 1.2.35 1.56.18.34.41.52.67.52.28 0 .52-.2.72-.64.19-.42.29-1 .29-1.74 0-.68-.1-1.24-.28-1.64-.19-.4-.41-.6-.68-.6-.18 0-.39.06-.63.2l.15-2.24c.37.02.65-.14.85-.48.19-.34.29-.8.29-1.36 0-.48-.07-.86-.21-1.14-.15-.3-.34-.44-.57-.44-.24 0-.44.16-.6.48-.17.34-.27.8-.31 1.44l-1.26-.44c.09-.86.22-1.56.4-2.06.17-.52.42-.94.74-1.24.32-.28.67-.44 1.07-.44.67 0 1.21.44 1.62 1.3.33.7.5 1.5.5 2.38 0 1.26-.34 2.26-1.03 3 .41.18.74.58.98 1.18.25.62.37 1.36.37 2.22 0 1.26-.23 2.34-.69 3.22s-1.03 1.32-1.71 1.32c-.65 0-1.19-.36-1.61-1.12-.43-.74-.68-1.72-.74-2.92z"/></g></g><use xlink:href="#E" x="51.428" y="51.429" class="E"/><g class="B"><use xlink:href="#K"/><use xlink:href="#C" x="117.158" y="51.428"/></g><g transform="matrix(2.57143 0 0 1.28571 -1285.214 -205.21429)"><path d="M600 200h40v40h-40z" class="E"/><g class="B"><use xlink:href="#I"/><use xlink:href="#J"/><path d="M630.758 224.618v2.54h-4.81c.05-.96.21-1.88.47-2.74s.77-2 1.54-3.44l1.14-2.34c.19-.56.28-1.12.28-1.68 0-.6-.08-1.08-.24-1.4-.17-.34-.4-.5-.69-.5-.28 0-.51.18-.68.52s-.27.92-.29 1.72l-1.37-.28c.08-1.5.34-2.6.77-3.24.43-.66.96-1 1.61-1 .7 0 1.26.38 1.66 1.14.41.76.61 1.72.61 2.84a10.13 10.13 0 0 1-.17 1.86c-.12.58-.3 1.18-.55 1.82-.17.42-.47 1.04-.9 1.82l-.83 1.58c-.11.26-.2.52-.28.78h2.73z"/></g></g><path d="M.497 51.928h51.428v51.428H.497z" fill="#0e0"/><g class="B"><use xlink:href="#F" x="-102.858" y="51.428"/><use xlink:href="#D" x="-51.429" y="51.429"/></g><path d="M.497 103.356h51.428v51.428H.497z" class="F"/><g class="B"><use xlink:href="#B" x="-14.301" y="102.857"/><use xlink:href="#C" x="-37.129" y="102.857"/></g><path d="M.497 154.785h51.428v51.428H.497z" fill="#db9bfe"/><g class="B"><path d="M22.042 189.702h-3.549v-13.294c-1.286 1.209-2.803 2.083-4.551 2.674v-3.214c.926-.283 1.929-.874 3.009-1.697 1.08-.849 1.826-1.826 2.211-2.957h2.88v18.489z"/><use xlink:href="#B" y="154.286"/></g><g transform="matrix(1.28571 0 0 2.57143 -770.929 -256.6429)"><path d="M600 200h40v40h-40z" fill="#db9bfe"/><g transform="matrix(0 .5 -1 0 840 -100)" class="B"><use xlink:href="#L"/><use xlink:href="#M"/><path d="M649.186 220.598h5.4v2.74h-5.4zm6.301 2.76l2.64-.32c.1.68.32 1.2.7 1.56.36.34.82.52 1.34.52.56 0 1.04-.2 1.44-.64.38-.42.58-1 .58-1.74 0-.68-.2-1.24-.56-1.64a1.79 1.79 0 0 0-1.36-.6c-.36 0-.78.06-1.26.2l.3-2.24c.74.02 1.3-.14 1.7-.48.38-.34.58-.8.58-1.36 0-.48-.14-.86-.42-1.14-.3-.3-.68-.44-1.14-.44-.48 0-.88.16-1.2.48-.34.34-.54.8-.62 1.44l-2.52-.44c.18-.86.44-1.56.8-2.06.34-.52.84-.94 1.48-1.24.64-.28 1.34-.44 2.14-.44 1.34 0 2.42.44 3.24 1.3.66.7 1 1.5 1 2.38 0 1.26-.68 2.26-2.06 3 .82.18 1.48.58 1.96 1.18.5.62.74 1.36.74 2.22 0 1.26-.46 2.34-1.38 3.22s-2.06 1.32-3.42 1.32c-1.3 0-2.38-.36-3.22-1.12-.86-.74-1.36-1.72-1.48-2.92z"/></g></g><g transform="matrix(1.28571 0 0 2.57143 -719.5 -256.6429)"><path d="M600 200h40v40h-40z" class="F"/><g transform="matrix(0 .5 -1 0 840 -100)" class="B"><use xlink:href="#L"/><use xlink:href="#M"/><path d="M649.186 220.598h5.4v2.74h-5.4zm15.661 4.02v2.54h-9.62c.1-.96.42-1.88.94-2.74s1.54-2 3.08-3.44c1.24-1.14 2-1.92 2.28-2.34.38-.56.56-1.12.56-1.68 0-.6-.16-1.08-.48-1.4-.34-.34-.8-.5-1.38-.5-.56 0-1.02.18-1.36.52s-.54.92-.58 1.72l-2.74-.28c.16-1.5.68-2.6 1.54-3.24.86-.66 1.92-1 3.22-1 1.4 0 2.52.38 3.32 1.14.82.76 1.22 1.72 1.22 2.84 0 .66-.12 1.26-.34 1.86-.24.58-.6 1.18-1.1 1.82-.34.42-.94 1.04-1.8 1.82l-1.66 1.58a6.31 6.31 0 0 0-.56.78h5.46z"/></g></g><g transform="matrix(1.28571 0 0 2.57143 -668.0714 -256.6429)"><path d="M600 200h40v40h-40z" fill="#0e0"/><g transform="matrix(0 .5 -1 0 840 -100)" class="B"><use xlink:href="#L"/><use xlink:href="#M"/><path d="M649.186 220.598h5.4v2.74h-5.4zm13.421 6.56h-2.76v-10.34c-1 .94-2.18 1.62-3.54 2.08v-2.5c.72-.22 1.5-.68 2.34-1.32.84-.66 1.42-1.42 1.72-2.3h2.24v14.38z"/></g></g><path d="M51.926 154.785h51.428v51.428H51.926z" class="F"/><g class="B"><use xlink:href="#C" y="154.286"/><path d="M78.72 174.814v-3.266h12.086v2.571c-1.003.977-2.006 2.366-3.034 4.217a24.6 24.6 0 0 0-2.366 5.837c-.54 2.057-.797 3.909-.797 5.529h-3.394c.051-2.546.566-5.143 1.569-7.791s2.314-5.014 3.96-7.097H78.72z"/></g><path d="M51.926 103.356h51.428v51.428H51.926z" fill="#0e0"/><g class="B"><use xlink:href="#D" x="-14.301" y="102.857"/><use xlink:href="#B" x="51.429" y="102.857"/></g><use xlink:href="#E" y="154.286" fill="#0e0"/><g class="B"><use xlink:href="#B" x="88.557" y="154.286"/><use xlink:href="#H" x="-37.128" y="154.286"/></g><use xlink:href="#E" y="51.429" class="D"/><g class="B"><path d="M124.899 86.845h-3.549V73.551c-1.286 1.209-2.803 2.083-4.551 2.674v-3.214c.926-.283 1.929-.874 3.009-1.697 1.08-.849 1.826-1.826 2.211-2.957h2.88v18.489z"/><use xlink:href="#N"/></g><use xlink:href="#E" x="51.428" y="102.857" class="D"/><g class="B"><use xlink:href="#K" y="51.429"/><use xlink:href="#C" x="117.158" y="102.857"/></g><g transform="matrix(2.57143 0 0 1.28571 -1285.214 -153.7857)"><path d="M600 200h40v40h-40z" class="D"/><g class="B"><use xlink:href="#I"/><use xlink:href="#J"/><path d="M629.638 227.158h-1.38v-10.34c-.5.94-1.09 1.62-1.77 2.08v-2.5c.36-.22.75-.68 1.17-1.32.42-.66.71-1.42.86-2.3h1.12v14.38z"/></g></g><path d="M51.926 51.928h51.428v51.428H51.926z" class="C"/><g class="B"><use xlink:href="#N" x="-65.729"/><use xlink:href="#N" x="-51.428"/></g><use xlink:href="#E" y="102.857" class="C"/><g class="B"><use xlink:href="#F" y="102.857"/><use xlink:href="#D" x="51.429" y="102.857"/></g><use xlink:href="#E" x="51.428" y="154.286" class="C"/><g class="B"><use xlink:href="#F" x="51.428" y="154.286"/><use xlink:href="#D" x="102.857" y="154.286"/></g><g transform="matrix(2.57143 0 0 2.57143 -1285.214 -256.6429)"><path d="M600 200h40v40h-40z" class="C"/><path d="M609.41 223.579v-7.16h1.37v3.8l1.61-1.83h1.69l-1.78 1.9 1.9 3.29h-1.48l-1.3-2.33-.64.67v1.66h-1.37zm8.09-3.98v-1.26h5v1.26h-5zm0 2.16v-1.26h5v1.26h-5zm10.938-5.37c.7 0 1.24.25 1.63.74.47.59.7 1.56.7 2.92 0 1.35-.24 2.33-.7 2.92-.39.49-.93.73-1.63.73-.69 0-1.25-.27-1.68-.8-.43-.54-.64-1.49-.64-2.86 0-1.35.23-2.32.7-2.92.39-.48.93-.73 1.62-.73zm0 1.14c-.16 0-.31.05-.44.16-.13.1-.23.29-.3.57-.1.35-.14.95-.14 1.79s.04 1.42.12 1.73c.09.31.19.52.32.63a.71.71 0 0 0 .44.15c.17 0 .32-.05.45-.15.13-.11.23-.3.3-.57.1-.35.14-.95.14-1.79s-.04-1.42-.12-1.73c-.09-.32-.2-.53-.32-.63a.67.67 0 0 0-.45-.16z" class="B"/></g><g fill="none" stroke="#717171" stroke-dasharray="2.33,2.33,0,0,0,0" stroke-width="1.003"><path d="M206.211.499h51.428m-51.428 51.429h51.428m-51.428 51.428h51.428m-51.428 51.429h51.428M.501 206.211v51.428m51.428-51.428v51.428m51.429-51.428v51.428m51.43-51.428v51.428m-.006-51.426l102.857 154.285"/><path d="M206.211 154.784l154.285 102.857"/></g><defs ><path id="B" d="M27.188 30.531l3.394-.411c.129.874.411 1.543.9 2.006.463.437 1.054.669 1.723.669a2.39 2.39 0 0 0 1.851-.823c.489-.54.746-1.286.746-2.237 0-.874-.257-1.594-.72-2.109-.489-.514-1.054-.771-1.749-.771-.463 0-1.003.077-1.62.257l.386-2.88c.951.026 1.671-.18 2.186-.617.489-.437.746-1.029.746-1.749 0-.617-.18-1.106-.54-1.466-.386-.386-.874-.566-1.466-.566-.617 0-1.131.206-1.543.617-.437.437-.694 1.029-.797 1.851l-3.24-.566c.231-1.106.566-2.006 1.029-2.649.437-.669 1.08-1.209 1.903-1.594a6.74 6.74 0 0 1 2.751-.566c1.723 0 3.111.566 4.166 1.671.849.9 1.286 1.929 1.286 3.06 0 1.62-.874 2.906-2.649 3.857 1.054.231 1.903.746 2.52 1.517.643.797.951 1.749.951 2.854a5.52 5.52 0 0 1-1.774 4.14c-1.183 1.131-2.649 1.697-4.397 1.697-1.671 0-3.06-.463-4.14-1.44-1.106-.951-1.749-2.211-1.903-3.754z"/><path id="C" d="M67.454 25.491c-.9-.386-1.569-.926-1.98-1.594a4.16 4.16 0 0 1-.617-2.211c0-1.389.463-2.52 1.44-3.42.951-.874 2.314-1.337 4.063-1.337s3.111.463 4.089 1.337c.951.9 1.44 2.031 1.44 3.42 0 .849-.206 1.62-.669 2.263-.437.669-1.054 1.183-1.851 1.543 1.003.411 1.8 1.003 2.314 1.8.54.771.797 1.697.797 2.726 0 1.697-.54 3.06-1.62 4.14-1.08 1.054-2.52 1.594-4.32 1.594-1.671 0-3.086-.437-4.191-1.337-1.311-1.029-1.954-2.443-1.954-4.269 0-.977.231-1.903.72-2.726.514-.849 1.286-1.491 2.34-1.929zm.72-3.549c0 .694.206 1.234.617 1.646.386.386.926.566 1.569.566.669 0 1.209-.18 1.62-.591.411-.386.591-.951.591-1.646 0-.669-.18-1.183-.591-1.594-.386-.386-.926-.591-1.569-.591-.669 0-1.209.206-1.62.617-.411.386-.617.926-.617 1.594zm-.309 7.869c0 .977.231 1.723.746 2.289.489.54 1.106.797 1.851.797s1.337-.257 1.826-.771c.463-.54.694-1.286.694-2.263 0-.874-.231-1.569-.72-2.083s-1.106-.797-1.851-.797c-.849 0-1.491.309-1.929.9-.411.591-.617 1.234-.617 1.929z"/><path id="D" d="M90.677 21.505l-3.394.386c-.103-.694-.309-1.209-.669-1.543s-.797-.514-1.363-.514c-.746 0-1.389.334-1.903 1.003s-.823 2.057-.951 4.191c.874-1.054 1.954-1.569 3.266-1.569 1.466 0 2.726.566 3.78 1.697 1.054 1.106 1.594 2.571 1.594 4.346 0 1.877-.566 3.394-1.671 4.526s-2.52 1.697-4.243 1.697c-1.877 0-3.394-.72-4.603-2.16-1.183-1.44-1.8-3.806-1.8-7.097 0-3.369.643-5.811 1.877-7.303 1.26-1.491 2.88-2.237 4.86-2.237 1.414 0 2.571.386 3.471 1.183.926.771 1.517 1.929 1.749 3.394zm-7.997 7.714c0 1.131.283 2.031.797 2.649.54.617 1.131.926 1.8.926s1.209-.231 1.646-.746.643-1.363.643-2.52c0-1.209-.231-2.083-.694-2.623-.463-.566-1.054-.849-1.749-.849s-1.26.283-1.723.797c-.489.54-.72 1.311-.72 2.366z"/><path id="E" d="M103.355.499h51.428v51.428h-51.428z"/><path id="F" d="M115.925 31.148l3.42-.36c.077.694.309 1.209.669 1.543.334.334.797.489 1.389.489.72 0 1.337-.334 1.851-1.003s.849-2.057.977-4.166c-.874 1.029-1.98 1.543-3.317 1.543-1.466 0-2.7-.54-3.754-1.671-1.054-1.106-1.569-2.571-1.569-4.371 0-1.851.54-3.369 1.646-4.5 1.131-1.157 2.52-1.723 4.243-1.723 1.877 0 3.394.72 4.603 2.16 1.183 1.466 1.8 3.831 1.8 7.149 0 3.343-.617 5.786-1.877 7.277-1.234 1.491-2.88 2.237-4.86 2.237-1.44 0-2.623-.386-3.497-1.157-.9-.771-1.466-1.903-1.723-3.446zm7.997-7.689c0-1.157-.257-2.031-.797-2.649-.514-.643-1.106-.951-1.8-.951-.669 0-1.209.257-1.62.771-.437.514-.643 1.363-.643 2.52 0 1.209.231 2.083.694 2.623.463.566 1.054.849 1.749.849s1.26-.283 1.723-.823c.463-.514.694-1.311.694-2.34z"/><path id="G" d="M136.114 16.928c1.8 0 3.189.643 4.191 1.903 1.209 1.517 1.8 4.011 1.8 7.509 0 3.471-.617 5.991-1.8 7.509-1.003 1.26-2.391 1.877-4.191 1.877-1.774 0-3.214-.694-4.32-2.057-1.106-1.389-1.646-3.831-1.646-7.354 0-3.471.591-5.966 1.8-7.509 1.003-1.234 2.391-1.877 4.166-1.877zm0 2.931c-.411 0-.797.129-1.131.411-.334.257-.591.746-.771 1.466-.257.9-.36 2.443-.36 4.603s.103 3.651.309 4.449c.231.797.489 1.337.823 1.62.334.257.72.386 1.131.386.437 0 .823-.129 1.157-.386.334-.283.591-.771.771-1.466.257-.9.36-2.443.36-4.603s-.103-3.651-.309-4.449c-.231-.823-.514-1.363-.823-1.62-.334-.283-.72-.411-1.157-.411z"/><path id="H" d="M179.208 32.151v3.266h-12.369c.129-1.234.54-2.417 1.209-3.523s1.98-2.571 3.96-4.423c1.594-1.466 2.571-2.469 2.931-3.009.489-.72.72-1.44.72-2.16 0-.771-.206-1.389-.617-1.8-.437-.437-1.029-.643-1.774-.643-.72 0-1.311.231-1.749.669s-.694 1.183-.746 2.211l-3.523-.36c.206-1.929.874-3.343 1.98-4.166 1.106-.849 2.469-1.286 4.14-1.286 1.8 0 3.24.489 4.269 1.466 1.054.977 1.569 2.211 1.569 3.651 0 .849-.154 1.62-.437 2.391-.309.746-.771 1.517-1.414 2.34-.437.54-1.209 1.337-2.314 2.34l-2.134 2.031c-.283.334-.514.669-.72 1.003h7.02z"/><path id="I" d="M609.41 227.158v-14.32h1.37v7.6l1.61-3.66h1.69l-1.78 3.8 1.9 6.58h-1.48l-1.3-4.66-.64 1.34v3.32h-1.37z"/><path id="J" d="M617.5 219.198v-2.52h5v2.52h-5zm0 4.32v-2.52h5v2.52h-5z"/><path id="K" d="M174.219 86.845v-3.703h-7.534v-3.086l7.971-11.7h2.957v11.674h2.289v3.111h-2.289v3.703h-3.394zm0-6.814v-6.274l-4.243 6.274h4.243z"/><path id="L" d="M615.49 227.158v-14.32h2.74v7.6l3.22-3.66h3.38l-3.56 3.8 3.8 6.58h-2.96l-2.6-4.66-1.28 1.34v3.32h-2.74z"/><path id="M" d="M631.67 219.198v-2.52h10v2.52h-10zm0 4.32v-2.52h10v2.52h-10z"/><path id="N" d="M130.2 82.114l3.523-.36c.103.797.411 1.414.9 1.877s1.054.694 1.697.694c.746 0 1.363-.283 1.877-.9.514-.591.771-1.491.771-2.7 0-1.131-.257-1.98-.771-2.546-.489-.566-1.157-.849-1.98-.849-1.003 0-1.903.463-2.726 1.363l-2.854-.411 1.8-9.591h9.334v3.291h-6.66l-.54 3.137c.771-.386 1.594-.591 2.417-.591a5.29 5.29 0 0 1 3.96 1.697c1.106 1.157 1.646 2.623 1.646 4.449 0 1.517-.437 2.854-1.311 4.037-1.209 1.646-2.88 2.443-4.989 2.443-1.697 0-3.086-.463-4.166-1.363s-1.697-2.134-1.929-3.677z"/></defs></svg>