<svg xmlns="http://www.w3.org/2000/svg" xmlns:xlink="http://www.w3.org/1999/xlink" width="1110" height="590" fill-rule="evenodd" stroke-linecap="round" stroke-linejoin="round" stroke-miterlimit="1.5" xmlns:v="https://vecta.io/nano"><style><![CDATA[.B{fill-rule:nonzero}.C{stroke:#000}.D{fill:none}.E{stroke-linejoin:miter}.F{stroke-miterlimit:10}.G{stroke-width:2}]]></style><g class="C"><path d="M787.48 137.087l128-64 192 96v256l-128 64-192-96v-256z" fill="#85db09"/><g class="D"><path d="M787.48 137.087l128-64 192 96-128 64-192-96z"/><path d="M979.48 105.087l-128 64m192-32l-128 64"/><path d="M851.48 105.087l192 96m-256-64v256l192 96v-256"/><path d="M1107.48 169.087v256l-128 64"/><path d="M1043.48 201.087v256"/><path d="M979.48 297.087l128-64m-128 128l128-64m-128 128l128-64m-128-64l-192-96m192 160l-192-96m192 160l-192-96"/><path d="M851.48 169.087v256m64-224v256"/></g><g fill="#85db09"><path d="M18.48 334.087h65v65h-65z"/><path d="M83.48 334.087h65v65h-65z"/><path d="M148.48 334.087h65v65h-65z"/><path d="M213.48 334.087h65v65h-65zm222-65h65v65h-65z"/><path d="M435.48 334.087h65v65h-65z"/><path d="M500.48 269.087h65v65h-65z"/><path d="M500.48 334.087h65v65h-65z"/><path d="M565.48 269.087h65v65h-65z"/><path d="M565.48 334.087h65v65h-65z"/></g></g><g class="B"><path d="M22.684 254.12c.16-.08.32-.12.52-.12h2.16c.28 0 .4.12.4.4v27.2c0 .28-.12.4-.4.4h-2.04c-.28 0-.4-.12-.4-.4v-24.36c0-.04 0-.08-.04-.12s-.12-.04-.16 0l-4.24 1.72-.16.04c-.16 0-.28-.12-.32-.32l-.2-1.52v-.08c0-.12.08-.28.28-.4l4.6-2.44z"/><use xlink:href="#B"/><use xlink:href="#C"/><use xlink:href="#D"/><use xlink:href="#D" x="14.56"/><use xlink:href="#C" x="49.48"/><path d="M134.164 290c-.2 0-.28-.12-.28-.4V288c0-.28.12-.4.4-.4h.16c1.04-.04 1.84-.16 2.44-.44.56-.28 1.04-.8 1.48-1.56.4-.8.84-1.92 1.32-3.48.04-.12.04-.2 0-.24l-6.76-19.68-.04-.16c0-.2.12-.28.36-.28h2.12a.48.48 0 0 1 .48.32l5.2 16.16c.04.04.08.08.12.08s.08-.04.12-.08l5.12-16.16a.48.48 0 0 1 .48-.32h2.08c.28 0 .4.16.32.44l-7.4 21.56c-.64 1.8-1.24 3.12-1.8 3.96s-1.28 1.44-2.08 1.8c-.88.32-2.04.48-3.56.48h-.28zm305.076-62.68c-.08.12-.04.2.08.2h12.56c.28 0 .4.12.4.4v1.68c0 .28-.12.4-.4.4h-15.96c-.28 0-.4-.12-.4-.4v-1.68a.66.66 0 0 1 .2-.48l6.12-7.52 2.96-3.68c2.52-3.16 3.76-5.64 3.76-7.4 0-1.4-.48-2.56-1.44-3.4s-2.2-1.28-3.76-1.28c-1.52 0-2.76.44-3.68 1.28-.92.88-1.4 2.04-1.36 3.44v1.24c0 .28-.12.4-.4.4h-2.08c-.28 0-.4-.12-.4-.4v-1.6c.04-2.04.84-3.72 2.32-4.96s3.32-1.88 5.6-1.88c1.6 0 3 .32 4.24.92a6.71 6.71 0 0 1 2.84 2.52c.68 1.08 1 2.32 1 3.68 0 2.28-1.24 5-3.76 8.2-1.32 1.68-3.84 4.76-7.56 9.28l-.88 1.04z"/><use xlink:href="#B" x="425.116" y="-52"/><use xlink:href="#C" x="425.116" y="-52"/><use xlink:href="#D" x="425.116" y="-52"/><use xlink:href="#D" x="439.676" y="-52"/><use xlink:href="#C" x="474.596" y="-52"/><path d="M559.28 238c-.2 0-.28-.12-.28-.4V236c0-.28.12-.4.4-.4h.16c1.04-.04 1.84-.16 2.44-.44.56-.28 1.04-.8 1.48-1.56.4-.8.84-1.92 1.32-3.48.04-.12.04-.2 0-.24l-6.76-19.68-.04-.16c0-.2.12-.28.36-.28h2.12a.48.48 0 0 1 .48.32l5.2 16.16c.04.04.08.08.12.08s.08-.04.12-.08l5.12-16.16a.48.48 0 0 1 .48-.32h2.08c.28 0 .4.16.32.44l-7.4 21.56c-.64 1.8-1.24 3.12-1.8 3.96s-1.28 1.44-2.08 1.8c-.88.32-2.04.48-3.56.48h-.28zM802.4 14.76c.52 1.32.8 2.88.8 4.68 0 1.48-.2 2.76-.6 3.88-.52 1.6-1.44 2.84-2.68 3.68-1.28.88-2.84 1.32-4.72 1.32s-3.48-.48-4.8-1.48c-1.32-.96-2.24-2.28-2.76-3.92-.24-.76-.4-1.76-.44-3.04 0-.28.12-.4.4-.4h2.04c.28 0 .4.12.4.4.04.76.16 1.48.28 2.16.28 1.16.88 2.12 1.72 2.76.84.68 1.88 1.04 3.12 1.04 2.4 0 3.96-1.08 4.68-3.2.32-.88.48-1.96.48-3.28 0-1.6-.2-2.92-.64-3.92-.84-1.92-2.36-2.88-4.52-2.88-.4 0-.88.16-1.48.44-.12.04-.2.08-.24.08-.12 0-.2-.08-.28-.2l-1.04-1.4c-.12-.2-.12-.4.04-.56l7.04-8.24c.08-.12.04-.2-.08-.2h-11.28c-.28 0-.4-.12-.4-.4V.4c0-.28.12-.4.4-.4h14.8c.28 0 .4.12.4.4v1.96c0 .12-.08.28-.2.48l-6.4 7.68c-.04.04-.08.08-.04.12.04.08.08.08.16.08 2.84.2 4.8 1.52 5.84 4.04zM809.96 28c-.28 0-.4-.12-.4-.4V.4c0-.28.12-.4.4-.4h9.44c2.64 0 4.72.68 6.32 2.08 1.56 1.4 2.32 3.28 2.32 5.64v12.56c0 2.36-.76 4.24-2.32 5.64-1.6 1.4-3.68 2.08-6.32 2.08h-9.44zm2.44-2.64c0 .12.04.16.16.16h6.96c1.72 0 3.12-.52 4.16-1.52 1-1 1.52-2.36 1.52-4.08V8.12c0-1.72-.52-3.12-1.52-4.12s-2.4-1.52-4.16-1.52h-6.96c-.12 0-.16.04-.16.16v22.72zm36.32-17.92c2.4 0 4.24.6 5.56 1.84s1.96 2.84 1.96 4.88V27.6c0 .28-.12.4-.4.4h-2.04c-.28 0-.4-.12-.4-.4v-1.64c0-.04 0-.08-.04-.12s-.12 0-.16.04a6.09 6.09 0 0 1-2.6 1.8c-1.08.44-2.24.64-3.56.64-1.88 0-3.48-.48-4.76-1.44s-1.92-2.44-1.92-4.4c0-2 .72-3.6 2.2-4.76C844 16.56 846 16 848.6 16h4.64c.12 0 .16-.04.16-.16v-1.52c0-1.36-.36-2.44-1.12-3.24-.76-.76-1.96-1.16-3.56-1.16-1.28 0-2.32.24-3.12.72-.8.52-1.28 1.2-1.48 2.08-.08.28-.24.4-.48.36l-2.16-.28c-.28-.04-.4-.16-.36-.32.2-1.48 1-2.72 2.4-3.64s3.12-1.4 5.2-1.4zm-1.12 18.44c1.56 0 2.92-.4 4.08-1.2a3.59 3.59 0 0 0 1.72-3.16V18.4c0-.12-.04-.16-.16-.16h-4.2c-1.76 0-3.16.36-4.24 1.08s-1.6 1.72-1.6 3c0 1.16.4 2.04 1.24 2.64.8.6 1.84.92 3.16.92z"/><use xlink:href="#E"/><use xlink:href="#E" x="14.56"/><path d="M898.2 7.44c2.4 0 4.24.6 5.56 1.84s1.96 2.84 1.96 4.88V27.6c0 .28-.12.4-.4.4h-2.04c-.28 0-.4-.12-.4-.4v-1.64c0-.04 0-.08-.04-.12s-.12 0-.16.04a6.09 6.09 0 0 1-2.6 1.8c-1.08.44-2.24.64-3.56.64-1.88 0-3.48-.48-4.76-1.44s-1.92-2.44-1.92-4.4c0-2 .72-3.6 2.2-4.76 1.44-1.16 3.44-1.72 6.04-1.72h4.64c.12 0 .16-.04.16-.16v-1.52c0-1.36-.36-2.44-1.12-3.24-.76-.76-1.96-1.16-3.56-1.16-1.28 0-2.32.24-3.12.72-.8.52-1.28 1.2-1.48 2.08-.08.28-.24.4-.48.36l-2.16-.28c-.28-.04-.4-.16-.36-.32.2-1.48 1-2.72 2.4-3.64s3.12-1.4 5.2-1.4zm-1.12 18.44c1.56 0 2.92-.4 4.08-1.2a3.59 3.59 0 0 0 1.72-3.16V18.4c0-.12-.04-.16-.16-.16h-4.2c-1.76 0-3.16.36-4.24 1.08s-1.6 1.72-1.6 3c0 1.16.4 2.04 1.24 2.64.8.6 1.84.92 3.16.92zM910.48 36c-.2 0-.28-.12-.28-.4V34c0-.28.12-.4.4-.4h.16c1.04-.04 1.84-.16 2.44-.44.56-.28 1.04-.8 1.48-1.56.4-.8.84-1.92 1.32-3.48.04-.12.04-.2 0-.24L909.24 8.2l-.04-.16c0-.2.12-.28.36-.28h2.12a.48.48 0 0 1 .48.32l5.2 16.16c.04.04.08.08.12.08s.08-.04.12-.08l5.12-16.16a.48.48 0 0 1 .48-.32h2.08c.28 0 .4.16.32.44l-7.4 21.56c-.64 1.8-1.24 3.12-1.8 3.96s-1.28 1.44-2.08 1.8c-.88.32-2.04.48-3.56.48h-.28z"/></g><g class="C D G"><path d="M172.678 422.087l9 6-9 6" class="E F"/><path d="M17.804 428.087h163.874"/><path d="M591.112 418.615l9 6-9 6" class="E F"/><path d="M436.238 424.615h163.874"/></g><g class="B"><use xlink:href="#F"/><use xlink:href="#G"/><use xlink:href="#H"/><use xlink:href="#I"/><path d="M498.03 449.466h2.709v1.197h-6.741v-1.197h2.709v-10.899c-.798.693-1.827 1.05-3.087 1.05v-1.239c.945 0 1.701-.252 2.247-.798.546-.525.819-1.26.819-2.184h1.344v14.07z"/></g><g class="C D G"><path d="M419.079 357.962l-6 9-6-9" class="E F"/><path d="M413.079 269.088v97.873"/></g><g transform="matrix(0 1 -1 0 996.52 -89.16322)" class="B"><use xlink:href="#J"/><use xlink:href="#K"/><use xlink:href="#L"/><use xlink:href="#I" x="-77.19" y="160.337"/><use xlink:href="#M"/></g><g class="C D G"><path d="M772.078 227.199l-6 9-6-9" class="E F"/><path d="M766.078 138.325v97.873"/></g><g transform="matrix(0 1 -1 0 1349.52 -219.92522)" class="B"><use xlink:href="#J"/><use xlink:href="#K"/><use xlink:href="#L"/><use xlink:href="#I" x="-77.19" y="160.337"/><use xlink:href="#M"/></g><g class="B"><use xlink:href="#F" x="-418.434" y="3.471"/><use xlink:href="#G" x="-418.434" y="3.471"/><use xlink:href="#H" x="-418.434" y="3.471"/><use xlink:href="#I" x="-418.434" y="3.471"/><use xlink:href="#M" x="-341.244" y="-156.866"/></g><g transform="matrix(.907711 -.419597 -.181792 1.18571 769.9 -32.8795)" class="B"><use xlink:href="#N" transform="matrix(21 0 0 21 357.162 611)"/><use xlink:href="#O" transform="matrix(21 0 0 21 368.617 611)"/><use xlink:href="#P" transform="matrix(21 0 0 21 380.071 611)"/><use xlink:href="#Q" transform="matrix(21 0 0 21 391.526 611)"/><path d="M.055-.05c0-.028.008-.054.023-.079s.034-.048.057-.068l.092-.077.106-.089A.37.37 0 0 0 .4-.448C.419-.48.428-.515.428-.554c0-.034-.005-.06-.014-.078S.389-.663.367-.671.313-.683.272-.683.199-.679.177-.67a.08.08 0 0 0-.047.041C.122-.61.118-.582.118-.546H.055C.054-.595.06-.634.074-.662s.035-.048.067-.06S.216-.74.272-.74a.41.41 0 0 1 .131.017c.031.012.054.031.067.058s.021.063.021.111-.011.092-.032.131S.411-.35.38-.322.311-.261.264-.225a1.01 1.01 0 0 0-.107.092c-.023.024-.035.049-.038.076h.37V0H.055v-.05z" transform="matrix(21 0 0 21 414.435 611)"/></g><g transform="matrix(.866025 .5 .087673 1.20532 424.949 -466.09)" class="B"><use xlink:href="#N" transform="matrix(21 0 0 21 357.162 611)"/><use xlink:href="#O" transform="matrix(21 0 0 21 368.617 611)"/><use xlink:href="#P" transform="matrix(21 0 0 21 380.071 611)"/><use xlink:href="#Q" transform="matrix(21 0 0 21 391.526 611)"/><path d="M.305-.057h.129V0H.113v-.057h.129v-.519c-.038.033-.087.05-.147.05v-.059c.045 0 .081-.012.107-.038s.039-.06.039-.104h.064v.67z" transform="matrix(21 0 0 21 414.435 611)"/></g><g transform="matrix(.999999 .000001 .000001 .999996 -.000783 .000161)" class="C D G"><path d="M904.083 472.851l5.208 9.481-10.754 1.16" class="E F"/><path d="M787.2 418.694l122.091 63.638"/></g><g class="C D G"><path d="M1079.14 458.66l10.72 1.395-5.41 9.365" class="E F"/><path d="M984.48 512.087l105.38-52.032"/></g><g fill="#393939" class="B"><use xlink:href="#R"/><path d="M43.94 510.825c-.182.286-.52.52-.962.676-.468.182-.91.26-1.378.26-.572 0-1.014-.156-1.352-.442a1.26 1.26 0 0 1-.468-1.092c-.052-1.248.572-4.004 1.846-8.294.26-.78.39-1.482.39-2.08 0-1.248-.676-1.872-1.976-1.872-.728 0-1.508.364-2.34 1.066-.832.728-1.56 1.612-2.21 2.678-.624 1.066-1.04 2.054-1.222 3.016l-1.43 6.682H31.2l4.03-18.902h1.612l-1.612 7.54c.702-1.118 1.456-1.976 2.314-2.626.858-.624 1.716-.962 2.6-.962 2.34 0 3.536 1.014 3.536 3.016 0 .702-.182 1.56-.494 2.6l-1.3 4.628c-.338 1.352-.494 2.314-.52 2.912.026.208.104.364.234.468.104.104.286.156.52.156a1.05 1.05 0 0 0 .572-.182c.182-.13.39-.286.546-.52l.702 1.274z"/><use xlink:href="#S"/><use xlink:href="#T"/><use xlink:href="#U"/><use xlink:href="#V"/><use xlink:href="#W"/><use xlink:href="#X"/><use xlink:href="#Y"/><use xlink:href="#Z"/><use xlink:href="#R" x="418.474"/><use xlink:href="#a"/><use xlink:href="#S" x="418.474"/><use xlink:href="#T" x="418.474"/><use xlink:href="#U" x="418.474"/><use xlink:href="#V" x="418.474"/><use xlink:href="#W" x="418.474"/><use xlink:href="#b"/><use xlink:href="#Y" x="418.474"/><use xlink:href="#c"/><use xlink:href="#Z" x="446.838"/><use xlink:href="#R" x="771.195" y="73"/><use xlink:href="#a" x="352.721" y="73"/><use xlink:href="#S" x="771.195" y="73"/><use xlink:href="#T" x="771.195" y="73"/><use xlink:href="#U" x="771.195" y="73"/><use xlink:href="#V" x="771.195" y="73"/><use xlink:href="#W" x="771.195" y="73"/><use xlink:href="#X" x="771.195" y="73"/><use xlink:href="#Y" x="771.195" y="73"/><use xlink:href="#c" x="352.721" y="73"/><use xlink:href="#Y" x="813.741" y="73"/><use xlink:href="#b" x="437.811" y="73"/><use xlink:href="#Z" x="842.104" y="73"/></g><defs ><path id="B" d="M33.644 282c-.28 0-.4-.12-.4-.4v-27.2c0-.28.12-.4.4-.4h9.44c2.64 0 4.72.68 6.32 2.08 1.56 1.4 2.32 3.28 2.32 5.64v12.56c0 2.36-.76 4.24-2.32 5.64-1.6 1.4-3.68 2.08-6.32 2.08h-9.44zm2.44-2.64c0 .12.04.16.16.16h6.96c1.72 0 3.12-.52 4.16-1.52 1-1 1.52-2.36 1.52-4.08v-11.8c0-1.72-.52-3.12-1.52-4.12s-2.4-1.52-4.16-1.52h-6.96c-.12 0-.16.04-.16.16v22.72z"/><path id="C" d="M72.404 261.44c2.4 0 4.24.6 5.56 1.84s1.96 2.84 1.96 4.88v13.44c0 .28-.12.4-.4.4h-2.04c-.28 0-.4-.12-.4-.4v-1.64c0-.04 0-.08-.04-.12s-.12 0-.16.04a6.09 6.09 0 0 1-2.6 1.8c-1.08.44-2.24.64-3.56.64-1.88 0-3.48-.48-4.76-1.44s-1.92-2.44-1.92-4.4c0-2 .72-3.6 2.2-4.76 1.44-1.16 3.44-1.72 6.04-1.72h4.64c.12 0 .16-.04.16-.16v-1.52c0-1.36-.36-2.44-1.12-3.24-.76-.76-1.96-1.16-3.56-1.16-1.28 0-2.32.24-3.12.72-.8.52-1.28 1.2-1.48 2.08-.08.28-.24.4-.48.36l-2.16-.28c-.28-.04-.4-.16-.36-.32.2-1.48 1-2.72 2.4-3.64s3.12-1.4 5.2-1.4zm-1.12 18.44c1.56 0 2.92-.4 4.08-1.2a3.59 3.59 0 0 0 1.72-3.16v-3.12c0-.12-.04-.16-.16-.16h-4.2c-1.76 0-3.16.36-4.24 1.08s-1.6 1.72-1.6 3c0 1.16.4 2.04 1.24 2.64.8.6 1.84.92 3.16.92z"/><path id="D" d="M94.004 261.56c.88 0 1.64.16 2.28.52.2.12.28.28.24.52l-.44 1.96c-.08.28-.24.36-.52.24-.44-.2-.96-.28-1.56-.28l-.52.04c-1.4.04-2.52.56-3.44 1.52-.92 1-1.36 2.24-1.36 3.72v11.8c0 .28-.12.4-.4.4h-2.04c-.28 0-.4-.12-.4-.4v-19.44c0-.28.12-.4.4-.4h2.04c.28 0 .4.12.4.4v2.44c0 .08.04.12.08.12.04.04.04 0 .08-.04.56-1 1.28-1.76 2.16-2.32.84-.52 1.84-.8 3-.8z"/><path id="E" d="M870.32 7.56c.88 0 1.64.16 2.28.52.2.12.28.28.24.52l-.44 1.96c-.08.28-.24.36-.52.24-.44-.2-.96-.28-1.56-.28l-.52.04c-1.4.04-2.52.56-3.44 1.52-.92 1-1.36 2.24-1.36 3.72v11.8c0 .28-.12.4-.4.4h-2.04c-.28 0-.4-.12-.4-.4V8.16c0-.28.12-.4.4-.4h2.04c.28 0 .4.12.4.4v2.44c0 .08.04.12.08.12.04.04.04 0 .08-.04.56-1 1.28-1.76 2.16-2.32.84-.52 1.84-.8 3-.8z"/><path id="F" d="M439.581 450.936c-1.05 0-1.869-.126-2.478-.336-.588-.231-1.008-.588-1.281-1.092-.252-.525-.378-1.218-.378-2.1 0-.966.126-1.701.378-2.226.273-.525.693-.882 1.281-1.113.609-.231 1.428-.336 2.478-.336h2.856v-.987c0-.735-.105-1.323-.273-1.722a1.68 1.68 0 0 0-.861-.882c-.399-.168-.987-.273-1.722-.273-.546 0-.987.063-1.323.189-.315.105-.588.294-.777.588-.21.273-.378.672-.504 1.176l-1.26-.294c.189-.756.441-1.323.756-1.743.294-.42.693-.735 1.197-.903.483-.189 1.134-.294 1.911-.294 1.05 0 1.89.147 2.478.42a2.54 2.54 0 0 1 1.302 1.302c.252.588.378 1.407.378 2.436v4.851c0 .504.042.903.147 1.176.084.273.231.441.441.546.189.084.504.126.903.126v1.218c-.714.021-1.26-.084-1.617-.294-.336-.189-.588-.567-.756-1.071-.357.609-.756 1.029-1.239 1.26-.483.252-1.155.378-2.037.378zm0-1.218c.735 0 1.323-.084 1.722-.294.399-.189.693-.525.861-.987s.273-1.113.273-1.974v-1.512h-2.856c-.756 0-1.323.063-1.722.21-.399.126-.693.378-.861.714-.168.357-.231.861-.231 1.533 0 .609.063 1.071.231 1.407s.462.567.861.693c.42.147.987.21 1.722.21z"/><path id="G" d="M454.438 438.861h1.512l-3.654 5.901 3.654 5.901h-1.512l-2.898-4.683-2.898 4.683h-1.512l3.654-5.901-3.654-5.901h1.512l2.898 4.683 2.898-4.683z"/><path id="H" d="M464.149 438.861v10.605h3.339v1.197h-8.001v-1.197h3.339v-9.408h-2.394v-1.197h3.717zm-1.008-2.247c-.462 0-.798-.084-.966-.252s-.252-.462-.252-.903.084-.735.252-.903.504-.252.966-.252.798.084.966.252c.189.168.273.462.273.903s-.084.735-.273.903c-.168.168-.504.252-.966.252z"/><path id="I" d="M473.966 450.936c-.945 0-1.68-.168-2.205-.462-.504-.315-.987-.861-1.449-1.659l1.029-.84c.336.693.693 1.155 1.05 1.386.357.252.882.357 1.575.357.945 0 1.68-.063 2.184-.21.525-.126.882-.357 1.092-.693.231-.336.336-.798.336-1.407 0-.525-.084-.945-.273-1.239-.168-.294-.483-.525-.924-.693-.42-.147-1.05-.294-1.869-.378-1.449-.189-2.478-.525-3.066-1.008-.609-.504-.924-1.197-.924-2.142 0-.84.147-1.512.42-1.995s.714-.84 1.344-1.05 1.512-.315 2.625-.315c.987 0 1.743.147 2.31.399.546.273 1.029.735 1.47 1.407l-.945.924c-.357-.588-.735-.987-1.113-1.197s-.945-.315-1.722-.315c-.798 0-1.407.063-1.848.189-.441.147-.756.357-.945.672-.189.294-.273.735-.273 1.281s.21.966.609 1.26c.399.273 1.092.483 2.1.63 1.134.147 1.995.357 2.604.609.63.273 1.071.63 1.323 1.071.273.462.42 1.092.42 1.89 0 .903-.168 1.596-.483 2.1s-.819.861-1.512 1.092c-.714.21-1.701.336-2.94.336z"/><path id="J" d="M362.391 611.273c-1.05 0-1.869-.126-2.478-.336-.588-.231-1.008-.588-1.281-1.092-.252-.525-.378-1.218-.378-2.1 0-.966.126-1.701.378-2.226.273-.525.693-.882 1.281-1.113.609-.231 1.428-.336 2.478-.336h2.856v-.987c0-.735-.105-1.323-.273-1.722a1.68 1.68 0 0 0-.861-.882c-.399-.168-.987-.273-1.722-.273-.546 0-.987.063-1.323.189-.315.105-.588.294-.777.588-.21.273-.378.672-.504 1.176l-1.26-.294c.189-.756.441-1.323.756-1.743.294-.42.693-.735 1.197-.903.483-.189 1.134-.294 1.911-.294 1.05 0 1.89.147 2.478.42a2.54 2.54 0 0 1 1.302 1.302c.252.588.378 1.407.378 2.436v4.851c0 .504.042.903.147 1.176.084.273.231.441.441.546.189.084.504.126.903.126V611c-.714.021-1.26-.084-1.617-.294-.336-.189-.588-.567-.756-1.071-.357.609-.756 1.029-1.239 1.26-.483.252-1.155.378-2.037.378zm0-1.218c.735 0 1.323-.084 1.722-.294.399-.189.693-.525.861-.987s.273-1.113.273-1.974v-1.512h-2.856c-.756 0-1.323.063-1.722.21-.399.126-.693.378-.861.714-.168.357-.231.861-.231 1.533 0 .609.063 1.071.231 1.407s.462.567.861.693c.42.147.987.21 1.722.21z"/><path id="K" d="M377.248 599.198h1.512l-3.654 5.901L378.76 611h-1.512l-2.898-4.683-2.898 4.683h-1.512l3.654-5.901-3.654-5.901h1.512l2.898 4.683 2.898-4.683z"/><path id="L" d="M386.959 599.198v10.605h3.339V611h-8.001v-1.197h3.339v-9.408h-2.394v-1.197h3.717zm-1.008-2.247c-.462 0-.798-.084-.966-.252s-.252-.462-.252-.903.084-.735.252-.903.504-.252.966-.252.798.084.966.252c.189.168.273.462.273.903s-.084.735-.273.903c-.168.168-.504.252-.966.252z"/><path id="M" d="M420.168 611.273c-.861 0-1.659-.336-2.352-1.008s-1.26-1.596-1.659-2.814c-.42-1.197-.609-2.562-.609-4.095 0-1.512.189-2.877.609-4.095.399-1.197.966-2.121 1.659-2.793s1.491-1.008 2.352-1.008 1.638.336 2.352 1.008 1.26 1.596 1.68 2.793c.399 1.218.609 2.583.609 4.095 0 1.533-.21 2.898-.609 4.095-.42 1.218-.966 2.142-1.68 2.814s-1.491 1.008-2.352 1.008zm0-1.218c.588 0 1.134-.273 1.638-.84.504-.588.924-1.386 1.218-2.394.315-1.029.462-2.163.462-3.465 0-1.281-.147-2.436-.462-3.444-.294-1.029-.714-1.827-1.218-2.394s-1.05-.861-1.638-.861-1.134.294-1.638.861c-.525.567-.924 1.365-1.218 2.394-.294 1.008-.462 2.163-.462 3.444 0 1.302.168 2.436.462 3.465.294 1.008.693 1.806 1.218 2.394.504.567 1.05.84 1.638.84zm0-5.628c-.336 0-.609-.084-.819-.294-.21-.189-.315-.441-.315-.777 0-.294.105-.546.315-.735s.483-.294.819-.294c.315 0 .609.105.819.294s.315.441.315.735c0 .336-.105.588-.315.777-.21.21-.504.294-.819.294z"/><path id="N" d="M.249.013C.199.013.16.007.131-.003S.083-.031.07-.055.052-.113.052-.155A.25.25 0 0 1 .07-.261.11.11 0 0 1 .131-.314C.16-.325.199-.33.249-.33h.136v-.047C.385-.412.38-.44.372-.459a.08.08 0 0 0-.041-.042C.312-.509.284-.514.249-.514c-.026 0-.047.003-.063.009s-.028.014-.037.028-.018.032-.024.056l-.06-.014a.23.23 0 0 1 .036-.083c.014-.02.033-.035.057-.043s.054-.014.091-.014c.05 0 .09.007.118.02s.049.034.062.062.018.067.018.116v.231c0 .024.002.043.007.056a.04.04 0 0 0 .021.026c.009.004.024.006.043.006V0C.484.001.458-.004.441-.014S.413-.041.405-.065c-.017.029-.036.049-.059.06S.291.013.249.013zm0-.058c.035 0 .063-.004.082-.014a.08.08 0 0 0 .041-.047C.38-.128.385-.159.385-.2v-.072H.249c-.036 0-.063.003-.082.01s-.033.018-.041.034-.011.041-.011.073.003.051.011.067.022.027.041.033.047.01.082.01z"/><path id="O" d="M.411-.562h.072l-.174.281L.483 0H.411L.273-.223.135 0H.063l.174-.281-.174-.281h.072l.138.223.138-.223z"/><path id="P" d="M.328-.562v.505h.159V0H.106v-.057h.159v-.448H.151v-.057h.177zM.28-.669c-.022 0-.038-.004-.046-.012S.222-.703.222-.724.226-.759.234-.767.258-.779.28-.779s.038.004.046.012.013.022.013.043-.004.035-.013.043-.024.012-.046.012z"/><path id="Q" d="M.25.013C.205.013.17.005.145-.009S.098-.05.076-.088l.049-.04c.016.033.033.055.05.066s.042.017.075.017a.4.4 0 0 0 .104-.01c.025-.006.042-.017.052-.033s.016-.038.016-.067a.11.11 0 0 0-.013-.059C.401-.228.386-.239.365-.247S.315-.261.276-.265C.207-.274.158-.29.13-.313S.086-.37.086-.415.093-.487.106-.51A.11.11 0 0 1 .17-.56C.2-.57.242-.575.295-.575c.047 0 .083.007.11.019s.049.035.07.067L.43-.445C.413-.473.395-.492.377-.502S.332-.517.295-.517.228-.514.207-.508.171-.491.162-.476.149-.441.149-.415s.01.046.029.06.052.023.1.03c.054.007.095.017.124.029s.051.03.063.051.02.052.02.09-.008.076-.023.1-.039.041-.072.052S.309.013.25.013z"/><path id="R" d="M22.01 511.761c-1.092 0-2.054-.26-2.938-.78s-1.586-1.248-2.054-2.132l1.456-.702c.312.624.78 1.144 1.43 1.534.624.39 1.3.572 1.976.572.832 0 1.56-.234 2.184-.728s1.092-1.17 1.43-2.028.494-1.794.494-2.834c-.026-.936-.286-1.794-.806-2.6-.676.832-1.534 1.508-2.6 2.054s-2.132.884-3.224.962l-.234-1.482c1.014-.052 1.976-.364 2.886-.884.936-.52 1.69-1.144 2.236-1.924-.39-.39-.702-.806-.936-1.222-.234-.442-.338-.806-.338-1.118 0-.598.156-1.066.494-1.43s.806-.546 1.404-.546c.624 0 1.092.182 1.456.546.338.364.52.832.52 1.43 0 .312-.078.676-.208 1.066-.104.39-.286.754-.52 1.118.442.546.78 1.196 1.04 1.872.26.702.39 1.404.39 2.106 0 1.014-.13 1.924-.39 2.704-.286.806-.702 1.56-1.3 2.236.52-.208 1.04-.468 1.56-.78s.936-.624 1.222-.936l.936 1.014c-.676.858-1.716 1.56-3.12 2.106-1.404.52-2.886.806-4.446.806zm3.042-11.96c.286-.494.442-.962.442-1.404 0-.234-.052-.416-.156-.546a.57.57 0 0 0-.468-.208.59.59 0 0 0-.416.156c-.104.13-.156.286-.156.494 0 .234.078.468.182.676.13.234.312.52.572.832z"/><path id="S" d="M57.81 510.825c-.208.286-.546.52-.988.676-.442.182-.91.26-1.378.26-.546 0-.962-.156-1.3-.416-.338-.286-.52-.624-.52-1.066 0-.468.026-.806.104-.962-.442.754-1.014 1.326-1.69 1.768s-1.378.676-2.054.676c-1.248 0-2.262-.39-3.016-1.17s-1.118-1.82-1.092-3.094c0-1.612.39-3.302 1.196-5.018.832-1.716 1.846-3.146 3.094-4.29s2.47-1.716 3.666-1.716c1.17 0 2.08.182 2.678.546s.884.936.884 1.742c0 .234-.13.988-.39 2.288l-1.69 7.904c-.052.234-.052.468-.052.676s.052.364.156.468.286.156.546.156a.99.99 0 0 0 .572-.182c.208-.13.39-.286.546-.52l.728 1.274zm-7.748-.572c.884 0 1.742-.442 2.574-1.378.832-.91 1.482-2.106 1.924-3.562l.286-1.352.988-5.07c0-.338-.182-.572-.468-.728-.312-.13-.858-.182-1.638-.182-.858 0-1.794.494-2.782 1.508s-1.82 2.262-2.496 3.744-1.014 2.86-1.014 4.16c0 .884.26 1.56.728 2.08.494.52 1.118.78 1.898.78z"/><path id="T" d="M68.663 496.473c1.43 0 2.47.286 3.094.832.598.546.91 1.508.91 2.808 0 .962-.182 2.34-.52 4.108-.286 1.482-.754 2.782-1.404 3.926-.624 1.144-1.378 2.028-2.262 2.652-.884.65-1.82.962-2.86.962-.858 0-1.56-.104-2.158-.286s-.962-.442-1.092-.78l-1.118 5.018h-1.638l2.366-11.076c.026-.182.078-.364.156-.624.026-.208.052-.364.104-.494l.936-4.472c.026-.234.026-.39.026-.468 0-.182-.052-.338-.182-.442s-.286-.156-.52-.156a.99.99 0 0 0-.572.182 2.07 2.07 0 0 0-.546.52l-.728-1.274c.208-.286.546-.52.988-.676s.91-.26 1.378-.26c1.3 0 1.872.624 1.742 1.846a4.15 4.15 0 0 1 1.69-1.326c.728-.338 1.456-.52 2.21-.52zm1.976 7.54c.338-1.586.52-2.782.52-3.562 0-.91-.208-1.56-.598-1.924-.416-.364-1.092-.546-2.028-.546-1.196 0-2.184.39-2.938 1.222-.78.832-1.352 2.262-1.794 4.29l-.364 1.976c-.286 1.3-.416 2.262-.416 2.886 0 .546.104.962.286 1.248.182.26.468.442.832.52.39.104.91.13 1.612.13 1.092 0 2.08-.572 2.964-1.69.858-1.144 1.508-2.652 1.924-4.55z"/><path id="U" d="M79.855 510.201c.806 0 1.664-.208 2.574-.624s1.69-.962 2.34-1.638l.78 1.352c-.78.754-1.716 1.352-2.808 1.794s-2.132.676-3.12.676c-.754 0-1.456-.182-2.054-.572-.624-.364-1.092-.884-1.456-1.534-.338-.65-.52-1.404-.52-2.236v-.13c-.468.156-.806.364-1.066.598l-.702-1.3c.26-.364.884-.702 1.872-1.014.182-1.82.598-3.38 1.248-4.758.676-1.378 1.534-2.444 2.6-3.198a6 6 0 0 1 3.562-1.144c1.04 0 1.82.286 2.392.806s.858 1.326.858 2.392c0 1.378-.442 2.522-1.3 3.406-.858.91-1.872 1.586-3.016 2.054l-4.29 1.482-.598.156v.65c0 .806.26 1.482.78 2.002s1.17.78 1.924.78zm3.12-12.22a4.33 4.33 0 0 0-2.6.858c-.78.598-1.456 1.43-1.976 2.496-.52 1.092-.884 2.34-1.066 3.744l3.822-1.17c.962-.338 1.82-.858 2.548-1.56.728-.676 1.092-1.534 1.092-2.574 0-.572-.182-1.014-.52-1.326s-.78-.468-1.3-.468z"/><path id="V" d="M95.987 499.593c-.546 0-.936-.078-1.17-.234-.208-.156-.338-.416-.338-.78 0-.182.026-.39.078-.65.13-.546.312-.936.546-1.118.26-.182.676-.286 1.248-.286.546 0 .91.078 1.144.234s.338.416.338.78c0 .182-.026.416-.052.676-.13.52-.286.91-.546 1.092-.234.208-.65.286-1.248.286zm-2.574 12.168c-.546 0-.936-.078-1.17-.234-.208-.156-.338-.416-.338-.78 0-.208.026-.416.078-.676.13-.546.312-.91.546-1.118.26-.182.676-.26 1.248-.26.546 0 .91.078 1.144.234s.338.416.338.78c0 .156-.026.39-.052.65-.13.546-.312.91-.546 1.092-.234.208-.65.312-1.248.312z"/><path id="W" d="M124.585 514.855c-1.534 0-2.73-.676-3.562-2.028-.858-1.352-1.274-3.198-1.274-5.59 0-1.69.208-3.51.624-5.408.52-2.548 1.274-4.758 2.262-6.682.962-1.924 2.08-3.432 3.328-4.472 1.274-1.066 2.574-1.586 3.952-1.586l-.182 1.482c-1.04 0-2.08.494-3.094 1.456s-1.924 2.314-2.756 4.056c-.806 1.742-1.456 3.77-1.924 6.032-.442 1.95-.65 3.718-.65 5.278 0 1.872.312 3.328.91 4.394.598 1.04 1.43 1.586 2.548 1.586l-.182 1.482z"/><path id="X" d="M139.859 511.423h-1.612l1.066-5.018h-8.164l.26-1.352 11.024-12.532h1.456l-2.652 12.402h1.742l-.286 1.482h-1.768l-1.066 5.018zm1.768-15.782l-8.086 9.282h6.058l2.028-9.282z"/><path id="Y" d="M146.604 515.999l2.288-2.86c.442-.598.728-1.092.832-1.43-.39.026-.65-.026-.832-.156-.182-.156-.286-.39-.286-.754a2.46 2.46 0 0 1 .104-.728c.13-.546.312-.91.546-1.118.26-.182.676-.26 1.248-.26.546 0 .91.078 1.144.234s.338.416.338.806c0 .182-.026.39-.052.624-.208.936-.598 1.846-1.118 2.652-.546.832-1.404 1.872-2.626 3.094l-1.586-.104z"/><path id="Z" d="M160.24 513.373c1.04 0 2.08-.494 3.094-1.456s1.924-2.314 2.73-4.056c.806-1.768 1.456-3.77 1.95-6.032.442-1.976.65-3.744.65-5.304 0-1.872-.312-3.328-.884-4.368-.598-1.066-1.456-1.586-2.574-1.586l.182-1.482c1.534 0 2.73.676 3.562 2.028.858 1.326 1.274 3.198 1.274 5.59 0 1.69-.208 3.484-.624 5.408-.546 2.522-1.274 4.758-2.262 6.682-.962 1.924-2.08 3.406-3.328 4.472-1.274 1.066-2.574 1.586-3.952 1.586l.182-1.482z"/><path id="a" d="M462.414 510.825c-.182.286-.52.52-.962.676-.468.182-.91.26-1.378.26-.572 0-1.014-.156-1.352-.442a1.26 1.26 0 0 1-.468-1.092c-.052-1.248.572-4.004 1.846-8.294.26-.78.39-1.482.39-2.08 0-1.248-.676-1.872-1.976-1.872-.728 0-1.508.364-2.34 1.066-.832.728-1.56 1.612-2.21 2.678-.624 1.066-1.04 2.054-1.222 3.016l-1.43 6.682h-1.638l4.03-18.902h1.612l-1.612 7.54c.702-1.118 1.456-1.976 2.314-2.626.858-.624 1.716-.962 2.6-.962 2.34 0 3.536 1.014 3.536 3.016 0 .702-.182 1.56-.494 2.6l-1.3 4.628c-.338 1.352-.494 2.314-.52 2.912.026.208.104.364.234.468.104.104.286.156.52.156a1.05 1.05 0 0 0 .572-.182c.182-.13.39-.286.546-.52l.702 1.274z"/><path id="b" d="M548.973 510.045c.156-.728.52-1.404 1.04-2.028.52-.65 1.144-1.222 1.82-1.768.702-.546 1.638-1.196 2.834-1.976l3.25-2.34a13.02 13.02 0 0 0 2.21-2.262c.676-.858 1.118-1.768 1.326-2.782a4.74 4.74 0 0 0 .182-1.3c0-.728-.26-1.222-.754-1.508-.52-.26-1.378-.416-2.626-.416-1.118 0-1.976.13-2.626.338-.624.208-1.118.598-1.482 1.118s-.624 1.248-.806 2.158l-1.612-.104c.26-1.3.624-2.288 1.092-3.016.494-.702 1.144-1.196 2.002-1.508s2.002-.468 3.458-.468c1.794 0 3.068.234 3.848.702s1.144 1.274 1.144 2.418c0 .442-.078 1.066-.234 1.846a8.26 8.26 0 0 1-1.56 3.354 12.89 12.89 0 0 1-2.548 2.626c-.936.754-2.132 1.586-3.562 2.522l-3.302 2.366c-.728.624-1.196 1.274-1.404 1.976l9.62-.052-.312 1.482h-11.284l.286-1.378z"/><path id="c" d="M596.978 511.761c-1.69 0-2.912-.234-3.64-.702s-1.066-1.248-1.066-2.366a9.03 9.03 0 0 1 .234-1.95l1.586.13-.182 1.508c0 .702.234 1.196.702 1.482.442.26 1.248.39 2.392.39 1.014 0 1.82-.104 2.418-.364.624-.234 1.092-.65 1.456-1.222s.676-1.378.884-2.392c.182-.832.26-1.482.26-1.976 0-.728-.208-1.248-.598-1.56s-1.066-.494-2.028-.546h-1.924l.286-1.534h1.82c.884-.052 1.586-.208 2.132-.416.52-.208.936-.572 1.248-1.066s.572-1.222.754-2.132c.13-.598.208-1.066.208-1.404 0-.754-.234-1.248-.702-1.534s-1.274-.442-2.392-.442c-1.04 0-1.872.104-2.47.312-.598.182-1.066.52-1.404.988-.312.468-.572 1.118-.754 1.976l-1.586-.13c.234-1.196.598-2.132 1.04-2.808a3.81 3.81 0 0 1 1.924-1.404c.806-.286 1.898-.416 3.276-.416 1.664 0 2.86.234 3.588.728s1.092 1.3 1.092 2.444c0 .598-.078 1.274-.234 1.95-.234 1.17-.572 2.054-1.014 2.652-.416.572-1.092 1.092-2.002 1.534.468.286.832.65 1.04 1.066s.338.936.338 1.586c0 .546-.104 1.326-.312 2.392-.286 1.326-.676 2.366-1.17 3.12a3.94 3.94 0 0 1-1.95 1.612c-.832.338-1.898.494-3.25.494z"/></defs></svg>