<svg xmlns="http://www.w3.org/2000/svg" xmlns:xlink="http://www.w3.org/1999/xlink" width="1946" height="755" fill-rule="evenodd" stroke-linecap="round" stroke-linejoin="round" stroke-miterlimit="1.5" xmlns:v="https://vecta.io/nano"><style><![CDATA[.U{fill-rule:nonzero}.V{stroke-width:4.17}.W{fill:#9cecb1}.X{stroke:#198334}.Y{fill:#f6bbf8}.Z{stroke:#99109e}.a{fill:#404040}.b{fill:#fff}.c{stroke:#ebebeb}.d{stroke-width:8.49}]]></style><g transform="matrix(1 0 0 .963824 -765.2008 -177.9958)"><path d="M769.368 189h327v42h-327z" fill="#ebebeb" class="c d"/><g class="U"><use xlink:href="#A"/><use xlink:href="#B"/><use xlink:href="#C"/><use xlink:href="#A" x="55.555"/><use xlink:href="#D"/><path d="M933.396 218.948v-14.875h-5.325v-3.025h14.225v3.025h-5.3v14.875h-3.6zm18.191 0v-17.9h7.6c1.925 0 3.325.175 4.175.475.875.325 1.575.9 2.075 1.725.525.825.8 1.775.8 2.825 0 1.35-.4 2.45-1.2 3.325-.775.875-1.95 1.425-3.525 1.65.775.45 1.425.95 1.925 1.5s1.2 1.525 2.05 2.9l2.2 3.5h-4.325l-2.625-3.9-1.9-2.625c-.325-.35-.7-.6-1.075-.75-.375-.125-1-.2-1.825-.2h-.725v7.475h-3.625zm3.625-10.325h2.675c1.725 0 2.8-.075 3.25-.225.425-.15.75-.4 1-.75s.375-.8.375-1.35c0-.6-.175-1.075-.5-1.45-.3-.375-.775-.6-1.35-.7-.3-.05-1.175-.075-2.625-.075h-2.825v4.55z"/><use xlink:href="#B" x="112.024"/><path d="M991.612 218.948l-4.275-17.9h3.7l2.7 12.3 3.275-12.3h4.3l3.15 12.5 2.725-12.5h3.65l-4.35 17.9h-3.825l-3.575-13.375-3.55 13.375h-3.925z"/><use xlink:href="#E"/></g><path d="M769.367 231H1668v732H769.367z" fill="none" class="c d"/></g><g transform="matrix(1 0 0 .963824 273.265 -177.9958)"><path d="M769.368 189h327v42h-327z" fill="#ebebeb" class="c d"/><g class="U"><use xlink:href="#A" x="-24.053" y="-.006"/><use xlink:href="#B" x="-24.054" y="-.006"/><use xlink:href="#C" x="-24.053" y="-.006"/><use xlink:href="#A" x="31.501" y="-.006"/><use xlink:href="#D" x="-24.054" y="-.006"/><path d="M909.342 218.942v-14.875h-5.325v-3.025h14.225v3.025h-5.3v14.875h-3.6z"/><use xlink:href="#A" x="87.971" y="-.006"/><use xlink:href="#B" x="87.97" y="-.006"/><path d="M965.134 218.942v-17.75h3.6v14.725h9v3.025h-12.6zm15.146-17.9h3.6v9.7c0 1.525.05 2.525.15 3 .15.725.525 1.3 1.1 1.75s1.375.675 2.375.675c1.025 0 1.8-.225 2.325-.625.525-.425.825-.95.95-1.55.1-.625.15-1.625.15-3.05v-9.9h3.625v9.4c0 2.15-.1 3.675-.3 4.55-.2.9-.55 1.65-1.075 2.25-.525.625-1.225 1.1-2.125 1.45-.875.375-2.025.55-3.425.55-1.725 0-3-.2-3.9-.575-.875-.4-1.575-.925-2.1-1.55-.5-.625-.85-1.3-1-1.975-.25-1.025-.35-2.55-.35-4.55v-9.55zm18.029 17.9v-17.9h5.4l3.25 12.2 3.2-12.2h5.425v17.9h-3.35v-14.075l-3.55 14.075h-3.475l-3.55-14.075v14.075h-3.35z"/><use xlink:href="#C" x="142.121" y="-.006"/><use xlink:href="#E" x="24.555" y="-.006"/></g><path d="M769.367 231H1668v732H769.367z" fill="none" class="c d"/></g><path d="M71.034 170.161h58v58h-58z" class="V W X"/><path d="M101.462 209.863h4.502v1.989H94.761v-1.989h4.502V191.75c-1.326 1.152-3.036 1.745-5.13 1.745v-2.059c1.571 0 2.827-.419 3.734-1.326.907-.873 1.361-2.094 1.361-3.63h2.234v23.384z" class="U"/><path d="M410.034 260.461h58v58h-58z" class="V W X"/><use xlink:href="#F" class="U"/><use xlink:href="#y" class="V Y Z"/><g class="U"><path d="M101.282 537.864h4.502v1.989H94.581v-1.989h4.502V519.75c-1.326 1.152-3.036 1.745-5.13 1.745v-2.059c1.571 0 2.827-.419 3.734-1.326.907-.873 1.361-2.094 1.361-3.63h2.234v23.384z"/><use xlink:href="#F" x="-.376" y="203.032"/></g><path d="M143.034 170.161h58v58h-58z" class="V W X"/><use xlink:href="#G" class="U"/><path d="M482.034 260.461h58v58h-58z" class="V W X"/><use xlink:href="#G" x="339" y="90.299" class="U"/><use xlink:href="#y" x="72" class="V Y Z"/><g class="U"><use xlink:href="#G" x="-.18" y="328"/><use xlink:href="#G" x="338.624" y="293.331"/></g><path d="M215.034 170.161h58v58h-58z" class="V W X"/><use xlink:href="#H" class="U"/><path d="M554.034 260.461h58v58h-58z" class="V W X"/><use xlink:href="#H" x="339" y="90.299" class="U"/><path d="M214.854 498.161h58v58h-58zm410.079-34.668h58v58h-58z" class="V Y Z"/><g class="U"><use xlink:href="#F" x="205.381" y="203.032"/><use xlink:href="#I"/><use xlink:href="#J"/><use xlink:href="#I" x="-410.079" y="34.669"/></g><path d="M71.034 237.526h58v58h-58z" class="V W X"/><path d="M92.737 277.473c0-.977.279-1.885.803-2.757s1.187-1.675 1.989-2.373l3.211-2.687 3.7-3.106c.907-.873 1.71-1.85 2.338-2.967.663-1.117.977-2.338.977-3.7 0-1.187-.175-2.094-.489-2.722s-.873-1.082-1.64-1.361-1.885-.419-3.316-.419-2.548.14-3.316.454c-.768.279-1.326.768-1.64 1.431-.279.663-.419 1.64-.419 2.897h-2.199c-.035-1.71.175-3.071.663-4.049.454-.977 1.222-1.675 2.338-2.094 1.082-.419 2.618-.628 4.572-.628s3.455.209 4.572.593c1.082.419 1.885 1.082 2.338 2.024.489.907.733 2.199.733 3.874s-.384 3.211-1.117 4.572c-.768 1.361-1.675 2.548-2.757 3.525-1.047 1.012-2.408 2.129-4.049 3.385-1.675 1.291-2.932 2.373-3.734 3.211s-1.222 1.71-1.326 2.652h12.913v1.989H92.737v-1.745z" class="U"/><path d="M410.034 327.826h58v58h-58z" class="V W X"/><use xlink:href="#K" class="U"/><use xlink:href="#y" y="67.365" class="V Y Z"/><g class="U"><path d="M92.557 605.473c0-.977.279-1.885.803-2.757s1.187-1.675 1.989-2.373l3.211-2.687 3.7-3.106c.907-.873 1.71-1.85 2.338-2.967.663-1.117.977-2.338.977-3.7 0-1.187-.175-2.094-.489-2.722s-.873-1.082-1.64-1.361-1.885-.419-3.316-.419-2.548.14-3.316.454c-.768.279-1.326.768-1.64 1.431-.279.663-.419 1.64-.419 2.897h-2.199c-.035-1.71.175-3.071.663-4.049.454-.977 1.222-1.675 2.338-2.094 1.082-.419 2.618-.628 4.572-.628s3.455.209 4.572.593c1.082.419 1.885 1.082 2.338 2.024.489.907.733 2.199.733 3.874s-.384 3.211-1.117 4.572c-.768 1.361-1.675 2.548-2.757 3.525-1.047 1.012-2.408 2.129-4.049 3.385-1.675 1.291-2.932 2.373-3.734 3.211s-1.222 1.71-1.326 2.652h12.913v1.989H92.557v-1.745z"/><use xlink:href="#K" x="-.376" y="203.032"/></g><path d="M143.034 237.526h58v58h-58z" class="V W X"/><use xlink:href="#L" class="U"/><path d="M482.034 327.826h58v58h-58z" class="V W X"/><use xlink:href="#L" x="339" y="90.3" class="U"/><use xlink:href="#y" x="72" y="67.365" class="V Y Z"/><g class="U"><use xlink:href="#L" x="-.18" y="328.001"/><use xlink:href="#L" x="338.624" y="293.332"/></g><path d="M215.034 237.526h58v58h-58z" class="V W X"/><use xlink:href="#M" class="U"/><path d="M554.034 327.826h58v58h-58z" class="V W X"/><use xlink:href="#M" x="339" y="90.3" class="U"/><path d="M214.854 565.526h58v58h-58zm409.822-33.953h58v58h-58z" class="V Y Z"/><g class="U"><use xlink:href="#F" x="205.124" y="271.112"/><use xlink:href="#F" x="224.16" y="271.112"/><use xlink:href="#F" x="-204.698" y="305.066"/><use xlink:href="#F" x="-185.662" y="305.066"/></g><g class="V W X"><use xlink:href="#z"/><use xlink:href="#z"/></g><g class="U"><use xlink:href="#N"/><use xlink:href="#N" x="338.624" y="90.768"/></g><use xlink:href="#y" y="134.73" class="V Y Z"/><g class="U"><path d="M105.505 674.583h-2.164v-6.736H92.382v-1.815l11.238-16.822h1.885v16.648h2.373v1.989h-2.373v6.736zm-2.164-21.185l-8.237 12.46h8.237v-12.46z"/><use xlink:href="#G" x="266.624" y="428.061"/></g><g class="V W X"><use xlink:href="#z" x="72"/><use xlink:href="#z" x="72"/></g><g class="U"><use xlink:href="#O"/><use xlink:href="#O" x="338.624" y="90.768"/></g><use xlink:href="#y" x="72" y="134.73" class="V Y Z"/><g class="U"><use xlink:href="#M" x="-72.18" y="395.366"/><use xlink:href="#M" x="266.624" y="360.697"/></g><g class="V W X"><use xlink:href="#z" x="144"/><use xlink:href="#z" x="144"/></g><g class="U"><use xlink:href="#P"/><use xlink:href="#P" x="338.624" y="90.768"/></g><path d="M214.854 632.891h58v58h-58zm409.822-33.238h58v58h-58z" class="V Y Z"/><g class="U"><use xlink:href="#F" x="205.124" y="339.192"/><use xlink:href="#K" x="224.16" y="271.827"/><use xlink:href="#Q"/><use xlink:href="#K" x="-185.662" y="305.066"/><g class="a"><use xlink:href="#R"/><use xlink:href="#S"/><use xlink:href="#T"/><use xlink:href="#U"/><use xlink:href="#V"/><use xlink:href="#R" x="339" y="90.299"/><use xlink:href="#S" x="339" y="90.299"/><use xlink:href="#T" x="338.999" y="90.299"/><use xlink:href="#U" x="339" y="90.3"/><use xlink:href="#V" x="339" y="90.299"/><use xlink:href="#R" x="-.18" y="328"/><use xlink:href="#S" x="-.18" y="328"/><use xlink:href="#T" x="-.181" y="328"/><use xlink:href="#U" x="-.18" y="328"/><use xlink:href="#V" x="-.18" y="328"/><use xlink:href="#R" x="72"/><use xlink:href="#S" x="72"/><use xlink:href="#T" x="72"/><use xlink:href="#U" x="72"/><use xlink:href="#W"/><use xlink:href="#R" x="411" y="90.299"/><use xlink:href="#S" x="411" y="90.299"/><use xlink:href="#T" x="410.999" y="90.299"/><use xlink:href="#U" x="411" y="90.3"/><use xlink:href="#W" x="339" y="90.299"/><use xlink:href="#R" x="71.82" y="328"/><use xlink:href="#S" x="71.82" y="328"/><use xlink:href="#T" x="71.819" y="328"/><use xlink:href="#U" x="71.82" y="328"/><use xlink:href="#W" x="-.18" y="328"/><use xlink:href="#R" x="144"/><use xlink:href="#S" x="144"/><use xlink:href="#T" x="144"/><use xlink:href="#U" x="144"/><use xlink:href="#R" x="192.066"/><use xlink:href="#R" x="483" y="90.299"/><use xlink:href="#S" x="483" y="90.299"/><use xlink:href="#T" x="482.999" y="90.299"/><use xlink:href="#U" x="483" y="90.3"/><use xlink:href="#R" x="531.066" y="90.299"/><use xlink:href="#R" x="143.82" y="328"/><use xlink:href="#S" x="143.82" y="328"/><use xlink:href="#T" x="143.819" y="328"/><use xlink:href="#U" x="143.82" y="328"/><use xlink:href="#X"/><use xlink:href="#R" x="554.359" y="90.299"/><use xlink:href="#S" x="554.359" y="90.299"/><use xlink:href="#T" x="554.358" y="90.299"/><use xlink:href="#U" x="554.359" y="90.3"/><use xlink:href="#X" x="410.539" y="-237.701"/></g><g fill="#b3b3b3"><use xlink:href="#Y"/><use xlink:href="#Y" x="339" y="90.299"/><use xlink:href="#Y" x="-.18" y="327.43"/><use xlink:href="#Y" x="338.624" y="292.762"/><use xlink:href="#Z"/><use xlink:href="#Z" x="339" y="90.299"/><use xlink:href="#Z" x=".417" y="328"/><use xlink:href="#Z" x="339.221" y="293.332"/><use xlink:href="#a"/><use xlink:href="#b"/><use xlink:href="#a"/><use xlink:href="#b"/><path d="M41.173 671.925c0-1.1.267-2.1.867-3.033.6-.967 1.333-1.8 2.2-2.533.867-.767 2-1.633 3.4-2.633l3.2-2.5c.767-.667 1.4-1.4 1.933-2.2.533-.833.8-1.7.8-2.633 0-1-.133-1.767-.367-2.267-.267-.5-.7-.833-1.333-1.067-.6-.2-1.567-.3-2.8-.3s-2.133.1-2.767.3c-.633.233-1.067.567-1.3 1.067-.267.5-.4 1.267-.4 2.267l.033.933h-3.467c-.1-1.967.1-3.5.567-4.6.5-1.133 1.3-1.933 2.467-2.433s2.767-.733 4.867-.733c1.967 0 3.533.233 4.7.667s2 1.167 2.533 2.167c.5.967.767 2.333.767 4 0 1.467-.367 2.8-1.1 4-.733 1.233-1.633 2.267-2.633 3.167-1.033.9-2.367 1.933-3.967 3.1-1.367.933-2.4 1.733-3.133 2.4s-1.233 1.3-1.5 1.967h12.267v3.2H41.173v-2.3z"/><use xlink:href="#b" y="202.206"/></g><use xlink:href="#c"/><use xlink:href="#d"/><use xlink:href="#Z" x="141.449" y="-162.539"/><use xlink:href="#e"/><use xlink:href="#f"/><use xlink:href="#g"/><use xlink:href="#h"/><use xlink:href="#i"/><use xlink:href="#j"/><use xlink:href="#h" x="40.909"/><use xlink:href="#k"/><use xlink:href="#l"/><use xlink:href="#m"/><use xlink:href="#f" x="122.727"/><use xlink:href="#n"/><use xlink:href="#o"/><use xlink:href="#p"/><use xlink:href="#f" x="190.909"/><use xlink:href="#n" x="68.182"/><use xlink:href="#q"/><use xlink:href="#r"/><g fill="#2399c0"><path d="M707.854 189.284v2.4h-2.425l-.5 3.875h2.475v2.4h-2.8l-.6 4.75h-2.625l.625-4.75h-3.175l-.6 4.75h-2.6l.625-4.75h-2.125v-2.4h2.425l.5-3.875h-2.45v-2.4h2.775l.625-4.75h2.6l-.6 4.75h3.15l.625-4.75h2.575l-.6 4.75h2.1zm-8.7 6.275h3.15l.525-3.875h-3.15l-.525 3.875z"/><use xlink:href="#k" x="218.181"/><use xlink:href="#s"/><path d="M757.45 188.659v11.65h3.975v2.4H750.85v-2.4h4v-9.225h-2.875v-2.425h5.475zm-1.725-2.05c-.75 0-1.275-.125-1.55-.4-.275-.25-.425-.75-.425-1.45 0-.725.15-1.2.425-1.475.275-.25.8-.4 1.55-.4s1.275.15 1.575.4c.275.275.425.75.425 1.475 0 .7-.15 1.2-.425 1.45-.3.275-.825.4-1.575.4z"/><use xlink:href="#t"/><use xlink:href="#AA"/><use xlink:href="#u"/><path d="M805.396 202.709v-14.05h2.6v1.175c.375-.4.825-.75 1.4-1.05s1.2-.45 1.875-.45c.875 0 1.6.125 2.175.375.575.225 1.075.6 1.5 1.125.4.525.775 1.25 1.125 2.175l-2.35 1.075c-.2-.675-.4-1.175-.575-1.5-.2-.3-.425-.525-.7-.65s-.675-.175-1.175-.175c-1.175 0-2.025.4-2.525 1.2-.5.825-.75 2-.75 3.55v7.2h-2.6z"/><use xlink:href="#i" x="354.546"/><path d="M835.519 202.709h-2.325l-2.625-14.05h2.625l1.55 8.675 1.475-4.8h2.275l1.45 4.75 1.575-8.625h2.65l-2.675 14.05h-2.325l-1.8-5.325-1.85 5.325z"/><use xlink:href="#t" x="81.819"/><use xlink:href="#u" x="68.181"/></g><use xlink:href="#c" x=".034" y="328"/><use xlink:href="#d" x=".034" y="328"/><use xlink:href="#b" x="-197.445" y="6.758"/></g><path d="M624.873 260.457h58v58h-58z" class="a"/><g class="U b"><use xlink:href="#v"/><use xlink:href="#w"/><use xlink:href="#v" x="31.818"/></g><path d="M624.933 328.047h58v58h-58z" class="a"/><g class="U b"><use xlink:href="#v" x=".06" y="67.59"/><use xlink:href="#w" x=".06" y="67.59"/><use xlink:href="#v" x="31.878" y="67.59"/></g><path d="M624.677 395.412h58v58h-58z" class="a"/><g class="U b"><use xlink:href="#v" x="-.196" y="134.955"/><use xlink:href="#w" x="-.196" y="134.955"/><use xlink:href="#v" x="31.622" y="134.955"/></g><path d="M555.061 463.492h58v58h-58z" class="a"/><g class="U b"><use xlink:href="#v" x="-69.812" y="203.035"/><use xlink:href="#w" x="-69.812" y="203.035"/><use xlink:href="#v" x="-37.994" y="203.035"/></g><path d="M555.061 531.326h58v58h-58z" class="a"/><g class="U b"><use xlink:href="#v" x="-69.812" y="270.869"/><use xlink:href="#w" x="-69.812" y="270.869"/><use xlink:href="#v" x="-37.994" y="270.869"/></g><path d="M555.061 599.159h58v58h-58z" class="a"/><g class="U b"><use xlink:href="#v" x="-69.812" y="338.702"/><use xlink:href="#w" x="-69.812" y="338.702"/><use xlink:href="#v" x="-37.994" y="338.702"/></g><path d="M765.353 368.079h28.417v130.56h26.387l-40.595 40.6-40.596-40.6h26.387v-130.56z" fill="#a6a6a6"/><path d="M1101.584 170.161h58v58h-58z" class="V W X"/><path d="M1132.009 209.863h4.502v1.989h-11.203v-1.989h4.502V191.75c-1.326 1.152-3.036 1.745-5.13 1.745v-2.059c1.571 0 2.827-.419 3.734-1.326.907-.873 1.361-2.094 1.361-3.63h2.234v23.384z" class="U"/><path d="M1440.584 260.461h58v58h-58z" class="V W X"/><use xlink:href="#F" x="1030.547" class="U"/><use xlink:href="#AB" class="V Y Z"/><g class="U"><use xlink:href="#J" x="896.065"/><use xlink:href="#F" x="1245.907"/></g><path d="M1173.584 170.161h58v58h-58z" class="V W X"/><use xlink:href="#G" x="1030.547" class="U"/><path d="M1512.584 260.461h58v58h-58z" class="V W X"/><use xlink:href="#G" x="1369.547" y="90.299" class="U"/><use xlink:href="#AB" x="72" class="V Y Z"/><g class="U"><use xlink:href="#G" x="1030.367" y="328"/><use xlink:href="#G" x="1584.907" y="90.299"/></g><path d="M1245.584 170.161h58v58h-58z" class="V W X"/><use xlink:href="#H" x="1030.547" class="U"/><path d="M1584.584 260.461h58v58h-58z" class="V W X"/><use xlink:href="#H" x="1369.547" y="90.299" class="U"/><use xlink:href="#AB" x="144" class="V Y Z"/><g class="U"><use xlink:href="#J" x="1030.547"/><use xlink:href="#I" x="620.468" y="34.669"/><use xlink:href="#F" x="1380.389"/><use xlink:href="#I" x="1175.008" y="-203.032"/></g><path d="M1101.584 237.526h58v58h-58z" class="V W X"/><use xlink:href="#K" x="691.547" y="-90.299" class="U"/><path d="M1440.584 327.826h58v58h-58z" class="V W X"/><use xlink:href="#K" x="1030.547" class="U"/><use xlink:href="#AB" y="67.365" class="V Y Z"/><g class="U"><use xlink:href="#K" x="691.367" y="237.701"/><use xlink:href="#K" x="1245.907"/></g><path d="M1173.584 237.526h58v58h-58z" class="V W X"/><use xlink:href="#L" x="1030.547" class="U"/><path d="M1512.584 327.826h58v58h-58z" class="V W X"/><use xlink:href="#L" x="1369.547" y="90.3" class="U"/><use xlink:href="#AB" x="72" y="67.365" class="V Y Z"/><g class="U"><use xlink:href="#L" x="1030.367" y="328.001"/><use xlink:href="#L" x="1584.907" y="90.3"/></g><path d="M1245.584 237.526h58v58h-58z" class="V W X"/><use xlink:href="#M" x="1030.547" class="U"/><path d="M1584.584 327.826h58v58h-58z" class="V W X"/><use xlink:href="#M" x="1369.547" y="90.3" class="U"/><use xlink:href="#AB" x="144" y="67.365" class="V Y Z"/><g class="U"><use xlink:href="#F" x="825.849" y="305.066"/><use xlink:href="#F" x="844.885" y="305.066"/><use xlink:href="#x"/><use xlink:href="#x" x="19.036"/></g><g class="V W X"><use xlink:href="#AC"/><use xlink:href="#AC"/></g><g class="U"><use xlink:href="#N" x="1030.547"/><use xlink:href="#N" x="1369.167" y="90.768"/></g><use xlink:href="#AB" y="134.73" class="V Y Z"/><g class="U"><use xlink:href="#G" x="958.367" y="462.73"/><use xlink:href="#G" x="1512.907" y="225.029"/></g><g class="V W X"><use xlink:href="#AC" x="72"/><use xlink:href="#AC" x="72"/></g><g class="U"><use xlink:href="#O" x="1030.547"/><use xlink:href="#O" x="1369.167" y="90.768"/></g><use xlink:href="#AB" x="72" y="134.73" class="V Y Z"/><g class="U"><use xlink:href="#M" x="958.367" y="395.366"/><use xlink:href="#M" x="1512.907" y="157.665"/></g><g class="V W X"><use xlink:href="#AC" x="144"/><use xlink:href="#AC" x="144"/></g><g class="U"><use xlink:href="#P" x="1030.547"/><use xlink:href="#P" x="1369.167" y="90.768"/></g><use xlink:href="#AB" x="144" y="134.73" class="V Y Z"/><g class="U"><use xlink:href="#Q" x="1030.547"/><use xlink:href="#K" x="844.885" y="305.066"/><use xlink:href="#F" x="1380.389" y="134.73"/><use xlink:href="#K" x="1399.425" y="67.365"/><g class="a"><use xlink:href="#R" x="1030.546"/><use xlink:href="#S" x="1030.546"/><use xlink:href="#T" x="1030.545"/><use xlink:href="#U" x="1030.546"/><use xlink:href="#V" x="1030.546"/><use xlink:href="#R" x="1369.548" y="90.299"/><use xlink:href="#S" x="1369.548" y="90.299"/><use xlink:href="#T" x="1369.547" y="90.299"/><use xlink:href="#U" x="1369.548" y="90.3"/><use xlink:href="#V" x="1369.548" y="90.299"/><use xlink:href="#R" x="1030.365" y="328"/><use xlink:href="#S" x="1030.365" y="328"/><use xlink:href="#T" x="1030.364" y="328"/><use xlink:href="#U" x="1030.365" y="328"/><use xlink:href="#V" x="1030.365" y="328"/><use xlink:href="#R" x="1584.908" y="90.299"/><use xlink:href="#S" x="1584.908" y="90.299"/><use xlink:href="#T" x="1584.907" y="90.299"/><use xlink:href="#U" x="1584.908" y="90.3"/><use xlink:href="#V" x="1584.908" y="90.299"/><use xlink:href="#R" x="1102.548"/><use xlink:href="#S" x="1102.548"/><use xlink:href="#T" x="1102.547"/><use xlink:href="#U" x="1102.548"/><use xlink:href="#W" x="1030.548"/><use xlink:href="#R" x="1441.548" y="90.299"/><use xlink:href="#S" x="1441.548" y="90.299"/><use xlink:href="#T" x="1441.547" y="90.299"/><use xlink:href="#U" x="1441.548" y="90.3"/><use xlink:href="#W" x="1369.548" y="90.299"/><use xlink:href="#R" x="1102.368" y="328"/><use xlink:href="#S" x="1102.368" y="328"/><use xlink:href="#T" x="1102.367" y="328"/><use xlink:href="#U" x="1102.368" y="328"/><use xlink:href="#W" x="1030.368" y="328"/><use xlink:href="#R" x="1656.908" y="90.299"/><use xlink:href="#S" x="1656.908" y="90.299"/><use xlink:href="#T" x="1656.907" y="90.299"/><use xlink:href="#U" x="1656.908" y="90.3"/><use xlink:href="#W" x="1584.908" y="90.299"/><use xlink:href="#R" x="1174.548"/><use xlink:href="#S" x="1174.548"/><use xlink:href="#T" x="1174.547"/><use xlink:href="#U" x="1174.548"/><use xlink:href="#R" x="1222.614"/><use xlink:href="#R" x="1513.548" y="90.299"/><use xlink:href="#S" x="1513.548" y="90.299"/><use xlink:href="#T" x="1513.547" y="90.299"/><use xlink:href="#U" x="1513.548" y="90.3"/><use xlink:href="#R" x="1561.614" y="90.299"/><use xlink:href="#R" x="1174.368" y="328"/><use xlink:href="#S" x="1174.368" y="328"/><use xlink:href="#T" x="1174.367" y="328"/><use xlink:href="#U" x="1174.368" y="328"/><use xlink:href="#X" x="1030.548"/><use xlink:href="#R" x="1728.908" y="90.299"/><use xlink:href="#S" x="1728.908" y="90.299"/><use xlink:href="#T" x="1728.907" y="90.299"/><use xlink:href="#U" x="1728.908" y="90.3"/><use xlink:href="#X" x="1585.088" y="-237.701"/></g><g fill="#b3b3b3"><use xlink:href="#Y" x="1030.546"/><use xlink:href="#Y" x="1369.546" y="90.299"/><use xlink:href="#Y" x="1030.366" y="327.43"/><use xlink:href="#Z" x="1030.546"/><use xlink:href="#Z" x="1369.546" y="90.299"/><use xlink:href="#Z" x="1030.966" y="328"/><use xlink:href="#b" x="691.919" y="-90.768"/><use xlink:href="#b" x="1030.549"/><use xlink:href="#b" x="691.919" y="-90.768"/><use xlink:href="#b" x="1030.549"/><use xlink:href="#b" x="691.739" y="236.874"/></g><use xlink:href="#c" x="1030.55"/><use xlink:href="#d" x="1030.55"/><use xlink:href="#Z" x="1171.999" y="-162.539"/><use xlink:href="#e" x="1030.549"/><use xlink:href="#f" x="1030.549"/><use xlink:href="#g" x="1030.549"/><use xlink:href="#h" x="1030.549"/><use xlink:href="#i" x="1030.549"/><use xlink:href="#j" x="1030.549"/><use xlink:href="#h" x="1071.458"/><use xlink:href="#k" x="1030.549"/><use xlink:href="#l" x="1030.549"/><use xlink:href="#m" x="1030.549"/><use xlink:href="#f" x="1153.276"/><use xlink:href="#n" x="1030.549"/><use xlink:href="#o" x="1030.549"/><use xlink:href="#p" x="1030.549"/><use xlink:href="#f" x="1221.458"/><use xlink:href="#n" x="1098.731"/><use xlink:href="#q" x="1030.549"/><use xlink:href="#p" x="1098.732"/><use xlink:href="#k" x="1207.822"/><use xlink:href="#s" x="989.64"/><path d="M1747.09 188.659v11.65h3.975v2.4h-10.575v-2.4h4v-9.225h-2.875v-2.425h5.475zm-1.725-2.05c-.75 0-1.275-.125-1.55-.4-.275-.25-.425-.75-.425-1.45 0-.725.15-1.2.425-1.475.275-.25.8-.4 1.55-.4s1.275.15 1.575.4c.275.275.425.75.425 1.475 0 .7-.15 1.2-.425 1.45-.3.275-.825.4-1.575.4z"/><use xlink:href="#t" x="989.64"/><use xlink:href="#AA" x="989.639"/><g fill="#f54a4a"><use xlink:href="#u" x="989.64"/><use xlink:href="#h" x="1344.185"/><use xlink:href="#i" x="1344.186"/><path d="M1829.333 203.034c-1.05 0-1.875-.175-2.45-.475-.6-.325-1-.85-1.25-1.6s-.375-1.8-.375-3.125v-10.9h-2.875v-2.4h5.475v13.3c0 1.05.125 1.775.325 2.175s.6.6 1.15.6c.275 0 .575-.075.875-.275.325-.175.75-.5 1.325-.975l1.45 2.225c-.675.55-1.275.925-1.8 1.125-.5.225-1.125.325-1.85.325zm10.912 0c-1.225 0-2.2-.2-2.9-.575-.725-.35-1.225-.95-1.55-1.8-.325-.825-.475-1.975-.475-3.4v-8.6h2.625v8.6c0 .925.05 1.65.175 2.1.125.475.375.8.7.975.325.2.8.275 1.425.275.95 0 1.65-.075 2.1-.225.475-.15.8-.425.975-.8s.275-.95.275-1.725v-9.2h2.625v14.05h-2.625v-.225c-.8.35-1.9.55-3.35.55zm7.761-.325v-14.05h2.6v-.075c.7-.15 1.225-.225 1.65-.225.575 0 1.025.1 1.35.25s.65.45.95.9c.375-.45.775-.75 1.15-.9.35-.15.875-.25 1.5-.25.875 0 1.525.175 2 .55.5.35.825.95 1.025 1.775.225.825.325 2 .325 3.475v8.55h-2.625v-8.55c0-1.2-.05-2.05-.175-2.5s-.35-.675-.675-.675c-.4 0-.675.075-.9.25-.2.175-.35.475-.45.9s-.15 1.025-.15 1.775v8.8h-2.6v-8.4c0-1.275-.075-2.125-.2-2.6-.125-.5-.35-.725-.675-.725-.375 0-.7.075-.9.25s-.375.475-.45.9c-.1.425-.15 1.025-.15 1.775v8.8h-2.6z"/><use xlink:href="#j" x="1385.095"/><use xlink:href="#t" x="1112.368"/><use xlink:href="#u" x="1098.73"/></g><use xlink:href="#r" x="1248.73"/><use xlink:href="#c" x="1030.582" y="328"/><use xlink:href="#d" x="1030.582" y="328"/><use xlink:href="#b" x="833.103" y="6.758"/></g><path d="M1440.119 543.601v-28.417h130.56v-26.387l40.6 40.595-40.6 40.596v-26.387h-130.56z" fill="#a6a6a6"/><defs><path id="A" d="M851.013 212.373l3.5 1.1c-.55 1.95-1.425 3.4-2.675 4.35s-2.85 1.425-4.75 1.425c-2.4 0-4.35-.8-5.875-2.425s-2.3-3.85-2.3-6.675c0-2.975.775-5.275 2.325-6.925 1.525-1.65 3.55-2.475 6.05-2.475 2.2 0 3.975.65 5.35 1.95.8.75 1.425 1.85 1.825 3.275l-3.575.875c-.225-.925-.65-1.675-1.325-2.2-.675-.55-1.5-.8-2.45-.8-1.325 0-2.4.475-3.225 1.425s-1.25 2.475-1.25 4.625c0 2.25.425 3.875 1.225 4.825a4.02 4.02 0 0 0 3.175 1.45c.95 0 1.8-.325 2.475-.925.7-.6 1.2-1.575 1.5-2.875z"/><path id="B" d="M856.868 210.098c0-1.8.275-3.35.825-4.575.4-.925.975-1.725 1.675-2.45s1.475-1.275 2.3-1.625c1.125-.475 2.4-.7 3.875-.7 2.625 0 4.75.825 6.325 2.45 1.575 1.65 2.375 3.925 2.375 6.825s-.8 5.15-2.35 6.775c-1.575 1.65-3.675 2.45-6.3 2.45-2.675 0-4.775-.8-6.35-2.425s-2.375-3.875-2.375-6.725zm3.725-.1c0 2.025.475 3.55 1.425 4.6.925 1.05 2.1 1.575 3.55 1.575s2.625-.525 3.55-1.575c.925-1.025 1.375-2.575 1.375-4.65 0-2.05-.45-3.6-1.35-4.6s-2.075-1.5-3.575-1.5c-1.475 0-2.675.5-3.6 1.525-.9 1.025-1.375 2.55-1.375 4.625z"/><path id="C" d="M877.088 218.948v-17.9h3.525l7.325 11.95v-11.95h3.35v17.9h-3.625l-7.225-11.675v11.675h-3.35z"/><path id="D" d="M929.297 218.948h-3.925l-1.55-4.075h-7.175l-1.475 4.075h-3.825l6.975-17.9h3.825l7.15 17.9zm-6.65-7.075l-2.45-6.65-2.425 6.65h4.875z"/><path id="E" d="M1011.759 213.123l3.525-.35c.2 1.2.625 2.05 1.275 2.6.65.575 1.525.85 2.625.85 1.175 0 2.05-.25 2.625-.75.6-.5.9-1.075.9-1.725a1.61 1.61 0 0 0-.375-1.075c-.25-.3-.7-.55-1.3-.775-.425-.15-1.4-.425-2.9-.775-1.925-.5-3.3-1.075-4.075-1.775-1.1-1-1.65-2.2-1.65-3.6 0-.925.25-1.775.775-2.575.525-.775 1.25-1.4 2.225-1.8.975-.425 2.15-.625 3.525-.625 2.25 0 3.95.5 5.075 1.475 1.15.975 1.725 2.3 1.8 3.95l-3.625.15c-.15-.925-.475-1.575-1-1.975-.5-.4-1.275-.6-2.275-.6-1.05 0-1.875.2-2.475.625-.375.3-.575.65-.575 1.125 0 .425.175.775.55 1.075.45.4 1.55.8 3.3 1.2 1.775.425 3.075.85 3.9 1.3a4.99 4.99 0 0 1 2 1.8c.475.775.7 1.725.7 2.875 0 1.025-.275 1.975-.85 2.875s-1.375 1.55-2.425 2c-1.025.425-2.325.65-3.875.65-2.275 0-4-.525-5.225-1.575-1.2-1.05-1.925-2.575-2.175-4.575z"/><path id="F" d="M440.462 300.163h4.502v1.989h-11.203v-1.989h4.502v-18.114c-1.326 1.152-3.036 1.745-5.13 1.745v-2.059c1.571 0 2.827-.419 3.734-1.326.907-.873 1.361-2.094 1.361-3.63h2.234v23.384z"/><path id="G" d="M177.685 211.853h-2.164v-6.736h-10.959v-1.815L175.8 186.48h1.885v16.648h2.373v1.989h-2.373v6.736zm-2.164-21.185l-8.237 12.46h8.237v-12.46z"/><path id="H" d="M239.529 211.853a78.96 78.96 0 0 1 3.874-11.448c1.605-3.804 3.595-7.783 5.968-11.936h-12.599v-1.989h14.973v1.989c-2.373 4.188-4.398 8.167-6.003 11.936a73.87 73.87 0 0 0-3.909 11.448h-2.303z"/><path id="I" d="M663.762 505.638c-1.431 0-2.757-.558-3.909-1.675s-2.094-2.652-2.757-4.677c-.698-1.989-1.012-4.258-1.012-6.806 0-2.513.314-4.781 1.012-6.806.663-1.989 1.605-3.525 2.757-4.642s2.478-1.675 3.909-1.675 2.722.558 3.909 1.675 2.094 2.652 2.792 4.642c.663 2.024 1.012 4.293 1.012 6.806 0 2.548-.349 4.816-1.012 6.806-.698 2.024-1.605 3.56-2.792 4.677s-2.478 1.675-3.909 1.675zm0-2.024c.977 0 1.885-.454 2.722-1.396.838-.977 1.536-2.303 2.024-3.979.524-1.71.768-3.595.768-5.759 0-2.129-.244-4.049-.768-5.724-.489-1.71-1.187-3.036-2.024-3.979s-1.745-1.431-2.722-1.431-1.885.489-2.722 1.431c-.873.942-1.536 2.269-2.024 3.979-.489 1.675-.768 3.595-.768 5.724 0 2.164.279 4.049.768 5.759.489 1.675 1.152 3.002 2.024 3.979.838.942 1.745 1.396 2.722 1.396zm0-9.354c-.558 0-1.012-.14-1.361-.489-.349-.314-.524-.733-.524-1.291 0-.489.175-.907.524-1.222s.803-.489 1.361-.489c.524 0 1.012.175 1.361.489s.524.733.524 1.222c0 .558-.175.977-.524 1.291-.349.349-.838.489-1.361.489z"/><path id="J" d="M235.764 537.864h4.502v1.989h-11.203v-1.989h4.502V519.75c-1.326 1.152-3.036 1.745-5.13 1.745v-2.059c1.571 0 2.827-.419 3.734-1.326.907-.873 1.361-2.094 1.361-3.63h2.234v23.384z"/><path id="K" d="M431.737 367.772c0-.977.279-1.885.803-2.757s1.187-1.675 1.989-2.373l3.211-2.687 3.7-3.106c.907-.873 1.71-1.85 2.338-2.967.663-1.117.977-2.338.977-3.7 0-1.187-.175-2.094-.489-2.722s-.873-1.082-1.64-1.361-1.885-.419-3.316-.419-2.548.14-3.316.454c-.768.279-1.326.768-1.64 1.431-.279.663-.419 1.64-.419 2.897h-2.199c-.035-1.71.175-3.071.663-4.049.454-.977 1.222-1.675 2.338-2.094 1.082-.419 2.618-.628 4.572-.628s3.455.209 4.572.593c1.082.419 1.885 1.082 2.338 2.024.489.907.733 2.199.733 3.874s-.384 3.211-1.117 4.572c-.768 1.361-1.675 2.548-2.757 3.525-1.047 1.012-2.408 2.129-4.049 3.385-1.675 1.291-2.932 2.373-3.734 3.211s-1.222 1.71-1.326 2.652h12.913v1.989h-15.147v-1.745z"/><path id="L" d="M172.345 279.671c-1.92 0-3.42-.209-4.502-.593s-1.815-1.047-2.269-1.954c-.454-.873-.698-2.164-.698-3.769h2.199c0 1.152.14 2.024.454 2.618.279.593.803 1.047 1.571 1.291.733.279 1.815.384 3.246.384 1.466 0 2.618-.175 3.42-.558s1.361-1.012 1.71-1.885c.349-.907.524-2.164.524-3.769 0-1.64-.175-2.897-.524-3.769-.349-.907-.907-1.501-1.71-1.885s-1.954-.558-3.42-.558c-.838 0-1.605.14-2.269.419-.698.314-1.571.803-2.583 1.536h-1.989v-13.332h13.891v1.954h-11.692v8.97c.663-.593 1.326-.977 2.024-1.222.663-.244 1.536-.349 2.618-.349 1.989 0 3.56.244 4.677.768 1.117.489 1.954 1.361 2.443 2.513.489 1.187.733 2.862.733 4.956s-.244 3.734-.733 4.921c-.489 1.152-1.326 2.024-2.443 2.513-1.152.524-2.687.803-4.677.803z"/><path id="M" d="M244.345 279.671c-1.989 0-3.525-.244-4.607-.698a4.5 4.5 0 0 1-2.373-2.303c-.489-1.082-.733-2.548-.733-4.432 0-1.256.105-2.303.279-3.141.209-.803.558-1.466 1.012-1.989s1.117-1.012 1.954-1.396c-.977-.593-1.64-1.256-1.989-2.059s-.524-1.989-.524-3.56c0-1.71.209-3.036.628-3.979.454-.977 1.152-1.675 2.164-2.094s2.408-.628 4.188-.628 3.141.209 4.153.628a4.04 4.04 0 0 1 2.199 2.094c.419.942.663 2.269.663 3.979 0 1.571-.209 2.757-.558 3.56-.384.803-1.047 1.466-1.989 2.059 1.222.593 2.059 1.361 2.548 2.303s.733 2.338.733 4.223-.244 3.351-.733 4.432c-.489 1.047-1.291 1.815-2.408 2.303-1.117.454-2.652.698-4.607.698zm0-14.903c1.256 0 2.234-.14 2.932-.384.698-.279 1.152-.768 1.466-1.431.279-.663.419-1.605.419-2.862 0-1.222-.14-2.164-.419-2.827-.314-.663-.803-1.152-1.501-1.431-.698-.314-1.675-.454-2.897-.454-1.256 0-2.234.14-2.897.454a2.57 2.57 0 0 0-1.466 1.431c-.279.663-.454 1.605-.454 2.827 0 1.256.175 2.234.454 2.897a2.67 2.67 0 0 0 1.431 1.396c.663.244 1.64.384 2.932.384zm0 12.879c1.466 0 2.583-.14 3.351-.489.803-.314 1.361-.873 1.675-1.64.349-.803.524-1.885.524-3.281 0-1.466-.175-2.583-.489-3.316-.349-.768-.907-1.326-1.675-1.64-.803-.314-1.92-.454-3.385-.454s-2.583.14-3.385.454c-.768.314-1.326.873-1.64 1.64-.349.733-.489 1.85-.489 3.316 0 1.431.14 2.513.489 3.281.314.768.873 1.326 1.64 1.64.803.349 1.92.489 3.385.489z"/><path id="N" d="M100.345 347.037c-1.885 0-3.316-.209-4.363-.628-1.047-.454-1.78-1.117-2.199-2.059-.454-.942-.698-2.269-.698-3.944h2.199c0 1.222.14 2.164.419 2.827.314.628.803 1.117 1.536 1.396.698.279 1.745.384 3.106.384 1.291 0 2.338-.14 3.036-.454a2.84 2.84 0 0 0 1.571-1.605c.314-.733.454-1.78.454-3.141 0-1.431-.14-2.548-.384-3.316-.279-.768-.733-1.326-1.361-1.675s-1.536-.558-2.687-.628h-2.513v-2.059h2.513c1.152-.07 2.059-.244 2.687-.558.628-.279 1.082-.733 1.361-1.361.244-.628.384-1.536.384-2.722 0-1.222-.14-2.199-.454-2.862s-.838-1.152-1.571-1.431c-.698-.279-1.745-.454-3.036-.454-1.396 0-2.443.14-3.141.384a2.63 2.63 0 0 0-1.501 1.291c-.279.593-.419 1.466-.419 2.618h-2.199c0-1.605.244-2.862.663-3.769.454-.873 1.187-1.536 2.199-1.92 1.047-.384 2.513-.593 4.398-.593 1.815 0 3.281.209 4.328.628s1.78 1.117 2.234 2.094.698 2.303.698 4.014c0 1.571-.209 2.757-.628 3.56s-1.152 1.501-2.234 2.094c1.082.628 1.815 1.396 2.234 2.373.419.942.628 2.373.628 4.293 0 1.815-.244 3.246-.698 4.293a4.12 4.12 0 0 1-2.234 2.234c-1.047.454-2.513.698-4.328.698z"/><path id="O" d="M172.345 347.037c-1.92 0-3.385-.279-4.467-.768-1.082-.524-1.85-1.361-2.303-2.513s-.698-2.792-.698-4.851v-9.388c0-2.234.244-3.979.698-5.235s1.222-2.164 2.303-2.687c1.082-.558 2.548-.838 4.467-.838 1.885 0 3.351.209 4.432.593 1.047.384 1.815 1.047 2.303 1.92.489.907.698 2.129.698 3.7h-2.164c0-1.082-.175-1.954-.489-2.548a2.82 2.82 0 0 0-1.64-1.291c-.733-.244-1.78-.384-3.141-.384-1.396 0-2.443.209-3.211.628-.733.419-1.256 1.117-1.605 2.059-.314.977-.454 2.338-.454 4.083v3.246a4.66 4.66 0 0 1 2.024-1.605c.803-.314 1.885-.454 3.246-.454 1.92 0 3.42.244 4.467.733 1.082.489 1.85 1.326 2.303 2.513.489 1.152.698 2.792.698 4.921 0 2.059-.209 3.7-.698 4.851-.454 1.187-1.222 2.024-2.303 2.513-1.082.524-2.583.803-4.467.803zm0-2.024c1.361 0 2.443-.175 3.211-.558.733-.384 1.291-1.012 1.605-1.885s.489-2.094.489-3.7c0-1.64-.175-2.897-.489-3.769s-.838-1.501-1.605-1.85-1.815-.524-3.211-.524-2.478.175-3.211.524-1.256.977-1.605 1.85c-.314.907-.454 2.164-.454 3.804 0 1.605.14 2.862.454 3.7.349.873.873 1.501 1.605 1.885.768.349 1.815.524 3.211.524z"/><path id="P" d="M244.345 347.037c-1.885 0-3.351-.209-4.432-.593s-1.85-1.047-2.303-1.954c-.489-.873-.733-2.129-.733-3.665h2.199c0 1.082.175 1.92.489 2.548.314.593.873 1.012 1.605 1.291.768.244 1.815.349 3.176.349s2.443-.175 3.211-.593c.733-.419 1.291-1.117 1.605-2.059.314-.977.489-2.338.489-4.083v-3.246c-.593.803-1.291 1.326-2.094 1.605-.768.314-1.85.454-3.211.454-1.92 0-3.42-.244-4.467-.733-1.082-.489-1.85-1.326-2.303-2.513s-.698-2.827-.698-4.921.244-3.7.698-4.851c.454-1.187 1.222-2.024 2.303-2.548s2.548-.768 4.467-.768c1.885 0 3.385.244 4.467.768 1.082.489 1.85 1.326 2.303 2.513.489 1.152.698 2.757.698 4.851v9.388c0 2.199-.209 3.944-.698 5.2-.454 1.256-1.222 2.164-2.303 2.722s-2.583.838-4.467.838zm0-11.971c1.396 0 2.443-.175 3.211-.524.768-.384 1.291-.977 1.605-1.885.314-.873.489-2.129.489-3.769 0-1.605-.175-2.827-.489-3.7s-.873-1.501-1.605-1.885c-.768-.349-1.85-.558-3.211-.558-1.396 0-2.443.209-3.211.558-.733.384-1.256 1.012-1.605 1.885-.314.873-.454 2.129-.454 3.734 0 1.64.14 2.897.454 3.769.349.873.873 1.466 1.605 1.85.733.349 1.815.524 3.211.524z"/><path id="Q" d="M235.764 672.594h4.502v1.989h-11.203v-1.989h4.502V654.48c-1.326 1.152-3.036 1.745-5.13 1.745v-2.059c1.571 0 2.827-.419 3.734-1.326.907-.873 1.361-2.094 1.361-3.63h2.234v23.384z"/><path id="R" d="M75.92 157.438c-1.344 0-2.379-.22-3.172-.661-.771-.441-1.322-1.124-1.652-2.049-.352-.925-.529-2.181-.529-3.767 0-1.564.176-2.82.529-3.767.33-.925.903-1.608 1.674-2.049.793-.441 1.873-.661 3.238-.661 1.146 0 2.093.22 2.776.639.705.397 1.366 1.146 2.005 2.203l-1.917 1.124c-.33-.507-.617-.903-.859-1.146a1.86 1.86 0 0 0-.815-.529c-.308-.11-.705-.154-1.19-.154-.837 0-1.476.132-1.917.397-.441.242-.771.683-.947 1.3s-.264 1.498-.264 2.644.088 2.027.264 2.644.485 1.057.925 1.322c.419.242 1.035.375 1.851.375.485 0 .881-.044 1.19-.154s.595-.286.859-.551a7.66 7.66 0 0 0 .925-1.168l1.895 1.168c-.661 1.057-1.344 1.806-2.049 2.225-.705.397-1.652.617-2.82.617z"/><path id="S" d="M87.585 157.438c-1.256 0-2.225-.22-2.93-.661-.727-.441-1.234-1.124-1.542-2.071-.33-.925-.485-2.181-.485-3.745s.154-2.798.485-3.745c.308-.925.815-1.63 1.542-2.071.705-.441 1.674-.661 2.93-.661 1.234 0 2.225.22 2.93.661.727.441 1.256 1.146 1.564 2.071.308.947.463 2.181.463 3.745s-.154 2.82-.463 3.745c-.308.947-.837 1.63-1.564 2.071-.705.441-1.696.661-2.93.661zm0-2.137c.683 0 1.234-.132 1.608-.375.375-.264.639-.705.815-1.322.154-.639.242-1.498.242-2.644 0-1.124-.088-2.005-.242-2.622-.176-.639-.441-1.079-.815-1.322-.375-.264-.925-.397-1.608-.397-.705 0-1.234.132-1.608.397-.375.242-.639.683-.793 1.322-.176.617-.242 1.498-.242 2.622 0 1.146.066 2.005.242 2.644.154.617.419 1.057.793 1.322.375.242.903.375 1.608.375z"/><path id="T" d="M101.65 157.438c-.925 0-1.652-.154-2.159-.419-.529-.286-.881-.749-1.102-1.41s-.33-1.586-.33-2.754v-9.605h-2.533v-2.115h4.825v11.72c0 .925.11 1.564.286 1.917s.529.529 1.013.529c.242 0 .507-.066.771-.242.286-.154.661-.441 1.168-.859l1.278 1.961c-.595.485-1.124.815-1.586.991-.441.198-.991.286-1.63.286z"/><path id="U" d="M105.537 158.671h12.139v2.115h-12.139z"/><path id="V" d="M123.105 157.438c-1.168 0-2.115-.132-2.82-.397-.683-.286-1.19-.705-1.52-1.256-.308-.573-.463-1.322-.463-2.269 0-1.079.154-1.895.463-2.489.308-.573.793-.991 1.498-1.212.683-.242 1.63-.352 2.842-.352h2.533v-.441c0-.573-.088-.991-.22-1.3s-.397-.529-.749-.661c-.352-.11-.881-.176-1.564-.176-.551 0-.991.044-1.278.154-.286.132-.529.33-.683.617s-.308.749-.463 1.344l-2.203-.551c.242-.947.551-1.696.903-2.269s.837-.991 1.432-1.278c.617-.264 1.366-.419 2.291-.419 1.74 0 2.974.375 3.723 1.124.727.749 1.102 1.873 1.102 3.415v4.692c0 .529.066.903.154 1.079.11.176.352.264.683.264.11 0 .352-.022.727-.044v2.115c-.154.022-.375.022-.661.022-1.168 0-1.961-.264-2.401-.793-.352.375-.815.661-1.344.815-.529.176-1.19.264-1.983.264zm0-2.137c.683 0 1.212-.066 1.564-.242.352-.154.617-.419.749-.815.132-.375.22-.947.22-1.674v-.991h-2.533c-.749 0-1.3.044-1.63.11-.308.088-.529.242-.661.507-.154.264-.22.705-.22 1.322 0 .485.066.859.22 1.102.132.242.375.419.727.529s.881.154 1.564.154z"/><path id="W" d="M195.876 157.438c-1.19 0-2.137-.154-2.842-.485-.705-.308-1.388-.859-1.983-1.652v-14.166h2.291v3.789c.771-.286 1.608-.441 2.533-.441 1.19 0 2.137.22 2.842.661s1.212 1.146 1.52 2.071c.308.947.463 2.181.463 3.767 0 1.564-.154 2.82-.463 3.745s-.815 1.608-1.52 2.049-1.652.661-2.842.661zm0-2.137c.639 0 1.146-.132 1.52-.375.352-.264.617-.705.771-1.322s.22-1.476.22-2.622-.066-2.005-.22-2.644c-.154-.617-.419-1.057-.771-1.322-.375-.264-.881-.397-1.52-.397-.705 0-1.234.066-1.586.22s-.595.441-.727.837c-.154.397-.22.991-.22 1.784v5.111c.33.286.661.485 1.013.595.33.088.837.132 1.52.132z"/><path id="X" d="M267.343 485.438c-1.234 0-2.225-.22-2.93-.661s-1.234-1.124-1.542-2.049-.463-2.181-.463-3.745c0-1.586.154-2.82.463-3.767.308-.925.837-1.63 1.542-2.071s1.696-.661 2.93-.661c.947 0 1.851.176 2.688.485v-3.833h2.313v16.016h-2.313v-.132c-.771.264-1.674.419-2.688.419zm0-2.137c.925 0 1.608-.088 2.027-.308.441-.198.661-.485.661-.837v-4.737c0-.969-.22-1.674-.639-2.115-.419-.463-1.102-.683-2.049-.683-.683 0-1.234.132-1.608.397s-.639.705-.793 1.322c-.154.639-.242 1.498-.242 2.644s.088 2.005.242 2.622.419 1.057.793 1.322c.375.242.925.375 1.608.375z"/><path id="Y" d="M48.983 212.287c-1.5 0-2.867-.567-4.1-1.633-1.233-1.1-2.2-2.6-2.9-4.533-.7-1.9-1.033-4.033-1.033-6.4 0-2.333.333-4.467 1.033-6.367.7-1.933 1.667-3.433 2.9-4.533s2.6-1.633 4.1-1.633 2.833.533 4.067 1.633 2.233 2.6 2.933 4.533c.7 1.9 1.067 4.033 1.067 6.367 0 2.367-.367 4.5-1.067 6.4-.7 1.933-1.7 3.433-2.933 4.533-1.233 1.067-2.567 1.633-4.067 1.633zm0-3.233c.767 0 1.5-.4 2.2-1.233s1.267-1.967 1.7-3.4.633-3 .633-4.7-.2-3.267-.633-4.7-1-2.567-1.7-3.367c-.7-.833-1.433-1.267-2.2-1.267s-1.5.433-2.233 1.267c-.7.8-1.267 1.933-1.7 3.367-.4 1.433-.633 3-.633 4.7s.233 3.267.633 4.7c.433 1.433 1 2.567 1.7 3.4.733.833 1.467 1.233 2.233 1.233zm0-7c-.733 0-1.333-.2-1.8-.633s-.7-1-.7-1.7c0-.667.233-1.2.7-1.633.467-.4 1.067-.633 1.8-.633s1.333.233 1.8.633c.467.433.7.967.7 1.633 0 .7-.233 1.267-.7 1.7s-1.067.633-1.8.633z"/><path id="Z" d="M50.717 275.448h4.333v3.2h-12.1v-3.2h4.3v-14.3c-1.367.8-3 1.2-4.9 1.2v-3.233c1.633 0 2.833-.4 3.633-1.133.8-.767 1.2-1.967 1.2-3.567h3.533v21.033z"/><path id="a" d="M41.353 344.283c0-1.1.267-2.1.867-3.033.6-.967 1.333-1.8 2.2-2.533.867-.767 2-1.633 3.4-2.633l3.2-2.5c.767-.667 1.4-1.4 1.933-2.2.533-.833.8-1.7.8-2.633 0-1-.133-1.767-.367-2.267-.267-.5-.7-.833-1.333-1.067-.6-.2-1.567-.3-2.8-.3s-2.133.1-2.767.3c-.633.233-1.067.567-1.3 1.067-.267.5-.4 1.267-.4 2.267l.033.933h-3.467c-.1-1.967.1-3.5.567-4.6.5-1.133 1.3-1.933 2.467-2.433s2.767-.733 4.867-.733c1.967 0 3.533.233 4.7.667s2 1.167 2.533 2.167c.5.967.767 2.333.767 4 0 1.467-.367 2.8-1.1 4-.733 1.233-1.633 2.267-2.633 3.167-1.033.9-2.367 1.933-3.967 3.1-1.367.933-2.4 1.733-3.133 2.4s-1.233 1.3-1.5 1.967h12.267v3.2H41.353v-2.3z"/><path id="b" d="M379.977 435.051c0-1.1.267-2.1.867-3.033.6-.967 1.333-1.8 2.2-2.533.867-.767 2-1.633 3.4-2.633l3.2-2.5c.767-.667 1.4-1.4 1.933-2.2.533-.833.8-1.7.8-2.633 0-1-.133-1.767-.367-2.267-.267-.5-.7-.833-1.333-1.067-.6-.2-1.567-.3-2.8-.3s-2.133.1-2.767.3c-.633.233-1.067.567-1.3 1.067-.267.5-.4 1.267-.4 2.267l.033.933h-3.467c-.1-1.967.1-3.5.567-4.6.5-1.133 1.3-1.933 2.467-2.433s2.767-.733 4.867-.733c1.967 0 3.533.233 4.7.667s2 1.167 2.533 2.167c.5.967.767 2.333.767 4 0 1.467-.367 2.8-1.1 4-.733 1.233-1.633 2.267-2.633 3.167-1.033.9-2.367 1.933-3.967 3.1-1.367.933-2.4 1.733-3.133 2.4s-1.233 1.3-1.5 1.967h12.267v3.2h-15.833v-2.3z"/><path id="c" d="M153.902 116.542c-1.867 0-3.367-.333-4.433-1s-1.867-1.7-2.333-3.1-.7-3.3-.7-5.667c0-2.4.233-4.267.7-5.7.467-1.4 1.267-2.467 2.333-3.133s2.567-1 4.433-1c1.433 0 2.8.267 4.067.733v-5.8h3.5v24.233h-3.5v-.2c-1.167.4-2.533.633-4.067.633zm0-3.233c1.4 0 2.433-.133 3.067-.467.667-.3 1-.733 1-1.267v-7.167c0-1.467-.333-2.533-.967-3.2-.633-.7-1.667-1.033-3.1-1.033-1.033 0-1.867.2-2.433.6s-.967 1.067-1.2 2c-.233.967-.367 2.267-.367 4s.133 3.033.367 3.967.633 1.6 1.2 2c.567.367 1.4.567 2.433.567z"/><path id="d" d="M174.717 91.442c1.367 0 2.467.133 3.3.4s1.5.7 2 1.267c.5.6.867 1.433 1.167 2.5l-3.267 1.1c-.167-.633-.333-1.067-.5-1.333s-.467-.433-.833-.567c-.4-.1-1-.167-1.867-.167-.9 0-1.567.133-2.033.333-.433.2-.733.567-.933 1.133-.167.533-.267 1.333-.267 2.433v1.733h5.4v3.233h-5.4v12.6h-3.5v-12.6h-3.733v-3.233h3.733v-1.733c0-1.767.233-3.167.667-4.167.433-1.033 1.133-1.767 2.133-2.233.967-.467 2.3-.7 3.933-.7z"/><path id="e" d="M409.141 206.834v-18.175h2.625v.15c.875-.3 1.9-.475 3.025-.475 1.4 0 2.525.25 3.35.75.8.5 1.4 1.275 1.75 2.325.35 1.075.55 2.475.55 4.25s-.2 3.2-.55 4.275c-.35 1.05-.95 1.85-1.75 2.35-.825.5-1.95.75-3.35.75a8.66 8.66 0 0 1-3.025-.55v4.35h-2.625zm5.65-6.225c.8 0 1.4-.15 1.825-.45.45-.3.75-.8.925-1.5s.275-1.7.275-3c0-1.275-.1-2.275-.275-2.975s-.475-1.2-.925-1.475c-.425-.3-1.025-.45-1.825-.45-2.025 0-3.025.425-3.025 1.325v5.35c0 1.1.25 1.9.7 2.4.475.525 1.25.775 2.325.775z"/><path id="f" d="M428.152 203.034c-1.4 0-2.525-.25-3.325-.75s-1.4-1.275-1.75-2.325-.525-2.475-.525-4.25c0-1.8.175-3.2.525-4.275.35-1.05.95-1.85 1.75-2.35s1.925-.75 3.325-.75a8.8 8.8 0 0 1 3.05.55v-4.35h2.625v18.175h-2.625v-.15c-.875.3-1.9.475-3.05.475zm0-2.425c1.05 0 1.825-.1 2.3-.35.5-.225.75-.55.75-.95v-5.375c0-1.1-.25-1.9-.725-2.4-.475-.525-1.25-.775-2.325-.775-.775 0-1.4.15-1.825.45s-.725.8-.9 1.5c-.175.725-.275 1.7-.275 3s.1 2.275.275 2.975.475 1.2.9 1.5c.425.275 1.05.425 1.825.425z"/><path id="g" d="M441.914 203.034c-.8 0-1.325-.15-1.625-.425s-.45-.775-.45-1.5.15-1.225.45-1.5.825-.425 1.625-.425c.775 0 1.325.15 1.625.425s.425.775.425 1.5-.125 1.225-.425 1.5-.85.425-1.625.425z"/><path id="h" d="M455.95 203.034c-1.525 0-2.7-.25-3.6-.75-.875-.5-1.5-1.275-1.875-2.325-.4-1.05-.6-2.475-.6-4.275 0-1.775.2-3.2.6-4.275.375-1.05 1.025-1.825 1.9-2.325.9-.5 2.125-.75 3.675-.75 1.3 0 2.375.25 3.15.725.8.45 1.55 1.3 2.275 2.5l-2.175 1.275c-.375-.575-.7-1.025-.975-1.3a2.11 2.11 0 0 0-.925-.6c-.35-.125-.8-.175-1.35-.175-.95 0-1.675.15-2.175.45-.5.275-.875.775-1.075 1.475s-.3 1.7-.3 3 .1 2.3.3 3 .55 1.2 1.05 1.5c.475.275 1.175.425 2.1.425.55 0 1-.05 1.35-.175s.675-.325.975-.625.65-.725 1.05-1.325l2.15 1.325c-.75 1.2-1.525 2.05-2.325 2.525-.8.45-1.875.7-3.2.7z"/><path id="i" d="M469.186 203.034c-1.425 0-2.525-.25-3.325-.75-.825-.5-1.4-1.275-1.75-2.35-.375-1.05-.55-2.475-.55-4.25s.175-3.175.55-4.25c.35-1.05.925-1.85 1.75-2.35.8-.5 1.9-.75 3.325-.75 1.4 0 2.525.25 3.325.75.825.5 1.425 1.3 1.775 2.35.35 1.075.525 2.475.525 4.25s-.175 3.2-.525 4.25c-.35 1.075-.95 1.85-1.775 2.35-.8.5-1.925.75-3.325.75zm0-2.425c.775 0 1.4-.15 1.825-.425.425-.3.725-.8.925-1.5.175-.725.275-1.7.275-3 0-1.275-.1-2.275-.275-2.975-.2-.725-.5-1.225-.925-1.5-.425-.3-1.05-.45-1.825-.45-.8 0-1.4.15-1.825.45-.425.275-.725.775-.9 1.5-.2.7-.275 1.7-.275 2.975 0 1.3.075 2.275.275 3 .175.7.475 1.2.9 1.5.425.275 1.025.425 1.825.425z"/><path id="j" d="M477.498 202.709v-14.05h2.625v.35c.95-.45 2.05-.675 3.325-.675 1.3 0 2.3.2 3 .55s1.2.95 1.5 1.8c.3.825.45 2.025.45 3.55v8.475h-2.625v-8.475c0-.9-.075-1.6-.225-2.1-.125-.5-.375-.85-.7-1.05-.325-.225-.8-.325-1.4-.325-.975 0-1.7.075-2.175.25-.45.175-.775.5-.925.925-.15.45-.225 1.125-.225 2.05v8.725h-2.625z"/><path id="k" d="M509.496 203.034c-1.325 0-2.4-.15-3.2-.45-.775-.325-1.35-.8-1.725-1.425-.35-.65-.525-1.5-.525-2.575 0-1.225.175-2.15.525-2.825.35-.65.9-1.125 1.7-1.375.775-.275 1.85-.4 3.225-.4h2.875v-.5c0-.65-.1-1.125-.25-1.475s-.45-.6-.85-.75c-.4-.125-1-.2-1.775-.2-.625 0-1.125.05-1.45.175-.325.15-.6.375-.775.7s-.35.85-.525 1.525l-2.5-.625c.275-1.075.625-1.925 1.025-2.575s.95-1.125 1.625-1.45c.7-.3 1.55-.475 2.6-.475 1.975 0 3.375.425 4.225 1.275.825.85 1.25 2.125 1.25 3.875v5.325c0 .6.075 1.025.175 1.225.125.2.4.3.775.3.125 0 .4-.025.825-.05v2.4c-.175.025-.425.025-.75.025-1.325 0-2.225-.3-2.725-.9a3.4 3.4 0 0 1-1.525.925c-.6.2-1.35.3-2.25.3zm0-2.425c.775 0 1.375-.075 1.775-.275a1.49 1.49 0 0 0 .85-.925c.15-.425.25-1.075.25-1.9v-1.125h-2.875c-.85 0-1.475.05-1.85.125-.35.1-.6.275-.75.575-.175.3-.25.8-.25 1.5 0 .55.075.975.25 1.25.15.275.425.475.825.6s1 .175 1.775.175z"/><path id="l" d="M525.207 203.034c-1.1 0-2-.2-2.675-.575-.65-.375-1.15-.975-1.45-1.8-.325-.825-.475-1.925-.475-3.275v-6.575h-2.825v-2.425h2.825v-3.85h2.625v3.85h4.7v2.425h-4.7v6.575c0 .85.05 1.5.175 1.975.125.45.325.775.6.975s.675.275 1.2.275c.55 0 .95-.025 1.2-.1s.45-.225.55-.425c.125-.175.25-.525.4-1l2.45.825c-.225.8-.525 1.4-.875 1.85-.375.45-.85.775-1.425.975s-1.35.3-2.3.3z"/><path id="m" d="M541.294 206.009c-1.525 0-2.85-.525-4.025-1.55s-2.075-2.475-2.7-4.35c-.65-1.875-.95-4.025-.95-6.5 0-2.45.3-4.6.95-6.475.625-1.875 1.525-3.325 2.7-4.35s2.5-1.55 4.025-1.55v2.4c-1 0-1.875.425-2.65 1.25s-1.35 2-1.775 3.5-.65 3.25-.65 5.225c0 2 .225 3.75.65 5.25s1 2.675 1.775 3.5 1.65 1.225 2.65 1.225v2.425z"/><path id="n" d="M566.491 184.209c1.025 0 1.85.1 2.475.3s1.125.525 1.5.95c.375.45.65 1.075.875 1.875l-2.45.825c-.125-.475-.25-.8-.375-1s-.35-.325-.625-.425c-.3-.075-.75-.125-1.4-.125-.675 0-1.175.1-1.525.25-.325.15-.55.425-.7.85-.125.4-.2 1-.2 1.825v1.3h4.05v2.425h-4.05v9.45h-2.625v-9.45h-2.8v-2.425h2.8v-1.3c0-1.325.175-2.375.5-3.125.325-.775.85-1.325 1.6-1.675.725-.35 1.725-.525 2.95-.525z"/><path id="o" d="M579.577 200.309h3.25v2.4h-9.075v-2.4h3.225v-10.725c-1.025.6-2.25.9-3.675.9v-2.425c1.225 0 2.125-.3 2.725-.85.6-.575.9-1.475.9-2.675h2.65v15.775z"/><path id="p" d="M589.288 207.159c.775-1.05 1.3-1.875 1.6-2.475s.45-1.125.45-1.625c-.575 0-.975-.15-1.175-.425-.225-.275-.325-.775-.325-1.525 0-.725.15-1.225.45-1.5s.825-.425 1.625-.425c.775 0 1.325.15 1.625.425s.425.775.425 1.5c0 1.125-.175 2.125-.575 3-.375.875-1.075 1.9-2.1 3.05h-2z"/><path id="q" d="M640.509 200.984c0-.825.2-1.575.65-2.275.45-.725 1-1.35 1.65-1.9.65-.575 1.5-1.225 2.55-1.975l2.4-1.875a8.18 8.18 0 0 0 1.45-1.65c.4-.625.6-1.275.6-1.975 0-.75-.1-1.325-.275-1.7-.2-.375-.525-.625-1-.8-.45-.15-1.175-.225-2.1-.225s-1.6.075-2.075.225c-.475.175-.8.425-.975.8-.2.375-.3.95-.3 1.7l.025.7h-2.6c-.075-1.475.075-2.625.425-3.45.375-.85.975-1.45 1.85-1.825s2.075-.55 3.65-.55c1.475 0 2.65.175 3.525.5s1.5.875 1.9 1.625c.375.725.575 1.75.575 3a5.64 5.64 0 0 1-.825 3c-.55.925-1.225 1.7-1.975 2.375-.775.675-1.775 1.45-2.975 2.325-1.025.7-1.8 1.3-2.35 1.8s-.925.975-1.125 1.475h9.2v2.4h-11.875v-1.725z"/><path id="r" d="M656.171 203.584c1 0 1.9-.4 2.65-1.225.775-.825 1.375-2 1.8-3.5s.625-3.25.625-5.25c0-1.975-.2-3.725-.625-5.225s-1.025-2.675-1.8-3.5c-.75-.825-1.65-1.25-2.65-1.25v-2.4c1.525 0 2.875.525 4.025 1.55 1.175 1.025 2.075 2.475 2.7 4.35.65 1.875.975 4.025.975 6.475 0 2.475-.325 4.625-.975 6.5-.625 1.875-1.525 3.325-2.7 4.35-1.15 1.025-2.5 1.55-4.025 1.55v-2.425z"/><path id="s" d="M745.038 188.659h3l-4.625 7.025 4.625 7.025h-3l-3.125-4.75-3.15 4.75h-3l4.65-7.025-4.65-7.025h3l3.15 4.75 3.125-4.75z"/><path id="t" d="M768.611 203.034c-1.25 0-2.25-.225-3-.7-.725-.45-1.375-1.25-1.975-2.4l2.075-1.7c.3.7.55 1.2.775 1.525s.5.525.8.675c.325.125.775.175 1.325.175 1.05 0 1.825-.05 2.375-.175.525-.125.875-.325 1.075-.6s.3-.675.3-1.225c0-.525-.075-.9-.25-1.15-.15-.25-.425-.425-.85-.55-.4-.125-1.1-.25-2.05-.35-1.85-.225-3.175-.65-3.975-1.225-.825-.575-1.25-1.5-1.25-2.75 0-1.025.2-1.85.575-2.45.375-.625 1-1.075 1.825-1.35.825-.3 1.95-.45 3.35-.45 1.35 0 2.375.2 3.125.6s1.425 1.1 2.025 2.1l-1.9 1.85c-.35-.625-.625-1.075-.875-1.35-.25-.3-.55-.5-.875-.6-.35-.125-.85-.175-1.5-.175-.85 0-1.5.05-1.95.15s-.75.3-.925.55-.25.625-.25 1.125c0 .35.1.625.275.8.175.2.45.325.825.425l1.675.275c1.425.225 2.55.475 3.35.8.8.3 1.375.75 1.725 1.325.35.6.525 1.4.525 2.4 0 1.075-.2 1.925-.625 2.575-.4.625-1.075 1.1-2 1.4-.95.3-2.2.45-3.75.45z"/><path id="u" d="M797.734 192.884h-2.55l-.3-8.35h3.125l-.275 8.35z"/><path id="v" d="M642.041 295.829v-17.267h1.808v21.204h-1.983l-8.021-17.296v17.296h-1.838v-21.204h1.954l8.079 17.267z"/><path id="w" d="M653.138 300.146c-1.458 0-2.596-.175-3.442-.467-.817-.321-1.4-.817-1.779-1.517-.35-.729-.525-1.692-.525-2.917 0-1.342.175-2.363.525-3.092.379-.729.963-1.225 1.779-1.546.846-.321 1.983-.467 3.442-.467h3.967v-1.371c0-1.021-.146-1.838-.379-2.392s-.642-.963-1.196-1.225c-.554-.233-1.371-.379-2.392-.379-.758 0-1.371.088-1.838.263-.438.146-.817.408-1.079.817-.292.379-.525.933-.7 1.633l-1.75-.408c.263-1.05.613-1.838 1.05-2.421a3.26 3.26 0 0 1 1.663-1.254c.671-.263 1.575-.408 2.654-.408 1.458 0 2.625.204 3.442.583.846.379 1.429.992 1.808 1.808.35.817.525 1.954.525 3.383v6.738c0 .7.058 1.254.204 1.633.117.379.321.613.613.758.263.117.7.175 1.254.175v1.692c-.992.029-1.75-.117-2.246-.408-.467-.263-.817-.788-1.05-1.488-.496.846-1.05 1.429-1.721 1.75-.671.35-1.604.525-2.829.525zm0-1.692c1.021 0 1.838-.117 2.392-.408.554-.263.963-.729 1.196-1.371s.379-1.546.379-2.742v-2.1h-3.967c-1.05 0-1.838.088-2.392.292-.554.175-.963.525-1.196.992-.233.496-.321 1.196-.321 2.129 0 .846.088 1.488.321 1.954s.642.788 1.196.963c.583.204 1.371.292 2.392.292z"/><path id="x" d="M1820.851 367.528h4.502v1.989h-11.203v-1.989h4.502v-18.114c-1.326 1.152-3.036 1.745-5.13 1.745V349.1c1.571 0 2.827-.419 3.734-1.326.907-.873 1.361-2.094 1.361-3.63h2.234v23.384z"/><path id="y" d="M70.854 498.161h58v58h-58zm338.804-34.668h58v58h-58z"/><path id="z" d="M71.034 304.891h58v58h-58zm338.624 90.768h58v58h-58z"/><path id="AA" d="M789.398 192.084h-13.175v-2.4h13.175v2.4zm0 5.475h-13.175v-2.425h13.175v2.425z"/><path id="AB" d="M1101.404 498.161h58v58h-58zm554.54-237.7h58v58h-58z"/><path id="AC" d="M1101.584 304.891h58v58h-58zm338.62 90.768h58v58h-58z"/></defs></svg>