<svg xmlns="http://www.w3.org/2000/svg" xmlns:xlink="http://www.w3.org/1999/xlink" width="865" height="354" fill-rule="evenodd" stroke-linecap="round" stroke-linejoin="round" stroke-miterlimit="1.5" xmlns:v="https://vecta.io/nano"><style><![CDATA[.B{stroke:#4c4c4c}.C{stroke-width:.998}.D{fill-rule:nonzero}.E{fill:#d2d2d2}.F{fill:#fff}.G{fill:#d4fcd1}.H{fill:#f9efa2}]]></style><path d="M.5 64.952h96v32H.5z" class="B C E"/><g class="D"><path d="M33.142 85.25l3.288-8.592h1.224l3.516 8.592h-1.284l-1.008-2.604H35.29l-.948 2.604h-1.2zm2.472-3.528h2.916l-.9-2.376-.612-1.788c-.108.552-.264 1.104-.456 1.644l-.948 2.52zm6.336 5.916v-8.616h.96v.816a2.24 2.24 0 0 1 .768-.708c.288-.168.636-.24 1.032-.24.54 0 1.008.132 1.416.408a2.58 2.58 0 0 1 .912 1.152c.204.504.312 1.044.312 1.644 0 .636-.108 1.212-.336 1.716-.228.516-.564.9-.996 1.176-.444.264-.9.408-1.38.408-.348 0-.672-.072-.948-.228-.276-.144-.504-.336-.684-.564v3.036H41.95zm.96-5.46c0 .792.156 1.392.48 1.776s.72.564 1.176.564c.468 0 .876-.192 1.212-.588.324-.396.492-1.008.492-1.848 0-.792-.156-1.38-.492-1.776-.324-.396-.708-.588-1.164-.588-.444 0-.84.204-1.188.624s-.516 1.032-.516 1.836z"/><use xlink:href="#B"/><path d="M55.274 76.658h1.056v8.592h-1.056z"/><use xlink:href="#C"/></g><path d="M96.5 64.952h96v32h-96z" class="B C F"/><g class="D"><use xlink:href="#D"/><use xlink:href="#E"/><use xlink:href="#F"/><use xlink:href="#G"/><use xlink:href="#G" x="7.385"/><use xlink:href="#G" x="14.769"/></g><path d="M96.5 128.952h96v32h-96z" class="B C F"/><g class="D"><use xlink:href="#D" y="64"/><use xlink:href="#H"/><use xlink:href="#I"/><use xlink:href="#H" x="14.769"/><use xlink:href="#G" x="7.385" y="64"/><use xlink:href="#D" x="36.923" y="64"/></g><path d="M96.5 192.952h96v32h-96z" class="B C F"/><g class="D"><use xlink:href="#D" y="128"/><use xlink:href="#J"/><use xlink:href="#F" y="128"/><use xlink:href="#G" y="128"/><use xlink:href="#G" x="7.385" y="128"/><use xlink:href="#G" x="14.769" y="128"/></g><path d="M96.5 256.952h96v32h-96z" class="B C F"/><g class="D"><use xlink:href="#I" x="-11.077" y="128"/><use xlink:href="#K"/><use xlink:href="#L"/><use xlink:href="#G" x="3.692" y="192"/><use xlink:href="#E" x="25.846" y="192"/></g><path d="M96.5 320.952h96v32h-96z" class="B C F"/><g class="D"><use xlink:href="#D" y="256"/><use xlink:href="#G" x="-14.769" y="256"/><use xlink:href="#J" x="7.384" y="128"/><path d="M150.716 333.817l-3.384 7.8-.96-.3 3.3-7.428H145.7v-.864h5.016v.792z"/><use xlink:href="#G" x="7.385" y="256"/><use xlink:href="#G" x="14.769" y="256"/></g><path d="M96.5 96.952h96v32h-96z" class="B C G"/><g class="D"><use xlink:href="#M"/><use xlink:href="#L" x="-11.077" y="-160"/><use xlink:href="#F" y="32"/><use xlink:href="#J" x="14.769" y="-96"/><use xlink:href="#H" x="22.154" y="-32"/><use xlink:href="#F" x="22.154" y="32"/></g><path d="M96.5 160.952h96v32h-96z" class="B C G"/><g class="D"><use xlink:href="#D" y="96"/><use xlink:href="#L" x="-11.077" y="-96"/><use xlink:href="#H" x="7.384" y="32"/><use xlink:href="#G" y="96"/><use xlink:href="#G" x="7.385" y="96"/><use xlink:href="#G" x="14.769" y="96"/></g><path d="M96.5 224.952h96v32h-96z" class="B C G"/><g class="D"><use xlink:href="#D" y="160"/><use xlink:href="#I" x="-7.384" y="96"/><use xlink:href="#K" x="3.692" y="-32"/><use xlink:href="#G" y="160"/><use xlink:href="#G" x="7.385" y="160"/><use xlink:href="#G" x="14.769" y="160"/></g><path d="M96.5 288.952h96v32h-96z" class="B C G"/><g class="D"><use xlink:href="#K" x="-11.077" y="32"/><use xlink:href="#F" x="-7.384" y="224"/><use xlink:href="#K" x="3.692" y="32"/><use xlink:href="#E" x="14.769" y="224"/><use xlink:href="#M" x="29.539" y="192"/><use xlink:href="#J" x="29.538" y="96"/></g><path d="M96.5 32.952h96v32h-96z" fill="#00db00" class="B C"/><g class="D"><use xlink:href="#N"/><use xlink:href="#O"/><use xlink:href="#P"/><path d="M139.021 44.655h1.644v8.592h-1.644z"/><use xlink:href="#Q"/><use xlink:href="#R"/><use xlink:href="#N" x="42.012"/><use xlink:href="#N" x="48.686"/><use xlink:href="#S"/></g><path d="M.5 96.952h96v32H.5z" class="B C E"/><g class="D"><use xlink:href="#T"/><path d="M36.004 116.482c-.384.336-.768.564-1.128.708a3.34 3.34 0 0 1-1.164.204c-.684 0-1.2-.168-1.572-.504s-.552-.756-.552-1.284a1.76 1.76 0 0 1 .204-.828 1.81 1.81 0 0 1 .552-.612c.228-.156.48-.264.756-.348a8.22 8.22 0 0 1 .936-.156c.852-.096 1.476-.216 1.884-.36v-.276c0-.432-.096-.732-.288-.912-.276-.24-.672-.36-1.212-.36-.492 0-.852.096-1.092.264-.24.18-.408.48-.528.924l-1.032-.144c.096-.432.252-.792.468-1.068.216-.264.528-.48.924-.624.408-.144.888-.216 1.416-.216s.96.06 1.296.18c.336.132.576.288.732.48.156.18.264.42.324.708.036.18.06.504.06.984v1.404l.06 1.86c.048.252.144.504.276.744H36.22a2.4 2.4 0 0 1-.216-.768zm-.084-2.352c-.384.156-.96.288-1.728.396-.432.06-.732.132-.912.216-.18.072-.324.192-.42.336-.096.156-.144.324-.144.504a.9.9 0 0 0 .312.696c.216.192.528.288.936.288a2.33 2.33 0 0 0 1.092-.264c.312-.18.54-.42.696-.732.108-.24.168-.588.168-1.056v-.384z"/><use xlink:href="#U"/><use xlink:href="#V"/><use xlink:href="#W"/><use xlink:href="#X"/><use xlink:href="#Y"/></g><path d="M.5 128.952h96v32H.5z" class="B C E"/><g class="D"><use xlink:href="#Z"/><use xlink:href="#a"/><use xlink:href="#a" x="6.674"/><use xlink:href="#Y" x="-15.34" y="32"/><path d="M59.276 140.658h1.056v8.592h-1.056z"/><use xlink:href="#C" x="4.002" y="64"/></g><path d="M.5 160.952h96v32H.5z" class="B C E"/><g class="D"><use xlink:href="#b"/><use xlink:href="#c"/><use xlink:href="#d"/><use xlink:href="#e"/><use xlink:href="#a" x="8.335" y="32"/><use xlink:href="#V" x="5.669" y="64"/><use xlink:href="#a" x="21.009" y="32"/><use xlink:href="#f"/><use xlink:href="#g"/></g><path d="M.5 192.952h96v32H.5z" class="B C E"/><g class="D"><path d="M29.45 213.25v-8.592h1.14v3.528h4.464v-3.528h1.14v8.592h-1.14v-4.044H30.59v4.044h-1.14z"/><use xlink:href="#W" x="-16.67" y="96"/><use xlink:href="#h"/><use xlink:href="#i"/><use xlink:href="#C" x="1.998" y="128"/><use xlink:href="#c" x="31.685" y="32"/></g><path d="M.5 224.952h96v32H.5z" class="B C E"/><g class="D"><use xlink:href="#j"/><use xlink:href="#C" x="-10.342" y="160"/><path d="M54.272 236.658h1.056v8.592h-1.056zm2.666 0h1.056v8.592h-1.056z"/></g><path d="M.5 256.952h96v32H.5z" class="B C E"/><g class="D"><use xlink:href="#k"/><use xlink:href="#h" x="-14.35" y="64"/><use xlink:href="#d" x="-0.671" y="96"/><use xlink:href="#C" x="-15.018" y="192"/><use xlink:href="#l"/><use xlink:href="#a" x="17.016" y="128"/><path d="M62.572 274.142c0-1.152.324-2.004.96-2.568.54-.456 1.188-.684 1.956-.684.864 0 1.56.276 2.1.84s.816 1.332.816 2.316c0 .804-.12 1.44-.36 1.896A2.56 2.56 0 0 1 67 277.01a3.11 3.11 0 0 1-1.512.384c-.864 0-1.572-.288-2.112-.84-.528-.564-.804-1.368-.804-2.412zm1.092 0c0 .792.168 1.392.516 1.788s.78.588 1.308.588.96-.192 1.308-.588c.348-.408.528-1.008.528-1.824 0-.768-.18-1.356-.528-1.752s-.78-.6-1.308-.6-.96.204-1.308.6-.516.984-.516 1.788z"/><use xlink:href="#m"/></g><path d="M.5 288.952h96v32H.5z" class="B C E"/><g class="D"><use xlink:href="#k" x="3.337" y="32"/><use xlink:href="#a" x="-5.669" y="160"/><use xlink:href="#n"/><use xlink:href="#d" x="8.666" y="128"/><use xlink:href="#a" x="13.005" y="160"/><use xlink:href="#X" x="-2.335" y="192"/><use xlink:href="#X" x="4.339" y="192"/></g><path d="M.5 320.952h96v32H.5z" class="B C E"/><g class="D"><use xlink:href="#T" x="11.672" y="224"/><use xlink:href="#a" x="4.342" y="192"/><path d="M50.294 341.25v-6.228h.948v.888c.456-.684 1.116-1.02 1.98-1.02a2.44 2.44 0 0 1 1.032.204c.312.132.552.312.708.528s.264.48.324.78c.048.192.06.528.06 1.02v3.828H54.29v-3.78c0-.432-.036-.756-.12-.972-.084-.204-.228-.384-.432-.504-.216-.132-.456-.192-.732-.192-.456 0-.84.144-1.164.432-.336.276-.492.816-.492 1.62v3.396h-1.056z"/><use xlink:href="#o"/><path d="M75.228 0H65.82c-.528 0-1.008.144-1.424.432-.432.304-.736.704-.912 1.2l-1.056 2.896c-.144.4-.096.784.16 1.136a1.15 1.15 0 0 0 1.008.528h5.664l-.448 1.232h-7.44l-.896 2.48h9.408a2.54 2.54 0 0 0 1.44-.432c.416-.288.72-.688.896-1.184l1.056-2.912a1.2 1.2 0 0 0-.144-1.136c-.256-.352-.592-.528-1.024-.528h-5.664l.448-1.232h7.44L75.228 0zM88.22 0H77.068l-3.6 9.904H84.62l.896-2.48h-7.424l.528-1.6h6.192l.816-2.064h-6.192l.448-1.28h7.44L88.22 0zm-1.76 9.904L90.06 0h9.376a1.15 1.15 0 0 1 1.008.528 1.2 1.2 0 0 1 .144 1.136L99.532 4.56c-.176.496-.48.896-.896 1.184a2.39 2.39 0 0 1-1.424.448h-.272l1.888 3.712h-3.712l-1.888-3.712h-1.712l-1.344 3.712H86.46zm6.32-7.424l-.576 1.568h3.984l.576-1.568H92.78zm6.448 7.424l3.6-9.888h3.712l-3.6 9.888h-3.712zM119.532 0H108.38l-3.6 9.904h11.152l.896-2.48h-7.424l.528-1.6h6.192l.816-2.064h-6.192l.448-1.28h7.44l.896-2.48z"/><use xlink:href="#p"/></g><path d="M576.5 63.861h96v32h-96z" class="B C E"/><g class="D"><use xlink:href="#q"/><use xlink:href="#B" x="569.326" y="-1.091"/><use xlink:href="#B" x="576" y="-1.091"/><path d="M631.274 75.567h1.056v8.592h-1.056z"/><use xlink:href="#C" x="576" y="-1.091"/></g><path d="M672.5 63.861h96v32h-96z" class="B C F"/><g class="D"><path d="M702.942 75.934v7.632h1.776v.84h-4.896v-.84h2.088V77.05l-1.944 1.188-.456-.744 2.532-1.56h.9z"/><use xlink:href="#E" x="576" y="-1.091"/><use xlink:href="#F" x="576" y="-1.091"/><use xlink:href="#G" x="576" y="-1.091"/><use xlink:href="#G" x="583.385" y="-1.091"/><use xlink:href="#G" x="590.769" y="-1.091"/></g><path d="M768.5 63.861h96v32h-96z" class="B C F"/><g class="D"><use xlink:href="#M" x="672" y="-33.091"/><use xlink:href="#F" x="664.616" y="-1.091"/><use xlink:href="#E" x="679.384" y="-1.091"/><use xlink:href="#I" x="679.385" y="-65.091"/><path d="M828.481 75.934v7.632h1.776v.84h-4.896v-.84h2.088V77.05l-1.944 1.188-.456-.744 2.532-1.56h.9z"/><use xlink:href="#I" x="694.154" y="-65.091"/></g><path d="M672.5 127.861h96v32h-96z" class="B C F"/><g class="D"><use xlink:href="#D" x="576" y="62.909"/><use xlink:href="#H" x="576" y="-1.091"/><use xlink:href="#I" x="576" y="-1.091"/><use xlink:href="#H" x="590.769" y="-1.091"/><use xlink:href="#G" x="583.385" y="62.909"/><use xlink:href="#D" x="612.923" y="62.909"/></g><path d="M768.5 127.861h96v32h-96z" class="B C F"/><g class="D"><use xlink:href="#D" x="672" y="62.909"/><use xlink:href="#K" x="668.308" y="-129.091"/><use xlink:href="#M" x="686.769" y="30.909"/><use xlink:href="#I" x="679.385" y="-1.091"/><use xlink:href="#M" x="701.539" y="30.909"/><use xlink:href="#F" x="694.154" y="62.909"/></g><path d="M672.5 191.861h96v32h-96z" class="B C F"/><g class="D"><use xlink:href="#D" x="576" y="126.909"/><use xlink:href="#J" x="576" y="-1.091"/><use xlink:href="#F" x="576" y="126.909"/><use xlink:href="#G" x="576" y="126.909"/><use xlink:href="#G" x="583.385" y="126.909"/><use xlink:href="#G" x="590.769" y="126.909"/></g><path d="M768.5 191.861h96v32h-96z" class="B C F"/><g class="D"><use xlink:href="#D" x="672" y="126.909"/><use xlink:href="#M" x="679.385" y="94.909"/><use xlink:href="#J" x="679.384" y="-1.091"/><use xlink:href="#D" x="694.154" y="126.909"/><use xlink:href="#K" x="690.462" y="-65.091"/><use xlink:href="#E" x="701.538" y="126.909"/></g><path d="M672.5 255.861h96v32h-96z" class="B C F"/><g class="D"><use xlink:href="#I" x="564.923" y="126.909"/><use xlink:href="#K" x="576" y="-1.091"/><use xlink:href="#L" x="576" y="-1.091"/><use xlink:href="#G" x="579.692" y="190.909"/><use xlink:href="#E" x="601.846" y="190.909"/></g><path d="M768.5 255.861h96v32h-96z" class="B C F"/><g class="D"><use xlink:href="#K" x="664.615" y="-1.091"/><use xlink:href="#I" x="668.308" y="126.909"/><use xlink:href="#J" x="683.077" y="62.909"/><use xlink:href="#L" x="679.384" y="-1.091"/><use xlink:href="#I" x="690.462" y="126.909"/></g><path d="M672.5 319.861h96v32h-96z" class="B C F"/><g class="D"><use xlink:href="#D" x="576" y="254.909"/><use xlink:href="#G" x="561.231" y="254.909"/><use xlink:href="#J" x="583.384" y="126.909"/><path d="M726.716 332.726l-3.384 7.8-.96-.3 3.3-7.428H721.7v-.864h5.016v.792z"/><use xlink:href="#G" x="583.385" y="254.909"/><use xlink:href="#G" x="590.769" y="254.909"/></g><path d="M768.5 319.861h96v32h-96z" class="B C F"/><g class="D"><use xlink:href="#K" x="664.615" y="62.909"/><use xlink:href="#E" x="675.692" y="254.909"/><use xlink:href="#K" x="679.385" y="62.909"/><use xlink:href="#J" x="690.461" y="126.909"/><use xlink:href="#H" x="697.846" y="190.909"/></g><path d="M672.5 95.861h96v32h-96z" class="B C G"/><g class="D"><use xlink:href="#M" x="576" y="-1.091"/><use xlink:href="#L" x="564.923" y="-161.091"/><use xlink:href="#F" x="576" y="30.909"/><use xlink:href="#J" x="590.769" y="-97.091"/><use xlink:href="#H" x="598.154" y="-33.091"/><use xlink:href="#F" x="598.154" y="30.909"/></g><path d="M768.5 95.861h96v32h-96z" class="B C H"/><g class="D"><use xlink:href="#M" x="672" y="-1.091"/><use xlink:href="#G" x="657.231" y="30.909"/><use xlink:href="#G" x="664.615" y="30.909"/><path d="M822.716 108.726l-3.384 7.8-.96-.3 3.3-7.428H817.7v-.864h5.016v.792z"/><use xlink:href="#H" x="694.154" y="-33.091"/><use xlink:href="#E" x="701.538" y="30.909"/></g><path d="M672.5 159.861h96v32h-96z" class="B C G"/><g class="D"><use xlink:href="#D" x="576" y="94.909"/><use xlink:href="#L" x="564.923" y="-97.091"/><use xlink:href="#H" x="583.384" y="30.909"/><use xlink:href="#G" x="576" y="94.909"/><use xlink:href="#G" x="583.385" y="94.909"/><use xlink:href="#G" x="590.769" y="94.909"/></g><path d="M768.5 159.861h96v32h-96z" class="B C H"/><g class="D"><use xlink:href="#D" x="672" y="94.909"/><use xlink:href="#E" x="672" y="94.909"/><use xlink:href="#H" x="679.384" y="30.909"/><use xlink:href="#G" x="672" y="94.909"/><use xlink:href="#D" x="701.539" y="94.909"/><use xlink:href="#I" x="694.154" y="30.909"/></g><path d="M672.5 223.861h96v32h-96z" class="B C G"/><g class="D"><use xlink:href="#D" x="576" y="158.909"/><use xlink:href="#I" x="568.616" y="94.909"/><use xlink:href="#K" x="579.692" y="-33.091"/><use xlink:href="#G" x="576" y="158.909"/><use xlink:href="#G" x="583.385" y="158.909"/><use xlink:href="#G" x="590.769" y="158.909"/></g><path d="M768.5 223.861h96v32h-96z" class="B C H"/><g class="D"><use xlink:href="#J" x="668.307" y="30.909"/><use xlink:href="#M" x="683.077" y="126.909"/><use xlink:href="#M" x="690.462" y="126.909"/><use xlink:href="#M" x="697.846" y="126.909"/><use xlink:href="#E" x="697.846" y="158.909"/></g><path d="M672.5 287.861h96v32h-96z" class="B C G"/><g class="D"><use xlink:href="#K" x="564.923" y="30.909"/><use xlink:href="#F" x="568.616" y="222.909"/><use xlink:href="#K" x="579.692" y="30.909"/><use xlink:href="#E" x="590.769" y="222.909"/><use xlink:href="#M" x="605.539" y="190.909"/><use xlink:href="#J" x="605.538" y="94.909"/></g><path d="M768.5 287.861h96v32h-96z" class="B C H"/><g class="D"><use xlink:href="#D" x="672" y="222.909"/><use xlink:href="#K" x="668.308" y="30.909"/><use xlink:href="#D" x="686.769" y="222.909"/><use xlink:href="#J" x="686.769" y="94.909"/><use xlink:href="#E" x="694.154" y="222.909"/><use xlink:href="#I" x="694.154" y="158.909"/></g><path d="M672.5 31.861h96v32h-96z" fill="#00db00" class="B C"/><g class="D"><use xlink:href="#N" x="576" y="-1.091"/><use xlink:href="#O" x="576" y="-1.091"/><use xlink:href="#P" x="576" y="-1.091"/><path d="M715.021 43.564h1.644v8.592h-1.644z"/><use xlink:href="#Q" x="576" y="-1.091"/><use xlink:href="#R" x="576" y="-1.091"/><use xlink:href="#N" x="618.012" y="-1.091"/><use xlink:href="#N" x="624.686" y="-1.091"/><use xlink:href="#S" x="576" y="-1.091"/></g><path d="M768.5 31.861h96v32h-96z" fill="#e8ca00" class="B C"/><g class="D"><use xlink:href="#r"/><use xlink:href="#N" x="681.337" y="-1.091"/><use xlink:href="#s"/><use xlink:href="#N" x="694.685" y="-1.091"/><use xlink:href="#t"/><use xlink:href="#u"/><use xlink:href="#N" x="716.019" y="-1.091"/><use xlink:href="#S" x="667.333" y="-1.091"/></g><path d="M576.5 95.861h96v32h-96z" class="B C E"/><g class="D"><use xlink:href="#T" x="576" y="-1.091"/><use xlink:href="#h" x="563.326" y="-97.091"/><use xlink:href="#U" x="576" y="-1.091"/><use xlink:href="#V" x="576" y="-1.091"/><use xlink:href="#W" x="576" y="-1.091"/><use xlink:href="#X" x="576" y="-1.091"/><use xlink:href="#Y" x="576" y="-1.091"/></g><path d="M576.5 127.861h96v32h-96z" class="B C E"/><g class="D"><use xlink:href="#Z" x="576" y="-1.091"/><use xlink:href="#a" x="576" y="-1.091"/><use xlink:href="#a" x="582.674" y="-1.091"/><use xlink:href="#Y" x="560.66" y="30.909"/><path d="M635.276 139.567h1.056v8.592h-1.056z"/><use xlink:href="#C" x="580.002" y="62.909"/></g><path d="M576.5 159.861h96v32h-96z" class="B C E"/><g class="D"><use xlink:href="#b" x="576" y="-1.091"/><use xlink:href="#c" x="576" y="-1.091"/><use xlink:href="#d" x="576" y="-1.091"/><use xlink:href="#e" x="576" y="-1.091"/><use xlink:href="#a" x="584.335" y="30.909"/><use xlink:href="#V" x="581.669" y="62.909"/><use xlink:href="#a" x="597.009" y="30.909"/><use xlink:href="#f" x="576" y="-1.091"/><use xlink:href="#g" x="576" y="-1.091"/></g><path d="M576.5 191.861h96v32h-96z" class="B C E"/><g class="D"><path d="M605.45 212.159v-8.592h1.14v3.528h4.464v-3.528h1.14v8.592h-1.14v-4.044h-4.464v4.044h-1.14z"/><use xlink:href="#W" x="559.33" y="94.909"/><use xlink:href="#h" x="576" y="-1.091"/><use xlink:href="#i" x="576" y="-1.091"/><use xlink:href="#C" x="577.998" y="126.909"/><use xlink:href="#c" x="607.685" y="30.909"/></g><path d="M576.5 223.861h96v32h-96z" class="B C E"/><g class="D"><use xlink:href="#j" x="576" y="-1.091"/><use xlink:href="#C" x="565.658" y="158.909"/><path d="M630.272 235.567h1.056v8.592h-1.056zm2.666 0h1.056v8.592h-1.056z"/></g><path d="M576.5 255.861h96v32h-96z" class="B C E"/><g class="D"><use xlink:href="#k" x="576" y="-1.091"/><use xlink:href="#h" x="561.65" y="62.909"/><use xlink:href="#d" x="575.329" y="94.909"/><use xlink:href="#C" x="560.982" y="190.909"/><use xlink:href="#l" x="576" y="-1.091"/><use xlink:href="#a" x="593.016" y="126.909"/><use xlink:href="#a" x="599.69" y="126.909"/><use xlink:href="#m" x="576" y="-1.091"/></g><path d="M576.5 287.861h96v32h-96z" class="B C E"/><g class="D"><use xlink:href="#k" x="579.337" y="30.909"/><use xlink:href="#a" x="570.331" y="158.909"/><use xlink:href="#n" x="576" y="-1.091"/><use xlink:href="#d" x="584.666" y="126.909"/><use xlink:href="#a" x="589.005" y="158.909"/><use xlink:href="#X" x="573.665" y="190.909"/><use xlink:href="#X" x="580.339" y="190.909"/></g><path d="M576.5 319.861h96v32h-96z" class="B C E"/><g class="D"><use xlink:href="#T" x="587.672" y="222.909"/><use xlink:href="#a" x="580.342" y="190.909"/><use xlink:href="#X" x="565.002" y="222.909"/><use xlink:href="#o" x="576" y="-1.091"/><path d="M665.372 0l-3.6 9.904h9.136a2.39 2.39 0 0 0 1.424-.448c.416-.288.72-.688.896-1.184l2.4-6.608a1.2 1.2 0 0 0-.144-1.136A1.15 1.15 0 0 0 674.476 0h-9.104zm2.816 2.48h3.44l-1.808 4.944h-3.44l1.808-4.944z"/><use xlink:href="#v"/><path d="M696.604 2.48L693.9 9.904h-3.712l2.704-7.424h-3.712l.896-2.48 10.512.016-.896 2.48-3.088-.016z"/><use xlink:href="#v" x="24.24"/><path d="M726.252 0l-.896 2.48h-7.44l-.576 1.568h6.192l-.768 2.144h-6.192l-1.36 3.712H711.5L715.1 0h11.152zm-1.76 9.904l3.6-9.904h9.376a1.15 1.15 0 0 1 1.008.528 1.2 1.2 0 0 1 .144 1.136l-1.056 2.896c-.176.496-.48.896-.896 1.184a2.39 2.39 0 0 1-1.424.448h-.272l1.888 3.712h-3.712l-1.888-3.712h-1.712l-1.344 3.712h-3.712zm6.32-7.424l-.576 1.568h3.984l.576-1.568h-3.984z"/><use xlink:href="#v" x="62.992"/><path d="M750.252 9.904l3.6-9.904h3.712l1.456 2.832L762.524 0h3.712l-3.6 9.904h-3.712l2.08-5.744c-.048.064-.112.128-.176.176l-.208.192-.176.144-2.976 2.432-1.104-2.304c-.016-.032-.048-.112-.096-.224l-.128-.336a.93.93 0 0 1-.048-.304l-2.128 5.968h-3.712zM779.228 0h-11.152l-3.6 9.904h11.152l.896-2.48H769.1l.528-1.6h6.192l.816-2.064h-6.192l.448-1.28h7.44l.896-2.48z"/></g><path d="M288.5 64.952h96v32h-96z" class="B C E"/><g class="D"><use xlink:href="#q" x="-288" y="1.091"/><use xlink:href="#B" x="281.326"/><use xlink:href="#B" x="288"/><path d="M343.274 76.658h1.056v8.592h-1.056z"/><use xlink:href="#C" x="288"/></g><path d="M384.5 64.952h96v32h-96z" class="B C F"/><g class="D"><use xlink:href="#M" x="288" y="-32"/><use xlink:href="#F" x="280.616"/><use xlink:href="#E" x="295.384"/><use xlink:href="#I" x="295.385" y="-64"/><use xlink:href="#D" x="317.539"/><use xlink:href="#I" x="310.154" y="-64"/></g><path d="M384.5 128.952h96v32h-96z" class="B C F"/><g class="D"><use xlink:href="#D" x="288" y="64"/><use xlink:href="#K" x="284.308" y="-128"/><use xlink:href="#M" x="302.769" y="32"/><use xlink:href="#I" x="295.385"/><use xlink:href="#M" x="317.539" y="32"/><use xlink:href="#F" x="310.154" y="64"/></g><path d="M384.5 192.952h96v32h-96z" class="B C F"/><g class="D"><use xlink:href="#D" x="288" y="128"/><use xlink:href="#M" x="295.385" y="96"/><use xlink:href="#J" x="295.384"/><use xlink:href="#D" x="310.154" y="128"/><use xlink:href="#K" x="306.462" y="-64"/><use xlink:href="#E" x="317.538" y="128"/></g><path d="M384.5 256.952h96v32h-96z" class="B C F"/><g class="D"><use xlink:href="#K" x="280.615"/><use xlink:href="#I" x="284.308" y="128"/><use xlink:href="#J" x="299.077" y="64"/><use xlink:href="#L" x="295.384"/><use xlink:href="#I" x="306.462" y="128"/></g><path d="M384.5 320.952h96v32h-96z" class="B C F"/><g class="D"><use xlink:href="#K" x="280.615" y="64"/><use xlink:href="#E" x="291.692" y="256"/><use xlink:href="#K" x="295.385" y="64"/><use xlink:href="#J" x="306.461" y="128"/><use xlink:href="#H" x="313.846" y="192"/></g><path d="M384.5 96.952h96v32h-96z" class="B C H"/><g class="D"><use xlink:href="#M" x="288"/><use xlink:href="#G" x="273.231" y="32"/><use xlink:href="#G" x="280.615" y="32"/><path d="M438.716 109.817l-3.384 7.8-.96-.3 3.3-7.428H433.7v-.864h5.016v.792z"/><use xlink:href="#H" x="310.154" y="-32"/><use xlink:href="#E" x="317.538" y="32"/></g><path d="M384.5 160.952h96v32h-96z" class="B C H"/><g class="D"><use xlink:href="#D" x="288" y="96"/><use xlink:href="#E" x="288" y="96"/><use xlink:href="#H" x="295.384" y="32"/><use xlink:href="#G" x="288" y="96"/><use xlink:href="#D" x="317.539" y="96"/><use xlink:href="#I" x="310.154" y="32"/></g><path d="M384.5 224.952h96v32h-96z" class="B C H"/><g class="D"><use xlink:href="#J" x="284.307" y="32"/><use xlink:href="#M" x="299.077" y="128"/><use xlink:href="#M" x="306.462" y="128"/><use xlink:href="#M" x="313.846" y="128"/><use xlink:href="#E" x="313.846" y="160"/></g><path d="M384.5 288.952h96v32h-96z" class="B C H"/><g class="D"><use xlink:href="#D" x="288" y="224"/><use xlink:href="#K" x="284.308" y="32"/><use xlink:href="#D" x="302.769" y="224"/><use xlink:href="#J" x="302.769" y="96"/><use xlink:href="#E" x="310.154" y="224"/><use xlink:href="#I" x="310.154" y="160"/></g><path d="M384.5 32.952h96v32h-96z" fill="#e8ca00" class="B C"/><g class="D"><use xlink:href="#r" x="-384" y="1.091"/><use xlink:href="#N" x="297.337"/><use xlink:href="#s" x="-384" y="1.091"/><use xlink:href="#N" x="310.685"/><use xlink:href="#t" x="-384" y="1.091"/><use xlink:href="#u" x="-384" y="1.091"/><use xlink:href="#N" x="332.019"/><use xlink:href="#S" x="283.333"/></g><path d="M288.5 96.952h96v32h-96z" class="B C E"/><g class="D"><use xlink:href="#T" x="288"/><use xlink:href="#h" x="275.326" y="-96"/><use xlink:href="#U" x="288"/><use xlink:href="#V" x="288"/><use xlink:href="#W" x="288"/><use xlink:href="#X" x="288"/><use xlink:href="#Y" x="288"/></g><path d="M288.5 128.952h96v32h-96z" class="B C E"/><g class="D"><use xlink:href="#Z" x="288"/><use xlink:href="#a" x="288"/><use xlink:href="#a" x="294.674"/><use xlink:href="#Y" x="272.66" y="32"/><path d="M347.276 140.658h1.056v8.592h-1.056z"/><use xlink:href="#C" x="292.002" y="64"/></g><path d="M288.5 160.952h96v32h-96z" class="B C E"/><g class="D"><use xlink:href="#b" x="288"/><use xlink:href="#c" x="288"/><use xlink:href="#d" x="288"/><use xlink:href="#e" x="288"/><use xlink:href="#a" x="296.335" y="32"/><use xlink:href="#V" x="293.669" y="64"/><use xlink:href="#a" x="309.009" y="32"/><use xlink:href="#f" x="288"/><use xlink:href="#g" x="288"/></g><path d="M288.5 192.952h96v32h-96z" class="B C E"/><g class="D"><path d="M317.45 213.25v-8.592h1.14v3.528h4.464v-3.528h1.14v8.592h-1.14v-4.044h-4.464v4.044h-1.14z"/><use xlink:href="#W" x="271.33" y="96"/><use xlink:href="#h" x="288"/><use xlink:href="#i" x="288"/><use xlink:href="#C" x="289.998" y="128"/><use xlink:href="#c" x="319.685" y="32"/></g><path d="M288.5 224.952h96v32h-96z" class="B C E"/><g class="D"><use xlink:href="#j" x="288"/><use xlink:href="#C" x="277.658" y="160"/><path d="M342.272 236.658h1.056v8.592h-1.056zm2.666 0h1.056v8.592h-1.056z"/></g><path d="M288.5 256.952h96v32h-96z" class="B C E"/><g class="D"><use xlink:href="#k" x="288"/><use xlink:href="#h" x="273.65" y="64"/><use xlink:href="#d" x="287.329" y="96"/><use xlink:href="#C" x="272.982" y="192"/><use xlink:href="#l" x="288"/><use xlink:href="#a" x="305.016" y="128"/><path d="M350.572 274.142c0-1.152.324-2.004.96-2.568.54-.456 1.188-.684 1.956-.684.864 0 1.56.276 2.1.84s.816 1.332.816 2.316c0 .804-.12 1.44-.36 1.896A2.56 2.56 0 0 1 355 277.01a3.11 3.11 0 0 1-1.512.384c-.864 0-1.572-.288-2.112-.84-.528-.564-.804-1.368-.804-2.412zm1.092 0c0 .792.168 1.392.516 1.788s.78.588 1.308.588.96-.192 1.308-.588c.348-.408.528-1.008.528-1.824 0-.768-.18-1.356-.528-1.752s-.78-.6-1.308-.6-.96.204-1.308.6-.516.984-.516 1.788z"/><use xlink:href="#m" x="288"/></g><path d="M288.5 288.952h96v32h-96z" class="B C E"/><g class="D"><use xlink:href="#k" x="291.337" y="32"/><use xlink:href="#a" x="282.331" y="160"/><use xlink:href="#n" x="288"/><use xlink:href="#d" x="296.666" y="128"/><use xlink:href="#a" x="301.005" y="160"/><use xlink:href="#X" x="285.665" y="192"/><use xlink:href="#X" x="292.339" y="192"/></g><path d="M288.5 320.952h96v32h-96z" class="B C E"/><g class="D"><use xlink:href="#T" x="299.672" y="224"/><use xlink:href="#a" x="292.342" y="192"/><use xlink:href="#X" x="277.002" y="224"/><use xlink:href="#o" x="288"/><use xlink:href="#p" x="230.704"/><path d="M376.22 0h-11.152l-3.6 9.904h11.152l.896-2.48h-7.424l.528-1.6h6.192l.816-2.064h-6.192l.448-1.28h7.44L376.22 0zm-1.76 9.904L378.06 0h9.376a1.15 1.15 0 0 1 1.008.528 1.2 1.2 0 0 1 .144 1.136l-1.056 2.896c-.176.496-.48.896-.896 1.184a2.39 2.39 0 0 1-1.424.448h-.272l1.888 3.712h-3.712l-1.888-3.712h-1.712l-1.344 3.712h-3.712zm6.32-7.424l-.576 1.568h3.984l.576-1.568h-3.984zm6.448 7.424l3.6-9.888h3.712l-3.6 9.888h-3.712zM407.532 0H396.38l-3.6 9.904h11.152l.896-2.48h-7.424l.528-1.6h6.192l.816-2.064h-6.192l.448-1.28h7.44l.896-2.48z"/><use xlink:href="#p" x="288"/><path d="M242.431 207.017h8.6v3.88h-8.6v8.56h-3.84v-8.56h-8.64v-3.88h8.64v-8.6h3.84v8.6zm296.6.935h-21.08v-3.84h21.08v3.84zm0 8.76h-21.08v-3.88h21.08v3.88z"/></g><defs ><path id="B" d="M48.624 87.638v-8.616h.96v.816a2.24 2.24 0 0 1 .768-.708c.288-.168.636-.24 1.032-.24.54 0 1.008.132 1.416.408a2.58 2.58 0 0 1 .912 1.152c.204.504.312 1.044.312 1.644 0 .636-.108 1.212-.336 1.716-.228.516-.564.9-.996 1.176-.444.264-.9.408-1.38.408-.348 0-.672-.072-.948-.228-.276-.144-.504-.336-.684-.564v3.036h-1.056zm.96-5.46c0 .792.156 1.392.48 1.776s.72.564 1.176.564c.468 0 .876-.192 1.212-.588.324-.396.492-1.008.492-1.848 0-.792-.156-1.38-.492-1.776-.324-.396-.708-.588-1.164-.588-.444 0-.84.204-1.188.624s-.516 1.032-.516 1.836z"/><path id="C" d="M62.224 83.246l1.092.132c-.18.636-.492 1.128-.96 1.488-.468.348-1.056.528-1.776.528-.912 0-1.632-.288-2.172-.84-.528-.564-.792-1.356-.792-2.364 0-1.044.264-1.86.804-2.436s1.236-.864 2.1-.864c.828 0 1.512.276 2.04.852.528.564.792 1.356.792 2.388l-.012.276h-4.644c.048.684.24 1.212.588 1.572a1.73 1.73 0 0 0 1.296.54c.384 0 .72-.096.996-.3.264-.204.492-.528.648-.972zm-3.468-1.704h3.48c-.048-.528-.18-.912-.396-1.176-.336-.408-.78-.612-1.308-.612-.492 0-.9.168-1.224.492-.336.324-.516.756-.552 1.296z"/><path id="D" d="M126.942 77.025v7.632h1.776v.84h-4.896v-.84h2.088v-6.516l-1.944 1.188-.456-.744 2.532-1.56h.9z"/><path id="E" d="M135.143 82.605h1.092v.828h-1.092v2.064h-.996l-.012-2.064h-3.516v-.744l2.484-5.796.864.36-2.256 5.352h2.436l.132-2.4h.864v2.4z"/><path id="F" d="M143.331 77.817l-3.384 7.8-.96-.3 3.3-7.428h-3.972v-.864h5.016v.792z"/><path id="G" d="M148.196 76.893c.9 0 1.596.372 2.064 1.116.468.756.708 1.836.708 3.252s-.24 2.496-.708 3.252c-.468.744-1.164 1.128-2.064 1.128a2.32 2.32 0 0 1-2.076-1.128c-.468-.756-.708-1.836-.708-3.252s.24-2.496.708-3.252a2.31 2.31 0 0 1 2.076-1.116zm0 .828c-1.128 0-1.68 1.176-1.68 3.54 0 .936.072 1.68.216 2.208l2.592-5.208c-.264-.36-.636-.54-1.128-.54zm0 7.08c1.116 0 1.68-1.176 1.68-3.54 0-.96-.072-1.704-.216-2.232l-2.58 5.232c.132.18.288.324.48.408.18.084.396.132.636.132z"/><path id="H" d="M133.031 140.893c.516 0 .972.096 1.368.276.396.192.708.456.924.78a1.91 1.91 0 0 1 .312 1.056c0 .336-.072.636-.216.924a2.27 2.27 0 0 1-.612.696c-.252.18-.528.3-.828.36.348.024.672.12.96.288a1.91 1.91 0 0 1 .708.708c.168.3.264.66.264 1.068 0 .492-.12.936-.372 1.32-.252.396-.6.708-1.044.936-.444.216-.948.336-1.524.336-.504 0-.984-.096-1.452-.288-.456-.192-.852-.468-1.152-.852l.696-.564c.228.276.516.492.852.636.324.144.672.216 1.032.216.384 0 .72-.072 1.008-.216.276-.144.492-.336.648-.6a1.88 1.88 0 0 0 .228-.924c0-1.068-.588-1.596-1.764-1.596h-.708l.132-.828h.492c.288 0 .552-.048.792-.156a1.36 1.36 0 0 0 .6-.504c.144-.216.228-.492.228-.816 0-.3-.072-.564-.216-.78s-.336-.372-.576-.492c-.24-.108-.516-.168-.816-.168-.348 0-.672.06-.948.192-.276.12-.552.324-.84.588l-.576-.624c.684-.648 1.488-.972 2.4-.972z"/><path id="I" d="M143.103 141.025l-.144.828h-3.348v2.664c.252-.132.492-.228.72-.276.228-.06.48-.084.744-.084.456 0 .864.108 1.212.312s.624.516.816.912c.192.408.288.876.288 1.428 0 .564-.12 1.056-.36 1.488s-.564.756-1.008.996a3.18 3.18 0 0 1-1.5.348c-.492 0-.948-.084-1.344-.264a4.17 4.17 0 0 1-1.116-.756l.636-.624c.264.276.54.468.84.6.288.12.624.192.996.192.552 0 .996-.18 1.308-.516.3-.336.456-.84.456-1.488 0-.636-.132-1.104-.408-1.392-.276-.276-.648-.42-1.116-.42a3.24 3.24 0 0 0-.624.06 5.74 5.74 0 0 0-.696.228h-.828v-4.236h4.476z"/><path id="J" d="M133.295 204.905c.612 0 1.116.132 1.524.408.42.288.72.684.936 1.2.204.516.3 1.128.3 1.848 0 1.128-.156 2.04-.456 2.712a3.64 3.64 0 0 1-1.416 1.62c-.648.396-1.524.756-2.64 1.068l-.24-.792c.804-.228 1.476-.492 1.992-.792s.912-.672 1.188-1.128.432-1.008.468-1.668c-.54.672-1.2 1.008-1.98 1.008-.468 0-.888-.108-1.248-.324a2.18 2.18 0 0 1-.864-.936c-.204-.408-.312-.888-.312-1.452 0-.588.12-1.08.36-1.5s.576-.744.984-.948c.42-.216.888-.324 1.404-.324zm-.132 4.656c.372 0 .696-.084.984-.276s.564-.456.828-.816c0-.672-.072-1.2-.192-1.596s-.312-.684-.552-.864-.552-.276-.936-.276c-.552 0-.972.168-1.248.504-.288.336-.432.828-.432 1.476 0 .636.144 1.092.408 1.404.264.3.648.444 1.14.444z"/><path id="K" d="M139.651 271.041c0 .396-.12.744-.36 1.044-.24.312-.612.588-1.104.864.564.24 1.02.54 1.332.936.324.384.48.828.48 1.344 0 .456-.12.876-.36 1.236-.228.372-.576.66-1.008.864-.444.204-.948.312-1.536.312-.6 0-1.104-.108-1.536-.312-.432-.216-.756-.504-.984-.864s-.348-.768-.348-1.224c0-.948.564-1.68 1.704-2.208-.468-.216-.804-.48-1.032-.78-.216-.312-.324-.696-.324-1.152 0-.492.132-.9.384-1.236s.576-.576.972-.732c.396-.168.792-.24 1.188-.24.432 0 .84.072 1.224.228a2.18 2.18 0 0 1 .948.72c.24.324.36.72.36 1.2zm-4.056.072c0 .312.072.552.216.744a1.63 1.63 0 0 0 .564.444c.24.108.6.24 1.08.384a4.34 4.34 0 0 0 .672-.444c.168-.156.288-.324.384-.504.084-.18.12-.408.12-.66 0-.432-.132-.768-.396-1.02-.264-.24-.636-.372-1.116-.372s-.852.132-1.128.384c-.264.24-.396.588-.396 1.044zm3.312 4.128c0-.36-.084-.66-.264-.876s-.42-.396-.708-.54c-.288-.132-.72-.3-1.296-.492a2.47 2.47 0 0 0-.96.732c-.24.3-.36.696-.36 1.188s.156.864.456 1.14.732.408 1.308.408c.384 0 .72-.072.996-.204a1.48 1.48 0 0 0 .624-.552c.144-.24.204-.504.204-.804z"/><path id="L" d="M144.864 271.977c.444 0 .852.096 1.212.3.36.192.66.492.864.9.216.396.324.888.324 1.476 0 .6-.12 1.128-.36 1.584-.228.444-.552.792-.96 1.044a2.59 2.59 0 0 1-1.344.36c-.984 0-1.704-.36-2.148-1.08s-.66-1.74-.66-3.072c0-.924.12-1.74.372-2.436s.612-1.224 1.08-1.608c.48-.372 1.044-.552 1.692-.552.624 0 1.188.156 1.68.492l-.408.696c-.396-.24-.816-.36-1.284-.36-.432 0-.804.144-1.104.42-.312.276-.552.672-.72 1.176-.168.516-.264 1.116-.276 1.8.264-.384.564-.684.9-.864a2.39 2.39 0 0 1 1.14-.276zm-.276 4.824c.528 0 .924-.192 1.2-.564s.42-.9.42-1.56-.132-1.14-.396-1.428c-.264-.276-.624-.42-1.104-.42a1.95 1.95 0 0 0-1.068.312 2.75 2.75 0 0 0-.804.888c.012.636.084 1.164.204 1.572.132.408.324.708.576.9.252.204.576.3.972.3z"/><path id="M" d="M125.658 108.893c.528 0 .984.096 1.368.3s.672.492.888.84c.204.36.3.768.3 1.212 0 .528-.12 1.032-.36 1.524s-.636 1.032-1.164 1.632c-.54.588-1.296 1.32-2.268 2.22h3.996l-.132.876h-5.04v-.84l2.472-2.496c.528-.6.9-1.104 1.104-1.524.204-.432.3-.876.3-1.344 0-.48-.132-.864-.396-1.14-.276-.264-.636-.408-1.116-.408-.408 0-.744.072-1.008.216-.264.132-.54.36-.816.696l-.708-.552c.336-.42.708-.72 1.128-.924.408-.192.9-.288 1.452-.288z"/><path id="N" d="M117.947 51.267l1.644.276c-.216.6-.552 1.056-.996 1.368-.456.324-1.032.48-1.716.48-1.08 0-1.884-.36-2.4-1.068-.408-.564-.612-1.272-.612-2.136 0-1.032.264-1.848.804-2.424.54-.588 1.224-.876 2.052-.876.924 0 1.656.3 2.184.912.54.612.792 1.548.768 2.808h-4.128c.012.492.144.876.408 1.14.252.276.564.408.948.408a1.07 1.07 0 0 0 .648-.204c.18-.144.312-.372.396-.684zm.096-1.668c-.012-.468-.132-.84-.372-1.08a1.1 1.1 0 0 0-.852-.372c-.36 0-.66.132-.888.384-.24.264-.36.624-.348 1.068h2.46z"/><path id="O" d="M120.901 47.019h1.512v.852c.54-.66 1.188-.984 1.944-.984.396 0 .744.084 1.032.24.288.168.528.42.72.744.276-.324.564-.576.888-.744.312-.156.648-.24 1.008-.24.456 0 .852.084 1.164.276.312.18.552.456.708.816.108.264.168.696.168 1.284v3.984h-1.644v-3.552c0-.624-.06-1.02-.168-1.2-.156-.24-.384-.348-.708-.348a1.18 1.18 0 0 0-.648.204c-.204.144-.348.348-.444.624-.084.264-.132.696-.132 1.284v2.988h-1.644v-3.408c0-.612-.024-.996-.084-1.176-.06-.168-.156-.3-.276-.396-.12-.084-.288-.12-.504-.12-.252 0-.48.06-.684.204-.204.132-.348.336-.432.588-.096.264-.132.684-.132 1.284v3.024h-1.644v-6.228z"/><path id="P" d="M131.643 47.019h1.536v.924c.192-.312.468-.576.804-.768.348-.192.72-.288 1.128-.288.732 0 1.344.276 1.848.852.504.564.756 1.344.756 2.364 0 1.032-.252 1.848-.768 2.424-.504.576-1.116.864-1.848.864a2.13 2.13 0 0 1-.924-.204c-.288-.144-.576-.372-.888-.708v3.132h-1.644v-8.592zm1.632 3.012c0 .696.132 1.212.408 1.548s.624.504 1.02.504c.384 0 .696-.156.948-.456.264-.312.384-.816.384-1.512 0-.66-.132-1.14-.396-1.452a1.17 1.17 0 0 0-.972-.48c-.396 0-.732.156-.996.468s-.396.768-.396 1.38z"/><path id="Q" d="M141.971 50.043c0-.54.132-1.068.408-1.584.264-.516.648-.9 1.14-1.176.492-.264 1.044-.396 1.656-.396.948 0 1.716.3 2.316.912s.9 1.38.9 2.316c0 .948-.3 1.728-.912 2.34-.6.624-1.368.936-2.292.936a3.56 3.56 0 0 1-1.632-.396 2.55 2.55 0 0 1-1.176-1.128c-.276-.492-.408-1.104-.408-1.824zm1.692.096c0 .612.144 1.092.432 1.416.3.324.66.492 1.092.492.42 0 .78-.168 1.08-.492.288-.324.432-.804.432-1.428 0-.612-.144-1.08-.432-1.404-.3-.336-.66-.492-1.08-.492a1.39 1.39 0 0 0-1.092.492c-.288.324-.432.792-.432 1.416z"/><path id="R" d="M148.905 47.019h1.752l1.488 4.428 1.452-4.428h1.704l-2.196 5.988-.396 1.092c-.144.36-.276.636-.408.828s-.288.348-.456.468-.372.216-.624.276a3.05 3.05 0 0 1-.84.096c-.312 0-.624-.024-.936-.096l-.144-1.284c.264.048.492.072.696.072.384 0 .672-.108.852-.336a2.42 2.42 0 0 0 .42-.864l-2.364-6.24z"/><path id="S" d="M169.119 51.471l1.656-.252c.072.324.216.564.432.732s.516.252.9.252c.42 0 .744-.084.96-.24a.52.52 0 0 0 .216-.444c0-.12-.036-.228-.12-.3-.072-.084-.264-.156-.552-.228-1.32-.288-2.16-.552-2.52-.792a1.61 1.61 0 0 1-.744-1.404c0-.54.216-.996.648-1.356.42-.372 1.08-.552 1.98-.552.852 0 1.476.132 1.896.408.408.288.696.696.852 1.236l-1.548.288c-.072-.24-.192-.432-.384-.564-.18-.12-.444-.192-.792-.192-.432 0-.744.06-.924.18-.132.096-.192.204-.192.336 0 .12.048.216.168.3.144.108.66.264 1.536.468.876.192 1.488.444 1.836.732.336.288.516.696.516 1.224 0 .564-.24 1.056-.72 1.464-.468.42-1.176.624-2.112.624-.852 0-1.524-.18-2.016-.516a2.43 2.43 0 0 1-.972-1.404z"/><path id="T" d="M23.692 114.49l1.068-.096c.06.432.168.78.36 1.056.18.276.468.504.864.672.384.168.828.252 1.32.252.432 0 .816-.06 1.14-.192.336-.132.588-.3.744-.528a1.19 1.19 0 0 0 .24-.732c0-.276-.072-.504-.228-.708s-.42-.372-.78-.504c-.228-.096-.732-.24-1.524-.42-.792-.192-1.344-.372-1.656-.54-.408-.216-.72-.48-.924-.804-.192-.312-.3-.672-.3-1.068 0-.432.132-.84.372-1.212.252-.372.6-.66 1.08-.864.468-.192.996-.288 1.572-.288.636 0 1.2.108 1.692.312.48.204.852.504 1.116.9s.408.852.42 1.356l-1.092.084c-.048-.552-.252-.96-.588-1.236s-.84-.42-1.5-.42c-.684 0-1.188.132-1.5.384s-.468.552-.468.912c0 .312.108.564.324.756.228.204.792.408 1.716.612.924.216 1.56.396 1.908.552.492.228.864.528 1.104.876.24.36.36.756.36 1.224 0 .456-.132.888-.396 1.296-.264.396-.636.708-1.128.936s-1.044.336-1.656.336c-.78 0-1.428-.108-1.956-.336s-.936-.564-1.236-1.02-.456-.972-.468-1.548z"/><path id="U" d="M38.622 117.25v-6.228h.948v.876c.192-.3.444-.552.768-.732.324-.192.696-.276 1.116-.276.456 0 .84.096 1.128.288.3.192.504.456.624.804.492-.732 1.14-1.092 1.92-1.092.624 0 1.092.168 1.428.504.336.348.504.876.504 1.584v4.272h-1.056v-3.924c0-.42-.036-.72-.096-.912a.89.89 0 0 0-.372-.444c-.18-.108-.396-.168-.636-.168-.444 0-.804.144-1.092.432-.288.3-.432.756-.432 1.404v3.612h-1.056v-4.044c0-.468-.084-.816-.252-1.056-.18-.228-.456-.348-.852-.348-.3 0-.564.072-.816.228a1.29 1.29 0 0 0-.552.696c-.108.3-.168.732-.168 1.296v3.228h-1.056z"/><path id="V" d="M48.198 115.39l1.044-.156c.06.408.216.732.48.96.276.216.648.324 1.128.324s.84-.096 1.08-.288c.228-.204.348-.432.348-.696 0-.24-.108-.432-.312-.564-.144-.096-.504-.216-1.08-.36-.768-.192-1.308-.36-1.608-.504a1.54 1.54 0 0 1-.672-.588 1.56 1.56 0 0 1-.24-.84c0-.276.072-.528.192-.768.132-.24.3-.432.516-.588a2.34 2.34 0 0 1 .672-.312 3.22 3.22 0 0 1 .912-.12c.492 0 .924.072 1.296.204.36.144.636.336.816.576.168.24.288.564.36.96l-1.032.144c-.048-.324-.18-.576-.408-.756s-.54-.264-.948-.264c-.492 0-.828.084-1.044.24-.204.156-.312.348-.312.564a.61.61 0 0 0 .132.372c.084.108.228.204.408.276l.924.276 1.572.48c.288.132.516.312.684.552.168.252.252.552.252.912 0 .348-.096.684-.3.984-.204.312-.504.552-.888.72-.384.18-.828.264-1.32.264-.804 0-1.416-.168-1.848-.504-.42-.336-.684-.84-.804-1.5z"/><path id="W" d="M58.698 117.25v-.912c-.492.696-1.14 1.056-1.98 1.056a2.43 2.43 0 0 1-1.02-.216c-.324-.144-.564-.312-.72-.528-.144-.216-.252-.48-.324-.78-.036-.204-.06-.54-.06-.984v-3.864h1.056v3.456c0 .552.024.924.06 1.116.072.276.204.492.42.648s.48.24.804.24c.312 0 .612-.084.888-.24.276-.168.468-.384.588-.66.12-.288.168-.684.168-1.224v-3.336h1.056v6.228h-.936z"/><path id="X" d="M61.292 117.25v-6.228h.948v.888c.456-.684 1.116-1.02 1.98-1.02a2.44 2.44 0 0 1 1.032.204c.312.132.552.312.708.528s.264.48.324.78c.048.192.06.528.06 1.02v3.828h-1.056v-3.78c0-.432-.036-.756-.12-.972-.084-.204-.228-.384-.432-.504-.216-.132-.456-.192-.732-.192-.456 0-.84.144-1.164.432-.336.276-.492.816-.492 1.62v3.396h-1.056z"/><path id="Y" d="M67.774 117.766l1.02.156c.048.312.168.54.36.684.264.204.624.3 1.068.3.492 0 .864-.096 1.14-.3.264-.192.444-.468.54-.816.048-.216.072-.672.072-1.356-.468.54-1.032.816-1.728.816-.852 0-1.512-.312-1.98-.924-.468-.624-.708-1.356-.708-2.22 0-.6.108-1.14.324-1.644s.528-.888.936-1.164.888-.408 1.44-.408c.732 0 1.332.288 1.812.888v-.756h.972v5.388c0 .96-.096 1.656-.288 2.052-.204.408-.516.732-.948.96-.42.24-.948.348-1.572.348-.744 0-1.344-.156-1.8-.492s-.672-.84-.66-1.512zm.876-3.744c0 .816.156 1.416.48 1.788a1.52 1.52 0 0 0 1.224.564 1.54 1.54 0 0 0 1.212-.552c.336-.372.492-.96.492-1.764 0-.756-.168-1.332-.504-1.716s-.744-.588-1.224-.588c-.468 0-.864.192-1.188.576-.336.384-.492.948-.492 1.692z"/><path id="Z" d="M34.096 145.878v-1.008h3.636v3.18c-.552.444-1.128.78-1.728 1.008-.588.228-1.2.336-1.824.336-.84 0-1.608-.18-2.304-.54a3.59 3.59 0 0 1-1.56-1.572c-.348-.684-.528-1.44-.528-2.28a5.4 5.4 0 0 1 .528-2.352c.348-.72.852-1.26 1.512-1.608.648-.348 1.404-.528 2.268-.528.612 0 1.176.096 1.68.3s.9.48 1.176.84c.288.36.504.828.66 1.404l-1.032.288c-.132-.444-.288-.78-.48-1.032s-.468-.456-.816-.6c-.36-.156-.756-.228-1.188-.228-.516 0-.972.084-1.344.24-.384.156-.684.36-.924.624-.228.252-.408.54-.54.852a4.52 4.52 0 0 0-.324 1.728c0 .756.132 1.404.396 1.92a2.55 2.55 0 0 0 1.152 1.152c.504.24 1.032.372 1.608.372a3.76 3.76 0 0 0 1.44-.288c.468-.192.816-.396 1.068-.6v-1.608h-2.532z"/><path id="a" d="M38.882 146.142c0-1.152.324-2.004.96-2.568.54-.456 1.188-.684 1.956-.684.864 0 1.56.276 2.1.84s.816 1.332.816 2.316c0 .804-.12 1.44-.36 1.896a2.56 2.56 0 0 1-1.044 1.068 3.11 3.11 0 0 1-1.512.384c-.864 0-1.572-.288-2.112-.84-.528-.564-.804-1.368-.804-2.412zm1.092 0c0 .792.168 1.392.516 1.788s.78.588 1.308.588.96-.192 1.308-.588c.348-.408.528-1.008.528-1.824 0-.768-.18-1.356-.528-1.752s-.78-.6-1.308-.6-.96.204-1.308.6-.516.984-.516 1.788z"/><path id="b" d="M25.051 181.25v-8.592h1.716l2.028 6.084.408 1.272.456-1.38 2.064-5.976h1.524v8.592h-1.092v-7.188l-2.496 7.188h-1.02l-2.484-7.308v7.308h-1.104z"/><path id="c" d="M34.951 173.87v-1.212h1.056v1.212h-1.056zm0 7.38v-6.228h1.056v6.228h-1.056z"/><path id="d" d="M41.673 178.97l1.044.132c-.12.72-.408 1.272-.876 1.68s-1.032.612-1.716.612c-.852 0-1.536-.276-2.052-.84-.516-.552-.78-1.356-.78-2.388 0-.672.108-1.26.336-1.764.216-.504.564-.888 1.02-1.14s.948-.372 1.476-.372c.684 0 1.236.168 1.668.504.42.348.696.828.816 1.464l-1.02.156c-.096-.42-.276-.732-.516-.948a1.39 1.39 0 0 0-.9-.312c-.528 0-.96.192-1.296.576-.336.372-.504.984-.504 1.8 0 .84.168 1.452.48 1.824.324.384.744.564 1.26.564.408 0 .756-.12 1.032-.372s.456-.648.528-1.176z"/><path id="e" d="M43.605 181.25v-6.228h.948v.948c.24-.444.468-.732.672-.876.204-.132.432-.204.672-.204.36 0 .72.108 1.092.336l-.372.984c-.252-.156-.516-.228-.768-.228-.228 0-.444.06-.624.204-.18.132-.312.324-.396.576-.108.372-.168.78-.168 1.236v3.252h-1.056z"/><path id="f" d="M67.213 181.25v-5.4h-.936v-.828h.936v-.66c0-.42.036-.72.108-.924a1.41 1.41 0 0 1 .54-.672c.252-.168.612-.252 1.068-.252.3 0 .636.036.996.108l-.168.912c-.216-.036-.42-.048-.612-.048-.324 0-.552.06-.684.204-.132.132-.204.384-.204.768v.564h1.212v.828h-1.212v5.4h-1.044z"/><path id="g" d="M72.599 180.302l.156.936a4.16 4.16 0 0 1-.804.096c-.384 0-.684-.06-.888-.18-.216-.12-.36-.288-.444-.48-.084-.204-.132-.612-.132-1.248v-3.576h-.768v-.828h.768v-1.536l1.044-.636v2.172h1.068v.828h-1.068v3.636c0 .3.024.492.06.576.036.096.096.156.18.204.084.06.204.084.36.084a2.56 2.56 0 0 0 .468-.048z"/><path id="h" d="M48.678 212.482c-.384.336-.768.564-1.128.708a3.34 3.34 0 0 1-1.164.204c-.684 0-1.2-.168-1.572-.504s-.552-.756-.552-1.284a1.76 1.76 0 0 1 .204-.828 1.81 1.81 0 0 1 .552-.612c.228-.156.48-.264.756-.348a8.22 8.22 0 0 1 .936-.156c.852-.096 1.476-.216 1.884-.36v-.276c0-.432-.096-.732-.288-.912-.276-.24-.672-.36-1.212-.36-.492 0-.852.096-1.092.264-.24.18-.408.48-.528.924l-1.032-.144c.096-.432.252-.792.468-1.068.216-.264.528-.48.924-.624.408-.144.888-.216 1.416-.216s.96.06 1.296.18c.336.132.576.288.732.48.156.18.264.42.324.708.036.18.06.504.06.984v1.404l.06 1.86c.048.252.144.504.276.744h-1.104a2.4 2.4 0 0 1-.216-.768zm-.084-2.352c-.384.156-.96.288-1.728.396-.432.06-.732.132-.912.216-.18.072-.324.192-.42.336-.096.156-.144.324-.144.504a.9.9 0 0 0 .312.696c.216.192.528.288.936.288a2.33 2.33 0 0 0 1.092-.264c.312-.18.54-.42.696-.732.108-.24.168-.588.168-1.056v-.384z"/><path id="i" d="M52.448 213.25l-1.908-6.228h1.092l.984 3.6.372 1.332.324-1.284.984-3.648h1.092l.924 3.612.312 1.188.36-1.2 1.068-3.6h1.02l-1.944 6.228h-1.092l-.996-3.732-.24-1.056-1.26 4.788h-1.092z"/><path id="j" d="M39.088 245.25v-8.592h2.964c.66 0 1.176.048 1.524.12.492.12.912.324 1.26.624.456.384.792.864 1.02 1.464s.336 1.272.336 2.04c0 .66-.072 1.236-.228 1.74s-.348.912-.588 1.248a3.43 3.43 0 0 1-.78.78 3.11 3.11 0 0 1-1.032.432c-.396.096-.852.144-1.38.144h-3.096zm1.14-1.008h1.836c.564 0 1.008-.06 1.332-.168a1.78 1.78 0 0 0 .768-.444c.264-.264.48-.624.624-1.08.156-.456.228-1.008.228-1.656 0-.9-.144-1.596-.444-2.076-.288-.48-.648-.804-1.068-.972-.312-.108-.792-.168-1.476-.168h-1.8v6.564z"/><path id="k" d="M23.134 277.25v-8.592h5.796v1.02h-4.656v2.652h4.032v1.02h-4.032v3.9h-1.14z"/><path id="l" d="M50.592 277.25h-.984v-8.592h1.056v3.072c.444-.564 1.02-.84 1.704-.84.384 0 .756.072 1.092.228a2.26 2.26 0 0 1 .84.648c.228.276.396.624.528 1.008.12.396.18.816.18 1.272 0 1.068-.264 1.884-.792 2.472-.528.576-1.152.876-1.896.876a1.99 1.99 0 0 1-1.728-.924v.78zm-.012-3.156c0 .744.096 1.284.3 1.62.336.54.78.804 1.356.804.456 0 .852-.192 1.188-.6.336-.396.504-.996.504-1.788 0-.804-.156-1.404-.48-1.8-.324-.384-.708-.576-1.164-.576-.468 0-.864.204-1.2.6s-.504.984-.504 1.74z"/><path id="m" d="M69.642 277.25v-8.592h1.056v4.896l2.496-2.532h1.368l-2.376 2.316 2.616 3.912h-1.296l-2.064-3.18-.744.708v2.472h-1.056z"/><path id="n" d="M39.575 309.25l2.28-3.24-2.112-2.988h1.32l.96 1.464.432.696.48-.684 1.044-1.476h1.26l-2.148 2.94 2.316 3.288h-1.296l-1.284-1.932-.336-.528-1.632 2.46h-1.284z"/><path id="o" d="M56.92 343.65l-.12-.996c.228.06.432.096.612.096.228 0 .42-.036.552-.12.144-.072.264-.18.348-.324.072-.108.18-.372.324-.792.024-.048.048-.144.096-.252l-2.364-6.24h1.14l1.296 3.612c.168.456.312.936.444 1.44a12.96 12.96 0 0 1 .432-1.416l1.332-3.636h1.056l-2.364 6.336-.588 1.404c-.192.348-.408.612-.648.768-.24.168-.528.24-.864.24-.204 0-.432-.036-.684-.12z"/><path id="p" d="M132.524 0h-9.408c-.528 0-1.008.144-1.424.432-.432.304-.736.704-.912 1.2l-1.056 2.896c-.144.4-.096.784.16 1.136a1.15 1.15 0 0 0 1.008.528h5.664l-.448 1.232h-7.44l-.896 2.48h9.408a2.54 2.54 0 0 0 1.44-.432c.416-.288.72-.688.896-1.184l1.056-2.912a1.2 1.2 0 0 0-.144-1.136c-.256-.352-.592-.528-1.024-.528h-5.664l.448-1.232h7.44l.896-2.48z"/><path id="q" d="M609.142 84.159l3.288-8.592h1.224l3.516 8.592h-1.284l-1.008-2.604h-3.588l-.948 2.604h-1.2zm2.472-3.528h2.916l-.9-2.376-.612-1.788c-.108.552-.264 1.104-.456 1.644l-.948 2.52z"/><path id="r" d="M792.586 52.156h-1.644v-6.228h1.524v.888c.264-.42.504-.696.708-.828a1.32 1.32 0 0 1 .72-.192c.372 0 .732.096 1.08.312l-.516 1.428c-.276-.18-.528-.264-.768-.264-.228 0-.432.06-.588.192-.156.12-.288.348-.372.684-.096.336-.144 1.032-.144 2.088v1.92z"/><path id="s" d="M804.062 52.156l-2.508-6.228h1.728l1.176 3.18.336 1.056.18-.528.168-.528 1.188-3.18h1.692l-2.472 6.228h-1.488z"/><path id="t" d="M821.358 52.156h-1.644v-3.18c0-.672-.036-1.104-.108-1.296a.85.85 0 0 0-.336-.468c-.156-.108-.348-.156-.576-.156a1.34 1.34 0 0 0-.768.228c-.228.156-.372.372-.456.624s-.132.732-.132 1.428v2.82h-1.644v-6.228h1.524v.924c.54-.708 1.224-1.056 2.052-1.056.36 0 .696.06.996.192s.528.3.684.504a1.8 1.8 0 0 1 .324.684c.06.264.084.636.084 1.116v3.864z"/><path id="u" d="M827.128 52.156v-.936c-.228.336-.528.6-.888.792a2.54 2.54 0 0 1-1.176.288c-.42 0-.792-.096-1.128-.276a1.74 1.74 0 0 1-.72-.78c-.144-.324-.216-.792-.216-1.368v-3.948h1.644v2.868c0 .876.036 1.404.096 1.608.06.192.168.348.324.468.168.108.36.168.612.168.276 0 .528-.072.756-.228a1.17 1.17 0 0 0 .456-.576c.084-.228.12-.792.12-1.68v-2.628h1.656v6.228h-1.536z"/><path id="v" d="M674.268 9.904l3.008-8.272c.176-.496.48-.896.912-1.2.416-.288.896-.432 1.424-.432h9.408l-3.6 9.904h-3.728l.912-2.48h-3.712l-.912 2.48h-3.712zm6.416-7.424l-.896 2.48h3.712l.896-2.48h-3.712z"/></defs></svg>