<?xml version="1.0" encoding="UTF-8" standalone="no"?>
<!DOCTYPE svg PUBLIC "-//W3C//DTD SVG 1.1//EN" "http://www.w3.org/Graphics/SVG/1.1/DTD/svg11.dtd">
<svg width="341px" height="345px" version="1.1" xmlns="http://www.w3.org/2000/svg" xmlns:xlink="http://www.w3.org/1999/xlink" xml:space="preserve" xmlns:serif="http://www.serif.com/" style="fill-rule:evenodd;clip-rule:evenodd;stroke-linejoin:round;stroke-miterlimit:2;">
    <g transform="matrix(1,0,0,1,-209.586,-1131.12)">
        <g transform="matrix(0.703704,0,0,0.703704,0,907)">
            <g id="Hair" transform="matrix(1.63778,0,0,1.63778,-344.4,-93.1763)">
                <clipPath id="_clip1">
                    <rect x="392.137" y="251.355" width="295.727" height="180.631"/>
                </clipPath>
                <g clip-path="url(#_clip1)">
                    <g id="path1948" transform="matrix(2.66034,0,0,2.66034,377.262,234.337)">
                        <path d="M60.51,6.398C55.927,6.419 51.549,6.81 47.698,7.492C36.351,9.496 34.291,13.692 34.291,21.429L34.291,31.648L61.104,31.648L61.104,35.054L24.229,35.054C16.436,35.054 9.613,39.738 7.479,48.648C5.017,58.861 4.908,65.234 7.479,75.898C9.385,83.836 13.936,89.492 21.729,89.492L30.948,89.492L30.948,77.242C30.948,68.392 38.605,60.585 47.698,60.585L74.479,60.585C81.934,60.585 87.885,54.447 87.885,46.96L87.885,21.429C87.885,14.163 81.755,8.704 74.479,7.492C69.873,6.725 65.094,6.377 60.51,6.398ZM46.01,14.617C48.78,14.617 51.041,16.915 51.041,19.742C51.041,22.558 48.78,24.835 46.01,24.835C43.231,24.835 40.979,22.558 40.979,19.742C40.979,16.915 43.231,14.617 46.01,14.617Z" style="fill:rgb(0,60,54);fill-rule:nonzero;"/>
                    </g>
                    <g id="path1950" transform="matrix(2.66034,0,0,2.66034,377.262,234.337)">
                        <path d="M91.229,35.054L91.229,46.96C91.229,56.191 83.403,63.96 74.479,63.96L47.698,63.96C40.362,63.96 34.291,70.239 34.291,77.585L34.291,103.117C34.291,110.383 40.61,114.657 47.698,116.742C56.185,119.237 64.324,119.688 74.479,116.742C81.229,114.787 87.885,110.854 87.885,103.117L87.885,92.898L61.104,92.898L61.104,89.492L101.291,89.492C109.084,89.492 111.988,84.056 114.698,75.898C117.497,67.499 117.378,59.422 114.698,48.648C112.772,40.891 109.094,35.054 101.291,35.054L91.229,35.054ZM76.166,99.71C78.946,99.71 81.198,101.988 81.198,104.804C81.198,107.631 78.946,109.929 76.166,109.929C73.397,109.929 71.135,107.631 71.135,104.804C71.135,101.988 73.397,99.71 76.166,99.71Z" style="fill:rgb(0,60,54);fill-rule:nonzero;"/>
                    </g>
                </g>
            </g>
        </g>
        <g transform="matrix(0.703704,0,0,0.703704,0,907)">
            <g id="Glasses" transform="matrix(1.42105,0,0,1.42105,-227.368,-19.1277)">
                <g>
                    <path d="M540,431.986L540,483.559L525.261,483.86C525.261,483.86 519.587,507.147 511.962,519.231C504.83,530.534 493.444,548.657 478.973,549.339L411.538,542.733C391.346,539.119 376.945,536.668 376.813,516.215L370.587,463.696C367.097,441.887 372.633,431.986 388.749,431.986L540,431.986ZM505.227,471.261C509.9,454.168 502.432,450.577 487.416,450.577L416.302,450.577C395.929,449.588 396.494,459.452 396.494,470.384L400.762,512.671C402.259,526.428 423.069,529.808 434.001,529.808C434.001,529.808 459.963,531.509 470.89,529.808C486.723,527.343 489.255,523.443 496.131,506.515C500.187,494.527 503.099,482.803 505.227,471.261Z" style="fill:rgb(0,60,54);"/>
                </g>
                <g id="Mitad-gafa" serif:id="Mitad gafa" transform="matrix(-1,0,0,1,1080,0)">
                    <path d="M540,431.986L540,483.559L525.261,483.86C525.261,483.86 519.587,507.147 511.962,519.231C504.83,530.534 493.444,548.657 478.973,549.339L411.538,542.733C391.346,539.119 376.945,536.668 376.813,516.215L370.587,463.696C367.097,441.887 372.633,431.986 388.749,431.986L540,431.986ZM505.227,471.261C509.9,454.168 502.432,450.577 487.416,450.577L416.302,450.577C395.929,449.588 396.494,459.452 396.494,470.384L400.762,512.671C402.259,526.428 423.069,529.808 434.001,529.808C434.001,529.808 459.963,531.509 470.89,529.808C486.723,527.343 489.255,523.443 496.131,506.515C500.187,494.527 503.099,482.803 505.227,471.261Z" style="fill:rgb(0,60,54);"/>
                </g>
            </g>
        </g>
    </g>
</svg>
