<?xml version="1.0" encoding="UTF-8" standalone="no"?>
<!DOCTYPE svg PUBLIC "-//W3C//DTD SVG 1.1//EN" "http://www.w3.org/Graphics/SVG/1.1/DTD/svg11.dtd">
<svg width="100%" height="100%" viewBox="0 0 526 481" version="1.1" xmlns="http://www.w3.org/2000/svg" xmlns:xlink="http://www.w3.org/1999/xlink" xml:space="preserve" xmlns:serif="http://www.serif.com/" style="fill-rule:evenodd;clip-rule:evenodd;stroke-linejoin:round;stroke-miterlimit:2;">
    <g transform="matrix(1,0,0,1,-204.436427,-162.834635)">
        <g transform="matrix(0.369775,0,0,0.369775,97.22526,67.060282)">
            <path d="M999.994,1283.909L938.582,1285.163C938.582,1285.163 914.94,1382.192 883.169,1432.542C853.453,1479.638 806.011,1555.15 745.715,1557.992L464.737,1530.467C380.603,1515.408 320.599,1505.196 320.049,1419.975L294.108,1201.146C286.469,1153.412 289.208,1119.368 303.263,1097.804C282.04,989.369 286.568,912.808 314.057,798.776C341.32,684.948 428.486,625.108 528.044,625.108L999.134,625.108L999.134,581.595L656.589,581.595L656.589,451.044C656.589,352.202 682.906,298.597 827.868,272.995C877.065,264.282 932.996,259.287 991.545,259.019C1050.107,258.75 1111.16,263.196 1170.003,272.995C1262.956,288.479 1341.269,358.219 1341.269,451.044L1341.269,777.211C1341.269,872.86 1265.243,951.275 1170.003,951.275L827.868,951.275C746.244,951.275 673.678,1000.516 637.739,1069.021L688.198,1069.021C719.391,1024.328 770.614,994.391 827.868,994.391L1170.003,994.391C1284.01,994.391 1383.99,895.14 1383.99,777.211L1383.99,625.108L1512.535,625.108C1612.221,625.108 1659.208,699.678 1683.814,798.776C1700.987,867.815 1709.929,928.185 1710.064,984.754L1710.064,987.351C1709.972,1025.727 1705.806,1062.381 1697.386,1098.841C1710.865,1120.453 1713.398,1154.17 1705.881,1201.146L1679.939,1419.975C1679.389,1505.196 1619.385,1515.408 1535.252,1530.467L1254.273,1557.992C1193.977,1555.15 1146.536,1479.638 1116.819,1432.542C1085.048,1382.192 1061.407,1285.163 1061.407,1285.163L999.994,1283.909ZM806.303,364.019C770.8,364.019 742.03,393.377 742.03,429.492C742.03,465.468 770.8,494.557 806.303,494.557C841.691,494.557 870.576,465.468 870.576,429.492C870.576,393.377 841.691,364.019 806.303,364.019ZM855.107,1232.667C874.578,1161.446 843.461,1146.484 780.895,1146.484L484.587,1146.484C399.699,1142.363 402.053,1183.463 402.053,1229.013L419.837,1405.208C426.074,1462.529 512.782,1476.613 558.332,1476.613C558.332,1476.613 666.507,1483.7 712.036,1476.613C778.007,1466.342 788.557,1450.092 817.207,1379.558C834.107,1329.609 846.24,1280.759 855.107,1232.667ZM1144.882,1232.667C1153.748,1280.759 1165.882,1329.609 1182.782,1379.558C1211.431,1450.092 1221.981,1466.342 1287.952,1476.613C1333.481,1483.7 1441.656,1476.613 1441.656,1476.613C1487.206,1476.613 1573.914,1462.529 1580.152,1405.208L1597.935,1229.013C1597.935,1183.463 1600.289,1142.363 1515.402,1146.484L1219.094,1146.484C1156.527,1146.484 1125.411,1161.446 1144.882,1232.667Z" style="fill:rgb(0,150,136);"/>
        </g>
    </g>
</svg>
