<svg xmlns="http://www.w3.org/2000/svg" xmlns:xlink="http://www.w3.org/1999/xlink" width="531" height="262" fill-rule="evenodd" stroke-linecap="round" stroke-linejoin="round" stroke-miterlimit="1.5" xmlns:v="https://vecta.io/nano"><g transform="translate(-292.942 -296.665)"><g fill-rule="nonzero"><path d="M398.26 373.348a5.62 5.62 0 0 0-3.459-4.076l-6.199-2.409v6.373l1.174.456c.53.207.92.667 1.036 1.222a1.69 1.69 0 0 1-.456 1.539l-39.777 39.774a2.81 2.81 0 0 1-3.001.63l-8.84-3.438v6.373l6.205 2.413c3.527 1.371 7.529.53 10.206-2.146l41.589-41.588c1.34-1.34 1.914-3.268 1.524-5.124zm-98.638 16.824c.278-3.879 1.524-8.96 5.844-8.721l39.455 15.345c3.537 1.375 7.551.524 10.227-2.167l38.135-38.386a5.61 5.61 0 0 0-1.945-9.185l-39.215-15.25c-3.537-1.375-7.553-.524-10.227 2.168l-44.177 44.465c-3.494 2.875-4.444 8.237-4.444 12.999s.317 10.478 5.716 12.7l-1.272-.298 11.894 4.625v-4.258a9.68 9.68 0 0 1 .227-2.028l-7.994-3.109c-2.542-.963-2.544-4.422-2.225-8.9zm16.45 10.874c-.839.843-1.31 1.98-1.31 3.163v19.723l8.38-1.794 10.446 9.111v-19.717c0-1.189.472-2.326 1.311-3.165l3.34-3.341-18.826-7.321-3.342 3.341zm149.372-86.073c0-.061.02-.122.081-.183a.23.23 0 0 1 .162-.061h2.376c.061 0 .122.02.183.061.041.061.061.122.061.183v13.725c0 .061-.02.122-.061.162-.061.061-.122.081-.183.081h-2.376c-.061 0-.122-.02-.162-.081-.061-.041-.081-.102-.081-.162v-.67c0-.041-.02-.061-.041-.081-.02 0-.061.02-.081.041-.569.751-1.34 1.117-2.335 1.117-.954 0-1.766-.264-2.436-.792-.69-.528-1.178-1.259-1.482-2.173-.223-.711-.345-1.523-.345-2.457 0-.954.122-1.807.365-2.518.305-.873.792-1.563 1.482-2.071.67-.487 1.482-.751 2.477-.751.975 0 1.726.345 2.274 1.015.02.041.061.061.081.041s.041-.041.041-.081v-4.345zm-.426 10.802c.264-.508.406-1.178.406-2.051 0-.914-.142-1.624-.447-2.132a1.49 1.49 0 0 0-1.36-.792c-.629 0-1.117.264-1.442.792-.345.528-.508 1.239-.508 2.152 0 .812.142 1.482.426 2.03a1.62 1.62 0 0 0 1.502.873c.609 0 1.076-.284 1.421-.873z"/><use xlink:href="#C"/><use xlink:href="#D"/><path d="M502.154 321.308c.244.69.365 1.502.365 2.436s-.122 1.787-.386 2.538c-.305.873-.812 1.543-1.462 2.051-.67.508-1.502.772-2.497.772-.975 0-1.726-.345-2.274-1.015-.02-.041-.061-.061-.081-.041s-.041.041-.041.081v4.345c0 .061-.02.122-.061.183-.061.041-.122.061-.183.061h-2.376c-.061 0-.122-.02-.162-.061-.061-.061-.081-.122-.081-.183V318.75c0-.061.02-.122.081-.183.041-.041.102-.061.162-.061h2.376c.061 0 .122.02.183.061.041.061.061.122.061.183v.67c0 .041.02.061.041.061.02.02.061 0 .081-.02.569-.751 1.36-1.117 2.355-1.117.934 0 1.746.264 2.436.772.67.528 1.157 1.259 1.462 2.193zm-3.106 4.548c.345-.528.508-1.239.508-2.152 0-.853-.142-1.523-.426-2.03-.305-.589-.812-.873-1.502-.873-.629 0-1.096.284-1.401.873-.284.487-.426 1.178-.426 2.051 0 .914.142 1.604.447 2.112a1.48 1.48 0 0 0 1.381.812c.609 0 1.076-.264 1.421-.792z"/><use xlink:href="#D" x="22.781"/><path d="M515.859 328.942c-.061 0-.122-.02-.162-.081-.061-.041-.081-.102-.081-.162v-13.725c0-.061.02-.122.081-.183.041-.041.102-.061.162-.061h2.376c.061 0 .122.02.183.061.041.061.061.122.061.183v13.725c0 .061-.02.122-.061.162-.061.061-.122.081-.183.081h-2.376z"/><use xlink:href="#E"/><use xlink:href="#D" x="44.222"/><use xlink:href="#E" x="-94.738" y="63.598"/><path d="M436.45 381.942c1.076 0 1.949.325 2.619.995s.995 1.563.995 2.7v6.66c0 .061-.02.122-.061.162-.061.061-.122.081-.183.081h-2.376c-.061 0-.122-.02-.162-.081-.061-.041-.081-.102-.081-.162v-6.071c0-.548-.162-.975-.447-1.32-.305-.345-.711-.508-1.218-.508s-.893.162-1.198.508-.467.772-.467 1.32v6.071c0 .061-.02.122-.061.162-.061.061-.122.081-.183.081h-2.376c-.061 0-.122-.02-.162-.081-.061-.041-.081-.102-.081-.162v-9.949c0-.061.02-.122.081-.183.041-.041.102-.061.162-.061h2.376c.061 0 .122.02.183.061.041.061.061.122.061.183v.711c0 .041.02.061.041.081s.041 0 .061-.02c.548-.792 1.381-1.178 2.477-1.178z"/><use xlink:href="#F"/><use xlink:href="#G"/><use xlink:href="#H"/><path d="M473.647 381.942c1.076 0 1.949.325 2.619.995s.995 1.563.995 2.7v6.66c0 .061-.02.122-.061.162-.061.061-.122.081-.183.081h-2.376c-.061 0-.122-.02-.162-.081-.061-.041-.081-.102-.081-.162v-6.071c0-.548-.162-.975-.447-1.32-.305-.345-.711-.508-1.218-.508s-.893.162-1.198.508-.467.772-.467 1.32v6.071c0 .061-.02.122-.061.162-.061.061-.122.081-.183.081h-2.376c-.061 0-.122-.02-.162-.081-.061-.041-.081-.102-.081-.162v-13.725c0-.061.02-.122.081-.183.041-.041.102-.061.162-.061h2.376c.061 0 .122.02.183.061.041.061.061.122.061.183v4.487c0 .041.02.061.041.081s.041 0 .061-.02c.548-.792 1.381-1.178 2.477-1.178z"/><use xlink:href="#E" x="-41.257" y="63.598"/><use xlink:href="#I"/><use xlink:href="#F" x="52.546"/><use xlink:href="#D" x="20.71" y="63.598"/><use xlink:href="#G" x="63.714"/><use xlink:href="#E" x="0.751" y="63.598"/><use xlink:href="#H" x="69.013"/><use xlink:href="#I" x="-65.115" y="53.529"/><use xlink:href="#D" x="-51.958" y="117.127"/><use xlink:href="#J"/><use xlink:href="#E" x="-68.79" y="117.127"/><use xlink:href="#D" x="-24.568" y="117.127"/><use xlink:href="#J" x="27.39"/><use xlink:href="#C" x="8.71" y="117.127"/><use xlink:href="#K"/><path d="M501.179 437.684c0 .061-.02.122-.061.162-.061.061-.122.081-.183.081h-1.949c-.061 0-.102.041-.102.102v4.304c0 .447.102.772.284.995s.467.325.873.325h.67c.061 0 .122.02.183.061.041.061.061.122.061.183v1.929c0 .142-.081.244-.244.264l-1.218.041c-1.117 0-1.969-.183-2.518-.569-.548-.365-.832-1.056-.853-2.091v-5.441c0-.061-.041-.102-.102-.102h-1.157c-.061 0-.122-.02-.162-.081-.061-.041-.081-.102-.081-.162v-1.807c0-.061.02-.122.081-.183.041-.041.102-.061.162-.061h1.157c.061 0 .102-.041.102-.102v-2.416c0-.061.02-.122.081-.183.041-.041.102-.061.162-.061h2.274c.061 0 .122.02.183.061.041.061.061.122.061.183v2.416c0 .061.041.102.102.102h1.949c.061 0 .122.02.183.061.041.061.061.122.061.183v1.807z"/><use xlink:href="#C" x="32.446" y="117.127"/><use xlink:href="#G" x="64.14" y="53.529"/><use xlink:href="#H" x="64.14" y="53.529"/><use xlink:href="#K" x="42.111"/><path d="M558.525 324.075c-1.054 0-1.898-.239-2.502-.717-.619-.478-.928-1.111-.928-1.912v-.436c0-.098.042-.141.141-.141h.689c.098 0 .141.042.141.141v.38c0 .548.225.984.675 1.307.45.337 1.068.506 1.87.506.717 0 1.265-.155 1.645-.464.38-.295.562-.703.562-1.209 0-.323-.084-.605-.253-.844-.183-.239-.45-.45-.801-.661-.366-.211-.872-.45-1.532-.717l-1.631-.745c-.394-.211-.703-.478-.942-.815-.239-.323-.366-.745-.366-1.251 0-.787.281-1.392.829-1.842.548-.422 1.293-.647 2.249-.647 1.04 0 1.856.239 2.46.731s.9 1.139.9 1.94v.309c0 .098-.042.141-.141.141h-.703c-.098 0-.141-.042-.141-.141v-.253a1.65 1.65 0 0 0-.633-1.336c-.436-.351-1.026-.52-1.785-.52-.661 0-1.181.141-1.532.408s-.534.661-.534 1.181c0 .337.084.619.267.829.169.225.422.422.745.576.323.169.815.38 1.49.647.689.281 1.237.548 1.659.787.408.239.745.534 1.012.886.253.351.38.787.38 1.293 0 .787-.295 1.42-.872 1.884s-1.392.703-2.418.703z"/><use xlink:href="#L"/><use xlink:href="#M"/><use xlink:href="#N"/><use xlink:href="#O"/><use xlink:href="#P"/><use xlink:href="#L" x="30.732"/><path d="M600.729 324.075c-.675 0-1.251-.169-1.743-.52a2.65 2.65 0 0 1-1.012-1.434c-.127-.436-.197-1.012-.197-1.729s.07-1.293.197-1.715c.183-.605.506-1.068.998-1.42s1.083-.52 1.771-.52c.661 0 1.237.169 1.729.52a2.66 2.66 0 0 1 .984 1.406c.127.408.197.984.197 1.729 0 .759-.07 1.336-.197 1.729-.183.605-.506 1.083-.984 1.434-.492.351-1.068.52-1.743.52zm0-.872c.45 0 .829-.127 1.153-.38.323-.239.534-.576.647-.998.084-.337.127-.815.127-1.42 0-.619-.042-1.097-.112-1.42a1.84 1.84 0 0 0-.647-1.012c-.323-.239-.717-.366-1.181-.366s-.844.127-1.167.366a1.84 1.84 0 0 0-.647 1.012c-.07.323-.112.801-.112 1.42s.042 1.097.112 1.42a1.69 1.69 0 0 0 .647.998c.323.253.717.38 1.181.38zm-.534-7.282c-.056 0-.098-.014-.112-.056-.014-.028-.014-.07.014-.112l.844-1.532c.028-.07.084-.098.169-.098h.633c.056 0 .098.014.112.042.014.042 0 .084-.028.127l-.956 1.532c-.042.07-.098.098-.169.098h-.506z"/><use xlink:href="#Q"/><use xlink:href="#R"/><use xlink:href="#S"/><use xlink:href="#T"/><use xlink:href="#S" x="21.833"/><use xlink:href="#U"/><use xlink:href="#P" x="70.869"/><use xlink:href="#O" x="85.363"/><use xlink:href="#R" x="56.543"/><use xlink:href="#V"/><use xlink:href="#S" x="67.017"/><use xlink:href="#Q" x="92.576"/><use xlink:href="#W"/><use xlink:href="#N" x="143.875"/><use xlink:href="#S" x="100.195"/><use xlink:href="#X"/><use xlink:href="#O" x="157.413"/><use xlink:href="#V" x="67.186"/><use xlink:href="#Y"/><use xlink:href="#S" x="135.651"/><use xlink:href="#U" x="113.819"/><use xlink:href="#M" x="204.791"/><use xlink:href="#O" x="197.255"/><use xlink:href="#R" x="171.246"/><use xlink:href="#S" x="171.249"/><use xlink:href="#N" x="232.767"/><use xlink:href="#Q" x="207.156"/><use xlink:href="#Z"/><use xlink:href="#U" x="-89.693" y="14.058"/><use xlink:href="#V" x="-111.864" y="14.059"/><use xlink:href="#R" x="-39.983" y="14.059"/><use xlink:href="#N" x="11.233" y="14.058"/><use xlink:href="#a"/><use xlink:href="#M" x="31.196" y="14.059"/><use xlink:href="#V" x="-76.774" y="14.059"/><use xlink:href="#V" x="-66.3" y="14.059"/><use xlink:href="#S" x="0.717" y="14.059"/><use xlink:href="#X" x="-102.29" y="14.058"/><use xlink:href="#S" x="14.255" y="14.059"/><path d="M645.899 329.614c-.239 0-.422-.07-.562-.225a.75.75 0 0 1-.225-.562c0-.239.07-.422.225-.576.141-.141.323-.211.562-.211.225 0 .408.07.562.211.155.155.225.337.225.576a.75.75 0 0 1-.787.787zm-2.01 11.331c-.098 0-.141-.042-.141-.141v-.576c0-.098.042-.141.141-.141.998-.014 1.504-.492 1.504-1.448v-7.592c0-.098.042-.141.141-.141h.717c.098 0 .141.042.141.141v7.592c0 .801-.197 1.378-.59 1.743s-1.026.548-1.912.562z"/><use xlink:href="#S" x="25.193" y="14.059"/><use xlink:href="#U" x="3.36" y="14.058"/><use xlink:href="#a" x="70.181"/><use xlink:href="#L" x="104.961" y="14.058"/><use xlink:href="#a" x="81.076"/><use xlink:href="#L" x="115.856" y="14.058"/><use xlink:href="#V" x="2.981" y="14.059"/><use xlink:href="#R" x="77.673" y="14.059"/><use xlink:href="#S" x="77.674" y="14.059"/><use xlink:href="#N" x="139.194" y="14.058"/><use xlink:href="#Q" x="113.58" y="14.058"/><use xlink:href="#O" x="146.771" y="14.058"/><use xlink:href="#O" x="156.767" y="14.058"/><use xlink:href="#a" x="152.719"/><use xlink:href="#M" x="183.914" y="14.059"/><use xlink:href="#L" x="192.616" y="14.058"/><use xlink:href="#b"/><use xlink:href="#L" x="202.879" y="14.058"/><use xlink:href="#R" x="154.222" y="14.059"/><use xlink:href="#O" x="197.905" y="14.058"/><use xlink:href="#R" x="169.084" y="14.059"/><use xlink:href="#c"/><use xlink:href="#S" x="178.654" y="14.059"/><use xlink:href="#U" x="-97.453" y="28.117"/><use xlink:href="#S" x="-63.081" y="28.117"/><use xlink:href="#Z" x="12.54" y="14.059"/><use xlink:href="#O" x="-4.148" y="28.117"/><use xlink:href="#U" x="-69.969" y="28.117"/><use xlink:href="#M" x="21.004" y="28.117"/><use xlink:href="#S" x="-30.423" y="28.117"/><use xlink:href="#S" x="-20.118" y="28.117"/><use xlink:href="#Q" x="5.441" y="28.117"/><use xlink:href="#M" x="51.286" y="28.117"/><use xlink:href="#U" x="-29.255" y="28.117"/><use xlink:href="#S" x="5.117" y="28.117"/><use xlink:href="#R" x="23.098" y="28.118"/><use xlink:href="#V" x="-33.445" y="28.117"/><use xlink:href="#c" x="-141.132" y="14.058"/><use xlink:href="#S" x="40.334" y="28.117"/><use xlink:href="#T" x="37.523" y="28.117"/><use xlink:href="#Z" x="127.581" y="14.059"/><use xlink:href="#U" x="37.888" y="28.117"/><use xlink:href="#S" x="72.261" y="28.117"/><use xlink:href="#c" x="-92.264" y="14.058"/><use xlink:href="#O" x="130.069" y="28.117"/><use xlink:href="#c" x="-78.318" y="14.058"/><use xlink:href="#d"/><path d="M558.104 387.561c-.084 0-.141-.042-.169-.112l-3.065-9.574-.014-.056c0-.07.042-.098.127-.098h.759c.084 0 .141.042.169.112l2.559 8.238c.014.014.028.028.042.028s.028-.014.042-.028l2.559-8.238c.028-.07.084-.112.169-.112h.745c.098 0 .141.056.112.155l-3.093 9.574c-.028.07-.084.112-.169.112h-.773z"/><use xlink:href="#L" x="0.07" y="63.598"/><use xlink:href="#R" x="-48.587" y="63.599"/><use xlink:href="#O" x="-4.907" y="63.598"/><use xlink:href="#M" x="17.742" y="63.598"/><use xlink:href="#U" x="-62.799" y="63.598"/><use xlink:href="#O" x="15.295" y="63.598"/><use xlink:href="#R" x="-13.525" y="63.599"/><use xlink:href="#L" x="46.393" y="63.598"/><use xlink:href="#a" x="22.508" y="49.54"/><use xlink:href="#L" x="57.288" y="63.598"/><use xlink:href="#V" x="-55.587" y="63.599"/><use xlink:href="#Q" x="26.684" y="63.598"/><use xlink:href="#O" x="59.875" y="63.598"/><use xlink:href="#X" x="-87.121" y="63.598"/><path d="M650.173 388.672c-.042 0-.084-.014-.098-.042-.028-.028-.042-.07-.028-.112l.619-3.009c.014-.084.07-.127.155-.127h.619a.16.16 0 0 1 .112.042c.014.028.028.07.014.112l-.787 3.009c-.014.084-.07.127-.155.127h-.45z"/><use xlink:href="#W" x="-51.763" y="63.598"/><use xlink:href="#N" x="92.112" y="63.598"/><use xlink:href="#S" x="48.432" y="63.598"/><use xlink:href="#c" x="-113.155" y="49.539"/><use xlink:href="#L" x="125.416" y="63.598"/><use xlink:href="#U" x="39.758" y="63.598"/><use xlink:href="#b" x="-61.689" y="49.54"/><use xlink:href="#S" x="81.034" y="63.598"/><use xlink:href="#R" x="99.014" y="63.599"/><use xlink:href="#S" x="99.015" y="63.598"/><use xlink:href="#Y" x="-21.988" y="63.599"/><use xlink:href="#V" x="57.12" y="63.599"/><use xlink:href="#Q" x="139.391" y="63.598"/><use xlink:href="#R" x="136.48" y="63.599"/><use xlink:href="#V" x="79.937" y="63.599"/><use xlink:href="#Z" y="63.598"/><use xlink:href="#S" x="-60.466" y="77.657"/><use xlink:href="#U" x="-82.298" y="77.657"/><use xlink:href="#T" x="-58.16" y="77.657"/><use xlink:href="#O" x="7.451" y="77.657"/><use xlink:href="#Q" x="-10.979" y="77.657"/><use xlink:href="#S" x="-21.566" y="77.657"/><use xlink:href="#Q" x="3.993" y="77.657"/><use xlink:href="#M" x="49.838" y="77.657"/><use xlink:href="#S" x="-1.589" y="77.657"/><use xlink:href="#O" x="52.396" y="77.657"/><use xlink:href="#X" x="-91.788" y="77.657"/><use xlink:href="#O" x="65.625" y="77.657"/><path d="M658.51 394.408c.745 0 1.35.225 1.799.661.436.436.661 1.026.661 1.771v4.639c0 .098-.042.141-.141.141h-.717c-.098 0-.141-.042-.141-.141v-4.443c0-.52-.155-.942-.464-1.265-.323-.323-.731-.492-1.223-.492-.52 0-.928.155-1.251.478s-.478.731-.478 1.251v4.471c0 .098-.042.141-.141.141h-.717c-.098 0-.141-.042-.141-.141v-9.56c0-.098.042-.141.141-.141h.717c.098 0 .141.042.141.141v3.332c0 .014.014.028.028.042s.014 0 .028-.014c.408-.576 1.04-.872 1.898-.872z"/><use xlink:href="#L" x="99.436" y="77.657"/><use xlink:href="#c" x="-128.788" y="63.598"/><use xlink:href="#M" x="106.184" y="77.657"/><use xlink:href="#V" x="-1.785" y="77.657"/><use xlink:href="#U" x="33.094" y="77.657"/><use xlink:href="#L" x="127.454" y="77.657"/><use xlink:href="#O" x="114.802" y="77.657"/><use xlink:href="#a" x="113.565" y="63.598"/><use xlink:href="#O" x="132.108" y="77.657"/><use xlink:href="#T" x="85.308" y="77.657"/><use xlink:href="#e"/><use xlink:href="#L" x="174.818" y="77.657"/><use xlink:href="#O" x="162.165" y="77.657"/><use xlink:href="#Q" x="143.735" y="77.657"/><use xlink:href="#M" x="189.58" y="77.657"/><use xlink:href="#S" x="138.154" y="77.657"/><path d="M771.751 404.431c-.07 0-.098-.042-.098-.141v-.562c0-.098.042-.141.141-.141h.056c.366-.014.647-.056.858-.155.197-.098.366-.281.52-.548.141-.281.295-.675.464-1.223.014-.042.014-.07 0-.084l-2.376-6.917-.014-.056c0-.07.042-.098.127-.098h.745c.084 0 .141.042.169.112l1.828 5.68c.014.014.028.028.042.028s.028-.014.042-.028l1.799-5.68c.028-.07.084-.112.169-.112h.731c.098 0 .141.056.112.155l-2.601 7.578c-.225.633-.436 1.097-.633 1.392s-.45.506-.731.633c-.309.112-.717.169-1.251.169h-.098z"/><use xlink:href="#b" x="21.469" y="63.599"/><use xlink:href="#L" x="224.345" y="77.657"/><use xlink:href="#c" x="-3.876" y="63.598"/><use xlink:href="#L" x="234.694" y="77.657"/><use xlink:href="#e" x="71.134"/><use xlink:href="#X" x="75.537" y="77.657"/><use xlink:href="#S" x="189.271" y="77.657"/><use xlink:href="#d" x="96.145" y="49.54"/><path d="M559.425 427.246c.829 0 1.49.253 1.996.759.492.506.745 1.167.745 1.996 0 .815-.253 1.476-.759 1.968-.52.492-1.195.745-2.024.745h-2.741c-.042 0-.056.014-.056.056v4.189c0 .098-.042.141-.141.141h-.717c-.098 0-.141-.042-.141-.141v-9.574c0-.098.042-.141.141-.141h3.697zm-.112 4.639c.548 0 .998-.169 1.35-.52.351-.337.52-.787.52-1.35 0-.576-.169-1.026-.52-1.378s-.801-.52-1.35-.52h-2.671c-.042 0-.056.014-.056.056v3.655c0 .042.014.056.056.056h2.671z"/><use xlink:href="#S" x="-60.058" y="113.138"/><use xlink:href="#U" x="-81.891" y="113.138"/><use xlink:href="#f"/><use xlink:href="#S" x="-42.344" y="113.138"/><use xlink:href="#Q" x="-16.785" y="113.138"/><use xlink:href="#S" x="-27.372" y="113.138"/><use xlink:href="#a" x="12.569" y="99.08"/><use xlink:href="#L" x="47.349" y="113.138"/><use xlink:href="#S" x="-8.983" y="113.138"/><use xlink:href="#Q" x="16.575" y="113.138"/><use xlink:href="#f" x="53.338"/><use xlink:href="#S" x="10.994" y="113.138"/><use xlink:href="#V" x="-35.245" y="113.139"/><use xlink:href="#U" x="2.447" y="113.138"/><use xlink:href="#S" x="36.819" y="113.138"/><use xlink:href="#X" x="-66.187" y="113.138"/><use xlink:href="#O" x="91.226" y="113.138"/><use xlink:href="#f" x="101.924"/><use xlink:href="#L" x="119.708" y="113.138"/><use xlink:href="#b" x="-72.908" y="99.08"/><use xlink:href="#V" x="13.271" y="113.139"/><use xlink:href="#O" x="123.968" y="113.138"/><use xlink:href="#X" x="-23.028" y="113.138"/><use xlink:href="#S" x="93.518" y="113.138"/><use xlink:href="#c" x="-71.008" y="99.079"/><use xlink:href="#f" x="154.883"/><use xlink:href="#O" x="156.429" y="113.138"/><use xlink:href="#R" x="127.609" y="113.139"/><use xlink:href="#V" x="71.066" y="113.139"/><use xlink:href="#a" x="170.531" y="99.08"/><use xlink:href="#N" x="196.609" y="113.138"/><use xlink:href="#X" x="42.429" y="113.138"/><use xlink:href="#f" x="203.41"/><use xlink:href="#N" x="212.496" y="113.138"/><use xlink:href="#U" x="139.487" y="113.138"/><use xlink:href="#O" x="217.587" y="113.138"/><use xlink:href="#X" x="70.59" y="113.138"/><use xlink:href="#R" x="-60.452" y="127.197"/><use xlink:href="#S" x="-60.452" y="127.197"/><use xlink:href="#N" x="1.068" y="127.197"/><use xlink:href="#Q" x="-24.546" y="127.197"/><use xlink:href="#O" x="8.646" y="127.197"/><use xlink:href="#c" x="-196.93" y="113.138"/><use xlink:href="#V" x="-74.819" y="127.197"/><use xlink:href="#a" x="21.833" y="113.138"/><use xlink:href="#L" x="56.613" y="127.197"/><use xlink:href="#S" x="0.281" y="127.197"/><use xlink:href="#R" x="15.45" y="127.197"/><use xlink:href="#O" x="59.13" y="127.197"/><use xlink:href="#R" x="30.31" y="127.197"/><use xlink:href="#V" x="-23.421" y="127.197"/><path d="M671.598 444.187c0-.098.042-.141.141-.141h.717c.098 0 .141.042.141.141v6.734c0 1.054-.295 1.814-.9 2.306s-1.448.731-2.502.731c-.211 0-.38 0-.492-.014-.098-.014-.141-.056-.141-.155l.028-.647c0-.042.014-.084.042-.098.028-.028.056-.042.098-.028l.38.014c.872 0 1.504-.169 1.898-.506.394-.351.59-.886.59-1.631v-.52c0-.014 0-.028-.014-.042-.014 0-.042.014-.056.028-.436.562-1.04.844-1.842.844-.605 0-1.153-.169-1.617-.492a2.31 2.31 0 0 1-.956-1.392c-.112-.38-.169-.956-.169-1.715l.042-1.04a3.04 3.04 0 0 1 .141-.759 2.71 2.71 0 0 1 .914-1.364c.436-.337.97-.506 1.589-.506.829 0 1.462.281 1.898.829.014.014.042.028.056.014s.014-.028.014-.042v-.548zm-.07 4.822a4.2 4.2 0 0 0 .056-.52c.014-.211.014-.506.014-.9l-.014-.97c-.014-.155-.028-.309-.07-.45-.07-.394-.253-.717-.548-.984-.295-.253-.675-.38-1.125-.38-.436 0-.815.127-1.111.38-.309.253-.52.576-.647.984-.098.295-.141.773-.141 1.406 0 .689.042 1.153.141 1.42.098.394.295.717.619.97.309.267.689.394 1.139.394.464 0 .844-.127 1.139-.38a1.61 1.61 0 0 0 .548-.97z"/><use xlink:href="#U" x="21.791" y="127.197"/><use xlink:href="#N" x="107.45" y="127.197"/><use xlink:href="#Z" x="131.897" y="113.138"/><use xlink:href="#V" x="14.888" y="127.197"/><path d="M707.855 451.23c-.52 0-.998-.084-1.392-.253-.408-.169-.731-.394-.942-.675a1.46 1.46 0 0 1-.337-.942v-.169c0-.098.042-.141.141-.141H706c.098 0 .141.042.141.141v.112c0 .309.155.576.492.801.323.239.717.351 1.209.351s.886-.112 1.181-.337c.295-.211.45-.492.45-.829 0-.239-.07-.422-.225-.576s-.337-.267-.548-.351a11.55 11.55 0 0 0-.984-.323l-1.293-.45c-.337-.155-.619-.366-.844-.633-.239-.267-.351-.605-.351-1.012 0-.605.239-1.083.703-1.434s1.083-.534 1.856-.534a3.54 3.54 0 0 1 1.378.253c.394.169.703.408.914.689.211.295.323.633.323.998v.042c0 .098-.042.141-.141.141h-.661c-.098 0-.141-.042-.141-.141v-.042c0-.323-.155-.59-.45-.801-.309-.211-.717-.323-1.237-.323-.478 0-.858.098-1.153.281a.91.91 0 0 0-.436.801.8.8 0 0 0 .422.731c.281.169.717.337 1.307.506.548.155.984.309 1.322.45s.633.337.872.605.366.619.366 1.054c0 .605-.239 1.097-.717 1.462s-1.111.548-1.898.548z"/><use xlink:href="#V" x="32.124" y="127.197"/><use xlink:href="#a" x="128.777" y="113.138"/><use xlink:href="#L" x="163.557" y="127.197"/><use xlink:href="#O" x="150.904" y="127.197"/><use xlink:href="#X" x="3.908" y="127.197"/><use xlink:href="#d" x="17.306" y="99.08"/></g><g fill="none" stroke="#000"><path d="M544.806 297v210.971" stroke-width=".67"/><path d="M293.276 459.677h530.209" stroke-width=".669"/></g><g transform="matrix(1.54033 0 0 1.54033 523.245021 515.102421)"><path d="M11.016 0C8.819 0 7.038 1.725 7.038 3.852v2.667h6.886v.74H3.978C1.781 7.259 0 8.984 0 11.111v5.778c0 2.127 1.781 3.852 3.978 3.852h2.295v-3.259c0-2.128 1.781-3.852 3.978-3.852h7.345c1.859 0 3.366-1.46 3.366-3.26V3.852C20.962 1.725 19.181 0 16.984 0h-5.968zm-.918 4.741c.761 0 1.377-.597 1.377-1.334s-.616-1.333-1.377-1.333-1.377.597-1.377 1.333.617 1.334 1.377 1.334z" fill="url(#A)"/><path d="M16.983 28c2.197 0 3.979-1.724 3.979-3.852v-2.666h-6.886v-.741h9.946c2.197 0 3.978-1.725 3.978-3.852v-5.778c0-2.127-1.781-3.852-3.978-3.852h-2.295v3.26c0 2.127-1.781 3.851-3.978 3.851h-7.345c-1.859 0-3.366 1.46-3.366 3.26v6.518c0 2.128 1.781 3.852 3.978 3.852h5.967zm.919-4.741c-.761 0-1.378.597-1.378 1.334s.617 1.333 1.378 1.333 1.377-.597 1.377-1.333-.617-1.334-1.377-1.334z" fill="url(#B)"/></g><g fill-rule="nonzero"><path d="M430.397 507.878c-1.599 0-3.013-.307-4.213-.953-1.199-.615-2.152-1.476-2.798-2.614s-.984-2.429-.984-3.905v-7.103c0-1.476.338-2.767.984-3.905s1.599-1.999 2.798-2.614 2.614-.922 4.213-.922c1.568 0 2.983.277 4.182.861s2.122 1.414 2.798 2.491c.646 1.076.984 2.337.984 3.751 0 .184-.123.307-.369.338l-3.598.215h-.061c-.215 0-.307-.123-.307-.338 0-1.076-.338-1.968-.984-2.614-.676-.646-1.568-.984-2.644-.984-1.107 0-1.999.338-2.644.984-.676.646-1.015 1.537-1.015 2.614v7.411c0 1.076.338 1.937 1.015 2.583.646.646 1.537.984 2.644.984 1.076 0 1.968-.338 2.644-.984.646-.646.984-1.507.984-2.583 0-.215.123-.338.369-.338l3.598.154c.092 0 .184.031.277.092.061.061.092.123.092.215 0 1.414-.338 2.675-.984 3.751-.676 1.076-1.599 1.937-2.798 2.521s-2.614.892-4.182.892z"/><use xlink:href="#g"/><use xlink:href="#h"/><use xlink:href="#i"/><path d="M513.575 489.459a.35.35 0 0 1-.092.246c-.092.092-.184.123-.277.123H503.12c-.092 0-.154.061-.154.154v4.766c0 .092.061.154.154.154h6.611c.092 0 .184.031.277.092.061.092.092.184.092.277v2.983a.35.35 0 0 1-.092.246c-.092.092-.184.123-.277.123h-6.611c-.092 0-.154.061-.154.154v4.981c0 .092.061.154.154.154h10.086c.092 0 .184.031.277.092.061.092.092.184.092.277v2.983a.35.35 0 0 1-.092.246c-.092.092-.184.123-.277.123H499c-.092 0-.184-.031-.246-.123-.092-.061-.123-.154-.123-.246v-20.787c0-.092.031-.184.123-.277a.35.35 0 0 1 .246-.092h14.206c.092 0 .184.031.277.092.061.092.092.184.092.277v2.983z"/><use xlink:href="#j"/><use xlink:href="#i" x="75.106"/><use xlink:href="#h" x="111.176"/><use xlink:href="#g" x="149.92"/><path d="M616.448 507.97c-1.599 0-3.013-.338-4.213-.984a6.89 6.89 0 0 1-2.86-2.767c-.676-1.168-1.015-2.521-1.015-4.059v-6.58c0-1.507.338-2.86 1.015-4.028a7.01 7.01 0 0 1 2.86-2.737c1.199-.615 2.614-.953 4.213-.953 1.63 0 3.044.338 4.274.953a7.13 7.13 0 0 1 2.829 2.737c.677 1.169 1.015 2.521 1.015 4.028v6.58c0 1.537-.338 2.89-1.015 4.09s-1.63 2.091-2.829 2.737c-1.23.646-2.644.984-4.274.984zm0-3.721c1.138 0 2.029-.369 2.737-1.076s1.045-1.66 1.045-2.86v-6.765c0-1.199-.338-2.152-1.015-2.89-.707-.707-1.63-1.076-2.767-1.076s-2.029.369-2.706 1.076c-.707.738-1.045 1.691-1.045 2.89v6.765c0 1.199.338 2.152 1.045 2.86.676.707 1.568 1.076 2.706 1.076zm23.246 3.383c-.215 0-.338-.092-.43-.277l-3.844-8.518c-.031-.092-.092-.123-.184-.123h-2.86c-.092 0-.154.061-.154.154v8.395a.35.35 0 0 1-.092.246c-.092.092-.184.123-.277.123h-3.598c-.092 0-.184-.031-.246-.123a.28.28 0 0 1-.123-.246v-20.787c0-.092.031-.184.123-.277a.35.35 0 0 1 .246-.092h8.794c1.322 0 2.46.277 3.475.799.984.523 1.753 1.291 2.306 2.275.523.984.799 2.122.799 3.413 0 1.384-.338 2.583-1.045 3.567-.707 1.015-1.66 1.722-2.921 2.122-.092.031-.123.123-.092.215l4.182 8.702c.031.092.061.154.061.184 0 .154-.123.246-.338.246h-3.782zm-7.318-17.804c-.092 0-.154.061-.154.154v5.258c0 .092.061.154.154.154h4.028c.861 0 1.568-.246 2.122-.769.523-.523.799-1.168.799-1.999s-.277-1.507-.799-2.029c-.553-.523-1.261-.769-2.122-.769h-4.028zm29.335-.369a.35.35 0 0 1-.092.246c-.092.092-.184.123-.277.123h-10.086c-.092 0-.154.061-.154.154v4.766c0 .092.061.154.154.154h6.611c.092 0 .184.031.277.092.061.092.092.184.092.277v2.983a.35.35 0 0 1-.092.246c-.092.092-.184.123-.277.123h-6.611c-.092 0-.154.061-.154.154v4.981c0 .092.061.154.154.154h10.086c.092 0 .184.031.277.092.061.092.092.184.092.277v2.983a.35.35 0 0 1-.092.246c-.092.092-.184.123-.277.123h-14.206c-.092 0-.184-.031-.246-.123a.28.28 0 0 1-.123-.246v-20.787c0-.092.031-.184.123-.277a.35.35 0 0 1 .246-.092h14.206c.092 0 .184.031.277.092.061.092.092.184.092.277v2.983z"/><use xlink:href="#j" x="148.137"/></g></g><defs><linearGradient id="A" x1="10.481" y1="0" x2="10.481" y2="20.741" gradientUnits="userSpaceOnUse"><stop offset="0" stop-color="#327ebd"/><stop offset="1" stop-color="#1565a7"/></linearGradient><linearGradient id="B" x1="17.519" y1="7.259" x2="17.519" y2="28" gradientUnits="userSpaceOnUse"><stop offset="0" stop-color="#ffda4b"/><stop offset="1" stop-color="#f9c600"/></linearGradient><path id="C" d="M476.55 318.75c0-.061.02-.122.081-.183.041-.041.102-.061.162-.061h2.376c.061 0 .122.02.183.061.041.061.061.122.061.183v9.949c0 .061-.02.122-.061.162-.061.061-.122.081-.183.081h-2.376c-.061 0-.122-.02-.162-.081-.061-.041-.081-.102-.081-.162v-.69c0-.041-.02-.061-.041-.081-.02 0-.061.02-.081.061-.548.731-1.381 1.096-2.518 1.096-1.035 0-1.868-.305-2.538-.934s-.995-1.502-.995-2.619v-6.781c0-.061.02-.122.081-.183.041-.041.102-.061.162-.061h2.355c.061 0 .122.02.183.061.041.061.061.122.061.183v6.071c0 .548.142.975.447 1.32.284.345.69.508 1.198.508.467 0 .832-.142 1.137-.426.305-.264.487-.629.548-1.076v-6.396z"/><path id="D" d="M486.134 329.105c-1.137 0-2.112-.305-2.924-.893s-1.36-1.401-1.665-2.436a7.4 7.4 0 0 1-.284-2.071c0-.792.102-1.523.284-2.152.305-.995.873-1.787 1.685-2.355s1.787-.853 2.924-.853c1.117 0 2.051.284 2.843.832.792.569 1.34 1.36 1.665 2.355.223.67.325 1.381.325 2.132a7.36 7.36 0 0 1-.284 2.051c-.305 1.056-.853 1.888-1.645 2.477-.812.609-1.787.914-2.924.914zm0-2.457c.447 0 .832-.142 1.137-.406s.528-.65.67-1.117a6.21 6.21 0 0 0 .162-1.421c0-.569-.061-1.056-.162-1.442-.142-.467-.386-.812-.69-1.076s-.69-.386-1.137-.386c-.467 0-.832.122-1.137.386s-.528.609-.67 1.076c-.102.325-.162.812-.162 1.442 0 .609.041 1.076.142 1.421.142.467.365.853.69 1.117.305.264.69.406 1.157.406z"/><path id="E" d="M522.112 317.329a1.53 1.53 0 0 1-1.604-1.604c0-.467.142-.853.447-1.157s.69-.447 1.157-.447.853.142 1.157.447.447.69.447 1.157-.142.832-.447 1.137c-.325.305-.69.467-1.157.467zm-1.218 11.614c-.061 0-.122-.02-.162-.081-.061-.041-.081-.102-.081-.162v-9.969c0-.061.02-.122.081-.183.041-.041.102-.061.162-.061h2.376c.061 0 .122.02.183.061.041.061.061.122.061.183v9.969c0 .061-.02.122-.061.162-.061.061-.122.081-.183.081h-2.376z"/><path id="F" d="M448.105 384.155c0 .061-.02.122-.061.162-.061.061-.122.081-.183.081h-1.949c-.061 0-.102.041-.102.102v4.304c0 .447.102.772.284.995s.467.325.873.325h.67c.061 0 .122.02.183.061.041.061.061.122.061.183v1.929c0 .142-.081.244-.244.264l-1.218.041c-1.117 0-1.969-.183-2.518-.569-.548-.365-.832-1.056-.853-2.091V384.5c0-.061-.041-.102-.102-.102h-1.157c-.061 0-.122-.02-.162-.081-.061-.041-.081-.102-.081-.162v-1.807c0-.061.02-.122.081-.183.041-.041.102-.061.162-.061h1.157c.061 0 .102-.041.102-.102v-2.416c0-.061.02-.122.081-.183.041-.041.102-.061.162-.061h2.274c.061 0 .122.02.183.061.041.061.061.122.061.183v2.416c0 .061.041.102.102.102h1.949c.061 0 .122.02.183.061.041.061.061.122.061.183v1.807z"/><path id="G" d="M455.028 381.962c.487 0 .873.102 1.157.284.102.061.142.162.122.305l-.426 2.315c-.02.162-.102.203-.284.142a2.5 2.5 0 0 0-.711-.102c-.102 0-.264.02-.447.041a2.08 2.08 0 0 0-1.239.528c-.345.325-.508.751-.508 1.279v5.543c0 .061-.02.122-.061.162-.061.061-.122.081-.183.081h-2.376c-.061 0-.122-.02-.162-.081-.061-.041-.081-.102-.081-.162v-9.949c0-.061.02-.122.081-.183.041-.041.102-.061.162-.061h2.376c.061 0 .122.02.183.061.041.061.061.122.061.183v.772c0 .041.02.061.041.081s.041 0 .061-.02c.548-.812 1.299-1.218 2.233-1.218z"/><path id="H" d="M461.647 381.942c.873 0 1.665.142 2.355.447s1.239.731 1.624 1.259c.365.528.569 1.117.569 1.766v6.883c0 .061-.02.122-.061.162-.061.061-.122.081-.183.081h-2.376c-.061 0-.122-.02-.162-.081-.061-.041-.081-.102-.081-.162v-.67c0-.041-.02-.061-.041-.081s-.061 0-.081.041c-.569.751-1.482 1.117-2.741 1.117-1.056 0-1.909-.264-2.558-.772s-.975-1.279-.975-2.274c0-1.035.365-1.848 1.096-2.436.731-.569 1.766-.853 3.127-.853h2.071c.061 0 .102-.041.102-.102v-.447c0-.447-.142-.792-.406-1.056-.264-.244-.67-.365-1.218-.365-.426 0-.772.081-1.035.223-.284.142-.467.365-.548.629-.041.142-.122.223-.264.203l-2.457-.325c-.162-.02-.244-.081-.223-.183.061-.569.284-1.076.69-1.543.386-.467.914-.812 1.584-1.076.65-.264 1.381-.386 2.193-.386zm-.406 8.629c.589 0 1.076-.162 1.482-.467s.609-.711.609-1.198v-.731c0-.061-.041-.102-.102-.102h-1.462c-.609 0-1.076.122-1.421.345-.365.223-.528.548-.528.975 0 .365.122.65.386.853.264.223.609.325 1.035.325z"/><path id="I" d="M488.651 392.683c-.914 0-1.706-.122-2.376-.386s-1.198-.609-1.563-1.076c-.386-.467-.569-.975-.569-1.563v-.203c0-.061.02-.122.081-.183.041-.041.102-.061.162-.061h2.254c.061 0 .122.02.183.061.041.061.061.122.061.183v.02c0 .305.162.548.508.751.325.223.731.325 1.239.325.467 0 .832-.081 1.117-.284.284-.183.426-.406.426-.67 0-.244-.122-.426-.365-.548s-.65-.244-1.198-.386l-1.502-.467c-.873-.305-1.563-.67-2.071-1.096s-.772-1.056-.772-1.868a2.86 2.86 0 0 1 1.178-2.396c.772-.589 1.807-.873 3.086-.873.873 0 1.624.142 2.274.406.65.284 1.157.67 1.523 1.178.345.508.528 1.076.528 1.706 0 .061-.02.122-.061.162-.061.061-.122.081-.183.081h-2.173c-.061 0-.122-.02-.162-.081-.061-.041-.081-.102-.081-.162 0-.305-.142-.548-.447-.751s-.711-.305-1.218-.305c-.447 0-.812.081-1.096.244s-.426.386-.426.67c0 .264.142.467.426.609.264.142.731.284 1.381.426l.508.122.609.183c.954.284 1.726.65 2.274 1.096s.832 1.096.832 1.949c0 .995-.386 1.787-1.178 2.335-.792.569-1.868.853-3.208.853z"/><path id="J" d="M445.465 446.232c-1.076 0-2.01-.264-2.802-.812-.812-.548-1.36-1.279-1.706-2.233-.223-.67-.345-1.482-.345-2.396s.122-1.685.345-2.355c.325-.914.893-1.645 1.685-2.173s1.746-.792 2.822-.792 2.03.264 2.863.812c.812.548 1.36 1.218 1.624 2.051.102.325.162.569.162.731v.041c0 .122-.061.203-.203.223l-2.335.345h-.041c-.122 0-.203-.061-.244-.203l-.061-.325c-.102-.345-.305-.65-.629-.873s-.711-.345-1.157-.345c-.426 0-.792.102-1.096.325s-.508.508-.629.893c-.142.406-.223.954-.223 1.665s.061 1.259.203 1.665c.122.406.345.731.65.954a1.81 1.81 0 0 0 1.096.345c.426 0 .792-.122 1.117-.345.305-.203.528-.528.65-.914.02-.02.02-.061.02-.122.02-.02.02-.041.02-.061.02-.162.102-.223.284-.203l2.335.365c.142.02.203.102.203.223 0 .102-.041.305-.122.609a3.75 3.75 0 0 1-1.645 2.132c-.832.508-1.766.772-2.843.772z"/><path id="K" d="M490.478 446.069c-.061 0-.122-.02-.162-.081-.061-.041-.081-.102-.081-.162V432.1c0-.061.02-.122.081-.183.041-.041.102-.061.162-.061h2.376c.061 0 .122.02.183.061.041.061.061.122.061.183v13.725c0 .061-.02.122-.061.162-.061.061-.122.081-.183.081h-2.376z"/><path id="L" d="M564.374 315.556a.75.75 0 0 1-.787-.787c0-.239.07-.422.225-.576.155-.141.337-.211.562-.211s.408.07.562.211c.155.155.225.337.225.576a.75.75 0 0 1-.787.787zm-.394 8.393c-.098 0-.141-.042-.141-.141v-6.832c0-.098.042-.141.141-.141h.717c.098 0 .141.042.141.141v6.832c0 .098-.042.141-.141.141h-.717z"/><path id="M" d="M570.475 317.538c0 .098-.042.141-.141.141h-1.589c-.042 0-.056.014-.056.056v4.147c0 .45.098.759.309.942.197.183.506.281.942.281h.351c.098 0 .141.042.141.141v.576c0 .098-.042.141-.141.141-.112.014-.281.014-.52.014-.675 0-1.181-.127-1.532-.38s-.52-.717-.52-1.406v-4.457c0-.042-.014-.056-.056-.056h-.858c-.098 0-.141-.042-.141-.141v-.548c0-.098.042-.141.141-.141h.858c.042 0 .056-.014.056-.056v-1.631c0-.098.042-.141.141-.141h.689c.098 0 .141.042.141.141v1.631c0 .042.014.056.056.056h1.589c.098 0 .141.042.141.141v.548z"/><path id="N" d="M576.703 316.99c0-.098.042-.141.141-.141h.717c.098 0 .141.042.141.141v6.832c0 .098-.042.141-.141.141h-.717c-.098 0-.141-.042-.141-.141v-.605c0-.014-.014-.028-.028-.042s-.028 0-.042.014c-.394.576-1.012.872-1.87.872-.45 0-.858-.098-1.237-.281-.38-.169-.689-.436-.9-.787-.225-.351-.337-.759-.337-1.251v-4.752c0-.098.042-.141.141-.141h.717c.098 0 .141.042.141.141v4.457c0 .534.155.956.45 1.265.295.323.703.478 1.223.478.534 0 .956-.155 1.279-.478.309-.323.464-.745.464-1.265v-4.457z"/><path id="O" d="M582.397 316.737c.844 0 1.49.211 1.954.647s.689.998.689 1.715v4.724c0 .098-.042.141-.141.141h-.717c-.098 0-.141-.042-.141-.141v-.576c0-.014 0-.028-.014-.042s-.042 0-.056.014a2.14 2.14 0 0 1-.914.633c-.38.155-.787.225-1.251.225-.661 0-1.223-.169-1.673-.506s-.675-.858-.675-1.546c0-.703.253-1.265.773-1.673.506-.408 1.209-.605 2.123-.605h1.631c.042 0 .056-.014.056-.056v-.534c0-.478-.127-.858-.394-1.139-.267-.267-.689-.408-1.251-.408-.45 0-.815.084-1.097.253a1.14 1.14 0 0 0-.52.731c-.028.098-.084.141-.169.127l-.759-.098c-.098-.014-.141-.056-.127-.112.07-.52.351-.956.844-1.279s1.097-.492 1.828-.492zm-.394 6.481c.548 0 1.026-.141 1.434-.422a1.26 1.26 0 0 0 .605-1.111v-1.097c0-.042-.014-.056-.056-.056h-1.476c-.619 0-1.111.127-1.49.38a1.19 1.19 0 0 0-.562 1.054c0 .408.141.717.436.928.281.211.647.323 1.111.323z"/><path id="P" d="M589.806 324.075c-.675 0-1.251-.183-1.729-.534-.492-.351-.815-.815-.998-1.42-.127-.408-.183-.998-.183-1.743 0-.675.056-1.251.183-1.715.169-.576.492-1.054.984-1.406s1.068-.52 1.743-.52c.689 0 1.279.169 1.785.52.492.351.815.773.97 1.293l.084.422V319c0 .07-.042.112-.127.127l-.703.098h-.028c-.07 0-.112-.042-.127-.127l-.042-.211c-.084-.351-.295-.661-.619-.914-.323-.239-.731-.366-1.195-.366s-.858.127-1.167.366c-.323.253-.52.59-.619.998-.084.351-.127.829-.127 1.42 0 .619.042 1.097.127 1.434.098.422.295.759.619.998.309.253.703.38 1.167.38s.858-.127 1.195-.366a1.48 1.48 0 0 0 .619-.914v-.056l.014-.056c.014-.098.07-.127.169-.112l.689.112c.098.014.141.07.127.155l-.056.281c-.141.548-.464.984-.97 1.322s-1.097.506-1.785.506z"/><path id="Q" d="M608.503 316.751c.745 0 1.35.225 1.799.661.436.436.661 1.026.661 1.771v4.639c0 .098-.042.141-.141.141h-.717c-.098 0-.141-.042-.141-.141v-4.443c0-.52-.155-.942-.464-1.265-.323-.323-.731-.492-1.223-.492-.52 0-.928.155-1.251.478s-.478.731-.478 1.251v4.471c0 .098-.042.141-.141.141h-.717c-.098 0-.141-.042-.141-.141v-6.832c0-.098.042-.141.141-.141h.717c.098 0 .141.042.141.141v.605c0 .014.014.028.028.042s.014 0 .028-.014c.408-.576 1.04-.872 1.898-.872z"/><path id="R" d="M620.355 314.262c0-.098.042-.141.141-.141h.717c.098 0 .141.042.141.141v9.56c0 .098-.042.141-.141.141h-.717c-.098 0-.141-.042-.141-.141v-.59c0-.014 0-.028-.014-.042-.014 0-.042.014-.056.028-.211.267-.464.478-.759.633-.309.155-.647.225-1.026.225-.661 0-1.209-.169-1.645-.506-.45-.337-.759-.801-.928-1.378-.127-.422-.197-1.012-.197-1.785s.056-1.364.169-1.743c.169-.605.478-1.068.928-1.42.45-.337 1.012-.506 1.673-.506.366 0 .703.07 1.012.211.309.155.562.366.773.633.014.014.042.028.056.014.014 0 .014-.014.014-.028v-3.304zm-.253 7.859c.084-.183.141-.408.183-.661s.056-.605.056-1.054-.014-.801-.056-1.068c-.042-.253-.098-.478-.197-.675a1.63 1.63 0 0 0-.548-.773c-.267-.183-.576-.281-.928-.281a1.68 1.68 0 0 0-.97.281 1.63 1.63 0 0 0-.59.745c-.112.211-.197.436-.239.689-.056.267-.084.619-.084 1.083 0 .436.014.787.056 1.026.042.253.098.478.197.675a1.5 1.5 0 0 0 .605.801 1.72 1.72 0 0 0 1.012.295c.38 0 .689-.098.942-.295a1.8 1.8 0 0 0 .562-.787z"/><path id="S" d="M629.071 319.211c.042.267.056.59.056.984v.45c0 .098-.042.141-.141.141h-4.541c-.042 0-.056.014-.056.056.014.52.042.844.084.998.098.422.323.759.661.998s.773.366 1.293.366c.394 0 .745-.084 1.04-.267a1.93 1.93 0 0 0 .703-.759c.056-.084.127-.098.197-.056l.548.323c.07.042.098.112.056.197a2.54 2.54 0 0 1-1.054 1.054c-.464.267-1.012.394-1.617.394-.661-.014-1.223-.169-1.673-.478s-.773-.745-.97-1.293c-.169-.45-.253-1.097-.253-1.94l.028-.97c.014-.239.042-.464.098-.661a2.56 2.56 0 0 1 .97-1.462c.478-.366 1.054-.548 1.743-.548.858 0 1.504.211 1.968.647s.745 1.04.858 1.828zm-2.826-1.603c-.464 0-.844.112-1.139.351-.309.253-.506.562-.605.97-.056.197-.098.52-.112.956 0 .042.014.056.056.056h3.641c.042 0 .056-.014.056-.056-.014-.422-.042-.717-.084-.9a1.8 1.8 0 0 0-.619-1.012c-.323-.239-.717-.366-1.195-.366z"/><path id="T" d="M641.119 316.751c.703 0 1.265.211 1.673.633s.605.998.605 1.729v4.71c0 .098-.042.141-.141.141h-.703c-.098 0-.141-.042-.141-.141v-4.513c0-.52-.141-.928-.436-1.237-.309-.295-.689-.45-1.167-.45-.492 0-.9.155-1.195.45-.309.295-.464.703-.464 1.209v4.541c0 .098-.042.141-.141.141h-.717c-.098 0-.141-.042-.141-.141v-4.513c0-.52-.141-.928-.436-1.237-.295-.295-.675-.45-1.167-.45s-.886.155-1.181.45-.45.703-.45 1.209v4.541c0 .098-.042.141-.141.141h-.717c-.098 0-.141-.042-.141-.141v-6.832c0-.098.042-.141.141-.141h.717c.098 0 .141.042.141.141v.562c0 .014.014.028.028.028.014.014.028 0 .042-.014.211-.267.478-.478.801-.619a2.89 2.89 0 0 1 1.068-.197c.492 0 .9.098 1.251.295s.605.478.787.858c.014.042.042.042.07 0 .211-.38.492-.675.872-.872a2.9 2.9 0 0 1 1.279-.281z"/><path id="U" d="M655.81 316.779c.309 0 .576.056.801.183a.16.16 0 0 1 .084.183l-.155.689c-.028.098-.084.127-.183.084-.155-.07-.337-.098-.548-.098l-.183.014c-.492.014-.886.197-1.209.534-.323.351-.478.787-.478 1.307v4.147c0 .098-.042.141-.141.141h-.717c-.098 0-.141-.042-.141-.141v-6.832c0-.098.042-.141.141-.141h.717c.098 0 .141.042.141.141v.858c0 .028.014.042.028.042.014.014.014 0 .028-.014.197-.351.45-.619.759-.815.295-.183.647-.281 1.054-.281z"/><path id="V" d="M682.873 324.075c-.675 0-1.251-.169-1.743-.52a2.65 2.65 0 0 1-1.012-1.434c-.127-.436-.197-1.012-.197-1.729s.07-1.293.197-1.715c.183-.605.506-1.068.998-1.42s1.083-.52 1.771-.52c.661 0 1.237.169 1.729.52a2.66 2.66 0 0 1 .984 1.406c.127.408.197.984.197 1.729 0 .759-.07 1.336-.197 1.729-.183.605-.506 1.083-.984 1.434-.492.351-1.068.52-1.743.52zm0-.872c.45 0 .829-.127 1.153-.38.323-.239.534-.576.647-.998.084-.337.127-.815.127-1.42 0-.619-.042-1.097-.112-1.42a1.84 1.84 0 0 0-.647-1.012c-.323-.239-.717-.366-1.181-.366s-.844.127-1.167.366a1.84 1.84 0 0 0-.647 1.012c-.07.323-.112.801-.112 1.42s.042 1.097.112 1.42a1.69 1.69 0 0 0 .647.998c.323.253.717.38 1.181.38z"/><path id="W" d="M712.93 316.99c0-.098.042-.141.141-.141h.717c.098 0 .141.042.141.141v9.56c0 .098-.042.141-.141.141h-.717c-.098 0-.141-.042-.141-.141v-3.304c0-.014 0-.028-.014-.042-.014 0-.042.014-.056.028a2.07 2.07 0 0 1-.773.619c-.309.155-.647.225-1.012.225-.661 0-1.223-.169-1.673-.52-.45-.337-.759-.801-.928-1.406-.112-.38-.169-.97-.169-1.743s.07-1.364.197-1.785c.169-.576.478-1.04.928-1.378.436-.337.984-.506 1.645-.506.38 0 .717.07 1.026.225.295.155.548.366.759.633.014.014.042.028.056.014.014 0 .014-.014.014-.028v-.59zm-.267 5.159c.098-.197.155-.422.197-.689.042-.253.056-.605.056-1.054s-.014-.801-.056-1.054-.098-.478-.183-.661a1.8 1.8 0 0 0-.562-.787c-.253-.197-.562-.295-.942-.295a1.72 1.72 0 0 0-1.012.295 1.5 1.5 0 0 0-.605.801c-.098.197-.155.422-.197.661-.042.253-.056.605-.056 1.04 0 .464.028.815.084 1.068.042.267.127.492.239.703a1.63 1.63 0 0 0 .59.745 1.68 1.68 0 0 0 .97.281c.351 0 .661-.098.928-.295.253-.183.436-.436.548-.759z"/><path id="X" d="M734.257 323.963c-.098 0-.141-.042-.141-.141v-9.56c0-.098.042-.141.141-.141h.717c.098 0 .141.042.141.141v9.56c0 .098-.042.141-.141.141h-.717z"/><path id="Y" d="M757.735 314.993c-.52 0-.872.112-1.054.337-.183.239-.281.633-.281 1.181v.281c0 .042.014.056.056.056h1.575c.098 0 .141.042.141.141v.633c0 .098-.042.141-.141.141h-1.575c-.042 0-.056.014-.056.056v6.003c0 .098-.042.141-.141.141h-.703c-.098 0-.141-.042-.141-.141v-6.003c0-.042-.014-.056-.056-.056h-.942c-.098 0-.141-.042-.141-.141v-.633c0-.098.042-.141.141-.141h.942c.042 0 .056-.014.056-.056v-.337c0-.576.07-1.04.197-1.378.127-.323.366-.576.689-.731.309-.155.773-.225 1.35-.225h.408c.098 0 .141.042.141.141v.59c0 .098-.042.141-.141.141h-.323z"/><path id="Z" d="M561.014 332.679c.141.45.211 1.04.211 1.785s-.056 1.336-.183 1.743c-.169.605-.478 1.068-.914 1.406-.45.351-1.012.52-1.687.52-.366 0-.703-.07-1.012-.225a2.07 2.07 0 0 1-.773-.619c-.014-.014-.028-.028-.042-.028-.014.014-.028.028-.028.042v3.304c0 .098-.042.141-.141.141h-.717c-.098 0-.141-.042-.141-.141v-9.56c0-.098.042-.141.141-.141h.717c.098 0 .141.042.141.141v.59c0 .014.014.028.028.028.014.014.028 0 .042-.014.211-.267.464-.478.773-.633.295-.155.633-.225 1.012-.225.661 0 1.209.169 1.659.506.436.337.745.801.914 1.378zm-1.111 3.557a3.17 3.17 0 0 0 .239-.703 6.7 6.7 0 0 0 .07-1.068c0-.436-.014-.787-.056-1.04-.042-.239-.098-.464-.197-.661-.112-.337-.309-.605-.59-.801-.295-.197-.633-.295-1.026-.295-.38 0-.689.098-.942.295a1.8 1.8 0 0 0-.562.787c-.084.183-.141.408-.183.661s-.056.605-.056 1.054.014.801.056 1.054c.042.267.098.492.197.689.112.323.295.576.562.759.253.197.562.295.914.295.38 0 .703-.098.984-.281a1.63 1.63 0 0 0 .59-.745z"/><path id="a" d="M593.854 338.134c-.675 0-1.251-.183-1.729-.534-.492-.351-.815-.815-.998-1.42-.127-.408-.183-.998-.183-1.743 0-.675.056-1.251.183-1.715.169-.576.492-1.054.984-1.406s1.068-.52 1.743-.52c.689 0 1.279.169 1.785.52.492.351.815.773.97 1.293l.084.422v.028c0 .07-.042.112-.127.127l-.703.098h-.028c-.07 0-.112-.042-.127-.127l-.042-.211c-.084-.351-.295-.661-.619-.914-.323-.239-.731-.366-1.195-.366s-.858.127-1.167.366c-.323.253-.52.59-.619.998-.084.351-.127.829-.127 1.42 0 .619.042 1.097.127 1.434.098.422.295.759.619.998.309.253.703.38 1.167.38s.858-.127 1.195-.366a1.48 1.48 0 0 0 .619-.914v-.056l.014-.056c.014-.098.07-.127.169-.112l.689.112c.098.014.141.07.127.155l-.056.281c-.141.548-.464.984-.97 1.322s-1.097.506-1.785.506z"/><path id="b" d="M761.714 338.021c-.084 0-.141-.042-.169-.112l-2.306-6.847-.014-.056c0-.07.042-.098.127-.098h.801c.084 0 .141.042.169.112l1.757 5.511c.014.014.028.028.042.028s.028-.014.042-.028l1.757-5.511c.028-.07.084-.112.169-.112l.801.014c.098 0 .141.056.112.155l-2.306 6.832c-.028.07-.084.112-.169.112h-.815z"/><path id="c" d="M797.842 338.092c-.52 0-.998-.084-1.392-.253-.408-.169-.731-.394-.942-.675a1.46 1.46 0 0 1-.337-.942v-.169c0-.098.042-.141.141-.141h.675c.098 0 .141.042.141.141v.112c0 .309.155.576.492.801.323.239.717.351 1.209.351s.886-.112 1.181-.337c.295-.211.45-.492.45-.829 0-.239-.07-.422-.225-.576s-.337-.267-.548-.351a11.55 11.55 0 0 0-.984-.323l-1.293-.45c-.337-.155-.619-.366-.844-.633-.239-.267-.351-.605-.351-1.012 0-.605.239-1.083.703-1.434s1.083-.534 1.856-.534a3.54 3.54 0 0 1 1.378.253c.394.169.703.408.914.689.211.295.323.633.323.998v.042c0 .098-.042.141-.141.141h-.661c-.098 0-.141-.042-.141-.141v-.042c0-.323-.155-.59-.45-.801-.309-.211-.717-.323-1.237-.323-.478 0-.858.098-1.153.281a.91.91 0 0 0-.436.801.8.8 0 0 0 .422.731c.281.169.717.337 1.307.506.548.155.984.309 1.322.45s.633.337.872.605.366.619.366 1.054c0 .605-.239 1.097-.717 1.462s-1.111.548-1.898.548z"/><path id="d" d="M724.768 352.052c-.239 0-.422-.07-.562-.225a.75.75 0 0 1-.225-.562c0-.239.07-.422.225-.576.141-.141.323-.211.562-.211.225 0 .408.07.562.211.155.155.225.337.225.576a.75.75 0 0 1-.787.787z"/><path id="e" d="M736.31 396.32c.112.422.169.998.169 1.743 0 .773-.07 1.364-.197 1.785-.183.576-.492 1.04-.928 1.378s-.984.506-1.645.506c-.38 0-.717-.07-1.026-.225s-.562-.366-.773-.647c-.014-.014-.028-.028-.042-.028-.014.014-.028.028-.028.042v.605c0 .098-.042.141-.141.141h-.717c-.098 0-.141-.042-.141-.141v-9.56c0-.098.042-.141.141-.141h.717c.098 0 .141.042.141.141v3.318c0 .014.014.028.028.028.014.014.028 0 .042-.014.211-.267.464-.478.773-.633s.647-.225 1.026-.225c.661 0 1.223.169 1.673.506.45.351.759.815.928 1.42zm-1.083 3.444c.098-.197.155-.422.197-.675.042-.239.056-.59.056-1.026 0-.464-.028-.815-.07-1.083a2.68 2.68 0 0 0-.253-.689 1.63 1.63 0 0 0-.59-.745 1.68 1.68 0 0 0-.97-.281c-.351 0-.661.098-.914.281-.267.197-.45.45-.562.773-.098.197-.155.422-.197.675a6.7 6.7 0 0 0-.07 1.068c0 .45.028.801.07 1.04.042.253.098.478.183.675a1.8 1.8 0 0 0 .562.787c.253.197.562.295.942.295.394 0 .731-.098 1.026-.295.281-.197.478-.464.59-.801z"/><path id="f" d="M579.557 430.676c0 .098-.042.141-.141.141h-1.589c-.042 0-.056.014-.056.056v4.147c0 .45.098.759.309.942.197.183.506.281.942.281h.351c.098 0 .141.042.141.141v.576c0 .098-.042.141-.141.141-.112.014-.281.014-.52.014-.675 0-1.181-.127-1.532-.38s-.52-.717-.52-1.406v-4.457c0-.042-.014-.056-.056-.056h-.858c-.098 0-.141-.042-.141-.141v-.548c0-.098.042-.141.141-.141h.858c.042 0 .056-.014.056-.056V428.3c0-.098.042-.141.141-.141h.689c.098 0 .141.042.141.141v1.631c0 .042.014.056.056.056h1.589c.098 0 .141.042.141.141v.548z"/><path id="g" d="M441.897 507.632c-.092 0-.184-.031-.246-.123-.092-.061-.123-.154-.123-.246v-20.787c0-.092.031-.184.123-.277a.35.35 0 0 1 .246-.092h3.598c.092 0 .184.031.277.092.061.092.092.184.092.277v17.281c0 .092.061.154.154.154h10.055c.092 0 .184.031.277.092.061.092.092.184.092.277v2.983a.35.35 0 0 1-.092.246c-.092.092-.184.123-.277.123h-14.176z"/><path id="h" d="M473.323 507.632c-.215 0-.338-.092-.4-.307l-.922-3.013c-.031-.092-.092-.123-.154-.123h-7.564c-.061 0-.123.031-.154.123l-.892 3.013c-.061.215-.184.307-.4.307h-3.905c-.123 0-.215-.031-.277-.123-.061-.061-.061-.154-.031-.307l6.642-20.787c.061-.215.184-.307.4-.307h4.828c.215 0 .338.092.4.307l6.642 20.787c.031.031.031.092.031.154 0 .184-.123.277-.338.277h-3.905zm-8.087-6.98c-.031.123.031.184.123.184h5.412c.123 0 .154-.061.123-.184l-2.767-9.133c-.031-.092-.061-.123-.092-.123-.031.031-.061.061-.092.123l-2.706 9.133z"/><path id="i" d="M485.408 507.632c-.215 0-.338-.092-.4-.307l-6.334-20.787-.031-.123c0-.215.123-.307.338-.307h3.874a.4.4 0 0 1 .43.307l4.09 15.006c.031.061.061.092.092.092s.061-.031.092-.092l4.028-15.006a.4.4 0 0 1 .43-.307h3.782c.123 0 .215.031.277.123s.061.184.031.307l-6.427 20.787c-.061.215-.184.307-.4.307h-3.874z"/><path id="j" d="M523.968 507.878c-1.63 0-3.075-.277-4.305-.799s-2.183-1.261-2.829-2.245c-.676-.953-1.015-2.091-1.015-3.382v-.676c0-.092.031-.184.123-.277a.35.35 0 0 1 .246-.092h3.505c.092 0 .184.031.277.092.061.092.092.184.092.277v.461c0 .83.369 1.507 1.138 2.06.769.584 1.783.861 3.075.861 1.076 0 1.906-.246 2.429-.707s.799-1.015.799-1.691c0-.492-.154-.922-.492-1.261s-.769-.615-1.322-.892l-2.706-1.045c-1.384-.461-2.521-.953-3.475-1.445s-1.783-1.168-2.398-2.029c-.676-.83-.984-1.876-.984-3.136 0-1.23.307-2.306.953-3.229s1.507-1.63 2.644-2.122 2.429-.738 3.905-.738c1.568 0 2.952.277 4.182.83 1.199.553 2.152 1.322 2.86 2.306.676 1.015 1.015 2.152 1.015 3.475v.461a.35.35 0 0 1-.092.246c-.092.092-.184.123-.277.123h-3.536c-.092 0-.184-.031-.246-.123-.092-.061-.123-.154-.123-.246v-.246c0-.861-.338-1.599-1.045-2.214-.707-.584-1.691-.892-2.921-.892-.953 0-1.722.215-2.245.615-.553.4-.83.984-.83 1.691 0 .523.154.953.492 1.291.307.338.769.676 1.414.922l2.89 1.138 3.444 1.414c.799.4 1.568 1.015 2.245 1.814.646.83.984 1.876.984 3.167 0 1.937-.707 3.444-2.122 4.551-1.414 1.138-3.321 1.691-5.75 1.691z"/></defs></svg>