<svg xmlns="http://www.w3.org/2000/svg" xmlns:xlink="http://www.w3.org/1999/xlink" width="410" height="120" fill-rule="evenodd" stroke-linecap="round" stroke-linejoin="round" stroke-miterlimit="1.5" xmlns:v="https://vecta.io/nano"><style><![CDATA[.B{fill-rule:nonzero}.C{stroke-width:7.174}]]></style><g transform="scale(.213542 .111111)"><path d="M150.262 261.572h-20.964l-3.646-100.55h28.074l-3.464 100.55zm59.315-5.606h84.95v44.144h-84.95v-44.144zm0 75.675h84.95v43.794h-84.95v-43.794zm165.049-70.069h-20.964l-3.646-100.55h28.074l-3.464 100.55z" fill="#f25e0d" class="B"/><path d="M459.827 399.96c0-5.606.729-10.861 2.188-15.766s3.281-8.759 5.833-11.562 5.287-4.204 8.386-4.204 5.833 1.401 8.386 4.204 4.557 6.657 6.016 11.562 2.005 10.16 2.005 15.766c0 5.956-.547 11.211-2.005 16.116s-3.464 8.759-6.016 11.562-5.287 4.204-8.386 4.204-5.833-1.401-8.386-4.204-4.375-6.657-5.833-11.562-2.188-10.16-2.188-16.116zm141.716-263.113c3.464 0 6.38 1.401 9.115 4.204 2.552 2.803 4.557 6.657 6.198 11.562 1.458 4.905 2.188 10.16 2.188 16.466 0 5.956-.729 11.211-2.188 16.116-1.641 4.905-3.646 8.759-6.38 11.562-2.552 2.803-5.469 4.204-8.932 4.204-3.281 0-6.38-1.401-8.932-4.204-2.734-2.803-4.74-6.657-6.38-11.562-1.458-4.905-2.188-10.16-2.188-16.116 0-6.306.729-11.562 2.188-16.466 1.641-4.905 3.646-8.759 6.38-11.562 2.552-2.803 5.651-4.204 8.932-4.204zm19.323 235.435c0 27.327-2.734 49.75-7.839 67.617-5.287 17.517-13.125 31.882-23.334 42.392-10.391 10.51-23.516 18.919-39.558 24.875l-4.74-43.093c10.755-4.905 19.323-10.51 25.886-17.167s11.485-15.415 14.948-26.977c3.281-11.211 5.104-25.926 5.104-44.144v-100.2h-35.73v-38.889h65.262v135.585zm79.915-141.891c10.026 0 18.594 4.204 25.886 12.613s12.761 19.97 16.589 35.385c3.828 15.065 5.651 32.933 5.651 53.253 0 21.371-1.823 39.589-5.651 54.655-3.828 15.415-9.479 26.977-16.589 35.385-7.292 8.058-15.86 11.912-25.886 11.912-10.209 0-18.776-3.854-26.068-11.912s-12.761-19.62-16.589-35.035c-3.646-15.065-5.651-33.283-5.651-54.655 0-20.32 2.005-37.838 5.833-53.253 3.828-15.065 9.297-26.977 16.589-35.385 7.292-8.759 15.86-12.963 25.886-12.963zm0 42.042c-6.016 0-10.573 4.905-13.49 14.364s-4.375 24.524-4.375 45.195c0 21.021 1.458 36.436 4.375 45.896s7.292 14.014 13.49 14.014c6.016 0 10.573-4.555 13.49-14.364 2.734-9.459 4.193-24.875 4.193-45.896 0-20.32-1.458-35.385-4.375-44.845s-7.292-14.364-13.308-14.364zm111.998-135.586c3.281 0 6.38 1.401 8.932 4.204s4.74 6.657 6.198 11.562 2.188 10.16 2.188 16.466c0 5.956-.729 11.211-2.188 16.116s-3.646 8.759-6.198 11.562c-2.734 2.803-5.651 4.204-8.932 4.204-3.464 0-6.38-1.401-9.115-4.204s-4.74-6.657-6.198-11.562c-1.641-4.905-2.37-10.16-2.37-16.116 0-6.306.729-11.562 2.37-16.466 1.458-4.905 3.464-8.759 6.198-11.562s5.651-4.204 9.115-4.204zm-39.011 99.85h56.876v152.052h25.157v38.889h-82.945v-38.889h28.256V275.586h-27.344v-38.889zm108.355 190.941v-190.94h25.704l2.188 22.072c4.375-9.459 9.115-16.817 14.037-21.371s10.573-7.007 16.771-7.007c8.568 0 15.131 5.255 20.053 15.065 4.74 10.16 7.292 24.174 7.292 42.042v140.14h-29.532V303.964c0-8.058-.365-14.364-.911-18.919-.729-4.555-1.641-7.708-2.917-9.81-1.458-1.752-3.281-2.803-5.833-2.803-2.917 0-5.833 1.752-8.75 5.606-2.734 3.503-5.651 8.759-8.568 16.116v133.483h-29.532zm138.796-125.776c0 24.524 1.458 45.896 4.375 63.764 2.917 18.218 7.11 34.685 12.943 49.399 5.651 14.715 13.125 30.13 22.605 46.246l-8.203 16.817c-10.938-17.167-19.688-33.984-26.615-50.45s-12.214-34.685-16.042-55.355c-3.646-20.32-5.469-43.794-5.469-70.42s1.823-50.1 5.469-70.42c3.828-20.32 9.115-38.889 16.042-55.355s15.677-33.283 26.615-50.45l8.203 16.817c-9.479 16.116-17.136 31.882-22.787 46.246-5.651 14.715-10.026 31.181-12.761 49.049-2.917 18.218-4.375 39.589-4.375 64.114z" class="B"/><path d="M1177.034 234.595c5.651 0 10.209 3.503 13.672 11.211 3.646 7.357 5.469 21.021 5.469 40.991v140.841h-14.584V291.702c0-9.109-.182-15.766-.547-20.32s-.911-7.708-2.005-10.16c-1.094-2.102-2.734-3.153-5.104-3.153-6.38 0-12.214 7.357-17.136 22.773v146.796h-14.766V291.702c0-9.109-.182-15.766-.365-20.32-.365-4.555-1.094-7.708-2.188-10.16-.911-2.102-2.734-3.153-4.922-3.153-6.563 0-12.214 7.357-17.318 22.773v146.796h-14.401V238.449h12.214l1.094 22.072c2.917-8.408 6.016-14.715 9.479-19.269 3.281-4.555 7.292-6.657 11.849-6.657 9.297 0 15.313 8.058 17.865 24.875 2.917-8.058 6.016-14.364 9.479-18.569s7.474-6.306 12.214-6.306zm94.683 194.444c-2.552 14.014-5.651 26.276-9.115 36.436-3.646 10.51-8.203 18.919-13.854 25.576-5.833 7.007-12.761 10.861-20.964 12.613l-2.552-24.174c6.563-2.102 11.849-5.255 15.86-9.459 4.011-4.555 7.11-9.81 9.297-16.466s4.375-15.415 6.38-25.926h-5.287l-34.454-189.189h16.771l28.256 166.066 27.891-166.066h16.224l-34.454 190.59zm103.066-47.998c0 8.759 1.458 15.415 4.375 19.269 2.917 4.204 6.927 6.306 12.032 6.306 5.287 0 10.755-2.102 16.407-6.657l4.193 22.072c-2.917 2.803-6.38 5.255-10.391 7.007s-8.203 2.803-12.943 2.803c-5.833 0-10.938-2.102-15.313-6.306-4.557-4.204-7.839-10.16-10.391-18.218-2.37-8.058-3.646-17.167-3.646-28.028V186.247h-30.079v-23.824h45.756v218.618zm111.264-231.231c3.281 0 6.198 2.102 8.203 5.956 2.188 4.204 3.281 9.109 3.281 15.065 0 6.306-1.094 11.562-3.281 15.415-2.005 4.204-4.922 6.306-8.203 6.306s-6.016-2.102-8.203-6.306-3.099-9.109-3.099-15.415c0-5.956.911-10.861 3.099-15.065 2.188-3.854 4.922-5.956 8.203-5.956zm-32.631 88.638h45.027v165.365h27.891v23.824h-73.83v-23.824h30.261v-141.54h-29.35v-23.824zm140.999 168.519c7.474 0 13.49-2.803 17.865-8.408 4.375-5.255 6.563-12.613 6.563-21.722 0-6.306-.547-11.562-1.641-15.415-1.276-3.854-3.464-7.708-6.927-11.211-3.464-3.153-8.386-6.306-15.313-9.81-7.474-3.503-13.672-7.357-18.412-11.562s-8.568-9.81-11.12-16.817c-2.734-6.657-4.011-15.415-4.011-25.926s1.641-19.62 4.74-27.327 7.474-13.664 13.125-17.868 12.214-6.306 19.506-6.306c7.474 0 14.219 1.752 20.053 5.606 6.016 3.854 11.302 8.759 15.677 15.065l-6.927 20.671c-4.011-5.606-8.386-9.81-12.943-12.613s-9.662-4.555-15.677-4.555c-7.292 0-12.761 2.452-16.224 6.657-3.281 4.555-5.104 10.51-5.104 18.218 0 5.606.911 10.16 2.37 14.014 1.641 3.503 4.193 6.657 7.839 9.459s8.932 6.306 16.042 9.81c7.11 3.854 12.943 7.708 17.5 12.262s8.021 10.51 10.573 18.218c2.552 7.357 3.828 16.466 3.828 28.028 0 12.613-1.823 23.473-5.651 31.882-4.011 8.408-8.932 14.715-15.313 18.569-6.198 3.854-13.125 5.956-20.417 5.956-15.495 0-28.438-8.408-38.647-25.576l9.115-19.97c3.828 6.657 8.386 11.562 13.49 15.065s10.391 5.606 16.042 5.606zm156.833 11.211c-3.281 4.204-7.474 7.357-12.214 9.81-4.922 2.452-9.662 3.854-14.219 3.854-6.927 0-12.761-2.452-17.865-7.357-4.922-4.905-8.568-11.562-11.302-20.32-2.552-8.408-3.828-18.218-3.828-29.429V261.922h-22.605v-23.473h22.605v-43.093l15.677-3.503v46.596h33.907l-1.823 23.473h-32.084v112.462c0 10.51 1.458 18.919 4.375 24.174s7.839 8.058 14.401 8.058 12.943-3.153 18.776-9.109l6.198 20.671z" fill="#2691d9" class="B"/><path d="M1838.835 301.862c0-24.524-1.276-45.896-4.193-64.114-2.917-17.868-7.11-34.334-12.761-49.049-5.833-14.364-13.308-30.13-22.969-46.246l8.203-16.817c10.938 17.167 19.87 33.984 26.797 50.45s12.214 35.035 15.86 55.355c3.828 20.32 5.651 43.794 5.651 70.42s-1.823 50.1-5.651 70.42c-3.646 20.671-8.932 38.889-15.86 55.355s-15.86 33.283-26.797 50.45l-8.203-16.817c9.479-16.116 17.136-31.531 22.787-46.246s10.026-31.181 12.943-49.399c2.734-17.868 4.193-39.239 4.193-63.764z" class="B"/><g fill="#525252" class="B"><path d="M100.021 918.406l-.86-5.165-.86-5.372-.86-4.339c-.323-1.653-.753-3.099-1.075-4.132l-1.29-2.893c-2.473-4.752-5.483-6.198-9.03-4.339s-6.02 5.992-7.31 12.603c-.968 4.752-.108 10.537 2.365 17.149.43 1.24.968 2.479 1.505 3.719.538 1.446 1.075 2.479 1.505 3.512l2.043 3.926 1.72 3.512 2.365 4.339 2.043 3.926 3.763 7.025c.968 1.859 2.15 4.545 3.548 7.645s2.58 5.992 3.44 8.264l2.58 8.884c.968 3.512 1.613 6.611 1.935 9.711s.538 6.405.538 9.917c-.108 3.719-.323 7.438-.86 11.157-1.075 6.818-2.903 11.983-5.59 15.909s-5.805 6.198-9.138 7.025c-3.118.62-6.235.207-9.353-1.24-3.225-1.653-6.02-4.132-8.493-7.645-3.118-4.339-5.483-10.124-7.095-17.355-1.72-7.025-2.58-14.256-2.903-21.901-.108-1.859.215-3.512.86-4.959s1.505-2.066 2.473-2.273 1.72.413 2.58 1.653c.753 1.24 1.075 2.893 1.183 4.752.215 5.992.968 11.57 2.15 16.735s2.795 9.297 4.838 12.19c1.828 2.479 3.87 4.339 6.128 5.372 2.258 1.24 4.515 1.653 6.773 1.033 4.623-1.033 7.525-5.578 8.708-13.43.43-2.273.645-4.752.645-7.025s-.108-4.545-.43-6.818-.753-4.545-1.29-7.025c-.645-2.273-1.29-4.545-2.043-6.818-.753-2.066-1.72-4.339-2.795-6.818l-3.333-7.025-5.805-11.157-2.365-4.132-1.935-3.926c-.968-1.859-1.613-3.306-2.15-4.339l-1.72-3.926c-.753-1.446-1.29-2.893-1.828-4.339-3.978-10.537-5.053-20.454-3.225-29.752.968-5.165 2.58-9.711 4.838-13.43 2.15-3.719 4.515-6.405 7.203-7.851 2.58-1.446 5.375-1.653 8.278-.413s5.375 3.926 7.633 8.058a36.99 36.99 0 0 1 2.15 4.959c.645 2.066 1.183 4.132 1.72 6.405s.86 4.339 1.183 5.785c.323 1.653.645 3.719.968 6.198s.538 3.926.645 4.339c.323 1.859.323 3.512-.108 5.165-.538 1.653-1.183 2.686-2.15 3.306s-1.828.62-2.688-.413c-.86-.826-1.398-2.066-1.72-3.926zm38.057 37.396c.43-.207 1.075-.207 1.935-.413-.323-3.099-.968-6.198-2.043-9.711-1.183-3.719-2.365-6.611-3.763-8.884s-2.58-3.306-3.548-3.306c-3.01 0-5.698 3.719-8.063 11.157-1.075 3.512-2.043 7.438-2.795 11.777 3.763.207 7.095.207 9.998 0 3.655-.207 6.45-.413 8.278-.62zm-19.781 14.876l-.215 3.512c-.43 11.777.43 21.281 2.688 28.719 2.15 7.645 5.375 11.364 9.568 11.57 2.258.207 4.085-.413 5.483-1.859s3.333-4.132 5.59-8.264c.538-1.033 1.075-2.066 1.613-3.512s1.075-2.686 1.505-3.719l1.505-4.959 1.398-4.339c.538-1.653 1.398-2.686 2.365-3.099.968-.207 1.828 0 2.688 1.033.753 1.033 1.29 2.686 1.505 4.545.108 1.859 0 3.719-.538 5.165-.108.207-.645 1.446-1.398 3.719l-1.72 5.372c-.538 1.446-1.183 3.306-1.935 5.165-.753 2.066-1.505 3.719-2.258 4.752-2.688 4.959-5.268 8.471-7.525 10.744s-5.16 3.306-8.493 3.099c-3.763-.207-6.88-2.066-9.568-5.578-2.795-3.512-4.73-8.058-6.128-13.636-1.398-5.372-2.365-11.364-2.903-17.355s-.753-12.397-.43-18.801c.538-13.636 2.365-25.413 5.483-35.33 3.763-11.983 8.493-17.975 14.083-17.768 2.795 0 5.375 1.859 7.633 5.785s4.193 8.264 5.805 13.43c1.398 4.752 2.365 9.297 2.903 13.636.323 2.479.43 4.752.323 6.818-.215 3.099-.968 5.578-2.15 7.438-.753 1.033-1.72 1.653-3.118 2.273-.86.207-2.043.62-3.44.826-2.043.207-4.945.413-8.708.62-3.118.207-6.988.207-11.61 0zm46.011 53.925l.108 30.991c0 1.859-.323 3.306-1.075 4.752-.753 1.24-1.505 1.859-2.473 1.859-1.075 0-1.828-.62-2.473-2.066-.753-1.446-1.075-3.099-1.075-4.959v-32.024l-.215-29.752.108-21.694c0-6.611-.108-13.636-.43-21.074-.215-7.025-.538-14.049-1.075-21.074-.108-1.859.108-3.719.753-5.165.538-1.446 1.398-2.479 2.365-2.686.86-.207 1.828.207 2.58 1.24a9.55 9.55 0 0 1 1.398 4.545l.645 10.124c3.118-8.058 6.665-12.603 10.643-13.43 3.118-.62 5.913.826 8.493 4.339s4.73 8.264 6.45 14.049c1.613 5.578 2.795 11.777 3.548 18.388.753 6.818.968 13.843.753 20.868-.323 7.231-1.398 14.049-3.333 20.661-2.043 6.611-4.73 11.983-8.278 16.116-1.828 2.273-3.87 3.926-5.913 4.752-2.043 1.033-3.978 1.653-5.805 1.446-1.828 0-3.655 0-5.698-.207zm-.108-13.636c2.795.62 5.375.62 7.633 0 2.258-.413 4.3-1.653 6.235-3.926 3.118-3.719 5.375-9.091 6.773-16.116 1.398-6.818 1.828-14.049 1.398-21.487-.43-7.231-1.505-14.049-3.333-20.041-1.183-4.339-2.58-7.438-3.978-9.297s-2.795-2.479-4.085-2.273c-1.505.207-3.225 2.273-4.945 5.992-1.935 3.926-3.655 10.124-5.483 18.595l-.215.826c.108 5.992.108 15.909 0 30.165v17.562z"/><use xlink:href="#B"/><use xlink:href="#C"/><use xlink:href="#B" x="83.425"/><path d="M364.051 889.481l.108 22.107-.108 22.314-.108 22.314c0 26.239.43 48.14 1.398 65.702.108 1.859-.215 3.512-.753 4.959-.645 1.446-1.398 2.273-2.365 2.479s-1.828-.413-2.58-1.446c-.753-1.24-1.29-2.893-1.398-4.752l-.538-11.157c-.968 2.066-1.935 3.926-2.903 5.785-4.623 8.264-10.105 10.33-16.448 6.198-5.913-3.719-9.46-13.43-10.643-29.132-.968-12.603-.215-25.62 2.15-39.462 2.58-14.669 6.235-24.38 10.965-28.719 2.903-2.686 5.913-3.099 9.03-.826 2.473 1.859 4.838 5.165 7.095 10.33v-46.28c0-1.859.323-3.512 1.075-4.959.645-1.446 1.505-2.066 2.473-2.066s1.72.62 2.473 1.859c.753 1.446 1.075 2.893 1.075 4.752zm-7.203 72.933c-2.258-8.264-3.655-13.223-4.3-14.669-1.828-4.752-3.548-7.851-5.268-9.091-1.183-.826-2.258-.826-3.333.207-2.903 2.686-5.375 9.711-7.31 20.868-2.043 11.777-2.688 22.934-1.935 33.264.753 10.124 2.688 16.116 5.805 18.182 3.763 2.273 6.88 1.24 9.568-3.306 2.58-4.545 4.945-11.157 6.988-19.834l-.215-25.413v-.207zm35.691-26.033l-1.613-.826c-.43-.207-.753-.413-.968-.413-2.795.207-5.375 3.512-7.74 9.711-2.473 6.405-4.193 14.256-5.16 23.967-.86 9.711-.645 18.595.538 26.446 1.183 8.058 3.333 13.43 6.343 16.529 3.763 3.512 7.203 2.893 10.32-2.066 3.333-5.165 5.698-13.016 7.095-23.553 1.29-10.124 1.183-19.834-.215-29.132-1.505-9.297-4.408-16.116-8.6-20.661zm2.58-12.81c.538.207.968.826 1.29 1.446 3.01 3.306 5.483 7.438 7.525 12.603 1.935 5.372 3.333 10.744 4.085 16.322.753 5.785 1.29 11.777 1.398 17.975s-.323 11.983-1.183 17.562c-1.72 13.636-4.945 23.967-9.568 30.991-5.483 8.471-11.503 9.711-17.953 3.306-2.473-2.273-4.623-5.785-6.343-10.33-1.828-4.339-3.01-9.091-3.655-14.463-.645-5.165-1.075-10.537-1.183-16.322-.215-5.785 0-11.157.645-16.322 1.075-11.777 3.118-21.694 6.235-29.752 3.763-9.504 8.063-14.463 13.115-15.082h.108c.968-.826 1.828-.826 2.795-.207s1.828 1.446 2.688 2.273z"/><use xlink:href="#C" x="169.856"/><path d="M1336.473 888.241l1.29 124.172c17.308-2.066 27.844-3.099 31.606-3.306.968 0 1.828.62 2.58 1.859s1.075 2.893 1.075 4.752-.323 3.512-.968 4.959-1.505 2.066-2.473 2.066c-3.44.207-6.988.413-10.643.826l-12.793 1.446-10.75 1.446c-.43.207-.86.413-1.398.413-.968-.207-1.828-.826-2.473-2.273-.753-1.446-1.075-2.893-.968-4.752l.43-31.611-.215-35.124-.538-30.372-.86-33.677c-.108-1.859.215-3.512.968-4.959.645-1.446 1.505-2.066 2.473-2.273s1.72.413 2.473 1.653c.753 1.446 1.075 2.893 1.183 4.752zm49.559 42.768c.538 12.397.645 27.892.43 46.487l-.538 45.454c0 1.859-.323 3.512-.968 4.959-.753 1.24-1.613 1.859-2.58 1.859s-1.828-.62-2.473-1.859c-.753-1.446-1.075-3.099-1.075-4.959l.538-45.867c.215-16.735.108-31.818-.43-44.834-.108-1.859.215-3.719.86-5.165s1.505-2.066 2.473-2.273 1.828.413 2.58 1.653c.645 1.24 1.075 2.686 1.183 4.545zm-1.505-39.462c.753 1.24 1.075 2.893 1.075 4.752s-.323 3.512-.968 4.752c-.753 1.446-1.613 2.066-2.58 2.066s-1.828-.62-2.473-2.066c-.753-1.24-1.075-2.893-1.075-4.752s.323-3.512 1.075-4.959c.645-1.24 1.505-1.859 2.473-1.859s1.828.62 2.473 2.066zm34.832 53.098c-.323-.62-.86-1.446-1.613-2.686l-1.398-2.479c-.215-.413-.538-1.033-1.075-1.653s-.968-1.24-1.29-1.446-.753-.62-1.29-.826c-2.688-1.033-4.73-.207-6.343 2.893-1.613 2.893-1.935 6.611-1.075 11.157.43 2.273 1.29 4.752 2.58 7.231 1.29 2.686 3.333 6.198 6.128 10.744.538 1.033.968 1.653 1.29 2.273 2.043 3.306 3.655 5.992 4.838 8.264s2.473 5.578 3.87 9.504c1.398 4.132 2.15 8.058 2.473 11.983.43 6.405-.108 11.983-1.505 16.735-1.505 4.752-3.548 8.471-6.235 10.744-2.365 2.273-4.945 3.306-7.848 3.099s-5.59-1.446-8.063-4.132c-2.688-2.893-4.838-6.405-6.45-10.537-1.613-3.926-3.01-8.884-4.408-14.876-.43-1.859-.43-3.512-.108-5.372.323-1.653.968-2.893 1.935-3.719.86-.826 1.72-.826 2.688-.207.86.62 1.505 1.859 1.935 3.512 1.183 4.959 2.258 8.884 3.44 11.777 1.183 3.099 2.58 5.578 4.408 7.438 1.398 1.446 3.01 2.273 4.73 2.479s3.333-.413 4.73-1.859c2.903-2.686 4.193-7.025 3.655-13.016-.215-3.099-1.075-6.405-2.473-9.711s-3.548-7.231-6.235-11.777c-.215-.413-.86-1.446-1.828-3.099l-2.15-3.306-1.935-3.512c-.86-1.446-1.505-2.893-1.935-3.926l-1.72-3.719c-.538-1.446-1.075-2.893-1.505-4.339s-.753-2.686-.968-4.132c-.86-4.959-1.075-9.711-.538-14.049s1.613-8.264 3.225-11.364 3.655-5.165 5.913-6.405c2.258-1.033 4.623-1.033 6.988 0 .968.413 1.828 1.033 2.688 1.653.753.62 1.613 1.446 2.365 2.479s1.398 2.066 1.828 2.686l1.72 3.099 1.29 2.479c.753 1.24 1.075 2.686 1.183 4.545s-.215 3.512-.86 4.959c-.753 1.446-1.505 2.066-2.473 2.273s-1.828-.413-2.58-1.859zm8.814-35.95c3.118.207 6.558.413 10.105.413l1.183-25.413c.108-1.859.538-3.512 1.29-4.752.753-1.033 1.72-1.653 2.688-1.446s1.72 1.033 2.365 2.479c.538 1.446.86 3.099.753 4.959l-1.183 23.76c2.365-.207 5.16-.62 8.385-1.033.968-.207 1.828.413 2.58 1.653s1.075 2.686 1.183 4.545-.215 3.512-.86 4.959-1.505 2.066-2.473 2.273l-9.353 1.033c-1.398 36.57-1.183 63.636.538 81.611.538 4.545 1.183 7.851 2.043 9.711.86 2.066 1.613 3.099 2.365 3.306.86.207 1.935-.62 3.118-2.479 1.183-1.653 2.473-4.545 3.655-8.884 1.398-1.653 2.688-9.091 4.085-22.314.323-1.859.86-3.099 1.72-4.132.86-.826 1.72-1.033 2.688-.413s1.613 1.859 2.15 3.512c.43 1.653.43 3.306.108 5.165-1.183 10.537-2.688 18.595-4.515 24.38-1.613 5.992-3.655 10.744-6.02 14.256-2.473 3.306-4.945 4.752-7.633 4.339-2.795-.62-5.053-2.893-6.88-7.438-1.935-4.339-3.118-9.917-3.763-16.735-1.935-18.595-2.15-46.487-.753-83.47-3.548 0-6.88-.207-9.998-.413-.968-.207-1.72-.826-2.473-2.273-.645-1.24-.968-2.893-.86-4.752s.43-3.306 1.183-4.752c.753-1.24 1.613-1.859 2.58-1.653z"/><use xlink:href="#B" x="1273.112"/></g><path d="M277.352 740.3l-21.073 81-21.073-81h42.146z"/><path d="M256.279 507.236V756.5" fill="none" stroke="#000" class="C"/><path d="M1442.272 740.3l-21.073 81-21.073-81h42.146z"/><path d="M1421.198 507.236V756.5" fill="none" stroke="#000" class="C"/></g><defs ><path id="B" d="M228.165 1000.43c-2.043-9.297-3.548-15.496-4.623-18.182-2.365-5.578-5.375-8.264-9.138-8.058s-6.665 3.512-8.815 9.917c-2.903 8.471-3.225 15.702-.753 21.694 1.075 2.686 2.58 4.545 4.73 5.785 1.935 1.446 4.3 1.653 6.88.826 3.118-1.24 7.095-5.165 11.718-11.983zm-19.673-68.801c6.128-10.95 11.718-14.669 16.663-10.95 3.978 2.893 6.988 10.537 9.138 22.727l1.613 11.983c.538 4.339.968 8.884 1.29 13.636l.753 11.983.43 11.57c.108 4.339.215 7.025.323 7.851 0 .207.215 4.132.753 11.364l.323 6.405c.108 2.479.215 4.339.108 5.372l-.323 1.859c-.323 1.859-.968 3.099-1.828 3.719-1.398 1.446-2.795 1.033-3.978-1.033-.323-.62-.538-1.24-.753-2.066s-.43-2.066-.645-3.512l-.43-2.893c-.108-1.033-.215-1.653-.323-1.859l-.753-4.132c-4.623 6.611-9.03 10.537-13.115 11.983-3.87 1.446-7.418 1.033-10.643-1.033-3.333-2.066-5.913-5.578-7.848-10.537-2.043-4.959-3.118-10.744-3.01-17.562 0-6.818 1.075-13.43 3.333-19.834 2.258-6.611 5.268-11.364 8.923-14.049s7.418-2.893 11.18-1.033c3.655 2.066 6.88 6.198 9.46 12.397.43 1.033.86 2.479 1.398 3.926-.753-12.603-1.72-22.52-3.01-29.958-1.398-8.264-3.118-13.223-4.945-14.669-2.15-1.653-5.268 1.033-9.353 8.264-.753 1.446-1.613 2.066-2.473 1.859-.968-.207-1.828-.826-2.473-2.273-.753-1.446-1.075-3.099-.968-4.959s.43-3.306 1.183-4.545z"/><path id="C" d="M243.647 995.264v-21.281-7.851l-.215-8.884-.215-7.645-.538-8.678-.645-7.851c-.215-1.859 0-3.512.538-5.165.538-1.446 1.29-2.479 2.258-2.893.86-.207 1.828 0 2.688 1.033.753 1.033 1.29 2.686 1.398 4.545.968 8.471 1.505 18.388 1.72 29.752 1.183-3.099 2.365-6.198 3.763-9.297 5.913-13.016 12.148-22.314 18.706-27.479.968-.826 1.828-.826 2.795-.207.86.826 1.505 2.066 1.935 3.719.323 1.859.323 3.512 0 5.165-.43 1.859-1.075 3.099-1.935 3.719-5.59 4.545-10.965 12.603-16.126 23.967-5.483 12.19-8.385 23.347-8.923 33.884-.108.62-.108 1.24-.108 1.859v17.768c0 1.859 0 4.339-.108 7.025v3.099.413c-.108.207-.108.62-.108.826l-.215 1.24c-.323 1.446-.86 2.686-1.72 3.306-.753.826-1.398 1.033-2.043.62-.753-.62-1.183-1.033-1.505-1.446s-.645-.826-.86-1.446-.43-1.24-.538-2.066c0-.207 0-.62-.108-1.033v-1.446l-.108-14.669c0-4.752.108-9.091.215-12.603z"/></defs></svg>