<svg xmlns="http://www.w3.org/2000/svg" xmlns:xlink="http://www.w3.org/1999/xlink" width="1534" height="422" fill-rule="evenodd" stroke-linejoin="round" stroke-miterlimit="2" xmlns:v="https://vecta.io/nano"><g transform="scale(.798958 .390741)"><g fill-rule="nonzero"><path d="M160.312 600.705v14.741h-15.695v122.536h15.695v14.895h-23.506V600.705h23.506z"/><g fill="#ff2f92"><use xlink:href="#B"/><path d="M223.969 732.608h-6.126l-13.23-74.891h6.973l9.32 54.236 9.32-54.236h7.039l-13.295 74.891z"/><use xlink:href="#C"/><use xlink:href="#D"/><path d="M326.574 734.34c-3.193 0-5.735-1.066-7.56-3.065-1.89-1.866-3.193-5.064-4.041-9.595-.847-4.398-1.238-10.527-1.238-18.123v-45.841h6.843v45.841c0 4.931.13 8.795.456 11.194.326 2.532.978 4.264 1.825 5.197.847 1.066 2.086 1.466 3.715 1.466 2.477 0 4.301-.4 5.474-1.199 1.238-.8 2.086-2.265 2.542-4.264s.717-5.064.717-9.195v-49.039h6.843v74.891h-6.843v-1.199c-2.086 1.866-4.953 2.932-8.733 2.932z"/><use xlink:href="#E"/><use xlink:href="#F"/></g><g fill="#0096ff"><use xlink:href="#G"/><use xlink:href="#H"/><use xlink:href="#I"/><use xlink:href="#B" x="426.58"/><path d="M652.505 657.716v62.099h10.362v12.793H635.3v-12.793h10.428v-49.173h-7.495v-12.926h14.273zm-4.497-10.927c-1.955 0-3.324-.666-4.041-2.132-.717-1.333-1.108-3.998-1.108-7.729 0-3.865.391-6.396 1.108-7.862.717-1.333 2.086-2.132 4.041-2.132s3.324.8 4.106 2.132c.717 1.466 1.108 3.998 1.108 7.862 0 3.731-.391 6.396-1.108 7.729-.782 1.466-2.151 2.132-4.106 2.132z"/><use xlink:href="#J"/><path d="M718.779 655.984c3.845 0 6.843 1.466 8.994 4.398 2.151 2.798 3.715 7.329 4.562 13.592.912 6.13 1.303 14.392 1.238 24.919h-23.527c.13 5.863.456 10.394 1.043 13.592s1.434 5.597 2.672 6.929 2.933 1.999 5.018 1.999c1.564 0 2.802-.267 3.78-.8.978-.666 1.89-1.732 2.672-3.331.847-1.599 1.76-3.998 2.868-7.063l5.474 7.329c-1.955 6.263-4.041 10.661-6.257 13.059-2.151 2.399-5.018 3.731-8.538 3.731-3.91 0-6.973-1.333-9.254-3.998s-3.91-6.796-4.888-12.526c-.978-5.597-1.499-13.193-1.499-22.654s.521-16.924 1.499-22.654c.978-5.597 2.607-9.861 4.888-12.526s5.344-3.998 9.254-3.998zM726.6 686.1c-.261-4.398-.652-7.862-1.173-10.261-.521-2.532-1.303-4.264-2.411-5.33-1.043-1.066-2.411-1.599-4.236-1.599-1.955 0-3.519.533-4.692 1.599s-2.086 2.798-2.737 5.33c-.587 2.399-.978 5.863-1.173 10.261H726.6zm11.239 46.508v-74.891h6.778v-.4c1.825-.8 3.193-1.199 4.301-1.199 1.499 0 2.672.533 3.519 1.333s1.694 2.399 2.477 4.797c.978-2.399 2.02-3.998 2.998-4.797.912-.8 2.281-1.333 3.91-1.333 2.281 0 3.975.933 5.214 2.932 1.303 1.866 2.151 5.064 2.672 9.461.587 4.398.847 10.661.847 18.523v45.575h-6.843v-45.575c0-6.396-.13-10.927-.456-13.326s-.912-3.598-1.76-3.598c-1.043 0-1.76.4-2.346 1.333-.521.933-.912 2.532-1.173 4.797s-.391 5.464-.391 9.461v46.907h-6.778v-44.775c0-6.796-.196-11.327-.521-13.859-.326-2.665-.912-3.865-1.76-3.865-.978 0-1.825.4-2.346 1.333s-.978 2.532-1.173 4.797c-.261 2.265-.391 5.464-.391 9.461v46.907h-6.778z"/><use xlink:href="#F" x="391.033"/><use xlink:href="#K"/><use xlink:href="#L"/><use xlink:href="#B" x="782.063"/><use xlink:href="#K" x="142.19"/><use xlink:href="#J" x="355.484"/><use xlink:href="#E" x="710.965"/><use xlink:href="#I" x="568.778"/><use xlink:href="#C" x="888.709"/><path d="M1181.49 734.34c-3.519 0-6.322-.933-8.407-2.932-2.086-1.866-4.106-5.197-5.865-9.994v-85.685h6.778v22.921c2.281-1.732 4.758-2.665 7.495-2.665 3.519 0 6.322 1.333 8.407 3.998s3.584 6.929 4.497 12.526c.912 5.73 1.369 13.193 1.369 22.787 0 9.461-.456 17.057-1.369 22.654s-2.411 9.728-4.497 12.393-4.888 3.998-8.407 3.998zm0-12.926c1.89 0 3.389-.8 4.497-2.265 1.043-1.599 1.825-4.264 2.281-7.996s.652-8.928.652-15.858-.196-12.127-.652-15.991c-.456-3.731-1.238-6.396-2.281-7.996-1.108-1.599-2.607-2.399-4.497-2.399-2.086 0-3.65.4-4.692 1.333s-1.76 2.665-2.151 5.064c-.456 2.399-.652 5.997-.652 10.794v30.916c.978 1.732 1.955 2.932 2.998 3.598.978.533 2.477.8 4.497.8z"/><use xlink:href="#D" x="924.259"/><use xlink:href="#E" x="888.707"/><use xlink:href="#F" x="888.713"/></g><g fill="#945300"><use xlink:href="#K" x="497.674"/><use xlink:href="#G" x="924.259"/><use xlink:href="#B" x="1279.745"/><path d="M1501.755 734.34c-3.975 0-7.039-1.333-9.385-3.998-2.281-2.665-3.91-6.796-4.888-12.393-1.043-5.597-1.564-13.193-1.564-22.787 0-9.461.521-17.057 1.564-22.787.978-5.597 2.672-9.728 4.953-12.393 2.346-2.665 5.54-3.998 9.58-3.998 3.389 0 6.191 1.333 8.212 3.865 2.086 2.399 4.041 6.929 5.931 13.326l-5.67 6.796c-.978-3.065-1.825-5.464-2.542-6.929-.717-1.599-1.564-2.665-2.411-3.198-.912-.666-2.086-.933-3.519-.933-2.477 0-4.367.8-5.67 2.399-1.303 1.466-2.281 4.131-2.802 7.862s-.782 9.062-.782 15.991.261 12.26.782 15.991 1.434 6.396 2.737 7.996c1.238 1.466 3.063 2.265 5.474 2.265 1.434 0 2.607-.267 3.519-.933s1.76-1.732 2.542-3.331 1.694-3.865 2.737-7.063l5.605 7.063c-1.955 6.396-3.975 10.927-6.061 13.459-2.086 2.399-4.888 3.731-8.342 3.731z"/><use xlink:href="#H" x="1030.899"/><use xlink:href="#L" x="675.422"/><path d="M1607.03 734.34c-3.65 0-6.582-1.333-8.668-3.998s-3.65-6.796-4.562-12.393-1.369-13.193-1.369-22.654c0-9.595.456-17.057 1.369-22.787.912-5.597 2.477-9.861 4.562-12.526s5.018-3.998 8.668-3.998c2.802 0 5.474 1.066 7.951 2.932v-23.187h6.843v96.879h-6.843v-.8a13.65 13.65 0 0 1-7.951 2.532zm0-12.926c2.737 0 4.758-.533 5.996-1.866 1.303-1.199 1.955-2.932 1.955-5.064v-28.651c0-5.863-.652-10.128-1.89-12.793-1.238-2.798-3.259-4.131-6.061-4.131-2.02 0-3.65.8-4.758 2.399s-1.89 4.264-2.346 7.996c-.456 3.865-.717 9.062-.717 15.991s.261 12.127.717 15.858 1.238 6.396 2.346 7.996c1.108 1.466 2.737 2.265 4.758 2.265z"/><use xlink:href="#K" x="782.069"/><use xlink:href="#J" x="995.354"/><use xlink:href="#K" x="853.158"/><use xlink:href="#H" x="1244.195"/><use xlink:href="#L" x="888.708"/><use xlink:href="#F" x="1421.939"/></g><path d="M1849.294 615.446v-14.741h23.581v152.172h-23.581v-14.895h15.771V615.446h-15.771z"/><path d="M.322 0H.224L.011-.727h.111l.151.532.151-.532h.111L.322 0z" fill="#ffafd5" transform="matrix(141.121283 0 0 288.55431 251.34583 1067.71508)"/><path d="M.49 0H.081v-.727h.104v.631H.49V0z" fill="#addeff" transform="matrix(141.121283 0 0 288.55431 964.54383 1067.71508)"/><path d="M.286.013C.224.013.175 0 .139-.025S.078-.09.062-.144a.81.81 0 0 1-.024-.221.8.8 0 0 1 .024-.219c.016-.054.041-.094.077-.119S.224-.74.286-.74c.044 0 .08.006.109.018s.052.032.07.06a.42.42 0 0 1 .048.113l-.099.034C.403-.551.393-.578.384-.596S.362-.626.347-.633.312-.644.286-.644c-.037 0-.065.009-.086.026s-.035.045-.044.085-.013.096-.013.168a.83.83 0 0 0 .013.17c.009.04.023.068.044.085s.049.026.086.026c.026 0 .047-.003.061-.01S.374-.113.384-.13s.019-.044.03-.08l.099.034c-.014.047-.03.084-.048.111s-.042.047-.07.06S.331.013.286.013z" fill="#ffdaad" transform="matrix(141.121283 0 0 288.55431 1604.35883 1064.04208)"/><g fill="#404040"><path d="M86.069 88.549c.751 6.04 1.552 14.536 2.503 25.592l2.353 25.285 1.151 10.032c.15.921.25 1.74.35 2.457.15-.921.3-1.945.451-3.071.25-1.536.501-3.481.751-5.835l.35-3.481 1.902-15.56 2.353-19.45 1.752-15.663c.1-.921.35-1.638.751-2.15.35-.512.801-.614 1.252-.409s.801.717 1.051 1.433.3 1.638.2 2.559l-1.752 15.663-2.353 19.655-1.902 15.56c0 .102-.15 1.228-.451 3.583l-.651 5.733c-.3 2.355-.601 4.3-.851 5.63-.2.921-.401 1.74-.551 2.355-.3 1.126-.651 1.843-1.101 2.252-.851.921-1.652.819-2.403-.307-.401-.512-.751-1.433-1.101-2.662-.451-1.433-.851-3.583-1.202-6.347-.15-.512-.551-4.095-1.252-10.544-.401-3.378-1.202-11.875-2.353-25.592l-2.503-25.081c-.1-.921-.05-1.74.2-2.559s.551-1.331 1.001-1.536.851-.102 1.302.409c.401.512.651 1.126.751 2.047z"/><use xlink:href="#M"/><use xlink:href="#N"/><use xlink:href="#O"/><use xlink:href="#P"/><use xlink:href="#Q"/><use xlink:href="#R"/><use xlink:href="#S"/><use xlink:href="#M" x="153.6"/><use xlink:href="#Q" x="97.377"/><use xlink:href="#M" x="195.254"/><use xlink:href="#R" x="131.321"/><use xlink:href="#N" x="229.198"/><use xlink:href="#R" x="159.407"/><path d="M385.409 111.071l.3 6.654.35 7.064.05 2.252 1.202-5.323c1.051-4.197 2.153-7.064 3.304-8.701.851-1.228 1.752-1.74 2.653-1.638.951.205 1.852 1.126 2.653 2.866.601 1.331 1.101 3.481 1.552 6.552l.701 6.142 1.502-6.449c.951-3.685 1.902-6.552 2.854-8.599 1.452-2.969 2.904-4.095 4.406-3.583.951.307 1.802 1.536 2.453 3.583.501 1.433.901 3.378 1.252 5.733.551 3.788.901 8.701 1.101 14.844.15 3.173.2 6.654.25 10.544l.05 9.111c-.05 2.15-.05 4.095 0 5.733 0 .921-.15 1.74-.451 2.457-.35.717-.701 1.024-1.151 1.024s-.851-.307-1.202-.921c-.35-.717-.501-1.433-.501-2.355-.05-1.638-.05-3.583 0-5.733l-.05-8.906-.2-10.442c-.25-5.835-.551-10.339-1.001-13.513-.25-1.74-.551-2.969-.801-3.788-.05-.307-.15-.409-.2-.512l-.15-.307c-.35-.102-.801.512-1.452 1.843-.751 1.536-1.502 3.788-2.303 6.961-.701 2.559-1.302 5.323-1.802 8.19-.551 2.866-.851 5.016-1.001 6.347-.15 1.945-.25 5.835-.25 11.465 0 .205 0 .614.05 1.331l.1 1.945c.05.921.05 1.536 0 2.047-.05.409-.1.819-.2 1.228-.35 1.536-.951 2.15-1.752 1.843-.451-.102-.801-.614-1.101-1.331-.05-.205-.15-.409-.25-.717l-.15-1.024v-.717c-.05-.307-.05-.717-.05-1.228-.05-.717-.05-1.843-.1-3.276v-2.15c-.05-.921-.1-2.764-.1-2.866-.2-5.016-.501-9.725-.851-14.332-.25-3.071-.551-5.63-.801-7.678-.3-2.047-.551-3.276-.801-3.788s-.401-.717-.551-.819c-.1 0-.25.102-.451.409-.701.921-1.452 3.071-2.253 6.347-.701 2.764-1.352 5.733-1.902 9.111l-1.101 7.371c-.25 2.559-.401 5.63-.551 9.316-.05.307 0 1.331.05 2.969.05.819.05 1.331.05 1.433v.512c0 .307-.05.717-.1 1.024-.2 1.024-.601 1.74-1.151 2.047-.701.409-1.252 0-1.702-1.228l-.3-1.024v-.409c-.05-.102-.05-.205-.05-.307-.35-3.89-.551-9.623-.601-17.198l-.15-13.308-.3-6.961-.35-6.552c-.05-.921.1-1.843.401-2.559s.701-1.024 1.151-1.126.851.205 1.202.819.501 1.331.551 2.252z"/><use xlink:href="#R" x="212.476"/><use xlink:href="#T"/><use xlink:href="#U"/><use xlink:href="#O" x="344.649"/><use xlink:href="#V"/><use xlink:href="#R" x="-33.594" y="99.186"/><use xlink:href="#N" x="76.599" y="99.186"/><use xlink:href="#M" x="104.686" y="99.186"/><use xlink:href="#T" x="-193.352" y="99.186"/><path d="M268.306 209.642l-.2 4.914-.3 6.449-.2 7.268.05 7.575c.15 5.323.551 9.418 1.252 12.182.701 2.662 1.652 3.992 2.854 4.095.701 0 1.402-.819 2.103-2.559.751-1.74 1.452-4.402 2.103-7.985.901-4.607 1.652-10.646 2.203-18.017l.601-8.292.2-3.173c.05-.512.05-.819.05-1.024 0-.102 0-.307.05-.409v-.205l.1-.614c.05-.307.15-.512.25-.717.35-.819.851-1.228 1.402-1.126s1.001.614 1.302 1.536c.05.307.15.614.2.921.05.205.05.409.05.614v.307c0 16.482.601 30.711 1.752 42.893.1.921.05 1.74-.2 2.457-.25.819-.651 1.331-1.101 1.536-.451.102-.901-.102-1.252-.512-.401-.614-.651-1.331-.701-2.252-.501-4.811-.901-9.725-1.151-14.741-.15 1.126-.35 2.15-.551 3.173-.801 4.197-1.702 7.575-2.653 9.93-1.402 3.378-3.004 5.118-4.856 5.016-2.553-.102-4.456-2.764-5.757-7.882-.951-3.583-1.502-8.497-1.652-14.741-.1-2.047-.1-4.709-.05-8.087l.2-7.78c.05-1.74.15-3.992.3-6.654l.2-4.709c.05-.921.25-1.638.601-2.252s.801-.921 1.252-.819.801.409 1.151 1.126c.3.717.451 1.638.401 2.559z"/><use xlink:href="#R" x="84.31" y="99.186"/><use xlink:href="#W"/><use xlink:href="#M" x="223.841" y="99.186"/><use xlink:href="#N" x="236.157" y="99.186"/><use xlink:href="#X"/><use xlink:href="#Y"/><use xlink:href="#U" x="-65.686" y="99.186"/><use xlink:href="#M" x="307.05" y="99.186"/><use xlink:href="#N" x="690.643" y="1.024"/><use xlink:href="#U" x="364.619" y="1.024"/><use xlink:href="#R" x="639.476" y="1.024"/><use xlink:href="#P" x="710.669" y="1.024"/><use xlink:href="#M" x="776.204" y="1.024"/><use xlink:href="#S" x="666.012" y="1.024"/><use xlink:href="#X" x="555.367" y="-98.161"/><use xlink:href="#Z"/><use xlink:href="#T" x="514.513" y="1.024"/><path d="M973.518 155.192l9.162-37.16c2.653-10.339 5.507-20.372 8.461-30.097.25-.819.601-1.331 1.051-1.536s.851-.102 1.252.409c.35.512.601 1.126.701 2.047s.05 1.843-.2 2.559c-2.954 9.623-5.707 19.553-8.361 29.892l-9.062 36.751c-.2.921-.501 1.536-.951 1.843s-.851.205-1.252-.205c-.451-.409-.751-1.024-.851-1.945-.15-.921-.15-1.74.05-2.559zm38.45-49.751c-.651-3.788-1.402-6.654-2.253-8.804s-1.602-3.378-2.353-3.788c-.651-.307-1.402.205-2.253 1.536-.901 1.331-1.852 4.095-2.804 8.292-.751 3.173-1.352 7.268-1.802 12.08s-.601 9.725-.551 14.741c.05 5.323.451 10.032 1.202 14.025.701 4.095 1.702 7.064 3.004 9.009 1.452 2.15 2.804 2.457 4.105 1.024s2.603-4.3 3.855-8.701c1.001-3.583 1.852-7.678 2.553-12.182l.501-3.481h-.15a18.93 18.93 0 0 0-3.605-.102h-2.603c-.951.102-1.752.102-2.453.205s-1.101.102-1.202.102c-.451 0-.851-.307-1.202-1.024-.35-.614-.501-1.433-.501-2.355s.15-1.638.501-2.355c.3-.717.651-1.024 1.101-1.024.15 0 .551 0 1.252-.102s1.502-.102 2.453-.205h2.603a21.84 21.84 0 0 1 3.855.102c.651.102 1.151.205 1.502.307.25.102.501.205.651.409.501.307.851.921 1.051 1.74.2.717.3 1.638.25 2.662a79.98 79.98 0 0 0-.15 1.945c-.15 1.536-.35 3.276-.701 5.221-.751 4.914-1.702 9.418-2.854 13.513-1.552 5.426-3.254 9.213-5.107 11.261-2.553 2.764-5.057 2.355-7.61-1.433-1.852-2.764-3.254-6.756-4.105-11.773-.901-5.016-1.402-10.544-1.502-16.584-.1-5.528.1-10.954.601-16.277.501-5.426 1.202-9.93 2.053-13.615 1.202-5.016 2.553-8.804 4.055-11.158s3.104-3.173 4.806-2.355c2.804 1.433 5.107 6.961 6.909 16.686.15.921.15 1.74-.05 2.559-.2.921-.501 1.536-.901 1.843-.451.307-.851.307-1.252-.102-.451-.409-.751-1.024-.901-1.843z"/><use xlink:href="#R" x="819.261" y="1.024"/><use xlink:href="#T" x="606.784" y="1.024"/><use xlink:href="#R" x="863.018" y="1.024"/><use xlink:href="#P" x="934.21" y="1.024"/><use xlink:href="#M" x="999.746" y="1.024"/><use xlink:href="#S" x="889.553" y="1.024"/><use xlink:href="#X" x="778.908" y="-98.161"/><use xlink:href="#Z" x="223.542"/><use xlink:href="#T" x="738.055" y="1.024"/><use xlink:href="#V" x="768.62" y="1.024"/><use xlink:href="#R" x="735.026" y="100.21"/><use xlink:href="#W" x="663.032" y="1.024"/><use xlink:href="#M" x="886.874" y="100.21"/><use xlink:href="#N" x="886.873" y="100.21"/><use xlink:href="#O" x="886.874" y="100.21"/><use xlink:href="#P" x="886.874" y="100.209"/><use xlink:href="#R" x="854.532" y="100.21"/><use xlink:href="#Y" x="703.134" y="1.024"/><path d="M1582.852 119.261c5.057-1.126 8.761-1.74 11.215-1.843.451 0 .851.307 1.202.921s.501 1.433.501 2.355-.15 1.74-.451 2.457-.701 1.024-1.151 1.024c-2.353.102-6.008.717-10.914 1.843h-.35c.15 11.465.1 21.702-.1 30.813-.05.921-.2 1.74-.551 2.457-.35.614-.701.921-1.151.819s-.851-.409-1.151-1.126c-.35-.717-.501-1.433-.451-2.355l.2-15.663-.1-17.403-.25-15.048-.401-16.686c-.05-.921.1-1.74.451-2.457.3-.717.651-1.024 1.101-1.126.15 0 .35 0 .501.102 6.759-1.433 11.815-2.252 15.12-2.559.451-.102.801.205 1.151.819.35.717.501 1.433.551 2.355s-.1 1.74-.401 2.457c-.35.717-.751 1.024-1.202 1.126-3.204.307-7.86 1.024-13.918 2.355l.501 24.364h.05z"/><use xlink:href="#X" x="1230.486" y="-98.161"/><use xlink:href="#N" x="1479.761" y="1.024"/><use xlink:href="#U" x="1153.736" y="1.024"/><use xlink:href="#P" x="1478.159" y="1.024"/><use xlink:href="#M" x="1543.694" y="1.024"/><path d="M1686.387 92.03l.05 10.954-.05 11.056-.05 11.056c0 13.001.2 23.852.651 32.554a6.34 6.34 0 0 1-.35 2.457c-.3.717-.651 1.126-1.101 1.228s-.851-.205-1.202-.717c-.35-.614-.601-1.433-.651-2.355l-.25-5.528c-.451 1.024-.901 1.945-1.352 2.866-2.153 4.095-4.706 5.118-7.66 3.071-2.754-1.843-4.406-6.654-4.956-14.434-.451-6.245-.1-12.694 1.001-19.553 1.202-7.268 2.904-12.08 5.107-14.229 1.352-1.331 2.754-1.536 4.205-.409 1.151.921 2.253 2.559 3.304 5.118V92.235c0-.921.15-1.74.501-2.457.3-.717.701-1.024 1.151-1.024s.801.307 1.151.921c.35.717.501 1.433.501 2.355zm-3.354 36.136c-1.051-4.095-1.702-6.552-2.003-7.268-.851-2.355-1.652-3.89-2.453-4.504-.551-.409-1.051-.409-1.552.102-1.352 1.331-2.503 4.811-3.404 10.339-.951 5.835-1.252 11.363-.901 16.482.35 5.016 1.252 7.985 2.704 9.009 1.752 1.126 3.204.614 4.456-1.638 1.202-2.252 2.303-5.528 3.254-9.827l-.1-12.591v-.102z"/><use xlink:href="#O" x="1557.262" y="1.024"/><use xlink:href="#V" x="1406.541" y="1.024"/><use xlink:href="#R" x="1372.947" y="100.21"/><use xlink:href="#W" x="1300.953" y="1.024"/><use xlink:href="#M" x="1524.795" y="100.21"/><use xlink:href="#N" x="1524.794" y="100.21"/><use xlink:href="#O" x="1524.795" y="100.21"/><use xlink:href="#P" x="1524.795" y="100.209"/><use xlink:href="#R" x="1492.453" y="100.21"/><use xlink:href="#Y" x="1341.055" y="1.024"/></g></g><use xlink:href="#a" fill="#ffafd5" transform="matrix(0 -1.57788 .779317 0 -5.91691 1579.98)"/><use xlink:href="#a" fill="#addeff" transform="matrix(0 -1.57788 .779317 0 709.077 1579.98)"/><use xlink:href="#a" fill="#ffdaad" transform="matrix(0 -1.57788 .779317 0 1347.48 1579.98)"/></g><defs ><path id="B" d="M200.869 722.347l-4.627 9.461-26.46-47.707 26.46-47.573 4.627 9.461-21.181 38.112 21.181 38.245z"/><path id="C" d="M254.955 734.34c-3.454 0-6.257-.8-8.342-2.399-2.02-1.732-3.519-4.264-4.497-7.596-.912-3.465-1.369-7.996-1.369-13.726 0-6.53.456-11.46 1.369-15.058.912-3.465 2.346-5.997 4.432-7.329 2.02-1.466 4.823-2.132 8.407-2.132h7.495v-2.665c0-3.465-.261-5.997-.652-7.862s-1.173-3.198-2.216-3.998c-1.043-.666-2.607-1.066-4.627-1.066-1.629 0-2.933.267-3.78.933-.847.8-1.564 1.999-2.02 3.731s-.912 4.531-1.369 8.129l-6.517-3.331c.717-5.73 1.629-10.261 2.672-13.726s2.477-5.997 4.236-7.729a9.93 9.93 0 0 1 6.778-2.532c5.149 0 8.798 2.265 11.014 6.796 2.151 4.531 3.259 11.327 3.259 20.655v28.384c0 3.198.196 5.464.456 6.53.326 1.066 1.043 1.599 2.02 1.599.326 0 1.043-.133 2.151-.267v12.793c-.456.133-1.108.133-1.955.133-3.454 0-5.8-1.599-7.104-4.797-1.043 2.265-2.411 3.998-3.975 4.931-1.564 1.066-3.519 1.599-5.865 1.599zm0-12.926c2.02 0 3.584-.4 4.627-1.466 1.043-.933 1.825-2.532 2.216-4.931.391-2.265.652-5.73.652-10.128v-5.997h-7.495c-2.216 0-3.845.267-4.823.666-.912.533-1.564 1.466-1.955 3.065-.456 1.599-.652 4.264-.652 7.996 0 2.932.196 5.197.652 6.663.391 1.466 1.108 2.532 2.151 3.198s2.607.933 4.627.933z"/><path id="D" d="M298.129 734.34c-2.737 0-4.888-.933-6.387-2.532-1.564-1.732-2.607-4.531-3.259-8.529s-.978-9.595-.978-16.657v-58.101h-7.495v-12.793h14.273v70.894c0 5.597.326 9.461.847 11.594s1.564 3.198 2.998 3.198c.717 0 1.499-.4 2.281-1.466.847-.933 1.955-2.665 3.454-5.197l3.78 11.86c-1.76 2.932-3.324 4.931-4.692 5.997-1.303 1.199-2.933 1.732-4.823 1.732z"/><path id="E" d="M363.295 655.984c3.845 0 6.843 1.466 8.994 4.398 2.151 2.798 3.715 7.329 4.562 13.592.912 6.13 1.303 14.392 1.238 24.919h-23.527c.13 5.863.456 10.394 1.043 13.592s1.434 5.597 2.672 6.929 2.933 1.999 5.018 1.999c1.564 0 2.802-.267 3.78-.8.978-.666 1.89-1.732 2.672-3.331.847-1.599 1.76-3.998 2.868-7.063l5.474 7.329c-1.955 6.263-4.041 10.661-6.257 13.059-2.151 2.399-5.018 3.731-8.538 3.731-3.91 0-6.973-1.333-9.254-3.998s-3.91-6.796-4.888-12.526c-.978-5.597-1.499-13.193-1.499-22.654s.521-16.924 1.499-22.654c.978-5.597 2.607-9.861 4.888-12.526s5.344-3.998 9.254-3.998zm7.821 30.117c-.261-4.398-.652-7.862-1.173-10.261-.521-2.532-1.303-4.264-2.411-5.33-1.043-1.066-2.411-1.599-4.236-1.599-1.955 0-3.519.533-4.692 1.599s-2.086 2.798-2.737 5.33c-.587 2.399-.978 5.863-1.173 10.261h16.423z"/><path id="F" d="M414.354 684.101l-26.525 47.707-4.562-9.461 21.181-38.245-21.181-38.112 4.562-9.461 26.525 47.573z"/><path id="G" d="M474.633 633.996c2.672 0 4.823.533 6.452 1.599s2.933 2.798 3.91 5.064c.978 2.399 1.694 5.73 2.281 9.994l-6.387 4.398c-.326-2.532-.652-4.264-.978-5.33s-.912-1.732-1.629-2.265c-.782-.4-1.955-.666-3.65-.666-1.76 0-3.063.533-3.975 1.333-.847.8-1.434 2.265-1.825 4.531-.326 2.132-.521 5.33-.521 9.728v6.929h10.558v12.926h-10.558v50.372h-6.843v-50.372h-7.299V669.31h7.299v-6.929c0-7.063.456-12.66 1.303-16.657.847-4.131 2.216-7.063 4.171-8.928 1.89-1.866 4.497-2.798 7.69-2.798z"/><path id="H" d="M505.358 734.34c-3.715 0-6.582-1.333-8.668-3.998-2.151-2.665-3.65-6.796-4.562-12.526-.978-5.597-1.434-13.193-1.434-22.654s.456-16.924 1.434-22.654c.912-5.597 2.411-9.861 4.562-12.526 2.086-2.665 4.953-3.998 8.668-3.998 3.65 0 6.582 1.333 8.668 3.998 2.151 2.665 3.715 6.929 4.627 12.526.912 5.73 1.369 13.193 1.369 22.654s-.456 17.057-1.369 22.654c-.912 5.73-2.477 9.861-4.627 12.526-2.086 2.665-5.018 3.998-8.668 3.998zm0-12.926c2.02 0 3.65-.8 4.758-2.265 1.108-1.599 1.89-4.264 2.411-7.996.456-3.865.717-9.062.717-15.991 0-6.796-.261-12.127-.717-15.858-.521-3.865-1.303-6.53-2.411-7.996-1.108-1.599-2.737-2.399-4.758-2.399-2.086 0-3.65.8-4.758 2.399-1.108 1.466-1.89 4.131-2.346 7.996-.521 3.731-.717 9.062-.717 15.858 0 6.929.196 12.127.717 15.991.456 3.731 1.238 6.396 2.346 7.996 1.108 1.466 2.672 2.265 4.758 2.265z"/><path id="I" d="M528.654 732.608v-74.891h6.778v6.263c.978-2.132 2.151-3.998 3.65-5.597s3.128-2.399 4.888-2.399c2.281 0 4.171.666 5.67 1.999 1.499 1.199 2.802 3.198 3.91 5.997 1.043 2.798 2.02 6.663 2.933 11.594l-6.126 5.73c-.521-3.598-1.043-6.263-1.499-7.996-.521-1.599-1.108-2.798-1.825-3.465s-1.76-.933-3.063-.933c-3.063 0-5.279 2.132-6.582 6.396-1.303 4.398-1.955 10.661-1.955 18.923v38.379h-6.778z"/><path id="J" d="M686.946 734.34c-2.868 0-5.214-1.066-6.973-3.065-1.694-1.999-2.998-5.197-3.78-9.595-.847-4.398-1.238-10.261-1.238-17.457v-35.047h-7.364V656.25h7.364v-20.522h6.843v20.522h12.252v12.926h-12.252v35.047c0 4.531.13 7.996.456 10.527.326 2.399.847 4.131 1.564 5.197s1.76 1.466 3.128 1.466c1.434 0 2.477-.133 3.128-.533s1.173-1.199 1.434-2.265c.326-.933.652-2.798 1.043-5.33l6.387 4.398c-.587 4.264-1.369 7.462-2.281 9.861-.978 2.399-2.216 4.131-3.715 5.197s-3.519 1.599-5.996 1.599z"/><path id="K" d="M865.794 657.716v62.099h10.362v12.793h-27.568v-12.793h10.428v-49.173h-7.495v-12.926h14.273zm-4.497-10.927c-1.955 0-3.324-.666-4.041-2.132-.717-1.333-1.108-3.998-1.108-7.729 0-3.865.391-6.396 1.108-7.862.717-1.333 2.086-2.132 4.041-2.132s3.324.8 4.106 2.132c.717 1.466 1.108 3.998 1.108 7.862 0 3.731-.391 6.396-1.108 7.729-.782 1.466-2.151 2.132-4.106 2.132z"/><path id="L" d="M882.508 732.608v-74.891h6.843v1.866c2.477-2.399 5.344-3.598 8.668-3.598 3.389 0 5.996 1.066 7.821 2.932s3.128 5.064 3.91 9.595c.782 4.398 1.173 10.794 1.173 18.923v45.175h-6.843v-45.175c0-4.797-.196-8.529-.587-11.194-.326-2.665-.978-4.531-1.825-5.597-.847-1.199-2.086-1.732-3.65-1.732-2.542 0-4.432.4-5.67 1.333-1.173.933-2.02 2.665-2.411 4.931-.391 2.399-.587 5.997-.587 10.927v46.507h-6.843z"/><path id="M" d="M118.261 145.979l-2.153-9.009c-1.101-2.764-2.503-4.095-4.256-3.992s-3.104 1.74-4.105 4.914c-1.352 4.197-1.502 7.78-.35 10.749.501 1.331 1.202 2.252 2.203 2.866.901.717 2.003.819 3.204.409 1.452-.614 3.304-2.559 5.457-5.937zm-9.162-34.089c2.854-5.426 5.457-7.268 7.76-5.426 1.852 1.433 3.254 5.221 4.256 11.261l.751 5.937c.25 2.15.451 4.402.601 6.756l.35 5.937.2 5.733c.05 2.15.1 3.481.15 3.89 0 .102.1 2.047.35 5.63l.15 3.173c.05 1.228.1 2.15.05 2.662l-.15.921c-.15.921-.451 1.536-.851 1.843-.651.717-1.302.512-1.852-.512-.15-.307-.25-.614-.35-1.024s-.2-1.024-.3-1.74l-.2-1.433c-.05-.512-.1-.819-.15-.921l-.35-2.047c-2.153 3.276-4.205 5.221-6.108 5.937-1.802.717-3.454.512-4.956-.512-1.552-1.024-2.754-2.764-3.655-5.221-.951-2.457-1.452-5.323-1.402-8.701 0-3.378.501-6.654 1.552-9.827 1.051-3.276 2.453-5.63 4.155-6.961s3.454-1.433 5.207-.512c1.702 1.024 3.204 3.071 4.406 6.142.2.512.401 1.228.651 1.945-.35-6.245-.801-11.158-1.402-14.844-.651-4.095-1.452-6.552-2.303-7.268-1.001-.819-2.453.512-4.356 4.095-.35.717-.751 1.024-1.151.921-.451-.102-.851-.409-1.151-1.126-.35-.717-.501-1.536-.451-2.457s.2-1.638.551-2.252z"/><path id="N" d="M128.925 88.754c.15 5.016.2 20.372.2 46.271l.1 10.954.05 11.261c0 .921-.15 1.74-.501 2.355s-.751.921-1.202.921-.851-.307-1.151-1.024-.451-1.536-.451-2.457c.05-2.355 0-5.937-.05-10.851l-.1-11.158-.2-45.862c-.05-.921.1-1.74.401-2.457s.701-1.024 1.151-1.126.851.205 1.202.819.501 1.433.551 2.355z"/><path id="O" d="M142.392 114.244l-.751-.409c-.2-.102-.35-.205-.451-.205-1.302.102-2.503 1.74-3.605 4.811-1.151 3.173-1.953 7.064-2.403 11.875-.401 4.811-.3 9.213.25 13.103.551 3.992 1.552 6.654 2.954 8.19 1.752 1.74 3.354 1.433 4.806-1.024 1.552-2.559 2.653-6.449 3.304-11.67.601-5.016.551-9.827-.1-14.434-.701-4.607-2.053-7.985-4.005-10.237zm1.202-6.347c.25.102.451.409.601.717 1.402 1.638 2.553 3.685 3.505 6.245.901 2.662 1.552 5.323 1.902 8.087.35 2.866.601 5.835.651 8.906s-.15 5.937-.551 8.701c-.801 6.756-2.303 11.875-4.456 15.355-2.553 4.197-5.357 4.811-8.361 1.638-1.151-1.126-2.153-2.866-2.954-5.118-.851-2.15-1.402-4.504-1.702-7.166-.3-2.559-.501-5.221-.551-8.087-.1-2.866 0-5.528.3-8.087.501-5.835 1.452-10.749 2.904-14.741 1.752-4.709 3.755-7.166 6.108-7.473h.05c.451-.409.851-.409 1.302-.102s.851.717 1.252 1.126z"/><path id="P" d="M152.155 143.42v-10.544-3.89l-.1-4.402-.1-3.788-.25-4.3-.3-3.89c-.1-.921 0-1.74.25-2.559.25-.717.601-1.228 1.051-1.433.401-.102.851 0 1.252.512.35.512.601 1.331.651 2.252.451 4.197.701 9.111.801 14.741.551-1.536 1.101-3.071 1.752-4.607 2.754-6.449 5.657-11.056 8.711-13.615.451-.409.851-.409 1.302-.102.401.409.701 1.024.901 1.843.15.921.15 1.74 0 2.559-.2.921-.501 1.536-.901 1.843-2.603 2.252-5.107 6.245-7.51 11.875-2.553 6.04-3.905 11.568-4.155 16.789-.05.307-.05.614-.05.921v8.804l-.05 3.481v1.536.205c-.05.102-.05.307-.05.409l-.1.614c-.15.717-.401 1.331-.801 1.638-.35.409-.651.512-.951.307-.35-.307-.551-.512-.701-.717s-.3-.409-.401-.717-.2-.614-.25-1.024c0-.102 0-.307-.05-.512v-.717l-.05-7.268c0-2.355.05-4.504.1-6.245z"/><path id="Q" d="M198.916 91.006l.05 10.954-.05 11.056-.05 11.056c0 13.001.2 23.852.651 32.554a6.34 6.34 0 0 1-.35 2.457c-.3.717-.651 1.126-1.101 1.228s-.851-.205-1.202-.717c-.35-.614-.601-1.433-.651-2.355l-.25-5.528c-.451 1.024-.901 1.945-1.352 2.866-2.153 4.095-4.706 5.118-7.66 3.071-2.754-1.843-4.406-6.654-4.956-14.434-.451-6.245-.1-12.694 1.001-19.553 1.202-7.268 2.904-12.08 5.107-14.229 1.352-1.331 2.754-1.536 4.205-.409 1.151.921 2.253 2.559 3.304 5.118V91.211c0-.921.15-1.74.501-2.457.3-.717.701-1.024 1.151-1.024s.801.307 1.151.921c.35.717.501 1.433.501 2.355zm-3.354 36.136c-1.051-4.095-1.702-6.552-2.003-7.268-.851-2.355-1.652-3.89-2.453-4.504-.551-.409-1.051-.409-1.552.102-1.352 1.331-2.503 4.811-3.404 10.339-.951 5.835-1.252 11.363-.901 16.482.35 5.016 1.252 7.985 2.704 9.009 1.752 1.126 3.204.614 4.456-1.638 1.202-2.252 2.303-5.528 3.254-9.827l-.1-12.591v-.102z"/><path id="R" d="M214.286 123.867c.2-.102.501-.102.901-.205-.15-1.536-.451-3.071-.951-4.811-.551-1.843-1.101-3.276-1.752-4.402s-1.202-1.638-1.652-1.638c-1.402 0-2.653 1.843-3.755 5.528-.501 1.74-.951 3.685-1.302 5.835 1.752.102 3.304.102 4.656 0l3.855-.307zm-9.212 7.371l-.1 1.74c-.2 5.835.2 10.544 1.252 14.229 1.001 3.788 2.503 5.63 4.456 5.733 1.051.102 1.902-.205 2.553-.921s1.552-2.047 2.603-4.095c.25-.512.501-1.024.751-1.74s.501-1.331.701-1.843l.701-2.457.651-2.15c.25-.819.651-1.331 1.101-1.536.451-.102.851 0 1.252.512.35.512.601 1.331.701 2.252.05.921 0 1.843-.25 2.559-.05.102-.3.717-.651 1.843l-.801 2.662-.901 2.559c-.35 1.024-.701 1.843-1.051 2.355-1.252 2.457-2.453 4.197-3.505 5.323s-2.403 1.638-3.955 1.536c-1.752-.102-3.204-1.024-4.456-2.764-1.302-1.74-2.203-3.992-2.854-6.756-.651-2.662-1.101-5.63-1.352-8.599s-.35-6.142-.2-9.316c.25-6.756 1.101-12.591 2.553-17.505 1.752-5.937 3.955-8.906 6.559-8.804 1.302 0 2.503.921 3.555 2.866s1.953 4.095 2.704 6.654c.651 2.355 1.101 4.607 1.352 6.756.15 1.228.2 2.355.15 3.378-.1 1.536-.451 2.764-1.001 3.685-.35.512-.801.819-1.452 1.126-.401.102-.951.307-1.602.409-.951.102-2.303.205-4.055.307-1.452.102-3.254.102-5.407 0z"/><path id="S" d="M247.729 125.095l-.551-6.347c-.3-1.74-.601-3.071-.951-3.89-.35-.717-.701-1.331-1.001-1.638s-.601-.512-.851-.409c-.751.102-1.602 1.126-2.553 3.071-.951 2.047-1.652 5.016-2.203 9.009-.601 4.197-.851 8.087-.651 11.67.15 3.583.501 6.756 1.101 9.316s1.352 4.607 2.253 5.937c1.352 1.945 2.804 2.15 4.356.819 2.053-1.74 4.005-6.04 5.908-12.694.25-.819.551-1.331 1.001-1.638.451-.205.851-.102 1.252.307.401.512.651 1.126.801 2.047.1.921.05 1.74-.15 2.559-2.253 7.985-4.756 13.206-7.51 15.663-2.704 2.355-5.207 1.843-7.56-1.638-2.103-3.173-3.555-7.78-4.306-14.025s-.651-13.001.3-20.167c.701-4.914 1.752-8.906 3.154-12.08s2.954-4.811 4.656-4.914c1.902-.205 3.454 1.331 4.656 4.709 1.151 3.378 1.902 7.985 2.153 13.718a6.34 6.34 0 0 1-.35 2.457c-.3.717-.701 1.126-1.151 1.228s-.851-.205-1.202-.819c-.35-.512-.551-1.331-.601-2.252z"/><path id="T" d="M439.079 126.938l1.802-5.937c1.452-4.402 2.954-7.678 4.456-9.725 2.103-2.866 4.055-3.173 5.908-.921 1.202 1.433 2.153 4.504 2.854 9.316.551 3.481.951 7.882 1.252 13.308.451 7.882.601 15.765.551 23.647 0 .921-.15 1.638-.501 2.355-.35.614-.751.921-1.151.921-.451 0-.851-.307-1.151-1.024-.35-.717-.501-1.536-.501-2.457.05-7.268-.1-14.844-.551-22.624-.25-5.118-.651-9.111-1.101-12.08-.451-3.173-.951-5.016-1.402-5.63-.651-.717-1.452-.512-2.403.819-1.101 1.536-2.303 4.197-3.555 7.985-1.101 3.378-2.053 6.859-2.904 10.544-.851 3.788-1.302 6.552-1.402 8.292-.1 1.228-.15 2.969-.2 5.221l-.15 5.835c0 .102 0 .307-.05.409v.205c0 .307-.05.512-.1.819-.1.307-.2.614-.35.921-.451.921-.951 1.228-1.552.921-.451-.205-.801-.717-1.051-1.536-.05-.307-.1-.512-.15-.819l-.05-.717c-.05-.102-.05-.205-.05-.409s0-.717.05-1.433l.05-3.685c0-.921.05-2.764.1-5.733l.05-6.756v-4.402-4.709c-.05-.819-.05-2.252-.1-4.197l-.1-4.709-.2-3.992-.35-4.402c-.1-.921 0-1.74.25-2.559.25-.717.601-1.228 1.051-1.433.401-.102.851.102 1.252.512.35.512.601 1.331.651 2.252.451 4.607.751 10.544.801 17.608z"/><path id="U" d="M456.952 100.527l4.706.205.551-12.591c.05-.921.25-1.74.601-2.355.35-.512.801-.819 1.252-.717s.801.512 1.101 1.228a6.34 6.34 0 0 1 .35 2.457l-.551 11.773 3.905-.512c.451-.102.851.205 1.202.819s.501 1.331.551 2.252-.1 1.74-.401 2.457-.701 1.024-1.151 1.126l-4.356.512c-.651 18.119-.551 31.53.25 40.436.25 2.252.551 3.89.951 4.811.401 1.024.751 1.536 1.101 1.638.401.102.901-.307 1.452-1.228.551-.819 1.151-2.252 1.702-4.402.651-.819 1.252-4.504 1.902-11.056.15-.921.401-1.536.801-2.047.401-.409.801-.512 1.252-.205s.751.921 1.001 1.74c.2.819.2 1.638.05 2.559-.551 5.221-1.252 9.213-2.103 12.08-.751 2.969-1.702 5.323-2.804 7.064-1.151 1.638-2.303 2.355-3.555 2.15-1.302-.307-2.353-1.433-3.204-3.685-.901-2.15-1.452-4.914-1.752-8.292-.901-9.213-1.001-23.033-.35-41.357-1.652 0-3.204-.102-4.656-.205-.451-.102-.801-.409-1.151-1.126-.3-.614-.451-1.433-.401-2.355s.2-1.638.551-2.355c.35-.614.751-.921 1.202-.819z"/><path id="V" d="M165.322 190.192l.05 10.954-.05 11.056-.05 11.056c0 13.001.2 23.852.651 32.554a6.34 6.34 0 0 1-.35 2.457c-.3.717-.651 1.126-1.101 1.228s-.851-.205-1.202-.717c-.35-.614-.601-1.433-.651-2.355l-.25-5.528c-.451 1.024-.901 1.945-1.352 2.866-2.153 4.095-4.706 5.118-7.66 3.071-2.754-1.843-4.406-6.654-4.956-14.434-.451-6.245-.1-12.694 1.001-19.553 1.202-7.268 2.904-12.08 5.107-14.229 1.352-1.331 2.754-1.536 4.205-.409 1.151.921 2.253 2.559 3.304 5.118v-22.931c0-.921.15-1.74.501-2.457.3-.717.701-1.024 1.151-1.024s.801.307 1.151.921c.35.717.501 1.433.501 2.355zm-3.354 36.136c-1.051-4.095-1.702-6.552-2.003-7.268-.851-2.355-1.652-3.89-2.453-4.504-.551-.409-1.051-.409-1.552.102-1.352 1.331-2.503 4.811-3.404 10.339-.951 5.835-1.252 11.363-.901 16.482.35 5.016 1.252 7.985 2.704 9.009 1.752 1.126 3.204.614 4.456-1.638 1.202-2.252 2.303-5.528 3.254-9.827l-.1-12.591v-.102z"/><path id="W" d="M309.61 209.438l2.453 24.159c.651 5.221 1.352 9.418 2.003 12.694.801 3.89 1.302 6.04 1.552 6.552.25-.307.501-1.126.801-2.252.35-1.228.801-3.378 1.352-6.552 2.353-13.001 4.055-24.671 5.207-34.806.1-.921.35-1.638.751-2.15.35-.512.801-.614 1.252-.409s.751.717 1.001 1.433c.25.819.3 1.638.2 2.559-1.202 10.646-2.954 22.521-5.307 35.625-.651 3.583-1.151 6.04-1.552 7.575-.551 1.945-1.101 3.481-1.752 4.402-1.151 1.74-2.303 1.843-3.404.205-1.151-1.74-2.203-4.914-3.154-9.52-.751-3.583-1.452-8.19-2.153-13.615-.651-5.323-1.502-13.513-2.453-24.671-.1-.921 0-1.74.25-2.559.25-.717.601-1.228 1.051-1.433.451-.102.851.102 1.252.614.35.512.601 1.228.651 2.15z"/><path id="X" d="M371.641 210.768c.25 6.142.3 13.82.2 23.033l-.25 22.521c0 .921-.15 1.74-.451 2.457-.35.614-.751.921-1.202.921s-.851-.307-1.151-.921c-.35-.717-.501-1.536-.501-2.457l.25-22.726c.1-8.292.05-15.765-.2-22.214-.05-.921.1-1.843.401-2.559s.701-1.024 1.151-1.126.851.205 1.202.819c.3.614.501 1.331.551 2.252zm-.701-19.553c.35.614.501 1.433.501 2.355s-.15 1.74-.451 2.355c-.35.717-.751 1.024-1.202 1.024s-.851-.307-1.151-1.024c-.35-.614-.501-1.433-.501-2.355s.15-1.74.501-2.457c.3-.614.701-.921 1.151-.921s.851.307 1.151 1.024z"/><path id="Y" d="M387.161 217.525c-.15-.307-.401-.717-.751-1.331l-.651-1.228c-.1-.205-.25-.512-.501-.819s-.451-.614-.601-.717-.35-.307-.601-.409c-1.252-.512-2.203-.102-2.954 1.433-.751 1.433-.901 3.276-.501 5.528.2 1.126.601 2.355 1.202 3.583.601 1.331 1.552 3.071 2.854 5.323l.601 1.126 2.253 4.095c.551 1.126 1.151 2.764 1.802 4.709.651 2.047 1.001 3.992 1.151 5.937.2 3.173-.05 5.937-.701 8.292-.701 2.355-1.652 4.197-2.904 5.323-1.101 1.126-2.303 1.638-3.655 1.536s-2.603-.717-3.755-2.047c-1.252-1.433-2.253-3.173-3.004-5.221-.751-1.945-1.402-4.402-2.053-7.371-.2-.921-.2-1.74-.05-2.662.15-.819.451-1.433.901-1.843.401-.409.801-.409 1.252-.102.401.307.701.921.901 1.74l1.602 5.835c.551 1.536 1.202 2.764 2.053 3.685.651.717 1.402 1.126 2.203 1.228s1.552-.205 2.203-.921c1.352-1.331 1.953-3.481 1.702-6.449-.1-1.536-.501-3.173-1.151-4.811s-1.652-3.583-2.904-5.835c-.1-.205-.401-.717-.851-1.536l-1.001-1.638-.901-1.74c-.401-.717-.701-1.433-.901-1.945l-.801-1.843-.701-2.15c-.2-.717-.35-1.331-.451-2.047-.401-2.457-.501-4.811-.25-6.961s.751-4.095 1.502-5.63 1.702-2.559 2.754-3.173c1.051-.512 2.153-.512 3.254 0 .451.205.851.512 1.252.819.35.307.751.717 1.101 1.228l.851 1.331.801 1.536.601 1.228c.35.614.501 1.331.551 2.252s-.1 1.74-.401 2.457c-.35.717-.701 1.024-1.151 1.126s-.851-.205-1.202-.921z"/><path id="Z" d="M940.575 115.268l-.751-.409c-.2-.102-.35-.205-.451-.205-1.302.102-2.503 1.74-3.605 4.811-1.151 3.173-1.953 7.064-2.403 11.875-.401 4.811-.3 9.213.25 13.103.551 3.992 1.552 6.654 2.954 8.19 1.752 1.74 3.354 1.433 4.806-1.024 1.552-2.559 2.653-6.449 3.304-11.67.601-5.016.551-9.827-.1-14.434-.701-4.607-2.053-7.985-4.005-10.237zm1.202-6.347c.25.102.451.409.601.717 1.402 1.638 2.553 3.685 3.505 6.245.901 2.662 1.552 5.323 1.902 8.087.35 2.866.601 5.835.651 8.906s-.15 5.937-.551 8.701c-.801 6.756-2.303 11.875-4.456 15.355-2.553 4.197-5.357 4.811-8.361 1.638-1.151-1.126-2.153-2.866-2.954-5.118-.851-2.15-1.402-4.504-1.702-7.166-.3-2.559-.501-5.221-.551-8.087-.1-2.866 0-5.528.3-8.087.501-5.835 1.452-10.749 2.904-14.741 1.752-4.709 3.755-7.166 6.108-7.473h.05c.451-.409.851-.409 1.302-.102s.851.717 1.252 1.126zm-5.908-8.087l4.306-10.442c.3-.717.701-1.024 1.151-1.126s.851.205 1.202.819.501 1.331.551 2.252-.1 1.843-.401 2.559l-4.306 10.237c-.25.717-.651 1.126-1.101 1.228s-.851-.205-1.202-.819c-.35-.512-.551-1.331-.601-2.252s.1-1.74.401-2.457z"/><path id="a" d="M662 388.775v-18.55h106.238V353L795 379.5 768.238 406v-17.225H662z"/></defs></svg>