<svg xmlns="http://www.w3.org/2000/svg" xmlns:xlink="http://www.w3.org/1999/xlink" width="1117" height="446" fill-rule="evenodd" stroke-linecap="round" stroke-linejoin="round" stroke-miterlimit="1.5" xmlns:v="https://vecta.io/nano"><style><![CDATA[.B{fill-rule:nonzero}.C{fill:#fd008f}.D{fill:#7a00fd}.E{fill:#0076fd}.F{fill:#fd4300}.G{fill-opacity:.5}.H{stroke-opacity:.5}.I{stroke-width:4.17}.J{stroke-dasharray:12.5,0.21,0,8.33}]]></style><g class="B C"><use xlink:href="#B"/><use xlink:href="#C"/><use xlink:href="#D"/><path d="M396.26 103.442h13.775v2.4H396.26z"/><use xlink:href="#E"/><use xlink:href="#F"/><use xlink:href="#G"/><use xlink:href="#H"/><use xlink:href="#I"/><use xlink:href="#J"/></g><path d="M518.826 91.092h-13.175v-2.4h13.175v2.4zm0 5.475h-13.175v-2.425h13.175v2.425z" class="B"/><path d="M543.899 80.242v2.4h-5.225v19.95h5.225v2.425h-7.825V80.242h7.825zm6.061 2.4v-2.4h7.85v24.775h-7.85v-2.425h5.25v-19.95h-5.25z" class="D B"/><g class="E B"><use xlink:href="#K"/><use xlink:href="#L"/><use xlink:href="#M"/><use xlink:href="#E" y="50"/><use xlink:href="#F" y="50"/><use xlink:href="#G" y="50"/><use xlink:href="#H" y="50"/><use xlink:href="#I" y="50"/><use xlink:href="#B" x="136.364" y="50"/><use xlink:href="#C" x="136.364" y="50"/><use xlink:href="#E" x="122.728" y="50"/><use xlink:href="#F" x="122.727" y="50"/><use xlink:href="#G" x="122.727" y="50"/><use xlink:href="#H" x="122.727" y="50"/><use xlink:href="#I" x="122.727" y="50"/><use xlink:href="#J" x="122.728" y="50"/><use xlink:href="#N"/><use xlink:href="#J" x="150" y="50"/><use xlink:href="#O"/><use xlink:href="#G" x="218.182" y="50"/><use xlink:href="#B" x="313.636" y="50"/><use xlink:href="#D" x="300" y="50"/><use xlink:href="#P"/><path d="M718.071 141.892h-2.55l-.3-8.35h3.125l-.275 8.35z"/><use xlink:href="#Q"/><path d="M745.344 141.892h-2.55l-.3-8.35h3.125l-.275 8.35z"/><use xlink:href="#R"/></g><path d="M771.342 141.142c-.8 0-1.325-.125-1.625-.425-.3-.275-.45-.775-.45-1.475 0-.725.15-1.225.45-1.525.3-.275.825-.4 1.625-.4.775 0 1.325.125 1.625.4.3.3.425.8.425 1.525 0 .7-.125 1.2-.425 1.475-.3.3-.85.425-1.625.425zm0 10.9c-.8 0-1.325-.15-1.625-.425s-.45-.775-.45-1.5.15-1.225.45-1.5.825-.425 1.625-.425c.775 0 1.325.15 1.625.425s.425.775.425 1.5-.125 1.225-.425 1.5-.85.425-1.625.425z" class="B"/><use xlink:href="#B" x="54.545" y="100" class="B"/><use xlink:href="#C" x="54.546" y="100" class="B"/><use xlink:href="#D" x="54.545" y="100" class="B"/><path d="M450.806 203.442h13.775v2.4h-13.775z" class="B"/><use xlink:href="#E" x="54.546" y="100" class="B"/><use xlink:href="#F" x="54.545" y="100" class="B"/><use xlink:href="#G" x="54.546" y="100" class="B"/><use xlink:href="#H" x="54.545" y="100" class="B"/><use xlink:href="#I" x="54.545" y="100" class="B"/><use xlink:href="#J" x="54.546" y="100" class="B"/><use xlink:href="#N" x="-68.182" y="50" class="B"/><use xlink:href="#F" x="136.363" y="100" class="B"/><use xlink:href="#O" x="-68.182" y="50" class="B"/><use xlink:href="#O" x="-54.546" y="50" class="B"/><use xlink:href="#I" x="136.364" y="100" class="B"/><use xlink:href="#C" x="245.455" y="100" class="B"/><path d="M634.853 202.042c-1.4 0-2.525-.25-3.325-.75s-1.4-1.275-1.75-2.325-.525-2.475-.525-4.25c0-1.8.175-3.2.525-4.275.35-1.05.95-1.85 1.75-2.35s1.925-.75 3.325-.75a8.8 8.8 0 0 1 3.05.55v-4.35h2.625v18.175h-2.625v-.15c-.875.3-1.9.475-3.05.475zm0-2.425c1.05 0 1.825-.1 2.3-.35.5-.225.75-.55.75-.95v-5.375c0-1.1-.25-1.9-.725-2.4-.475-.525-1.25-.775-2.325-.775-.775 0-1.4.15-1.825.45s-.725.8-.9 1.5c-.175.725-.275 1.7-.275 3s.1 2.275.275 2.975.475 1.2.9 1.5c.425.275 1.05.425 1.825.425z" class="B"/><use xlink:href="#P" x="-54.545" y="50" class="B"/><g class="F B"><use xlink:href="#B" x="300" y="100"/><use xlink:href="#C" x="300" y="100"/><use xlink:href="#D" x="300" y="100"/><use xlink:href="#P" y="50"/><use xlink:href="#E" x="300" y="100"/><use xlink:href="#F" x="300" y="100"/><use xlink:href="#G" x="300" y="100"/><use xlink:href="#H" x="300" y="100"/><use xlink:href="#I" x="300" y="100"/><use xlink:href="#R" x="27.272" y="50"/></g><use xlink:href="#R" x="40.909" y="50" class="B"/><g class="C B"><use xlink:href="#B" y="271"/><use xlink:href="#C" y="271"/><use xlink:href="#D" y="271"/><path d="M396.26 374.442h13.775v2.4H396.26z"/><use xlink:href="#E" y="271"/><use xlink:href="#F" y="271"/><use xlink:href="#G" y="271"/><use xlink:href="#H" y="271"/><use xlink:href="#I" y="271"/><use xlink:href="#J" y="271"/></g><path d="M518.826 362.092h-13.175v-2.4h13.175v2.4zm0 5.475h-13.175v-2.425h13.175v2.425z" class="B"/><path d="M543.899 351.242v2.4h-5.225v19.95h5.225v2.425h-7.825v-24.775h7.825z" class="B D"/><g class="F B"><path d="M555.06 358.667v11.65h3.975v2.4H548.46v-2.4h4v-9.225h-2.875v-2.425h5.475zm-1.725-2.05c-.75 0-1.275-.125-1.55-.4-.275-.25-.425-.75-.425-1.45 0-.725.15-1.2.425-1.475.275-.25.8-.4 1.55-.4s1.275.15 1.575.4c.275.275.425.75.425 1.475 0 .7-.15 1.2-.425 1.45-.3.275-.825.4-1.575.4z"/><use xlink:href="#C" x="190.909" y="271"/><use xlink:href="#D" x="190.909" y="271"/><use xlink:href="#P" x="-109.091" y="221"/><use xlink:href="#E" x="190.91" y="271"/><use xlink:href="#F" x="190.909" y="271"/><use xlink:href="#G" x="190.909" y="271"/><use xlink:href="#H" x="190.909" y="271"/><use xlink:href="#I" x="190.909" y="271"/><use xlink:href="#R" x="-81.819" y="221"/></g><g class="E B"><use xlink:href="#K" x="340.909" y="221"/><use xlink:href="#L" x="340.909" y="221"/><use xlink:href="#M" x="340.909" y="221"/><use xlink:href="#E" x="340.91" y="271"/><use xlink:href="#F" x="340.909" y="271"/><use xlink:href="#G" x="340.909" y="271"/><use xlink:href="#H" x="340.909" y="271"/><use xlink:href="#I" x="340.909" y="271"/><use xlink:href="#B" x="477.273" y="271"/><use xlink:href="#C" x="477.273" y="271"/><use xlink:href="#E" x="463.637" y="271"/><use xlink:href="#F" x="463.636" y="271"/><use xlink:href="#G" x="463.637" y="271"/><use xlink:href="#H" x="463.636" y="271"/><use xlink:href="#I" x="463.636" y="271"/><use xlink:href="#J" x="463.637" y="271"/><use xlink:href="#N" x="340.909" y="221"/><use xlink:href="#J" x="490.909" y="271"/><use xlink:href="#O" x="340.909" y="221"/><use xlink:href="#G" x="559.091" y="271"/><use xlink:href="#B" x="654.545" y="271"/><use xlink:href="#D" x="640.909" y="271"/><use xlink:href="#P" x="340.909" y="221"/><path d="M1058.981 362.892h-2.55l-.3-8.35h3.125l-.275 8.35z"/><use xlink:href="#Q" x="340.909" y="221"/><path d="M1086.253 362.892h-2.55l-.3-8.35h3.125l-.275 8.35z"/><use xlink:href="#R" x="340.909" y="221"/></g><path d="M1109.051 353.642v-2.4h7.85v24.775h-7.85v-2.425h5.25v-19.95h-5.25z" class="B D"/><path d="M266.426 83.535h15v151h-15z" fill="#ffb361"/><path d="M266.426 341.035h15v44.5h-15z" fill="#61e5ff"/><g class="B"><g fill="#ffb361"><use xlink:href="#S"/><use xlink:href="#T"/><use xlink:href="#U"/><use xlink:href="#V"/><use xlink:href="#W"/><use xlink:href="#X"/><use xlink:href="#Y"/><use xlink:href="#Z"/><path d="M162.11 118.082h2.933v23.867h-2.933zm18.74 21.734c-1.067.933-2.133 1.567-3.133 1.967a9.28 9.28 0 0 1-3.233.567c-1.9 0-3.333-.467-4.367-1.4s-1.533-2.1-1.533-3.567a4.89 4.89 0 0 1 .567-2.3c.4-.7.9-1.267 1.533-1.7s1.333-.733 2.1-.967c.567-.133 1.433-.3 2.6-.433 2.367-.267 4.1-.6 5.233-1v-.767c0-1.2-.267-2.033-.8-2.533-.767-.667-1.867-1-3.367-1-1.367 0-2.367.267-3.033.733-.667.5-1.133 1.333-1.467 2.567l-2.867-.4c.267-1.2.7-2.2 1.3-2.967.6-.733 1.467-1.333 2.567-1.733 1.133-.4 2.467-.6 3.933-.6s2.667.167 3.6.5c.933.367 1.6.8 2.033 1.333.433.5.733 1.167.9 1.967.1.5.167 1.4.167 2.733v3.9l.167 5.167c.133.7.4 1.4.767 2.067h-3.067c-.3-.6-.5-1.333-.6-2.133zm-.233-6.533c-1.067.433-2.667.8-4.8 1.1-1.2.167-2.033.367-2.533.6a2.52 2.52 0 0 0-1.167.933 2.62 2.62 0 0 0-.4 1.4c0 .767.3 1.433.867 1.933.6.533 1.467.8 2.6.8s2.133-.267 3.033-.733c.867-.5 1.5-1.167 1.933-2.033.3-.667.467-1.633.467-2.933v-1.067zm-5.7-10.767l2.167-4.567h3.833l-3.567 4.567h-2.433z"/><use xlink:href="#V" x="1.872" y="34.424"/><use xlink:href="#W" x="1.872" y="34.424"/><use xlink:href="#Z" x="66.683"/><path d="M240.127 139.816c-1.067.933-2.133 1.567-3.133 1.967a9.28 9.28 0 0 1-3.233.567c-1.9 0-3.333-.467-4.367-1.4s-1.533-2.1-1.533-3.567c0-.833.2-1.6.567-2.3.4-.7.9-1.267 1.533-1.7s1.333-.733 2.1-.967c.567-.133 1.433-.3 2.6-.433 2.367-.267 4.1-.6 5.233-1v-.767c0-1.2-.267-2.033-.8-2.533-.767-.667-1.867-1-3.367-1-1.367 0-2.367.267-3.033.733-.667.5-1.133 1.333-1.467 2.567l-2.867-.4c.267-1.2.7-2.2 1.3-2.967.6-.733 1.467-1.333 2.567-1.733 1.133-.4 2.467-.6 3.933-.6s2.667.167 3.6.5c.933.367 1.6.8 2.033 1.333.433.5.733 1.167.9 1.967.1.5.167 1.4.167 2.733v3.9l.167 5.167c.133.7.4 1.4.767 2.067h-3.067c-.3-.6-.5-1.333-.6-2.133zm-.233-6.533c-1.067.433-2.667.8-4.8 1.1-1.2.167-2.033.367-2.533.6a2.52 2.52 0 0 0-1.167.933c-.267.433-.4.9-.4 1.4 0 .767.3 1.433.867 1.933.6.533 1.467.8 2.6.8s2.133-.267 3.033-.733c.867-.5 1.5-1.167 1.933-2.033.3-.667.467-1.633.467-2.933v-1.067z"/></g><g fill="#61e5ff"><use xlink:href="#S" x="0.879" y="247.231"/><use xlink:href="#T" x="0.879" y="247.231"/><use xlink:href="#U" x="0.879" y="247.231"/><use xlink:href="#V" x="0.879" y="247.231"/><use xlink:href="#W" x="0.879" y="247.231"/><use xlink:href="#X" x="0.879" y="247.231"/><use xlink:href="#Y" x="0.879" y="247.231"/><path d="M.003 395.813V371.88h2.667v2.267c.633-.9 1.333-1.533 2.133-1.967.8-.467 1.767-.667 2.867-.667 1.5 0 2.8.367 3.933 1.133 1.1.767 1.967 1.833 2.533 3.2.567 1.4.867 2.9.867 4.567 0 1.767-.3 3.367-.933 4.767-.633 1.433-1.567 2.5-2.767 3.267-1.233.733-2.5 1.133-3.833 1.133-.967 0-1.867-.2-2.633-.633-.767-.4-1.4-.933-1.9-1.567v8.433H.003zm2.667-15.167c0 2.2.433 3.867 1.333 4.933s2 1.567 3.267 1.567c1.3 0 2.433-.533 3.367-1.633.9-1.1 1.367-2.8 1.367-5.133 0-2.2-.433-3.833-1.367-4.933-.9-1.1-1.967-1.633-3.233-1.633-1.233 0-2.333.567-3.3 1.733s-1.433 2.867-1.433 5.1z"/><use xlink:href="#a"/><use xlink:href="#U" x="-138.069" y="281.655"/><use xlink:href="#Z" x="-88.069" y="247.231"/><use xlink:href="#a" x="55.567"/><path d="M92.646 389.18v-17.3h2.633v2.433c.533-.833 1.233-1.533 2.133-2.033.9-.533 1.933-.767 3.1-.767 1.267 0 2.333.267 3.133.8.833.533 1.4 1.267 1.733 2.233 1.367-2.033 3.167-3.033 5.333-3.033 1.733 0 3.033.467 3.967 1.4.933.967 1.4 2.433 1.4 4.4v11.867h-2.933v-10.9c0-1.167-.1-2-.267-2.533-.2-.5-.533-.933-1.033-1.233s-1.1-.467-1.767-.467c-1.233 0-2.233.4-3.033 1.2-.8.833-1.2 2.1-1.2 3.9v10.033h-2.933v-11.233c0-1.3-.233-2.267-.7-2.933-.5-.633-1.267-.967-2.367-.967-.833 0-1.567.2-2.267.633a3.59 3.59 0 0 0-1.533 1.933c-.3.833-.467 2.033-.467 3.6v8.967h-2.933zm27.767 6.633V371.88h2.667v2.267c.633-.9 1.333-1.533 2.133-1.967.8-.467 1.767-.667 2.867-.667 1.5 0 2.8.367 3.933 1.133 1.1.767 1.967 1.833 2.533 3.2.567 1.4.867 2.9.867 4.567 0 1.767-.3 3.367-.933 4.767-.633 1.433-1.567 2.5-2.767 3.267-1.233.733-2.5 1.133-3.833 1.133-.967 0-1.867-.2-2.633-.633-.767-.4-1.4-.933-1.9-1.567v8.433h-2.933zm2.667-15.167c0 2.2.433 3.867 1.333 4.933s2 1.567 3.267 1.567c1.3 0 2.433-.533 3.367-1.633.9-1.1 1.367-2.8 1.367-5.133 0-2.2-.433-3.833-1.367-4.933-.9-1.1-1.967-1.633-3.233-1.633-1.233 0-2.333.567-3.3 1.733s-1.433 2.867-1.433 5.1z"/><use xlink:href="#U" x="-36.198" y="281.655"/><use xlink:href="#T" x="-6.559" y="281.655"/><use xlink:href="#Y" x="-60.27" y="281.655"/><use xlink:href="#V" x="0.879" y="281.655"/><use xlink:href="#W" x="0.879" y="281.655"/><use xlink:href="#X" x="0.879" y="281.655"/><use xlink:href="#Y" x="0.879" y="281.655"/></g></g><path d="M401.051 398.671l9.375-12.5 9.375 12.5h-18.75z" class="C G"/><path d="M390.426 58.898V22.535h-60v400h80v-26.364" fill="none" stroke="#fd008f" class="H I J"/><path d="M879.801 330.035l-9.375 12.5-9.375-12.5h18.75z" class="E G"/><path d="M630.426 122.535v-60h240v270" fill="none" stroke="#0076fd" class="H I J"/><path d="M619.801 330.035l-9.375 12.5-9.375-12.5h18.75z" class="F G"/><path d="M710.426 222.535v40h-100v70" fill="none" stroke="#fd4300" class="H I J"/><defs ><path id="B" d="M364.151 87.667v11.65h3.975v2.4h-10.575v-2.4h4v-9.225h-2.875v-2.425h5.475zm-1.725-2.05c-.75 0-1.275-.125-1.55-.4-.275-.25-.425-.75-.425-1.45 0-.725.15-1.2.425-1.475.275-.25.8-.4 1.55-.4s1.275.15 1.575.4c.275.275.425.75.425 1.475 0 .7-.15 1.2-.425 1.45-.3.275-.825.4-1.575.4z"/><path id="C" d="M370.562 101.717v-14.05h2.625v.35c.95-.45 2.05-.675 3.325-.675 1.3 0 2.3.2 3 .55s1.2.95 1.5 1.8c.3.825.45 2.025.45 3.55v8.475h-2.625v-8.475c0-.9-.075-1.6-.225-2.1-.125-.5-.375-.85-.7-1.05-.325-.225-.8-.325-1.4-.325-.975 0-1.7.075-2.175.25-.45.175-.775.5-.925.925-.15.45-.225 1.125-.225 2.05v8.725h-2.625z"/><path id="D" d="M390.999 102.042c-1.1 0-2-.2-2.675-.575-.65-.375-1.15-.975-1.45-1.8-.325-.825-.475-1.925-.475-3.275v-6.575h-2.825v-2.425h2.825v-3.85h2.625v3.85h4.7v2.425h-4.7v6.575c0 .85.05 1.5.175 1.975.125.45.325.775.6.975s.675.275 1.2.275c.55 0 .95-.025 1.2-.1s.45-.225.55-.425c.125-.175.25-.525.4-1l2.45.825c-.225.8-.525 1.4-.875 1.85-.375.45-.85.775-1.425.975s-1.35.3-2.3.3z"/><path id="E" d="M417.946 101.717h-2.35l-5.075-14.05h2.675l3.575 10.175 3.575-10.175h2.7l-5.1 14.05z"/><path id="F" d="M429.833 102.042c-1.325 0-2.4-.15-3.2-.45-.775-.325-1.35-.8-1.725-1.425-.35-.65-.525-1.5-.525-2.575 0-1.225.175-2.15.525-2.825.35-.65.9-1.125 1.7-1.375.775-.275 1.85-.4 3.225-.4h2.875v-.5c0-.65-.1-1.125-.25-1.475s-.45-.6-.85-.75c-.4-.125-1-.2-1.775-.2-.625 0-1.125.05-1.45.175-.325.15-.6.375-.775.7s-.35.85-.525 1.525l-2.5-.625c.275-1.075.625-1.925 1.025-2.575s.95-1.125 1.625-1.45c.7-.3 1.55-.475 2.6-.475 1.975 0 3.375.425 4.225 1.275.825.85 1.25 2.125 1.25 3.875v5.325c0 .6.075 1.025.175 1.225.125.2.4.3.775.3.125 0 .4-.025.825-.05v2.4c-.175.025-.425.025-.75.025-1.325 0-2.225-.3-2.725-.9a3.4 3.4 0 0 1-1.525.925c-.6.2-1.35.3-2.25.3zm0-2.425c.775 0 1.375-.075 1.775-.275a1.49 1.49 0 0 0 .85-.925c.15-.425.25-1.075.25-1.9v-1.125h-2.875c-.85 0-1.475.05-1.85.125-.35.1-.6.275-.75.575-.175.3-.25.8-.25 1.5 0 .55.075.975.25 1.25.15.275.425.475.825.6s1 .175 1.775.175z"/><path id="G" d="M446.394 102.042c-1.05 0-1.875-.175-2.45-.475-.6-.325-1-.85-1.25-1.6s-.375-1.8-.375-3.125v-10.9h-2.875v-2.4h5.475v13.3c0 1.05.125 1.775.325 2.175s.6.6 1.15.6c.275 0 .575-.075.875-.275.325-.175.75-.5 1.325-.975l1.45 2.225c-.675.55-1.275.925-1.8 1.125-.5.225-1.125.325-1.85.325z"/><path id="H" d="M457.306 102.042c-1.225 0-2.2-.2-2.9-.575-.725-.35-1.225-.95-1.55-1.8-.325-.825-.475-1.975-.475-3.4v-8.6h2.625v8.6c0 .925.05 1.65.175 2.1.125.475.375.8.7.975.325.2.8.275 1.425.275.95 0 1.65-.075 2.1-.225.475-.15.8-.425.975-.8s.275-.95.275-1.725v-9.2h2.625v14.05h-2.625v-.225c-.8.35-1.9.55-3.35.55z"/><path id="I" d="M471.392 87.342c1.475 0 2.625.275 3.45.825.825.525 1.425 1.375 1.75 2.55.35 1.15.5 2.7.475 4.675h-9.025c.05 1.1.175 1.95.4 2.55s.55 1.05 1.025 1.3 1.125.375 1.925.375c.6 0 1.075-.05 1.45-.15.375-.125.725-.325 1.025-.625.325-.3.675-.75 1.1-1.325l2.1 1.375c-.75 1.175-1.55 2-2.4 2.45-.825.45-1.925.7-3.275.7-1.5 0-2.675-.25-3.55-.75s-1.5-1.275-1.875-2.35c-.375-1.05-.575-2.475-.575-4.25s.2-3.175.575-4.25c.375-1.05 1-1.85 1.875-2.35s2.05-.75 3.55-.75zm3 5.65c-.1-.825-.25-1.475-.45-1.925-.2-.475-.5-.8-.925-1-.4-.2-.925-.3-1.625-.3-.75 0-1.35.1-1.8.3a2.14 2.14 0 0 0-1.05 1c-.225.45-.375 1.1-.45 1.925h6.3z"/><path id="J" d="M484.403 102.042c-1.25 0-2.25-.225-3-.7-.725-.45-1.375-1.25-1.975-2.4l2.075-1.7c.3.7.55 1.2.775 1.525s.5.525.8.675c.325.125.775.175 1.325.175 1.05 0 1.825-.05 2.375-.175.525-.125.875-.325 1.075-.6s.3-.675.3-1.225c0-.525-.075-.9-.25-1.15-.15-.25-.425-.425-.85-.55-.4-.125-1.1-.25-2.05-.35-1.85-.225-3.175-.65-3.975-1.225-.825-.575-1.25-1.5-1.25-2.75 0-1.025.2-1.85.575-2.45.375-.625 1-1.075 1.825-1.35.825-.3 1.95-.45 3.35-.45 1.35 0 2.375.2 3.125.6s1.425 1.1 2.025 2.1l-1.9 1.85c-.35-.625-.625-1.075-.875-1.35-.25-.3-.55-.5-.875-.6-.35-.125-.85-.175-1.5-.175-.85 0-1.5.05-1.95.15s-.75.3-.925.55-.25.625-.25 1.125c0 .35.1.625.275.8.175.2.45.325.825.425l1.675.275c1.425.225 2.55.475 3.35.8.8.3 1.375.75 1.725 1.325.35.6.525 1.4.525 2.4 0 1.075-.2 1.925-.625 2.575-.4.625-1.075 1.1-2 1.4-.95.3-2.2.45-3.75.45z"/><path id="K" d="M364.101 133.217c1.025 0 1.85.1 2.475.3s1.125.525 1.5.95c.375.45.65 1.075.875 1.875l-2.45.825c-.125-.475-.25-.8-.375-1s-.35-.325-.625-.425c-.3-.075-.75-.125-1.4-.125-.675 0-1.175.1-1.525.25-.325.15-.55.425-.7.85-.125.4-.2 1-.2 1.825v1.3h4.05v2.425h-4.05v9.45h-2.625v-9.45h-2.8v-2.425h2.8v-1.3c0-1.325.175-2.375.5-3.125.325-.775.85-1.325 1.6-1.675.725-.35 1.725-.525 2.95-.525z"/><path id="L" d="M375.887 152.042c-1.425 0-2.525-.25-3.325-.75-.825-.5-1.4-1.275-1.75-2.35-.375-1.05-.55-2.475-.55-4.25s.175-3.175.55-4.25c.35-1.05.925-1.85 1.75-2.35.8-.5 1.9-.75 3.325-.75 1.4 0 2.525.25 3.325.75.825.5 1.425 1.3 1.775 2.35.35 1.075.525 2.475.525 4.25s-.175 3.2-.525 4.25c-.35 1.075-.95 1.85-1.775 2.35-.8.5-1.925.75-3.325.75zm0-2.425c.775 0 1.4-.15 1.825-.425.425-.3.725-.8.925-1.5.175-.725.275-1.7.275-3 0-1.275-.1-2.275-.275-2.975-.2-.725-.5-1.225-.925-1.5-.425-.3-1.05-.45-1.825-.45-.8 0-1.4.15-1.825.45-.425.275-.725.775-.9 1.5-.2.7-.275 1.7-.275 2.975 0 1.3.075 2.275.275 3 .175.7.475 1.2.9 1.5.425.275 1.025.425 1.825.425z"/><path id="M" d="M384.824 151.717v-14.05h2.6v1.175c.375-.4.825-.75 1.4-1.05s1.2-.45 1.875-.45c.875 0 1.6.125 2.175.375.575.225 1.075.6 1.5 1.125.4.525.775 1.25 1.125 2.175l-2.35 1.075c-.2-.675-.4-1.175-.575-1.5-.2-.3-.425-.525-.7-.65s-.675-.175-1.175-.175c-1.175 0-2.025.4-2.525 1.2-.5.825-.75 2-.75 3.55v7.2h-2.6z"/><path id="N" d="M621.342 152.042c-.8 0-1.325-.15-1.625-.425s-.45-.775-.45-1.5.15-1.225.45-1.5.825-.425 1.625-.425c.775 0 1.325.15 1.625.425s.425.775.425 1.5-.125 1.225-.425 1.5-.85.425-1.625.425z"/><path id="O" d="M643.115 155.842v-18.175h2.625v.15c.875-.3 1.9-.475 3.025-.475 1.4 0 2.525.25 3.35.75.8.5 1.4 1.275 1.75 2.325.35 1.075.55 2.475.55 4.25s-.2 3.2-.55 4.275c-.35 1.05-.95 1.85-1.75 2.35-.825.5-1.95.75-3.35.75a8.66 8.66 0 0 1-3.025-.55v4.35h-2.625zm5.65-6.225c.8 0 1.4-.15 1.825-.45.45-.3.75-.8.925-1.5s.275-1.7.275-3c0-1.275-.1-2.275-.275-2.975s-.475-1.2-.925-1.475c-.425-.3-1.025-.45-1.825-.45-2.025 0-3.025.425-3.025 1.325v5.35c0 1.1.25 1.9.7 2.4.475.525 1.25.775 2.325.775z"/><path id="P" d="M707.085 155.017c-1.525 0-2.85-.525-4.025-1.55s-2.075-2.475-2.7-4.35c-.65-1.875-.95-4.025-.95-6.5 0-2.45.3-4.6.95-6.475.625-1.875 1.525-3.325 2.7-4.35s2.5-1.55 4.025-1.55v2.4c-1 0-1.875.425-2.65 1.25s-1.35 2-1.775 3.5-.65 3.25-.65 5.225c0 2 .225 3.75.65 5.25s1 2.675 1.775 3.5 1.65 1.225 2.65 1.225v2.425z"/><path id="Q" d="M727.808 156.167c.775-1.05 1.3-1.875 1.6-2.475s.45-1.125.45-1.625c-.575 0-.975-.15-1.175-.425-.225-.275-.325-.775-.325-1.525 0-.725.15-1.225.45-1.5s.825-.425 1.625-.425c.775 0 1.325.15 1.625.425s.425.775.425 1.5c0 1.125-.175 2.125-.575 3-.375.875-1.075 1.9-2.1 3.05h-2z"/><path id="R" d="M753.781 152.592c1 0 1.9-.4 2.65-1.225.775-.825 1.375-2 1.8-3.5s.625-3.25.625-5.25c0-1.975-.2-3.725-.625-5.225s-1.025-2.675-1.8-3.5c-.75-.825-1.65-1.25-2.65-1.25v-2.4c1.525 0 2.875.525 4.025 1.55 1.175 1.025 2.075 2.475 2.7 4.35.65 1.875.975 4.025.975 6.475 0 2.475-.325 4.625-.975 6.5-.625 1.875-1.525 3.325-2.7 4.35-1.15 1.025-2.5 1.55-4.025 1.55v-2.425z"/><path id="S" d="M143.417 107.525l-9.267-23.867h3.433l6.2 17.333 1.267 3.9 1.267-3.9 6.467-17.333h3.2l-9.333 23.867h-3.233z"/><path id="T" d="M168.444 101.958l3.033.367c-.5 1.767-1.367 3.133-2.667 4.133-1.3.967-2.933 1.467-4.933 1.467-2.533 0-4.533-.8-6.033-2.333-1.467-1.567-2.2-3.767-2.2-6.567 0-2.9.733-5.167 2.233-6.767s3.433-2.4 5.833-2.4c2.3 0 4.2.767 5.667 2.367 1.467 1.567 2.2 3.767 2.2 6.633l-.033.767h-12.9c.133 1.9.667 3.367 1.633 4.367s2.167 1.5 3.6 1.5c1.067 0 2-.267 2.767-.833.733-.567 1.367-1.467 1.8-2.7zm-9.633-4.733h9.667c-.133-1.467-.5-2.533-1.1-3.267-.933-1.133-2.167-1.7-3.633-1.7-1.367 0-2.5.467-3.4 1.367-.933.9-1.433 2.1-1.533 3.6z"/><path id="U" d="M175.116 107.525v-17.3h2.633v2.633c.667-1.233 1.3-2.033 1.867-2.433a3.41 3.41 0 0 1 1.867-.567c1 0 2 .3 3.033.933l-1.033 2.733c-.7-.433-1.433-.633-2.133-.633-.633 0-1.233.167-1.733.567-.5.367-.867.9-1.1 1.6-.3 1.033-.467 2.167-.467 3.433v9.033h-2.933z"/><path id="V" d="M185.082 102.358l2.9-.433c.167 1.133.6 2.033 1.333 2.667.767.6 1.8.9 3.133.9s2.333-.267 3-.8c.633-.567.967-1.2.967-1.933 0-.667-.3-1.2-.867-1.567-.4-.267-1.4-.6-3-1-2.133-.533-3.633-1-4.467-1.4s-1.433-.933-1.867-1.633a4.33 4.33 0 0 1-.667-2.333c0-.767.2-1.467.533-2.133a4.84 4.84 0 0 1 1.433-1.633c.467-.333 1.1-.633 1.867-.867.8-.233 1.633-.333 2.533-.333 1.367 0 2.567.2 3.6.567 1 .4 1.767.933 2.267 1.6.467.667.8 1.567 1 2.667l-2.867.4c-.133-.9-.5-1.6-1.133-2.1s-1.5-.733-2.633-.733c-1.367 0-2.3.233-2.9.667-.567.433-.867.967-.867 1.567a1.7 1.7 0 0 0 .367 1.033c.233.3.633.567 1.133.767l2.567.767 4.367 1.333c.8.367 1.433.867 1.9 1.533.467.7.7 1.533.7 2.533 0 .967-.267 1.9-.833 2.733-.567.867-1.4 1.533-2.467 2-1.067.5-2.3.733-3.667.733-2.233 0-3.933-.467-5.133-1.4-1.167-.933-1.9-2.333-2.233-4.167z"/><path id="W" d="M202.916 87.025v-3.367h2.933v3.367h-2.933zm0 20.5v-17.3h2.933v17.3h-2.933z"/><path id="X" d="M209.222 98.892c0-3.2.9-5.567 2.667-7.133 1.5-1.267 3.3-1.9 5.433-1.9 2.4 0 4.333.767 5.833 2.333s2.267 3.7 2.267 6.433c0 2.233-.333 4-1 5.267s-1.633 2.267-2.9 2.967a8.64 8.64 0 0 1-4.2 1.067c-2.4 0-4.367-.8-5.867-2.333-1.467-1.567-2.233-3.8-2.233-6.7zm3.033 0c0 2.2.467 3.867 1.433 4.967a4.6 4.6 0 0 0 3.633 1.633 4.6 4.6 0 0 0 3.633-1.633c.967-1.133 1.467-2.8 1.467-5.067 0-2.133-.5-3.767-1.467-4.867s-2.167-1.667-3.633-1.667-2.667.567-3.633 1.667-1.433 2.733-1.433 4.967zm3.467-10.8l2.133-4.567h3.867l-3.6 4.567h-2.4z"/><path id="Y" d="M228.86 107.525v-17.3h2.633v2.467c1.267-1.9 3.1-2.833 5.5-2.833 1.033 0 2 .167 2.867.567.867.367 1.533.867 1.967 1.467s.733 1.333.9 2.167c.133.533.167 1.467.167 2.833v10.633h-2.933v-10.5c0-1.2-.1-2.1-.333-2.7-.233-.567-.633-1.067-1.2-1.4-.6-.367-1.267-.533-2.033-.533-1.267 0-2.333.4-3.233 1.2-.933.767-1.367 2.267-1.367 4.5v9.433h-2.933z"/><path id="Z" d="M156.777 135.616l2.9.367c-.333 2-1.133 3.533-2.433 4.667s-2.867 1.7-4.767 1.7c-2.367 0-4.267-.767-5.7-2.333-1.433-1.533-2.167-3.767-2.167-6.633 0-1.867.3-3.5.933-4.9.6-1.4 1.567-2.467 2.833-3.167s2.633-1.033 4.1-1.033c1.9 0 3.433.467 4.633 1.4 1.167.967 1.933 2.3 2.267 4.067l-2.833.433c-.267-1.167-.767-2.033-1.433-2.633-.7-.567-1.533-.867-2.5-.867-1.467 0-2.667.533-3.6 1.6-.933 1.033-1.4 2.733-1.4 5 0 2.333.467 4.033 1.333 5.067.9 1.067 2.067 1.567 3.5 1.567 1.133 0 2.1-.333 2.867-1.033s1.267-1.8 1.467-3.267z"/><path id="a" d="M17.441 380.547c0-3.2.9-5.567 2.667-7.133 1.5-1.267 3.3-1.9 5.433-1.9 2.4 0 4.333.767 5.833 2.333s2.267 3.7 2.267 6.433c0 2.233-.333 4-1 5.267s-1.633 2.267-2.9 2.967a8.64 8.64 0 0 1-4.2 1.067c-2.4 0-4.367-.8-5.867-2.333-1.467-1.567-2.233-3.8-2.233-6.7zm3.033 0c0 2.2.467 3.867 1.433 4.967a4.6 4.6 0 0 0 3.633 1.633 4.6 4.6 0 0 0 3.633-1.633c.967-1.133 1.467-2.8 1.467-5.067 0-2.133-.5-3.767-1.467-4.867s-2.167-1.667-3.633-1.667-2.667.567-3.633 1.667-1.433 2.733-1.433 4.967z"/></defs></svg>