<?xml version="1.0" encoding="UTF-8" standalone="no"?>
<!DOCTYPE svg PUBLIC "-//W3C//DTD SVG 1.1//EN" "http://www.w3.org/Graphics/SVG/1.1/DTD/svg11.dtd">
<svg width="316px" height="316px" version="1.1" xmlns="http://www.w3.org/2000/svg" xmlns:xlink="http://www.w3.org/1999/xlink" xml:space="preserve" xmlns:serif="http://www.serif.com/" style="fill-rule:evenodd;clip-rule:evenodd;stroke-linecap:round;stroke-linejoin:round;stroke-miterlimit:1.5;">
    <g transform="matrix(1,0,0,1,-680.044,-210.987)">
        <g transform="matrix(1.46667,0,0,1.46667,-345.556,-145.813)">
            <circle cx="807" cy="351" r="105" style="fill:none;stroke:rgb(242,13,13);stroke-width:5.45px;"/>
        </g>
        <g transform="matrix(1,0,0,1,512,-68)">
            <circle cx="362" cy="478" r="73" style="fill:rgb(208,235,230);stroke:rgb(38,123,217);stroke-width:8px;"/>
        </g>
        <g transform="matrix(1,0,0,1,456.632,-178)">
            <g transform="matrix(62.8221,0,0,62.8221,297,466)">
                <path d="M0.523,-0.113L0.487,-0.211C0.483,-0.222 0.479,-0.228 0.475,-0.231C0.47,-0.234 0.461,-0.235 0.448,-0.235L0.27,-0.235C0.257,-0.235 0.247,-0.233 0.243,-0.228C0.238,-0.223 0.231,-0.211 0.223,-0.19L0.194,-0.113C0.191,-0.106 0.19,-0.099 0.19,-0.092C0.19,-0.071 0.203,-0.06 0.229,-0.06C0.236,-0.06 0.245,-0.061 0.258,-0.062C0.27,-0.063 0.279,-0.064 0.285,-0.064C0.312,-0.064 0.326,-0.052 0.326,-0.029C0.326,-0.007 0.311,0.004 0.281,0.004C0.276,0.004 0.268,0.003 0.259,0.002L0.209,-0.005C0.2,-0.006 0.184,-0.007 0.163,-0.007C0.14,-0.007 0.123,-0.006 0.114,-0.005L0.072,0.001C0.053,0.004 0.04,0.005 0.031,0.005C0.005,0.005 -0.008,-0.006 -0.008,-0.028C-0.008,-0.051 0.005,-0.063 0.03,-0.063C0.035,-0.063 0.039,-0.063 0.042,-0.062L0.055,-0.062C0.073,-0.062 0.087,-0.069 0.096,-0.083C0.1,-0.088 0.107,-0.104 0.116,-0.13L0.302,-0.633C0.313,-0.661 0.334,-0.675 0.365,-0.675C0.396,-0.675 0.416,-0.661 0.426,-0.633L0.605,-0.137C0.616,-0.106 0.627,-0.085 0.636,-0.075C0.645,-0.065 0.659,-0.06 0.676,-0.06C0.681,-0.06 0.685,-0.06 0.688,-0.061C0.707,-0.062 0.716,-0.063 0.716,-0.063C0.741,-0.063 0.754,-0.052 0.754,-0.031C0.754,-0.008 0.741,0.003 0.716,0.003C0.709,0.003 0.699,0.002 0.687,0.001C0.645,-0.004 0.614,-0.006 0.593,-0.006C0.568,-0.006 0.528,-0.003 0.473,0.002C0.459,0.003 0.448,0.004 0.441,0.004C0.414,0.004 0.401,-0.007 0.401,-0.03C0.401,-0.053 0.416,-0.064 0.445,-0.064C0.451,-0.064 0.46,-0.063 0.472,-0.062C0.483,-0.061 0.492,-0.06 0.498,-0.06C0.52,-0.06 0.531,-0.069 0.531,-0.087C0.531,-0.09 0.528,-0.098 0.523,-0.113ZM0.451,-0.317L0.361,-0.593L0.269,-0.317C0.268,-0.313 0.267,-0.311 0.267,-0.31C0.267,-0.304 0.272,-0.301 0.282,-0.301L0.441,-0.301C0.449,-0.301 0.453,-0.304 0.453,-0.309C0.453,-0.31 0.452,-0.313 0.451,-0.317Z" style="fill:rgb(242,13,13);fill-rule:nonzero;"/>
            </g>
        </g>
        <g transform="matrix(1,0,0,1,546.597,-63.0298)">
            <g transform="matrix(62.8221,0,0,62.8221,297,466)">
                <path d="M0.607,-0.51C0.607,-0.442 0.568,-0.394 0.491,-0.366C0.519,-0.357 0.542,-0.348 0.56,-0.337C0.614,-0.306 0.641,-0.259 0.641,-0.196C0.641,-0.135 0.617,-0.086 0.57,-0.05C0.523,-0.013 0.459,0.005 0.38,0.005C0.351,0.005 0.315,0.003 0.271,-0C0.227,-0.003 0.195,-0.005 0.174,-0.005C0.156,-0.005 0.139,-0.004 0.123,-0.002L0.076,0.004C0.075,0.004 0.072,0.004 0.069,0.005L0.062,0.005C0.033,0.004 0.019,-0.008 0.019,-0.031C0.019,-0.052 0.029,-0.063 0.05,-0.063C0.055,-0.063 0.064,-0.062 0.077,-0.06C0.086,-0.059 0.093,-0.058 0.098,-0.058C0.132,-0.058 0.149,-0.083 0.149,-0.132L0.149,-0.534C0.149,-0.584 0.132,-0.609 0.098,-0.609C0.092,-0.609 0.085,-0.608 0.077,-0.607C0.065,-0.605 0.056,-0.604 0.05,-0.604C0.029,-0.604 0.019,-0.615 0.019,-0.636C0.019,-0.659 0.034,-0.671 0.065,-0.671L0.078,-0.671L0.127,-0.664C0.141,-0.662 0.16,-0.661 0.184,-0.661C0.209,-0.661 0.245,-0.663 0.292,-0.667C0.323,-0.67 0.357,-0.671 0.393,-0.671C0.46,-0.671 0.513,-0.657 0.551,-0.629C0.588,-0.6 0.607,-0.561 0.607,-0.51ZM0.224,-0.467C0.224,-0.432 0.227,-0.41 0.234,-0.402C0.24,-0.393 0.257,-0.389 0.286,-0.389L0.342,-0.389C0.46,-0.389 0.519,-0.427 0.519,-0.504C0.519,-0.574 0.47,-0.609 0.373,-0.609C0.305,-0.609 0.263,-0.605 0.248,-0.596C0.232,-0.587 0.224,-0.565 0.224,-0.529L0.224,-0.467ZM0.224,-0.264L0.224,-0.153C0.224,-0.11 0.231,-0.083 0.246,-0.073C0.261,-0.063 0.301,-0.058 0.366,-0.058C0.491,-0.058 0.553,-0.105 0.553,-0.198C0.553,-0.284 0.493,-0.327 0.373,-0.327L0.29,-0.327C0.254,-0.327 0.233,-0.319 0.228,-0.303C0.225,-0.295 0.224,-0.282 0.224,-0.264Z" style="fill:rgb(38,123,217);fill-rule:nonzero;"/>
            </g>
        </g>
    </g>
</svg>
