<svg xmlns="http://www.w3.org/2000/svg" width="316" height="316" fill-rule="evenodd" stroke-linecap="round" stroke-linejoin="round" stroke-miterlimit="1.5" xmlns:v="https://vecta.io/nano"><circle cx="807" cy="351" r="105" fill="none" stroke="#f20d0d" stroke-width="5.45" transform="matrix(1.46667 0 0 1.46667 -1025.6 -356.8)"/><circle cx="193.956" cy="199.013" r="73" fill="#d0ebe6" stroke="#267bd9" stroke-width="8"/><g fill-rule="nonzero"><path d="M106.444 69.914l-2.262-6.157c-.251-.691-.503-1.068-.754-1.256-.314-.188-.88-.251-1.696-.251H90.55c-.817 0-1.445.126-1.696.44-.314.314-.754 1.068-1.256 2.387l-1.822 4.837a3.28 3.28 0 0 0-.251 1.319c0 1.319.817 2.01 2.45 2.01.44 0 1.005-.063 1.822-.126l1.696-.126c1.696 0 2.576.754 2.576 2.199 0 1.382-.942 2.073-2.827 2.073-.314 0-.817-.063-1.382-.126l-3.141-.44c-.565-.063-1.571-.126-2.89-.126l-3.078.126-2.639.377c-1.194.188-2.01.251-2.576.251-1.633 0-2.45-.691-2.45-2.073 0-1.445.817-2.199 2.387-2.199.314 0 .565 0 .754.063h.817c1.131 0 2.01-.44 2.576-1.319.251-.314.691-1.319 1.256-2.953l11.685-31.6c.691-1.759 2.01-2.639 3.958-2.639s3.204.88 3.832 2.639l11.245 31.16c.691 1.947 1.382 3.267 1.947 3.895s1.445.942 2.513.942c.314 0 .565 0 .754-.063l1.759-.126c1.571 0 2.387.691 2.387 2.01 0 1.445-.817 2.136-2.387 2.136-.44 0-1.068-.063-1.822-.126l-5.905-.44c-1.571 0-4.083.188-7.539.503l-2.01.126c-1.696 0-2.513-.691-2.513-2.136s.942-2.136 2.764-2.136c.377 0 .942.063 1.696.126l1.633.126c1.382 0 2.073-.565 2.073-1.696 0-.188-.188-.691-.503-1.633zm-4.523-12.816l-5.654-17.339-5.78 17.339-.126.44c0 .377.314.565.942.565h9.989c.503 0 .754-.188.754-.503 0-.063-.063-.251-.126-.503z" fill="#f20d0d"/><path d="M201.686 159.944c0 4.272-2.45 7.287-7.287 9.046 1.759.565 3.204 1.131 4.335 1.822 3.392 1.947 5.089 4.9 5.089 8.858 0 3.832-1.508 6.91-4.46 9.172-2.953 2.324-6.973 3.455-11.936 3.455-1.822 0-4.083-.126-6.848-.314s-4.774-.314-6.094-.314a25.86 25.86 0 0 0-3.204.188l-2.953.377c-.063 0-.251 0-.44.063h-.44c-1.822-.063-2.701-.817-2.701-2.262 0-1.319.628-2.01 1.947-2.01.314 0 .88.063 1.696.188.565.063 1.005.126 1.319.126 2.136 0 3.204-1.571 3.204-4.649v-25.254c0-3.141-1.068-4.712-3.204-4.712-.377 0-.817.063-1.319.126-.754.126-1.319.188-1.696.188-1.319 0-1.947-.691-1.947-2.01 0-1.445.942-2.199 2.89-2.199h.817l3.078.44c.88.126 2.073.188 3.581.188 1.571 0 3.832-.126 6.785-.377 1.947-.188 4.083-.251 6.345-.251 4.209 0 7.539.88 9.926 2.639 2.324 1.822 3.518 4.272 3.518 7.476zm-24.061 2.701c0 2.199.188 3.581.628 4.083.377.565 1.445.817 3.267.817h3.518c7.413 0 11.12-2.387 11.12-7.225 0-4.398-3.078-6.596-9.172-6.596-4.272 0-6.91.251-7.853.817-1.005.565-1.508 1.947-1.508 4.209v3.895zm0 12.753v6.973c0 2.701.44 4.398 1.382 5.026s3.455.942 7.539.942c7.853 0 11.748-2.953 11.748-8.795 0-5.403-3.769-8.104-11.308-8.104h-5.214c-2.262 0-3.581.503-3.895 1.508-.188.503-.251 1.319-.251 2.45z" fill="#267bd9"/></g></svg>