<svg xmlns="http://www.w3.org/2000/svg" xmlns:xlink="http://www.w3.org/1999/xlink" width="622" height="136" fill-rule="evenodd" stroke-linecap="round" stroke-linejoin="round" stroke-miterlimit="1.5" xmlns:v="https://vecta.io/nano"><g fill-rule="nonzero"><path d="M7.334 11.106c.93.093 1.79.302 2.581.628s1.488.744 2.092 1.255l-1.813 1.906c-.418-.349-.883-.604-1.372-.79a4.33 4.33 0 0 0-1.488-.349v4.162c1.139.372 2.069.79 2.79 1.232s1.255.976 1.627 1.627c.395.628.581 1.418.581 2.348 0 .907-.209 1.697-.581 2.441-.395.721-.976 1.325-1.72 1.813-.744.465-1.651.79-2.697.907v3.557h-1.93v-3.487a9.28 9.28 0 0 1-3.069-.721c-.93-.418-1.697-.93-2.325-1.534l1.813-2.092a7.1 7.1 0 0 0 1.697 1.116c.581.279 1.209.418 1.883.465v-4.952c-1.139-.372-2.069-.79-2.767-1.255s-1.209-1-1.534-1.581-.488-1.255-.488-2.023c0-.837.186-1.604.581-2.278.395-.651.953-1.186 1.674-1.604s1.558-.674 2.534-.767V7.572h1.93v3.534zm-1.93 2.674c-.442.07-.814.256-1.046.535a1.5 1.5 0 0 0-.372 1.023c0 .302.023.558.093.744s.209.372.418.558c.186.163.511.349.907.535V13.78zm1.93 11.741c.488-.093.86-.302 1.093-.651.256-.325.395-.767.395-1.302 0-.488-.116-.907-.325-1.232s-.604-.651-1.162-.93v4.115z"/><g fill="#9d9d9d"><use xlink:href="#B"/><path d="M50.372 28.078c-.325.93-.721 1.744-1.162 2.418a5.6 5.6 0 0 1-1.767 1.697c-.744.465-1.627.721-2.674.837l-.325-1.604c.837-.139 1.511-.349 2.023-.628.511-.302.907-.651 1.186-1.093s.558-1.023.814-1.72h-.674L43.397 15.43h2.139l3.604 11.02 3.557-11.02h2.069l-4.394 12.648zm18.238-.72c-.418.279-.953.488-1.558.651-.628.163-1.232.256-1.813.256-.883 0-1.627-.163-2.278-.488a3.51 3.51 0 0 1-1.441-1.348c-.325-.558-.488-1.209-.488-1.953V16.99h-2.883v-1.56h2.883v-2.86l1.999-.232v3.092h4.324l-.232 1.558H63.03v7.463c0 .697.186 1.255.558 1.604s1 .535 1.837.535 1.651-.209 2.395-.604l.79 1.372zm6.333-10.207a4.71 4.71 0 0 1 1.79-1.465 5.05 5.05 0 0 1 2.232-.511c1.186 0 2.069.302 2.65.953.581.628.86 1.534.86 2.743v9.114h-1.999v-9.067c0-.744-.163-1.302-.511-1.651s-.907-.535-1.651-.535c-.674 0-1.302.209-1.906.628s-1.093.907-1.465 1.488v9.137h-1.999V10.408l1.999-.232v6.975zm17.097-1.976c1.162 0 2.139.256 2.929.79.814.535 1.418 1.279 1.837 2.255.395.976.604 2.139.604 3.487 0 1.279-.209 2.441-.628 3.418s-1.023 1.744-1.837 2.302-1.79.837-2.929.837c-1.162 0-2.162-.279-2.953-.814-.814-.535-1.418-1.279-1.837-2.278-.418-.976-.628-2.116-.628-3.441 0-1.302.209-2.464.628-3.441s1.046-1.744 1.86-2.302c.814-.535 1.79-.814 2.953-.814zm0 1.627c-1.093 0-1.906.395-2.464 1.209s-.814 2.046-.814 3.72c0 1.651.256 2.86.814 3.673.535.814 1.348 1.209 2.441 1.209s1.906-.395 2.441-1.209.814-2.046.814-3.697-.279-2.883-.814-3.697-1.348-1.209-2.418-1.209z"/><use xlink:href="#C"/></g><path d="M138.45 15.175c.721 0 1.302.232 1.744.744.465.488.697 1.395.697 2.72v9.346h-1.86v-9.021c0-.604-.023-1.046-.07-1.348s-.116-.511-.256-.674c-.139-.139-.349-.209-.651-.209-.814 0-1.558.488-2.185 1.511v9.742h-1.883v-9.021l-.046-1.348c-.046-.302-.139-.511-.279-.674-.116-.139-.349-.209-.628-.209-.837 0-1.558.488-2.209 1.511v9.742h-1.837V15.43h1.558l.139 1.465c.372-.558.767-.976 1.209-1.279.418-.302.93-.442 1.511-.442 1.186 0 1.953.535 2.278 1.651.372-.535.767-.953 1.209-1.232s.953-.418 1.558-.418zm15.029 10.067c0 .488.07.86.232 1.093s.418.395.79.511l-.488 1.418c-1.209-.163-1.976-.744-2.302-1.767a4.17 4.17 0 0 1-1.697 1.325 5.79 5.79 0 0 1-2.232.442c-.837 0-1.558-.163-2.162-.488a3.18 3.18 0 0 1-1.418-1.348c-.325-.581-.488-1.255-.488-2.046 0-1.302.511-2.278 1.511-2.976 1.023-.697 2.488-1.046 4.394-1.046h1.837v-1.046c0-.86-.256-1.511-.767-1.906s-1.255-.581-2.232-.581c-.93 0-2.023.209-3.255.651l-.535-1.511c1.395-.535 2.767-.79 4.115-.79 1.534 0 2.697.349 3.487 1.069.814.721 1.209 1.72 1.209 2.976v6.022zm-5.185 1.488a3.72 3.72 0 0 0 1.767-.465c.558-.325 1.023-.744 1.395-1.302v-3.232h-1.813c-1.325 0-2.278.232-2.883.674s-.883 1.116-.883 1.953c0 1.581.79 2.371 2.418 2.371zm15.261-17.182c.418 0 .79.139 1.046.395a1.35 1.35 0 0 1 .418 1c0 .418-.139.767-.418 1.023-.256.279-.628.418-1.046.418s-.767-.139-1.046-.418-.395-.604-.395-1.023a1.33 1.33 0 0 1 .395-1c.279-.256.628-.395 1.046-.395zm-4.162 5.882h5.743v10.974h3.557v1.581h-9.416v-1.581h3.859v-9.393h-3.743V15.43z"/><use xlink:href="#C" x="71.539"/><path d="M190.055 26.149c0-.372.093-.721.279-1.046s.418-.581.744-.767.674-.279 1.069-.279.744.093 1.069.279.581.442.767.767.256.674.256 1.046c0 .395-.07.744-.256 1.069s-.442.581-.767.767-.674.279-1.069.279-.744-.093-1.069-.279-.558-.442-.744-.767-.279-.674-.279-1.069z"/><use xlink:href="#B" x="171.692"/><path d="M222.064 28.078c-.325.93-.721 1.744-1.162 2.418a5.6 5.6 0 0 1-1.767 1.697c-.744.465-1.627.721-2.674.837l-.325-1.604c.837-.139 1.511-.349 2.023-.628.511-.302.907-.651 1.186-1.093s.558-1.023.814-1.72h-.674l-4.394-12.555h2.139l3.604 11.02 3.557-11.02h2.069l-4.394 12.648z"/><g fill="#40bf4f"><path d="M247.681 16.57c1.046-1.116 2.302-1.674 3.72-1.674 1.116 0 1.976.349 2.581 1s.907 1.581.907 2.79v9.3h-3.766v-8.254c0-.511-.046-.93-.116-1.209-.093-.302-.209-.511-.372-.651-.186-.116-.418-.186-.744-.186-.372 0-.744.139-1.093.395-.372.256-.744.651-1.116 1.139v8.765h-3.766V10.292l3.766-.372v6.649z"/><use xlink:href="#D"/><use xlink:href="#E"/><use xlink:href="#E" x="14.308"/><path d="M306.631 14.896c1.279 0 2.371.279 3.301.837s1.627 1.325 2.116 2.348c.488 1 .721 2.185.721 3.534 0 1.418-.232 2.627-.721 3.627-.488 1.023-1.209 1.79-2.116 2.348-.93.535-2.023.79-3.301.79-1.302 0-2.395-.256-3.325-.79s-1.627-1.302-2.116-2.325c-.465-1-.721-2.209-.721-3.627 0-1.348.256-2.511.744-3.534.488-1 1.186-1.79 2.116-2.348.93-.581 2.023-.86 3.301-.86zm0 2.79c-.767 0-1.348.325-1.72.953s-.558 1.627-.558 2.999c0 1.395.186 2.418.558 3.046s.93.93 1.72.93c.767 0 1.348-.302 1.72-.953.349-.628.535-1.651.535-3.046 0-1.348-.186-2.348-.558-2.976a1.84 1.84 0 0 0-1.697-.953z"/></g><g fill="#a50ec3"><use xlink:href="#F"/><use xlink:href="#F" x="14.307"/><path d="M361.189 25.73a2.49 2.49 0 0 1 .372-1.325c.232-.395.558-.721.976-.976.395-.232.837-.349 1.325-.349a2.69 2.69 0 0 1 1.325.349 3.26 3.26 0 0 1 .976.976 2.69 2.69 0 0 1 .349 1.325c0 .488-.116.93-.349 1.325a3.26 3.26 0 0 1-.976.976 2.69 2.69 0 0 1-1.325.349c-.488 0-.93-.116-1.325-.349-.418-.256-.744-.581-.976-.976-.256-.395-.372-.837-.372-1.325z"/><use xlink:href="#F" x="42.921"/></g><g fill="#26b9d9"><use xlink:href="#G"/><use xlink:href="#G" x="14.306"/></g><g fill="#f20d0d"><use xlink:href="#H"/><use xlink:href="#I"/><path d="M487.145 27.985V15.314h3.278l.279 1.465c.558-.628 1.162-1.116 1.79-1.418s1.348-.465 2.139-.465c1.093 0 1.93.349 2.557 1 .604.674.93 1.604.93 2.79v9.3h-3.766v-8.207c0-.535-.046-.953-.116-1.255-.093-.302-.209-.511-.372-.651-.186-.116-.418-.186-.744-.186-.372 0-.744.116-1.116.372-.349.232-.721.581-1.093 1.069v8.858h-3.766zm19.77-19.297c.418 0 .814.093 1.139.279s.604.442.79.767a2.12 2.12 0 0 1 .279 1.093c0 .395-.093.744-.279 1.069s-.465.581-.79.767a2.36 2.36 0 0 1-1.139.279c-.442 0-.814-.093-1.162-.279a1.94 1.94 0 0 1-.79-.767 1.91 1.91 0 0 1-.302-1.069c0-.418.093-.767.302-1.093a1.94 1.94 0 0 1 .79-.767c.348-.186.721-.279 1.162-.279zm-4.975 6.626h7.254v10.09h3.208v2.581h-10.579v-2.581h3.604v-7.51h-3.487v-2.581zm20.536 10.114c.465 0 .93-.093 1.395-.279a7.55 7.55 0 0 0 1.418-.814l1.674 2.395c-.581.511-1.279.907-2.092 1.209-.79.302-1.674.442-2.604.442-1.348 0-2.511-.279-3.487-.814-1-.558-1.744-1.348-2.278-2.348-.511-1-.79-2.162-.79-3.487 0-1.302.279-2.488.814-3.534a5.91 5.91 0 0 1 2.302-2.418c1-.581 2.162-.883 3.511-.883.953 0 1.79.139 2.534.395a6.74 6.74 0 0 1 2.092 1.209l-1.627 2.255c-.907-.628-1.86-.953-2.836-.953-.907 0-1.604.325-2.092.953-.511.628-.767 1.604-.767 2.976 0 1.325.256 2.278.767 2.836.488.581 1.186.86 2.069.86z"/><use xlink:href="#D" x="271.846"/><use xlink:href="#I" x="100.153"/><path d="M582.663 14.942c.744 0 1.441.116 2.069.372l-.697 5.301h-2.348V18.29c-.697.116-1.325.488-1.86 1.139-.558.628-.976 1.441-1.279 2.395v3.627h2.488v2.534h-7.928v-2.534h1.674v-7.626h-1.674v-2.511h4.534l.697 2.86c.465-1.093 1.023-1.906 1.744-2.441.697-.535 1.558-.79 2.581-.79zm16.748 1.116c-.418.186-.953.302-1.534.395a18.31 18.31 0 0 1-2.116.116c.837.349 1.441.767 1.837 1.279.418.511.628 1.186.628 1.976a3.79 3.79 0 0 1-.674 2.185c-.442.651-1.069 1.139-1.883 1.511s-1.744.535-2.813.535c-.535 0-1.023-.046-1.465-.139a.82.82 0 0 0-.325.302.91.91 0 0 0-.093.418c0 .256.093.442.279.581s.558.209 1.116.209h2.069c.953 0 1.813.139 2.534.465.744.325 1.302.744 1.697 1.302a3.19 3.19 0 0 1 .604 1.883c0 .883-.256 1.627-.767 2.255s-1.279 1.093-2.278 1.441c-1.023.325-2.255.488-3.743.488-1.558 0-2.79-.163-3.697-.488-.883-.302-1.511-.767-1.883-1.348-.349-.604-.535-1.325-.535-2.232h3.325c0 .395.093.697.232.93.163.232.442.395.86.511.418.093 1.023.163 1.79.163 1.116 0 1.883-.139 2.302-.395a1.14 1.14 0 0 0 .651-1.069c0-.372-.163-.674-.465-.907s-.767-.325-1.372-.325h-2.023c-.883 0-1.604-.116-2.185-.349-.604-.232-1.023-.535-1.302-.907-.279-.395-.418-.814-.418-1.279a2.62 2.62 0 0 1 .372-1.348c.256-.418.604-.767 1.046-1.046-.79-.418-1.372-.93-1.72-1.511s-.535-1.279-.535-2.116c0-.93.232-1.744.721-2.441s1.139-1.232 1.999-1.604c.86-.395 1.837-.581 2.929-.581.907.023 1.697-.046 2.395-.163a9.22 9.22 0 0 0 1.86-.581 15.07 15.07 0 0 0 1.697-.883l.883 2.767zm-6.719 1.325c-.604 0-1.069.186-1.418.558s-.535.883-.535 1.558.186 1.209.535 1.604c.349.372.814.558 1.418.558.628 0 1.093-.186 1.418-.558.349-.372.511-.93.511-1.651 0-.697-.163-1.232-.488-1.558-.325-.349-.814-.511-1.441-.511z"/><use xlink:href="#H" x="157.381"/></g></g><g fill="none" stroke="#000" stroke-width=".999"><path d="M120.03.499h501.289v39.842H120.03zm0 94.786h501.289v39.842H120.03z"/><path d="M234.388.499v134.627M320.435.499v134.627M392.047.499v134.627M436.458.499v134.627" stroke-dasharray="5.4,7.21,0,0,0,0"/></g><g fill-rule="nonzero"><use xlink:href="#J"/><use xlink:href="#K"/><use xlink:href="#J" x="12.112"/><use xlink:href="#L"/><use xlink:href="#M"/><use xlink:href="#N"/><use xlink:href="#O"/><use xlink:href="#P"/><use xlink:href="#Q"/><path d="M201.436 119.388c-.5 0-.955-.189-1.366-.544-.411-.366-.733-.866-.966-1.51-.233-.633-.344-1.343-.344-2.132 0-.777.111-1.488.344-2.121.233-.644.555-1.144.966-1.51s.866-.544 1.366-.544.944.178 1.355.544.744.866.977 1.51c.233.633.355 1.343.355 2.121 0 .788-.122 1.499-.355 2.132-.233.644-.566 1.144-.977 1.51-.411.355-.855.544-1.355.544zm0-1.077c.255 0 .5-.133.733-.411s.422-.655.566-1.132.211-.999.211-1.565-.067-1.088-.211-1.565-.333-.855-.566-1.121c-.233-.278-.477-.422-.733-.422s-.5.144-.744.422c-.233.266-.422.644-.566 1.121a5.8 5.8 0 0 0-.211 1.565 5.8 5.8 0 0 0 .211 1.565c.144.477.333.855.566 1.132.244.278.489.411.744.411zm0-2.332c-.244 0-.444-.067-.6-.211s-.233-.333-.233-.566c0-.222.078-.4.233-.544.155-.133.355-.211.6-.211s.444.078.6.211c.155.144.233.322.233.544 0 .233-.078.422-.233.566s-.355.211-.6.211z"/><use xlink:href="#R"/><g fill="#40bf4f"><use xlink:href="#J" x="100.202"/><use xlink:href="#K" x="100.202"/><use xlink:href="#J" x="112.314"/><use xlink:href="#L" x="100.202"/><use xlink:href="#M" x="100.202"/><use xlink:href="#N" x="100.202"/><use xlink:href="#O" x="100.202"/><use xlink:href="#P" x="100.202"/><use xlink:href="#Q" x="100.202"/><path d="M302.216 118.177h1.443v1.066h-4.03v-1.066h1.432v-4.763c-.455.266-.999.4-1.632.4v-1.077c.544 0 .944-.133 1.21-.377.266-.255.4-.655.4-1.188h1.177v7.006z"/><use xlink:href="#R" x="100.202"/></g><g fill="#a50ec3"><use xlink:href="#J" x="179.031"/><use xlink:href="#K" x="179.032"/><use xlink:href="#J" x="191.143"/><use xlink:href="#L" x="179.031"/><use xlink:href="#M" x="179.032"/><use xlink:href="#N" x="179.031"/><use xlink:href="#O" x="179.031"/><use xlink:href="#P" x="179.031"/><use xlink:href="#Q" x="179.032"/><path d="M377.825 118.477c0-.366.089-.699.289-1.01a3.55 3.55 0 0 1 .733-.844c.289-.255.666-.544 1.132-.877l1.066-.833c.255-.222.466-.466.644-.733.178-.278.266-.566.266-.877 0-.333-.044-.588-.122-.755-.089-.167-.233-.278-.444-.355-.2-.067-.522-.1-.933-.1s-.711.033-.922.1c-.211.078-.355.189-.433.355-.089.167-.133.422-.133.755l.011.311h-1.155c-.033-.655.033-1.166.189-1.532.167-.377.433-.644.822-.811s.922-.244 1.621-.244c.655 0 1.177.078 1.565.222s.666.389.844.722c.167.322.255.777.255 1.332 0 .489-.122.933-.366 1.332a4.53 4.53 0 0 1-.877 1.055 20.11 20.11 0 0 1-1.321 1.033c-.455.311-.799.577-1.044.799s-.411.433-.5.655h4.086v1.066h-5.274v-.766z"/><use xlink:href="#R" x="179.031"/></g><g fill="#f20d0d"><use xlink:href="#J" x="351.679"/><use xlink:href="#K" x="351.68"/><use xlink:href="#J" x="363.791"/><use xlink:href="#L" x="351.679"/><use xlink:href="#M" x="351.68"/><use xlink:href="#N" x="351.679"/><use xlink:href="#O" x="351.679"/><use xlink:href="#P" x="351.679"/><use xlink:href="#Q" x="351.68"/><path d="M555.047 119.243h-1.155V117.2h-3.486v-.833l3.675-5.196h.966v4.963h.755v1.066h-.755v2.043zm-1.155-5.74l-1.976 2.631h1.976v-2.631z"/><use xlink:href="#R" x="351.679"/></g><g fill="#26b9d9"><use xlink:href="#S"/><path d="M410.021 114.713c-.24 0-.45-.03-.62-.09s-.36-.16-.56-.31l.41-.879c.23.14.39.23.48.26.08.04.18.06.29.06.22 0 .39-.03.53-.09.13-.06.25-.17.35-.32.1-.14.19-.36.29-.66l-1.879-5.366h1.089l1.349 3.997 1.359-3.997h1.099l-1.959 5.446c-.17.49-.36.879-.55 1.159s-.42.48-.689.61c-.26.12-.59.18-.989.18z"/><use xlink:href="#S" x="10.901"/><path d="M422.431 113.065c-.32 0-.53-.06-.65-.17s-.18-.31-.18-.6.06-.49.18-.6.33-.17.65-.17c.31 0 .53.06.65.17s.17.31.17.6-.05.49-.17.6-.34.17-.65.17zm-24.767 11.809c-.53 0-.959-.06-1.279-.18-.31-.13-.54-.32-.689-.57-.14-.26-.21-.6-.21-1.029 0-.49.07-.859.21-1.129.14-.26.36-.45.679-.55.31-.11.739-.16 1.289-.16h1.149v-.2c0-.26-.04-.45-.1-.59s-.18-.24-.34-.3c-.16-.05-.4-.08-.709-.08-.25 0-.45.02-.58.07-.13.06-.24.15-.31.28s-.14.34-.21.61l-.999-.25c.11-.43.25-.769.41-1.029s.38-.45.65-.58c.28-.12.62-.19 1.039-.19.789 0 1.349.17 1.689.51.33.34.5.849.5 1.549v2.128c0 .24.03.41.07.49.05.08.16.12.31.12.05 0 .16-.01.33-.02v.959c-.07.01-.17.01-.3.01-.53 0-.889-.12-1.089-.36a1.36 1.36 0 0 1-.61.37c-.24.08-.54.12-.899.12zm0-.969c.31 0 .55-.03.709-.11.16-.07.28-.19.34-.37.06-.17.1-.43.1-.759v-.45h-1.149c-.34 0-.59.02-.739.05-.14.04-.24.11-.3.23-.07.12-.1.32-.1.6 0 .22.03.39.1.5.06.11.17.19.33.24s.4.07.709.07zm3.812.839v-5.616h1.039v.47a2.05 2.05 0 0 1 .56-.42c.23-.12.48-.18.749-.18.35 0 .64.05.869.15.23.09.43.24.6.45.16.21.31.5.45.869l-.939.43a3.3 3.3 0 0 0-.23-.6.69.69 0 0 0-.28-.26c-.11-.05-.27-.07-.47-.07-.47 0-.809.16-1.009.48-.2.33-.3.799-.3 1.419v2.878h-1.039zm7.309 1.779c-.43 0-.759-.06-1.009-.17-.26-.12-.51-.32-.749-.62l.759-.65c.17.2.31.33.43.39s.31.09.57.09c.31 0 .54-.04.709-.12.16-.07.28-.2.34-.39.07-.18.1-.45.1-.809v-.02c-.38.15-.779.22-1.209.22-.57 0-1.009-.1-1.339-.3-.33-.21-.56-.53-.709-.969-.14-.45-.21-1.039-.21-1.789 0-.57.08-1.029.22-1.379a1.48 1.48 0 0 1 .719-.759c.32-.16.759-.25 1.319-.25a3.83 3.83 0 0 1 1.209.19v-.06h1.049v5.036c0 .58-.07 1.039-.21 1.379-.15.34-.38.59-.699.749-.31.15-.749.23-1.289.23zm-.06-3.038c.43 0 .739-.11.929-.31.19-.21.28-.53.28-.969v-1.709c0-.17-.09-.3-.29-.39s-.51-.14-.919-.14c-.33 0-.57.04-.739.13-.17.08-.29.22-.36.43-.07.2-.1.49-.1.859 0 .55.03.979.1 1.279.08.3.2.51.37.63s.41.19.729.19zm5.99 1.259h-.939l-2.028-5.616h1.069l1.429 4.067 1.429-4.067h1.079l-2.038 5.616zm6.739-8.583v.959h-2.088v7.974h2.088v.969h-3.128v-9.903h3.128zm3.702 8.713c-.6 0-1.059-.08-1.389-.22-.33-.15-.56-.38-.699-.689-.14-.32-.2-.749-.2-1.289h1.049c0 .35.03.61.08.769.06.17.17.29.34.36.18.07.45.1.819.1.34 0 .59-.03.769-.1a.63.63 0 0 0 .37-.36c.07-.17.1-.42.1-.739 0-.37-.03-.65-.09-.819a.58.58 0 0 0-.31-.37c-.14-.06-.37-.11-.669-.13h-.919v-.969h.919a3.41 3.41 0 0 0 .689-.1.5.5 0 0 0 .3-.27c.05-.14.08-.36.08-.66 0-.29-.03-.51-.1-.66s-.19-.26-.37-.32-.43-.1-.769-.1c-.38 0-.66.04-.829.1-.16.07-.27.18-.32.34-.05.17-.08.43-.08.789h-1.059c0-.56.06-.989.2-1.299a1.26 1.26 0 0 1 .699-.679c.32-.14.789-.21 1.389-.21.56 0 1.009.07 1.339.2.33.14.57.36.719.65s.23.689.23 1.189c0 .4-.05.709-.14.919-.1.22-.26.41-.5.59a1.66 1.66 0 0 1 .5.689c.09.26.14.63.14 1.119 0 .53-.08.949-.22 1.259a1.42 1.42 0 0 1-.719.689c-.33.14-.779.22-1.349.22zm4.171-7.754v-.959h3.138v9.903h-3.138v-.969h2.098v-7.974h-2.098z"/></g></g><defs ><path id="B" d="M35.646 15.175c1.604 0 2.767.558 3.464 1.697.721 1.139 1.069 2.743 1.069 4.836 0 1.279-.186 2.418-.535 3.418-.349.976-.907 1.744-1.627 2.302s-1.627.837-2.674.837c-1.395 0-2.488-.488-3.325-1.465v5.998l-1.999.232v-17.6h1.697l.186 1.744a4.58 4.58 0 0 1 1.651-1.488c.628-.349 1.325-.511 2.092-.511zm-.488 1.604c-.651 0-1.232.186-1.767.581-.511.372-.976.86-1.372 1.441v6.208c.349.511.744.883 1.255 1.162.488.279 1.046.418 1.627.418 1.046 0 1.837-.395 2.348-1.209.511-.79.79-2.023.79-3.697 0-1.651-.232-2.883-.721-3.697-.465-.814-1.186-1.209-2.162-1.209z"/><path id="C" d="M101.558 27.985V15.43h1.697l.163 1.744c.511-.628 1.139-1.116 1.883-1.465.767-.372 1.511-.535 2.278-.535 1.186 0 2.069.302 2.65.953.581.628.86 1.534.86 2.743v9.114h-1.999v-7.649c0-.93-.046-1.651-.139-2.139-.116-.488-.302-.86-.604-1.093-.325-.232-.767-.372-1.395-.372-.674 0-1.325.209-1.906.628a5.66 5.66 0 0 0-1.488 1.488v9.137h-1.999z"/><path id="D" d="M261.477 22.754c.116 1 .442 1.72.976 2.185s1.232.697 2.069.697c1.069 0 2.162-.349 3.255-1.046l1.511 2.069c-.628.535-1.372.953-2.232 1.255-.86.325-1.79.465-2.836.465-1.418 0-2.604-.279-3.604-.837a5.5 5.5 0 0 1-2.232-2.371c-.488-1-.744-2.185-.744-3.511 0-1.255.256-2.395.721-3.418.488-1.046 1.209-1.837 2.139-2.441s2.023-.907 3.325-.907c1.186 0 2.232.279 3.139.79.883.511 1.581 1.255 2.069 2.232s.721 2.139.721 3.487c0 .511-.023.953-.07 1.348h-8.207zm2.348-5.324c-.697 0-1.255.256-1.651.744-.418.511-.651 1.279-.744 2.302h4.65c-.023-2.023-.767-3.046-2.255-3.046z"/><path id="E" d="M279.132 24.01c0 .488.139.837.418 1.069s.697.349 1.209.349c.581 0 1.162-.139 1.79-.395l.907 2.534c-1.046.535-2.278.814-3.65.814-1.488 0-2.604-.418-3.348-1.279-.721-.837-1.093-2.046-1.093-3.557V12.873h-3.743v-2.581h7.51V24.01z"/><path id="F" d="M335.154 11.036c1.302 0 2.418.279 3.325.837.93.535 1.604 1.302 2.069 2.302.442.976.674 2.139.674 3.464 0 2.116-.349 3.906-1.069 5.371s-1.813 2.65-3.278 3.58c-1.488.93-3.394 1.627-5.719 2.116l-.79-2.65c1.976-.511 3.511-1.162 4.603-1.976a5.74 5.74 0 0 0 2.209-3.162c-.511.465-1.046.79-1.581 1.023-.535.209-1.139.325-1.79.325-.883 0-1.674-.209-2.371-.651-.721-.442-1.279-1.069-1.697-1.86-.395-.814-.604-1.744-.604-2.767 0-1.186.256-2.209.767-3.115.535-.883 1.255-1.581 2.162-2.092.93-.488 1.953-.744 3.092-.744zm-2.232 5.836c0 .953.186 1.674.558 2.116s.86.651 1.488.651c.442 0 .86-.07 1.232-.232a3.98 3.98 0 0 0 1.139-.744v-.395c0-1.093-.07-1.953-.186-2.604s-.349-1.139-.651-1.465c-.325-.302-.79-.465-1.372-.465-.721 0-1.255.256-1.627.79-.395.511-.581 1.302-.581 2.348z"/><path id="G" d="M411.901 11.455l-.418 2.697h-6.045v3.557a7.35 7.35 0 0 1 1.209-.395c.442-.07.837-.116 1.232-.116.86 0 1.651.209 2.348.651s1.255 1.069 1.674 1.883c.418.79.628 1.744.628 2.836 0 1.116-.279 2.092-.814 2.976a5.74 5.74 0 0 1-2.302 2.092c-.976.511-2.092.744-3.371.744-1.162 0-2.209-.209-3.139-.651s-1.72-1.046-2.348-1.813l2.162-1.976c.395.511.86.907 1.372 1.162.511.279 1.069.395 1.651.395s1.093-.116 1.534-.349a2.49 2.49 0 0 0 1-1.023c.256-.442.372-.93.372-1.511 0-.976-.209-1.697-.604-2.139-.395-.465-.93-.674-1.627-.674s-1.372.186-2.023.535h-2.557v-8.881h10.067z"/><path id="H" d="M448.756 16.965h-2.674l-.465-6.673h3.58l-.442 6.673zm4.58 0h-2.697l-.442-6.673h3.58l-.442 6.673z"/><path id="I" d="M469.176 24.335c0 .465.07.814.186 1.023.139.232.349.395.651.511l-.767 2.464c-.767-.07-1.418-.232-1.906-.488-.511-.279-.907-.674-1.209-1.162-.465.558-1.069.976-1.813 1.279a6.57 6.57 0 0 1-2.348.418c-.86 0-1.604-.163-2.255-.488-.651-.349-1.139-.814-1.511-1.418-.349-.604-.511-1.279-.511-2.069 0-.907.232-1.674.721-2.325s1.186-1.139 2.116-1.465c.93-.349 2.023-.511 3.325-.511h1.697v-.465c0-1.302-.837-1.953-2.488-1.953-.418 0-.953.046-1.604.186a14.03 14.03 0 0 0-1.883.488l-.86-2.511c.79-.302 1.627-.535 2.511-.697s1.697-.256 2.418-.256c1.86 0 3.255.395 4.162 1.139.93.767 1.372 1.86 1.372 3.348v4.952zm-5.905 1.372c.418 0 .86-.139 1.302-.395a2.25 2.25 0 0 0 .976-1v-2.069h-.93c-1.023 0-1.79.163-2.302.488-.488.325-.744.79-.744 1.418 0 .488.139.86.442 1.139s.721.418 1.255.418z"/><path id="J" d="M146.677 119.388c-.555 0-.999-.1-1.332-.311-.322-.2-.611-.555-.877-1.066l.922-.755c.133.311.244.533.344.677s.222.233.355.3c.144.056.344.078.588.078.466 0 .811-.022 1.055-.078.233-.056.389-.144.477-.266s.133-.3.133-.544c0-.233-.033-.4-.111-.511-.067-.111-.189-.189-.377-.244-.178-.056-.489-.111-.91-.155-.822-.1-1.41-.289-1.765-.544-.366-.255-.555-.666-.555-1.221 0-.455.089-.822.255-1.088.167-.278.444-.477.811-.6.366-.133.866-.2 1.488-.2.6 0 1.055.089 1.388.266s.633.489.899.933l-.844.822c-.155-.278-.278-.477-.389-.6a.82.82 0 0 0-.389-.266c-.155-.056-.377-.078-.666-.078-.377 0-.666.022-.866.067s-.333.133-.411.244-.111.278-.111.5c0 .155.044.278.122.355.078.089.2.144.366.189l.744.122c.633.1 1.132.211 1.488.355.355.133.611.333.766.588.155.266.233.622.233 1.066 0 .477-.089.855-.278 1.144-.178.278-.477.489-.888.622-.422.133-.977.2-1.665.2z"/><path id="K" d="M151.311 121.219c-.266 0-.5-.033-.688-.1a2.36 2.36 0 0 1-.622-.344l.455-.977c.255.155.433.255.533.289.089.044.2.067.322.067.244 0 .433-.033.588-.1.144-.067.278-.189.389-.355.111-.155.211-.4.322-.733l-2.087-5.962h1.21l1.499 4.441 1.51-4.441h1.221l-2.176 6.051c-.189.544-.4.977-.611 1.288a1.93 1.93 0 0 1-.766.677c-.289.133-.655.2-1.099.2z"/><path id="L" d="M165.1 119.388c-.355 0-.588-.067-.722-.189s-.2-.344-.2-.666.067-.544.2-.666.366-.189.722-.189c.344 0 .588.067.722.189s.189.344.189.666-.056.544-.189.666-.377.189-.722.189z"/><path id="M" d="M170.889 119.388c-.588 0-1.066-.067-1.421-.2-.344-.144-.6-.355-.766-.633-.155-.289-.233-.666-.233-1.144 0-.544.078-.955.233-1.255a1.24 1.24 0 0 1 .755-.611c.344-.122.822-.178 1.432-.178h1.277v-.222c0-.289-.044-.5-.111-.655s-.2-.266-.377-.333c-.178-.056-.444-.089-.788-.089-.278 0-.5.022-.644.078a.72.72 0 0 0-.344.311c-.078.144-.155.377-.233.677l-1.11-.278c.122-.477.278-.855.455-1.144s.422-.5.722-.644c.311-.133.688-.211 1.155-.211.877 0 1.499.189 1.876.566.366.377.555.944.555 1.721v2.365c0 .266.033.455.078.544.056.089.178.133.344.133.056 0 .178-.011.366-.022v1.066c-.078.011-.189.011-.333.011-.588 0-.988-.133-1.21-.4a1.51 1.51 0 0 1-.677.411c-.266.089-.6.133-.999.133zm0-1.077c.344 0 .611-.033.788-.122a.66.66 0 0 0 .377-.411c.067-.189.111-.477.111-.844v-.5h-1.277c-.377 0-.655.022-.822.056-.155.044-.266.122-.333.255-.078.133-.111.355-.111.666 0 .244.033.433.111.555.067.122.189.211.366.266s.444.078.788.078z"/><path id="N" d="M175.125 119.243v-6.24h1.155v.522a2.28 2.28 0 0 1 .622-.466c.255-.133.533-.2.833-.2.389 0 .711.056.966.167.255.1.477.266.666.5.178.233.344.555.5.966l-1.044.477c-.089-.3-.178-.522-.255-.666-.089-.133-.189-.233-.311-.289s-.3-.078-.522-.078c-.522 0-.899.178-1.121.533-.222.366-.333.888-.333 1.577v3.198h-1.155z"/><path id="O" d="M183.246 121.219c-.477 0-.844-.067-1.121-.189-.289-.133-.566-.355-.833-.688l.844-.722c.189.222.344.366.477.433s.344.1.633.1c.344 0 .6-.044.788-.133.178-.078.311-.222.377-.433.078-.2.111-.5.111-.899v-.022c-.422.167-.866.244-1.343.244-.633 0-1.121-.111-1.488-.333-.366-.233-.622-.588-.788-1.077-.155-.5-.233-1.155-.233-1.987 0-.633.089-1.144.244-1.532.167-.377.433-.666.799-.844.355-.178.844-.278 1.466-.278a4.26 4.26 0 0 1 1.343.211v-.067h1.166v5.596c0 .644-.078 1.155-.233 1.532-.167.377-.422.655-.777.833-.344.167-.833.255-1.432.255zm-.067-3.375c.477 0 .822-.122 1.033-.344.211-.233.311-.588.311-1.077v-1.899c0-.189-.1-.333-.322-.433s-.566-.155-1.021-.155c-.366 0-.633.044-.822.144-.189.089-.322.244-.4.477-.078.222-.111.544-.111.955 0 .611.033 1.088.111 1.421.089.333.222.566.411.699s.455.211.811.211z"/><path id="P" d="M189.835 119.243h-1.044l-2.254-6.24h1.188l1.588 4.519 1.588-4.519h1.199l-2.265 6.24z"/><path id="Q" d="M197.323 109.706v1.066h-2.32v8.86h2.32v1.077h-3.475v-11.003h3.475z"/><path id="R" d="M206.071 110.772v-1.066h3.486v11.003h-3.486v-1.077h2.332v-8.86h-2.332z"/><path id="S" d="M405.85 113.065c-.5 0-.899-.09-1.199-.28-.29-.18-.55-.5-.789-.959l.829-.679c.12.28.22.48.31.61s.2.21.32.27c.13.05.31.07.53.07.42 0 .729-.02.949-.07.21-.05.35-.13.43-.24s.12-.27.12-.49c0-.21-.03-.36-.1-.46-.06-.1-.17-.17-.34-.22-.16-.05-.44-.1-.819-.14-.739-.09-1.269-.26-1.589-.49-.33-.23-.5-.6-.5-1.099 0-.41.08-.739.23-.979.15-.25.4-.43.729-.54.33-.12.779-.18 1.339-.18.54 0 .949.08 1.249.24s.57.44.809.839l-.759.739c-.14-.25-.25-.43-.35-.54-.1-.12-.22-.2-.35-.24-.14-.05-.34-.07-.6-.07-.34 0-.6.02-.779.06s-.3.12-.37.22-.1.25-.1.45c0 .14.04.25.11.32.07.08.18.13.33.17l.669.11c.57.09 1.019.19 1.339.32.32.12.55.3.689.53.14.24.21.56.21.959 0 .43-.08.769-.25 1.029-.16.25-.43.44-.799.56-.38.12-.879.18-1.499.18z"/></defs></svg>