<?xml version="1.0" encoding="UTF-8" standalone="no"?>
<!DOCTYPE svg PUBLIC "-//W3C//DTD SVG 1.1//EN" "http://www.w3.org/Graphics/SVG/1.1/DTD/svg11.dtd">
<svg width="622px" height="136px" version="1.1" xmlns="http://www.w3.org/2000/svg" xmlns:xlink="http://www.w3.org/1999/xlink" xml:space="preserve" xmlns:serif="http://www.serif.com/" style="fill-rule:evenodd;clip-rule:evenodd;stroke-linecap:round;stroke-linejoin:round;stroke-miterlimit:1.5;">
    <g transform="matrix(1,0,0,1,-374.783,-382.988)">
        <g transform="matrix(0.555137,0,0,0.555137,166.727,170.599)">
            <g transform="matrix(41.8814,0,0,41.8814,373,433)">
                <path d="M0.358,-0.726C0.398,-0.722 0.435,-0.713 0.469,-0.699C0.503,-0.685 0.533,-0.667 0.559,-0.645L0.481,-0.563C0.463,-0.578 0.443,-0.589 0.422,-0.597C0.401,-0.606 0.379,-0.611 0.358,-0.612L0.358,-0.433C0.407,-0.417 0.447,-0.399 0.478,-0.38C0.509,-0.361 0.532,-0.338 0.548,-0.31C0.565,-0.283 0.573,-0.249 0.573,-0.209C0.573,-0.17 0.564,-0.136 0.548,-0.104C0.531,-0.073 0.506,-0.047 0.474,-0.026C0.442,-0.006 0.403,0.008 0.358,0.013L0.358,0.166L0.275,0.166L0.275,0.016C0.227,0.013 0.183,0.002 0.143,-0.015C0.103,-0.033 0.07,-0.055 0.043,-0.081L0.121,-0.171C0.145,-0.15 0.17,-0.134 0.194,-0.123C0.219,-0.111 0.246,-0.105 0.275,-0.103L0.275,-0.316C0.226,-0.332 0.186,-0.35 0.156,-0.37C0.126,-0.39 0.104,-0.413 0.09,-0.438C0.076,-0.463 0.069,-0.492 0.069,-0.525C0.069,-0.561 0.077,-0.594 0.094,-0.623C0.111,-0.651 0.135,-0.674 0.166,-0.692C0.197,-0.71 0.233,-0.721 0.275,-0.725L0.275,-0.878L0.358,-0.878L0.358,-0.726ZM0.275,-0.611C0.256,-0.608 0.24,-0.6 0.23,-0.588C0.219,-0.575 0.214,-0.561 0.214,-0.544C0.214,-0.531 0.215,-0.52 0.218,-0.512C0.221,-0.504 0.227,-0.496 0.236,-0.488C0.244,-0.481 0.258,-0.473 0.275,-0.465L0.275,-0.611ZM0.358,-0.106C0.379,-0.11 0.395,-0.119 0.405,-0.134C0.416,-0.148 0.422,-0.167 0.422,-0.19C0.422,-0.211 0.417,-0.229 0.408,-0.243C0.399,-0.257 0.382,-0.271 0.358,-0.283L0.358,-0.106Z" style="fill-rule:nonzero;"/>
            </g>
            <g transform="matrix(41.8814,0,0,41.8814,424.546,433)">
                <path d="M0.345,-0.551C0.414,-0.551 0.464,-0.527 0.494,-0.478C0.525,-0.429 0.54,-0.36 0.54,-0.27C0.54,-0.215 0.532,-0.166 0.517,-0.123C0.502,-0.081 0.478,-0.048 0.447,-0.024C0.416,-0 0.377,0.012 0.332,0.012C0.272,0.012 0.225,-0.009 0.189,-0.051L0.189,0.207L0.103,0.217L0.103,-0.54L0.176,-0.54L0.184,-0.465C0.203,-0.493 0.227,-0.514 0.255,-0.529C0.282,-0.544 0.312,-0.551 0.345,-0.551ZM0.324,-0.482C0.296,-0.482 0.271,-0.474 0.248,-0.457C0.226,-0.441 0.206,-0.42 0.189,-0.395L0.189,-0.128C0.204,-0.106 0.221,-0.09 0.243,-0.078C0.264,-0.066 0.288,-0.06 0.313,-0.06C0.358,-0.06 0.392,-0.077 0.414,-0.112C0.436,-0.146 0.448,-0.199 0.448,-0.271C0.448,-0.342 0.438,-0.395 0.417,-0.43C0.397,-0.465 0.366,-0.482 0.324,-0.482Z" style="fill:rgb(157,157,157);fill-rule:nonzero;"/>
            </g>
            <g transform="matrix(41.8814,0,0,41.8814,450.319,433)">
                <path d="M0.363,0.004C0.349,0.044 0.332,0.079 0.313,0.108C0.293,0.138 0.268,0.162 0.237,0.181C0.205,0.201 0.167,0.212 0.122,0.217L0.108,0.148C0.144,0.142 0.173,0.133 0.195,0.121C0.217,0.108 0.234,0.093 0.246,0.074C0.258,0.055 0.27,0.03 0.281,-0L0.252,-0L0.063,-0.54L0.155,-0.54L0.31,-0.066L0.463,-0.54L0.552,-0.54L0.363,0.004Z" style="fill:rgb(157,157,157);fill-rule:nonzero;"/>
            </g>
            <g transform="matrix(41.8814,0,0,41.8814,476.093,433)">
                <path d="M0.532,-0.027C0.514,-0.015 0.491,-0.006 0.465,0.001C0.438,0.008 0.412,0.012 0.387,0.012C0.349,0.012 0.317,0.005 0.289,-0.009C0.262,-0.023 0.242,-0.042 0.227,-0.067C0.213,-0.091 0.206,-0.119 0.206,-0.151L0.206,-0.473L0.082,-0.473L0.082,-0.54L0.206,-0.54L0.206,-0.663L0.292,-0.673L0.292,-0.54L0.478,-0.54L0.468,-0.473L0.292,-0.473L0.292,-0.152C0.292,-0.122 0.3,-0.098 0.316,-0.083C0.332,-0.068 0.359,-0.06 0.395,-0.06C0.431,-0.06 0.466,-0.069 0.498,-0.086L0.532,-0.027Z" style="fill:rgb(157,157,157);fill-rule:nonzero;"/>
            </g>
            <g transform="matrix(41.8814,0,0,41.8814,501.866,433)">
                <path d="M0.189,-0.466C0.21,-0.494 0.236,-0.515 0.266,-0.529C0.297,-0.544 0.329,-0.551 0.362,-0.551C0.413,-0.551 0.451,-0.538 0.476,-0.51C0.501,-0.483 0.513,-0.444 0.513,-0.392L0.513,-0L0.427,-0L0.427,-0.39C0.427,-0.422 0.42,-0.446 0.405,-0.461C0.39,-0.476 0.366,-0.484 0.334,-0.484C0.305,-0.484 0.278,-0.475 0.252,-0.457C0.226,-0.439 0.205,-0.418 0.189,-0.393L0.189,-0L0.103,-0L0.103,-0.756L0.189,-0.766L0.189,-0.466Z" style="fill:rgb(157,157,157);fill-rule:nonzero;"/>
            </g>
            <g transform="matrix(41.8814,0,0,41.8814,527.639,433)">
                <path d="M0.309,-0.551C0.359,-0.551 0.401,-0.54 0.435,-0.517C0.47,-0.494 0.496,-0.462 0.514,-0.42C0.531,-0.378 0.54,-0.328 0.54,-0.27C0.54,-0.215 0.531,-0.165 0.513,-0.123C0.495,-0.081 0.469,-0.048 0.434,-0.024C0.399,-0 0.357,0.012 0.308,0.012C0.258,0.012 0.215,0 0.181,-0.023C0.146,-0.046 0.12,-0.078 0.102,-0.121C0.084,-0.163 0.075,-0.212 0.075,-0.269C0.075,-0.325 0.084,-0.375 0.102,-0.417C0.12,-0.459 0.147,-0.492 0.182,-0.516C0.217,-0.539 0.259,-0.551 0.309,-0.551ZM0.309,-0.481C0.262,-0.481 0.227,-0.464 0.203,-0.429C0.179,-0.394 0.168,-0.341 0.168,-0.269C0.168,-0.198 0.179,-0.146 0.203,-0.111C0.226,-0.076 0.261,-0.059 0.308,-0.059C0.355,-0.059 0.39,-0.076 0.413,-0.111C0.436,-0.146 0.448,-0.199 0.448,-0.27C0.448,-0.341 0.436,-0.394 0.413,-0.429C0.39,-0.464 0.355,-0.481 0.309,-0.481Z" style="fill:rgb(157,157,157);fill-rule:nonzero;"/>
            </g>
            <g transform="matrix(41.8814,0,0,41.8814,553.412,433)">
                <path d="M0.103,-0L0.103,-0.54L0.176,-0.54L0.183,-0.465C0.205,-0.492 0.232,-0.513 0.264,-0.528C0.297,-0.544 0.329,-0.551 0.362,-0.551C0.413,-0.551 0.451,-0.538 0.476,-0.51C0.501,-0.483 0.513,-0.444 0.513,-0.392L0.513,-0L0.427,-0L0.427,-0.329C0.427,-0.369 0.425,-0.4 0.421,-0.421C0.416,-0.442 0.408,-0.458 0.395,-0.468C0.381,-0.478 0.362,-0.484 0.335,-0.484C0.306,-0.484 0.278,-0.475 0.253,-0.457C0.227,-0.439 0.206,-0.418 0.189,-0.393L0.189,-0L0.103,-0Z" style="fill:rgb(157,157,157);fill-rule:nonzero;"/>
            </g>
            <g transform="matrix(41.8814,0,0,41.8814,604.958,433)">
                <path d="M0.459,-0.551C0.49,-0.551 0.515,-0.541 0.534,-0.519C0.554,-0.498 0.564,-0.459 0.564,-0.402L0.564,-0L0.484,-0L0.484,-0.388C0.484,-0.414 0.483,-0.433 0.481,-0.446C0.479,-0.459 0.476,-0.468 0.47,-0.475C0.464,-0.481 0.455,-0.484 0.442,-0.484C0.407,-0.484 0.375,-0.463 0.348,-0.419L0.348,-0L0.267,-0L0.267,-0.388C0.267,-0.414 0.266,-0.433 0.265,-0.446C0.263,-0.459 0.259,-0.468 0.253,-0.475C0.248,-0.481 0.238,-0.484 0.226,-0.484C0.19,-0.484 0.159,-0.463 0.131,-0.419L0.131,-0L0.052,-0L0.052,-0.54L0.119,-0.54L0.125,-0.477C0.141,-0.501 0.158,-0.519 0.177,-0.532C0.195,-0.545 0.217,-0.551 0.242,-0.551C0.293,-0.551 0.326,-0.528 0.34,-0.48C0.356,-0.503 0.373,-0.521 0.392,-0.533C0.411,-0.545 0.433,-0.551 0.459,-0.551Z" style="fill-rule:nonzero;"/>
            </g>
            <g transform="matrix(41.8814,0,0,41.8814,630.732,433)">
                <path d="M0.49,-0.118C0.49,-0.097 0.493,-0.081 0.5,-0.071C0.507,-0.061 0.518,-0.054 0.534,-0.049L0.513,0.012C0.461,0.005 0.428,-0.02 0.414,-0.064C0.395,-0.039 0.371,-0.02 0.341,-0.007C0.312,0.005 0.28,0.012 0.245,0.012C0.209,0.012 0.178,0.005 0.152,-0.009C0.125,-0.022 0.105,-0.042 0.091,-0.067C0.077,-0.092 0.07,-0.121 0.07,-0.155C0.07,-0.211 0.092,-0.253 0.135,-0.283C0.179,-0.313 0.242,-0.328 0.324,-0.328L0.403,-0.328L0.403,-0.373C0.403,-0.41 0.392,-0.438 0.37,-0.455C0.348,-0.472 0.316,-0.48 0.274,-0.48C0.234,-0.48 0.187,-0.471 0.134,-0.452L0.111,-0.517C0.171,-0.54 0.23,-0.551 0.288,-0.551C0.354,-0.551 0.404,-0.536 0.438,-0.505C0.473,-0.474 0.49,-0.431 0.49,-0.377L0.49,-0.118ZM0.267,-0.054C0.293,-0.054 0.319,-0.061 0.343,-0.074C0.367,-0.088 0.387,-0.106 0.403,-0.13L0.403,-0.269L0.325,-0.269C0.268,-0.269 0.227,-0.259 0.201,-0.24C0.175,-0.221 0.163,-0.192 0.163,-0.156C0.163,-0.088 0.197,-0.054 0.267,-0.054Z" style="fill-rule:nonzero;"/>
            </g>
            <g transform="matrix(41.8814,0,0,41.8814,656.505,433)">
                <path d="M0.308,-0.793C0.326,-0.793 0.342,-0.787 0.353,-0.776C0.365,-0.764 0.371,-0.75 0.371,-0.733C0.371,-0.715 0.365,-0.7 0.353,-0.689C0.342,-0.677 0.326,-0.671 0.308,-0.671C0.29,-0.671 0.275,-0.677 0.263,-0.689C0.251,-0.701 0.246,-0.715 0.246,-0.733C0.246,-0.75 0.251,-0.764 0.263,-0.776C0.275,-0.787 0.29,-0.793 0.308,-0.793ZM0.129,-0.54L0.376,-0.54L0.376,-0.068L0.529,-0.068L0.529,-0L0.124,-0L0.124,-0.068L0.29,-0.068L0.29,-0.472L0.129,-0.472L0.129,-0.54Z" style="fill-rule:nonzero;"/>
            </g>
            <g transform="matrix(41.8814,0,0,41.8814,682.278,433)">
                <path d="M0.103,-0L0.103,-0.54L0.176,-0.54L0.183,-0.465C0.205,-0.492 0.232,-0.513 0.264,-0.528C0.297,-0.544 0.329,-0.551 0.362,-0.551C0.413,-0.551 0.451,-0.538 0.476,-0.51C0.501,-0.483 0.513,-0.444 0.513,-0.392L0.513,-0L0.427,-0L0.427,-0.329C0.427,-0.369 0.425,-0.4 0.421,-0.421C0.416,-0.442 0.408,-0.458 0.395,-0.468C0.381,-0.478 0.362,-0.484 0.335,-0.484C0.306,-0.484 0.278,-0.475 0.253,-0.457C0.227,-0.439 0.206,-0.418 0.189,-0.393L0.189,-0L0.103,-0Z" style="fill-rule:nonzero;"/>
            </g>
            <g transform="matrix(41.8814,0,0,41.8814,708.051,433)">
                <path d="M0.217,-0.079C0.217,-0.095 0.221,-0.11 0.229,-0.124C0.237,-0.138 0.247,-0.149 0.261,-0.157C0.275,-0.165 0.29,-0.169 0.307,-0.169C0.324,-0.169 0.339,-0.165 0.353,-0.157C0.367,-0.149 0.378,-0.138 0.386,-0.124C0.394,-0.11 0.397,-0.095 0.397,-0.079C0.397,-0.062 0.394,-0.047 0.386,-0.033C0.378,-0.019 0.367,-0.008 0.353,-0C0.339,0.008 0.324,0.012 0.307,0.012C0.29,0.012 0.275,0.008 0.261,-0C0.247,-0.008 0.237,-0.019 0.229,-0.033C0.221,-0.047 0.217,-0.062 0.217,-0.079Z" style="fill-rule:nonzero;"/>
            </g>
            <g transform="matrix(41.8814,0,0,41.8814,733.824,433)">
                <path d="M0.345,-0.551C0.414,-0.551 0.464,-0.527 0.494,-0.478C0.525,-0.429 0.54,-0.36 0.54,-0.27C0.54,-0.215 0.532,-0.166 0.517,-0.123C0.502,-0.081 0.478,-0.048 0.447,-0.024C0.416,-0 0.377,0.012 0.332,0.012C0.272,0.012 0.225,-0.009 0.189,-0.051L0.189,0.207L0.103,0.217L0.103,-0.54L0.176,-0.54L0.184,-0.465C0.203,-0.493 0.227,-0.514 0.255,-0.529C0.282,-0.544 0.312,-0.551 0.345,-0.551ZM0.324,-0.482C0.296,-0.482 0.271,-0.474 0.248,-0.457C0.226,-0.441 0.206,-0.42 0.189,-0.395L0.189,-0.128C0.204,-0.106 0.221,-0.09 0.243,-0.078C0.264,-0.066 0.288,-0.06 0.313,-0.06C0.358,-0.06 0.392,-0.077 0.414,-0.112C0.436,-0.146 0.448,-0.199 0.448,-0.271C0.448,-0.342 0.438,-0.395 0.417,-0.43C0.397,-0.465 0.366,-0.482 0.324,-0.482Z" style="fill-rule:nonzero;"/>
            </g>
            <g transform="matrix(41.8814,0,0,41.8814,759.597,433)">
                <path d="M0.363,0.004C0.349,0.044 0.332,0.079 0.313,0.108C0.293,0.138 0.268,0.162 0.237,0.181C0.205,0.201 0.167,0.212 0.122,0.217L0.108,0.148C0.144,0.142 0.173,0.133 0.195,0.121C0.217,0.108 0.234,0.093 0.246,0.074C0.258,0.055 0.27,0.03 0.281,-0L0.252,-0L0.063,-0.54L0.155,-0.54L0.31,-0.066L0.463,-0.54L0.552,-0.54L0.363,0.004Z" style="fill-rule:nonzero;"/>
            </g>
            <g transform="matrix(41.8814,0,0,41.8814,811.144,433)">
                <path d="M0.234,-0.491C0.279,-0.539 0.333,-0.563 0.394,-0.563C0.442,-0.563 0.479,-0.548 0.505,-0.52C0.531,-0.492 0.544,-0.452 0.544,-0.4L0.544,-0L0.382,-0L0.382,-0.355C0.382,-0.377 0.38,-0.395 0.377,-0.407C0.373,-0.42 0.368,-0.429 0.361,-0.435C0.353,-0.44 0.343,-0.443 0.329,-0.443C0.313,-0.443 0.297,-0.437 0.282,-0.426C0.266,-0.415 0.25,-0.398 0.234,-0.377L0.234,-0L0.072,-0L0.072,-0.761L0.234,-0.777L0.234,-0.491Z" style="fill:rgb(64,191,79);fill-rule:nonzero;"/>
            </g>
            <g transform="matrix(41.8814,0,0,41.8814,836.917,433)">
                <path d="M0.212,-0.225C0.217,-0.182 0.231,-0.151 0.254,-0.131C0.277,-0.111 0.307,-0.101 0.343,-0.101C0.389,-0.101 0.436,-0.116 0.483,-0.146L0.548,-0.057C0.521,-0.034 0.489,-0.016 0.452,-0.003C0.415,0.011 0.375,0.017 0.33,0.017C0.269,0.017 0.218,0.005 0.175,-0.019C0.133,-0.043 0.101,-0.077 0.079,-0.121C0.058,-0.164 0.047,-0.215 0.047,-0.272C0.047,-0.326 0.058,-0.375 0.078,-0.419C0.099,-0.464 0.13,-0.498 0.17,-0.524C0.21,-0.55 0.257,-0.563 0.313,-0.563C0.364,-0.563 0.409,-0.551 0.448,-0.529C0.486,-0.507 0.516,-0.475 0.537,-0.433C0.558,-0.391 0.568,-0.341 0.568,-0.283C0.568,-0.261 0.567,-0.242 0.565,-0.225L0.212,-0.225ZM0.313,-0.454C0.283,-0.454 0.259,-0.443 0.242,-0.422C0.224,-0.4 0.214,-0.367 0.21,-0.323L0.41,-0.323C0.409,-0.41 0.377,-0.454 0.313,-0.454Z" style="fill:rgb(64,191,79);fill-rule:nonzero;"/>
            </g>
            <g transform="matrix(41.8814,0,0,41.8814,862.69,433)">
                <path d="M0.356,-0.171C0.356,-0.15 0.362,-0.135 0.374,-0.125C0.386,-0.115 0.404,-0.11 0.426,-0.11C0.451,-0.11 0.476,-0.116 0.503,-0.127L0.542,-0.018C0.497,0.005 0.444,0.017 0.385,0.017C0.321,0.017 0.273,-0.001 0.241,-0.038C0.21,-0.074 0.194,-0.126 0.194,-0.191L0.194,-0.65L0.033,-0.65L0.033,-0.761L0.356,-0.761L0.356,-0.171Z" style="fill:rgb(64,191,79);fill-rule:nonzero;"/>
            </g>
            <g transform="matrix(41.8814,0,0,41.8814,888.463,433)">
                <path d="M0.356,-0.171C0.356,-0.15 0.362,-0.135 0.374,-0.125C0.386,-0.115 0.404,-0.11 0.426,-0.11C0.451,-0.11 0.476,-0.116 0.503,-0.127L0.542,-0.018C0.497,0.005 0.444,0.017 0.385,0.017C0.321,0.017 0.273,-0.001 0.241,-0.038C0.21,-0.074 0.194,-0.126 0.194,-0.191L0.194,-0.65L0.033,-0.65L0.033,-0.761L0.356,-0.761L0.356,-0.171Z" style="fill:rgb(64,191,79);fill-rule:nonzero;"/>
            </g>
            <g transform="matrix(41.8814,0,0,41.8814,914.236,433)">
                <path d="M0.308,-0.563C0.363,-0.563 0.41,-0.551 0.45,-0.527C0.49,-0.503 0.52,-0.47 0.541,-0.426C0.562,-0.383 0.572,-0.332 0.572,-0.274C0.572,-0.213 0.562,-0.161 0.541,-0.118C0.52,-0.074 0.489,-0.041 0.45,-0.017C0.41,0.006 0.363,0.017 0.308,0.017C0.252,0.017 0.205,0.006 0.165,-0.017C0.125,-0.04 0.095,-0.073 0.074,-0.117C0.054,-0.16 0.043,-0.212 0.043,-0.273C0.043,-0.331 0.054,-0.381 0.075,-0.425C0.096,-0.468 0.126,-0.502 0.166,-0.526C0.206,-0.551 0.253,-0.563 0.308,-0.563ZM0.308,-0.443C0.275,-0.443 0.25,-0.429 0.234,-0.402C0.218,-0.375 0.21,-0.332 0.21,-0.273C0.21,-0.213 0.218,-0.169 0.234,-0.142C0.25,-0.115 0.274,-0.102 0.308,-0.102C0.341,-0.102 0.366,-0.115 0.382,-0.143C0.397,-0.17 0.405,-0.214 0.405,-0.274C0.405,-0.332 0.397,-0.375 0.381,-0.402C0.365,-0.429 0.341,-0.443 0.308,-0.443Z" style="fill:rgb(64,191,79);fill-rule:nonzero;"/>
            </g>
            <g transform="matrix(41.8814,0,0,41.8814,965.783,433)">
                <path d="M0.304,-0.729C0.36,-0.729 0.408,-0.717 0.447,-0.693C0.487,-0.67 0.516,-0.637 0.536,-0.594C0.555,-0.552 0.565,-0.502 0.565,-0.445C0.565,-0.354 0.55,-0.277 0.519,-0.214C0.488,-0.151 0.441,-0.1 0.378,-0.06C0.314,-0.02 0.232,0.01 0.132,0.031L0.098,-0.083C0.183,-0.105 0.249,-0.133 0.296,-0.168C0.344,-0.203 0.375,-0.248 0.391,-0.304C0.369,-0.284 0.346,-0.27 0.323,-0.26C0.3,-0.251 0.274,-0.246 0.246,-0.246C0.208,-0.246 0.174,-0.255 0.144,-0.274C0.113,-0.293 0.089,-0.32 0.071,-0.354C0.054,-0.389 0.045,-0.429 0.045,-0.473C0.045,-0.524 0.056,-0.568 0.078,-0.607C0.101,-0.645 0.132,-0.675 0.171,-0.697C0.211,-0.718 0.255,-0.729 0.304,-0.729ZM0.208,-0.478C0.208,-0.437 0.216,-0.406 0.232,-0.387C0.248,-0.368 0.269,-0.359 0.296,-0.359C0.315,-0.359 0.333,-0.362 0.349,-0.369C0.365,-0.376 0.382,-0.386 0.398,-0.401L0.398,-0.418C0.398,-0.465 0.395,-0.502 0.39,-0.53C0.385,-0.558 0.375,-0.579 0.362,-0.593C0.348,-0.606 0.328,-0.613 0.303,-0.613C0.272,-0.613 0.249,-0.602 0.233,-0.579C0.216,-0.557 0.208,-0.523 0.208,-0.478Z" style="fill:rgb(165,14,195);fill-rule:nonzero;"/>
            </g>
            <g transform="matrix(41.8814,0,0,41.8814,991.556,433)">
                <path d="M0.304,-0.729C0.36,-0.729 0.408,-0.717 0.447,-0.693C0.487,-0.67 0.516,-0.637 0.536,-0.594C0.555,-0.552 0.565,-0.502 0.565,-0.445C0.565,-0.354 0.55,-0.277 0.519,-0.214C0.488,-0.151 0.441,-0.1 0.378,-0.06C0.314,-0.02 0.232,0.01 0.132,0.031L0.098,-0.083C0.183,-0.105 0.249,-0.133 0.296,-0.168C0.344,-0.203 0.375,-0.248 0.391,-0.304C0.369,-0.284 0.346,-0.27 0.323,-0.26C0.3,-0.251 0.274,-0.246 0.246,-0.246C0.208,-0.246 0.174,-0.255 0.144,-0.274C0.113,-0.293 0.089,-0.32 0.071,-0.354C0.054,-0.389 0.045,-0.429 0.045,-0.473C0.045,-0.524 0.056,-0.568 0.078,-0.607C0.101,-0.645 0.132,-0.675 0.171,-0.697C0.211,-0.718 0.255,-0.729 0.304,-0.729ZM0.208,-0.478C0.208,-0.437 0.216,-0.406 0.232,-0.387C0.248,-0.368 0.269,-0.359 0.296,-0.359C0.315,-0.359 0.333,-0.362 0.349,-0.369C0.365,-0.376 0.382,-0.386 0.398,-0.401L0.398,-0.418C0.398,-0.465 0.395,-0.502 0.39,-0.53C0.385,-0.558 0.375,-0.579 0.362,-0.593C0.348,-0.606 0.328,-0.613 0.303,-0.613C0.272,-0.613 0.249,-0.602 0.233,-0.579C0.216,-0.557 0.208,-0.523 0.208,-0.478Z" style="fill:rgb(165,14,195);fill-rule:nonzero;"/>
            </g>
            <g transform="matrix(41.8814,0,0,41.8814,1017.33,433)">
                <path d="M0.193,-0.097C0.193,-0.117 0.198,-0.136 0.209,-0.154C0.219,-0.171 0.233,-0.185 0.251,-0.196C0.268,-0.206 0.287,-0.211 0.308,-0.211C0.328,-0.211 0.347,-0.206 0.365,-0.196C0.382,-0.185 0.396,-0.171 0.407,-0.154C0.417,-0.136 0.422,-0.117 0.422,-0.097C0.422,-0.076 0.417,-0.057 0.407,-0.04C0.396,-0.023 0.382,-0.009 0.365,0.002C0.347,0.012 0.328,0.017 0.308,0.017C0.287,0.017 0.268,0.012 0.251,0.002C0.233,-0.009 0.219,-0.023 0.209,-0.04C0.198,-0.057 0.193,-0.076 0.193,-0.097Z" style="fill:rgb(165,14,195);fill-rule:nonzero;"/>
            </g>
            <g transform="matrix(41.8814,0,0,41.8814,1043.1,433)">
                <path d="M0.304,-0.729C0.36,-0.729 0.408,-0.717 0.447,-0.693C0.487,-0.67 0.516,-0.637 0.536,-0.594C0.555,-0.552 0.565,-0.502 0.565,-0.445C0.565,-0.354 0.55,-0.277 0.519,-0.214C0.488,-0.151 0.441,-0.1 0.378,-0.06C0.314,-0.02 0.232,0.01 0.132,0.031L0.098,-0.083C0.183,-0.105 0.249,-0.133 0.296,-0.168C0.344,-0.203 0.375,-0.248 0.391,-0.304C0.369,-0.284 0.346,-0.27 0.323,-0.26C0.3,-0.251 0.274,-0.246 0.246,-0.246C0.208,-0.246 0.174,-0.255 0.144,-0.274C0.113,-0.293 0.089,-0.32 0.071,-0.354C0.054,-0.389 0.045,-0.429 0.045,-0.473C0.045,-0.524 0.056,-0.568 0.078,-0.607C0.101,-0.645 0.132,-0.675 0.171,-0.697C0.211,-0.718 0.255,-0.729 0.304,-0.729ZM0.208,-0.478C0.208,-0.437 0.216,-0.406 0.232,-0.387C0.248,-0.368 0.269,-0.359 0.296,-0.359C0.315,-0.359 0.333,-0.362 0.349,-0.369C0.365,-0.376 0.382,-0.386 0.398,-0.401L0.398,-0.418C0.398,-0.465 0.395,-0.502 0.39,-0.53C0.385,-0.558 0.375,-0.579 0.362,-0.593C0.348,-0.606 0.328,-0.613 0.303,-0.613C0.272,-0.613 0.249,-0.602 0.233,-0.579C0.216,-0.557 0.208,-0.523 0.208,-0.478Z" style="fill:rgb(165,14,195);fill-rule:nonzero;"/>
            </g>
            <g transform="matrix(41.8814,0,0,41.8814,1094.65,433)">
                <path d="M0.528,-0.711L0.51,-0.595L0.25,-0.595L0.25,-0.442C0.267,-0.449 0.284,-0.455 0.302,-0.459C0.321,-0.462 0.338,-0.464 0.355,-0.464C0.392,-0.464 0.426,-0.455 0.456,-0.436C0.486,-0.417 0.51,-0.39 0.528,-0.355C0.546,-0.321 0.555,-0.28 0.555,-0.233C0.555,-0.185 0.543,-0.143 0.52,-0.105C0.496,-0.067 0.464,-0.037 0.421,-0.015C0.379,0.007 0.331,0.017 0.276,0.017C0.226,0.017 0.181,0.008 0.141,-0.011C0.101,-0.03 0.067,-0.056 0.04,-0.089L0.133,-0.174C0.15,-0.152 0.17,-0.135 0.192,-0.124C0.214,-0.112 0.238,-0.107 0.263,-0.107C0.288,-0.107 0.31,-0.112 0.329,-0.122C0.348,-0.133 0.362,-0.147 0.372,-0.166C0.383,-0.185 0.388,-0.206 0.388,-0.231C0.388,-0.273 0.379,-0.304 0.362,-0.323C0.345,-0.343 0.322,-0.352 0.292,-0.352C0.262,-0.352 0.233,-0.344 0.205,-0.329L0.095,-0.329L0.095,-0.711L0.528,-0.711Z" style="fill:rgb(38,185,217);fill-rule:nonzero;"/>
            </g>
            <g transform="matrix(41.8814,0,0,41.8814,1120.42,433)">
                <path d="M0.528,-0.711L0.51,-0.595L0.25,-0.595L0.25,-0.442C0.267,-0.449 0.284,-0.455 0.302,-0.459C0.321,-0.462 0.338,-0.464 0.355,-0.464C0.392,-0.464 0.426,-0.455 0.456,-0.436C0.486,-0.417 0.51,-0.39 0.528,-0.355C0.546,-0.321 0.555,-0.28 0.555,-0.233C0.555,-0.185 0.543,-0.143 0.52,-0.105C0.496,-0.067 0.464,-0.037 0.421,-0.015C0.379,0.007 0.331,0.017 0.276,0.017C0.226,0.017 0.181,0.008 0.141,-0.011C0.101,-0.03 0.067,-0.056 0.04,-0.089L0.133,-0.174C0.15,-0.152 0.17,-0.135 0.192,-0.124C0.214,-0.112 0.238,-0.107 0.263,-0.107C0.288,-0.107 0.31,-0.112 0.329,-0.122C0.348,-0.133 0.362,-0.147 0.372,-0.166C0.383,-0.185 0.388,-0.206 0.388,-0.231C0.388,-0.273 0.379,-0.304 0.362,-0.323C0.345,-0.343 0.322,-0.352 0.292,-0.352C0.262,-0.352 0.233,-0.344 0.205,-0.329L0.095,-0.329L0.095,-0.711L0.528,-0.711Z" style="fill:rgb(38,185,217);fill-rule:nonzero;"/>
            </g>
            <g transform="matrix(41.8814,0,0,41.8814,1171.97,433)">
                <path d="M0.267,-0.474L0.152,-0.474L0.132,-0.761L0.286,-0.761L0.267,-0.474ZM0.464,-0.474L0.348,-0.474L0.329,-0.761L0.483,-0.761L0.464,-0.474Z" style="fill:rgb(242,13,13);fill-rule:nonzero;"/>
            </g>
            <g transform="matrix(41.8814,0,0,41.8814,1197.74,433)">
                <path d="M0.53,-0.157C0.53,-0.137 0.533,-0.122 0.538,-0.113C0.544,-0.103 0.553,-0.096 0.566,-0.091L0.533,0.015C0.5,0.012 0.472,0.005 0.451,-0.006C0.429,-0.018 0.412,-0.035 0.399,-0.056C0.379,-0.032 0.353,-0.014 0.321,-0.001C0.289,0.011 0.256,0.017 0.22,0.017C0.183,0.017 0.151,0.01 0.123,-0.004C0.095,-0.019 0.074,-0.039 0.058,-0.065C0.043,-0.091 0.036,-0.12 0.036,-0.154C0.036,-0.193 0.046,-0.226 0.067,-0.254C0.088,-0.282 0.118,-0.303 0.158,-0.317C0.198,-0.332 0.245,-0.339 0.301,-0.339L0.374,-0.339L0.374,-0.359C0.374,-0.415 0.338,-0.443 0.267,-0.443C0.249,-0.443 0.226,-0.441 0.198,-0.435C0.171,-0.43 0.144,-0.423 0.117,-0.414L0.08,-0.522C0.114,-0.535 0.15,-0.545 0.188,-0.552C0.226,-0.559 0.261,-0.563 0.292,-0.563C0.372,-0.563 0.432,-0.546 0.471,-0.514C0.511,-0.481 0.53,-0.434 0.53,-0.37L0.53,-0.157ZM0.276,-0.098C0.294,-0.098 0.313,-0.104 0.332,-0.115C0.351,-0.125 0.365,-0.14 0.374,-0.158L0.374,-0.247L0.334,-0.247C0.29,-0.247 0.257,-0.24 0.235,-0.226C0.214,-0.212 0.203,-0.192 0.203,-0.165C0.203,-0.144 0.209,-0.128 0.222,-0.116C0.235,-0.104 0.253,-0.098 0.276,-0.098Z" style="fill:rgb(242,13,13);fill-rule:nonzero;"/>
            </g>
            <g transform="matrix(41.8814,0,0,41.8814,1249.29,433)">
                <path d="M0.072,-0L0.072,-0.545L0.213,-0.545L0.225,-0.482C0.249,-0.509 0.275,-0.53 0.302,-0.543C0.329,-0.556 0.36,-0.563 0.394,-0.563C0.441,-0.563 0.477,-0.548 0.504,-0.52C0.53,-0.491 0.544,-0.451 0.544,-0.4L0.544,-0L0.382,-0L0.382,-0.353C0.382,-0.376 0.38,-0.394 0.377,-0.407C0.373,-0.42 0.368,-0.429 0.361,-0.435C0.353,-0.44 0.343,-0.443 0.329,-0.443C0.313,-0.443 0.297,-0.438 0.281,-0.427C0.266,-0.417 0.25,-0.402 0.234,-0.381L0.234,-0L0.072,-0Z" style="fill:rgb(242,13,13);fill-rule:nonzero;"/>
            </g>
            <g transform="matrix(41.8814,0,0,41.8814,1275.06,433)">
                <path d="M0.307,-0.83C0.325,-0.83 0.342,-0.826 0.356,-0.818C0.37,-0.81 0.382,-0.799 0.39,-0.785C0.398,-0.771 0.402,-0.756 0.402,-0.738C0.402,-0.721 0.398,-0.706 0.39,-0.692C0.382,-0.678 0.37,-0.667 0.356,-0.659C0.341,-0.651 0.325,-0.647 0.307,-0.647C0.288,-0.647 0.272,-0.651 0.257,-0.659C0.242,-0.667 0.231,-0.678 0.223,-0.692C0.214,-0.706 0.21,-0.721 0.21,-0.738C0.21,-0.756 0.214,-0.771 0.223,-0.785C0.231,-0.799 0.242,-0.81 0.257,-0.818C0.272,-0.826 0.288,-0.83 0.307,-0.83ZM0.093,-0.545L0.405,-0.545L0.405,-0.111L0.543,-0.111L0.543,-0L0.088,-0L0.088,-0.111L0.243,-0.111L0.243,-0.434L0.093,-0.434L0.093,-0.545Z" style="fill:rgb(242,13,13);fill-rule:nonzero;"/>
            </g>
            <g transform="matrix(41.8814,0,0,41.8814,1300.83,433)">
                <path d="M0.361,-0.11C0.381,-0.11 0.401,-0.114 0.421,-0.122C0.44,-0.13 0.461,-0.142 0.482,-0.157L0.554,-0.054C0.529,-0.032 0.499,-0.015 0.464,-0.002C0.43,0.011 0.392,0.017 0.352,0.017C0.294,0.017 0.244,0.005 0.202,-0.018C0.159,-0.042 0.127,-0.076 0.104,-0.119C0.082,-0.162 0.07,-0.212 0.07,-0.269C0.07,-0.325 0.082,-0.376 0.105,-0.421C0.128,-0.465 0.161,-0.5 0.204,-0.525C0.247,-0.55 0.297,-0.563 0.355,-0.563C0.396,-0.563 0.432,-0.557 0.464,-0.546C0.497,-0.534 0.527,-0.517 0.554,-0.494L0.484,-0.397C0.445,-0.424 0.404,-0.438 0.362,-0.438C0.323,-0.438 0.293,-0.424 0.272,-0.397C0.25,-0.37 0.239,-0.328 0.239,-0.269C0.239,-0.212 0.25,-0.171 0.272,-0.147C0.293,-0.122 0.323,-0.11 0.361,-0.11Z" style="fill:rgb(242,13,13);fill-rule:nonzero;"/>
            </g>
            <g transform="matrix(41.8814,0,0,41.8814,1326.61,433)">
                <path d="M0.212,-0.225C0.217,-0.182 0.231,-0.151 0.254,-0.131C0.277,-0.111 0.307,-0.101 0.343,-0.101C0.389,-0.101 0.436,-0.116 0.483,-0.146L0.548,-0.057C0.521,-0.034 0.489,-0.016 0.452,-0.003C0.415,0.011 0.375,0.017 0.33,0.017C0.269,0.017 0.218,0.005 0.175,-0.019C0.133,-0.043 0.101,-0.077 0.079,-0.121C0.058,-0.164 0.047,-0.215 0.047,-0.272C0.047,-0.326 0.058,-0.375 0.078,-0.419C0.099,-0.464 0.13,-0.498 0.17,-0.524C0.21,-0.55 0.257,-0.563 0.313,-0.563C0.364,-0.563 0.409,-0.551 0.448,-0.529C0.486,-0.507 0.516,-0.475 0.537,-0.433C0.558,-0.391 0.568,-0.341 0.568,-0.283C0.568,-0.261 0.567,-0.242 0.565,-0.225L0.212,-0.225ZM0.313,-0.454C0.283,-0.454 0.259,-0.443 0.242,-0.422C0.224,-0.4 0.214,-0.367 0.21,-0.323L0.41,-0.323C0.409,-0.41 0.377,-0.454 0.313,-0.454Z" style="fill:rgb(242,13,13);fill-rule:nonzero;"/>
            </g>
            <g transform="matrix(41.8814,0,0,41.8814,1378.15,433)">
                <path d="M0.53,-0.157C0.53,-0.137 0.533,-0.122 0.538,-0.113C0.544,-0.103 0.553,-0.096 0.566,-0.091L0.533,0.015C0.5,0.012 0.472,0.005 0.451,-0.006C0.429,-0.018 0.412,-0.035 0.399,-0.056C0.379,-0.032 0.353,-0.014 0.321,-0.001C0.289,0.011 0.256,0.017 0.22,0.017C0.183,0.017 0.151,0.01 0.123,-0.004C0.095,-0.019 0.074,-0.039 0.058,-0.065C0.043,-0.091 0.036,-0.12 0.036,-0.154C0.036,-0.193 0.046,-0.226 0.067,-0.254C0.088,-0.282 0.118,-0.303 0.158,-0.317C0.198,-0.332 0.245,-0.339 0.301,-0.339L0.374,-0.339L0.374,-0.359C0.374,-0.415 0.338,-0.443 0.267,-0.443C0.249,-0.443 0.226,-0.441 0.198,-0.435C0.171,-0.43 0.144,-0.423 0.117,-0.414L0.08,-0.522C0.114,-0.535 0.15,-0.545 0.188,-0.552C0.226,-0.559 0.261,-0.563 0.292,-0.563C0.372,-0.563 0.432,-0.546 0.471,-0.514C0.511,-0.481 0.53,-0.434 0.53,-0.37L0.53,-0.157ZM0.276,-0.098C0.294,-0.098 0.313,-0.104 0.332,-0.115C0.351,-0.125 0.365,-0.14 0.374,-0.158L0.374,-0.247L0.334,-0.247C0.29,-0.247 0.257,-0.24 0.235,-0.226C0.214,-0.212 0.203,-0.192 0.203,-0.165C0.203,-0.144 0.209,-0.128 0.222,-0.116C0.235,-0.104 0.253,-0.098 0.276,-0.098Z" style="fill:rgb(242,13,13);fill-rule:nonzero;"/>
            </g>
            <g transform="matrix(41.8814,0,0,41.8814,1403.93,433)">
                <path d="M0.488,-0.561C0.52,-0.561 0.55,-0.556 0.577,-0.545L0.547,-0.317L0.446,-0.317L0.446,-0.417C0.416,-0.412 0.389,-0.396 0.366,-0.368C0.342,-0.341 0.324,-0.306 0.311,-0.265L0.311,-0.109L0.418,-0.109L0.418,-0L0.077,-0L0.077,-0.109L0.149,-0.109L0.149,-0.437L0.077,-0.437L0.077,-0.545L0.272,-0.545L0.302,-0.422C0.322,-0.469 0.346,-0.504 0.377,-0.527C0.407,-0.55 0.444,-0.561 0.488,-0.561Z" style="fill:rgb(242,13,13);fill-rule:nonzero;"/>
            </g>
            <g transform="matrix(41.8814,0,0,41.8814,1429.7,433)">
                <path d="M0.593,-0.513C0.575,-0.505 0.552,-0.5 0.527,-0.496C0.501,-0.493 0.471,-0.491 0.436,-0.491C0.472,-0.476 0.498,-0.458 0.515,-0.436C0.533,-0.414 0.542,-0.385 0.542,-0.351C0.542,-0.316 0.532,-0.285 0.513,-0.257C0.494,-0.229 0.467,-0.208 0.432,-0.192C0.397,-0.176 0.357,-0.169 0.311,-0.169C0.288,-0.169 0.267,-0.171 0.248,-0.175C0.242,-0.172 0.237,-0.167 0.234,-0.162C0.231,-0.156 0.23,-0.15 0.23,-0.144C0.23,-0.133 0.234,-0.125 0.242,-0.119C0.25,-0.113 0.266,-0.11 0.29,-0.11L0.379,-0.11C0.42,-0.11 0.457,-0.104 0.488,-0.09C0.52,-0.076 0.544,-0.058 0.561,-0.034C0.578,-0.01 0.587,0.017 0.587,0.047C0.587,0.085 0.576,0.117 0.554,0.144C0.532,0.171 0.499,0.191 0.456,0.206C0.412,0.22 0.359,0.227 0.295,0.227C0.228,0.227 0.175,0.22 0.136,0.206C0.098,0.193 0.071,0.173 0.055,0.148C0.04,0.122 0.032,0.091 0.032,0.052L0.175,0.052C0.175,0.069 0.179,0.082 0.185,0.092C0.192,0.102 0.204,0.109 0.222,0.114C0.24,0.118 0.266,0.121 0.299,0.121C0.347,0.121 0.38,0.115 0.398,0.104C0.417,0.094 0.426,0.078 0.426,0.058C0.426,0.042 0.419,0.029 0.406,0.019C0.393,0.009 0.373,0.005 0.347,0.005L0.26,0.005C0.222,0.005 0.191,-0 0.166,-0.01C0.14,-0.02 0.122,-0.033 0.11,-0.049C0.098,-0.066 0.092,-0.084 0.092,-0.104C0.092,-0.124 0.097,-0.143 0.108,-0.162C0.119,-0.18 0.134,-0.195 0.153,-0.207C0.119,-0.225 0.094,-0.247 0.079,-0.272C0.064,-0.297 0.056,-0.327 0.056,-0.363C0.056,-0.403 0.066,-0.438 0.087,-0.468C0.108,-0.498 0.136,-0.521 0.173,-0.537C0.21,-0.554 0.252,-0.562 0.299,-0.562C0.338,-0.561 0.372,-0.564 0.402,-0.569C0.432,-0.575 0.459,-0.584 0.482,-0.594C0.504,-0.604 0.529,-0.616 0.555,-0.632L0.593,-0.513ZM0.304,-0.456C0.278,-0.456 0.258,-0.448 0.243,-0.432C0.228,-0.416 0.22,-0.394 0.22,-0.365C0.22,-0.336 0.228,-0.313 0.243,-0.296C0.258,-0.28 0.278,-0.272 0.304,-0.272C0.331,-0.272 0.351,-0.28 0.365,-0.296C0.38,-0.312 0.387,-0.336 0.387,-0.367C0.387,-0.397 0.38,-0.42 0.366,-0.434C0.352,-0.449 0.331,-0.456 0.304,-0.456Z" style="fill:rgb(242,13,13);fill-rule:nonzero;"/>
            </g>
            <g transform="matrix(41.8814,0,0,41.8814,1455.47,433)">
                <path d="M0.267,-0.474L0.152,-0.474L0.132,-0.761L0.286,-0.761L0.267,-0.474ZM0.464,-0.474L0.348,-0.474L0.329,-0.761L0.483,-0.761L0.464,-0.474Z" style="fill:rgb(242,13,13);fill-rule:nonzero;"/>
            </g>
        </g>
        <g transform="matrix(0.555137,0,0,0.555137,164.506,163.525)">
            <rect x="595" y="396.23" width="903" height="71.77" style="fill:none;stroke:black;stroke-width:1.8px;"/>
        </g>
        <g transform="matrix(0.555137,0,0,0.555137,164.506,258.311)">
            <rect x="595" y="396.23" width="903" height="71.77" style="fill:none;stroke:black;stroke-width:1.8px;"/>
        </g>
        <g transform="matrix(0.555137,0,0,0.555137,166.727,170.599)">
            <path d="M797,383.488L797,626" style="fill:none;stroke:black;stroke-width:1.8px;stroke-dasharray:5.4,7.21,0,0,0,0;"/>
        </g>
        <g transform="matrix(0.555137,0,0,0.555137,162.286,170.599)">
            <path d="M960,383.488L960,626" style="fill:none;stroke:black;stroke-width:1.8px;stroke-dasharray:5.4,7.21,0,0,0,0;"/>
        </g>
        <g transform="matrix(0.555137,0,0,0.555137,166.727,170.599)">
            <path d="M1081,383.488L1081,626" style="fill:none;stroke:black;stroke-width:1.8px;stroke-dasharray:5.4,7.21,0,0,0,0;"/>
        </g>
        <g transform="matrix(0.555137,0,0,0.555137,166.727,170.599)">
            <path d="M1161,383.488L1161,626" style="fill:none;stroke:black;stroke-width:1.8px;stroke-dasharray:5.4,7.21,0,0,0,0;"/>
        </g>
        <g transform="matrix(0.555137,0,0,0.555137,166.727,170.599)">
            <g transform="matrix(20,0,0,20,634,597.388)">
                <path d="M0.25,0.013C0.2,0.013 0.16,0.004 0.13,-0.015C0.101,-0.033 0.075,-0.065 0.051,-0.111L0.134,-0.179C0.146,-0.151 0.156,-0.131 0.165,-0.118C0.174,-0.105 0.185,-0.097 0.197,-0.091C0.21,-0.086 0.228,-0.084 0.25,-0.084C0.292,-0.084 0.323,-0.086 0.345,-0.091C0.366,-0.096 0.38,-0.104 0.388,-0.115C0.396,-0.126 0.4,-0.142 0.4,-0.164C0.4,-0.185 0.397,-0.2 0.39,-0.21C0.384,-0.22 0.373,-0.227 0.356,-0.232C0.34,-0.237 0.312,-0.242 0.274,-0.246C0.2,-0.255 0.147,-0.272 0.115,-0.295C0.082,-0.318 0.065,-0.355 0.065,-0.405C0.065,-0.446 0.073,-0.479 0.088,-0.503C0.103,-0.528 0.128,-0.546 0.161,-0.557C0.194,-0.569 0.239,-0.575 0.295,-0.575C0.349,-0.575 0.39,-0.567 0.42,-0.551C0.45,-0.535 0.477,-0.507 0.501,-0.467L0.425,-0.393C0.411,-0.418 0.4,-0.436 0.39,-0.447C0.38,-0.459 0.368,-0.467 0.355,-0.471C0.341,-0.476 0.321,-0.478 0.295,-0.478C0.261,-0.478 0.235,-0.476 0.217,-0.472C0.199,-0.468 0.187,-0.46 0.18,-0.45C0.173,-0.44 0.17,-0.425 0.17,-0.405C0.17,-0.391 0.174,-0.38 0.181,-0.373C0.188,-0.365 0.199,-0.36 0.214,-0.356C0.228,-0.353 0.251,-0.349 0.281,-0.345C0.338,-0.336 0.383,-0.326 0.415,-0.313C0.447,-0.301 0.47,-0.283 0.484,-0.26C0.498,-0.236 0.505,-0.204 0.505,-0.164C0.505,-0.121 0.497,-0.087 0.48,-0.061C0.464,-0.036 0.437,-0.017 0.4,-0.005C0.362,0.007 0.312,0.013 0.25,0.013Z" style="fill-rule:nonzero;"/>
            </g>
            <g transform="matrix(20,0,0,20,644.909,597.388)">
                <path d="M0.122,0.178C0.098,0.178 0.077,0.175 0.06,0.169C0.043,0.163 0.024,0.153 0.004,0.138L0.045,0.05C0.068,0.064 0.084,0.073 0.093,0.076C0.101,0.08 0.111,0.082 0.122,0.082C0.144,0.082 0.161,0.079 0.175,0.073C0.188,0.067 0.2,0.056 0.21,0.041C0.22,0.027 0.229,0.005 0.239,-0.025L0.051,-0.562L0.16,-0.562L0.295,-0.162L0.431,-0.562L0.541,-0.562L0.345,-0.017C0.328,0.032 0.309,0.071 0.29,0.099C0.271,0.127 0.248,0.147 0.221,0.16C0.195,0.172 0.162,0.178 0.122,0.178Z" style="fill-rule:nonzero;"/>
            </g>
            <g transform="matrix(20,0,0,20,655.818,597.388)">
                <path d="M0.25,0.013C0.2,0.013 0.16,0.004 0.13,-0.015C0.101,-0.033 0.075,-0.065 0.051,-0.111L0.134,-0.179C0.146,-0.151 0.156,-0.131 0.165,-0.118C0.174,-0.105 0.185,-0.097 0.197,-0.091C0.21,-0.086 0.228,-0.084 0.25,-0.084C0.292,-0.084 0.323,-0.086 0.345,-0.091C0.366,-0.096 0.38,-0.104 0.388,-0.115C0.396,-0.126 0.4,-0.142 0.4,-0.164C0.4,-0.185 0.397,-0.2 0.39,-0.21C0.384,-0.22 0.373,-0.227 0.356,-0.232C0.34,-0.237 0.312,-0.242 0.274,-0.246C0.2,-0.255 0.147,-0.272 0.115,-0.295C0.082,-0.318 0.065,-0.355 0.065,-0.405C0.065,-0.446 0.073,-0.479 0.088,-0.503C0.103,-0.528 0.128,-0.546 0.161,-0.557C0.194,-0.569 0.239,-0.575 0.295,-0.575C0.349,-0.575 0.39,-0.567 0.42,-0.551C0.45,-0.535 0.477,-0.507 0.501,-0.467L0.425,-0.393C0.411,-0.418 0.4,-0.436 0.39,-0.447C0.38,-0.459 0.368,-0.467 0.355,-0.471C0.341,-0.476 0.321,-0.478 0.295,-0.478C0.261,-0.478 0.235,-0.476 0.217,-0.472C0.199,-0.468 0.187,-0.46 0.18,-0.45C0.173,-0.44 0.17,-0.425 0.17,-0.405C0.17,-0.391 0.174,-0.38 0.181,-0.373C0.188,-0.365 0.199,-0.36 0.214,-0.356C0.228,-0.353 0.251,-0.349 0.281,-0.345C0.338,-0.336 0.383,-0.326 0.415,-0.313C0.447,-0.301 0.47,-0.283 0.484,-0.26C0.498,-0.236 0.505,-0.204 0.505,-0.164C0.505,-0.121 0.497,-0.087 0.48,-0.061C0.464,-0.036 0.437,-0.017 0.4,-0.005C0.362,0.007 0.312,0.013 0.25,0.013Z" style="fill-rule:nonzero;"/>
            </g>
            <g transform="matrix(20,0,0,20,666.727,597.388)">
                <path d="M0.273,0.013C0.241,0.013 0.22,0.007 0.208,-0.004C0.196,-0.015 0.19,-0.035 0.19,-0.064C0.19,-0.093 0.196,-0.113 0.208,-0.124C0.22,-0.135 0.241,-0.141 0.273,-0.141C0.304,-0.141 0.326,-0.135 0.338,-0.124C0.35,-0.113 0.355,-0.093 0.355,-0.064C0.355,-0.035 0.35,-0.015 0.338,-0.004C0.326,0.007 0.304,0.013 0.273,0.013Z" style="fill-rule:nonzero;"/>
            </g>
            <g transform="matrix(20,0,0,20,677.636,597.388)">
                <path d="M0.249,0.013C0.196,0.013 0.153,0.007 0.121,-0.005C0.09,-0.018 0.067,-0.037 0.052,-0.062C0.038,-0.088 0.031,-0.122 0.031,-0.165C0.031,-0.214 0.038,-0.251 0.052,-0.278C0.066,-0.304 0.088,-0.323 0.12,-0.333C0.151,-0.344 0.194,-0.349 0.249,-0.349L0.364,-0.349L0.364,-0.369C0.364,-0.395 0.36,-0.414 0.354,-0.428C0.348,-0.442 0.336,-0.452 0.32,-0.458C0.304,-0.463 0.28,-0.466 0.249,-0.466C0.224,-0.466 0.204,-0.464 0.191,-0.459C0.178,-0.453 0.167,-0.444 0.16,-0.431C0.153,-0.418 0.146,-0.397 0.139,-0.37L0.039,-0.395C0.05,-0.438 0.064,-0.472 0.08,-0.498C0.096,-0.524 0.118,-0.543 0.145,-0.556C0.173,-0.568 0.207,-0.575 0.249,-0.575C0.328,-0.575 0.384,-0.558 0.418,-0.524C0.451,-0.49 0.468,-0.439 0.468,-0.369L0.468,-0.156C0.468,-0.132 0.471,-0.115 0.475,-0.107C0.48,-0.099 0.491,-0.095 0.506,-0.095C0.511,-0.095 0.522,-0.096 0.539,-0.097L0.539,-0.001C0.532,-0 0.522,-0 0.509,-0C0.456,-0 0.42,-0.012 0.4,-0.036C0.384,-0.019 0.363,-0.006 0.339,0.001C0.315,0.009 0.285,0.013 0.249,0.013ZM0.249,-0.084C0.28,-0.084 0.304,-0.087 0.32,-0.095C0.336,-0.102 0.348,-0.114 0.354,-0.132C0.36,-0.149 0.364,-0.175 0.364,-0.208L0.364,-0.253L0.249,-0.253C0.215,-0.253 0.19,-0.251 0.175,-0.248C0.161,-0.244 0.151,-0.237 0.145,-0.225C0.138,-0.213 0.135,-0.193 0.135,-0.165C0.135,-0.143 0.138,-0.126 0.145,-0.115C0.151,-0.104 0.162,-0.096 0.178,-0.091C0.194,-0.086 0.218,-0.084 0.249,-0.084Z" style="fill-rule:nonzero;"/>
            </g>
            <g transform="matrix(20,0,0,20,688.545,597.388)">
                <path d="M0.085,-0L0.085,-0.562L0.189,-0.562L0.189,-0.515C0.204,-0.531 0.222,-0.545 0.245,-0.557C0.268,-0.569 0.293,-0.575 0.32,-0.575C0.355,-0.575 0.384,-0.57 0.407,-0.56C0.43,-0.551 0.45,-0.536 0.467,-0.515C0.483,-0.494 0.498,-0.465 0.512,-0.428L0.418,-0.385C0.41,-0.412 0.402,-0.432 0.395,-0.445C0.387,-0.457 0.378,-0.466 0.367,-0.471C0.356,-0.476 0.34,-0.478 0.32,-0.478C0.273,-0.478 0.239,-0.462 0.219,-0.43C0.199,-0.397 0.189,-0.35 0.189,-0.288L0.189,-0L0.085,-0Z" style="fill-rule:nonzero;"/>
            </g>
            <g transform="matrix(20,0,0,20,699.455,597.388)">
                <path d="M0.271,0.178C0.228,0.178 0.195,0.172 0.17,0.161C0.144,0.149 0.119,0.129 0.095,0.099L0.171,0.034C0.188,0.054 0.202,0.067 0.214,0.073C0.226,0.079 0.245,0.082 0.271,0.082C0.302,0.082 0.325,0.078 0.342,0.07C0.358,0.063 0.37,0.05 0.376,0.031C0.383,0.013 0.386,-0.014 0.386,-0.05L0.386,-0.052C0.348,-0.037 0.308,-0.03 0.265,-0.03C0.208,-0.03 0.164,-0.04 0.131,-0.06C0.098,-0.081 0.075,-0.113 0.06,-0.157C0.046,-0.202 0.039,-0.261 0.039,-0.336C0.039,-0.393 0.047,-0.439 0.061,-0.474C0.076,-0.508 0.1,-0.534 0.133,-0.55C0.165,-0.566 0.209,-0.575 0.265,-0.575C0.309,-0.575 0.35,-0.568 0.386,-0.556L0.386,-0.562L0.491,-0.562L0.491,-0.058C0.491,0 0.484,0.046 0.47,0.08C0.455,0.114 0.432,0.139 0.4,0.155C0.369,0.17 0.325,0.178 0.271,0.178ZM0.265,-0.126C0.308,-0.126 0.339,-0.137 0.358,-0.157C0.377,-0.178 0.386,-0.21 0.386,-0.254L0.386,-0.425C0.386,-0.442 0.377,-0.455 0.357,-0.464C0.337,-0.473 0.306,-0.478 0.265,-0.478C0.232,-0.478 0.208,-0.474 0.191,-0.465C0.174,-0.457 0.162,-0.443 0.155,-0.422C0.148,-0.402 0.145,-0.373 0.145,-0.336C0.145,-0.281 0.148,-0.238 0.155,-0.208C0.163,-0.178 0.175,-0.157 0.192,-0.145C0.209,-0.133 0.233,-0.126 0.265,-0.126Z" style="fill-rule:nonzero;"/>
            </g>
            <g transform="matrix(20,0,0,20,710.364,597.388)">
                <path d="M0.319,-0L0.225,-0L0.022,-0.562L0.129,-0.562L0.272,-0.155L0.415,-0.562L0.523,-0.562L0.319,-0Z" style="fill-rule:nonzero;"/>
            </g>
            <g transform="matrix(20,0,0,20,721.273,597.388)">
                <path d="M0.448,-0.859L0.448,-0.763L0.239,-0.763L0.239,0.035L0.448,0.035L0.448,0.132L0.135,0.132L0.135,-0.859L0.448,-0.859Z" style="fill-rule:nonzero;"/>
            </g>
            <g transform="matrix(20,0,0,20,732.182,597.388)">
                <path d="M0.273,0.013C0.228,0.013 0.187,-0.004 0.15,-0.036C0.113,-0.069 0.084,-0.114 0.063,-0.172C0.042,-0.229 0.032,-0.293 0.032,-0.364C0.032,-0.434 0.042,-0.498 0.063,-0.555C0.084,-0.613 0.113,-0.658 0.15,-0.691C0.187,-0.724 0.228,-0.74 0.273,-0.74C0.318,-0.74 0.358,-0.724 0.395,-0.691C0.432,-0.658 0.462,-0.613 0.483,-0.555C0.504,-0.498 0.515,-0.434 0.515,-0.364C0.515,-0.293 0.504,-0.229 0.483,-0.172C0.462,-0.114 0.432,-0.069 0.395,-0.036C0.358,-0.004 0.318,0.013 0.273,0.013ZM0.273,-0.084C0.296,-0.084 0.318,-0.096 0.339,-0.121C0.36,-0.146 0.377,-0.18 0.39,-0.223C0.403,-0.266 0.409,-0.313 0.409,-0.364C0.409,-0.415 0.403,-0.462 0.39,-0.505C0.377,-0.548 0.36,-0.582 0.339,-0.606C0.318,-0.631 0.296,-0.644 0.273,-0.644C0.25,-0.644 0.228,-0.631 0.206,-0.606C0.185,-0.582 0.168,-0.548 0.155,-0.505C0.143,-0.462 0.136,-0.415 0.136,-0.364C0.136,-0.313 0.143,-0.266 0.155,-0.223C0.168,-0.18 0.185,-0.146 0.206,-0.121C0.228,-0.096 0.25,-0.084 0.273,-0.084ZM0.273,-0.294C0.251,-0.294 0.233,-0.3 0.219,-0.313C0.205,-0.326 0.198,-0.343 0.198,-0.364C0.198,-0.384 0.205,-0.4 0.219,-0.413C0.233,-0.425 0.251,-0.432 0.273,-0.432C0.295,-0.432 0.313,-0.425 0.327,-0.413C0.341,-0.4 0.348,-0.384 0.348,-0.364C0.348,-0.343 0.341,-0.326 0.327,-0.313C0.313,-0.3 0.295,-0.294 0.273,-0.294Z" style="fill-rule:nonzero;"/>
            </g>
            <g transform="matrix(20,0,0,20,743.091,597.388)">
                <path d="M0.145,-0.763L0.145,-0.859L0.459,-0.859L0.459,0.132L0.145,0.132L0.145,0.035L0.355,0.035L0.355,-0.763L0.145,-0.763Z" style="fill-rule:nonzero;"/>
            </g>
        </g>
        <g transform="matrix(0.555137,0,0,0.555137,281.085,170.599)">
            <g transform="matrix(20,0,0,20,608.5,597.388)">
                <path d="M0.25,0.013C0.2,0.013 0.16,0.004 0.13,-0.015C0.101,-0.033 0.075,-0.065 0.051,-0.111L0.134,-0.179C0.146,-0.151 0.156,-0.131 0.165,-0.118C0.174,-0.105 0.185,-0.097 0.197,-0.091C0.21,-0.086 0.228,-0.084 0.25,-0.084C0.292,-0.084 0.323,-0.086 0.345,-0.091C0.366,-0.096 0.38,-0.104 0.388,-0.115C0.396,-0.126 0.4,-0.142 0.4,-0.164C0.4,-0.185 0.397,-0.2 0.39,-0.21C0.384,-0.22 0.373,-0.227 0.356,-0.232C0.34,-0.237 0.312,-0.242 0.274,-0.246C0.2,-0.255 0.147,-0.272 0.115,-0.295C0.082,-0.318 0.065,-0.355 0.065,-0.405C0.065,-0.446 0.073,-0.479 0.088,-0.503C0.103,-0.528 0.128,-0.546 0.161,-0.557C0.194,-0.569 0.239,-0.575 0.295,-0.575C0.349,-0.575 0.39,-0.567 0.42,-0.551C0.45,-0.535 0.477,-0.507 0.501,-0.467L0.425,-0.393C0.411,-0.418 0.4,-0.436 0.39,-0.447C0.38,-0.459 0.368,-0.467 0.355,-0.471C0.341,-0.476 0.321,-0.478 0.295,-0.478C0.261,-0.478 0.235,-0.476 0.217,-0.472C0.199,-0.468 0.187,-0.46 0.18,-0.45C0.173,-0.44 0.17,-0.425 0.17,-0.405C0.17,-0.391 0.174,-0.38 0.181,-0.373C0.188,-0.365 0.199,-0.36 0.214,-0.356C0.228,-0.353 0.251,-0.349 0.281,-0.345C0.338,-0.336 0.383,-0.326 0.415,-0.313C0.447,-0.301 0.47,-0.283 0.484,-0.26C0.498,-0.236 0.505,-0.204 0.505,-0.164C0.505,-0.121 0.497,-0.087 0.48,-0.061C0.464,-0.036 0.437,-0.017 0.4,-0.005C0.362,0.007 0.312,0.013 0.25,0.013Z" style="fill:rgb(64,191,79);fill-rule:nonzero;"/>
            </g>
            <g transform="matrix(20,0,0,20,619.409,597.388)">
                <path d="M0.122,0.178C0.098,0.178 0.077,0.175 0.06,0.169C0.043,0.163 0.024,0.153 0.004,0.138L0.045,0.05C0.068,0.064 0.084,0.073 0.093,0.076C0.101,0.08 0.111,0.082 0.122,0.082C0.144,0.082 0.161,0.079 0.175,0.073C0.188,0.067 0.2,0.056 0.21,0.041C0.22,0.027 0.229,0.005 0.239,-0.025L0.051,-0.562L0.16,-0.562L0.295,-0.162L0.431,-0.562L0.541,-0.562L0.345,-0.017C0.328,0.032 0.309,0.071 0.29,0.099C0.271,0.127 0.248,0.147 0.221,0.16C0.195,0.172 0.162,0.178 0.122,0.178Z" style="fill:rgb(64,191,79);fill-rule:nonzero;"/>
            </g>
            <g transform="matrix(20,0,0,20,630.318,597.388)">
                <path d="M0.25,0.013C0.2,0.013 0.16,0.004 0.13,-0.015C0.101,-0.033 0.075,-0.065 0.051,-0.111L0.134,-0.179C0.146,-0.151 0.156,-0.131 0.165,-0.118C0.174,-0.105 0.185,-0.097 0.197,-0.091C0.21,-0.086 0.228,-0.084 0.25,-0.084C0.292,-0.084 0.323,-0.086 0.345,-0.091C0.366,-0.096 0.38,-0.104 0.388,-0.115C0.396,-0.126 0.4,-0.142 0.4,-0.164C0.4,-0.185 0.397,-0.2 0.39,-0.21C0.384,-0.22 0.373,-0.227 0.356,-0.232C0.34,-0.237 0.312,-0.242 0.274,-0.246C0.2,-0.255 0.147,-0.272 0.115,-0.295C0.082,-0.318 0.065,-0.355 0.065,-0.405C0.065,-0.446 0.073,-0.479 0.088,-0.503C0.103,-0.528 0.128,-0.546 0.161,-0.557C0.194,-0.569 0.239,-0.575 0.295,-0.575C0.349,-0.575 0.39,-0.567 0.42,-0.551C0.45,-0.535 0.477,-0.507 0.501,-0.467L0.425,-0.393C0.411,-0.418 0.4,-0.436 0.39,-0.447C0.38,-0.459 0.368,-0.467 0.355,-0.471C0.341,-0.476 0.321,-0.478 0.295,-0.478C0.261,-0.478 0.235,-0.476 0.217,-0.472C0.199,-0.468 0.187,-0.46 0.18,-0.45C0.173,-0.44 0.17,-0.425 0.17,-0.405C0.17,-0.391 0.174,-0.38 0.181,-0.373C0.188,-0.365 0.199,-0.36 0.214,-0.356C0.228,-0.353 0.251,-0.349 0.281,-0.345C0.338,-0.336 0.383,-0.326 0.415,-0.313C0.447,-0.301 0.47,-0.283 0.484,-0.26C0.498,-0.236 0.505,-0.204 0.505,-0.164C0.505,-0.121 0.497,-0.087 0.48,-0.061C0.464,-0.036 0.437,-0.017 0.4,-0.005C0.362,0.007 0.312,0.013 0.25,0.013Z" style="fill:rgb(64,191,79);fill-rule:nonzero;"/>
            </g>
            <g transform="matrix(20,0,0,20,641.227,597.388)">
                <path d="M0.273,0.013C0.241,0.013 0.22,0.007 0.208,-0.004C0.196,-0.015 0.19,-0.035 0.19,-0.064C0.19,-0.093 0.196,-0.113 0.208,-0.124C0.22,-0.135 0.241,-0.141 0.273,-0.141C0.304,-0.141 0.326,-0.135 0.338,-0.124C0.35,-0.113 0.355,-0.093 0.355,-0.064C0.355,-0.035 0.35,-0.015 0.338,-0.004C0.326,0.007 0.304,0.013 0.273,0.013Z" style="fill:rgb(64,191,79);fill-rule:nonzero;"/>
            </g>
            <g transform="matrix(20,0,0,20,652.136,597.388)">
                <path d="M0.249,0.013C0.196,0.013 0.153,0.007 0.121,-0.005C0.09,-0.018 0.067,-0.037 0.052,-0.062C0.038,-0.088 0.031,-0.122 0.031,-0.165C0.031,-0.214 0.038,-0.251 0.052,-0.278C0.066,-0.304 0.088,-0.323 0.12,-0.333C0.151,-0.344 0.194,-0.349 0.249,-0.349L0.364,-0.349L0.364,-0.369C0.364,-0.395 0.36,-0.414 0.354,-0.428C0.348,-0.442 0.336,-0.452 0.32,-0.458C0.304,-0.463 0.28,-0.466 0.249,-0.466C0.224,-0.466 0.204,-0.464 0.191,-0.459C0.178,-0.453 0.167,-0.444 0.16,-0.431C0.153,-0.418 0.146,-0.397 0.139,-0.37L0.039,-0.395C0.05,-0.438 0.064,-0.472 0.08,-0.498C0.096,-0.524 0.118,-0.543 0.145,-0.556C0.173,-0.568 0.207,-0.575 0.249,-0.575C0.328,-0.575 0.384,-0.558 0.418,-0.524C0.451,-0.49 0.468,-0.439 0.468,-0.369L0.468,-0.156C0.468,-0.132 0.471,-0.115 0.475,-0.107C0.48,-0.099 0.491,-0.095 0.506,-0.095C0.511,-0.095 0.522,-0.096 0.539,-0.097L0.539,-0.001C0.532,-0 0.522,-0 0.509,-0C0.456,-0 0.42,-0.012 0.4,-0.036C0.384,-0.019 0.363,-0.006 0.339,0.001C0.315,0.009 0.285,0.013 0.249,0.013ZM0.249,-0.084C0.28,-0.084 0.304,-0.087 0.32,-0.095C0.336,-0.102 0.348,-0.114 0.354,-0.132C0.36,-0.149 0.364,-0.175 0.364,-0.208L0.364,-0.253L0.249,-0.253C0.215,-0.253 0.19,-0.251 0.175,-0.248C0.161,-0.244 0.151,-0.237 0.145,-0.225C0.138,-0.213 0.135,-0.193 0.135,-0.165C0.135,-0.143 0.138,-0.126 0.145,-0.115C0.151,-0.104 0.162,-0.096 0.178,-0.091C0.194,-0.086 0.218,-0.084 0.249,-0.084Z" style="fill:rgb(64,191,79);fill-rule:nonzero;"/>
            </g>
            <g transform="matrix(20,0,0,20,663.045,597.388)">
                <path d="M0.085,-0L0.085,-0.562L0.189,-0.562L0.189,-0.515C0.204,-0.531 0.222,-0.545 0.245,-0.557C0.268,-0.569 0.293,-0.575 0.32,-0.575C0.355,-0.575 0.384,-0.57 0.407,-0.56C0.43,-0.551 0.45,-0.536 0.467,-0.515C0.483,-0.494 0.498,-0.465 0.512,-0.428L0.418,-0.385C0.41,-0.412 0.402,-0.432 0.395,-0.445C0.387,-0.457 0.378,-0.466 0.367,-0.471C0.356,-0.476 0.34,-0.478 0.32,-0.478C0.273,-0.478 0.239,-0.462 0.219,-0.43C0.199,-0.397 0.189,-0.35 0.189,-0.288L0.189,-0L0.085,-0Z" style="fill:rgb(64,191,79);fill-rule:nonzero;"/>
            </g>
            <g transform="matrix(20,0,0,20,673.955,597.388)">
                <path d="M0.271,0.178C0.228,0.178 0.195,0.172 0.17,0.161C0.144,0.149 0.119,0.129 0.095,0.099L0.171,0.034C0.188,0.054 0.202,0.067 0.214,0.073C0.226,0.079 0.245,0.082 0.271,0.082C0.302,0.082 0.325,0.078 0.342,0.07C0.358,0.063 0.37,0.05 0.376,0.031C0.383,0.013 0.386,-0.014 0.386,-0.05L0.386,-0.052C0.348,-0.037 0.308,-0.03 0.265,-0.03C0.208,-0.03 0.164,-0.04 0.131,-0.06C0.098,-0.081 0.075,-0.113 0.06,-0.157C0.046,-0.202 0.039,-0.261 0.039,-0.336C0.039,-0.393 0.047,-0.439 0.061,-0.474C0.076,-0.508 0.1,-0.534 0.133,-0.55C0.165,-0.566 0.209,-0.575 0.265,-0.575C0.309,-0.575 0.35,-0.568 0.386,-0.556L0.386,-0.562L0.491,-0.562L0.491,-0.058C0.491,0 0.484,0.046 0.47,0.08C0.455,0.114 0.432,0.139 0.4,0.155C0.369,0.17 0.325,0.178 0.271,0.178ZM0.265,-0.126C0.308,-0.126 0.339,-0.137 0.358,-0.157C0.377,-0.178 0.386,-0.21 0.386,-0.254L0.386,-0.425C0.386,-0.442 0.377,-0.455 0.357,-0.464C0.337,-0.473 0.306,-0.478 0.265,-0.478C0.232,-0.478 0.208,-0.474 0.191,-0.465C0.174,-0.457 0.162,-0.443 0.155,-0.422C0.148,-0.402 0.145,-0.373 0.145,-0.336C0.145,-0.281 0.148,-0.238 0.155,-0.208C0.163,-0.178 0.175,-0.157 0.192,-0.145C0.209,-0.133 0.233,-0.126 0.265,-0.126Z" style="fill:rgb(64,191,79);fill-rule:nonzero;"/>
            </g>
            <g transform="matrix(20,0,0,20,684.864,597.388)">
                <path d="M0.319,-0L0.225,-0L0.022,-0.562L0.129,-0.562L0.272,-0.155L0.415,-0.562L0.523,-0.562L0.319,-0Z" style="fill:rgb(64,191,79);fill-rule:nonzero;"/>
            </g>
            <g transform="matrix(20,0,0,20,695.773,597.388)">
                <path d="M0.448,-0.859L0.448,-0.763L0.239,-0.763L0.239,0.035L0.448,0.035L0.448,0.132L0.135,0.132L0.135,-0.859L0.448,-0.859Z" style="fill:rgb(64,191,79);fill-rule:nonzero;"/>
            </g>
            <g transform="matrix(20,0,0,20,706.682,597.388)">
                <path d="M0.325,-0.096L0.455,-0.096L0.455,-0L0.092,-0L0.092,-0.096L0.221,-0.096L0.221,-0.525C0.18,-0.501 0.131,-0.489 0.074,-0.489L0.074,-0.586C0.123,-0.586 0.159,-0.598 0.183,-0.62C0.207,-0.643 0.219,-0.679 0.219,-0.727L0.325,-0.727L0.325,-0.096Z" style="fill:rgb(64,191,79);fill-rule:nonzero;"/>
            </g>
            <g transform="matrix(20,0,0,20,717.591,597.388)">
                <path d="M0.145,-0.763L0.145,-0.859L0.459,-0.859L0.459,0.132L0.145,0.132L0.145,0.035L0.355,0.035L0.355,-0.763L0.145,-0.763Z" style="fill:rgb(64,191,79);fill-rule:nonzero;"/>
            </g>
        </g>
        <g transform="matrix(0.555137,0,0,0.555137,367.131,170.599)">
            <g transform="matrix(20,0,0,20,595.5,597.388)">
                <path d="M0.25,0.013C0.2,0.013 0.16,0.004 0.13,-0.015C0.101,-0.033 0.075,-0.065 0.051,-0.111L0.134,-0.179C0.146,-0.151 0.156,-0.131 0.165,-0.118C0.174,-0.105 0.185,-0.097 0.197,-0.091C0.21,-0.086 0.228,-0.084 0.25,-0.084C0.292,-0.084 0.323,-0.086 0.345,-0.091C0.366,-0.096 0.38,-0.104 0.388,-0.115C0.396,-0.126 0.4,-0.142 0.4,-0.164C0.4,-0.185 0.397,-0.2 0.39,-0.21C0.384,-0.22 0.373,-0.227 0.356,-0.232C0.34,-0.237 0.312,-0.242 0.274,-0.246C0.2,-0.255 0.147,-0.272 0.115,-0.295C0.082,-0.318 0.065,-0.355 0.065,-0.405C0.065,-0.446 0.073,-0.479 0.088,-0.503C0.103,-0.528 0.128,-0.546 0.161,-0.557C0.194,-0.569 0.239,-0.575 0.295,-0.575C0.349,-0.575 0.39,-0.567 0.42,-0.551C0.45,-0.535 0.477,-0.507 0.501,-0.467L0.425,-0.393C0.411,-0.418 0.4,-0.436 0.39,-0.447C0.38,-0.459 0.368,-0.467 0.355,-0.471C0.341,-0.476 0.321,-0.478 0.295,-0.478C0.261,-0.478 0.235,-0.476 0.217,-0.472C0.199,-0.468 0.187,-0.46 0.18,-0.45C0.173,-0.44 0.17,-0.425 0.17,-0.405C0.17,-0.391 0.174,-0.38 0.181,-0.373C0.188,-0.365 0.199,-0.36 0.214,-0.356C0.228,-0.353 0.251,-0.349 0.281,-0.345C0.338,-0.336 0.383,-0.326 0.415,-0.313C0.447,-0.301 0.47,-0.283 0.484,-0.26C0.498,-0.236 0.505,-0.204 0.505,-0.164C0.505,-0.121 0.497,-0.087 0.48,-0.061C0.464,-0.036 0.437,-0.017 0.4,-0.005C0.362,0.007 0.312,0.013 0.25,0.013Z" style="fill:rgb(165,14,195);fill-rule:nonzero;"/>
            </g>
            <g transform="matrix(20,0,0,20,606.409,597.388)">
                <path d="M0.122,0.178C0.098,0.178 0.077,0.175 0.06,0.169C0.043,0.163 0.024,0.153 0.004,0.138L0.045,0.05C0.068,0.064 0.084,0.073 0.093,0.076C0.101,0.08 0.111,0.082 0.122,0.082C0.144,0.082 0.161,0.079 0.175,0.073C0.188,0.067 0.2,0.056 0.21,0.041C0.22,0.027 0.229,0.005 0.239,-0.025L0.051,-0.562L0.16,-0.562L0.295,-0.162L0.431,-0.562L0.541,-0.562L0.345,-0.017C0.328,0.032 0.309,0.071 0.29,0.099C0.271,0.127 0.248,0.147 0.221,0.16C0.195,0.172 0.162,0.178 0.122,0.178Z" style="fill:rgb(165,14,195);fill-rule:nonzero;"/>
            </g>
            <g transform="matrix(20,0,0,20,617.318,597.388)">
                <path d="M0.25,0.013C0.2,0.013 0.16,0.004 0.13,-0.015C0.101,-0.033 0.075,-0.065 0.051,-0.111L0.134,-0.179C0.146,-0.151 0.156,-0.131 0.165,-0.118C0.174,-0.105 0.185,-0.097 0.197,-0.091C0.21,-0.086 0.228,-0.084 0.25,-0.084C0.292,-0.084 0.323,-0.086 0.345,-0.091C0.366,-0.096 0.38,-0.104 0.388,-0.115C0.396,-0.126 0.4,-0.142 0.4,-0.164C0.4,-0.185 0.397,-0.2 0.39,-0.21C0.384,-0.22 0.373,-0.227 0.356,-0.232C0.34,-0.237 0.312,-0.242 0.274,-0.246C0.2,-0.255 0.147,-0.272 0.115,-0.295C0.082,-0.318 0.065,-0.355 0.065,-0.405C0.065,-0.446 0.073,-0.479 0.088,-0.503C0.103,-0.528 0.128,-0.546 0.161,-0.557C0.194,-0.569 0.239,-0.575 0.295,-0.575C0.349,-0.575 0.39,-0.567 0.42,-0.551C0.45,-0.535 0.477,-0.507 0.501,-0.467L0.425,-0.393C0.411,-0.418 0.4,-0.436 0.39,-0.447C0.38,-0.459 0.368,-0.467 0.355,-0.471C0.341,-0.476 0.321,-0.478 0.295,-0.478C0.261,-0.478 0.235,-0.476 0.217,-0.472C0.199,-0.468 0.187,-0.46 0.18,-0.45C0.173,-0.44 0.17,-0.425 0.17,-0.405C0.17,-0.391 0.174,-0.38 0.181,-0.373C0.188,-0.365 0.199,-0.36 0.214,-0.356C0.228,-0.353 0.251,-0.349 0.281,-0.345C0.338,-0.336 0.383,-0.326 0.415,-0.313C0.447,-0.301 0.47,-0.283 0.484,-0.26C0.498,-0.236 0.505,-0.204 0.505,-0.164C0.505,-0.121 0.497,-0.087 0.48,-0.061C0.464,-0.036 0.437,-0.017 0.4,-0.005C0.362,0.007 0.312,0.013 0.25,0.013Z" style="fill:rgb(165,14,195);fill-rule:nonzero;"/>
            </g>
            <g transform="matrix(20,0,0,20,628.227,597.388)">
                <path d="M0.273,0.013C0.241,0.013 0.22,0.007 0.208,-0.004C0.196,-0.015 0.19,-0.035 0.19,-0.064C0.19,-0.093 0.196,-0.113 0.208,-0.124C0.22,-0.135 0.241,-0.141 0.273,-0.141C0.304,-0.141 0.326,-0.135 0.338,-0.124C0.35,-0.113 0.355,-0.093 0.355,-0.064C0.355,-0.035 0.35,-0.015 0.338,-0.004C0.326,0.007 0.304,0.013 0.273,0.013Z" style="fill:rgb(165,14,195);fill-rule:nonzero;"/>
            </g>
            <g transform="matrix(20,0,0,20,639.136,597.388)">
                <path d="M0.249,0.013C0.196,0.013 0.153,0.007 0.121,-0.005C0.09,-0.018 0.067,-0.037 0.052,-0.062C0.038,-0.088 0.031,-0.122 0.031,-0.165C0.031,-0.214 0.038,-0.251 0.052,-0.278C0.066,-0.304 0.088,-0.323 0.12,-0.333C0.151,-0.344 0.194,-0.349 0.249,-0.349L0.364,-0.349L0.364,-0.369C0.364,-0.395 0.36,-0.414 0.354,-0.428C0.348,-0.442 0.336,-0.452 0.32,-0.458C0.304,-0.463 0.28,-0.466 0.249,-0.466C0.224,-0.466 0.204,-0.464 0.191,-0.459C0.178,-0.453 0.167,-0.444 0.16,-0.431C0.153,-0.418 0.146,-0.397 0.139,-0.37L0.039,-0.395C0.05,-0.438 0.064,-0.472 0.08,-0.498C0.096,-0.524 0.118,-0.543 0.145,-0.556C0.173,-0.568 0.207,-0.575 0.249,-0.575C0.328,-0.575 0.384,-0.558 0.418,-0.524C0.451,-0.49 0.468,-0.439 0.468,-0.369L0.468,-0.156C0.468,-0.132 0.471,-0.115 0.475,-0.107C0.48,-0.099 0.491,-0.095 0.506,-0.095C0.511,-0.095 0.522,-0.096 0.539,-0.097L0.539,-0.001C0.532,-0 0.522,-0 0.509,-0C0.456,-0 0.42,-0.012 0.4,-0.036C0.384,-0.019 0.363,-0.006 0.339,0.001C0.315,0.009 0.285,0.013 0.249,0.013ZM0.249,-0.084C0.28,-0.084 0.304,-0.087 0.32,-0.095C0.336,-0.102 0.348,-0.114 0.354,-0.132C0.36,-0.149 0.364,-0.175 0.364,-0.208L0.364,-0.253L0.249,-0.253C0.215,-0.253 0.19,-0.251 0.175,-0.248C0.161,-0.244 0.151,-0.237 0.145,-0.225C0.138,-0.213 0.135,-0.193 0.135,-0.165C0.135,-0.143 0.138,-0.126 0.145,-0.115C0.151,-0.104 0.162,-0.096 0.178,-0.091C0.194,-0.086 0.218,-0.084 0.249,-0.084Z" style="fill:rgb(165,14,195);fill-rule:nonzero;"/>
            </g>
            <g transform="matrix(20,0,0,20,650.045,597.388)">
                <path d="M0.085,-0L0.085,-0.562L0.189,-0.562L0.189,-0.515C0.204,-0.531 0.222,-0.545 0.245,-0.557C0.268,-0.569 0.293,-0.575 0.32,-0.575C0.355,-0.575 0.384,-0.57 0.407,-0.56C0.43,-0.551 0.45,-0.536 0.467,-0.515C0.483,-0.494 0.498,-0.465 0.512,-0.428L0.418,-0.385C0.41,-0.412 0.402,-0.432 0.395,-0.445C0.387,-0.457 0.378,-0.466 0.367,-0.471C0.356,-0.476 0.34,-0.478 0.32,-0.478C0.273,-0.478 0.239,-0.462 0.219,-0.43C0.199,-0.397 0.189,-0.35 0.189,-0.288L0.189,-0L0.085,-0Z" style="fill:rgb(165,14,195);fill-rule:nonzero;"/>
            </g>
            <g transform="matrix(20,0,0,20,660.955,597.388)">
                <path d="M0.271,0.178C0.228,0.178 0.195,0.172 0.17,0.161C0.144,0.149 0.119,0.129 0.095,0.099L0.171,0.034C0.188,0.054 0.202,0.067 0.214,0.073C0.226,0.079 0.245,0.082 0.271,0.082C0.302,0.082 0.325,0.078 0.342,0.07C0.358,0.063 0.37,0.05 0.376,0.031C0.383,0.013 0.386,-0.014 0.386,-0.05L0.386,-0.052C0.348,-0.037 0.308,-0.03 0.265,-0.03C0.208,-0.03 0.164,-0.04 0.131,-0.06C0.098,-0.081 0.075,-0.113 0.06,-0.157C0.046,-0.202 0.039,-0.261 0.039,-0.336C0.039,-0.393 0.047,-0.439 0.061,-0.474C0.076,-0.508 0.1,-0.534 0.133,-0.55C0.165,-0.566 0.209,-0.575 0.265,-0.575C0.309,-0.575 0.35,-0.568 0.386,-0.556L0.386,-0.562L0.491,-0.562L0.491,-0.058C0.491,0 0.484,0.046 0.47,0.08C0.455,0.114 0.432,0.139 0.4,0.155C0.369,0.17 0.325,0.178 0.271,0.178ZM0.265,-0.126C0.308,-0.126 0.339,-0.137 0.358,-0.157C0.377,-0.178 0.386,-0.21 0.386,-0.254L0.386,-0.425C0.386,-0.442 0.377,-0.455 0.357,-0.464C0.337,-0.473 0.306,-0.478 0.265,-0.478C0.232,-0.478 0.208,-0.474 0.191,-0.465C0.174,-0.457 0.162,-0.443 0.155,-0.422C0.148,-0.402 0.145,-0.373 0.145,-0.336C0.145,-0.281 0.148,-0.238 0.155,-0.208C0.163,-0.178 0.175,-0.157 0.192,-0.145C0.209,-0.133 0.233,-0.126 0.265,-0.126Z" style="fill:rgb(165,14,195);fill-rule:nonzero;"/>
            </g>
            <g transform="matrix(20,0,0,20,671.864,597.388)">
                <path d="M0.319,-0L0.225,-0L0.022,-0.562L0.129,-0.562L0.272,-0.155L0.415,-0.562L0.523,-0.562L0.319,-0Z" style="fill:rgb(165,14,195);fill-rule:nonzero;"/>
            </g>
            <g transform="matrix(20,0,0,20,682.773,597.388)">
                <path d="M0.448,-0.859L0.448,-0.763L0.239,-0.763L0.239,0.035L0.448,0.035L0.448,0.132L0.135,0.132L0.135,-0.859L0.448,-0.859Z" style="fill:rgb(165,14,195);fill-rule:nonzero;"/>
            </g>
            <g transform="matrix(20,0,0,20,693.682,597.388)">
                <path d="M0.035,-0.069C0.035,-0.102 0.043,-0.132 0.061,-0.16C0.079,-0.189 0.101,-0.214 0.127,-0.236C0.153,-0.259 0.187,-0.285 0.229,-0.315C0.27,-0.346 0.302,-0.371 0.325,-0.39C0.348,-0.41 0.367,-0.432 0.383,-0.456C0.399,-0.481 0.407,-0.507 0.407,-0.535C0.407,-0.565 0.403,-0.588 0.396,-0.603C0.388,-0.618 0.375,-0.628 0.356,-0.635C0.338,-0.641 0.309,-0.644 0.272,-0.644C0.235,-0.644 0.208,-0.641 0.189,-0.635C0.17,-0.628 0.157,-0.618 0.15,-0.603C0.142,-0.588 0.138,-0.565 0.138,-0.535C0.138,-0.523 0.138,-0.514 0.139,-0.507L0.035,-0.507C0.032,-0.566 0.038,-0.612 0.052,-0.645C0.067,-0.679 0.091,-0.703 0.126,-0.718C0.161,-0.733 0.209,-0.74 0.272,-0.74C0.331,-0.74 0.378,-0.733 0.413,-0.72C0.448,-0.707 0.473,-0.685 0.489,-0.655C0.504,-0.626 0.512,-0.585 0.512,-0.535C0.512,-0.491 0.501,-0.451 0.479,-0.415C0.457,-0.378 0.43,-0.347 0.4,-0.32C0.369,-0.293 0.329,-0.262 0.281,-0.227C0.24,-0.199 0.209,-0.175 0.187,-0.155C0.165,-0.135 0.15,-0.116 0.142,-0.096L0.51,-0.096L0.51,-0L0.035,-0L0.035,-0.069Z" style="fill:rgb(165,14,195);fill-rule:nonzero;"/>
            </g>
            <g transform="matrix(20,0,0,20,704.591,597.388)">
                <path d="M0.145,-0.763L0.145,-0.859L0.459,-0.859L0.459,0.132L0.145,0.132L0.145,0.035L0.355,0.035L0.355,-0.763L0.145,-0.763Z" style="fill:rgb(165,14,195);fill-rule:nonzero;"/>
            </g>
        </g>
        <g transform="matrix(0.555137,0,0,0.555137,483.155,170.599)">
            <g transform="matrix(20,0,0,20,697.5,597.388)">
                <path d="M0.25,0.013C0.2,0.013 0.16,0.004 0.13,-0.015C0.101,-0.033 0.075,-0.065 0.051,-0.111L0.134,-0.179C0.146,-0.151 0.156,-0.131 0.165,-0.118C0.174,-0.105 0.185,-0.097 0.197,-0.091C0.21,-0.086 0.228,-0.084 0.25,-0.084C0.292,-0.084 0.323,-0.086 0.345,-0.091C0.366,-0.096 0.38,-0.104 0.388,-0.115C0.396,-0.126 0.4,-0.142 0.4,-0.164C0.4,-0.185 0.397,-0.2 0.39,-0.21C0.384,-0.22 0.373,-0.227 0.356,-0.232C0.34,-0.237 0.312,-0.242 0.274,-0.246C0.2,-0.255 0.147,-0.272 0.115,-0.295C0.082,-0.318 0.065,-0.355 0.065,-0.405C0.065,-0.446 0.073,-0.479 0.088,-0.503C0.103,-0.528 0.128,-0.546 0.161,-0.557C0.194,-0.569 0.239,-0.575 0.295,-0.575C0.349,-0.575 0.39,-0.567 0.42,-0.551C0.45,-0.535 0.477,-0.507 0.501,-0.467L0.425,-0.393C0.411,-0.418 0.4,-0.436 0.39,-0.447C0.38,-0.459 0.368,-0.467 0.355,-0.471C0.341,-0.476 0.321,-0.478 0.295,-0.478C0.261,-0.478 0.235,-0.476 0.217,-0.472C0.199,-0.468 0.187,-0.46 0.18,-0.45C0.173,-0.44 0.17,-0.425 0.17,-0.405C0.17,-0.391 0.174,-0.38 0.181,-0.373C0.188,-0.365 0.199,-0.36 0.214,-0.356C0.228,-0.353 0.251,-0.349 0.281,-0.345C0.338,-0.336 0.383,-0.326 0.415,-0.313C0.447,-0.301 0.47,-0.283 0.484,-0.26C0.498,-0.236 0.505,-0.204 0.505,-0.164C0.505,-0.121 0.497,-0.087 0.48,-0.061C0.464,-0.036 0.437,-0.017 0.4,-0.005C0.362,0.007 0.312,0.013 0.25,0.013Z" style="fill:rgb(242,13,13);fill-rule:nonzero;"/>
            </g>
            <g transform="matrix(20,0,0,20,708.409,597.388)">
                <path d="M0.122,0.178C0.098,0.178 0.077,0.175 0.06,0.169C0.043,0.163 0.024,0.153 0.004,0.138L0.045,0.05C0.068,0.064 0.084,0.073 0.093,0.076C0.101,0.08 0.111,0.082 0.122,0.082C0.144,0.082 0.161,0.079 0.175,0.073C0.188,0.067 0.2,0.056 0.21,0.041C0.22,0.027 0.229,0.005 0.239,-0.025L0.051,-0.562L0.16,-0.562L0.295,-0.162L0.431,-0.562L0.541,-0.562L0.345,-0.017C0.328,0.032 0.309,0.071 0.29,0.099C0.271,0.127 0.248,0.147 0.221,0.16C0.195,0.172 0.162,0.178 0.122,0.178Z" style="fill:rgb(242,13,13);fill-rule:nonzero;"/>
            </g>
            <g transform="matrix(20,0,0,20,719.318,597.388)">
                <path d="M0.25,0.013C0.2,0.013 0.16,0.004 0.13,-0.015C0.101,-0.033 0.075,-0.065 0.051,-0.111L0.134,-0.179C0.146,-0.151 0.156,-0.131 0.165,-0.118C0.174,-0.105 0.185,-0.097 0.197,-0.091C0.21,-0.086 0.228,-0.084 0.25,-0.084C0.292,-0.084 0.323,-0.086 0.345,-0.091C0.366,-0.096 0.38,-0.104 0.388,-0.115C0.396,-0.126 0.4,-0.142 0.4,-0.164C0.4,-0.185 0.397,-0.2 0.39,-0.21C0.384,-0.22 0.373,-0.227 0.356,-0.232C0.34,-0.237 0.312,-0.242 0.274,-0.246C0.2,-0.255 0.147,-0.272 0.115,-0.295C0.082,-0.318 0.065,-0.355 0.065,-0.405C0.065,-0.446 0.073,-0.479 0.088,-0.503C0.103,-0.528 0.128,-0.546 0.161,-0.557C0.194,-0.569 0.239,-0.575 0.295,-0.575C0.349,-0.575 0.39,-0.567 0.42,-0.551C0.45,-0.535 0.477,-0.507 0.501,-0.467L0.425,-0.393C0.411,-0.418 0.4,-0.436 0.39,-0.447C0.38,-0.459 0.368,-0.467 0.355,-0.471C0.341,-0.476 0.321,-0.478 0.295,-0.478C0.261,-0.478 0.235,-0.476 0.217,-0.472C0.199,-0.468 0.187,-0.46 0.18,-0.45C0.173,-0.44 0.17,-0.425 0.17,-0.405C0.17,-0.391 0.174,-0.38 0.181,-0.373C0.188,-0.365 0.199,-0.36 0.214,-0.356C0.228,-0.353 0.251,-0.349 0.281,-0.345C0.338,-0.336 0.383,-0.326 0.415,-0.313C0.447,-0.301 0.47,-0.283 0.484,-0.26C0.498,-0.236 0.505,-0.204 0.505,-0.164C0.505,-0.121 0.497,-0.087 0.48,-0.061C0.464,-0.036 0.437,-0.017 0.4,-0.005C0.362,0.007 0.312,0.013 0.25,0.013Z" style="fill:rgb(242,13,13);fill-rule:nonzero;"/>
            </g>
            <g transform="matrix(20,0,0,20,730.227,597.388)">
                <path d="M0.273,0.013C0.241,0.013 0.22,0.007 0.208,-0.004C0.196,-0.015 0.19,-0.035 0.19,-0.064C0.19,-0.093 0.196,-0.113 0.208,-0.124C0.22,-0.135 0.241,-0.141 0.273,-0.141C0.304,-0.141 0.326,-0.135 0.338,-0.124C0.35,-0.113 0.355,-0.093 0.355,-0.064C0.355,-0.035 0.35,-0.015 0.338,-0.004C0.326,0.007 0.304,0.013 0.273,0.013Z" style="fill:rgb(242,13,13);fill-rule:nonzero;"/>
            </g>
            <g transform="matrix(20,0,0,20,741.136,597.388)">
                <path d="M0.249,0.013C0.196,0.013 0.153,0.007 0.121,-0.005C0.09,-0.018 0.067,-0.037 0.052,-0.062C0.038,-0.088 0.031,-0.122 0.031,-0.165C0.031,-0.214 0.038,-0.251 0.052,-0.278C0.066,-0.304 0.088,-0.323 0.12,-0.333C0.151,-0.344 0.194,-0.349 0.249,-0.349L0.364,-0.349L0.364,-0.369C0.364,-0.395 0.36,-0.414 0.354,-0.428C0.348,-0.442 0.336,-0.452 0.32,-0.458C0.304,-0.463 0.28,-0.466 0.249,-0.466C0.224,-0.466 0.204,-0.464 0.191,-0.459C0.178,-0.453 0.167,-0.444 0.16,-0.431C0.153,-0.418 0.146,-0.397 0.139,-0.37L0.039,-0.395C0.05,-0.438 0.064,-0.472 0.08,-0.498C0.096,-0.524 0.118,-0.543 0.145,-0.556C0.173,-0.568 0.207,-0.575 0.249,-0.575C0.328,-0.575 0.384,-0.558 0.418,-0.524C0.451,-0.49 0.468,-0.439 0.468,-0.369L0.468,-0.156C0.468,-0.132 0.471,-0.115 0.475,-0.107C0.48,-0.099 0.491,-0.095 0.506,-0.095C0.511,-0.095 0.522,-0.096 0.539,-0.097L0.539,-0.001C0.532,-0 0.522,-0 0.509,-0C0.456,-0 0.42,-0.012 0.4,-0.036C0.384,-0.019 0.363,-0.006 0.339,0.001C0.315,0.009 0.285,0.013 0.249,0.013ZM0.249,-0.084C0.28,-0.084 0.304,-0.087 0.32,-0.095C0.336,-0.102 0.348,-0.114 0.354,-0.132C0.36,-0.149 0.364,-0.175 0.364,-0.208L0.364,-0.253L0.249,-0.253C0.215,-0.253 0.19,-0.251 0.175,-0.248C0.161,-0.244 0.151,-0.237 0.145,-0.225C0.138,-0.213 0.135,-0.193 0.135,-0.165C0.135,-0.143 0.138,-0.126 0.145,-0.115C0.151,-0.104 0.162,-0.096 0.178,-0.091C0.194,-0.086 0.218,-0.084 0.249,-0.084Z" style="fill:rgb(242,13,13);fill-rule:nonzero;"/>
            </g>
            <g transform="matrix(20,0,0,20,752.045,597.388)">
                <path d="M0.085,-0L0.085,-0.562L0.189,-0.562L0.189,-0.515C0.204,-0.531 0.222,-0.545 0.245,-0.557C0.268,-0.569 0.293,-0.575 0.32,-0.575C0.355,-0.575 0.384,-0.57 0.407,-0.56C0.43,-0.551 0.45,-0.536 0.467,-0.515C0.483,-0.494 0.498,-0.465 0.512,-0.428L0.418,-0.385C0.41,-0.412 0.402,-0.432 0.395,-0.445C0.387,-0.457 0.378,-0.466 0.367,-0.471C0.356,-0.476 0.34,-0.478 0.32,-0.478C0.273,-0.478 0.239,-0.462 0.219,-0.43C0.199,-0.397 0.189,-0.35 0.189,-0.288L0.189,-0L0.085,-0Z" style="fill:rgb(242,13,13);fill-rule:nonzero;"/>
            </g>
            <g transform="matrix(20,0,0,20,762.955,597.388)">
                <path d="M0.271,0.178C0.228,0.178 0.195,0.172 0.17,0.161C0.144,0.149 0.119,0.129 0.095,0.099L0.171,0.034C0.188,0.054 0.202,0.067 0.214,0.073C0.226,0.079 0.245,0.082 0.271,0.082C0.302,0.082 0.325,0.078 0.342,0.07C0.358,0.063 0.37,0.05 0.376,0.031C0.383,0.013 0.386,-0.014 0.386,-0.05L0.386,-0.052C0.348,-0.037 0.308,-0.03 0.265,-0.03C0.208,-0.03 0.164,-0.04 0.131,-0.06C0.098,-0.081 0.075,-0.113 0.06,-0.157C0.046,-0.202 0.039,-0.261 0.039,-0.336C0.039,-0.393 0.047,-0.439 0.061,-0.474C0.076,-0.508 0.1,-0.534 0.133,-0.55C0.165,-0.566 0.209,-0.575 0.265,-0.575C0.309,-0.575 0.35,-0.568 0.386,-0.556L0.386,-0.562L0.491,-0.562L0.491,-0.058C0.491,0 0.484,0.046 0.47,0.08C0.455,0.114 0.432,0.139 0.4,0.155C0.369,0.17 0.325,0.178 0.271,0.178ZM0.265,-0.126C0.308,-0.126 0.339,-0.137 0.358,-0.157C0.377,-0.178 0.386,-0.21 0.386,-0.254L0.386,-0.425C0.386,-0.442 0.377,-0.455 0.357,-0.464C0.337,-0.473 0.306,-0.478 0.265,-0.478C0.232,-0.478 0.208,-0.474 0.191,-0.465C0.174,-0.457 0.162,-0.443 0.155,-0.422C0.148,-0.402 0.145,-0.373 0.145,-0.336C0.145,-0.281 0.148,-0.238 0.155,-0.208C0.163,-0.178 0.175,-0.157 0.192,-0.145C0.209,-0.133 0.233,-0.126 0.265,-0.126Z" style="fill:rgb(242,13,13);fill-rule:nonzero;"/>
            </g>
            <g transform="matrix(20,0,0,20,773.864,597.388)">
                <path d="M0.319,-0L0.225,-0L0.022,-0.562L0.129,-0.562L0.272,-0.155L0.415,-0.562L0.523,-0.562L0.319,-0Z" style="fill:rgb(242,13,13);fill-rule:nonzero;"/>
            </g>
            <g transform="matrix(20,0,0,20,784.773,597.388)">
                <path d="M0.448,-0.859L0.448,-0.763L0.239,-0.763L0.239,0.035L0.448,0.035L0.448,0.132L0.135,0.132L0.135,-0.859L0.448,-0.859Z" style="fill:rgb(242,13,13);fill-rule:nonzero;"/>
            </g>
            <g transform="matrix(20,0,0,20,795.682,597.388)">
                <path d="M0.447,-0L0.343,-0L0.343,-0.184L0.029,-0.184L0.029,-0.259L0.36,-0.727L0.447,-0.727L0.447,-0.28L0.515,-0.28L0.515,-0.184L0.447,-0.184L0.447,-0ZM0.343,-0.517L0.165,-0.28L0.343,-0.28L0.343,-0.517Z" style="fill:rgb(242,13,13);fill-rule:nonzero;"/>
            </g>
            <g transform="matrix(20,0,0,20,806.591,597.388)">
                <path d="M0.145,-0.763L0.145,-0.859L0.459,-0.859L0.459,0.132L0.145,0.132L0.145,0.035L0.355,0.035L0.355,-0.763L0.145,-0.763Z" style="fill:rgb(242,13,13);fill-rule:nonzero;"/>
            </g>
        </g>
        <g transform="matrix(0.555137,0,0,0.555137,438.744,170.599)">
            <g transform="matrix(18,0,0,18,611.364,586.024)">
                <path d="M0.25,0.013C0.2,0.013 0.16,0.004 0.13,-0.015C0.101,-0.033 0.075,-0.065 0.051,-0.111L0.134,-0.179C0.146,-0.151 0.156,-0.131 0.165,-0.118C0.174,-0.105 0.185,-0.097 0.197,-0.091C0.21,-0.086 0.228,-0.084 0.25,-0.084C0.292,-0.084 0.323,-0.086 0.345,-0.091C0.366,-0.096 0.38,-0.104 0.388,-0.115C0.396,-0.126 0.4,-0.142 0.4,-0.164C0.4,-0.185 0.397,-0.2 0.39,-0.21C0.384,-0.22 0.373,-0.227 0.356,-0.232C0.34,-0.237 0.312,-0.242 0.274,-0.246C0.2,-0.255 0.147,-0.272 0.115,-0.295C0.082,-0.318 0.065,-0.355 0.065,-0.405C0.065,-0.446 0.073,-0.479 0.088,-0.503C0.103,-0.528 0.128,-0.546 0.161,-0.557C0.194,-0.569 0.239,-0.575 0.295,-0.575C0.349,-0.575 0.39,-0.567 0.42,-0.551C0.45,-0.535 0.477,-0.507 0.501,-0.467L0.425,-0.393C0.411,-0.418 0.4,-0.436 0.39,-0.447C0.38,-0.459 0.368,-0.467 0.355,-0.471C0.341,-0.476 0.321,-0.478 0.295,-0.478C0.261,-0.478 0.235,-0.476 0.217,-0.472C0.199,-0.468 0.187,-0.46 0.18,-0.45C0.173,-0.44 0.17,-0.425 0.17,-0.405C0.17,-0.391 0.174,-0.38 0.181,-0.373C0.188,-0.365 0.199,-0.36 0.214,-0.356C0.228,-0.353 0.251,-0.349 0.281,-0.345C0.338,-0.336 0.383,-0.326 0.415,-0.313C0.447,-0.301 0.47,-0.283 0.484,-0.26C0.498,-0.236 0.505,-0.204 0.505,-0.164C0.505,-0.121 0.497,-0.087 0.48,-0.061C0.464,-0.036 0.437,-0.017 0.4,-0.005C0.362,0.007 0.312,0.013 0.25,0.013Z" style="fill:rgb(38,185,217);fill-rule:nonzero;"/>
            </g>
            <g transform="matrix(18,0,0,18,621.182,586.024)">
                <path d="M0.122,0.178C0.098,0.178 0.077,0.175 0.06,0.169C0.043,0.163 0.024,0.153 0.004,0.138L0.045,0.05C0.068,0.064 0.084,0.073 0.093,0.076C0.101,0.08 0.111,0.082 0.122,0.082C0.144,0.082 0.161,0.079 0.175,0.073C0.188,0.067 0.2,0.056 0.21,0.041C0.22,0.027 0.229,0.005 0.239,-0.025L0.051,-0.562L0.16,-0.562L0.295,-0.162L0.431,-0.562L0.541,-0.562L0.345,-0.017C0.328,0.032 0.309,0.071 0.29,0.099C0.271,0.127 0.248,0.147 0.221,0.16C0.195,0.172 0.162,0.178 0.122,0.178Z" style="fill:rgb(38,185,217);fill-rule:nonzero;"/>
            </g>
            <g transform="matrix(18,0,0,18,631,586.024)">
                <path d="M0.25,0.013C0.2,0.013 0.16,0.004 0.13,-0.015C0.101,-0.033 0.075,-0.065 0.051,-0.111L0.134,-0.179C0.146,-0.151 0.156,-0.131 0.165,-0.118C0.174,-0.105 0.185,-0.097 0.197,-0.091C0.21,-0.086 0.228,-0.084 0.25,-0.084C0.292,-0.084 0.323,-0.086 0.345,-0.091C0.366,-0.096 0.38,-0.104 0.388,-0.115C0.396,-0.126 0.4,-0.142 0.4,-0.164C0.4,-0.185 0.397,-0.2 0.39,-0.21C0.384,-0.22 0.373,-0.227 0.356,-0.232C0.34,-0.237 0.312,-0.242 0.274,-0.246C0.2,-0.255 0.147,-0.272 0.115,-0.295C0.082,-0.318 0.065,-0.355 0.065,-0.405C0.065,-0.446 0.073,-0.479 0.088,-0.503C0.103,-0.528 0.128,-0.546 0.161,-0.557C0.194,-0.569 0.239,-0.575 0.295,-0.575C0.349,-0.575 0.39,-0.567 0.42,-0.551C0.45,-0.535 0.477,-0.507 0.501,-0.467L0.425,-0.393C0.411,-0.418 0.4,-0.436 0.39,-0.447C0.38,-0.459 0.368,-0.467 0.355,-0.471C0.341,-0.476 0.321,-0.478 0.295,-0.478C0.261,-0.478 0.235,-0.476 0.217,-0.472C0.199,-0.468 0.187,-0.46 0.18,-0.45C0.173,-0.44 0.17,-0.425 0.17,-0.405C0.17,-0.391 0.174,-0.38 0.181,-0.373C0.188,-0.365 0.199,-0.36 0.214,-0.356C0.228,-0.353 0.251,-0.349 0.281,-0.345C0.338,-0.336 0.383,-0.326 0.415,-0.313C0.447,-0.301 0.47,-0.283 0.484,-0.26C0.498,-0.236 0.505,-0.204 0.505,-0.164C0.505,-0.121 0.497,-0.087 0.48,-0.061C0.464,-0.036 0.437,-0.017 0.4,-0.005C0.362,0.007 0.312,0.013 0.25,0.013Z" style="fill:rgb(38,185,217);fill-rule:nonzero;"/>
            </g>
            <g transform="matrix(18,0,0,18,640.818,586.024)">
                <path d="M0.273,0.013C0.241,0.013 0.22,0.007 0.208,-0.004C0.196,-0.015 0.19,-0.035 0.19,-0.064C0.19,-0.093 0.196,-0.113 0.208,-0.124C0.22,-0.135 0.241,-0.141 0.273,-0.141C0.304,-0.141 0.326,-0.135 0.338,-0.124C0.35,-0.113 0.355,-0.093 0.355,-0.064C0.355,-0.035 0.35,-0.015 0.338,-0.004C0.326,0.007 0.304,0.013 0.273,0.013Z" style="fill:rgb(38,185,217);fill-rule:nonzero;"/>
            </g>
            <g transform="matrix(18,0,0,18,596.636,607.297)">
                <path d="M0.249,0.013C0.196,0.013 0.153,0.007 0.121,-0.005C0.09,-0.018 0.067,-0.037 0.052,-0.062C0.038,-0.088 0.031,-0.122 0.031,-0.165C0.031,-0.214 0.038,-0.251 0.052,-0.278C0.066,-0.304 0.088,-0.323 0.12,-0.333C0.151,-0.344 0.194,-0.349 0.249,-0.349L0.364,-0.349L0.364,-0.369C0.364,-0.395 0.36,-0.414 0.354,-0.428C0.348,-0.442 0.336,-0.452 0.32,-0.458C0.304,-0.463 0.28,-0.466 0.249,-0.466C0.224,-0.466 0.204,-0.464 0.191,-0.459C0.178,-0.453 0.167,-0.444 0.16,-0.431C0.153,-0.418 0.146,-0.397 0.139,-0.37L0.039,-0.395C0.05,-0.438 0.064,-0.472 0.08,-0.498C0.096,-0.524 0.118,-0.543 0.145,-0.556C0.173,-0.568 0.207,-0.575 0.249,-0.575C0.328,-0.575 0.384,-0.558 0.418,-0.524C0.451,-0.49 0.468,-0.439 0.468,-0.369L0.468,-0.156C0.468,-0.132 0.471,-0.115 0.475,-0.107C0.48,-0.099 0.491,-0.095 0.506,-0.095C0.511,-0.095 0.522,-0.096 0.539,-0.097L0.539,-0.001C0.532,-0 0.522,-0 0.509,-0C0.456,-0 0.42,-0.012 0.4,-0.036C0.384,-0.019 0.363,-0.006 0.339,0.001C0.315,0.009 0.285,0.013 0.249,0.013ZM0.249,-0.084C0.28,-0.084 0.304,-0.087 0.32,-0.095C0.336,-0.102 0.348,-0.114 0.354,-0.132C0.36,-0.149 0.364,-0.175 0.364,-0.208L0.364,-0.253L0.249,-0.253C0.215,-0.253 0.19,-0.251 0.175,-0.248C0.161,-0.244 0.151,-0.237 0.145,-0.225C0.138,-0.213 0.135,-0.193 0.135,-0.165C0.135,-0.143 0.138,-0.126 0.145,-0.115C0.151,-0.104 0.162,-0.096 0.178,-0.091C0.194,-0.086 0.218,-0.084 0.249,-0.084Z" style="fill:rgb(38,185,217);fill-rule:nonzero;"/>
            </g>
            <g transform="matrix(18,0,0,18,606.455,607.297)">
                <path d="M0.085,-0L0.085,-0.562L0.189,-0.562L0.189,-0.515C0.204,-0.531 0.222,-0.545 0.245,-0.557C0.268,-0.569 0.293,-0.575 0.32,-0.575C0.355,-0.575 0.384,-0.57 0.407,-0.56C0.43,-0.551 0.45,-0.536 0.467,-0.515C0.483,-0.494 0.498,-0.465 0.512,-0.428L0.418,-0.385C0.41,-0.412 0.402,-0.432 0.395,-0.445C0.387,-0.457 0.378,-0.466 0.367,-0.471C0.356,-0.476 0.34,-0.478 0.32,-0.478C0.273,-0.478 0.239,-0.462 0.219,-0.43C0.199,-0.397 0.189,-0.35 0.189,-0.288L0.189,-0L0.085,-0Z" style="fill:rgb(38,185,217);fill-rule:nonzero;"/>
            </g>
            <g transform="matrix(18,0,0,18,616.273,607.297)">
                <path d="M0.271,0.178C0.228,0.178 0.195,0.172 0.17,0.161C0.144,0.149 0.119,0.129 0.095,0.099L0.171,0.034C0.188,0.054 0.202,0.067 0.214,0.073C0.226,0.079 0.245,0.082 0.271,0.082C0.302,0.082 0.325,0.078 0.342,0.07C0.358,0.063 0.37,0.05 0.376,0.031C0.383,0.013 0.386,-0.014 0.386,-0.05L0.386,-0.052C0.348,-0.037 0.308,-0.03 0.265,-0.03C0.208,-0.03 0.164,-0.04 0.131,-0.06C0.098,-0.081 0.075,-0.113 0.06,-0.157C0.046,-0.202 0.039,-0.261 0.039,-0.336C0.039,-0.393 0.047,-0.439 0.061,-0.474C0.076,-0.508 0.1,-0.534 0.133,-0.55C0.165,-0.566 0.209,-0.575 0.265,-0.575C0.309,-0.575 0.35,-0.568 0.386,-0.556L0.386,-0.562L0.491,-0.562L0.491,-0.058C0.491,0 0.484,0.046 0.47,0.08C0.455,0.114 0.432,0.139 0.4,0.155C0.369,0.17 0.325,0.178 0.271,0.178ZM0.265,-0.126C0.308,-0.126 0.339,-0.137 0.358,-0.157C0.377,-0.178 0.386,-0.21 0.386,-0.254L0.386,-0.425C0.386,-0.442 0.377,-0.455 0.357,-0.464C0.337,-0.473 0.306,-0.478 0.265,-0.478C0.232,-0.478 0.208,-0.474 0.191,-0.465C0.174,-0.457 0.162,-0.443 0.155,-0.422C0.148,-0.402 0.145,-0.373 0.145,-0.336C0.145,-0.281 0.148,-0.238 0.155,-0.208C0.163,-0.178 0.175,-0.157 0.192,-0.145C0.209,-0.133 0.233,-0.126 0.265,-0.126Z" style="fill:rgb(38,185,217);fill-rule:nonzero;"/>
            </g>
            <g transform="matrix(18,0,0,18,626.091,607.297)">
                <path d="M0.319,-0L0.225,-0L0.022,-0.562L0.129,-0.562L0.272,-0.155L0.415,-0.562L0.523,-0.562L0.319,-0Z" style="fill:rgb(38,185,217);fill-rule:nonzero;"/>
            </g>
            <g transform="matrix(18,0,0,18,635.909,607.297)">
                <path d="M0.448,-0.859L0.448,-0.763L0.239,-0.763L0.239,0.035L0.448,0.035L0.448,0.132L0.135,0.132L0.135,-0.859L0.448,-0.859Z" style="fill:rgb(38,185,217);fill-rule:nonzero;"/>
            </g>
            <g transform="matrix(18,0,0,18,645.727,607.297)">
                <path d="M0.273,0.013C0.213,0.013 0.167,0.005 0.134,-0.009C0.101,-0.024 0.078,-0.047 0.064,-0.078C0.05,-0.11 0.044,-0.153 0.044,-0.207L0.149,-0.207C0.149,-0.172 0.152,-0.146 0.157,-0.13C0.163,-0.113 0.174,-0.101 0.191,-0.094C0.209,-0.087 0.236,-0.084 0.273,-0.084C0.307,-0.084 0.332,-0.087 0.35,-0.094C0.368,-0.101 0.38,-0.113 0.387,-0.13C0.394,-0.147 0.397,-0.172 0.397,-0.204C0.397,-0.241 0.394,-0.269 0.388,-0.286C0.382,-0.304 0.372,-0.316 0.357,-0.323C0.343,-0.329 0.32,-0.334 0.29,-0.336L0.198,-0.336L0.198,-0.433L0.29,-0.433C0.322,-0.435 0.345,-0.439 0.359,-0.443C0.373,-0.448 0.383,-0.457 0.389,-0.47C0.394,-0.484 0.397,-0.506 0.397,-0.536C0.397,-0.565 0.394,-0.587 0.387,-0.602C0.38,-0.617 0.368,-0.628 0.35,-0.634C0.332,-0.64 0.307,-0.644 0.273,-0.644C0.235,-0.644 0.207,-0.64 0.19,-0.634C0.174,-0.627 0.163,-0.616 0.158,-0.6C0.153,-0.583 0.15,-0.557 0.15,-0.521L0.044,-0.521C0.044,-0.577 0.05,-0.62 0.064,-0.651C0.078,-0.683 0.101,-0.705 0.134,-0.719C0.166,-0.733 0.213,-0.74 0.273,-0.74C0.329,-0.74 0.374,-0.733 0.407,-0.72C0.44,-0.706 0.464,-0.684 0.479,-0.655C0.494,-0.626 0.502,-0.586 0.502,-0.536C0.502,-0.496 0.497,-0.465 0.488,-0.444C0.478,-0.422 0.462,-0.403 0.438,-0.385C0.462,-0.365 0.478,-0.342 0.488,-0.316C0.497,-0.29 0.502,-0.253 0.502,-0.204C0.502,-0.151 0.494,-0.109 0.48,-0.078C0.465,-0.047 0.441,-0.024 0.408,-0.009C0.375,0.005 0.33,0.013 0.273,0.013Z" style="fill:rgb(38,185,217);fill-rule:nonzero;"/>
            </g>
            <g transform="matrix(18,0,0,18,655.545,607.297)">
                <path d="M0.145,-0.763L0.145,-0.859L0.459,-0.859L0.459,0.132L0.145,0.132L0.145,0.035L0.355,0.035L0.355,-0.763L0.145,-0.763Z" style="fill:rgb(38,185,217);fill-rule:nonzero;"/>
            </g>
        </g>
    </g>
</svg>
