<svg xmlns="http://www.w3.org/2000/svg" xmlns:xlink="http://www.w3.org/1999/xlink" width="558" height="119" fill-rule="evenodd" stroke-linecap="round" stroke-linejoin="round" stroke-miterlimit="1.5" xmlns:v="https://vecta.io/nano"><g fill-rule="nonzero"><path d="M-.005 6.897l.728-1.373 9.423 4.805v1.831L.723 16.965l-.728-1.373 8.466-4.348-8.466-4.348zm10.671 0l.707-1.373 9.444 4.805v1.831l-9.423 4.805-.728-1.373 8.466-4.348-8.466-4.348zm10.671 0l.707-1.373 9.444 4.805v1.831l-9.423 4.805-.728-1.373 8.466-4.348-8.466-4.348z" fill="gray"/><use xlink:href="#B"/><path d="M62.133 19.253h10.671v2.642H62.133zm23.43-1.997a6.12 6.12 0 0 1-1.664.749c-.624.187-1.311.27-2.039.27-1.456 0-2.559-.354-3.287-1.102-.728-.728-1.102-1.768-1.102-3.12V8.915H75.1v-2.33h2.371V4.13l3.37-.395v2.85h3.661l-.333 2.33h-3.328v5.138c0 .562.125.978.395 1.207.25.25.645.374 1.227.374.707 0 1.373-.166 1.976-.52l1.123 2.143zm5.979-2.912c0 .541.083.894.291 1.123.187.208.478.312.853.312.354 0 .707-.104 1.04-.312.354-.229.645-.52.894-.915V6.585h3.37v11.337h-2.954l-.146-1.331a3.67 3.67 0 0 1-1.498 1.248 4.57 4.57 0 0 1-1.976.437c-1.082 0-1.893-.291-2.434-.915s-.811-1.477-.811-2.6V6.585h3.37v7.759zm15.692-8.134c1.435 0 2.475.52 3.141 1.581.666 1.04.998 2.517.998 4.431 0 1.186-.166 2.226-.52 3.141-.333.915-.832 1.623-1.498 2.143-.645.52-1.435.77-2.33.77-1.102 0-1.997-.395-2.683-1.165v5.18l-3.37.354V6.585h2.975l.166 1.269c.437-.562.915-.978 1.456-1.227.541-.27 1.102-.416 1.664-.416zm-1.04 2.496a1.66 1.66 0 0 0-1.019.333 3.31 3.31 0 0 0-.832.978v4.784a2.65 2.65 0 0 0 .749.77c.25.166.562.229.915.229.624 0 1.082-.27 1.415-.832.312-.562.478-1.456.478-2.704 0-.915-.062-1.623-.187-2.143-.146-.52-.333-.894-.582-1.102s-.562-.312-.936-.312zm13.488 5.659c0 .437.125.749.374.957s.624.312 1.082.312c.52 0 1.04-.125 1.602-.354l.811 2.267c-.936.478-2.039.728-3.266.728-1.331 0-2.33-.374-2.995-1.144-.645-.749-.978-1.831-.978-3.183V4.401h-3.349V2.092h6.719v12.273z"/><use xlink:href="#C"/><path d="M152.926 8.499h8.3v1.539h-8.3V8.499zm0 4.036h8.3v1.56h-8.3v-1.56zm27.891-2.081c0 1.456.166 2.725.499 3.786.333 1.082.811 2.059 1.477 2.933.645.874 1.498 1.789 2.579 2.746l-.936.998c-1.248-1.019-2.247-2.018-3.037-2.995a11.04 11.04 0 0 1-1.831-3.287c-.416-1.207-.624-2.6-.624-4.181s.208-2.975.624-4.181c.437-1.207 1.04-2.309 1.831-3.287s1.789-1.976 3.037-2.995l.936.998c-1.082.957-1.955 1.893-2.6 2.746-.645.874-1.144 1.851-1.456 2.912-.333 1.082-.499 2.351-.499 3.807z"/><g fill="#ce26d9"><path d="M196.281 7.708H194.7l-.333-5.533h2.247l-.333 5.533z"/><use xlink:href="#D"/><use xlink:href="#E"/><use xlink:href="#F"/><use xlink:href="#G"/><use xlink:href="#H"/><path d="M273.856 3.236v13.23h3.079v1.456h-8.487v-1.456h3.62V5.17l-3.37 2.059-.79-1.29 4.389-2.704h1.56z"/><use xlink:href="#I"/></g><use xlink:href="#J"/><g fill="#267bd9"><use xlink:href="#I" x="38.405"/><use xlink:href="#D" x="128.011"/><use xlink:href="#E" x="128.011"/><use xlink:href="#F" x="128.011"/><use xlink:href="#G" x="128.008"/><use xlink:href="#H" x="128.011"/><use xlink:href="#K"/><use xlink:href="#I" x="128.011"/></g><use xlink:href="#J" x="128.011"/><g fill="#33cc45"><use xlink:href="#I" x="166.413"/><use xlink:href="#D" x="256.022"/><use xlink:href="#E" x="256.022"/><use xlink:href="#F" x="256.022"/><use xlink:href="#G" x="256.019"/><use xlink:href="#H" x="256.02"/><use xlink:href="#L"/><use xlink:href="#I" x="256.023"/></g><path d="M555.771 10.454c0-1.456-.146-2.725-.478-3.807-.333-1.061-.811-2.039-1.456-2.912-.666-.853-1.519-1.789-2.621-2.746l.936-.998c1.248 1.019 2.267 2.018 3.058 2.995s1.394 2.08 1.81 3.287c.437 1.207.645 2.6.645 4.181s-.208 2.975-.645 4.181a10.55 10.55 0 0 1-1.81 3.287c-.79.978-1.81 1.976-3.058 2.995l-.936-.998c1.082-.957 1.955-1.872 2.6-2.746s1.144-1.851 1.477-2.933c.312-1.061.478-2.33.478-3.786z"/><path d="M-.005 102.653l.728-1.373 9.423 4.805v1.831l-9.423 4.805-.728-1.373L8.461 107l-8.466-4.348zm10.671 0l.707-1.373 9.444 4.805v1.831l-9.423 4.805-.728-1.373L19.132 107l-8.466-4.348zm10.671 0l.707-1.373 9.444 4.805v1.831l-9.423 4.805-.728-1.373L29.804 107l-8.466-4.348z" fill="gray"/><g fill="#ce26d9"><use xlink:href="#D" x="-153.613" y="95.756"/><use xlink:href="#E" x="-153.612" y="95.756"/><path d="M83.608 102.195c.291 0 .562.021.79.062a7.11 7.11 0 0 1 .79.187l-.25 3.807h-1.477v-2.392h-.104c-.853 0-1.602.291-2.205.915-.624.603-1.102 1.539-1.498 2.767v4.764h2.288v1.373H76.12v-1.373h1.747v-8.487H76.12v-1.373h3.12l.333 2.663c.458-.978.998-1.706 1.623-2.184s1.435-.728 2.413-.728zm11.033-3.203v13.23h3.079v1.456h-8.487v-1.456h3.62v-11.295l-3.37 2.059-.79-1.29 4.389-2.704h1.56z"/></g><use xlink:href="#J" x="-192.016" y="95.756"/><g fill="#267bd9"><use xlink:href="#D" x="-76.807" y="95.756"/><use xlink:href="#E" x="-76.806" y="95.756"/><use xlink:href="#M"/><use xlink:href="#K" x="-230.421" y="95.756"/></g><use xlink:href="#J" x="-115.209" y="95.756"/><g fill="#33cc45"><use xlink:href="#D" y="95.756"/><use xlink:href="#E" y="95.756"/><use xlink:href="#M" x="76.805"/><use xlink:href="#L" x="-281.624" y="95.756"/></g><path d="M268.136 104.255h8.3v1.539h-8.3v-1.539zm0 4.036h8.3v1.56h-8.3v-1.56z"/><use xlink:href="#B" x="243.22" y="95.756"/><path d="M305.352 115.009h10.671v2.642h-10.671zm23.433-1.997a6.12 6.12 0 0 1-1.664.749c-.624.187-1.311.27-2.039.27-1.456 0-2.559-.354-3.287-1.102-.728-.728-1.102-1.768-1.102-3.12v-5.138h-2.371v-2.33h2.371v-2.455l3.37-.395v2.85h3.661l-.333 2.33h-3.328v5.138c0 .562.125.978.395 1.207.25.25.645.374 1.227.374.707 0 1.373-.166 1.976-.52l1.123 2.143zm5.977-2.912c0 .541.083.894.291 1.123.187.208.478.312.853.312.354 0 .707-.104 1.04-.312.354-.229.645-.52.894-.915v-7.967h3.37v11.337h-2.954l-.146-1.331a3.67 3.67 0 0 1-1.498 1.248 4.57 4.57 0 0 1-1.976.437c-1.082 0-1.893-.291-2.434-.915s-.811-1.477-.811-2.6v-8.175h3.37v7.759zm15.693-8.134c1.435 0 2.475.52 3.141 1.581.666 1.04.998 2.517.998 4.431 0 1.186-.166 2.226-.52 3.141-.333.915-.832 1.623-1.498 2.143-.645.52-1.435.77-2.33.77-1.102 0-1.997-.395-2.683-1.165v5.18l-3.37.354v-16.059h2.975l.166 1.269c.437-.562.915-.978 1.456-1.227.541-.27 1.102-.416 1.664-.416zm-1.04 2.496a1.66 1.66 0 0 0-1.019.333 3.31 3.31 0 0 0-.832.978v4.784a2.65 2.65 0 0 0 .749.77c.25.166.562.229.915.229.624 0 1.082-.27 1.415-.832.312-.562.478-1.456.478-2.704 0-.915-.062-1.623-.187-2.143-.146-.52-.333-.894-.582-1.102s-.562-.312-.936-.312zm13.487 5.659c0 .437.125.749.374.957s.624.312 1.082.312c.52 0 1.04-.125 1.602-.354l.811 2.267c-.936.478-2.039.728-3.266.728-1.331 0-2.33-.374-2.995-1.144-.645-.749-.978-1.831-.978-3.183v-9.548h-3.349v-2.309h6.719v12.273z"/><use xlink:href="#C" x="243.22" y="95.756"/></g><path d="M237.569 25.636a2.99 2.99 0 0 0-2.989-2.989 2.99 2.99 0 0 0-2.988 2.989 2.99 2.99 0 0 0 2.988 2.989 2.99 2.99 0 0 0 2.989-2.989zM82.489 81.068l-5.977 7.97-5.977-7.97h11.954z" fill="#ce26d9"/><path d="M234.58 27.429v9.635H76.512v45.598" fill="none" stroke="#ce26d9" stroke-width="1.33"/><path d="M368.441 25.601a2.99 2.99 0 0 0-3.023-2.954 2.99 2.99 0 0 0-2.954 3.024 2.99 2.99 0 0 0 3.024 2.953 2.99 2.99 0 0 0 2.953-3.023zM161.523 81.068l-5.977 7.97-5.978-7.97h11.955z" fill="#267bd9"/><path d="M365.474 27.429l.279 23.753H155.546v31.48" fill="none" stroke="#267bd9" stroke-width="1.33"/><path d="M498.579 25.636a2.99 2.99 0 0 0-2.988-2.989 2.99 2.99 0 0 0-2.989 2.989 2.99 2.99 0 0 0 2.989 2.989 2.99 2.99 0 0 0 2.988-2.989zM231.924 81.068l-5.978 7.97-5.977-7.97h11.955z" fill="#33cc45"/><path d="M495.591 27.429v37.7H225.946v17.533" fill="none" stroke="#33cc45" stroke-width="1.33"/><defs ><path id="B" d="M59.296 14.656c0 .416.062.728.166.915.125.208.312.354.582.458l-.686 2.205c-.686-.062-1.269-.208-1.706-.437-.458-.25-.811-.603-1.082-1.04-.416.499-.957.874-1.623 1.144a5.88 5.88 0 0 1-2.101.374c-.77 0-1.435-.146-2.018-.437-.582-.312-1.019-.728-1.352-1.269-.312-.541-.458-1.144-.458-1.851 0-.811.208-1.498.645-2.08s1.061-1.019 1.893-1.311c.832-.312 1.81-.458 2.975-.458h1.519v-.416c0-1.165-.749-1.747-2.226-1.747-.374 0-.853.042-1.435.166-.562.104-1.123.25-1.685.437l-.77-2.247a12.74 12.74 0 0 1 2.247-.624c.79-.146 1.519-.229 2.163-.229 1.664 0 2.912.354 3.724 1.019.832.686 1.227 1.664 1.227 2.995v4.431zm-5.284 1.227c.374 0 .77-.125 1.165-.354.395-.208.686-.52.874-.894v-1.851h-.832c-.915 0-1.602.146-2.059.437-.437.291-.666.707-.666 1.269 0 .437.125.77.395 1.019s.645.374 1.123.374z"/><path id="C" d="M129.487 13.241c.104.894.395 1.539.874 1.955s1.102.624 1.851.624c.957 0 1.935-.312 2.912-.936l1.352 1.851c-.562.478-1.227.853-1.997 1.123-.77.291-1.602.416-2.538.416-1.269 0-2.33-.25-3.224-.749a4.92 4.92 0 0 1-1.997-2.122c-.437-.894-.666-1.955-.666-3.141 0-1.123.229-2.143.645-3.058.437-.936 1.082-1.643 1.914-2.184s1.81-.811 2.975-.811c1.061 0 1.997.25 2.808.707.79.458 1.415 1.123 1.851 1.997s.645 1.914.645 3.12c0 .458-.021.853-.062 1.207h-7.343zm2.101-4.764c-.624 0-1.123.229-1.477.666-.374.458-.582 1.144-.666 2.059h4.16c-.021-1.81-.686-2.725-2.018-2.725z"/><path id="D" d="M211.536 6.689h1.851l-4.077 11.233h-2.08l-4.056-11.233h1.893l3.266 9.61 3.203-9.61z"/><path id="E" d="M224.877 15.467c0 .437.062.77.208.978s.374.354.707.458l-.437 1.269c-1.082-.146-1.768-.666-2.059-1.581-.395.52-.894.915-1.519 1.186a5.18 5.18 0 0 1-1.997.395c-.749 0-1.394-.146-1.935-.437a2.85 2.85 0 0 1-1.269-1.207c-.291-.52-.437-1.123-.437-1.831 0-1.165.458-2.039 1.352-2.663.915-.624 2.226-.936 3.932-.936h1.643v-.936c0-.77-.229-1.352-.686-1.706s-1.123-.52-1.997-.52c-.832 0-1.81.187-2.912.582l-.478-1.352c1.248-.478 2.475-.707 3.682-.707 1.373 0 2.413.312 3.12.957.728.645 1.082 1.539 1.082 2.663v5.388zm-4.639 1.331c.541 0 1.082-.146 1.581-.416.499-.291.915-.666 1.248-1.165v-2.891h-1.623c-1.186 0-2.039.208-2.579.603s-.79.998-.79 1.747c0 1.415.707 2.122 2.163 2.122z"/><path id="F" d="M233.996 15.155c0 .52.166.915.499 1.144.333.25.79.374 1.373.374.603 0 1.227-.125 1.872-.395l.478 1.311c-.333.166-.728.312-1.186.416a6.55 6.55 0 0 1-1.477.166c-.666 0-1.248-.125-1.747-.374-.52-.25-.894-.603-1.186-1.082-.27-.478-.416-1.019-.416-1.664V3.589h-3.432V2.175h5.221v12.98z"/><path id="G" d="M244.22 14.656c0 .728.146 1.248.458 1.581s.79.499 1.435.499c.582 0 1.165-.166 1.727-.52.562-.333.998-.749 1.311-1.269V6.689h1.789v11.233h-1.519l-.146-1.519a4.26 4.26 0 0 1-1.623 1.29c-.645.312-1.311.478-1.976.478-1.082 0-1.893-.291-2.434-.853-.541-.582-.811-1.394-.811-2.455V6.689h1.789v7.967z"/><path id="H" d="M256.646 12.95c.021.832.187 1.519.478 2.08.312.562.707.978 1.186 1.248s1.019.395 1.623.395c.541 0 1.061-.083 1.519-.25.478-.166.957-.416 1.477-.77l.832 1.186c-.52.416-1.123.749-1.81.978-.666.229-1.352.354-2.039.354-1.082 0-1.997-.25-2.787-.728-.77-.478-1.352-1.165-1.768-2.059-.395-.874-.582-1.893-.582-3.058 0-1.144.187-2.143.603-3.037a4.84 4.84 0 0 1 1.706-2.08c.749-.499 1.602-.749 2.579-.749.957 0 1.768.208 2.455.666.686.437 1.207 1.061 1.56 1.893.374.832.562 1.81.562 2.933l-.042.998h-7.551zm3.037-5.034c-.853 0-1.56.312-2.101.915-.562.624-.853 1.519-.936 2.725h5.866c-.021-1.186-.291-2.08-.79-2.704s-1.165-.936-2.039-.936z"/><path id="I" d="M285.887 7.708h-1.581l-.333-5.533h2.247l-.333 5.533z"/><path id="J" d="M297.898 14.406c.312 0 .624.083.874.229a1.79 1.79 0 0 1 .624.624c.146.27.229.541.229.853 0 .27-.042.541-.104.79-.062.27-.166.562-.312.894l-1.727 3.952h-1.623l1.019-4.202a1.84 1.84 0 0 1-.499-.624 1.79 1.79 0 0 1-.187-.811c0-.312.062-.582.208-.853.166-.25.354-.458.624-.624.25-.146.541-.229.874-.229z"/><path id="K" d="M399.642 3.007c.915 0 1.706.166 2.371.52s1.165.853 1.539 1.456c.354.624.52 1.331.52 2.101 0 .915-.208 1.789-.624 2.642s-1.102 1.789-2.018 2.829c-.936 1.019-2.247 2.288-3.932 3.848h6.927l-.229 1.519h-8.737v-1.456l4.285-4.327c.915-1.04 1.56-1.914 1.914-2.642a5.36 5.36 0 0 0 .52-2.33c0-.832-.229-1.498-.686-1.976-.478-.458-1.102-.707-1.935-.707-.707 0-1.29.125-1.747.374-.458.229-.936.624-1.415 1.207l-1.227-.957c.582-.728 1.227-1.248 1.955-1.602.707-.333 1.56-.499 2.517-.499z"/><path id="L" d="M527.632 3.007c.894 0 1.685.166 2.371.478.686.333 1.227.79 1.602 1.352.354.541.541 1.165.541 1.831a3.49 3.49 0 0 1-.374 1.602c-.27.478-.624.874-1.061 1.207a3.69 3.69 0 0 1-1.435.624 3.79 3.79 0 0 1 1.664.499c.499.291.915.686 1.227 1.227.291.52.458 1.144.458 1.851 0 .853-.208 1.623-.645 2.288-.437.686-1.04 1.227-1.81 1.623-.77.374-1.643.582-2.642.582-.874 0-1.706-.166-2.517-.499-.79-.333-1.477-.811-1.997-1.477l1.207-.978a3.89 3.89 0 0 0 1.477 1.102 4.38 4.38 0 0 0 1.789.374c.666 0 1.248-.125 1.747-.374.478-.25.853-.582 1.123-1.04a3.26 3.26 0 0 0 .395-1.602c0-1.851-1.019-2.767-3.058-2.767h-1.227l.229-1.435h.853c.499 0 .957-.083 1.373-.27.437-.187.77-.478 1.04-.874.25-.374.395-.853.395-1.415 0-.52-.125-.978-.374-1.352s-.582-.645-.998-.853c-.416-.187-.894-.291-1.415-.291-.603 0-1.165.104-1.643.333-.478.208-.957.562-1.456 1.019l-.998-1.082c1.186-1.123 2.579-1.685 4.16-1.685z"/><path id="M" d="M160.415 102.195c.291 0 .562.021.79.062a7.11 7.11 0 0 1 .79.187l-.25 3.807h-1.477v-2.392h-.104c-.853 0-1.602.291-2.205.915-.624.603-1.102 1.539-1.498 2.767v4.764h2.288v1.373h-5.824v-1.373h1.747v-8.487h-1.747v-1.373h3.12l.333 2.663c.458-.978.998-1.706 1.623-2.184s1.435-.728 2.413-.728z"/></defs></svg>