<?xml version="1.0" encoding="UTF-8" standalone="no"?>
<!DOCTYPE svg PUBLIC "-//W3C//DTD SVG 1.1//EN" "http://www.w3.org/Graphics/SVG/1.1/DTD/svg11.dtd">
<svg width="152px" height="95px" version="1.1" xmlns="http://www.w3.org/2000/svg" xmlns:xlink="http://www.w3.org/1999/xlink" xml:space="preserve" xmlns:serif="http://www.serif.com/" style="fill-rule:evenodd;clip-rule:evenodd;stroke-linecap:round;stroke-linejoin:round;stroke-miterlimit:1.5;">
    <g transform="matrix(1,0,0,1,-418.344,-813.38)">
        <g transform="matrix(1.02135,0,0,0.35463,0,746)">
            <g transform="matrix(0.373264,0,0,0.373264,38.1986,121.06)">
                <g transform="matrix(1.16726,0,0,3.09922,-160.571,-1133.58)">
                    <g transform="matrix(0.838794,0,0,0.909857,677.955,160.59)">
                        <circle cx="498" cy="417" r="123" style="fill:none;stroke:rgb(13,121,242);stroke-width:6px;"/>
                    </g>
                    <g transform="matrix(0.838794,0,0,0.909857,807.969,160.59)">
                        <circle cx="498" cy="417" r="123" style="fill:none;stroke:rgb(13,121,242);stroke-width:6px;"/>
                    </g>
                    <g transform="matrix(0.838794,0,0,0.909857,0,0)">
                        <path d="M1383.75,688.988C1362.59,706.187 1335.62,716.5 1306.25,716.5C1238.36,716.5 1183.25,661.386 1183.25,593.5C1183.25,525.614 1238.36,470.5 1306.25,470.5C1335.62,470.5 1362.59,480.813 1383.75,498.012C1356,520.572 1338.25,554.98 1338.25,593.5C1338.25,632.02 1356,666.428 1383.75,688.988Z" style="fill:rgb(207,230,255);stroke:rgb(13,121,242);stroke-width:6px;"/>
                    </g>
                </g>
                <g transform="matrix(1,0,0,1,939.737,-109.104)">
                    <g transform="matrix(0.979092,0,0,2.81984,30.3519,-2053.81)">
                        <g transform="matrix(58.6339,0,0,58.6339,110,978.544)">
                            <path d="M0.383,-0.706L0.383,-0.07L0.531,-0.07L0.531,-0L0.123,-0L0.123,-0.07L0.297,-0.07L0.297,-0.613L0.135,-0.514L0.097,-0.576L0.308,-0.706L0.383,-0.706Z" style="fill-rule:nonzero;"/>
                        </g>
                    </g>
                    <g transform="matrix(0.979092,0,0,2.81984,230.864,-2051.94)">
                        <g transform="matrix(58.6339,0,0,58.6339,110,978.544)">
                            <path d="M0.275,-0.717C0.318,-0.717 0.356,-0.709 0.389,-0.694C0.422,-0.678 0.448,-0.656 0.466,-0.629C0.483,-0.603 0.492,-0.573 0.492,-0.541C0.492,-0.513 0.486,-0.488 0.474,-0.464C0.461,-0.441 0.444,-0.422 0.423,-0.406C0.402,-0.391 0.379,-0.381 0.354,-0.376C0.383,-0.374 0.41,-0.366 0.434,-0.352C0.458,-0.338 0.478,-0.319 0.493,-0.293C0.507,-0.268 0.515,-0.238 0.515,-0.204C0.515,-0.163 0.505,-0.126 0.484,-0.094C0.463,-0.061 0.434,-0.035 0.397,-0.016C0.36,0.002 0.318,0.012 0.27,0.012C0.228,0.012 0.188,0.004 0.149,-0.012C0.111,-0.028 0.078,-0.051 0.053,-0.083L0.111,-0.13C0.13,-0.107 0.154,-0.089 0.182,-0.077C0.209,-0.065 0.238,-0.059 0.268,-0.059C0.3,-0.059 0.328,-0.065 0.352,-0.077C0.375,-0.089 0.393,-0.105 0.406,-0.127C0.418,-0.149 0.425,-0.174 0.425,-0.204C0.425,-0.293 0.376,-0.337 0.278,-0.337L0.219,-0.337L0.23,-0.406L0.271,-0.406C0.295,-0.406 0.317,-0.41 0.337,-0.419C0.358,-0.428 0.374,-0.442 0.387,-0.461C0.399,-0.479 0.406,-0.502 0.406,-0.529C0.406,-0.554 0.4,-0.576 0.388,-0.594C0.376,-0.612 0.36,-0.625 0.34,-0.635C0.32,-0.644 0.297,-0.649 0.272,-0.649C0.243,-0.649 0.216,-0.644 0.193,-0.633C0.17,-0.623 0.147,-0.606 0.123,-0.584L0.075,-0.636C0.132,-0.69 0.199,-0.717 0.275,-0.717Z" style="fill-rule:nonzero;"/>
                        </g>
                    </g>
                    <g transform="matrix(0.979092,0,0,2.81984,131.108,-2053.81)">
                        <g transform="matrix(58.6339,0,0,58.6339,110,978.544)">
                            <path d="M0.276,-0.717C0.32,-0.717 0.358,-0.709 0.39,-0.692C0.422,-0.675 0.446,-0.651 0.464,-0.622C0.481,-0.592 0.489,-0.558 0.489,-0.521C0.489,-0.477 0.479,-0.435 0.459,-0.394C0.439,-0.353 0.406,-0.308 0.362,-0.258C0.317,-0.209 0.254,-0.148 0.173,-0.073L0.506,-0.073L0.495,-0L0.075,-0L0.075,-0.07C0.168,-0.159 0.236,-0.228 0.281,-0.278C0.325,-0.328 0.356,-0.37 0.373,-0.405C0.39,-0.441 0.398,-0.478 0.398,-0.517C0.398,-0.557 0.387,-0.589 0.365,-0.612C0.342,-0.634 0.312,-0.646 0.272,-0.646C0.238,-0.646 0.21,-0.64 0.188,-0.628C0.166,-0.617 0.143,-0.598 0.12,-0.57L0.061,-0.616C0.089,-0.651 0.12,-0.676 0.155,-0.693C0.189,-0.709 0.23,-0.717 0.276,-0.717Z" style="fill-rule:nonzero;"/>
                        </g>
                    </g>
                </g>
            </g>
        </g>
    </g>
</svg>
