<svg xmlns="http://www.w3.org/2000/svg" xmlns:xlink="http://www.w3.org/1999/xlink" width="1961" height="383" fill-rule="evenodd" stroke-linecap="round" stroke-linejoin="round" stroke-miterlimit="1.5" xmlns:v="https://vecta.io/nano"><style><![CDATA[.B{stroke-width:6}.C{stroke:#0d79f2}.D{fill-rule:nonzero}.E{fill:#cfe6ff}]]></style><g transform="matrix(1.02135 0 0 .35463 0 0)"><g transform="matrix(1.16726 0 0 3.09922 -160.571 -1026.42)"><g fill="none" class="B C"><circle cx="498" cy="417" r="123" transform="matrix(.838794 0 0 .909857 -124.771 160.59)"/><circle cx="498" cy="417" r="123" transform="matrix(.838794 0 0 .909857 5.24246 160.59)"/></g><use xlink:href="#B" transform="scale(.838794 .909857)" class="B C E"/><g class="D"><path d="M294.313 558.672c-.246 0-.443-.16-.492-.427l-1.18-6.722c0-.107-.049-.16-.148-.16H278.23c-.098 0-.148.053-.197.16l-2.705 6.722c-.098.267-.295.427-.59.427h-2.607c-.344 0-.443-.213-.295-.587l14.656-36.33c.049-.16.098-.267.246-.32s.246-.107.344-.107h3.246c.148 0 .246.053.344.107s.148.16.197.32l6.492 36.33v.107c0 .32-.148.48-.443.48h-2.607zm-14.951-10.67c-.049.053-.049.107 0 .16s.098.107.148.107h12.345c.049 0 .148-.053.197-.107 0-.053.049-.107 0-.16l-3.738-21.766c-.049-.053-.049-.107-.098-.107s-.148.053-.197.107l-8.656 21.766z"/><use xlink:href="#C"/></g><g fill="none" class="B C"><circle cx="498" cy="417" r="123" transform="matrix(.838794 0 0 .909857 677.955 160.59)"/><circle cx="498" cy="417" r="123" transform="matrix(.838794 0 0 .909857 807.969 160.59)"/></g><use xlink:href="#D" transform="scale(.838794 .909857)" class="B C E"/><g class="D"><path d="M1098.297 558.672c-.246 0-.443-.16-.492-.427l-1.18-6.722c0-.107-.049-.16-.148-.16h-14.263c-.098 0-.148.053-.197.16l-2.705 6.722c-.098.267-.295.427-.59.427h-2.607c-.344 0-.443-.213-.295-.587l14.656-36.33c.049-.16.098-.267.246-.32s.246-.107.344-.107h3.246c.148 0 .246.053.344.107s.148.16.197.32l6.492 36.33v.107c0 .32-.148.48-.443.48h-2.607zm-14.951-10.67c-.049.053-.049.107 0 .16s.098.107.148.107h12.345c.049 0 .148-.053.197-.107 0-.053.049-.107 0-.16l-3.738-21.766c-.049-.053-.049-.107-.098-.107s-.148.053-.197.107l-8.656 21.766z"/><use xlink:href="#C" x="803.984"/></g><g class="B C E"><circle cx="498" cy="417" r="123" transform="matrix(.838794 0 0 .909857 276.592 160.59)"/><circle cx="498" cy="417" r="123" transform="matrix(.838794 0 0 .909857 406.606 160.59)"/><use xlink:href="#B" x="478.5" transform="scale(.838794 .909857)"/></g><g class="D"><use xlink:href="#E"/><use xlink:href="#C" x="402.621"/></g><g fill="none" class="B C"><circle cx="498" cy="417" r="123" transform="matrix(.838794 0 0 .909857 1079.32 160.59)"/><circle cx="498" cy="417" r="123" transform="matrix(.838794 0 0 .909857 1209.33 160.59)"/></g><g transform="scale(.838794 .909857)" class="E B C"><use xlink:href="#D" x="478.5"/><path d="M1862.25 498.012c21.16-17.199 48.13-27.512 77.5-27.512 67.89 0 123 55.114 123 123s-55.11 123-123 123c-29.37 0-56.34-10.313-77.5-27.512 27.76-22.56 45.5-56.968 45.5-95.488s-17.74-72.928-45.5-95.488z"/></g><g class="D"><use xlink:href="#E" x="802.729"/><use xlink:href="#C" x="1205.35"/></g></g><g class="D"><use xlink:href="#F"/><path d="M257.186 101.939c-5.569 0-9.645 5.125-12.228 15.707-2.124 8.267-3.157 19.675-3.157 34.06v56.711h3.846v-57.042c0-25.627 3.846-38.358 11.539-38.358 7.635 0 11.482 12.731 11.482 38.358v57.042h3.904v-56.711c0-14.384-1.091-25.793-3.215-34.06-2.641-10.582-6.659-15.707-12.17-15.707z"/><use xlink:href="#G"/><use xlink:href="#F" x="1396.842" y="2.48"/><path d="M1662.64 98.632l-23.365 116.563h46.73L1662.64 98.632zm0 17.03l18.371 91.101h-36.741l18.371-91.101z"/><use xlink:href="#G" x="1414.123" y="2.48"/><use xlink:href="#F" x="468.495"/><path d="M710.296 101.939v56.876c0 14.219 1.033 25.627 3.157 34.06 2.583 10.251 6.659 15.542 12.228 15.542 5.511 0 9.53-5.291 12.17-15.542 2.124-8.432 3.215-19.841 3.215-34.06v-56.876h-3.904v57.207c0 25.462-3.846 38.358-11.482 38.358-7.693 0-11.539-12.896-11.539-38.358v-57.207h-3.846z"/><use xlink:href="#G" x="468.496"/><use xlink:href="#F" x="934.223" y="2.48"/><path d="M1207.828 216.849l-30.311-87.133 2.985-8.432 30.254 87.133-2.928 8.432z"/><use xlink:href="#G" x="939.758" y="2.48"/></g></g><defs ><path id="B" d="M426.75 688.988c-27.755-22.56-45.5-56.968-45.5-95.488s17.745-72.928 45.5-95.488c27.755 22.56 45.5 56.968 45.5 95.488s-17.745 72.928-45.5 95.488z"/><path id="C" d="M440.265 539.2c-.148.107-.148.213 0 .32 2.853 1.334 4.279 3.788 4.279 7.415 0 .267-.049.8-.098 1.6-.344 3.201-1.574 5.708-3.59 7.469s-4.525 2.667-7.525 2.667h-11.558c-.148 0-.246-.053-.295-.16-.098-.107-.148-.213-.098-.373l4.131-36.277c0-.16.049-.267.148-.373a.43.43 0 0 1 .344-.16h11.213c2.803 0 5.017.694 6.59 2.134s2.361 3.468 2.361 6.082c0 2.401-.492 4.375-1.525 6.028s-2.508 2.827-4.377 3.628zm-11.509-14.564c-.098 0-.197.053-.246.213l-1.426 12.804c0 .16.049.213.148.213h8.115c2.213 0 3.984-.694 5.361-2.081 1.328-1.334 2.016-3.148 2.016-5.388 0-1.76-.541-3.201-1.574-4.215s-2.459-1.547-4.279-1.547h-8.115zm4.967 30.675c2.213 0 3.984-.747 5.361-2.294 1.377-1.494 2.066-3.468 2.066-5.922 0-1.867-.541-3.308-1.574-4.428-1.082-1.067-2.557-1.6-4.426-1.6h-8.263c-.148 0-.197.053-.197.213l-1.574 13.817c0 .16.049.213.148.213h8.459z"/><path id="D" d="M1383.75 688.988c-21.16 17.199-48.13 27.512-77.5 27.512-67.89 0-123-55.114-123-123s55.11-123 123-123c29.37 0 56.34 10.313 77.5 27.512-27.75 22.56-45.5 56.968-45.5 95.488s17.75 72.928 45.5 95.488z"/><path id="E" d="M696.934 558.672c-.246 0-.443-.16-.492-.427l-1.18-6.722c0-.107-.049-.16-.148-.16h-14.263c-.098 0-.148.053-.197.16l-2.705 6.722c-.098.267-.295.427-.59.427h-2.607c-.344 0-.443-.213-.295-.587l14.656-36.33c.049-.16.098-.267.246-.32s.246-.107.344-.107h3.246a.67.67 0 0 1 .344.107c.098.053.148.16.197.32l6.492 36.33v.107c0 .32-.148.48-.443.48h-2.607zm-14.951-10.67c-.049.053-.049.107 0 .16s.098.107.148.107h12.345c.049 0 .148-.053.197-.107 0-.053.049-.107 0-.16l-3.738-21.766c-.049-.053-.049-.107-.098-.107s-.148.053-.197.107l-8.656 21.766z"/><path id="F" d="M219.355 214.369c-.287 0-.517-.496-.574-1.323l-1.378-20.833c0-.331-.057-.496-.172-.496h-16.648c-.115 0-.172.165-.23.496l-3.157 20.833c-.115.827-.344 1.323-.689 1.323h-3.043c-.402 0-.517-.661-.344-1.819l17.108-112.595c.057-.496.115-.827.287-.992s.287-.331.402-.331h3.789c.172 0 .287.165.402.331s.172.496.23.992l7.578 112.595v.331c0 .992-.172 1.488-.517 1.488h-3.043zm-17.452-33.068c-.057.165-.057.331 0 .496s.115.331.172.331h14.409c.057 0 .172-.165.23-.331 0-.165.057-.331 0-.496l-4.363-67.458c-.057-.165-.057-.331-.115-.331s-.172.165-.23.331l-10.104 67.458z"/><path id="G" d="M314.594 154.02c-.172.331-.172.661 0 .992 3.33 4.133 4.994 11.739 4.994 22.982 0 .827-.057 2.48-.115 4.96-.402 9.92-1.837 17.691-4.191 23.147s-5.282 8.267-8.783 8.267h-13.491c-.172 0-.287-.165-.344-.496-.115-.331-.172-.661-.115-1.157l4.822-112.43c0-.496.057-.827.172-1.157s.23-.496.402-.496h13.089c3.272 0 5.856 2.149 7.693 6.614s2.756 10.747 2.756 18.849c0 7.44-.574 13.558-1.78 18.683s-2.928 8.763-5.109 11.243zm-13.433-45.137c-.115 0-.23.165-.287.661l-1.665 39.681c0 .496.057.661.172.661h9.472c2.583 0 4.65-2.149 6.257-6.448 1.55-4.133 2.354-9.755 2.354-16.699 0-5.456-.631-9.92-1.837-13.062s-2.87-4.795-4.994-4.795h-9.472zm5.798 95.069c2.583 0 4.65-2.315 6.257-7.11 1.607-4.629 2.411-10.747 2.411-18.353 0-5.787-.631-10.251-1.837-13.723-1.263-3.307-2.985-4.96-5.167-4.96h-9.645c-.172 0-.23.165-.23.661l-1.837 42.823c0 .496.057.661.172.661h9.874z"/></defs></svg>