<?xml version="1.0" encoding="UTF-8" standalone="no"?>
<!DOCTYPE svg PUBLIC "-//W3C//DTD SVG 1.1//EN" "http://www.w3.org/Graphics/SVG/1.1/DTD/svg11.dtd">
<svg width="1961px" height="383px" version="1.1" xmlns="http://www.w3.org/2000/svg" xmlns:xlink="http://www.w3.org/1999/xlink" xml:space="preserve" xmlns:serif="http://www.serif.com/" style="fill-rule:evenodd;clip-rule:evenodd;stroke-linecap:round;stroke-linejoin:round;stroke-miterlimit:1.5;">
    <g id="Mesa-de-trabajo1" serif:id="Mesa de trabajo1" transform="matrix(1.02135,0,0,0.35463,1.13687e-13,0)">
        <rect x="0" y="0" width="1920" height="1080" style="fill:none;"/>
        <g transform="matrix(1.16726,0,0,3.09922,-160.571,-1026.42)">
            <g transform="matrix(0.838794,0,0,0.909857,-124.771,160.59)">
                <circle cx="498" cy="417" r="123" style="fill:none;stroke:rgb(13,121,242);stroke-width:6px;"/>
            </g>
            <g transform="matrix(0.838794,0,0,0.909857,5.24246,160.59)">
                <circle cx="498" cy="417" r="123" style="fill:none;stroke:rgb(13,121,242);stroke-width:6px;"/>
            </g>
            <g transform="matrix(0.838794,0,0,0.909857,0,0)">
                <path d="M426.75,688.988C398.995,666.428 381.25,632.02 381.25,593.5C381.25,554.98 398.995,520.572 426.75,498.012C454.505,520.572 472.25,554.98 472.25,593.5C472.25,632.02 454.505,666.428 426.75,688.988Z" style="fill:rgb(207,230,255);stroke:rgb(13,121,242);stroke-width:6px;"/>
            </g>
            <g>
                <g transform="matrix(0.838794,0,0,0.909857,26.9115,363.963)">
                    <g transform="matrix(58.6339,0,0,58.6339,291,214)">
                        <path d="M0.474,-0C0.469,-0 0.465,-0.003 0.464,-0.008L0.44,-0.134C0.44,-0.136 0.439,-0.137 0.437,-0.137L0.147,-0.137C0.145,-0.137 0.144,-0.136 0.143,-0.134L0.088,-0.008C0.086,-0.003 0.082,-0 0.076,-0L0.023,-0C0.016,-0 0.014,-0.004 0.017,-0.011L0.315,-0.692C0.316,-0.695 0.317,-0.697 0.32,-0.698C0.323,-0.699 0.325,-0.7 0.327,-0.7L0.393,-0.7C0.396,-0.7 0.398,-0.699 0.4,-0.698C0.402,-0.697 0.403,-0.695 0.404,-0.692L0.536,-0.011L0.536,-0.009C0.536,-0.003 0.533,-0 0.527,-0L0.474,-0ZM0.17,-0.2C0.169,-0.199 0.169,-0.198 0.17,-0.197C0.171,-0.196 0.172,-0.195 0.173,-0.195L0.424,-0.195C0.425,-0.195 0.427,-0.196 0.428,-0.197C0.428,-0.198 0.429,-0.199 0.428,-0.2L0.352,-0.608C0.351,-0.609 0.351,-0.61 0.35,-0.61C0.349,-0.61 0.347,-0.609 0.346,-0.608L0.17,-0.2Z" style="fill-rule:nonzero;"/>
                    </g>
                </g>
                <g transform="matrix(0.838794,0,0,0.909857,173.7,363.963)">
                    <g transform="matrix(58.6339,0,0,58.6339,291,214)">
                        <path d="M0.457,-0.365C0.454,-0.363 0.454,-0.361 0.457,-0.359C0.515,-0.334 0.544,-0.288 0.544,-0.22C0.544,-0.215 0.543,-0.205 0.542,-0.19C0.535,-0.13 0.51,-0.083 0.469,-0.05C0.428,-0.017 0.377,-0 0.316,-0L0.081,-0C0.078,-0 0.076,-0.001 0.075,-0.003C0.073,-0.005 0.072,-0.007 0.073,-0.01L0.157,-0.69C0.157,-0.693 0.158,-0.695 0.16,-0.697C0.162,-0.699 0.164,-0.7 0.167,-0.7L0.395,-0.7C0.452,-0.7 0.497,-0.687 0.529,-0.66C0.561,-0.633 0.577,-0.595 0.577,-0.546C0.577,-0.501 0.567,-0.464 0.546,-0.433C0.525,-0.402 0.495,-0.38 0.457,-0.365ZM0.223,-0.638C0.221,-0.638 0.219,-0.637 0.218,-0.634L0.189,-0.394C0.189,-0.391 0.19,-0.39 0.192,-0.39L0.357,-0.39C0.402,-0.39 0.438,-0.403 0.466,-0.429C0.493,-0.454 0.507,-0.488 0.507,-0.53C0.507,-0.563 0.496,-0.59 0.475,-0.609C0.454,-0.628 0.425,-0.638 0.388,-0.638L0.223,-0.638ZM0.324,-0.063C0.369,-0.063 0.405,-0.077 0.433,-0.106C0.461,-0.134 0.475,-0.171 0.475,-0.217C0.475,-0.252 0.464,-0.279 0.443,-0.3C0.421,-0.32 0.391,-0.33 0.353,-0.33L0.185,-0.33C0.182,-0.33 0.181,-0.329 0.181,-0.326L0.149,-0.067C0.149,-0.064 0.15,-0.063 0.152,-0.063L0.324,-0.063Z" style="fill-rule:nonzero;"/>
                    </g>
                </g>
            </g>
        </g>
        <g transform="matrix(1.16726,0,0,3.09922,-160.571,-1026.42)">
            <g transform="matrix(0.838794,0,0,0.909857,677.955,160.59)">
                <circle cx="498" cy="417" r="123" style="fill:none;stroke:rgb(13,121,242);stroke-width:6px;"/>
            </g>
            <g transform="matrix(0.838794,0,0,0.909857,807.969,160.59)">
                <circle cx="498" cy="417" r="123" style="fill:none;stroke:rgb(13,121,242);stroke-width:6px;"/>
            </g>
            <g transform="matrix(0.838794,0,0,0.909857,0,0)">
                <path d="M1383.75,688.988C1362.59,706.187 1335.62,716.5 1306.25,716.5C1238.36,716.5 1183.25,661.386 1183.25,593.5C1183.25,525.614 1238.36,470.5 1306.25,470.5C1335.62,470.5 1362.59,480.813 1383.75,498.012C1356,520.572 1338.25,554.98 1338.25,593.5C1338.25,632.02 1356,666.428 1383.75,688.988Z" style="fill:rgb(207,230,255);stroke:rgb(13,121,242);stroke-width:6px;"/>
            </g>
            <g transform="matrix(1,0,0,1,803.984,0)">
                <g transform="matrix(0.838794,0,0,0.909857,26.9115,363.963)">
                    <g transform="matrix(58.6339,0,0,58.6339,291,214)">
                        <path d="M0.474,-0C0.469,-0 0.465,-0.003 0.464,-0.008L0.44,-0.134C0.44,-0.136 0.439,-0.137 0.437,-0.137L0.147,-0.137C0.145,-0.137 0.144,-0.136 0.143,-0.134L0.088,-0.008C0.086,-0.003 0.082,-0 0.076,-0L0.023,-0C0.016,-0 0.014,-0.004 0.017,-0.011L0.315,-0.692C0.316,-0.695 0.317,-0.697 0.32,-0.698C0.323,-0.699 0.325,-0.7 0.327,-0.7L0.393,-0.7C0.396,-0.7 0.398,-0.699 0.4,-0.698C0.402,-0.697 0.403,-0.695 0.404,-0.692L0.536,-0.011L0.536,-0.009C0.536,-0.003 0.533,-0 0.527,-0L0.474,-0ZM0.17,-0.2C0.169,-0.199 0.169,-0.198 0.17,-0.197C0.171,-0.196 0.172,-0.195 0.173,-0.195L0.424,-0.195C0.425,-0.195 0.427,-0.196 0.428,-0.197C0.428,-0.198 0.429,-0.199 0.428,-0.2L0.352,-0.608C0.351,-0.609 0.351,-0.61 0.35,-0.61C0.349,-0.61 0.347,-0.609 0.346,-0.608L0.17,-0.2Z" style="fill-rule:nonzero;"/>
                    </g>
                </g>
                <g transform="matrix(0.838794,0,0,0.909857,173.7,363.963)">
                    <g transform="matrix(58.6339,0,0,58.6339,291,214)">
                        <path d="M0.457,-0.365C0.454,-0.363 0.454,-0.361 0.457,-0.359C0.515,-0.334 0.544,-0.288 0.544,-0.22C0.544,-0.215 0.543,-0.205 0.542,-0.19C0.535,-0.13 0.51,-0.083 0.469,-0.05C0.428,-0.017 0.377,-0 0.316,-0L0.081,-0C0.078,-0 0.076,-0.001 0.075,-0.003C0.073,-0.005 0.072,-0.007 0.073,-0.01L0.157,-0.69C0.157,-0.693 0.158,-0.695 0.16,-0.697C0.162,-0.699 0.164,-0.7 0.167,-0.7L0.395,-0.7C0.452,-0.7 0.497,-0.687 0.529,-0.66C0.561,-0.633 0.577,-0.595 0.577,-0.546C0.577,-0.501 0.567,-0.464 0.546,-0.433C0.525,-0.402 0.495,-0.38 0.457,-0.365ZM0.223,-0.638C0.221,-0.638 0.219,-0.637 0.218,-0.634L0.189,-0.394C0.189,-0.391 0.19,-0.39 0.192,-0.39L0.357,-0.39C0.402,-0.39 0.438,-0.403 0.466,-0.429C0.493,-0.454 0.507,-0.488 0.507,-0.53C0.507,-0.563 0.496,-0.59 0.475,-0.609C0.454,-0.628 0.425,-0.638 0.388,-0.638L0.223,-0.638ZM0.324,-0.063C0.369,-0.063 0.405,-0.077 0.433,-0.106C0.461,-0.134 0.475,-0.171 0.475,-0.217C0.475,-0.252 0.464,-0.279 0.443,-0.3C0.421,-0.32 0.391,-0.33 0.353,-0.33L0.185,-0.33C0.182,-0.33 0.181,-0.329 0.181,-0.326L0.149,-0.067C0.149,-0.064 0.15,-0.063 0.152,-0.063L0.324,-0.063Z" style="fill-rule:nonzero;"/>
                    </g>
                </g>
            </g>
        </g>
        <g transform="matrix(1.16726,0,0,3.09922,-160.571,-1026.42)">
            <g transform="matrix(0.838794,0,0,0.909857,276.592,160.59)">
                <circle cx="498" cy="417" r="123" style="fill:rgb(207,230,255);stroke:rgb(13,121,242);stroke-width:6px;"/>
            </g>
            <g transform="matrix(0.838794,0,0,0.909857,406.606,160.59)">
                <circle cx="498" cy="417" r="123" style="fill:rgb(207,230,255);stroke:rgb(13,121,242);stroke-width:6px;"/>
            </g>
            <g transform="matrix(0.838794,0,0,0.909857,0,0)">
                <path d="M905.25,688.988C877.495,666.428 859.75,632.02 859.75,593.5C859.75,554.98 877.495,520.572 905.25,498.012C933.005,520.572 950.75,554.98 950.75,593.5C950.75,632.02 933.005,666.428 905.25,688.988Z" style="fill:rgb(207,230,255);stroke:rgb(13,121,242);stroke-width:6px;"/>
            </g>
            <g transform="matrix(1,0,0,1,402.621,0)">
                <g transform="matrix(0.838794,0,0,0.909857,26.9115,363.963)">
                    <g transform="matrix(58.6339,0,0,58.6339,291,214)">
                        <path d="M0.474,-0C0.469,-0 0.465,-0.003 0.464,-0.008L0.44,-0.134C0.44,-0.136 0.439,-0.137 0.437,-0.137L0.147,-0.137C0.145,-0.137 0.144,-0.136 0.143,-0.134L0.088,-0.008C0.086,-0.003 0.082,-0 0.076,-0L0.023,-0C0.016,-0 0.014,-0.004 0.017,-0.011L0.315,-0.692C0.316,-0.695 0.317,-0.697 0.32,-0.698C0.323,-0.699 0.325,-0.7 0.327,-0.7L0.393,-0.7C0.396,-0.7 0.398,-0.699 0.4,-0.698C0.402,-0.697 0.403,-0.695 0.404,-0.692L0.536,-0.011L0.536,-0.009C0.536,-0.003 0.533,-0 0.527,-0L0.474,-0ZM0.17,-0.2C0.169,-0.199 0.169,-0.198 0.17,-0.197C0.171,-0.196 0.172,-0.195 0.173,-0.195L0.424,-0.195C0.425,-0.195 0.427,-0.196 0.428,-0.197C0.428,-0.198 0.429,-0.199 0.428,-0.2L0.352,-0.608C0.351,-0.609 0.351,-0.61 0.35,-0.61C0.349,-0.61 0.347,-0.609 0.346,-0.608L0.17,-0.2Z" style="fill-rule:nonzero;"/>
                    </g>
                </g>
                <g transform="matrix(0.838794,0,0,0.909857,173.7,363.963)">
                    <g transform="matrix(58.6339,0,0,58.6339,291,214)">
                        <path d="M0.457,-0.365C0.454,-0.363 0.454,-0.361 0.457,-0.359C0.515,-0.334 0.544,-0.288 0.544,-0.22C0.544,-0.215 0.543,-0.205 0.542,-0.19C0.535,-0.13 0.51,-0.083 0.469,-0.05C0.428,-0.017 0.377,-0 0.316,-0L0.081,-0C0.078,-0 0.076,-0.001 0.075,-0.003C0.073,-0.005 0.072,-0.007 0.073,-0.01L0.157,-0.69C0.157,-0.693 0.158,-0.695 0.16,-0.697C0.162,-0.699 0.164,-0.7 0.167,-0.7L0.395,-0.7C0.452,-0.7 0.497,-0.687 0.529,-0.66C0.561,-0.633 0.577,-0.595 0.577,-0.546C0.577,-0.501 0.567,-0.464 0.546,-0.433C0.525,-0.402 0.495,-0.38 0.457,-0.365ZM0.223,-0.638C0.221,-0.638 0.219,-0.637 0.218,-0.634L0.189,-0.394C0.189,-0.391 0.19,-0.39 0.192,-0.39L0.357,-0.39C0.402,-0.39 0.438,-0.403 0.466,-0.429C0.493,-0.454 0.507,-0.488 0.507,-0.53C0.507,-0.563 0.496,-0.59 0.475,-0.609C0.454,-0.628 0.425,-0.638 0.388,-0.638L0.223,-0.638ZM0.324,-0.063C0.369,-0.063 0.405,-0.077 0.433,-0.106C0.461,-0.134 0.475,-0.171 0.475,-0.217C0.475,-0.252 0.464,-0.279 0.443,-0.3C0.421,-0.32 0.391,-0.33 0.353,-0.33L0.185,-0.33C0.182,-0.33 0.181,-0.329 0.181,-0.326L0.149,-0.067C0.149,-0.064 0.15,-0.063 0.152,-0.063L0.324,-0.063Z" style="fill-rule:nonzero;"/>
                    </g>
                </g>
            </g>
        </g>
        <g transform="matrix(1.16726,0,0,3.09922,-160.571,-1026.42)">
            <g transform="matrix(0.838794,0,0,0.909857,1079.32,160.59)">
                <circle cx="498" cy="417" r="123" style="fill:none;stroke:rgb(13,121,242);stroke-width:6px;"/>
            </g>
            <g transform="matrix(0.838794,0,0,0.909857,1209.33,160.59)">
                <circle cx="498" cy="417" r="123" style="fill:none;stroke:rgb(13,121,242);stroke-width:6px;"/>
            </g>
            <g transform="matrix(0.838794,0,0,0.909857,0,0)">
                <path d="M1862.25,688.988C1841.09,706.187 1814.12,716.5 1784.75,716.5C1716.86,716.5 1661.75,661.386 1661.75,593.5C1661.75,525.614 1716.86,470.5 1784.75,470.5C1814.12,470.5 1841.09,480.813 1862.25,498.012C1834.5,520.572 1816.75,554.98 1816.75,593.5C1816.75,632.02 1834.5,666.428 1862.25,688.988Z" style="fill:rgb(207,230,255);stroke:rgb(13,121,242);stroke-width:6px;"/>
            </g>
            <g transform="matrix(0.838794,0,0,0.909857,0,0)">
                <path d="M1862.25,498.012C1883.41,480.813 1910.38,470.5 1939.75,470.5C2007.64,470.5 2062.75,525.614 2062.75,593.5C2062.75,661.386 2007.64,716.5 1939.75,716.5C1910.38,716.5 1883.41,706.187 1862.25,688.988C1890.01,666.428 1907.75,632.02 1907.75,593.5C1907.75,554.98 1890.01,520.572 1862.25,498.012Z" style="fill:rgb(207,230,255);stroke:rgb(13,121,242);stroke-width:6px;"/>
            </g>
            <g transform="matrix(1,0,0,1,1205.35,0)">
                <g transform="matrix(0.838794,0,0,0.909857,26.9115,363.963)">
                    <g transform="matrix(58.6339,0,0,58.6339,291,214)">
                        <path d="M0.474,-0C0.469,-0 0.465,-0.003 0.464,-0.008L0.44,-0.134C0.44,-0.136 0.439,-0.137 0.437,-0.137L0.147,-0.137C0.145,-0.137 0.144,-0.136 0.143,-0.134L0.088,-0.008C0.086,-0.003 0.082,-0 0.076,-0L0.023,-0C0.016,-0 0.014,-0.004 0.017,-0.011L0.315,-0.692C0.316,-0.695 0.317,-0.697 0.32,-0.698C0.323,-0.699 0.325,-0.7 0.327,-0.7L0.393,-0.7C0.396,-0.7 0.398,-0.699 0.4,-0.698C0.402,-0.697 0.403,-0.695 0.404,-0.692L0.536,-0.011L0.536,-0.009C0.536,-0.003 0.533,-0 0.527,-0L0.474,-0ZM0.17,-0.2C0.169,-0.199 0.169,-0.198 0.17,-0.197C0.171,-0.196 0.172,-0.195 0.173,-0.195L0.424,-0.195C0.425,-0.195 0.427,-0.196 0.428,-0.197C0.428,-0.198 0.429,-0.199 0.428,-0.2L0.352,-0.608C0.351,-0.609 0.351,-0.61 0.35,-0.61C0.349,-0.61 0.347,-0.609 0.346,-0.608L0.17,-0.2Z" style="fill-rule:nonzero;"/>
                    </g>
                </g>
                <g transform="matrix(0.838794,0,0,0.909857,173.7,363.963)">
                    <g transform="matrix(58.6339,0,0,58.6339,291,214)">
                        <path d="M0.457,-0.365C0.454,-0.363 0.454,-0.361 0.457,-0.359C0.515,-0.334 0.544,-0.288 0.544,-0.22C0.544,-0.215 0.543,-0.205 0.542,-0.19C0.535,-0.13 0.51,-0.083 0.469,-0.05C0.428,-0.017 0.377,-0 0.316,-0L0.081,-0C0.078,-0 0.076,-0.001 0.075,-0.003C0.073,-0.005 0.072,-0.007 0.073,-0.01L0.157,-0.69C0.157,-0.693 0.158,-0.695 0.16,-0.697C0.162,-0.699 0.164,-0.7 0.167,-0.7L0.395,-0.7C0.452,-0.7 0.497,-0.687 0.529,-0.66C0.561,-0.633 0.577,-0.595 0.577,-0.546C0.577,-0.501 0.567,-0.464 0.546,-0.433C0.525,-0.402 0.495,-0.38 0.457,-0.365ZM0.223,-0.638C0.221,-0.638 0.219,-0.637 0.218,-0.634L0.189,-0.394C0.189,-0.391 0.19,-0.39 0.192,-0.39L0.357,-0.39C0.402,-0.39 0.438,-0.403 0.466,-0.429C0.493,-0.454 0.507,-0.488 0.507,-0.53C0.507,-0.563 0.496,-0.59 0.475,-0.609C0.454,-0.628 0.425,-0.638 0.388,-0.638L0.223,-0.638ZM0.324,-0.063C0.369,-0.063 0.405,-0.077 0.433,-0.106C0.461,-0.134 0.475,-0.171 0.475,-0.217C0.475,-0.252 0.464,-0.279 0.443,-0.3C0.421,-0.32 0.391,-0.33 0.353,-0.33L0.185,-0.33C0.182,-0.33 0.181,-0.329 0.181,-0.326L0.149,-0.067C0.149,-0.064 0.15,-0.063 0.152,-0.063L0.324,-0.063Z" style="fill-rule:nonzero;"/>
                    </g>
                </g>
            </g>
        </g>
        <g transform="matrix(0.979092,0,0,2.81984,-92.7726,-389.077)">
            <g transform="matrix(58.6339,0,0,58.6339,291,214)">
                <path d="M0.474,-0C0.469,-0 0.465,-0.003 0.464,-0.008L0.44,-0.134C0.44,-0.136 0.439,-0.137 0.437,-0.137L0.147,-0.137C0.145,-0.137 0.144,-0.136 0.143,-0.134L0.088,-0.008C0.086,-0.003 0.082,-0 0.076,-0L0.023,-0C0.016,-0 0.014,-0.004 0.017,-0.011L0.315,-0.692C0.316,-0.695 0.317,-0.697 0.32,-0.698C0.323,-0.699 0.325,-0.7 0.327,-0.7L0.393,-0.7C0.396,-0.7 0.398,-0.699 0.4,-0.698C0.402,-0.697 0.403,-0.695 0.404,-0.692L0.536,-0.011L0.536,-0.009C0.536,-0.003 0.533,-0 0.527,-0L0.474,-0ZM0.17,-0.2C0.169,-0.199 0.169,-0.198 0.17,-0.197C0.171,-0.196 0.172,-0.195 0.173,-0.195L0.424,-0.195C0.425,-0.195 0.427,-0.196 0.428,-0.197C0.428,-0.198 0.429,-0.199 0.428,-0.2L0.352,-0.608C0.351,-0.609 0.351,-0.61 0.35,-0.61C0.349,-0.61 0.347,-0.609 0.346,-0.608L0.17,-0.2Z" style="fill-rule:nonzero;"/>
            </g>
            <g transform="matrix(58.6339,0,0,58.6339,336.91,214)">
                <path d="M0.35,-0.68C0.253,-0.68 0.182,-0.649 0.137,-0.585C0.1,-0.535 0.082,-0.466 0.082,-0.379L0.082,-0.036L0.149,-0.036L0.149,-0.381C0.149,-0.536 0.216,-0.613 0.35,-0.613C0.483,-0.613 0.55,-0.536 0.55,-0.381L0.55,-0.036L0.618,-0.036L0.618,-0.379C0.618,-0.466 0.599,-0.535 0.562,-0.585C0.516,-0.649 0.446,-0.68 0.35,-0.68Z" style="fill-rule:nonzero;"/>
            </g>
            <g transform="matrix(58.6339,0,0,58.6339,389.27,214)">
                <path d="M0.457,-0.365C0.454,-0.363 0.454,-0.361 0.457,-0.359C0.515,-0.334 0.544,-0.288 0.544,-0.22C0.544,-0.215 0.543,-0.205 0.542,-0.19C0.535,-0.13 0.51,-0.083 0.469,-0.05C0.428,-0.017 0.377,-0 0.316,-0L0.081,-0C0.078,-0 0.076,-0.001 0.075,-0.003C0.073,-0.005 0.072,-0.007 0.073,-0.01L0.157,-0.69C0.157,-0.693 0.158,-0.695 0.16,-0.697C0.162,-0.699 0.164,-0.7 0.167,-0.7L0.395,-0.7C0.452,-0.7 0.497,-0.687 0.529,-0.66C0.561,-0.633 0.577,-0.595 0.577,-0.546C0.577,-0.501 0.567,-0.464 0.546,-0.433C0.525,-0.402 0.495,-0.38 0.457,-0.365ZM0.223,-0.638C0.221,-0.638 0.219,-0.637 0.218,-0.634L0.189,-0.394C0.189,-0.391 0.19,-0.39 0.192,-0.39L0.357,-0.39C0.402,-0.39 0.438,-0.403 0.466,-0.429C0.493,-0.454 0.507,-0.488 0.507,-0.53C0.507,-0.563 0.496,-0.59 0.475,-0.609C0.454,-0.628 0.425,-0.638 0.388,-0.638L0.223,-0.638ZM0.324,-0.063C0.369,-0.063 0.405,-0.077 0.433,-0.106C0.461,-0.134 0.475,-0.171 0.475,-0.217C0.475,-0.252 0.464,-0.279 0.443,-0.3C0.421,-0.32 0.391,-0.33 0.353,-0.33L0.185,-0.33C0.182,-0.33 0.181,-0.329 0.181,-0.326L0.149,-0.067C0.149,-0.064 0.15,-0.063 0.152,-0.063L0.324,-0.063Z" style="fill-rule:nonzero;"/>
            </g>
        </g>
        <g transform="matrix(0.979092,0,0,2.81984,1304.07,-386.597)">
            <g>
                <g transform="matrix(58.6339,0,0,58.6339,291,214)">
                    <path d="M0.474,-0C0.469,-0 0.465,-0.003 0.464,-0.008L0.44,-0.134C0.44,-0.136 0.439,-0.137 0.437,-0.137L0.147,-0.137C0.145,-0.137 0.144,-0.136 0.143,-0.134L0.088,-0.008C0.086,-0.003 0.082,-0 0.076,-0L0.023,-0C0.016,-0 0.014,-0.004 0.017,-0.011L0.315,-0.692C0.316,-0.695 0.317,-0.697 0.32,-0.698C0.323,-0.699 0.325,-0.7 0.327,-0.7L0.393,-0.7C0.396,-0.7 0.398,-0.699 0.4,-0.698C0.402,-0.697 0.403,-0.695 0.404,-0.692L0.536,-0.011L0.536,-0.009C0.536,-0.003 0.533,-0 0.527,-0L0.474,-0ZM0.17,-0.2C0.169,-0.199 0.169,-0.198 0.17,-0.197C0.171,-0.196 0.172,-0.195 0.173,-0.195L0.424,-0.195C0.425,-0.195 0.427,-0.196 0.428,-0.197C0.428,-0.198 0.429,-0.199 0.428,-0.2L0.352,-0.608C0.351,-0.609 0.351,-0.61 0.35,-0.61C0.349,-0.61 0.347,-0.609 0.346,-0.608L0.17,-0.2Z" style="fill-rule:nonzero;"/>
                </g>
                <g transform="matrix(58.6339,0,0,58.6339,336.91,214)">
                    <path d="M0.5,-0.715L0.093,-0.01L0.907,-0.01L0.5,-0.715ZM0.5,-0.612L0.82,-0.061L0.18,-0.061L0.5,-0.612Z" style="fill-rule:nonzero;"/>
                </g>
                <g transform="matrix(58.6339,0,0,58.6339,406.919,214)">
                    <path d="M0.457,-0.365C0.454,-0.363 0.454,-0.361 0.457,-0.359C0.515,-0.334 0.544,-0.288 0.544,-0.22C0.544,-0.215 0.543,-0.205 0.542,-0.19C0.535,-0.13 0.51,-0.083 0.469,-0.05C0.428,-0.017 0.377,-0 0.316,-0L0.081,-0C0.078,-0 0.076,-0.001 0.075,-0.003C0.073,-0.005 0.072,-0.007 0.073,-0.01L0.157,-0.69C0.157,-0.693 0.158,-0.695 0.16,-0.697C0.162,-0.699 0.164,-0.7 0.167,-0.7L0.395,-0.7C0.452,-0.7 0.497,-0.687 0.529,-0.66C0.561,-0.633 0.577,-0.595 0.577,-0.546C0.577,-0.501 0.567,-0.464 0.546,-0.433C0.525,-0.402 0.495,-0.38 0.457,-0.365ZM0.223,-0.638C0.221,-0.638 0.219,-0.637 0.218,-0.634L0.189,-0.394C0.189,-0.391 0.19,-0.39 0.192,-0.39L0.357,-0.39C0.402,-0.39 0.438,-0.403 0.466,-0.429C0.493,-0.454 0.507,-0.488 0.507,-0.53C0.507,-0.563 0.496,-0.59 0.475,-0.609C0.454,-0.628 0.425,-0.638 0.388,-0.638L0.223,-0.638ZM0.324,-0.063C0.369,-0.063 0.405,-0.077 0.433,-0.106C0.461,-0.134 0.475,-0.171 0.475,-0.217C0.475,-0.252 0.464,-0.279 0.443,-0.3C0.421,-0.32 0.391,-0.33 0.353,-0.33L0.185,-0.33C0.182,-0.33 0.181,-0.329 0.181,-0.326L0.149,-0.067C0.149,-0.064 0.15,-0.063 0.152,-0.063L0.324,-0.063Z" style="fill-rule:nonzero;"/>
                </g>
            </g>
        </g>
        <g transform="matrix(0.979092,0,0,2.81984,375.723,-389.077)">
            <g transform="matrix(58.6339,0,0,58.6339,291,214)">
                <path d="M0.474,-0C0.469,-0 0.465,-0.003 0.464,-0.008L0.44,-0.134C0.44,-0.136 0.439,-0.137 0.437,-0.137L0.147,-0.137C0.145,-0.137 0.144,-0.136 0.143,-0.134L0.088,-0.008C0.086,-0.003 0.082,-0 0.076,-0L0.023,-0C0.016,-0 0.014,-0.004 0.017,-0.011L0.315,-0.692C0.316,-0.695 0.317,-0.697 0.32,-0.698C0.323,-0.699 0.325,-0.7 0.327,-0.7L0.393,-0.7C0.396,-0.7 0.398,-0.699 0.4,-0.698C0.402,-0.697 0.403,-0.695 0.404,-0.692L0.536,-0.011L0.536,-0.009C0.536,-0.003 0.533,-0 0.527,-0L0.474,-0ZM0.17,-0.2C0.169,-0.199 0.169,-0.198 0.17,-0.197C0.171,-0.196 0.172,-0.195 0.173,-0.195L0.424,-0.195C0.425,-0.195 0.427,-0.196 0.428,-0.197C0.428,-0.198 0.429,-0.199 0.428,-0.2L0.352,-0.608C0.351,-0.609 0.351,-0.61 0.35,-0.61C0.349,-0.61 0.347,-0.609 0.346,-0.608L0.17,-0.2Z" style="fill-rule:nonzero;"/>
            </g>
            <g transform="matrix(58.6339,0,0,58.6339,336.91,214)">
                <path d="M0.082,-0.68L0.082,-0.336C0.082,-0.25 0.1,-0.181 0.137,-0.13C0.182,-0.068 0.253,-0.036 0.35,-0.036C0.446,-0.036 0.516,-0.068 0.562,-0.13C0.599,-0.181 0.618,-0.25 0.618,-0.336L0.618,-0.68L0.55,-0.68L0.55,-0.334C0.55,-0.18 0.483,-0.102 0.35,-0.102C0.216,-0.102 0.149,-0.18 0.149,-0.334L0.149,-0.68L0.082,-0.68Z" style="fill-rule:nonzero;"/>
            </g>
            <g transform="matrix(58.6339,0,0,58.6339,389.27,214)">
                <path d="M0.457,-0.365C0.454,-0.363 0.454,-0.361 0.457,-0.359C0.515,-0.334 0.544,-0.288 0.544,-0.22C0.544,-0.215 0.543,-0.205 0.542,-0.19C0.535,-0.13 0.51,-0.083 0.469,-0.05C0.428,-0.017 0.377,-0 0.316,-0L0.081,-0C0.078,-0 0.076,-0.001 0.075,-0.003C0.073,-0.005 0.072,-0.007 0.073,-0.01L0.157,-0.69C0.157,-0.693 0.158,-0.695 0.16,-0.697C0.162,-0.699 0.164,-0.7 0.167,-0.7L0.395,-0.7C0.452,-0.7 0.497,-0.687 0.529,-0.66C0.561,-0.633 0.577,-0.595 0.577,-0.546C0.577,-0.501 0.567,-0.464 0.546,-0.433C0.525,-0.402 0.495,-0.38 0.457,-0.365ZM0.223,-0.638C0.221,-0.638 0.219,-0.637 0.218,-0.634L0.189,-0.394C0.189,-0.391 0.19,-0.39 0.192,-0.39L0.357,-0.39C0.402,-0.39 0.438,-0.403 0.466,-0.429C0.493,-0.454 0.507,-0.488 0.507,-0.53C0.507,-0.563 0.496,-0.59 0.475,-0.609C0.454,-0.628 0.425,-0.638 0.388,-0.638L0.223,-0.638ZM0.324,-0.063C0.369,-0.063 0.405,-0.077 0.433,-0.106C0.461,-0.134 0.475,-0.171 0.475,-0.217C0.475,-0.252 0.464,-0.279 0.443,-0.3C0.421,-0.32 0.391,-0.33 0.353,-0.33L0.185,-0.33C0.182,-0.33 0.181,-0.329 0.181,-0.326L0.149,-0.067C0.149,-0.064 0.15,-0.063 0.152,-0.063L0.324,-0.063Z" style="fill-rule:nonzero;"/>
            </g>
        </g>
        <g transform="matrix(0.979092,0,0,2.81984,841.451,-386.597)">
            <g transform="matrix(58.6339,0,0,58.6339,291,214)">
                <path d="M0.474,-0C0.469,-0 0.465,-0.003 0.464,-0.008L0.44,-0.134C0.44,-0.136 0.439,-0.137 0.437,-0.137L0.147,-0.137C0.145,-0.137 0.144,-0.136 0.143,-0.134L0.088,-0.008C0.086,-0.003 0.082,-0 0.076,-0L0.023,-0C0.016,-0 0.014,-0.004 0.017,-0.011L0.315,-0.692C0.316,-0.695 0.317,-0.697 0.32,-0.698C0.323,-0.699 0.325,-0.7 0.327,-0.7L0.393,-0.7C0.396,-0.7 0.398,-0.699 0.4,-0.698C0.402,-0.697 0.403,-0.695 0.404,-0.692L0.536,-0.011L0.536,-0.009C0.536,-0.003 0.533,-0 0.527,-0L0.474,-0ZM0.17,-0.2C0.169,-0.199 0.169,-0.198 0.17,-0.197C0.171,-0.196 0.172,-0.195 0.173,-0.195L0.424,-0.195C0.425,-0.195 0.427,-0.196 0.428,-0.197C0.428,-0.198 0.429,-0.199 0.428,-0.2L0.352,-0.608C0.351,-0.609 0.351,-0.61 0.35,-0.61C0.349,-0.61 0.347,-0.609 0.346,-0.608L0.17,-0.2Z" style="fill-rule:nonzero;"/>
            </g>
            <g transform="matrix(58.6339,0,0,58.6339,336.91,214)">
                <path d="M0.636,-0L0.108,-0.527L0.16,-0.578L0.687,-0.051L0.636,-0Z" style="fill-rule:nonzero;"/>
            </g>
            <g transform="matrix(58.6339,0,0,58.6339,394.923,214)">
                <path d="M0.457,-0.365C0.454,-0.363 0.454,-0.361 0.457,-0.359C0.515,-0.334 0.544,-0.288 0.544,-0.22C0.544,-0.215 0.543,-0.205 0.542,-0.19C0.535,-0.13 0.51,-0.083 0.469,-0.05C0.428,-0.017 0.377,-0 0.316,-0L0.081,-0C0.078,-0 0.076,-0.001 0.075,-0.003C0.073,-0.005 0.072,-0.007 0.073,-0.01L0.157,-0.69C0.157,-0.693 0.158,-0.695 0.16,-0.697C0.162,-0.699 0.164,-0.7 0.167,-0.7L0.395,-0.7C0.452,-0.7 0.497,-0.687 0.529,-0.66C0.561,-0.633 0.577,-0.595 0.577,-0.546C0.577,-0.501 0.567,-0.464 0.546,-0.433C0.525,-0.402 0.495,-0.38 0.457,-0.365ZM0.223,-0.638C0.221,-0.638 0.219,-0.637 0.218,-0.634L0.189,-0.394C0.189,-0.391 0.19,-0.39 0.192,-0.39L0.357,-0.39C0.402,-0.39 0.438,-0.403 0.466,-0.429C0.493,-0.454 0.507,-0.488 0.507,-0.53C0.507,-0.563 0.496,-0.59 0.475,-0.609C0.454,-0.628 0.425,-0.638 0.388,-0.638L0.223,-0.638ZM0.324,-0.063C0.369,-0.063 0.405,-0.077 0.433,-0.106C0.461,-0.134 0.475,-0.171 0.475,-0.217C0.475,-0.252 0.464,-0.279 0.443,-0.3C0.421,-0.32 0.391,-0.33 0.353,-0.33L0.185,-0.33C0.182,-0.33 0.181,-0.329 0.181,-0.326L0.149,-0.067C0.149,-0.064 0.15,-0.063 0.152,-0.063L0.324,-0.063Z" style="fill-rule:nonzero;"/>
            </g>
        </g>
    </g>
</svg>
