<svg xmlns="http://www.w3.org/2000/svg" width="152" height="95" fill-rule="evenodd" stroke-linecap="round" stroke-linejoin="round" stroke-miterlimit="1.5" xmlns:v="https://vecta.io/nano"><g transform="matrix(.381233 0 0 .132371 -200.72286 -24.448492)"><g stroke-width="6" stroke="#0d79f2" fill="#cfe6ff" transform="matrix(1.16726 0 0 3.09922 -160.571 -1133.58)"><circle cx="498" cy="417" r="123" transform="matrix(.838794 0 0 .909857 276.592 160.59)"/><circle cx="498" cy="417" r="123" transform="matrix(.838794 0 0 .909857 406.606 160.59)"/><path d="M905.25 688.988c-27.755-22.56-45.5-56.968-45.5-95.488s17.745-72.928 45.5-95.488c27.755 22.56 45.5 56.968 45.5 95.488s-17.745 72.928-45.5 95.488z" transform="scale(.838794 .909857)"/></g><path d="M629.907 480.67v105.155h8.496v11.574h-23.422v-11.574h9.989v-89.779l-9.3 16.368-2.182-10.251 12.113-21.494h4.306zm194.312.051c2.469 0 4.65 1.323 6.545 3.803 1.894 2.645 3.387 6.283 4.42 10.747.976 4.299 1.493 9.259 1.493 14.55 0 4.629-.344 8.763-1.033 12.731-.746 3.803-1.722 6.944-2.928 9.59-1.206 2.48-2.526 4.133-3.961 4.96 1.665.331 3.215 1.653 4.593 3.968s2.526 5.456 3.387 9.755c.804 4.133 1.263 9.094 1.263 14.715 0 6.779-.574 12.896-1.78 18.187-1.206 5.456-2.87 9.755-4.994 12.896-2.124 2.976-4.535 4.629-7.291 4.629-2.411 0-4.707-1.323-6.946-3.968-2.182-2.645-4.076-6.448-5.511-11.739l3.33-7.771c1.091 3.803 2.469 6.779 4.076 8.763 1.55 1.984 3.215 2.976 4.937 2.976 1.837 0 3.444-.992 4.822-2.976 1.32-1.984 2.354-4.629 3.1-8.267.689-3.637 1.091-7.771 1.091-12.731 0-14.715-2.813-21.99-8.439-21.99h-3.387l.631-11.408h2.354c1.378 0 2.641-.661 3.789-2.149 1.206-1.488 2.124-3.803 2.87-6.944.689-2.976 1.091-6.779 1.091-11.243 0-4.133-.344-7.771-1.033-10.747s-1.607-5.125-2.756-6.779c-1.148-1.488-2.469-2.315-3.904-2.315-1.665 0-3.215.827-4.535 2.645-1.32 1.653-2.641 4.464-4.019 8.102l-2.756-8.598c3.272-8.928 7.119-13.392 11.482-13.392zm-99.698-1.87c2.526 0 4.707 1.323 6.545 4.133s3.215 6.779 4.248 11.574c.976 4.96 1.435 10.582 1.435 16.699 0 7.275-.574 14.219-1.722 20.998s-3.043 14.219-5.569 22.486c-2.583 8.102-6.2 18.187-10.85 30.588h19.117l-.631 12.07h-24.111v-11.574c5.339-14.715 9.243-26.123 11.826-34.39 2.526-8.267 4.306-15.211 5.282-20.998.976-5.952 1.435-12.07 1.435-18.518 0-6.614-.631-11.904-1.894-15.707-1.32-3.637-3.043-5.621-5.339-5.621-1.952 0-3.559.992-4.822 2.976-1.263 1.819-2.583 4.96-3.904 9.59l-3.387-7.606c1.607-5.787 3.387-9.92 5.396-12.731 1.952-2.645 4.306-3.968 6.946-3.968z" fill-rule="nonzero"/></g></svg>