<?xml version="1.0" encoding="UTF-8" standalone="no"?>
<!DOCTYPE svg PUBLIC "-//W3C//DTD SVG 1.1//EN" "http://www.w3.org/Graphics/SVG/1.1/DTD/svg11.dtd">
<svg width="365px" height="293px" version="1.1" xmlns="http://www.w3.org/2000/svg" xmlns:xlink="http://www.w3.org/1999/xlink" xml:space="preserve" xmlns:serif="http://www.serif.com/" style="fill-rule:evenodd;clip-rule:evenodd;stroke-linejoin:round;stroke-miterlimit:2;">
    <g transform="matrix(1,0,0,1,-449.057,-180)">
        <g transform="matrix(0.365081,0,0,0.365081,485.061,180)">
            <path d="M475,0L450,0C436.2,0 425,11.2 425,25L425,50L375,50L375,25C375,11.2 363.8,0 350,0L325,0C283.575,0 250,33.575 250,75L250,725C250,766.425 283.575,800 325,800L475,800C516.425,800 550,766.425 550,725L550,75C550,33.575 516.425,0 475,0ZM370.5,75L429.5,75L457.55,215.2C460.5,229.95 456.725,245.075 447.2,256.7C437.65,268.325 423.55,275 408.525,275L391.5,275C376.45,275 362.375,268.325 352.825,256.7C343.3,245.075 339.525,229.95 342.475,215.2L370.5,75ZM425,775L325,775C297.375,775 275,752.625 275,725L275,75C275,47.375 297.375,25 325,25L350,25L350,61.025C348.15,63.725 346.65,66.725 345.975,70.1L317.925,210.3C311.7,241.425 325.875,270.825 349.975,287.025L349.975,325C349.975,338.8 361.175,350 374.975,350L424.975,350L424.975,375L374.975,375C361.175,375 349.975,386.2 349.975,400L349.975,425C349.975,438.8 361.175,450 374.975,450L424.975,450L424.975,475L374.975,475C361.175,475 349.975,486.2 349.975,500L349.975,525C349.975,538.8 361.175,550 374.975,550L424.975,550L424.975,575L374.975,575C361.175,575 349.975,586.2 349.975,600L349.975,625C349.975,638.8 361.175,650 374.975,650L424.975,650L424.975,675L374.975,675C361.175,675 349.975,686.2 349.975,700L349.975,725C349.975,738.8 361.175,750 374.975,750L424.975,750L424.975,775L425,775ZM525,725C525,752.625 502.625,775 475,775L450,775L450,750C450,736.2 438.8,725 425,725L375,725L375,700L425,700C438.8,700 450,688.8 450,675L450,650C450,636.2 438.8,625 425,625L375,625L375,600L425,600C438.8,600 450,588.8 450,575L450,550C450,536.2 438.8,525 425,525L375,525L375,500L425,500C438.8,500 450,488.8 450,475L450,450C450,436.2 438.8,425 425,425L375,425L375,400L425,400C438.8,400 450,388.8 450,375L450,350C450,336.2 438.8,325 425,325L375,325L375,298.125C380.3,299.3 385.8,300 391.475,300L408.5,300C455.825,300 491.325,256.7 482.05,210.3L454,70.1C453.35,66.7 451.85,63.725 450,61.025L450,25L475,25C502.625,25 525,47.375 525,75L525,725Z" style="fill:rgb(11,23,25);fill-rule:nonzero;"/>
        </g>
        <g transform="matrix(0.365081,0,0,0.365081,280.59,114.285)">
            <path d="M930.57,255L989.57,255L1017.62,395.2C1020.57,409.95 1016.8,425.075 1007.27,436.7C997.72,448.325 983.62,455 968.595,455L951.57,455C936.52,455 922.445,448.325 912.895,436.7C903.37,425.075 899.595,409.95 902.545,395.2L930.57,255Z" style="fill:rgb(229,242,13);"/>
        </g>
        <g transform="matrix(0.365081,0,0,0.365081,293.028,148.968)">
            <path d="M1051,810C1051,837.625 1028.62,860 1001,860L976,860L976,835C976,821.2 964.8,810 951,810L901,810L901,785L951,785C964.8,785 976,773.8 976,760L976,735C976,721.2 964.8,710 951,710L901,710L901,685L951,685C964.8,685 976,673.8 976,660L976,635C976,621.2 964.8,610 951,610L901,610L901,585L951,585C964.8,585 976,573.8 976,560L976,535C976,521.2 964.8,510 951,510L901,510L901,485L951,485C964.8,485 976,473.8 976,460L976,435C976,421.2 964.8,410 951,410L901,410L901,383.125C906.3,384.3 911.8,385 917.475,385L934.5,385C981.825,385 1017.33,341.7 1008.05,295.3L980,155.1C979.35,151.7 977.85,148.725 976,146.025L976,110L1001,110C1028.62,110 1051,132.375 1051,160L1051,810Z" style="fill:rgb(0,190,255);"/>
        </g>
        <g transform="matrix(0.365081,0,0,0.365081,293.028,148.968)">
            <path d="M950.975,860L851,860C823.375,860 801,837.625 801,810L801,160C801,132.375 823.375,110 851,110L876,110L876,146.025C874.15,148.725 872.65,151.725 871.975,155.1L843.925,295.3C837.7,326.425 851.875,355.825 875.975,372.025L875.975,410C875.975,423.8 887.175,435 900.975,435L950.975,435L950.975,460L900.975,460C887.175,460 875.975,471.2 875.975,485L875.975,510C875.975,523.8 887.175,535 900.975,535L950.975,535L950.975,560L900.975,560C887.175,560 875.975,571.2 875.975,585L875.975,610C875.975,623.8 887.175,635 900.975,635L950.975,635L950.975,660L900.975,660C887.175,660 875.975,671.2 875.975,685L875.975,710C875.975,723.8 887.175,735 900.975,735L950.975,735L950.975,760L900.975,760C887.175,760 875.975,771.2 875.975,785L875.975,810C875.975,823.8 887.175,835 900.975,835L950.975,835L950.975,860Z" style="fill:rgb(255,132,0);"/>
        </g>
        <g transform="matrix(0.296931,0,0,0.401263,346.022,130.575)">
            <path d="M791,403L380.531,403C371.638,403 363.109,405.614 356.821,410.267C350.533,414.921 347,421.232 347,427.813C347,457.41 347,506.59 347,536.187C347,542.768 350.533,549.079 356.821,553.733C363.109,558.386 371.638,561 380.531,561C483.944,561 791,561 791,561L791,403Z"/>
        </g>
        <g transform="matrix(-0.296931,0,0,0.401263,916.164,132.624)">
            <path d="M791,403L380.531,403C371.638,403 363.109,405.614 356.821,410.267C350.533,414.921 347,421.232 347,427.813C347,457.41 347,506.59 347,536.187C347,542.768 350.533,549.079 356.821,553.733C363.109,558.386 371.638,561 380.531,561C483.944,561 791,561 791,561L791,403Z"/>
        </g>
        <g transform="matrix(0.302705,0,0,0.365081,347.018,147.873)">
            <path d="M791,403L371.198,403C357.834,403 347,411.983 347,423.063L347,540.937C347,552.017 357.834,561 371.198,561L791,561L791,403Z" style="fill:rgb(255,132,0);"/>
        </g>
        <g transform="matrix(-0.302705,0,0,0.365081,915.168,150.063)">
            <path d="M791,403L371.198,403C357.834,403 347,411.983 347,423.063L347,540.937C347,552.017 357.834,561 371.198,561L791,561L791,403Z" style="fill:rgb(0,190,255);"/>
        </g>
        <g transform="matrix(0.365081,0,0,0.365081,393.567,169.587)">
            <g transform="matrix(93.5351,0,0,93.5351,203,459)">
                <path d="M0.366,0.013C0.324,0.013 0.291,0.006 0.268,-0.006C0.244,-0.019 0.228,-0.04 0.218,-0.07C0.208,-0.1 0.203,-0.142 0.203,-0.195L0.203,-0.631L0.088,-0.631L0.088,-0.727L0.307,-0.727L0.307,-0.195C0.307,-0.153 0.312,-0.124 0.32,-0.108C0.328,-0.092 0.344,-0.084 0.366,-0.084C0.377,-0.084 0.389,-0.087 0.401,-0.095C0.414,-0.102 0.431,-0.115 0.454,-0.134L0.512,-0.045C0.485,-0.023 0.461,-0.008 0.44,0C0.42,0.009 0.395,0.013 0.366,0.013Z" style="fill:rgb(11,23,25);fill-rule:nonzero;"/>
            </g>
            <g transform="matrix(93.5351,0,0,93.5351,254.019,459)">
                <path d="M0.349,-0.562L0.349,-0.096L0.508,-0.096L0.508,-0L0.085,-0L0.085,-0.096L0.245,-0.096L0.245,-0.465L0.13,-0.465L0.13,-0.562L0.349,-0.562ZM0.28,-0.644C0.25,-0.644 0.229,-0.649 0.218,-0.66C0.207,-0.67 0.201,-0.69 0.201,-0.718C0.201,-0.747 0.207,-0.766 0.218,-0.777C0.229,-0.787 0.25,-0.793 0.28,-0.793C0.31,-0.793 0.331,-0.787 0.343,-0.777C0.354,-0.766 0.36,-0.747 0.36,-0.718C0.36,-0.69 0.354,-0.67 0.343,-0.66C0.331,-0.649 0.31,-0.644 0.28,-0.644Z" style="fill:rgb(11,23,25);fill-rule:nonzero;"/>
            </g>
            <g transform="matrix(93.5351,0,0,93.5351,305.038,459)">
                <path d="M0.25,0.013C0.2,0.013 0.16,0.004 0.13,-0.015C0.101,-0.033 0.075,-0.065 0.051,-0.111L0.134,-0.179C0.146,-0.151 0.156,-0.131 0.165,-0.118C0.174,-0.105 0.185,-0.097 0.197,-0.091C0.21,-0.086 0.228,-0.084 0.25,-0.084C0.292,-0.084 0.323,-0.086 0.345,-0.091C0.366,-0.096 0.38,-0.104 0.388,-0.115C0.396,-0.126 0.4,-0.142 0.4,-0.164C0.4,-0.185 0.397,-0.2 0.39,-0.21C0.384,-0.22 0.373,-0.227 0.356,-0.232C0.34,-0.237 0.312,-0.242 0.274,-0.246C0.2,-0.255 0.147,-0.272 0.115,-0.295C0.082,-0.318 0.065,-0.355 0.065,-0.405C0.065,-0.446 0.073,-0.479 0.088,-0.503C0.103,-0.528 0.128,-0.546 0.161,-0.557C0.194,-0.569 0.239,-0.575 0.295,-0.575C0.349,-0.575 0.39,-0.567 0.42,-0.551C0.45,-0.535 0.477,-0.507 0.501,-0.467L0.425,-0.393C0.411,-0.418 0.4,-0.436 0.39,-0.447C0.38,-0.459 0.368,-0.467 0.355,-0.471C0.341,-0.476 0.321,-0.478 0.295,-0.478C0.261,-0.478 0.235,-0.476 0.217,-0.472C0.199,-0.468 0.187,-0.46 0.18,-0.45C0.173,-0.44 0.17,-0.425 0.17,-0.405C0.17,-0.391 0.174,-0.38 0.181,-0.373C0.188,-0.365 0.199,-0.36 0.214,-0.356C0.228,-0.353 0.251,-0.349 0.281,-0.345C0.338,-0.336 0.383,-0.326 0.415,-0.313C0.447,-0.301 0.47,-0.283 0.484,-0.26C0.498,-0.236 0.505,-0.204 0.505,-0.164C0.505,-0.121 0.497,-0.087 0.48,-0.061C0.464,-0.036 0.437,-0.017 0.4,-0.005C0.362,0.007 0.312,0.013 0.25,0.013Z" style="fill:rgb(11,23,25);fill-rule:nonzero;"/>
            </g>
            <g transform="matrix(93.5351,0,0,93.5351,356.057,459)">
                <path d="M0.332,0.013C0.288,0.013 0.252,0.005 0.225,-0.01C0.199,-0.025 0.179,-0.049 0.167,-0.082C0.154,-0.115 0.148,-0.159 0.148,-0.213L0.148,-0.476L0.035,-0.476L0.035,-0.573L0.148,-0.573L0.148,-0.727L0.253,-0.727L0.253,-0.573L0.441,-0.573L0.441,-0.476L0.253,-0.476L0.253,-0.213C0.253,-0.179 0.255,-0.153 0.26,-0.134C0.265,-0.116 0.273,-0.103 0.284,-0.095C0.295,-0.087 0.311,-0.084 0.332,-0.084C0.354,-0.084 0.37,-0.085 0.38,-0.088C0.39,-0.091 0.398,-0.097 0.402,-0.105C0.407,-0.112 0.412,-0.126 0.418,-0.145L0.516,-0.112C0.507,-0.08 0.495,-0.056 0.481,-0.038C0.466,-0.02 0.447,-0.007 0.424,0.001C0.401,0.009 0.37,0.013 0.332,0.013Z" style="fill:rgb(11,23,25);fill-rule:nonzero;"/>
            </g>
            <g transform="matrix(93.5351,0,0,93.5351,407.077,459)">
                <path d="M0.249,0.013C0.196,0.013 0.153,0.007 0.121,-0.005C0.09,-0.018 0.067,-0.037 0.052,-0.062C0.038,-0.088 0.031,-0.122 0.031,-0.165C0.031,-0.214 0.038,-0.251 0.052,-0.278C0.066,-0.304 0.088,-0.323 0.12,-0.333C0.151,-0.344 0.194,-0.349 0.249,-0.349L0.364,-0.349L0.364,-0.369C0.364,-0.395 0.36,-0.414 0.354,-0.428C0.348,-0.442 0.336,-0.452 0.32,-0.458C0.304,-0.463 0.28,-0.466 0.249,-0.466C0.224,-0.466 0.204,-0.464 0.191,-0.459C0.178,-0.453 0.167,-0.444 0.16,-0.431C0.153,-0.418 0.146,-0.397 0.139,-0.37L0.039,-0.395C0.05,-0.438 0.064,-0.472 0.08,-0.498C0.096,-0.524 0.118,-0.543 0.145,-0.556C0.173,-0.568 0.207,-0.575 0.249,-0.575C0.328,-0.575 0.384,-0.558 0.418,-0.524C0.451,-0.49 0.468,-0.439 0.468,-0.369L0.468,-0.156C0.468,-0.132 0.471,-0.115 0.475,-0.107C0.48,-0.099 0.491,-0.095 0.506,-0.095C0.511,-0.095 0.522,-0.096 0.539,-0.097L0.539,-0.001C0.532,-0 0.522,-0 0.509,-0C0.456,-0 0.42,-0.012 0.4,-0.036C0.384,-0.019 0.363,-0.006 0.339,0.001C0.315,0.009 0.285,0.013 0.249,0.013ZM0.249,-0.084C0.28,-0.084 0.304,-0.087 0.32,-0.095C0.336,-0.102 0.348,-0.114 0.354,-0.132C0.36,-0.149 0.364,-0.175 0.364,-0.208L0.364,-0.253L0.249,-0.253C0.215,-0.253 0.19,-0.251 0.175,-0.248C0.161,-0.244 0.151,-0.237 0.145,-0.225C0.138,-0.213 0.135,-0.193 0.135,-0.165C0.135,-0.143 0.138,-0.126 0.145,-0.115C0.151,-0.104 0.162,-0.096 0.178,-0.091C0.194,-0.086 0.218,-0.084 0.249,-0.084Z" style="fill:rgb(11,23,25);fill-rule:nonzero;"/>
            </g>
            <g transform="matrix(93.5351,0,0,93.5351,458.096,459)">
                <path d="M0.325,-0.096L0.455,-0.096L0.455,-0L0.092,-0L0.092,-0.096L0.221,-0.096L0.221,-0.525C0.18,-0.501 0.131,-0.489 0.074,-0.489L0.074,-0.586C0.123,-0.586 0.159,-0.598 0.183,-0.62C0.207,-0.643 0.219,-0.679 0.219,-0.727L0.325,-0.727L0.325,-0.096Z" style="fill:rgb(11,23,25);fill-rule:nonzero;"/>
            </g>
        </g>
        <g transform="matrix(0.365081,0,0,0.365081,613.296,169.587)">
            <g transform="matrix(93.5351,0,0,93.5351,203,459)">
                <path d="M0.366,0.013C0.324,0.013 0.291,0.006 0.268,-0.006C0.244,-0.019 0.228,-0.04 0.218,-0.07C0.208,-0.1 0.203,-0.142 0.203,-0.195L0.203,-0.631L0.088,-0.631L0.088,-0.727L0.307,-0.727L0.307,-0.195C0.307,-0.153 0.312,-0.124 0.32,-0.108C0.328,-0.092 0.344,-0.084 0.366,-0.084C0.377,-0.084 0.389,-0.087 0.401,-0.095C0.414,-0.102 0.431,-0.115 0.454,-0.134L0.512,-0.045C0.485,-0.023 0.461,-0.008 0.44,0C0.42,0.009 0.395,0.013 0.366,0.013Z" style="fill:rgb(11,23,25);fill-rule:nonzero;"/>
            </g>
            <g transform="matrix(93.5351,0,0,93.5351,254.019,459)">
                <path d="M0.349,-0.562L0.349,-0.096L0.508,-0.096L0.508,-0L0.085,-0L0.085,-0.096L0.245,-0.096L0.245,-0.465L0.13,-0.465L0.13,-0.562L0.349,-0.562ZM0.28,-0.644C0.25,-0.644 0.229,-0.649 0.218,-0.66C0.207,-0.67 0.201,-0.69 0.201,-0.718C0.201,-0.747 0.207,-0.766 0.218,-0.777C0.229,-0.787 0.25,-0.793 0.28,-0.793C0.31,-0.793 0.331,-0.787 0.343,-0.777C0.354,-0.766 0.36,-0.747 0.36,-0.718C0.36,-0.69 0.354,-0.67 0.343,-0.66C0.331,-0.649 0.31,-0.644 0.28,-0.644Z" style="fill:rgb(11,23,25);fill-rule:nonzero;"/>
            </g>
            <g transform="matrix(93.5351,0,0,93.5351,305.038,459)">
                <path d="M0.25,0.013C0.2,0.013 0.16,0.004 0.13,-0.015C0.101,-0.033 0.075,-0.065 0.051,-0.111L0.134,-0.179C0.146,-0.151 0.156,-0.131 0.165,-0.118C0.174,-0.105 0.185,-0.097 0.197,-0.091C0.21,-0.086 0.228,-0.084 0.25,-0.084C0.292,-0.084 0.323,-0.086 0.345,-0.091C0.366,-0.096 0.38,-0.104 0.388,-0.115C0.396,-0.126 0.4,-0.142 0.4,-0.164C0.4,-0.185 0.397,-0.2 0.39,-0.21C0.384,-0.22 0.373,-0.227 0.356,-0.232C0.34,-0.237 0.312,-0.242 0.274,-0.246C0.2,-0.255 0.147,-0.272 0.115,-0.295C0.082,-0.318 0.065,-0.355 0.065,-0.405C0.065,-0.446 0.073,-0.479 0.088,-0.503C0.103,-0.528 0.128,-0.546 0.161,-0.557C0.194,-0.569 0.239,-0.575 0.295,-0.575C0.349,-0.575 0.39,-0.567 0.42,-0.551C0.45,-0.535 0.477,-0.507 0.501,-0.467L0.425,-0.393C0.411,-0.418 0.4,-0.436 0.39,-0.447C0.38,-0.459 0.368,-0.467 0.355,-0.471C0.341,-0.476 0.321,-0.478 0.295,-0.478C0.261,-0.478 0.235,-0.476 0.217,-0.472C0.199,-0.468 0.187,-0.46 0.18,-0.45C0.173,-0.44 0.17,-0.425 0.17,-0.405C0.17,-0.391 0.174,-0.38 0.181,-0.373C0.188,-0.365 0.199,-0.36 0.214,-0.356C0.228,-0.353 0.251,-0.349 0.281,-0.345C0.338,-0.336 0.383,-0.326 0.415,-0.313C0.447,-0.301 0.47,-0.283 0.484,-0.26C0.498,-0.236 0.505,-0.204 0.505,-0.164C0.505,-0.121 0.497,-0.087 0.48,-0.061C0.464,-0.036 0.437,-0.017 0.4,-0.005C0.362,0.007 0.312,0.013 0.25,0.013Z" style="fill:rgb(11,23,25);fill-rule:nonzero;"/>
            </g>
            <g transform="matrix(93.5351,0,0,93.5351,356.057,459)">
                <path d="M0.332,0.013C0.288,0.013 0.252,0.005 0.225,-0.01C0.199,-0.025 0.179,-0.049 0.167,-0.082C0.154,-0.115 0.148,-0.159 0.148,-0.213L0.148,-0.476L0.035,-0.476L0.035,-0.573L0.148,-0.573L0.148,-0.727L0.253,-0.727L0.253,-0.573L0.441,-0.573L0.441,-0.476L0.253,-0.476L0.253,-0.213C0.253,-0.179 0.255,-0.153 0.26,-0.134C0.265,-0.116 0.273,-0.103 0.284,-0.095C0.295,-0.087 0.311,-0.084 0.332,-0.084C0.354,-0.084 0.37,-0.085 0.38,-0.088C0.39,-0.091 0.398,-0.097 0.402,-0.105C0.407,-0.112 0.412,-0.126 0.418,-0.145L0.516,-0.112C0.507,-0.08 0.495,-0.056 0.481,-0.038C0.466,-0.02 0.447,-0.007 0.424,0.001C0.401,0.009 0.37,0.013 0.332,0.013Z" style="fill:rgb(11,23,25);fill-rule:nonzero;"/>
            </g>
            <g transform="matrix(93.5351,0,0,93.5351,407.077,459)">
                <path d="M0.249,0.013C0.196,0.013 0.153,0.007 0.121,-0.005C0.09,-0.018 0.067,-0.037 0.052,-0.062C0.038,-0.088 0.031,-0.122 0.031,-0.165C0.031,-0.214 0.038,-0.251 0.052,-0.278C0.066,-0.304 0.088,-0.323 0.12,-0.333C0.151,-0.344 0.194,-0.349 0.249,-0.349L0.364,-0.349L0.364,-0.369C0.364,-0.395 0.36,-0.414 0.354,-0.428C0.348,-0.442 0.336,-0.452 0.32,-0.458C0.304,-0.463 0.28,-0.466 0.249,-0.466C0.224,-0.466 0.204,-0.464 0.191,-0.459C0.178,-0.453 0.167,-0.444 0.16,-0.431C0.153,-0.418 0.146,-0.397 0.139,-0.37L0.039,-0.395C0.05,-0.438 0.064,-0.472 0.08,-0.498C0.096,-0.524 0.118,-0.543 0.145,-0.556C0.173,-0.568 0.207,-0.575 0.249,-0.575C0.328,-0.575 0.384,-0.558 0.418,-0.524C0.451,-0.49 0.468,-0.439 0.468,-0.369L0.468,-0.156C0.468,-0.132 0.471,-0.115 0.475,-0.107C0.48,-0.099 0.491,-0.095 0.506,-0.095C0.511,-0.095 0.522,-0.096 0.539,-0.097L0.539,-0.001C0.532,-0 0.522,-0 0.509,-0C0.456,-0 0.42,-0.012 0.4,-0.036C0.384,-0.019 0.363,-0.006 0.339,0.001C0.315,0.009 0.285,0.013 0.249,0.013ZM0.249,-0.084C0.28,-0.084 0.304,-0.087 0.32,-0.095C0.336,-0.102 0.348,-0.114 0.354,-0.132C0.36,-0.149 0.364,-0.175 0.364,-0.208L0.364,-0.253L0.249,-0.253C0.215,-0.253 0.19,-0.251 0.175,-0.248C0.161,-0.244 0.151,-0.237 0.145,-0.225C0.138,-0.213 0.135,-0.193 0.135,-0.165C0.135,-0.143 0.138,-0.126 0.145,-0.115C0.151,-0.104 0.162,-0.096 0.178,-0.091C0.194,-0.086 0.218,-0.084 0.249,-0.084Z" style="fill:rgb(11,23,25);fill-rule:nonzero;"/>
            </g>
            <g transform="matrix(93.5351,0,0,93.5351,458.096,459)">
                <path d="M0.035,-0.069C0.035,-0.102 0.043,-0.132 0.061,-0.16C0.079,-0.189 0.101,-0.214 0.127,-0.236C0.153,-0.259 0.187,-0.285 0.229,-0.315C0.27,-0.346 0.302,-0.371 0.325,-0.39C0.348,-0.41 0.367,-0.432 0.383,-0.456C0.399,-0.481 0.407,-0.507 0.407,-0.535C0.407,-0.565 0.403,-0.588 0.396,-0.603C0.388,-0.618 0.375,-0.628 0.356,-0.635C0.338,-0.641 0.309,-0.644 0.272,-0.644C0.235,-0.644 0.208,-0.641 0.189,-0.635C0.17,-0.628 0.157,-0.618 0.15,-0.603C0.142,-0.588 0.138,-0.565 0.138,-0.535C0.138,-0.523 0.138,-0.514 0.139,-0.507L0.035,-0.507C0.032,-0.566 0.038,-0.612 0.052,-0.645C0.067,-0.679 0.091,-0.703 0.126,-0.718C0.161,-0.733 0.209,-0.74 0.272,-0.74C0.331,-0.74 0.378,-0.733 0.413,-0.72C0.448,-0.707 0.473,-0.685 0.489,-0.655C0.504,-0.626 0.512,-0.585 0.512,-0.535C0.512,-0.491 0.501,-0.451 0.479,-0.415C0.457,-0.378 0.43,-0.347 0.4,-0.32C0.369,-0.293 0.329,-0.262 0.281,-0.227C0.24,-0.199 0.209,-0.175 0.187,-0.155C0.165,-0.135 0.15,-0.116 0.142,-0.096L0.51,-0.096L0.51,-0L0.035,-0L0.035,-0.069Z" style="fill:rgb(11,23,25);fill-rule:nonzero;"/>
            </g>
        </g>
        <g transform="matrix(2.23548e-17,-0.365081,0.365081,2.23548e-17,473.113,343.426)">
            <g transform="matrix(84,0,0,84,203,459)">
                <path d="M0.483,-0L0.063,-0L0.063,-0.063L0.339,-0.465L0.064,-0.465L0.064,-0.562L0.482,-0.562L0.482,-0.499L0.205,-0.096L0.483,-0.096L0.483,-0Z" style="fill:rgb(11,23,25);fill-rule:nonzero;"/>
            </g>
            <g transform="matrix(84,0,0,84,248.818,459)">
                <path d="M0.349,-0.562L0.349,-0.096L0.508,-0.096L0.508,-0L0.085,-0L0.085,-0.096L0.245,-0.096L0.245,-0.465L0.13,-0.465L0.13,-0.562L0.349,-0.562ZM0.28,-0.644C0.25,-0.644 0.229,-0.649 0.218,-0.66C0.207,-0.67 0.201,-0.69 0.201,-0.718C0.201,-0.747 0.207,-0.766 0.218,-0.777C0.229,-0.787 0.25,-0.793 0.28,-0.793C0.31,-0.793 0.331,-0.787 0.343,-0.777C0.354,-0.766 0.36,-0.747 0.36,-0.718C0.36,-0.69 0.354,-0.67 0.343,-0.66C0.331,-0.649 0.31,-0.644 0.28,-0.644Z" style="fill:rgb(11,23,25);fill-rule:nonzero;"/>
            </g>
            <g transform="matrix(84,0,0,84,294.636,459)">
                <path d="M0.053,0.165L0.053,-0.562L0.158,-0.562L0.158,-0.556C0.193,-0.568 0.234,-0.575 0.279,-0.575C0.335,-0.575 0.38,-0.565 0.413,-0.545C0.445,-0.525 0.469,-0.494 0.483,-0.452C0.497,-0.409 0.505,-0.353 0.505,-0.282C0.505,-0.211 0.497,-0.154 0.483,-0.111C0.469,-0.069 0.445,-0.037 0.413,-0.017C0.38,0.003 0.335,0.013 0.279,0.013C0.236,0.013 0.196,0.005 0.158,-0.009L0.158,0.165L0.053,0.165ZM0.279,-0.084C0.311,-0.084 0.335,-0.09 0.352,-0.102C0.37,-0.114 0.382,-0.134 0.389,-0.162C0.396,-0.19 0.4,-0.23 0.4,-0.282C0.4,-0.333 0.396,-0.373 0.389,-0.401C0.382,-0.429 0.37,-0.449 0.352,-0.46C0.335,-0.472 0.311,-0.478 0.279,-0.478C0.198,-0.478 0.158,-0.461 0.158,-0.425L0.158,-0.211C0.158,-0.167 0.168,-0.135 0.186,-0.115C0.205,-0.094 0.236,-0.084 0.279,-0.084Z" style="fill:rgb(11,23,25);fill-rule:nonzero;"/>
            </g>
        </g>
    </g>
</svg>
