<svg xmlns="http://www.w3.org/2000/svg" xmlns:xlink="http://www.w3.org/1999/xlink" width="365" height="293" fill-rule="evenodd" stroke-linejoin="round" stroke-miterlimit="2" xmlns:v="https://vecta.io/nano"><path d="M209.417 0h-9.127c-5.038 0-9.127 4.089-9.127 9.127v9.127h-18.254V9.127c0-5.038-4.089-9.127-9.127-9.127h-9.127c-15.123 0-27.381 12.258-27.381 27.381v237.303c0 15.123 12.258 27.381 27.381 27.381h54.762c15.123 0 27.381-12.258 27.381-27.381V27.381C236.799 12.258 224.541 0 209.417 0zm-38.151 27.381h21.54l10.241 51.184a18.19 18.19 0 0 1-3.779 15.151c-3.487 4.244-8.634 6.681-14.12 6.681h-6.216a18.2 18.2 0 0 1-14.12-6.681 18.19 18.19 0 0 1-3.779-15.151l10.231-51.184zm19.897 255.557h-36.508c-10.085 0-18.254-8.169-18.254-18.254V27.381c0-10.085 8.169-18.254 18.254-18.254h9.127v13.152c-.675.986-1.223 2.081-1.469 3.313l-10.241 51.184c-2.273 11.363 2.902 22.097 11.701 28.011v13.864c0 5.038 4.089 9.127 9.127 9.127h18.254v9.127H172.9c-5.038 0-9.127 4.089-9.127 9.127v9.127c0 5.038 4.089 9.127 9.127 9.127h18.254v9.127H172.9c-5.038 0-9.127 4.089-9.127 9.127v9.127c0 5.038 4.089 9.127 9.127 9.127h18.254v9.127H172.9c-5.038 0-9.127 4.089-9.127 9.127v9.127c0 5.038 4.089 9.127 9.127 9.127h18.254v9.127H172.9c-5.038 0-9.127 4.089-9.127 9.127v9.127c0 5.038 4.089 9.127 9.127 9.127h18.254v9.127h.009zm36.508-18.254c0 10.085-8.169 18.254-18.254 18.254h-9.127v-9.127c0-5.038-4.089-9.127-9.127-9.127h-18.254v-9.127h18.254c5.038 0 9.127-4.089 9.127-9.127v-9.127c0-5.038-4.089-9.127-9.127-9.127h-18.254v-9.127h18.254c5.038 0 9.127-4.089 9.127-9.127v-9.127c0-5.038-4.089-9.127-9.127-9.127h-18.254v-9.127h18.254c5.038 0 9.127-4.089 9.127-9.127v-9.127c0-5.038-4.089-9.127-9.127-9.127h-18.254v-9.127h18.254c5.038 0 9.127-4.089 9.127-9.127v-9.127c0-5.038-4.089-9.127-9.127-9.127h-18.254v-9.812c1.935.429 3.943.685 6.015.685h6.216c17.277 0 30.238-15.808 26.852-32.748l-10.241-51.184c-.237-1.241-.785-2.327-1.46-3.313V9.127h9.127c10.085 0 18.254 8.169 18.254 18.254v237.303z" fill="#0b1719" fill-rule="nonzero"/><path d="M171.266 27.381h21.54l10.241 51.184c1.077 5.385-.299 10.907-3.779 15.151-3.487 4.244-8.634 6.681-14.12 6.681h-6.216a18.2 18.2 0 0 1-14.12-6.681 18.19 18.19 0 0 1-3.779-15.151l10.231-51.184z" fill="#e5f20d"/><path d="M227.671 264.684c0 10.085-8.171 18.254-18.254 18.254h-9.127v-9.127c0-5.038-4.089-9.127-9.127-9.127h-18.254v-9.127h18.254c5.038 0 9.127-4.089 9.127-9.127v-9.127c0-5.038-4.089-9.127-9.127-9.127h-18.254v-9.127h18.254c5.038 0 9.127-4.089 9.127-9.127v-9.127c0-5.038-4.089-9.127-9.127-9.127h-18.254v-9.127h18.254c5.038 0 9.127-4.089 9.127-9.127v-9.127c0-5.038-4.089-9.127-9.127-9.127h-18.254v-9.127h18.254c5.038 0 9.127-4.089 9.127-9.127v-9.127c0-5.038-4.089-9.127-9.127-9.127h-18.254v-9.812c1.935.429 3.943.685 6.015.685h6.216c17.277 0 30.24-15.808 26.852-32.748L201.75 25.592c-.237-1.241-.785-2.327-1.46-3.313V9.127h9.127c10.084 0 18.254 8.169 18.254 18.254v237.303z" fill="#00beff"/><path d="M191.154 282.938h-36.499c-10.085 0-18.254-8.169-18.254-18.254V27.381c0-10.085 8.169-18.254 18.254-18.254h9.127v13.152c-.675.986-1.223 2.081-1.469 3.313l-10.241 51.184c-2.273 11.363 2.902 22.097 11.701 28.011v13.864c0 5.038 4.089 9.127 9.127 9.127h18.254v9.127H172.9c-5.038 0-9.127 4.089-9.127 9.127v9.127c0 5.038 4.089 9.127 9.127 9.127h18.254v9.127H172.9c-5.038 0-9.127 4.089-9.127 9.127v9.127c0 5.038 4.089 9.127 9.127 9.127h18.254v9.127H172.9c-5.038 0-9.127 4.089-9.127 9.127v9.127c0 5.038 4.089 9.127 9.127 9.127h18.254v9.127H172.9c-5.038 0-9.127 4.089-9.127 9.127v9.127c0 5.038 4.089 9.127 9.127 9.127h18.254v9.127z" fill="#ff8400"/><path d="M131.837 112.284H9.956c-2.641 0-5.173 1.049-7.04 2.916A9.96 9.96 0 0 0 0 122.241v43.486a9.96 9.96 0 0 0 2.916 7.041c1.867 1.867 4.4 2.916 7.04 2.916h121.881v-63.4zm100.398 2.049h121.881c2.641 0 5.173 1.049 7.04 2.916a9.96 9.96 0 0 1 2.916 7.041v43.486a9.96 9.96 0 0 1-2.916 7.041c-1.867 1.867-4.4 2.916-7.04 2.916H232.235v-63.4z"/><path d="M137.401 115.001H10.324c-4.045 0-7.325 3.28-7.325 7.325v43.034c0 4.045 3.28 7.325 7.325 7.325h127.076v-57.683z" fill="#ff8400"/><path d="M226.671 117.191h127.076c4.045 0 7.325 3.28 7.325 7.325v43.034c0 4.045-3.28 7.325-7.325 7.325H226.671v-57.683z" fill="#00beff"/><g fill="#0b1719" fill-rule="nonzero"><use xlink:href="#B"/><path d="M49.165 137.968v15.913h5.43v3.278H40.15v-3.278h5.464V141.28h-3.927v-3.312h7.478zm-2.356-2.8c-1.024 0-1.742-.171-2.117-.546-.376-.341-.581-1.024-.581-1.981 0-.99.205-1.639.581-2.015.376-.341 1.093-.546 2.117-.546s1.742.205 2.151.546c.376.376.581 1.024.581 2.015 0 .956-.205 1.639-.581 1.981-.41.376-1.127.546-2.151.546z"/><use xlink:href="#C"/><use xlink:href="#D"/><use xlink:href="#E"/><path d="M122.85 153.881h4.439v3.278h-12.396v-3.278h4.405v-14.649c-1.4.82-3.073 1.229-5.02 1.229v-3.312c1.673 0 2.903-.41 3.722-1.161.82-.785 1.229-2.015 1.229-3.654h3.62v21.547z"/><use xlink:href="#B" x="219.729"/><path d="M268.894 137.968v15.913h5.43v3.278h-14.445v-3.278h5.464V141.28h-3.927v-3.312h7.478zm-2.356-2.8c-1.024 0-1.742-.171-2.117-.546-.376-.341-.581-1.024-.581-1.981 0-.99.205-1.639.581-2.015.376-.341 1.093-.546 2.117-.546s1.742.205 2.151.546c.376.376.581 1.024.581 2.015 0 .956-.205 1.639-.581 1.981-.41.376-1.127.546-2.151.546z"/><use xlink:href="#C" x="219.729"/><use xlink:href="#D" x="219.729"/><use xlink:href="#E" x="219.729"/><path d="M332.676 154.803c0-1.127.273-2.151.888-3.107.615-.99 1.366-1.844 2.254-2.595.888-.785 2.049-1.673 3.483-2.698l3.278-2.561c.785-.683 1.434-1.434 1.981-2.254.546-.854.82-1.742.82-2.698 0-1.024-.137-1.81-.376-2.322-.273-.512-.717-.854-1.366-1.093-.615-.205-1.605-.307-2.868-.307s-2.185.102-2.834.307c-.649.239-1.093.581-1.332 1.093-.273.512-.41 1.298-.41 2.322l.034.956h-3.551c-.102-2.015.102-3.586.581-4.712.512-1.161 1.332-1.981 2.527-2.493s2.834-.751 4.986-.751c2.015 0 3.62.239 4.815.683s2.049 1.195 2.595 2.22c.512.99.785 2.39.785 4.098 0 1.503-.376 2.868-1.127 4.098-.751 1.263-1.673 2.322-2.698 3.244-1.059.922-2.425 1.981-4.064 3.176-1.4.956-2.459 1.776-3.21 2.459s-1.263 1.332-1.537 2.015h12.566v3.278h-16.22v-2.356z"/></g><path d="M243.572 459h-35.28v-5.292l23.184-33.768h-23.1v-8.148h35.112v5.292l-23.268 33.852h23.352V459zm34.562-47.208v39.144h13.356V459h-35.532v-8.064h13.44V419.94h-9.66v-8.148h18.396zm-5.796-6.888c-2.52 0-4.284-.42-5.208-1.344-.924-.84-1.428-2.52-1.428-4.872 0-2.436.504-4.032 1.428-4.956.924-.84 2.688-1.344 5.208-1.344s4.284.504 5.292 1.344c.924.924 1.428 2.52 1.428 4.956 0 2.352-.504 4.032-1.428 4.872-1.008.924-2.772 1.344-5.292 1.344zm26.75 67.956v-61.068h8.82v.504c2.94-1.008 6.384-1.596 10.164-1.596 4.704 0 8.484.84 11.256 2.52 2.688 1.68 4.704 4.284 5.88 7.812 1.176 3.612 1.848 8.316 1.848 14.28s-.672 10.752-1.848 14.364c-1.176 3.528-3.192 6.216-5.88 7.896-2.772 1.68-6.552 2.52-11.256 2.52-3.612 0-6.972-.672-10.164-1.848v14.616h-8.82zm18.984-20.916c2.688 0 4.704-.504 6.132-1.512 1.512-1.008 2.52-2.688 3.108-5.04s.924-5.712.924-10.08c0-4.284-.336-7.644-.924-9.996s-1.596-4.032-3.108-4.956c-1.428-1.008-3.444-1.512-6.132-1.512-6.804 0-10.164 1.428-10.164 4.452v17.976c0 3.696.84 6.384 2.352 8.064 1.596 1.764 4.2 2.604 7.812 2.604z" transform="matrix(0 -.365081 .365081 0 24.056 163.426)" fill="#0b1719" fill-rule="nonzero"/><defs ><path id="B" d="M31.12 157.603c-1.434 0-2.561-.239-3.346-.649-.82-.444-1.366-1.161-1.707-2.185s-.512-2.459-.512-4.268v-14.888h-3.927v-3.278h7.478V150.5c0 1.434.171 2.425.444 2.971s.82.82 1.571.82c.376 0 .785-.102 1.195-.376.444-.239 1.024-.683 1.81-1.332l1.981 3.039c-.922.751-1.742 1.263-2.459 1.537-.683.307-1.537.444-2.527.444z"/><path id="C" d="M64.411 157.603c-1.707 0-3.073-.307-4.098-.956-.99-.615-1.878-1.707-2.698-3.278l2.834-2.322c.41.956.751 1.639 1.059 2.083s.683.717 1.093.922c.444.171 1.059.239 1.81.239 1.434 0 2.493-.068 3.244-.239.717-.171 1.195-.444 1.468-.82s.41-.922.41-1.673c0-.717-.102-1.229-.341-1.571-.205-.341-.581-.581-1.161-.751-.546-.171-1.503-.341-2.8-.478-2.527-.307-4.337-.888-5.43-1.673-1.127-.785-1.707-2.049-1.707-3.756 0-1.4.273-2.527.785-3.346.512-.854 1.366-1.468 2.493-1.844 1.127-.41 2.664-.615 4.576-.615 1.844 0 3.244.273 4.268.82s1.946 1.503 2.766 2.868l-2.595 2.527c-.478-.854-.854-1.468-1.195-1.844-.341-.41-.751-.683-1.195-.82-.478-.171-1.161-.239-2.049-.239-1.161 0-2.049.068-2.664.205s-1.024.41-1.263.751-.341.854-.341 1.537c0 .478.137.854.376 1.093.239.273.615.444 1.127.581l2.288.376c1.946.307 3.483.649 4.576 1.093 1.093.41 1.878 1.024 2.356 1.81.478.82.717 1.912.717 3.278 0 1.468-.273 2.629-.854 3.517-.546.854-1.468 1.503-2.732 1.912-1.298.41-3.005.615-5.122.615z"/><path id="D" d="M85.837 157.603c-1.503 0-2.732-.273-3.654-.785-.888-.512-1.571-1.332-1.981-2.459-.444-1.127-.649-2.629-.649-4.473v-8.981h-3.859v-3.312h3.859v-5.259h3.586v5.259h6.42v3.312h-6.42v8.981c0 1.161.068 2.049.239 2.698.171.615.444 1.059.82 1.332s.922.376 1.639.376c.751 0 1.298-.034 1.639-.137s.615-.307.751-.581c.171-.239.341-.717.546-1.366l3.346 1.127c-.307 1.093-.717 1.912-1.195 2.527-.512.615-1.161 1.059-1.946 1.332s-1.844.41-3.142.41z"/><path id="E" d="M101.629 157.603c-1.81 0-3.278-.205-4.371-.615-1.059-.444-1.844-1.093-2.356-1.946-.478-.888-.717-2.049-.717-3.517 0-1.673.239-2.937.717-3.859.478-.888 1.229-1.537 2.322-1.878 1.059-.376 2.527-.546 4.405-.546h3.927v-.683c0-.888-.137-1.537-.341-2.015s-.615-.82-1.161-1.024c-.546-.171-1.366-.273-2.425-.273-.854 0-1.537.068-1.981.239-.444.205-.82.512-1.059.956s-.478 1.161-.717 2.083l-3.415-.854c.376-1.468.854-2.629 1.4-3.517s1.298-1.537 2.22-1.981c.956-.41 2.117-.649 3.551-.649 2.698 0 4.61.581 5.771 1.742 1.127 1.161 1.707 2.903 1.707 5.293v7.274c0 .82.102 1.4.239 1.673.171.273.546.41 1.059.41.171 0 .546-.034 1.127-.068v3.278c-.239.034-.581.034-1.024.034-1.81 0-3.039-.41-3.722-1.229-.546.581-1.263 1.024-2.083 1.263-.82.273-1.844.41-3.073.41zm0-3.312c1.059 0 1.878-.102 2.425-.376.546-.239.956-.649 1.161-1.263.205-.581.341-1.468.341-2.595v-1.537h-3.927c-1.161 0-2.015.068-2.527.171-.478.137-.82.376-1.024.785-.239.41-.341 1.093-.341 2.049 0 .751.102 1.332.341 1.707.205.376.581.649 1.127.82s1.366.239 2.425.239z"/></defs></svg>