<?xml version="1.0" encoding="UTF-8" standalone="no"?>
<!DOCTYPE svg PUBLIC "-//W3C//DTD SVG 1.1//EN" "http://www.w3.org/Graphics/SVG/1.1/DTD/svg11.dtd">
<svg width="380px" height="75px" version="1.1" xmlns="http://www.w3.org/2000/svg" xmlns:xlink="http://www.w3.org/1999/xlink" xml:space="preserve" xmlns:serif="http://www.serif.com/" style="fill-rule:evenodd;clip-rule:evenodd;stroke-linejoin:round;stroke-miterlimit:2;">
    <g transform="matrix(1,0,0,1,-35,-34)">
        <g transform="matrix(0.234375,0,0,0.132407,0,0)">
            <g id="elif-light">
                <g transform="matrix(2.19811,0,0,3.89088,-652.651,-652.463)">
                    <g transform="matrix(68.4063,0,0,68.4063,361,287)">
                        <path d="M0.171,-0.239C0.172,-0.199 0.18,-0.166 0.194,-0.139C0.209,-0.112 0.228,-0.092 0.251,-0.079C0.274,-0.066 0.3,-0.06 0.329,-0.06C0.355,-0.06 0.38,-0.064 0.402,-0.072C0.425,-0.08 0.448,-0.092 0.473,-0.109L0.513,-0.052C0.488,-0.032 0.459,-0.016 0.426,-0.005C0.394,0.006 0.361,0.012 0.328,0.012C0.276,0.012 0.232,0 0.194,-0.023C0.157,-0.046 0.129,-0.079 0.109,-0.122C0.09,-0.164 0.081,-0.213 0.081,-0.269C0.081,-0.324 0.09,-0.372 0.11,-0.415C0.129,-0.458 0.157,-0.491 0.192,-0.515C0.228,-0.539 0.269,-0.551 0.316,-0.551C0.362,-0.551 0.401,-0.541 0.434,-0.519C0.467,-0.498 0.492,-0.468 0.509,-0.428C0.527,-0.388 0.536,-0.341 0.536,-0.287C0.536,-0.271 0.535,-0.255 0.534,-0.239L0.171,-0.239ZM0.317,-0.481C0.276,-0.481 0.242,-0.466 0.216,-0.437C0.189,-0.407 0.175,-0.364 0.171,-0.306L0.453,-0.306C0.452,-0.363 0.439,-0.406 0.415,-0.436C0.391,-0.466 0.359,-0.481 0.317,-0.481Z" style="fill:rgb(56,167,19);fill-rule:nonzero;"/>
                    </g>
                    <g transform="matrix(68.4063,0,0,68.4063,403.096,287)">
                        <path d="M0.313,-0.133C0.313,-0.108 0.321,-0.089 0.337,-0.078C0.353,-0.066 0.375,-0.06 0.403,-0.06C0.432,-0.06 0.462,-0.066 0.493,-0.079L0.516,-0.016C0.5,-0.008 0.481,-0.001 0.459,0.004C0.437,0.009 0.414,0.012 0.388,0.012C0.356,0.012 0.328,0.006 0.304,-0.006C0.279,-0.018 0.261,-0.035 0.247,-0.058C0.234,-0.081 0.227,-0.107 0.227,-0.138L0.227,-0.689L0.062,-0.689L0.062,-0.757L0.313,-0.757L0.313,-0.133Z" style="fill:rgb(56,167,19);fill-rule:nonzero;"/>
                    </g>
                    <g transform="matrix(68.4063,0,0,68.4063,445.192,287)">
                        <path d="M0.287,-0.059C0.328,-0.059 0.361,-0.067 0.385,-0.083C0.409,-0.098 0.421,-0.119 0.421,-0.145C0.421,-0.163 0.418,-0.178 0.412,-0.189C0.405,-0.2 0.393,-0.211 0.374,-0.221C0.355,-0.23 0.328,-0.239 0.29,-0.249C0.249,-0.259 0.215,-0.27 0.189,-0.282C0.163,-0.294 0.142,-0.31 0.128,-0.33C0.113,-0.349 0.106,-0.374 0.106,-0.404C0.106,-0.434 0.115,-0.46 0.132,-0.482C0.149,-0.504 0.173,-0.521 0.204,-0.533C0.235,-0.545 0.271,-0.551 0.311,-0.551C0.352,-0.551 0.389,-0.546 0.421,-0.535C0.454,-0.524 0.483,-0.51 0.507,-0.492L0.469,-0.433C0.447,-0.449 0.423,-0.461 0.398,-0.469C0.373,-0.477 0.345,-0.482 0.312,-0.482C0.272,-0.482 0.242,-0.475 0.223,-0.463C0.205,-0.45 0.195,-0.433 0.195,-0.411C0.195,-0.395 0.2,-0.382 0.208,-0.371C0.217,-0.361 0.231,-0.352 0.251,-0.344C0.271,-0.336 0.3,-0.326 0.339,-0.316C0.378,-0.305 0.41,-0.294 0.435,-0.281C0.46,-0.268 0.479,-0.251 0.493,-0.229C0.507,-0.208 0.514,-0.182 0.514,-0.149C0.514,-0.113 0.504,-0.082 0.483,-0.058C0.461,-0.034 0.434,-0.016 0.399,-0.005C0.365,0.006 0.327,0.012 0.287,0.012C0.202,0.012 0.131,-0.012 0.075,-0.061L0.125,-0.118C0.146,-0.099 0.171,-0.085 0.199,-0.075C0.227,-0.065 0.256,-0.059 0.287,-0.059Z" style="fill-rule:nonzero;"/>
                    </g>
                    <g transform="matrix(68.4063,0,0,68.4063,487.289,287)">
                        <path d="M0.171,-0.239C0.172,-0.199 0.18,-0.166 0.194,-0.139C0.209,-0.112 0.228,-0.092 0.251,-0.079C0.274,-0.066 0.3,-0.06 0.329,-0.06C0.355,-0.06 0.38,-0.064 0.402,-0.072C0.425,-0.08 0.448,-0.092 0.473,-0.109L0.513,-0.052C0.488,-0.032 0.459,-0.016 0.426,-0.005C0.394,0.006 0.361,0.012 0.328,0.012C0.276,0.012 0.232,0 0.194,-0.023C0.157,-0.046 0.129,-0.079 0.109,-0.122C0.09,-0.164 0.081,-0.213 0.081,-0.269C0.081,-0.324 0.09,-0.372 0.11,-0.415C0.129,-0.458 0.157,-0.491 0.192,-0.515C0.228,-0.539 0.269,-0.551 0.316,-0.551C0.362,-0.551 0.401,-0.541 0.434,-0.519C0.467,-0.498 0.492,-0.468 0.509,-0.428C0.527,-0.388 0.536,-0.341 0.536,-0.287C0.536,-0.271 0.535,-0.255 0.534,-0.239L0.171,-0.239ZM0.317,-0.481C0.276,-0.481 0.242,-0.466 0.216,-0.437C0.189,-0.407 0.175,-0.364 0.171,-0.306L0.453,-0.306C0.452,-0.363 0.439,-0.406 0.415,-0.436C0.391,-0.466 0.359,-0.481 0.317,-0.481Z" style="fill-rule:nonzero;"/>
                    </g>
                    <g transform="matrix(68.4063,0,0,68.4063,529.385,287)">
                        <path d="M0.224,-0.442C0.224,-0.457 0.228,-0.47 0.235,-0.483C0.242,-0.496 0.252,-0.506 0.265,-0.513C0.277,-0.52 0.291,-0.524 0.307,-0.524C0.322,-0.524 0.337,-0.52 0.349,-0.513C0.362,-0.506 0.372,-0.496 0.379,-0.483C0.387,-0.47 0.39,-0.457 0.39,-0.442C0.39,-0.426 0.387,-0.413 0.379,-0.4C0.372,-0.387 0.362,-0.377 0.349,-0.369C0.337,-0.362 0.322,-0.358 0.307,-0.358C0.291,-0.358 0.277,-0.362 0.265,-0.369C0.252,-0.377 0.242,-0.387 0.235,-0.4C0.228,-0.413 0.224,-0.426 0.224,-0.442ZM0.224,-0.072C0.224,-0.086 0.228,-0.1 0.235,-0.113C0.242,-0.125 0.252,-0.136 0.265,-0.143C0.277,-0.151 0.291,-0.154 0.307,-0.154C0.322,-0.154 0.336,-0.151 0.349,-0.143C0.362,-0.136 0.372,-0.125 0.379,-0.113C0.387,-0.1 0.39,-0.086 0.39,-0.072C0.39,-0.056 0.387,-0.042 0.379,-0.029C0.372,-0.017 0.362,-0.007 0.349,0.001C0.337,0.008 0.322,0.012 0.307,0.012C0.291,0.012 0.277,0.008 0.265,0.001C0.252,-0.007 0.242,-0.017 0.235,-0.029C0.228,-0.042 0.224,-0.056 0.224,-0.072Z" style="fill-rule:nonzero;"/>
                    </g>
                </g>
                <g transform="matrix(2.19811,0,0,3.89088,389.251,-477.452)">
                    <g transform="matrix(68.4063,0,0,68.4063,361,287)">
                        <path d="M0.171,-0.239C0.172,-0.199 0.18,-0.166 0.194,-0.139C0.209,-0.112 0.228,-0.092 0.251,-0.079C0.274,-0.066 0.3,-0.06 0.329,-0.06C0.355,-0.06 0.38,-0.064 0.402,-0.072C0.425,-0.08 0.448,-0.092 0.473,-0.109L0.513,-0.052C0.488,-0.032 0.459,-0.016 0.426,-0.005C0.394,0.006 0.361,0.012 0.328,0.012C0.276,0.012 0.232,0 0.194,-0.023C0.157,-0.046 0.129,-0.079 0.109,-0.122C0.09,-0.164 0.081,-0.213 0.081,-0.269C0.081,-0.324 0.09,-0.372 0.11,-0.415C0.129,-0.458 0.157,-0.491 0.192,-0.515C0.228,-0.539 0.269,-0.551 0.316,-0.551C0.362,-0.551 0.401,-0.541 0.434,-0.519C0.467,-0.498 0.492,-0.468 0.509,-0.428C0.527,-0.388 0.536,-0.341 0.536,-0.287C0.536,-0.271 0.535,-0.255 0.534,-0.239L0.171,-0.239ZM0.317,-0.481C0.276,-0.481 0.242,-0.466 0.216,-0.437C0.189,-0.407 0.175,-0.364 0.171,-0.306L0.453,-0.306C0.452,-0.363 0.439,-0.406 0.415,-0.436C0.391,-0.466 0.359,-0.481 0.317,-0.481Z" style="fill:rgb(56,167,19);fill-rule:nonzero;"/>
                    </g>
                    <g transform="matrix(68.4063,0,0,68.4063,403.096,287)">
                        <path d="M0.313,-0.133C0.313,-0.108 0.321,-0.089 0.337,-0.078C0.353,-0.066 0.375,-0.06 0.403,-0.06C0.432,-0.06 0.462,-0.066 0.493,-0.079L0.516,-0.016C0.5,-0.008 0.481,-0.001 0.459,0.004C0.437,0.009 0.414,0.012 0.388,0.012C0.356,0.012 0.328,0.006 0.304,-0.006C0.279,-0.018 0.261,-0.035 0.247,-0.058C0.234,-0.081 0.227,-0.107 0.227,-0.138L0.227,-0.689L0.062,-0.689L0.062,-0.757L0.313,-0.757L0.313,-0.133Z" style="fill:rgb(56,167,19);fill-rule:nonzero;"/>
                    </g>
                    <g transform="matrix(68.4063,0,0,68.4063,445.192,287)">
                        <path d="M0.308,-0.793C0.326,-0.793 0.342,-0.787 0.353,-0.776C0.365,-0.764 0.371,-0.75 0.371,-0.733C0.371,-0.715 0.365,-0.7 0.353,-0.689C0.342,-0.677 0.326,-0.671 0.308,-0.671C0.29,-0.671 0.275,-0.677 0.263,-0.689C0.251,-0.701 0.246,-0.715 0.246,-0.733C0.246,-0.75 0.251,-0.764 0.263,-0.776C0.275,-0.787 0.29,-0.793 0.308,-0.793ZM0.129,-0.54L0.376,-0.54L0.376,-0.068L0.529,-0.068L0.529,-0L0.124,-0L0.124,-0.068L0.29,-0.068L0.29,-0.472L0.129,-0.472L0.129,-0.54Z" style="fill:rgb(217,38,165);fill-rule:nonzero;"/>
                    </g>
                    <g transform="matrix(68.4063,0,0,68.4063,487.289,287)">
                        <path d="M0.422,-0.768C0.45,-0.768 0.476,-0.766 0.499,-0.761C0.523,-0.756 0.546,-0.749 0.568,-0.739L0.541,-0.675C0.507,-0.69 0.468,-0.697 0.425,-0.697C0.349,-0.697 0.311,-0.668 0.311,-0.608L0.311,-0.498L0.494,-0.498L0.485,-0.43L0.311,-0.43L0.311,-0L0.225,-0L0.225,-0.43L0.096,-0.43L0.096,-0.498L0.225,-0.498L0.225,-0.606C0.225,-0.638 0.234,-0.667 0.251,-0.691C0.268,-0.716 0.291,-0.735 0.321,-0.748C0.351,-0.762 0.384,-0.768 0.422,-0.768Z" style="fill:rgb(217,38,165);fill-rule:nonzero;"/>
                    </g>
                    <g transform="matrix(68.4063,0,0,68.4063,613.577,287)">
                        <path d="M-0.397,-0.079C-0.397,-0.095 -0.394,-0.11 -0.386,-0.124C-0.378,-0.138 -0.367,-0.149 -0.353,-0.157C-0.34,-0.165 -0.324,-0.169 -0.308,-0.169C-0.291,-0.169 -0.275,-0.165 -0.261,-0.157C-0.247,-0.149 -0.237,-0.138 -0.229,-0.124C-0.221,-0.11 -0.217,-0.095 -0.217,-0.079C-0.217,-0.062 -0.221,-0.047 -0.229,-0.033C-0.237,-0.019 -0.247,-0.008 -0.261,-0C-0.275,0.008 -0.291,0.012 -0.308,0.012C-0.324,0.012 -0.34,0.008 -0.353,-0C-0.367,-0.008 -0.378,-0.019 -0.386,-0.033C-0.394,-0.047 -0.397,-0.062 -0.397,-0.079ZM0.013,-0.079C0.013,-0.095 0.017,-0.11 0.025,-0.124C0.032,-0.138 0.043,-0.149 0.057,-0.157C0.071,-0.165 0.086,-0.169 0.103,-0.169C0.12,-0.169 0.135,-0.165 0.149,-0.157C0.163,-0.149 0.174,-0.138 0.182,-0.124C0.189,-0.11 0.193,-0.095 0.193,-0.079C0.193,-0.062 0.189,-0.047 0.182,-0.033C0.174,-0.019 0.163,-0.008 0.149,-0C0.135,0.008 0.12,0.012 0.103,0.012C0.086,0.012 0.071,0.008 0.057,-0C0.043,-0.008 0.032,-0.019 0.025,-0.033C0.017,-0.047 0.013,-0.062 0.013,-0.079ZM-0.808,-0.079C-0.808,-0.095 -0.804,-0.11 -0.796,-0.124C-0.788,-0.138 -0.777,-0.149 -0.764,-0.157C-0.75,-0.165 -0.735,-0.169 -0.718,-0.169C-0.701,-0.169 -0.685,-0.165 -0.672,-0.157C-0.658,-0.149 -0.647,-0.138 -0.639,-0.124C-0.631,-0.11 -0.627,-0.095 -0.627,-0.079C-0.627,-0.062 -0.631,-0.047 -0.639,-0.033C-0.647,-0.019 -0.658,-0.008 -0.672,-0C-0.685,0.008 -0.701,0.012 -0.718,0.012C-0.735,0.012 -0.75,0.008 -0.764,-0C-0.777,-0.008 -0.788,-0.019 -0.796,-0.033C-0.804,-0.047 -0.808,-0.062 -0.808,-0.079Z" style="fill-rule:nonzero;"/>
                    </g>
                </g>
                <g transform="matrix(2.19811,0,0,3.89088,-267.982,-337.302)">
                    <g transform="matrix(68.4063,0,0,68.4063,361,287)">
                        <path d="M0.308,-0.793C0.326,-0.793 0.342,-0.787 0.353,-0.776C0.365,-0.764 0.371,-0.75 0.371,-0.733C0.371,-0.715 0.365,-0.7 0.353,-0.689C0.342,-0.677 0.326,-0.671 0.308,-0.671C0.29,-0.671 0.275,-0.677 0.263,-0.689C0.251,-0.701 0.246,-0.715 0.246,-0.733C0.246,-0.75 0.251,-0.764 0.263,-0.776C0.275,-0.787 0.29,-0.793 0.308,-0.793ZM0.129,-0.54L0.376,-0.54L0.376,-0.068L0.529,-0.068L0.529,-0L0.124,-0L0.124,-0.068L0.29,-0.068L0.29,-0.472L0.129,-0.472L0.129,-0.54Z" style="fill:rgb(217,38,165);fill-rule:nonzero;"/>
                    </g>
                    <g transform="matrix(68.4063,0,0,68.4063,403.096,287)">
                        <path d="M0.422,-0.768C0.45,-0.768 0.476,-0.766 0.499,-0.761C0.523,-0.756 0.546,-0.749 0.568,-0.739L0.541,-0.675C0.507,-0.69 0.468,-0.697 0.425,-0.697C0.349,-0.697 0.311,-0.668 0.311,-0.608L0.311,-0.498L0.494,-0.498L0.485,-0.43L0.311,-0.43L0.311,-0L0.225,-0L0.225,-0.43L0.096,-0.43L0.096,-0.498L0.225,-0.498L0.225,-0.606C0.225,-0.638 0.234,-0.667 0.251,-0.691C0.268,-0.716 0.291,-0.735 0.321,-0.748C0.351,-0.762 0.384,-0.768 0.422,-0.768Z" style="fill:rgb(217,38,165);fill-rule:nonzero;"/>
                    </g>
                    <g transform="matrix(68.4063,0,0,68.4063,529.385,287)">
                        <path d="M-0.397,-0.079C-0.397,-0.095 -0.394,-0.11 -0.386,-0.124C-0.378,-0.138 -0.367,-0.149 -0.353,-0.157C-0.34,-0.165 -0.324,-0.169 -0.308,-0.169C-0.291,-0.169 -0.275,-0.165 -0.261,-0.157C-0.247,-0.149 -0.237,-0.138 -0.229,-0.124C-0.221,-0.11 -0.217,-0.095 -0.217,-0.079C-0.217,-0.062 -0.221,-0.047 -0.229,-0.033C-0.237,-0.019 -0.247,-0.008 -0.261,-0C-0.275,0.008 -0.291,0.012 -0.308,0.012C-0.324,0.012 -0.34,0.008 -0.353,-0C-0.367,-0.008 -0.378,-0.019 -0.386,-0.033C-0.394,-0.047 -0.397,-0.062 -0.397,-0.079ZM0.013,-0.079C0.013,-0.095 0.017,-0.11 0.025,-0.124C0.032,-0.138 0.043,-0.149 0.057,-0.157C0.071,-0.165 0.086,-0.169 0.103,-0.169C0.12,-0.169 0.135,-0.165 0.149,-0.157C0.163,-0.149 0.174,-0.138 0.182,-0.124C0.189,-0.11 0.193,-0.095 0.193,-0.079C0.193,-0.062 0.189,-0.047 0.182,-0.033C0.174,-0.019 0.163,-0.008 0.149,-0C0.135,0.008 0.12,0.012 0.103,0.012C0.086,0.012 0.071,0.008 0.057,-0C0.043,-0.008 0.032,-0.019 0.025,-0.033C0.017,-0.047 0.013,-0.062 0.013,-0.079ZM-0.808,-0.079C-0.808,-0.095 -0.804,-0.11 -0.796,-0.124C-0.788,-0.138 -0.777,-0.149 -0.764,-0.157C-0.75,-0.165 -0.735,-0.169 -0.718,-0.169C-0.701,-0.169 -0.685,-0.165 -0.672,-0.157C-0.658,-0.149 -0.647,-0.138 -0.639,-0.124C-0.631,-0.11 -0.627,-0.095 -0.627,-0.079C-0.627,-0.062 -0.631,-0.047 -0.639,-0.033C-0.647,-0.019 -0.658,-0.008 -0.672,-0C-0.685,0.008 -0.701,0.012 -0.718,0.012C-0.735,0.012 -0.75,0.008 -0.764,-0C-0.777,-0.008 -0.788,-0.019 -0.796,-0.033C-0.804,-0.047 -0.808,-0.062 -0.808,-0.079Z" style="fill-rule:nonzero;"/>
                    </g>
                </g>
                <g transform="matrix(10.4465,0,0,18.4914,994.544,262.619)">
                    <path d="M9.031,16.282L9.031,13.751C8.25,13.72 7.625,13.532 7.125,13.157C6.656,12.813 6.281,12.282 6.094,11.594C5.875,10.906 5.781,9.594 5.781,7.688C5.75,5.844 5.718,4.532 5.625,3.844C5.5,2.875 5.219,2.094 4.781,1.531C4.375,0.937 3.843,0.5 3.125,0.281C2.656,0.093 1.875,-0 0.844,-0L-0,-0L-0,2.469L0.469,2.469C1.407,2.469 2.032,2.563 2.344,2.782C2.656,3.001 2.875,3.407 3,3.938C3.094,4.313 3.125,5.657 3.125,7.969C3.125,10.188 3.406,11.719 3.875,12.688C4.344,13.657 5.188,14.438 6.406,15.001C5.5,15.376 4.75,15.939 4.25,16.657C3.75,17.375 3.406,18.376 3.25,19.626C3.187,20.314 3.125,21.876 3.125,24.376C3.125,25.72 2.969,26.595 2.625,26.97C2.281,27.345 1.562,27.595 0.469,27.595L-0,27.595L-0,30.001L0.844,30.001C1.75,30.001 2.407,29.97 2.813,29.845C3.501,29.657 4.063,29.345 4.469,28.907C4.907,28.501 5.25,27.876 5.469,27.126C5.657,26.376 5.782,25.157 5.782,23.438C5.813,21.719 5.813,20.625 5.845,20.157C5.876,19.157 6.064,18.407 6.345,17.876C6.595,17.376 6.97,16.938 7.47,16.626C7.845,16.407 8.408,16.282 9.033,16.282L9.031,16.282Z" style="fill:rgb(196,196,196);fill-rule:nonzero;"/>
                </g>
            </g>
        </g>
    </g>
</svg>
