<?xml version="1.0" encoding="UTF-8" standalone="no"?>
<!DOCTYPE svg PUBLIC "-//W3C//DTD SVG 1.1//EN" "http://www.w3.org/Graphics/SVG/1.1/DTD/svg11.dtd">
<svg width="571px" height="126px" version="1.1" xmlns="http://www.w3.org/2000/svg" xmlns:xlink="http://www.w3.org/1999/xlink" xml:space="preserve" xmlns:serif="http://www.serif.com/" style="fill-rule:evenodd;clip-rule:evenodd;stroke-linejoin:round;stroke-miterlimit:2;">
    <g transform="matrix(1,0,0,1,-791,0)">
        <g id="four-spaces-dark" transform="matrix(0.297396,0,0,0.116667,791,0)">
            <rect x="0" y="0" width="1920" height="1080" style="fill:rgb(30,33,41);"/>
            <g transform="matrix(2.68854,0,0,3.7051,-989.875,-513.741)">
                <rect x="386" y="257" width="50" height="71" style="fill:rgb(38,217,185);"/>
            </g>
            <g transform="matrix(2.68854,0,0,3.7051,-988.944,-182.145)">
                <rect x="386" y="257" width="50" height="71" style="fill:rgb(38,217,185);"/>
            </g>
            <g transform="matrix(2.68854,0,0,3.7051,-842.005,-513.741)">
                <rect x="386" y="257" width="50" height="71" style="fill:rgb(38,217,185);"/>
            </g>
            <g transform="matrix(2.68854,0,0,3.7051,-841.074,-182.145)">
                <rect x="386" y="257" width="50" height="71" style="fill:rgb(38,217,185);"/>
            </g>
            <g transform="matrix(2.68854,0,0,3.7051,-694.135,-513.741)">
                <rect x="386" y="257" width="50" height="71" style="fill:rgb(38,217,185);"/>
            </g>
            <g transform="matrix(2.68854,0,0,3.7051,-693.205,-182.145)">
                <rect x="386" y="257" width="50" height="71" style="fill:rgb(38,217,185);"/>
            </g>
            <g transform="matrix(2.68854,0,0,3.7051,-546.266,-513.741)">
                <rect x="386" y="257" width="50" height="71" style="fill:rgb(38,217,185);"/>
            </g>
            <g transform="matrix(2.68854,0,0,3.7051,-545.335,-182.145)">
                <rect x="386" y="257" width="50" height="71" style="fill:rgb(38,217,185);"/>
            </g>
            <g transform="matrix(2.68854,0,0,3.7051,-397.465,-182.145)">
                <rect x="386" y="257" width="50" height="71" style="fill:rgb(38,217,185);"/>
            </g>
            <g transform="matrix(2.68854,0,0,3.7051,-249.596,-182.145)">
                <rect x="386" y="257" width="50" height="71" style="fill:rgb(38,217,185);"/>
            </g>
            <g transform="matrix(2.68854,0,0,3.7051,-101.726,-182.145)">
                <rect x="386" y="257" width="50" height="71" style="fill:rgb(38,217,185);"/>
            </g>
            <g transform="matrix(2.68854,0,0,3.7051,46.1436,-182.145)">
                <rect x="386" y="257" width="50" height="71" style="fill:rgb(38,217,185);"/>
            </g>
            <g transform="matrix(2.68854,0,0,6.85337,-2654.27,-3456.72)">
                <g transform="matrix(54.4458,0,0,54.4458,1004,557)">
                    <path d="M0.357,-0.132C0.357,-0.082 0.374,-0.057 0.408,-0.057C0.413,-0.057 0.421,-0.058 0.432,-0.06C0.443,-0.061 0.451,-0.062 0.456,-0.062C0.465,-0.062 0.472,-0.059 0.479,-0.053C0.485,-0.046 0.488,-0.039 0.488,-0.03C0.488,-0.007 0.473,0.005 0.443,0.005L0.437,0.005C0.434,0.004 0.431,0.004 0.43,0.004L0.381,-0.003C0.362,-0.006 0.341,-0.007 0.318,-0.007C0.293,-0.007 0.27,-0.006 0.251,-0.003L0.201,0.004C0.199,0.004 0.197,0.004 0.194,0.005L0.187,0.005C0.158,0.005 0.143,-0.007 0.143,-0.03C0.143,-0.051 0.154,-0.062 0.175,-0.062C0.18,-0.062 0.188,-0.061 0.199,-0.06C0.21,-0.058 0.218,-0.057 0.223,-0.057C0.256,-0.057 0.273,-0.082 0.273,-0.132L0.273,-0.202L0.274,-0.29L0.274,-0.375L0.273,-0.538C0.273,-0.585 0.249,-0.609 0.2,-0.609L0.169,-0.609C0.121,-0.609 0.097,-0.586 0.097,-0.539C0.097,-0.522 0.097,-0.511 0.098,-0.505L0.102,-0.468C0.103,-0.462 0.103,-0.454 0.103,-0.443C0.103,-0.401 0.09,-0.38 0.064,-0.38C0.039,-0.38 0.027,-0.395 0.027,-0.426C0.027,-0.435 0.028,-0.45 0.029,-0.471C0.031,-0.503 0.032,-0.523 0.032,-0.532C0.032,-0.549 0.031,-0.566 0.03,-0.584C0.027,-0.619 0.026,-0.634 0.026,-0.629C0.026,-0.657 0.039,-0.671 0.064,-0.671C0.073,-0.671 0.095,-0.67 0.129,-0.668C0.132,-0.668 0.16,-0.667 0.211,-0.666L0.325,-0.664C0.338,-0.664 0.374,-0.665 0.432,-0.666C0.445,-0.666 0.466,-0.667 0.497,-0.669C0.524,-0.671 0.546,-0.672 0.561,-0.672C0.594,-0.672 0.611,-0.658 0.611,-0.631L0.611,-0.629C0.611,-0.622 0.61,-0.61 0.609,-0.592C0.607,-0.574 0.605,-0.555 0.603,-0.534L0.603,-0.523C0.603,-0.513 0.604,-0.497 0.606,-0.476C0.609,-0.448 0.61,-0.431 0.61,-0.424C0.61,-0.397 0.597,-0.383 0.571,-0.383C0.546,-0.383 0.533,-0.4 0.533,-0.433C0.533,-0.445 0.534,-0.463 0.536,-0.487C0.538,-0.51 0.539,-0.528 0.539,-0.54C0.539,-0.586 0.513,-0.609 0.46,-0.609L0.432,-0.609C0.407,-0.609 0.39,-0.604 0.379,-0.594C0.368,-0.583 0.362,-0.566 0.361,-0.542L0.358,-0.472L0.357,-0.132Z" style="fill:white;fill-rule:nonzero;"/>
                </g>
                <g transform="matrix(54.4458,0,0,54.4458,1038.68,557)">
                    <path d="M0.196,-0.644L0.192,-0.45C0.219,-0.475 0.243,-0.493 0.265,-0.503C0.287,-0.512 0.313,-0.517 0.343,-0.517C0.4,-0.517 0.446,-0.501 0.481,-0.468C0.516,-0.435 0.533,-0.392 0.533,-0.339L0.533,-0.172C0.533,-0.133 0.533,-0.111 0.534,-0.107C0.537,-0.074 0.545,-0.057 0.56,-0.057C0.565,-0.057 0.573,-0.058 0.583,-0.061C0.587,-0.062 0.592,-0.062 0.599,-0.062C0.624,-0.062 0.636,-0.051 0.636,-0.029C0.636,-0.007 0.62,0.004 0.588,0.004C0.579,0.004 0.567,0.003 0.55,0.001C0.522,-0.002 0.499,-0.004 0.482,-0.004C0.465,-0.004 0.451,-0.003 0.442,-0.002C0.414,0.002 0.397,0.004 0.39,0.004C0.378,0.004 0.368,0 0.36,-0.007C0.352,-0.014 0.348,-0.022 0.348,-0.033C0.348,-0.042 0.352,-0.049 0.359,-0.055C0.366,-0.061 0.374,-0.064 0.383,-0.064C0.39,-0.064 0.399,-0.062 0.409,-0.059C0.415,-0.057 0.421,-0.056 0.426,-0.056C0.446,-0.056 0.456,-0.078 0.457,-0.121C0.457,-0.129 0.457,-0.145 0.458,-0.168L0.459,-0.211L0.459,-0.265C0.459,-0.333 0.452,-0.379 0.439,-0.402C0.42,-0.437 0.386,-0.454 0.337,-0.454C0.284,-0.454 0.246,-0.436 0.222,-0.4C0.205,-0.375 0.197,-0.336 0.196,-0.281L0.195,-0.209C0.195,-0.205 0.195,-0.198 0.194,-0.189L0.194,-0.17C0.194,-0.132 0.194,-0.11 0.195,-0.104C0.198,-0.071 0.208,-0.055 0.224,-0.055C0.229,-0.055 0.237,-0.056 0.247,-0.059C0.256,-0.061 0.263,-0.062 0.268,-0.062C0.289,-0.062 0.3,-0.052 0.3,-0.031C0.3,-0.008 0.285,0.004 0.256,0.004C0.247,0.004 0.233,0.003 0.214,0.001C0.189,-0.002 0.167,-0.003 0.149,-0.003C0.138,-0.003 0.122,-0.002 0.102,-0C0.075,0.003 0.058,0.004 0.051,0.004C0.024,0.004 0.01,-0.008 0.01,-0.032C0.01,-0.052 0.023,-0.062 0.048,-0.062C0.057,-0.062 0.063,-0.061 0.067,-0.06C0.078,-0.058 0.086,-0.057 0.091,-0.057C0.102,-0.057 0.109,-0.067 0.113,-0.088C0.116,-0.108 0.118,-0.149 0.119,-0.212L0.12,-0.391C0.12,-0.491 0.118,-0.554 0.114,-0.581C0.11,-0.607 0.101,-0.62 0.086,-0.62C0.081,-0.62 0.074,-0.619 0.065,-0.617C0.056,-0.615 0.048,-0.614 0.043,-0.614C0.02,-0.614 0.009,-0.625 0.009,-0.646C0.009,-0.655 0.013,-0.663 0.021,-0.67C0.029,-0.677 0.039,-0.68 0.05,-0.68C0.053,-0.68 0.065,-0.679 0.084,-0.677C0.097,-0.676 0.11,-0.675 0.125,-0.675C0.131,-0.675 0.139,-0.676 0.15,-0.677C0.161,-0.678 0.168,-0.679 0.173,-0.679C0.188,-0.679 0.196,-0.668 0.196,-0.646L0.196,-0.644Z" style="fill:white;fill-rule:nonzero;"/>
                </g>
                <g transform="matrix(54.4458,0,0,54.4458,1073.36,557)">
                    <path d="M0.201,-0.29L0.201,-0.16C0.201,-0.127 0.201,-0.107 0.202,-0.101C0.205,-0.071 0.214,-0.056 0.229,-0.056C0.232,-0.056 0.241,-0.058 0.254,-0.061C0.257,-0.062 0.262,-0.063 0.269,-0.063C0.294,-0.063 0.307,-0.052 0.307,-0.03C0.307,-0.021 0.303,-0.013 0.295,-0.006C0.286,0.001 0.276,0.004 0.263,0.004C0.252,0.004 0.236,0.003 0.215,-0.001C0.193,-0.004 0.177,-0.005 0.166,-0.005C0.149,-0.005 0.129,-0.004 0.108,-0.001C0.082,0.002 0.065,0.004 0.056,0.004C0.029,0.004 0.016,-0.007 0.016,-0.03C0.016,-0.052 0.027,-0.063 0.05,-0.063C0.055,-0.063 0.063,-0.062 0.074,-0.06C0.084,-0.058 0.092,-0.057 0.097,-0.057C0.113,-0.057 0.123,-0.078 0.126,-0.121L0.126,-0.377C0.123,-0.419 0.113,-0.44 0.096,-0.44C0.091,-0.44 0.083,-0.439 0.074,-0.437C0.064,-0.434 0.057,-0.433 0.052,-0.433C0.028,-0.433 0.016,-0.444 0.016,-0.465C0.016,-0.488 0.031,-0.499 0.06,-0.499C0.073,-0.499 0.082,-0.499 0.087,-0.498C0.108,-0.495 0.122,-0.494 0.128,-0.494C0.133,-0.494 0.141,-0.495 0.153,-0.497C0.164,-0.498 0.172,-0.499 0.177,-0.499C0.196,-0.499 0.206,-0.486 0.206,-0.46C0.206,-0.457 0.204,-0.439 0.204,-0.436C0.203,-0.431 0.203,-0.41 0.202,-0.374C0.201,-0.347 0.201,-0.319 0.201,-0.29ZM0.149,-0.552C0.134,-0.552 0.121,-0.558 0.11,-0.569C0.098,-0.58 0.093,-0.593 0.093,-0.608C0.093,-0.623 0.098,-0.636 0.11,-0.647C0.121,-0.658 0.134,-0.663 0.149,-0.663C0.164,-0.663 0.178,-0.658 0.189,-0.647C0.2,-0.636 0.205,-0.623 0.205,-0.608C0.205,-0.593 0.2,-0.58 0.189,-0.569C0.178,-0.558 0.164,-0.552 0.149,-0.552Z" style="fill:white;fill-rule:nonzero;"/>
                </g>
                <g transform="matrix(54.4458,0,0,54.4458,1090.24,557)">
                    <path d="M0.25,-0.517C0.295,-0.517 0.332,-0.505 0.362,-0.482L0.362,-0.486C0.362,-0.511 0.373,-0.523 0.394,-0.523C0.416,-0.523 0.427,-0.512 0.427,-0.491C0.427,-0.487 0.426,-0.477 0.425,-0.461C0.422,-0.448 0.421,-0.434 0.421,-0.421C0.421,-0.413 0.422,-0.401 0.425,-0.386C0.427,-0.371 0.428,-0.359 0.428,-0.351C0.428,-0.326 0.417,-0.313 0.395,-0.313C0.374,-0.313 0.363,-0.324 0.362,-0.345L0.361,-0.378C0.36,-0.398 0.349,-0.415 0.327,-0.43C0.304,-0.444 0.278,-0.451 0.248,-0.451C0.217,-0.451 0.192,-0.443 0.171,-0.428C0.15,-0.412 0.14,-0.392 0.14,-0.369C0.14,-0.326 0.169,-0.301 0.228,-0.293L0.286,-0.285C0.399,-0.27 0.456,-0.223 0.456,-0.144C0.456,-0.096 0.438,-0.057 0.401,-0.028C0.364,0.002 0.316,0.017 0.257,0.017C0.202,0.017 0.154,0.001 0.113,-0.03C0.114,-0.023 0.114,-0.017 0.114,-0.011C0.114,0.013 0.103,0.025 0.08,0.025C0.055,0.025 0.043,0.011 0.043,-0.016C0.043,-0.011 0.045,-0.029 0.049,-0.068C0.05,-0.077 0.051,-0.087 0.051,-0.096C0.051,-0.112 0.05,-0.127 0.047,-0.141C0.044,-0.155 0.043,-0.166 0.043,-0.174C0.043,-0.197 0.054,-0.209 0.075,-0.209C0.089,-0.209 0.098,-0.206 0.102,-0.199C0.105,-0.192 0.107,-0.175 0.108,-0.146C0.109,-0.117 0.124,-0.094 0.153,-0.076C0.182,-0.058 0.22,-0.049 0.265,-0.049C0.298,-0.049 0.325,-0.057 0.346,-0.074C0.367,-0.091 0.378,-0.112 0.378,-0.137C0.378,-0.182 0.342,-0.209 0.27,-0.216C0.201,-0.223 0.149,-0.237 0.113,-0.257C0.077,-0.276 0.059,-0.311 0.059,-0.36C0.059,-0.407 0.077,-0.444 0.112,-0.474C0.147,-0.503 0.193,-0.517 0.25,-0.517Z" style="fill:white;fill-rule:nonzero;"/>
                </g>
            </g>
            <g transform="matrix(2.68854,0,0,6.85337,-1447.11,-2793.53)">
                <g transform="matrix(54.4458,0,0,54.4458,1004,557)">
                    <path d="M0.201,-0.29L0.201,-0.16C0.201,-0.127 0.201,-0.107 0.202,-0.101C0.205,-0.071 0.214,-0.056 0.229,-0.056C0.232,-0.056 0.241,-0.058 0.254,-0.061C0.257,-0.062 0.262,-0.063 0.269,-0.063C0.294,-0.063 0.307,-0.052 0.307,-0.03C0.307,-0.021 0.303,-0.013 0.295,-0.006C0.286,0.001 0.276,0.004 0.263,0.004C0.252,0.004 0.236,0.003 0.215,-0.001C0.193,-0.004 0.177,-0.005 0.166,-0.005C0.149,-0.005 0.129,-0.004 0.108,-0.001C0.082,0.002 0.065,0.004 0.056,0.004C0.029,0.004 0.016,-0.007 0.016,-0.03C0.016,-0.052 0.027,-0.063 0.05,-0.063C0.055,-0.063 0.063,-0.062 0.074,-0.06C0.084,-0.058 0.092,-0.057 0.097,-0.057C0.113,-0.057 0.123,-0.078 0.126,-0.121L0.126,-0.377C0.123,-0.419 0.113,-0.44 0.096,-0.44C0.091,-0.44 0.083,-0.439 0.074,-0.437C0.064,-0.434 0.057,-0.433 0.052,-0.433C0.028,-0.433 0.016,-0.444 0.016,-0.465C0.016,-0.488 0.031,-0.499 0.06,-0.499C0.073,-0.499 0.082,-0.499 0.087,-0.498C0.108,-0.495 0.122,-0.494 0.128,-0.494C0.133,-0.494 0.141,-0.495 0.153,-0.497C0.164,-0.498 0.172,-0.499 0.177,-0.499C0.196,-0.499 0.206,-0.486 0.206,-0.46C0.206,-0.457 0.204,-0.439 0.204,-0.436C0.203,-0.431 0.203,-0.41 0.202,-0.374C0.201,-0.347 0.201,-0.319 0.201,-0.29ZM0.149,-0.552C0.134,-0.552 0.121,-0.558 0.11,-0.569C0.098,-0.58 0.093,-0.593 0.093,-0.608C0.093,-0.623 0.098,-0.636 0.11,-0.647C0.121,-0.658 0.134,-0.663 0.149,-0.663C0.164,-0.663 0.178,-0.658 0.189,-0.647C0.2,-0.636 0.205,-0.623 0.205,-0.608C0.205,-0.593 0.2,-0.58 0.189,-0.569C0.178,-0.558 0.164,-0.552 0.149,-0.552Z" style="fill:white;fill-rule:nonzero;"/>
                </g>
                <g transform="matrix(54.4458,0,0,54.4458,1020.88,557)">
                    <path d="M0.192,-0.469L0.192,-0.441C0.232,-0.492 0.285,-0.517 0.352,-0.517C0.388,-0.517 0.422,-0.508 0.454,-0.49C0.486,-0.471 0.508,-0.448 0.519,-0.421C0.528,-0.398 0.533,-0.369 0.533,-0.332L0.533,-0.142C0.533,-0.113 0.533,-0.096 0.534,-0.091C0.537,-0.068 0.546,-0.057 0.561,-0.057C0.567,-0.057 0.575,-0.058 0.585,-0.06C0.594,-0.061 0.601,-0.062 0.605,-0.062C0.614,-0.062 0.621,-0.059 0.628,-0.053C0.634,-0.047 0.637,-0.04 0.637,-0.031C0.637,-0.021 0.633,-0.013 0.625,-0.006C0.617,0.001 0.607,0.004 0.596,0.004C0.587,0.004 0.571,0.003 0.55,-0C0.529,-0.003 0.509,-0.004 0.49,-0.004C0.473,-0.004 0.458,-0.003 0.447,-0.002C0.414,0.002 0.396,0.004 0.394,0.004C0.367,0.004 0.354,-0.008 0.354,-0.031C0.354,-0.052 0.365,-0.062 0.388,-0.062C0.393,-0.062 0.399,-0.061 0.406,-0.06C0.419,-0.057 0.427,-0.056 0.43,-0.056C0.446,-0.056 0.455,-0.074 0.456,-0.111L0.458,-0.162L0.459,-0.223L0.459,-0.299C0.459,-0.334 0.457,-0.359 0.454,-0.372C0.448,-0.397 0.435,-0.417 0.415,-0.431C0.393,-0.446 0.368,-0.454 0.34,-0.454C0.287,-0.454 0.248,-0.435 0.225,-0.397C0.209,-0.371 0.201,-0.327 0.201,-0.264L0.201,-0.131C0.201,-0.102 0.203,-0.082 0.207,-0.071C0.211,-0.06 0.218,-0.055 0.229,-0.055C0.234,-0.055 0.242,-0.056 0.251,-0.059C0.26,-0.062 0.268,-0.063 0.274,-0.063C0.295,-0.063 0.305,-0.052 0.305,-0.029C0.305,-0.007 0.292,0.004 0.265,0.004C0.26,0.004 0.242,0.002 0.213,-0.002C0.198,-0.004 0.182,-0.005 0.164,-0.005C0.15,-0.005 0.131,-0.004 0.108,-0.001C0.079,0.002 0.062,0.004 0.058,0.004C0.03,0.004 0.016,-0.007 0.016,-0.03C0.016,-0.051 0.027,-0.062 0.048,-0.062C0.051,-0.062 0.057,-0.061 0.067,-0.059C0.076,-0.057 0.084,-0.056 0.093,-0.056C0.113,-0.056 0.123,-0.075 0.124,-0.114L0.126,-0.225L0.126,-0.346L0.124,-0.381C0.123,-0.404 0.12,-0.419 0.116,-0.428C0.111,-0.436 0.104,-0.44 0.093,-0.44C0.088,-0.44 0.082,-0.439 0.073,-0.438C0.064,-0.436 0.057,-0.435 0.052,-0.435C0.028,-0.435 0.016,-0.446 0.016,-0.467C0.016,-0.489 0.031,-0.5 0.061,-0.5C0.065,-0.5 0.068,-0.5 0.071,-0.499L0.108,-0.495C0.119,-0.495 0.128,-0.496 0.136,-0.497C0.153,-0.498 0.162,-0.499 0.163,-0.499C0.182,-0.499 0.192,-0.489 0.192,-0.469Z" style="fill:white;fill-rule:nonzero;"/>
                </g>
                <g transform="matrix(54.4458,0,0,54.4458,1055.56,557)">
                    <path d="M0.263,-0.517C0.329,-0.517 0.378,-0.491 0.411,-0.44L0.411,-0.541C0.411,-0.568 0.41,-0.584 0.409,-0.59C0.406,-0.611 0.396,-0.621 0.381,-0.621C0.376,-0.621 0.368,-0.62 0.359,-0.618C0.349,-0.616 0.341,-0.615 0.336,-0.615C0.311,-0.615 0.299,-0.626 0.299,-0.647C0.299,-0.669 0.316,-0.68 0.349,-0.68C0.354,-0.68 0.364,-0.679 0.378,-0.678C0.399,-0.676 0.41,-0.675 0.411,-0.675C0.417,-0.675 0.426,-0.676 0.437,-0.677C0.448,-0.678 0.457,-0.679 0.463,-0.679C0.482,-0.679 0.491,-0.666 0.491,-0.639L0.491,-0.628C0.49,-0.626 0.49,-0.608 0.489,-0.575C0.489,-0.571 0.488,-0.545 0.486,-0.498C0.485,-0.465 0.484,-0.439 0.484,-0.422L0.484,-0.324L0.486,-0.157C0.487,-0.113 0.489,-0.086 0.492,-0.075C0.495,-0.064 0.503,-0.059 0.516,-0.059C0.525,-0.059 0.531,-0.06 0.536,-0.061C0.547,-0.062 0.554,-0.063 0.558,-0.063C0.583,-0.063 0.595,-0.052 0.595,-0.03C0.595,-0.007 0.58,0.004 0.55,0.004C0.543,0.004 0.533,0.003 0.52,0.002C0.506,-0 0.496,-0.001 0.489,-0.001C0.487,-0.001 0.479,-0 0.466,0.001C0.458,0.003 0.451,0.004 0.445,0.004C0.427,0.004 0.418,-0.008 0.418,-0.032L0.418,-0.037L0.419,-0.054C0.384,-0.007 0.332,0.017 0.265,0.017C0.197,0.017 0.142,-0.008 0.101,-0.057C0.06,-0.106 0.039,-0.171 0.039,-0.251C0.039,-0.332 0.059,-0.396 0.1,-0.445C0.141,-0.493 0.195,-0.517 0.263,-0.517ZM0.405,-0.164C0.408,-0.186 0.409,-0.214 0.409,-0.249C0.409,-0.294 0.407,-0.324 0.404,-0.34C0.398,-0.373 0.384,-0.399 0.361,-0.418C0.334,-0.44 0.304,-0.451 0.269,-0.451C0.222,-0.451 0.186,-0.433 0.16,-0.398C0.133,-0.363 0.12,-0.314 0.12,-0.253C0.12,-0.19 0.134,-0.14 0.161,-0.104C0.188,-0.067 0.226,-0.049 0.273,-0.049C0.309,-0.049 0.339,-0.059 0.363,-0.081C0.387,-0.101 0.401,-0.129 0.405,-0.164Z" style="fill:white;fill-rule:nonzero;"/>
                </g>
                <g transform="matrix(54.4458,0,0,54.4458,1088.23,557)">
                    <path d="M0.493,-0.294C0.493,-0.269 0.491,-0.253 0.488,-0.248C0.485,-0.242 0.475,-0.239 0.459,-0.239L0.141,-0.239C0.132,-0.239 0.127,-0.238 0.124,-0.236C0.121,-0.233 0.12,-0.229 0.12,-0.224C0.12,-0.174 0.135,-0.132 0.165,-0.099C0.195,-0.066 0.232,-0.049 0.277,-0.049C0.306,-0.049 0.333,-0.057 0.358,-0.073C0.382,-0.089 0.398,-0.109 0.405,-0.134L0.414,-0.163C0.419,-0.179 0.43,-0.187 0.447,-0.187C0.472,-0.187 0.484,-0.174 0.484,-0.149C0.484,-0.106 0.462,-0.067 0.418,-0.034C0.374,0 0.324,0.017 0.268,0.017C0.198,0.017 0.142,-0.006 0.101,-0.054C0.06,-0.1 0.039,-0.164 0.039,-0.243C0.039,-0.324 0.061,-0.39 0.105,-0.441C0.149,-0.492 0.206,-0.517 0.277,-0.517C0.34,-0.517 0.391,-0.496 0.432,-0.454C0.473,-0.412 0.493,-0.359 0.493,-0.294ZM0.13,-0.32C0.13,-0.311 0.137,-0.306 0.152,-0.306L0.391,-0.306C0.405,-0.306 0.412,-0.311 0.412,-0.32C0.412,-0.355 0.399,-0.386 0.372,-0.412C0.345,-0.438 0.314,-0.451 0.278,-0.451C0.241,-0.451 0.207,-0.438 0.176,-0.411C0.145,-0.384 0.13,-0.353 0.13,-0.32Z" style="fill:white;fill-rule:nonzero;"/>
                </g>
                <g transform="matrix(54.4458,0,0,54.4458,1116.98,557)">
                    <path d="M0.192,-0.469L0.192,-0.441C0.232,-0.492 0.285,-0.517 0.352,-0.517C0.388,-0.517 0.422,-0.508 0.454,-0.49C0.486,-0.471 0.508,-0.448 0.519,-0.421C0.528,-0.398 0.533,-0.369 0.533,-0.332L0.533,-0.142C0.533,-0.113 0.533,-0.096 0.534,-0.091C0.537,-0.068 0.546,-0.057 0.561,-0.057C0.567,-0.057 0.575,-0.058 0.585,-0.06C0.594,-0.061 0.601,-0.062 0.605,-0.062C0.614,-0.062 0.621,-0.059 0.628,-0.053C0.634,-0.047 0.637,-0.04 0.637,-0.031C0.637,-0.021 0.633,-0.013 0.625,-0.006C0.617,0.001 0.607,0.004 0.596,0.004C0.587,0.004 0.571,0.003 0.55,-0C0.529,-0.003 0.509,-0.004 0.49,-0.004C0.473,-0.004 0.458,-0.003 0.447,-0.002C0.414,0.002 0.396,0.004 0.394,0.004C0.367,0.004 0.354,-0.008 0.354,-0.031C0.354,-0.052 0.365,-0.062 0.388,-0.062C0.393,-0.062 0.399,-0.061 0.406,-0.06C0.419,-0.057 0.427,-0.056 0.43,-0.056C0.446,-0.056 0.455,-0.074 0.456,-0.111L0.458,-0.162L0.459,-0.223L0.459,-0.299C0.459,-0.334 0.457,-0.359 0.454,-0.372C0.448,-0.397 0.435,-0.417 0.415,-0.431C0.393,-0.446 0.368,-0.454 0.34,-0.454C0.287,-0.454 0.248,-0.435 0.225,-0.397C0.209,-0.371 0.201,-0.327 0.201,-0.264L0.201,-0.131C0.201,-0.102 0.203,-0.082 0.207,-0.071C0.211,-0.06 0.218,-0.055 0.229,-0.055C0.234,-0.055 0.242,-0.056 0.251,-0.059C0.26,-0.062 0.268,-0.063 0.274,-0.063C0.295,-0.063 0.305,-0.052 0.305,-0.029C0.305,-0.007 0.292,0.004 0.265,0.004C0.26,0.004 0.242,0.002 0.213,-0.002C0.198,-0.004 0.182,-0.005 0.164,-0.005C0.15,-0.005 0.131,-0.004 0.108,-0.001C0.079,0.002 0.062,0.004 0.058,0.004C0.03,0.004 0.016,-0.007 0.016,-0.03C0.016,-0.051 0.027,-0.062 0.048,-0.062C0.051,-0.062 0.057,-0.061 0.067,-0.059C0.076,-0.057 0.084,-0.056 0.093,-0.056C0.113,-0.056 0.123,-0.075 0.124,-0.114L0.126,-0.225L0.126,-0.346L0.124,-0.381C0.123,-0.404 0.12,-0.419 0.116,-0.428C0.111,-0.436 0.104,-0.44 0.093,-0.44C0.088,-0.44 0.082,-0.439 0.073,-0.438C0.064,-0.436 0.057,-0.435 0.052,-0.435C0.028,-0.435 0.016,-0.446 0.016,-0.467C0.016,-0.489 0.031,-0.5 0.061,-0.5C0.065,-0.5 0.068,-0.5 0.071,-0.499L0.108,-0.495C0.119,-0.495 0.128,-0.496 0.136,-0.497C0.153,-0.498 0.162,-0.499 0.163,-0.499C0.182,-0.499 0.192,-0.489 0.192,-0.469Z" style="fill:white;fill-rule:nonzero;"/>
                </g>
                <g transform="matrix(54.4458,0,0,54.4458,1151.66,557)">
                    <path d="M0.314,-0.138L0.316,-0.202C0.317,-0.229 0.329,-0.243 0.352,-0.243C0.375,-0.243 0.387,-0.228 0.387,-0.197C0.387,-0.124 0.378,-0.074 0.359,-0.045C0.334,-0.006 0.292,0.013 0.234,0.013C0.181,0.013 0.143,-0.004 0.12,-0.038C0.103,-0.063 0.095,-0.105 0.095,-0.164L0.095,-0.404C0.095,-0.418 0.089,-0.425 0.076,-0.425L0.044,-0.425C0.033,-0.425 0.025,-0.428 0.018,-0.436C0.011,-0.443 0.007,-0.451 0.007,-0.461C0.007,-0.47 0.011,-0.479 0.018,-0.486C0.025,-0.493 0.032,-0.497 0.041,-0.497L0.08,-0.497C0.091,-0.497 0.097,-0.503 0.097,-0.516L0.097,-0.619C0.097,-0.644 0.11,-0.657 0.136,-0.657C0.16,-0.657 0.172,-0.644 0.172,-0.619L0.172,-0.512C0.172,-0.502 0.178,-0.497 0.19,-0.497L0.299,-0.497C0.324,-0.497 0.337,-0.485 0.337,-0.462C0.337,-0.437 0.323,-0.425 0.296,-0.425L0.186,-0.425C0.177,-0.425 0.172,-0.418 0.172,-0.404L0.172,-0.158C0.172,-0.088 0.195,-0.053 0.241,-0.053C0.288,-0.053 0.312,-0.081 0.314,-0.138Z" style="fill:white;fill-rule:nonzero;"/>
                </g>
                <g transform="matrix(54.4458,0,0,54.4458,1173.44,557)">
                    <path d="M0.493,-0.294C0.493,-0.269 0.491,-0.253 0.488,-0.248C0.485,-0.242 0.475,-0.239 0.459,-0.239L0.141,-0.239C0.132,-0.239 0.127,-0.238 0.124,-0.236C0.121,-0.233 0.12,-0.229 0.12,-0.224C0.12,-0.174 0.135,-0.132 0.165,-0.099C0.195,-0.066 0.232,-0.049 0.277,-0.049C0.306,-0.049 0.333,-0.057 0.358,-0.073C0.382,-0.089 0.398,-0.109 0.405,-0.134L0.414,-0.163C0.419,-0.179 0.43,-0.187 0.447,-0.187C0.472,-0.187 0.484,-0.174 0.484,-0.149C0.484,-0.106 0.462,-0.067 0.418,-0.034C0.374,0 0.324,0.017 0.268,0.017C0.198,0.017 0.142,-0.006 0.101,-0.054C0.06,-0.1 0.039,-0.164 0.039,-0.243C0.039,-0.324 0.061,-0.39 0.105,-0.441C0.149,-0.492 0.206,-0.517 0.277,-0.517C0.34,-0.517 0.391,-0.496 0.432,-0.454C0.473,-0.412 0.493,-0.359 0.493,-0.294ZM0.13,-0.32C0.13,-0.311 0.137,-0.306 0.152,-0.306L0.391,-0.306C0.405,-0.306 0.412,-0.311 0.412,-0.32C0.412,-0.355 0.399,-0.386 0.372,-0.412C0.345,-0.438 0.314,-0.451 0.278,-0.451C0.241,-0.451 0.207,-0.438 0.176,-0.411C0.145,-0.384 0.13,-0.353 0.13,-0.32Z" style="fill:white;fill-rule:nonzero;"/>
                </g>
                <g transform="matrix(54.4458,0,0,54.4458,1202.18,557)">
                    <path d="M0.263,-0.517C0.329,-0.517 0.378,-0.491 0.411,-0.44L0.411,-0.541C0.411,-0.568 0.41,-0.584 0.409,-0.59C0.406,-0.611 0.396,-0.621 0.381,-0.621C0.376,-0.621 0.368,-0.62 0.359,-0.618C0.349,-0.616 0.341,-0.615 0.336,-0.615C0.311,-0.615 0.299,-0.626 0.299,-0.647C0.299,-0.669 0.316,-0.68 0.349,-0.68C0.354,-0.68 0.364,-0.679 0.378,-0.678C0.399,-0.676 0.41,-0.675 0.411,-0.675C0.417,-0.675 0.426,-0.676 0.437,-0.677C0.448,-0.678 0.457,-0.679 0.463,-0.679C0.482,-0.679 0.491,-0.666 0.491,-0.639L0.491,-0.628C0.49,-0.626 0.49,-0.608 0.489,-0.575C0.489,-0.571 0.488,-0.545 0.486,-0.498C0.485,-0.465 0.484,-0.439 0.484,-0.422L0.484,-0.324L0.486,-0.157C0.487,-0.113 0.489,-0.086 0.492,-0.075C0.495,-0.064 0.503,-0.059 0.516,-0.059C0.525,-0.059 0.531,-0.06 0.536,-0.061C0.547,-0.062 0.554,-0.063 0.558,-0.063C0.583,-0.063 0.595,-0.052 0.595,-0.03C0.595,-0.007 0.58,0.004 0.55,0.004C0.543,0.004 0.533,0.003 0.52,0.002C0.506,-0 0.496,-0.001 0.489,-0.001C0.487,-0.001 0.479,-0 0.466,0.001C0.458,0.003 0.451,0.004 0.445,0.004C0.427,0.004 0.418,-0.008 0.418,-0.032L0.418,-0.037L0.419,-0.054C0.384,-0.007 0.332,0.017 0.265,0.017C0.197,0.017 0.142,-0.008 0.101,-0.057C0.06,-0.106 0.039,-0.171 0.039,-0.251C0.039,-0.332 0.059,-0.396 0.1,-0.445C0.141,-0.493 0.195,-0.517 0.263,-0.517ZM0.405,-0.164C0.408,-0.186 0.409,-0.214 0.409,-0.249C0.409,-0.294 0.407,-0.324 0.404,-0.34C0.398,-0.373 0.384,-0.399 0.361,-0.418C0.334,-0.44 0.304,-0.451 0.269,-0.451C0.222,-0.451 0.186,-0.433 0.16,-0.398C0.133,-0.363 0.12,-0.314 0.12,-0.253C0.12,-0.19 0.134,-0.14 0.161,-0.104C0.188,-0.067 0.226,-0.049 0.273,-0.049C0.309,-0.049 0.339,-0.059 0.363,-0.081C0.387,-0.101 0.401,-0.129 0.405,-0.164Z" style="fill:white;fill-rule:nonzero;"/>
                </g>
            </g>
            <g transform="matrix(2.68854,0,0,6.85337,-2036.83,-3125.13)">
                <g transform="matrix(54.4458,0,0,54.4458,1004,557)">
                    <path d="M0.201,-0.29L0.201,-0.16C0.201,-0.127 0.201,-0.107 0.202,-0.101C0.205,-0.071 0.214,-0.056 0.229,-0.056C0.232,-0.056 0.241,-0.058 0.254,-0.061C0.257,-0.062 0.262,-0.063 0.269,-0.063C0.294,-0.063 0.307,-0.052 0.307,-0.03C0.307,-0.021 0.303,-0.013 0.295,-0.006C0.286,0.001 0.276,0.004 0.263,0.004C0.252,0.004 0.236,0.003 0.215,-0.001C0.193,-0.004 0.177,-0.005 0.166,-0.005C0.149,-0.005 0.129,-0.004 0.108,-0.001C0.082,0.002 0.065,0.004 0.056,0.004C0.029,0.004 0.016,-0.007 0.016,-0.03C0.016,-0.052 0.027,-0.063 0.05,-0.063C0.055,-0.063 0.063,-0.062 0.074,-0.06C0.084,-0.058 0.092,-0.057 0.097,-0.057C0.113,-0.057 0.123,-0.078 0.126,-0.121L0.126,-0.377C0.123,-0.419 0.113,-0.44 0.096,-0.44C0.091,-0.44 0.083,-0.439 0.074,-0.437C0.064,-0.434 0.057,-0.433 0.052,-0.433C0.028,-0.433 0.016,-0.444 0.016,-0.465C0.016,-0.488 0.031,-0.499 0.06,-0.499C0.073,-0.499 0.082,-0.499 0.087,-0.498C0.108,-0.495 0.122,-0.494 0.128,-0.494C0.133,-0.494 0.141,-0.495 0.153,-0.497C0.164,-0.498 0.172,-0.499 0.177,-0.499C0.196,-0.499 0.206,-0.486 0.206,-0.46C0.206,-0.457 0.204,-0.439 0.204,-0.436C0.203,-0.431 0.203,-0.41 0.202,-0.374C0.201,-0.347 0.201,-0.319 0.201,-0.29ZM0.149,-0.552C0.134,-0.552 0.121,-0.558 0.11,-0.569C0.098,-0.58 0.093,-0.593 0.093,-0.608C0.093,-0.623 0.098,-0.636 0.11,-0.647C0.121,-0.658 0.134,-0.663 0.149,-0.663C0.164,-0.663 0.178,-0.658 0.189,-0.647C0.2,-0.636 0.205,-0.623 0.205,-0.608C0.205,-0.593 0.2,-0.58 0.189,-0.569C0.178,-0.558 0.164,-0.552 0.149,-0.552Z" style="fill:white;fill-rule:nonzero;"/>
                </g>
                <g transform="matrix(54.4458,0,0,54.4458,1020.88,557)">
                    <path d="M0.25,-0.517C0.295,-0.517 0.332,-0.505 0.362,-0.482L0.362,-0.486C0.362,-0.511 0.373,-0.523 0.394,-0.523C0.416,-0.523 0.427,-0.512 0.427,-0.491C0.427,-0.487 0.426,-0.477 0.425,-0.461C0.422,-0.448 0.421,-0.434 0.421,-0.421C0.421,-0.413 0.422,-0.401 0.425,-0.386C0.427,-0.371 0.428,-0.359 0.428,-0.351C0.428,-0.326 0.417,-0.313 0.395,-0.313C0.374,-0.313 0.363,-0.324 0.362,-0.345L0.361,-0.378C0.36,-0.398 0.349,-0.415 0.327,-0.43C0.304,-0.444 0.278,-0.451 0.248,-0.451C0.217,-0.451 0.192,-0.443 0.171,-0.428C0.15,-0.412 0.14,-0.392 0.14,-0.369C0.14,-0.326 0.169,-0.301 0.228,-0.293L0.286,-0.285C0.399,-0.27 0.456,-0.223 0.456,-0.144C0.456,-0.096 0.438,-0.057 0.401,-0.028C0.364,0.002 0.316,0.017 0.257,0.017C0.202,0.017 0.154,0.001 0.113,-0.03C0.114,-0.023 0.114,-0.017 0.114,-0.011C0.114,0.013 0.103,0.025 0.08,0.025C0.055,0.025 0.043,0.011 0.043,-0.016C0.043,-0.011 0.045,-0.029 0.049,-0.068C0.05,-0.077 0.051,-0.087 0.051,-0.096C0.051,-0.112 0.05,-0.127 0.047,-0.141C0.044,-0.155 0.043,-0.166 0.043,-0.174C0.043,-0.197 0.054,-0.209 0.075,-0.209C0.089,-0.209 0.098,-0.206 0.102,-0.199C0.105,-0.192 0.107,-0.175 0.108,-0.146C0.109,-0.117 0.124,-0.094 0.153,-0.076C0.182,-0.058 0.22,-0.049 0.265,-0.049C0.298,-0.049 0.325,-0.057 0.346,-0.074C0.367,-0.091 0.378,-0.112 0.378,-0.137C0.378,-0.182 0.342,-0.209 0.27,-0.216C0.201,-0.223 0.149,-0.237 0.113,-0.257C0.077,-0.276 0.059,-0.311 0.059,-0.36C0.059,-0.407 0.077,-0.444 0.112,-0.474C0.147,-0.503 0.193,-0.517 0.25,-0.517Z" style="fill:white;fill-rule:nonzero;"/>
                </g>
            </g>
        </g>
    </g>
</svg>
