<svg xmlns="http://www.w3.org/2000/svg" xmlns:xlink="http://www.w3.org/1999/xlink" width="537" height="283" fill-rule="evenodd" stroke-linecap="round" stroke-linejoin="round" stroke-miterlimit="1.5" xmlns:v="https://vecta.io/nano"><style><![CDATA[.B{fill-opacity:.2}.C{fill-rule:nonzero}.D{fill:#656d78}.E{fill:#434a54}]]></style><g transform="matrix(.518479 0 0 .518479 0 16.865)"><g class="C"><path d="M278.625 361.594L256 338.969c-4.172-4.156-4.172-10.922 0-15.094a10.68 10.68 0 0 1 15.078 0l22.625 22.641L512 128.227 459.203 75.43c-4.172 4.164-10.922 4.164-15.094 0a10.69 10.69 0 0 1 0-15.086l-7.531-7.539c-4.172 4.164-10.922 4.164-15.094-.008a10.68 10.68 0 0 1 0-15.078L383.781 0 0 383.781 37.703 421.5a10.67 10.67 0 0 1 15.094 0c4.156 4.156 4.156 10.906 0 15.078l7.531 7.547a10.67 10.67 0 0 1 15.094 0c4.156 4.156 4.172 10.906 0 15.078L128.219 512l150.406-150.406z" fill="#a0d468"/><path d="M256 338.969L105.594 489.375 128.219 512l150.406-150.406L256 338.969zm15.078-15.094l22.625 22.641L512 128.227l-22.625-22.625-218.297 218.273z" fill="#8cc153"/><path d="M482.266 142.867a10.69 10.69 0 0 0 0 15.086l15.094-15.086c-4.172-4.164-10.922-4.164-15.094 0zm-22.625 22.625a10.69 10.69 0 0 0 0 15.086l15.094-15.086c-4.173-4.164-10.923-4.164-15.094 0zm-22.625 22.625a10.66 10.66 0 0 0 0 15.086l15.078-15.086c-4.156-4.164-10.906-4.164-15.078 0zm-22.625 22.633a10.66 10.66 0 0 0 0 15.086l15.078-15.086c-4.157-4.164-10.922-4.164-15.078 0zm-22.625 22.625a10.66 10.66 0 0 0 0 15.086l15.078-15.086c-4.156-4.164-10.922-4.164-15.078 0zM369.125 256c-4.156 4.172-4.156 10.922 0 15.086L384.219 256c-4.172-4.164-10.922-4.164-15.094 0zM346.5 278.625c-4.156 4.172-4.156 10.938 0 15.094l15.094-15.094a10.7 10.7 0 0 0-15.094 0zm-22.625 22.625c-4.156 4.172-4.156 10.938 0 15.094l15.094-15.094a10.7 10.7 0 0 0-15.094 0zm-22.625 22.625c-4.156 4.188-4.172 10.938 0 15.094l15.094-15.094a10.7 10.7 0 0 0-15.094 0zM256 369.141c-4.172 4.172-4.172 10.922 0 15.078l15.078-15.078a10.65 10.65 0 0 0-15.078 0zm-22.625 22.625c-4.172 4.172-4.172 10.922 0 15.078l15.078-15.078c-4.172-4.172-10.922-4.172-15.078 0zm-22.641 22.64c-4.156 4.156-4.156 10.906 0 15.078l15.094-15.078a10.64 10.64 0 0 0-15.094 0zm-22.625 22.625c-4.156 4.156-4.156 10.906 0 15.078l15.094-15.078a10.67 10.67 0 0 0-15.094 0zm-22.625 22.625c-4.156 4.156-4.156 10.906 0 15.078l15.094-15.078a10.67 10.67 0 0 0-15.094 0zm-22.625 22.625c-4.172 4.156-4.172 10.906 0 15.078l15.078-15.078c-4.156-4.172-10.906-4.172-15.078 0z" fill="#ffce54"/></g><g class="D"><path d="M105.595 353.607l30.171 30.171-30.171 30.171-30.171-30.171z"/><path d="M165.938 353.609l-30.172-30.171 30.172-30.157 30.156 30.157-30.156 30.171zm90.5-90.507l-30.172-30.172 30.172-30.164 30.171 30.164-30.171 30.172z" class="C"/><path d="M316.78 142.419l30.171 30.171-30.171 30.171-30.171-30.171z"/></g><g class="C"><path d="M60.328 383.781l45.266 45.25 45.25-45.25-45.25-45.25-45.266 45.25zm45.266 15.094L90.5 383.781l15.094-15.094 15.078 15.094-15.078 15.094zm15.078-75.437l45.266 45.25 45.25-45.25-45.25-45.25-45.266 45.25zm45.266 15.093l-15.094-15.094 15.094-15.078 15.078 15.078-15.078 15.094zm45.25-105.601l45.25 45.258 45.25-45.258-45.25-45.25-45.25 45.25zm45.25 15.086L241.36 232.93l15.078-15.086 15.094 15.086-15.094 15.086zm60.343-120.68l-45.25 45.258 45.25 45.25 45.25-45.25-45.25-45.258zm-15.093 45.258l15.094-15.086 15.078 15.086-15.078 15.086-15.094-15.086z" class="E"/><path d="M377.125 142.422l-30.172-30.172 30.172-30.164 30.156 30.164-30.156 30.172z" class="D"/><path d="M377.125 67l-45.266 45.25 45.266 45.258 45.25-45.258L377.125 67zm0 60.336l-15.094-15.086 15.094-15.078 15.078 15.078-15.078 15.086z" class="E"/></g></g><path d="M367.029 53.909h169.194v166.2H367.029z" class="E"/><path d="M376.659 64.94h149.935v144.137H376.659z" class="D"/><g class="C B"><use xlink:href="#B"/><use xlink:href="#C"/><use xlink:href="#B" x="17.866"/><use xlink:href="#C" x="17.866"/><use xlink:href="#B" x="35.733"/><use xlink:href="#B" x="44.666"/><use xlink:href="#C" x="44.667"/><use xlink:href="#B" x="62.533"/><use xlink:href="#C" x="62.533"/><use xlink:href="#B" x="80.4"/><use xlink:href="#C" x="80.4"/><use xlink:href="#B" x="98.267"/><use xlink:href="#C" x="98.267"/><use xlink:href="#B" x="116.139"/><use xlink:href="#B" x="125.072"/><use xlink:href="#D"/><use xlink:href="#C" x="-8.934" y="14.517"/><use xlink:href="#C" y="14.517"/><use xlink:href="#B" x="17.866" y="14.517"/><use xlink:href="#C" x="17.866" y="14.517"/><use xlink:href="#B" x="35.733" y="14.517"/><use xlink:href="#C" x="35.733" y="14.517"/><use xlink:href="#B" x="53.6" y="14.517"/><use xlink:href="#C" x="53.6" y="14.517"/><use xlink:href="#C" x="62.533" y="14.517"/><use xlink:href="#B" x="80.4" y="14.517"/><use xlink:href="#C" x="80.4" y="14.517"/><use xlink:href="#B" x="98.267" y="14.517"/><use xlink:href="#C" x="98.267" y="14.517"/><use xlink:href="#B" x="116.139" y="14.517"/><use xlink:href="#E"/><use xlink:href="#B" x="134.006" y="14.517"/><use xlink:href="#C" x="-8.934" y="29.035"/><use xlink:href="#C" y="29.035"/><use xlink:href="#C" x="8.933" y="29.035"/><use xlink:href="#C" x="17.866" y="29.035"/><use xlink:href="#B" x="35.733" y="29.034"/><use xlink:href="#C" x="35.733" y="29.035"/><use xlink:href="#B" x="53.6" y="29.034"/><use xlink:href="#C" x="53.6" y="29.035"/><use xlink:href="#B" x="71.467" y="29.034"/><use xlink:href="#B" x="80.4" y="29.034"/><use xlink:href="#C" x="80.4" y="29.035"/><use xlink:href="#C" x="89.333" y="29.035"/><use xlink:href="#B" x="107.2" y="29.034"/><use xlink:href="#C" x="107.205" y="29.035"/><use xlink:href="#E" y="14.518"/><use xlink:href="#D" y="29.035"/><use xlink:href="#B" y="43.552"/><use xlink:href="#C" y="43.552"/><use xlink:href="#B" x="17.866" y="43.552"/><use xlink:href="#C" x="17.866" y="43.552"/><use xlink:href="#B" x="35.733" y="43.552"/><use xlink:href="#B" x="44.666" y="43.552"/><use xlink:href="#B" x="53.6" y="43.552"/><use xlink:href="#B" x="62.533" y="43.552"/><use xlink:href="#C" x="62.533" y="43.552"/><use xlink:href="#C" x="71.467" y="43.552"/><use xlink:href="#C" x="80.4" y="43.552"/><use xlink:href="#C" x="89.333" y="43.552"/><use xlink:href="#B" x="107.2" y="43.552"/><use xlink:href="#C" x="107.205" y="43.552"/><use xlink:href="#B" x="125.072" y="43.552"/><use xlink:href="#D" y="43.552"/><use xlink:href="#B" y="58.069"/><use xlink:href="#C" y="58.069"/><use xlink:href="#B" x="17.866" y="58.069"/><use xlink:href="#C" x="17.866" y="58.069"/><use xlink:href="#B" x="35.733" y="58.069"/><use xlink:href="#C" x="35.733" y="58.069"/><use xlink:href="#B" x="53.6" y="58.069"/><use xlink:href="#C" x="53.6" y="58.069"/><use xlink:href="#B" x="71.467" y="58.069"/><use xlink:href="#C" x="71.467" y="58.069"/><use xlink:href="#C" x="80.4" y="58.069"/><use xlink:href="#C" x="89.333" y="58.069"/><use xlink:href="#B" x="107.2" y="58.069"/><use xlink:href="#C" x="107.205" y="58.069"/><use xlink:href="#B" x="125.072" y="58.069"/><use xlink:href="#D" y="58.069"/><use xlink:href="#B" y="72.587"/><use xlink:href="#C" y="72.587"/><use xlink:href="#C" x="8.933" y="72.587"/><use xlink:href="#C" x="17.866" y="72.587"/><use xlink:href="#B" x="35.733" y="72.587"/><use xlink:href="#C" x="35.733" y="72.587"/><use xlink:href="#B" x="53.6" y="72.587"/><use xlink:href="#C" x="53.6" y="72.587"/><use xlink:href="#B" x="71.467" y="72.587"/><use xlink:href="#C" x="71.467" y="72.587"/><use xlink:href="#C" x="80.4" y="72.587"/><use xlink:href="#B" x="98.267" y="72.587"/><use xlink:href="#C" x="98.267" y="72.587"/><use xlink:href="#C" x="107.205" y="72.587"/><use xlink:href="#E" y="58.07"/><use xlink:href="#B" x="134.006" y="72.587"/><use xlink:href="#C" x="-8.934" y="87.104"/><use xlink:href="#B" x="8.933" y="87.104"/><use xlink:href="#C" x="8.933" y="87.104"/><use xlink:href="#B" x="26.8" y="87.104"/><use xlink:href="#C" x="26.8" y="87.104"/><use xlink:href="#C" x="35.733" y="87.104"/><use xlink:href="#B" x="53.6" y="87.104"/><use xlink:href="#C" x="53.6" y="87.104"/><use xlink:href="#B" x="71.467" y="87.104"/><use xlink:href="#C" x="71.467" y="87.104"/><use xlink:href="#B" x="89.333" y="87.104"/><use xlink:href="#C" x="89.333" y="87.104"/><use xlink:href="#B" x="107.2" y="87.104"/><use xlink:href="#B" x="116.139" y="87.104"/><use xlink:href="#E" y="72.587"/><use xlink:href="#B" x="134.006" y="87.104"/><use xlink:href="#C" x="-8.934" y="101.622"/><use xlink:href="#B" x="8.933" y="101.621"/><use xlink:href="#C" x="8.933" y="101.622"/><use xlink:href="#C" x="17.866" y="101.622"/><use xlink:href="#C" x="26.8" y="101.622"/><use xlink:href="#B" x="44.666" y="101.621"/><use xlink:href="#B" x="53.6" y="101.621"/><use xlink:href="#C" x="53.6" y="101.622"/><use xlink:href="#C" x="62.533" y="101.622"/><use xlink:href="#B" x="80.4" y="101.621"/><use xlink:href="#C" x="80.4" y="101.622"/><use xlink:href="#B" x="98.267" y="101.621"/><use xlink:href="#C" x="98.267" y="101.622"/><use xlink:href="#C" x="107.205" y="101.622"/><use xlink:href="#B" x="125.072" y="101.621"/><use xlink:href="#D" y="101.622"/><use xlink:href="#B" y="116.139"/><use xlink:href="#C" y="116.139"/><use xlink:href="#B" x="17.866" y="116.139"/><use xlink:href="#C" x="17.866" y="116.139"/><use xlink:href="#B" x="35.733" y="116.139"/><use xlink:href="#C" x="35.733" y="116.139"/><use xlink:href="#B" x="53.6" y="116.139"/><use xlink:href="#C" x="53.6" y="116.139"/><use xlink:href="#B" x="71.467" y="116.139"/><use xlink:href="#C" x="71.467" y="116.139"/><use xlink:href="#C" x="80.4" y="116.139"/><use xlink:href="#B" x="98.267" y="116.139"/><use xlink:href="#C" x="98.267" y="116.139"/><use xlink:href="#B" x="116.139" y="116.139"/><use xlink:href="#E" y="101.622"/><use xlink:href="#B" x="134.006" y="116.139"/><use xlink:href="#C" x="-8.934" y="130.657"/><use xlink:href="#C" y="130.657"/><use xlink:href="#B" x="17.866" y="130.656"/><use xlink:href="#C" x="17.866" y="130.657"/><use xlink:href="#C" x="26.8" y="130.657"/><use xlink:href="#B" x="44.666" y="130.656"/><use xlink:href="#C" x="44.667" y="130.657"/><use xlink:href="#B" x="62.533" y="130.656"/><use xlink:href="#C" x="62.533" y="130.657"/><use xlink:href="#B" x="80.4" y="130.656"/><use xlink:href="#C" x="80.4" y="130.657"/><use xlink:href="#B" x="98.267" y="130.656"/><use xlink:href="#C" x="98.267" y="130.657"/><use xlink:href="#B" x="116.139" y="130.656"/><use xlink:href="#E" y="116.14"/><use xlink:href="#D" y="130.657"/></g><path d="M415.591 81.156h72.069v26.961h-72.069z" fill="#34ed5f"/><g class="C"><path d="M440.319 92.394l-2.453 6.736h-3.368l2.453-6.736h-3.368l.813-2.25 9.538.015-.813 2.25-2.802-.015zm1.725 6.736l3.266-8.972h3.368l-3.266 8.972h-3.368zm5.04 0l3.266-8.986h8.507c.392 0 .697.16.915.479a1.09 1.09 0 0 1 .131 1.031l-.958 2.628a2.16 2.16 0 0 1-.813 1.074c-.392.276-.813.406-1.292.406h-5.168l-1.219 3.368h-3.368zm5.168-5.313h3.644l.508-1.423h-3.629l-.523 1.423z"/><use xlink:href="#F"/></g><path d="M415.591 165.901h72.069v26.961h-72.069z" fill="#34bfed"/><g class="C"><path d="M425.785 174.888l.102 8.986h3.368l6.634-8.986h-3.368l-1.118 1.51-1.118 1.495c-.494.653-.871 1.292-1.147 1.887 0-.073.015-.203.029-.406l.029-.479-.044-4.007h-3.368zm7.927 8.987l2.729-7.506a2.2 2.2 0 0 1 .827-1.089c.377-.261.813-.392 1.292-.392h8.536l-3.266 8.986h-3.383l.827-2.25h-3.368l-.827 2.25h-3.368zm5.821-6.736l-.813 2.25h3.368l.813-2.25h-3.368zm9.231-2.236l-3.266 8.972h8.71l.813-2.236h-5.342l2.453-6.736h-3.368z"/><use xlink:href="#F" x="-3.209" y="84.745"/><path d="M466.61 183.875l3.266-8.986h8.507c.392 0 .697.16.915.479a1.09 1.09 0 0 1 .131 1.031l-.958 2.628c-.16.45-.436.813-.813 1.074-.392.276-.813.406-1.292.406h-.247l1.713 3.368h-3.368l-1.713-3.368h-1.553l-1.219 3.368h-3.368zm5.734-6.736l-.523 1.423h3.615l.523-1.423h-3.615z"/></g><g transform="matrix(1.00216 0 0 .518479 -692.344247 -184.966)"><path d="M1072 595h139v52h-139z" fill="#edc234"/><g class="C"><path d="M1076.59 629.666l3.259-17.304h3.361l-3.259 17.304h-3.361z"/><use xlink:href="#G"/><path d="M1106.284 612.334h-10.097l-3.259 17.332h10.097l.811-4.34h-6.722l.478-2.8h5.606l.739-3.612h-5.606l.406-2.24h6.736l.811-4.34zm-1.591 17.332l3.259-17.332h3.375l1.724 8.68 1.637-8.68h3.361l-3.259 17.332h-3.375l-1.724-8.652-1.637 8.652h-3.361zm20.219-12.992l-2.448 12.992h-3.361l2.448-12.992h-3.361l.811-4.34 9.517.028-.811 4.34-2.796-.028zm1.727 12.992l3.259-17.304h3.361L1130 629.666h-3.361zm18.38-17.332l-.811 4.34h-6.736l-.521 2.744h5.606l-.695 3.752h-5.606l-1.231 6.496h-3.361l3.259-17.332h10.097zm-1.591 17.332l3.259-17.304h3.361l-3.259 17.304h-3.361zm17.081-17.332h-7.562c-.478 0-.898.252-1.275.756-.391.532-.666 1.232-.826 2.1l-2.173 11.564c-.13.7-.087 1.344.13 1.96.217.644.521.952.913.952h7.533l.811-4.34h-5.765l1.637-8.652h5.765l.811-4.34zm-1.742 17.332l2.723-14.476c.159-.868.435-1.568.826-2.1.377-.504.811-.756 1.289-.756h8.518l-3.259 17.332h-3.375l.826-4.34h-3.361l-.826 4.34h-3.361zm5.809-12.992l-.811 4.34h3.361l.811-4.34h-3.361z"/><use xlink:href="#G" x="88.919"/><path d="M1194.855 612.334l-2.723 14.476c-.159.868-.435 1.568-.811 2.072-.391.532-.811.784-1.289.784h-8.185l2.723-14.476c.159-.868.435-1.568.826-2.1.377-.504.797-.756 1.275-.756h8.185zm-8.837 12.992h3.028l1.637-8.652h-3.028l-1.637 8.652zm7.242 4.34l3.259-17.332h8.489c.391 0 .695.308.913.924s.261 1.288.13 1.988l-.956 5.068c-.159.868-.435 1.568-.811 2.072-.391.532-.811.784-1.289.784h-.246l1.709 6.496h-3.361l-1.709-6.496h-1.55l-1.217 6.496h-3.361zm5.722-12.992l-.521 2.744h3.607l.521-2.744h-3.607z"/></g></g><path d="M359.475 32.715l7.554 21.194-22.461 1.318 14.907-22.512z" fill="#de3939"/><path d="M164.244 106.35S265.46-5.428 355.023 45.958" fill="none" stroke="#de3939" stroke-width="6"/><defs ><path id="B" d="M384.63 67.033c.755 0 1.394.203 1.916.624.523.406.915 1.016 1.176 1.815.276.798.406 1.757.406 2.889s-.131 2.105-.406 2.903c-.261.798-.653 1.408-1.176 1.829-.523.406-1.161.624-1.916.624-1.147 0-2.018-.465-2.613-1.394-.595-.915-.886-2.236-.886-3.963 0-1.713.29-3.034.886-3.949s1.466-1.379 2.613-1.379zm0 1.278c-.61 0-1.074.319-1.379.973-.305.639-.465 1.67-.465 3.078 0 1.06.058 1.873.189 2.468l2.903-5.923a1.32 1.32 0 0 0-.523-.465c-.203-.087-.436-.131-.726-.131zm0 8.13c.61 0 1.06-.319 1.379-.973.305-.639.45-1.67.45-3.107 0-.973-.044-1.728-.145-2.265l-2.874 5.851a1.41 1.41 0 0 0 .508.377c.189.073.421.116.682.116z"/><path id="C" d="M394.928 67.236v8.972h2.061v1.307h-6.228v-1.307h2.512v-7.259l-2.265 1.394-.711-1.161 3.165-1.945h1.466z"/><path id="D" d="M520 67.236v8.972h2.061v1.307h-6.228v-1.307h2.512v-7.259l-2.265 1.394-.711-1.161 3.165-1.945H520z"/><path id="E" d="M511.067 81.753v8.972h2.061v1.307H506.9v-1.307h2.512v-7.259l-2.265 1.394-.711-1.161 3.165-1.945h1.466z"/><path id="F" d="M471.413 90.143l-2.729 7.506c-.16.45-.436.813-.813 1.074-.392.276-.813.406-1.292.406h-8.202l2.729-7.506a2.2 2.2 0 0 1 .827-1.089 2.18 2.18 0 0 1 1.278-.392h8.202zm-8.856 6.736h3.034l1.64-4.486h-3.034l-1.64 4.486z"/><path id="G" d="M1084.873 612.334l-3.259 17.332h8.272c.478 0 .898-.252 1.289-.784.377-.504.652-1.204.811-2.072l2.173-11.564c.13-.7.087-1.372-.13-1.988s-.521-.924-.913-.924h-8.243zm2.55 4.34h3.115l-1.637 8.652h-3.115l1.637-8.652z"/></defs></svg>