<svg xmlns="http://www.w3.org/2000/svg" xmlns:xlink="http://www.w3.org/1999/xlink" width="600" height="395" fill-rule="evenodd" stroke-linejoin="round" stroke-miterlimit="2" xmlns:v="https://vecta.io/nano"><style><![CDATA[.B{fill-rule:nonzero}.C{fill:#fff}.D{fill:#00851d}.E{fill:#739ec2}.F{fill:#ff5f00}]]></style><circle cx="916" cy="433" r="268" transform="matrix(.735975 0 0 .735978 -386.340845 -121.436173)" class="E"/><path d="M256.588 34.956c-1.123 0-2.021-.202-2.695-.629-.651-.404-1.235-1.123-1.774-2.156l1.864-1.527c.269.629.494 1.078.696 1.37a1.83 1.83 0 0 0 .719.606c.292.112.696.157 1.19.157.943 0 1.639-.045 2.134-.157.472-.112.786-.292.966-.539s.269-.606.269-1.1c0-.472-.067-.808-.225-1.033-.135-.225-.382-.382-.764-.494-.359-.112-.988-.225-1.842-.314-1.662-.202-2.852-.584-3.571-1.1-.741-.517-1.123-1.347-1.123-2.47 0-.921.18-1.662.517-2.201.337-.561.898-.966 1.639-1.213.741-.269 1.752-.404 3.009-.404 1.213 0 2.134.18 2.807.539s1.28.988 1.819 1.886l-1.707 1.662c-.314-.561-.561-.966-.786-1.213-.225-.269-.494-.449-.786-.539-.314-.112-.764-.157-1.347-.157-.764 0-1.347.045-1.752.135s-.674.269-.831.494-.225.561-.225 1.011c0 .314.09.561.247.719.157.18.404.292.741.382l1.505.247c1.28.202 2.291.427 3.009.719.719.269 1.235.674 1.55 1.19.314.539.472 1.258.472 2.156 0 .966-.18 1.729-.561 2.313-.359.561-.966.988-1.797 1.258-.853.269-1.976.404-3.369.404zm14.091 0c-.988 0-1.797-.18-2.403-.517-.584-.337-1.033-.876-1.303-1.617-.292-.741-.427-1.729-.427-2.942v-5.907h-2.538v-2.178h2.538v-3.459h2.358v3.459h4.222v2.178h-4.222v5.907c0 .764.045 1.347.157 1.774.112.404.292.696.539.876s.606.247 1.078.247c.494 0 .853-.022 1.078-.09s.404-.202.494-.382c.112-.157.225-.472.359-.898l2.201.741c-.202.719-.472 1.258-.786 1.662a2.85 2.85 0 0 1-1.28.876c-.517.18-1.213.269-2.066.269zm10.813 0c-1.258 0-2.268-.225-2.987-.674s-1.258-1.145-1.572-2.089-.472-2.223-.472-3.818c0-1.617.157-2.875.472-3.84.314-.943.853-1.662 1.572-2.111s1.729-.674 2.987-.674c.966 0 1.886.18 2.74.494v-3.908h2.358v16.327h-2.358v-.135c-.786.269-1.707.427-2.74.427zm0-2.178c.943 0 1.639-.09 2.066-.314.449-.202.674-.494.674-.853v-4.829c0-.988-.225-1.707-.651-2.156-.427-.472-1.123-.696-2.089-.696-.696 0-1.258.135-1.639.404s-.651.719-.808 1.347c-.157.651-.247 1.527-.247 2.695s.09 2.044.247 2.673.427 1.078.808 1.347c.382.247.943.382 1.639.382zm14.451 2.178c-.943 0-1.684-.157-2.201-.427-.539-.292-.898-.764-1.123-1.437s-.337-1.617-.337-2.807v-9.792H289.7v-2.156h4.918v11.948c0 .943.112 1.595.292 1.954s.539.539 1.033.539a1.4 1.4 0 0 0 .786-.247c.292-.157.674-.449 1.19-.876l1.303 1.999c-.606.494-1.145.831-1.617 1.011-.449.202-1.011.292-1.662.292zm11.868-12.913v10.466h3.571v2.156h-9.5v-2.156h3.593v-8.287h-2.583v-2.178h4.918zm-1.55-1.842c-.674 0-1.145-.112-1.392-.359-.247-.225-.382-.674-.382-1.303 0-.651.135-1.078.382-1.325.247-.225.719-.359 1.392-.359s1.145.135 1.415.359c.247.247.382.674.382 1.325 0 .629-.135 1.078-.382 1.303-.269.247-.741.359-1.415.359zm12.34 14.755c-1.213 0-2.178-.157-2.897-.494-.719-.314-1.415-.876-2.021-1.684V18.337h2.336V22.2c.786-.292 1.639-.449 2.583-.449 1.213 0 2.178.225 2.897.674s1.235 1.168 1.55 2.111c.314.966.472 2.223.472 3.84 0 1.595-.157 2.875-.472 3.818s-.831 1.639-1.55 2.089-1.684.674-2.897.674zm0-2.178c.651 0 1.168-.135 1.55-.382.359-.269.629-.719.786-1.347s.225-1.505.225-2.673-.067-2.044-.225-2.695c-.157-.629-.427-1.078-.786-1.347-.382-.269-.898-.404-1.55-.404-.719 0-1.258.067-1.617.225s-.606.449-.741.853c-.157.404-.225 1.011-.225 1.819v5.21c.337.292.674.494 1.033.606.337.09.853.135 1.55.135z" class="B C"/><circle cx="363" cy="661" r="141" transform="matrix(.794659 0 0 .794658 58.67189 -295.073826)" class="F"/><g class="B C"><path d="M319.574 150.36c-.957 0-1.719-.156-2.265-.449-.566-.273-.957-.742-1.211-1.406-.254-.644-.371-1.543-.371-2.656v-6.718h2.051v6.718c0 .723.039 1.289.137 1.64.098.371.293.625.547.762.254.156.625.215 1.113.215.742 0 1.289-.059 1.64-.176.371-.117.625-.332.762-.625s.215-.742.215-1.347v-7.187h2.051v10.975h-2.051v-.176c-.625.273-1.484.43-2.617.43zm7.293-.253v-10.975h2.031v.918a4.01 4.01 0 0 1 1.094-.82 3.12 3.12 0 0 1 1.465-.352c.684 0 1.25.098 1.699.293a2.82 2.82 0 0 1 1.172.879c.312.41.605.976.879 1.699l-1.836.84c-.156-.527-.312-.918-.449-1.172-.156-.234-.332-.41-.547-.508s-.527-.137-.918-.137c-.918 0-1.582.312-1.972.937-.391.644-.586 1.562-.586 2.773v5.624h-2.031z"/><use xlink:href="#B"/><use xlink:href="#B" x="10.652"/><path d="M363.979 139.131v9.1h3.105v1.875h-8.261v-1.875h3.125v-7.206h-2.246v-1.894h4.277zm-1.347-1.601c-.586 0-.996-.098-1.211-.312-.215-.195-.332-.586-.332-1.133 0-.566.117-.937.332-1.152.215-.195.625-.312 1.211-.312s.996.117 1.23.312c.215.215.332.586.332 1.152 0 .547-.117.937-.332 1.133-.234.215-.644.312-1.23.312zm10.73 12.83c-1.055 0-1.894-.137-2.519-.43-.625-.273-1.23-.762-1.758-1.465v-12.557h2.031v3.359c.684-.254 1.426-.391 2.246-.391 1.055 0 1.894.195 2.519.586s1.074 1.016 1.347 1.836c.273.84.41 1.933.41 3.339 0 1.387-.137 2.5-.41 3.32s-.723 1.426-1.347 1.816-1.465.586-2.519.586zm0-1.894c.566 0 1.016-.117 1.347-.332.312-.234.547-.625.684-1.172s.195-1.308.195-2.324-.059-1.777-.195-2.343c-.137-.547-.371-.937-.684-1.172-.332-.234-.781-.352-1.347-.352-.625 0-1.094.059-1.406.195s-.527.391-.644.742c-.137.352-.195.879-.195 1.582v4.531c.293.254.586.43.898.527.293.078.742.117 1.347.117z"/></g><g transform="matrix(.488223 0 0 .488223 181.852942 -51.99573)"><circle cx="229.5" cy="563.5" r="89.5" transform="matrix(.530726 0 0 .530726 107.698 264.436)" class="D"/><g class="B C"><use xlink:href="#C"/><use xlink:href="#D"/><use xlink:href="#E"/><use xlink:href="#F"/><use xlink:href="#G"/><path d="M240.777 571.928v-11.24h2.1v.28c.76-.36 1.64-.54 2.66-.54 1.04 0 1.84.16 2.4.44s.96.76 1.2 1.44c.24.66.36 1.62.36 2.84v6.78h-2.1v-6.78c0-.72-.06-1.28-.18-1.68-.1-.4-.3-.68-.56-.84-.26-.18-.64-.26-1.12-.26-.78 0-1.36.06-1.74.2a1.23 1.23 0 0 0-.74.74c-.12.36-.18.9-.18 1.64v6.98h-2.1z"/><use xlink:href="#E" x="43.636"/><use xlink:href="#D" x="65.454"/></g></g><g transform="matrix(.488223 0 0 .488223 235.086645 -90.680783)"><circle cx="229.5" cy="563.5" r="89.5" transform="matrix(.530726 0 0 .530726 107.698 264.436)" class="D"/><g class="B C"><use xlink:href="#C" x="5.454"/><use xlink:href="#D" x="5.454"/><path d="M220.064 571.748a7.04 7.04 0 0 1-2.44.44c-1.12 0-2-.2-2.66-.6-.64-.4-1.12-1.02-1.4-1.88-.28-.84-.42-1.98-.42-3.42 0-1.42.14-2.54.42-3.4.28-.84.76-1.46 1.4-1.86.66-.4 1.54-.6 2.66-.6a7.71 7.71 0 0 1 2.44.38v-.12h2.1v14.54h-2.1v-3.48zm-2.44-1.5c.86 0 1.48-.2 1.88-.62.38-.4.56-1.04.56-1.92v-4.28c0-.34-.2-.6-.58-.78-.4-.18-1.02-.28-1.86-.28-.62 0-1.1.12-1.44.36-.34.22-.58.62-.74 1.18-.14.56-.22 1.36-.22 2.38 0 1.04.08 1.84.22 2.4.16.56.4.96.74 1.2s.82.36 1.44.36zm10.729 1.94c-.98 0-1.76-.16-2.32-.46-.58-.28-.98-.76-1.24-1.44-.26-.66-.38-1.58-.38-2.72v-6.88h2.1v6.88c0 .74.04 1.32.14 1.68.1.38.3.64.56.78.26.16.64.22 1.14.22.76 0 1.32-.06 1.68-.18.38-.12.64-.34.78-.64s.22-.76.22-1.38v-7.36h2.1v11.24h-2.1v-.18c-.64.28-1.52.44-2.68.44z"/><use xlink:href="#D" x="38.182"/><use xlink:href="#E" x="38.182"/><use xlink:href="#H"/></g></g><g transform="matrix(.488223 0 0 .488223 288.321011 -51.99573)"><circle cx="229.5" cy="563.5" r="89.5" transform="matrix(.530726 0 0 .530726 107.698 264.436)" class="D"/><g class="B C"><use xlink:href="#F" x="-16.364"/><use xlink:href="#I"/><use xlink:href="#C" x="38.181"/><use xlink:href="#E" x="27.273"/><use xlink:href="#D" x="49.091"/></g></g><g transform="matrix(.488223 0 0 .488223 206.525561 9.579162)"><circle cx="229.5" cy="563.5" r="89.5" transform="matrix(.530726 0 0 .530726 107.698 264.436)" class="D"/><g class="B C"><use xlink:href="#D" x="5.454"/><use xlink:href="#C" x="27.272"/><use xlink:href="#C" x="38.181"/><use xlink:href="#G" x="5.455"/><use xlink:href="#C" x="60"/></g></g><g transform="matrix(.488223 0 0 .488223 267.0834 9.579162)"><circle cx="229.5" cy="563.5" r="89.5" transform="matrix(.530726 0 0 .530726 107.698 264.436)" class="D"/><g class="B C"><use xlink:href="#C" x="17.004" y="-12.147"/><use xlink:href="#G" x="-15.723" y="-12.147"/><path d="M229.534 560.041c-1.08 0-1.94-.14-2.58-.44-.64-.28-1.26-.78-1.8-1.5v-12.86h2.08v3.44c.7-.26 1.46-.4 2.3-.4 1.08 0 1.94.2 2.58.6s1.1 1.04 1.38 1.88c.28.86.42 1.98.42 3.42 0 1.42-.14 2.56-.42 3.4s-.74 1.46-1.38 1.86-1.5.6-2.58.6zm0-1.94c.58 0 1.04-.12 1.38-.34.32-.24.56-.64.7-1.2s.2-1.34.2-2.38-.06-1.82-.2-2.4c-.14-.56-.38-.96-.7-1.2-.34-.24-.8-.36-1.38-.36-.64 0-1.12.06-1.44.2s-.54.4-.66.76c-.14.36-.2.9-.2 1.62v4.64c.3.26.6.44.92.54.3.08.76.12 1.38.12z"/><use xlink:href="#G" x="6.096" y="-12.147"/><use xlink:href="#H" x="-10.268" y="-12.147"/><use xlink:href="#F" x="-21.177" y="6.528"/><use xlink:href="#I" x="-4.813" y="6.528"/><use xlink:href="#C" x="33.368" y="6.528"/><use xlink:href="#E" x="22.459" y="6.528"/><use xlink:href="#D" x="44.277" y="6.528"/><use xlink:href="#C" x="66.095" y="6.528"/></g></g><g class="B E"><path d="M.25 52.728c-.062 0-.125-.021-.166-.083a.19.19 0 0 1-.083-.166V38.411c0-.062.021-.125.083-.187.042-.042.104-.062.166-.062h2.435a.34.34 0 0 1 .187.062.33.33 0 0 1 .062.187v11.696c0 .062.042.104.104.104h6.805a.34.34 0 0 1 .187.062.33.33 0 0 1 .062.187v2.019c0 .062-.021.125-.062.166-.062.062-.125.083-.187.083H.25zm13.048-11.903c-.479 0-.853-.166-1.165-.479a1.57 1.57 0 0 1-.479-1.165c0-.478.146-.874.458-1.186s.708-.458 1.186-.458.874.146 1.186.458.458.708.458 1.186-.146.853-.458 1.165a1.65 1.65 0 0 1-1.186.479zM12.05 52.728c-.062 0-.125-.021-.166-.083a.19.19 0 0 1-.083-.166V42.261c0-.062.021-.125.083-.187.042-.042.104-.062.166-.062h2.435a.34.34 0 0 1 .187.062.33.33 0 0 1 .062.187v10.218c0 .062-.021.125-.062.166-.062.062-.125.083-.187.083H12.05zm14.442-7.97c.271.728.395 1.582.395 2.581 0 .957-.125 1.79-.354 2.518-.312.936-.832 1.686-1.519 2.227-.708.541-1.54.812-2.497.812-1.02 0-1.811-.375-2.393-1.145-.021-.021-.062-.042-.083-.042-.021.021-.042.042-.042.083v.687c0 .062-.021.125-.062.166-.062.062-.125.083-.187.083h-2.435c-.062 0-.125-.021-.166-.083a.19.19 0 0 1-.083-.166V38.411c0-.062.021-.125.083-.187.042-.042.104-.062.166-.062h2.435a.34.34 0 0 1 .187.062.33.33 0 0 1 .062.187v4.453c0 .042.021.062.042.083s.062 0 .083-.042c.541-.687 1.311-1.041 2.31-1.041 1.02 0 1.852.271 2.56.77.666.52 1.186 1.228 1.498 2.123zm-3.08 4.724c.291-.52.437-1.228.437-2.081 0-.957-.166-1.686-.499-2.206a1.63 1.63 0 0 0-1.478-.812c-.604 0-1.082.271-1.394.812-.312.52-.458 1.249-.458 2.185s.146 1.623.416 2.102c.333.604.812.895 1.457.895a1.61 1.61 0 0 0 1.519-.895z"/><use xlink:href="#J"/><use xlink:href="#K"/><use xlink:href="#J" x="18.833"/><path d="M55.773 56.87c-.042 0-.083-.021-.104-.062-.021-.062-.042-.125-.042-.187v-1.915c0-.062.021-.125.083-.166.042-.062.104-.083.166-.083.583-.021 1.041-.062 1.394-.146a1.6 1.6 0 0 0 .812-.479c.187-.229.354-.583.458-1.041.021-.021.021-.062 0-.125l-3.413-10.364c-.021-.021-.021-.062-.021-.104 0-.125.083-.187.229-.187h2.601c.146 0 .25.062.291.208l1.748 6.743c.021.042.042.062.062.062s.042-.021.062-.062l1.748-6.743c.042-.146.146-.208.291-.208h2.539c.083 0 .146.021.187.062a.42.42 0 0 1 0 .229l-3.6 10.821c-.354 1.02-.708 1.769-1.061 2.289-.354.499-.874.874-1.519 1.103s-1.582.354-2.768.354h-.146z"/></g><g class="F B"><path d="M529.005 100.423c.916 0 1.727.187 2.414.562a4.09 4.09 0 0 1 1.623 1.582c.375.687.562 1.478.562 2.372 0 .874-.187 1.644-.583 2.31a3.97 3.97 0 0 1-1.665 1.54c-.728.375-1.54.562-2.476.562h-2.955c-.062 0-.104.042-.104.104v5.307c0 .062-.021.125-.062.166-.062.062-.125.083-.187.083h-2.435c-.062 0-.125-.021-.166-.083-.062-.042-.083-.104-.083-.166v-14.089c0-.062.021-.125.083-.187.042-.042.104-.062.166-.062h5.869zm-.437 6.576c.645 0 1.145-.187 1.54-.562.395-.354.583-.832.583-1.436s-.187-1.103-.583-1.478-.895-.562-1.54-.562h-2.643c-.062 0-.104.042-.104.104v3.829c0 .062.042.104.104.104h2.643z"/><use xlink:href="#K" x="498.434" y="62.283"/><path d="M550.773 115.178c-1.103 0-2.06-.271-2.872-.832-.832-.562-1.394-1.311-1.748-2.289-.229-.687-.354-1.519-.354-2.456s.125-1.727.354-2.414a4.38 4.38 0 0 1 1.727-2.227c.812-.541 1.79-.812 2.893-.812s2.081.271 2.934.832c.832.562 1.394 1.249 1.665 2.102.104.333.166.583.166.749v.042c0 .125-.062.208-.208.229l-2.393.354h-.042c-.125 0-.208-.062-.25-.208l-.062-.333c-.104-.354-.312-.666-.645-.895s-.728-.354-1.186-.354c-.437 0-.812.104-1.124.333s-.52.52-.645.916c-.146.416-.229.978-.229 1.706s.062 1.29.208 1.706a1.84 1.84 0 0 0 .666.978c.312.229.687.354 1.124.354s.812-.125 1.145-.354c.312-.208.541-.541.666-.936.021-.021.021-.062.021-.125.021-.021.021-.042.021-.062.021-.166.104-.229.291-.208l2.393.375c.146.021.208.104.208.229 0 .104-.042.312-.125.624-.291.936-.853 1.665-1.686 2.185-.853.52-1.811.791-2.913.791zm6.721-.166c-.062 0-.125-.021-.166-.083a.19.19 0 0 1-.083-.166v-14.068c0-.062.021-.125.083-.187.042-.042.104-.062.166-.062h2.435a.34.34 0 0 1 .187.062.33.33 0 0 1 .062.187v7.013c0 .042.021.062.042.062.021.021.062 0 .083-.021l2.83-3.288c.104-.104.208-.146.312-.146h2.768c.146 0 .208.042.208.146 0 .042-.021.104-.062.166l-2.643 3.35c-.021.062-.042.104-.021.146l3.101 6.597c.021.062.042.104.042.125 0 .104-.083.166-.229.166h-2.56c-.146 0-.229-.062-.291-.187l-2.06-4.87-.062-.062c-.042 0-.062.021-.083.042l-1.332 1.665c-.021.062-.042.104-.042.125v3.038c0 .062-.021.125-.062.166-.062.062-.125.083-.187.083h-2.435z"/><use xlink:href="#K" x="531.231" y="62.283"/><path d="M585.402 104.565c0-.062.021-.125.083-.187.042-.042.104-.062.166-.062h2.435c.062 0 .125.021.187.062.042.062.062.125.062.187v9.49c0 1.811-.52 3.122-1.561 3.892-1.061.77-2.414 1.165-4.058 1.165a16.19 16.19 0 0 1-1.623-.104c-.146-.021-.208-.104-.208-.271l.083-2.143c0-.187.104-.25.291-.229.499.083.957.125 1.373.125.895 0 1.582-.187 2.06-.583s.708-1.02.708-1.873c0-.042-.021-.062-.042-.083-.021 0-.062.021-.083.042-.52.562-1.29.853-2.31.853-.895 0-1.727-.229-2.476-.666-.77-.437-1.311-1.124-1.623-2.102-.208-.645-.312-1.457-.312-2.476 0-1.082.125-1.956.375-2.643.291-.853.791-1.519 1.478-2.039s1.498-.77 2.414-.77c1.061 0 1.894.312 2.456.957.021.021.062.042.083.021.021 0 .042-.021.042-.062v-.499zm-.166 6.722c.104-.416.166-.978.166-1.706l-.042-.999c-.021-.229-.083-.458-.146-.666-.125-.375-.333-.687-.624-.916s-.645-.333-1.082-.333c-.416 0-.77.104-1.061.333s-.499.541-.645.916c-.187.416-.291.978-.291 1.686 0 .77.083 1.332.25 1.665.125.375.354.666.666.895s.666.354 1.103.354.812-.125 1.103-.354.499-.52.604-.874z"/><use xlink:href="#L"/></g><g class="D B"><path d="M506.127 342.41a.33.33 0 0 1 .291-.166h2.435a.34.34 0 0 1 .187.062.33.33 0 0 1 .062.187v14.068c0 .062-.021.125-.062.166-.062.062-.125.083-.187.083h-2.435c-.062 0-.125-.021-.166-.083a.19.19 0 0 1-.083-.166v-9.177c0-.062-.021-.083-.042-.083s-.062.021-.083.062l-2.206 3.455a.33.33 0 0 1-.291.166h-1.228a.33.33 0 0 1-.291-.166l-2.206-3.455c-.021-.042-.062-.062-.083-.062-.021.021-.042.042-.042.104v9.157c0 .062-.021.125-.062.166-.062.062-.125.083-.187.083h-2.435c-.062 0-.125-.021-.166-.083a.19.19 0 0 1-.083-.166v-14.068c0-.062.021-.125.083-.187.042-.042.104-.062.166-.062h2.435a.33.33 0 0 1 .291.166l3.122 4.849c.042.083.083.083.125 0l3.142-4.849zm10.051 14.568c-1.165 0-2.164-.312-2.997-.916s-1.394-1.436-1.706-2.497c-.187-.645-.291-1.353-.291-2.123 0-.812.104-1.561.291-2.206.312-1.02.895-1.831 1.727-2.414s1.831-.874 2.997-.874c1.145 0 2.102.291 2.913.853.812.583 1.373 1.394 1.706 2.414.229.687.333 1.415.333 2.185 0 .749-.104 1.457-.291 2.102-.312 1.082-.874 1.935-1.686 2.539-.832.624-1.831.936-2.997.936zm0-2.518c.458 0 .853-.146 1.165-.416s.541-.666.687-1.145c.104-.437.166-.936.166-1.457 0-.583-.062-1.082-.166-1.478a2.31 2.31 0 0 0-.708-1.103c-.312-.271-.708-.395-1.165-.395-.479 0-.853.125-1.165.395s-.541.624-.687 1.103c-.104.333-.166.832-.166 1.478 0 .624.042 1.103.146 1.457.146.479.375.874.708 1.145.312.271.708.416 1.186.416zm13.506-11.966c0-.062.021-.125.083-.187.042-.042.104-.062.166-.062h2.435a.34.34 0 0 1 .187.062.33.33 0 0 1 .062.187v14.068c0 .062-.021.125-.062.166-.062.062-.125.083-.187.083h-2.435c-.062 0-.125-.021-.166-.083a.19.19 0 0 1-.083-.166v-.687c0-.042-.021-.062-.042-.083-.021 0-.062.021-.083.042-.583.77-1.373 1.145-2.393 1.145-.978 0-1.811-.271-2.497-.812-.708-.541-1.207-1.29-1.519-2.227-.229-.728-.354-1.561-.354-2.518 0-.978.125-1.852.375-2.581.312-.895.812-1.602 1.519-2.123.687-.499 1.519-.77 2.539-.77.999 0 1.769.354 2.331 1.041.021.042.062.062.083.042s.042-.042.042-.083v-4.453zm-.437 11.071c.271-.52.416-1.207.416-2.102 0-.936-.146-1.665-.458-2.185-.312-.541-.791-.812-1.394-.812a1.63 1.63 0 0 0-1.478.812c-.354.541-.52 1.269-.52 2.206 0 .832.146 1.519.437 2.081a1.66 1.66 0 0 0 1.54.895c.624 0 1.103-.291 1.457-.895zm11.821-7.201c0-.062.021-.125.083-.187.042-.042.104-.062.166-.062h2.435a.34.34 0 0 1 .187.062.33.33 0 0 1 .062.187v10.197c0 .062-.021.125-.062.166-.062.062-.125.083-.187.083h-2.435c-.062 0-.125-.021-.166-.083a.19.19 0 0 1-.083-.166v-.708c0-.042-.021-.062-.042-.083-.021 0-.062.021-.083.062-.562.749-1.415 1.124-2.581 1.124-1.061 0-1.915-.312-2.601-.957s-1.02-1.54-1.02-2.685v-6.951c0-.062.021-.125.083-.187.042-.042.104-.062.166-.062h2.414a.34.34 0 0 1 .187.062.33.33 0 0 1 .062.187v6.222c0 .562.146.999.458 1.353.291.354.708.52 1.228.52.479 0 .853-.146 1.165-.437.312-.271.499-.645.562-1.103v-6.555zm5.348 10.447c-.062 0-.125-.021-.166-.083a.19.19 0 0 1-.083-.166v-14.068c0-.062.021-.125.083-.187.042-.042.104-.062.166-.062h2.435a.34.34 0 0 1 .187.062.33.33 0 0 1 .062.187v14.068c0 .062-.021.125-.062.166-.062.062-.125.083-.187.083h-2.435z"/><use xlink:href="#L" x="-39.193" y="241.8"/></g><path d="M78.115 61.548l-3.927 6.802-4.423-16.506 16.506-4.423-3.927 6.802 67.333 38.875-4.229 7.325-67.333-38.875z" class="E"/><path d="M501.691 116.214l-3.927-6.802 16.506 4.423-4.423 16.506-3.927-6.802-82.468 47.613-4.229-7.325 82.468-47.613z" class="F"/><path d="M482.077 337.158l3.927-6.802 4.423 16.506-16.506 4.423 3.927-6.802-82.468-47.613 4.229-7.325 82.468 47.613z" class="D"/><defs ><path id="B" d="M343.007 150.36c-.82 0-1.465-.137-1.914-.371-.469-.254-.781-.664-.976-1.25s-.293-1.406-.293-2.441v-8.515h-2.246v-1.875h4.277v10.389c0 .82.098 1.387.254 1.699s.469.469.898.469c.215 0 .449-.059.684-.215.254-.137.586-.391 1.035-.762l1.133 1.738c-.527.43-.996.723-1.406.879-.391.176-.879.254-1.445.254z"/><path id="C" d="M186.732 571.928v-11.24h2.08v.94c.3-.32.66-.6 1.12-.84s.96-.36 1.5-.36c.7 0 1.28.1 1.74.3.46.18.86.48 1.2.9.32.42.62 1 .9 1.74l-1.88.86c-.16-.54-.32-.94-.46-1.2-.16-.24-.34-.42-.56-.52s-.54-.14-.94-.14c-.94 0-1.62.32-2.02.96-.4.66-.6 1.6-.6 2.84v5.76h-2.08z"/><path id="D" d="M201.441 560.428c1.18 0 2.1.22 2.76.66.66.42 1.14 1.1 1.4 2.04.28.92.4 2.16.38 3.74h-7.22c.04.88.14 1.56.32 2.04s.44.84.82 1.04.9.3 1.54.3c.48 0 .86-.04 1.16-.12.3-.1.58-.26.82-.5.26-.24.54-.6.88-1.06l1.68 1.1c-.6.94-1.24 1.6-1.92 1.96-.66.36-1.54.56-2.62.56-1.2 0-2.14-.2-2.84-.6s-1.2-1.02-1.5-1.88c-.3-.84-.46-1.98-.46-3.4s.16-2.54.46-3.4c.3-.84.8-1.48 1.5-1.88s1.64-.6 2.84-.6zm2.4 4.52c-.08-.66-.2-1.18-.36-1.54-.16-.38-.4-.64-.74-.8-.32-.16-.74-.24-1.3-.24-.6 0-1.08.08-1.44.24s-.64.42-.84.8c-.18.36-.3.88-.36 1.54h5.04z"/><path id="E" d="M211.85 572.188c-1 0-1.8-.18-2.4-.56-.58-.36-1.1-1-1.58-1.92l1.66-1.36c.24.56.44.96.62 1.22a1.63 1.63 0 0 0 .64.54c.26.1.62.14 1.06.14.84 0 1.46-.04 1.9-.14.42-.1.7-.26.86-.48s.24-.54.24-.98c0-.42-.06-.72-.2-.92-.12-.2-.34-.34-.68-.44-.32-.1-.88-.2-1.64-.28-1.48-.18-2.54-.52-3.18-.98-.66-.46-1-1.2-1-2.2 0-.82.16-1.48.46-1.96.3-.5.8-.86 1.46-1.08.66-.24 1.56-.36 2.68-.36 1.08 0 1.9.16 2.5.48s1.14.88 1.62 1.68l-1.52 1.48c-.28-.5-.5-.86-.7-1.08-.2-.24-.44-.4-.7-.48-.28-.1-.68-.14-1.2-.14-.68 0-1.2.04-1.56.12s-.6.24-.74.44-.2.5-.2.9c0 .28.08.5.22.64.14.16.36.26.66.34l1.34.22c1.14.18 2.04.38 2.68.64.64.24 1.1.6 1.38 1.06.28.48.42 1.12.42 1.92 0 .86-.16 1.54-.5 2.06-.32.5-.86.88-1.6 1.12-.76.24-1.76.36-3 .36z"/><path id="F" d="M218.819 575.228v-14.54h2.1v.12c.7-.24 1.52-.38 2.42-.38 1.12 0 2.02.2 2.68.6.64.4 1.12 1.02 1.4 1.86.28.86.44 1.98.44 3.4s-.16 2.56-.44 3.42c-.28.84-.76 1.48-1.4 1.88-.66.4-1.56.6-2.68.6-.86 0-1.66-.16-2.42-.44v3.48h-2.1zm4.52-4.98c.64 0 1.12-.12 1.46-.36.36-.24.6-.64.74-1.2s.22-1.36.22-2.4c0-1.02-.08-1.82-.22-2.38s-.38-.96-.74-1.18c-.34-.24-.82-.36-1.46-.36-1.62 0-2.42.34-2.42 1.06v4.28c0 .88.2 1.52.56 1.92.38.42 1 .62 1.86.62z"/><path id="G" d="M234.128 572.188c-1.14 0-2.02-.2-2.66-.6-.66-.4-1.12-1.02-1.4-1.88-.3-.84-.44-1.98-.44-3.4s.14-2.54.44-3.4c.28-.84.74-1.48 1.4-1.88.64-.4 1.52-.6 2.66-.6 1.12 0 2.02.2 2.66.6.66.4 1.14 1.04 1.42 1.88.28.86.42 1.98.42 3.4s-.14 2.56-.42 3.4c-.28.86-.76 1.48-1.42 1.88-.64.4-1.54.6-2.66.6zm0-1.94c.62 0 1.12-.12 1.46-.34.34-.24.58-.64.74-1.2.14-.58.22-1.36.22-2.4 0-1.02-.08-1.82-.22-2.38-.16-.58-.4-.98-.74-1.2-.34-.24-.84-.36-1.46-.36-.64 0-1.12.12-1.46.36-.34.22-.58.62-.72 1.2-.16.56-.22 1.36-.22 2.38 0 1.04.06 1.82.22 2.4.14.56.38.96.72 1.2.34.22.82.34 1.46.34z"/><path id="H" d="M262.581 572.188c-.88 0-1.6-.16-2.14-.46-.52-.3-.92-.78-1.16-1.44-.26-.66-.38-1.54-.38-2.62v-5.26h-2.26v-1.94h2.26v-3.08h2.1v3.08h3.76v1.94h-3.76v5.26c0 .68.04 1.2.14 1.58.1.36.26.62.48.78s.54.22.96.22c.44 0 .76-.02.96-.08s.36-.18.44-.34c.1-.14.2-.42.32-.8l1.96.66c-.18.64-.42 1.12-.7 1.48-.3.36-.68.62-1.14.78s-1.08.24-1.84.24z"/><path id="I" d="M217.284 572.188c-1.06 0-1.92-.12-2.56-.36-.62-.26-1.08-.64-1.38-1.14-.28-.52-.42-1.2-.42-2.06 0-.98.14-1.72.42-2.26.28-.52.72-.9 1.36-1.1.62-.22 1.48-.32 2.58-.32h2.3v-.4c0-.52-.08-.9-.2-1.18s-.36-.48-.68-.6c-.32-.1-.8-.16-1.42-.16-.5 0-.9.04-1.16.14-.26.12-.48.3-.62.56s-.28.68-.42 1.22l-2-.5c.22-.86.5-1.54.82-2.06s.76-.9 1.3-1.16c.56-.24 1.24-.38 2.08-.38 1.58 0 2.7.34 3.38 1.02.66.68 1 1.7 1 3.1v4.26c0 .48.06.82.14.98.1.16.32.24.62.24.1 0 .32-.02.66-.04v1.92c-.14.02-.34.02-.6.02-1.06 0-1.78-.24-2.18-.72a2.72 2.72 0 0 1-1.22.74c-.48.16-1.08.24-1.8.24zm0-1.94c.62 0 1.1-.06 1.42-.22a1.19 1.19 0 0 0 .68-.74c.12-.34.2-.86.2-1.52v-.9h-2.3c-.68 0-1.18.04-1.48.1-.28.08-.48.22-.6.46-.14.24-.2.64-.2 1.2 0 .44.06.78.2 1 .12.22.34.38.66.48s.8.14 1.42.14z"/><path id="J" d="M34.13 41.886c.499 0 .895.104 1.186.291.104.062.146.166.125.312l-.437 2.372c-.021.166-.104.208-.291.146a2.56 2.56 0 0 0-.728-.104c-.104 0-.271.021-.458.042a2.13 2.13 0 0 0-1.269.541c-.354.333-.52.77-.52 1.311v5.681c0 .062-.021.125-.062.166-.062.062-.125.083-.187.083h-2.435c-.062 0-.125-.021-.166-.083-.062-.042-.083-.104-.083-.166V42.281c0-.062.021-.125.083-.187.042-.042.104-.062.166-.062h2.435c.062 0 .125.021.187.062.042.062.062.125.062.187v.791c0 .042.021.062.042.083s.042 0 .062-.021c.562-.832 1.332-1.249 2.289-1.249z"/><path id="K" d="M40.914 41.865c.895 0 1.706.146 2.414.458s1.269.749 1.665 1.29c.375.541.583 1.145.583 1.811v7.055c0 .062-.021.125-.062.166-.062.062-.125.083-.187.083h-2.435c-.062 0-.125-.021-.166-.083-.062-.042-.083-.104-.083-.166v-.687c0-.042-.021-.062-.042-.083s-.062 0-.083.042c-.583.77-1.519 1.145-2.809 1.145-1.082 0-1.956-.271-2.622-.791s-.999-1.311-.999-2.331c0-1.061.375-1.894 1.124-2.497.749-.583 1.811-.874 3.205-.874h2.123c.062 0 .104-.042.104-.104v-.458c0-.458-.146-.812-.416-1.082-.271-.25-.687-.375-1.249-.375-.437 0-.791.083-1.061.229-.291.146-.479.375-.562.645-.042.146-.125.229-.271.208l-2.518-.333c-.166-.021-.25-.083-.229-.187.062-.583.291-1.103.708-1.582.395-.479.936-.832 1.623-1.103.666-.271 1.415-.395 2.248-.395zm-.416 8.844c.604 0 1.103-.166 1.519-.479a1.47 1.47 0 0 0 .624-1.228v-.749c0-.062-.042-.104-.104-.104h-1.498c-.624 0-1.103.125-1.457.354-.375.229-.541.562-.541.999 0 .375.125.666.395.874.271.229.624.333 1.061.333z"/><path id="L" d="M599.906 108.56c.083.52.104 1.124.083 1.769-.021.166-.104.25-.271.25h-6.43c-.083 0-.104.042-.083.104.042.271.125.562.229.832.354.77 1.103 1.165 2.206 1.165.895-.021 1.582-.375 2.102-1.082.062-.083.125-.125.187-.125.042 0 .083.021.146.083l1.498 1.478c.062.062.104.125.104.187 0 .021-.021.083-.083.166a4.34 4.34 0 0 1-1.769 1.311c-.728.312-1.519.479-2.372.479-1.186 0-2.206-.271-3.018-.812-.832-.541-1.436-1.29-1.79-2.268-.291-.687-.437-1.602-.437-2.726 0-.77.104-1.436.312-2.019.312-.978.874-1.769 1.686-2.352.791-.583 1.727-.874 2.83-.874 1.394 0 2.497.395 3.35 1.207.832.812 1.332 1.873 1.519 3.226zm-4.849-1.894c-.874 0-1.457.416-1.727 1.228-.062.187-.104.395-.146.666 0 .062.042.104.104.104h3.6c.083 0 .104-.042.083-.104l-.104-.583c-.125-.416-.333-.749-.645-.978s-.708-.333-1.165-.333z"/></defs></svg>