<?xml version="1.0" encoding="UTF-8" standalone="no"?>
<!DOCTYPE svg PUBLIC "-//W3C//DTD SVG 1.1//EN" "http://www.w3.org/Graphics/SVG/1.1/DTD/svg11.dtd">
<svg width="545px" height="47px" version="1.1" xmlns="http://www.w3.org/2000/svg" xmlns:xlink="http://www.w3.org/1999/xlink" xml:space="preserve" xmlns:serif="http://www.serif.com/" style="fill-rule:evenodd;clip-rule:evenodd;stroke-linecap:round;stroke-linejoin:round;stroke-miterlimit:1.5;">
    <g transform="matrix(1,0,0,1,-687.5,-516.635)">
        <g transform="matrix(0.584137,0,0,0.409921,799.07,361.275)">
            <rect x="401" y="379" width="341" height="114" style="fill:url(#_Linear1);"/>
        </g>
        <g transform="matrix(0.584137,0,0,0.409921,453.261,361.275)">
            <rect x="401" y="379" width="341" height="114" style="fill:url(#_Linear2);"/>
        </g>
        <g transform="matrix(0.584137,0,0,0.584137,453.261,285.316)">
            <g transform="matrix(50,0,0,50,417.654,455.026)">
                <path d="M0.53,-0.157C0.53,-0.137 0.533,-0.122 0.538,-0.113C0.544,-0.103 0.553,-0.096 0.566,-0.091L0.533,0.015C0.5,0.012 0.472,0.005 0.451,-0.006C0.429,-0.018 0.412,-0.035 0.399,-0.056C0.379,-0.032 0.353,-0.014 0.321,-0.001C0.289,0.011 0.256,0.017 0.22,0.017C0.183,0.017 0.151,0.01 0.123,-0.004C0.095,-0.019 0.074,-0.039 0.058,-0.065C0.043,-0.091 0.036,-0.12 0.036,-0.154C0.036,-0.193 0.046,-0.226 0.067,-0.254C0.088,-0.282 0.118,-0.303 0.158,-0.317C0.198,-0.332 0.245,-0.339 0.301,-0.339L0.374,-0.339L0.374,-0.359C0.374,-0.415 0.338,-0.443 0.267,-0.443C0.249,-0.443 0.226,-0.441 0.198,-0.435C0.171,-0.43 0.144,-0.423 0.117,-0.414L0.08,-0.522C0.114,-0.535 0.15,-0.545 0.188,-0.552C0.226,-0.559 0.261,-0.563 0.292,-0.563C0.372,-0.563 0.432,-0.546 0.471,-0.514C0.511,-0.481 0.53,-0.434 0.53,-0.37L0.53,-0.157ZM0.276,-0.098C0.294,-0.098 0.313,-0.104 0.332,-0.115C0.351,-0.125 0.365,-0.14 0.374,-0.158L0.374,-0.247L0.334,-0.247C0.29,-0.247 0.257,-0.24 0.235,-0.226C0.214,-0.212 0.203,-0.192 0.203,-0.165C0.203,-0.144 0.209,-0.128 0.222,-0.116C0.235,-0.104 0.253,-0.098 0.276,-0.098Z" style="fill-rule:nonzero;"/>
            </g>
            <g transform="matrix(50,0,0,50,479.192,455.026)">
                <path d="M0.075,-0.49L0.541,-0.49L0.541,-0.364L0.075,-0.364L0.075,-0.49ZM0.075,-0.274L0.541,-0.274L0.541,-0.149L0.075,-0.149L0.075,-0.274Z" style="fill-rule:nonzero;"/>
            </g>
            <g transform="matrix(50,0,0,50,540.731,455.026)">
                <path d="M0.53,-0.157C0.53,-0.137 0.533,-0.122 0.538,-0.113C0.544,-0.103 0.553,-0.096 0.566,-0.091L0.533,0.015C0.5,0.012 0.472,0.005 0.451,-0.006C0.429,-0.018 0.412,-0.035 0.399,-0.056C0.379,-0.032 0.353,-0.014 0.321,-0.001C0.289,0.011 0.256,0.017 0.22,0.017C0.183,0.017 0.151,0.01 0.123,-0.004C0.095,-0.019 0.074,-0.039 0.058,-0.065C0.043,-0.091 0.036,-0.12 0.036,-0.154C0.036,-0.193 0.046,-0.226 0.067,-0.254C0.088,-0.282 0.118,-0.303 0.158,-0.317C0.198,-0.332 0.245,-0.339 0.301,-0.339L0.374,-0.339L0.374,-0.359C0.374,-0.415 0.338,-0.443 0.267,-0.443C0.249,-0.443 0.226,-0.441 0.198,-0.435C0.171,-0.43 0.144,-0.423 0.117,-0.414L0.08,-0.522C0.114,-0.535 0.15,-0.545 0.188,-0.552C0.226,-0.559 0.261,-0.563 0.292,-0.563C0.372,-0.563 0.432,-0.546 0.471,-0.514C0.511,-0.481 0.53,-0.434 0.53,-0.37L0.53,-0.157ZM0.276,-0.098C0.294,-0.098 0.313,-0.104 0.332,-0.115C0.351,-0.125 0.365,-0.14 0.374,-0.158L0.374,-0.247L0.334,-0.247C0.29,-0.247 0.257,-0.24 0.235,-0.226C0.214,-0.212 0.203,-0.192 0.203,-0.165C0.203,-0.144 0.209,-0.128 0.222,-0.116C0.235,-0.104 0.253,-0.098 0.276,-0.098Z" style="fill-rule:nonzero;"/>
            </g>
            <g transform="matrix(50,0,0,50,602.269,455.026)">
                <path d="M0.239,-0.594L0.375,-0.594L0.375,-0.383L0.582,-0.383L0.582,-0.258L0.375,-0.258L0.375,-0.047L0.239,-0.047L0.239,-0.258L0.034,-0.258L0.034,-0.383L0.239,-0.383L0.239,-0.594Z" style="fill-rule:nonzero;"/>
            </g>
            <g transform="matrix(50,0,0,50,663.808,455.026)">
                <path d="M0.432,-0.711L0.432,-0.123L0.565,-0.123L0.565,-0L0.103,-0L0.103,-0.123L0.274,-0.123L0.274,-0.551L0.128,-0.46L0.059,-0.571L0.289,-0.711L0.432,-0.711Z" style="fill-rule:nonzero;"/>
            </g>
            <g transform="matrix(50,0,0,50,694.577,455.026)">
                <path d="M0.308,-0.729C0.364,-0.729 0.411,-0.714 0.449,-0.685C0.488,-0.656 0.516,-0.613 0.536,-0.558C0.555,-0.502 0.565,-0.435 0.565,-0.357C0.565,-0.278 0.555,-0.211 0.536,-0.155C0.516,-0.099 0.488,-0.056 0.449,-0.027C0.411,0.003 0.364,0.017 0.308,0.017C0.252,0.017 0.204,0.003 0.166,-0.027C0.127,-0.056 0.099,-0.099 0.079,-0.155C0.06,-0.211 0.051,-0.278 0.051,-0.357C0.051,-0.435 0.06,-0.502 0.079,-0.558C0.099,-0.613 0.127,-0.656 0.166,-0.685C0.204,-0.714 0.251,-0.729 0.308,-0.729ZM0.308,-0.611C0.283,-0.611 0.263,-0.603 0.248,-0.586C0.233,-0.569 0.221,-0.542 0.214,-0.505C0.207,-0.467 0.203,-0.418 0.203,-0.357C0.203,-0.298 0.205,-0.25 0.209,-0.214L0.383,-0.577C0.375,-0.59 0.365,-0.598 0.353,-0.604C0.341,-0.609 0.326,-0.611 0.308,-0.611ZM0.308,-0.099C0.332,-0.099 0.352,-0.108 0.367,-0.124C0.382,-0.141 0.393,-0.168 0.401,-0.206C0.408,-0.243 0.411,-0.294 0.411,-0.357C0.411,-0.392 0.41,-0.425 0.409,-0.456L0.245,-0.118C0.253,-0.112 0.261,-0.107 0.272,-0.104C0.282,-0.101 0.294,-0.099 0.308,-0.099Z" style="fill-rule:nonzero;"/>
            </g>
        </g>
        <g transform="matrix(0.584137,0,0,0.584137,799.07,285.316)">
            <g transform="matrix(50,0,0,50,463.808,455.026)">
                <path d="M0.53,-0.157C0.53,-0.137 0.533,-0.122 0.538,-0.113C0.544,-0.103 0.553,-0.096 0.566,-0.091L0.533,0.015C0.5,0.012 0.472,0.005 0.451,-0.006C0.429,-0.018 0.412,-0.035 0.399,-0.056C0.379,-0.032 0.353,-0.014 0.321,-0.001C0.289,0.011 0.256,0.017 0.22,0.017C0.183,0.017 0.151,0.01 0.123,-0.004C0.095,-0.019 0.074,-0.039 0.058,-0.065C0.043,-0.091 0.036,-0.12 0.036,-0.154C0.036,-0.193 0.046,-0.226 0.067,-0.254C0.088,-0.282 0.118,-0.303 0.158,-0.317C0.198,-0.332 0.245,-0.339 0.301,-0.339L0.374,-0.339L0.374,-0.359C0.374,-0.415 0.338,-0.443 0.267,-0.443C0.249,-0.443 0.226,-0.441 0.198,-0.435C0.171,-0.43 0.144,-0.423 0.117,-0.414L0.08,-0.522C0.114,-0.535 0.15,-0.545 0.188,-0.552C0.226,-0.559 0.261,-0.563 0.292,-0.563C0.372,-0.563 0.432,-0.546 0.471,-0.514C0.511,-0.481 0.53,-0.434 0.53,-0.37L0.53,-0.157ZM0.276,-0.098C0.294,-0.098 0.313,-0.104 0.332,-0.115C0.351,-0.125 0.365,-0.14 0.374,-0.158L0.374,-0.247L0.334,-0.247C0.29,-0.247 0.257,-0.24 0.235,-0.226C0.214,-0.212 0.203,-0.192 0.203,-0.165C0.203,-0.144 0.209,-0.128 0.222,-0.116C0.235,-0.104 0.253,-0.098 0.276,-0.098Z" style="fill-rule:nonzero;"/>
            </g>
            <g transform="matrix(50,0,0,50,525.346,455.026)">
                <path d="M0.239,-0.594L0.375,-0.594L0.375,-0.383L0.582,-0.383L0.582,-0.258L0.375,-0.258L0.375,-0.047L0.239,-0.047L0.239,-0.258L0.034,-0.258L0.034,-0.383L0.239,-0.383L0.239,-0.594Z" style="fill-rule:nonzero;"/>
            </g>
            <g transform="matrix(50,0,0,50,556.115,455.026)">
                <path d="M0.075,-0.49L0.541,-0.49L0.541,-0.364L0.075,-0.364L0.075,-0.49ZM0.075,-0.274L0.541,-0.274L0.541,-0.149L0.075,-0.149L0.075,-0.274Z" style="fill-rule:nonzero;"/>
            </g>
            <g transform="matrix(50,0,0,50,617.654,455.026)">
                <path d="M0.432,-0.711L0.432,-0.123L0.565,-0.123L0.565,-0L0.103,-0L0.103,-0.123L0.274,-0.123L0.274,-0.551L0.128,-0.46L0.059,-0.571L0.289,-0.711L0.432,-0.711Z" style="fill-rule:nonzero;"/>
            </g>
            <g transform="matrix(50,0,0,50,648.423,455.026)">
                <path d="M0.308,-0.729C0.364,-0.729 0.411,-0.714 0.449,-0.685C0.488,-0.656 0.516,-0.613 0.536,-0.558C0.555,-0.502 0.565,-0.435 0.565,-0.357C0.565,-0.278 0.555,-0.211 0.536,-0.155C0.516,-0.099 0.488,-0.056 0.449,-0.027C0.411,0.003 0.364,0.017 0.308,0.017C0.252,0.017 0.204,0.003 0.166,-0.027C0.127,-0.056 0.099,-0.099 0.079,-0.155C0.06,-0.211 0.051,-0.278 0.051,-0.357C0.051,-0.435 0.06,-0.502 0.079,-0.558C0.099,-0.613 0.127,-0.656 0.166,-0.685C0.204,-0.714 0.251,-0.729 0.308,-0.729ZM0.308,-0.611C0.283,-0.611 0.263,-0.603 0.248,-0.586C0.233,-0.569 0.221,-0.542 0.214,-0.505C0.207,-0.467 0.203,-0.418 0.203,-0.357C0.203,-0.298 0.205,-0.25 0.209,-0.214L0.383,-0.577C0.375,-0.59 0.365,-0.598 0.353,-0.604C0.341,-0.609 0.326,-0.611 0.308,-0.611ZM0.308,-0.099C0.332,-0.099 0.352,-0.108 0.367,-0.124C0.382,-0.141 0.393,-0.168 0.401,-0.206C0.408,-0.243 0.411,-0.294 0.411,-0.357C0.411,-0.392 0.41,-0.425 0.409,-0.456L0.245,-0.118C0.253,-0.112 0.261,-0.107 0.272,-0.104C0.282,-0.101 0.294,-0.099 0.308,-0.099Z" style="fill-rule:nonzero;"/>
            </g>
        </g>
        <g transform="matrix(0.584137,0,0,0.584137,502.329,437.856)">
            <path d="M754,144L724,176L753.727,205.727" style="fill:none;stroke:black;stroke-width:7px;"/>
            <g transform="matrix(-1,0,0,1,1567,0)">
                <path d="M754,144L724,176L753.727,205.727" style="fill:none;stroke:black;stroke-width:7px;"/>
            </g>
            <g transform="matrix(1.54237,0,0,1,-424.949,0)">
                <path d="M754,161L813,161" style="fill:none;stroke:black;stroke-width:5.39px;"/>
            </g>
            <g transform="matrix(1.54237,0,0,1,-424.949,29)">
                <path d="M754,161L813,161" style="fill:none;stroke:black;stroke-width:5.39px;"/>
            </g>
        </g>
    </g>
    <defs>
        <linearGradient id="_Linear1" x1="0" y1="0" x2="1" y2="0" gradientUnits="userSpaceOnUse" gradientTransform="matrix(341,0,0,485.925,401,436)"><stop offset="0" style="stop-color:rgb(236,248,74);stop-opacity:1"/><stop offset="1" style="stop-color:rgb(26,194,230);stop-opacity:1"/></linearGradient>
        <linearGradient id="_Linear2" x1="0" y1="0" x2="1" y2="0" gradientUnits="userSpaceOnUse" gradientTransform="matrix(341,0,0,485.925,401,436)"><stop offset="0" style="stop-color:rgb(236,248,74);stop-opacity:1"/><stop offset="1" style="stop-color:rgb(26,194,230);stop-opacity:1"/></linearGradient>
    </defs>
</svg>
