<svg xmlns="http://www.w3.org/2000/svg" xmlns:xlink="http://www.w3.org/1999/xlink" width="545" height="47" fill-rule="evenodd" stroke-linecap="round" stroke-linejoin="round" stroke-miterlimit="1.5" xmlns:v="https://vecta.io/nano"><g transform="translate(-687.5 -516.635)"><path d="M401 379h341v114H401z" fill="url(#A)" transform="matrix(.584137 0 0 .409921 799.07 361.275)"/><path d="M401 379h341v114H401z" fill="url(#A)" transform="matrix(.584137 0 0 .409921 453.261 361.275)"/><g fill-rule="nonzero"><use xlink:href="#B"/><path d="M735.365 536.802h13.61v3.68h-13.61v-3.68zm0 6.309h13.61v3.651h-13.61v-3.651z"/><use xlink:href="#B" x="71.894"/><use xlink:href="#C"/><use xlink:href="#D"/><use xlink:href="#E"/><use xlink:href="#B" x="372.769"/><use xlink:href="#C" x="300.875"/><path d="M1126.108 536.802h13.61v3.68h-13.61v-3.68zm0 6.309h13.61v3.651h-13.61v-3.651z"/><use xlink:href="#D" x="318.849"/><use xlink:href="#E" x="318.849"/></g><g fill="none" stroke="#000"><path d="M942.768 521.972l-17.524 18.692 17.365 17.365m34.623-36.057l17.524 18.692-17.365 17.365" stroke-width="4.089"/><path d="M933.421 531.902h53.156m-53.156 16.94h53.156" stroke-width="4.092"/></g></g><defs><linearGradient id="A" x1="401" y1="436" x2="742" y2="436" gradientUnits="userSpaceOnUse"><stop offset="0" stop-color="#ecf84a"/><stop offset="1" stop-color="#1ac2e6"/></linearGradient><path id="B" d="M712.708 546.528c0 .584.088 1.022.234 1.285.175.292.438.497.818.643l-.964 3.096c-.964-.088-1.782-.292-2.395-.613a4.05 4.05 0 0 1-1.519-1.46c-.584.701-1.344 1.227-2.278 1.606-.935.35-1.898.526-2.95.526-1.081 0-2.015-.204-2.833-.613-.818-.438-1.431-1.022-1.898-1.782-.438-.759-.643-1.606-.643-2.599 0-1.139.292-2.103.905-2.921s1.49-1.431 2.658-1.84c1.168-.438 2.541-.643 4.177-.643h2.132v-.584c0-1.636-1.051-2.453-3.125-2.453-.526 0-1.197.058-2.015.234-.789.146-1.577.35-2.366.613l-1.081-3.154c.993-.38 2.044-.672 3.154-.876s2.132-.321 3.038-.321c2.337 0 4.089.497 5.228 1.431 1.168.964 1.723 2.337 1.723 4.206v6.221zm-7.419 1.723c.526 0 1.081-.175 1.636-.497a2.83 2.83 0 0 0 1.227-1.256v-2.599h-1.168c-1.285 0-2.249.204-2.891.613-.613.409-.935.993-.935 1.782 0 .613.175 1.081.555 1.431s.905.526 1.577.526z"/><path id="C" d="M812.049 533.765h3.972v6.163h6.046v3.651h-6.046v6.163h-3.972v-6.163h-5.987v-3.651h5.987v-6.163z"/><path id="D" d="M853.633 530.347v17.174h3.885v3.592h-13.494v-3.592h4.994v-12.501l-4.264 2.658-2.015-3.242 6.718-4.089h4.177z"/><path id="E" d="M867.985 529.822c1.636 0 3.008.438 4.118 1.285 1.139.847 1.957 2.103 2.541 3.709.555 1.636.847 3.592.847 5.871 0 2.307-.292 4.264-.847 5.9-.584 1.636-1.402 2.891-2.541 3.738-1.11.876-2.483 1.285-4.118 1.285s-3.038-.409-4.147-1.285c-1.139-.847-1.957-2.103-2.541-3.738-.555-1.636-.818-3.592-.818-5.9 0-2.278.263-4.235.818-5.871.584-1.606 1.402-2.862 2.541-3.709 1.11-.847 2.483-1.285 4.147-1.285zm0 3.446c-.73 0-1.314.234-1.752.73s-.789 1.285-.993 2.366c-.204 1.11-.321 2.541-.321 4.323l.175 4.177 5.082-10.602c-.234-.38-.526-.613-.876-.789-.35-.146-.789-.204-1.314-.204zm0 14.954c.701 0 1.285-.263 1.723-.73.438-.497.759-1.285.993-2.395.204-1.081.292-2.57.292-4.41l-.058-2.891-4.79 9.872c.234.175.467.321.789.409a3.65 3.65 0 0 0 1.051.146z"/></defs></svg>