<?xml version="1.0" encoding="UTF-8" standalone="no"?>
<!DOCTYPE svg PUBLIC "-//W3C//DTD SVG 1.1//EN" "http://www.w3.org/Graphics/SVG/1.1/DTD/svg11.dtd">
<svg width="302px" height="302px" version="1.1" xmlns="http://www.w3.org/2000/svg" xmlns:xlink="http://www.w3.org/1999/xlink" xml:space="preserve" xmlns:serif="http://www.serif.com/" style="fill-rule:evenodd;clip-rule:evenodd;stroke-linecap:round;stroke-linejoin:round;stroke-miterlimit:1.5;">
    <g transform="matrix(1,0,0,1,-499,-599)">
        <g transform="matrix(0.905729,0,0,1,0,0)">
            <g id="circular-shift-step3" transform="matrix(1,0,0,1,441.633,-1.13687e-13)">
                <g transform="matrix(1.03508,0,0,0.9375,-55.2041,75)">
                    <path d="M320,853.333L320,818.213C373.968,817.892 417.619,774.044 417.619,720L453.333,720C453.333,793.638 393.638,853.333 320,853.333Z" style="fill:rgb(217,38,165);stroke:black;stroke-width:1.07px;"/>
                </g>
                <g transform="matrix(0.690052,0,0,0.625,7.51943e-14,250)">
                    <path d="M600,800L546.429,800C546.429,726.033 486.467,666.071 412.5,666.071C408.279,666.071 404.109,666.288 400,666.712L400,612.942C404.129,612.649 408.297,612.5 412.5,612.5C516.053,612.5 600,696.447 600,800Z" style="fill:rgb(217,38,165);"/>
                </g>
                <g transform="matrix(0.690052,0,0,0.625,7.51943e-14,250)">
                    <path d="M400,612.942L400,666.712C339.304,672.965 291.964,724.258 291.964,786.607C291.964,791.143 292.246,795.613 292.793,800L238.943,800C238.579,795.584 238.393,791.117 238.393,786.607C238.393,694.654 309.678,619.349 400,612.942Z" style="fill:rgb(217,38,165);"/>
                </g>
                <g transform="matrix(0.690052,0,0,0.625,7.51943e-14,250)">
                    <path d="M238.943,800L292.793,800C299.384,852.852 344.469,893.75 399.107,893.75C399.405,893.75 399.703,893.749 400,893.746L400,947.319C399.703,947.321 399.405,947.321 399.107,947.321C314.857,947.321 245.749,882.494 238.943,800Z" style="fill:rgb(74,230,26);"/>
                </g>
                <g transform="matrix(0.690052,0,0,0.625,7.51943e-14,250)">
                    <path d="M400,947.319L400,893.746C451.366,893.267 492.857,851.479 492.857,800L546.429,800C546.429,881.066 480.953,946.838 400,947.319Z" style="fill:rgb(74,230,26);"/>
                </g>
                <g transform="matrix(0.690052,0,0,0.625,7.51943e-14,250)">
                    <path d="M546.429,800L492.857,800C492.857,755.62 456.88,719.643 412.5,719.643C408.228,719.643 404.05,720.043 400,720.807L400,666.712C404.109,666.288 408.279,666.071 412.5,666.071C486.467,666.071 546.429,726.033 546.429,800Z" style="fill:rgb(74,230,26);"/>
                </g>
                <g transform="matrix(0.690052,0,0,0.625,7.51943e-14,250)">
                    <path d="M400,666.712L400,720.807C368.991,726.662 345.536,753.896 345.536,786.607C345.536,791.232 346.122,795.719 347.223,800L292.793,800C292.246,795.613 291.964,791.143 291.964,786.607C291.964,724.258 339.304,672.965 400,666.712Z" style="fill:rgb(38,123,217);"/>
                </g>
                <g transform="matrix(0.690052,0,0,0.625,7.51943e-14,250)">
                    <path d="M292.793,800L347.223,800C353.17,823.106 374.145,840.179 399.107,840.179C399.406,840.179 399.703,840.175 400,840.169L400,893.746C399.703,893.749 399.405,893.75 399.107,893.75C344.469,893.75 299.384,852.852 292.793,800Z" style="fill:rgb(38,123,217);"/>
                </g>
                <g transform="matrix(0.690052,0,0,0.625,7.51943e-14,250)">
                    <path d="M492.857,800L439.286,800C439.286,785.207 427.293,773.214 412.5,773.214C406.802,773.214 401.935,776.773 400,781.789L400,720.807C404.05,720.043 408.228,719.643 412.5,719.643C456.88,719.643 492.857,755.62 492.857,800Z" style="fill:rgb(217,38,165);"/>
                </g>
                <g transform="matrix(0.690052,0,0,0.625,7.51943e-14,250)">
                    <path d="M400,893.746L400,840.169C421.778,839.694 439.286,821.892 439.286,800L492.857,800C492.857,851.479 451.366,893.267 400,893.746Z" style="fill:rgb(38,123,217);"/>
                </g>
                <g transform="matrix(4.22535e-17,0.625,-0.690052,3.82702e-17,276.021,750)">
                    <path d="M200,0C200,-110.457 110.457,-200 -0,-200C-103.553,-200 -187.5,-116.053 -187.5,-12.5C-187.5,83.657 -109.55,161.607 -13.393,161.607C75.367,161.607 147.321,89.653 147.321,0.893C147.321,-80.471 81.363,-146.429 -0,-146.429C-73.967,-146.429 -133.929,-86.467 -133.929,-12.5C-133.929,54.07 -79.963,108.036 -13.393,108.036C45.781,108.036 93.75,60.066 93.75,0.893C93.75,-50.884 51.777,-92.857 -0,-92.857C-44.38,-92.857 -80.357,-56.88 -80.357,-12.5C-80.357,24.483 -50.376,54.464 -13.393,54.464C16.194,54.464 40.179,30.48 40.179,0.893C40.179,-21.297 22.19,-39.286 -0,-39.286C-14.793,-39.286 -26.786,-27.293 -26.786,-12.5C-26.786,-5.103 -20.79,0.893 -13.393,0.893" style="fill:none;stroke:black;stroke-width:1.6px;"/>
                </g>
                <g transform="matrix(0.690052,0,0,0.75,7.51943e-14,150)">
                    <path d="M400,1000L400,600" style="fill:none;stroke:black;stroke-width:1.45px;"/>
                </g>
                <g transform="matrix(0.828062,0,0,0.625,-55.2041,250)">
                    <path d="M600,800L200,800" style="fill:none;stroke:black;stroke-width:1.45px;"/>
                </g>
                <g transform="matrix(0.690052,0,0,0.625,8.93458,230.808)">
                    <g transform="matrix(48,0,0,48,580,650)">
                        <path d="M0.308,-0.717C0.383,-0.717 0.441,-0.686 0.48,-0.624C0.519,-0.561 0.539,-0.471 0.539,-0.353C0.539,-0.235 0.519,-0.145 0.48,-0.082C0.441,-0.02 0.383,0.012 0.308,0.012C0.232,0.012 0.175,-0.02 0.135,-0.082C0.096,-0.145 0.076,-0.235 0.076,-0.353C0.076,-0.471 0.096,-0.561 0.135,-0.624C0.175,-0.686 0.232,-0.717 0.308,-0.717ZM0.308,-0.648C0.214,-0.648 0.168,-0.55 0.168,-0.353C0.168,-0.275 0.174,-0.213 0.186,-0.169L0.402,-0.603C0.38,-0.633 0.349,-0.648 0.308,-0.648ZM0.308,-0.058C0.401,-0.058 0.448,-0.156 0.448,-0.353C0.448,-0.433 0.442,-0.495 0.43,-0.539L0.215,-0.103C0.226,-0.088 0.239,-0.076 0.255,-0.069C0.27,-0.062 0.288,-0.058 0.308,-0.058Z" style="fill-rule:nonzero;"/>
                    </g>
                </g>
                <g transform="matrix(0.690052,0,0,0.625,9.20635,480.808)">
                    <g transform="matrix(48,0,0,48,580,650)">
                        <path d="M0.383,-0.706L0.383,-0.07L0.531,-0.07L0.531,-0L0.123,-0L0.123,-0.07L0.297,-0.07L0.297,-0.613L0.135,-0.514L0.097,-0.576L0.308,-0.706L0.383,-0.706Z" style="fill-rule:nonzero;"/>
                    </g>
                </g>
                <g transform="matrix(0.690052,0,0,0.625,-277.295,480.808)">
                    <g transform="matrix(48,0,0,48,580,650)">
                        <path d="M0.276,-0.717C0.32,-0.717 0.358,-0.709 0.39,-0.692C0.422,-0.675 0.446,-0.651 0.464,-0.622C0.481,-0.592 0.489,-0.558 0.489,-0.521C0.489,-0.477 0.479,-0.435 0.459,-0.394C0.439,-0.353 0.406,-0.308 0.362,-0.258C0.317,-0.209 0.254,-0.148 0.173,-0.073L0.506,-0.073L0.495,-0L0.075,-0L0.075,-0.07C0.168,-0.159 0.236,-0.228 0.281,-0.278C0.325,-0.328 0.356,-0.37 0.373,-0.405C0.39,-0.441 0.398,-0.478 0.398,-0.517C0.398,-0.557 0.387,-0.589 0.365,-0.612C0.342,-0.634 0.312,-0.646 0.272,-0.646C0.238,-0.646 0.21,-0.64 0.188,-0.628C0.166,-0.617 0.143,-0.598 0.12,-0.57L0.061,-0.616C0.089,-0.651 0.12,-0.676 0.155,-0.693C0.189,-0.709 0.23,-0.717 0.276,-0.717Z" style="fill-rule:nonzero;"/>
                    </g>
                </g>
                <g transform="matrix(0.690052,0,0,0.625,-273.94,230.808)">
                    <g transform="matrix(48,0,0,48,580,650)">
                        <path d="M0.275,-0.717C0.318,-0.717 0.356,-0.709 0.389,-0.694C0.422,-0.678 0.448,-0.656 0.466,-0.629C0.483,-0.603 0.492,-0.573 0.492,-0.541C0.492,-0.513 0.486,-0.488 0.474,-0.464C0.461,-0.441 0.444,-0.422 0.423,-0.406C0.402,-0.391 0.379,-0.381 0.354,-0.376C0.383,-0.374 0.41,-0.366 0.434,-0.352C0.458,-0.338 0.478,-0.319 0.493,-0.293C0.507,-0.268 0.515,-0.238 0.515,-0.204C0.515,-0.163 0.505,-0.126 0.484,-0.094C0.463,-0.061 0.434,-0.035 0.397,-0.016C0.36,0.002 0.318,0.012 0.27,0.012C0.228,0.012 0.188,0.004 0.149,-0.012C0.111,-0.028 0.078,-0.051 0.053,-0.083L0.111,-0.13C0.13,-0.107 0.154,-0.089 0.182,-0.077C0.209,-0.065 0.238,-0.059 0.268,-0.059C0.3,-0.059 0.328,-0.065 0.352,-0.077C0.375,-0.089 0.393,-0.105 0.406,-0.127C0.418,-0.149 0.425,-0.174 0.425,-0.204C0.425,-0.293 0.376,-0.337 0.278,-0.337L0.219,-0.337L0.23,-0.406L0.271,-0.406C0.295,-0.406 0.317,-0.41 0.337,-0.419C0.358,-0.428 0.374,-0.442 0.387,-0.461C0.399,-0.479 0.406,-0.502 0.406,-0.529C0.406,-0.554 0.4,-0.576 0.388,-0.594C0.376,-0.612 0.36,-0.625 0.34,-0.635C0.32,-0.644 0.297,-0.649 0.272,-0.649C0.243,-0.649 0.216,-0.644 0.193,-0.633C0.17,-0.623 0.147,-0.606 0.123,-0.584L0.075,-0.636C0.132,-0.69 0.199,-0.717 0.275,-0.717Z" style="fill-rule:nonzero;"/>
                    </g>
                </g>
                <g transform="matrix(0.690052,0,0,0.625,7.51943e-14,250)">
                    <rect x="160" y="560" width="480" height="480" style="fill:none;stroke:black;stroke-width:1.6px;"/>
                </g>
            </g>
        </g>
    </g>
</svg>
