<svg xmlns="http://www.w3.org/2000/svg" xmlns:xlink="http://www.w3.org/1999/xlink" width="1056" height="276" fill-rule="evenodd" stroke-linecap="round" stroke-linejoin="round" stroke-miterlimit="1.5" xmlns:v="https://vecta.io/nano"><style><![CDATA[.B{stroke:#000}.C{fill-rule:nonzero}.D{stroke-width:3.051}]]></style><g transform="scale(.55 .255556)"><g transform="matrix(1.81818 0 0 3.91304 -603.713 -817.068)"><path d="M1370 319.195v45.537c0 12.566-10.2 22.768-22.77 22.768H871.768c-12.566 0-22.768-10.202-22.768-22.768v-45.537c0-12.567 10.202-22.769 22.768-22.769h475.462c12.57 0 22.77 10.202 22.77 22.769z" fill="#cafec9" transform="translate(3.705 3.38)"/><g class="C"><use xlink:href="#B"/><use xlink:href="#C"/><use xlink:href="#D"/><use xlink:href="#C" x="25.846"/><use xlink:href="#B" x="51.692"/><use xlink:href="#E"/><use xlink:href="#F"/><use xlink:href="#B" x="90.462"/><use xlink:href="#G"/><path d="M998.935 322.753h8.925v1.974h-8.925v-1.974zm0 4.242h8.925v1.974h-8.925v-1.974z"/><use xlink:href="#B" x="155.073"/><use xlink:href="#C" x="155.08"/><use xlink:href="#D" x="155.077"/><use xlink:href="#C" x="180.92"/><use xlink:href="#H"/><use xlink:href="#G" x="116.308"/><use xlink:href="#I"/><path d="M1133.816 319.981h-2.373l.273 4.263-3.948-1.554-.714 2.205 4.095 1.071-2.688 3.297 1.869 1.365 2.31-3.591 2.289 3.591 1.89-1.365-2.709-3.297 4.116-1.071-.735-2.205-3.948 1.554.273-4.263z"/><use xlink:href="#J"/><use xlink:href="#G" x="193.848"/><use xlink:href="#J" x="25.85"/><use xlink:href="#C" x="310.15"/><use xlink:href="#E" x="271.388"/><use xlink:href="#F" x="271.385"/><use xlink:href="#K"/><use xlink:href="#E" x="310.158"/><path d="M1273.698 320.548h2.121v4.326h4.284v1.953h-4.284v4.326h-2.121v-4.326h-4.242v-1.953h4.242v-4.326z"/><use xlink:href="#I" x="193.85"/><use xlink:href="#E" x="374.768"/><use xlink:href="#H" x="245.53"/><use xlink:href="#K" x="103.39"/><use xlink:href="#G" x="374.768"/><use xlink:href="#L"/><use xlink:href="#E" x="-51.692" y="42"/><use xlink:href="#H" x="-180.927" y="42"/><use xlink:href="#K" x="-323.074" y="42"/><use xlink:href="#G" x="-51.693" y="42"/><path d="M947.242 364.753h8.925v1.974h-8.925v-1.974zm0 4.242h8.925v1.974h-8.925v-1.974z"/><use xlink:href="#B" x="103.385" y="42"/><use xlink:href="#C" x="103.385" y="42"/><use xlink:href="#D" x="103.385" y="42"/><use xlink:href="#C" x="129.23" y="42"/><use xlink:href="#B" x="155.073" y="42"/><use xlink:href="#E" x="103.388" y="42"/><use xlink:href="#F" x="103.385" y="42"/><use xlink:href="#B" x="193.843" y="42"/><use xlink:href="#G" x="103.388" y="42"/><path d="M1102.149 374.434l7.329-15.288 1.827.756-7.371 15.288-1.785-.756zm1.323-15.183c.63 0 1.176.147 1.638.42a2.6 2.6 0 0 1 1.05 1.176c.252.504.378 1.113.378 1.785s-.126 1.281-.378 1.785c-.231.504-.588.882-1.05 1.176-.462.273-1.008.399-1.638.399s-1.176-.126-1.638-.399a2.76 2.76 0 0 1-1.071-1.176c-.252-.504-.357-1.113-.357-1.785 0-.651.105-1.239.357-1.743s.609-.924 1.071-1.197c.462-.294 1.008-.441 1.638-.441zm0 1.68c-.336 0-.567.126-.672.42-.126.273-.189.714-.189 1.281s.063.987.189 1.26c.147.294.357.441.672.441.336 0 .567-.147.693-.42.105-.273.168-.693.168-1.281 0-.609-.063-1.05-.168-1.302-.126-.273-.357-.399-.693-.399zm6.615 7.014c.63 0 1.176.147 1.638.42a2.6 2.6 0 0 1 1.05 1.176c.252.504.378 1.113.378 1.785s-.126 1.26-.378 1.785a2.55 2.55 0 0 1-1.05 1.155c-.462.294-1.008.42-1.638.42s-1.197-.126-1.659-.42a2.67 2.67 0 0 1-1.05-1.155c-.252-.525-.378-1.113-.378-1.785 0-.651.126-1.239.378-1.743.252-.525.588-.924 1.071-1.197.462-.294 1.008-.441 1.638-.441zm0 1.68c-.336 0-.567.126-.672.42-.126.273-.189.693-.189 1.281 0 .546.063.966.189 1.26a.68.68 0 0 0 .672.441c.336 0 .567-.147.693-.42.105-.273.168-.693.168-1.281 0-.609-.063-1.05-.168-1.302-.126-.273-.357-.399-.693-.399z"/><use xlink:href="#B" x="258.463" y="42"/><use xlink:href="#C" x="258.46" y="42"/><use xlink:href="#D" x="258.457" y="42"/><use xlink:href="#C" x="284.31" y="42"/><use xlink:href="#H" x="103.38" y="42"/><use xlink:href="#G" x="219.688" y="42"/><use xlink:href="#L" x="336.003"/></g></g><circle cx="540" cy="592" r="23" fill="#83fd82" transform="matrix(2.31497 0 0 4.98222 -922.813 -2270.56)"/><path d="M286.635 496.232h-8V386.667c-1.909 3.913-4.455 7.826-7.636 11.739-3.091 4.109-5.909 7.043-8.364 9v-16.63c4.455-4.5 8.364-9.978 11.727-16.435s5.727-12.717 7.091-18.783h5.182v140.674zm20.924-121.696v-16.63h42.182v13.5c-4.182 9.391-8.273 22.109-12.364 37.761-4.091 15.848-7.182 31.891-9.455 48.522-1.545 11.739-2.545 24.652-3 38.543h-8.273c.091-10.957 1.182-24.261 3.091-39.913s4.636-30.717 8.273-45.196c3.545-14.478 7.364-26.609 11.455-36.587h-31.909zm125.876 84.913l8.364-1.37c.636 8.804 2 15.261 4.273 19.761s5 6.652 8.182 6.652c3.909 0 7.182-3.13 9.818-9.391s4-14.478 4-24.848c0-9.783-1.273-17.609-3.818-23.283-2.636-5.478-5.909-8.413-10.091-8.413-2.545 0-4.909 1.174-7 3.717-2 2.543-3.636 5.87-4.818 9.783L434.8 430.1l6.273-72h32.364v16.435h-25.909l-3.545 37.565c3.909-5.87 8-8.804 12.273-8.804 5.727 0 10.545 4.304 14.455 12.717 3.909 8.609 5.818 19.37 5.818 32.674 0 12.717-1.727 23.674-5.182 32.87-4.091 11.348-9.818 17.022-17.091 17.022-5.909 0-10.727-3.522-14.455-10.565-3.727-7.239-5.909-16.63-6.364-28.565zm-84.467 269.358v16.435h-43c0-4.109.273-8.217 1-11.935a97.31 97.31 0 0 1 5.182-18.587c2.455-6.261 5.909-13.304 10.455-21.326 7.091-12.326 11.909-22.304 14.364-29.543 2.455-7.435 3.727-14.283 3.727-20.739 0-6.848-1.091-12.522-3.364-17.217s-5.273-7.043-8.909-7.043c-3.818 0-6.909 2.543-9.182 7.435-2.364 4.891-3.455 11.935-3.545 20.739l-8.182-1.957c.545-13.109 2.636-23.087 6.364-30.13 3.636-6.848 8.545-10.37 14.727-10.37 6.273 0 11.182 3.717 14.818 11.152s5.455 16.826 5.455 27.783c0 5.674-.455 11.152-1.545 16.435-1.091 5.478-2.818 11.152-5.273 17.217-2.545 5.87-6.636 14.087-12.364 24.652-4.818 8.609-7.909 14.478-9.273 17.609s-2.455 6.261-3.364 9.391h31.909zm84.424-20.543l8-2.348c.909 9.783 2.455 16.826 4.636 21.13 2.273 4.304 4.909 6.457 8.091 6.457 3.727 0 6.909-2.739 9.545-8.413 2.545-5.674 3.818-12.522 3.818-20.739 0-8.022-1.182-14.478-3.545-19.565-2.364-5.283-5.455-7.826-9.182-7.826-1.455 0-3.364.783-5.636 1.957l.909-15.065c.545.196 1 .196 1.273.196 3.455 0 6.455-1.957 9.182-5.674 2.727-3.913 4.091-9.783 4.091-17.804 0-6.261-1-11.543-2.909-15.652-2-4.109-4.545-6.065-7.727-6.065-3.091 0-5.727 1.957-7.727 6.261-2.091 4.109-3.455 10.37-4 18.783l-8-2.935c1-11.543 3.182-20.543 6.636-26.804 3.455-6.457 7.727-9.587 12.909-9.587 3.545 0 6.818 1.761 9.818 4.891 3 3.326 5.273 7.826 6.818 13.5 1.636 5.674 2.455 11.739 2.455 18 0 6.065-.818 11.543-2.273 16.63-1.545 4.891-3.727 8.804-6.727 11.739 3.818 1.957 6.818 5.87 9 11.935 2.091 6.065 3.182 13.5 3.182 22.696 0 12.13-2.091 22.5-6.273 31.109-4.091 8.413-9.364 12.717-15.636 12.717-5.727 0-10.455-3.717-14.273-10.957-3.727-7.435-5.909-16.826-6.455-28.565z" class="C"/><path d="M641 288v66h96" fill="none" stroke-width="4.4" transform="matrix(1.81818 0 0 3.16604 -770.909 -572.953)" class="B"/><g class="C"><use xlink:href="#M"/><use xlink:href="#N"/><use xlink:href="#O"/><use xlink:href="#N" x="24.351"/><use xlink:href="#M" x="48.704"/><use xlink:href="#P"/><use xlink:href="#Q"/><use xlink:href="#M" x="106.911"/><use xlink:href="#R"/><path d="M29.793 985.089v-10.128-3.737l-.091-4.228-.091-3.638-.228-4.13-.274-3.737a6.26 6.26 0 0 1 .228-2.458c.228-.688.548-1.18.959-1.377.366-.098.777 0 1.142.492.32.492.548 1.278.594 2.163.411 4.032.64 8.751.731 14.16.503-1.475 1.005-2.95 1.599-4.425 2.513-6.195 5.163-10.62 7.95-13.078.411-.393.777-.393 1.188-.098.366.393.64.983.822 1.77.137.885.137 1.672 0 2.458-.183.885-.457 1.475-.822 1.77-2.376 2.163-4.66 5.998-6.853 11.406-2.33 5.801-3.564 11.111-3.792 16.126-.046.295-.046.59-.046.885v8.456l-.046 3.343v1.475.197c-.046.098-.046.295-.046.393l-.091.59c-.137.688-.366 1.278-.731 1.573-.32.393-.594.492-.868.295-.32-.295-.503-.492-.64-.688s-.274-.393-.366-.688-.183-.59-.228-.983c0-.098 0-.295-.046-.492v-.688l-.046-6.981.091-5.998z"/><use xlink:href="#P" x="-50.434" y="862.292"/><use xlink:href="#S"/><use xlink:href="#T"/><use xlink:href="#R" x="-55.915" y="862.292"/><use xlink:href="#U"/><use xlink:href="#R" x="441.442" y="862.292"/><use xlink:href="#U" x="38.333"/><use xlink:href="#N" x="586.686" y="862.292"/><use xlink:href="#P" x="544.058" y="862.292"/><use xlink:href="#Q" x="544.058" y="862.292"/><use xlink:href="#T" x="598.695"/><use xlink:href="#P" x="600.987" y="862.292"/><use xlink:href="#M" x="546.595"/><use xlink:href="#N" x="546.595"/><use xlink:href="#O" x="546.595"/><use xlink:href="#N" x="570.946"/><use xlink:href="#S" x="559.014" y="-862.292"/><use xlink:href="#R" x="486.102"/><path d="M658.711 122.797v-10.128-3.737l-.091-4.228-.091-3.638-.228-4.13-.274-3.737a6.26 6.26 0 0 1 .228-2.458c.228-.688.548-1.18.959-1.377.366-.098.777 0 1.142.492.32.492.548 1.278.594 2.163.411 4.032.64 8.751.731 14.16.503-1.475 1.005-2.95 1.599-4.425 2.513-6.195 5.163-10.62 7.95-13.078.411-.393.777-.393 1.188-.098.366.393.64.983.822 1.77.137.885.137 1.672 0 2.458-.183.885-.457 1.475-.822 1.77-2.376 2.163-4.66 5.998-6.853 11.406-2.33 5.801-3.564 11.111-3.792 16.126-.046.295-.046.59-.046.885v8.456l-.046 3.343v1.475.197c-.046.098-.046.295-.046.393l-.091.59c-.137.688-.366 1.278-.731 1.573-.32.393-.594.492-.868.295-.32-.295-.503-.492-.64-.688s-.274-.393-.366-.688a5.08 5.08 0 0 1-.228-.983c0-.098 0-.295-.046-.492v-.688l-.046-6.981.091-5.998z"/></g><path d="M186.595 166.949l-3.993-24.801 11.616 8.002-7.624 16.799z"/><path d="M266.028 317.492l-77.182-162.223" fill="none" class="B D"/><path d="M557.471 163.244l11.298-9.892-3.102 25.384-8.196-15.492z"/><path d="M499.724 322.536l63.285-155.074" fill="none" class="B D"/><path d="M563.835 884.585l4.344 24.527-11.724-7.239 7.38-17.288z"/><path d="M487.175 748.952l74.576 147.455" fill="none" class="B D"/><path d="M153.621 924.428l-12.12 2.927 6.184-22.625 5.936 19.698z"/><path d="M266.166 753.295L148.823 917.134" fill="none" class="B D"/><path d="M9.031 16.282v-2.531c-.781-.031-1.406-.219-1.906-.594-.469-.344-.844-.875-1.031-1.563-.219-.688-.313-2-.313-3.906l-.156-3.844c-.125-.969-.406-1.75-.844-2.313C4.375.937 3.843.5 3.125.281 2.656.093 1.875 0 .844 0H0v2.469h.469c.938 0 1.563.094 1.875.313s.531.625.656 1.156c.094.375.125 1.719.125 4.031 0 2.219.281 3.75.75 4.719s1.313 1.75 2.531 2.313c-.906.375-1.656.938-2.156 1.656s-.844 1.719-1 2.969c-.063.688-.125 2.25-.125 4.75 0 1.344-.156 2.219-.5 2.594s-1.063.625-2.156.625H0v2.406h.844c.906 0 1.563-.031 1.969-.156.688-.188 1.25-.5 1.656-.938.438-.406.781-1.031 1-1.781.188-.75.313-1.969.313-3.688l.063-3.281c.031-1 .219-1.75.5-2.281.25-.5.625-.938 1.125-1.25.375-.219.938-.344 1.563-.344h-.002z" fill="#f0f0f0" transform="matrix(12.5476 0 0 31.0801 759.973 69.3053)" class="C"/></g><defs ><path id="B" d="M876.298 316.348l2.415.273v15.939h-2.121l-.168-1.407c-.399.546-.861.966-1.407 1.26-.525.294-1.134.441-1.785.441-1.428 0-2.499-.546-3.213-1.596-.714-1.071-1.071-2.541-1.071-4.389 0-1.155.189-2.184.546-3.087s.861-1.617 1.554-2.121c.672-.525 1.47-.777 2.394-.777 1.155 0 2.121.42 2.856 1.239v-5.775zm-2.226 6.384c-.84 0-1.47.357-1.911 1.029-.441.693-.651 1.722-.651 3.108 0 2.751.777 4.137 2.352 4.137.945 0 1.743-.546 2.436-1.617v-5.397c-.273-.399-.609-.714-.987-.924-.378-.231-.777-.336-1.239-.336z"/><path id="C" d="M887.079 315.613c.462 0 .861.147 1.155.441s.441.651.441 1.071a1.47 1.47 0 0 1-.441 1.092c-.294.294-.693.441-1.155.441s-.84-.147-1.134-.441a1.47 1.47 0 0 1-.441-1.092c0-.42.147-.777.441-1.071s.672-.441 1.134-.441zm-4.032 5.565h5.712v9.618h3.087v1.764h-8.904v-1.764h3.402v-7.833h-3.297v-1.785z"/><path id="D" d="M902.963 321.178h2.478l-4.011 11.382h-2.814l-4.011-11.382h2.583l2.877 9.387 2.898-9.387z"/><path id="E" d="M936.251 327.646c.063 1.113.378 1.953.945 2.499.546.546 1.281.84 2.142.84.546 0 1.05-.084 1.533-.252a6.88 6.88 0 0 0 1.449-.756l1.05 1.449c-.525.441-1.155.798-1.89 1.05a6.73 6.73 0 0 1-2.247.378c-1.155 0-2.163-.252-2.982-.756a4.78 4.78 0 0 1-1.869-2.1c-.42-.882-.63-1.932-.63-3.108 0-1.155.21-2.163.63-3.087.42-.903 1.008-1.617 1.806-2.142.777-.525 1.701-.777 2.751-.777.987 0 1.869.231 2.604.693.735.441 1.302 1.113 1.701 1.953.399.861.588 1.869.588 3.045l-.042 1.071h-7.539zm2.709-4.977c-.777 0-1.407.273-1.89.84-.483.546-.756 1.386-.84 2.499h5.271c-.021-1.071-.252-1.89-.693-2.478-.441-.567-1.05-.861-1.848-.861z"/><path id="F" d="M947.158 332.56v-11.382h2.079l.189 1.491a5.03 5.03 0 0 1 1.659-1.323c.651-.315 1.323-.462 2.016-.462 1.05 0 1.827.294 2.373.882.525.588.798 1.428.798 2.499v8.295h-2.415v-7.098c0-.693-.042-1.239-.126-1.617-.084-.399-.231-.672-.462-.84-.231-.189-.588-.273-1.029-.273-.525 0-1.008.147-1.47.462a5.39 5.39 0 0 0-1.197 1.197v8.169h-2.415z"/><path id="G" d="M977.562 320.884c1.092 0 2.016.252 2.793.735s1.344 1.176 1.743 2.079c.399.882.588 1.932.588 3.15s-.189 2.268-.588 3.171c-.42.903-.987 1.596-1.764 2.079-.777.504-1.701.756-2.772.756-1.092 0-2.037-.252-2.793-.735-.777-.462-1.344-1.155-1.743-2.058s-.609-1.953-.609-3.192c0-1.176.21-2.226.609-3.129s.987-1.596 1.764-2.1c.756-.504 1.701-.756 2.772-.756zm0 1.869c-.882 0-1.533.336-1.953 1.008-.441.672-.651 1.722-.651 3.108 0 1.407.21 2.436.63 3.108.441.672 1.092 1.008 1.974 1.008.861 0 1.533-.336 1.953-1.008.441-.672.651-1.701.651-3.129 0-1.386-.21-2.415-.651-3.087-.42-.672-1.071-1.008-1.953-1.008z"/><path id="H" d="M1080.53 331.006c.756 0 1.365-.147 1.806-.42.441-.252.672-.63.672-1.113a1.55 1.55 0 0 0-.21-.798c-.126-.21-.399-.399-.777-.588s-.966-.378-1.764-.588c-.819-.189-1.491-.441-2.037-.714-.525-.252-.945-.609-1.239-1.029-.294-.441-.462-.966-.462-1.617 0-.63.189-1.197.567-1.701.357-.483.903-.861 1.575-1.134.693-.273 1.491-.42 2.415-.42 1.68 0 3.129.441 4.305 1.323l-1.008 1.512c-.483-.315-.987-.567-1.512-.735-.525-.189-1.092-.273-1.722-.273-1.428 0-2.163.42-2.163 1.26 0 .294.084.525.252.714s.441.357.84.504c.399.168 1.008.357 1.806.588.819.231 1.491.483 2.016.756s.945.63 1.218 1.071c.294.441.441 1.008.441 1.722 0 .777-.231 1.428-.693 1.953-.462.546-1.05.945-1.827 1.197-.756.252-1.575.378-2.499.378-.987 0-1.89-.147-2.646-.441a6 6 0 0 1-2.016-1.176l1.281-1.449c.462.378.966.672 1.554.882a4.79 4.79 0 0 0 1.827.336z"/><path id="I" d="M1110.297 320.905a5.81 5.81 0 0 1 .882.063l.84.21-.42 4.2h-1.722v-2.31c-.798.021-1.47.336-2.058.945s-1.05 1.47-1.386 2.604v4.221h2.289v1.722h-6.384v-1.722h1.68V322.9h-1.68v-1.722h3.528l.441 2.646c.42-.987.966-1.722 1.596-2.205.651-.483 1.449-.714 2.394-.714z"/><path id="J" d="M1159.404 330.859c.504 0 .987-.084 1.449-.252.441-.168.903-.42 1.365-.735l1.113 1.554c-.504.441-1.113.777-1.827 1.029-.714.273-1.428.399-2.163.399-1.155 0-2.142-.252-2.982-.735a4.83 4.83 0 0 1-1.911-2.079c-.42-.882-.651-1.932-.651-3.108s.231-2.205.672-3.108a5.08 5.08 0 0 1 1.932-2.163c.84-.525 1.827-.777 2.982-.777 1.512 0 2.835.462 3.927 1.365l-1.092 1.533c-.924-.651-1.848-.966-2.793-.966a2.79 2.79 0 0 0-2.247 1.029c-.546.693-.819 1.701-.819 3.087 0 1.344.273 2.352.819 2.982s1.302.945 2.226.945z"/><path id="K" d="M1240.976 331.951c-.441.273-.945.504-1.512.651a6.58 6.58 0 0 1-1.806.252c-.882 0-1.617-.168-2.205-.462-.609-.315-1.071-.756-1.386-1.302-.294-.567-.462-1.218-.462-1.974v-6.174h-2.52v-1.764h2.52v-2.541l2.415-.273v2.814h3.843l-.273 1.764h-3.57v6.153c0 .609.168 1.071.462 1.365.315.294.819.441 1.512.441a4.29 4.29 0 0 0 2.1-.546l.882 1.596z"/><path id="L" d="M877.684 362.905a5.81 5.81 0 0 1 .882.063l.84.21-.42 4.2h-1.722v-2.31c-.798.021-1.47.336-2.058.945s-1.05 1.47-1.386 2.604v4.221h2.289v1.722h-6.384v-1.722h1.68V364.9h-1.68v-1.722h3.528l.441 2.646c.42-.987.966-1.722 1.596-2.205.651-.483 1.449-.714 2.394-.714z"/><path id="M" d="M44.68 72.452l.046 10.521-.046 10.62-.046 10.62c0 12.488.183 22.911.594 31.269.046.885-.091 1.672-.32 2.36-.274.688-.594 1.082-1.005 1.18s-.777-.197-1.097-.688c-.32-.59-.548-1.377-.594-2.262l-.228-5.31c-.411.983-.822 1.868-1.234 2.753-1.965 3.933-4.295 4.916-6.99 2.95-2.513-1.77-4.021-6.391-4.523-13.865-.411-5.998-.091-12.193.914-18.781 1.097-6.981 2.65-11.603 4.66-13.668 1.234-1.278 2.513-1.475 3.838-.393 1.051.885 2.056 2.458 3.015 4.916V72.648c0-.885.137-1.672.457-2.36.274-.688.64-.983 1.051-.983s.731.295 1.051.885c.32.688.457 1.377.457 2.262zm-3.061 34.71c-.959-3.933-1.553-6.293-1.828-6.981-.777-2.262-1.508-3.737-2.239-4.327-.503-.393-.959-.393-1.416.098-1.234 1.278-2.284 4.622-3.107 9.931-.868 5.605-1.142 10.915-.822 15.831.32 4.818 1.142 7.67 2.467 8.653 1.599 1.082 2.924.59 4.066-1.573 1.097-2.163 2.102-5.31 2.97-9.44l-.091-12.095v-.098z"/><path id="N" d="M50.483 92.216c.228 5.9.274 13.275.183 22.124l-.228 21.633c0 .885-.137 1.672-.411 2.36-.32.59-.685.885-1.097.885s-.777-.295-1.051-.885c-.32-.688-.457-1.475-.457-2.36l.228-21.829c.091-7.965.046-15.143-.183-21.338-.046-.885.091-1.77.366-2.458s.64-.983 1.051-1.082.777.197 1.097.787c.274.59.457 1.278.503 2.163zm-.64-18.781c.32.59.457 1.377.457 2.262s-.137 1.672-.411 2.262c-.32.688-.685.983-1.097.983s-.777-.295-1.051-.983c-.32-.59-.457-1.377-.457-2.262s.137-1.672.457-2.36c.274-.59.64-.885 1.051-.885s.777.295 1.051.983z"/><path id="O" d="M55.098 90.938l2.239 23.206c.594 5.015 1.234 9.046 1.828 12.193.731 3.737 1.188 5.801 1.416 6.293.228-.295.457-1.082.731-2.163.32-1.18.731-3.245 1.234-6.293 2.147-12.488 3.701-23.698 4.752-33.432.091-.885.32-1.573.685-2.065.32-.492.731-.59 1.142-.393s.685.688.914 1.377c.228.787.274 1.573.183 2.458-1.097 10.226-2.696 21.633-4.843 34.219-.594 3.442-1.051 5.801-1.416 7.276-.503 1.868-1.005 3.343-1.599 4.228-1.051 1.672-2.102 1.77-3.107.197-1.051-1.672-2.01-4.72-2.878-9.145-.685-3.442-1.325-7.866-1.965-13.078-.594-5.113-1.371-12.98-2.239-23.698a6.26 6.26 0 0 1 .228-2.458c.228-.688.548-1.18.959-1.377.411-.098.777.098 1.142.59.32.492.548 1.18.594 2.065z"/><path id="P" d="M107.411 104.015c.183-.098.457-.098.822-.197-.137-1.475-.411-2.95-.868-4.622-.503-1.77-1.005-3.147-1.599-4.228s-1.097-1.573-1.508-1.573c-1.279 0-2.422 1.77-3.427 5.31a50.67 50.67 0 0 0-1.188 5.605c1.599.098 3.015.098 4.249 0l3.518-.295zm-8.407 7.08l-.091 1.672c-.183 5.605.183 10.128 1.142 13.668.914 3.638 2.284 5.408 4.066 5.506.959.098 1.736-.197 2.33-.885s1.416-1.967 2.376-3.933c.228-.492.457-.983.685-1.672s.457-1.278.64-1.77l.64-2.36.594-2.065c.228-.787.594-1.278 1.005-1.475.411-.098.777 0 1.142.492.32.492.548 1.278.64 2.163.046.885 0 1.77-.228 2.458-.046.098-.274.688-.594 1.77l-.731 2.557-.822 2.458c-.32.983-.64 1.77-.959 2.262-1.142 2.36-2.239 4.032-3.198 5.113a4.24 4.24 0 0 1-3.609 1.475c-1.599-.098-2.924-.983-4.066-2.655-1.188-1.672-2.01-3.835-2.604-6.49-.594-2.557-1.005-5.408-1.234-8.26s-.32-5.9-.183-8.948c.228-6.49 1.005-12.095 2.33-16.814 1.599-5.703 3.609-8.555 5.985-8.456 1.188 0 2.284.885 3.244 2.753s1.782 3.933 2.467 6.391c.594 2.262 1.005 4.425 1.234 6.49.137 1.18.183 2.262.137 3.245-.091 1.475-.411 2.655-.914 3.54-.32.492-.731.787-1.325 1.082-.366.098-.868.295-1.462.393-.868.098-2.102.197-3.701.295-1.325.098-2.97.098-4.934 0z"/><path id="Q" d="M118.651 106.965l1.645-5.703c1.325-4.228 2.696-7.375 4.066-9.341 1.919-2.753 3.701-3.048 5.391-.885 1.097 1.377 1.965 4.327 2.604 8.948.503 3.343.868 7.571 1.142 12.783.411 7.571.548 15.143.503 22.714 0 .885-.137 1.573-.457 2.262-.32.59-.685.885-1.051.885-.411 0-.777-.295-1.051-.983-.32-.688-.457-1.475-.457-2.36.046-6.981-.091-14.258-.503-21.731-.228-4.916-.594-8.751-1.005-11.603-.411-3.048-.868-4.818-1.279-5.408-.594-.688-1.325-.492-2.193.787-1.005 1.475-2.102 4.032-3.244 7.67-1.005 3.245-1.873 6.588-2.65 10.128-.777 3.638-1.188 6.293-1.279 7.965-.091 1.18-.137 2.852-.183 5.015l-.137 5.605c0 .098 0 .295-.046.393v.197c0 .295-.046.492-.091.787-.091.295-.183.59-.32.885-.411.885-.868 1.18-1.416.885-.411-.197-.731-.688-.959-1.475-.046-.295-.091-.492-.137-.787l-.046-.688c-.046-.098-.046-.197-.046-.393s0-.688.046-1.377l.046-3.54c0-.885.046-2.655.091-5.506l.046-6.49v-4.228-4.523c-.046-.787-.046-2.163-.091-4.032l-.091-4.523-.183-3.835-.32-4.228a6.26 6.26 0 0 1 .228-2.458c.228-.688.548-1.18.959-1.377.366-.098.777.098 1.142.492.32.492.548 1.278.594 2.163.411 4.425.685 10.128.731 16.913z"/><path id="R" d="M163.699 94.772l-.685-.393c-.183-.098-.32-.197-.411-.197-1.188.098-2.284 1.672-3.29 4.622-1.051 3.048-1.782 6.785-2.193 11.406-.366 4.622-.274 8.85.228 12.586.503 3.835 1.416 6.391 2.696 7.866 1.599 1.672 3.061 1.377 4.386-.983 1.416-2.458 2.422-6.195 3.015-11.21.548-4.818.503-9.44-.091-13.865-.64-4.425-1.873-7.67-3.655-9.833zm1.097-6.096c.228.098.411.393.548.688 1.279 1.573 2.33 3.54 3.198 5.998.822 2.557 1.416 5.113 1.736 7.768.32 2.753.548 5.605.594 8.555a54.63 54.63 0 0 1-.503 8.358c-.731 6.49-2.102 11.406-4.066 14.749-2.33 4.032-4.889 4.622-7.63 1.573-1.051-1.082-1.965-2.753-2.696-4.916-.777-2.065-1.279-4.327-1.553-6.883a81.76 81.76 0 0 1-.503-7.768c-.091-2.753 0-5.31.274-7.768.457-5.605 1.325-10.325 2.65-14.16 1.599-4.523 3.427-6.883 5.574-7.178h.046c.411-.393.777-.393 1.188-.098s.777.688 1.142 1.082z"/><path id="S" d="M76.578 960.998c-.137-.295-.366-.688-.685-1.278l-.594-1.18c-.091-.197-.228-.492-.457-.787s-.411-.59-.548-.688-.32-.295-.548-.393c-1.142-.492-2.01-.098-2.696 1.377-.685 1.377-.822 3.147-.457 5.31.183 1.082.548 2.262 1.097 3.442.548 1.278 1.416 2.95 2.604 5.113l.548 1.082 2.056 3.933c.503 1.082 1.051 2.655 1.645 4.523.594 1.967.914 3.835 1.051 5.703.183 3.048-.046 5.703-.64 7.965-.64 2.262-1.508 4.032-2.65 5.113-1.005 1.082-2.102 1.573-3.335 1.475s-2.376-.688-3.427-1.967c-1.142-1.377-2.056-3.048-2.741-5.015-.685-1.868-1.279-4.228-1.873-7.08-.183-.885-.183-1.672-.046-2.557.137-.787.411-1.377.822-1.77.366-.393.731-.393 1.142-.098.366.295.64.885.822 1.672l1.462 5.605c.503 1.475 1.097 2.655 1.873 3.54.594.688 1.279 1.082 2.01 1.18s1.416-.197 2.01-.885c1.234-1.278 1.782-3.343 1.553-6.195-.091-1.475-.457-3.048-1.051-4.622s-1.508-3.442-2.65-5.605l-.777-1.475-.914-1.573-.822-1.672c-.366-.688-.64-1.377-.822-1.868l-.731-1.77-.64-2.065c-.183-.688-.32-1.278-.411-1.967-.366-2.36-.457-4.622-.228-6.686s.685-3.933 1.371-5.408 1.553-2.458 2.513-3.048c.959-.492 1.965-.492 2.97 0 .411.197.777.492 1.142.787a6.27 6.27 0 0 1 1.005 1.18l.777 1.278.731 1.475.548 1.18c.32.59.457 1.278.503 2.163s-.091 1.672-.366 2.36c-.32.688-.64.983-1.051 1.082s-.777-.197-1.097-.885z"/><path id="T" d="M80.325 943.888l4.295.197.503-12.095c.046-.885.228-1.672.548-2.262.32-.492.731-.787 1.142-.688s.731.492 1.005 1.18c.228.688.366 1.475.32 2.36l-.503 11.308 3.564-.492c.411-.098.777.197 1.097.787s.457 1.278.503 2.163-.091 1.672-.366 2.36-.64.983-1.051 1.082l-3.975.492c-.594 17.404-.503 30.286.228 38.84.228 2.163.503 3.737.868 4.622.366.983.685 1.475 1.005 1.573.366.098.822-.295 1.325-1.18.503-.787 1.051-2.163 1.553-4.228.594-.787 1.142-4.327 1.736-10.62.137-.885.366-1.475.731-1.967.366-.393.731-.492 1.142-.197s.685.885.914 1.672c.183.787.183 1.573.046 2.458-.503 5.015-1.142 8.85-1.919 11.603-.685 2.852-1.553 5.113-2.559 6.785-1.051 1.573-2.102 2.262-3.244 2.065-1.188-.295-2.147-1.377-2.924-3.54-.822-2.065-1.325-4.72-1.599-7.965-.822-8.85-.914-22.124-.32-39.725-1.508 0-2.924-.098-4.249-.197-.411-.098-.731-.393-1.051-1.082-.274-.59-.411-1.377-.366-2.262s.183-1.573.503-2.262c.32-.59.685-.885 1.097-.787z"/><path id="U" d="M586.729 967.487l-.503-6.096c-.274-1.672-.548-2.95-.868-3.737-.32-.688-.64-1.278-.914-1.573s-.548-.492-.777-.393c-.685.098-1.462 1.082-2.33 2.95-.868 1.967-1.508 4.818-2.01 8.653-.548 4.032-.777 7.768-.594 11.21.137 3.442.457 6.49 1.005 8.948s1.234 4.425 2.056 5.703c1.234 1.868 2.559 2.065 3.975.787 1.873-1.672 3.655-5.801 5.391-12.193.228-.787.503-1.278.914-1.573.411-.197.777-.098 1.142.295.366.492.594 1.082.731 1.967.091.885.046 1.672-.137 2.458-2.056 7.67-4.34 12.685-6.853 15.044-2.467 2.262-4.752 1.77-6.899-1.573-1.919-3.048-3.244-7.473-3.929-13.471s-.594-12.488.274-19.371c.64-4.72 1.599-8.555 2.878-11.603s2.696-4.622 4.249-4.72c1.736-.197 3.153 1.278 4.249 4.523 1.051 3.245 1.736 7.67 1.965 13.176.046.885-.091 1.672-.32 2.36-.274.688-.64 1.082-1.051 1.18s-.777-.197-1.097-.787c-.32-.492-.503-1.278-.548-2.163z"/></defs></svg>