<svg xmlns="http://www.w3.org/2000/svg" xmlns:xlink="http://www.w3.org/1999/xlink" width="1132" height="376" fill-rule="evenodd" stroke-linecap="round" stroke-linejoin="round" stroke-miterlimit="1.5" xmlns:v="https://vecta.io/nano"><style><![CDATA[.B{stroke:#000}.C{fill-rule:nonzero}.D{fill:#32f7d3}.E{fill:#e5f20d}]]></style><g transform="matrix(.905729 0 0 1 -84 -84)"><g fill="none" class="B"><g stroke-width="1.45"><path d="M400 1000V600" transform="matrix(.690052 0 0 .75 0 -350)"/><path d="M400 1000V600" transform="matrix(.690052 0 0 .75 440.569 -350)"/><path d="M400 1000V600" transform="matrix(.690052 0 0 .75 883.266 -350)"/><path d="M600 800H200" transform="matrix(.828062 0 0 .625 -55.2041 -250)"/><path d="M600 800H200" transform="matrix(.828062 0 0 .625 385.365 -250)"/><path d="M600 800H200" transform="matrix(.828062 0 0 .625 828.062 -250)"/></g><g stroke-width="1.6"><path d="M160 560h480v480H160z" transform="matrix(.690052 0 0 .625 0 -250)"/><path d="M160 560h480v480H160z" transform="matrix(.690052 0 0 .625 440.569 -250)"/><path d="M160 560h480v480H160z" transform="matrix(.690052 0 0 .625 883.266 -250)"/></g><use xlink:href="#B" transform="matrix(0 .625 -.690052 0 276.4 246.094)"/><use xlink:href="#B" transform="matrix(0 .625 -.690052 0 716.969 246.094)"/><use xlink:href="#B" transform="matrix(0 .625 -.690052 0 1159.67 246.094)"/><path d="M100,100L400,400" transform="scale(1.10408 1)"/><path d="M100,100L400,400" transform="matrix(1.10408 0 0 1 440.569 0)"/><path d="M100,100L400,400" transform="matrix(1.10408 0 0 1 883.266 0)"/><path d="M400,100L100,400" transform="scale(1.10408 1)"/><path d="M400,100L100,400" transform="matrix(1.10408 0 0 1 440.569 0)"/><path d="M400,100L100,400" transform="matrix(1.10408 0 0 1 883.266 0)"/></g><g fill="#d926a5" class="B"><use xlink:href="#C" transform="scale(1.10408 1)"/><use xlink:href="#C" transform="matrix(1.10408 0 0 1 440.569 0)"/><use xlink:href="#C" transform="matrix(1.10408 0 0 1 883.266 0)"/><use xlink:href="#D" transform="scale(1.10408 1)"/><use xlink:href="#D" transform="matrix(1.10408 0 0 1 440.569 0)"/><use xlink:href="#D" transform="matrix(1.10408 0 0 1 883.266 0)"/><use xlink:href="#E" transform="scale(1.10408 1)"/><use xlink:href="#E" transform="matrix(1.10408 0 0 1 440.569 0)"/><use xlink:href="#E" transform="matrix(1.10408 0 0 1 883.266 0)"/><use xlink:href="#F" transform="scale(1.10408 1)"/><use xlink:href="#F" transform="matrix(1.10408 0 0 1 440.569 0)"/><use xlink:href="#F" transform="matrix(1.10408 0 0 1 883.266 0)"/><use xlink:href="#G" transform="scale(1.10408 1)"/><use xlink:href="#G" transform="matrix(1.10408 0 0 1 440.569 0)"/><use xlink:href="#G" transform="matrix(1.10408 0 0 1 883.266 0)"/><use xlink:href="#H" transform="scale(1.10408 1)"/><use xlink:href="#H" transform="matrix(1.10408 0 0 1 440.569 0)"/><use xlink:href="#H" transform="matrix(1.10408 0 0 1 883.266 0)"/><use xlink:href="#I" transform="matrix(1.10408 0 0 1 440.569 0)"/><use xlink:href="#I" transform="matrix(1.10408 0 0 1 883.266 0)"/><path d="M250 138.384V250l-64.232-64.232c12.718-24.429 36.241-42.335 64.232-47.384z" transform="matrix(1.10408 0 0 1 440.569 0)"/><path d="M250 138.384V250l-64.232-64.232c12.718-24.429 36.241-42.335 64.232-47.384z" transform="matrix(1.10408 0 0 1 883.266 0)"/></g><g fill="none" class="B"><path d="M100 100h150v38.384c-27.991 5.049-51.514 22.955-64.232 47.384L100 100z" transform="matrix(1.10408 0 0 1 440.569 0)"/><path d="M100 100h150v38.384c-27.991 5.049-51.514 22.955-64.232 47.384L100 100z" transform="matrix(1.10408 0 0 1 883.266 0)"/></g><g fill="#267bd9" transform="scale(1.10408 1)" class="B"><path d="M1136.99 163.012l-52.97 52.965c-5.22-3.098-11.32-4.877-17.83-4.877-7.96 0-14.77 5.697-16.19 13.526v-86.242c5.25-.948 10.66-1.442 16.19-1.442 27.02 0 51.74 9.813 70.8 26.07z"/><path d="M1175.28 250h-74.23l.13-3.906c0-12.814-6.88-24.02-17.16-30.117l52.97-52.965c23.47 20.021 38.35 49.813 38.35 83.082 0 1.307-.02 2.609-.06 3.906z"/><path d="M1136.58 336.582l-51.86-51.863c9.27-8.899 15.34-21.104 16.33-34.719h74.23c-1.04 34.038-15.69 64.651-38.7 86.582z"/></g><g fill="#353535" class="C"><use xlink:href="#J"/><use xlink:href="#K"/><use xlink:href="#L"/><path d="M309.418 444.408h15.435v3.78h-15.435v-3.78zm0 6.48h15.435v3.75h-15.435v-3.75z"/><use xlink:href="#J" x="163.064"/><use xlink:href="#L" x="359.88"/><use xlink:href="#K" x="441.412"/><use xlink:href="#L" x="441.412"/><path d="M750.83 444.408h15.435v3.78H750.83v-3.78zm0 6.48h15.435v3.75H750.83v-3.75zm48.484-13.65c1.855 0 3.412.45 4.67 1.32 1.292.87 2.219 2.16 2.882 3.81.629 1.68.961 3.69.961 6.03 0 2.37-.331 4.38-.961 6.06-.662 1.68-1.59 2.97-2.882 3.84-1.259.9-2.815 1.32-4.67 1.32s-3.445-.42-4.703-1.32c-1.292-.87-2.219-2.16-2.882-3.84-.629-1.68-.927-3.69-.927-6.06 0-2.34.298-4.35.927-6.03.662-1.65 1.59-2.94 2.882-3.81 1.259-.87 2.815-1.32 4.703-1.32zm0 3.54c-.828 0-1.491.24-1.987.75s-.894 1.32-1.126 2.43c-.232 1.14-.364 2.61-.364 4.44l.199 4.29 5.763-10.89c-.265-.39-.596-.63-.994-.81-.397-.15-.894-.21-1.491-.21zm0 15.36c.795 0 1.457-.27 1.954-.75.497-.51.861-1.32 1.126-2.46.232-1.11.331-2.64.331-4.53l-.066-2.97-5.432 10.14c.265.18.53.33.894.42.331.09.729.15 1.192.15z"/><use xlink:href="#M"/><use xlink:href="#M" x="20.384"/><use xlink:href="#K" x="893.695"/><use xlink:href="#L" x="893.695"/><path d="M1203.114 444.408h15.435v3.78h-15.435v-3.78zm0 6.48h15.435v3.75h-15.435v-3.75zm47.523-13.65c1.656 0 3.08.24 4.273.75 1.226.48 2.153 1.14 2.782 1.98.629.81.961 1.74.961 2.73 0 1.32-.431 2.4-1.259 3.27-.861.84-2.02 1.47-3.544 1.86 3.71.45 5.565 2.22 5.565 5.28 0 1.2-.397 2.31-1.126 3.3s-1.789 1.77-3.18 2.34c-1.358.6-2.981.87-4.803.87-1.755 0-3.312-.27-4.703-.81s-2.584-1.35-3.61-2.37l3.047-2.55c1.292 1.35 2.915 2.01 4.902 2.01 1.192 0 2.153-.27 2.882-.81.696-.54 1.06-1.32 1.06-2.31 0-1.11-.331-1.92-.994-2.43-.696-.51-1.689-.75-2.981-.75h-2.153l.629-3.36h1.524c1.06 0 1.921-.24 2.584-.72.629-.48.961-1.17.961-2.07 0-.78-.298-1.41-.927-1.89-.629-.45-1.457-.69-2.484-.69a6.72 6.72 0 0 0-2.484.45c-.762.33-1.491.78-2.219 1.38l-2.749-2.58c2.186-1.92 4.869-2.88 8.049-2.88z"/></g><circle cx="430" cy="70" r="15" transform="matrix(1.10408 0 0 1 -198.735 30)" class="B D"/><use xlink:href="#N" class="C"/><circle cx="430" cy="70" r="15" transform="matrix(1.10408 0 0 1 241.384 30)" class="B E"/><use xlink:href="#N" x="440.119" class="C"/><circle cx="430" cy="70" r="15" transform="matrix(1.10408 0 0 1 684.539 30)" class="B D"/><use xlink:href="#N" x="883.274" class="C"/><circle cx="430" cy="70" r="15" transform="matrix(1.10408 0 0 1 -77.286 70)" class="B D"/><use xlink:href="#O" class="C"/><circle cx="430" cy="70" r="15" transform="matrix(1.10408 0 0 1 362.833 70)" class="B D"/><use xlink:href="#O" x="440.119" class="C"/><circle cx="430" cy="70" r="15" transform="matrix(1.10408 0 0 1 805.988 70)" class="B D"/><use xlink:href="#O" x="883.274" class="C"/><circle cx="430" cy="70" r="15" transform="matrix(1.10408 0 0 1 -33.137 180)" class="B D"/><use xlink:href="#P" class="C"/><circle cx="430" cy="70" r="15" transform="matrix(1.10408 0 0 1 406.982 180)" class="B D"/><use xlink:href="#P" x="440.119" class="C"/><circle cx="430" cy="70" r="15" transform="matrix(1.10408 0 0 1 850.136 180)" class="B D"/><use xlink:href="#P" x="883.273" class="C"/><circle cx="430" cy="70" r="15" transform="matrix(1.10408 0 0 1 -77.286 290)" class="B D"/><use xlink:href="#Q" class="C"/><circle cx="430" cy="70" r="15" transform="matrix(1.10408 0 0 1 362.833 290)" class="B D"/><use xlink:href="#Q" x="440.119" class="C"/><circle cx="430" cy="70" r="15" transform="matrix(1.10408 0 0 1 805.988 290)" class="B E"/><use xlink:href="#Q" x="883.274" class="C"/><circle cx="430" cy="70" r="15" transform="matrix(1.10408 0 0 1 -198.735 330)" class="B D"/><use xlink:href="#R" class="C"/><circle cx="430" cy="70" r="15" transform="matrix(1.10408 0 0 1 241.384 330)" class="B D"/><use xlink:href="#R" x="440.119" class="C"/><circle cx="430" cy="70" r="15" transform="matrix(1.10408 0 0 1 684.539 330)" class="B D"/><use xlink:href="#R" x="883.274" class="C"/><circle cx="430" cy="70" r="15" transform="matrix(1.10408 0 0 1 -320.184 290)" class="B D"/><use xlink:href="#S" class="C"/><circle cx="430" cy="70" r="15" transform="matrix(1.10408 0 0 1 119.935 290)" class="B D"/><use xlink:href="#S" x="440.119" class="C"/><circle cx="430" cy="70" r="15" transform="matrix(1.10408 0 0 1 563.09 290)" class="B D"/><use xlink:href="#S" x="883.274" class="C"/><circle cx="430" cy="70" r="15" transform="matrix(1.10408 0 0 1 -364.347 180)" class="B E"/><use xlink:href="#T" class="C"/><circle cx="430" cy="70" r="15" transform="matrix(1.10408 0 0 1 75.772 180)" class="B D"/><use xlink:href="#T" x="440.119" class="C"/><circle cx="430" cy="70" r="15" transform="matrix(1.10408 0 0 1 518.926 180)" class="B D"/><use xlink:href="#T" x="883.273" class="C"/><circle cx="430" cy="70" r="15" transform="matrix(1.10408 0 0 1 -320.184 72.884)" class="B D"/><path d="M160.2 135.711l-7.784 16.25-2.208-.625 7.591-15.475h-9.136v-1.8H160.2v1.65z" class="C"/><circle cx="430" cy="70" r="15" transform="matrix(1.10408 0 0 1 119.935 72.884)" class="B D"/><path d="M600.319 135.711l-7.784 16.25-2.208-.625 7.591-15.475h-9.136v-1.8h11.538v1.65z" class="C"/><circle cx="430" cy="70" r="15" transform="matrix(1.10408 0 0 1 563.09 72.884)" class="B D"/><path d="M1043.474 135.711l-7.784 16.25-2.208-.625 7.591-15.475h-9.136v-1.8h11.538v1.65z" class="C"/></g><defs ><path id="B" d="M200 0c0-110.457-89.543-200-200-200-96.453 0-174.643 78.191-174.643 174.644 0 80.07 64.909 144.98 144.98 144.98 63.687 0 115.317-51.629 115.316-115.317 0-47.305-38.348-85.654-85.653-85.654-30.923 0-55.99 25.068-55.99 55.991A26.33 26.33 0 0 0-34.291.56"/><path id="C" d="M250 250v-25.374c1.416-7.829 8.232-13.526 16.192-13.526 6.512 0 12.609 1.779 17.831 4.877L250 250z"/><path id="D" d="M301.045 250H250l34.023-34.023c10.275 6.097 17.162 17.303 17.162 30.117 0 1.313-.047 2.616-.14 3.906z"/><path id="E" d="M284.719 284.719L250 250h51.045c-.982 13.615-7.055 25.82-16.326 34.719z"/><path id="F" d="M250 299.577V250l34.719 34.719c-9.093 8.728-21.262 14.277-34.719 14.858z"/><path id="G" d="M210.608 289.392L250 250v49.577l-2.348.05c-13.545 0-26.218-3.737-37.044-10.235z"/><path id="H" d="M179.143 250H250l-39.392 39.392c-14.722-8.839-26.028-22.787-31.465-39.392z"/><path id="I" d="M185.768 185.768L250 250h-70.857a72.01 72.01 0 0 1-3.564-22.446c0-15.071 3.679-29.283 10.189-41.786z"/><path id="J" d="M196.858 444.828c1.226 0 2.352.27 3.378.81.994.57 1.789 1.38 2.352 2.43.563 1.08.861 2.34.861 3.81 0 1.44-.331 2.73-1.027 3.93-.696 1.17-1.656 2.1-2.915 2.79-1.292.69-2.749 1.02-4.405 1.02-1.987 0-3.643-.45-4.968-1.35-1.292-.9-2.252-2.1-2.882-3.63-.596-1.53-.927-3.27-.927-5.19 0-2.37.431-4.5 1.226-6.33.828-1.86 2.02-3.3 3.544-4.32 1.557-1.05 3.378-1.56 5.432-1.56 1.954 0 3.677.45 5.134 1.38l-2.054 2.94a5.42 5.42 0 0 0-1.424-.63c-.53-.15-1.027-.21-1.524-.21-.861 0-1.656.21-2.319.69-.696.48-1.226 1.14-1.656 2.07-.431.9-.696 1.98-.762 3.27a7.32 7.32 0 0 1 2.319-1.44 7.46 7.46 0 0 1 2.617-.48zm-1.689 11.34c.961 0 1.689-.39 2.186-1.14.497-.72.729-1.68.729-2.88 0-1.41-.232-2.4-.662-3.03s-1.093-.96-1.954-.96c-.629 0-1.259.15-1.855.42a5.4 5.4 0 0 0-1.689 1.23c.033 1.47.132 2.64.364 3.57.199.93.53 1.62.994 2.07.464.48 1.093.72 1.888.72z"/><path id="K" d="M228.284 458.928l11.56-21.84 2.882 1.08-11.626 21.84-2.815-1.08zm2.087-21.69c.994 0 1.855.21 2.584.6s1.292.96 1.656 1.68c.397.72.596 1.59.596 2.55s-.199 1.83-.596 2.55c-.364.72-.927 1.26-1.656 1.68-.729.39-1.59.57-2.584.57s-1.855-.18-2.584-.57c-.762-.42-1.292-.96-1.689-1.68s-.563-1.59-.563-2.55c0-.93.166-1.77.563-2.49s.961-1.32 1.689-1.71c.729-.42 1.59-.63 2.584-.63zm0 2.4c-.53 0-.894.18-1.06.6-.199.39-.298 1.02-.298 1.83s.099 1.41.298 1.8a1.11 1.11 0 0 0 1.06.63c.53 0 .894-.21 1.093-.6.166-.39.265-.99.265-1.83 0-.87-.099-1.5-.265-1.86-.199-.39-.563-.57-1.093-.57zm10.434 10.02c.994 0 1.855.21 2.584.6s1.292.96 1.656 1.68c.397.72.596 1.59.596 2.55s-.199 1.8-.596 2.55c-.364.72-.927 1.26-1.656 1.65-.729.42-1.59.6-2.584.6s-1.888-.18-2.617-.6c-.729-.39-1.259-.93-1.656-1.65-.397-.75-.596-1.59-.596-2.55 0-.93.199-1.77.596-2.49.397-.75.927-1.32 1.689-1.71.729-.42 1.59-.63 2.584-.63zm0 2.4c-.53 0-.894.18-1.06.6-.199.39-.298.99-.298 1.83 0 .78.099 1.38.298 1.8s.563.63 1.06.63c.53 0 .894-.21 1.093-.6.166-.39.265-.99.265-1.83 0-.87-.099-1.5-.265-1.86-.199-.39-.563-.57-1.093-.57z"/><path id="L" d="M284.187 442.878c0 .99-.298 1.86-.861 2.58s-1.524 1.38-2.782 2.04c3.047 1.41 4.571 3.33 4.571 5.82 0 1.14-.331 2.19-1.027 3.15-.662.96-1.689 1.71-3.014 2.28-1.325.6-2.948.87-4.803.87s-3.445-.27-4.737-.84c-1.292-.54-2.285-1.29-2.948-2.22-.629-.96-.961-1.98-.961-3.12a4.82 4.82 0 0 1 1.126-3.15c.762-.9 1.822-1.62 3.18-2.16-.828-.48-1.491-.96-1.987-1.41-.464-.45-.828-.96-1.06-1.53s-.364-1.26-.364-2.04c0-1.2.364-2.22 1.027-3.12.696-.9 1.623-1.59 2.815-2.07s2.55-.72 4.041-.72c1.524 0 2.882.24 4.041.69 1.192.48 2.12 1.14 2.749 1.98.662.84.994 1.86.994 2.97zm-10.533.27c0 .72.265 1.35.795 1.83s1.424.93 2.617 1.35c.729-.51 1.259-.99 1.557-1.47a3.23 3.23 0 0 0 .464-1.68c0-.81-.232-1.44-.696-1.92s-1.126-.69-1.987-.69c-.894 0-1.557.21-2.054.66-.464.42-.696 1.08-.696 1.92zm6.095 10.14c0-.69-.166-1.26-.464-1.71-.298-.42-.762-.81-1.391-1.11-.596-.33-1.491-.66-2.65-1.05-.729.42-1.259.96-1.656 1.56-.397.63-.596 1.35-.596 2.19 0 .9.265 1.62.861 2.16s1.424.84 2.55.84c1.093 0 1.921-.27 2.484-.81s.861-1.23.861-2.07z"/><path id="M" d="M1072.257 437.778v17.64h4.405v3.69h-15.303v-3.69h5.664v-12.84l-4.836 2.73-2.285-3.33 7.618-4.2h4.737z"/><path id="N" d="M275.852 90.902c2.07 0 3.671.775 4.748 2.325 1.076 1.575 1.629 3.825 1.629 6.775s-.552 5.2-1.629 6.775c-1.076 1.55-2.677 2.35-4.748 2.35-2.098 0-3.671-.8-4.775-2.35-1.076-1.575-1.629-3.825-1.629-6.775s.552-5.2 1.629-6.775c1.104-1.55 2.677-2.325 4.775-2.325zm0 1.725c-2.595 0-3.864 2.45-3.864 7.375 0 1.95.166 3.5.497 4.6l5.962-10.85c-.607-.75-1.463-1.125-2.595-1.125zm0 14.75c2.567 0 3.864-2.45 3.864-7.375 0-2-.166-3.55-.497-4.65l-5.934 10.9c.304.375.662.675 1.104.85.414.175.911.275 1.463.275z"/><path id="O" d="M399.371 131.177v15.9h4.085v1.75h-11.262v-1.75h4.803v-13.575l-4.472 2.475-1.049-1.55 5.824-3.25h2.07z"/><path id="P" d="M440.567 240.902c1.214 0 2.263.2 3.147.625s1.546 1.025 2.043 1.75c.469.75.69 1.6.69 2.525 0 1.1-.276 2.15-.828 3.175s-1.463 2.15-2.677 3.4c-1.242 1.225-2.981 2.75-5.217 4.625h9.191l-.304 1.825h-11.593v-1.75l5.686-5.2c1.214-1.25 2.07-2.3 2.539-3.175a5.94 5.94 0 0 0 .69-2.8c0-1-.304-1.8-.911-2.375-.635-.55-1.463-.85-2.567-.85-.938 0-1.711.15-2.319.45-.607.275-1.242.75-1.877 1.45l-1.629-1.15c.773-.875 1.629-1.5 2.595-1.925.938-.4 2.07-.6 3.34-.6z"/><path id="Q" d="M396.39 350.902c1.187 0 2.236.2 3.147.575.911.4 1.629.95 2.125 1.625.469.65.718 1.4.718 2.2 0 .7-.166 1.325-.497 1.925-.359.575-.828 1.05-1.408 1.45-.58.375-1.214.625-1.905.75.8.05 1.546.25 2.208.6s1.214.825 1.629 1.475c.386.625.607 1.375.607 2.225 0 1.025-.276 1.95-.856 2.75-.58.825-1.38 1.475-2.401 1.95-1.021.45-2.181.7-3.505.7-1.159 0-2.263-.2-3.34-.6-1.049-.4-1.96-.975-2.65-1.775l1.601-1.175a5.15 5.15 0 0 0 1.96 1.325 6.33 6.33 0 0 0 2.374.45c.883 0 1.656-.15 2.319-.45.635-.3 1.132-.7 1.491-1.25a3.63 3.63 0 0 0 .524-1.925c0-2.225-1.353-3.325-4.058-3.325h-1.629l.304-1.725h1.132c.662 0 1.27-.1 1.822-.325.58-.225 1.021-.575 1.38-1.05.331-.45.524-1.025.524-1.7 0-.625-.166-1.175-.497-1.625s-.773-.775-1.325-1.025a4.97 4.97 0 0 0-1.877-.35c-.8 0-1.546.125-2.181.4-.635.25-1.27.675-1.932 1.225l-1.325-1.3c1.573-1.35 3.423-2.025 5.52-2.025z"/><path id="R" d="M279.799 402.802h2.512v1.725h-2.512v4.3h-2.291l-.028-4.3h-8.087v-1.55l5.714-12.075 1.987.75-5.189 11.15h5.603l.304-5h1.987v5z"/><path id="S" d="M159.675 351.177l-.331 1.725h-7.701v5.55c.58-.275 1.132-.475 1.656-.575.524-.125 1.104-.175 1.711-.175 1.049 0 1.987.225 2.788.65s1.435 1.075 1.877 1.9c.442.85.662 1.825.662 2.975 0 1.175-.276 2.2-.828 3.1s-1.297 1.575-2.319 2.075c-.994.475-2.153.725-3.45.725-1.132 0-2.181-.175-3.091-.55s-1.767-.9-2.567-1.575l1.463-1.3c.607.575 1.242.975 1.932 1.25.662.25 1.435.4 2.291.4 1.27 0 2.291-.375 3.009-1.075.69-.7 1.049-1.75 1.049-3.1 0-1.325-.304-2.3-.938-2.9-.635-.575-1.491-.875-2.567-.875a8.2 8.2 0 0 0-1.435.125 14.2 14.2 0 0 0-1.601.475h-1.905v-8.825h10.296z"/><path id="T" d="M111.068 247.327c1.021 0 1.96.2 2.788.625.828.4 1.518 1.025 1.987 1.875.497.825.745 1.85.745 3.075 0 1.25-.276 2.35-.828 3.3-.524.925-1.27 1.65-2.208 2.175-.938.5-1.96.75-3.091.75-2.263 0-3.919-.75-4.941-2.25s-1.518-3.625-1.518-6.4c0-1.925.276-3.625.856-5.075s1.408-2.55 2.484-3.35c1.104-.775 2.401-1.15 3.892-1.15 1.435 0 2.733.325 3.864 1.025l-.938 1.45c-.911-.5-1.877-.75-2.953-.75-.994 0-1.849.3-2.539.875-.718.575-1.27 1.4-1.656 2.45-.386 1.075-.607 2.325-.635 3.75.607-.8 1.297-1.425 2.07-1.8s1.656-.575 2.622-.575zm-.635 10.05c1.214 0 2.125-.4 2.76-1.175s.966-1.875.966-3.25-.304-2.375-.911-2.975c-.607-.575-1.435-.875-2.539-.875a4.83 4.83 0 0 0-2.457.65 5.98 5.98 0 0 0-1.849 1.85c.028 1.325.193 2.425.469 3.275.304.85.745 1.475 1.325 1.875.58.425 1.325.625 2.236.625z"/></defs></svg>