<?xml version="1.0" encoding="UTF-8" standalone="no"?>
<!DOCTYPE svg PUBLIC "-//W3C//DTD SVG 1.1//EN" "http://www.w3.org/Graphics/SVG/1.1/DTD/svg11.dtd">
<svg width="1132px" height="376px" version="1.1" xmlns="http://www.w3.org/2000/svg" xmlns:xlink="http://www.w3.org/1999/xlink" xml:space="preserve" xmlns:serif="http://www.serif.com/" style="fill-rule:evenodd;clip-rule:evenodd;stroke-linecap:round;stroke-linejoin:round;stroke-miterlimit:1.5;">
    <g transform="matrix(1,0,0,1,-84,-84)">
        <g transform="matrix(0.905729,0,0,1,0,0)">
            <g id="modulo-circular">
                <g transform="matrix(0.690052,0,0,0.75,-4.15419e-07,-350)">
                    <path d="M400,1000L400,600" style="fill:none;stroke:black;stroke-width:1.45px;"/>
                </g>
                <g transform="matrix(0.690052,0,0,0.75,440.569,-350)">
                    <path d="M400,1000L400,600" style="fill:none;stroke:black;stroke-width:1.45px;"/>
                </g>
                <g transform="matrix(0.690052,0,0,0.75,883.266,-350)">
                    <path d="M400,1000L400,600" style="fill:none;stroke:black;stroke-width:1.45px;"/>
                </g>
                <g transform="matrix(0.828062,0,0,0.625,-55.2041,-250)">
                    <path d="M600,800L200,800" style="fill:none;stroke:black;stroke-width:1.45px;"/>
                </g>
                <g transform="matrix(0.828062,0,0,0.625,385.365,-250)">
                    <path d="M600,800L200,800" style="fill:none;stroke:black;stroke-width:1.45px;"/>
                </g>
                <g transform="matrix(0.828062,0,0,0.625,828.062,-250)">
                    <path d="M600,800L200,800" style="fill:none;stroke:black;stroke-width:1.45px;"/>
                </g>
                <g transform="matrix(0.690052,0,0,0.625,-4.15419e-07,-250)">
                    <rect x="160" y="560" width="480" height="480" style="fill:none;stroke:black;stroke-width:1.6px;"/>
                </g>
                <g transform="matrix(0.690052,0,0,0.625,440.569,-250)">
                    <rect x="160" y="560" width="480" height="480" style="fill:none;stroke:black;stroke-width:1.6px;"/>
                </g>
                <g transform="matrix(0.690052,0,0,0.625,883.266,-250)">
                    <rect x="160" y="560" width="480" height="480" style="fill:none;stroke:black;stroke-width:1.6px;"/>
                </g>
                <g transform="matrix(4.22535e-17,0.625,-0.690052,3.82702e-17,276.4,246.094)">
                    <path d="M200,0C200,-110.457 110.457,-200 -0,-200C-96.453,-200 -174.643,-121.809 -174.643,-25.356C-174.643,54.714 -109.734,119.624 -29.663,119.624C34.024,119.624 85.654,67.995 85.653,4.307C85.653,-42.998 47.305,-81.347 -0,-81.347C-30.923,-81.347 -55.99,-56.279 -55.99,-25.356C-55.99,-12.602 -46.847,-1.681 -34.291,0.56" style="fill:none;stroke:black;stroke-width:1px;"/>
                </g>
                <g transform="matrix(4.22535e-17,0.625,-0.690052,3.82702e-17,716.969,246.094)">
                    <path d="M200,0C200,-110.457 110.457,-200 -0,-200C-96.453,-200 -174.643,-121.809 -174.643,-25.356C-174.643,54.714 -109.734,119.624 -29.663,119.624C34.024,119.624 85.654,67.995 85.653,4.307C85.653,-42.998 47.305,-81.347 -0,-81.347C-30.923,-81.347 -55.99,-56.279 -55.99,-25.356C-55.99,-12.602 -46.847,-1.681 -34.291,0.56" style="fill:none;stroke:black;stroke-width:1px;"/>
                </g>
                <g transform="matrix(4.22535e-17,0.625,-0.690052,3.82702e-17,1159.67,246.094)">
                    <path d="M200,0C200,-110.457 110.457,-200 -0,-200C-96.453,-200 -174.643,-121.809 -174.643,-25.356C-174.643,54.714 -109.734,119.624 -29.663,119.624C34.024,119.624 85.654,67.995 85.653,4.307C85.653,-42.998 47.305,-81.347 -0,-81.347C-30.923,-81.347 -55.99,-56.279 -55.99,-25.356C-55.99,-12.602 -46.847,-1.681 -34.291,0.56" style="fill:none;stroke:black;stroke-width:1px;"/>
                </g>
                <g transform="matrix(1.10408,0,0,1,0,0)">
                    <path d="M100,100L400,400" style="fill:none;stroke:black;stroke-width:1px;"/>
                </g>
                <g transform="matrix(1.10408,0,0,1,440.569,8.36128e-08)">
                    <path d="M100,100L400,400" style="fill:none;stroke:black;stroke-width:1px;"/>
                </g>
                <g transform="matrix(1.10408,0,0,1,883.266,-1.13687e-13)">
                    <path d="M100,100L400,400" style="fill:none;stroke:black;stroke-width:1px;"/>
                </g>
                <g transform="matrix(1.10408,0,0,1,0,0)">
                    <path d="M400,100L100,400" style="fill:none;stroke:black;stroke-width:1px;"/>
                </g>
                <g transform="matrix(1.10408,0,0,1,440.569,8.36128e-08)">
                    <path d="M400,100L100,400" style="fill:none;stroke:black;stroke-width:1px;"/>
                </g>
                <g transform="matrix(1.10408,0,0,1,883.266,-1.13687e-13)">
                    <path d="M400,100L100,400" style="fill:none;stroke:black;stroke-width:1px;"/>
                </g>
                <g transform="matrix(1.10408,0,0,1,0,0)">
                    <path d="M250,250L250,224.626C251.416,216.797 258.232,211.1 266.192,211.1C272.704,211.1 278.801,212.879 284.023,215.977L250,250Z" style="fill:rgb(217,38,165);stroke:black;stroke-width:1px;"/>
                </g>
                <g transform="matrix(1.10408,0,0,1,440.569,8.36128e-08)">
                    <path d="M250,250L250,224.626C251.416,216.797 258.232,211.1 266.192,211.1C272.704,211.1 278.801,212.879 284.023,215.977L250,250Z" style="fill:rgb(217,38,165);stroke:black;stroke-width:1px;"/>
                </g>
                <g transform="matrix(1.10408,0,0,1,883.266,-1.13687e-13)">
                    <path d="M250,250L250,224.626C251.416,216.797 258.232,211.1 266.192,211.1C272.704,211.1 278.801,212.879 284.023,215.977L250,250Z" style="fill:rgb(217,38,165);stroke:black;stroke-width:1px;"/>
                </g>
                <g transform="matrix(1.10408,0,0,1,0,0)">
                    <path d="M301.045,250L250,250L284.023,215.977C294.298,222.074 301.185,233.28 301.185,246.094C301.185,247.407 301.138,248.71 301.045,250Z" style="fill:rgb(217,38,165);stroke:black;stroke-width:1px;"/>
                </g>
                <g transform="matrix(1.10408,0,0,1,440.569,8.36128e-08)">
                    <path d="M301.045,250L250,250L284.023,215.977C294.298,222.074 301.185,233.28 301.185,246.094C301.185,247.407 301.138,248.71 301.045,250Z" style="fill:rgb(217,38,165);stroke:black;stroke-width:1px;"/>
                </g>
                <g transform="matrix(1.10408,0,0,1,883.266,-1.13687e-13)">
                    <path d="M301.045,250L250,250L284.023,215.977C294.298,222.074 301.185,233.28 301.185,246.094C301.185,247.407 301.138,248.71 301.045,250Z" style="fill:rgb(217,38,165);stroke:black;stroke-width:1px;"/>
                </g>
                <g transform="matrix(1.10408,0,0,1,0,0)">
                    <path d="M284.719,284.719L250,250L301.045,250C300.063,263.615 293.99,275.82 284.719,284.719Z" style="fill:rgb(217,38,165);stroke:black;stroke-width:1px;"/>
                </g>
                <g transform="matrix(1.10408,0,0,1,440.569,8.36128e-08)">
                    <path d="M284.719,284.719L250,250L301.045,250C300.063,263.615 293.99,275.82 284.719,284.719Z" style="fill:rgb(217,38,165);stroke:black;stroke-width:1px;"/>
                </g>
                <g transform="matrix(1.10408,0,0,1,883.266,-1.13687e-13)">
                    <path d="M284.719,284.719L250,250L301.045,250C300.063,263.615 293.99,275.82 284.719,284.719Z" style="fill:rgb(217,38,165);stroke:black;stroke-width:1px;"/>
                </g>
                <g transform="matrix(1.10408,0,0,1,0,0)">
                    <path d="M250,299.577L250,250L284.719,284.719C275.626,293.447 263.457,298.996 250,299.577Z" style="fill:rgb(217,38,165);stroke:black;stroke-width:1px;"/>
                </g>
                <g transform="matrix(1.10408,0,0,1,440.569,8.36128e-08)">
                    <path d="M250,299.577L250,250L284.719,284.719C275.626,293.447 263.457,298.996 250,299.577Z" style="fill:rgb(217,38,165);stroke:black;stroke-width:1px;"/>
                </g>
                <g transform="matrix(1.10408,0,0,1,883.266,-1.13687e-13)">
                    <path d="M250,299.577L250,250L284.719,284.719C275.626,293.447 263.457,298.996 250,299.577Z" style="fill:rgb(217,38,165);stroke:black;stroke-width:1px;"/>
                </g>
                <g transform="matrix(1.10408,0,0,1,0,0)">
                    <path d="M210.608,289.392L250,250L250,299.577C249.222,299.61 248.439,299.627 247.652,299.627C234.107,299.627 221.434,295.89 210.608,289.392Z" style="fill:rgb(217,38,165);stroke:black;stroke-width:1px;"/>
                </g>
                <g transform="matrix(1.10408,0,0,1,440.569,8.36128e-08)">
                    <path d="M210.608,289.392L250,250L250,299.577C249.222,299.61 248.439,299.627 247.652,299.627C234.107,299.627 221.434,295.89 210.608,289.392Z" style="fill:rgb(217,38,165);stroke:black;stroke-width:1px;"/>
                </g>
                <g transform="matrix(1.10408,0,0,1,883.266,-1.13687e-13)">
                    <path d="M210.608,289.392L250,250L250,299.577C249.222,299.61 248.439,299.627 247.652,299.627C234.107,299.627 221.434,295.89 210.608,289.392Z" style="fill:rgb(217,38,165);stroke:black;stroke-width:1px;"/>
                </g>
                <g transform="matrix(1.10408,0,0,1,0,0)">
                    <path d="M179.143,250L250,250L210.608,289.392C195.886,280.553 184.58,266.605 179.143,250Z" style="fill:rgb(217,38,165);stroke:black;stroke-width:1px;"/>
                </g>
                <g transform="matrix(1.10408,0,0,1,440.569,8.36128e-08)">
                    <path d="M179.143,250L250,250L210.608,289.392C195.886,280.553 184.58,266.605 179.143,250Z" style="fill:rgb(217,38,165);stroke:black;stroke-width:1px;"/>
                </g>
                <g transform="matrix(1.10408,0,0,1,883.266,-1.13687e-13)">
                    <path d="M179.143,250L250,250L210.608,289.392C195.886,280.553 184.58,266.605 179.143,250Z" style="fill:rgb(217,38,165);stroke:black;stroke-width:1px;"/>
                </g>
                <g transform="matrix(1.10408,0,0,1,440.569,8.36128e-08)">
                    <path d="M185.768,185.768L250,250L179.143,250C176.83,242.936 175.579,235.391 175.579,227.554C175.579,212.483 179.258,198.271 185.768,185.768Z" style="fill:rgb(217,38,165);stroke:black;stroke-width:1px;"/>
                </g>
                <g transform="matrix(1.10408,0,0,1,883.266,-1.13687e-13)">
                    <path d="M185.768,185.768L250,250L179.143,250C176.83,242.936 175.579,235.391 175.579,227.554C175.579,212.483 179.258,198.271 185.768,185.768Z" style="fill:rgb(217,38,165);stroke:black;stroke-width:1px;"/>
                </g>
                <g transform="matrix(1.10408,0,0,1,440.569,8.36128e-08)">
                    <path d="M250,138.384L250,250L185.768,185.768C198.486,161.339 222.009,143.433 250,138.384Z" style="fill:rgb(217,38,165);stroke:black;stroke-width:1px;"/>
                </g>
                <g transform="matrix(1.10408,0,0,1,883.266,-1.13687e-13)">
                    <path d="M250,138.384L250,250L185.768,185.768C198.486,161.339 222.009,143.433 250,138.384Z" style="fill:rgb(217,38,165);stroke:black;stroke-width:1px;"/>
                </g>
                <g transform="matrix(1.10408,0,0,1,440.569,8.36128e-08)">
                    <path d="M100,100L250,100L250,138.384C222.009,143.433 198.486,161.339 185.768,185.768L100,100Z" style="fill:none;stroke:black;stroke-width:1px;"/>
                </g>
                <g transform="matrix(1.10408,0,0,1,883.266,-1.13687e-13)">
                    <path d="M100,100L250,100L250,138.384C222.009,143.433 198.486,161.339 185.768,185.768L100,100Z" style="fill:none;stroke:black;stroke-width:1px;"/>
                </g>
                <g transform="matrix(1.10408,0,0,1,0,0)">
                    <path d="M1136.99,163.012L1084.02,215.977C1078.8,212.879 1072.7,211.1 1066.19,211.1C1058.23,211.1 1051.42,216.797 1050,224.626L1050,138.384C1055.25,137.436 1060.66,136.942 1066.19,136.942C1093.21,136.942 1117.93,146.755 1136.99,163.012Z" style="fill:rgb(38,123,217);stroke:black;stroke-width:1px;"/>
                </g>
                <g transform="matrix(1.10408,0,0,1,0,0)">
                    <path d="M1175.28,250L1101.05,250C1101.14,248.71 1101.18,247.407 1101.18,246.094C1101.18,233.28 1094.3,222.074 1084.02,215.977L1136.99,163.012C1160.46,183.033 1175.34,212.825 1175.34,246.094C1175.34,247.401 1175.32,248.703 1175.28,250Z" style="fill:rgb(38,123,217);stroke:black;stroke-width:1px;"/>
                </g>
                <g transform="matrix(1.10408,0,0,1,0,0)">
                    <path d="M1136.58,336.582L1084.72,284.719C1093.99,275.82 1100.06,263.615 1101.05,250L1175.28,250C1174.24,284.038 1159.59,314.651 1136.58,336.582Z" style="fill:rgb(38,123,217);stroke:black;stroke-width:1px;"/>
                </g>
                <g transform="matrix(1.10408,0,0,1,-9.21717,-3.61538)">
                    <g transform="matrix(30,0,0,30,175.579,462.723)">
                        <path d="M0.369,-0.476C0.406,-0.476 0.44,-0.467 0.471,-0.449C0.501,-0.43 0.525,-0.403 0.542,-0.368C0.559,-0.332 0.568,-0.29 0.568,-0.241C0.568,-0.193 0.558,-0.15 0.537,-0.11C0.516,-0.071 0.487,-0.04 0.449,-0.017C0.41,0.006 0.366,0.017 0.316,0.017C0.256,0.017 0.206,0.002 0.166,-0.028C0.127,-0.058 0.098,-0.098 0.079,-0.149C0.061,-0.2 0.051,-0.258 0.051,-0.322C0.051,-0.401 0.064,-0.472 0.088,-0.533C0.113,-0.595 0.149,-0.643 0.195,-0.677C0.242,-0.712 0.297,-0.729 0.359,-0.729C0.418,-0.729 0.47,-0.714 0.514,-0.683L0.452,-0.585C0.439,-0.594 0.425,-0.601 0.409,-0.606C0.393,-0.611 0.378,-0.613 0.363,-0.613C0.337,-0.613 0.313,-0.606 0.293,-0.59C0.272,-0.574 0.256,-0.552 0.243,-0.521C0.23,-0.491 0.222,-0.455 0.22,-0.412C0.241,-0.433 0.264,-0.449 0.29,-0.46C0.317,-0.471 0.343,-0.476 0.369,-0.476ZM0.318,-0.098C0.347,-0.098 0.369,-0.111 0.384,-0.136C0.399,-0.16 0.406,-0.192 0.406,-0.232C0.406,-0.279 0.399,-0.312 0.386,-0.333C0.373,-0.354 0.353,-0.365 0.327,-0.365C0.308,-0.365 0.289,-0.36 0.271,-0.351C0.252,-0.341 0.235,-0.328 0.22,-0.31C0.221,-0.261 0.224,-0.222 0.231,-0.191C0.237,-0.16 0.247,-0.137 0.261,-0.122C0.275,-0.106 0.294,-0.098 0.318,-0.098Z" style="fill:rgb(53,53,53);fill-rule:nonzero;"/>
                    </g>
                    <g transform="matrix(30,0,0,30,212.502,462.723)">
                        <path d="M0.087,-0.006L0.436,-0.734L0.523,-0.698L0.172,0.03L0.087,-0.006ZM0.15,-0.729C0.18,-0.729 0.206,-0.722 0.228,-0.709C0.25,-0.696 0.267,-0.677 0.278,-0.653C0.29,-0.629 0.296,-0.6 0.296,-0.568C0.296,-0.536 0.29,-0.507 0.278,-0.483C0.267,-0.459 0.25,-0.441 0.228,-0.427C0.206,-0.414 0.18,-0.408 0.15,-0.408C0.12,-0.408 0.094,-0.414 0.072,-0.427C0.049,-0.441 0.033,-0.459 0.021,-0.483C0.009,-0.507 0.004,-0.536 0.004,-0.568C0.004,-0.599 0.009,-0.627 0.021,-0.651C0.033,-0.675 0.05,-0.695 0.072,-0.708C0.094,-0.722 0.12,-0.729 0.15,-0.729ZM0.15,-0.649C0.134,-0.649 0.123,-0.643 0.118,-0.629C0.112,-0.616 0.109,-0.595 0.109,-0.568C0.109,-0.541 0.112,-0.521 0.118,-0.508C0.125,-0.494 0.135,-0.487 0.15,-0.487C0.166,-0.487 0.177,-0.494 0.183,-0.507C0.188,-0.52 0.191,-0.54 0.191,-0.568C0.191,-0.597 0.188,-0.618 0.183,-0.63C0.177,-0.643 0.166,-0.649 0.15,-0.649ZM0.465,-0.315C0.495,-0.315 0.521,-0.308 0.543,-0.295C0.565,-0.282 0.582,-0.263 0.593,-0.239C0.605,-0.215 0.611,-0.186 0.611,-0.154C0.611,-0.122 0.605,-0.094 0.593,-0.069C0.582,-0.045 0.565,-0.027 0.543,-0.014C0.521,-0 0.495,0.006 0.465,0.006C0.435,0.006 0.408,-0 0.386,-0.014C0.364,-0.027 0.348,-0.045 0.336,-0.069C0.324,-0.094 0.318,-0.122 0.318,-0.154C0.318,-0.185 0.324,-0.213 0.336,-0.237C0.348,-0.262 0.364,-0.281 0.387,-0.294C0.409,-0.308 0.435,-0.315 0.465,-0.315ZM0.465,-0.235C0.449,-0.235 0.438,-0.229 0.433,-0.215C0.427,-0.202 0.424,-0.182 0.424,-0.154C0.424,-0.128 0.427,-0.108 0.433,-0.094C0.439,-0.08 0.45,-0.073 0.465,-0.073C0.481,-0.073 0.492,-0.08 0.498,-0.093C0.503,-0.106 0.506,-0.126 0.506,-0.154C0.506,-0.183 0.503,-0.204 0.498,-0.216C0.492,-0.229 0.481,-0.235 0.465,-0.235Z" style="fill:rgb(53,53,53);fill-rule:nonzero;"/>
                    </g>
                    <g transform="matrix(30,0,0,30,249.425,462.723)">
                        <path d="M0.544,-0.541C0.544,-0.508 0.535,-0.479 0.518,-0.455C0.501,-0.431 0.472,-0.409 0.434,-0.387C0.526,-0.34 0.572,-0.276 0.572,-0.193C0.572,-0.155 0.562,-0.12 0.541,-0.088C0.521,-0.056 0.49,-0.031 0.45,-0.012C0.41,0.008 0.361,0.017 0.305,0.017C0.249,0.017 0.201,0.008 0.162,-0.011C0.123,-0.029 0.093,-0.054 0.073,-0.085C0.054,-0.117 0.044,-0.151 0.044,-0.189C0.044,-0.228 0.055,-0.263 0.078,-0.294C0.101,-0.324 0.133,-0.348 0.174,-0.366C0.149,-0.382 0.129,-0.398 0.114,-0.413C0.1,-0.428 0.089,-0.445 0.082,-0.464C0.075,-0.483 0.071,-0.506 0.071,-0.532C0.071,-0.572 0.082,-0.606 0.102,-0.636C0.123,-0.666 0.151,-0.689 0.187,-0.705C0.223,-0.721 0.264,-0.729 0.309,-0.729C0.355,-0.729 0.396,-0.721 0.431,-0.706C0.467,-0.69 0.495,-0.668 0.514,-0.64C0.534,-0.612 0.544,-0.578 0.544,-0.541ZM0.226,-0.532C0.226,-0.508 0.234,-0.487 0.25,-0.471C0.266,-0.455 0.293,-0.44 0.329,-0.426C0.351,-0.443 0.367,-0.459 0.376,-0.475C0.385,-0.492 0.39,-0.51 0.39,-0.531C0.39,-0.558 0.383,-0.579 0.369,-0.595C0.355,-0.611 0.335,-0.618 0.309,-0.618C0.282,-0.618 0.262,-0.611 0.247,-0.596C0.233,-0.582 0.226,-0.56 0.226,-0.532ZM0.41,-0.194C0.41,-0.217 0.405,-0.236 0.396,-0.251C0.387,-0.265 0.373,-0.278 0.354,-0.288C0.336,-0.299 0.309,-0.31 0.274,-0.323C0.252,-0.309 0.236,-0.291 0.224,-0.271C0.212,-0.25 0.206,-0.226 0.206,-0.198C0.206,-0.168 0.214,-0.144 0.232,-0.126C0.25,-0.108 0.275,-0.098 0.309,-0.098C0.342,-0.098 0.367,-0.107 0.384,-0.125C0.401,-0.143 0.41,-0.166 0.41,-0.194Z" style="fill:rgb(53,53,53);fill-rule:nonzero;"/>
                    </g>
                    <g transform="matrix(30,0,0,30,286.348,462.723)">
                        <path d="M0.075,-0.49L0.541,-0.49L0.541,-0.364L0.075,-0.364L0.075,-0.49ZM0.075,-0.274L0.541,-0.274L0.541,-0.149L0.075,-0.149L0.075,-0.274Z" style="fill:rgb(53,53,53);fill-rule:nonzero;"/>
                    </g>
                    <g transform="matrix(30,0,0,30,323.271,462.723)">
                        <path d="M0.369,-0.476C0.406,-0.476 0.44,-0.467 0.471,-0.449C0.501,-0.43 0.525,-0.403 0.542,-0.368C0.559,-0.332 0.568,-0.29 0.568,-0.241C0.568,-0.193 0.558,-0.15 0.537,-0.11C0.516,-0.071 0.487,-0.04 0.449,-0.017C0.41,0.006 0.366,0.017 0.316,0.017C0.256,0.017 0.206,0.002 0.166,-0.028C0.127,-0.058 0.098,-0.098 0.079,-0.149C0.061,-0.2 0.051,-0.258 0.051,-0.322C0.051,-0.401 0.064,-0.472 0.088,-0.533C0.113,-0.595 0.149,-0.643 0.195,-0.677C0.242,-0.712 0.297,-0.729 0.359,-0.729C0.418,-0.729 0.47,-0.714 0.514,-0.683L0.452,-0.585C0.439,-0.594 0.425,-0.601 0.409,-0.606C0.393,-0.611 0.378,-0.613 0.363,-0.613C0.337,-0.613 0.313,-0.606 0.293,-0.59C0.272,-0.574 0.256,-0.552 0.243,-0.521C0.23,-0.491 0.222,-0.455 0.22,-0.412C0.241,-0.433 0.264,-0.449 0.29,-0.46C0.317,-0.471 0.343,-0.476 0.369,-0.476ZM0.318,-0.098C0.347,-0.098 0.369,-0.111 0.384,-0.136C0.399,-0.16 0.406,-0.192 0.406,-0.232C0.406,-0.279 0.399,-0.312 0.386,-0.333C0.373,-0.354 0.353,-0.365 0.327,-0.365C0.308,-0.365 0.289,-0.36 0.271,-0.351C0.252,-0.341 0.235,-0.328 0.22,-0.31C0.221,-0.261 0.224,-0.222 0.231,-0.191C0.237,-0.16 0.247,-0.137 0.261,-0.122C0.275,-0.106 0.294,-0.098 0.318,-0.098Z" style="fill:rgb(53,53,53);fill-rule:nonzero;"/>
                    </g>
                </g>
                <g transform="matrix(1.10408,0,0,1,432.195,-3.61538)">
                    <g transform="matrix(30,0,0,30,175.579,462.723)">
                        <path d="M0.544,-0.541C0.544,-0.508 0.535,-0.479 0.518,-0.455C0.501,-0.431 0.472,-0.409 0.434,-0.387C0.526,-0.34 0.572,-0.276 0.572,-0.193C0.572,-0.155 0.562,-0.12 0.541,-0.088C0.521,-0.056 0.49,-0.031 0.45,-0.012C0.41,0.008 0.361,0.017 0.305,0.017C0.249,0.017 0.201,0.008 0.162,-0.011C0.123,-0.029 0.093,-0.054 0.073,-0.085C0.054,-0.117 0.044,-0.151 0.044,-0.189C0.044,-0.228 0.055,-0.263 0.078,-0.294C0.101,-0.324 0.133,-0.348 0.174,-0.366C0.149,-0.382 0.129,-0.398 0.114,-0.413C0.1,-0.428 0.089,-0.445 0.082,-0.464C0.075,-0.483 0.071,-0.506 0.071,-0.532C0.071,-0.572 0.082,-0.606 0.102,-0.636C0.123,-0.666 0.151,-0.689 0.187,-0.705C0.223,-0.721 0.264,-0.729 0.309,-0.729C0.355,-0.729 0.396,-0.721 0.431,-0.706C0.467,-0.69 0.495,-0.668 0.514,-0.64C0.534,-0.612 0.544,-0.578 0.544,-0.541ZM0.226,-0.532C0.226,-0.508 0.234,-0.487 0.25,-0.471C0.266,-0.455 0.293,-0.44 0.329,-0.426C0.351,-0.443 0.367,-0.459 0.376,-0.475C0.385,-0.492 0.39,-0.51 0.39,-0.531C0.39,-0.558 0.383,-0.579 0.369,-0.595C0.355,-0.611 0.335,-0.618 0.309,-0.618C0.282,-0.618 0.262,-0.611 0.247,-0.596C0.233,-0.582 0.226,-0.56 0.226,-0.532ZM0.41,-0.194C0.41,-0.217 0.405,-0.236 0.396,-0.251C0.387,-0.265 0.373,-0.278 0.354,-0.288C0.336,-0.299 0.309,-0.31 0.274,-0.323C0.252,-0.309 0.236,-0.291 0.224,-0.271C0.212,-0.25 0.206,-0.226 0.206,-0.198C0.206,-0.168 0.214,-0.144 0.232,-0.126C0.25,-0.108 0.275,-0.098 0.309,-0.098C0.342,-0.098 0.367,-0.107 0.384,-0.125C0.401,-0.143 0.41,-0.166 0.41,-0.194Z" style="fill:rgb(53,53,53);fill-rule:nonzero;"/>
                    </g>
                    <g transform="matrix(30,0,0,30,212.502,462.723)">
                        <path d="M0.087,-0.006L0.436,-0.734L0.523,-0.698L0.172,0.03L0.087,-0.006ZM0.15,-0.729C0.18,-0.729 0.206,-0.722 0.228,-0.709C0.25,-0.696 0.267,-0.677 0.278,-0.653C0.29,-0.629 0.296,-0.6 0.296,-0.568C0.296,-0.536 0.29,-0.507 0.278,-0.483C0.267,-0.459 0.25,-0.441 0.228,-0.427C0.206,-0.414 0.18,-0.408 0.15,-0.408C0.12,-0.408 0.094,-0.414 0.072,-0.427C0.049,-0.441 0.033,-0.459 0.021,-0.483C0.009,-0.507 0.004,-0.536 0.004,-0.568C0.004,-0.599 0.009,-0.627 0.021,-0.651C0.033,-0.675 0.05,-0.695 0.072,-0.708C0.094,-0.722 0.12,-0.729 0.15,-0.729ZM0.15,-0.649C0.134,-0.649 0.123,-0.643 0.118,-0.629C0.112,-0.616 0.109,-0.595 0.109,-0.568C0.109,-0.541 0.112,-0.521 0.118,-0.508C0.125,-0.494 0.135,-0.487 0.15,-0.487C0.166,-0.487 0.177,-0.494 0.183,-0.507C0.188,-0.52 0.191,-0.54 0.191,-0.568C0.191,-0.597 0.188,-0.618 0.183,-0.63C0.177,-0.643 0.166,-0.649 0.15,-0.649ZM0.465,-0.315C0.495,-0.315 0.521,-0.308 0.543,-0.295C0.565,-0.282 0.582,-0.263 0.593,-0.239C0.605,-0.215 0.611,-0.186 0.611,-0.154C0.611,-0.122 0.605,-0.094 0.593,-0.069C0.582,-0.045 0.565,-0.027 0.543,-0.014C0.521,-0 0.495,0.006 0.465,0.006C0.435,0.006 0.408,-0 0.386,-0.014C0.364,-0.027 0.348,-0.045 0.336,-0.069C0.324,-0.094 0.318,-0.122 0.318,-0.154C0.318,-0.185 0.324,-0.213 0.336,-0.237C0.348,-0.262 0.364,-0.281 0.387,-0.294C0.409,-0.308 0.435,-0.315 0.465,-0.315ZM0.465,-0.235C0.449,-0.235 0.438,-0.229 0.433,-0.215C0.427,-0.202 0.424,-0.182 0.424,-0.154C0.424,-0.128 0.427,-0.108 0.433,-0.094C0.439,-0.08 0.45,-0.073 0.465,-0.073C0.481,-0.073 0.492,-0.08 0.498,-0.093C0.503,-0.106 0.506,-0.126 0.506,-0.154C0.506,-0.183 0.503,-0.204 0.498,-0.216C0.492,-0.229 0.481,-0.235 0.465,-0.235Z" style="fill:rgb(53,53,53);fill-rule:nonzero;"/>
                    </g>
                    <g transform="matrix(30,0,0,30,249.425,462.723)">
                        <path d="M0.544,-0.541C0.544,-0.508 0.535,-0.479 0.518,-0.455C0.501,-0.431 0.472,-0.409 0.434,-0.387C0.526,-0.34 0.572,-0.276 0.572,-0.193C0.572,-0.155 0.562,-0.12 0.541,-0.088C0.521,-0.056 0.49,-0.031 0.45,-0.012C0.41,0.008 0.361,0.017 0.305,0.017C0.249,0.017 0.201,0.008 0.162,-0.011C0.123,-0.029 0.093,-0.054 0.073,-0.085C0.054,-0.117 0.044,-0.151 0.044,-0.189C0.044,-0.228 0.055,-0.263 0.078,-0.294C0.101,-0.324 0.133,-0.348 0.174,-0.366C0.149,-0.382 0.129,-0.398 0.114,-0.413C0.1,-0.428 0.089,-0.445 0.082,-0.464C0.075,-0.483 0.071,-0.506 0.071,-0.532C0.071,-0.572 0.082,-0.606 0.102,-0.636C0.123,-0.666 0.151,-0.689 0.187,-0.705C0.223,-0.721 0.264,-0.729 0.309,-0.729C0.355,-0.729 0.396,-0.721 0.431,-0.706C0.467,-0.69 0.495,-0.668 0.514,-0.64C0.534,-0.612 0.544,-0.578 0.544,-0.541ZM0.226,-0.532C0.226,-0.508 0.234,-0.487 0.25,-0.471C0.266,-0.455 0.293,-0.44 0.329,-0.426C0.351,-0.443 0.367,-0.459 0.376,-0.475C0.385,-0.492 0.39,-0.51 0.39,-0.531C0.39,-0.558 0.383,-0.579 0.369,-0.595C0.355,-0.611 0.335,-0.618 0.309,-0.618C0.282,-0.618 0.262,-0.611 0.247,-0.596C0.233,-0.582 0.226,-0.56 0.226,-0.532ZM0.41,-0.194C0.41,-0.217 0.405,-0.236 0.396,-0.251C0.387,-0.265 0.373,-0.278 0.354,-0.288C0.336,-0.299 0.309,-0.31 0.274,-0.323C0.252,-0.309 0.236,-0.291 0.224,-0.271C0.212,-0.25 0.206,-0.226 0.206,-0.198C0.206,-0.168 0.214,-0.144 0.232,-0.126C0.25,-0.108 0.275,-0.098 0.309,-0.098C0.342,-0.098 0.367,-0.107 0.384,-0.125C0.401,-0.143 0.41,-0.166 0.41,-0.194Z" style="fill:rgb(53,53,53);fill-rule:nonzero;"/>
                    </g>
                    <g transform="matrix(30,0,0,30,286.348,462.723)">
                        <path d="M0.075,-0.49L0.541,-0.49L0.541,-0.364L0.075,-0.364L0.075,-0.49ZM0.075,-0.274L0.541,-0.274L0.541,-0.149L0.075,-0.149L0.075,-0.274Z" style="fill:rgb(53,53,53);fill-rule:nonzero;"/>
                    </g>
                    <g transform="matrix(30,0,0,30,323.271,462.723)">
                        <path d="M0.308,-0.729C0.364,-0.729 0.411,-0.714 0.449,-0.685C0.488,-0.656 0.516,-0.613 0.536,-0.558C0.555,-0.502 0.565,-0.435 0.565,-0.357C0.565,-0.278 0.555,-0.211 0.536,-0.155C0.516,-0.099 0.488,-0.056 0.449,-0.027C0.411,0.003 0.364,0.017 0.308,0.017C0.252,0.017 0.204,0.003 0.166,-0.027C0.127,-0.056 0.099,-0.099 0.079,-0.155C0.06,-0.211 0.051,-0.278 0.051,-0.357C0.051,-0.435 0.06,-0.502 0.079,-0.558C0.099,-0.613 0.127,-0.656 0.166,-0.685C0.204,-0.714 0.251,-0.729 0.308,-0.729ZM0.308,-0.611C0.283,-0.611 0.263,-0.603 0.248,-0.586C0.233,-0.569 0.221,-0.542 0.214,-0.505C0.207,-0.467 0.203,-0.418 0.203,-0.357C0.203,-0.298 0.205,-0.25 0.209,-0.214L0.383,-0.577C0.375,-0.59 0.365,-0.598 0.353,-0.604C0.341,-0.609 0.326,-0.611 0.308,-0.611ZM0.308,-0.099C0.332,-0.099 0.352,-0.108 0.367,-0.124C0.382,-0.141 0.393,-0.168 0.401,-0.206C0.408,-0.243 0.411,-0.294 0.411,-0.357C0.411,-0.392 0.41,-0.425 0.409,-0.456L0.245,-0.118C0.253,-0.112 0.261,-0.107 0.272,-0.104C0.282,-0.101 0.294,-0.099 0.308,-0.099Z" style="fill:rgb(53,53,53);fill-rule:nonzero;"/>
                    </g>
                </g>
                <g transform="matrix(1.10408,0,0,1,864.095,-3.61538)">
                    <g transform="matrix(30,0,0,30,175.579,462.723)">
                        <path d="M0.432,-0.711L0.432,-0.123L0.565,-0.123L0.565,-0L0.103,-0L0.103,-0.123L0.274,-0.123L0.274,-0.551L0.128,-0.46L0.059,-0.571L0.289,-0.711L0.432,-0.711Z" style="fill:rgb(53,53,53);fill-rule:nonzero;"/>
                    </g>
                    <g transform="matrix(30,0,0,30,194.041,462.723)">
                        <path d="M0.432,-0.711L0.432,-0.123L0.565,-0.123L0.565,-0L0.103,-0L0.103,-0.123L0.274,-0.123L0.274,-0.551L0.128,-0.46L0.059,-0.571L0.289,-0.711L0.432,-0.711Z" style="fill:rgb(53,53,53);fill-rule:nonzero;"/>
                    </g>
                    <g transform="matrix(30,0,0,30,230.964,462.723)">
                        <path d="M0.087,-0.006L0.436,-0.734L0.523,-0.698L0.172,0.03L0.087,-0.006ZM0.15,-0.729C0.18,-0.729 0.206,-0.722 0.228,-0.709C0.25,-0.696 0.267,-0.677 0.278,-0.653C0.29,-0.629 0.296,-0.6 0.296,-0.568C0.296,-0.536 0.29,-0.507 0.278,-0.483C0.267,-0.459 0.25,-0.441 0.228,-0.427C0.206,-0.414 0.18,-0.408 0.15,-0.408C0.12,-0.408 0.094,-0.414 0.072,-0.427C0.049,-0.441 0.033,-0.459 0.021,-0.483C0.009,-0.507 0.004,-0.536 0.004,-0.568C0.004,-0.599 0.009,-0.627 0.021,-0.651C0.033,-0.675 0.05,-0.695 0.072,-0.708C0.094,-0.722 0.12,-0.729 0.15,-0.729ZM0.15,-0.649C0.134,-0.649 0.123,-0.643 0.118,-0.629C0.112,-0.616 0.109,-0.595 0.109,-0.568C0.109,-0.541 0.112,-0.521 0.118,-0.508C0.125,-0.494 0.135,-0.487 0.15,-0.487C0.166,-0.487 0.177,-0.494 0.183,-0.507C0.188,-0.52 0.191,-0.54 0.191,-0.568C0.191,-0.597 0.188,-0.618 0.183,-0.63C0.177,-0.643 0.166,-0.649 0.15,-0.649ZM0.465,-0.315C0.495,-0.315 0.521,-0.308 0.543,-0.295C0.565,-0.282 0.582,-0.263 0.593,-0.239C0.605,-0.215 0.611,-0.186 0.611,-0.154C0.611,-0.122 0.605,-0.094 0.593,-0.069C0.582,-0.045 0.565,-0.027 0.543,-0.014C0.521,-0 0.495,0.006 0.465,0.006C0.435,0.006 0.408,-0 0.386,-0.014C0.364,-0.027 0.348,-0.045 0.336,-0.069C0.324,-0.094 0.318,-0.122 0.318,-0.154C0.318,-0.185 0.324,-0.213 0.336,-0.237C0.348,-0.262 0.364,-0.281 0.387,-0.294C0.409,-0.308 0.435,-0.315 0.465,-0.315ZM0.465,-0.235C0.449,-0.235 0.438,-0.229 0.433,-0.215C0.427,-0.202 0.424,-0.182 0.424,-0.154C0.424,-0.128 0.427,-0.108 0.433,-0.094C0.439,-0.08 0.45,-0.073 0.465,-0.073C0.481,-0.073 0.492,-0.08 0.498,-0.093C0.503,-0.106 0.506,-0.126 0.506,-0.154C0.506,-0.183 0.503,-0.204 0.498,-0.216C0.492,-0.229 0.481,-0.235 0.465,-0.235Z" style="fill:rgb(53,53,53);fill-rule:nonzero;"/>
                    </g>
                    <g transform="matrix(30,0,0,30,267.887,462.723)">
                        <path d="M0.544,-0.541C0.544,-0.508 0.535,-0.479 0.518,-0.455C0.501,-0.431 0.472,-0.409 0.434,-0.387C0.526,-0.34 0.572,-0.276 0.572,-0.193C0.572,-0.155 0.562,-0.12 0.541,-0.088C0.521,-0.056 0.49,-0.031 0.45,-0.012C0.41,0.008 0.361,0.017 0.305,0.017C0.249,0.017 0.201,0.008 0.162,-0.011C0.123,-0.029 0.093,-0.054 0.073,-0.085C0.054,-0.117 0.044,-0.151 0.044,-0.189C0.044,-0.228 0.055,-0.263 0.078,-0.294C0.101,-0.324 0.133,-0.348 0.174,-0.366C0.149,-0.382 0.129,-0.398 0.114,-0.413C0.1,-0.428 0.089,-0.445 0.082,-0.464C0.075,-0.483 0.071,-0.506 0.071,-0.532C0.071,-0.572 0.082,-0.606 0.102,-0.636C0.123,-0.666 0.151,-0.689 0.187,-0.705C0.223,-0.721 0.264,-0.729 0.309,-0.729C0.355,-0.729 0.396,-0.721 0.431,-0.706C0.467,-0.69 0.495,-0.668 0.514,-0.64C0.534,-0.612 0.544,-0.578 0.544,-0.541ZM0.226,-0.532C0.226,-0.508 0.234,-0.487 0.25,-0.471C0.266,-0.455 0.293,-0.44 0.329,-0.426C0.351,-0.443 0.367,-0.459 0.376,-0.475C0.385,-0.492 0.39,-0.51 0.39,-0.531C0.39,-0.558 0.383,-0.579 0.369,-0.595C0.355,-0.611 0.335,-0.618 0.309,-0.618C0.282,-0.618 0.262,-0.611 0.247,-0.596C0.233,-0.582 0.226,-0.56 0.226,-0.532ZM0.41,-0.194C0.41,-0.217 0.405,-0.236 0.396,-0.251C0.387,-0.265 0.373,-0.278 0.354,-0.288C0.336,-0.299 0.309,-0.31 0.274,-0.323C0.252,-0.309 0.236,-0.291 0.224,-0.271C0.212,-0.25 0.206,-0.226 0.206,-0.198C0.206,-0.168 0.214,-0.144 0.232,-0.126C0.25,-0.108 0.275,-0.098 0.309,-0.098C0.342,-0.098 0.367,-0.107 0.384,-0.125C0.401,-0.143 0.41,-0.166 0.41,-0.194Z" style="fill:rgb(53,53,53);fill-rule:nonzero;"/>
                    </g>
                    <g transform="matrix(30,0,0,30,304.81,462.723)">
                        <path d="M0.075,-0.49L0.541,-0.49L0.541,-0.364L0.075,-0.364L0.075,-0.49ZM0.075,-0.274L0.541,-0.274L0.541,-0.149L0.075,-0.149L0.075,-0.274Z" style="fill:rgb(53,53,53);fill-rule:nonzero;"/>
                    </g>
                    <g transform="matrix(30,0,0,30,341.733,462.723)">
                        <path d="M0.279,-0.729C0.329,-0.729 0.372,-0.721 0.408,-0.704C0.445,-0.688 0.473,-0.666 0.492,-0.638C0.511,-0.611 0.521,-0.58 0.521,-0.547C0.521,-0.503 0.508,-0.467 0.483,-0.438C0.457,-0.41 0.422,-0.389 0.376,-0.376C0.488,-0.361 0.544,-0.302 0.544,-0.2C0.544,-0.16 0.532,-0.123 0.51,-0.09C0.488,-0.057 0.456,-0.031 0.414,-0.012C0.373,0.008 0.324,0.017 0.269,0.017C0.216,0.017 0.169,0.008 0.127,-0.01C0.085,-0.028 0.049,-0.055 0.018,-0.089L0.11,-0.174C0.149,-0.129 0.198,-0.107 0.258,-0.107C0.294,-0.107 0.323,-0.116 0.345,-0.134C0.366,-0.152 0.377,-0.178 0.377,-0.211C0.377,-0.248 0.367,-0.275 0.347,-0.292C0.326,-0.309 0.296,-0.317 0.257,-0.317L0.192,-0.317L0.211,-0.429L0.257,-0.429C0.289,-0.429 0.315,-0.437 0.335,-0.453C0.354,-0.469 0.364,-0.492 0.364,-0.522C0.364,-0.548 0.355,-0.569 0.336,-0.585C0.317,-0.6 0.292,-0.608 0.261,-0.608C0.234,-0.608 0.209,-0.603 0.186,-0.593C0.163,-0.582 0.141,-0.567 0.119,-0.547L0.036,-0.633C0.102,-0.697 0.183,-0.729 0.279,-0.729Z" style="fill:rgb(53,53,53);fill-rule:nonzero;"/>
                    </g>
                </g>
                <g transform="matrix(1,0,0,1,-198.735,30)">
                    <g transform="matrix(1.10408,0,0,1,0,0)">
                        <circle cx="430" cy="70" r="15" style="fill:rgb(50,247,211);stroke:black;stroke-width:1px;"/>
                    </g>
                    <g transform="matrix(0.690052,0,0,0.625,65.8557,-327.423)">
                        <g transform="matrix(40,0,0,40,580,650)">
                            <path d="M0.308,-0.717C0.383,-0.717 0.441,-0.686 0.48,-0.624C0.519,-0.561 0.539,-0.471 0.539,-0.353C0.539,-0.235 0.519,-0.145 0.48,-0.082C0.441,-0.02 0.383,0.012 0.308,0.012C0.232,0.012 0.175,-0.02 0.135,-0.082C0.096,-0.145 0.076,-0.235 0.076,-0.353C0.076,-0.471 0.096,-0.561 0.135,-0.624C0.175,-0.686 0.232,-0.717 0.308,-0.717ZM0.308,-0.648C0.214,-0.648 0.168,-0.55 0.168,-0.353C0.168,-0.275 0.174,-0.213 0.186,-0.169L0.402,-0.603C0.38,-0.633 0.349,-0.648 0.308,-0.648ZM0.308,-0.058C0.401,-0.058 0.448,-0.156 0.448,-0.353C0.448,-0.433 0.442,-0.495 0.43,-0.539L0.215,-0.103C0.226,-0.088 0.239,-0.076 0.255,-0.069C0.27,-0.062 0.288,-0.058 0.308,-0.058Z" style="fill-rule:nonzero;"/>
                        </g>
                    </g>
                </g>
                <g transform="matrix(1,0,0,1,241.384,30)">
                    <g transform="matrix(1.10408,0,0,1,0,0)">
                        <circle cx="430" cy="70" r="15" style="fill:rgb(229,242,13);stroke:black;stroke-width:1px;"/>
                    </g>
                    <g transform="matrix(0.690052,0,0,0.625,65.8557,-327.423)">
                        <g transform="matrix(40,0,0,40,580,650)">
                            <path d="M0.308,-0.717C0.383,-0.717 0.441,-0.686 0.48,-0.624C0.519,-0.561 0.539,-0.471 0.539,-0.353C0.539,-0.235 0.519,-0.145 0.48,-0.082C0.441,-0.02 0.383,0.012 0.308,0.012C0.232,0.012 0.175,-0.02 0.135,-0.082C0.096,-0.145 0.076,-0.235 0.076,-0.353C0.076,-0.471 0.096,-0.561 0.135,-0.624C0.175,-0.686 0.232,-0.717 0.308,-0.717ZM0.308,-0.648C0.214,-0.648 0.168,-0.55 0.168,-0.353C0.168,-0.275 0.174,-0.213 0.186,-0.169L0.402,-0.603C0.38,-0.633 0.349,-0.648 0.308,-0.648ZM0.308,-0.058C0.401,-0.058 0.448,-0.156 0.448,-0.353C0.448,-0.433 0.442,-0.495 0.43,-0.539L0.215,-0.103C0.226,-0.088 0.239,-0.076 0.255,-0.069C0.27,-0.062 0.288,-0.058 0.308,-0.058Z" style="fill-rule:nonzero;"/>
                        </g>
                    </g>
                </g>
                <g transform="matrix(1,0,0,1,684.539,30)">
                    <g transform="matrix(1.10408,0,0,1,0,0)">
                        <circle cx="430" cy="70" r="15" style="fill:rgb(50,247,211);stroke:black;stroke-width:1px;"/>
                    </g>
                    <g transform="matrix(0.690052,0,0,0.625,65.8557,-327.423)">
                        <g transform="matrix(40,0,0,40,580,650)">
                            <path d="M0.308,-0.717C0.383,-0.717 0.441,-0.686 0.48,-0.624C0.519,-0.561 0.539,-0.471 0.539,-0.353C0.539,-0.235 0.519,-0.145 0.48,-0.082C0.441,-0.02 0.383,0.012 0.308,0.012C0.232,0.012 0.175,-0.02 0.135,-0.082C0.096,-0.145 0.076,-0.235 0.076,-0.353C0.076,-0.471 0.096,-0.561 0.135,-0.624C0.175,-0.686 0.232,-0.717 0.308,-0.717ZM0.308,-0.648C0.214,-0.648 0.168,-0.55 0.168,-0.353C0.168,-0.275 0.174,-0.213 0.186,-0.169L0.402,-0.603C0.38,-0.633 0.349,-0.648 0.308,-0.648ZM0.308,-0.058C0.401,-0.058 0.448,-0.156 0.448,-0.353C0.448,-0.433 0.442,-0.495 0.43,-0.539L0.215,-0.103C0.226,-0.088 0.239,-0.076 0.255,-0.069C0.27,-0.062 0.288,-0.058 0.308,-0.058Z" style="fill-rule:nonzero;"/>
                        </g>
                    </g>
                </g>
                <g transform="matrix(1,0,0,1,-77.2858,70)">
                    <g transform="matrix(1.10408,0,0,1,0,0)">
                        <circle cx="430" cy="70" r="15" style="fill:rgb(50,247,211);stroke:black;stroke-width:1px;"/>
                    </g>
                    <g transform="matrix(0.690052,0,0,0.625,65.8557,-327.423)">
                        <g transform="matrix(40,0,0,40,580,650)">
                            <path d="M0.383,-0.706L0.383,-0.07L0.531,-0.07L0.531,-0L0.123,-0L0.123,-0.07L0.297,-0.07L0.297,-0.613L0.135,-0.514L0.097,-0.576L0.308,-0.706L0.383,-0.706Z" style="fill-rule:nonzero;"/>
                        </g>
                    </g>
                </g>
                <g transform="matrix(1,0,0,1,362.833,70)">
                    <g transform="matrix(1.10408,0,0,1,0,0)">
                        <circle cx="430" cy="70" r="15" style="fill:rgb(50,247,211);stroke:black;stroke-width:1px;"/>
                    </g>
                    <g transform="matrix(0.690052,0,0,0.625,65.8557,-327.423)">
                        <g transform="matrix(40,0,0,40,580,650)">
                            <path d="M0.383,-0.706L0.383,-0.07L0.531,-0.07L0.531,-0L0.123,-0L0.123,-0.07L0.297,-0.07L0.297,-0.613L0.135,-0.514L0.097,-0.576L0.308,-0.706L0.383,-0.706Z" style="fill-rule:nonzero;"/>
                        </g>
                    </g>
                </g>
                <g transform="matrix(1,0,0,1,805.988,70)">
                    <g transform="matrix(1.10408,0,0,1,0,0)">
                        <circle cx="430" cy="70" r="15" style="fill:rgb(50,247,211);stroke:black;stroke-width:1px;"/>
                    </g>
                    <g transform="matrix(0.690052,0,0,0.625,65.8557,-327.423)">
                        <g transform="matrix(40,0,0,40,580,650)">
                            <path d="M0.383,-0.706L0.383,-0.07L0.531,-0.07L0.531,-0L0.123,-0L0.123,-0.07L0.297,-0.07L0.297,-0.613L0.135,-0.514L0.097,-0.576L0.308,-0.706L0.383,-0.706Z" style="fill-rule:nonzero;"/>
                        </g>
                    </g>
                </g>
                <g transform="matrix(1,0,0,1,-33.1372,180)">
                    <g transform="matrix(1.10408,0,0,1,0,0)">
                        <circle cx="430" cy="70" r="15" style="fill:rgb(50,247,211);stroke:black;stroke-width:1px;"/>
                    </g>
                    <g transform="matrix(0.690052,0,0,0.625,65.8557,-327.423)">
                        <g transform="matrix(40,0,0,40,580,650)">
                            <path d="M0.276,-0.717C0.32,-0.717 0.358,-0.709 0.39,-0.692C0.422,-0.675 0.446,-0.651 0.464,-0.622C0.481,-0.592 0.489,-0.558 0.489,-0.521C0.489,-0.477 0.479,-0.435 0.459,-0.394C0.439,-0.353 0.406,-0.308 0.362,-0.258C0.317,-0.209 0.254,-0.148 0.173,-0.073L0.506,-0.073L0.495,-0L0.075,-0L0.075,-0.07C0.168,-0.159 0.236,-0.228 0.281,-0.278C0.325,-0.328 0.356,-0.37 0.373,-0.405C0.39,-0.441 0.398,-0.478 0.398,-0.517C0.398,-0.557 0.387,-0.589 0.365,-0.612C0.342,-0.634 0.312,-0.646 0.272,-0.646C0.238,-0.646 0.21,-0.64 0.188,-0.628C0.166,-0.617 0.143,-0.598 0.12,-0.57L0.061,-0.616C0.089,-0.651 0.12,-0.676 0.155,-0.693C0.189,-0.709 0.23,-0.717 0.276,-0.717Z" style="fill-rule:nonzero;"/>
                        </g>
                    </g>
                </g>
                <g transform="matrix(1,0,0,1,406.982,180)">
                    <g transform="matrix(1.10408,0,0,1,0,0)">
                        <circle cx="430" cy="70" r="15" style="fill:rgb(50,247,211);stroke:black;stroke-width:1px;"/>
                    </g>
                    <g transform="matrix(0.690052,0,0,0.625,65.8557,-327.423)">
                        <g transform="matrix(40,0,0,40,580,650)">
                            <path d="M0.276,-0.717C0.32,-0.717 0.358,-0.709 0.39,-0.692C0.422,-0.675 0.446,-0.651 0.464,-0.622C0.481,-0.592 0.489,-0.558 0.489,-0.521C0.489,-0.477 0.479,-0.435 0.459,-0.394C0.439,-0.353 0.406,-0.308 0.362,-0.258C0.317,-0.209 0.254,-0.148 0.173,-0.073L0.506,-0.073L0.495,-0L0.075,-0L0.075,-0.07C0.168,-0.159 0.236,-0.228 0.281,-0.278C0.325,-0.328 0.356,-0.37 0.373,-0.405C0.39,-0.441 0.398,-0.478 0.398,-0.517C0.398,-0.557 0.387,-0.589 0.365,-0.612C0.342,-0.634 0.312,-0.646 0.272,-0.646C0.238,-0.646 0.21,-0.64 0.188,-0.628C0.166,-0.617 0.143,-0.598 0.12,-0.57L0.061,-0.616C0.089,-0.651 0.12,-0.676 0.155,-0.693C0.189,-0.709 0.23,-0.717 0.276,-0.717Z" style="fill-rule:nonzero;"/>
                        </g>
                    </g>
                </g>
                <g transform="matrix(1,0,0,1,850.136,180)">
                    <g transform="matrix(1.10408,0,0,1,0,0)">
                        <circle cx="430" cy="70" r="15" style="fill:rgb(50,247,211);stroke:black;stroke-width:1px;"/>
                    </g>
                    <g transform="matrix(0.690052,0,0,0.625,65.8557,-327.423)">
                        <g transform="matrix(40,0,0,40,580,650)">
                            <path d="M0.276,-0.717C0.32,-0.717 0.358,-0.709 0.39,-0.692C0.422,-0.675 0.446,-0.651 0.464,-0.622C0.481,-0.592 0.489,-0.558 0.489,-0.521C0.489,-0.477 0.479,-0.435 0.459,-0.394C0.439,-0.353 0.406,-0.308 0.362,-0.258C0.317,-0.209 0.254,-0.148 0.173,-0.073L0.506,-0.073L0.495,-0L0.075,-0L0.075,-0.07C0.168,-0.159 0.236,-0.228 0.281,-0.278C0.325,-0.328 0.356,-0.37 0.373,-0.405C0.39,-0.441 0.398,-0.478 0.398,-0.517C0.398,-0.557 0.387,-0.589 0.365,-0.612C0.342,-0.634 0.312,-0.646 0.272,-0.646C0.238,-0.646 0.21,-0.64 0.188,-0.628C0.166,-0.617 0.143,-0.598 0.12,-0.57L0.061,-0.616C0.089,-0.651 0.12,-0.676 0.155,-0.693C0.189,-0.709 0.23,-0.717 0.276,-0.717Z" style="fill-rule:nonzero;"/>
                        </g>
                    </g>
                </g>
                <g transform="matrix(1,0,0,1,-77.2858,290)">
                    <g transform="matrix(1.10408,0,0,1,0,0)">
                        <circle cx="430" cy="70" r="15" style="fill:rgb(50,247,211);stroke:black;stroke-width:1px;"/>
                    </g>
                    <g transform="matrix(0.690052,0,0,0.625,65.8557,-327.423)">
                        <g transform="matrix(40,0,0,40,580,650)">
                            <path d="M0.275,-0.717C0.318,-0.717 0.356,-0.709 0.389,-0.694C0.422,-0.678 0.448,-0.656 0.466,-0.629C0.483,-0.603 0.492,-0.573 0.492,-0.541C0.492,-0.513 0.486,-0.488 0.474,-0.464C0.461,-0.441 0.444,-0.422 0.423,-0.406C0.402,-0.391 0.379,-0.381 0.354,-0.376C0.383,-0.374 0.41,-0.366 0.434,-0.352C0.458,-0.338 0.478,-0.319 0.493,-0.293C0.507,-0.268 0.515,-0.238 0.515,-0.204C0.515,-0.163 0.505,-0.126 0.484,-0.094C0.463,-0.061 0.434,-0.035 0.397,-0.016C0.36,0.002 0.318,0.012 0.27,0.012C0.228,0.012 0.188,0.004 0.149,-0.012C0.111,-0.028 0.078,-0.051 0.053,-0.083L0.111,-0.13C0.13,-0.107 0.154,-0.089 0.182,-0.077C0.209,-0.065 0.238,-0.059 0.268,-0.059C0.3,-0.059 0.328,-0.065 0.352,-0.077C0.375,-0.089 0.393,-0.105 0.406,-0.127C0.418,-0.149 0.425,-0.174 0.425,-0.204C0.425,-0.293 0.376,-0.337 0.278,-0.337L0.219,-0.337L0.23,-0.406L0.271,-0.406C0.295,-0.406 0.317,-0.41 0.337,-0.419C0.358,-0.428 0.374,-0.442 0.387,-0.461C0.399,-0.479 0.406,-0.502 0.406,-0.529C0.406,-0.554 0.4,-0.576 0.388,-0.594C0.376,-0.612 0.36,-0.625 0.34,-0.635C0.32,-0.644 0.297,-0.649 0.272,-0.649C0.243,-0.649 0.216,-0.644 0.193,-0.633C0.17,-0.623 0.147,-0.606 0.123,-0.584L0.075,-0.636C0.132,-0.69 0.199,-0.717 0.275,-0.717Z" style="fill-rule:nonzero;"/>
                        </g>
                    </g>
                </g>
                <g transform="matrix(1,0,0,1,362.833,290)">
                    <g transform="matrix(1.10408,0,0,1,0,0)">
                        <circle cx="430" cy="70" r="15" style="fill:rgb(50,247,211);stroke:black;stroke-width:1px;"/>
                    </g>
                    <g transform="matrix(0.690052,0,0,0.625,65.8557,-327.423)">
                        <g transform="matrix(40,0,0,40,580,650)">
                            <path d="M0.275,-0.717C0.318,-0.717 0.356,-0.709 0.389,-0.694C0.422,-0.678 0.448,-0.656 0.466,-0.629C0.483,-0.603 0.492,-0.573 0.492,-0.541C0.492,-0.513 0.486,-0.488 0.474,-0.464C0.461,-0.441 0.444,-0.422 0.423,-0.406C0.402,-0.391 0.379,-0.381 0.354,-0.376C0.383,-0.374 0.41,-0.366 0.434,-0.352C0.458,-0.338 0.478,-0.319 0.493,-0.293C0.507,-0.268 0.515,-0.238 0.515,-0.204C0.515,-0.163 0.505,-0.126 0.484,-0.094C0.463,-0.061 0.434,-0.035 0.397,-0.016C0.36,0.002 0.318,0.012 0.27,0.012C0.228,0.012 0.188,0.004 0.149,-0.012C0.111,-0.028 0.078,-0.051 0.053,-0.083L0.111,-0.13C0.13,-0.107 0.154,-0.089 0.182,-0.077C0.209,-0.065 0.238,-0.059 0.268,-0.059C0.3,-0.059 0.328,-0.065 0.352,-0.077C0.375,-0.089 0.393,-0.105 0.406,-0.127C0.418,-0.149 0.425,-0.174 0.425,-0.204C0.425,-0.293 0.376,-0.337 0.278,-0.337L0.219,-0.337L0.23,-0.406L0.271,-0.406C0.295,-0.406 0.317,-0.41 0.337,-0.419C0.358,-0.428 0.374,-0.442 0.387,-0.461C0.399,-0.479 0.406,-0.502 0.406,-0.529C0.406,-0.554 0.4,-0.576 0.388,-0.594C0.376,-0.612 0.36,-0.625 0.34,-0.635C0.32,-0.644 0.297,-0.649 0.272,-0.649C0.243,-0.649 0.216,-0.644 0.193,-0.633C0.17,-0.623 0.147,-0.606 0.123,-0.584L0.075,-0.636C0.132,-0.69 0.199,-0.717 0.275,-0.717Z" style="fill-rule:nonzero;"/>
                        </g>
                    </g>
                </g>
                <g transform="matrix(1,0,0,1,805.988,290)">
                    <g transform="matrix(1.10408,0,0,1,0,0)">
                        <circle cx="430" cy="70" r="15" style="fill:rgb(229,242,13);stroke:black;stroke-width:1px;"/>
                    </g>
                    <g transform="matrix(0.690052,0,0,0.625,65.8557,-327.423)">
                        <g transform="matrix(40,0,0,40,580,650)">
                            <path d="M0.275,-0.717C0.318,-0.717 0.356,-0.709 0.389,-0.694C0.422,-0.678 0.448,-0.656 0.466,-0.629C0.483,-0.603 0.492,-0.573 0.492,-0.541C0.492,-0.513 0.486,-0.488 0.474,-0.464C0.461,-0.441 0.444,-0.422 0.423,-0.406C0.402,-0.391 0.379,-0.381 0.354,-0.376C0.383,-0.374 0.41,-0.366 0.434,-0.352C0.458,-0.338 0.478,-0.319 0.493,-0.293C0.507,-0.268 0.515,-0.238 0.515,-0.204C0.515,-0.163 0.505,-0.126 0.484,-0.094C0.463,-0.061 0.434,-0.035 0.397,-0.016C0.36,0.002 0.318,0.012 0.27,0.012C0.228,0.012 0.188,0.004 0.149,-0.012C0.111,-0.028 0.078,-0.051 0.053,-0.083L0.111,-0.13C0.13,-0.107 0.154,-0.089 0.182,-0.077C0.209,-0.065 0.238,-0.059 0.268,-0.059C0.3,-0.059 0.328,-0.065 0.352,-0.077C0.375,-0.089 0.393,-0.105 0.406,-0.127C0.418,-0.149 0.425,-0.174 0.425,-0.204C0.425,-0.293 0.376,-0.337 0.278,-0.337L0.219,-0.337L0.23,-0.406L0.271,-0.406C0.295,-0.406 0.317,-0.41 0.337,-0.419C0.358,-0.428 0.374,-0.442 0.387,-0.461C0.399,-0.479 0.406,-0.502 0.406,-0.529C0.406,-0.554 0.4,-0.576 0.388,-0.594C0.376,-0.612 0.36,-0.625 0.34,-0.635C0.32,-0.644 0.297,-0.649 0.272,-0.649C0.243,-0.649 0.216,-0.644 0.193,-0.633C0.17,-0.623 0.147,-0.606 0.123,-0.584L0.075,-0.636C0.132,-0.69 0.199,-0.717 0.275,-0.717Z" style="fill-rule:nonzero;"/>
                        </g>
                    </g>
                </g>
                <g transform="matrix(1,0,0,1,-198.735,330)">
                    <g transform="matrix(1.10408,0,0,1,0,0)">
                        <circle cx="430" cy="70" r="15" style="fill:rgb(50,247,211);stroke:black;stroke-width:1px;"/>
                    </g>
                    <g transform="matrix(0.690052,0,0,0.625,65.8557,-327.423)">
                        <g transform="matrix(40,0,0,40,580,650)">
                            <path d="M0.451,-0.241L0.542,-0.241L0.542,-0.172L0.451,-0.172L0.451,-0L0.368,-0L0.367,-0.172L0.074,-0.172L0.074,-0.234L0.281,-0.717L0.353,-0.687L0.165,-0.241L0.368,-0.241L0.379,-0.441L0.451,-0.441L0.451,-0.241Z" style="fill-rule:nonzero;"/>
                        </g>
                    </g>
                </g>
                <g transform="matrix(1,0,0,1,241.384,330)">
                    <g transform="matrix(1.10408,0,0,1,0,0)">
                        <circle cx="430" cy="70" r="15" style="fill:rgb(50,247,211);stroke:black;stroke-width:1px;"/>
                    </g>
                    <g transform="matrix(0.690052,0,0,0.625,65.8557,-327.423)">
                        <g transform="matrix(40,0,0,40,580,650)">
                            <path d="M0.451,-0.241L0.542,-0.241L0.542,-0.172L0.451,-0.172L0.451,-0L0.368,-0L0.367,-0.172L0.074,-0.172L0.074,-0.234L0.281,-0.717L0.353,-0.687L0.165,-0.241L0.368,-0.241L0.379,-0.441L0.451,-0.441L0.451,-0.241Z" style="fill-rule:nonzero;"/>
                        </g>
                    </g>
                </g>
                <g transform="matrix(1,0,0,1,684.539,330)">
                    <g transform="matrix(1.10408,0,0,1,0,0)">
                        <circle cx="430" cy="70" r="15" style="fill:rgb(50,247,211);stroke:black;stroke-width:1px;"/>
                    </g>
                    <g transform="matrix(0.690052,0,0,0.625,65.8557,-327.423)">
                        <g transform="matrix(40,0,0,40,580,650)">
                            <path d="M0.451,-0.241L0.542,-0.241L0.542,-0.172L0.451,-0.172L0.451,-0L0.368,-0L0.367,-0.172L0.074,-0.172L0.074,-0.234L0.281,-0.717L0.353,-0.687L0.165,-0.241L0.368,-0.241L0.379,-0.441L0.451,-0.441L0.451,-0.241Z" style="fill-rule:nonzero;"/>
                        </g>
                    </g>
                </g>
                <g transform="matrix(1,0,0,1,-320.184,290)">
                    <g transform="matrix(1.10408,0,0,1,0,0)">
                        <circle cx="430" cy="70" r="15" style="fill:rgb(50,247,211);stroke:black;stroke-width:1px;"/>
                    </g>
                    <g transform="matrix(0.690052,0,0,0.625,65.8557,-327.423)">
                        <g transform="matrix(40,0,0,40,580,650)">
                            <path d="M0.499,-0.706L0.487,-0.637L0.208,-0.637L0.208,-0.415C0.229,-0.426 0.249,-0.434 0.268,-0.438C0.287,-0.443 0.308,-0.445 0.33,-0.445C0.368,-0.445 0.402,-0.436 0.431,-0.419C0.46,-0.402 0.483,-0.376 0.499,-0.343C0.515,-0.309 0.523,-0.27 0.523,-0.224C0.523,-0.177 0.513,-0.136 0.493,-0.1C0.473,-0.064 0.446,-0.037 0.409,-0.017C0.373,0.002 0.331,0.012 0.284,0.012C0.243,0.012 0.205,0.005 0.172,-0.01C0.139,-0.025 0.108,-0.046 0.079,-0.073L0.132,-0.125C0.154,-0.102 0.177,-0.086 0.202,-0.075C0.226,-0.065 0.254,-0.059 0.285,-0.059C0.331,-0.059 0.368,-0.074 0.394,-0.102C0.419,-0.13 0.432,-0.172 0.432,-0.226C0.432,-0.279 0.421,-0.318 0.398,-0.342C0.375,-0.365 0.344,-0.377 0.305,-0.377C0.286,-0.377 0.268,-0.375 0.253,-0.372C0.237,-0.368 0.218,-0.362 0.195,-0.353L0.126,-0.353L0.126,-0.706L0.499,-0.706Z" style="fill-rule:nonzero;"/>
                        </g>
                    </g>
                </g>
                <g transform="matrix(1,0,0,1,119.935,290)">
                    <g transform="matrix(1.10408,0,0,1,0,0)">
                        <circle cx="430" cy="70" r="15" style="fill:rgb(50,247,211);stroke:black;stroke-width:1px;"/>
                    </g>
                    <g transform="matrix(0.690052,0,0,0.625,65.8557,-327.423)">
                        <g transform="matrix(40,0,0,40,580,650)">
                            <path d="M0.499,-0.706L0.487,-0.637L0.208,-0.637L0.208,-0.415C0.229,-0.426 0.249,-0.434 0.268,-0.438C0.287,-0.443 0.308,-0.445 0.33,-0.445C0.368,-0.445 0.402,-0.436 0.431,-0.419C0.46,-0.402 0.483,-0.376 0.499,-0.343C0.515,-0.309 0.523,-0.27 0.523,-0.224C0.523,-0.177 0.513,-0.136 0.493,-0.1C0.473,-0.064 0.446,-0.037 0.409,-0.017C0.373,0.002 0.331,0.012 0.284,0.012C0.243,0.012 0.205,0.005 0.172,-0.01C0.139,-0.025 0.108,-0.046 0.079,-0.073L0.132,-0.125C0.154,-0.102 0.177,-0.086 0.202,-0.075C0.226,-0.065 0.254,-0.059 0.285,-0.059C0.331,-0.059 0.368,-0.074 0.394,-0.102C0.419,-0.13 0.432,-0.172 0.432,-0.226C0.432,-0.279 0.421,-0.318 0.398,-0.342C0.375,-0.365 0.344,-0.377 0.305,-0.377C0.286,-0.377 0.268,-0.375 0.253,-0.372C0.237,-0.368 0.218,-0.362 0.195,-0.353L0.126,-0.353L0.126,-0.706L0.499,-0.706Z" style="fill-rule:nonzero;"/>
                        </g>
                    </g>
                </g>
                <g transform="matrix(1,0,0,1,563.09,290)">
                    <g transform="matrix(1.10408,0,0,1,0,0)">
                        <circle cx="430" cy="70" r="15" style="fill:rgb(50,247,211);stroke:black;stroke-width:1px;"/>
                    </g>
                    <g transform="matrix(0.690052,0,0,0.625,65.8557,-327.423)">
                        <g transform="matrix(40,0,0,40,580,650)">
                            <path d="M0.499,-0.706L0.487,-0.637L0.208,-0.637L0.208,-0.415C0.229,-0.426 0.249,-0.434 0.268,-0.438C0.287,-0.443 0.308,-0.445 0.33,-0.445C0.368,-0.445 0.402,-0.436 0.431,-0.419C0.46,-0.402 0.483,-0.376 0.499,-0.343C0.515,-0.309 0.523,-0.27 0.523,-0.224C0.523,-0.177 0.513,-0.136 0.493,-0.1C0.473,-0.064 0.446,-0.037 0.409,-0.017C0.373,0.002 0.331,0.012 0.284,0.012C0.243,0.012 0.205,0.005 0.172,-0.01C0.139,-0.025 0.108,-0.046 0.079,-0.073L0.132,-0.125C0.154,-0.102 0.177,-0.086 0.202,-0.075C0.226,-0.065 0.254,-0.059 0.285,-0.059C0.331,-0.059 0.368,-0.074 0.394,-0.102C0.419,-0.13 0.432,-0.172 0.432,-0.226C0.432,-0.279 0.421,-0.318 0.398,-0.342C0.375,-0.365 0.344,-0.377 0.305,-0.377C0.286,-0.377 0.268,-0.375 0.253,-0.372C0.237,-0.368 0.218,-0.362 0.195,-0.353L0.126,-0.353L0.126,-0.706L0.499,-0.706Z" style="fill-rule:nonzero;"/>
                        </g>
                    </g>
                </g>
                <g transform="matrix(1,0,0,1,-364.347,180)">
                    <g transform="matrix(1.10408,0,0,1,0,0)">
                        <circle cx="430" cy="70" r="15" style="fill:rgb(229,242,13);stroke:black;stroke-width:1px;"/>
                    </g>
                    <g transform="matrix(0.690052,0,0,0.625,65.8557,-327.423)">
                        <g transform="matrix(40,0,0,40,580,650)">
                            <path d="M0.338,-0.46C0.375,-0.46 0.409,-0.452 0.439,-0.435C0.469,-0.419 0.494,-0.394 0.511,-0.36C0.529,-0.327 0.538,-0.286 0.538,-0.237C0.538,-0.187 0.528,-0.143 0.508,-0.105C0.489,-0.068 0.462,-0.039 0.428,-0.018C0.394,0.002 0.357,0.012 0.316,0.012C0.234,0.012 0.174,-0.018 0.137,-0.078C0.1,-0.138 0.082,-0.223 0.082,-0.334C0.082,-0.411 0.092,-0.479 0.113,-0.537C0.134,-0.595 0.164,-0.639 0.203,-0.671C0.243,-0.702 0.29,-0.717 0.344,-0.717C0.396,-0.717 0.443,-0.704 0.484,-0.676L0.45,-0.618C0.417,-0.638 0.382,-0.648 0.343,-0.648C0.307,-0.648 0.276,-0.636 0.251,-0.613C0.225,-0.59 0.205,-0.557 0.191,-0.515C0.177,-0.472 0.169,-0.422 0.168,-0.365C0.19,-0.397 0.215,-0.422 0.243,-0.437C0.271,-0.452 0.303,-0.46 0.338,-0.46ZM0.315,-0.058C0.359,-0.058 0.392,-0.074 0.415,-0.105C0.438,-0.136 0.45,-0.18 0.45,-0.235C0.45,-0.29 0.439,-0.33 0.417,-0.354C0.395,-0.377 0.365,-0.389 0.325,-0.389C0.292,-0.389 0.263,-0.38 0.236,-0.363C0.21,-0.345 0.187,-0.32 0.169,-0.289C0.17,-0.236 0.176,-0.192 0.186,-0.158C0.197,-0.124 0.213,-0.099 0.234,-0.083C0.255,-0.066 0.282,-0.058 0.315,-0.058Z" style="fill-rule:nonzero;"/>
                        </g>
                    </g>
                </g>
                <g transform="matrix(1,0,0,1,75.7718,180)">
                    <g transform="matrix(1.10408,0,0,1,0,0)">
                        <circle cx="430" cy="70" r="15" style="fill:rgb(50,247,211);stroke:black;stroke-width:1px;"/>
                    </g>
                    <g transform="matrix(0.690052,0,0,0.625,65.8557,-327.423)">
                        <g transform="matrix(40,0,0,40,580,650)">
                            <path d="M0.338,-0.46C0.375,-0.46 0.409,-0.452 0.439,-0.435C0.469,-0.419 0.494,-0.394 0.511,-0.36C0.529,-0.327 0.538,-0.286 0.538,-0.237C0.538,-0.187 0.528,-0.143 0.508,-0.105C0.489,-0.068 0.462,-0.039 0.428,-0.018C0.394,0.002 0.357,0.012 0.316,0.012C0.234,0.012 0.174,-0.018 0.137,-0.078C0.1,-0.138 0.082,-0.223 0.082,-0.334C0.082,-0.411 0.092,-0.479 0.113,-0.537C0.134,-0.595 0.164,-0.639 0.203,-0.671C0.243,-0.702 0.29,-0.717 0.344,-0.717C0.396,-0.717 0.443,-0.704 0.484,-0.676L0.45,-0.618C0.417,-0.638 0.382,-0.648 0.343,-0.648C0.307,-0.648 0.276,-0.636 0.251,-0.613C0.225,-0.59 0.205,-0.557 0.191,-0.515C0.177,-0.472 0.169,-0.422 0.168,-0.365C0.19,-0.397 0.215,-0.422 0.243,-0.437C0.271,-0.452 0.303,-0.46 0.338,-0.46ZM0.315,-0.058C0.359,-0.058 0.392,-0.074 0.415,-0.105C0.438,-0.136 0.45,-0.18 0.45,-0.235C0.45,-0.29 0.439,-0.33 0.417,-0.354C0.395,-0.377 0.365,-0.389 0.325,-0.389C0.292,-0.389 0.263,-0.38 0.236,-0.363C0.21,-0.345 0.187,-0.32 0.169,-0.289C0.17,-0.236 0.176,-0.192 0.186,-0.158C0.197,-0.124 0.213,-0.099 0.234,-0.083C0.255,-0.066 0.282,-0.058 0.315,-0.058Z" style="fill-rule:nonzero;"/>
                        </g>
                    </g>
                </g>
                <g transform="matrix(1,0,0,1,518.926,180)">
                    <g transform="matrix(1.10408,0,0,1,0,0)">
                        <circle cx="430" cy="70" r="15" style="fill:rgb(50,247,211);stroke:black;stroke-width:1px;"/>
                    </g>
                    <g transform="matrix(0.690052,0,0,0.625,65.8557,-327.423)">
                        <g transform="matrix(40,0,0,40,580,650)">
                            <path d="M0.338,-0.46C0.375,-0.46 0.409,-0.452 0.439,-0.435C0.469,-0.419 0.494,-0.394 0.511,-0.36C0.529,-0.327 0.538,-0.286 0.538,-0.237C0.538,-0.187 0.528,-0.143 0.508,-0.105C0.489,-0.068 0.462,-0.039 0.428,-0.018C0.394,0.002 0.357,0.012 0.316,0.012C0.234,0.012 0.174,-0.018 0.137,-0.078C0.1,-0.138 0.082,-0.223 0.082,-0.334C0.082,-0.411 0.092,-0.479 0.113,-0.537C0.134,-0.595 0.164,-0.639 0.203,-0.671C0.243,-0.702 0.29,-0.717 0.344,-0.717C0.396,-0.717 0.443,-0.704 0.484,-0.676L0.45,-0.618C0.417,-0.638 0.382,-0.648 0.343,-0.648C0.307,-0.648 0.276,-0.636 0.251,-0.613C0.225,-0.59 0.205,-0.557 0.191,-0.515C0.177,-0.472 0.169,-0.422 0.168,-0.365C0.19,-0.397 0.215,-0.422 0.243,-0.437C0.271,-0.452 0.303,-0.46 0.338,-0.46ZM0.315,-0.058C0.359,-0.058 0.392,-0.074 0.415,-0.105C0.438,-0.136 0.45,-0.18 0.45,-0.235C0.45,-0.29 0.439,-0.33 0.417,-0.354C0.395,-0.377 0.365,-0.389 0.325,-0.389C0.292,-0.389 0.263,-0.38 0.236,-0.363C0.21,-0.345 0.187,-0.32 0.169,-0.289C0.17,-0.236 0.176,-0.192 0.186,-0.158C0.197,-0.124 0.213,-0.099 0.234,-0.083C0.255,-0.066 0.282,-0.058 0.315,-0.058Z" style="fill-rule:nonzero;"/>
                        </g>
                    </g>
                </g>
                <g transform="matrix(1,0,0,1,-320.184,72.884)">
                    <g transform="matrix(1.10408,0,0,1,0,0)">
                        <circle cx="430" cy="70" r="15" style="fill:rgb(50,247,211);stroke:black;stroke-width:1px;"/>
                    </g>
                    <g transform="matrix(0.690052,0,0,0.625,65.8557,-327.423)">
                        <g transform="matrix(40,0,0,40,580,650)">
                            <path d="M0.518,-0.64L0.236,0.01L0.156,-0.015L0.431,-0.634L0.1,-0.634L0.1,-0.706L0.518,-0.706L0.518,-0.64Z" style="fill-rule:nonzero;"/>
                        </g>
                    </g>
                </g>
                <g transform="matrix(1,0,0,1,119.935,72.884)">
                    <g transform="matrix(1.10408,0,0,1,0,0)">
                        <circle cx="430" cy="70" r="15" style="fill:rgb(50,247,211);stroke:black;stroke-width:1px;"/>
                    </g>
                    <g transform="matrix(0.690052,0,0,0.625,65.8557,-327.423)">
                        <g transform="matrix(40,0,0,40,580,650)">
                            <path d="M0.518,-0.64L0.236,0.01L0.156,-0.015L0.431,-0.634L0.1,-0.634L0.1,-0.706L0.518,-0.706L0.518,-0.64Z" style="fill-rule:nonzero;"/>
                        </g>
                    </g>
                </g>
                <g transform="matrix(1,0,0,1,563.09,72.884)">
                    <g transform="matrix(1.10408,0,0,1,0,0)">
                        <circle cx="430" cy="70" r="15" style="fill:rgb(50,247,211);stroke:black;stroke-width:1px;"/>
                    </g>
                    <g transform="matrix(0.690052,0,0,0.625,65.8557,-327.423)">
                        <g transform="matrix(40,0,0,40,580,650)">
                            <path d="M0.518,-0.64L0.236,0.01L0.156,-0.015L0.431,-0.634L0.1,-0.634L0.1,-0.706L0.518,-0.706L0.518,-0.64Z" style="fill-rule:nonzero;"/>
                        </g>
                    </g>
                </g>
            </g>
        </g>
    </g>
</svg>
