<?xml version="1.0" encoding="UTF-8" standalone="no"?>
<!DOCTYPE svg PUBLIC "-//W3C//DTD SVG 1.1//EN" "http://www.w3.org/Graphics/SVG/1.1/DTD/svg11.dtd">
<svg width="1056px" height="276px" version="1.1" xmlns="http://www.w3.org/2000/svg" xmlns:xlink="http://www.w3.org/1999/xlink" xml:space="preserve" xmlns:serif="http://www.serif.com/" style="fill-rule:evenodd;clip-rule:evenodd;stroke-linecap:round;stroke-linejoin:round;stroke-miterlimit:1.5;">
    <g id="Mesa-de-trabajo1" serif:id="Mesa de trabajo1" transform="matrix(0.55,0,0,0.255556,0,0)">
        <rect x="0" y="0" width="1920" height="1080" style="fill:none;"/>
        <g transform="matrix(1.81818,0,0,3.91304,-603.713,-817.068)">
            <g transform="matrix(1,0,0,1,3.70469,3.3802)">
                <path d="M1370,319.195L1370,364.732C1370,377.298 1359.8,387.5 1347.23,387.5L871.768,387.5C859.202,387.5 849,377.298 849,364.732L849,319.195C849,306.628 859.202,296.426 871.768,296.426L1347.23,296.426C1359.8,296.426 1370,306.628 1370,319.195Z" style="fill:rgb(202,254,201);"/>
            </g>
            <g transform="matrix(1,0,0,1,2.35231,31.9608)">
                <g transform="matrix(21,0,0,21,865.357,300.599)">
                    <path d="M0.409,-0.772L0.524,-0.759L0.524,-0L0.423,-0L0.415,-0.067C0.396,-0.041 0.374,-0.021 0.348,-0.007C0.323,0.007 0.294,0.014 0.263,0.014C0.195,0.014 0.144,-0.012 0.11,-0.062C0.076,-0.113 0.059,-0.183 0.059,-0.271C0.059,-0.326 0.068,-0.375 0.085,-0.418C0.102,-0.461 0.126,-0.495 0.159,-0.519C0.191,-0.544 0.229,-0.556 0.273,-0.556C0.328,-0.556 0.374,-0.536 0.409,-0.497L0.409,-0.772ZM0.303,-0.468C0.263,-0.468 0.233,-0.451 0.212,-0.419C0.191,-0.386 0.181,-0.337 0.181,-0.271C0.181,-0.14 0.218,-0.074 0.293,-0.074C0.338,-0.074 0.376,-0.1 0.409,-0.151L0.409,-0.408C0.396,-0.427 0.38,-0.442 0.362,-0.452C0.344,-0.463 0.325,-0.468 0.303,-0.468Z" style="fill-rule:nonzero;"/>
                </g>
                <g transform="matrix(21,0,0,21,878.28,300.599)">
                    <path d="M0.307,-0.807C0.329,-0.807 0.348,-0.8 0.362,-0.786C0.376,-0.772 0.383,-0.755 0.383,-0.735C0.383,-0.714 0.376,-0.697 0.362,-0.683C0.348,-0.669 0.329,-0.662 0.307,-0.662C0.285,-0.662 0.267,-0.669 0.253,-0.683C0.239,-0.697 0.232,-0.714 0.232,-0.735C0.232,-0.755 0.239,-0.772 0.253,-0.786C0.267,-0.8 0.285,-0.807 0.307,-0.807ZM0.115,-0.542L0.387,-0.542L0.387,-0.084L0.534,-0.084L0.534,-0L0.11,-0L0.11,-0.084L0.272,-0.084L0.272,-0.457L0.115,-0.457L0.115,-0.542Z" style="fill-rule:nonzero;"/>
                </g>
                <g transform="matrix(21,0,0,21,891.203,300.599)">
                    <path d="M0.448,-0.542L0.566,-0.542L0.375,-0L0.241,-0L0.05,-0.542L0.173,-0.542L0.31,-0.095L0.448,-0.542Z" style="fill-rule:nonzero;"/>
                </g>
                <g transform="matrix(21,0,0,21,904.126,300.599)">
                    <path d="M0.307,-0.807C0.329,-0.807 0.348,-0.8 0.362,-0.786C0.376,-0.772 0.383,-0.755 0.383,-0.735C0.383,-0.714 0.376,-0.697 0.362,-0.683C0.348,-0.669 0.329,-0.662 0.307,-0.662C0.285,-0.662 0.267,-0.669 0.253,-0.683C0.239,-0.697 0.232,-0.714 0.232,-0.735C0.232,-0.755 0.239,-0.772 0.253,-0.786C0.267,-0.8 0.285,-0.807 0.307,-0.807ZM0.115,-0.542L0.387,-0.542L0.387,-0.084L0.534,-0.084L0.534,-0L0.11,-0L0.11,-0.084L0.272,-0.084L0.272,-0.457L0.115,-0.457L0.115,-0.542Z" style="fill-rule:nonzero;"/>
                </g>
                <g transform="matrix(21,0,0,21,917.049,300.599)">
                    <path d="M0.409,-0.772L0.524,-0.759L0.524,-0L0.423,-0L0.415,-0.067C0.396,-0.041 0.374,-0.021 0.348,-0.007C0.323,0.007 0.294,0.014 0.263,0.014C0.195,0.014 0.144,-0.012 0.11,-0.062C0.076,-0.113 0.059,-0.183 0.059,-0.271C0.059,-0.326 0.068,-0.375 0.085,-0.418C0.102,-0.461 0.126,-0.495 0.159,-0.519C0.191,-0.544 0.229,-0.556 0.273,-0.556C0.328,-0.556 0.374,-0.536 0.409,-0.497L0.409,-0.772ZM0.303,-0.468C0.263,-0.468 0.233,-0.451 0.212,-0.419C0.191,-0.386 0.181,-0.337 0.181,-0.271C0.181,-0.14 0.218,-0.074 0.293,-0.074C0.338,-0.074 0.376,-0.1 0.409,-0.151L0.409,-0.408C0.396,-0.427 0.38,-0.442 0.362,-0.452C0.344,-0.463 0.325,-0.468 0.303,-0.468Z" style="fill-rule:nonzero;"/>
                </g>
                <g transform="matrix(21,0,0,21,929.972,300.599)">
                    <path d="M0.187,-0.234C0.19,-0.181 0.205,-0.141 0.232,-0.115C0.258,-0.089 0.293,-0.075 0.334,-0.075C0.36,-0.075 0.384,-0.079 0.407,-0.087C0.429,-0.095 0.452,-0.107 0.476,-0.123L0.526,-0.054C0.501,-0.033 0.471,-0.016 0.436,-0.004C0.402,0.008 0.366,0.014 0.329,0.014C0.274,0.014 0.226,0.002 0.187,-0.022C0.148,-0.046 0.118,-0.079 0.098,-0.122C0.078,-0.164 0.068,-0.214 0.068,-0.27C0.068,-0.325 0.078,-0.373 0.098,-0.417C0.118,-0.46 0.146,-0.494 0.184,-0.519C0.221,-0.544 0.265,-0.556 0.315,-0.556C0.362,-0.556 0.404,-0.545 0.439,-0.523C0.474,-0.502 0.501,-0.47 0.52,-0.43C0.539,-0.389 0.548,-0.341 0.548,-0.285C0.548,-0.266 0.547,-0.249 0.546,-0.234L0.187,-0.234ZM0.316,-0.471C0.279,-0.471 0.249,-0.458 0.226,-0.431C0.203,-0.405 0.19,-0.365 0.186,-0.312L0.437,-0.312C0.436,-0.363 0.425,-0.402 0.404,-0.43C0.383,-0.457 0.354,-0.471 0.316,-0.471Z" style="fill-rule:nonzero;"/>
                </g>
                <g transform="matrix(21,0,0,21,942.895,300.599)">
                    <path d="M0.091,-0L0.091,-0.542L0.19,-0.542L0.199,-0.471C0.221,-0.498 0.248,-0.519 0.278,-0.534C0.309,-0.549 0.341,-0.556 0.374,-0.556C0.424,-0.556 0.461,-0.542 0.487,-0.514C0.512,-0.486 0.525,-0.446 0.525,-0.395L0.525,-0L0.41,-0L0.41,-0.338C0.41,-0.371 0.408,-0.397 0.404,-0.415C0.4,-0.434 0.393,-0.447 0.382,-0.455C0.371,-0.464 0.354,-0.468 0.333,-0.468C0.308,-0.468 0.285,-0.461 0.263,-0.446C0.242,-0.431 0.223,-0.412 0.206,-0.389L0.206,-0L0.091,-0Z" style="fill-rule:nonzero;"/>
                </g>
                <g transform="matrix(21,0,0,21,955.819,300.599)">
                    <path d="M0.409,-0.772L0.524,-0.759L0.524,-0L0.423,-0L0.415,-0.067C0.396,-0.041 0.374,-0.021 0.348,-0.007C0.323,0.007 0.294,0.014 0.263,0.014C0.195,0.014 0.144,-0.012 0.11,-0.062C0.076,-0.113 0.059,-0.183 0.059,-0.271C0.059,-0.326 0.068,-0.375 0.085,-0.418C0.102,-0.461 0.126,-0.495 0.159,-0.519C0.191,-0.544 0.229,-0.556 0.273,-0.556C0.328,-0.556 0.374,-0.536 0.409,-0.497L0.409,-0.772ZM0.303,-0.468C0.263,-0.468 0.233,-0.451 0.212,-0.419C0.191,-0.386 0.181,-0.337 0.181,-0.271C0.181,-0.14 0.218,-0.074 0.293,-0.074C0.338,-0.074 0.376,-0.1 0.409,-0.151L0.409,-0.408C0.396,-0.427 0.38,-0.442 0.362,-0.452C0.344,-0.463 0.325,-0.468 0.303,-0.468Z" style="fill-rule:nonzero;"/>
                </g>
                <g transform="matrix(21,0,0,21,968.742,300.599)">
                    <path d="M0.308,-0.556C0.36,-0.556 0.404,-0.544 0.441,-0.521C0.478,-0.498 0.505,-0.465 0.524,-0.422C0.543,-0.38 0.552,-0.33 0.552,-0.272C0.552,-0.214 0.543,-0.164 0.524,-0.121C0.504,-0.078 0.477,-0.045 0.44,-0.022C0.403,0.002 0.359,0.014 0.308,0.014C0.256,0.014 0.211,0.002 0.175,-0.021C0.138,-0.043 0.111,-0.076 0.092,-0.119C0.073,-0.162 0.063,-0.212 0.063,-0.271C0.063,-0.327 0.073,-0.377 0.092,-0.42C0.111,-0.463 0.139,-0.496 0.176,-0.52C0.212,-0.544 0.257,-0.556 0.308,-0.556ZM0.308,-0.467C0.266,-0.467 0.235,-0.451 0.215,-0.419C0.194,-0.387 0.184,-0.337 0.184,-0.271C0.184,-0.204 0.194,-0.155 0.214,-0.123C0.235,-0.091 0.266,-0.075 0.308,-0.075C0.349,-0.075 0.381,-0.091 0.401,-0.123C0.422,-0.155 0.432,-0.204 0.432,-0.272C0.432,-0.338 0.422,-0.387 0.401,-0.419C0.381,-0.451 0.35,-0.467 0.308,-0.467Z" style="fill-rule:nonzero;"/>
                </g>
                <g transform="matrix(21,0,0,21,994.588,300.599)">
                    <path d="M0.095,-0.467L0.52,-0.467L0.52,-0.373L0.095,-0.373L0.095,-0.467ZM0.095,-0.265L0.52,-0.265L0.52,-0.171L0.095,-0.171L0.095,-0.265Z" style="fill-rule:nonzero;"/>
                </g>
                <g transform="matrix(21,0,0,21,1020.43,300.599)">
                    <path d="M0.409,-0.772L0.524,-0.759L0.524,-0L0.423,-0L0.415,-0.067C0.396,-0.041 0.374,-0.021 0.348,-0.007C0.323,0.007 0.294,0.014 0.263,0.014C0.195,0.014 0.144,-0.012 0.11,-0.062C0.076,-0.113 0.059,-0.183 0.059,-0.271C0.059,-0.326 0.068,-0.375 0.085,-0.418C0.102,-0.461 0.126,-0.495 0.159,-0.519C0.191,-0.544 0.229,-0.556 0.273,-0.556C0.328,-0.556 0.374,-0.536 0.409,-0.497L0.409,-0.772ZM0.303,-0.468C0.263,-0.468 0.233,-0.451 0.212,-0.419C0.191,-0.386 0.181,-0.337 0.181,-0.271C0.181,-0.14 0.218,-0.074 0.293,-0.074C0.338,-0.074 0.376,-0.1 0.409,-0.151L0.409,-0.408C0.396,-0.427 0.38,-0.442 0.362,-0.452C0.344,-0.463 0.325,-0.468 0.303,-0.468Z" style="fill-rule:nonzero;"/>
                </g>
                <g transform="matrix(21,0,0,21,1033.36,300.599)">
                    <path d="M0.307,-0.807C0.329,-0.807 0.348,-0.8 0.362,-0.786C0.376,-0.772 0.383,-0.755 0.383,-0.735C0.383,-0.714 0.376,-0.697 0.362,-0.683C0.348,-0.669 0.329,-0.662 0.307,-0.662C0.285,-0.662 0.267,-0.669 0.253,-0.683C0.239,-0.697 0.232,-0.714 0.232,-0.735C0.232,-0.755 0.239,-0.772 0.253,-0.786C0.267,-0.8 0.285,-0.807 0.307,-0.807ZM0.115,-0.542L0.387,-0.542L0.387,-0.084L0.534,-0.084L0.534,-0L0.11,-0L0.11,-0.084L0.272,-0.084L0.272,-0.457L0.115,-0.457L0.115,-0.542Z" style="fill-rule:nonzero;"/>
                </g>
                <g transform="matrix(21,0,0,21,1046.28,300.599)">
                    <path d="M0.448,-0.542L0.566,-0.542L0.375,-0L0.241,-0L0.05,-0.542L0.173,-0.542L0.31,-0.095L0.448,-0.542Z" style="fill-rule:nonzero;"/>
                </g>
                <g transform="matrix(21,0,0,21,1059.2,300.599)">
                    <path d="M0.307,-0.807C0.329,-0.807 0.348,-0.8 0.362,-0.786C0.376,-0.772 0.383,-0.755 0.383,-0.735C0.383,-0.714 0.376,-0.697 0.362,-0.683C0.348,-0.669 0.329,-0.662 0.307,-0.662C0.285,-0.662 0.267,-0.669 0.253,-0.683C0.239,-0.697 0.232,-0.714 0.232,-0.735C0.232,-0.755 0.239,-0.772 0.253,-0.786C0.267,-0.8 0.285,-0.807 0.307,-0.807ZM0.115,-0.542L0.387,-0.542L0.387,-0.084L0.534,-0.084L0.534,-0L0.11,-0L0.11,-0.084L0.272,-0.084L0.272,-0.457L0.115,-0.457L0.115,-0.542Z" style="fill-rule:nonzero;"/>
                </g>
                <g transform="matrix(21,0,0,21,1072.13,300.599)">
                    <path d="M0.288,-0.074C0.324,-0.074 0.353,-0.081 0.374,-0.094C0.395,-0.106 0.406,-0.124 0.406,-0.147C0.406,-0.162 0.402,-0.175 0.396,-0.185C0.39,-0.195 0.377,-0.204 0.359,-0.213C0.341,-0.222 0.313,-0.231 0.275,-0.241C0.236,-0.25 0.204,-0.262 0.178,-0.275C0.153,-0.287 0.133,-0.304 0.119,-0.324C0.105,-0.345 0.097,-0.37 0.097,-0.401C0.097,-0.431 0.106,-0.458 0.124,-0.482C0.141,-0.505 0.167,-0.523 0.199,-0.536C0.232,-0.549 0.27,-0.556 0.314,-0.556C0.394,-0.556 0.463,-0.535 0.519,-0.493L0.471,-0.421C0.448,-0.436 0.424,-0.448 0.399,-0.456C0.374,-0.465 0.347,-0.469 0.317,-0.469C0.249,-0.469 0.214,-0.449 0.214,-0.409C0.214,-0.395 0.218,-0.384 0.226,-0.375C0.234,-0.366 0.247,-0.358 0.266,-0.351C0.285,-0.343 0.314,-0.334 0.352,-0.323C0.391,-0.312 0.423,-0.3 0.448,-0.287C0.473,-0.274 0.493,-0.257 0.506,-0.236C0.52,-0.215 0.527,-0.188 0.527,-0.154C0.527,-0.117 0.516,-0.086 0.494,-0.061C0.472,-0.035 0.444,-0.016 0.407,-0.004C0.371,0.008 0.332,0.014 0.288,0.014C0.241,0.014 0.198,0.007 0.162,-0.007C0.125,-0.02 0.093,-0.039 0.066,-0.063L0.127,-0.132C0.149,-0.114 0.173,-0.1 0.201,-0.09C0.228,-0.079 0.257,-0.074 0.288,-0.074Z" style="fill-rule:nonzero;"/>
                </g>
                <g transform="matrix(21,0,0,21,1085.05,300.599)">
                    <path d="M0.308,-0.556C0.36,-0.556 0.404,-0.544 0.441,-0.521C0.478,-0.498 0.505,-0.465 0.524,-0.422C0.543,-0.38 0.552,-0.33 0.552,-0.272C0.552,-0.214 0.543,-0.164 0.524,-0.121C0.504,-0.078 0.477,-0.045 0.44,-0.022C0.403,0.002 0.359,0.014 0.308,0.014C0.256,0.014 0.211,0.002 0.175,-0.021C0.138,-0.043 0.111,-0.076 0.092,-0.119C0.073,-0.162 0.063,-0.212 0.063,-0.271C0.063,-0.327 0.073,-0.377 0.092,-0.42C0.111,-0.463 0.139,-0.496 0.176,-0.52C0.212,-0.544 0.257,-0.556 0.308,-0.556ZM0.308,-0.467C0.266,-0.467 0.235,-0.451 0.215,-0.419C0.194,-0.387 0.184,-0.337 0.184,-0.271C0.184,-0.204 0.194,-0.155 0.214,-0.123C0.235,-0.091 0.266,-0.075 0.308,-0.075C0.349,-0.075 0.381,-0.091 0.401,-0.123C0.422,-0.155 0.432,-0.204 0.432,-0.272C0.432,-0.338 0.422,-0.387 0.401,-0.419C0.381,-0.451 0.35,-0.467 0.308,-0.467Z" style="fill-rule:nonzero;"/>
                </g>
                <g transform="matrix(21,0,0,21,1097.97,300.599)">
                    <path d="M0.475,-0.555C0.49,-0.555 0.504,-0.554 0.517,-0.552C0.53,-0.549 0.543,-0.546 0.557,-0.542L0.537,-0.342L0.455,-0.342L0.455,-0.452C0.417,-0.451 0.385,-0.436 0.357,-0.407C0.329,-0.378 0.307,-0.337 0.291,-0.283L0.291,-0.082L0.4,-0.082L0.4,-0L0.096,-0L0.096,-0.082L0.176,-0.082L0.176,-0.46L0.096,-0.46L0.096,-0.542L0.264,-0.542L0.285,-0.416C0.305,-0.463 0.331,-0.498 0.361,-0.521C0.392,-0.544 0.43,-0.555 0.475,-0.555Z" style="fill-rule:nonzero;"/>
                </g>
                <g transform="matrix(21,0,0,21,1123.82,300.599)">
                    <path d="M0.364,-0.599L0.251,-0.599L0.264,-0.396L0.076,-0.47L0.042,-0.365L0.237,-0.314L0.109,-0.157L0.198,-0.092L0.308,-0.263L0.417,-0.092L0.507,-0.157L0.378,-0.314L0.574,-0.365L0.539,-0.47L0.351,-0.396L0.364,-0.599Z" style="fill-rule:nonzero;"/>
                </g>
                <g transform="matrix(21,0,0,21,1149.66,300.599)">
                    <path d="M0.352,-0.081C0.376,-0.081 0.399,-0.085 0.421,-0.093C0.442,-0.101 0.464,-0.113 0.486,-0.128L0.539,-0.054C0.515,-0.033 0.486,-0.017 0.452,-0.005C0.418,0.008 0.384,0.014 0.349,0.014C0.294,0.014 0.247,0.002 0.207,-0.021C0.168,-0.044 0.137,-0.077 0.116,-0.12C0.096,-0.162 0.085,-0.212 0.085,-0.268C0.085,-0.324 0.096,-0.373 0.117,-0.416C0.138,-0.46 0.169,-0.494 0.209,-0.519C0.249,-0.544 0.296,-0.556 0.351,-0.556C0.423,-0.556 0.486,-0.534 0.538,-0.491L0.486,-0.418C0.442,-0.449 0.398,-0.464 0.353,-0.464C0.308,-0.464 0.273,-0.447 0.246,-0.415C0.22,-0.382 0.207,-0.334 0.207,-0.268C0.207,-0.204 0.22,-0.156 0.246,-0.126C0.272,-0.096 0.308,-0.081 0.352,-0.081Z" style="fill-rule:nonzero;"/>
                </g>
                <g transform="matrix(21,0,0,21,1162.59,300.599)">
                    <path d="M0.308,-0.556C0.36,-0.556 0.404,-0.544 0.441,-0.521C0.478,-0.498 0.505,-0.465 0.524,-0.422C0.543,-0.38 0.552,-0.33 0.552,-0.272C0.552,-0.214 0.543,-0.164 0.524,-0.121C0.504,-0.078 0.477,-0.045 0.44,-0.022C0.403,0.002 0.359,0.014 0.308,0.014C0.256,0.014 0.211,0.002 0.175,-0.021C0.138,-0.043 0.111,-0.076 0.092,-0.119C0.073,-0.162 0.063,-0.212 0.063,-0.271C0.063,-0.327 0.073,-0.377 0.092,-0.42C0.111,-0.463 0.139,-0.496 0.176,-0.52C0.212,-0.544 0.257,-0.556 0.308,-0.556ZM0.308,-0.467C0.266,-0.467 0.235,-0.451 0.215,-0.419C0.194,-0.387 0.184,-0.337 0.184,-0.271C0.184,-0.204 0.194,-0.155 0.214,-0.123C0.235,-0.091 0.266,-0.075 0.308,-0.075C0.349,-0.075 0.381,-0.091 0.401,-0.123C0.422,-0.155 0.432,-0.204 0.432,-0.272C0.432,-0.338 0.422,-0.387 0.401,-0.419C0.381,-0.451 0.35,-0.467 0.308,-0.467Z" style="fill-rule:nonzero;"/>
                </g>
                <g transform="matrix(21,0,0,21,1175.51,300.599)">
                    <path d="M0.352,-0.081C0.376,-0.081 0.399,-0.085 0.421,-0.093C0.442,-0.101 0.464,-0.113 0.486,-0.128L0.539,-0.054C0.515,-0.033 0.486,-0.017 0.452,-0.005C0.418,0.008 0.384,0.014 0.349,0.014C0.294,0.014 0.247,0.002 0.207,-0.021C0.168,-0.044 0.137,-0.077 0.116,-0.12C0.096,-0.162 0.085,-0.212 0.085,-0.268C0.085,-0.324 0.096,-0.373 0.117,-0.416C0.138,-0.46 0.169,-0.494 0.209,-0.519C0.249,-0.544 0.296,-0.556 0.351,-0.556C0.423,-0.556 0.486,-0.534 0.538,-0.491L0.486,-0.418C0.442,-0.449 0.398,-0.464 0.353,-0.464C0.308,-0.464 0.273,-0.447 0.246,-0.415C0.22,-0.382 0.207,-0.334 0.207,-0.268C0.207,-0.204 0.22,-0.156 0.246,-0.126C0.272,-0.096 0.308,-0.081 0.352,-0.081Z" style="fill-rule:nonzero;"/>
                </g>
                <g transform="matrix(21,0,0,21,1188.43,300.599)">
                    <path d="M0.307,-0.807C0.329,-0.807 0.348,-0.8 0.362,-0.786C0.376,-0.772 0.383,-0.755 0.383,-0.735C0.383,-0.714 0.376,-0.697 0.362,-0.683C0.348,-0.669 0.329,-0.662 0.307,-0.662C0.285,-0.662 0.267,-0.669 0.253,-0.683C0.239,-0.697 0.232,-0.714 0.232,-0.735C0.232,-0.755 0.239,-0.772 0.253,-0.786C0.267,-0.8 0.285,-0.807 0.307,-0.807ZM0.115,-0.542L0.387,-0.542L0.387,-0.084L0.534,-0.084L0.534,-0L0.11,-0L0.11,-0.084L0.272,-0.084L0.272,-0.457L0.115,-0.457L0.115,-0.542Z" style="fill-rule:nonzero;"/>
                </g>
                <g transform="matrix(21,0,0,21,1201.36,300.599)">
                    <path d="M0.187,-0.234C0.19,-0.181 0.205,-0.141 0.232,-0.115C0.258,-0.089 0.293,-0.075 0.334,-0.075C0.36,-0.075 0.384,-0.079 0.407,-0.087C0.429,-0.095 0.452,-0.107 0.476,-0.123L0.526,-0.054C0.501,-0.033 0.471,-0.016 0.436,-0.004C0.402,0.008 0.366,0.014 0.329,0.014C0.274,0.014 0.226,0.002 0.187,-0.022C0.148,-0.046 0.118,-0.079 0.098,-0.122C0.078,-0.164 0.068,-0.214 0.068,-0.27C0.068,-0.325 0.078,-0.373 0.098,-0.417C0.118,-0.46 0.146,-0.494 0.184,-0.519C0.221,-0.544 0.265,-0.556 0.315,-0.556C0.362,-0.556 0.404,-0.545 0.439,-0.523C0.474,-0.502 0.501,-0.47 0.52,-0.43C0.539,-0.389 0.548,-0.341 0.548,-0.285C0.548,-0.266 0.547,-0.249 0.546,-0.234L0.187,-0.234ZM0.316,-0.471C0.279,-0.471 0.249,-0.458 0.226,-0.431C0.203,-0.405 0.19,-0.365 0.186,-0.312L0.437,-0.312C0.436,-0.363 0.425,-0.402 0.404,-0.43C0.383,-0.457 0.354,-0.471 0.316,-0.471Z" style="fill-rule:nonzero;"/>
                </g>
                <g transform="matrix(21,0,0,21,1214.28,300.599)">
                    <path d="M0.091,-0L0.091,-0.542L0.19,-0.542L0.199,-0.471C0.221,-0.498 0.248,-0.519 0.278,-0.534C0.309,-0.549 0.341,-0.556 0.374,-0.556C0.424,-0.556 0.461,-0.542 0.487,-0.514C0.512,-0.486 0.525,-0.446 0.525,-0.395L0.525,-0L0.41,-0L0.41,-0.338C0.41,-0.371 0.408,-0.397 0.404,-0.415C0.4,-0.434 0.393,-0.447 0.382,-0.455C0.371,-0.464 0.354,-0.468 0.333,-0.468C0.308,-0.468 0.285,-0.461 0.263,-0.446C0.242,-0.431 0.223,-0.412 0.206,-0.389L0.206,-0L0.091,-0Z" style="fill-rule:nonzero;"/>
                </g>
                <g transform="matrix(21,0,0,21,1227.2,300.599)">
                    <path d="M0.544,-0.029C0.523,-0.016 0.499,-0.005 0.472,0.002C0.444,0.01 0.415,0.014 0.386,0.014C0.344,0.014 0.309,0.006 0.281,-0.008C0.252,-0.023 0.23,-0.044 0.215,-0.07C0.201,-0.097 0.193,-0.128 0.193,-0.164L0.193,-0.458L0.073,-0.458L0.073,-0.542L0.193,-0.542L0.193,-0.663L0.308,-0.676L0.308,-0.542L0.491,-0.542L0.478,-0.458L0.308,-0.458L0.308,-0.165C0.308,-0.136 0.316,-0.114 0.33,-0.1C0.345,-0.086 0.369,-0.079 0.402,-0.079C0.438,-0.079 0.471,-0.088 0.502,-0.105L0.544,-0.029Z" style="fill-rule:nonzero;"/>
                </g>
                <g transform="matrix(21,0,0,21,1240.13,300.599)">
                    <path d="M0.187,-0.234C0.19,-0.181 0.205,-0.141 0.232,-0.115C0.258,-0.089 0.293,-0.075 0.334,-0.075C0.36,-0.075 0.384,-0.079 0.407,-0.087C0.429,-0.095 0.452,-0.107 0.476,-0.123L0.526,-0.054C0.501,-0.033 0.471,-0.016 0.436,-0.004C0.402,0.008 0.366,0.014 0.329,0.014C0.274,0.014 0.226,0.002 0.187,-0.022C0.148,-0.046 0.118,-0.079 0.098,-0.122C0.078,-0.164 0.068,-0.214 0.068,-0.27C0.068,-0.325 0.078,-0.373 0.098,-0.417C0.118,-0.46 0.146,-0.494 0.184,-0.519C0.221,-0.544 0.265,-0.556 0.315,-0.556C0.362,-0.556 0.404,-0.545 0.439,-0.523C0.474,-0.502 0.501,-0.47 0.52,-0.43C0.539,-0.389 0.548,-0.341 0.548,-0.285C0.548,-0.266 0.547,-0.249 0.546,-0.234L0.187,-0.234ZM0.316,-0.471C0.279,-0.471 0.249,-0.458 0.226,-0.431C0.203,-0.405 0.19,-0.365 0.186,-0.312L0.437,-0.312C0.436,-0.363 0.425,-0.402 0.404,-0.43C0.383,-0.457 0.354,-0.471 0.316,-0.471Z" style="fill-rule:nonzero;"/>
                </g>
                <g transform="matrix(21,0,0,21,1265.97,300.599)">
                    <path d="M0.256,-0.572L0.357,-0.572L0.357,-0.366L0.561,-0.366L0.561,-0.273L0.357,-0.273L0.357,-0.067L0.256,-0.067L0.256,-0.273L0.054,-0.273L0.054,-0.366L0.256,-0.366L0.256,-0.572Z" style="fill-rule:nonzero;"/>
                </g>
                <g transform="matrix(21,0,0,21,1291.82,300.599)">
                    <path d="M0.475,-0.555C0.49,-0.555 0.504,-0.554 0.517,-0.552C0.53,-0.549 0.543,-0.546 0.557,-0.542L0.537,-0.342L0.455,-0.342L0.455,-0.452C0.417,-0.451 0.385,-0.436 0.357,-0.407C0.329,-0.378 0.307,-0.337 0.291,-0.283L0.291,-0.082L0.4,-0.082L0.4,-0L0.096,-0L0.096,-0.082L0.176,-0.082L0.176,-0.46L0.096,-0.46L0.096,-0.542L0.264,-0.542L0.285,-0.416C0.305,-0.463 0.331,-0.498 0.361,-0.521C0.392,-0.544 0.43,-0.555 0.475,-0.555Z" style="fill-rule:nonzero;"/>
                </g>
                <g transform="matrix(21,0,0,21,1304.74,300.599)">
                    <path d="M0.187,-0.234C0.19,-0.181 0.205,-0.141 0.232,-0.115C0.258,-0.089 0.293,-0.075 0.334,-0.075C0.36,-0.075 0.384,-0.079 0.407,-0.087C0.429,-0.095 0.452,-0.107 0.476,-0.123L0.526,-0.054C0.501,-0.033 0.471,-0.016 0.436,-0.004C0.402,0.008 0.366,0.014 0.329,0.014C0.274,0.014 0.226,0.002 0.187,-0.022C0.148,-0.046 0.118,-0.079 0.098,-0.122C0.078,-0.164 0.068,-0.214 0.068,-0.27C0.068,-0.325 0.078,-0.373 0.098,-0.417C0.118,-0.46 0.146,-0.494 0.184,-0.519C0.221,-0.544 0.265,-0.556 0.315,-0.556C0.362,-0.556 0.404,-0.545 0.439,-0.523C0.474,-0.502 0.501,-0.47 0.52,-0.43C0.539,-0.389 0.548,-0.341 0.548,-0.285C0.548,-0.266 0.547,-0.249 0.546,-0.234L0.187,-0.234ZM0.316,-0.471C0.279,-0.471 0.249,-0.458 0.226,-0.431C0.203,-0.405 0.19,-0.365 0.186,-0.312L0.437,-0.312C0.436,-0.363 0.425,-0.402 0.404,-0.43C0.383,-0.457 0.354,-0.471 0.316,-0.471Z" style="fill-rule:nonzero;"/>
                </g>
                <g transform="matrix(21,0,0,21,1317.66,300.599)">
                    <path d="M0.288,-0.074C0.324,-0.074 0.353,-0.081 0.374,-0.094C0.395,-0.106 0.406,-0.124 0.406,-0.147C0.406,-0.162 0.402,-0.175 0.396,-0.185C0.39,-0.195 0.377,-0.204 0.359,-0.213C0.341,-0.222 0.313,-0.231 0.275,-0.241C0.236,-0.25 0.204,-0.262 0.178,-0.275C0.153,-0.287 0.133,-0.304 0.119,-0.324C0.105,-0.345 0.097,-0.37 0.097,-0.401C0.097,-0.431 0.106,-0.458 0.124,-0.482C0.141,-0.505 0.167,-0.523 0.199,-0.536C0.232,-0.549 0.27,-0.556 0.314,-0.556C0.394,-0.556 0.463,-0.535 0.519,-0.493L0.471,-0.421C0.448,-0.436 0.424,-0.448 0.399,-0.456C0.374,-0.465 0.347,-0.469 0.317,-0.469C0.249,-0.469 0.214,-0.449 0.214,-0.409C0.214,-0.395 0.218,-0.384 0.226,-0.375C0.234,-0.366 0.247,-0.358 0.266,-0.351C0.285,-0.343 0.314,-0.334 0.352,-0.323C0.391,-0.312 0.423,-0.3 0.448,-0.287C0.473,-0.274 0.493,-0.257 0.506,-0.236C0.52,-0.215 0.527,-0.188 0.527,-0.154C0.527,-0.117 0.516,-0.086 0.494,-0.061C0.472,-0.035 0.444,-0.016 0.407,-0.004C0.371,0.008 0.332,0.014 0.288,0.014C0.241,0.014 0.198,0.007 0.162,-0.007C0.125,-0.02 0.093,-0.039 0.066,-0.063L0.127,-0.132C0.149,-0.114 0.173,-0.1 0.201,-0.09C0.228,-0.079 0.257,-0.074 0.288,-0.074Z" style="fill-rule:nonzero;"/>
                </g>
                <g transform="matrix(21,0,0,21,1330.59,300.599)">
                    <path d="M0.544,-0.029C0.523,-0.016 0.499,-0.005 0.472,0.002C0.444,0.01 0.415,0.014 0.386,0.014C0.344,0.014 0.309,0.006 0.281,-0.008C0.252,-0.023 0.23,-0.044 0.215,-0.07C0.201,-0.097 0.193,-0.128 0.193,-0.164L0.193,-0.458L0.073,-0.458L0.073,-0.542L0.193,-0.542L0.193,-0.663L0.308,-0.676L0.308,-0.542L0.491,-0.542L0.478,-0.458L0.308,-0.458L0.308,-0.165C0.308,-0.136 0.316,-0.114 0.33,-0.1C0.345,-0.086 0.369,-0.079 0.402,-0.079C0.438,-0.079 0.471,-0.088 0.502,-0.105L0.544,-0.029Z" style="fill-rule:nonzero;"/>
                </g>
                <g transform="matrix(21,0,0,21,1343.51,300.599)">
                    <path d="M0.308,-0.556C0.36,-0.556 0.404,-0.544 0.441,-0.521C0.478,-0.498 0.505,-0.465 0.524,-0.422C0.543,-0.38 0.552,-0.33 0.552,-0.272C0.552,-0.214 0.543,-0.164 0.524,-0.121C0.504,-0.078 0.477,-0.045 0.44,-0.022C0.403,0.002 0.359,0.014 0.308,0.014C0.256,0.014 0.211,0.002 0.175,-0.021C0.138,-0.043 0.111,-0.076 0.092,-0.119C0.073,-0.162 0.063,-0.212 0.063,-0.271C0.063,-0.327 0.073,-0.377 0.092,-0.42C0.111,-0.463 0.139,-0.496 0.176,-0.52C0.212,-0.544 0.257,-0.556 0.308,-0.556ZM0.308,-0.467C0.266,-0.467 0.235,-0.451 0.215,-0.419C0.194,-0.387 0.184,-0.337 0.184,-0.271C0.184,-0.204 0.194,-0.155 0.214,-0.123C0.235,-0.091 0.266,-0.075 0.308,-0.075C0.349,-0.075 0.381,-0.091 0.401,-0.123C0.422,-0.155 0.432,-0.204 0.432,-0.272C0.432,-0.338 0.422,-0.387 0.401,-0.419C0.381,-0.451 0.35,-0.467 0.308,-0.467Z" style="fill-rule:nonzero;"/>
                </g>
                <g transform="matrix(21,0,0,21,865.357,342.599)">
                    <path d="M0.475,-0.555C0.49,-0.555 0.504,-0.554 0.517,-0.552C0.53,-0.549 0.543,-0.546 0.557,-0.542L0.537,-0.342L0.455,-0.342L0.455,-0.452C0.417,-0.451 0.385,-0.436 0.357,-0.407C0.329,-0.378 0.307,-0.337 0.291,-0.283L0.291,-0.082L0.4,-0.082L0.4,-0L0.096,-0L0.096,-0.082L0.176,-0.082L0.176,-0.46L0.096,-0.46L0.096,-0.542L0.264,-0.542L0.285,-0.416C0.305,-0.463 0.331,-0.498 0.361,-0.521C0.392,-0.544 0.43,-0.555 0.475,-0.555Z" style="fill-rule:nonzero;"/>
                </g>
                <g transform="matrix(21,0,0,21,878.28,342.599)">
                    <path d="M0.187,-0.234C0.19,-0.181 0.205,-0.141 0.232,-0.115C0.258,-0.089 0.293,-0.075 0.334,-0.075C0.36,-0.075 0.384,-0.079 0.407,-0.087C0.429,-0.095 0.452,-0.107 0.476,-0.123L0.526,-0.054C0.501,-0.033 0.471,-0.016 0.436,-0.004C0.402,0.008 0.366,0.014 0.329,0.014C0.274,0.014 0.226,0.002 0.187,-0.022C0.148,-0.046 0.118,-0.079 0.098,-0.122C0.078,-0.164 0.068,-0.214 0.068,-0.27C0.068,-0.325 0.078,-0.373 0.098,-0.417C0.118,-0.46 0.146,-0.494 0.184,-0.519C0.221,-0.544 0.265,-0.556 0.315,-0.556C0.362,-0.556 0.404,-0.545 0.439,-0.523C0.474,-0.502 0.501,-0.47 0.52,-0.43C0.539,-0.389 0.548,-0.341 0.548,-0.285C0.548,-0.266 0.547,-0.249 0.546,-0.234L0.187,-0.234ZM0.316,-0.471C0.279,-0.471 0.249,-0.458 0.226,-0.431C0.203,-0.405 0.19,-0.365 0.186,-0.312L0.437,-0.312C0.436,-0.363 0.425,-0.402 0.404,-0.43C0.383,-0.457 0.354,-0.471 0.316,-0.471Z" style="fill-rule:nonzero;"/>
                </g>
                <g transform="matrix(21,0,0,21,891.203,342.599)">
                    <path d="M0.288,-0.074C0.324,-0.074 0.353,-0.081 0.374,-0.094C0.395,-0.106 0.406,-0.124 0.406,-0.147C0.406,-0.162 0.402,-0.175 0.396,-0.185C0.39,-0.195 0.377,-0.204 0.359,-0.213C0.341,-0.222 0.313,-0.231 0.275,-0.241C0.236,-0.25 0.204,-0.262 0.178,-0.275C0.153,-0.287 0.133,-0.304 0.119,-0.324C0.105,-0.345 0.097,-0.37 0.097,-0.401C0.097,-0.431 0.106,-0.458 0.124,-0.482C0.141,-0.505 0.167,-0.523 0.199,-0.536C0.232,-0.549 0.27,-0.556 0.314,-0.556C0.394,-0.556 0.463,-0.535 0.519,-0.493L0.471,-0.421C0.448,-0.436 0.424,-0.448 0.399,-0.456C0.374,-0.465 0.347,-0.469 0.317,-0.469C0.249,-0.469 0.214,-0.449 0.214,-0.409C0.214,-0.395 0.218,-0.384 0.226,-0.375C0.234,-0.366 0.247,-0.358 0.266,-0.351C0.285,-0.343 0.314,-0.334 0.352,-0.323C0.391,-0.312 0.423,-0.3 0.448,-0.287C0.473,-0.274 0.493,-0.257 0.506,-0.236C0.52,-0.215 0.527,-0.188 0.527,-0.154C0.527,-0.117 0.516,-0.086 0.494,-0.061C0.472,-0.035 0.444,-0.016 0.407,-0.004C0.371,0.008 0.332,0.014 0.288,0.014C0.241,0.014 0.198,0.007 0.162,-0.007C0.125,-0.02 0.093,-0.039 0.066,-0.063L0.127,-0.132C0.149,-0.114 0.173,-0.1 0.201,-0.09C0.228,-0.079 0.257,-0.074 0.288,-0.074Z" style="fill-rule:nonzero;"/>
                </g>
                <g transform="matrix(21,0,0,21,904.126,342.599)">
                    <path d="M0.544,-0.029C0.523,-0.016 0.499,-0.005 0.472,0.002C0.444,0.01 0.415,0.014 0.386,0.014C0.344,0.014 0.309,0.006 0.281,-0.008C0.252,-0.023 0.23,-0.044 0.215,-0.07C0.201,-0.097 0.193,-0.128 0.193,-0.164L0.193,-0.458L0.073,-0.458L0.073,-0.542L0.193,-0.542L0.193,-0.663L0.308,-0.676L0.308,-0.542L0.491,-0.542L0.478,-0.458L0.308,-0.458L0.308,-0.165C0.308,-0.136 0.316,-0.114 0.33,-0.1C0.345,-0.086 0.369,-0.079 0.402,-0.079C0.438,-0.079 0.471,-0.088 0.502,-0.105L0.544,-0.029Z" style="fill-rule:nonzero;"/>
                </g>
                <g transform="matrix(21,0,0,21,917.049,342.599)">
                    <path d="M0.308,-0.556C0.36,-0.556 0.404,-0.544 0.441,-0.521C0.478,-0.498 0.505,-0.465 0.524,-0.422C0.543,-0.38 0.552,-0.33 0.552,-0.272C0.552,-0.214 0.543,-0.164 0.524,-0.121C0.504,-0.078 0.477,-0.045 0.44,-0.022C0.403,0.002 0.359,0.014 0.308,0.014C0.256,0.014 0.211,0.002 0.175,-0.021C0.138,-0.043 0.111,-0.076 0.092,-0.119C0.073,-0.162 0.063,-0.212 0.063,-0.271C0.063,-0.327 0.073,-0.377 0.092,-0.42C0.111,-0.463 0.139,-0.496 0.176,-0.52C0.212,-0.544 0.257,-0.556 0.308,-0.556ZM0.308,-0.467C0.266,-0.467 0.235,-0.451 0.215,-0.419C0.194,-0.387 0.184,-0.337 0.184,-0.271C0.184,-0.204 0.194,-0.155 0.214,-0.123C0.235,-0.091 0.266,-0.075 0.308,-0.075C0.349,-0.075 0.381,-0.091 0.401,-0.123C0.422,-0.155 0.432,-0.204 0.432,-0.272C0.432,-0.338 0.422,-0.387 0.401,-0.419C0.381,-0.451 0.35,-0.467 0.308,-0.467Z" style="fill-rule:nonzero;"/>
                </g>
                <g transform="matrix(21,0,0,21,942.895,342.599)">
                    <path d="M0.095,-0.467L0.52,-0.467L0.52,-0.373L0.095,-0.373L0.095,-0.467ZM0.095,-0.265L0.52,-0.265L0.52,-0.171L0.095,-0.171L0.095,-0.265Z" style="fill-rule:nonzero;"/>
                </g>
                <g transform="matrix(21,0,0,21,968.742,342.599)">
                    <path d="M0.409,-0.772L0.524,-0.759L0.524,-0L0.423,-0L0.415,-0.067C0.396,-0.041 0.374,-0.021 0.348,-0.007C0.323,0.007 0.294,0.014 0.263,0.014C0.195,0.014 0.144,-0.012 0.11,-0.062C0.076,-0.113 0.059,-0.183 0.059,-0.271C0.059,-0.326 0.068,-0.375 0.085,-0.418C0.102,-0.461 0.126,-0.495 0.159,-0.519C0.191,-0.544 0.229,-0.556 0.273,-0.556C0.328,-0.556 0.374,-0.536 0.409,-0.497L0.409,-0.772ZM0.303,-0.468C0.263,-0.468 0.233,-0.451 0.212,-0.419C0.191,-0.386 0.181,-0.337 0.181,-0.271C0.181,-0.14 0.218,-0.074 0.293,-0.074C0.338,-0.074 0.376,-0.1 0.409,-0.151L0.409,-0.408C0.396,-0.427 0.38,-0.442 0.362,-0.452C0.344,-0.463 0.325,-0.468 0.303,-0.468Z" style="fill-rule:nonzero;"/>
                </g>
                <g transform="matrix(21,0,0,21,981.665,342.599)">
                    <path d="M0.307,-0.807C0.329,-0.807 0.348,-0.8 0.362,-0.786C0.376,-0.772 0.383,-0.755 0.383,-0.735C0.383,-0.714 0.376,-0.697 0.362,-0.683C0.348,-0.669 0.329,-0.662 0.307,-0.662C0.285,-0.662 0.267,-0.669 0.253,-0.683C0.239,-0.697 0.232,-0.714 0.232,-0.735C0.232,-0.755 0.239,-0.772 0.253,-0.786C0.267,-0.8 0.285,-0.807 0.307,-0.807ZM0.115,-0.542L0.387,-0.542L0.387,-0.084L0.534,-0.084L0.534,-0L0.11,-0L0.11,-0.084L0.272,-0.084L0.272,-0.457L0.115,-0.457L0.115,-0.542Z" style="fill-rule:nonzero;"/>
                </g>
                <g transform="matrix(21,0,0,21,994.588,342.599)">
                    <path d="M0.448,-0.542L0.566,-0.542L0.375,-0L0.241,-0L0.05,-0.542L0.173,-0.542L0.31,-0.095L0.448,-0.542Z" style="fill-rule:nonzero;"/>
                </g>
                <g transform="matrix(21,0,0,21,1007.51,342.599)">
                    <path d="M0.307,-0.807C0.329,-0.807 0.348,-0.8 0.362,-0.786C0.376,-0.772 0.383,-0.755 0.383,-0.735C0.383,-0.714 0.376,-0.697 0.362,-0.683C0.348,-0.669 0.329,-0.662 0.307,-0.662C0.285,-0.662 0.267,-0.669 0.253,-0.683C0.239,-0.697 0.232,-0.714 0.232,-0.735C0.232,-0.755 0.239,-0.772 0.253,-0.786C0.267,-0.8 0.285,-0.807 0.307,-0.807ZM0.115,-0.542L0.387,-0.542L0.387,-0.084L0.534,-0.084L0.534,-0L0.11,-0L0.11,-0.084L0.272,-0.084L0.272,-0.457L0.115,-0.457L0.115,-0.542Z" style="fill-rule:nonzero;"/>
                </g>
                <g transform="matrix(21,0,0,21,1020.43,342.599)">
                    <path d="M0.409,-0.772L0.524,-0.759L0.524,-0L0.423,-0L0.415,-0.067C0.396,-0.041 0.374,-0.021 0.348,-0.007C0.323,0.007 0.294,0.014 0.263,0.014C0.195,0.014 0.144,-0.012 0.11,-0.062C0.076,-0.113 0.059,-0.183 0.059,-0.271C0.059,-0.326 0.068,-0.375 0.085,-0.418C0.102,-0.461 0.126,-0.495 0.159,-0.519C0.191,-0.544 0.229,-0.556 0.273,-0.556C0.328,-0.556 0.374,-0.536 0.409,-0.497L0.409,-0.772ZM0.303,-0.468C0.263,-0.468 0.233,-0.451 0.212,-0.419C0.191,-0.386 0.181,-0.337 0.181,-0.271C0.181,-0.14 0.218,-0.074 0.293,-0.074C0.338,-0.074 0.376,-0.1 0.409,-0.151L0.409,-0.408C0.396,-0.427 0.38,-0.442 0.362,-0.452C0.344,-0.463 0.325,-0.468 0.303,-0.468Z" style="fill-rule:nonzero;"/>
                </g>
                <g transform="matrix(21,0,0,21,1033.36,342.599)">
                    <path d="M0.187,-0.234C0.19,-0.181 0.205,-0.141 0.232,-0.115C0.258,-0.089 0.293,-0.075 0.334,-0.075C0.36,-0.075 0.384,-0.079 0.407,-0.087C0.429,-0.095 0.452,-0.107 0.476,-0.123L0.526,-0.054C0.501,-0.033 0.471,-0.016 0.436,-0.004C0.402,0.008 0.366,0.014 0.329,0.014C0.274,0.014 0.226,0.002 0.187,-0.022C0.148,-0.046 0.118,-0.079 0.098,-0.122C0.078,-0.164 0.068,-0.214 0.068,-0.27C0.068,-0.325 0.078,-0.373 0.098,-0.417C0.118,-0.46 0.146,-0.494 0.184,-0.519C0.221,-0.544 0.265,-0.556 0.315,-0.556C0.362,-0.556 0.404,-0.545 0.439,-0.523C0.474,-0.502 0.501,-0.47 0.52,-0.43C0.539,-0.389 0.548,-0.341 0.548,-0.285C0.548,-0.266 0.547,-0.249 0.546,-0.234L0.187,-0.234ZM0.316,-0.471C0.279,-0.471 0.249,-0.458 0.226,-0.431C0.203,-0.405 0.19,-0.365 0.186,-0.312L0.437,-0.312C0.436,-0.363 0.425,-0.402 0.404,-0.43C0.383,-0.457 0.354,-0.471 0.316,-0.471Z" style="fill-rule:nonzero;"/>
                </g>
                <g transform="matrix(21,0,0,21,1046.28,342.599)">
                    <path d="M0.091,-0L0.091,-0.542L0.19,-0.542L0.199,-0.471C0.221,-0.498 0.248,-0.519 0.278,-0.534C0.309,-0.549 0.341,-0.556 0.374,-0.556C0.424,-0.556 0.461,-0.542 0.487,-0.514C0.512,-0.486 0.525,-0.446 0.525,-0.395L0.525,-0L0.41,-0L0.41,-0.338C0.41,-0.371 0.408,-0.397 0.404,-0.415C0.4,-0.434 0.393,-0.447 0.382,-0.455C0.371,-0.464 0.354,-0.468 0.333,-0.468C0.308,-0.468 0.285,-0.461 0.263,-0.446C0.242,-0.431 0.223,-0.412 0.206,-0.389L0.206,-0L0.091,-0Z" style="fill-rule:nonzero;"/>
                </g>
                <g transform="matrix(21,0,0,21,1059.2,342.599)">
                    <path d="M0.409,-0.772L0.524,-0.759L0.524,-0L0.423,-0L0.415,-0.067C0.396,-0.041 0.374,-0.021 0.348,-0.007C0.323,0.007 0.294,0.014 0.263,0.014C0.195,0.014 0.144,-0.012 0.11,-0.062C0.076,-0.113 0.059,-0.183 0.059,-0.271C0.059,-0.326 0.068,-0.375 0.085,-0.418C0.102,-0.461 0.126,-0.495 0.159,-0.519C0.191,-0.544 0.229,-0.556 0.273,-0.556C0.328,-0.556 0.374,-0.536 0.409,-0.497L0.409,-0.772ZM0.303,-0.468C0.263,-0.468 0.233,-0.451 0.212,-0.419C0.191,-0.386 0.181,-0.337 0.181,-0.271C0.181,-0.14 0.218,-0.074 0.293,-0.074C0.338,-0.074 0.376,-0.1 0.409,-0.151L0.409,-0.408C0.396,-0.427 0.38,-0.442 0.362,-0.452C0.344,-0.463 0.325,-0.468 0.303,-0.468Z" style="fill-rule:nonzero;"/>
                </g>
                <g transform="matrix(21,0,0,21,1072.13,342.599)">
                    <path d="M0.308,-0.556C0.36,-0.556 0.404,-0.544 0.441,-0.521C0.478,-0.498 0.505,-0.465 0.524,-0.422C0.543,-0.38 0.552,-0.33 0.552,-0.272C0.552,-0.214 0.543,-0.164 0.524,-0.121C0.504,-0.078 0.477,-0.045 0.44,-0.022C0.403,0.002 0.359,0.014 0.308,0.014C0.256,0.014 0.211,0.002 0.175,-0.021C0.138,-0.043 0.111,-0.076 0.092,-0.119C0.073,-0.162 0.063,-0.212 0.063,-0.271C0.063,-0.327 0.073,-0.377 0.092,-0.42C0.111,-0.463 0.139,-0.496 0.176,-0.52C0.212,-0.544 0.257,-0.556 0.308,-0.556ZM0.308,-0.467C0.266,-0.467 0.235,-0.451 0.215,-0.419C0.194,-0.387 0.184,-0.337 0.184,-0.271C0.184,-0.204 0.194,-0.155 0.214,-0.123C0.235,-0.091 0.266,-0.075 0.308,-0.075C0.349,-0.075 0.381,-0.091 0.401,-0.123C0.422,-0.155 0.432,-0.204 0.432,-0.272C0.432,-0.338 0.422,-0.387 0.401,-0.419C0.381,-0.451 0.35,-0.467 0.308,-0.467Z" style="fill-rule:nonzero;"/>
                </g>
                <g transform="matrix(21,0,0,21,1097.97,342.599)">
                    <path d="M0.087,-0.006L0.436,-0.734L0.523,-0.698L0.172,0.03L0.087,-0.006ZM0.15,-0.729C0.18,-0.729 0.206,-0.722 0.228,-0.709C0.25,-0.696 0.267,-0.677 0.278,-0.653C0.29,-0.629 0.296,-0.6 0.296,-0.568C0.296,-0.536 0.29,-0.507 0.278,-0.483C0.267,-0.459 0.25,-0.441 0.228,-0.427C0.206,-0.414 0.18,-0.408 0.15,-0.408C0.12,-0.408 0.094,-0.414 0.072,-0.427C0.049,-0.441 0.033,-0.459 0.021,-0.483C0.009,-0.507 0.004,-0.536 0.004,-0.568C0.004,-0.599 0.009,-0.627 0.021,-0.651C0.033,-0.675 0.05,-0.695 0.072,-0.708C0.094,-0.722 0.12,-0.729 0.15,-0.729ZM0.15,-0.649C0.134,-0.649 0.123,-0.643 0.118,-0.629C0.112,-0.616 0.109,-0.595 0.109,-0.568C0.109,-0.541 0.112,-0.521 0.118,-0.508C0.125,-0.494 0.135,-0.487 0.15,-0.487C0.166,-0.487 0.177,-0.494 0.183,-0.507C0.188,-0.52 0.191,-0.54 0.191,-0.568C0.191,-0.597 0.188,-0.618 0.183,-0.63C0.177,-0.643 0.166,-0.649 0.15,-0.649ZM0.465,-0.315C0.495,-0.315 0.521,-0.308 0.543,-0.295C0.565,-0.282 0.582,-0.263 0.593,-0.239C0.605,-0.215 0.611,-0.186 0.611,-0.154C0.611,-0.122 0.605,-0.094 0.593,-0.069C0.582,-0.045 0.565,-0.027 0.543,-0.014C0.521,-0 0.495,0.006 0.465,0.006C0.435,0.006 0.408,-0 0.386,-0.014C0.364,-0.027 0.348,-0.045 0.336,-0.069C0.324,-0.094 0.318,-0.122 0.318,-0.154C0.318,-0.185 0.324,-0.213 0.336,-0.237C0.348,-0.262 0.364,-0.281 0.387,-0.294C0.409,-0.308 0.435,-0.315 0.465,-0.315ZM0.465,-0.235C0.449,-0.235 0.438,-0.229 0.433,-0.215C0.427,-0.202 0.424,-0.182 0.424,-0.154C0.424,-0.128 0.427,-0.108 0.433,-0.094C0.439,-0.08 0.45,-0.073 0.465,-0.073C0.481,-0.073 0.492,-0.08 0.498,-0.093C0.503,-0.106 0.506,-0.126 0.506,-0.154C0.506,-0.183 0.503,-0.204 0.498,-0.216C0.492,-0.229 0.481,-0.235 0.465,-0.235Z" style="fill-rule:nonzero;"/>
                </g>
                <g transform="matrix(21,0,0,21,1123.82,342.599)">
                    <path d="M0.409,-0.772L0.524,-0.759L0.524,-0L0.423,-0L0.415,-0.067C0.396,-0.041 0.374,-0.021 0.348,-0.007C0.323,0.007 0.294,0.014 0.263,0.014C0.195,0.014 0.144,-0.012 0.11,-0.062C0.076,-0.113 0.059,-0.183 0.059,-0.271C0.059,-0.326 0.068,-0.375 0.085,-0.418C0.102,-0.461 0.126,-0.495 0.159,-0.519C0.191,-0.544 0.229,-0.556 0.273,-0.556C0.328,-0.556 0.374,-0.536 0.409,-0.497L0.409,-0.772ZM0.303,-0.468C0.263,-0.468 0.233,-0.451 0.212,-0.419C0.191,-0.386 0.181,-0.337 0.181,-0.271C0.181,-0.14 0.218,-0.074 0.293,-0.074C0.338,-0.074 0.376,-0.1 0.409,-0.151L0.409,-0.408C0.396,-0.427 0.38,-0.442 0.362,-0.452C0.344,-0.463 0.325,-0.468 0.303,-0.468Z" style="fill-rule:nonzero;"/>
                </g>
                <g transform="matrix(21,0,0,21,1136.74,342.599)">
                    <path d="M0.307,-0.807C0.329,-0.807 0.348,-0.8 0.362,-0.786C0.376,-0.772 0.383,-0.755 0.383,-0.735C0.383,-0.714 0.376,-0.697 0.362,-0.683C0.348,-0.669 0.329,-0.662 0.307,-0.662C0.285,-0.662 0.267,-0.669 0.253,-0.683C0.239,-0.697 0.232,-0.714 0.232,-0.735C0.232,-0.755 0.239,-0.772 0.253,-0.786C0.267,-0.8 0.285,-0.807 0.307,-0.807ZM0.115,-0.542L0.387,-0.542L0.387,-0.084L0.534,-0.084L0.534,-0L0.11,-0L0.11,-0.084L0.272,-0.084L0.272,-0.457L0.115,-0.457L0.115,-0.542Z" style="fill-rule:nonzero;"/>
                </g>
                <g transform="matrix(21,0,0,21,1149.66,342.599)">
                    <path d="M0.448,-0.542L0.566,-0.542L0.375,-0L0.241,-0L0.05,-0.542L0.173,-0.542L0.31,-0.095L0.448,-0.542Z" style="fill-rule:nonzero;"/>
                </g>
                <g transform="matrix(21,0,0,21,1162.59,342.599)">
                    <path d="M0.307,-0.807C0.329,-0.807 0.348,-0.8 0.362,-0.786C0.376,-0.772 0.383,-0.755 0.383,-0.735C0.383,-0.714 0.376,-0.697 0.362,-0.683C0.348,-0.669 0.329,-0.662 0.307,-0.662C0.285,-0.662 0.267,-0.669 0.253,-0.683C0.239,-0.697 0.232,-0.714 0.232,-0.735C0.232,-0.755 0.239,-0.772 0.253,-0.786C0.267,-0.8 0.285,-0.807 0.307,-0.807ZM0.115,-0.542L0.387,-0.542L0.387,-0.084L0.534,-0.084L0.534,-0L0.11,-0L0.11,-0.084L0.272,-0.084L0.272,-0.457L0.115,-0.457L0.115,-0.542Z" style="fill-rule:nonzero;"/>
                </g>
                <g transform="matrix(21,0,0,21,1175.51,342.599)">
                    <path d="M0.288,-0.074C0.324,-0.074 0.353,-0.081 0.374,-0.094C0.395,-0.106 0.406,-0.124 0.406,-0.147C0.406,-0.162 0.402,-0.175 0.396,-0.185C0.39,-0.195 0.377,-0.204 0.359,-0.213C0.341,-0.222 0.313,-0.231 0.275,-0.241C0.236,-0.25 0.204,-0.262 0.178,-0.275C0.153,-0.287 0.133,-0.304 0.119,-0.324C0.105,-0.345 0.097,-0.37 0.097,-0.401C0.097,-0.431 0.106,-0.458 0.124,-0.482C0.141,-0.505 0.167,-0.523 0.199,-0.536C0.232,-0.549 0.27,-0.556 0.314,-0.556C0.394,-0.556 0.463,-0.535 0.519,-0.493L0.471,-0.421C0.448,-0.436 0.424,-0.448 0.399,-0.456C0.374,-0.465 0.347,-0.469 0.317,-0.469C0.249,-0.469 0.214,-0.449 0.214,-0.409C0.214,-0.395 0.218,-0.384 0.226,-0.375C0.234,-0.366 0.247,-0.358 0.266,-0.351C0.285,-0.343 0.314,-0.334 0.352,-0.323C0.391,-0.312 0.423,-0.3 0.448,-0.287C0.473,-0.274 0.493,-0.257 0.506,-0.236C0.52,-0.215 0.527,-0.188 0.527,-0.154C0.527,-0.117 0.516,-0.086 0.494,-0.061C0.472,-0.035 0.444,-0.016 0.407,-0.004C0.371,0.008 0.332,0.014 0.288,0.014C0.241,0.014 0.198,0.007 0.162,-0.007C0.125,-0.02 0.093,-0.039 0.066,-0.063L0.127,-0.132C0.149,-0.114 0.173,-0.1 0.201,-0.09C0.228,-0.079 0.257,-0.074 0.288,-0.074Z" style="fill-rule:nonzero;"/>
                </g>
                <g transform="matrix(21,0,0,21,1188.43,342.599)">
                    <path d="M0.308,-0.556C0.36,-0.556 0.404,-0.544 0.441,-0.521C0.478,-0.498 0.505,-0.465 0.524,-0.422C0.543,-0.38 0.552,-0.33 0.552,-0.272C0.552,-0.214 0.543,-0.164 0.524,-0.121C0.504,-0.078 0.477,-0.045 0.44,-0.022C0.403,0.002 0.359,0.014 0.308,0.014C0.256,0.014 0.211,0.002 0.175,-0.021C0.138,-0.043 0.111,-0.076 0.092,-0.119C0.073,-0.162 0.063,-0.212 0.063,-0.271C0.063,-0.327 0.073,-0.377 0.092,-0.42C0.111,-0.463 0.139,-0.496 0.176,-0.52C0.212,-0.544 0.257,-0.556 0.308,-0.556ZM0.308,-0.467C0.266,-0.467 0.235,-0.451 0.215,-0.419C0.194,-0.387 0.184,-0.337 0.184,-0.271C0.184,-0.204 0.194,-0.155 0.214,-0.123C0.235,-0.091 0.266,-0.075 0.308,-0.075C0.349,-0.075 0.381,-0.091 0.401,-0.123C0.422,-0.155 0.432,-0.204 0.432,-0.272C0.432,-0.338 0.422,-0.387 0.401,-0.419C0.381,-0.451 0.35,-0.467 0.308,-0.467Z" style="fill-rule:nonzero;"/>
                </g>
                <g transform="matrix(21,0,0,21,1201.36,342.599)">
                    <path d="M0.475,-0.555C0.49,-0.555 0.504,-0.554 0.517,-0.552C0.53,-0.549 0.543,-0.546 0.557,-0.542L0.537,-0.342L0.455,-0.342L0.455,-0.452C0.417,-0.451 0.385,-0.436 0.357,-0.407C0.329,-0.378 0.307,-0.337 0.291,-0.283L0.291,-0.082L0.4,-0.082L0.4,-0L0.096,-0L0.096,-0.082L0.176,-0.082L0.176,-0.46L0.096,-0.46L0.096,-0.542L0.264,-0.542L0.285,-0.416C0.305,-0.463 0.331,-0.498 0.361,-0.521C0.392,-0.544 0.43,-0.555 0.475,-0.555Z" style="fill-rule:nonzero;"/>
                </g>
            </g>
        </g>
        <g transform="matrix(2.31497,0,0,4.98222,-922.813,-2270.56)">
            <circle cx="540" cy="592" r="23" style="fill:rgb(131,253,130);"/>
        </g>
        <g transform="matrix(1.81818,0,0,3.91304,-770.909,-837.391)">
            <g transform="matrix(50,0,0,50,563,340.815)">
                <path d="M0.373,-0L0.285,-0L0.285,-0.56C0.264,-0.54 0.236,-0.52 0.201,-0.5C0.167,-0.479 0.136,-0.464 0.109,-0.454L0.109,-0.539C0.158,-0.562 0.201,-0.59 0.238,-0.623C0.275,-0.656 0.301,-0.688 0.316,-0.719L0.373,-0.719L0.373,-0Z" style="fill-rule:nonzero;"/>
            </g>
            <g transform="matrix(50,0,0,50,590.808,340.815)">
                <path d="M0.047,-0.622L0.047,-0.707L0.511,-0.707L0.511,-0.638C0.465,-0.59 0.42,-0.525 0.375,-0.445C0.33,-0.364 0.296,-0.282 0.271,-0.197C0.254,-0.137 0.243,-0.071 0.238,-0L0.147,-0C0.148,-0.056 0.16,-0.124 0.181,-0.204C0.202,-0.284 0.232,-0.361 0.272,-0.435C0.311,-0.509 0.353,-0.571 0.398,-0.622L0.047,-0.622Z" style="fill-rule:nonzero;"/>
            </g>
            <g transform="matrix(50,0,0,50,660.29,340.815)">
                <path d="M0.042,-0.188L0.134,-0.195C0.141,-0.15 0.156,-0.117 0.181,-0.094C0.206,-0.071 0.236,-0.06 0.271,-0.06C0.314,-0.06 0.35,-0.076 0.379,-0.108C0.408,-0.14 0.423,-0.182 0.423,-0.235C0.423,-0.285 0.409,-0.325 0.381,-0.354C0.352,-0.382 0.316,-0.397 0.27,-0.397C0.242,-0.397 0.216,-0.391 0.193,-0.378C0.171,-0.365 0.153,-0.348 0.14,-0.328L0.057,-0.338L0.126,-0.706L0.482,-0.706L0.482,-0.622L0.197,-0.622L0.158,-0.43C0.201,-0.46 0.246,-0.475 0.293,-0.475C0.356,-0.475 0.409,-0.453 0.452,-0.41C0.495,-0.366 0.516,-0.311 0.516,-0.243C0.516,-0.178 0.497,-0.122 0.459,-0.075C0.414,-0.017 0.351,0.012 0.271,0.012C0.206,0.012 0.153,-0.006 0.112,-0.042C0.071,-0.079 0.047,-0.127 0.042,-0.188Z" style="fill-rule:nonzero;"/>
            </g>
            <g transform="matrix(50,0,0,50,590.783,404.451)">
                <path d="M0.503,-0.084L0.503,-0L0.03,-0C0.03,-0.021 0.033,-0.042 0.041,-0.061C0.053,-0.093 0.072,-0.125 0.098,-0.156C0.125,-0.188 0.163,-0.224 0.213,-0.265C0.291,-0.328 0.344,-0.379 0.371,-0.416C0.398,-0.454 0.412,-0.489 0.412,-0.522C0.412,-0.557 0.4,-0.586 0.375,-0.61C0.35,-0.634 0.317,-0.646 0.277,-0.646C0.235,-0.646 0.201,-0.633 0.176,-0.608C0.15,-0.583 0.138,-0.547 0.137,-0.502L0.047,-0.512C0.053,-0.579 0.076,-0.63 0.117,-0.666C0.157,-0.701 0.211,-0.719 0.279,-0.719C0.348,-0.719 0.402,-0.7 0.442,-0.662C0.482,-0.624 0.502,-0.576 0.502,-0.52C0.502,-0.491 0.497,-0.463 0.485,-0.436C0.473,-0.408 0.454,-0.379 0.427,-0.348C0.399,-0.318 0.354,-0.276 0.291,-0.222C0.238,-0.178 0.204,-0.148 0.189,-0.132C0.174,-0.116 0.162,-0.1 0.152,-0.084L0.503,-0.084Z" style="fill-rule:nonzero;"/>
            </g>
            <g transform="matrix(50,0,0,50,660.266,404.451)">
                <path d="M0.042,-0.189L0.13,-0.201C0.14,-0.151 0.157,-0.115 0.181,-0.093C0.206,-0.071 0.235,-0.06 0.27,-0.06C0.311,-0.06 0.346,-0.074 0.375,-0.103C0.403,-0.132 0.417,-0.167 0.417,-0.209C0.417,-0.25 0.404,-0.283 0.378,-0.309C0.352,-0.336 0.318,-0.349 0.277,-0.349C0.261,-0.349 0.24,-0.345 0.215,-0.339L0.225,-0.416C0.231,-0.415 0.236,-0.415 0.239,-0.415C0.277,-0.415 0.31,-0.425 0.34,-0.444C0.37,-0.464 0.385,-0.494 0.385,-0.535C0.385,-0.567 0.374,-0.594 0.353,-0.615C0.331,-0.636 0.303,-0.646 0.268,-0.646C0.234,-0.646 0.205,-0.636 0.183,-0.614C0.16,-0.593 0.145,-0.561 0.139,-0.518L0.051,-0.533C0.062,-0.592 0.086,-0.638 0.124,-0.67C0.162,-0.703 0.209,-0.719 0.266,-0.719C0.305,-0.719 0.341,-0.71 0.374,-0.694C0.407,-0.677 0.432,-0.654 0.449,-0.625C0.467,-0.596 0.476,-0.565 0.476,-0.533C0.476,-0.502 0.467,-0.474 0.451,-0.448C0.434,-0.423 0.41,-0.403 0.377,-0.388C0.419,-0.378 0.452,-0.358 0.476,-0.327C0.499,-0.296 0.511,-0.258 0.511,-0.211C0.511,-0.149 0.488,-0.096 0.442,-0.052C0.397,-0.009 0.339,0.013 0.27,0.013C0.207,0.013 0.155,-0.006 0.113,-0.043C0.072,-0.081 0.048,-0.129 0.042,-0.189Z" style="fill-rule:nonzero;"/>
            </g>
        </g>
        <g transform="matrix(1.81818,0,0,3.16604,-770.909,-572.953)">
            <path d="M641,288L641,354L737,354" style="fill:none;stroke:black;stroke-width:4.4px;"/>
        </g>
        <g transform="matrix(1.81818,0,0,3.91304,-483.636,-649.565)">
            <g transform="matrix(25.1288,0,0,25.1288,281,201)">
                <path d="M0.381,-0.656C0.382,-0.608 0.382,-0.572 0.382,-0.549C0.382,-0.525 0.382,-0.489 0.381,-0.441C0.38,-0.393 0.38,-0.357 0.38,-0.333C0.38,-0.206 0.384,-0.1 0.393,-0.015C0.394,-0.006 0.391,0.002 0.386,0.009C0.38,0.016 0.373,0.02 0.364,0.021C0.355,0.022 0.347,0.019 0.34,0.014C0.333,0.008 0.328,0 0.327,-0.009C0.325,-0.026 0.323,-0.044 0.322,-0.063C0.313,-0.053 0.304,-0.044 0.295,-0.035C0.252,0.005 0.201,0.015 0.142,-0.005C0.087,-0.023 0.054,-0.07 0.043,-0.146C0.034,-0.207 0.041,-0.27 0.063,-0.337C0.087,-0.408 0.121,-0.455 0.165,-0.476C0.192,-0.489 0.22,-0.491 0.249,-0.48C0.272,-0.471 0.294,-0.455 0.315,-0.43C0.316,-0.532 0.316,-0.607 0.315,-0.654C0.315,-0.663 0.318,-0.671 0.325,-0.678C0.331,-0.685 0.339,-0.688 0.348,-0.688C0.357,-0.688 0.364,-0.685 0.371,-0.679C0.378,-0.672 0.381,-0.665 0.381,-0.656ZM0.314,-0.303C0.293,-0.343 0.28,-0.367 0.274,-0.374C0.257,-0.397 0.241,-0.412 0.225,-0.418C0.214,-0.422 0.204,-0.422 0.194,-0.417C0.167,-0.404 0.144,-0.37 0.126,-0.316C0.107,-0.259 0.101,-0.205 0.108,-0.155C0.115,-0.106 0.133,-0.077 0.162,-0.067C0.197,-0.056 0.226,-0.061 0.251,-0.083C0.275,-0.105 0.297,-0.137 0.316,-0.179C0.315,-0.216 0.314,-0.257 0.314,-0.302L0.314,-0.303Z" style="fill-rule:nonzero;"/>
            </g>
            <g transform="matrix(25.1288,0,0,25.1288,291.052,201)">
                <path d="M0.108,-0.455C0.113,-0.395 0.114,-0.32 0.112,-0.23C0.109,-0.09 0.107,-0.017 0.107,-0.01C0.107,-0.001 0.104,0.007 0.098,0.014C0.091,0.02 0.083,0.023 0.074,0.023C0.065,0.023 0.057,0.02 0.051,0.014C0.044,0.007 0.041,-0.001 0.041,-0.01C0.041,-0.013 0.043,-0.087 0.046,-0.232C0.048,-0.313 0.047,-0.386 0.042,-0.449C0.041,-0.458 0.044,-0.467 0.05,-0.474C0.056,-0.481 0.064,-0.484 0.073,-0.485C0.082,-0.486 0.09,-0.483 0.097,-0.477C0.103,-0.471 0.107,-0.464 0.108,-0.455ZM0.094,-0.646C0.101,-0.64 0.104,-0.632 0.104,-0.623C0.104,-0.614 0.101,-0.606 0.095,-0.6C0.088,-0.593 0.08,-0.59 0.071,-0.59C0.062,-0.59 0.054,-0.593 0.048,-0.6C0.041,-0.606 0.038,-0.614 0.038,-0.623C0.038,-0.632 0.041,-0.64 0.048,-0.647C0.054,-0.653 0.062,-0.656 0.071,-0.656C0.08,-0.656 0.088,-0.653 0.094,-0.646Z" style="fill-rule:nonzero;"/>
            </g>
            <g transform="matrix(25.1288,0,0,25.1288,294.394,201)">
                <path d="M0.076,-0.468C0.096,-0.361 0.112,-0.282 0.125,-0.232C0.138,-0.181 0.152,-0.14 0.165,-0.108C0.181,-0.07 0.191,-0.049 0.196,-0.044C0.201,-0.047 0.206,-0.055 0.212,-0.066C0.219,-0.078 0.228,-0.099 0.239,-0.13C0.286,-0.257 0.32,-0.371 0.343,-0.47C0.345,-0.479 0.35,-0.486 0.358,-0.491C0.365,-0.496 0.374,-0.497 0.383,-0.495C0.392,-0.493 0.398,-0.488 0.403,-0.481C0.408,-0.473 0.409,-0.465 0.407,-0.456C0.383,-0.352 0.348,-0.236 0.301,-0.108C0.288,-0.073 0.278,-0.049 0.27,-0.034C0.259,-0.015 0.248,-0 0.235,0.009C0.212,0.026 0.189,0.027 0.167,0.011C0.144,-0.006 0.123,-0.037 0.104,-0.082C0.089,-0.117 0.075,-0.162 0.061,-0.215C0.048,-0.267 0.031,-0.347 0.012,-0.456C0.01,-0.465 0.012,-0.473 0.017,-0.481C0.022,-0.488 0.029,-0.493 0.038,-0.495C0.047,-0.496 0.055,-0.494 0.063,-0.489C0.07,-0.484 0.075,-0.477 0.076,-0.468Z" style="fill-rule:nonzero;"/>
            </g>
            <g transform="matrix(25.1288,0,0,25.1288,304.445,201)">
                <path d="M0.108,-0.455C0.113,-0.395 0.114,-0.32 0.112,-0.23C0.109,-0.09 0.107,-0.017 0.107,-0.01C0.107,-0.001 0.104,0.007 0.098,0.014C0.091,0.02 0.083,0.023 0.074,0.023C0.065,0.023 0.057,0.02 0.051,0.014C0.044,0.007 0.041,-0.001 0.041,-0.01C0.041,-0.013 0.043,-0.087 0.046,-0.232C0.048,-0.313 0.047,-0.386 0.042,-0.449C0.041,-0.458 0.044,-0.467 0.05,-0.474C0.056,-0.481 0.064,-0.484 0.073,-0.485C0.082,-0.486 0.09,-0.483 0.097,-0.477C0.103,-0.471 0.107,-0.464 0.108,-0.455ZM0.094,-0.646C0.101,-0.64 0.104,-0.632 0.104,-0.623C0.104,-0.614 0.101,-0.606 0.095,-0.6C0.088,-0.593 0.08,-0.59 0.071,-0.59C0.062,-0.59 0.054,-0.593 0.048,-0.6C0.041,-0.606 0.038,-0.614 0.038,-0.623C0.038,-0.632 0.041,-0.64 0.048,-0.647C0.054,-0.653 0.062,-0.656 0.071,-0.656C0.08,-0.656 0.088,-0.653 0.094,-0.646Z" style="fill-rule:nonzero;"/>
            </g>
            <g transform="matrix(25.1288,0,0,25.1288,307.787,201)">
                <path d="M0.381,-0.656C0.382,-0.608 0.382,-0.572 0.382,-0.549C0.382,-0.525 0.382,-0.489 0.381,-0.441C0.38,-0.393 0.38,-0.357 0.38,-0.333C0.38,-0.206 0.384,-0.1 0.393,-0.015C0.394,-0.006 0.391,0.002 0.386,0.009C0.38,0.016 0.373,0.02 0.364,0.021C0.355,0.022 0.347,0.019 0.34,0.014C0.333,0.008 0.328,0 0.327,-0.009C0.325,-0.026 0.323,-0.044 0.322,-0.063C0.313,-0.053 0.304,-0.044 0.295,-0.035C0.252,0.005 0.201,0.015 0.142,-0.005C0.087,-0.023 0.054,-0.07 0.043,-0.146C0.034,-0.207 0.041,-0.27 0.063,-0.337C0.087,-0.408 0.121,-0.455 0.165,-0.476C0.192,-0.489 0.22,-0.491 0.249,-0.48C0.272,-0.471 0.294,-0.455 0.315,-0.43C0.316,-0.532 0.316,-0.607 0.315,-0.654C0.315,-0.663 0.318,-0.671 0.325,-0.678C0.331,-0.685 0.339,-0.688 0.348,-0.688C0.357,-0.688 0.364,-0.685 0.371,-0.679C0.378,-0.672 0.381,-0.665 0.381,-0.656ZM0.314,-0.303C0.293,-0.343 0.28,-0.367 0.274,-0.374C0.257,-0.397 0.241,-0.412 0.225,-0.418C0.214,-0.422 0.204,-0.422 0.194,-0.417C0.167,-0.404 0.144,-0.37 0.126,-0.316C0.107,-0.259 0.101,-0.205 0.108,-0.155C0.115,-0.106 0.133,-0.077 0.162,-0.067C0.197,-0.056 0.226,-0.061 0.251,-0.083C0.275,-0.105 0.297,-0.137 0.316,-0.179C0.315,-0.216 0.314,-0.257 0.314,-0.302L0.314,-0.303Z" style="fill-rule:nonzero;"/>
            </g>
            <g transform="matrix(25.1288,0,0,25.1288,317.839,201)">
                <path d="M0.288,-0.335C0.292,-0.336 0.298,-0.336 0.306,-0.337C0.303,-0.352 0.297,-0.367 0.287,-0.384C0.276,-0.402 0.265,-0.416 0.252,-0.427C0.239,-0.438 0.228,-0.443 0.219,-0.443C0.191,-0.443 0.166,-0.425 0.144,-0.389C0.134,-0.372 0.125,-0.353 0.118,-0.332C0.153,-0.331 0.184,-0.331 0.211,-0.332C0.245,-0.333 0.271,-0.334 0.288,-0.335ZM0.104,-0.263L0.102,-0.246C0.098,-0.189 0.106,-0.143 0.127,-0.107C0.147,-0.07 0.177,-0.052 0.216,-0.051C0.237,-0.05 0.254,-0.053 0.267,-0.06C0.28,-0.067 0.298,-0.08 0.319,-0.1C0.324,-0.105 0.329,-0.11 0.334,-0.117C0.339,-0.124 0.344,-0.13 0.348,-0.135L0.362,-0.159L0.375,-0.18C0.38,-0.188 0.388,-0.193 0.397,-0.195C0.406,-0.196 0.414,-0.195 0.422,-0.19C0.429,-0.185 0.434,-0.177 0.436,-0.168C0.437,-0.159 0.436,-0.15 0.431,-0.143C0.43,-0.142 0.425,-0.136 0.418,-0.125L0.402,-0.099C0.397,-0.092 0.391,-0.083 0.384,-0.074C0.377,-0.064 0.37,-0.056 0.363,-0.051C0.338,-0.027 0.314,-0.01 0.293,0.001C0.272,0.012 0.245,0.017 0.214,0.016C0.179,0.015 0.15,0.006 0.125,-0.011C0.099,-0.028 0.081,-0.05 0.068,-0.077C0.055,-0.103 0.046,-0.132 0.041,-0.161C0.036,-0.19 0.034,-0.221 0.037,-0.252C0.042,-0.318 0.059,-0.375 0.088,-0.423C0.123,-0.481 0.167,-0.51 0.219,-0.509C0.245,-0.509 0.269,-0.5 0.29,-0.481C0.311,-0.462 0.329,-0.441 0.344,-0.416C0.357,-0.393 0.366,-0.371 0.371,-0.35C0.374,-0.338 0.375,-0.327 0.374,-0.317C0.372,-0.302 0.365,-0.29 0.354,-0.281C0.347,-0.276 0.338,-0.273 0.325,-0.27C0.317,-0.269 0.306,-0.267 0.293,-0.266C0.274,-0.265 0.247,-0.264 0.212,-0.263C0.183,-0.262 0.147,-0.262 0.104,-0.263Z" style="fill-rule:nonzero;"/>
            </g>
            <g transform="matrix(25.1288,0,0,25.1288,328.695,201)">
                <path d="M0.102,-0.305C0.113,-0.326 0.125,-0.345 0.138,-0.363C0.167,-0.406 0.197,-0.438 0.227,-0.458C0.269,-0.486 0.308,-0.489 0.345,-0.467C0.369,-0.453 0.388,-0.423 0.402,-0.376C0.413,-0.342 0.421,-0.299 0.427,-0.246C0.436,-0.169 0.439,-0.092 0.438,-0.015C0.438,-0.006 0.435,0.001 0.428,0.008C0.421,0.014 0.413,0.017 0.405,0.017C0.396,0.017 0.388,0.014 0.382,0.007C0.375,0 0.372,-0.008 0.372,-0.017C0.373,-0.088 0.37,-0.162 0.361,-0.238C0.356,-0.288 0.348,-0.327 0.339,-0.356C0.33,-0.387 0.32,-0.405 0.311,-0.411C0.298,-0.418 0.282,-0.416 0.263,-0.403C0.241,-0.388 0.217,-0.362 0.192,-0.325C0.17,-0.292 0.151,-0.258 0.134,-0.222C0.117,-0.185 0.108,-0.158 0.106,-0.141C0.104,-0.129 0.103,-0.112 0.102,-0.09C0.101,-0.063 0.1,-0.044 0.099,-0.033C0.099,-0.032 0.099,-0.03 0.098,-0.029L0.098,-0.027C0.098,-0.024 0.097,-0.022 0.096,-0.019C0.094,-0.016 0.092,-0.013 0.089,-0.01C0.08,-0.001 0.07,0.002 0.058,-0.001C0.049,-0.003 0.042,-0.008 0.037,-0.016C0.036,-0.019 0.035,-0.021 0.034,-0.024L0.033,-0.031C0.032,-0.032 0.032,-0.033 0.032,-0.035C0.032,-0.037 0.032,-0.042 0.033,-0.049C0.034,-0.071 0.034,-0.083 0.034,-0.085C0.034,-0.094 0.035,-0.112 0.036,-0.141C0.037,-0.169 0.037,-0.191 0.037,-0.207L0.037,-0.25C0.037,-0.273 0.037,-0.288 0.037,-0.296C0.036,-0.304 0.036,-0.318 0.035,-0.337C0.034,-0.356 0.034,-0.372 0.033,-0.383C0.032,-0.394 0.03,-0.407 0.029,-0.422C0.027,-0.437 0.025,-0.452 0.022,-0.465C0.02,-0.474 0.022,-0.482 0.027,-0.49C0.032,-0.497 0.039,-0.502 0.048,-0.504C0.056,-0.505 0.065,-0.503 0.073,-0.499C0.08,-0.494 0.085,-0.486 0.086,-0.477C0.095,-0.432 0.101,-0.374 0.102,-0.305Z" style="fill-rule:nonzero;"/>
            </g>
            <g transform="matrix(25.1288,0,0,25.1288,339.801,201)">
                <path d="M0.381,-0.656C0.382,-0.608 0.382,-0.572 0.382,-0.549C0.382,-0.525 0.382,-0.489 0.381,-0.441C0.38,-0.393 0.38,-0.357 0.38,-0.333C0.38,-0.206 0.384,-0.1 0.393,-0.015C0.394,-0.006 0.391,0.002 0.386,0.009C0.38,0.016 0.373,0.02 0.364,0.021C0.355,0.022 0.347,0.019 0.34,0.014C0.333,0.008 0.328,0 0.327,-0.009C0.325,-0.026 0.323,-0.044 0.322,-0.063C0.313,-0.053 0.304,-0.044 0.295,-0.035C0.252,0.005 0.201,0.015 0.142,-0.005C0.087,-0.023 0.054,-0.07 0.043,-0.146C0.034,-0.207 0.041,-0.27 0.063,-0.337C0.087,-0.408 0.121,-0.455 0.165,-0.476C0.192,-0.489 0.22,-0.491 0.249,-0.48C0.272,-0.471 0.294,-0.455 0.315,-0.43C0.316,-0.532 0.316,-0.607 0.315,-0.654C0.315,-0.663 0.318,-0.671 0.325,-0.678C0.331,-0.685 0.339,-0.688 0.348,-0.688C0.357,-0.688 0.364,-0.685 0.371,-0.679C0.378,-0.672 0.381,-0.665 0.381,-0.656ZM0.314,-0.303C0.293,-0.343 0.28,-0.367 0.274,-0.374C0.257,-0.397 0.241,-0.412 0.225,-0.418C0.214,-0.422 0.204,-0.422 0.194,-0.417C0.167,-0.404 0.144,-0.37 0.126,-0.316C0.107,-0.259 0.101,-0.205 0.108,-0.155C0.115,-0.106 0.133,-0.077 0.162,-0.067C0.197,-0.056 0.226,-0.061 0.251,-0.083C0.275,-0.105 0.297,-0.137 0.316,-0.179C0.315,-0.216 0.314,-0.257 0.314,-0.302L0.314,-0.303Z" style="fill-rule:nonzero;"/>
            </g>
            <g transform="matrix(25.1288,0,0,25.1288,349.853,201)">
                <path d="M0.246,-0.429L0.231,-0.433C0.227,-0.434 0.224,-0.435 0.222,-0.435C0.196,-0.434 0.172,-0.418 0.15,-0.388C0.127,-0.357 0.111,-0.319 0.102,-0.272C0.094,-0.225 0.096,-0.182 0.107,-0.144C0.118,-0.105 0.138,-0.079 0.166,-0.064C0.201,-0.047 0.233,-0.05 0.262,-0.074C0.293,-0.099 0.315,-0.137 0.328,-0.188C0.34,-0.237 0.339,-0.284 0.326,-0.329C0.312,-0.374 0.285,-0.407 0.246,-0.429ZM0.27,-0.491C0.275,-0.49 0.279,-0.487 0.282,-0.484C0.31,-0.468 0.333,-0.448 0.352,-0.423C0.37,-0.397 0.383,-0.371 0.39,-0.344C0.397,-0.316 0.402,-0.287 0.403,-0.257C0.404,-0.227 0.4,-0.199 0.392,-0.172C0.376,-0.106 0.346,-0.056 0.303,-0.022C0.252,0.019 0.196,0.025 0.136,-0.006C0.113,-0.017 0.093,-0.034 0.077,-0.056C0.06,-0.077 0.049,-0.1 0.043,-0.126C0.037,-0.151 0.033,-0.177 0.032,-0.205C0.03,-0.233 0.032,-0.259 0.038,-0.284C0.048,-0.341 0.067,-0.389 0.096,-0.428C0.131,-0.474 0.171,-0.498 0.218,-0.501L0.219,-0.501C0.228,-0.505 0.236,-0.505 0.245,-0.502C0.254,-0.499 0.262,-0.495 0.27,-0.491Z" style="fill-rule:nonzero;"/>
            </g>
        </g>
        <g transform="matrix(1.81818,0,0,3.91304,-482.806,212.727)">
            <g transform="matrix(25.1288,0,0,25.1288,281,201)">
                <path d="M0.037,-0.144L0.037,-0.247C0.037,-0.253 0.037,-0.266 0.037,-0.285C0.036,-0.304 0.036,-0.319 0.035,-0.328C0.034,-0.337 0.034,-0.35 0.033,-0.365C0.032,-0.38 0.03,-0.394 0.028,-0.407L0.022,-0.445C0.02,-0.454 0.022,-0.462 0.027,-0.47C0.032,-0.477 0.039,-0.482 0.048,-0.484C0.056,-0.485 0.065,-0.484 0.073,-0.479C0.08,-0.474 0.085,-0.466 0.086,-0.457C0.095,-0.416 0.1,-0.368 0.102,-0.313C0.113,-0.328 0.124,-0.343 0.137,-0.358C0.192,-0.421 0.25,-0.466 0.311,-0.491C0.32,-0.495 0.328,-0.495 0.337,-0.492C0.345,-0.488 0.351,-0.482 0.355,-0.474C0.358,-0.465 0.358,-0.457 0.355,-0.449C0.351,-0.44 0.345,-0.434 0.337,-0.431C0.285,-0.409 0.235,-0.37 0.187,-0.315C0.136,-0.256 0.109,-0.202 0.104,-0.151C0.103,-0.148 0.103,-0.145 0.103,-0.142L0.103,-0.056C0.103,-0.047 0.103,-0.035 0.102,-0.022L0.102,-0.007C0.102,-0.006 0.102,-0.006 0.102,-0.005C0.101,-0.004 0.101,-0.002 0.101,-0.001L0.099,0.005C0.096,0.012 0.091,0.018 0.083,0.021C0.076,0.025 0.07,0.026 0.064,0.024C0.057,0.021 0.053,0.019 0.05,0.017C0.047,0.015 0.044,0.013 0.042,0.01C0.04,0.007 0.038,0.004 0.037,-0C0.037,-0.001 0.037,-0.003 0.036,-0.005L0.036,-0.012C0.036,-0.02 0.035,-0.076 0.035,-0.083C0.035,-0.106 0.036,-0.127 0.037,-0.144Z" style="fill-rule:nonzero;"/>
            </g>
            <g transform="matrix(25.1288,0,0,25.1288,289.644,201)">
                <path d="M0.288,-0.335C0.292,-0.336 0.298,-0.336 0.306,-0.337C0.303,-0.352 0.297,-0.367 0.287,-0.384C0.276,-0.402 0.265,-0.416 0.252,-0.427C0.239,-0.438 0.228,-0.443 0.219,-0.443C0.191,-0.443 0.166,-0.425 0.144,-0.389C0.134,-0.372 0.125,-0.353 0.118,-0.332C0.153,-0.331 0.184,-0.331 0.211,-0.332C0.245,-0.333 0.271,-0.334 0.288,-0.335ZM0.104,-0.263L0.102,-0.246C0.098,-0.189 0.106,-0.143 0.127,-0.107C0.147,-0.07 0.177,-0.052 0.216,-0.051C0.237,-0.05 0.254,-0.053 0.267,-0.06C0.28,-0.067 0.298,-0.08 0.319,-0.1C0.324,-0.105 0.329,-0.11 0.334,-0.117C0.339,-0.124 0.344,-0.13 0.348,-0.135L0.362,-0.159L0.375,-0.18C0.38,-0.188 0.388,-0.193 0.397,-0.195C0.406,-0.196 0.414,-0.195 0.422,-0.19C0.429,-0.185 0.434,-0.177 0.436,-0.168C0.437,-0.159 0.436,-0.15 0.431,-0.143C0.43,-0.142 0.425,-0.136 0.418,-0.125L0.402,-0.099C0.397,-0.092 0.391,-0.083 0.384,-0.074C0.377,-0.064 0.37,-0.056 0.363,-0.051C0.338,-0.027 0.314,-0.01 0.293,0.001C0.272,0.012 0.245,0.017 0.214,0.016C0.179,0.015 0.15,0.006 0.125,-0.011C0.099,-0.028 0.081,-0.05 0.068,-0.077C0.055,-0.103 0.046,-0.132 0.041,-0.161C0.036,-0.19 0.034,-0.221 0.037,-0.252C0.042,-0.318 0.059,-0.375 0.088,-0.423C0.123,-0.481 0.167,-0.51 0.219,-0.509C0.245,-0.509 0.269,-0.5 0.29,-0.481C0.311,-0.462 0.329,-0.441 0.344,-0.416C0.357,-0.393 0.366,-0.371 0.371,-0.35C0.374,-0.338 0.375,-0.327 0.374,-0.317C0.372,-0.302 0.365,-0.29 0.354,-0.281C0.347,-0.276 0.338,-0.273 0.325,-0.27C0.317,-0.269 0.306,-0.267 0.293,-0.266C0.274,-0.265 0.247,-0.264 0.212,-0.263C0.183,-0.262 0.147,-0.262 0.104,-0.263Z" style="fill-rule:nonzero;"/>
            </g>
            <g transform="matrix(25.1288,0,0,25.1288,300.5,201)">
                <path d="M0.285,-0.389C0.282,-0.392 0.277,-0.396 0.27,-0.402C0.263,-0.408 0.259,-0.412 0.257,-0.414C0.255,-0.416 0.252,-0.419 0.247,-0.422C0.242,-0.425 0.238,-0.428 0.235,-0.429C0.232,-0.43 0.228,-0.432 0.223,-0.433C0.198,-0.438 0.179,-0.434 0.164,-0.419C0.149,-0.405 0.146,-0.387 0.154,-0.365C0.158,-0.354 0.166,-0.342 0.178,-0.33C0.19,-0.317 0.209,-0.3 0.235,-0.278C0.24,-0.273 0.244,-0.27 0.247,-0.267C0.266,-0.251 0.281,-0.238 0.292,-0.227C0.303,-0.216 0.315,-0.2 0.328,-0.181C0.341,-0.161 0.348,-0.142 0.351,-0.123C0.355,-0.092 0.35,-0.065 0.337,-0.042C0.323,-0.019 0.304,-0.001 0.279,0.01C0.257,0.021 0.233,0.026 0.206,0.025C0.179,0.024 0.154,0.018 0.131,0.005C0.106,-0.009 0.086,-0.026 0.071,-0.046C0.056,-0.065 0.043,-0.089 0.03,-0.118C0.026,-0.127 0.026,-0.135 0.029,-0.144C0.032,-0.152 0.038,-0.158 0.047,-0.162C0.055,-0.166 0.063,-0.166 0.072,-0.163C0.08,-0.16 0.086,-0.154 0.09,-0.146C0.101,-0.122 0.111,-0.103 0.122,-0.089C0.133,-0.074 0.146,-0.062 0.163,-0.053C0.176,-0.046 0.191,-0.042 0.207,-0.041C0.223,-0.04 0.238,-0.043 0.251,-0.05C0.278,-0.063 0.29,-0.084 0.285,-0.113C0.283,-0.128 0.275,-0.144 0.262,-0.16C0.249,-0.176 0.229,-0.195 0.204,-0.217C0.202,-0.219 0.196,-0.224 0.187,-0.232C0.178,-0.239 0.171,-0.245 0.167,-0.248L0.149,-0.265C0.141,-0.272 0.135,-0.279 0.131,-0.284L0.115,-0.302C0.11,-0.309 0.105,-0.316 0.101,-0.323C0.097,-0.33 0.094,-0.336 0.092,-0.343C0.084,-0.367 0.082,-0.39 0.087,-0.411C0.092,-0.432 0.102,-0.451 0.117,-0.466C0.132,-0.481 0.151,-0.491 0.172,-0.497C0.193,-0.502 0.215,-0.502 0.237,-0.497C0.246,-0.495 0.254,-0.492 0.262,-0.489C0.269,-0.486 0.277,-0.482 0.284,-0.477C0.291,-0.472 0.297,-0.467 0.301,-0.464L0.317,-0.449L0.329,-0.437C0.336,-0.431 0.339,-0.424 0.34,-0.415C0.341,-0.406 0.338,-0.398 0.332,-0.391C0.325,-0.384 0.318,-0.381 0.309,-0.38C0.3,-0.379 0.292,-0.382 0.285,-0.389Z" style="fill-rule:nonzero;"/>
            </g>
            <g transform="matrix(25.1288,0,0,25.1288,309.295,201)">
                <path d="M0.017,-0.563C0.046,-0.562 0.078,-0.561 0.111,-0.561C0.114,-0.593 0.117,-0.634 0.122,-0.684C0.123,-0.693 0.127,-0.701 0.134,-0.707C0.141,-0.712 0.15,-0.715 0.159,-0.714C0.168,-0.713 0.175,-0.709 0.181,-0.702C0.186,-0.695 0.189,-0.687 0.188,-0.678C0.183,-0.632 0.18,-0.594 0.177,-0.563C0.199,-0.564 0.225,-0.566 0.255,-0.568C0.264,-0.569 0.272,-0.566 0.279,-0.56C0.286,-0.554 0.289,-0.547 0.29,-0.538C0.291,-0.529 0.288,-0.521 0.282,-0.514C0.276,-0.507 0.268,-0.504 0.259,-0.503C0.226,-0.501 0.197,-0.499 0.172,-0.498C0.159,-0.321 0.161,-0.19 0.177,-0.103C0.182,-0.081 0.188,-0.065 0.196,-0.056C0.204,-0.046 0.211,-0.041 0.218,-0.04C0.226,-0.039 0.236,-0.043 0.247,-0.052C0.258,-0.06 0.27,-0.074 0.281,-0.095C0.294,-0.103 0.306,-0.139 0.319,-0.203C0.322,-0.212 0.327,-0.218 0.335,-0.223C0.343,-0.227 0.351,-0.228 0.36,-0.225C0.369,-0.222 0.375,-0.216 0.38,-0.208C0.384,-0.2 0.384,-0.192 0.381,-0.183C0.37,-0.132 0.356,-0.093 0.339,-0.065C0.324,-0.036 0.305,-0.013 0.283,0.004C0.26,0.02 0.237,0.027 0.212,0.025C0.186,0.022 0.165,0.011 0.148,-0.011C0.13,-0.032 0.119,-0.059 0.113,-0.092C0.095,-0.182 0.093,-0.317 0.106,-0.496C0.073,-0.496 0.042,-0.497 0.013,-0.498C0.004,-0.499 -0.003,-0.502 -0.01,-0.509C-0.016,-0.515 -0.019,-0.523 -0.018,-0.532C-0.017,-0.541 -0.014,-0.548 -0.007,-0.555C-0,-0.561 0.008,-0.564 0.017,-0.563Z" style="fill-rule:nonzero;"/>
            </g>
            <g transform="matrix(25.1288,0,0,25.1288,318.643,201)">
                <path d="M0.246,-0.429L0.231,-0.433C0.227,-0.434 0.224,-0.435 0.222,-0.435C0.196,-0.434 0.172,-0.418 0.15,-0.388C0.127,-0.357 0.111,-0.319 0.102,-0.272C0.094,-0.225 0.096,-0.182 0.107,-0.144C0.118,-0.105 0.138,-0.079 0.166,-0.064C0.201,-0.047 0.233,-0.05 0.262,-0.074C0.293,-0.099 0.315,-0.137 0.328,-0.188C0.34,-0.237 0.339,-0.284 0.326,-0.329C0.312,-0.374 0.285,-0.407 0.246,-0.429ZM0.27,-0.491C0.275,-0.49 0.279,-0.487 0.282,-0.484C0.31,-0.468 0.333,-0.448 0.352,-0.423C0.37,-0.397 0.383,-0.371 0.39,-0.344C0.397,-0.316 0.402,-0.287 0.403,-0.257C0.404,-0.227 0.4,-0.199 0.392,-0.172C0.376,-0.106 0.346,-0.056 0.303,-0.022C0.252,0.019 0.196,0.025 0.136,-0.006C0.113,-0.017 0.093,-0.034 0.077,-0.056C0.06,-0.077 0.049,-0.1 0.043,-0.126C0.037,-0.151 0.033,-0.177 0.032,-0.205C0.03,-0.233 0.032,-0.259 0.038,-0.284C0.048,-0.341 0.067,-0.389 0.096,-0.428C0.131,-0.474 0.171,-0.498 0.218,-0.501L0.219,-0.501C0.228,-0.505 0.236,-0.505 0.245,-0.502C0.254,-0.499 0.262,-0.495 0.27,-0.491Z" style="fill-rule:nonzero;"/>
            </g>
        </g>
        <g transform="matrix(1.81818,0,0,3.91304,63.1188,212.727)">
            <g transform="matrix(25.1288,0,0,25.1288,281,201)">
                <path d="M0.278,-0.323C0.276,-0.347 0.272,-0.368 0.267,-0.385C0.261,-0.402 0.255,-0.415 0.248,-0.423C0.241,-0.43 0.234,-0.436 0.228,-0.439C0.222,-0.442 0.216,-0.444 0.211,-0.443C0.196,-0.442 0.179,-0.432 0.16,-0.413C0.141,-0.393 0.127,-0.364 0.116,-0.325C0.104,-0.284 0.099,-0.246 0.103,-0.211C0.106,-0.176 0.113,-0.145 0.125,-0.12C0.137,-0.095 0.152,-0.075 0.17,-0.062C0.197,-0.043 0.226,-0.041 0.257,-0.054C0.298,-0.071 0.337,-0.113 0.375,-0.178C0.38,-0.186 0.386,-0.191 0.395,-0.194C0.404,-0.196 0.412,-0.195 0.42,-0.191C0.428,-0.186 0.433,-0.18 0.436,-0.171C0.438,-0.162 0.437,-0.154 0.433,-0.146C0.388,-0.068 0.338,-0.017 0.283,0.007C0.229,0.03 0.179,0.025 0.132,-0.009C0.09,-0.04 0.061,-0.085 0.046,-0.146C0.031,-0.207 0.033,-0.273 0.052,-0.343C0.066,-0.391 0.087,-0.43 0.115,-0.461C0.143,-0.492 0.174,-0.508 0.208,-0.509C0.246,-0.511 0.277,-0.496 0.301,-0.463C0.324,-0.43 0.339,-0.385 0.344,-0.329C0.345,-0.32 0.342,-0.312 0.337,-0.305C0.331,-0.298 0.323,-0.294 0.314,-0.293C0.305,-0.292 0.297,-0.295 0.29,-0.301C0.283,-0.306 0.279,-0.314 0.278,-0.323Z" style="fill-rule:nonzero;"/>
            </g>
            <g transform="matrix(25.1288,0,0,25.1288,291.931,201)">
                <path d="M0.246,-0.429L0.231,-0.433C0.227,-0.434 0.224,-0.435 0.222,-0.435C0.196,-0.434 0.172,-0.418 0.15,-0.388C0.127,-0.357 0.111,-0.319 0.102,-0.272C0.094,-0.225 0.096,-0.182 0.107,-0.144C0.118,-0.105 0.138,-0.079 0.166,-0.064C0.201,-0.047 0.233,-0.05 0.262,-0.074C0.293,-0.099 0.315,-0.137 0.328,-0.188C0.34,-0.237 0.339,-0.284 0.326,-0.329C0.312,-0.374 0.285,-0.407 0.246,-0.429ZM0.27,-0.491C0.275,-0.49 0.279,-0.487 0.282,-0.484C0.31,-0.468 0.333,-0.448 0.352,-0.423C0.37,-0.397 0.383,-0.371 0.39,-0.344C0.397,-0.316 0.402,-0.287 0.403,-0.257C0.404,-0.227 0.4,-0.199 0.392,-0.172C0.376,-0.106 0.346,-0.056 0.303,-0.022C0.252,0.019 0.196,0.025 0.136,-0.006C0.113,-0.017 0.093,-0.034 0.077,-0.056C0.06,-0.077 0.049,-0.1 0.043,-0.126C0.037,-0.151 0.033,-0.177 0.032,-0.205C0.03,-0.233 0.032,-0.259 0.038,-0.284C0.048,-0.341 0.067,-0.389 0.096,-0.428C0.131,-0.474 0.171,-0.498 0.218,-0.501L0.219,-0.501C0.228,-0.505 0.236,-0.505 0.245,-0.502C0.254,-0.499 0.262,-0.495 0.27,-0.491Z" style="fill-rule:nonzero;"/>
            </g>
            <g transform="matrix(25.1288,0,0,25.1288,302.083,201)">
                <path d="M0.278,-0.323C0.276,-0.347 0.272,-0.368 0.267,-0.385C0.261,-0.402 0.255,-0.415 0.248,-0.423C0.241,-0.43 0.234,-0.436 0.228,-0.439C0.222,-0.442 0.216,-0.444 0.211,-0.443C0.196,-0.442 0.179,-0.432 0.16,-0.413C0.141,-0.393 0.127,-0.364 0.116,-0.325C0.104,-0.284 0.099,-0.246 0.103,-0.211C0.106,-0.176 0.113,-0.145 0.125,-0.12C0.137,-0.095 0.152,-0.075 0.17,-0.062C0.197,-0.043 0.226,-0.041 0.257,-0.054C0.298,-0.071 0.337,-0.113 0.375,-0.178C0.38,-0.186 0.386,-0.191 0.395,-0.194C0.404,-0.196 0.412,-0.195 0.42,-0.191C0.428,-0.186 0.433,-0.18 0.436,-0.171C0.438,-0.162 0.437,-0.154 0.433,-0.146C0.388,-0.068 0.338,-0.017 0.283,0.007C0.229,0.03 0.179,0.025 0.132,-0.009C0.09,-0.04 0.061,-0.085 0.046,-0.146C0.031,-0.207 0.033,-0.273 0.052,-0.343C0.066,-0.391 0.087,-0.43 0.115,-0.461C0.143,-0.492 0.174,-0.508 0.208,-0.509C0.246,-0.511 0.277,-0.496 0.301,-0.463C0.324,-0.43 0.339,-0.385 0.344,-0.329C0.345,-0.32 0.342,-0.312 0.337,-0.305C0.331,-0.298 0.323,-0.294 0.314,-0.293C0.305,-0.292 0.297,-0.295 0.29,-0.301C0.283,-0.306 0.279,-0.314 0.278,-0.323Z" style="fill-rule:nonzero;"/>
            </g>
            <g transform="matrix(25.1288,0,0,25.1288,313.014,201)">
                <path d="M0.108,-0.455C0.113,-0.395 0.114,-0.32 0.112,-0.23C0.109,-0.09 0.107,-0.017 0.107,-0.01C0.107,-0.001 0.104,0.007 0.098,0.014C0.091,0.02 0.083,0.023 0.074,0.023C0.065,0.023 0.057,0.02 0.051,0.014C0.044,0.007 0.041,-0.001 0.041,-0.01C0.041,-0.013 0.043,-0.087 0.046,-0.232C0.048,-0.313 0.047,-0.386 0.042,-0.449C0.041,-0.458 0.044,-0.467 0.05,-0.474C0.056,-0.481 0.064,-0.484 0.073,-0.485C0.082,-0.486 0.09,-0.483 0.097,-0.477C0.103,-0.471 0.107,-0.464 0.108,-0.455ZM0.094,-0.646C0.101,-0.64 0.104,-0.632 0.104,-0.623C0.104,-0.614 0.101,-0.606 0.095,-0.6C0.088,-0.593 0.08,-0.59 0.071,-0.59C0.062,-0.59 0.054,-0.593 0.048,-0.6C0.041,-0.606 0.038,-0.614 0.038,-0.623C0.038,-0.632 0.041,-0.64 0.048,-0.647C0.054,-0.653 0.062,-0.656 0.071,-0.656C0.08,-0.656 0.088,-0.653 0.094,-0.646Z" style="fill-rule:nonzero;"/>
            </g>
            <g transform="matrix(25.1288,0,0,25.1288,316.356,201)">
                <path d="M0.288,-0.335C0.292,-0.336 0.298,-0.336 0.306,-0.337C0.303,-0.352 0.297,-0.367 0.287,-0.384C0.276,-0.402 0.265,-0.416 0.252,-0.427C0.239,-0.438 0.228,-0.443 0.219,-0.443C0.191,-0.443 0.166,-0.425 0.144,-0.389C0.134,-0.372 0.125,-0.353 0.118,-0.332C0.153,-0.331 0.184,-0.331 0.211,-0.332C0.245,-0.333 0.271,-0.334 0.288,-0.335ZM0.104,-0.263L0.102,-0.246C0.098,-0.189 0.106,-0.143 0.127,-0.107C0.147,-0.07 0.177,-0.052 0.216,-0.051C0.237,-0.05 0.254,-0.053 0.267,-0.06C0.28,-0.067 0.298,-0.08 0.319,-0.1C0.324,-0.105 0.329,-0.11 0.334,-0.117C0.339,-0.124 0.344,-0.13 0.348,-0.135L0.362,-0.159L0.375,-0.18C0.38,-0.188 0.388,-0.193 0.397,-0.195C0.406,-0.196 0.414,-0.195 0.422,-0.19C0.429,-0.185 0.434,-0.177 0.436,-0.168C0.437,-0.159 0.436,-0.15 0.431,-0.143C0.43,-0.142 0.425,-0.136 0.418,-0.125L0.402,-0.099C0.397,-0.092 0.391,-0.083 0.384,-0.074C0.377,-0.064 0.37,-0.056 0.363,-0.051C0.338,-0.027 0.314,-0.01 0.293,0.001C0.272,0.012 0.245,0.017 0.214,0.016C0.179,0.015 0.15,0.006 0.125,-0.011C0.099,-0.028 0.081,-0.05 0.068,-0.077C0.055,-0.103 0.046,-0.132 0.041,-0.161C0.036,-0.19 0.034,-0.221 0.037,-0.252C0.042,-0.318 0.059,-0.375 0.088,-0.423C0.123,-0.481 0.167,-0.51 0.219,-0.509C0.245,-0.509 0.269,-0.5 0.29,-0.481C0.311,-0.462 0.329,-0.441 0.344,-0.416C0.357,-0.393 0.366,-0.371 0.371,-0.35C0.374,-0.338 0.375,-0.327 0.374,-0.317C0.372,-0.302 0.365,-0.29 0.354,-0.281C0.347,-0.276 0.338,-0.273 0.325,-0.27C0.317,-0.269 0.306,-0.267 0.293,-0.266C0.274,-0.265 0.247,-0.264 0.212,-0.263C0.183,-0.262 0.147,-0.262 0.104,-0.263Z" style="fill-rule:nonzero;"/>
            </g>
            <g transform="matrix(25.1288,0,0,25.1288,327.212,201)">
                <path d="M0.102,-0.305C0.113,-0.326 0.125,-0.345 0.138,-0.363C0.167,-0.406 0.197,-0.438 0.227,-0.458C0.269,-0.486 0.308,-0.489 0.345,-0.467C0.369,-0.453 0.388,-0.423 0.402,-0.376C0.413,-0.342 0.421,-0.299 0.427,-0.246C0.436,-0.169 0.439,-0.092 0.438,-0.015C0.438,-0.006 0.435,0.001 0.428,0.008C0.421,0.014 0.413,0.017 0.405,0.017C0.396,0.017 0.388,0.014 0.382,0.007C0.375,0 0.372,-0.008 0.372,-0.017C0.373,-0.088 0.37,-0.162 0.361,-0.238C0.356,-0.288 0.348,-0.327 0.339,-0.356C0.33,-0.387 0.32,-0.405 0.311,-0.411C0.298,-0.418 0.282,-0.416 0.263,-0.403C0.241,-0.388 0.217,-0.362 0.192,-0.325C0.17,-0.292 0.151,-0.258 0.134,-0.222C0.117,-0.185 0.108,-0.158 0.106,-0.141C0.104,-0.129 0.103,-0.112 0.102,-0.09C0.101,-0.063 0.1,-0.044 0.099,-0.033C0.099,-0.032 0.099,-0.03 0.098,-0.029L0.098,-0.027C0.098,-0.024 0.097,-0.022 0.096,-0.019C0.094,-0.016 0.092,-0.013 0.089,-0.01C0.08,-0.001 0.07,0.002 0.058,-0.001C0.049,-0.003 0.042,-0.008 0.037,-0.016C0.036,-0.019 0.035,-0.021 0.034,-0.024L0.033,-0.031C0.032,-0.032 0.032,-0.033 0.032,-0.035C0.032,-0.037 0.032,-0.042 0.033,-0.049C0.034,-0.071 0.034,-0.083 0.034,-0.085C0.034,-0.094 0.035,-0.112 0.036,-0.141C0.037,-0.169 0.037,-0.191 0.037,-0.207L0.037,-0.25C0.037,-0.273 0.037,-0.288 0.037,-0.296C0.036,-0.304 0.036,-0.318 0.035,-0.337C0.034,-0.356 0.034,-0.372 0.033,-0.383C0.032,-0.394 0.03,-0.407 0.029,-0.422C0.027,-0.437 0.025,-0.452 0.022,-0.465C0.02,-0.474 0.022,-0.482 0.027,-0.49C0.032,-0.497 0.039,-0.502 0.048,-0.504C0.056,-0.505 0.065,-0.503 0.073,-0.499C0.08,-0.494 0.085,-0.486 0.086,-0.477C0.095,-0.432 0.101,-0.374 0.102,-0.305Z" style="fill-rule:nonzero;"/>
            </g>
            <g transform="matrix(25.1288,0,0,25.1288,338.319,201)">
                <path d="M0.017,-0.563C0.046,-0.562 0.078,-0.561 0.111,-0.561C0.114,-0.593 0.117,-0.634 0.122,-0.684C0.123,-0.693 0.127,-0.701 0.134,-0.707C0.141,-0.712 0.15,-0.715 0.159,-0.714C0.168,-0.713 0.175,-0.709 0.181,-0.702C0.186,-0.695 0.189,-0.687 0.188,-0.678C0.183,-0.632 0.18,-0.594 0.177,-0.563C0.199,-0.564 0.225,-0.566 0.255,-0.568C0.264,-0.569 0.272,-0.566 0.279,-0.56C0.286,-0.554 0.289,-0.547 0.29,-0.538C0.291,-0.529 0.288,-0.521 0.282,-0.514C0.276,-0.507 0.268,-0.504 0.259,-0.503C0.226,-0.501 0.197,-0.499 0.172,-0.498C0.159,-0.321 0.161,-0.19 0.177,-0.103C0.182,-0.081 0.188,-0.065 0.196,-0.056C0.204,-0.046 0.211,-0.041 0.218,-0.04C0.226,-0.039 0.236,-0.043 0.247,-0.052C0.258,-0.06 0.27,-0.074 0.281,-0.095C0.294,-0.103 0.306,-0.139 0.319,-0.203C0.322,-0.212 0.327,-0.218 0.335,-0.223C0.343,-0.227 0.351,-0.228 0.36,-0.225C0.369,-0.222 0.375,-0.216 0.38,-0.208C0.384,-0.2 0.384,-0.192 0.381,-0.183C0.37,-0.132 0.356,-0.093 0.339,-0.065C0.324,-0.036 0.305,-0.013 0.283,0.004C0.26,0.02 0.237,0.027 0.212,0.025C0.186,0.022 0.165,0.011 0.148,-0.011C0.13,-0.032 0.119,-0.059 0.113,-0.092C0.095,-0.182 0.093,-0.317 0.106,-0.496C0.073,-0.496 0.042,-0.497 0.013,-0.498C0.004,-0.499 -0.003,-0.502 -0.01,-0.509C-0.016,-0.515 -0.019,-0.523 -0.018,-0.532C-0.017,-0.541 -0.014,-0.548 -0.007,-0.555C-0,-0.561 0.008,-0.564 0.017,-0.563Z" style="fill-rule:nonzero;"/>
            </g>
            <g transform="matrix(25.1288,0,0,25.1288,347.667,201)">
                <path d="M0.288,-0.335C0.292,-0.336 0.298,-0.336 0.306,-0.337C0.303,-0.352 0.297,-0.367 0.287,-0.384C0.276,-0.402 0.265,-0.416 0.252,-0.427C0.239,-0.438 0.228,-0.443 0.219,-0.443C0.191,-0.443 0.166,-0.425 0.144,-0.389C0.134,-0.372 0.125,-0.353 0.118,-0.332C0.153,-0.331 0.184,-0.331 0.211,-0.332C0.245,-0.333 0.271,-0.334 0.288,-0.335ZM0.104,-0.263L0.102,-0.246C0.098,-0.189 0.106,-0.143 0.127,-0.107C0.147,-0.07 0.177,-0.052 0.216,-0.051C0.237,-0.05 0.254,-0.053 0.267,-0.06C0.28,-0.067 0.298,-0.08 0.319,-0.1C0.324,-0.105 0.329,-0.11 0.334,-0.117C0.339,-0.124 0.344,-0.13 0.348,-0.135L0.362,-0.159L0.375,-0.18C0.38,-0.188 0.388,-0.193 0.397,-0.195C0.406,-0.196 0.414,-0.195 0.422,-0.19C0.429,-0.185 0.434,-0.177 0.436,-0.168C0.437,-0.159 0.436,-0.15 0.431,-0.143C0.43,-0.142 0.425,-0.136 0.418,-0.125L0.402,-0.099C0.397,-0.092 0.391,-0.083 0.384,-0.074C0.377,-0.064 0.37,-0.056 0.363,-0.051C0.338,-0.027 0.314,-0.01 0.293,0.001C0.272,0.012 0.245,0.017 0.214,0.016C0.179,0.015 0.15,0.006 0.125,-0.011C0.099,-0.028 0.081,-0.05 0.068,-0.077C0.055,-0.103 0.046,-0.132 0.041,-0.161C0.036,-0.19 0.034,-0.221 0.037,-0.252C0.042,-0.318 0.059,-0.375 0.088,-0.423C0.123,-0.481 0.167,-0.51 0.219,-0.509C0.245,-0.509 0.269,-0.5 0.29,-0.481C0.311,-0.462 0.329,-0.441 0.344,-0.416C0.357,-0.393 0.366,-0.371 0.371,-0.35C0.374,-0.338 0.375,-0.327 0.374,-0.317C0.372,-0.302 0.365,-0.29 0.354,-0.281C0.347,-0.276 0.338,-0.273 0.325,-0.27C0.317,-0.269 0.306,-0.267 0.293,-0.266C0.274,-0.265 0.247,-0.264 0.212,-0.263C0.183,-0.262 0.147,-0.262 0.104,-0.263Z" style="fill-rule:nonzero;"/>
            </g>
        </g>
        <g transform="matrix(1.81818,0,0,3.91304,62.9589,-649.565)">
            <g transform="matrix(25.1288,0,0,25.1288,281,201)">
                <path d="M0.381,-0.656C0.382,-0.608 0.382,-0.572 0.382,-0.549C0.382,-0.525 0.382,-0.489 0.381,-0.441C0.38,-0.393 0.38,-0.357 0.38,-0.333C0.38,-0.206 0.384,-0.1 0.393,-0.015C0.394,-0.006 0.391,0.002 0.386,0.009C0.38,0.016 0.373,0.02 0.364,0.021C0.355,0.022 0.347,0.019 0.34,0.014C0.333,0.008 0.328,0 0.327,-0.009C0.325,-0.026 0.323,-0.044 0.322,-0.063C0.313,-0.053 0.304,-0.044 0.295,-0.035C0.252,0.005 0.201,0.015 0.142,-0.005C0.087,-0.023 0.054,-0.07 0.043,-0.146C0.034,-0.207 0.041,-0.27 0.063,-0.337C0.087,-0.408 0.121,-0.455 0.165,-0.476C0.192,-0.489 0.22,-0.491 0.249,-0.48C0.272,-0.471 0.294,-0.455 0.315,-0.43C0.316,-0.532 0.316,-0.607 0.315,-0.654C0.315,-0.663 0.318,-0.671 0.325,-0.678C0.331,-0.685 0.339,-0.688 0.348,-0.688C0.357,-0.688 0.364,-0.685 0.371,-0.679C0.378,-0.672 0.381,-0.665 0.381,-0.656ZM0.314,-0.303C0.293,-0.343 0.28,-0.367 0.274,-0.374C0.257,-0.397 0.241,-0.412 0.225,-0.418C0.214,-0.422 0.204,-0.422 0.194,-0.417C0.167,-0.404 0.144,-0.37 0.126,-0.316C0.107,-0.259 0.101,-0.205 0.108,-0.155C0.115,-0.106 0.133,-0.077 0.162,-0.067C0.197,-0.056 0.226,-0.061 0.251,-0.083C0.275,-0.105 0.297,-0.137 0.316,-0.179C0.315,-0.216 0.314,-0.257 0.314,-0.302L0.314,-0.303Z" style="fill-rule:nonzero;"/>
            </g>
            <g transform="matrix(25.1288,0,0,25.1288,291.052,201)">
                <path d="M0.108,-0.455C0.113,-0.395 0.114,-0.32 0.112,-0.23C0.109,-0.09 0.107,-0.017 0.107,-0.01C0.107,-0.001 0.104,0.007 0.098,0.014C0.091,0.02 0.083,0.023 0.074,0.023C0.065,0.023 0.057,0.02 0.051,0.014C0.044,0.007 0.041,-0.001 0.041,-0.01C0.041,-0.013 0.043,-0.087 0.046,-0.232C0.048,-0.313 0.047,-0.386 0.042,-0.449C0.041,-0.458 0.044,-0.467 0.05,-0.474C0.056,-0.481 0.064,-0.484 0.073,-0.485C0.082,-0.486 0.09,-0.483 0.097,-0.477C0.103,-0.471 0.107,-0.464 0.108,-0.455ZM0.094,-0.646C0.101,-0.64 0.104,-0.632 0.104,-0.623C0.104,-0.614 0.101,-0.606 0.095,-0.6C0.088,-0.593 0.08,-0.59 0.071,-0.59C0.062,-0.59 0.054,-0.593 0.048,-0.6C0.041,-0.606 0.038,-0.614 0.038,-0.623C0.038,-0.632 0.041,-0.64 0.048,-0.647C0.054,-0.653 0.062,-0.656 0.071,-0.656C0.08,-0.656 0.088,-0.653 0.094,-0.646Z" style="fill-rule:nonzero;"/>
            </g>
            <g transform="matrix(25.1288,0,0,25.1288,294.394,201)">
                <path d="M0.076,-0.468C0.096,-0.361 0.112,-0.282 0.125,-0.232C0.138,-0.181 0.152,-0.14 0.165,-0.108C0.181,-0.07 0.191,-0.049 0.196,-0.044C0.201,-0.047 0.206,-0.055 0.212,-0.066C0.219,-0.078 0.228,-0.099 0.239,-0.13C0.286,-0.257 0.32,-0.371 0.343,-0.47C0.345,-0.479 0.35,-0.486 0.358,-0.491C0.365,-0.496 0.374,-0.497 0.383,-0.495C0.392,-0.493 0.398,-0.488 0.403,-0.481C0.408,-0.473 0.409,-0.465 0.407,-0.456C0.383,-0.352 0.348,-0.236 0.301,-0.108C0.288,-0.073 0.278,-0.049 0.27,-0.034C0.259,-0.015 0.248,-0 0.235,0.009C0.212,0.026 0.189,0.027 0.167,0.011C0.144,-0.006 0.123,-0.037 0.104,-0.082C0.089,-0.117 0.075,-0.162 0.061,-0.215C0.048,-0.267 0.031,-0.347 0.012,-0.456C0.01,-0.465 0.012,-0.473 0.017,-0.481C0.022,-0.488 0.029,-0.493 0.038,-0.495C0.047,-0.496 0.055,-0.494 0.063,-0.489C0.07,-0.484 0.075,-0.477 0.076,-0.468Z" style="fill-rule:nonzero;"/>
            </g>
            <g transform="matrix(25.1288,0,0,25.1288,304.445,201)">
                <path d="M0.108,-0.455C0.113,-0.395 0.114,-0.32 0.112,-0.23C0.109,-0.09 0.107,-0.017 0.107,-0.01C0.107,-0.001 0.104,0.007 0.098,0.014C0.091,0.02 0.083,0.023 0.074,0.023C0.065,0.023 0.057,0.02 0.051,0.014C0.044,0.007 0.041,-0.001 0.041,-0.01C0.041,-0.013 0.043,-0.087 0.046,-0.232C0.048,-0.313 0.047,-0.386 0.042,-0.449C0.041,-0.458 0.044,-0.467 0.05,-0.474C0.056,-0.481 0.064,-0.484 0.073,-0.485C0.082,-0.486 0.09,-0.483 0.097,-0.477C0.103,-0.471 0.107,-0.464 0.108,-0.455ZM0.094,-0.646C0.101,-0.64 0.104,-0.632 0.104,-0.623C0.104,-0.614 0.101,-0.606 0.095,-0.6C0.088,-0.593 0.08,-0.59 0.071,-0.59C0.062,-0.59 0.054,-0.593 0.048,-0.6C0.041,-0.606 0.038,-0.614 0.038,-0.623C0.038,-0.632 0.041,-0.64 0.048,-0.647C0.054,-0.653 0.062,-0.656 0.071,-0.656C0.08,-0.656 0.088,-0.653 0.094,-0.646Z" style="fill-rule:nonzero;"/>
            </g>
            <g transform="matrix(25.1288,0,0,25.1288,307.787,201)">
                <path d="M0.285,-0.389C0.282,-0.392 0.277,-0.396 0.27,-0.402C0.263,-0.408 0.259,-0.412 0.257,-0.414C0.255,-0.416 0.252,-0.419 0.247,-0.422C0.242,-0.425 0.238,-0.428 0.235,-0.429C0.232,-0.43 0.228,-0.432 0.223,-0.433C0.198,-0.438 0.179,-0.434 0.164,-0.419C0.149,-0.405 0.146,-0.387 0.154,-0.365C0.158,-0.354 0.166,-0.342 0.178,-0.33C0.19,-0.317 0.209,-0.3 0.235,-0.278C0.24,-0.273 0.244,-0.27 0.247,-0.267C0.266,-0.251 0.281,-0.238 0.292,-0.227C0.303,-0.216 0.315,-0.2 0.328,-0.181C0.341,-0.161 0.348,-0.142 0.351,-0.123C0.355,-0.092 0.35,-0.065 0.337,-0.042C0.323,-0.019 0.304,-0.001 0.279,0.01C0.257,0.021 0.233,0.026 0.206,0.025C0.179,0.024 0.154,0.018 0.131,0.005C0.106,-0.009 0.086,-0.026 0.071,-0.046C0.056,-0.065 0.043,-0.089 0.03,-0.118C0.026,-0.127 0.026,-0.135 0.029,-0.144C0.032,-0.152 0.038,-0.158 0.047,-0.162C0.055,-0.166 0.063,-0.166 0.072,-0.163C0.08,-0.16 0.086,-0.154 0.09,-0.146C0.101,-0.122 0.111,-0.103 0.122,-0.089C0.133,-0.074 0.146,-0.062 0.163,-0.053C0.176,-0.046 0.191,-0.042 0.207,-0.041C0.223,-0.04 0.238,-0.043 0.251,-0.05C0.278,-0.063 0.29,-0.084 0.285,-0.113C0.283,-0.128 0.275,-0.144 0.262,-0.16C0.249,-0.176 0.229,-0.195 0.204,-0.217C0.202,-0.219 0.196,-0.224 0.187,-0.232C0.178,-0.239 0.171,-0.245 0.167,-0.248L0.149,-0.265C0.141,-0.272 0.135,-0.279 0.131,-0.284L0.115,-0.302C0.11,-0.309 0.105,-0.316 0.101,-0.323C0.097,-0.33 0.094,-0.336 0.092,-0.343C0.084,-0.367 0.082,-0.39 0.087,-0.411C0.092,-0.432 0.102,-0.451 0.117,-0.466C0.132,-0.481 0.151,-0.491 0.172,-0.497C0.193,-0.502 0.215,-0.502 0.237,-0.497C0.246,-0.495 0.254,-0.492 0.262,-0.489C0.269,-0.486 0.277,-0.482 0.284,-0.477C0.291,-0.472 0.297,-0.467 0.301,-0.464L0.317,-0.449L0.329,-0.437C0.336,-0.431 0.339,-0.424 0.34,-0.415C0.341,-0.406 0.338,-0.398 0.332,-0.391C0.325,-0.384 0.318,-0.381 0.309,-0.38C0.3,-0.379 0.292,-0.382 0.285,-0.389Z" style="fill-rule:nonzero;"/>
            </g>
            <g transform="matrix(25.1288,0,0,25.1288,316.582,201)">
                <path d="M0.246,-0.429L0.231,-0.433C0.227,-0.434 0.224,-0.435 0.222,-0.435C0.196,-0.434 0.172,-0.418 0.15,-0.388C0.127,-0.357 0.111,-0.319 0.102,-0.272C0.094,-0.225 0.096,-0.182 0.107,-0.144C0.118,-0.105 0.138,-0.079 0.166,-0.064C0.201,-0.047 0.233,-0.05 0.262,-0.074C0.293,-0.099 0.315,-0.137 0.328,-0.188C0.34,-0.237 0.339,-0.284 0.326,-0.329C0.312,-0.374 0.285,-0.407 0.246,-0.429ZM0.27,-0.491C0.275,-0.49 0.279,-0.487 0.282,-0.484C0.31,-0.468 0.333,-0.448 0.352,-0.423C0.37,-0.397 0.383,-0.371 0.39,-0.344C0.397,-0.316 0.402,-0.287 0.403,-0.257C0.404,-0.227 0.4,-0.199 0.392,-0.172C0.376,-0.106 0.346,-0.056 0.303,-0.022C0.252,0.019 0.196,0.025 0.136,-0.006C0.113,-0.017 0.093,-0.034 0.077,-0.056C0.06,-0.077 0.049,-0.1 0.043,-0.126C0.037,-0.151 0.033,-0.177 0.032,-0.205C0.03,-0.233 0.032,-0.259 0.038,-0.284C0.048,-0.341 0.067,-0.389 0.096,-0.428C0.131,-0.474 0.171,-0.498 0.218,-0.501L0.219,-0.501C0.228,-0.505 0.236,-0.505 0.245,-0.502C0.254,-0.499 0.262,-0.495 0.27,-0.491Z" style="fill-rule:nonzero;"/>
            </g>
            <g transform="matrix(25.1288,0,0,25.1288,326.734,201)">
                <path d="M0.037,-0.144L0.037,-0.247C0.037,-0.253 0.037,-0.266 0.037,-0.285C0.036,-0.304 0.036,-0.319 0.035,-0.328C0.034,-0.337 0.034,-0.35 0.033,-0.365C0.032,-0.38 0.03,-0.394 0.028,-0.407L0.022,-0.445C0.02,-0.454 0.022,-0.462 0.027,-0.47C0.032,-0.477 0.039,-0.482 0.048,-0.484C0.056,-0.485 0.065,-0.484 0.073,-0.479C0.08,-0.474 0.085,-0.466 0.086,-0.457C0.095,-0.416 0.1,-0.368 0.102,-0.313C0.113,-0.328 0.124,-0.343 0.137,-0.358C0.192,-0.421 0.25,-0.466 0.311,-0.491C0.32,-0.495 0.328,-0.495 0.337,-0.492C0.345,-0.488 0.351,-0.482 0.355,-0.474C0.358,-0.465 0.358,-0.457 0.355,-0.449C0.351,-0.44 0.345,-0.434 0.337,-0.431C0.285,-0.409 0.235,-0.37 0.187,-0.315C0.136,-0.256 0.109,-0.202 0.104,-0.151C0.103,-0.148 0.103,-0.145 0.103,-0.142L0.103,-0.056C0.103,-0.047 0.103,-0.035 0.102,-0.022L0.102,-0.007C0.102,-0.006 0.102,-0.006 0.102,-0.005C0.101,-0.004 0.101,-0.002 0.101,-0.001L0.099,0.005C0.096,0.012 0.091,0.018 0.083,0.021C0.076,0.025 0.07,0.026 0.064,0.024C0.057,0.021 0.053,0.019 0.05,0.017C0.047,0.015 0.044,0.013 0.042,0.01C0.04,0.007 0.038,0.004 0.037,-0C0.037,-0.001 0.037,-0.003 0.036,-0.005L0.036,-0.012C0.036,-0.02 0.035,-0.076 0.035,-0.083C0.035,-0.106 0.036,-0.127 0.037,-0.144Z" style="fill-rule:nonzero;"/>
            </g>
        </g>
        <g transform="matrix(1.81818,0,0,3.91304,-770.909,-837.391)">
            <g transform="matrix(1,-0,-0,1,424,214)">
                <path d="M102.628,42.665L100.432,36.327L106.821,38.372L102.628,42.665Z"/>
                <path d="M146.316,81.137C146.316,81.137 114.522,50.087 103.866,39.68" style="fill:none;stroke:black;stroke-width:1px;"/>
            </g>
        </g>
        <g transform="matrix(1.81818,0,0,3.91304,-770.909,-837.391)">
            <g transform="matrix(1,-0,-0,1,424,214)">
                <path d="M306.61,41.718L312.824,39.19L311.118,45.677L306.61,41.718Z"/>
                <path d="M274.849,82.426C274.849,82.426 300.534,53.183 309.656,42.796" style="fill:none;stroke:black;stroke-width:1px;"/>
            </g>
        </g>
        <g transform="matrix(1.81818,0,0,3.91304,-770.909,-837.391)">
            <g transform="matrix(1,-0,-0,1,424,214)">
                <path d="M310.11,226.061L312.499,232.329L306.051,230.479L310.11,226.061Z"/>
                <path d="M267.947,191.399C267.947,191.399 298.425,219.399 308.964,229.082" style="fill:none;stroke:black;stroke-width:1px;"/>
            </g>
        </g>
        <g transform="matrix(1.81818,0,0,3.91304,-770.909,-837.391)">
            <g transform="matrix(1,-0,-0,1,424,214)">
                <path d="M84.492,236.243L77.826,236.991L81.227,231.209L84.492,236.243Z"/>
                <path d="M146.392,192.509C146.392,192.509 96.543,224.849 81.853,234.379" style="fill:none;stroke:black;stroke-width:1px;"/>
            </g>
        </g>
        <g transform="matrix(12.5476,0,0,31.0801,759.973,69.3053)">
            <path d="M9.031,16.282L9.031,13.751C8.25,13.72 7.625,13.532 7.125,13.157C6.656,12.813 6.281,12.282 6.094,11.594C5.875,10.906 5.781,9.594 5.781,7.688C5.75,5.844 5.718,4.532 5.625,3.844C5.5,2.875 5.219,2.094 4.781,1.531C4.375,0.937 3.843,0.5 3.125,0.281C2.656,0.093 1.875,-0 0.844,-0L-0,-0L-0,2.469L0.469,2.469C1.407,2.469 2.032,2.563 2.344,2.782C2.656,3.001 2.875,3.407 3,3.938C3.094,4.313 3.125,5.657 3.125,7.969C3.125,10.188 3.406,11.719 3.875,12.688C4.344,13.657 5.188,14.438 6.406,15.001C5.5,15.376 4.75,15.939 4.25,16.657C3.75,17.375 3.406,18.376 3.25,19.626C3.187,20.314 3.125,21.876 3.125,24.376C3.125,25.72 2.969,26.595 2.625,26.97C2.281,27.345 1.562,27.595 0.469,27.595L-0,27.595L-0,30.001L0.844,30.001C1.75,30.001 2.407,29.97 2.813,29.845C3.501,29.657 4.063,29.345 4.469,28.907C4.907,28.501 5.25,27.876 5.469,27.126C5.657,26.376 5.782,25.157 5.782,23.438C5.813,21.719 5.813,20.625 5.845,20.157C5.876,19.157 6.064,18.407 6.345,17.876C6.595,17.376 6.97,16.938 7.47,16.626C7.845,16.407 8.408,16.282 9.033,16.282L9.031,16.282Z" style="fill:rgb(240,240,240);fill-rule:nonzero;"/>
        </g>
    </g>
</svg>
