<?xml version="1.0" encoding="UTF-8" standalone="no"?>
<!DOCTYPE svg PUBLIC "-//W3C//DTD SVG 1.1//EN" "http://www.w3.org/Graphics/SVG/1.1/DTD/svg11.dtd">
<svg width="286px" height="66px" version="1.1" xmlns="http://www.w3.org/2000/svg" xmlns:xlink="http://www.w3.org/1999/xlink" xml:space="preserve" xmlns:serif="http://www.serif.com/" style="fill-rule:evenodd;clip-rule:evenodd;stroke-linejoin:round;stroke-miterlimit:2;">
    <g transform="matrix(1,0,0,1,-817,-507.472)">
        <g transform="matrix(0.52963,0,0,0.411746,455.793,382.301)">
            <rect x="682" y="304" width="540" height="158" style="fill:rgb(235,235,235);"/>
        </g>
        <g transform="matrix(0.613734,0,0,0.613734,559.551,319.7)">
            <g transform="matrix(47.4656,0,0,47.4656,448,377)">
                <path d="M0.072,-0L0.072,-0.545L0.213,-0.545L0.225,-0.482C0.249,-0.509 0.275,-0.53 0.302,-0.543C0.329,-0.556 0.36,-0.563 0.394,-0.563C0.441,-0.563 0.477,-0.548 0.504,-0.52C0.53,-0.491 0.544,-0.451 0.544,-0.4L0.544,-0L0.382,-0L0.382,-0.353C0.382,-0.376 0.38,-0.394 0.377,-0.407C0.373,-0.42 0.368,-0.429 0.361,-0.435C0.353,-0.44 0.343,-0.443 0.329,-0.443C0.313,-0.443 0.297,-0.438 0.281,-0.427C0.266,-0.417 0.25,-0.402 0.234,-0.381L0.234,-0L0.072,-0Z" style="fill:rgb(230,88,88);fill-rule:nonzero;"/>
            </g>
            <g transform="matrix(47.4656,0,0,47.4656,477.21,377)">
                <path d="M0.308,-0.563C0.363,-0.563 0.41,-0.551 0.45,-0.527C0.49,-0.503 0.52,-0.47 0.541,-0.426C0.562,-0.383 0.572,-0.332 0.572,-0.274C0.572,-0.213 0.562,-0.161 0.541,-0.118C0.52,-0.074 0.489,-0.041 0.45,-0.017C0.41,0.006 0.363,0.017 0.308,0.017C0.252,0.017 0.205,0.006 0.165,-0.017C0.125,-0.04 0.095,-0.073 0.074,-0.117C0.054,-0.16 0.043,-0.212 0.043,-0.273C0.043,-0.331 0.054,-0.381 0.075,-0.425C0.096,-0.468 0.126,-0.502 0.166,-0.526C0.206,-0.551 0.253,-0.563 0.308,-0.563ZM0.308,-0.443C0.275,-0.443 0.25,-0.429 0.234,-0.402C0.218,-0.375 0.21,-0.332 0.21,-0.273C0.21,-0.213 0.218,-0.169 0.234,-0.142C0.25,-0.115 0.274,-0.102 0.308,-0.102C0.341,-0.102 0.366,-0.115 0.382,-0.143C0.397,-0.17 0.405,-0.214 0.405,-0.274C0.405,-0.332 0.397,-0.375 0.381,-0.402C0.365,-0.429 0.341,-0.443 0.308,-0.443Z" style="fill:rgb(230,88,88);fill-rule:nonzero;"/>
            </g>
            <g transform="matrix(47.4656,0,0,47.4656,506.419,377)">
                <path d="M0.474,-0.563C0.513,-0.563 0.542,-0.55 0.561,-0.525C0.579,-0.499 0.588,-0.459 0.588,-0.403L0.588,-0L0.449,-0L0.449,-0.385C0.449,-0.404 0.447,-0.418 0.444,-0.425C0.44,-0.433 0.433,-0.437 0.422,-0.437C0.413,-0.437 0.404,-0.434 0.395,-0.429C0.386,-0.424 0.376,-0.415 0.366,-0.402L0.366,-0L0.252,-0L0.252,-0.385C0.252,-0.404 0.25,-0.418 0.246,-0.425C0.242,-0.433 0.235,-0.437 0.225,-0.437C0.215,-0.437 0.206,-0.434 0.197,-0.429C0.188,-0.424 0.178,-0.415 0.168,-0.402L0.168,-0L0.027,-0L0.027,-0.545L0.146,-0.545L0.157,-0.492C0.175,-0.516 0.192,-0.534 0.21,-0.545C0.227,-0.557 0.248,-0.563 0.271,-0.563C0.292,-0.563 0.31,-0.557 0.324,-0.547C0.338,-0.536 0.348,-0.52 0.354,-0.498C0.392,-0.541 0.432,-0.563 0.474,-0.563Z" style="fill:rgb(230,88,88);fill-rule:nonzero;"/>
            </g>
            <g transform="matrix(47.4656,0,0,47.4656,535.629,377)">
                <path d="M0.234,-0.489C0.251,-0.512 0.272,-0.53 0.296,-0.543C0.32,-0.556 0.346,-0.563 0.373,-0.563C0.441,-0.563 0.492,-0.537 0.525,-0.487C0.558,-0.436 0.574,-0.365 0.574,-0.274C0.574,-0.217 0.566,-0.167 0.549,-0.123C0.532,-0.079 0.507,-0.045 0.475,-0.02C0.442,0.005 0.403,0.017 0.356,0.017C0.329,0.017 0.304,0.012 0.28,0C0.257,-0.011 0.237,-0.028 0.222,-0.049L0.215,-0L0.072,-0L0.072,-0.761L0.234,-0.778L0.234,-0.489ZM0.314,-0.101C0.376,-0.101 0.407,-0.158 0.407,-0.272C0.407,-0.316 0.404,-0.35 0.397,-0.375C0.39,-0.4 0.38,-0.418 0.368,-0.428C0.355,-0.438 0.34,-0.443 0.322,-0.443C0.289,-0.443 0.259,-0.422 0.234,-0.38L0.234,-0.15C0.244,-0.134 0.256,-0.121 0.269,-0.113C0.282,-0.105 0.297,-0.101 0.314,-0.101Z" style="fill:rgb(230,88,88);fill-rule:nonzero;"/>
            </g>
            <g transform="matrix(47.4656,0,0,47.4656,564.838,377)">
                <path d="M0.488,-0.561C0.52,-0.561 0.55,-0.556 0.577,-0.545L0.547,-0.317L0.446,-0.317L0.446,-0.417C0.416,-0.412 0.389,-0.396 0.366,-0.368C0.342,-0.341 0.324,-0.306 0.311,-0.265L0.311,-0.109L0.418,-0.109L0.418,-0L0.077,-0L0.077,-0.109L0.149,-0.109L0.149,-0.437L0.077,-0.437L0.077,-0.545L0.272,-0.545L0.302,-0.422C0.322,-0.469 0.346,-0.504 0.377,-0.527C0.407,-0.55 0.444,-0.561 0.488,-0.561Z" style="fill:rgb(230,88,88);fill-rule:nonzero;"/>
            </g>
            <g transform="matrix(47.4656,0,0,47.4656,594.048,377)">
                <path d="M0.212,-0.225C0.217,-0.182 0.231,-0.151 0.254,-0.131C0.277,-0.111 0.307,-0.101 0.343,-0.101C0.389,-0.101 0.436,-0.116 0.483,-0.146L0.548,-0.057C0.521,-0.034 0.489,-0.016 0.452,-0.003C0.415,0.011 0.375,0.017 0.33,0.017C0.269,0.017 0.218,0.005 0.175,-0.019C0.133,-0.043 0.101,-0.077 0.079,-0.121C0.058,-0.164 0.047,-0.215 0.047,-0.272C0.047,-0.326 0.058,-0.375 0.078,-0.419C0.099,-0.464 0.13,-0.498 0.17,-0.524C0.21,-0.55 0.257,-0.563 0.313,-0.563C0.364,-0.563 0.409,-0.551 0.448,-0.529C0.486,-0.507 0.516,-0.475 0.537,-0.433C0.558,-0.391 0.568,-0.341 0.568,-0.283C0.568,-0.261 0.567,-0.242 0.565,-0.225L0.212,-0.225ZM0.313,-0.454C0.283,-0.454 0.259,-0.443 0.242,-0.422C0.224,-0.4 0.214,-0.367 0.21,-0.323L0.41,-0.323C0.409,-0.41 0.377,-0.454 0.313,-0.454Z" style="fill:rgb(230,88,88);fill-rule:nonzero;"/>
            </g>
            <g transform="matrix(47.4656,0,0,47.4656,652.467,377)">
                <path d="M0.108,-0.453L0.507,-0.453L0.507,-0.379L0.108,-0.379L0.108,-0.453ZM0.108,-0.259L0.507,-0.259L0.507,-0.184L0.108,-0.184L0.108,-0.259Z" style="fill-rule:nonzero;"/>
            </g>
            <g transform="matrix(47.4656,0,0,47.4656,710.886,377)">
                <path d="M0.464,-0.54L0.553,-0.54L0.357,-0L0.257,-0L0.062,-0.54L0.153,-0.54L0.31,-0.078L0.464,-0.54Z" style="fill:rgb(67,111,244);fill-rule:nonzero;"/>
            </g>
            <g transform="matrix(47.4656,0,0,47.4656,740.096,377)">
                <path d="M0.49,-0.118C0.49,-0.097 0.493,-0.081 0.5,-0.071C0.507,-0.061 0.518,-0.054 0.534,-0.049L0.513,0.012C0.461,0.005 0.428,-0.02 0.414,-0.064C0.395,-0.039 0.371,-0.02 0.341,-0.007C0.312,0.005 0.28,0.012 0.245,0.012C0.209,0.012 0.178,0.005 0.152,-0.009C0.125,-0.022 0.105,-0.042 0.091,-0.067C0.077,-0.092 0.07,-0.121 0.07,-0.155C0.07,-0.211 0.092,-0.253 0.135,-0.283C0.179,-0.313 0.242,-0.328 0.324,-0.328L0.403,-0.328L0.403,-0.373C0.403,-0.41 0.392,-0.438 0.37,-0.455C0.348,-0.472 0.316,-0.48 0.274,-0.48C0.234,-0.48 0.187,-0.471 0.134,-0.452L0.111,-0.517C0.171,-0.54 0.23,-0.551 0.288,-0.551C0.354,-0.551 0.404,-0.536 0.438,-0.505C0.473,-0.474 0.49,-0.431 0.49,-0.377L0.49,-0.118ZM0.267,-0.054C0.293,-0.054 0.319,-0.061 0.343,-0.074C0.367,-0.088 0.387,-0.106 0.403,-0.13L0.403,-0.269L0.325,-0.269C0.268,-0.269 0.227,-0.259 0.201,-0.24C0.175,-0.221 0.163,-0.192 0.163,-0.156C0.163,-0.088 0.197,-0.054 0.267,-0.054Z" style="fill:rgb(67,111,244);fill-rule:nonzero;"/>
            </g>
            <g transform="matrix(47.4656,0,0,47.4656,769.305,377)">
                <path d="M0.313,-0.133C0.313,-0.108 0.321,-0.089 0.337,-0.078C0.353,-0.066 0.375,-0.06 0.403,-0.06C0.432,-0.06 0.462,-0.066 0.493,-0.079L0.516,-0.016C0.5,-0.008 0.481,-0.001 0.459,0.004C0.437,0.009 0.414,0.012 0.388,0.012C0.356,0.012 0.328,0.006 0.304,-0.006C0.279,-0.018 0.261,-0.035 0.247,-0.058C0.234,-0.081 0.227,-0.107 0.227,-0.138L0.227,-0.689L0.062,-0.689L0.062,-0.757L0.313,-0.757L0.313,-0.133Z" style="fill:rgb(67,111,244);fill-rule:nonzero;"/>
            </g>
            <g transform="matrix(47.4656,0,0,47.4656,798.515,377)">
                <path d="M0.309,-0.551C0.359,-0.551 0.401,-0.54 0.435,-0.517C0.47,-0.494 0.496,-0.462 0.514,-0.42C0.531,-0.378 0.54,-0.328 0.54,-0.27C0.54,-0.215 0.531,-0.165 0.513,-0.123C0.495,-0.081 0.469,-0.048 0.434,-0.024C0.399,-0 0.357,0.012 0.308,0.012C0.258,0.012 0.215,0 0.181,-0.023C0.146,-0.046 0.12,-0.078 0.102,-0.121C0.084,-0.163 0.075,-0.212 0.075,-0.269C0.075,-0.325 0.084,-0.375 0.102,-0.417C0.12,-0.459 0.147,-0.492 0.182,-0.516C0.217,-0.539 0.259,-0.551 0.309,-0.551ZM0.309,-0.481C0.262,-0.481 0.227,-0.464 0.203,-0.429C0.179,-0.394 0.168,-0.341 0.168,-0.269C0.168,-0.198 0.179,-0.146 0.203,-0.111C0.226,-0.076 0.261,-0.059 0.308,-0.059C0.355,-0.059 0.39,-0.076 0.413,-0.111C0.436,-0.146 0.448,-0.199 0.448,-0.27C0.448,-0.341 0.436,-0.394 0.413,-0.429C0.39,-0.464 0.355,-0.481 0.309,-0.481Z" style="fill:rgb(67,111,244);fill-rule:nonzero;"/>
            </g>
            <g transform="matrix(47.4656,0,0,47.4656,827.725,377)">
                <path d="M0.468,-0.552C0.482,-0.552 0.495,-0.551 0.506,-0.549C0.518,-0.547 0.53,-0.544 0.544,-0.54L0.532,-0.357L0.461,-0.357L0.461,-0.472L0.456,-0.472C0.415,-0.472 0.379,-0.458 0.35,-0.428C0.32,-0.399 0.297,-0.354 0.278,-0.295L0.278,-0.066L0.388,-0.066L0.388,-0L0.108,-0L0.108,-0.066L0.192,-0.066L0.192,-0.474L0.108,-0.474L0.108,-0.54L0.258,-0.54L0.274,-0.412C0.296,-0.459 0.322,-0.494 0.352,-0.517C0.382,-0.54 0.421,-0.552 0.468,-0.552Z" style="fill:rgb(67,111,244);fill-rule:nonzero;"/>
            </g>
        </g>
    </g>
</svg>
