<svg xmlns="http://www.w3.org/2000/svg" width="286" height="66" fill-rule="evenodd" stroke-linejoin="round" stroke-miterlimit="2" xmlns:v="https://vecta.io/nano"><path d="M.001 0h286v65.056h-286z" fill="#ebebeb"/><path d="M19.601 43.606V27.729h4.108l.35 1.835c.699-.787 1.457-1.398 2.243-1.777s1.69-.583 2.68-.583c1.369 0 2.418.437 3.204 1.253.757.845 1.165 2.01 1.165 3.496v11.653h-4.719V33.322c0-.67-.058-1.194-.146-1.573-.117-.379-.262-.641-.466-.816-.233-.146-.524-.233-.932-.233-.466 0-.932.146-1.398.466-.437.291-.903.728-1.369 1.34v11.099h-4.719zm24.802-16.401c1.602 0 2.971.35 4.137 1.049s2.039 1.66 2.651 2.942c.612 1.253.903 2.738.903 4.428 0 1.777-.291 3.292-.903 4.544a6.85 6.85 0 0 1-2.651 2.942c-1.165.67-2.534.99-4.137.99-1.631 0-3.001-.32-4.166-.99s-2.039-1.631-2.651-2.913c-.583-1.253-.903-2.767-.903-4.544 0-1.69.32-3.146.932-4.428.612-1.253 1.486-2.243 2.651-2.942 1.165-.728 2.534-1.078 4.137-1.078zm0 3.496c-.961 0-1.69.408-2.156 1.194s-.699 2.039-.699 3.758c0 1.748.233 3.03.699 3.816s1.165 1.165 2.156 1.165c.961 0 1.69-.379 2.156-1.194.437-.787.67-2.068.67-3.816 0-1.69-.233-2.942-.699-3.729s-1.165-1.194-2.127-1.194zm22.763-3.496c1.136 0 1.981.379 2.534 1.107.524.757.787 1.923.787 3.554v11.74h-4.049V32.39c0-.553-.058-.961-.146-1.165-.117-.233-.32-.35-.641-.35-.262 0-.524.087-.787.233s-.553.408-.845.787v11.711h-3.321V32.39c0-.553-.058-.961-.175-1.165-.117-.233-.32-.35-.612-.35s-.553.087-.816.233-.553.408-.845.787v11.711h-4.108V27.729h3.467l.32 1.544c.524-.699 1.02-1.224 1.544-1.544.495-.35 1.107-.524 1.777-.524.612 0 1.136.175 1.544.466.408.32.699.787.874 1.427 1.107-1.253 2.272-1.894 3.496-1.894zm10.935 2.156c.495-.67 1.107-1.194 1.806-1.573a4.68 4.68 0 0 1 2.243-.583c1.981 0 3.467.757 4.428 2.214.961 1.486 1.427 3.554 1.427 6.205 0 1.66-.233 3.117-.728 4.399s-1.224 2.272-2.156 3.001c-.961.728-2.097 1.078-3.467 1.078-.787 0-1.515-.146-2.214-.495-.67-.32-1.253-.816-1.69-1.427l-.204 1.427H73.38v-22.17l4.719-.495v8.419zm2.331 11.303c1.806 0 2.709-1.66 2.709-4.981 0-1.282-.087-2.272-.291-3.001s-.495-1.253-.845-1.544c-.379-.291-.816-.437-1.34-.437-.961 0-1.835.612-2.564 1.835v6.7c.291.466.641.845 1.02 1.078a2.45 2.45 0 0 0 1.311.35zm22.995-13.401c.932 0 1.806.146 2.593.466l-.874 6.642h-2.942v-2.913c-.874.146-1.66.612-2.331 1.427-.699.787-1.224 1.806-1.602 3.001v4.544h3.117v3.175h-9.934V40.43h2.097v-9.555h-2.097v-3.146h5.681l.874 3.583c.583-1.369 1.282-2.389 2.185-3.059.874-.67 1.952-.99 3.234-.99zm9.887 9.788c.146 1.253.553 2.156 1.224 2.738s1.544.874 2.593.874c1.34 0 2.709-.437 4.078-1.311l1.894 2.593c-.787.67-1.719 1.194-2.797 1.573-1.078.408-2.243.583-3.554.583-1.777 0-3.263-.35-4.515-1.049-1.224-.699-2.156-1.69-2.797-2.971-.612-1.253-.932-2.738-.932-4.399 0-1.573.32-3.001.903-4.282a7.21 7.21 0 0 1 2.68-3.059c1.165-.758 2.534-1.136 4.166-1.136 1.486 0 2.797.35 3.933.99 1.107.641 1.981 1.573 2.593 2.797s.903 2.68.903 4.37c0 .641-.029 1.194-.087 1.69h-10.283zm2.942-6.671c-.874 0-1.573.32-2.068.932-.524.641-.816 1.602-.932 2.884h5.826c-.029-2.534-.961-3.816-2.826-3.816z" fill="#e65858" fill-rule="nonzero"/><path d="M146.138 30.409h11.623v2.156h-11.623v-2.156zm0 5.651h11.623v2.185h-11.623v-2.185z" fill-rule="nonzero"/><path d="M192.363 27.875h2.593l-5.71 15.731h-2.913l-5.681-15.731h2.651l4.574 13.459 4.486-13.459zm18.684 12.293c0 .612.087 1.078.291 1.369s.524.495.99.641l-.612 1.777c-1.515-.204-2.476-.932-2.884-2.214a5.22 5.22 0 0 1-2.127 1.66c-.845.35-1.777.553-2.797.553-1.049 0-1.952-.204-2.709-.612a3.99 3.99 0 0 1-1.777-1.69c-.408-.729-.612-1.573-.612-2.564 0-1.631.641-2.855 1.894-3.729 1.282-.874 3.117-1.311 5.506-1.311h2.301V32.74c0-1.078-.32-1.894-.961-2.389s-1.573-.728-2.797-.728c-1.165 0-2.534.262-4.078.816l-.67-1.894c1.748-.67 3.467-.99 5.156-.99 1.923 0 3.379.437 4.37 1.34 1.02.903 1.515 2.156 1.515 3.729v7.545zm-6.496 1.864c.757 0 1.515-.204 2.214-.583a5.19 5.19 0 0 0 1.748-1.631v-4.049h-2.272c-1.66 0-2.855.291-3.612.845s-1.107 1.398-1.107 2.447c0 1.981.99 2.971 3.03 2.971zm19.267-2.301c0 .728.233 1.282.699 1.602.466.35 1.107.524 1.923.524.845 0 1.719-.175 2.622-.553l.67 1.835c-.466.233-1.02.437-1.66.583a9.17 9.17 0 0 1-2.068.233c-.932 0-1.748-.175-2.447-.524-.728-.35-1.253-.845-1.66-1.515-.379-.67-.583-1.427-.583-2.331V23.534h-4.807v-1.981h7.312v18.178zm17.81-12.177c1.457 0 2.68.32 3.671.99 1.02.67 1.777 1.602 2.301 2.826.495 1.224.757 2.68.757 4.37 0 1.602-.262 3.059-.787 4.282s-1.282 2.185-2.301 2.884-2.243 1.049-3.671 1.049c-1.457 0-2.709-.35-3.7-1.02-1.02-.67-1.777-1.602-2.301-2.855-.524-1.224-.787-2.651-.787-4.311 0-1.631.262-3.088.787-4.311s1.311-2.185 2.331-2.884c1.02-.67 2.243-1.02 3.7-1.02zm0 2.039c-1.369 0-2.389.495-3.088 1.515s-1.02 2.564-1.02 4.661c0 2.068.32 3.583 1.02 4.603.67 1.02 1.69 1.515 3.059 1.515s2.389-.495 3.059-1.515 1.02-2.564 1.02-4.632-.35-3.612-1.02-4.632-1.69-1.515-3.03-1.515zm22.559-2.068a6.32 6.32 0 0 1 1.107.087 10 10 0 0 1 1.107.262l-.35 5.331h-2.068v-3.35h-.146c-1.194 0-2.243.408-3.088 1.282-.874.845-1.544 2.156-2.097 3.874v6.671h3.204v1.923H253.7v-1.923h2.447V29.798H253.7v-1.923h4.37l.466 3.729c.641-1.369 1.398-2.389 2.272-3.059s2.01-1.02 3.379-1.02z" fill-rule="nonzero" fill="#436ff4"/></svg>