<svg xmlns="http://www.w3.org/2000/svg" xmlns:xlink="http://www.w3.org/1999/xlink" width="927" height="187" fill-rule="evenodd" stroke-linecap="round" stroke-linejoin="round" stroke-miterlimit="1.5" xmlns:v="https://vecta.io/nano"><style><![CDATA[.B{fill-rule:nonzero}.C{fill:#ffd983}.D{fill:#d99e82}.E{fill:#c1694f}.F{fill:#734f00}.G{fill:#83eeff}.H{fill:#00b1cd}.I{fill:#00899f}.J{fill:#004651}.K{fill:#1ae6c0}.L{stroke:#000}.M{fill:#0b6555}.N{stroke-width:1.97}.O{stroke-miterlimit:2}]]></style><path d="M2 51.703h84v84H2z" class="K L"/><path d="M51.14 73.423c0-.18.06-.36.24-.54.12-.12.3-.18.48-.18h7.02c.18 0 .36.06.54.18.12.18.18.36.18.54v40.56c0 .18-.06.36-.18.48-.18.18-.36.24-.54.24h-7.02c-.18 0-.36-.06-.48-.24-.18-.12-.24-.3-.24-.48v-16.56c0-.18-.12-.3-.3-.3H37.58c-.18 0-.3.12-.3.3v16.56c0 .18-.06.36-.18.48-.18.18-.36.24-.54.24h-7.02c-.18 0-.36-.06-.48-.24-.18-.12-.24-.3-.24-.48v-40.56c0-.18.06-.36.24-.54.12-.12.3-.18.48-.18h7.02c.18 0 .36.06.54.18.12.18.18.36.18.54v16.14c0 .18.12.3.3.3h13.26c.18 0 .3-.12.3-.3v-16.14z" class="B M"/><path d="M86 51.703h84v84H86z" class="K L"/><use xlink:href="#B" class="B M"/><path d="M170 51.703h84v84h-84z" class="K L"/><path d="M208.52 114.703c-.18 0-.36-.06-.48-.24-.18-.12-.24-.3-.24-.48v-40.56c0-.18.06-.36.24-.54.12-.12.3-.18.48-.18h7.02c.18 0 .36.06.54.18.12.18.18.36.18.54v40.56c0 .18-.06.36-.18.48-.18.18-.36.24-.54.24h-7.02z" class="B M"/><path d="M254 51.703h84v84h-84z" class="K L"/><path d="M295.58 83.383c2.58 0 4.92.42 6.96 1.32s3.66 2.16 4.8 3.72c1.08 1.56 1.68 3.3 1.68 5.22v20.34c0 .18-.06.36-.18.48-.18.18-.36.24-.54.24h-7.02c-.18 0-.36-.06-.48-.24-.18-.12-.24-.3-.24-.48v-1.98c0-.12-.06-.18-.12-.24s-.18 0-.24.12c-1.68 2.22-4.38 3.3-8.1 3.3-3.12 0-5.64-.78-7.56-2.28s-2.88-3.78-2.88-6.72c0-3.06 1.08-5.46 3.24-7.2 2.16-1.68 5.22-2.52 9.24-2.52h6.12c.18 0 .3-.12.3-.3v-1.32c0-1.32-.42-2.34-1.2-3.12-.78-.72-1.98-1.08-3.6-1.08-1.26 0-2.28.24-3.06.66-.84.42-1.38 1.08-1.62 1.86-.12.42-.36.66-.78.6l-7.26-.96c-.48-.06-.72-.24-.66-.54.18-1.68.84-3.18 2.04-4.56 1.14-1.38 2.7-2.4 4.68-3.18 1.92-.78 4.08-1.14 6.48-1.14zm-1.2 25.5c1.74 0 3.18-.48 4.38-1.38s1.8-2.1 1.8-3.54v-2.16c0-.18-.12-.3-.3-.3h-4.32c-1.8 0-3.18.36-4.2 1.02-1.08.66-1.56 1.62-1.56 2.88 0 1.08.36 1.92 1.14 2.52.78.66 1.8.96 3.06.96z" class="B M"/><path d="M338 51.703h84v84h-84z" class="K L"/><path d="M375.17 120.583c-.48 0-.72-.24-.66-.78l1.98-13.92c.06-.42.3-.66.78-.66h6.12c.54 0 .72.24.6.78l-3.72 13.98c-.12.42-.42.6-.84.6h-4.26z" class="B M"/><g class="K L"><path d="M422 51.703h84v84h-84z"/><path d="M506 51.703h84v84h-84z"/></g><path d="M557.21 73.183c.18-.3.48-.48.84-.48h7.02c.18 0 .36.06.54.18.12.18.18.36.18.54v40.56c0 .18-.06.36-.18.48-.18.18-.36.24-.54.24h-7.02c-.18 0-.36-.06-.48-.24-.18-.12-.24-.3-.24-.48v-26.46c0-.18-.06-.24-.12-.24s-.18.06-.24.18l-6.36 9.96c-.18.3-.48.48-.84.48h-3.54c-.36 0-.66-.18-.84-.48l-6.36-9.96c-.06-.12-.18-.18-.24-.18-.06.06-.12.12-.12.3v26.4c0 .18-.06.36-.18.48-.18.18-.36.24-.54.24h-7.02c-.18 0-.36-.06-.48-.24-.18-.12-.24-.3-.24-.48v-40.56c0-.18.06-.36.24-.54.12-.12.3-.18.48-.18h7.02c.36 0 .66.18.84.48l9 13.98c.12.24.24.24.36 0l9.06-13.98z" class="B M"/><path d="M590 51.703h84v84h-84z" class="K L"/><path d="M636.77 84.583c0-.18.06-.36.24-.54.12-.12.3-.18.48-.18h7.02c.18 0 .36.06.54.18.12.18.18.36.18.54v29.4c0 .18-.06.36-.18.48-.18.18-.36.24-.54.24h-7.02c-.18 0-.36-.06-.48-.24-.18-.12-.24-.3-.24-.48v-2.04c0-.12-.06-.18-.12-.24-.06 0-.18.06-.24.18-1.62 2.16-4.08 3.24-7.44 3.24-3.06 0-5.52-.9-7.5-2.76s-2.94-4.44-2.94-7.74v-20.04c0-.18.06-.36.24-.54.12-.12.3-.18.48-.18h6.96c.18 0 .36.06.54.18.12.18.18.36.18.54v17.94c0 1.62.42 2.88 1.32 3.9.84 1.02 2.04 1.5 3.54 1.5 1.38 0 2.46-.42 3.36-1.26.9-.78 1.44-1.86 1.62-3.18v-18.9z" class="B M"/><path d="M674 51.703h84v84h-84z" class="K L"/><path d="M718.79 83.383c3.18 0 5.76.96 7.74 2.94s2.94 4.62 2.94 7.98v19.68c0 .18-.06.36-.18.48-.18.18-.36.24-.54.24h-7.02c-.18 0-.36-.06-.48-.24-.18-.12-.24-.3-.24-.48v-17.94c0-1.62-.48-2.88-1.32-3.9-.9-1.02-2.1-1.5-3.6-1.5s-2.64.48-3.54 1.5-1.38 2.28-1.38 3.9v17.94c0 .18-.06.36-.18.48-.18.18-.36.24-.54.24h-7.02c-.18 0-.36-.06-.48-.24-.18-.12-.24-.3-.24-.48v-29.4c0-.18.06-.36.24-.54.12-.12.3-.18.48-.18h7.02c.18 0 .36.06.54.18.12.18.18.36.18.54v2.1c0 .12.06.18.12.24s.12 0 .18-.06c1.62-2.34 4.08-3.48 7.32-3.48z" class="B M"/><path d="M758 51.703h84v84h-84z" class="K L"/><path d="M805.28 73.423c0-.18.06-.36.24-.54.12-.12.3-.18.48-.18h7.02c.18 0 .36.06.54.18.12.18.18.36.18.54v40.56c0 .18-.06.36-.18.48-.18.18-.36.24-.54.24H806c-.18 0-.36-.06-.48-.24-.18-.12-.24-.3-.24-.48v-1.98c0-.12-.06-.18-.12-.24-.06 0-.18.06-.24.12-1.68 2.22-3.96 3.3-6.9 3.3-2.82 0-5.22-.78-7.2-2.34-2.04-1.56-3.48-3.72-4.38-6.42-.66-2.1-1.02-4.5-1.02-7.26 0-2.82.36-5.34 1.08-7.44.9-2.58 2.34-4.62 4.38-6.12 1.98-1.44 4.38-2.22 7.32-2.22 2.88 0 5.1 1.02 6.72 3 .06.12.18.18.24.12s.12-.12.12-.24v-12.84zm-1.26 31.92c.78-1.5 1.2-3.48 1.2-6.06 0-2.7-.42-4.8-1.32-6.3-.9-1.56-2.28-2.34-4.02-2.34-1.86 0-3.3.78-4.26 2.34-1.02 1.56-1.5 3.66-1.5 6.36 0 2.4.42 4.38 1.26 6 1.02 1.74 2.46 2.58 4.44 2.58 1.8 0 3.18-.84 4.2-2.58z" class="B M"/><path d="M842 51.703h84v84h-84z" class="K L"/><use xlink:href="#B" x="756" class="B M"/><g transform="matrix(1.43774 -1.43774 1.43774 1.43774 -2078.956 764.043)" class="B"><use xlink:href="#C" stroke="#734f00" class="C N O"/><use xlink:href="#D" class="D"/><use xlink:href="#E" class="E"/></g><use xlink:href="#F" class="B F"/><g transform="matrix(1.43774 -1.43774 1.43774 1.43774 -1994.956 764.043)" class="B"><use xlink:href="#C" class="C"/><use xlink:href="#D" class="D"/><use xlink:href="#E" class="E"/></g><use xlink:href="#G" class="B F"/><g transform="matrix(1.43774 -1.43774 1.43774 1.43774 -1910.956 764.043)" class="B"><use xlink:href="#C" class="C"/><use xlink:href="#D" class="D"/><use xlink:href="#E" class="E"/></g><use xlink:href="#H" class="B F"/><g transform="matrix(1.43774 -1.43774 1.43774 1.43774 -1826.956 764.043)" class="B"><use xlink:href="#C" class="C"/><use xlink:href="#D" class="D"/><use xlink:href="#E" class="E"/></g><use xlink:href="#I" class="B F"/><g transform="matrix(1.43774 -1.43774 1.43774 1.43774 -1742.956 764.043)" class="B"><use xlink:href="#C" class="C"/><use xlink:href="#D" class="D"/><use xlink:href="#E" class="E"/></g><use xlink:href="#J" class="B F"/><g transform="matrix(1.43774 -1.43774 1.43774 1.43774 -1658.956 764.043)" class="B"><use xlink:href="#C" class="C"/><use xlink:href="#D" class="D"/><use xlink:href="#E" class="E"/></g><use xlink:href="#K" class="B F"/><g transform="matrix(1.43774 -1.43774 1.43774 1.43774 -1574.956 764.043)" class="B"><use xlink:href="#C" class="C"/><use xlink:href="#D" class="D"/><use xlink:href="#E" class="E"/></g><use xlink:href="#L" class="B F"/><g transform="matrix(1.43774 -1.43774 1.43774 1.43774 -1490.956 764.043)" class="B"><use xlink:href="#C" class="C"/><use xlink:href="#D" class="D"/><use xlink:href="#E" class="E"/></g><path d="M641.874 156.187l-8.4 19.11-3.24-.99 8.13-17.88h-9.72v-2.73h13.23v2.49z" class="B F"/><g transform="matrix(1.43774 -1.43774 1.43774 1.43774 -1406.956 764.043)" class="B"><use xlink:href="#C" class="C"/><use xlink:href="#D" class="D"/><use xlink:href="#E" class="E"/></g><use xlink:href="#M" class="B F"/><g transform="matrix(1.43774 -1.43774 1.43774 1.43774 -1322.956 764.043)" class="B"><use xlink:href="#C" class="C"/><use xlink:href="#D" class="D"/><use xlink:href="#E" class="E"/></g><use xlink:href="#N" class="B F"/><g transform="matrix(1.43774 -1.43774 1.43774 1.43774 -1238.956 764.043)" class="B"><use xlink:href="#C" class="C"/><use xlink:href="#D" class="D"/><use xlink:href="#E" class="E"/></g><g class="B F"><use xlink:href="#G" x="746.769"/><use xlink:href="#F" x="849.231"/></g><g transform="matrix(1.43774 -1.43774 1.43774 1.43774 -1238.956 623.797)" class="B"><use xlink:href="#C" stroke="#004651" class="G N O"/><use xlink:href="#D" class="H"/><use xlink:href="#E" x="-9.598" y="9.73" class="I"/></g><g class="B J"><use xlink:href="#O"/><use xlink:href="#G" x="765.231" y="-140.246"/></g><g transform="matrix(1.43774 -1.43774 1.43774 1.43774 -1322.956 623.797)" class="B"><use xlink:href="#C" class="G"/><use xlink:href="#D" class="H"/><use xlink:href="#E" x="-9.598" y="9.73" class="I"/></g><g class="B J"><use xlink:href="#O" x="-84"/><use xlink:href="#H" x="597.231" y="-140.246"/></g><g transform="matrix(1.43774 -1.43774 1.43774 1.43774 -1406.956 623.797)" class="B"><use xlink:href="#C" class="G"/><use xlink:href="#D" class="H"/><use xlink:href="#E" x="-9.598" y="9.73" class="I"/></g><g class="B J"><use xlink:href="#O" x="-168"/><use xlink:href="#I" x="429.231" y="-140.246"/></g><g transform="matrix(1.43774 -1.43774 1.43774 1.43774 -1490.956 623.797)" class="B"><use xlink:href="#C" class="G"/><use xlink:href="#D" class="H"/><use xlink:href="#E" x="-9.598" y="9.73" class="I"/></g><g class="B J"><use xlink:href="#O" x="-252"/><use xlink:href="#J" x="261.231" y="-140.246"/></g><g transform="matrix(1.43774 -1.43774 1.43774 1.43774 -1574.956 623.797)" class="B"><use xlink:href="#C" class="G"/><use xlink:href="#D" class="H"/><use xlink:href="#E" x="-9.598" y="9.73" class="I"/></g><g class="B J"><use xlink:href="#O" x="-336"/><use xlink:href="#K" x="93.231" y="-140.246"/></g><g transform="matrix(1.43774 -1.43774 1.43774 1.43774 -1658.956 623.797)" class="B"><use xlink:href="#C" class="G"/><use xlink:href="#D" class="H"/><use xlink:href="#E" x="-9.598" y="9.73" class="I"/></g><g class="B J"><use xlink:href="#O" x="-420"/><use xlink:href="#L" x="-74.769" y="-140.246"/></g><g transform="matrix(1.43774 -1.43774 1.43774 1.43774 -1742.956 623.797)" class="B"><use xlink:href="#C" class="G"/><use xlink:href="#D" class="H"/><use xlink:href="#E" x="-9.598" y="9.73" class="I"/></g><g class="B J"><use xlink:href="#O" x="-504"/><path d="M399.105 15.941l-8.4 19.11-3.24-.99 8.13-17.88h-9.72v-2.73h13.23v2.49z"/></g><g transform="matrix(1.43774 -1.43774 1.43774 1.43774 -1826.956 623.797)" class="B"><use xlink:href="#C" class="G"/><use xlink:href="#D" class="H"/><use xlink:href="#E" x="-9.598" y="9.73" class="I"/></g><g class="B J"><use xlink:href="#O" x="-588"/><use xlink:href="#M" x="-410.769" y="-140.246"/></g><g transform="matrix(1.43774 -1.43774 1.43774 1.43774 -1910.956 623.797)" class="B"><use xlink:href="#C" class="G"/><use xlink:href="#D" class="H"/><use xlink:href="#E" x="-9.598" y="9.73" class="I"/></g><g class="B J"><use xlink:href="#O" x="-672"/><use xlink:href="#N" x="-578.769" y="-140.246"/></g><g transform="matrix(1.43774 -1.43774 1.43774 1.43774 -1994.956 623.797)" class="B"><use xlink:href="#C" class="G"/><use xlink:href="#D" class="H"/><use xlink:href="#E" x="-9.598" y="9.73" class="I"/></g><path d="M109.731 23.605h11.024v2.444h-11.024zm23.956-8.84v16.068h3.692v2.34h-11.154v-2.34h4.498v-13l-4.056 2.496-1.274-2.08 5.668-3.484h2.626zm13.556-.364c1.352 0 2.496.364 3.432 1.118.936.728 1.638 1.82 2.106 3.25.494 1.43.728 3.146.728 5.174s-.234 3.77-.728 5.2c-.468 1.43-1.17 2.522-2.106 3.276-.936.728-2.08 1.118-3.432 1.118-2.054 0-3.614-.832-4.68-2.496-1.066-1.638-1.586-4.004-1.586-7.098 0-3.068.52-5.434 1.586-7.072s2.626-2.47 4.68-2.47zm0 2.288c-1.092 0-1.924.572-2.47 1.742-.546 1.144-.832 2.99-.832 5.512 0 1.898.104 3.354.338 4.42l5.2-10.608c-.26-.39-.572-.65-.936-.832-.364-.156-.78-.234-1.3-.234zm0 14.56c1.092 0 1.898-.572 2.47-1.742.546-1.144.806-2.99.806-5.564 0-1.742-.078-3.094-.26-4.056l-5.148 10.478c.26.312.572.52.91.676a3.43 3.43 0 0 0 1.222.208z" class="B J"/><g transform="matrix(1.43774 -1.43774 1.43774 1.43774 -2078.956 623.797)" class="B"><use xlink:href="#C" class="G"/><use xlink:href="#D" class="H"/><use xlink:href="#E" x="-9.598" y="9.73" class="I"/></g><path d="M25.731 23.605h11.024v2.444H25.731zm23.956-8.84v16.068h3.692v2.34H42.225v-2.34h4.498v-13l-4.056 2.496-1.274-2.08 5.668-3.484h2.626zm16 0v16.068h3.692v2.34H58.225v-2.34h4.498v-13l-4.056 2.496-1.274-2.08 5.668-3.484h2.626z" class="B J"/><defs ><path id="B" d="M128.03 115.183c-3.36 0-6.24-.9-8.64-2.64s-4.02-4.14-4.92-7.2c-.54-1.86-.84-3.9-.84-6.12 0-2.34.3-4.5.84-6.36.9-2.94 2.58-5.28 4.98-6.96s5.28-2.52 8.64-2.52c3.3 0 6.06.84 8.4 2.46 2.34 1.68 3.96 4.02 4.92 6.96.66 1.98.96 4.08.96 6.3a21.75 21.75 0 0 1-.84 6.06c-.9 3.12-2.52 5.58-4.86 7.32-2.4 1.8-5.28 2.7-8.64 2.7zm0-7.26c1.32 0 2.46-.42 3.36-1.2s1.56-1.92 1.98-3.3c.3-1.26.48-2.7.48-4.2 0-1.68-.18-3.12-.48-4.26-.42-1.38-1.14-2.4-2.04-3.18s-2.04-1.14-3.36-1.14c-1.38 0-2.46.36-3.36 1.14s-1.56 1.8-1.98 3.18c-.3.96-.48 2.4-.48 4.26 0 1.8.12 3.18.42 4.2.42 1.38 1.08 2.52 2.04 3.3.9.78 2.04 1.2 3.42 1.2z"/><path id="C" d="M961.786 529.303l-14.672-14.435c-.658-.659-1.522-.746-2.385-.746h-10.077c-1.854 0-2.883 1.029-2.883 2.883v10.082c0 .861.089 1.723.746 2.38l14.554 14.672c.618.629 1.463.983 2.344.983s1.726-.354 2.344-.983l10.059-10.088c1.31-1.312 1.28-3.438-.03-4.748zm-23.596-8.76a1.5 1.5 0 0 1-1.059.439c-.821 0-1.497-.676-1.497-1.497 0-.397.157-.778.438-1.059a1.5 1.5 0 0 1 1.059-.439c.821 0 1.497.676 1.497 1.498 0 .397-.157.778-.438 1.058z"/><path id="D" d="M939.721 516.894a3.66 3.66 0 0 0-5.179 0c-.687.687-1.073 1.619-1.073 2.59 0 2.01 1.654 3.663 3.663 3.663.971 0 1.903-.386 2.59-1.073 1.42-1.421 1.419-3.759-.001-5.18zm-1.53 3.65a1.5 1.5 0 0 1-1.08.46c-.823 0-1.499-.677-1.499-1.499a1.5 1.5 0 0 1 1.499-1.499 1.51 1.51 0 0 1 1.499 1.499 1.5 1.5 0 0 1-.419 1.039z"/><path id="E" d="M938.276 519.623a1 1 0 0 1-.708.293c-.548 0-1-.451-1-1 0-.265.106-.519.293-.707l8.485-8.485c.188-.187.442-.293.708-.293.548 0 1 .452 1 1a1 1 0 0 1-.293.707l-8.485 8.485z"/><path id="F" d="M47.244 153.277c1.56 0 2.88.42 3.96 1.29 1.08.84 1.89 2.1 2.43 3.75.57 1.65.84 3.63.84 5.97s-.27 4.35-.84 6c-.54 1.65-1.35 2.91-2.43 3.78-1.08.84-2.4 1.29-3.96 1.29-2.37 0-4.17-.96-5.4-2.88-1.23-1.89-1.83-4.62-1.83-8.19 0-3.54.6-6.27 1.83-8.16s3.03-2.85 5.4-2.85zm0 2.64c-1.26 0-2.22.66-2.85 2.01-.63 1.32-.96 3.45-.96 6.36 0 2.19.12 3.87.39 5.1l6-12.24a2.73 2.73 0 0 0-1.08-.96c-.42-.18-.9-.27-1.5-.27zm0 16.8c1.26 0 2.19-.66 2.85-2.01.63-1.32.93-3.45.93-6.42 0-2.01-.09-3.57-.3-4.68l-5.94 12.09c.3.36.66.6 1.05.78.39.15.87.24 1.41.24z"/><path id="G" d="M134.064 153.697v18.54h4.26v2.7h-12.87v-2.7h5.19v-15l-4.68 2.88-1.47-2.4 6.54-4.02h3.03z"/><path id="H" d="M214.374 153.277c1.41 0 2.61.27 3.63.78 1.02.54 1.8 1.26 2.31 2.16.54.9.81 1.92.81 3.06 0 1.23-.3 2.46-.87 3.63s-1.5 2.49-2.79 3.9c-1.32 1.44-3.12 3.21-5.49 5.37h9.66l-.42 2.76h-13.2v-2.61l5.97-6.03c1.32-1.44 2.25-2.67 2.76-3.69.54-1.02.81-2.07.81-3.12 0-1.08-.3-1.92-.9-2.52-.6-.63-1.44-.93-2.52-.93-.93 0-1.74.18-2.37.51-.66.36-1.29.93-1.92 1.71l-2.25-1.71c.84-1.08 1.83-1.89 2.91-2.46 1.08-.54 2.37-.81 3.87-.81z"/><path id="I" d="M298.314 153.277c1.35 0 2.55.24 3.57.72 1.05.48 1.83 1.14 2.37 1.95a4.57 4.57 0 0 1 .84 2.7c0 .84-.18 1.62-.54 2.31s-.87 1.26-1.5 1.71c-.63.48-1.35.78-2.16.99.9.09 1.74.33 2.46.75.75.39 1.32.99 1.77 1.74.42.75.66 1.65.66 2.73 0 1.2-.33 2.31-.96 3.3s-1.53 1.74-2.7 2.31-2.52.87-4.05.87c-1.38 0-2.64-.27-3.84-.75-1.2-.51-2.22-1.26-3.03-2.22l2.1-1.86c.6.69 1.29 1.23 2.1 1.56a6.14 6.14 0 0 0 2.52.54c1.32 0 2.37-.36 3.12-1.05.78-.69 1.17-1.62 1.17-2.82 0-1.32-.36-2.25-1.08-2.85-.72-.57-1.74-.87-3.03-.87h-1.83l.42-2.52h1.29c.69 0 1.29-.15 1.86-.39a2.95 2.95 0 0 0 1.35-1.14c.33-.48.51-1.11.51-1.83a3.28 3.28 0 0 0-.48-1.74c-.33-.48-.75-.84-1.32-1.11-.54-.24-1.17-.36-1.86-.36-.87 0-1.65.15-2.34.45-.69.33-1.38.81-2.07 1.44l-1.83-1.95c1.83-1.74 4.02-2.61 6.51-2.61z"/><path id="J" d="M388.044 167.377h2.52v2.67h-2.52v4.89h-3.33v-4.89h-8.82v-2.4l6.12-14.37 2.91 1.14-5.43 12.96h5.22l.42-5.7h2.91v5.7z"/><path id="K" d="M473.304 153.697l-.45 2.58h-8.13v5.91c.57-.3 1.14-.51 1.71-.63.54-.12 1.14-.18 1.74-.18 1.14 0 2.16.27 3.06.81.87.54 1.56 1.29 2.07 2.31s.75 2.22.75 3.63-.33 2.67-.96 3.75c-.63 1.11-1.5 1.95-2.67 2.55-1.14.63-2.49.93-3.99.93-2.58 0-4.77-.93-6.51-2.79l2.07-1.95c1.17 1.35 2.61 2.01 4.29 2.01 1.32 0 2.34-.42 3.06-1.2.75-.78 1.11-1.89 1.11-3.33 0-1.47-.3-2.55-.93-3.21-.6-.66-1.44-.99-2.52-.99-.51 0-1.02.06-1.47.18-.48.12-.99.3-1.59.54h-2.52v-10.92h11.88z"/><path id="L" d="M552.504 160.957c1.11 0 2.13.24 3.03.78.9.51 1.62 1.29 2.16 2.31s.81 2.25.81 3.72c0 1.5-.3 2.82-.93 3.96-.6 1.14-1.41 2.04-2.49 2.67-1.05.63-2.25.96-3.6.96-2.55 0-4.41-.93-5.61-2.76-1.17-1.83-1.77-4.35-1.77-7.53 0-2.37.33-4.44.99-6.21.69-1.77 1.65-3.15 2.91-4.11 1.26-.99 2.76-1.47 4.5-1.47 1.62 0 3.06.42 4.35 1.29l-1.32 2.22c-.93-.6-1.95-.9-3.03-.9-.96 0-1.8.3-2.52.9-.69.63-1.26 1.5-1.65 2.64-.42 1.14-.66 2.46-.69 4.02 1.26-1.65 2.88-2.49 4.86-2.49zm-1.02 11.79c1.17 0 2.04-.45 2.64-1.29.57-.87.87-2.04.87-3.54 0-1.56-.27-2.67-.84-3.36-.54-.69-1.35-1.02-2.37-1.02a4.22 4.22 0 0 0-2.31.66c-.69.45-1.32 1.05-1.83 1.83.03 1.56.18 2.82.45 3.78.27.99.69 1.71 1.23 2.22.57.48 1.29.72 2.16.72z"/><path id="M" d="M725.874 158.767c0 .99-.3 1.86-.87 2.61-.6.75-1.47 1.44-2.67 2.1 1.41.63 2.49 1.44 3.24 2.4.75.99 1.14 2.1 1.14 3.33 0 1.17-.3 2.19-.9 3.12s-1.47 1.68-2.61 2.22-2.49.81-4.05.81c-1.53 0-2.88-.27-3.99-.81s-1.95-1.26-2.55-2.19c-.57-.9-.87-1.95-.87-3.06 0-1.23.36-2.28 1.08-3.21.72-.9 1.74-1.65 3.06-2.25-1.14-.6-1.98-1.26-2.49-2.01-.54-.75-.78-1.71-.78-2.88 0-1.2.3-2.22.93-3.09a5.88 5.88 0 0 1 2.49-1.92c.99-.45 2.07-.66 3.21-.66 1.2 0 2.28.21 3.3.63.99.42 1.8 1.05 2.4 1.86.63.84.93 1.83.93 3zm-9.93.21c0 .66.15 1.23.45 1.65s.75.78 1.29 1.08c.57.3 1.35.6 2.31.93.9-.57 1.56-1.11 1.95-1.68.39-.54.57-1.23.57-2.01 0-.96-.27-1.74-.84-2.31s-1.38-.84-2.43-.84-1.86.27-2.43.81c-.57.57-.87 1.35-.87 2.37zm7.23 10.26c0-.84-.18-1.5-.57-2.01s-.9-.93-1.59-1.26c-.66-.33-1.62-.72-2.91-1.17-1.89.99-2.82 2.43-2.82 4.38 0 1.11.33 1.98.99 2.61.69.63 1.65.96 2.94.96.84 0 1.56-.15 2.16-.48.6-.3 1.05-.72 1.35-1.26.3-.51.45-1.11.45-1.77z"/><path id="N" d="M802.974 153.307c1.59 0 2.94.36 4.02 1.05 1.08.72 1.89 1.71 2.43 3 .54 1.26.84 2.79.84 4.56 0 2.79-.42 5.07-1.26 6.84-.81 1.77-2.1 3.18-3.81 4.26-1.71 1.05-4.02 1.95-6.87 2.67l-.78-2.52c1.92-.51 3.51-1.14 4.77-1.83s2.22-1.56 2.94-2.58c.72-.99 1.17-2.25 1.32-3.69-.66.72-1.38 1.29-2.16 1.68-.75.39-1.62.57-2.58.57-1.17 0-2.19-.27-3.12-.84-.9-.54-1.62-1.32-2.13-2.37-.54-1.02-.81-2.22-.81-3.57 0-1.5.33-2.79.96-3.87s1.5-1.92 2.58-2.49 2.31-.87 3.66-.87zm-.27 11.46c.78 0 1.47-.18 2.13-.54.63-.36 1.23-.9 1.86-1.62-.03-1.62-.15-2.88-.39-3.87-.24-.96-.63-1.68-1.17-2.13s-1.26-.69-2.16-.69c-1.2 0-2.1.39-2.73 1.17s-.96 1.92-.96 3.45c0 1.44.3 2.52.9 3.18.6.69 1.44 1.05 2.52 1.05z"/><path id="O" d="M871.653 23.651h12.72v2.82h-12.72z"/></defs></svg>