<?xml version="1.0" encoding="UTF-8" standalone="no"?>
<!DOCTYPE svg PUBLIC "-//W3C//DTD SVG 1.1//EN" "http://www.w3.org/Graphics/SVG/1.1/DTD/svg11.dtd">
<svg width="927px" height="187px" version="1.1" xmlns="http://www.w3.org/2000/svg" xmlns:xlink="http://www.w3.org/1999/xlink" xml:space="preserve" xmlns:serif="http://www.serif.com/" style="fill-rule:evenodd;clip-rule:evenodd;stroke-linecap:round;stroke-linejoin:round;stroke-miterlimit:1.5;">
    <g transform="matrix(1,0,0,1,-496,-446.297)">
        <g transform="matrix(1,0,0,1,-4,102)">
            <rect x="502" y="396" width="84" height="84" style="fill:rgb(26,230,192);stroke:black;stroke-width:1px;"/>
            <g transform="matrix(60,0,0,60,525.16,459)">
                <path d="M0.433,-0.688C0.433,-0.691 0.434,-0.694 0.437,-0.697C0.439,-0.699 0.442,-0.7 0.445,-0.7L0.562,-0.7C0.565,-0.7 0.568,-0.699 0.571,-0.697C0.573,-0.694 0.574,-0.691 0.574,-0.688L0.574,-0.012C0.574,-0.009 0.573,-0.006 0.571,-0.004C0.568,-0.001 0.565,-0 0.562,-0L0.445,-0C0.442,-0 0.439,-0.001 0.437,-0.004C0.434,-0.006 0.433,-0.009 0.433,-0.012L0.433,-0.288C0.433,-0.291 0.431,-0.293 0.428,-0.293L0.207,-0.293C0.204,-0.293 0.202,-0.291 0.202,-0.288L0.202,-0.012C0.202,-0.009 0.201,-0.006 0.199,-0.004C0.196,-0.001 0.193,-0 0.19,-0L0.073,-0C0.07,-0 0.067,-0.001 0.065,-0.004C0.062,-0.006 0.061,-0.009 0.061,-0.012L0.061,-0.688C0.061,-0.691 0.062,-0.694 0.065,-0.697C0.067,-0.699 0.07,-0.7 0.073,-0.7L0.19,-0.7C0.193,-0.7 0.196,-0.699 0.199,-0.697C0.201,-0.694 0.202,-0.691 0.202,-0.688L0.202,-0.419C0.202,-0.416 0.204,-0.414 0.207,-0.414L0.428,-0.414C0.431,-0.414 0.433,-0.416 0.433,-0.419L0.433,-0.688Z" style="fill:rgb(11,101,85);fill-rule:nonzero;"/>
            </g>
        </g>
        <g transform="matrix(1,0,0,1,80,102)">
            <rect x="502" y="396" width="84" height="84" style="fill:rgb(26,230,192);stroke:black;stroke-width:1px;"/>
            <g transform="matrix(60,0,0,60,527.29,459)">
                <path d="M0.279,0.008C0.223,0.008 0.175,-0.007 0.135,-0.036C0.095,-0.065 0.068,-0.105 0.053,-0.156C0.044,-0.187 0.039,-0.221 0.039,-0.258C0.039,-0.297 0.044,-0.333 0.053,-0.364C0.068,-0.413 0.096,-0.452 0.136,-0.48C0.176,-0.508 0.224,-0.522 0.28,-0.522C0.335,-0.522 0.381,-0.508 0.42,-0.481C0.459,-0.453 0.486,-0.414 0.502,-0.365C0.513,-0.332 0.518,-0.297 0.518,-0.26C0.518,-0.224 0.513,-0.19 0.504,-0.159C0.489,-0.107 0.462,-0.066 0.423,-0.037C0.383,-0.007 0.335,0.008 0.279,0.008ZM0.279,-0.113C0.301,-0.113 0.32,-0.12 0.335,-0.133C0.35,-0.146 0.361,-0.165 0.368,-0.188C0.373,-0.209 0.376,-0.233 0.376,-0.258C0.376,-0.286 0.373,-0.31 0.368,-0.329C0.361,-0.352 0.349,-0.369 0.334,-0.382C0.319,-0.395 0.3,-0.401 0.278,-0.401C0.255,-0.401 0.237,-0.395 0.222,-0.382C0.207,-0.369 0.196,-0.352 0.189,-0.329C0.184,-0.313 0.181,-0.289 0.181,-0.258C0.181,-0.228 0.183,-0.205 0.188,-0.188C0.195,-0.165 0.206,-0.146 0.222,-0.133C0.237,-0.12 0.256,-0.113 0.279,-0.113Z" style="fill:rgb(11,101,85);fill-rule:nonzero;"/>
            </g>
        </g>
        <g transform="matrix(1,0,0,1,164,102)">
            <rect x="502" y="396" width="84" height="84" style="fill:rgb(26,230,192);stroke:black;stroke-width:1px;"/>
            <g transform="matrix(60,0,0,60,536.68,459)">
                <path d="M0.064,-0C0.061,-0 0.058,-0.001 0.056,-0.004C0.053,-0.006 0.052,-0.009 0.052,-0.012L0.052,-0.688C0.052,-0.691 0.053,-0.694 0.056,-0.697C0.058,-0.699 0.061,-0.7 0.064,-0.7L0.181,-0.7C0.184,-0.7 0.187,-0.699 0.19,-0.697C0.192,-0.694 0.193,-0.691 0.193,-0.688L0.193,-0.012C0.193,-0.009 0.192,-0.006 0.19,-0.004C0.187,-0.001 0.184,-0 0.181,-0L0.064,-0Z" style="fill:rgb(11,101,85);fill-rule:nonzero;"/>
            </g>
        </g>
        <g transform="matrix(1,0,0,1,248,102)">
            <rect x="502" y="396" width="84" height="84" style="fill:rgb(26,230,192);stroke:black;stroke-width:1px;"/>
            <g transform="matrix(60,0,0,60,528.16,459)">
                <path d="M0.257,-0.522C0.3,-0.522 0.339,-0.515 0.373,-0.5C0.407,-0.485 0.434,-0.464 0.453,-0.438C0.471,-0.412 0.481,-0.383 0.481,-0.351L0.481,-0.012C0.481,-0.009 0.48,-0.006 0.478,-0.004C0.475,-0.001 0.472,-0 0.469,-0L0.352,-0C0.349,-0 0.346,-0.001 0.344,-0.004C0.341,-0.006 0.34,-0.009 0.34,-0.012L0.34,-0.045C0.34,-0.047 0.339,-0.048 0.338,-0.049C0.337,-0.05 0.335,-0.049 0.334,-0.047C0.306,-0.01 0.261,0.008 0.199,0.008C0.147,0.008 0.105,-0.005 0.073,-0.03C0.041,-0.055 0.025,-0.093 0.025,-0.142C0.025,-0.193 0.043,-0.233 0.079,-0.262C0.115,-0.29 0.166,-0.304 0.233,-0.304L0.335,-0.304C0.338,-0.304 0.34,-0.306 0.34,-0.309L0.34,-0.331C0.34,-0.353 0.333,-0.37 0.32,-0.383C0.307,-0.395 0.287,-0.401 0.26,-0.401C0.239,-0.401 0.222,-0.397 0.209,-0.39C0.195,-0.383 0.186,-0.372 0.182,-0.359C0.18,-0.352 0.176,-0.348 0.169,-0.349L0.048,-0.365C0.04,-0.366 0.036,-0.369 0.037,-0.374C0.04,-0.402 0.051,-0.427 0.071,-0.45C0.09,-0.473 0.116,-0.49 0.149,-0.503C0.181,-0.516 0.217,-0.522 0.257,-0.522ZM0.237,-0.097C0.266,-0.097 0.29,-0.105 0.31,-0.12C0.33,-0.135 0.34,-0.155 0.34,-0.179L0.34,-0.215C0.34,-0.218 0.338,-0.22 0.335,-0.22L0.263,-0.22C0.233,-0.22 0.21,-0.214 0.193,-0.203C0.175,-0.192 0.167,-0.176 0.167,-0.155C0.167,-0.137 0.173,-0.123 0.186,-0.113C0.199,-0.102 0.216,-0.097 0.237,-0.097Z" style="fill:rgb(11,101,85);fill-rule:nonzero;"/>
            </g>
        </g>
        <g transform="matrix(1,0,0,1,332,102)">
            <rect x="502" y="396" width="84" height="84" style="fill:rgb(26,230,192);stroke:black;stroke-width:1px;"/>
            <g transform="matrix(60,0,0,60,536.05,459)">
                <path d="M0.052,0.098C0.044,0.098 0.04,0.094 0.041,0.085L0.074,-0.147C0.075,-0.154 0.079,-0.158 0.087,-0.158L0.189,-0.158C0.198,-0.158 0.201,-0.154 0.199,-0.145L0.137,0.088C0.135,0.095 0.13,0.098 0.123,0.098L0.052,0.098Z" style="fill:rgb(11,101,85);fill-rule:nonzero;"/>
            </g>
        </g>
        <g transform="matrix(1,0,0,1,416,102)">
            <rect x="502" y="396" width="84" height="84" style="fill:rgb(26,230,192);stroke:black;stroke-width:1px;"/>
        </g>
        <g transform="matrix(1,0,0,1,500,102)">
            <rect x="502" y="396" width="84" height="84" style="fill:rgb(26,230,192);stroke:black;stroke-width:1px;"/>
            <g transform="matrix(60,0,0,60,522.55,459)">
                <path d="M0.511,-0.692C0.514,-0.697 0.519,-0.7 0.525,-0.7L0.642,-0.7C0.645,-0.7 0.648,-0.699 0.651,-0.697C0.653,-0.694 0.654,-0.691 0.654,-0.688L0.654,-0.012C0.654,-0.009 0.653,-0.006 0.651,-0.004C0.648,-0.001 0.645,-0 0.642,-0L0.525,-0C0.522,-0 0.519,-0.001 0.517,-0.004C0.514,-0.006 0.513,-0.009 0.513,-0.012L0.513,-0.453C0.513,-0.456 0.512,-0.457 0.511,-0.457C0.51,-0.457 0.508,-0.456 0.507,-0.454L0.401,-0.288C0.398,-0.283 0.393,-0.28 0.387,-0.28L0.328,-0.28C0.322,-0.28 0.317,-0.283 0.314,-0.288L0.208,-0.454C0.207,-0.456 0.205,-0.457 0.204,-0.457C0.203,-0.456 0.202,-0.455 0.202,-0.452L0.202,-0.012C0.202,-0.009 0.201,-0.006 0.199,-0.004C0.196,-0.001 0.193,-0 0.19,-0L0.073,-0C0.07,-0 0.067,-0.001 0.065,-0.004C0.062,-0.006 0.061,-0.009 0.061,-0.012L0.061,-0.688C0.061,-0.691 0.062,-0.694 0.065,-0.697C0.067,-0.699 0.07,-0.7 0.073,-0.7L0.19,-0.7C0.196,-0.7 0.201,-0.697 0.204,-0.692L0.354,-0.459C0.356,-0.455 0.358,-0.455 0.36,-0.459L0.511,-0.692Z" style="fill:rgb(11,101,85);fill-rule:nonzero;"/>
            </g>
        </g>
        <g transform="matrix(1,0,0,1,584,102)">
            <rect x="502" y="396" width="84" height="84" style="fill:rgb(26,230,192);stroke:black;stroke-width:1px;"/>
            <g transform="matrix(60,0,0,60,527.65,459)">
                <path d="M0.352,-0.502C0.352,-0.505 0.353,-0.508 0.356,-0.511C0.358,-0.513 0.361,-0.514 0.364,-0.514L0.481,-0.514C0.484,-0.514 0.487,-0.513 0.49,-0.511C0.492,-0.508 0.493,-0.505 0.493,-0.502L0.493,-0.012C0.493,-0.009 0.492,-0.006 0.49,-0.004C0.487,-0.001 0.484,-0 0.481,-0L0.364,-0C0.361,-0 0.358,-0.001 0.356,-0.004C0.353,-0.006 0.352,-0.009 0.352,-0.012L0.352,-0.046C0.352,-0.048 0.351,-0.049 0.35,-0.05C0.349,-0.05 0.347,-0.049 0.346,-0.047C0.319,-0.011 0.278,0.007 0.222,0.007C0.171,0.007 0.13,-0.008 0.097,-0.039C0.064,-0.07 0.048,-0.113 0.048,-0.168L0.048,-0.502C0.048,-0.505 0.049,-0.508 0.052,-0.511C0.054,-0.513 0.057,-0.514 0.06,-0.514L0.176,-0.514C0.179,-0.514 0.182,-0.513 0.185,-0.511C0.187,-0.508 0.188,-0.505 0.188,-0.502L0.188,-0.203C0.188,-0.176 0.195,-0.155 0.21,-0.138C0.224,-0.121 0.244,-0.113 0.269,-0.113C0.292,-0.113 0.31,-0.12 0.325,-0.134C0.34,-0.147 0.349,-0.165 0.352,-0.187L0.352,-0.502Z" style="fill:rgb(11,101,85);fill-rule:nonzero;"/>
            </g>
        </g>
        <g transform="matrix(1,0,0,1,668,102)">
            <rect x="502" y="396" width="84" height="84" style="fill:rgb(26,230,192);stroke:black;stroke-width:1px;"/>
            <g transform="matrix(60,0,0,60,527.59,459)">
                <path d="M0.32,-0.522C0.373,-0.522 0.416,-0.506 0.449,-0.473C0.482,-0.44 0.498,-0.396 0.498,-0.34L0.498,-0.012C0.498,-0.009 0.497,-0.006 0.495,-0.004C0.492,-0.001 0.489,-0 0.486,-0L0.369,-0C0.366,-0 0.363,-0.001 0.361,-0.004C0.358,-0.006 0.357,-0.009 0.357,-0.012L0.357,-0.311C0.357,-0.338 0.349,-0.359 0.335,-0.376C0.32,-0.393 0.3,-0.401 0.275,-0.401C0.25,-0.401 0.231,-0.393 0.216,-0.376C0.201,-0.359 0.193,-0.338 0.193,-0.311L0.193,-0.012C0.193,-0.009 0.192,-0.006 0.19,-0.004C0.187,-0.001 0.184,-0 0.181,-0L0.064,-0C0.061,-0 0.058,-0.001 0.056,-0.004C0.053,-0.006 0.052,-0.009 0.052,-0.012L0.052,-0.502C0.052,-0.505 0.053,-0.508 0.056,-0.511C0.058,-0.513 0.061,-0.514 0.064,-0.514L0.181,-0.514C0.184,-0.514 0.187,-0.513 0.19,-0.511C0.192,-0.508 0.193,-0.505 0.193,-0.502L0.193,-0.467C0.193,-0.465 0.194,-0.464 0.195,-0.463C0.196,-0.462 0.197,-0.463 0.198,-0.464C0.225,-0.503 0.266,-0.522 0.32,-0.522Z" style="fill:rgb(11,101,85);fill-rule:nonzero;"/>
            </g>
        </g>
        <g transform="matrix(1,0,0,1,752,102)">
            <rect x="502" y="396" width="84" height="84" style="fill:rgb(26,230,192);stroke:black;stroke-width:1px;"/>
            <g transform="matrix(60,0,0,60,527.02,459)">
                <path d="M0.371,-0.688C0.371,-0.691 0.372,-0.694 0.375,-0.697C0.377,-0.699 0.38,-0.7 0.383,-0.7L0.5,-0.7C0.503,-0.7 0.506,-0.699 0.509,-0.697C0.511,-0.694 0.512,-0.691 0.512,-0.688L0.512,-0.012C0.512,-0.009 0.511,-0.006 0.509,-0.004C0.506,-0.001 0.503,-0 0.5,-0L0.383,-0C0.38,-0 0.377,-0.001 0.375,-0.004C0.372,-0.006 0.371,-0.009 0.371,-0.012L0.371,-0.045C0.371,-0.047 0.37,-0.048 0.369,-0.049C0.368,-0.049 0.366,-0.048 0.365,-0.047C0.337,-0.01 0.299,0.008 0.25,0.008C0.203,0.008 0.163,-0.005 0.13,-0.031C0.096,-0.057 0.072,-0.093 0.057,-0.138C0.046,-0.173 0.04,-0.213 0.04,-0.259C0.04,-0.306 0.046,-0.348 0.058,-0.383C0.073,-0.426 0.097,-0.46 0.131,-0.485C0.164,-0.509 0.204,-0.522 0.253,-0.522C0.301,-0.522 0.338,-0.505 0.365,-0.472C0.366,-0.47 0.368,-0.469 0.369,-0.47C0.37,-0.471 0.371,-0.472 0.371,-0.474L0.371,-0.688ZM0.35,-0.156C0.363,-0.181 0.37,-0.214 0.37,-0.257C0.37,-0.302 0.363,-0.337 0.348,-0.362C0.333,-0.388 0.31,-0.401 0.281,-0.401C0.25,-0.401 0.226,-0.388 0.21,-0.362C0.193,-0.336 0.185,-0.301 0.185,-0.256C0.185,-0.216 0.192,-0.183 0.206,-0.156C0.223,-0.127 0.247,-0.113 0.28,-0.113C0.31,-0.113 0.333,-0.127 0.35,-0.156Z" style="fill:rgb(11,101,85);fill-rule:nonzero;"/>
            </g>
        </g>
        <g transform="matrix(1,0,0,1,836,102)">
            <rect x="502" y="396" width="84" height="84" style="fill:rgb(26,230,192);stroke:black;stroke-width:1px;"/>
            <g transform="matrix(60,0,0,60,527.29,459)">
                <path d="M0.279,0.008C0.223,0.008 0.175,-0.007 0.135,-0.036C0.095,-0.065 0.068,-0.105 0.053,-0.156C0.044,-0.187 0.039,-0.221 0.039,-0.258C0.039,-0.297 0.044,-0.333 0.053,-0.364C0.068,-0.413 0.096,-0.452 0.136,-0.48C0.176,-0.508 0.224,-0.522 0.28,-0.522C0.335,-0.522 0.381,-0.508 0.42,-0.481C0.459,-0.453 0.486,-0.414 0.502,-0.365C0.513,-0.332 0.518,-0.297 0.518,-0.26C0.518,-0.224 0.513,-0.19 0.504,-0.159C0.489,-0.107 0.462,-0.066 0.423,-0.037C0.383,-0.007 0.335,0.008 0.279,0.008ZM0.279,-0.113C0.301,-0.113 0.32,-0.12 0.335,-0.133C0.35,-0.146 0.361,-0.165 0.368,-0.188C0.373,-0.209 0.376,-0.233 0.376,-0.258C0.376,-0.286 0.373,-0.31 0.368,-0.329C0.361,-0.352 0.349,-0.369 0.334,-0.382C0.319,-0.395 0.3,-0.401 0.278,-0.401C0.255,-0.401 0.237,-0.395 0.222,-0.382C0.207,-0.369 0.196,-0.352 0.189,-0.329C0.184,-0.313 0.181,-0.289 0.181,-0.258C0.181,-0.228 0.183,-0.205 0.188,-0.188C0.195,-0.165 0.206,-0.146 0.222,-0.133C0.237,-0.12 0.256,-0.113 0.279,-0.113Z" style="fill:rgb(11,101,85);fill-rule:nonzero;"/>
            </g>
        </g>
        <g transform="matrix(1,0,0,1,-7.12575,0)">
            <g transform="matrix(1.43774,-1.43774,1.43774,1.43774,-1575.83,1210.34)">
                <g transform="matrix(1,0,0,1,931.769,509.431)">
                    <path d="M30.017,19.872L15.345,5.437C14.687,4.778 13.823,4.691 12.96,4.691L2.883,4.691C1.029,4.691 0,5.72 0,7.574L0,17.656C0,18.517 0.089,19.379 0.746,20.036L15.3,34.708C15.918,35.337 16.763,35.691 17.644,35.691C18.525,35.691 19.37,35.337 19.988,34.708L30.047,24.62C31.357,23.308 31.327,21.182 30.017,19.872ZM6.421,11.112C6.14,11.393 5.759,11.551 5.362,11.551C4.541,11.551 3.865,10.875 3.865,10.054C3.865,9.657 4.022,9.276 4.303,8.995C4.584,8.714 4.965,8.556 5.362,8.556C6.183,8.556 6.859,9.232 6.859,10.054C6.859,10.451 6.702,10.832 6.421,11.112Z" style="fill:rgb(255,217,131);fill-rule:nonzero;stroke:rgb(115,79,0);stroke-width:1.97px;stroke-linecap:butt;stroke-miterlimit:2;"/>
                </g>
                <g transform="matrix(1,0,0,1,931.769,509.431)">
                    <path d="M7.952,7.463C7.266,6.776 6.334,6.39 5.362,6.39C4.391,6.39 3.459,6.776 2.773,7.463C2.086,8.15 1.7,9.082 1.7,10.053C1.7,12.063 3.354,13.716 5.363,13.716C6.334,13.716 7.266,13.33 7.953,12.643C9.373,11.222 9.372,8.884 7.952,7.463ZM6.422,11.113C6.14,11.407 5.749,11.573 5.342,11.573C4.519,11.573 3.843,10.896 3.843,10.074C3.843,9.666 4.009,9.276 4.303,8.993C4.582,8.725 4.955,8.575 5.342,8.575C6.164,8.575 6.841,9.252 6.841,10.074C6.841,10.461 6.691,10.834 6.422,11.113Z" style="fill:rgb(217,158,130);fill-rule:nonzero;"/>
                </g>
                <g transform="matrix(1,0,0,1,931.769,509.431)">
                    <path d="M6.507,10.192C6.319,10.38 6.065,10.485 5.799,10.485C5.251,10.485 4.799,10.034 4.799,9.485C4.799,9.22 4.905,8.966 5.092,8.778L13.577,0.293C13.765,0.106 14.019,-0 14.285,-0C14.833,-0 15.285,0.452 15.285,1C15.285,1.265 15.179,1.52 14.992,1.707L6.507,10.192Z" style="fill:rgb(193,105,79);fill-rule:nonzero;"/>
                </g>
            </g>
            <g transform="matrix(1,0,0,1,-5.1529,-4.33419)">
                <g transform="matrix(30,0,0,30,546.283,625.568)">
                    <path d="M0.308,-0.722C0.36,-0.722 0.404,-0.708 0.44,-0.679C0.476,-0.651 0.503,-0.609 0.521,-0.554C0.54,-0.499 0.549,-0.433 0.549,-0.355C0.549,-0.277 0.54,-0.21 0.521,-0.155C0.503,-0.1 0.476,-0.058 0.44,-0.029C0.404,-0.001 0.36,0.014 0.308,0.014C0.229,0.014 0.169,-0.018 0.128,-0.082C0.087,-0.145 0.067,-0.236 0.067,-0.355C0.067,-0.473 0.087,-0.564 0.128,-0.627C0.169,-0.69 0.229,-0.722 0.308,-0.722ZM0.308,-0.634C0.266,-0.634 0.234,-0.612 0.213,-0.567C0.192,-0.523 0.181,-0.452 0.181,-0.355C0.181,-0.282 0.185,-0.226 0.194,-0.185L0.394,-0.593C0.384,-0.608 0.372,-0.618 0.358,-0.625C0.344,-0.631 0.328,-0.634 0.308,-0.634ZM0.308,-0.074C0.35,-0.074 0.381,-0.096 0.403,-0.141C0.424,-0.185 0.434,-0.256 0.434,-0.355C0.434,-0.422 0.431,-0.474 0.424,-0.511L0.226,-0.108C0.236,-0.096 0.248,-0.088 0.261,-0.082C0.274,-0.077 0.29,-0.074 0.308,-0.074Z" style="fill:rgb(115,79,0);fill-rule:nonzero;"/>
                </g>
            </g>
        </g>
        <g transform="matrix(1,0,0,1,76.8743,-1.13687e-13)">
            <g transform="matrix(1.43774,-1.43774,1.43774,1.43774,-1575.83,1210.34)">
                <g transform="matrix(1,0,0,1,931.769,509.431)">
                    <path d="M30.017,19.872L15.345,5.437C14.687,4.778 13.823,4.691 12.96,4.691L2.883,4.691C1.029,4.691 0,5.72 0,7.574L0,17.656C0,18.517 0.089,19.379 0.746,20.036L15.3,34.708C15.918,35.337 16.763,35.691 17.644,35.691C18.525,35.691 19.37,35.337 19.988,34.708L30.047,24.62C31.357,23.308 31.327,21.182 30.017,19.872ZM6.421,11.112C6.14,11.393 5.759,11.551 5.362,11.551C4.541,11.551 3.865,10.875 3.865,10.054C3.865,9.657 4.022,9.276 4.303,8.995C4.584,8.714 4.965,8.556 5.362,8.556C6.183,8.556 6.859,9.232 6.859,10.054C6.859,10.451 6.702,10.832 6.421,11.112Z" style="fill:rgb(255,217,131);fill-rule:nonzero;"/>
                </g>
                <g transform="matrix(1,0,0,1,931.769,509.431)">
                    <path d="M7.952,7.463C7.266,6.776 6.334,6.39 5.362,6.39C4.391,6.39 3.459,6.776 2.773,7.463C2.086,8.15 1.7,9.082 1.7,10.053C1.7,12.063 3.354,13.716 5.363,13.716C6.334,13.716 7.266,13.33 7.953,12.643C9.373,11.222 9.372,8.884 7.952,7.463ZM6.422,11.113C6.14,11.407 5.749,11.573 5.342,11.573C4.519,11.573 3.843,10.896 3.843,10.074C3.843,9.666 4.009,9.276 4.303,8.993C4.582,8.725 4.955,8.575 5.342,8.575C6.164,8.575 6.841,9.252 6.841,10.074C6.841,10.461 6.691,10.834 6.422,11.113Z" style="fill:rgb(217,158,130);fill-rule:nonzero;"/>
                </g>
                <g transform="matrix(1,0,0,1,931.769,509.431)">
                    <path d="M6.507,10.192C6.319,10.38 6.065,10.485 5.799,10.485C5.251,10.485 4.799,10.034 4.799,9.485C4.799,9.22 4.905,8.966 5.092,8.778L13.577,0.293C13.765,0.106 14.019,-0 14.285,-0C14.833,-0 15.285,0.452 15.285,1C15.285,1.265 15.179,1.52 14.992,1.707L6.507,10.192Z" style="fill:rgb(193,105,79);fill-rule:nonzero;"/>
                </g>
            </g>
            <g transform="matrix(1,0,0,1,-5.1529,-4.33419)">
                <g transform="matrix(30,0,0,30,546.283,625.568)">
                    <path d="M0.402,-0.708L0.402,-0.09L0.544,-0.09L0.544,-0L0.115,-0L0.115,-0.09L0.288,-0.09L0.288,-0.59L0.132,-0.494L0.083,-0.574L0.301,-0.708L0.402,-0.708Z" style="fill:rgb(115,79,0);fill-rule:nonzero;"/>
                </g>
            </g>
        </g>
        <g transform="matrix(1,0,0,1,160.874,-2.27374e-13)">
            <g transform="matrix(1.43774,-1.43774,1.43774,1.43774,-1575.83,1210.34)">
                <g transform="matrix(1,0,0,1,931.769,509.431)">
                    <path d="M30.017,19.872L15.345,5.437C14.687,4.778 13.823,4.691 12.96,4.691L2.883,4.691C1.029,4.691 0,5.72 0,7.574L0,17.656C0,18.517 0.089,19.379 0.746,20.036L15.3,34.708C15.918,35.337 16.763,35.691 17.644,35.691C18.525,35.691 19.37,35.337 19.988,34.708L30.047,24.62C31.357,23.308 31.327,21.182 30.017,19.872ZM6.421,11.112C6.14,11.393 5.759,11.551 5.362,11.551C4.541,11.551 3.865,10.875 3.865,10.054C3.865,9.657 4.022,9.276 4.303,8.995C4.584,8.714 4.965,8.556 5.362,8.556C6.183,8.556 6.859,9.232 6.859,10.054C6.859,10.451 6.702,10.832 6.421,11.112Z" style="fill:rgb(255,217,131);fill-rule:nonzero;"/>
                </g>
                <g transform="matrix(1,0,0,1,931.769,509.431)">
                    <path d="M7.952,7.463C7.266,6.776 6.334,6.39 5.362,6.39C4.391,6.39 3.459,6.776 2.773,7.463C2.086,8.15 1.7,9.082 1.7,10.053C1.7,12.063 3.354,13.716 5.363,13.716C6.334,13.716 7.266,13.33 7.953,12.643C9.373,11.222 9.372,8.884 7.952,7.463ZM6.422,11.113C6.14,11.407 5.749,11.573 5.342,11.573C4.519,11.573 3.843,10.896 3.843,10.074C3.843,9.666 4.009,9.276 4.303,8.993C4.582,8.725 4.955,8.575 5.342,8.575C6.164,8.575 6.841,9.252 6.841,10.074C6.841,10.461 6.691,10.834 6.422,11.113Z" style="fill:rgb(217,158,130);fill-rule:nonzero;"/>
                </g>
                <g transform="matrix(1,0,0,1,931.769,509.431)">
                    <path d="M6.507,10.192C6.319,10.38 6.065,10.485 5.799,10.485C5.251,10.485 4.799,10.034 4.799,9.485C4.799,9.22 4.905,8.966 5.092,8.778L13.577,0.293C13.765,0.106 14.019,-0 14.285,-0C14.833,-0 15.285,0.452 15.285,1C15.285,1.265 15.179,1.52 14.992,1.707L6.507,10.192Z" style="fill:rgb(193,105,79);fill-rule:nonzero;"/>
                </g>
            </g>
            <g transform="matrix(1,0,0,1,-5.1529,-4.33419)">
                <g transform="matrix(30,0,0,30,546.283,625.568)">
                    <path d="M0.279,-0.722C0.326,-0.722 0.366,-0.713 0.4,-0.696C0.434,-0.678 0.46,-0.654 0.477,-0.624C0.495,-0.594 0.504,-0.56 0.504,-0.522C0.504,-0.481 0.494,-0.44 0.475,-0.401C0.456,-0.362 0.425,-0.318 0.382,-0.271C0.338,-0.223 0.278,-0.164 0.199,-0.092L0.521,-0.092L0.507,-0L0.067,-0L0.067,-0.087C0.156,-0.173 0.222,-0.239 0.266,-0.288C0.31,-0.336 0.341,-0.377 0.358,-0.411C0.376,-0.445 0.385,-0.48 0.385,-0.515C0.385,-0.551 0.375,-0.579 0.355,-0.599C0.335,-0.62 0.307,-0.63 0.271,-0.63C0.24,-0.63 0.213,-0.624 0.192,-0.613C0.17,-0.601 0.149,-0.582 0.128,-0.556L0.053,-0.613C0.081,-0.649 0.114,-0.676 0.15,-0.695C0.186,-0.713 0.229,-0.722 0.279,-0.722Z" style="fill:rgb(115,79,0);fill-rule:nonzero;"/>
                </g>
            </g>
        </g>
        <g transform="matrix(1,0,0,1,244.874,-3.41061e-13)">
            <g transform="matrix(1.43774,-1.43774,1.43774,1.43774,-1575.83,1210.34)">
                <g transform="matrix(1,0,0,1,931.769,509.431)">
                    <path d="M30.017,19.872L15.345,5.437C14.687,4.778 13.823,4.691 12.96,4.691L2.883,4.691C1.029,4.691 0,5.72 0,7.574L0,17.656C0,18.517 0.089,19.379 0.746,20.036L15.3,34.708C15.918,35.337 16.763,35.691 17.644,35.691C18.525,35.691 19.37,35.337 19.988,34.708L30.047,24.62C31.357,23.308 31.327,21.182 30.017,19.872ZM6.421,11.112C6.14,11.393 5.759,11.551 5.362,11.551C4.541,11.551 3.865,10.875 3.865,10.054C3.865,9.657 4.022,9.276 4.303,8.995C4.584,8.714 4.965,8.556 5.362,8.556C6.183,8.556 6.859,9.232 6.859,10.054C6.859,10.451 6.702,10.832 6.421,11.112Z" style="fill:rgb(255,217,131);fill-rule:nonzero;"/>
                </g>
                <g transform="matrix(1,0,0,1,931.769,509.431)">
                    <path d="M7.952,7.463C7.266,6.776 6.334,6.39 5.362,6.39C4.391,6.39 3.459,6.776 2.773,7.463C2.086,8.15 1.7,9.082 1.7,10.053C1.7,12.063 3.354,13.716 5.363,13.716C6.334,13.716 7.266,13.33 7.953,12.643C9.373,11.222 9.372,8.884 7.952,7.463ZM6.422,11.113C6.14,11.407 5.749,11.573 5.342,11.573C4.519,11.573 3.843,10.896 3.843,10.074C3.843,9.666 4.009,9.276 4.303,8.993C4.582,8.725 4.955,8.575 5.342,8.575C6.164,8.575 6.841,9.252 6.841,10.074C6.841,10.461 6.691,10.834 6.422,11.113Z" style="fill:rgb(217,158,130);fill-rule:nonzero;"/>
                </g>
                <g transform="matrix(1,0,0,1,931.769,509.431)">
                    <path d="M6.507,10.192C6.319,10.38 6.065,10.485 5.799,10.485C5.251,10.485 4.799,10.034 4.799,9.485C4.799,9.22 4.905,8.966 5.092,8.778L13.577,0.293C13.765,0.106 14.019,-0 14.285,-0C14.833,-0 15.285,0.452 15.285,1C15.285,1.265 15.179,1.52 14.992,1.707L6.507,10.192Z" style="fill:rgb(193,105,79);fill-rule:nonzero;"/>
                </g>
            </g>
            <g transform="matrix(1,0,0,1,-5.1529,-4.33419)">
                <g transform="matrix(30,0,0,30,546.283,625.568)">
                    <path d="M0.277,-0.722C0.322,-0.722 0.362,-0.714 0.396,-0.698C0.431,-0.682 0.457,-0.66 0.475,-0.633C0.494,-0.606 0.503,-0.576 0.503,-0.543C0.503,-0.515 0.497,-0.489 0.485,-0.466C0.473,-0.443 0.456,-0.424 0.435,-0.409C0.414,-0.393 0.39,-0.383 0.363,-0.376C0.393,-0.373 0.421,-0.365 0.445,-0.351C0.47,-0.338 0.489,-0.318 0.504,-0.293C0.518,-0.268 0.526,-0.238 0.526,-0.202C0.526,-0.162 0.515,-0.125 0.494,-0.092C0.473,-0.059 0.443,-0.034 0.404,-0.015C0.365,0.004 0.32,0.014 0.269,0.014C0.223,0.014 0.181,0.005 0.141,-0.011C0.101,-0.028 0.067,-0.053 0.04,-0.085L0.11,-0.147C0.13,-0.124 0.153,-0.106 0.18,-0.095C0.207,-0.083 0.235,-0.077 0.264,-0.077C0.308,-0.077 0.343,-0.089 0.368,-0.112C0.394,-0.135 0.407,-0.166 0.407,-0.206C0.407,-0.25 0.395,-0.281 0.371,-0.301C0.347,-0.32 0.313,-0.33 0.27,-0.33L0.209,-0.33L0.223,-0.414L0.266,-0.414C0.289,-0.414 0.309,-0.419 0.328,-0.427C0.347,-0.435 0.362,-0.448 0.373,-0.465C0.384,-0.481 0.39,-0.502 0.39,-0.526C0.39,-0.548 0.384,-0.568 0.374,-0.584C0.363,-0.6 0.349,-0.612 0.33,-0.621C0.312,-0.629 0.291,-0.633 0.268,-0.633C0.239,-0.633 0.213,-0.628 0.19,-0.618C0.167,-0.607 0.144,-0.591 0.121,-0.57L0.06,-0.635C0.121,-0.693 0.194,-0.722 0.277,-0.722Z" style="fill:rgb(115,79,0);fill-rule:nonzero;"/>
                </g>
            </g>
        </g>
        <g transform="matrix(1,0,0,1,328.874,-4.54747e-13)">
            <g transform="matrix(1.43774,-1.43774,1.43774,1.43774,-1575.83,1210.34)">
                <g transform="matrix(1,0,0,1,931.769,509.431)">
                    <path d="M30.017,19.872L15.345,5.437C14.687,4.778 13.823,4.691 12.96,4.691L2.883,4.691C1.029,4.691 0,5.72 0,7.574L0,17.656C0,18.517 0.089,19.379 0.746,20.036L15.3,34.708C15.918,35.337 16.763,35.691 17.644,35.691C18.525,35.691 19.37,35.337 19.988,34.708L30.047,24.62C31.357,23.308 31.327,21.182 30.017,19.872ZM6.421,11.112C6.14,11.393 5.759,11.551 5.362,11.551C4.541,11.551 3.865,10.875 3.865,10.054C3.865,9.657 4.022,9.276 4.303,8.995C4.584,8.714 4.965,8.556 5.362,8.556C6.183,8.556 6.859,9.232 6.859,10.054C6.859,10.451 6.702,10.832 6.421,11.112Z" style="fill:rgb(255,217,131);fill-rule:nonzero;"/>
                </g>
                <g transform="matrix(1,0,0,1,931.769,509.431)">
                    <path d="M7.952,7.463C7.266,6.776 6.334,6.39 5.362,6.39C4.391,6.39 3.459,6.776 2.773,7.463C2.086,8.15 1.7,9.082 1.7,10.053C1.7,12.063 3.354,13.716 5.363,13.716C6.334,13.716 7.266,13.33 7.953,12.643C9.373,11.222 9.372,8.884 7.952,7.463ZM6.422,11.113C6.14,11.407 5.749,11.573 5.342,11.573C4.519,11.573 3.843,10.896 3.843,10.074C3.843,9.666 4.009,9.276 4.303,8.993C4.582,8.725 4.955,8.575 5.342,8.575C6.164,8.575 6.841,9.252 6.841,10.074C6.841,10.461 6.691,10.834 6.422,11.113Z" style="fill:rgb(217,158,130);fill-rule:nonzero;"/>
                </g>
                <g transform="matrix(1,0,0,1,931.769,509.431)">
                    <path d="M6.507,10.192C6.319,10.38 6.065,10.485 5.799,10.485C5.251,10.485 4.799,10.034 4.799,9.485C4.799,9.22 4.905,8.966 5.092,8.778L13.577,0.293C13.765,0.106 14.019,-0 14.285,-0C14.833,-0 15.285,0.452 15.285,1C15.285,1.265 15.179,1.52 14.992,1.707L6.507,10.192Z" style="fill:rgb(193,105,79);fill-rule:nonzero;"/>
                </g>
            </g>
            <g transform="matrix(1,0,0,1,-5.1529,-4.33419)">
                <g transform="matrix(30,0,0,30,546.283,625.568)">
                    <path d="M0.468,-0.252L0.552,-0.252L0.552,-0.163L0.468,-0.163L0.468,-0L0.357,-0L0.357,-0.163L0.063,-0.163L0.063,-0.243L0.267,-0.722L0.364,-0.684L0.183,-0.252L0.357,-0.252L0.371,-0.442L0.468,-0.442L0.468,-0.252Z" style="fill:rgb(115,79,0);fill-rule:nonzero;"/>
                </g>
            </g>
        </g>
        <g transform="matrix(1,0,0,1,412.874,-5.68434e-13)">
            <g transform="matrix(1.43774,-1.43774,1.43774,1.43774,-1575.83,1210.34)">
                <g transform="matrix(1,0,0,1,931.769,509.431)">
                    <path d="M30.017,19.872L15.345,5.437C14.687,4.778 13.823,4.691 12.96,4.691L2.883,4.691C1.029,4.691 0,5.72 0,7.574L0,17.656C0,18.517 0.089,19.379 0.746,20.036L15.3,34.708C15.918,35.337 16.763,35.691 17.644,35.691C18.525,35.691 19.37,35.337 19.988,34.708L30.047,24.62C31.357,23.308 31.327,21.182 30.017,19.872ZM6.421,11.112C6.14,11.393 5.759,11.551 5.362,11.551C4.541,11.551 3.865,10.875 3.865,10.054C3.865,9.657 4.022,9.276 4.303,8.995C4.584,8.714 4.965,8.556 5.362,8.556C6.183,8.556 6.859,9.232 6.859,10.054C6.859,10.451 6.702,10.832 6.421,11.112Z" style="fill:rgb(255,217,131);fill-rule:nonzero;"/>
                </g>
                <g transform="matrix(1,0,0,1,931.769,509.431)">
                    <path d="M7.952,7.463C7.266,6.776 6.334,6.39 5.362,6.39C4.391,6.39 3.459,6.776 2.773,7.463C2.086,8.15 1.7,9.082 1.7,10.053C1.7,12.063 3.354,13.716 5.363,13.716C6.334,13.716 7.266,13.33 7.953,12.643C9.373,11.222 9.372,8.884 7.952,7.463ZM6.422,11.113C6.14,11.407 5.749,11.573 5.342,11.573C4.519,11.573 3.843,10.896 3.843,10.074C3.843,9.666 4.009,9.276 4.303,8.993C4.582,8.725 4.955,8.575 5.342,8.575C6.164,8.575 6.841,9.252 6.841,10.074C6.841,10.461 6.691,10.834 6.422,11.113Z" style="fill:rgb(217,158,130);fill-rule:nonzero;"/>
                </g>
                <g transform="matrix(1,0,0,1,931.769,509.431)">
                    <path d="M6.507,10.192C6.319,10.38 6.065,10.485 5.799,10.485C5.251,10.485 4.799,10.034 4.799,9.485C4.799,9.22 4.905,8.966 5.092,8.778L13.577,0.293C13.765,0.106 14.019,-0 14.285,-0C14.833,-0 15.285,0.452 15.285,1C15.285,1.265 15.179,1.52 14.992,1.707L6.507,10.192Z" style="fill:rgb(193,105,79);fill-rule:nonzero;"/>
                </g>
            </g>
            <g transform="matrix(1,0,0,1,-5.1529,-4.33419)">
                <g transform="matrix(30,0,0,30,546.283,625.568)">
                    <path d="M0.51,-0.708L0.495,-0.622L0.224,-0.622L0.224,-0.425C0.243,-0.435 0.262,-0.442 0.281,-0.446C0.299,-0.45 0.319,-0.452 0.339,-0.452C0.377,-0.452 0.411,-0.443 0.441,-0.425C0.47,-0.407 0.493,-0.382 0.51,-0.348C0.527,-0.314 0.535,-0.274 0.535,-0.227C0.535,-0.18 0.524,-0.138 0.503,-0.102C0.482,-0.065 0.453,-0.037 0.414,-0.017C0.376,0.004 0.331,0.014 0.281,0.014C0.195,0.014 0.122,-0.017 0.064,-0.079L0.133,-0.144C0.172,-0.099 0.22,-0.077 0.276,-0.077C0.32,-0.077 0.354,-0.091 0.378,-0.117C0.403,-0.143 0.415,-0.18 0.415,-0.228C0.415,-0.277 0.405,-0.313 0.384,-0.335C0.364,-0.357 0.336,-0.368 0.3,-0.368C0.283,-0.368 0.266,-0.366 0.251,-0.362C0.235,-0.358 0.218,-0.352 0.198,-0.344L0.114,-0.344L0.114,-0.708L0.51,-0.708Z" style="fill:rgb(115,79,0);fill-rule:nonzero;"/>
                </g>
            </g>
        </g>
        <g transform="matrix(1,0,0,1,496.874,-6.82121e-13)">
            <g transform="matrix(1.43774,-1.43774,1.43774,1.43774,-1575.83,1210.34)">
                <g transform="matrix(1,0,0,1,931.769,509.431)">
                    <path d="M30.017,19.872L15.345,5.437C14.687,4.778 13.823,4.691 12.96,4.691L2.883,4.691C1.029,4.691 0,5.72 0,7.574L0,17.656C0,18.517 0.089,19.379 0.746,20.036L15.3,34.708C15.918,35.337 16.763,35.691 17.644,35.691C18.525,35.691 19.37,35.337 19.988,34.708L30.047,24.62C31.357,23.308 31.327,21.182 30.017,19.872ZM6.421,11.112C6.14,11.393 5.759,11.551 5.362,11.551C4.541,11.551 3.865,10.875 3.865,10.054C3.865,9.657 4.022,9.276 4.303,8.995C4.584,8.714 4.965,8.556 5.362,8.556C6.183,8.556 6.859,9.232 6.859,10.054C6.859,10.451 6.702,10.832 6.421,11.112Z" style="fill:rgb(255,217,131);fill-rule:nonzero;"/>
                </g>
                <g transform="matrix(1,0,0,1,931.769,509.431)">
                    <path d="M7.952,7.463C7.266,6.776 6.334,6.39 5.362,6.39C4.391,6.39 3.459,6.776 2.773,7.463C2.086,8.15 1.7,9.082 1.7,10.053C1.7,12.063 3.354,13.716 5.363,13.716C6.334,13.716 7.266,13.33 7.953,12.643C9.373,11.222 9.372,8.884 7.952,7.463ZM6.422,11.113C6.14,11.407 5.749,11.573 5.342,11.573C4.519,11.573 3.843,10.896 3.843,10.074C3.843,9.666 4.009,9.276 4.303,8.993C4.582,8.725 4.955,8.575 5.342,8.575C6.164,8.575 6.841,9.252 6.841,10.074C6.841,10.461 6.691,10.834 6.422,11.113Z" style="fill:rgb(217,158,130);fill-rule:nonzero;"/>
                </g>
                <g transform="matrix(1,0,0,1,931.769,509.431)">
                    <path d="M6.507,10.192C6.319,10.38 6.065,10.485 5.799,10.485C5.251,10.485 4.799,10.034 4.799,9.485C4.799,9.22 4.905,8.966 5.092,8.778L13.577,0.293C13.765,0.106 14.019,-0 14.285,-0C14.833,-0 15.285,0.452 15.285,1C15.285,1.265 15.179,1.52 14.992,1.707L6.507,10.192Z" style="fill:rgb(193,105,79);fill-rule:nonzero;"/>
                </g>
            </g>
            <g transform="matrix(1,0,0,1,-5.1529,-4.33419)">
                <g transform="matrix(30,0,0,30,546.283,625.568)">
                    <path d="M0.35,-0.466C0.387,-0.466 0.421,-0.458 0.451,-0.44C0.481,-0.423 0.505,-0.397 0.523,-0.363C0.541,-0.329 0.55,-0.288 0.55,-0.239C0.55,-0.189 0.54,-0.145 0.519,-0.107C0.499,-0.069 0.472,-0.039 0.436,-0.018C0.401,0.003 0.361,0.014 0.316,0.014C0.231,0.014 0.169,-0.017 0.129,-0.078C0.09,-0.139 0.07,-0.223 0.07,-0.329C0.07,-0.408 0.081,-0.477 0.103,-0.536C0.126,-0.595 0.158,-0.641 0.2,-0.673C0.242,-0.706 0.292,-0.722 0.35,-0.722C0.404,-0.722 0.452,-0.708 0.495,-0.679L0.451,-0.605C0.42,-0.625 0.386,-0.635 0.35,-0.635C0.318,-0.635 0.29,-0.625 0.266,-0.605C0.243,-0.584 0.224,-0.555 0.211,-0.517C0.197,-0.479 0.189,-0.435 0.188,-0.383C0.23,-0.438 0.284,-0.466 0.35,-0.466ZM0.316,-0.073C0.355,-0.073 0.384,-0.088 0.404,-0.116C0.423,-0.145 0.433,-0.184 0.433,-0.234C0.433,-0.286 0.424,-0.323 0.405,-0.346C0.387,-0.369 0.36,-0.38 0.326,-0.38C0.298,-0.38 0.273,-0.373 0.249,-0.358C0.226,-0.343 0.205,-0.323 0.188,-0.297C0.189,-0.245 0.194,-0.203 0.203,-0.171C0.212,-0.138 0.226,-0.114 0.244,-0.097C0.263,-0.081 0.287,-0.073 0.316,-0.073Z" style="fill:rgb(115,79,0);fill-rule:nonzero;"/>
                </g>
            </g>
        </g>
        <g transform="matrix(1,0,0,1,580.874,-7.95808e-13)">
            <g transform="matrix(1.43774,-1.43774,1.43774,1.43774,-1575.83,1210.34)">
                <g transform="matrix(1,0,0,1,931.769,509.431)">
                    <path d="M30.017,19.872L15.345,5.437C14.687,4.778 13.823,4.691 12.96,4.691L2.883,4.691C1.029,4.691 0,5.72 0,7.574L0,17.656C0,18.517 0.089,19.379 0.746,20.036L15.3,34.708C15.918,35.337 16.763,35.691 17.644,35.691C18.525,35.691 19.37,35.337 19.988,34.708L30.047,24.62C31.357,23.308 31.327,21.182 30.017,19.872ZM6.421,11.112C6.14,11.393 5.759,11.551 5.362,11.551C4.541,11.551 3.865,10.875 3.865,10.054C3.865,9.657 4.022,9.276 4.303,8.995C4.584,8.714 4.965,8.556 5.362,8.556C6.183,8.556 6.859,9.232 6.859,10.054C6.859,10.451 6.702,10.832 6.421,11.112Z" style="fill:rgb(255,217,131);fill-rule:nonzero;"/>
                </g>
                <g transform="matrix(1,0,0,1,931.769,509.431)">
                    <path d="M7.952,7.463C7.266,6.776 6.334,6.39 5.362,6.39C4.391,6.39 3.459,6.776 2.773,7.463C2.086,8.15 1.7,9.082 1.7,10.053C1.7,12.063 3.354,13.716 5.363,13.716C6.334,13.716 7.266,13.33 7.953,12.643C9.373,11.222 9.372,8.884 7.952,7.463ZM6.422,11.113C6.14,11.407 5.749,11.573 5.342,11.573C4.519,11.573 3.843,10.896 3.843,10.074C3.843,9.666 4.009,9.276 4.303,8.993C4.582,8.725 4.955,8.575 5.342,8.575C6.164,8.575 6.841,9.252 6.841,10.074C6.841,10.461 6.691,10.834 6.422,11.113Z" style="fill:rgb(217,158,130);fill-rule:nonzero;"/>
                </g>
                <g transform="matrix(1,0,0,1,931.769,509.431)">
                    <path d="M6.507,10.192C6.319,10.38 6.065,10.485 5.799,10.485C5.251,10.485 4.799,10.034 4.799,9.485C4.799,9.22 4.905,8.966 5.092,8.778L13.577,0.293C13.765,0.106 14.019,-0 14.285,-0C14.833,-0 15.285,0.452 15.285,1C15.285,1.265 15.179,1.52 14.992,1.707L6.507,10.192Z" style="fill:rgb(193,105,79);fill-rule:nonzero;"/>
                </g>
            </g>
            <g transform="matrix(1,0,0,1,-5.1529,-4.33419)">
                <g transform="matrix(30,0,0,30,546.283,625.568)">
                    <path d="M0.529,-0.625L0.249,0.012L0.141,-0.021L0.412,-0.617L0.088,-0.617L0.088,-0.708L0.529,-0.708L0.529,-0.625Z" style="fill:rgb(115,79,0);fill-rule:nonzero;"/>
                </g>
            </g>
        </g>
        <g transform="matrix(1,0,0,1,664.874,-9.09495e-13)">
            <g transform="matrix(1.43774,-1.43774,1.43774,1.43774,-1575.83,1210.34)">
                <g transform="matrix(1,0,0,1,931.769,509.431)">
                    <path d="M30.017,19.872L15.345,5.437C14.687,4.778 13.823,4.691 12.96,4.691L2.883,4.691C1.029,4.691 0,5.72 0,7.574L0,17.656C0,18.517 0.089,19.379 0.746,20.036L15.3,34.708C15.918,35.337 16.763,35.691 17.644,35.691C18.525,35.691 19.37,35.337 19.988,34.708L30.047,24.62C31.357,23.308 31.327,21.182 30.017,19.872ZM6.421,11.112C6.14,11.393 5.759,11.551 5.362,11.551C4.541,11.551 3.865,10.875 3.865,10.054C3.865,9.657 4.022,9.276 4.303,8.995C4.584,8.714 4.965,8.556 5.362,8.556C6.183,8.556 6.859,9.232 6.859,10.054C6.859,10.451 6.702,10.832 6.421,11.112Z" style="fill:rgb(255,217,131);fill-rule:nonzero;"/>
                </g>
                <g transform="matrix(1,0,0,1,931.769,509.431)">
                    <path d="M7.952,7.463C7.266,6.776 6.334,6.39 5.362,6.39C4.391,6.39 3.459,6.776 2.773,7.463C2.086,8.15 1.7,9.082 1.7,10.053C1.7,12.063 3.354,13.716 5.363,13.716C6.334,13.716 7.266,13.33 7.953,12.643C9.373,11.222 9.372,8.884 7.952,7.463ZM6.422,11.113C6.14,11.407 5.749,11.573 5.342,11.573C4.519,11.573 3.843,10.896 3.843,10.074C3.843,9.666 4.009,9.276 4.303,8.993C4.582,8.725 4.955,8.575 5.342,8.575C6.164,8.575 6.841,9.252 6.841,10.074C6.841,10.461 6.691,10.834 6.422,11.113Z" style="fill:rgb(217,158,130);fill-rule:nonzero;"/>
                </g>
                <g transform="matrix(1,0,0,1,931.769,509.431)">
                    <path d="M6.507,10.192C6.319,10.38 6.065,10.485 5.799,10.485C5.251,10.485 4.799,10.034 4.799,9.485C4.799,9.22 4.905,8.966 5.092,8.778L13.577,0.293C13.765,0.106 14.019,-0 14.285,-0C14.833,-0 15.285,0.452 15.285,1C15.285,1.265 15.179,1.52 14.992,1.707L6.507,10.192Z" style="fill:rgb(193,105,79);fill-rule:nonzero;"/>
                </g>
            </g>
            <g transform="matrix(1,0,0,1,-5.1529,-4.33419)">
                <g transform="matrix(30,0,0,30,546.283,625.568)">
                    <path d="M0.529,-0.539C0.529,-0.506 0.519,-0.477 0.5,-0.452C0.48,-0.427 0.451,-0.404 0.411,-0.382C0.458,-0.361 0.494,-0.334 0.519,-0.302C0.544,-0.269 0.557,-0.232 0.557,-0.191C0.557,-0.152 0.547,-0.118 0.527,-0.087C0.507,-0.056 0.478,-0.031 0.44,-0.013C0.402,0.005 0.357,0.014 0.305,0.014C0.254,0.014 0.209,0.005 0.172,-0.013C0.135,-0.031 0.107,-0.055 0.087,-0.086C0.068,-0.116 0.058,-0.151 0.058,-0.188C0.058,-0.229 0.07,-0.264 0.094,-0.295C0.118,-0.325 0.152,-0.35 0.196,-0.37C0.158,-0.39 0.13,-0.412 0.113,-0.437C0.095,-0.462 0.087,-0.494 0.087,-0.533C0.087,-0.573 0.097,-0.607 0.118,-0.636C0.139,-0.664 0.167,-0.686 0.201,-0.7C0.234,-0.715 0.27,-0.722 0.308,-0.722C0.348,-0.722 0.384,-0.715 0.418,-0.701C0.451,-0.687 0.478,-0.666 0.498,-0.639C0.519,-0.611 0.529,-0.578 0.529,-0.539ZM0.198,-0.532C0.198,-0.51 0.203,-0.491 0.213,-0.477C0.223,-0.463 0.238,-0.451 0.256,-0.441C0.275,-0.431 0.301,-0.421 0.333,-0.41C0.363,-0.429 0.385,-0.447 0.398,-0.466C0.411,-0.484 0.417,-0.507 0.417,-0.533C0.417,-0.565 0.408,-0.591 0.389,-0.61C0.37,-0.629 0.343,-0.638 0.308,-0.638C0.273,-0.638 0.246,-0.629 0.227,-0.611C0.208,-0.592 0.198,-0.566 0.198,-0.532ZM0.439,-0.19C0.439,-0.218 0.433,-0.24 0.42,-0.257C0.407,-0.274 0.39,-0.288 0.367,-0.299C0.345,-0.31 0.313,-0.323 0.27,-0.338C0.207,-0.305 0.176,-0.257 0.176,-0.192C0.176,-0.155 0.187,-0.126 0.209,-0.105C0.232,-0.084 0.264,-0.073 0.307,-0.073C0.335,-0.073 0.359,-0.078 0.379,-0.089C0.399,-0.099 0.414,-0.113 0.424,-0.131C0.434,-0.148 0.439,-0.168 0.439,-0.19Z" style="fill:rgb(115,79,0);fill-rule:nonzero;"/>
                </g>
            </g>
        </g>
        <g transform="matrix(1,0,0,1,748.874,-1.02318e-12)">
            <g transform="matrix(1.43774,-1.43774,1.43774,1.43774,-1575.83,1210.34)">
                <g transform="matrix(1,0,0,1,931.769,509.431)">
                    <path d="M30.017,19.872L15.345,5.437C14.687,4.778 13.823,4.691 12.96,4.691L2.883,4.691C1.029,4.691 0,5.72 0,7.574L0,17.656C0,18.517 0.089,19.379 0.746,20.036L15.3,34.708C15.918,35.337 16.763,35.691 17.644,35.691C18.525,35.691 19.37,35.337 19.988,34.708L30.047,24.62C31.357,23.308 31.327,21.182 30.017,19.872ZM6.421,11.112C6.14,11.393 5.759,11.551 5.362,11.551C4.541,11.551 3.865,10.875 3.865,10.054C3.865,9.657 4.022,9.276 4.303,8.995C4.584,8.714 4.965,8.556 5.362,8.556C6.183,8.556 6.859,9.232 6.859,10.054C6.859,10.451 6.702,10.832 6.421,11.112Z" style="fill:rgb(255,217,131);fill-rule:nonzero;"/>
                </g>
                <g transform="matrix(1,0,0,1,931.769,509.431)">
                    <path d="M7.952,7.463C7.266,6.776 6.334,6.39 5.362,6.39C4.391,6.39 3.459,6.776 2.773,7.463C2.086,8.15 1.7,9.082 1.7,10.053C1.7,12.063 3.354,13.716 5.363,13.716C6.334,13.716 7.266,13.33 7.953,12.643C9.373,11.222 9.372,8.884 7.952,7.463ZM6.422,11.113C6.14,11.407 5.749,11.573 5.342,11.573C4.519,11.573 3.843,10.896 3.843,10.074C3.843,9.666 4.009,9.276 4.303,8.993C4.582,8.725 4.955,8.575 5.342,8.575C6.164,8.575 6.841,9.252 6.841,10.074C6.841,10.461 6.691,10.834 6.422,11.113Z" style="fill:rgb(217,158,130);fill-rule:nonzero;"/>
                </g>
                <g transform="matrix(1,0,0,1,931.769,509.431)">
                    <path d="M6.507,10.192C6.319,10.38 6.065,10.485 5.799,10.485C5.251,10.485 4.799,10.034 4.799,9.485C4.799,9.22 4.905,8.966 5.092,8.778L13.577,0.293C13.765,0.106 14.019,-0 14.285,-0C14.833,-0 15.285,0.452 15.285,1C15.285,1.265 15.179,1.52 14.992,1.707L6.507,10.192Z" style="fill:rgb(193,105,79);fill-rule:nonzero;"/>
                </g>
            </g>
            <g transform="matrix(1,0,0,1,-5.1529,-4.33419)">
                <g transform="matrix(30,0,0,30,546.283,625.568)">
                    <path d="M0.299,-0.721C0.352,-0.721 0.397,-0.709 0.433,-0.686C0.469,-0.662 0.496,-0.629 0.514,-0.586C0.532,-0.544 0.542,-0.493 0.542,-0.434C0.542,-0.341 0.528,-0.265 0.5,-0.206C0.473,-0.147 0.43,-0.1 0.373,-0.064C0.316,-0.029 0.239,0.001 0.144,0.025L0.118,-0.059C0.182,-0.076 0.235,-0.097 0.277,-0.12C0.319,-0.143 0.351,-0.172 0.375,-0.206C0.399,-0.239 0.414,-0.281 0.419,-0.329C0.397,-0.305 0.373,-0.286 0.347,-0.273C0.322,-0.26 0.293,-0.254 0.261,-0.254C0.222,-0.254 0.188,-0.263 0.157,-0.282C0.127,-0.3 0.103,-0.326 0.086,-0.361C0.068,-0.395 0.059,-0.435 0.059,-0.48C0.059,-0.53 0.07,-0.573 0.091,-0.609C0.112,-0.645 0.141,-0.673 0.177,-0.692C0.213,-0.711 0.254,-0.721 0.299,-0.721ZM0.29,-0.339C0.316,-0.339 0.339,-0.345 0.361,-0.357C0.382,-0.369 0.402,-0.387 0.423,-0.411C0.422,-0.465 0.418,-0.507 0.41,-0.54C0.402,-0.572 0.389,-0.596 0.371,-0.611C0.353,-0.626 0.329,-0.634 0.299,-0.634C0.259,-0.634 0.229,-0.621 0.208,-0.595C0.187,-0.569 0.176,-0.531 0.176,-0.48C0.176,-0.432 0.186,-0.396 0.206,-0.374C0.226,-0.351 0.254,-0.339 0.29,-0.339Z" style="fill:rgb(115,79,0);fill-rule:nonzero;"/>
                </g>
            </g>
        </g>
        <g transform="matrix(1,0,0,1,832.874,-1.13687e-12)">
            <g transform="matrix(1.43774,-1.43774,1.43774,1.43774,-1575.83,1210.34)">
                <g transform="matrix(1,0,0,1,931.769,509.431)">
                    <path d="M30.017,19.872L15.345,5.437C14.687,4.778 13.823,4.691 12.96,4.691L2.883,4.691C1.029,4.691 0,5.72 0,7.574L0,17.656C0,18.517 0.089,19.379 0.746,20.036L15.3,34.708C15.918,35.337 16.763,35.691 17.644,35.691C18.525,35.691 19.37,35.337 19.988,34.708L30.047,24.62C31.357,23.308 31.327,21.182 30.017,19.872ZM6.421,11.112C6.14,11.393 5.759,11.551 5.362,11.551C4.541,11.551 3.865,10.875 3.865,10.054C3.865,9.657 4.022,9.276 4.303,8.995C4.584,8.714 4.965,8.556 5.362,8.556C6.183,8.556 6.859,9.232 6.859,10.054C6.859,10.451 6.702,10.832 6.421,11.112Z" style="fill:rgb(255,217,131);fill-rule:nonzero;"/>
                </g>
                <g transform="matrix(1,0,0,1,931.769,509.431)">
                    <path d="M7.952,7.463C7.266,6.776 6.334,6.39 5.362,6.39C4.391,6.39 3.459,6.776 2.773,7.463C2.086,8.15 1.7,9.082 1.7,10.053C1.7,12.063 3.354,13.716 5.363,13.716C6.334,13.716 7.266,13.33 7.953,12.643C9.373,11.222 9.372,8.884 7.952,7.463ZM6.422,11.113C6.14,11.407 5.749,11.573 5.342,11.573C4.519,11.573 3.843,10.896 3.843,10.074C3.843,9.666 4.009,9.276 4.303,8.993C4.582,8.725 4.955,8.575 5.342,8.575C6.164,8.575 6.841,9.252 6.841,10.074C6.841,10.461 6.691,10.834 6.422,11.113Z" style="fill:rgb(217,158,130);fill-rule:nonzero;"/>
                </g>
                <g transform="matrix(1,0,0,1,931.769,509.431)">
                    <path d="M6.507,10.192C6.319,10.38 6.065,10.485 5.799,10.485C5.251,10.485 4.799,10.034 4.799,9.485C4.799,9.22 4.905,8.966 5.092,8.778L13.577,0.293C13.765,0.106 14.019,-0 14.285,-0C14.833,-0 15.285,0.452 15.285,1C15.285,1.265 15.179,1.52 14.992,1.707L6.507,10.192Z" style="fill:rgb(193,105,79);fill-rule:nonzero;"/>
                </g>
            </g>
            <g transform="matrix(1,0,0,1,-5.1529,-4.33419)">
                <g transform="matrix(30,0,0,30,537.052,625.568)">
                    <path d="M0.402,-0.708L0.402,-0.09L0.544,-0.09L0.544,-0L0.115,-0L0.115,-0.09L0.288,-0.09L0.288,-0.59L0.132,-0.494L0.083,-0.574L0.301,-0.708L0.402,-0.708Z" style="fill:rgb(115,79,0);fill-rule:nonzero;"/>
                </g>
                <g transform="matrix(30,0,0,30,555.514,625.568)">
                    <path d="M0.308,-0.722C0.36,-0.722 0.404,-0.708 0.44,-0.679C0.476,-0.651 0.503,-0.609 0.521,-0.554C0.54,-0.499 0.549,-0.433 0.549,-0.355C0.549,-0.277 0.54,-0.21 0.521,-0.155C0.503,-0.1 0.476,-0.058 0.44,-0.029C0.404,-0.001 0.36,0.014 0.308,0.014C0.229,0.014 0.169,-0.018 0.128,-0.082C0.087,-0.145 0.067,-0.236 0.067,-0.355C0.067,-0.473 0.087,-0.564 0.128,-0.627C0.169,-0.69 0.229,-0.722 0.308,-0.722ZM0.308,-0.634C0.266,-0.634 0.234,-0.612 0.213,-0.567C0.192,-0.523 0.181,-0.452 0.181,-0.355C0.181,-0.282 0.185,-0.226 0.194,-0.185L0.394,-0.593C0.384,-0.608 0.372,-0.618 0.358,-0.625C0.344,-0.631 0.328,-0.634 0.308,-0.634ZM0.308,-0.074C0.35,-0.074 0.381,-0.096 0.403,-0.141C0.424,-0.185 0.434,-0.256 0.434,-0.355C0.434,-0.422 0.431,-0.474 0.424,-0.511L0.226,-0.108C0.236,-0.096 0.248,-0.088 0.261,-0.082C0.274,-0.077 0.29,-0.074 0.308,-0.074Z" style="fill:rgb(115,79,0);fill-rule:nonzero;"/>
                </g>
            </g>
        </g>
        <g transform="matrix(1,0,0,1,832.874,-140.246)">
            <g transform="matrix(1.43774,-1.43774,1.43774,1.43774,-1575.83,1210.34)">
                <g transform="matrix(1,0,0,1,931.769,509.431)">
                    <path d="M30.017,19.872L15.345,5.437C14.687,4.778 13.823,4.691 12.96,4.691L2.883,4.691C1.029,4.691 0,5.72 0,7.574L0,17.656C0,18.517 0.089,19.379 0.746,20.036L15.3,34.708C15.918,35.337 16.763,35.691 17.644,35.691C18.525,35.691 19.37,35.337 19.988,34.708L30.047,24.62C31.357,23.308 31.327,21.182 30.017,19.872ZM6.421,11.112C6.14,11.393 5.759,11.551 5.362,11.551C4.541,11.551 3.865,10.875 3.865,10.054C3.865,9.657 4.022,9.276 4.303,8.995C4.584,8.714 4.965,8.556 5.362,8.556C6.183,8.556 6.859,9.232 6.859,10.054C6.859,10.451 6.702,10.832 6.421,11.112Z" style="fill:rgb(131,238,255);fill-rule:nonzero;stroke:rgb(0,70,81);stroke-width:1.97px;stroke-linecap:butt;stroke-miterlimit:2;"/>
                </g>
                <g transform="matrix(1,0,0,1,931.769,509.431)">
                    <path d="M7.952,7.463C7.266,6.776 6.334,6.39 5.362,6.39C4.391,6.39 3.459,6.776 2.773,7.463C2.086,8.15 1.7,9.082 1.7,10.053C1.7,12.063 3.354,13.716 5.363,13.716C6.334,13.716 7.266,13.33 7.953,12.643C9.373,11.222 9.372,8.884 7.952,7.463ZM6.422,11.113C6.14,11.407 5.749,11.573 5.342,11.573C4.519,11.573 3.843,10.896 3.843,10.074C3.843,9.666 4.009,9.276 4.303,8.993C4.582,8.725 4.955,8.575 5.342,8.575C6.164,8.575 6.841,9.252 6.841,10.074C6.841,10.461 6.691,10.834 6.422,11.113Z" style="fill:rgb(0,177,205);fill-rule:nonzero;"/>
                </g>
                <g transform="matrix(1,0,0,1,922.171,519.161)">
                    <path d="M6.507,10.192C6.319,10.38 6.065,10.485 5.799,10.485C5.251,10.485 4.799,10.034 4.799,9.485C4.799,9.22 4.905,8.966 5.092,8.778L13.577,0.293C13.765,0.106 14.019,-0 14.285,-0C14.833,-0 15.285,0.452 15.285,1C15.285,1.265 15.179,1.52 14.992,1.707L6.507,10.192Z" style="fill:rgb(0,137,159);fill-rule:nonzero;"/>
                </g>
            </g>
            <g transform="matrix(1,0,0,1,-5.1529,-4.33419)">
                <g transform="matrix(30,0,0,30,537.052,625.568)">
                    <rect x="0.096" y="-0.368" width="0.424" height="0.094" style="fill:rgb(0,70,81);fill-rule:nonzero;"/>
                </g>
                <g transform="matrix(30,0,0,30,555.514,625.568)">
                    <path d="M0.402,-0.708L0.402,-0.09L0.544,-0.09L0.544,-0L0.115,-0L0.115,-0.09L0.288,-0.09L0.288,-0.59L0.132,-0.494L0.083,-0.574L0.301,-0.708L0.402,-0.708Z" style="fill:rgb(0,70,81);fill-rule:nonzero;"/>
                </g>
            </g>
        </g>
        <g transform="matrix(1,0,0,1,748.874,-140.246)">
            <g transform="matrix(1.43774,-1.43774,1.43774,1.43774,-1575.83,1210.34)">
                <g transform="matrix(1,0,0,1,931.769,509.431)">
                    <path d="M30.017,19.872L15.345,5.437C14.687,4.778 13.823,4.691 12.96,4.691L2.883,4.691C1.029,4.691 0,5.72 0,7.574L0,17.656C0,18.517 0.089,19.379 0.746,20.036L15.3,34.708C15.918,35.337 16.763,35.691 17.644,35.691C18.525,35.691 19.37,35.337 19.988,34.708L30.047,24.62C31.357,23.308 31.327,21.182 30.017,19.872ZM6.421,11.112C6.14,11.393 5.759,11.551 5.362,11.551C4.541,11.551 3.865,10.875 3.865,10.054C3.865,9.657 4.022,9.276 4.303,8.995C4.584,8.714 4.965,8.556 5.362,8.556C6.183,8.556 6.859,9.232 6.859,10.054C6.859,10.451 6.702,10.832 6.421,11.112Z" style="fill:rgb(131,238,255);fill-rule:nonzero;"/>
                </g>
                <g transform="matrix(1,0,0,1,931.769,509.431)">
                    <path d="M7.952,7.463C7.266,6.776 6.334,6.39 5.362,6.39C4.391,6.39 3.459,6.776 2.773,7.463C2.086,8.15 1.7,9.082 1.7,10.053C1.7,12.063 3.354,13.716 5.363,13.716C6.334,13.716 7.266,13.33 7.953,12.643C9.373,11.222 9.372,8.884 7.952,7.463ZM6.422,11.113C6.14,11.407 5.749,11.573 5.342,11.573C4.519,11.573 3.843,10.896 3.843,10.074C3.843,9.666 4.009,9.276 4.303,8.993C4.582,8.725 4.955,8.575 5.342,8.575C6.164,8.575 6.841,9.252 6.841,10.074C6.841,10.461 6.691,10.834 6.422,11.113Z" style="fill:rgb(0,177,205);fill-rule:nonzero;"/>
                </g>
                <g transform="matrix(1,0,0,1,922.171,519.161)">
                    <path d="M6.507,10.192C6.319,10.38 6.065,10.485 5.799,10.485C5.251,10.485 4.799,10.034 4.799,9.485C4.799,9.22 4.905,8.966 5.092,8.778L13.577,0.293C13.765,0.106 14.019,-0 14.285,-0C14.833,-0 15.285,0.452 15.285,1C15.285,1.265 15.179,1.52 14.992,1.707L6.507,10.192Z" style="fill:rgb(0,137,159);fill-rule:nonzero;"/>
                </g>
            </g>
            <g transform="matrix(1,0,0,1,-5.1529,-4.33419)">
                <g transform="matrix(30,0,0,30,537.052,625.568)">
                    <rect x="0.096" y="-0.368" width="0.424" height="0.094" style="fill:rgb(0,70,81);fill-rule:nonzero;"/>
                </g>
                <g transform="matrix(30,0,0,30,555.514,625.568)">
                    <path d="M0.279,-0.722C0.326,-0.722 0.366,-0.713 0.4,-0.696C0.434,-0.678 0.46,-0.654 0.477,-0.624C0.495,-0.594 0.504,-0.56 0.504,-0.522C0.504,-0.481 0.494,-0.44 0.475,-0.401C0.456,-0.362 0.425,-0.318 0.382,-0.271C0.338,-0.223 0.278,-0.164 0.199,-0.092L0.521,-0.092L0.507,-0L0.067,-0L0.067,-0.087C0.156,-0.173 0.222,-0.239 0.266,-0.288C0.31,-0.336 0.341,-0.377 0.358,-0.411C0.376,-0.445 0.385,-0.48 0.385,-0.515C0.385,-0.551 0.375,-0.579 0.355,-0.599C0.335,-0.62 0.307,-0.63 0.271,-0.63C0.24,-0.63 0.213,-0.624 0.192,-0.613C0.17,-0.601 0.149,-0.582 0.128,-0.556L0.053,-0.613C0.081,-0.649 0.114,-0.676 0.15,-0.695C0.186,-0.713 0.229,-0.722 0.279,-0.722Z" style="fill:rgb(0,70,81);fill-rule:nonzero;"/>
                </g>
            </g>
        </g>
        <g transform="matrix(1,0,0,1,664.874,-140.246)">
            <g transform="matrix(1.43774,-1.43774,1.43774,1.43774,-1575.83,1210.34)">
                <g transform="matrix(1,0,0,1,931.769,509.431)">
                    <path d="M30.017,19.872L15.345,5.437C14.687,4.778 13.823,4.691 12.96,4.691L2.883,4.691C1.029,4.691 0,5.72 0,7.574L0,17.656C0,18.517 0.089,19.379 0.746,20.036L15.3,34.708C15.918,35.337 16.763,35.691 17.644,35.691C18.525,35.691 19.37,35.337 19.988,34.708L30.047,24.62C31.357,23.308 31.327,21.182 30.017,19.872ZM6.421,11.112C6.14,11.393 5.759,11.551 5.362,11.551C4.541,11.551 3.865,10.875 3.865,10.054C3.865,9.657 4.022,9.276 4.303,8.995C4.584,8.714 4.965,8.556 5.362,8.556C6.183,8.556 6.859,9.232 6.859,10.054C6.859,10.451 6.702,10.832 6.421,11.112Z" style="fill:rgb(131,238,255);fill-rule:nonzero;"/>
                </g>
                <g transform="matrix(1,0,0,1,931.769,509.431)">
                    <path d="M7.952,7.463C7.266,6.776 6.334,6.39 5.362,6.39C4.391,6.39 3.459,6.776 2.773,7.463C2.086,8.15 1.7,9.082 1.7,10.053C1.7,12.063 3.354,13.716 5.363,13.716C6.334,13.716 7.266,13.33 7.953,12.643C9.373,11.222 9.372,8.884 7.952,7.463ZM6.422,11.113C6.14,11.407 5.749,11.573 5.342,11.573C4.519,11.573 3.843,10.896 3.843,10.074C3.843,9.666 4.009,9.276 4.303,8.993C4.582,8.725 4.955,8.575 5.342,8.575C6.164,8.575 6.841,9.252 6.841,10.074C6.841,10.461 6.691,10.834 6.422,11.113Z" style="fill:rgb(0,177,205);fill-rule:nonzero;"/>
                </g>
                <g transform="matrix(1,0,0,1,922.171,519.161)">
                    <path d="M6.507,10.192C6.319,10.38 6.065,10.485 5.799,10.485C5.251,10.485 4.799,10.034 4.799,9.485C4.799,9.22 4.905,8.966 5.092,8.778L13.577,0.293C13.765,0.106 14.019,-0 14.285,-0C14.833,-0 15.285,0.452 15.285,1C15.285,1.265 15.179,1.52 14.992,1.707L6.507,10.192Z" style="fill:rgb(0,137,159);fill-rule:nonzero;"/>
                </g>
            </g>
            <g transform="matrix(1,0,0,1,-5.1529,-4.33419)">
                <g transform="matrix(30,0,0,30,537.052,625.568)">
                    <rect x="0.096" y="-0.368" width="0.424" height="0.094" style="fill:rgb(0,70,81);fill-rule:nonzero;"/>
                </g>
                <g transform="matrix(30,0,0,30,555.514,625.568)">
                    <path d="M0.277,-0.722C0.322,-0.722 0.362,-0.714 0.396,-0.698C0.431,-0.682 0.457,-0.66 0.475,-0.633C0.494,-0.606 0.503,-0.576 0.503,-0.543C0.503,-0.515 0.497,-0.489 0.485,-0.466C0.473,-0.443 0.456,-0.424 0.435,-0.409C0.414,-0.393 0.39,-0.383 0.363,-0.376C0.393,-0.373 0.421,-0.365 0.445,-0.351C0.47,-0.338 0.489,-0.318 0.504,-0.293C0.518,-0.268 0.526,-0.238 0.526,-0.202C0.526,-0.162 0.515,-0.125 0.494,-0.092C0.473,-0.059 0.443,-0.034 0.404,-0.015C0.365,0.004 0.32,0.014 0.269,0.014C0.223,0.014 0.181,0.005 0.141,-0.011C0.101,-0.028 0.067,-0.053 0.04,-0.085L0.11,-0.147C0.13,-0.124 0.153,-0.106 0.18,-0.095C0.207,-0.083 0.235,-0.077 0.264,-0.077C0.308,-0.077 0.343,-0.089 0.368,-0.112C0.394,-0.135 0.407,-0.166 0.407,-0.206C0.407,-0.25 0.395,-0.281 0.371,-0.301C0.347,-0.32 0.313,-0.33 0.27,-0.33L0.209,-0.33L0.223,-0.414L0.266,-0.414C0.289,-0.414 0.309,-0.419 0.328,-0.427C0.347,-0.435 0.362,-0.448 0.373,-0.465C0.384,-0.481 0.39,-0.502 0.39,-0.526C0.39,-0.548 0.384,-0.568 0.374,-0.584C0.363,-0.6 0.349,-0.612 0.33,-0.621C0.312,-0.629 0.291,-0.633 0.268,-0.633C0.239,-0.633 0.213,-0.628 0.19,-0.618C0.167,-0.607 0.144,-0.591 0.121,-0.57L0.06,-0.635C0.121,-0.693 0.194,-0.722 0.277,-0.722Z" style="fill:rgb(0,70,81);fill-rule:nonzero;"/>
                </g>
            </g>
        </g>
        <g transform="matrix(1,0,0,1,580.874,-140.246)">
            <g transform="matrix(1.43774,-1.43774,1.43774,1.43774,-1575.83,1210.34)">
                <g transform="matrix(1,0,0,1,931.769,509.431)">
                    <path d="M30.017,19.872L15.345,5.437C14.687,4.778 13.823,4.691 12.96,4.691L2.883,4.691C1.029,4.691 0,5.72 0,7.574L0,17.656C0,18.517 0.089,19.379 0.746,20.036L15.3,34.708C15.918,35.337 16.763,35.691 17.644,35.691C18.525,35.691 19.37,35.337 19.988,34.708L30.047,24.62C31.357,23.308 31.327,21.182 30.017,19.872ZM6.421,11.112C6.14,11.393 5.759,11.551 5.362,11.551C4.541,11.551 3.865,10.875 3.865,10.054C3.865,9.657 4.022,9.276 4.303,8.995C4.584,8.714 4.965,8.556 5.362,8.556C6.183,8.556 6.859,9.232 6.859,10.054C6.859,10.451 6.702,10.832 6.421,11.112Z" style="fill:rgb(131,238,255);fill-rule:nonzero;"/>
                </g>
                <g transform="matrix(1,0,0,1,931.769,509.431)">
                    <path d="M7.952,7.463C7.266,6.776 6.334,6.39 5.362,6.39C4.391,6.39 3.459,6.776 2.773,7.463C2.086,8.15 1.7,9.082 1.7,10.053C1.7,12.063 3.354,13.716 5.363,13.716C6.334,13.716 7.266,13.33 7.953,12.643C9.373,11.222 9.372,8.884 7.952,7.463ZM6.422,11.113C6.14,11.407 5.749,11.573 5.342,11.573C4.519,11.573 3.843,10.896 3.843,10.074C3.843,9.666 4.009,9.276 4.303,8.993C4.582,8.725 4.955,8.575 5.342,8.575C6.164,8.575 6.841,9.252 6.841,10.074C6.841,10.461 6.691,10.834 6.422,11.113Z" style="fill:rgb(0,177,205);fill-rule:nonzero;"/>
                </g>
                <g transform="matrix(1,0,0,1,922.171,519.161)">
                    <path d="M6.507,10.192C6.319,10.38 6.065,10.485 5.799,10.485C5.251,10.485 4.799,10.034 4.799,9.485C4.799,9.22 4.905,8.966 5.092,8.778L13.577,0.293C13.765,0.106 14.019,-0 14.285,-0C14.833,-0 15.285,0.452 15.285,1C15.285,1.265 15.179,1.52 14.992,1.707L6.507,10.192Z" style="fill:rgb(0,137,159);fill-rule:nonzero;"/>
                </g>
            </g>
            <g transform="matrix(1,0,0,1,-5.1529,-4.33419)">
                <g transform="matrix(30,0,0,30,537.052,625.568)">
                    <rect x="0.096" y="-0.368" width="0.424" height="0.094" style="fill:rgb(0,70,81);fill-rule:nonzero;"/>
                </g>
                <g transform="matrix(30,0,0,30,555.514,625.568)">
                    <path d="M0.468,-0.252L0.552,-0.252L0.552,-0.163L0.468,-0.163L0.468,-0L0.357,-0L0.357,-0.163L0.063,-0.163L0.063,-0.243L0.267,-0.722L0.364,-0.684L0.183,-0.252L0.357,-0.252L0.371,-0.442L0.468,-0.442L0.468,-0.252Z" style="fill:rgb(0,70,81);fill-rule:nonzero;"/>
                </g>
            </g>
        </g>
        <g transform="matrix(1,0,0,1,496.874,-140.246)">
            <g transform="matrix(1.43774,-1.43774,1.43774,1.43774,-1575.83,1210.34)">
                <g transform="matrix(1,0,0,1,931.769,509.431)">
                    <path d="M30.017,19.872L15.345,5.437C14.687,4.778 13.823,4.691 12.96,4.691L2.883,4.691C1.029,4.691 0,5.72 0,7.574L0,17.656C0,18.517 0.089,19.379 0.746,20.036L15.3,34.708C15.918,35.337 16.763,35.691 17.644,35.691C18.525,35.691 19.37,35.337 19.988,34.708L30.047,24.62C31.357,23.308 31.327,21.182 30.017,19.872ZM6.421,11.112C6.14,11.393 5.759,11.551 5.362,11.551C4.541,11.551 3.865,10.875 3.865,10.054C3.865,9.657 4.022,9.276 4.303,8.995C4.584,8.714 4.965,8.556 5.362,8.556C6.183,8.556 6.859,9.232 6.859,10.054C6.859,10.451 6.702,10.832 6.421,11.112Z" style="fill:rgb(131,238,255);fill-rule:nonzero;"/>
                </g>
                <g transform="matrix(1,0,0,1,931.769,509.431)">
                    <path d="M7.952,7.463C7.266,6.776 6.334,6.39 5.362,6.39C4.391,6.39 3.459,6.776 2.773,7.463C2.086,8.15 1.7,9.082 1.7,10.053C1.7,12.063 3.354,13.716 5.363,13.716C6.334,13.716 7.266,13.33 7.953,12.643C9.373,11.222 9.372,8.884 7.952,7.463ZM6.422,11.113C6.14,11.407 5.749,11.573 5.342,11.573C4.519,11.573 3.843,10.896 3.843,10.074C3.843,9.666 4.009,9.276 4.303,8.993C4.582,8.725 4.955,8.575 5.342,8.575C6.164,8.575 6.841,9.252 6.841,10.074C6.841,10.461 6.691,10.834 6.422,11.113Z" style="fill:rgb(0,177,205);fill-rule:nonzero;"/>
                </g>
                <g transform="matrix(1,0,0,1,922.171,519.161)">
                    <path d="M6.507,10.192C6.319,10.38 6.065,10.485 5.799,10.485C5.251,10.485 4.799,10.034 4.799,9.485C4.799,9.22 4.905,8.966 5.092,8.778L13.577,0.293C13.765,0.106 14.019,-0 14.285,-0C14.833,-0 15.285,0.452 15.285,1C15.285,1.265 15.179,1.52 14.992,1.707L6.507,10.192Z" style="fill:rgb(0,137,159);fill-rule:nonzero;"/>
                </g>
            </g>
            <g transform="matrix(1,0,0,1,-5.1529,-4.33419)">
                <g transform="matrix(30,0,0,30,537.052,625.568)">
                    <rect x="0.096" y="-0.368" width="0.424" height="0.094" style="fill:rgb(0,70,81);fill-rule:nonzero;"/>
                </g>
                <g transform="matrix(30,0,0,30,555.514,625.568)">
                    <path d="M0.51,-0.708L0.495,-0.622L0.224,-0.622L0.224,-0.425C0.243,-0.435 0.262,-0.442 0.281,-0.446C0.299,-0.45 0.319,-0.452 0.339,-0.452C0.377,-0.452 0.411,-0.443 0.441,-0.425C0.47,-0.407 0.493,-0.382 0.51,-0.348C0.527,-0.314 0.535,-0.274 0.535,-0.227C0.535,-0.18 0.524,-0.138 0.503,-0.102C0.482,-0.065 0.453,-0.037 0.414,-0.017C0.376,0.004 0.331,0.014 0.281,0.014C0.195,0.014 0.122,-0.017 0.064,-0.079L0.133,-0.144C0.172,-0.099 0.22,-0.077 0.276,-0.077C0.32,-0.077 0.354,-0.091 0.378,-0.117C0.403,-0.143 0.415,-0.18 0.415,-0.228C0.415,-0.277 0.405,-0.313 0.384,-0.335C0.364,-0.357 0.336,-0.368 0.3,-0.368C0.283,-0.368 0.266,-0.366 0.251,-0.362C0.235,-0.358 0.218,-0.352 0.198,-0.344L0.114,-0.344L0.114,-0.708L0.51,-0.708Z" style="fill:rgb(0,70,81);fill-rule:nonzero;"/>
                </g>
            </g>
        </g>
        <g transform="matrix(1,0,0,1,412.874,-140.246)">
            <g transform="matrix(1.43774,-1.43774,1.43774,1.43774,-1575.83,1210.34)">
                <g transform="matrix(1,0,0,1,931.769,509.431)">
                    <path d="M30.017,19.872L15.345,5.437C14.687,4.778 13.823,4.691 12.96,4.691L2.883,4.691C1.029,4.691 0,5.72 0,7.574L0,17.656C0,18.517 0.089,19.379 0.746,20.036L15.3,34.708C15.918,35.337 16.763,35.691 17.644,35.691C18.525,35.691 19.37,35.337 19.988,34.708L30.047,24.62C31.357,23.308 31.327,21.182 30.017,19.872ZM6.421,11.112C6.14,11.393 5.759,11.551 5.362,11.551C4.541,11.551 3.865,10.875 3.865,10.054C3.865,9.657 4.022,9.276 4.303,8.995C4.584,8.714 4.965,8.556 5.362,8.556C6.183,8.556 6.859,9.232 6.859,10.054C6.859,10.451 6.702,10.832 6.421,11.112Z" style="fill:rgb(131,238,255);fill-rule:nonzero;"/>
                </g>
                <g transform="matrix(1,0,0,1,931.769,509.431)">
                    <path d="M7.952,7.463C7.266,6.776 6.334,6.39 5.362,6.39C4.391,6.39 3.459,6.776 2.773,7.463C2.086,8.15 1.7,9.082 1.7,10.053C1.7,12.063 3.354,13.716 5.363,13.716C6.334,13.716 7.266,13.33 7.953,12.643C9.373,11.222 9.372,8.884 7.952,7.463ZM6.422,11.113C6.14,11.407 5.749,11.573 5.342,11.573C4.519,11.573 3.843,10.896 3.843,10.074C3.843,9.666 4.009,9.276 4.303,8.993C4.582,8.725 4.955,8.575 5.342,8.575C6.164,8.575 6.841,9.252 6.841,10.074C6.841,10.461 6.691,10.834 6.422,11.113Z" style="fill:rgb(0,177,205);fill-rule:nonzero;"/>
                </g>
                <g transform="matrix(1,0,0,1,922.171,519.161)">
                    <path d="M6.507,10.192C6.319,10.38 6.065,10.485 5.799,10.485C5.251,10.485 4.799,10.034 4.799,9.485C4.799,9.22 4.905,8.966 5.092,8.778L13.577,0.293C13.765,0.106 14.019,-0 14.285,-0C14.833,-0 15.285,0.452 15.285,1C15.285,1.265 15.179,1.52 14.992,1.707L6.507,10.192Z" style="fill:rgb(0,137,159);fill-rule:nonzero;"/>
                </g>
            </g>
            <g transform="matrix(1,0,0,1,-5.1529,-4.33419)">
                <g transform="matrix(30,0,0,30,537.052,625.568)">
                    <rect x="0.096" y="-0.368" width="0.424" height="0.094" style="fill:rgb(0,70,81);fill-rule:nonzero;"/>
                </g>
                <g transform="matrix(30,0,0,30,555.514,625.568)">
                    <path d="M0.35,-0.466C0.387,-0.466 0.421,-0.458 0.451,-0.44C0.481,-0.423 0.505,-0.397 0.523,-0.363C0.541,-0.329 0.55,-0.288 0.55,-0.239C0.55,-0.189 0.54,-0.145 0.519,-0.107C0.499,-0.069 0.472,-0.039 0.436,-0.018C0.401,0.003 0.361,0.014 0.316,0.014C0.231,0.014 0.169,-0.017 0.129,-0.078C0.09,-0.139 0.07,-0.223 0.07,-0.329C0.07,-0.408 0.081,-0.477 0.103,-0.536C0.126,-0.595 0.158,-0.641 0.2,-0.673C0.242,-0.706 0.292,-0.722 0.35,-0.722C0.404,-0.722 0.452,-0.708 0.495,-0.679L0.451,-0.605C0.42,-0.625 0.386,-0.635 0.35,-0.635C0.318,-0.635 0.29,-0.625 0.266,-0.605C0.243,-0.584 0.224,-0.555 0.211,-0.517C0.197,-0.479 0.189,-0.435 0.188,-0.383C0.23,-0.438 0.284,-0.466 0.35,-0.466ZM0.316,-0.073C0.355,-0.073 0.384,-0.088 0.404,-0.116C0.423,-0.145 0.433,-0.184 0.433,-0.234C0.433,-0.286 0.424,-0.323 0.405,-0.346C0.387,-0.369 0.36,-0.38 0.326,-0.38C0.298,-0.38 0.273,-0.373 0.249,-0.358C0.226,-0.343 0.205,-0.323 0.188,-0.297C0.189,-0.245 0.194,-0.203 0.203,-0.171C0.212,-0.138 0.226,-0.114 0.244,-0.097C0.263,-0.081 0.287,-0.073 0.316,-0.073Z" style="fill:rgb(0,70,81);fill-rule:nonzero;"/>
                </g>
            </g>
        </g>
        <g transform="matrix(1,0,0,1,328.874,-140.246)">
            <g transform="matrix(1.43774,-1.43774,1.43774,1.43774,-1575.83,1210.34)">
                <g transform="matrix(1,0,0,1,931.769,509.431)">
                    <path d="M30.017,19.872L15.345,5.437C14.687,4.778 13.823,4.691 12.96,4.691L2.883,4.691C1.029,4.691 0,5.72 0,7.574L0,17.656C0,18.517 0.089,19.379 0.746,20.036L15.3,34.708C15.918,35.337 16.763,35.691 17.644,35.691C18.525,35.691 19.37,35.337 19.988,34.708L30.047,24.62C31.357,23.308 31.327,21.182 30.017,19.872ZM6.421,11.112C6.14,11.393 5.759,11.551 5.362,11.551C4.541,11.551 3.865,10.875 3.865,10.054C3.865,9.657 4.022,9.276 4.303,8.995C4.584,8.714 4.965,8.556 5.362,8.556C6.183,8.556 6.859,9.232 6.859,10.054C6.859,10.451 6.702,10.832 6.421,11.112Z" style="fill:rgb(131,238,255);fill-rule:nonzero;"/>
                </g>
                <g transform="matrix(1,0,0,1,931.769,509.431)">
                    <path d="M7.952,7.463C7.266,6.776 6.334,6.39 5.362,6.39C4.391,6.39 3.459,6.776 2.773,7.463C2.086,8.15 1.7,9.082 1.7,10.053C1.7,12.063 3.354,13.716 5.363,13.716C6.334,13.716 7.266,13.33 7.953,12.643C9.373,11.222 9.372,8.884 7.952,7.463ZM6.422,11.113C6.14,11.407 5.749,11.573 5.342,11.573C4.519,11.573 3.843,10.896 3.843,10.074C3.843,9.666 4.009,9.276 4.303,8.993C4.582,8.725 4.955,8.575 5.342,8.575C6.164,8.575 6.841,9.252 6.841,10.074C6.841,10.461 6.691,10.834 6.422,11.113Z" style="fill:rgb(0,177,205);fill-rule:nonzero;"/>
                </g>
                <g transform="matrix(1,0,0,1,922.171,519.161)">
                    <path d="M6.507,10.192C6.319,10.38 6.065,10.485 5.799,10.485C5.251,10.485 4.799,10.034 4.799,9.485C4.799,9.22 4.905,8.966 5.092,8.778L13.577,0.293C13.765,0.106 14.019,-0 14.285,-0C14.833,-0 15.285,0.452 15.285,1C15.285,1.265 15.179,1.52 14.992,1.707L6.507,10.192Z" style="fill:rgb(0,137,159);fill-rule:nonzero;"/>
                </g>
            </g>
            <g transform="matrix(1,0,0,1,-5.1529,-4.33419)">
                <g transform="matrix(30,0,0,30,537.052,625.568)">
                    <rect x="0.096" y="-0.368" width="0.424" height="0.094" style="fill:rgb(0,70,81);fill-rule:nonzero;"/>
                </g>
                <g transform="matrix(30,0,0,30,555.514,625.568)">
                    <path d="M0.529,-0.625L0.249,0.012L0.141,-0.021L0.412,-0.617L0.088,-0.617L0.088,-0.708L0.529,-0.708L0.529,-0.625Z" style="fill:rgb(0,70,81);fill-rule:nonzero;"/>
                </g>
            </g>
        </g>
        <g transform="matrix(1,0,0,1,244.874,-140.246)">
            <g transform="matrix(1.43774,-1.43774,1.43774,1.43774,-1575.83,1210.34)">
                <g transform="matrix(1,0,0,1,931.769,509.431)">
                    <path d="M30.017,19.872L15.345,5.437C14.687,4.778 13.823,4.691 12.96,4.691L2.883,4.691C1.029,4.691 0,5.72 0,7.574L0,17.656C0,18.517 0.089,19.379 0.746,20.036L15.3,34.708C15.918,35.337 16.763,35.691 17.644,35.691C18.525,35.691 19.37,35.337 19.988,34.708L30.047,24.62C31.357,23.308 31.327,21.182 30.017,19.872ZM6.421,11.112C6.14,11.393 5.759,11.551 5.362,11.551C4.541,11.551 3.865,10.875 3.865,10.054C3.865,9.657 4.022,9.276 4.303,8.995C4.584,8.714 4.965,8.556 5.362,8.556C6.183,8.556 6.859,9.232 6.859,10.054C6.859,10.451 6.702,10.832 6.421,11.112Z" style="fill:rgb(131,238,255);fill-rule:nonzero;"/>
                </g>
                <g transform="matrix(1,0,0,1,931.769,509.431)">
                    <path d="M7.952,7.463C7.266,6.776 6.334,6.39 5.362,6.39C4.391,6.39 3.459,6.776 2.773,7.463C2.086,8.15 1.7,9.082 1.7,10.053C1.7,12.063 3.354,13.716 5.363,13.716C6.334,13.716 7.266,13.33 7.953,12.643C9.373,11.222 9.372,8.884 7.952,7.463ZM6.422,11.113C6.14,11.407 5.749,11.573 5.342,11.573C4.519,11.573 3.843,10.896 3.843,10.074C3.843,9.666 4.009,9.276 4.303,8.993C4.582,8.725 4.955,8.575 5.342,8.575C6.164,8.575 6.841,9.252 6.841,10.074C6.841,10.461 6.691,10.834 6.422,11.113Z" style="fill:rgb(0,177,205);fill-rule:nonzero;"/>
                </g>
                <g transform="matrix(1,0,0,1,922.171,519.161)">
                    <path d="M6.507,10.192C6.319,10.38 6.065,10.485 5.799,10.485C5.251,10.485 4.799,10.034 4.799,9.485C4.799,9.22 4.905,8.966 5.092,8.778L13.577,0.293C13.765,0.106 14.019,-0 14.285,-0C14.833,-0 15.285,0.452 15.285,1C15.285,1.265 15.179,1.52 14.992,1.707L6.507,10.192Z" style="fill:rgb(0,137,159);fill-rule:nonzero;"/>
                </g>
            </g>
            <g transform="matrix(1,0,0,1,-5.1529,-4.33419)">
                <g transform="matrix(30,0,0,30,537.052,625.568)">
                    <rect x="0.096" y="-0.368" width="0.424" height="0.094" style="fill:rgb(0,70,81);fill-rule:nonzero;"/>
                </g>
                <g transform="matrix(30,0,0,30,555.514,625.568)">
                    <path d="M0.529,-0.539C0.529,-0.506 0.519,-0.477 0.5,-0.452C0.48,-0.427 0.451,-0.404 0.411,-0.382C0.458,-0.361 0.494,-0.334 0.519,-0.302C0.544,-0.269 0.557,-0.232 0.557,-0.191C0.557,-0.152 0.547,-0.118 0.527,-0.087C0.507,-0.056 0.478,-0.031 0.44,-0.013C0.402,0.005 0.357,0.014 0.305,0.014C0.254,0.014 0.209,0.005 0.172,-0.013C0.135,-0.031 0.107,-0.055 0.087,-0.086C0.068,-0.116 0.058,-0.151 0.058,-0.188C0.058,-0.229 0.07,-0.264 0.094,-0.295C0.118,-0.325 0.152,-0.35 0.196,-0.37C0.158,-0.39 0.13,-0.412 0.113,-0.437C0.095,-0.462 0.087,-0.494 0.087,-0.533C0.087,-0.573 0.097,-0.607 0.118,-0.636C0.139,-0.664 0.167,-0.686 0.201,-0.7C0.234,-0.715 0.27,-0.722 0.308,-0.722C0.348,-0.722 0.384,-0.715 0.418,-0.701C0.451,-0.687 0.478,-0.666 0.498,-0.639C0.519,-0.611 0.529,-0.578 0.529,-0.539ZM0.198,-0.532C0.198,-0.51 0.203,-0.491 0.213,-0.477C0.223,-0.463 0.238,-0.451 0.256,-0.441C0.275,-0.431 0.301,-0.421 0.333,-0.41C0.363,-0.429 0.385,-0.447 0.398,-0.466C0.411,-0.484 0.417,-0.507 0.417,-0.533C0.417,-0.565 0.408,-0.591 0.389,-0.61C0.37,-0.629 0.343,-0.638 0.308,-0.638C0.273,-0.638 0.246,-0.629 0.227,-0.611C0.208,-0.592 0.198,-0.566 0.198,-0.532ZM0.439,-0.19C0.439,-0.218 0.433,-0.24 0.42,-0.257C0.407,-0.274 0.39,-0.288 0.367,-0.299C0.345,-0.31 0.313,-0.323 0.27,-0.338C0.207,-0.305 0.176,-0.257 0.176,-0.192C0.176,-0.155 0.187,-0.126 0.209,-0.105C0.232,-0.084 0.264,-0.073 0.307,-0.073C0.335,-0.073 0.359,-0.078 0.379,-0.089C0.399,-0.099 0.414,-0.113 0.424,-0.131C0.434,-0.148 0.439,-0.168 0.439,-0.19Z" style="fill:rgb(0,70,81);fill-rule:nonzero;"/>
                </g>
            </g>
        </g>
        <g transform="matrix(1,0,0,1,160.874,-140.246)">
            <g transform="matrix(1.43774,-1.43774,1.43774,1.43774,-1575.83,1210.34)">
                <g transform="matrix(1,0,0,1,931.769,509.431)">
                    <path d="M30.017,19.872L15.345,5.437C14.687,4.778 13.823,4.691 12.96,4.691L2.883,4.691C1.029,4.691 0,5.72 0,7.574L0,17.656C0,18.517 0.089,19.379 0.746,20.036L15.3,34.708C15.918,35.337 16.763,35.691 17.644,35.691C18.525,35.691 19.37,35.337 19.988,34.708L30.047,24.62C31.357,23.308 31.327,21.182 30.017,19.872ZM6.421,11.112C6.14,11.393 5.759,11.551 5.362,11.551C4.541,11.551 3.865,10.875 3.865,10.054C3.865,9.657 4.022,9.276 4.303,8.995C4.584,8.714 4.965,8.556 5.362,8.556C6.183,8.556 6.859,9.232 6.859,10.054C6.859,10.451 6.702,10.832 6.421,11.112Z" style="fill:rgb(131,238,255);fill-rule:nonzero;"/>
                </g>
                <g transform="matrix(1,0,0,1,931.769,509.431)">
                    <path d="M7.952,7.463C7.266,6.776 6.334,6.39 5.362,6.39C4.391,6.39 3.459,6.776 2.773,7.463C2.086,8.15 1.7,9.082 1.7,10.053C1.7,12.063 3.354,13.716 5.363,13.716C6.334,13.716 7.266,13.33 7.953,12.643C9.373,11.222 9.372,8.884 7.952,7.463ZM6.422,11.113C6.14,11.407 5.749,11.573 5.342,11.573C4.519,11.573 3.843,10.896 3.843,10.074C3.843,9.666 4.009,9.276 4.303,8.993C4.582,8.725 4.955,8.575 5.342,8.575C6.164,8.575 6.841,9.252 6.841,10.074C6.841,10.461 6.691,10.834 6.422,11.113Z" style="fill:rgb(0,177,205);fill-rule:nonzero;"/>
                </g>
                <g transform="matrix(1,0,0,1,922.171,519.161)">
                    <path d="M6.507,10.192C6.319,10.38 6.065,10.485 5.799,10.485C5.251,10.485 4.799,10.034 4.799,9.485C4.799,9.22 4.905,8.966 5.092,8.778L13.577,0.293C13.765,0.106 14.019,-0 14.285,-0C14.833,-0 15.285,0.452 15.285,1C15.285,1.265 15.179,1.52 14.992,1.707L6.507,10.192Z" style="fill:rgb(0,137,159);fill-rule:nonzero;"/>
                </g>
            </g>
            <g transform="matrix(1,0,0,1,-5.1529,-4.33419)">
                <g transform="matrix(30,0,0,30,537.052,625.568)">
                    <rect x="0.096" y="-0.368" width="0.424" height="0.094" style="fill:rgb(0,70,81);fill-rule:nonzero;"/>
                </g>
                <g transform="matrix(30,0,0,30,555.514,625.568)">
                    <path d="M0.299,-0.721C0.352,-0.721 0.397,-0.709 0.433,-0.686C0.469,-0.662 0.496,-0.629 0.514,-0.586C0.532,-0.544 0.542,-0.493 0.542,-0.434C0.542,-0.341 0.528,-0.265 0.5,-0.206C0.473,-0.147 0.43,-0.1 0.373,-0.064C0.316,-0.029 0.239,0.001 0.144,0.025L0.118,-0.059C0.182,-0.076 0.235,-0.097 0.277,-0.12C0.319,-0.143 0.351,-0.172 0.375,-0.206C0.399,-0.239 0.414,-0.281 0.419,-0.329C0.397,-0.305 0.373,-0.286 0.347,-0.273C0.322,-0.26 0.293,-0.254 0.261,-0.254C0.222,-0.254 0.188,-0.263 0.157,-0.282C0.127,-0.3 0.103,-0.326 0.086,-0.361C0.068,-0.395 0.059,-0.435 0.059,-0.48C0.059,-0.53 0.07,-0.573 0.091,-0.609C0.112,-0.645 0.141,-0.673 0.177,-0.692C0.213,-0.711 0.254,-0.721 0.299,-0.721ZM0.29,-0.339C0.316,-0.339 0.339,-0.345 0.361,-0.357C0.382,-0.369 0.402,-0.387 0.423,-0.411C0.422,-0.465 0.418,-0.507 0.41,-0.54C0.402,-0.572 0.389,-0.596 0.371,-0.611C0.353,-0.626 0.329,-0.634 0.299,-0.634C0.259,-0.634 0.229,-0.621 0.208,-0.595C0.187,-0.569 0.176,-0.531 0.176,-0.48C0.176,-0.432 0.186,-0.396 0.206,-0.374C0.226,-0.351 0.254,-0.339 0.29,-0.339Z" style="fill:rgb(0,70,81);fill-rule:nonzero;"/>
                </g>
            </g>
        </g>
        <g transform="matrix(1,0,0,1,76.8743,-140.246)">
            <g transform="matrix(1.43774,-1.43774,1.43774,1.43774,-1575.83,1210.34)">
                <g transform="matrix(1,0,0,1,931.769,509.431)">
                    <path d="M30.017,19.872L15.345,5.437C14.687,4.778 13.823,4.691 12.96,4.691L2.883,4.691C1.029,4.691 0,5.72 0,7.574L0,17.656C0,18.517 0.089,19.379 0.746,20.036L15.3,34.708C15.918,35.337 16.763,35.691 17.644,35.691C18.525,35.691 19.37,35.337 19.988,34.708L30.047,24.62C31.357,23.308 31.327,21.182 30.017,19.872ZM6.421,11.112C6.14,11.393 5.759,11.551 5.362,11.551C4.541,11.551 3.865,10.875 3.865,10.054C3.865,9.657 4.022,9.276 4.303,8.995C4.584,8.714 4.965,8.556 5.362,8.556C6.183,8.556 6.859,9.232 6.859,10.054C6.859,10.451 6.702,10.832 6.421,11.112Z" style="fill:rgb(131,238,255);fill-rule:nonzero;"/>
                </g>
                <g transform="matrix(1,0,0,1,931.769,509.431)">
                    <path d="M7.952,7.463C7.266,6.776 6.334,6.39 5.362,6.39C4.391,6.39 3.459,6.776 2.773,7.463C2.086,8.15 1.7,9.082 1.7,10.053C1.7,12.063 3.354,13.716 5.363,13.716C6.334,13.716 7.266,13.33 7.953,12.643C9.373,11.222 9.372,8.884 7.952,7.463ZM6.422,11.113C6.14,11.407 5.749,11.573 5.342,11.573C4.519,11.573 3.843,10.896 3.843,10.074C3.843,9.666 4.009,9.276 4.303,8.993C4.582,8.725 4.955,8.575 5.342,8.575C6.164,8.575 6.841,9.252 6.841,10.074C6.841,10.461 6.691,10.834 6.422,11.113Z" style="fill:rgb(0,177,205);fill-rule:nonzero;"/>
                </g>
                <g transform="matrix(1,0,0,1,922.171,519.161)">
                    <path d="M6.507,10.192C6.319,10.38 6.065,10.485 5.799,10.485C5.251,10.485 4.799,10.034 4.799,9.485C4.799,9.22 4.905,8.966 5.092,8.778L13.577,0.293C13.765,0.106 14.019,-0 14.285,-0C14.833,-0 15.285,0.452 15.285,1C15.285,1.265 15.179,1.52 14.992,1.707L6.507,10.192Z" style="fill:rgb(0,137,159);fill-rule:nonzero;"/>
                </g>
            </g>
            <g transform="matrix(1,0,0,1,-5.1529,-4.33419)">
                <g transform="matrix(26,0,0,26,531.514,624.05)">
                    <rect x="0.096" y="-0.368" width="0.424" height="0.094" style="fill:rgb(0,70,81);fill-rule:nonzero;"/>
                </g>
                <g transform="matrix(26,0,0,26,547.514,624.05)">
                    <path d="M0.402,-0.708L0.402,-0.09L0.544,-0.09L0.544,-0L0.115,-0L0.115,-0.09L0.288,-0.09L0.288,-0.59L0.132,-0.494L0.083,-0.574L0.301,-0.708L0.402,-0.708Z" style="fill:rgb(0,70,81);fill-rule:nonzero;"/>
                </g>
                <g transform="matrix(26,0,0,26,563.514,624.05)">
                    <path d="M0.308,-0.722C0.36,-0.722 0.404,-0.708 0.44,-0.679C0.476,-0.651 0.503,-0.609 0.521,-0.554C0.54,-0.499 0.549,-0.433 0.549,-0.355C0.549,-0.277 0.54,-0.21 0.521,-0.155C0.503,-0.1 0.476,-0.058 0.44,-0.029C0.404,-0.001 0.36,0.014 0.308,0.014C0.229,0.014 0.169,-0.018 0.128,-0.082C0.087,-0.145 0.067,-0.236 0.067,-0.355C0.067,-0.473 0.087,-0.564 0.128,-0.627C0.169,-0.69 0.229,-0.722 0.308,-0.722ZM0.308,-0.634C0.266,-0.634 0.234,-0.612 0.213,-0.567C0.192,-0.523 0.181,-0.452 0.181,-0.355C0.181,-0.282 0.185,-0.226 0.194,-0.185L0.394,-0.593C0.384,-0.608 0.372,-0.618 0.358,-0.625C0.344,-0.631 0.328,-0.634 0.308,-0.634ZM0.308,-0.074C0.35,-0.074 0.381,-0.096 0.403,-0.141C0.424,-0.185 0.434,-0.256 0.434,-0.355C0.434,-0.422 0.431,-0.474 0.424,-0.511L0.226,-0.108C0.236,-0.096 0.248,-0.088 0.261,-0.082C0.274,-0.077 0.29,-0.074 0.308,-0.074Z" style="fill:rgb(0,70,81);fill-rule:nonzero;"/>
                </g>
            </g>
        </g>
        <g transform="matrix(1,0,0,1,-7.12575,-140.246)">
            <g transform="matrix(1.43774,-1.43774,1.43774,1.43774,-1575.83,1210.34)">
                <g transform="matrix(1,0,0,1,931.769,509.431)">
                    <path d="M30.017,19.872L15.345,5.437C14.687,4.778 13.823,4.691 12.96,4.691L2.883,4.691C1.029,4.691 0,5.72 0,7.574L0,17.656C0,18.517 0.089,19.379 0.746,20.036L15.3,34.708C15.918,35.337 16.763,35.691 17.644,35.691C18.525,35.691 19.37,35.337 19.988,34.708L30.047,24.62C31.357,23.308 31.327,21.182 30.017,19.872ZM6.421,11.112C6.14,11.393 5.759,11.551 5.362,11.551C4.541,11.551 3.865,10.875 3.865,10.054C3.865,9.657 4.022,9.276 4.303,8.995C4.584,8.714 4.965,8.556 5.362,8.556C6.183,8.556 6.859,9.232 6.859,10.054C6.859,10.451 6.702,10.832 6.421,11.112Z" style="fill:rgb(131,238,255);fill-rule:nonzero;"/>
                </g>
                <g transform="matrix(1,0,0,1,931.769,509.431)">
                    <path d="M7.952,7.463C7.266,6.776 6.334,6.39 5.362,6.39C4.391,6.39 3.459,6.776 2.773,7.463C2.086,8.15 1.7,9.082 1.7,10.053C1.7,12.063 3.354,13.716 5.363,13.716C6.334,13.716 7.266,13.33 7.953,12.643C9.373,11.222 9.372,8.884 7.952,7.463ZM6.422,11.113C6.14,11.407 5.749,11.573 5.342,11.573C4.519,11.573 3.843,10.896 3.843,10.074C3.843,9.666 4.009,9.276 4.303,8.993C4.582,8.725 4.955,8.575 5.342,8.575C6.164,8.575 6.841,9.252 6.841,10.074C6.841,10.461 6.691,10.834 6.422,11.113Z" style="fill:rgb(0,177,205);fill-rule:nonzero;"/>
                </g>
                <g transform="matrix(1,0,0,1,922.171,519.161)">
                    <path d="M6.507,10.192C6.319,10.38 6.065,10.485 5.799,10.485C5.251,10.485 4.799,10.034 4.799,9.485C4.799,9.22 4.905,8.966 5.092,8.778L13.577,0.293C13.765,0.106 14.019,-0 14.285,-0C14.833,-0 15.285,0.452 15.285,1C15.285,1.265 15.179,1.52 14.992,1.707L6.507,10.192Z" style="fill:rgb(0,137,159);fill-rule:nonzero;"/>
                </g>
            </g>
            <g transform="matrix(1,0,0,1,-5.1529,-4.33419)">
                <g transform="matrix(26,0,0,26,531.514,624.05)">
                    <rect x="0.096" y="-0.368" width="0.424" height="0.094" style="fill:rgb(0,70,81);fill-rule:nonzero;"/>
                </g>
                <g transform="matrix(26,0,0,26,547.514,624.05)">
                    <path d="M0.402,-0.708L0.402,-0.09L0.544,-0.09L0.544,-0L0.115,-0L0.115,-0.09L0.288,-0.09L0.288,-0.59L0.132,-0.494L0.083,-0.574L0.301,-0.708L0.402,-0.708Z" style="fill:rgb(0,70,81);fill-rule:nonzero;"/>
                </g>
                <g transform="matrix(26,0,0,26,563.514,624.05)">
                    <path d="M0.402,-0.708L0.402,-0.09L0.544,-0.09L0.544,-0L0.115,-0L0.115,-0.09L0.288,-0.09L0.288,-0.59L0.132,-0.494L0.083,-0.574L0.301,-0.708L0.402,-0.708Z" style="fill:rgb(0,70,81);fill-rule:nonzero;"/>
                </g>
            </g>
        </g>
    </g>
</svg>
