<svg xmlns="http://www.w3.org/2000/svg" xmlns:xlink="http://www.w3.org/1999/xlink" width="401" height="282" fill-rule="evenodd" stroke-linecap="round" stroke-linejoin="round" stroke-miterlimit="1.5" xmlns:v="https://vecta.io/nano"><style><![CDATA[.B{fill-opacity:.2}.C{fill-rule:nonzero}.D{fill:#656d78}.E{fill:#434a54}]]></style><g class="C"><path d="M.002 171.12h16.59c3.053.006 5.534-2.475 5.534-5.534 0-3.047-2.481-5.528-5.528-5.528l-16.595.006L-.001.003h38.713a5.54 5.54 0 0 0 5.534 5.534A5.54 5.54 0 0 0 49.776.006l5.525-.003c.003 3.056 2.478 5.531 5.537 5.531 3.05-.003 5.525-2.478 5.528-5.528L94.017 0v281.404l-27.651.006a5.53 5.53 0 0 0-5.534-5.534c-3.047 0-5.522 2.475-5.528 5.528l-5.528.006a5.53 5.53 0 1 0-11.062-.006H.002V171.12z" fill="#a0d468"/><path d="M16.591 171.12v110.284H.002V171.12h16.59zm.006-11.062l-16.595.006L-.001.003h16.59l.009 160.055z" fill="#8cc153"/><g fill="#ffce54"><path d="M5.533 16.272a5.54 5.54 0 0 1-5.531 5.531l-.003-11.065a5.54 5.54 0 0 1 5.534 5.534zm0 16.589a5.54 5.54 0 0 1-5.531 5.531l-.003-11.065a5.54 5.54 0 0 1 5.534 5.534zm0 16.59c0 3.059-2.475 5.534-5.531 5.531l.003-11.059a5.53 5.53 0 0 1 5.528 5.528zM5.53 66.043c.003 3.056-2.475 5.534-5.531 5.531l.003-11.059a5.53 5.53 0 0 1 5.528 5.528zm0 16.59c.003 3.056-2.475 5.534-5.531 5.531l.003-11.059a5.53 5.53 0 0 1 5.528 5.528zm.006 16.595a5.54 5.54 0 0 1-5.531 5.531L.002 93.694a5.54 5.54 0 0 1 5.534 5.534zm0 16.59c-.006 3.053-2.486 5.534-5.534 5.534v-11.068a5.55 5.55 0 0 1 5.534 5.534zm0 16.589c-.006 3.053-2.486 5.534-5.534 5.534v-11.068a5.55 5.55 0 0 1 5.534 5.534zm0 16.59c-.012 3.059-2.481 5.54-5.534 5.534v-11.068a5.55 5.55 0 0 1 5.534 5.534z"/><use xlink:href="#B"/><use xlink:href="#B" y="16.589"/><path d="M5.53 215.372c0 3.047-2.475 5.522-5.528 5.528l-.006-11.062c3.065-.005 5.539 2.469 5.534 5.534zm0 16.59c0 3.047-2.475 5.522-5.528 5.528l-.006-11.062a5.53 5.53 0 0 1 5.534 5.534zm0 16.589c0 3.047-2.475 5.522-5.528 5.528l-.006-11.062a5.53 5.53 0 0 1 5.534 5.534z"/><use xlink:href="#B" y="82.959"/></g></g><g class="D"><path d="M66.366 231.628H44.244v22.123h22.123z"/><path d="M44.243 209.506h22.123l-.005-22.118H44.248l-.005 22.117zm.002-66.361h22.123l-.003-22.12-22.12-.003v22.123z" class="C"/><path d="M66.367 76.778H44.245V98.9h22.123z"/></g><g class="C"><path d="M71.9 259.286l-33.185-.006v-33.179h33.179l.006 33.185zm-22.129-11.062h11.068v-11.068l-11.062.006-.006 11.062zm22.128-33.184l-33.185-.006v-33.179h33.179l.006 33.185zM49.77 203.978h11.068l-.006-11.062H49.776l-.006 11.062zm22.126-55.305l-33.182.003.003-33.182h33.179v33.179zm-22.12-11.059l11.059-.003.003-11.059-11.065-.003.003 11.065zm22.121-66.366l-.003 33.182H38.715V71.251l33.182-.003zM60.838 93.374l-.003-11.065-11.059.003-.003 11.059 11.065.003z" class="E"/><path d="M44.243 54.655h22.123l-.003-22.12-22.115.003-.006 22.117z" class="D"/><path d="M71.894 27.004l.006 33.185-33.188-.003.003-33.182h33.179zm-22.12 22.12l11.065.003-.006-11.062H49.776l-.003 11.059z" class="E"/></g><path d="M280.307 0h120.632v118.497H280.307z" class="E"/><path d="M287.172 7.865h106.9v102.766h-106.9z" class="D"/><g class="C B"><use xlink:href="#C"/><use xlink:href="#D"/><use xlink:href="#C" x="12.739"/><use xlink:href="#D" x="12.738"/><use xlink:href="#C" x="25.478"/><use xlink:href="#C" x="31.847"/><use xlink:href="#D" x="31.846"/><use xlink:href="#C" x="44.586"/><use xlink:href="#D" x="44.585"/><use xlink:href="#C" x="57.324"/><use xlink:href="#D" x="57.323"/><use xlink:href="#C" x="70.063"/><use xlink:href="#D" x="70.062"/><use xlink:href="#C" x="82.805"/><use xlink:href="#C" x="89.174"/><use xlink:href="#D" x="89.174"/><use xlink:href="#D" x="-6.37" y="10.351"/><use xlink:href="#D" y="10.351"/><use xlink:href="#C" x="12.739" y="10.351"/><use xlink:href="#D" x="12.738" y="10.351"/><use xlink:href="#C" x="25.478" y="10.351"/><use xlink:href="#D" x="25.477" y="10.351"/><use xlink:href="#C" x="38.216" y="10.351"/><use xlink:href="#D" x="38.215" y="10.351"/><use xlink:href="#D" x="44.585" y="10.351"/><use xlink:href="#C" x="57.324" y="10.351"/><use xlink:href="#D" x="57.323" y="10.351"/><use xlink:href="#C" x="70.063" y="10.351"/><use xlink:href="#D" x="70.062" y="10.351"/><use xlink:href="#C" x="82.805" y="10.351"/><use xlink:href="#D" x="82.804" y="10.351"/><use xlink:href="#C" x="95.544" y="10.351"/><use xlink:href="#E"/><use xlink:href="#E" x="6.37"/><use xlink:href="#E" x="12.739"/><use xlink:href="#E" x="19.108"/><use xlink:href="#C" x="25.478" y="20.701"/><use xlink:href="#E" x="31.847"/><use xlink:href="#C" x="38.216" y="20.701"/><use xlink:href="#E" x="44.585"/><use xlink:href="#C" x="50.955" y="20.701"/><use xlink:href="#C" x="57.324" y="20.701"/><use xlink:href="#E" x="63.693"/><use xlink:href="#E" x="70.063"/><use xlink:href="#C" x="76.432" y="20.701"/><use xlink:href="#E" x="82.805"/><use xlink:href="#E" x="89.174"/><use xlink:href="#E" x="95.544"/><use xlink:href="#C" y="31.052"/><use xlink:href="#D" y="31.052"/><use xlink:href="#C" x="12.739" y="31.052"/><use xlink:href="#D" x="12.738" y="31.052"/><use xlink:href="#C" x="25.478" y="31.052"/><use xlink:href="#C" x="31.847" y="31.052"/><use xlink:href="#C" x="38.216" y="31.052"/><use xlink:href="#C" x="44.586" y="31.052"/><use xlink:href="#D" x="44.585" y="31.052"/><use xlink:href="#D" x="50.954" y="31.052"/><use xlink:href="#D" x="57.323" y="31.052"/><use xlink:href="#D" x="63.693" y="31.052"/><use xlink:href="#C" x="76.432" y="31.052"/><use xlink:href="#D" x="76.435" y="31.052"/><use xlink:href="#C" x="89.174" y="31.052"/><use xlink:href="#D" x="89.174" y="31.052"/><use xlink:href="#C" y="41.402"/><use xlink:href="#D" y="41.402"/><use xlink:href="#C" x="12.739" y="41.402"/><use xlink:href="#D" x="12.738" y="41.402"/><use xlink:href="#C" x="25.478" y="41.402"/><use xlink:href="#D" x="25.477" y="41.402"/><use xlink:href="#C" x="38.216" y="41.402"/><use xlink:href="#D" x="38.215" y="41.402"/><use xlink:href="#C" x="50.955" y="41.402"/><use xlink:href="#D" x="50.954" y="41.402"/><use xlink:href="#D" x="57.323" y="41.402"/><use xlink:href="#D" x="63.693" y="41.402"/><use xlink:href="#C" x="76.432" y="41.402"/><use xlink:href="#D" x="76.435" y="41.402"/><use xlink:href="#C" x="89.174" y="41.402"/><use xlink:href="#D" x="89.174" y="41.402"/><use xlink:href="#C" y="51.753"/><use xlink:href="#D" y="51.753"/><use xlink:href="#D" x="6.369" y="51.753"/><use xlink:href="#D" x="12.738" y="51.753"/><use xlink:href="#C" x="25.478" y="51.753"/><use xlink:href="#D" x="25.477" y="51.753"/><use xlink:href="#C" x="38.216" y="51.753"/><use xlink:href="#D" x="38.215" y="51.753"/><use xlink:href="#C" x="50.955" y="51.753"/><use xlink:href="#D" x="50.954" y="51.753"/><use xlink:href="#D" x="57.323" y="51.753"/><use xlink:href="#C" x="70.063" y="51.753"/><use xlink:href="#D" x="70.062" y="51.753"/><use xlink:href="#D" x="76.435" y="51.753"/><use xlink:href="#D" x="82.804" y="51.753"/><use xlink:href="#C" x="95.544" y="51.753"/><use xlink:href="#D" x="-6.37" y="62.103"/><use xlink:href="#C" x="6.37" y="62.103"/><use xlink:href="#D" x="6.369" y="62.103"/><use xlink:href="#C" x="19.108" y="62.103"/><use xlink:href="#D" x="19.108" y="62.103"/><use xlink:href="#D" x="25.477" y="62.103"/><use xlink:href="#C" x="38.216" y="62.103"/><use xlink:href="#D" x="38.215" y="62.103"/><use xlink:href="#C" x="50.955" y="62.103"/><use xlink:href="#D" x="50.954" y="62.103"/><use xlink:href="#C" x="63.693" y="62.103"/><use xlink:href="#D" x="63.693" y="62.103"/><use xlink:href="#C" x="76.432" y="62.103"/><use xlink:href="#C" x="82.805" y="62.103"/><use xlink:href="#D" x="82.804" y="62.103"/><use xlink:href="#C" x="95.544" y="62.103"/><use xlink:href="#D" x="-6.37" y="72.454"/><use xlink:href="#C" x="6.37" y="72.454"/><use xlink:href="#D" x="6.369" y="72.454"/><use xlink:href="#D" x="12.738" y="72.454"/><use xlink:href="#D" x="19.108" y="72.454"/><use xlink:href="#C" x="31.847" y="72.454"/><use xlink:href="#C" x="38.216" y="72.454"/><use xlink:href="#D" x="38.215" y="72.454"/><use xlink:href="#D" x="44.585" y="72.454"/><use xlink:href="#C" x="57.324" y="72.454"/><use xlink:href="#D" x="57.323" y="72.454"/><use xlink:href="#C" x="70.063" y="72.454"/><use xlink:href="#D" x="70.062" y="72.454"/><use xlink:href="#D" x="76.435" y="72.454"/><use xlink:href="#C" x="89.174" y="72.454"/><use xlink:href="#D" x="89.174" y="72.454"/><use xlink:href="#C" y="82.805"/><use xlink:href="#D" y="82.805"/><use xlink:href="#C" x="12.739" y="82.805"/><use xlink:href="#D" x="12.738" y="82.805"/><use xlink:href="#C" x="25.478" y="82.805"/><use xlink:href="#D" x="25.477" y="82.805"/><use xlink:href="#C" x="38.216" y="82.805"/><use xlink:href="#D" x="38.215" y="82.805"/><use xlink:href="#C" x="50.955" y="82.805"/><use xlink:href="#D" x="50.954" y="82.805"/><use xlink:href="#D" x="57.323" y="82.805"/><use xlink:href="#C" x="70.063" y="82.805"/><use xlink:href="#D" x="70.062" y="82.805"/><use xlink:href="#C" x="82.805" y="82.805"/><use xlink:href="#D" x="82.804" y="82.805"/><use xlink:href="#C" x="95.544" y="82.805"/><use xlink:href="#D" x="-6.37" y="93.155"/><use xlink:href="#D" y="93.155"/><use xlink:href="#C" x="12.739" y="93.155"/><use xlink:href="#D" x="12.738" y="93.155"/><use xlink:href="#D" x="19.108" y="93.155"/><use xlink:href="#C" x="31.847" y="93.155"/><use xlink:href="#D" x="31.846" y="93.155"/><use xlink:href="#C" x="44.586" y="93.155"/><use xlink:href="#D" x="44.585" y="93.155"/><use xlink:href="#C" x="57.324" y="93.155"/><use xlink:href="#D" x="57.323" y="93.155"/><use xlink:href="#C" x="70.063" y="93.155"/><use xlink:href="#D" x="70.062" y="93.155"/><use xlink:href="#C" x="82.805" y="93.155"/><use xlink:href="#D" x="82.804" y="93.155"/><use xlink:href="#D" x="89.174" y="93.155"/></g><path d="M304.587 25.296h72.069v26.961h-72.069z" fill="#34ed5f"/><path d="M331.676 32.57c.319 0 .595.102.798.305a1.01 1.01 0 0 1 .305.74c0 .305-.102.552-.305.755s-.479.305-.798.305a1.06 1.06 0 0 1-.784-.305c-.203-.203-.305-.45-.305-.755a1.01 1.01 0 0 1 .305-.74 1.06 1.06 0 0 1 .784-.305zm-2.787 3.847h3.949v6.649h2.134v1.219h-6.155v-1.219h2.352v-5.415h-2.279v-1.234zm8.585 7.869v-7.868h1.437l.131 1.031c.319-.392.711-.697 1.147-.915.45-.218.915-.319 1.394-.319.726 0 1.263.203 1.64.61.363.406.552.987.552 1.728v5.734h-1.67V39.38c0-.479-.029-.857-.087-1.118-.058-.276-.16-.465-.319-.581-.16-.131-.406-.189-.711-.189-.363 0-.697.102-1.016.319-.305.218-.581.494-.827.827v5.647h-1.67zm15.515-.421a3.79 3.79 0 0 1-1.045.45 4.55 4.55 0 0 1-1.248.174c-.61 0-1.118-.116-1.524-.319a2.3 2.3 0 0 1-.958-.9c-.203-.392-.319-.842-.319-1.365v-4.268h-1.742v-1.219h1.742v-1.757l1.67-.189v1.945h2.657l-.189 1.219h-2.468v4.254c0 .421.116.74.319.944.218.203.566.305 1.045.305.523 0 1.002-.131 1.452-.377l.61 1.103z" class="C"/><path d="M304.587 66.774h72.069v26.961h-72.069z" fill="#34bfed"/><path d="M343.556 75.485l-.218 1.248h-3.934v2.86c.276-.145.552-.247.827-.305a3.94 3.94 0 0 1 .842-.087c.552 0 1.045.131 1.481.392.421.261.755.624 1.002 1.118s.363 1.074.363 1.757-.16 1.292-.465 1.815a3.03 3.03 0 0 1-1.292 1.234c-.552.305-1.205.45-1.931.45-1.248 0-2.308-.45-3.15-1.35l1.002-.944c.566.653 1.263.973 2.076.973.639 0 1.132-.203 1.481-.581.363-.377.537-.915.537-1.611 0-.711-.145-1.234-.45-1.553-.29-.319-.697-.479-1.219-.479a2.81 2.81 0 0 0-.711.087 6.04 6.04 0 0 0-.769.261h-1.219v-5.284h5.749z" class="C"/><path d="M79.02 27.004h72.069v26.961H79.02z" fill="#ed4934"/><path d="M117.917 44.063c0 .305.044.523.145.668.087.145.232.261.45.319l-.363 1.132c-.406-.044-.74-.145-1.016-.319s-.479-.436-.624-.769c-.276.363-.639.639-1.074.827a3.84 3.84 0 0 1-1.437.276c-.523 0-.973-.102-1.365-.305a2.14 2.14 0 0 1-.9-.857c-.203-.363-.319-.798-.319-1.278 0-.827.334-1.466.973-1.916.653-.45 1.568-.668 2.773-.668h1.118v-.523c0-.494-.145-.857-.436-1.089-.305-.218-.74-.334-1.307-.334-.276 0-.595.029-.958.102-.377.073-.755.174-1.132.305l-.421-1.176a9.16 9.16 0 0 1 1.423-.406 7.54 7.54 0 0 1 1.336-.131c1.045 0 1.829.232 2.352.682.523.465.784 1.118.784 1.96v3.499zm-3.412.9c.348 0 .682-.087 1.002-.261a2.13 2.13 0 0 0 .769-.755v-1.742h-.915c-.769 0-1.321.131-1.67.377-.348.261-.523.624-.523 1.103 0 .421.116.74.334.958.232.218.566.319 1.002.319z" class="C"/><path d="M274.054 37.484l6 3-6 3v-6z"/><path d="M151.09 40.484h124.164" fill="none" stroke="#000" stroke-dasharray="3,3,3,0,0,0"/><defs ><path id="B" d="M5.53 182.182a5.52 5.52 0 0 1-5.528 5.528v-11.056a5.52 5.52 0 0 1 5.528 5.528z"/><path id="C" d="M292.854 9.357c.538 0 .994.145 1.366.445.373.29.652.725.838 1.294.197.569.29 1.252.29 2.06s-.093 1.501-.29 2.07c-.186.569-.466 1.004-.838 1.304-.373.29-.828.445-1.366.445-.818 0-1.439-.331-1.863-.994-.424-.652-.631-1.594-.631-2.826 0-1.221.207-2.163.631-2.815s1.045-.983 1.863-.983zm0 .911c-.435 0-.766.228-.983.693-.217.455-.331 1.19-.331 2.194 0 .756.041 1.335.135 1.76l2.07-4.223a.94.94 0 0 0-.373-.331c-.145-.062-.311-.093-.518-.093zm0 5.796c.435 0 .756-.228.983-.693.217-.455.321-1.19.321-2.215 0-.693-.031-1.232-.104-1.615l-2.049 4.171c.104.124.228.207.362.269.135.052.3.083.486.083z"/><path id="D" d="M300.197 9.502v6.397h1.47v.932h-4.44v-.932h1.791v-5.175l-1.615.994-.507-.828 2.256-1.387h1.045z"/><path id="E" d="M293.827 30.203V36.6h1.47v.932h-4.44V36.6h1.791v-5.175l-1.615.994-.507-.828 2.256-1.387h1.045z"/></defs></svg>