<?xml version="1.0" encoding="UTF-8" standalone="no"?>
<!DOCTYPE svg PUBLIC "-//W3C//DTD SVG 1.1//EN" "http://www.w3.org/Graphics/SVG/1.1/DTD/svg11.dtd">
<svg width="576px" height="133px" version="1.1" xmlns="http://www.w3.org/2000/svg" xmlns:xlink="http://www.w3.org/1999/xlink" xml:space="preserve" xmlns:serif="http://www.serif.com/" style="fill-rule:evenodd;clip-rule:evenodd;stroke-linecap:round;stroke-linejoin:round;stroke-miterlimit:1.5;">
    <g transform="matrix(1,0,0,1,0,-1)">
        <g id="tuple-unpacking-light" transform="matrix(0.3,0,0,0.122222,0,1.66085)">
            <rect x="0" y="0" width="1920" height="1080" style="fill:none;"/>
            <g transform="matrix(0.764126,0,0,1.87558,-193.58,-265.867)">
                <g transform="matrix(90.743,0,0,90.743,403.684,272)">
                    <path d="M-1.09,-0.53L-1.055,-0.596L-0.602,-0.365L-0.602,-0.277L-1.055,-0.046L-1.09,-0.112L-0.683,-0.321L-1.09,-0.53ZM-0.577,-0.53L-0.543,-0.596L-0.089,-0.365L-0.089,-0.277L-0.542,-0.046L-0.577,-0.112L-0.17,-0.321L-0.577,-0.53ZM-0.064,-0.53L-0.03,-0.596L0.424,-0.365L0.424,-0.277L-0.029,-0.046L-0.064,-0.112L0.343,-0.321L-0.064,-0.53Z" style="fill:rgb(128,128,128);fill-rule:nonzero;"/>
                </g>
                <g transform="matrix(90.743,0,0,90.743,515.367,272)">
                    <path d="M0.53,-0.157C0.53,-0.137 0.533,-0.122 0.538,-0.113C0.544,-0.103 0.553,-0.096 0.566,-0.091L0.533,0.015C0.5,0.012 0.472,0.005 0.451,-0.006C0.429,-0.018 0.412,-0.035 0.399,-0.056C0.379,-0.032 0.353,-0.014 0.321,-0.001C0.289,0.011 0.256,0.017 0.22,0.017C0.183,0.017 0.151,0.01 0.123,-0.004C0.095,-0.019 0.074,-0.039 0.058,-0.065C0.043,-0.091 0.036,-0.12 0.036,-0.154C0.036,-0.193 0.046,-0.226 0.067,-0.254C0.088,-0.282 0.118,-0.303 0.158,-0.317C0.198,-0.332 0.245,-0.339 0.301,-0.339L0.374,-0.339L0.374,-0.359C0.374,-0.415 0.338,-0.443 0.267,-0.443C0.249,-0.443 0.226,-0.441 0.198,-0.435C0.171,-0.43 0.144,-0.423 0.117,-0.414L0.08,-0.522C0.114,-0.535 0.15,-0.545 0.188,-0.552C0.226,-0.559 0.261,-0.563 0.292,-0.563C0.372,-0.563 0.432,-0.546 0.471,-0.514C0.511,-0.481 0.53,-0.434 0.53,-0.37L0.53,-0.157ZM0.276,-0.098C0.294,-0.098 0.313,-0.104 0.332,-0.115C0.351,-0.125 0.365,-0.14 0.374,-0.158L0.374,-0.247L0.334,-0.247C0.29,-0.247 0.257,-0.24 0.235,-0.226C0.214,-0.212 0.203,-0.192 0.203,-0.165C0.203,-0.144 0.209,-0.128 0.222,-0.116C0.235,-0.104 0.253,-0.098 0.276,-0.098Z" style="fill-rule:nonzero;"/>
                </g>
                <g transform="matrix(90.743,0,0,90.743,571.209,272)">
                    <rect x="0.051" y="0.064" width="0.513" height="0.127" style="fill-rule:nonzero;"/>
                </g>
                <g transform="matrix(90.743,0,0,90.743,627.051,272)">
                    <path d="M0.562,-0.032C0.539,-0.017 0.513,-0.005 0.482,0.004C0.452,0.013 0.419,0.017 0.384,0.017C0.314,0.017 0.261,-0 0.226,-0.036C0.191,-0.071 0.173,-0.121 0.173,-0.186L0.173,-0.433L0.059,-0.433L0.059,-0.545L0.173,-0.545L0.173,-0.663L0.335,-0.682L0.335,-0.545L0.511,-0.545L0.495,-0.433L0.335,-0.433L0.335,-0.186C0.335,-0.159 0.341,-0.139 0.354,-0.128C0.366,-0.116 0.385,-0.11 0.413,-0.11C0.447,-0.11 0.479,-0.118 0.508,-0.135L0.562,-0.032Z" style="fill-rule:nonzero;"/>
                </g>
                <g transform="matrix(90.743,0,0,90.743,682.893,272)">
                    <path d="M0.234,-0.172C0.234,-0.146 0.238,-0.129 0.248,-0.118C0.257,-0.108 0.271,-0.103 0.289,-0.103C0.306,-0.103 0.323,-0.108 0.339,-0.118C0.356,-0.129 0.37,-0.143 0.382,-0.162L0.382,-0.545L0.544,-0.545L0.544,-0L0.402,-0L0.395,-0.064C0.377,-0.038 0.353,-0.018 0.323,-0.004C0.293,0.01 0.262,0.017 0.228,0.017C0.176,0.017 0.137,0.003 0.111,-0.027C0.085,-0.057 0.072,-0.098 0.072,-0.152L0.072,-0.545L0.234,-0.545L0.234,-0.172Z" style="fill-rule:nonzero;"/>
                </g>
                <g transform="matrix(90.743,0,0,90.743,738.735,272)">
                    <path d="M0.373,-0.563C0.442,-0.563 0.492,-0.538 0.524,-0.487C0.556,-0.437 0.572,-0.366 0.572,-0.274C0.572,-0.217 0.564,-0.167 0.547,-0.123C0.531,-0.079 0.507,-0.045 0.475,-0.02C0.444,0.005 0.406,0.017 0.363,0.017C0.31,0.017 0.267,-0.002 0.234,-0.039L0.234,0.21L0.072,0.227L0.072,-0.545L0.215,-0.545L0.223,-0.484C0.244,-0.511 0.267,-0.531 0.293,-0.543C0.319,-0.556 0.346,-0.563 0.373,-0.563ZM0.323,-0.443C0.305,-0.443 0.289,-0.438 0.274,-0.427C0.26,-0.416 0.246,-0.401 0.234,-0.38L0.234,-0.15C0.245,-0.133 0.258,-0.121 0.27,-0.113C0.282,-0.105 0.297,-0.102 0.314,-0.102C0.344,-0.102 0.366,-0.115 0.382,-0.142C0.397,-0.169 0.405,-0.212 0.405,-0.272C0.405,-0.316 0.402,-0.35 0.396,-0.375C0.389,-0.4 0.38,-0.418 0.368,-0.428C0.356,-0.438 0.341,-0.443 0.323,-0.443Z" style="fill-rule:nonzero;"/>
                </g>
                <g transform="matrix(90.743,0,0,90.743,794.577,272)">
                    <path d="M0.356,-0.171C0.356,-0.15 0.362,-0.135 0.374,-0.125C0.386,-0.115 0.404,-0.11 0.426,-0.11C0.451,-0.11 0.476,-0.116 0.503,-0.127L0.542,-0.018C0.497,0.005 0.444,0.017 0.385,0.017C0.321,0.017 0.273,-0.001 0.241,-0.038C0.21,-0.074 0.194,-0.126 0.194,-0.191L0.194,-0.65L0.033,-0.65L0.033,-0.761L0.356,-0.761L0.356,-0.171Z" style="fill-rule:nonzero;"/>
                </g>
                <g transform="matrix(90.743,0,0,90.743,850.419,272)">
                    <path d="M0.212,-0.225C0.217,-0.182 0.231,-0.151 0.254,-0.131C0.277,-0.111 0.307,-0.101 0.343,-0.101C0.389,-0.101 0.436,-0.116 0.483,-0.146L0.548,-0.057C0.521,-0.034 0.489,-0.016 0.452,-0.003C0.415,0.011 0.375,0.017 0.33,0.017C0.269,0.017 0.218,0.005 0.175,-0.019C0.133,-0.043 0.101,-0.077 0.079,-0.121C0.058,-0.164 0.047,-0.215 0.047,-0.272C0.047,-0.326 0.058,-0.375 0.078,-0.419C0.099,-0.464 0.13,-0.498 0.17,-0.524C0.21,-0.55 0.257,-0.563 0.313,-0.563C0.364,-0.563 0.409,-0.551 0.448,-0.529C0.486,-0.507 0.516,-0.475 0.537,-0.433C0.558,-0.391 0.568,-0.341 0.568,-0.283C0.568,-0.261 0.567,-0.242 0.565,-0.225L0.212,-0.225ZM0.313,-0.454C0.283,-0.454 0.259,-0.443 0.242,-0.422C0.224,-0.4 0.214,-0.367 0.21,-0.323L0.41,-0.323C0.409,-0.41 0.377,-0.454 0.313,-0.454Z" style="fill-rule:nonzero;"/>
                </g>
                <g transform="matrix(90.743,0,0,90.743,962.102,272)">
                    <path d="M0.108,-0.453L0.507,-0.453L0.507,-0.379L0.108,-0.379L0.108,-0.453ZM0.108,-0.259L0.507,-0.259L0.507,-0.184L0.108,-0.184L0.108,-0.259Z" style="fill-rule:nonzero;"/>
                </g>
                <g transform="matrix(90.743,0,0,90.743,1073.79,272)">
                    <path d="M0.218,-0.359C0.218,-0.289 0.226,-0.228 0.242,-0.177C0.258,-0.125 0.281,-0.078 0.313,-0.036C0.344,0.006 0.385,0.05 0.437,0.096L0.392,0.144C0.332,0.095 0.284,0.047 0.246,0C0.208,-0.047 0.179,-0.099 0.158,-0.158C0.138,-0.216 0.128,-0.283 0.128,-0.359C0.128,-0.435 0.138,-0.502 0.158,-0.56C0.179,-0.618 0.208,-0.671 0.246,-0.718C0.284,-0.765 0.332,-0.813 0.392,-0.862L0.437,-0.814C0.385,-0.768 0.343,-0.723 0.312,-0.682C0.281,-0.64 0.257,-0.593 0.242,-0.542C0.226,-0.49 0.218,-0.429 0.218,-0.359Z" style="fill-rule:nonzero;"/>
                </g>
                <g transform="matrix(90.743,0,0,90.743,1129.63,272)">
                    <path d="M0.346,-0.491L0.27,-0.491L0.254,-0.757L0.362,-0.757L0.346,-0.491Z" style="fill:rgb(206,38,217);fill-rule:nonzero;"/>
                </g>
                <g transform="matrix(90.743,0,0,90.743,1185.47,272)">
                    <path d="M0.464,-0.54L0.553,-0.54L0.357,-0L0.257,-0L0.062,-0.54L0.153,-0.54L0.31,-0.078L0.464,-0.54Z" style="fill:rgb(206,38,217);fill-rule:nonzero;"/>
                </g>
                <g transform="matrix(90.743,0,0,90.743,1241.31,272)">
                    <path d="M0.49,-0.118C0.49,-0.097 0.493,-0.081 0.5,-0.071C0.507,-0.061 0.518,-0.054 0.534,-0.049L0.513,0.012C0.461,0.005 0.428,-0.02 0.414,-0.064C0.395,-0.039 0.371,-0.02 0.341,-0.007C0.312,0.005 0.28,0.012 0.245,0.012C0.209,0.012 0.178,0.005 0.152,-0.009C0.125,-0.022 0.105,-0.042 0.091,-0.067C0.077,-0.092 0.07,-0.121 0.07,-0.155C0.07,-0.211 0.092,-0.253 0.135,-0.283C0.179,-0.313 0.242,-0.328 0.324,-0.328L0.403,-0.328L0.403,-0.373C0.403,-0.41 0.392,-0.438 0.37,-0.455C0.348,-0.472 0.316,-0.48 0.274,-0.48C0.234,-0.48 0.187,-0.471 0.134,-0.452L0.111,-0.517C0.171,-0.54 0.23,-0.551 0.288,-0.551C0.354,-0.551 0.404,-0.536 0.438,-0.505C0.473,-0.474 0.49,-0.431 0.49,-0.377L0.49,-0.118ZM0.267,-0.054C0.293,-0.054 0.319,-0.061 0.343,-0.074C0.367,-0.088 0.387,-0.106 0.403,-0.13L0.403,-0.269L0.325,-0.269C0.268,-0.269 0.227,-0.259 0.201,-0.24C0.175,-0.221 0.163,-0.192 0.163,-0.156C0.163,-0.088 0.197,-0.054 0.267,-0.054Z" style="fill:rgb(206,38,217);fill-rule:nonzero;"/>
                </g>
                <g transform="matrix(90.743,0,0,90.743,1297.15,272)">
                    <path d="M0.313,-0.133C0.313,-0.108 0.321,-0.089 0.337,-0.078C0.353,-0.066 0.375,-0.06 0.403,-0.06C0.432,-0.06 0.462,-0.066 0.493,-0.079L0.516,-0.016C0.5,-0.008 0.481,-0.001 0.459,0.004C0.437,0.009 0.414,0.012 0.388,0.012C0.356,0.012 0.328,0.006 0.304,-0.006C0.279,-0.018 0.261,-0.035 0.247,-0.058C0.234,-0.081 0.227,-0.107 0.227,-0.138L0.227,-0.689L0.062,-0.689L0.062,-0.757L0.313,-0.757L0.313,-0.133Z" style="fill:rgb(206,38,217);fill-rule:nonzero;"/>
                </g>
                <g transform="matrix(90.743,0,0,90.743,1353,272)">
                    <path d="M0.189,-0.157C0.189,-0.122 0.196,-0.097 0.211,-0.081C0.226,-0.065 0.249,-0.057 0.28,-0.057C0.308,-0.057 0.336,-0.065 0.363,-0.082C0.39,-0.098 0.411,-0.118 0.426,-0.143L0.426,-0.54L0.512,-0.54L0.512,-0L0.439,-0L0.432,-0.073C0.411,-0.046 0.385,-0.025 0.354,-0.011C0.323,0.004 0.291,0.012 0.259,0.012C0.207,0.012 0.168,-0.002 0.142,-0.029C0.116,-0.057 0.103,-0.096 0.103,-0.147L0.103,-0.54L0.189,-0.54L0.189,-0.157Z" style="fill:rgb(206,38,217);fill-rule:nonzero;"/>
                </g>
                <g transform="matrix(90.743,0,0,90.743,1408.84,272)">
                    <path d="M0.171,-0.239C0.172,-0.199 0.18,-0.166 0.194,-0.139C0.209,-0.112 0.228,-0.092 0.251,-0.079C0.274,-0.066 0.3,-0.06 0.329,-0.06C0.355,-0.06 0.38,-0.064 0.402,-0.072C0.425,-0.08 0.448,-0.092 0.473,-0.109L0.513,-0.052C0.488,-0.032 0.459,-0.016 0.426,-0.005C0.394,0.006 0.361,0.012 0.328,0.012C0.276,0.012 0.232,0 0.194,-0.023C0.157,-0.046 0.129,-0.079 0.109,-0.122C0.09,-0.164 0.081,-0.213 0.081,-0.269C0.081,-0.324 0.09,-0.372 0.11,-0.415C0.129,-0.458 0.157,-0.491 0.192,-0.515C0.228,-0.539 0.269,-0.551 0.316,-0.551C0.362,-0.551 0.401,-0.541 0.434,-0.519C0.467,-0.498 0.492,-0.468 0.509,-0.428C0.527,-0.388 0.536,-0.341 0.536,-0.287C0.536,-0.271 0.535,-0.255 0.534,-0.239L0.171,-0.239ZM0.317,-0.481C0.276,-0.481 0.242,-0.466 0.216,-0.437C0.189,-0.407 0.175,-0.364 0.171,-0.306L0.453,-0.306C0.452,-0.363 0.439,-0.406 0.415,-0.436C0.391,-0.466 0.359,-0.481 0.317,-0.481Z" style="fill:rgb(206,38,217);fill-rule:nonzero;"/>
                </g>
                <g transform="matrix(90.743,0,0,90.743,1464.68,272)">
                    <path d="M0.383,-0.706L0.383,-0.07L0.531,-0.07L0.531,-0L0.123,-0L0.123,-0.07L0.297,-0.07L0.297,-0.613L0.135,-0.514L0.097,-0.576L0.308,-0.706L0.383,-0.706Z" style="fill:rgb(206,38,217);fill-rule:nonzero;"/>
                </g>
                <g transform="matrix(90.743,0,0,90.743,1520.52,272)">
                    <path d="M0.346,-0.491L0.27,-0.491L0.254,-0.757L0.362,-0.757L0.346,-0.491Z" style="fill:rgb(206,38,217);fill-rule:nonzero;"/>
                </g>
                <g transform="matrix(90.743,0,0,90.743,1576.36,272)">
                    <path d="M0.308,-0.169C0.323,-0.169 0.338,-0.165 0.35,-0.158C0.363,-0.15 0.373,-0.14 0.38,-0.128C0.387,-0.115 0.391,-0.102 0.391,-0.087C0.391,-0.074 0.389,-0.061 0.386,-0.049C0.383,-0.036 0.378,-0.022 0.371,-0.006L0.288,0.184L0.21,0.184L0.259,-0.018C0.249,-0.026 0.241,-0.036 0.235,-0.048C0.229,-0.06 0.226,-0.073 0.226,-0.087C0.226,-0.102 0.229,-0.115 0.236,-0.128C0.244,-0.14 0.253,-0.15 0.266,-0.158C0.278,-0.165 0.292,-0.169 0.308,-0.169Z" style="fill-rule:nonzero;"/>
                </g>
                <g transform="matrix(90.743,0,0,90.743,1688.05,272)">
                    <path d="M0.346,-0.491L0.27,-0.491L0.254,-0.757L0.362,-0.757L0.346,-0.491Z" style="fill:rgb(38,123,217);fill-rule:nonzero;"/>
                </g>
                <g transform="matrix(90.743,0,0,90.743,1743.89,272)">
                    <path d="M0.464,-0.54L0.553,-0.54L0.357,-0L0.257,-0L0.062,-0.54L0.153,-0.54L0.31,-0.078L0.464,-0.54Z" style="fill:rgb(38,123,217);fill-rule:nonzero;"/>
                </g>
                <g transform="matrix(90.743,0,0,90.743,1799.73,272)">
                    <path d="M0.49,-0.118C0.49,-0.097 0.493,-0.081 0.5,-0.071C0.507,-0.061 0.518,-0.054 0.534,-0.049L0.513,0.012C0.461,0.005 0.428,-0.02 0.414,-0.064C0.395,-0.039 0.371,-0.02 0.341,-0.007C0.312,0.005 0.28,0.012 0.245,0.012C0.209,0.012 0.178,0.005 0.152,-0.009C0.125,-0.022 0.105,-0.042 0.091,-0.067C0.077,-0.092 0.07,-0.121 0.07,-0.155C0.07,-0.211 0.092,-0.253 0.135,-0.283C0.179,-0.313 0.242,-0.328 0.324,-0.328L0.403,-0.328L0.403,-0.373C0.403,-0.41 0.392,-0.438 0.37,-0.455C0.348,-0.472 0.316,-0.48 0.274,-0.48C0.234,-0.48 0.187,-0.471 0.134,-0.452L0.111,-0.517C0.171,-0.54 0.23,-0.551 0.288,-0.551C0.354,-0.551 0.404,-0.536 0.438,-0.505C0.473,-0.474 0.49,-0.431 0.49,-0.377L0.49,-0.118ZM0.267,-0.054C0.293,-0.054 0.319,-0.061 0.343,-0.074C0.367,-0.088 0.387,-0.106 0.403,-0.13L0.403,-0.269L0.325,-0.269C0.268,-0.269 0.227,-0.259 0.201,-0.24C0.175,-0.221 0.163,-0.192 0.163,-0.156C0.163,-0.088 0.197,-0.054 0.267,-0.054Z" style="fill:rgb(38,123,217);fill-rule:nonzero;"/>
                </g>
                <g transform="matrix(90.743,0,0,90.743,1855.57,272)">
                    <path d="M0.313,-0.133C0.313,-0.108 0.321,-0.089 0.337,-0.078C0.353,-0.066 0.375,-0.06 0.403,-0.06C0.432,-0.06 0.462,-0.066 0.493,-0.079L0.516,-0.016C0.5,-0.008 0.481,-0.001 0.459,0.004C0.437,0.009 0.414,0.012 0.388,0.012C0.356,0.012 0.328,0.006 0.304,-0.006C0.279,-0.018 0.261,-0.035 0.247,-0.058C0.234,-0.081 0.227,-0.107 0.227,-0.138L0.227,-0.689L0.062,-0.689L0.062,-0.757L0.313,-0.757L0.313,-0.133Z" style="fill:rgb(38,123,217);fill-rule:nonzero;"/>
                </g>
                <g transform="matrix(90.743,0,0,90.743,1911.41,272)">
                    <path d="M0.189,-0.157C0.189,-0.122 0.196,-0.097 0.211,-0.081C0.226,-0.065 0.249,-0.057 0.28,-0.057C0.308,-0.057 0.336,-0.065 0.363,-0.082C0.39,-0.098 0.411,-0.118 0.426,-0.143L0.426,-0.54L0.512,-0.54L0.512,-0L0.439,-0L0.432,-0.073C0.411,-0.046 0.385,-0.025 0.354,-0.011C0.323,0.004 0.291,0.012 0.259,0.012C0.207,0.012 0.168,-0.002 0.142,-0.029C0.116,-0.057 0.103,-0.096 0.103,-0.147L0.103,-0.54L0.189,-0.54L0.189,-0.157Z" style="fill:rgb(38,123,217);fill-rule:nonzero;"/>
                </g>
                <g transform="matrix(90.743,0,0,90.743,1967.26,272)">
                    <path d="M0.171,-0.239C0.172,-0.199 0.18,-0.166 0.194,-0.139C0.209,-0.112 0.228,-0.092 0.251,-0.079C0.274,-0.066 0.3,-0.06 0.329,-0.06C0.355,-0.06 0.38,-0.064 0.402,-0.072C0.425,-0.08 0.448,-0.092 0.473,-0.109L0.513,-0.052C0.488,-0.032 0.459,-0.016 0.426,-0.005C0.394,0.006 0.361,0.012 0.328,0.012C0.276,0.012 0.232,0 0.194,-0.023C0.157,-0.046 0.129,-0.079 0.109,-0.122C0.09,-0.164 0.081,-0.213 0.081,-0.269C0.081,-0.324 0.09,-0.372 0.11,-0.415C0.129,-0.458 0.157,-0.491 0.192,-0.515C0.228,-0.539 0.269,-0.551 0.316,-0.551C0.362,-0.551 0.401,-0.541 0.434,-0.519C0.467,-0.498 0.492,-0.468 0.509,-0.428C0.527,-0.388 0.536,-0.341 0.536,-0.287C0.536,-0.271 0.535,-0.255 0.534,-0.239L0.171,-0.239ZM0.317,-0.481C0.276,-0.481 0.242,-0.466 0.216,-0.437C0.189,-0.407 0.175,-0.364 0.171,-0.306L0.453,-0.306C0.452,-0.363 0.439,-0.406 0.415,-0.436C0.391,-0.466 0.359,-0.481 0.317,-0.481Z" style="fill:rgb(38,123,217);fill-rule:nonzero;"/>
                </g>
                <g transform="matrix(90.743,0,0,90.743,2023.1,272)">
                    <path d="M0.276,-0.717C0.32,-0.717 0.358,-0.709 0.39,-0.692C0.422,-0.675 0.446,-0.651 0.464,-0.622C0.481,-0.592 0.489,-0.558 0.489,-0.521C0.489,-0.477 0.479,-0.435 0.459,-0.394C0.439,-0.353 0.406,-0.308 0.362,-0.258C0.317,-0.209 0.254,-0.148 0.173,-0.073L0.506,-0.073L0.495,-0L0.075,-0L0.075,-0.07C0.168,-0.159 0.236,-0.228 0.281,-0.278C0.325,-0.328 0.356,-0.37 0.373,-0.405C0.39,-0.441 0.398,-0.478 0.398,-0.517C0.398,-0.557 0.387,-0.589 0.365,-0.612C0.342,-0.634 0.312,-0.646 0.272,-0.646C0.238,-0.646 0.21,-0.64 0.188,-0.628C0.166,-0.617 0.143,-0.598 0.12,-0.57L0.061,-0.616C0.089,-0.651 0.12,-0.676 0.155,-0.693C0.189,-0.709 0.23,-0.717 0.276,-0.717Z" style="fill:rgb(38,123,217);fill-rule:nonzero;"/>
                </g>
                <g transform="matrix(90.743,0,0,90.743,2078.94,272)">
                    <path d="M0.346,-0.491L0.27,-0.491L0.254,-0.757L0.362,-0.757L0.346,-0.491Z" style="fill:rgb(38,123,217);fill-rule:nonzero;"/>
                </g>
                <g transform="matrix(90.743,0,0,90.743,2134.78,272)">
                    <path d="M0.308,-0.169C0.323,-0.169 0.338,-0.165 0.35,-0.158C0.363,-0.15 0.373,-0.14 0.38,-0.128C0.387,-0.115 0.391,-0.102 0.391,-0.087C0.391,-0.074 0.389,-0.061 0.386,-0.049C0.383,-0.036 0.378,-0.022 0.371,-0.006L0.288,0.184L0.21,0.184L0.259,-0.018C0.249,-0.026 0.241,-0.036 0.235,-0.048C0.229,-0.06 0.226,-0.073 0.226,-0.087C0.226,-0.102 0.229,-0.115 0.236,-0.128C0.244,-0.14 0.253,-0.15 0.266,-0.158C0.278,-0.165 0.292,-0.169 0.308,-0.169Z" style="fill-rule:nonzero;"/>
                </g>
                <g transform="matrix(90.743,0,0,90.743,2246.46,272)">
                    <path d="M0.346,-0.491L0.27,-0.491L0.254,-0.757L0.362,-0.757L0.346,-0.491Z" style="fill:rgb(51,204,69);fill-rule:nonzero;"/>
                </g>
                <g transform="matrix(90.743,0,0,90.743,2302.31,272)">
                    <path d="M0.464,-0.54L0.553,-0.54L0.357,-0L0.257,-0L0.062,-0.54L0.153,-0.54L0.31,-0.078L0.464,-0.54Z" style="fill:rgb(51,204,69);fill-rule:nonzero;"/>
                </g>
                <g transform="matrix(90.743,0,0,90.743,2358.15,272)">
                    <path d="M0.49,-0.118C0.49,-0.097 0.493,-0.081 0.5,-0.071C0.507,-0.061 0.518,-0.054 0.534,-0.049L0.513,0.012C0.461,0.005 0.428,-0.02 0.414,-0.064C0.395,-0.039 0.371,-0.02 0.341,-0.007C0.312,0.005 0.28,0.012 0.245,0.012C0.209,0.012 0.178,0.005 0.152,-0.009C0.125,-0.022 0.105,-0.042 0.091,-0.067C0.077,-0.092 0.07,-0.121 0.07,-0.155C0.07,-0.211 0.092,-0.253 0.135,-0.283C0.179,-0.313 0.242,-0.328 0.324,-0.328L0.403,-0.328L0.403,-0.373C0.403,-0.41 0.392,-0.438 0.37,-0.455C0.348,-0.472 0.316,-0.48 0.274,-0.48C0.234,-0.48 0.187,-0.471 0.134,-0.452L0.111,-0.517C0.171,-0.54 0.23,-0.551 0.288,-0.551C0.354,-0.551 0.404,-0.536 0.438,-0.505C0.473,-0.474 0.49,-0.431 0.49,-0.377L0.49,-0.118ZM0.267,-0.054C0.293,-0.054 0.319,-0.061 0.343,-0.074C0.367,-0.088 0.387,-0.106 0.403,-0.13L0.403,-0.269L0.325,-0.269C0.268,-0.269 0.227,-0.259 0.201,-0.24C0.175,-0.221 0.163,-0.192 0.163,-0.156C0.163,-0.088 0.197,-0.054 0.267,-0.054Z" style="fill:rgb(51,204,69);fill-rule:nonzero;"/>
                </g>
                <g transform="matrix(90.743,0,0,90.743,2413.99,272)">
                    <path d="M0.313,-0.133C0.313,-0.108 0.321,-0.089 0.337,-0.078C0.353,-0.066 0.375,-0.06 0.403,-0.06C0.432,-0.06 0.462,-0.066 0.493,-0.079L0.516,-0.016C0.5,-0.008 0.481,-0.001 0.459,0.004C0.437,0.009 0.414,0.012 0.388,0.012C0.356,0.012 0.328,0.006 0.304,-0.006C0.279,-0.018 0.261,-0.035 0.247,-0.058C0.234,-0.081 0.227,-0.107 0.227,-0.138L0.227,-0.689L0.062,-0.689L0.062,-0.757L0.313,-0.757L0.313,-0.133Z" style="fill:rgb(51,204,69);fill-rule:nonzero;"/>
                </g>
                <g transform="matrix(90.743,0,0,90.743,2469.83,272)">
                    <path d="M0.189,-0.157C0.189,-0.122 0.196,-0.097 0.211,-0.081C0.226,-0.065 0.249,-0.057 0.28,-0.057C0.308,-0.057 0.336,-0.065 0.363,-0.082C0.39,-0.098 0.411,-0.118 0.426,-0.143L0.426,-0.54L0.512,-0.54L0.512,-0L0.439,-0L0.432,-0.073C0.411,-0.046 0.385,-0.025 0.354,-0.011C0.323,0.004 0.291,0.012 0.259,0.012C0.207,0.012 0.168,-0.002 0.142,-0.029C0.116,-0.057 0.103,-0.096 0.103,-0.147L0.103,-0.54L0.189,-0.54L0.189,-0.157Z" style="fill:rgb(51,204,69);fill-rule:nonzero;"/>
                </g>
                <g transform="matrix(90.743,0,0,90.743,2525.67,272)">
                    <path d="M0.171,-0.239C0.172,-0.199 0.18,-0.166 0.194,-0.139C0.209,-0.112 0.228,-0.092 0.251,-0.079C0.274,-0.066 0.3,-0.06 0.329,-0.06C0.355,-0.06 0.38,-0.064 0.402,-0.072C0.425,-0.08 0.448,-0.092 0.473,-0.109L0.513,-0.052C0.488,-0.032 0.459,-0.016 0.426,-0.005C0.394,0.006 0.361,0.012 0.328,0.012C0.276,0.012 0.232,0 0.194,-0.023C0.157,-0.046 0.129,-0.079 0.109,-0.122C0.09,-0.164 0.081,-0.213 0.081,-0.269C0.081,-0.324 0.09,-0.372 0.11,-0.415C0.129,-0.458 0.157,-0.491 0.192,-0.515C0.228,-0.539 0.269,-0.551 0.316,-0.551C0.362,-0.551 0.401,-0.541 0.434,-0.519C0.467,-0.498 0.492,-0.468 0.509,-0.428C0.527,-0.388 0.536,-0.341 0.536,-0.287C0.536,-0.271 0.535,-0.255 0.534,-0.239L0.171,-0.239ZM0.317,-0.481C0.276,-0.481 0.242,-0.466 0.216,-0.437C0.189,-0.407 0.175,-0.364 0.171,-0.306L0.453,-0.306C0.452,-0.363 0.439,-0.406 0.415,-0.436C0.391,-0.466 0.359,-0.481 0.317,-0.481Z" style="fill:rgb(51,204,69);fill-rule:nonzero;"/>
                </g>
                <g transform="matrix(90.743,0,0,90.743,2581.52,272)">
                    <path d="M0.275,-0.717C0.318,-0.717 0.356,-0.709 0.389,-0.694C0.422,-0.678 0.448,-0.656 0.466,-0.629C0.483,-0.603 0.492,-0.573 0.492,-0.541C0.492,-0.513 0.486,-0.488 0.474,-0.464C0.461,-0.441 0.444,-0.422 0.423,-0.406C0.402,-0.391 0.379,-0.381 0.354,-0.376C0.383,-0.374 0.41,-0.366 0.434,-0.352C0.458,-0.338 0.478,-0.319 0.493,-0.293C0.507,-0.268 0.515,-0.238 0.515,-0.204C0.515,-0.163 0.505,-0.126 0.484,-0.094C0.463,-0.061 0.434,-0.035 0.397,-0.016C0.36,0.002 0.318,0.012 0.27,0.012C0.228,0.012 0.188,0.004 0.149,-0.012C0.111,-0.028 0.078,-0.051 0.053,-0.083L0.111,-0.13C0.13,-0.107 0.154,-0.089 0.182,-0.077C0.209,-0.065 0.238,-0.059 0.268,-0.059C0.3,-0.059 0.328,-0.065 0.352,-0.077C0.375,-0.089 0.393,-0.105 0.406,-0.127C0.418,-0.149 0.425,-0.174 0.425,-0.204C0.425,-0.293 0.376,-0.337 0.278,-0.337L0.219,-0.337L0.23,-0.406L0.271,-0.406C0.295,-0.406 0.317,-0.41 0.337,-0.419C0.358,-0.428 0.374,-0.442 0.387,-0.461C0.399,-0.479 0.406,-0.502 0.406,-0.529C0.406,-0.554 0.4,-0.576 0.388,-0.594C0.376,-0.612 0.36,-0.625 0.34,-0.635C0.32,-0.644 0.297,-0.649 0.272,-0.649C0.243,-0.649 0.216,-0.644 0.193,-0.633C0.17,-0.623 0.147,-0.606 0.123,-0.584L0.075,-0.636C0.132,-0.69 0.199,-0.717 0.275,-0.717Z" style="fill:rgb(51,204,69);fill-rule:nonzero;"/>
                </g>
                <g transform="matrix(90.743,0,0,90.743,2637.36,272)">
                    <path d="M0.346,-0.491L0.27,-0.491L0.254,-0.757L0.362,-0.757L0.346,-0.491Z" style="fill:rgb(51,204,69);fill-rule:nonzero;"/>
                </g>
                <g transform="matrix(90.743,0,0,90.743,2693.2,272)">
                    <path d="M0.397,-0.359C0.397,-0.429 0.39,-0.49 0.374,-0.542C0.358,-0.593 0.335,-0.64 0.304,-0.682C0.272,-0.723 0.231,-0.768 0.178,-0.814L0.223,-0.862C0.283,-0.813 0.332,-0.765 0.37,-0.718C0.408,-0.671 0.437,-0.618 0.457,-0.56C0.478,-0.502 0.488,-0.435 0.488,-0.359C0.488,-0.283 0.478,-0.216 0.457,-0.158C0.437,-0.099 0.408,-0.047 0.37,0C0.332,0.047 0.283,0.095 0.223,0.144L0.178,0.096C0.23,0.05 0.272,0.006 0.303,-0.036C0.334,-0.078 0.358,-0.125 0.374,-0.177C0.389,-0.228 0.397,-0.289 0.397,-0.359Z" style="fill-rule:nonzero;"/>
                </g>
            </g>
            <g transform="matrix(0.764126,0,0,1.87558,-193.58,517.588)">
                <g transform="matrix(90.743,0,0,90.743,403.684,272)">
                    <path d="M-1.09,-0.53L-1.055,-0.596L-0.602,-0.365L-0.602,-0.277L-1.055,-0.046L-1.09,-0.112L-0.683,-0.321L-1.09,-0.53ZM-0.577,-0.53L-0.543,-0.596L-0.089,-0.365L-0.089,-0.277L-0.542,-0.046L-0.577,-0.112L-0.17,-0.321L-0.577,-0.53ZM-0.064,-0.53L-0.03,-0.596L0.424,-0.365L0.424,-0.277L-0.029,-0.046L-0.064,-0.112L0.343,-0.321L-0.064,-0.53Z" style="fill:rgb(128,128,128);fill-rule:nonzero;"/>
                </g>
                <g transform="matrix(90.743,0,0,90.743,515.367,272)">
                    <path d="M0.464,-0.54L0.553,-0.54L0.357,-0L0.257,-0L0.062,-0.54L0.153,-0.54L0.31,-0.078L0.464,-0.54Z" style="fill:rgb(206,38,217);fill-rule:nonzero;"/>
                </g>
                <g transform="matrix(90.743,0,0,90.743,571.209,272)">
                    <path d="M0.49,-0.118C0.49,-0.097 0.493,-0.081 0.5,-0.071C0.507,-0.061 0.518,-0.054 0.534,-0.049L0.513,0.012C0.461,0.005 0.428,-0.02 0.414,-0.064C0.395,-0.039 0.371,-0.02 0.341,-0.007C0.312,0.005 0.28,0.012 0.245,0.012C0.209,0.012 0.178,0.005 0.152,-0.009C0.125,-0.022 0.105,-0.042 0.091,-0.067C0.077,-0.092 0.07,-0.121 0.07,-0.155C0.07,-0.211 0.092,-0.253 0.135,-0.283C0.179,-0.313 0.242,-0.328 0.324,-0.328L0.403,-0.328L0.403,-0.373C0.403,-0.41 0.392,-0.438 0.37,-0.455C0.348,-0.472 0.316,-0.48 0.274,-0.48C0.234,-0.48 0.187,-0.471 0.134,-0.452L0.111,-0.517C0.171,-0.54 0.23,-0.551 0.288,-0.551C0.354,-0.551 0.404,-0.536 0.438,-0.505C0.473,-0.474 0.49,-0.431 0.49,-0.377L0.49,-0.118ZM0.267,-0.054C0.293,-0.054 0.319,-0.061 0.343,-0.074C0.367,-0.088 0.387,-0.106 0.403,-0.13L0.403,-0.269L0.325,-0.269C0.268,-0.269 0.227,-0.259 0.201,-0.24C0.175,-0.221 0.163,-0.192 0.163,-0.156C0.163,-0.088 0.197,-0.054 0.267,-0.054Z" style="fill:rgb(206,38,217);fill-rule:nonzero;"/>
                </g>
                <g transform="matrix(90.743,0,0,90.743,627.051,272)">
                    <path d="M0.468,-0.552C0.482,-0.552 0.495,-0.551 0.506,-0.549C0.518,-0.547 0.53,-0.544 0.544,-0.54L0.532,-0.357L0.461,-0.357L0.461,-0.472L0.456,-0.472C0.415,-0.472 0.379,-0.458 0.35,-0.428C0.32,-0.399 0.297,-0.354 0.278,-0.295L0.278,-0.066L0.388,-0.066L0.388,-0L0.108,-0L0.108,-0.066L0.192,-0.066L0.192,-0.474L0.108,-0.474L0.108,-0.54L0.258,-0.54L0.274,-0.412C0.296,-0.459 0.322,-0.494 0.352,-0.517C0.382,-0.54 0.421,-0.552 0.468,-0.552Z" style="fill:rgb(206,38,217);fill-rule:nonzero;"/>
                </g>
                <g transform="matrix(90.743,0,0,90.743,682.893,272)">
                    <path d="M0.383,-0.706L0.383,-0.07L0.531,-0.07L0.531,-0L0.123,-0L0.123,-0.07L0.297,-0.07L0.297,-0.613L0.135,-0.514L0.097,-0.576L0.308,-0.706L0.383,-0.706Z" style="fill:rgb(206,38,217);fill-rule:nonzero;"/>
                </g>
                <g transform="matrix(90.743,0,0,90.743,738.735,272)">
                    <path d="M0.308,-0.169C0.323,-0.169 0.338,-0.165 0.35,-0.158C0.363,-0.15 0.373,-0.14 0.38,-0.128C0.387,-0.115 0.391,-0.102 0.391,-0.087C0.391,-0.074 0.389,-0.061 0.386,-0.049C0.383,-0.036 0.378,-0.022 0.371,-0.006L0.288,0.184L0.21,0.184L0.259,-0.018C0.249,-0.026 0.241,-0.036 0.235,-0.048C0.229,-0.06 0.226,-0.073 0.226,-0.087C0.226,-0.102 0.229,-0.115 0.236,-0.128C0.244,-0.14 0.253,-0.15 0.266,-0.158C0.278,-0.165 0.292,-0.169 0.308,-0.169Z" style="fill-rule:nonzero;"/>
                </g>
                <g transform="matrix(90.743,0,0,90.743,850.419,272)">
                    <path d="M0.464,-0.54L0.553,-0.54L0.357,-0L0.257,-0L0.062,-0.54L0.153,-0.54L0.31,-0.078L0.464,-0.54Z" style="fill:rgb(38,123,217);fill-rule:nonzero;"/>
                </g>
                <g transform="matrix(90.743,0,0,90.743,906.26,272)">
                    <path d="M0.49,-0.118C0.49,-0.097 0.493,-0.081 0.5,-0.071C0.507,-0.061 0.518,-0.054 0.534,-0.049L0.513,0.012C0.461,0.005 0.428,-0.02 0.414,-0.064C0.395,-0.039 0.371,-0.02 0.341,-0.007C0.312,0.005 0.28,0.012 0.245,0.012C0.209,0.012 0.178,0.005 0.152,-0.009C0.125,-0.022 0.105,-0.042 0.091,-0.067C0.077,-0.092 0.07,-0.121 0.07,-0.155C0.07,-0.211 0.092,-0.253 0.135,-0.283C0.179,-0.313 0.242,-0.328 0.324,-0.328L0.403,-0.328L0.403,-0.373C0.403,-0.41 0.392,-0.438 0.37,-0.455C0.348,-0.472 0.316,-0.48 0.274,-0.48C0.234,-0.48 0.187,-0.471 0.134,-0.452L0.111,-0.517C0.171,-0.54 0.23,-0.551 0.288,-0.551C0.354,-0.551 0.404,-0.536 0.438,-0.505C0.473,-0.474 0.49,-0.431 0.49,-0.377L0.49,-0.118ZM0.267,-0.054C0.293,-0.054 0.319,-0.061 0.343,-0.074C0.367,-0.088 0.387,-0.106 0.403,-0.13L0.403,-0.269L0.325,-0.269C0.268,-0.269 0.227,-0.259 0.201,-0.24C0.175,-0.221 0.163,-0.192 0.163,-0.156C0.163,-0.088 0.197,-0.054 0.267,-0.054Z" style="fill:rgb(38,123,217);fill-rule:nonzero;"/>
                </g>
                <g transform="matrix(90.743,0,0,90.743,962.102,272)">
                    <path d="M0.468,-0.552C0.482,-0.552 0.495,-0.551 0.506,-0.549C0.518,-0.547 0.53,-0.544 0.544,-0.54L0.532,-0.357L0.461,-0.357L0.461,-0.472L0.456,-0.472C0.415,-0.472 0.379,-0.458 0.35,-0.428C0.32,-0.399 0.297,-0.354 0.278,-0.295L0.278,-0.066L0.388,-0.066L0.388,-0L0.108,-0L0.108,-0.066L0.192,-0.066L0.192,-0.474L0.108,-0.474L0.108,-0.54L0.258,-0.54L0.274,-0.412C0.296,-0.459 0.322,-0.494 0.352,-0.517C0.382,-0.54 0.421,-0.552 0.468,-0.552Z" style="fill:rgb(38,123,217);fill-rule:nonzero;"/>
                </g>
                <g transform="matrix(90.743,0,0,90.743,1017.94,272)">
                    <path d="M0.276,-0.717C0.32,-0.717 0.358,-0.709 0.39,-0.692C0.422,-0.675 0.446,-0.651 0.464,-0.622C0.481,-0.592 0.489,-0.558 0.489,-0.521C0.489,-0.477 0.479,-0.435 0.459,-0.394C0.439,-0.353 0.406,-0.308 0.362,-0.258C0.317,-0.209 0.254,-0.148 0.173,-0.073L0.506,-0.073L0.495,-0L0.075,-0L0.075,-0.07C0.168,-0.159 0.236,-0.228 0.281,-0.278C0.325,-0.328 0.356,-0.37 0.373,-0.405C0.39,-0.441 0.398,-0.478 0.398,-0.517C0.398,-0.557 0.387,-0.589 0.365,-0.612C0.342,-0.634 0.312,-0.646 0.272,-0.646C0.238,-0.646 0.21,-0.64 0.188,-0.628C0.166,-0.617 0.143,-0.598 0.12,-0.57L0.061,-0.616C0.089,-0.651 0.12,-0.676 0.155,-0.693C0.189,-0.709 0.23,-0.717 0.276,-0.717Z" style="fill:rgb(38,123,217);fill-rule:nonzero;"/>
                </g>
                <g transform="matrix(90.743,0,0,90.743,1073.79,272)">
                    <path d="M0.308,-0.169C0.323,-0.169 0.338,-0.165 0.35,-0.158C0.363,-0.15 0.373,-0.14 0.38,-0.128C0.387,-0.115 0.391,-0.102 0.391,-0.087C0.391,-0.074 0.389,-0.061 0.386,-0.049C0.383,-0.036 0.378,-0.022 0.371,-0.006L0.288,0.184L0.21,0.184L0.259,-0.018C0.249,-0.026 0.241,-0.036 0.235,-0.048C0.229,-0.06 0.226,-0.073 0.226,-0.087C0.226,-0.102 0.229,-0.115 0.236,-0.128C0.244,-0.14 0.253,-0.15 0.266,-0.158C0.278,-0.165 0.292,-0.169 0.308,-0.169Z" style="fill-rule:nonzero;"/>
                </g>
                <g transform="matrix(90.743,0,0,90.743,1185.47,272)">
                    <path d="M0.464,-0.54L0.553,-0.54L0.357,-0L0.257,-0L0.062,-0.54L0.153,-0.54L0.31,-0.078L0.464,-0.54Z" style="fill:rgb(51,204,69);fill-rule:nonzero;"/>
                </g>
                <g transform="matrix(90.743,0,0,90.743,1241.31,272)">
                    <path d="M0.49,-0.118C0.49,-0.097 0.493,-0.081 0.5,-0.071C0.507,-0.061 0.518,-0.054 0.534,-0.049L0.513,0.012C0.461,0.005 0.428,-0.02 0.414,-0.064C0.395,-0.039 0.371,-0.02 0.341,-0.007C0.312,0.005 0.28,0.012 0.245,0.012C0.209,0.012 0.178,0.005 0.152,-0.009C0.125,-0.022 0.105,-0.042 0.091,-0.067C0.077,-0.092 0.07,-0.121 0.07,-0.155C0.07,-0.211 0.092,-0.253 0.135,-0.283C0.179,-0.313 0.242,-0.328 0.324,-0.328L0.403,-0.328L0.403,-0.373C0.403,-0.41 0.392,-0.438 0.37,-0.455C0.348,-0.472 0.316,-0.48 0.274,-0.48C0.234,-0.48 0.187,-0.471 0.134,-0.452L0.111,-0.517C0.171,-0.54 0.23,-0.551 0.288,-0.551C0.354,-0.551 0.404,-0.536 0.438,-0.505C0.473,-0.474 0.49,-0.431 0.49,-0.377L0.49,-0.118ZM0.267,-0.054C0.293,-0.054 0.319,-0.061 0.343,-0.074C0.367,-0.088 0.387,-0.106 0.403,-0.13L0.403,-0.269L0.325,-0.269C0.268,-0.269 0.227,-0.259 0.201,-0.24C0.175,-0.221 0.163,-0.192 0.163,-0.156C0.163,-0.088 0.197,-0.054 0.267,-0.054Z" style="fill:rgb(51,204,69);fill-rule:nonzero;"/>
                </g>
                <g transform="matrix(90.743,0,0,90.743,1297.15,272)">
                    <path d="M0.468,-0.552C0.482,-0.552 0.495,-0.551 0.506,-0.549C0.518,-0.547 0.53,-0.544 0.544,-0.54L0.532,-0.357L0.461,-0.357L0.461,-0.472L0.456,-0.472C0.415,-0.472 0.379,-0.458 0.35,-0.428C0.32,-0.399 0.297,-0.354 0.278,-0.295L0.278,-0.066L0.388,-0.066L0.388,-0L0.108,-0L0.108,-0.066L0.192,-0.066L0.192,-0.474L0.108,-0.474L0.108,-0.54L0.258,-0.54L0.274,-0.412C0.296,-0.459 0.322,-0.494 0.352,-0.517C0.382,-0.54 0.421,-0.552 0.468,-0.552Z" style="fill:rgb(51,204,69);fill-rule:nonzero;"/>
                </g>
                <g transform="matrix(90.743,0,0,90.743,1353,272)">
                    <path d="M0.275,-0.717C0.318,-0.717 0.356,-0.709 0.389,-0.694C0.422,-0.678 0.448,-0.656 0.466,-0.629C0.483,-0.603 0.492,-0.573 0.492,-0.541C0.492,-0.513 0.486,-0.488 0.474,-0.464C0.461,-0.441 0.444,-0.422 0.423,-0.406C0.402,-0.391 0.379,-0.381 0.354,-0.376C0.383,-0.374 0.41,-0.366 0.434,-0.352C0.458,-0.338 0.478,-0.319 0.493,-0.293C0.507,-0.268 0.515,-0.238 0.515,-0.204C0.515,-0.163 0.505,-0.126 0.484,-0.094C0.463,-0.061 0.434,-0.035 0.397,-0.016C0.36,0.002 0.318,0.012 0.27,0.012C0.228,0.012 0.188,0.004 0.149,-0.012C0.111,-0.028 0.078,-0.051 0.053,-0.083L0.111,-0.13C0.13,-0.107 0.154,-0.089 0.182,-0.077C0.209,-0.065 0.238,-0.059 0.268,-0.059C0.3,-0.059 0.328,-0.065 0.352,-0.077C0.375,-0.089 0.393,-0.105 0.406,-0.127C0.418,-0.149 0.425,-0.174 0.425,-0.204C0.425,-0.293 0.376,-0.337 0.278,-0.337L0.219,-0.337L0.23,-0.406L0.271,-0.406C0.295,-0.406 0.317,-0.41 0.337,-0.419C0.358,-0.428 0.374,-0.442 0.387,-0.461C0.399,-0.479 0.406,-0.502 0.406,-0.529C0.406,-0.554 0.4,-0.576 0.388,-0.594C0.376,-0.612 0.36,-0.625 0.34,-0.635C0.32,-0.644 0.297,-0.649 0.272,-0.649C0.243,-0.649 0.216,-0.644 0.193,-0.633C0.17,-0.623 0.147,-0.606 0.123,-0.584L0.075,-0.636C0.132,-0.69 0.199,-0.717 0.275,-0.717Z" style="fill:rgb(51,204,69);fill-rule:nonzero;"/>
                </g>
                <g transform="matrix(90.743,0,0,90.743,1464.68,272)">
                    <path d="M0.108,-0.453L0.507,-0.453L0.507,-0.379L0.108,-0.379L0.108,-0.453ZM0.108,-0.259L0.507,-0.259L0.507,-0.184L0.108,-0.184L0.108,-0.259Z" style="fill-rule:nonzero;"/>
                </g>
                <g transform="matrix(90.743,0,0,90.743,1576.36,272)">
                    <path d="M0.53,-0.157C0.53,-0.137 0.533,-0.122 0.538,-0.113C0.544,-0.103 0.553,-0.096 0.566,-0.091L0.533,0.015C0.5,0.012 0.472,0.005 0.451,-0.006C0.429,-0.018 0.412,-0.035 0.399,-0.056C0.379,-0.032 0.353,-0.014 0.321,-0.001C0.289,0.011 0.256,0.017 0.22,0.017C0.183,0.017 0.151,0.01 0.123,-0.004C0.095,-0.019 0.074,-0.039 0.058,-0.065C0.043,-0.091 0.036,-0.12 0.036,-0.154C0.036,-0.193 0.046,-0.226 0.067,-0.254C0.088,-0.282 0.118,-0.303 0.158,-0.317C0.198,-0.332 0.245,-0.339 0.301,-0.339L0.374,-0.339L0.374,-0.359C0.374,-0.415 0.338,-0.443 0.267,-0.443C0.249,-0.443 0.226,-0.441 0.198,-0.435C0.171,-0.43 0.144,-0.423 0.117,-0.414L0.08,-0.522C0.114,-0.535 0.15,-0.545 0.188,-0.552C0.226,-0.559 0.261,-0.563 0.292,-0.563C0.372,-0.563 0.432,-0.546 0.471,-0.514C0.511,-0.481 0.53,-0.434 0.53,-0.37L0.53,-0.157ZM0.276,-0.098C0.294,-0.098 0.313,-0.104 0.332,-0.115C0.351,-0.125 0.365,-0.14 0.374,-0.158L0.374,-0.247L0.334,-0.247C0.29,-0.247 0.257,-0.24 0.235,-0.226C0.214,-0.212 0.203,-0.192 0.203,-0.165C0.203,-0.144 0.209,-0.128 0.222,-0.116C0.235,-0.104 0.253,-0.098 0.276,-0.098Z" style="fill-rule:nonzero;"/>
                </g>
                <g transform="matrix(90.743,0,0,90.743,1632.2,272)">
                    <rect x="0.051" y="0.064" width="0.513" height="0.127" style="fill-rule:nonzero;"/>
                </g>
                <g transform="matrix(90.743,0,0,90.743,1688.05,272)">
                    <path d="M0.562,-0.032C0.539,-0.017 0.513,-0.005 0.482,0.004C0.452,0.013 0.419,0.017 0.384,0.017C0.314,0.017 0.261,-0 0.226,-0.036C0.191,-0.071 0.173,-0.121 0.173,-0.186L0.173,-0.433L0.059,-0.433L0.059,-0.545L0.173,-0.545L0.173,-0.663L0.335,-0.682L0.335,-0.545L0.511,-0.545L0.495,-0.433L0.335,-0.433L0.335,-0.186C0.335,-0.159 0.341,-0.139 0.354,-0.128C0.366,-0.116 0.385,-0.11 0.413,-0.11C0.447,-0.11 0.479,-0.118 0.508,-0.135L0.562,-0.032Z" style="fill-rule:nonzero;"/>
                </g>
                <g transform="matrix(90.743,0,0,90.743,1743.89,272)">
                    <path d="M0.234,-0.172C0.234,-0.146 0.238,-0.129 0.248,-0.118C0.257,-0.108 0.271,-0.103 0.289,-0.103C0.306,-0.103 0.323,-0.108 0.339,-0.118C0.356,-0.129 0.37,-0.143 0.382,-0.162L0.382,-0.545L0.544,-0.545L0.544,-0L0.402,-0L0.395,-0.064C0.377,-0.038 0.353,-0.018 0.323,-0.004C0.293,0.01 0.262,0.017 0.228,0.017C0.176,0.017 0.137,0.003 0.111,-0.027C0.085,-0.057 0.072,-0.098 0.072,-0.152L0.072,-0.545L0.234,-0.545L0.234,-0.172Z" style="fill-rule:nonzero;"/>
                </g>
                <g transform="matrix(90.743,0,0,90.743,1799.73,272)">
                    <path d="M0.373,-0.563C0.442,-0.563 0.492,-0.538 0.524,-0.487C0.556,-0.437 0.572,-0.366 0.572,-0.274C0.572,-0.217 0.564,-0.167 0.547,-0.123C0.531,-0.079 0.507,-0.045 0.475,-0.02C0.444,0.005 0.406,0.017 0.363,0.017C0.31,0.017 0.267,-0.002 0.234,-0.039L0.234,0.21L0.072,0.227L0.072,-0.545L0.215,-0.545L0.223,-0.484C0.244,-0.511 0.267,-0.531 0.293,-0.543C0.319,-0.556 0.346,-0.563 0.373,-0.563ZM0.323,-0.443C0.305,-0.443 0.289,-0.438 0.274,-0.427C0.26,-0.416 0.246,-0.401 0.234,-0.38L0.234,-0.15C0.245,-0.133 0.258,-0.121 0.27,-0.113C0.282,-0.105 0.297,-0.102 0.314,-0.102C0.344,-0.102 0.366,-0.115 0.382,-0.142C0.397,-0.169 0.405,-0.212 0.405,-0.272C0.405,-0.316 0.402,-0.35 0.396,-0.375C0.389,-0.4 0.38,-0.418 0.368,-0.428C0.356,-0.438 0.341,-0.443 0.323,-0.443Z" style="fill-rule:nonzero;"/>
                </g>
                <g transform="matrix(90.743,0,0,90.743,1855.57,272)">
                    <path d="M0.356,-0.171C0.356,-0.15 0.362,-0.135 0.374,-0.125C0.386,-0.115 0.404,-0.11 0.426,-0.11C0.451,-0.11 0.476,-0.116 0.503,-0.127L0.542,-0.018C0.497,0.005 0.444,0.017 0.385,0.017C0.321,0.017 0.273,-0.001 0.241,-0.038C0.21,-0.074 0.194,-0.126 0.194,-0.191L0.194,-0.65L0.033,-0.65L0.033,-0.761L0.356,-0.761L0.356,-0.171Z" style="fill-rule:nonzero;"/>
                </g>
                <g transform="matrix(90.743,0,0,90.743,1911.41,272)">
                    <path d="M0.212,-0.225C0.217,-0.182 0.231,-0.151 0.254,-0.131C0.277,-0.111 0.307,-0.101 0.343,-0.101C0.389,-0.101 0.436,-0.116 0.483,-0.146L0.548,-0.057C0.521,-0.034 0.489,-0.016 0.452,-0.003C0.415,0.011 0.375,0.017 0.33,0.017C0.269,0.017 0.218,0.005 0.175,-0.019C0.133,-0.043 0.101,-0.077 0.079,-0.121C0.058,-0.164 0.047,-0.215 0.047,-0.272C0.047,-0.326 0.058,-0.375 0.078,-0.419C0.099,-0.464 0.13,-0.498 0.17,-0.524C0.21,-0.55 0.257,-0.563 0.313,-0.563C0.364,-0.563 0.409,-0.551 0.448,-0.529C0.486,-0.507 0.516,-0.475 0.537,-0.433C0.558,-0.391 0.568,-0.341 0.568,-0.283C0.568,-0.261 0.567,-0.242 0.565,-0.225L0.212,-0.225ZM0.313,-0.454C0.283,-0.454 0.259,-0.443 0.242,-0.422C0.224,-0.4 0.214,-0.367 0.21,-0.323L0.41,-0.323C0.409,-0.41 0.377,-0.454 0.313,-0.454Z" style="fill-rule:nonzero;"/>
                </g>
            </g>
            <g transform="matrix(2.21383,0,0,5.43394,-1129.13,-1521.31)">
                <g transform="matrix(1.50569,-0,-0,1.50569,510.034,278.969)">
                    <path d="M249.365,38.233C249.365,36.584 248.026,35.244 246.376,35.244C244.727,35.244 243.388,36.584 243.388,38.233C243.388,39.883 244.727,41.222 246.376,41.222C248.026,41.222 249.365,39.883 249.365,38.233Z" style="fill:rgb(206,38,217);"/>
                    <path d="M94.286,93.666L88.309,101.635L82.332,93.666L94.286,93.666Z" style="fill:rgb(206,38,217);"/>
                    <path d="M246.376,40.026L246.376,49.661L88.309,49.661L88.309,95.26" style="fill:none;stroke:rgb(206,38,217);stroke-width:1.33px;"/>
                </g>
            </g>
            <g transform="matrix(2.21383,0,0,5.43394,-1129.13,-1521.31)">
                <g transform="matrix(1.50569,-0,-0,1.50569,510.034,278.969)">
                    <path d="M380.237,38.198C380.218,36.548 378.863,35.225 377.214,35.244C375.564,35.264 374.241,36.619 374.26,38.268C374.28,39.917 375.635,41.241 377.284,41.221C378.933,41.202 380.257,39.847 380.237,38.198Z" style="fill:rgb(38,123,217);"/>
                    <path d="M173.32,93.666L167.343,101.635L161.365,93.666L173.32,93.666Z" style="fill:rgb(38,123,217);"/>
                    <path d="M377.27,40.026C377.366,48.151 377.549,63.779 377.549,63.779L167.343,63.779L167.343,95.26" style="fill:none;stroke:rgb(38,123,217);stroke-width:1.33px;"/>
                </g>
            </g>
            <g transform="matrix(2.21383,0,0,5.43394,-1129.13,-1521.31)">
                <g transform="matrix(1.50569,-0,-0,1.50569,510.034,278.969)">
                    <path d="M510.375,38.233C510.375,36.584 509.036,35.244 507.387,35.244C505.737,35.244 504.398,36.584 504.398,38.233C504.398,39.883 505.737,41.222 507.387,41.222C509.036,41.222 510.375,39.883 510.375,38.233Z" style="fill:rgb(51,204,69);"/>
                    <path d="M243.72,93.666L237.742,101.635L231.765,93.666L243.72,93.666Z" style="fill:rgb(51,204,69);"/>
                    <path d="M507.387,40.026L507.387,77.726L237.742,77.726L237.742,95.26" style="fill:none;stroke:rgb(51,204,69);stroke-width:1.33px;"/>
                </g>
            </g>
        </g>
    </g>
</svg>
