<?xml version="1.0" encoding="UTF-8" standalone="no"?>
<!DOCTYPE svg PUBLIC "-//W3C//DTD SVG 1.1//EN" "http://www.w3.org/Graphics/SVG/1.1/DTD/svg11.dtd">
<svg width="76px" height="67px" version="1.1" xmlns="http://www.w3.org/2000/svg" xmlns:xlink="http://www.w3.org/1999/xlink" xml:space="preserve" xmlns:serif="http://www.serif.com/" style="fill-rule:evenodd;clip-rule:evenodd;stroke-linejoin:round;stroke-miterlimit:2;">
    <g transform="matrix(1,0,0,1,-0.000868683,0.00024978)">
        <g id="_1763071151248" transform="matrix(0.0513872,0,0,0.0513872,0.000824044,-0.000236944)">
            <path d="M739.731,240.074C833.6,138.419 943.242,92.191 1070.19,110.1C1201.22,128.585 1312.78,222.26 1352.45,348.517C1382.97,445.668 1370.3,554.476 1329.43,653.698C1265.86,808.019 1078.03,1027.38 737.921,1180.73C397.815,1027.38 209.979,808.019 146.414,653.698C105.545,554.476 92.876,445.668 123.395,348.517C163.058,222.26 274.62,128.585 405.65,110.1C532.603,92.19 642.247,138.422 736.119,240.082C736.291,240.269 737.921,242.039 737.921,242.038C737.922,242.04 739.576,240.242 739.731,240.074L739.731,240.074ZM737.92,95.907C532.89,-65.015 211.54,-23.025 63.772,218.827C14.709,299.129 -3.718,392.491 0.612,485.183C8.124,645.964 77.526,786.504 179.468,907.785C316.736,1071.09 515.185,1199.42 733.581,1295.19C733.885,1295.33 736.406,1296.42 737.92,1297.09C739.249,1296.54 741.574,1295.49 742.288,1295.17C959.558,1199.41 1159.11,1071.07 1296.37,907.785C1398.32,786.51 1467.72,645.963 1475.23,485.183C1479.56,392.491 1461.13,299.128 1412.07,218.827C1264.3,-23.026 942.951,-65.015 737.92,95.906L737.92,95.907Z" style="fill:rgb(255,0,0);"/>
            <path d="M732.677,689.531L639.338,643.263C606.894,690.57 583.289,722.587 515.106,703.903C461.585,689.238 445.744,630.578 443.709,581.371C440.931,514.16 464.428,436.534 544.704,440.686C596,443.337 617.857,473.591 629.537,500.787L731.451,448.542C681.251,352.77 563.608,320.199 463.887,346.889C357.776,375.289 304.031,472.902 305.915,578.172C307.841,685.779 359.496,778.734 470.456,802.994C524.558,814.823 583.468,812.073 633.568,786.954C672.34,767.513 715.417,729.992 732.677,689.53L732.677,689.531ZM1172.67,689.531L1079.34,643.263C1046.89,690.57 1023.29,722.587 955.103,703.903C901.582,689.238 885.74,630.578 883.706,581.371C880.927,514.16 904.425,436.534 984.701,440.686C1036,443.337 1057.85,473.591 1069.53,500.787L1171.45,448.542C1121.25,352.77 1003.61,320.199 903.884,346.889C797.773,375.289 744.028,472.902 745.912,578.172C747.838,685.779 799.493,778.734 910.453,802.994C964.555,814.823 1023.47,812.073 1073.57,786.954C1112.34,767.513 1155.41,729.992 1172.67,689.53L1172.67,689.531Z" style="fill:rgb(255,0,0);"/>
        </g>
    </g>
</svg>
