<?xml version="1.0" encoding="UTF-8"?>
<svg xmlns="http://www.w3.org/2000/svg" xmlns:xlink="http://www.w3.org/1999/xlink" width="75pt" height="99pt" viewBox="0 0 75 99" version="1.1">
<defs>
<clipPath id="clip1">
  <path d="M 0 0 L 56 0 L 56 45.394531 L 0 45.394531 Z M 0 0 "/>
</clipPath>
<clipPath id="clip2">
  <path d="M 19 19 L 74.960938 19 L 74.960938 45.394531 L 19 45.394531 Z M 19 19 "/>
</clipPath>
<linearGradient id="linear0" gradientUnits="userSpaceOnUse" x1="0" y1="0" x2="1" y2="0" gradientTransform="matrix(37.481031,0,0,25.590373,-0.0000659551,55.187243)">
<stop offset="0" style="stop-color:rgb(30.196078%,0%,26.27451%);stop-opacity:1;"/>
<stop offset="1" style="stop-color:rgb(10.588235%,73.333333%,66.27451%);stop-opacity:1;"/>
</linearGradient>
<linearGradient id="linear1" gradientUnits="userSpaceOnUse" x1="0" y1="0" x2="1" y2="0" gradientTransform="matrix(-37.481031,0,0,25.590373,74.961997,55.187243)">
<stop offset="0" style="stop-color:rgb(30.196078%,0%,26.27451%);stop-opacity:1;"/>
<stop offset="1" style="stop-color:rgb(10.588235%,73.333333%,66.27451%);stop-opacity:1;"/>
</linearGradient>
</defs>
<g id="surface1">
<g clip-path="url(#clip1)" clip-rule="nonzero">
<path style=" stroke:none;fill-rule:nonzero;fill:rgb(70.980392%,51.764706%,19.215686%);fill-opacity:1;" d="M 37.035156 0 C 33.945312 0.015625 30.992188 0.277344 28.394531 0.730469 C 20.742188 2.070312 19.355469 4.878906 19.355469 10.050781 L 19.355469 16.882812 L 37.433594 16.882812 L 37.433594 19.160156 L 12.570312 19.160156 C 7.3125 19.160156 2.710938 22.292969 1.273438 28.25 C -0.386719 35.078125 -0.460938 39.339844 1.273438 46.46875 C 2.558594 51.773438 5.628906 55.558594 10.882812 55.558594 L 17.101562 55.558594 L 17.101562 47.367188 C 17.101562 41.449219 22.261719 36.230469 28.394531 36.230469 L 46.453125 36.230469 C 51.480469 36.230469 55.496094 32.125 55.496094 27.121094 L 55.496094 10.050781 C 55.496094 5.191406 51.363281 1.542969 46.453125 0.730469 C 43.347656 0.21875 40.125 -0.0117188 37.035156 0 Z M 27.257812 5.496094 C 29.125 5.496094 30.648438 7.03125 30.648438 8.921875 C 30.648438 10.804688 29.125 12.328125 27.257812 12.328125 C 25.382812 12.328125 23.863281 10.804688 23.863281 8.921875 C 23.863281 7.03125 25.382812 5.496094 27.257812 5.496094 Z M 27.257812 5.496094 "/>
</g>
<g clip-path="url(#clip2)" clip-rule="nonzero">
<path style=" stroke:none;fill-rule:nonzero;fill:rgb(70.980392%,59.607843%,19.215686%);fill-opacity:1;" d="M 57.75 19.160156 L 57.75 27.121094 C 57.75 33.292969 52.472656 38.484375 46.453125 38.484375 L 28.394531 38.484375 C 23.449219 38.484375 19.355469 42.683594 19.355469 47.597656 L 19.355469 64.667969 C 19.355469 69.523438 23.617188 72.382812 28.394531 73.777344 C 34.117188 75.445312 39.605469 75.746094 46.453125 73.777344 C 51.007812 72.46875 55.496094 69.839844 55.496094 64.667969 L 55.496094 57.835938 L 37.433594 57.835938 L 37.433594 55.558594 L 64.535156 55.558594 C 69.792969 55.558594 71.75 51.921875 73.578125 46.46875 C 75.464844 40.851562 75.382812 35.453125 73.578125 28.25 C 72.277344 23.0625 69.796875 19.160156 64.535156 19.160156 Z M 47.59375 62.386719 C 49.46875 62.386719 50.984375 63.910156 50.984375 65.792969 C 50.984375 67.683594 49.46875 69.222656 47.59375 69.222656 C 45.726562 69.222656 44.199219 67.683594 44.199219 65.792969 C 44.199219 63.910156 45.726562 62.386719 47.59375 62.386719 Z M 47.59375 62.386719 "/>
</g>
<path style=" stroke:none;fill-rule:evenodd;fill:url(#linear0);" d="M 37.480469 42.390625 L 37.480469 53.636719 L 34.238281 53.703125 C 34.238281 53.703125 32.992188 58.78125 31.3125 61.417969 C 29.746094 63.882812 27.242188 67.832031 24.058594 67.980469 L 9.226562 66.542969 C 4.785156 65.753906 1.617188 65.21875 1.589844 60.757812 L 0.21875 49.308594 C -0.546875 44.550781 0.671875 42.390625 4.214844 42.390625 Z M 29.832031 50.957031 C 30.859375 47.230469 29.21875 46.445312 25.914062 46.445312 L 10.273438 46.445312 C 5.792969 46.230469 5.917969 48.382812 5.917969 50.765625 L 6.855469 59.988281 C 7.1875 62.984375 11.761719 63.722656 14.167969 63.722656 C 14.167969 63.722656 19.878906 64.09375 22.28125 63.722656 C 25.761719 63.1875 26.320312 62.335938 27.832031 58.644531 C 28.722656 56.03125 29.363281 53.472656 29.832031 50.957031 Z M 29.832031 50.957031 "/>
<path style=" stroke:none;fill-rule:evenodd;fill:url(#linear1);" d="M 37.480469 42.390625 L 37.480469 53.636719 L 40.722656 53.703125 C 40.722656 53.703125 41.96875 58.78125 43.648438 61.417969 C 45.214844 63.882812 47.71875 67.832031 50.902344 67.980469 L 65.734375 66.542969 C 70.175781 65.753906 73.34375 65.21875 73.371094 60.757812 L 74.742188 49.308594 C 75.507812 44.550781 74.292969 42.390625 70.746094 42.390625 Z M 45.128906 50.957031 C 44.101562 47.230469 45.742188 46.445312 49.046875 46.445312 L 64.6875 46.445312 C 69.167969 46.230469 69.042969 48.382812 69.042969 50.765625 L 68.105469 59.988281 C 67.777344 62.984375 63.199219 63.722656 60.792969 63.722656 C 60.792969 63.722656 55.085938 64.09375 52.679688 63.722656 C 49.199219 63.1875 48.640625 62.335938 47.128906 58.644531 C 46.238281 56.03125 45.597656 53.472656 45.128906 50.957031 Z M 45.128906 50.957031 "/>
<path style=" stroke:none;fill-rule:nonzero;fill:rgb(25.882353%,25.882353%,25.882353%);fill-opacity:1;" d="M 13.929688 79.859375 C 13.929688 80.152344 13.972656 80.378906 14.070312 80.519531 C 14.171875 80.660156 14.328125 80.757812 14.554688 80.828125 L 14.257812 81.6875 C 13.519531 81.589844 13.050781 81.238281 12.851562 80.617188 C 12.582031 80.96875 12.242188 81.238281 11.816406 81.417969 C 11.402344 81.589844 10.949219 81.6875 10.453125 81.6875 C 9.941406 81.6875 9.5 81.589844 9.132812 81.390625 C 8.75 81.207031 8.464844 80.925781 8.265625 80.574219 C 8.066406 80.222656 7.96875 79.816406 7.96875 79.335938 C 7.96875 78.550781 8.28125 77.957031 8.890625 77.535156 C 9.515625 77.113281 10.410156 76.902344 11.574219 76.902344 L 12.695312 76.902344 L 12.695312 76.269531 C 12.695312 75.75 12.539062 75.355469 12.226562 75.117188 C 11.914062 74.875 11.460938 74.765625 10.863281 74.765625 C 10.296875 74.765625 9.628906 74.890625 8.875 75.15625 L 8.550781 74.242188 C 9.402344 73.917969 10.238281 73.765625 11.0625 73.765625 C 12 73.765625 12.707031 73.976562 13.191406 74.410156 C 13.6875 74.847656 13.929688 75.453125 13.929688 76.214844 Z M 10.765625 80.757812 C 11.132812 80.757812 11.503906 80.660156 11.84375 80.476562 C 12.183594 80.28125 12.46875 80.027344 12.695312 79.6875 L 12.695312 77.734375 L 11.585938 77.734375 C 10.777344 77.734375 10.195312 77.875 9.828125 78.140625 C 9.457031 78.410156 9.289062 78.816406 9.289062 79.324219 C 9.289062 80.28125 9.769531 80.757812 10.765625 80.757812 Z M 10.765625 80.757812 "/>
<path style=" stroke:none;fill-rule:nonzero;fill:rgb(25.882353%,25.882353%,25.882353%);fill-opacity:1;" d="M 20.605469 73.765625 C 21.585938 73.765625 22.296875 74.101562 22.722656 74.792969 C 23.160156 75.480469 23.375 76.453125 23.375 77.71875 C 23.375 78.492188 23.261719 79.183594 23.046875 79.789062 C 22.835938 80.378906 22.492188 80.84375 22.054688 81.179688 C 21.613281 81.519531 21.058594 81.6875 20.421875 81.6875 C 19.570312 81.6875 18.902344 81.390625 18.390625 80.800781 L 18.390625 84.429688 L 17.171875 84.570312 L 17.171875 73.917969 L 18.207031 73.917969 L 18.320312 74.976562 C 18.589844 74.582031 18.929688 74.285156 19.328125 74.074219 C 19.710938 73.863281 20.136719 73.765625 20.605469 73.765625 Z M 20.308594 74.734375 C 19.910156 74.734375 19.554688 74.847656 19.230469 75.085938 C 18.917969 75.3125 18.632812 75.609375 18.390625 75.960938 L 18.390625 79.71875 C 18.605469 80.027344 18.847656 80.25 19.160156 80.421875 C 19.457031 80.589844 19.796875 80.675781 20.152344 80.675781 C 20.789062 80.675781 21.273438 80.433594 21.585938 79.941406 C 21.898438 79.464844 22.066406 78.71875 22.066406 77.703125 C 22.066406 76.707031 21.925781 75.960938 21.628906 75.46875 C 21.34375 74.976562 20.902344 74.734375 20.308594 74.734375 Z M 20.308594 74.734375 "/>
<path style=" stroke:none;fill-rule:nonzero;fill:rgb(25.882353%,25.882353%,25.882353%);fill-opacity:1;" d="M 31.085938 73.75 C 31.285156 73.75 31.46875 73.765625 31.625 73.792969 C 31.796875 73.820312 31.964844 73.863281 32.164062 73.917969 L 31.996094 76.496094 L 30.988281 76.496094 L 30.988281 74.875 L 30.914062 74.875 C 30.332031 74.875 29.824219 75.074219 29.410156 75.496094 C 28.984375 75.902344 28.660156 76.535156 28.390625 77.367188 L 28.390625 80.589844 L 29.949219 80.589844 L 29.949219 81.519531 L 25.976562 81.519531 L 25.976562 80.589844 L 27.167969 80.589844 L 27.167969 74.847656 L 25.976562 74.847656 L 25.976562 73.917969 L 28.105469 73.917969 L 28.332031 75.71875 C 28.644531 75.058594 29.011719 74.566406 29.4375 74.242188 C 29.867188 73.917969 30.417969 73.75 31.085938 73.75 Z M 31.085938 73.75 "/>
<path style=" stroke:none;fill-rule:nonzero;fill:rgb(25.882353%,25.882353%,25.882353%);fill-opacity:1;" d="M 35.605469 78.15625 C 35.617188 78.71875 35.734375 79.183594 35.929688 79.5625 C 36.144531 79.941406 36.414062 80.222656 36.742188 80.40625 C 37.066406 80.589844 37.4375 80.675781 37.847656 80.675781 C 38.214844 80.675781 38.570312 80.617188 38.882812 80.503906 C 39.210938 80.394531 39.535156 80.222656 39.890625 79.984375 L 40.460938 80.785156 C 40.105469 81.066406 39.691406 81.292969 39.222656 81.449219 C 38.769531 81.601562 38.300781 81.6875 37.832031 81.6875 C 37.09375 81.6875 36.46875 81.519531 35.929688 81.195312 C 35.40625 80.871094 35.007812 80.40625 34.726562 79.800781 C 34.457031 79.210938 34.328125 78.519531 34.328125 77.734375 C 34.328125 76.960938 34.457031 76.285156 34.738281 75.679688 C 35.007812 75.074219 35.40625 74.609375 35.902344 74.269531 C 36.414062 73.933594 36.996094 73.765625 37.664062 73.765625 C 38.316406 73.765625 38.871094 73.90625 39.335938 74.214844 C 39.804688 74.511719 40.160156 74.933594 40.402344 75.496094 C 40.65625 76.058594 40.785156 76.71875 40.785156 77.480469 C 40.785156 77.703125 40.769531 77.929688 40.757812 78.15625 Z M 37.675781 74.75 C 37.09375 74.75 36.613281 74.960938 36.242188 75.367188 C 35.859375 75.792969 35.660156 76.394531 35.605469 77.210938 L 39.609375 77.210938 C 39.59375 76.410156 39.410156 75.804688 39.066406 75.382812 C 38.726562 74.960938 38.273438 74.75 37.675781 74.75 Z M 37.675781 74.75 "/>
<path style=" stroke:none;fill-rule:nonzero;fill:rgb(25.882353%,25.882353%,25.882353%);fill-opacity:1;" d="M 43.375 81.519531 L 43.375 73.917969 L 44.410156 73.917969 L 44.507812 74.976562 C 44.820312 74.59375 45.207031 74.300781 45.660156 74.089844 C 46.128906 73.863281 46.582031 73.765625 47.050781 73.765625 C 47.773438 73.765625 48.3125 73.949219 48.667969 74.339844 C 49.023438 74.722656 49.195312 75.269531 49.195312 76.003906 L 49.195312 81.519531 L 47.972656 81.519531 L 47.972656 76.886719 C 47.972656 76.324219 47.945312 75.890625 47.886719 75.59375 C 47.816406 75.296875 47.703125 75.074219 47.519531 74.933594 C 47.320312 74.792969 47.050781 74.707031 46.667969 74.707031 C 46.253906 74.707031 45.859375 74.835938 45.503906 75.085938 C 45.132812 75.339844 44.835938 75.636719 44.59375 75.988281 L 44.59375 81.519531 Z M 43.375 81.519531 "/>
<path style=" stroke:none;fill-rule:nonzero;fill:rgb(25.882353%,25.882353%,25.882353%);fill-opacity:1;" d="M 56.691406 70.710938 L 57.914062 70.867188 L 57.914062 81.519531 L 56.847656 81.519531 L 56.734375 80.519531 C 56.453125 80.914062 56.125 81.207031 55.757812 81.390625 C 55.386719 81.589844 54.988281 81.6875 54.550781 81.6875 C 53.585938 81.6875 52.859375 81.335938 52.363281 80.617188 C 51.882812 79.914062 51.640625 78.957031 51.640625 77.734375 C 51.640625 76.960938 51.753906 76.285156 51.996094 75.679688 C 52.238281 75.074219 52.578125 74.609375 53.03125 74.269531 C 53.484375 73.933594 54.023438 73.765625 54.648438 73.765625 C 55.074219 73.765625 55.472656 73.835938 55.800781 73.988281 C 56.140625 74.128906 56.4375 74.355469 56.691406 74.652344 Z M 54.960938 74.734375 C 54.324219 74.734375 53.824219 74.988281 53.484375 75.496094 C 53.144531 75.988281 52.972656 76.734375 52.972656 77.734375 C 52.972656 78.71875 53.128906 79.449219 53.441406 79.957031 C 53.753906 80.449219 54.210938 80.703125 54.804688 80.703125 C 55.527344 80.703125 56.167969 80.308594 56.691406 79.507812 L 56.691406 75.707031 C 56.480469 75.398438 56.238281 75.15625 55.941406 74.988281 C 55.644531 74.820312 55.316406 74.734375 54.960938 74.734375 Z M 54.960938 74.734375 "/>
<path style=" stroke:none;fill-rule:nonzero;fill:rgb(25.882353%,25.882353%,25.882353%);fill-opacity:1;" d="M 61.808594 78.15625 C 61.820312 78.71875 61.9375 79.183594 62.132812 79.5625 C 62.347656 79.941406 62.617188 80.222656 62.945312 80.40625 C 63.269531 80.589844 63.640625 80.675781 64.050781 80.675781 C 64.417969 80.675781 64.773438 80.617188 65.085938 80.503906 C 65.414062 80.394531 65.738281 80.222656 66.09375 79.984375 L 66.660156 80.785156 C 66.308594 81.066406 65.894531 81.292969 65.425781 81.449219 C 64.972656 81.601562 64.503906 81.6875 64.035156 81.6875 C 63.296875 81.6875 62.671875 81.519531 62.132812 81.195312 C 61.609375 80.871094 61.210938 80.40625 60.929688 79.800781 C 60.660156 79.210938 60.53125 78.519531 60.53125 77.734375 C 60.53125 76.960938 60.660156 76.285156 60.941406 75.679688 C 61.210938 75.074219 61.609375 74.609375 62.105469 74.269531 C 62.617188 73.933594 63.199219 73.765625 63.867188 73.765625 C 64.519531 73.765625 65.074219 73.90625 65.539062 74.214844 C 66.007812 74.511719 66.363281 74.933594 66.605469 75.496094 C 66.859375 76.058594 66.988281 76.71875 66.988281 77.480469 C 66.988281 77.703125 66.972656 77.929688 66.960938 78.15625 Z M 63.878906 74.75 C 63.296875 74.75 62.816406 74.960938 62.445312 75.367188 C 62.0625 75.792969 61.863281 76.394531 61.808594 77.210938 L 65.808594 77.210938 C 65.796875 76.410156 65.613281 75.804688 65.269531 75.382812 C 64.929688 74.960938 64.476562 74.75 63.878906 74.75 Z M 63.878906 74.75 "/>
<path style=" stroke:none;fill-rule:nonzero;fill:rgb(25.882353%,25.882353%,25.882353%);fill-opacity:1;" d="M 12.269531 87.667969 C 13.25 87.667969 13.957031 88.019531 14.414062 88.738281 C 14.867188 89.441406 15.09375 90.441406 15.09375 91.734375 C 15.09375 92.535156 14.980469 93.242188 14.738281 93.859375 C 14.511719 94.480469 14.171875 94.957031 13.714844 95.308594 C 13.277344 95.660156 12.738281 95.828125 12.128906 95.828125 C 11.375 95.828125 10.765625 95.5625 10.296875 95.042969 L 10.296875 98.546875 L 7.996094 98.785156 L 7.996094 87.921875 L 10.027344 87.921875 L 10.140625 88.78125 C 10.4375 88.398438 10.765625 88.117188 11.132812 87.949219 C 11.503906 87.765625 11.886719 87.667969 12.269531 87.667969 Z M 11.558594 89.355469 C 11.304688 89.355469 11.078125 89.425781 10.863281 89.582031 C 10.664062 89.738281 10.464844 89.949219 10.296875 90.242188 L 10.296875 93.480469 C 10.453125 93.71875 10.636719 93.886719 10.808594 94 C 10.976562 94.113281 11.191406 94.15625 11.429688 94.15625 C 11.855469 94.15625 12.167969 93.972656 12.398438 93.59375 C 12.609375 93.210938 12.722656 92.605469 12.722656 91.761719 C 12.722656 91.144531 12.679688 90.664062 12.59375 90.3125 C 12.496094 89.960938 12.367188 89.707031 12.199219 89.566406 C 12.027344 89.425781 11.816406 89.355469 11.558594 89.355469 Z M 11.558594 89.355469 "/>
<path style=" stroke:none;fill-rule:nonzero;fill:rgb(25.882353%,25.882353%,25.882353%);fill-opacity:1;" d="M 21.457031 95.589844 C 21.117188 96.632812 20.589844 97.40625 19.894531 97.925781 C 19.214844 98.445312 18.292969 98.742188 17.128906 98.800781 L 16.875 97.195312 C 17.371094 97.125 17.78125 97.039062 18.09375 96.914062 C 18.40625 96.785156 18.660156 96.632812 18.847656 96.421875 C 19.042969 96.210938 19.214844 95.929688 19.355469 95.589844 L 18.578125 95.589844 L 16.121094 87.921875 L 18.546875 87.921875 L 20.050781 94.128906 L 21.683594 87.921875 L 24.039062 87.921875 Z M 21.457031 95.589844 "/>
<path style=" stroke:none;fill-rule:nonzero;fill:rgb(25.882353%,25.882353%,25.882353%);fill-opacity:1;" d="M 32.421875 95.140625 C 32.09375 95.351562 31.722656 95.519531 31.285156 95.648438 C 30.859375 95.773438 30.390625 95.828125 29.894531 95.828125 C 28.898438 95.828125 28.148438 95.589844 27.652344 95.082031 C 27.15625 94.589844 26.898438 93.886719 26.898438 92.972656 L 26.898438 89.496094 L 25.28125 89.496094 L 25.28125 87.921875 L 26.898438 87.921875 L 26.898438 86.261719 L 29.199219 85.992188 L 29.199219 87.921875 L 31.695312 87.921875 L 31.46875 89.496094 L 29.199219 89.496094 L 29.199219 92.972656 C 29.199219 93.351562 29.285156 93.632812 29.46875 93.789062 C 29.636719 93.957031 29.90625 94.042969 30.304688 94.042969 C 30.789062 94.042969 31.242188 93.929688 31.652344 93.691406 Z M 32.421875 95.140625 "/>
<path style=" stroke:none;fill-rule:nonzero;fill:rgb(25.882353%,25.882353%,25.882353%);fill-opacity:1;" d="M 36.5 88.679688 C 37.136719 88.003906 37.902344 87.667969 38.769531 87.667969 C 39.453125 87.667969 39.976562 87.878906 40.34375 88.273438 C 40.714844 88.667969 40.898438 89.230469 40.898438 89.960938 L 40.898438 95.589844 L 38.601562 95.589844 L 38.601562 90.59375 C 38.601562 90.285156 38.570312 90.03125 38.527344 89.863281 C 38.472656 89.679688 38.402344 89.554688 38.300781 89.46875 C 38.1875 89.398438 38.046875 89.355469 37.847656 89.355469 C 37.621094 89.355469 37.394531 89.441406 37.179688 89.597656 C 36.953125 89.75 36.726562 89.988281 36.5 90.285156 L 36.5 95.589844 L 34.199219 95.589844 L 34.199219 84.882812 L 36.5 84.65625 Z M 36.5 88.679688 "/>
<path style=" stroke:none;fill-rule:nonzero;fill:rgb(25.882353%,25.882353%,25.882353%);fill-opacity:1;" d="M 46.285156 87.667969 C 47.066406 87.667969 47.730469 87.835938 48.300781 88.175781 C 48.867188 88.511719 49.292969 88.976562 49.589844 89.597656 C 49.890625 90.199219 50.03125 90.917969 50.03125 91.734375 C 50.03125 92.59375 49.890625 93.324219 49.589844 93.929688 C 49.292969 94.550781 48.851562 95.011719 48.300781 95.351562 C 47.730469 95.675781 47.066406 95.828125 46.285156 95.828125 C 45.488281 95.828125 44.820312 95.675781 44.253906 95.351562 C 43.6875 95.027344 43.261719 94.5625 42.960938 93.945312 C 42.679688 93.339844 42.523438 92.605469 42.523438 91.75 C 42.523438 90.933594 42.679688 90.230469 42.976562 89.609375 C 43.273438 89.003906 43.699219 88.527344 44.269531 88.1875 C 44.835938 87.835938 45.503906 87.667969 46.285156 87.667969 Z M 46.285156 89.355469 C 45.816406 89.355469 45.460938 89.554688 45.234375 89.933594 C 45.007812 90.3125 44.894531 90.917969 44.894531 91.75 C 44.894531 92.59375 45.007812 93.210938 45.234375 93.59375 C 45.460938 93.972656 45.800781 94.15625 46.285156 94.15625 C 46.753906 94.15625 47.105469 93.972656 47.335938 93.578125 C 47.546875 93.199219 47.660156 92.578125 47.660156 91.734375 C 47.660156 90.917969 47.546875 90.3125 47.320312 89.933594 C 47.09375 89.554688 46.753906 89.355469 46.285156 89.355469 Z M 46.285156 89.355469 "/>
<path style=" stroke:none;fill-rule:nonzero;fill:rgb(25.882353%,25.882353%,25.882353%);fill-opacity:1;" d="M 51.667969 95.589844 L 51.667969 87.921875 L 53.667969 87.921875 L 53.839844 88.808594 C 54.179688 88.429688 54.550781 88.132812 54.933594 87.949219 C 55.316406 87.765625 55.757812 87.667969 56.238281 87.667969 C 56.90625 87.667969 57.417969 87.878906 57.800781 88.273438 C 58.167969 88.679688 58.367188 89.242188 58.367188 89.960938 L 58.367188 95.589844 L 56.070312 95.589844 L 56.070312 90.625 C 56.070312 90.300781 56.039062 90.046875 55.996094 89.863281 C 55.941406 89.679688 55.871094 89.554688 55.769531 89.46875 C 55.65625 89.398438 55.515625 89.355469 55.316406 89.355469 C 55.089844 89.355469 54.863281 89.425781 54.636719 89.582031 C 54.421875 89.722656 54.195312 89.933594 53.96875 90.230469 L 53.96875 95.589844 Z M 51.667969 95.589844 "/>
<path style=" stroke:none;fill-rule:nonzero;fill:rgb(25.882353%,25.882353%,25.882353%);fill-opacity:1;" d="M 60.105469 96.492188 L 67.386719 96.492188 L 67.386719 98.277344 L 60.105469 98.277344 Z M 60.105469 96.492188 "/>
</g>
</svg>
