<?xml version="1.0" encoding="UTF-8" standalone="no"?>
<!DOCTYPE svg PUBLIC "-//W3C//DTD SVG 1.1//EN" "http://www.w3.org/Graphics/SVG/1.1/DTD/svg11.dtd">
<svg width="410px" height="120px" version="1.1" xmlns="http://www.w3.org/2000/svg" xmlns:xlink="http://www.w3.org/1999/xlink" xml:space="preserve" xmlns:serif="http://www.serif.com/" style="fill-rule:evenodd;clip-rule:evenodd;stroke-linecap:round;stroke-linejoin:round;stroke-miterlimit:1.5;">
    <g id="join-list-light" transform="matrix(0.213542,0,0,0.111111,0,0)">
        <rect x="0" y="0" width="1920" height="1080" style="fill:none;"/>
        <g transform="matrix(2.56039,0,0,4.92075,-1188.79,-1393.04)">
            <g transform="matrix(71.1984,0,0,71.1984,497,370)">
                <path d="M0.365,-0.474L0.25,-0.474L0.23,-0.761L0.384,-0.761L0.365,-0.474Z" style="fill:rgb(242,94,13);fill-rule:nonzero;"/>
            </g>
            <g transform="matrix(71.1984,0,0,71.1984,540.814,370)">
                <path d="M0.075,-0.49L0.541,-0.49L0.541,-0.364L0.075,-0.364L0.075,-0.49ZM0.075,-0.274L0.541,-0.274L0.541,-0.149L0.075,-0.149L0.075,-0.274Z" style="fill:rgb(242,94,13);fill-rule:nonzero;"/>
            </g>
            <g transform="matrix(71.1984,0,0,71.1984,584.629,370)">
                <path d="M0.365,-0.474L0.25,-0.474L0.23,-0.761L0.384,-0.761L0.365,-0.474Z" style="fill:rgb(242,94,13);fill-rule:nonzero;"/>
            </g>
            <g transform="matrix(71.1984,0,0,71.1984,628.443,370)">
                <path d="M0.217,-0.079C0.217,-0.095 0.221,-0.11 0.229,-0.124C0.237,-0.138 0.247,-0.149 0.261,-0.157C0.275,-0.165 0.29,-0.169 0.307,-0.169C0.324,-0.169 0.339,-0.165 0.353,-0.157C0.367,-0.149 0.378,-0.138 0.386,-0.124C0.394,-0.11 0.397,-0.095 0.397,-0.079C0.397,-0.062 0.394,-0.047 0.386,-0.033C0.378,-0.019 0.367,-0.008 0.353,-0C0.339,0.008 0.324,0.012 0.307,0.012C0.29,0.012 0.275,0.008 0.261,-0C0.247,-0.008 0.237,-0.019 0.229,-0.033C0.221,-0.047 0.217,-0.062 0.217,-0.079Z" style="fill-rule:nonzero;"/>
            </g>
            <g transform="matrix(71.1984,0,0,71.1984,672.258,370)">
                <path d="M0.379,-0.83C0.398,-0.83 0.414,-0.826 0.429,-0.818C0.443,-0.81 0.454,-0.799 0.463,-0.785C0.471,-0.771 0.475,-0.756 0.475,-0.738C0.475,-0.721 0.471,-0.706 0.463,-0.692C0.454,-0.678 0.443,-0.667 0.428,-0.659C0.414,-0.651 0.398,-0.647 0.379,-0.647C0.361,-0.647 0.344,-0.651 0.33,-0.659C0.315,-0.667 0.304,-0.678 0.295,-0.692C0.287,-0.706 0.283,-0.721 0.283,-0.738C0.283,-0.756 0.287,-0.771 0.295,-0.785C0.304,-0.799 0.315,-0.81 0.33,-0.818C0.344,-0.826 0.361,-0.83 0.379,-0.83ZM0.485,-0.158C0.485,-0.08 0.47,-0.016 0.442,0.035C0.413,0.085 0.37,0.126 0.314,0.156C0.257,0.186 0.185,0.21 0.097,0.227L0.071,0.104C0.13,0.09 0.177,0.074 0.213,0.055C0.249,0.036 0.276,0.011 0.295,-0.022C0.313,-0.054 0.323,-0.096 0.323,-0.148L0.323,-0.434L0.127,-0.434L0.127,-0.545L0.485,-0.545L0.485,-0.158Z" style="fill-rule:nonzero;"/>
            </g>
            <g transform="matrix(71.1984,0,0,71.1984,716.072,370)">
                <path d="M0.308,-0.563C0.363,-0.563 0.41,-0.551 0.45,-0.527C0.49,-0.503 0.52,-0.47 0.541,-0.426C0.562,-0.383 0.572,-0.332 0.572,-0.274C0.572,-0.213 0.562,-0.161 0.541,-0.118C0.52,-0.074 0.489,-0.041 0.45,-0.017C0.41,0.006 0.363,0.017 0.308,0.017C0.252,0.017 0.205,0.006 0.165,-0.017C0.125,-0.04 0.095,-0.073 0.074,-0.117C0.054,-0.16 0.043,-0.212 0.043,-0.273C0.043,-0.331 0.054,-0.381 0.075,-0.425C0.096,-0.468 0.126,-0.502 0.166,-0.526C0.206,-0.551 0.253,-0.563 0.308,-0.563ZM0.308,-0.443C0.275,-0.443 0.25,-0.429 0.234,-0.402C0.218,-0.375 0.21,-0.332 0.21,-0.273C0.21,-0.213 0.218,-0.169 0.234,-0.142C0.25,-0.115 0.274,-0.102 0.308,-0.102C0.341,-0.102 0.366,-0.115 0.382,-0.143C0.397,-0.17 0.405,-0.214 0.405,-0.274C0.405,-0.332 0.397,-0.375 0.381,-0.402C0.365,-0.429 0.341,-0.443 0.308,-0.443Z" style="fill-rule:nonzero;"/>
            </g>
            <g transform="matrix(71.1984,0,0,71.1984,759.886,370)">
                <path d="M0.307,-0.83C0.325,-0.83 0.342,-0.826 0.356,-0.818C0.37,-0.81 0.382,-0.799 0.39,-0.785C0.398,-0.771 0.402,-0.756 0.402,-0.738C0.402,-0.721 0.398,-0.706 0.39,-0.692C0.382,-0.678 0.37,-0.667 0.356,-0.659C0.341,-0.651 0.325,-0.647 0.307,-0.647C0.288,-0.647 0.272,-0.651 0.257,-0.659C0.242,-0.667 0.231,-0.678 0.223,-0.692C0.214,-0.706 0.21,-0.721 0.21,-0.738C0.21,-0.756 0.214,-0.771 0.223,-0.785C0.231,-0.799 0.242,-0.81 0.257,-0.818C0.272,-0.826 0.288,-0.83 0.307,-0.83ZM0.093,-0.545L0.405,-0.545L0.405,-0.111L0.543,-0.111L0.543,-0L0.088,-0L0.088,-0.111L0.243,-0.111L0.243,-0.434L0.093,-0.434L0.093,-0.545Z" style="fill-rule:nonzero;"/>
            </g>
            <g transform="matrix(71.1984,0,0,71.1984,803.701,370)">
                <path d="M0.072,-0L0.072,-0.545L0.213,-0.545L0.225,-0.482C0.249,-0.509 0.275,-0.53 0.302,-0.543C0.329,-0.556 0.36,-0.563 0.394,-0.563C0.441,-0.563 0.477,-0.548 0.504,-0.52C0.53,-0.491 0.544,-0.451 0.544,-0.4L0.544,-0L0.382,-0L0.382,-0.353C0.382,-0.376 0.38,-0.394 0.377,-0.407C0.373,-0.42 0.368,-0.429 0.361,-0.435C0.353,-0.44 0.343,-0.443 0.329,-0.443C0.313,-0.443 0.297,-0.438 0.281,-0.427C0.266,-0.417 0.25,-0.402 0.234,-0.381L0.234,-0L0.072,-0Z" style="fill-rule:nonzero;"/>
            </g>
            <g transform="matrix(71.1984,0,0,71.1984,847.515,370)">
                <path d="M0.218,-0.359C0.218,-0.289 0.226,-0.228 0.242,-0.177C0.258,-0.125 0.281,-0.078 0.313,-0.036C0.344,0.006 0.385,0.05 0.437,0.096L0.392,0.144C0.332,0.095 0.284,0.047 0.246,0C0.208,-0.047 0.179,-0.099 0.158,-0.158C0.138,-0.216 0.128,-0.283 0.128,-0.359C0.128,-0.435 0.138,-0.502 0.158,-0.56C0.179,-0.618 0.208,-0.671 0.246,-0.718C0.284,-0.765 0.332,-0.813 0.392,-0.862L0.437,-0.814C0.385,-0.768 0.343,-0.723 0.312,-0.682C0.281,-0.64 0.257,-0.593 0.242,-0.542C0.226,-0.49 0.218,-0.429 0.218,-0.359Z" style="fill-rule:nonzero;"/>
            </g>
            <g transform="matrix(71.1984,0,0,71.1984,891.329,370)">
                <path d="M0.459,-0.551C0.49,-0.551 0.515,-0.541 0.534,-0.519C0.554,-0.498 0.564,-0.459 0.564,-0.402L0.564,-0L0.484,-0L0.484,-0.388C0.484,-0.414 0.483,-0.433 0.481,-0.446C0.479,-0.459 0.476,-0.468 0.47,-0.475C0.464,-0.481 0.455,-0.484 0.442,-0.484C0.407,-0.484 0.375,-0.463 0.348,-0.419L0.348,-0L0.267,-0L0.267,-0.388C0.267,-0.414 0.266,-0.433 0.265,-0.446C0.263,-0.459 0.259,-0.468 0.253,-0.475C0.248,-0.481 0.238,-0.484 0.226,-0.484C0.19,-0.484 0.159,-0.463 0.131,-0.419L0.131,-0L0.052,-0L0.052,-0.54L0.119,-0.54L0.125,-0.477C0.141,-0.501 0.158,-0.519 0.177,-0.532C0.195,-0.545 0.217,-0.551 0.242,-0.551C0.293,-0.551 0.326,-0.528 0.34,-0.48C0.356,-0.503 0.373,-0.521 0.392,-0.533C0.411,-0.545 0.433,-0.551 0.459,-0.551Z" style="fill:rgb(38,145,217);fill-rule:nonzero;"/>
            </g>
            <g transform="matrix(71.1984,0,0,71.1984,935.144,370)">
                <path d="M0.363,0.004C0.349,0.044 0.332,0.079 0.313,0.108C0.293,0.138 0.268,0.162 0.237,0.181C0.205,0.201 0.167,0.212 0.122,0.217L0.108,0.148C0.144,0.142 0.173,0.133 0.195,0.121C0.217,0.108 0.234,0.093 0.246,0.074C0.258,0.055 0.27,0.03 0.281,-0L0.252,-0L0.063,-0.54L0.155,-0.54L0.31,-0.066L0.463,-0.54L0.552,-0.54L0.363,0.004Z" style="fill:rgb(38,145,217);fill-rule:nonzero;"/>
            </g>
            <g transform="matrix(71.1984,0,0,71.1984,978.958,370)">
                <path d="M0.313,-0.133C0.313,-0.108 0.321,-0.089 0.337,-0.078C0.353,-0.066 0.375,-0.06 0.403,-0.06C0.432,-0.06 0.462,-0.066 0.493,-0.079L0.516,-0.016C0.5,-0.008 0.481,-0.001 0.459,0.004C0.437,0.009 0.414,0.012 0.388,0.012C0.356,0.012 0.328,0.006 0.304,-0.006C0.279,-0.018 0.261,-0.035 0.247,-0.058C0.234,-0.081 0.227,-0.107 0.227,-0.138L0.227,-0.689L0.062,-0.689L0.062,-0.757L0.313,-0.757L0.313,-0.133Z" style="fill:rgb(38,145,217);fill-rule:nonzero;"/>
            </g>
            <g transform="matrix(71.1984,0,0,71.1984,1022.77,370)">
                <path d="M0.308,-0.793C0.326,-0.793 0.342,-0.787 0.353,-0.776C0.365,-0.764 0.371,-0.75 0.371,-0.733C0.371,-0.715 0.365,-0.7 0.353,-0.689C0.342,-0.677 0.326,-0.671 0.308,-0.671C0.29,-0.671 0.275,-0.677 0.263,-0.689C0.251,-0.701 0.246,-0.715 0.246,-0.733C0.246,-0.75 0.251,-0.764 0.263,-0.776C0.275,-0.787 0.29,-0.793 0.308,-0.793ZM0.129,-0.54L0.376,-0.54L0.376,-0.068L0.529,-0.068L0.529,-0L0.124,-0L0.124,-0.068L0.29,-0.068L0.29,-0.472L0.129,-0.472L0.129,-0.54Z" style="fill:rgb(38,145,217);fill-rule:nonzero;"/>
            </g>
            <g transform="matrix(71.1984,0,0,71.1984,1066.59,370)">
                <path d="M0.287,-0.059C0.328,-0.059 0.361,-0.067 0.385,-0.083C0.409,-0.098 0.421,-0.119 0.421,-0.145C0.421,-0.163 0.418,-0.178 0.412,-0.189C0.405,-0.2 0.393,-0.211 0.374,-0.221C0.355,-0.23 0.328,-0.239 0.29,-0.249C0.249,-0.259 0.215,-0.27 0.189,-0.282C0.163,-0.294 0.142,-0.31 0.128,-0.33C0.113,-0.349 0.106,-0.374 0.106,-0.404C0.106,-0.434 0.115,-0.46 0.132,-0.482C0.149,-0.504 0.173,-0.521 0.204,-0.533C0.235,-0.545 0.271,-0.551 0.311,-0.551C0.352,-0.551 0.389,-0.546 0.421,-0.535C0.454,-0.524 0.483,-0.51 0.507,-0.492L0.469,-0.433C0.447,-0.449 0.423,-0.461 0.398,-0.469C0.373,-0.477 0.345,-0.482 0.312,-0.482C0.272,-0.482 0.242,-0.475 0.223,-0.463C0.205,-0.45 0.195,-0.433 0.195,-0.411C0.195,-0.395 0.2,-0.382 0.208,-0.371C0.217,-0.361 0.231,-0.352 0.251,-0.344C0.271,-0.336 0.3,-0.326 0.339,-0.316C0.378,-0.305 0.41,-0.294 0.435,-0.281C0.46,-0.268 0.479,-0.251 0.493,-0.229C0.507,-0.208 0.514,-0.182 0.514,-0.149C0.514,-0.113 0.504,-0.082 0.483,-0.058C0.461,-0.034 0.434,-0.016 0.399,-0.005C0.365,0.006 0.327,0.012 0.287,0.012C0.202,0.012 0.131,-0.012 0.075,-0.061L0.125,-0.118C0.146,-0.099 0.171,-0.085 0.199,-0.075C0.227,-0.065 0.256,-0.059 0.287,-0.059Z" style="fill:rgb(38,145,217);fill-rule:nonzero;"/>
            </g>
            <g transform="matrix(71.1984,0,0,71.1984,1110.4,370)">
                <path d="M0.532,-0.027C0.514,-0.015 0.491,-0.006 0.465,0.001C0.438,0.008 0.412,0.012 0.387,0.012C0.349,0.012 0.317,0.005 0.289,-0.009C0.262,-0.023 0.242,-0.042 0.227,-0.067C0.213,-0.091 0.206,-0.119 0.206,-0.151L0.206,-0.473L0.082,-0.473L0.082,-0.54L0.206,-0.54L0.206,-0.663L0.292,-0.673L0.292,-0.54L0.478,-0.54L0.468,-0.473L0.292,-0.473L0.292,-0.152C0.292,-0.122 0.3,-0.098 0.316,-0.083C0.332,-0.068 0.359,-0.06 0.395,-0.06C0.431,-0.06 0.466,-0.069 0.498,-0.086L0.532,-0.027Z" style="fill:rgb(38,145,217);fill-rule:nonzero;"/>
            </g>
            <g transform="matrix(71.1984,0,0,71.1984,1154.22,370)">
                <path d="M0.397,-0.359C0.397,-0.429 0.39,-0.49 0.374,-0.542C0.358,-0.593 0.335,-0.64 0.304,-0.682C0.272,-0.723 0.231,-0.768 0.178,-0.814L0.223,-0.862C0.283,-0.813 0.332,-0.765 0.37,-0.718C0.408,-0.671 0.437,-0.618 0.457,-0.56C0.478,-0.502 0.488,-0.435 0.488,-0.359C0.488,-0.283 0.478,-0.216 0.457,-0.158C0.437,-0.099 0.408,-0.047 0.37,0C0.332,0.047 0.283,0.095 0.223,0.144L0.178,0.096C0.23,0.05 0.272,0.006 0.303,-0.036C0.334,-0.078 0.358,-0.125 0.374,-0.177C0.389,-0.228 0.397,-0.289 0.397,-0.359Z" style="fill-rule:nonzero;"/>
            </g>
        </g>
        <g transform="matrix(1.93875,0,0,3.72603,-810.792,-987.04)">
            <g transform="matrix(55.4502,0,0,55.4502,449,540)">
                <path d="M0.375,-0.516C0.373,-0.521 0.37,-0.529 0.367,-0.541C0.364,-0.552 0.361,-0.561 0.359,-0.567C0.357,-0.572 0.354,-0.579 0.351,-0.588C0.348,-0.596 0.344,-0.603 0.341,-0.608C0.337,-0.613 0.333,-0.618 0.329,-0.622C0.306,-0.645 0.278,-0.652 0.245,-0.643C0.212,-0.634 0.189,-0.614 0.177,-0.582C0.168,-0.559 0.176,-0.531 0.199,-0.499C0.203,-0.493 0.208,-0.487 0.213,-0.481C0.218,-0.474 0.223,-0.469 0.227,-0.464L0.246,-0.445L0.262,-0.428L0.284,-0.407L0.303,-0.388L0.338,-0.354C0.347,-0.345 0.358,-0.332 0.371,-0.317C0.384,-0.302 0.395,-0.288 0.403,-0.277C0.41,-0.265 0.418,-0.251 0.427,-0.234C0.436,-0.217 0.442,-0.202 0.445,-0.187C0.448,-0.172 0.45,-0.156 0.45,-0.139C0.449,-0.121 0.447,-0.103 0.442,-0.085C0.432,-0.052 0.415,-0.027 0.39,-0.008C0.365,0.011 0.336,0.022 0.305,0.026C0.276,0.029 0.247,0.027 0.218,0.02C0.188,0.012 0.162,-0 0.139,-0.017C0.11,-0.038 0.088,-0.066 0.073,-0.101C0.057,-0.135 0.049,-0.17 0.046,-0.207C0.045,-0.216 0.048,-0.224 0.054,-0.231C0.06,-0.238 0.068,-0.241 0.077,-0.242C0.086,-0.243 0.093,-0.24 0.101,-0.234C0.108,-0.228 0.111,-0.22 0.112,-0.211C0.114,-0.182 0.121,-0.155 0.132,-0.13C0.143,-0.105 0.158,-0.085 0.177,-0.071C0.194,-0.059 0.213,-0.05 0.234,-0.045C0.255,-0.039 0.276,-0.037 0.297,-0.04C0.34,-0.045 0.367,-0.067 0.378,-0.105C0.382,-0.116 0.384,-0.128 0.384,-0.139C0.384,-0.15 0.383,-0.161 0.38,-0.172C0.377,-0.183 0.373,-0.194 0.368,-0.206C0.362,-0.217 0.356,-0.228 0.349,-0.239C0.342,-0.249 0.333,-0.26 0.323,-0.272C0.312,-0.284 0.302,-0.295 0.292,-0.306L0.238,-0.36L0.216,-0.38L0.198,-0.399C0.189,-0.408 0.183,-0.415 0.178,-0.42L0.162,-0.439C0.155,-0.446 0.15,-0.453 0.145,-0.46C0.108,-0.511 0.098,-0.559 0.115,-0.604C0.124,-0.629 0.139,-0.651 0.16,-0.669C0.18,-0.687 0.202,-0.7 0.227,-0.707C0.251,-0.714 0.277,-0.715 0.304,-0.709C0.331,-0.703 0.354,-0.69 0.375,-0.67C0.382,-0.663 0.389,-0.655 0.395,-0.646C0.401,-0.636 0.406,-0.626 0.411,-0.615C0.416,-0.604 0.419,-0.594 0.422,-0.587C0.425,-0.579 0.428,-0.569 0.431,-0.557C0.434,-0.545 0.436,-0.538 0.437,-0.536C0.44,-0.527 0.44,-0.519 0.436,-0.511C0.431,-0.503 0.425,-0.498 0.416,-0.495C0.407,-0.492 0.399,-0.492 0.391,-0.497C0.383,-0.501 0.378,-0.507 0.375,-0.516Z" style="fill:rgb(82,82,82);fill-rule:nonzero;"/>
            </g>
            <g transform="matrix(55.4502,0,0,55.4502,473.454,540)">
                <path d="M0.288,-0.335C0.292,-0.336 0.298,-0.336 0.306,-0.337C0.303,-0.352 0.297,-0.367 0.287,-0.384C0.276,-0.402 0.265,-0.416 0.252,-0.427C0.239,-0.438 0.228,-0.443 0.219,-0.443C0.191,-0.443 0.166,-0.425 0.144,-0.389C0.134,-0.372 0.125,-0.353 0.118,-0.332C0.153,-0.331 0.184,-0.331 0.211,-0.332C0.245,-0.333 0.271,-0.334 0.288,-0.335ZM0.104,-0.263L0.102,-0.246C0.098,-0.189 0.106,-0.143 0.127,-0.107C0.147,-0.07 0.177,-0.052 0.216,-0.051C0.237,-0.05 0.254,-0.053 0.267,-0.06C0.28,-0.067 0.298,-0.08 0.319,-0.1C0.324,-0.105 0.329,-0.11 0.334,-0.117C0.339,-0.124 0.344,-0.13 0.348,-0.135L0.362,-0.159L0.375,-0.18C0.38,-0.188 0.388,-0.193 0.397,-0.195C0.406,-0.196 0.414,-0.195 0.422,-0.19C0.429,-0.185 0.434,-0.177 0.436,-0.168C0.437,-0.159 0.436,-0.15 0.431,-0.143C0.43,-0.142 0.425,-0.136 0.418,-0.125L0.402,-0.099C0.397,-0.092 0.391,-0.083 0.384,-0.074C0.377,-0.064 0.37,-0.056 0.363,-0.051C0.338,-0.027 0.314,-0.01 0.293,0.001C0.272,0.012 0.245,0.017 0.214,0.016C0.179,0.015 0.15,0.006 0.125,-0.011C0.099,-0.028 0.081,-0.05 0.068,-0.077C0.055,-0.103 0.046,-0.132 0.041,-0.161C0.036,-0.19 0.034,-0.221 0.037,-0.252C0.042,-0.318 0.059,-0.375 0.088,-0.423C0.123,-0.481 0.167,-0.51 0.219,-0.509C0.245,-0.509 0.269,-0.5 0.29,-0.481C0.311,-0.462 0.329,-0.441 0.344,-0.416C0.357,-0.393 0.366,-0.371 0.371,-0.35C0.374,-0.338 0.375,-0.327 0.374,-0.317C0.372,-0.302 0.365,-0.29 0.354,-0.281C0.347,-0.276 0.338,-0.273 0.325,-0.27C0.317,-0.269 0.306,-0.267 0.293,-0.266C0.274,-0.265 0.247,-0.264 0.212,-0.263C0.183,-0.262 0.147,-0.262 0.104,-0.263Z" style="fill:rgb(82,82,82);fill-rule:nonzero;"/>
            </g>
            <g transform="matrix(55.4502,0,0,55.4502,497.408,540)">
                <path d="M0.1,-0.002C0.101,0.062 0.102,0.112 0.101,0.148C0.101,0.157 0.098,0.164 0.091,0.171C0.084,0.177 0.077,0.18 0.068,0.18C0.058,0.18 0.051,0.177 0.045,0.17C0.038,0.163 0.035,0.155 0.035,0.146C0.036,0.11 0.036,0.058 0.035,-0.009C0.034,-0.076 0.033,-0.124 0.033,-0.153C0.033,-0.191 0.033,-0.226 0.034,-0.258C0.034,-0.29 0.033,-0.324 0.03,-0.36C0.028,-0.394 0.025,-0.428 0.02,-0.462C0.019,-0.471 0.021,-0.48 0.027,-0.487C0.032,-0.494 0.04,-0.499 0.049,-0.5C0.057,-0.501 0.066,-0.499 0.073,-0.494C0.08,-0.488 0.085,-0.481 0.086,-0.472L0.092,-0.423C0.121,-0.462 0.154,-0.484 0.191,-0.488C0.22,-0.491 0.246,-0.484 0.27,-0.467C0.294,-0.45 0.314,-0.427 0.33,-0.399C0.345,-0.372 0.356,-0.342 0.363,-0.31C0.37,-0.277 0.372,-0.243 0.37,-0.209C0.367,-0.174 0.357,-0.141 0.339,-0.109C0.32,-0.077 0.295,-0.051 0.262,-0.031C0.245,-0.02 0.226,-0.012 0.207,-0.008C0.188,-0.003 0.17,-0 0.153,-0.001C0.136,-0.001 0.119,-0.001 0.1,-0.002ZM0.099,-0.068C0.125,-0.065 0.149,-0.065 0.17,-0.068C0.191,-0.07 0.21,-0.076 0.228,-0.087C0.257,-0.105 0.278,-0.131 0.291,-0.165C0.304,-0.198 0.308,-0.233 0.304,-0.269C0.3,-0.304 0.29,-0.337 0.273,-0.366C0.262,-0.387 0.249,-0.402 0.236,-0.411C0.223,-0.42 0.21,-0.423 0.198,-0.422C0.184,-0.421 0.168,-0.411 0.152,-0.393C0.134,-0.374 0.118,-0.344 0.101,-0.303L0.099,-0.299C0.1,-0.27 0.1,-0.222 0.099,-0.153L0.099,-0.068Z" style="fill:rgb(82,82,82);fill-rule:nonzero;"/>
            </g>
            <g transform="matrix(55.4502,0,0,55.4502,517.869,540)">
                <path d="M0.325,-0.119C0.306,-0.164 0.292,-0.194 0.282,-0.207C0.26,-0.234 0.232,-0.247 0.197,-0.246C0.162,-0.245 0.135,-0.229 0.115,-0.198C0.088,-0.157 0.085,-0.122 0.108,-0.093C0.118,-0.08 0.132,-0.071 0.152,-0.065C0.17,-0.058 0.192,-0.057 0.216,-0.061C0.245,-0.067 0.282,-0.086 0.325,-0.119ZM0.142,-0.452C0.199,-0.505 0.251,-0.523 0.297,-0.505C0.334,-0.491 0.362,-0.454 0.382,-0.395C0.387,-0.377 0.392,-0.358 0.397,-0.337C0.402,-0.316 0.406,-0.294 0.409,-0.271C0.412,-0.248 0.414,-0.229 0.416,-0.213C0.417,-0.197 0.419,-0.178 0.42,-0.157C0.421,-0.136 0.422,-0.123 0.423,-0.119C0.423,-0.118 0.425,-0.099 0.43,-0.064C0.431,-0.051 0.432,-0.04 0.433,-0.033C0.434,-0.021 0.435,-0.012 0.434,-0.007C0.433,-0.004 0.432,-0.001 0.431,0.002C0.428,0.011 0.422,0.017 0.414,0.02C0.401,0.027 0.388,0.025 0.377,0.015C0.374,0.012 0.372,0.009 0.37,0.005C0.368,0.001 0.366,-0.005 0.364,-0.012L0.36,-0.026C0.359,-0.031 0.358,-0.034 0.357,-0.035L0.35,-0.055C0.307,-0.023 0.266,-0.004 0.228,0.003C0.192,0.01 0.159,0.008 0.129,-0.002C0.098,-0.012 0.074,-0.029 0.056,-0.053C0.037,-0.077 0.027,-0.105 0.028,-0.138C0.028,-0.171 0.038,-0.203 0.059,-0.234C0.08,-0.266 0.108,-0.289 0.142,-0.302C0.176,-0.315 0.211,-0.316 0.246,-0.307C0.28,-0.297 0.31,-0.277 0.334,-0.247C0.338,-0.242 0.342,-0.235 0.347,-0.228C0.34,-0.289 0.331,-0.337 0.319,-0.373C0.306,-0.413 0.29,-0.437 0.273,-0.444C0.253,-0.452 0.224,-0.439 0.186,-0.404C0.179,-0.397 0.171,-0.394 0.163,-0.395C0.154,-0.396 0.146,-0.399 0.14,-0.406C0.133,-0.413 0.13,-0.421 0.131,-0.43C0.132,-0.439 0.135,-0.446 0.142,-0.452Z" style="fill:rgb(82,82,82);fill-rule:nonzero;"/>
            </g>
            <g transform="matrix(55.4502,0,0,55.4502,541.824,540)">
                <path d="M0.037,-0.144L0.037,-0.247C0.037,-0.253 0.037,-0.266 0.037,-0.285C0.036,-0.304 0.036,-0.319 0.035,-0.328C0.034,-0.337 0.034,-0.35 0.033,-0.365C0.032,-0.38 0.03,-0.394 0.028,-0.407L0.022,-0.445C0.02,-0.454 0.022,-0.462 0.027,-0.47C0.032,-0.477 0.039,-0.482 0.048,-0.484C0.056,-0.485 0.065,-0.484 0.073,-0.479C0.08,-0.474 0.085,-0.466 0.086,-0.457C0.095,-0.416 0.1,-0.368 0.102,-0.313C0.113,-0.328 0.124,-0.343 0.137,-0.358C0.192,-0.421 0.25,-0.466 0.311,-0.491C0.32,-0.495 0.328,-0.495 0.337,-0.492C0.345,-0.488 0.351,-0.482 0.355,-0.474C0.358,-0.465 0.358,-0.457 0.355,-0.449C0.351,-0.44 0.345,-0.434 0.337,-0.431C0.285,-0.409 0.235,-0.37 0.187,-0.315C0.136,-0.256 0.109,-0.202 0.104,-0.151C0.103,-0.148 0.103,-0.145 0.103,-0.142L0.103,-0.056C0.103,-0.047 0.103,-0.035 0.102,-0.022L0.102,-0.007C0.102,-0.006 0.102,-0.006 0.102,-0.005C0.101,-0.004 0.101,-0.002 0.101,-0.001L0.099,0.005C0.096,0.012 0.091,0.018 0.083,0.021C0.076,0.025 0.07,0.026 0.064,0.024C0.057,0.021 0.053,0.019 0.05,0.017C0.047,0.015 0.044,0.013 0.042,0.01C0.04,0.007 0.038,0.004 0.037,-0C0.037,-0.001 0.037,-0.003 0.036,-0.005L0.036,-0.012C0.036,-0.02 0.035,-0.076 0.035,-0.083C0.035,-0.106 0.036,-0.127 0.037,-0.144Z" style="fill:rgb(82,82,82);fill-rule:nonzero;"/>
            </g>
            <g transform="matrix(55.4502,0,0,55.4502,560.899,540)">
                <path d="M0.325,-0.119C0.306,-0.164 0.292,-0.194 0.282,-0.207C0.26,-0.234 0.232,-0.247 0.197,-0.246C0.162,-0.245 0.135,-0.229 0.115,-0.198C0.088,-0.157 0.085,-0.122 0.108,-0.093C0.118,-0.08 0.132,-0.071 0.152,-0.065C0.17,-0.058 0.192,-0.057 0.216,-0.061C0.245,-0.067 0.282,-0.086 0.325,-0.119ZM0.142,-0.452C0.199,-0.505 0.251,-0.523 0.297,-0.505C0.334,-0.491 0.362,-0.454 0.382,-0.395C0.387,-0.377 0.392,-0.358 0.397,-0.337C0.402,-0.316 0.406,-0.294 0.409,-0.271C0.412,-0.248 0.414,-0.229 0.416,-0.213C0.417,-0.197 0.419,-0.178 0.42,-0.157C0.421,-0.136 0.422,-0.123 0.423,-0.119C0.423,-0.118 0.425,-0.099 0.43,-0.064C0.431,-0.051 0.432,-0.04 0.433,-0.033C0.434,-0.021 0.435,-0.012 0.434,-0.007C0.433,-0.004 0.432,-0.001 0.431,0.002C0.428,0.011 0.422,0.017 0.414,0.02C0.401,0.027 0.388,0.025 0.377,0.015C0.374,0.012 0.372,0.009 0.37,0.005C0.368,0.001 0.366,-0.005 0.364,-0.012L0.36,-0.026C0.359,-0.031 0.358,-0.034 0.357,-0.035L0.35,-0.055C0.307,-0.023 0.266,-0.004 0.228,0.003C0.192,0.01 0.159,0.008 0.129,-0.002C0.098,-0.012 0.074,-0.029 0.056,-0.053C0.037,-0.077 0.027,-0.105 0.028,-0.138C0.028,-0.171 0.038,-0.203 0.059,-0.234C0.08,-0.266 0.108,-0.289 0.142,-0.302C0.176,-0.315 0.211,-0.316 0.246,-0.307C0.28,-0.297 0.31,-0.277 0.334,-0.247C0.338,-0.242 0.342,-0.235 0.347,-0.228C0.34,-0.289 0.331,-0.337 0.319,-0.373C0.306,-0.413 0.29,-0.437 0.273,-0.444C0.253,-0.452 0.224,-0.439 0.186,-0.404C0.179,-0.397 0.171,-0.394 0.163,-0.395C0.154,-0.396 0.146,-0.399 0.14,-0.406C0.133,-0.413 0.13,-0.421 0.131,-0.43C0.132,-0.439 0.135,-0.446 0.142,-0.452Z" style="fill:rgb(82,82,82);fill-rule:nonzero;"/>
            </g>
            <g transform="matrix(55.4502,0,0,55.4502,584.853,540)">
                <path d="M0.381,-0.656C0.382,-0.608 0.382,-0.572 0.382,-0.549C0.382,-0.525 0.382,-0.489 0.381,-0.441C0.38,-0.393 0.38,-0.357 0.38,-0.333C0.38,-0.206 0.384,-0.1 0.393,-0.015C0.394,-0.006 0.391,0.002 0.386,0.009C0.38,0.016 0.373,0.02 0.364,0.021C0.355,0.022 0.347,0.019 0.34,0.014C0.333,0.008 0.328,0 0.327,-0.009C0.325,-0.026 0.323,-0.044 0.322,-0.063C0.313,-0.053 0.304,-0.044 0.295,-0.035C0.252,0.005 0.201,0.015 0.142,-0.005C0.087,-0.023 0.054,-0.07 0.043,-0.146C0.034,-0.207 0.041,-0.27 0.063,-0.337C0.087,-0.408 0.121,-0.455 0.165,-0.476C0.192,-0.489 0.22,-0.491 0.249,-0.48C0.272,-0.471 0.294,-0.455 0.315,-0.43C0.316,-0.532 0.316,-0.607 0.315,-0.654C0.315,-0.663 0.318,-0.671 0.325,-0.678C0.331,-0.685 0.339,-0.688 0.348,-0.688C0.357,-0.688 0.364,-0.685 0.371,-0.679C0.378,-0.672 0.381,-0.665 0.381,-0.656ZM0.314,-0.303C0.293,-0.343 0.28,-0.367 0.274,-0.374C0.257,-0.397 0.241,-0.412 0.225,-0.418C0.214,-0.422 0.204,-0.422 0.194,-0.417C0.167,-0.404 0.144,-0.37 0.126,-0.316C0.107,-0.259 0.101,-0.205 0.108,-0.155C0.115,-0.106 0.133,-0.077 0.162,-0.067C0.197,-0.056 0.226,-0.061 0.251,-0.083C0.275,-0.105 0.297,-0.137 0.316,-0.179C0.315,-0.216 0.314,-0.257 0.314,-0.302L0.314,-0.303Z" style="fill:rgb(82,82,82);fill-rule:nonzero;"/>
            </g>
            <g transform="matrix(55.4502,0,0,55.4502,607.033,540)">
                <path d="M0.246,-0.429L0.231,-0.433C0.227,-0.434 0.224,-0.435 0.222,-0.435C0.196,-0.434 0.172,-0.418 0.15,-0.388C0.127,-0.357 0.111,-0.319 0.102,-0.272C0.094,-0.225 0.096,-0.182 0.107,-0.144C0.118,-0.105 0.138,-0.079 0.166,-0.064C0.201,-0.047 0.233,-0.05 0.262,-0.074C0.293,-0.099 0.315,-0.137 0.328,-0.188C0.34,-0.237 0.339,-0.284 0.326,-0.329C0.312,-0.374 0.285,-0.407 0.246,-0.429ZM0.27,-0.491C0.275,-0.49 0.279,-0.487 0.282,-0.484C0.31,-0.468 0.333,-0.448 0.352,-0.423C0.37,-0.397 0.383,-0.371 0.39,-0.344C0.397,-0.316 0.402,-0.287 0.403,-0.257C0.404,-0.227 0.4,-0.199 0.392,-0.172C0.376,-0.106 0.346,-0.056 0.303,-0.022C0.252,0.019 0.196,0.025 0.136,-0.006C0.113,-0.017 0.093,-0.034 0.077,-0.056C0.06,-0.077 0.049,-0.1 0.043,-0.126C0.037,-0.151 0.033,-0.177 0.032,-0.205C0.03,-0.233 0.032,-0.259 0.038,-0.284C0.048,-0.341 0.067,-0.389 0.096,-0.428C0.131,-0.474 0.171,-0.498 0.218,-0.501L0.219,-0.501C0.228,-0.505 0.236,-0.505 0.245,-0.502C0.254,-0.499 0.262,-0.495 0.27,-0.491Z" style="fill:rgb(82,82,82);fill-rule:nonzero;"/>
            </g>
            <g transform="matrix(55.4502,0,0,55.4502,629.435,540)">
                <path d="M0.037,-0.144L0.037,-0.247C0.037,-0.253 0.037,-0.266 0.037,-0.285C0.036,-0.304 0.036,-0.319 0.035,-0.328C0.034,-0.337 0.034,-0.35 0.033,-0.365C0.032,-0.38 0.03,-0.394 0.028,-0.407L0.022,-0.445C0.02,-0.454 0.022,-0.462 0.027,-0.47C0.032,-0.477 0.039,-0.482 0.048,-0.484C0.056,-0.485 0.065,-0.484 0.073,-0.479C0.08,-0.474 0.085,-0.466 0.086,-0.457C0.095,-0.416 0.1,-0.368 0.102,-0.313C0.113,-0.328 0.124,-0.343 0.137,-0.358C0.192,-0.421 0.25,-0.466 0.311,-0.491C0.32,-0.495 0.328,-0.495 0.337,-0.492C0.345,-0.488 0.351,-0.482 0.355,-0.474C0.358,-0.465 0.358,-0.457 0.355,-0.449C0.351,-0.44 0.345,-0.434 0.337,-0.431C0.285,-0.409 0.235,-0.37 0.187,-0.315C0.136,-0.256 0.109,-0.202 0.104,-0.151C0.103,-0.148 0.103,-0.145 0.103,-0.142L0.103,-0.056C0.103,-0.047 0.103,-0.035 0.102,-0.022L0.102,-0.007C0.102,-0.006 0.102,-0.006 0.102,-0.005C0.101,-0.004 0.101,-0.002 0.101,-0.001L0.099,0.005C0.096,0.012 0.091,0.018 0.083,0.021C0.076,0.025 0.07,0.026 0.064,0.024C0.057,0.021 0.053,0.019 0.05,0.017C0.047,0.015 0.044,0.013 0.042,0.01C0.04,0.007 0.038,0.004 0.037,-0C0.037,-0.001 0.037,-0.003 0.036,-0.005L0.036,-0.012C0.036,-0.02 0.035,-0.076 0.035,-0.083C0.035,-0.106 0.036,-0.127 0.037,-0.144Z" style="fill:rgb(82,82,82);fill-rule:nonzero;"/>
            </g>
        </g>
        <g transform="matrix(1.93875,0,0,3.72603,454.041,-987.04)">
            <g transform="matrix(55.4502,0,0,55.4502,449,540)">
                <path d="M0.111,-0.662C0.124,-0.393 0.128,-0.193 0.123,-0.061C0.284,-0.071 0.382,-0.076 0.417,-0.077C0.426,-0.077 0.434,-0.074 0.441,-0.068C0.448,-0.062 0.451,-0.054 0.451,-0.045C0.451,-0.036 0.448,-0.028 0.442,-0.021C0.436,-0.014 0.428,-0.011 0.419,-0.011C0.387,-0.01 0.354,-0.009 0.32,-0.007C0.285,-0.005 0.246,-0.003 0.201,-0L0.101,0.007C0.097,0.008 0.093,0.009 0.088,0.009C0.079,0.008 0.071,0.005 0.065,-0.002C0.058,-0.009 0.055,-0.016 0.056,-0.025C0.058,-0.075 0.059,-0.126 0.06,-0.178C0.06,-0.229 0.059,-0.286 0.058,-0.348C0.056,-0.409 0.054,-0.458 0.053,-0.495L0.045,-0.658C0.044,-0.667 0.047,-0.675 0.054,-0.682C0.06,-0.689 0.068,-0.692 0.077,-0.693C0.086,-0.694 0.093,-0.691 0.1,-0.685C0.107,-0.678 0.11,-0.671 0.111,-0.662Z" style="fill:rgb(82,82,82);fill-rule:nonzero;"/>
            </g>
            <g transform="matrix(55.4502,0,0,55.4502,474.729,540)">
                <path d="M0.108,-0.455C0.113,-0.395 0.114,-0.32 0.112,-0.23C0.109,-0.09 0.107,-0.017 0.107,-0.01C0.107,-0.001 0.104,0.007 0.098,0.014C0.091,0.02 0.083,0.023 0.074,0.023C0.065,0.023 0.057,0.02 0.051,0.014C0.044,0.007 0.041,-0.001 0.041,-0.01C0.041,-0.013 0.043,-0.087 0.046,-0.232C0.048,-0.313 0.047,-0.386 0.042,-0.449C0.041,-0.458 0.044,-0.467 0.05,-0.474C0.056,-0.481 0.064,-0.484 0.073,-0.485C0.082,-0.486 0.09,-0.483 0.097,-0.477C0.103,-0.471 0.107,-0.464 0.108,-0.455ZM0.094,-0.646C0.101,-0.64 0.104,-0.632 0.104,-0.623C0.104,-0.614 0.101,-0.606 0.095,-0.6C0.088,-0.593 0.08,-0.59 0.071,-0.59C0.062,-0.59 0.054,-0.593 0.048,-0.6C0.041,-0.606 0.038,-0.614 0.038,-0.623C0.038,-0.632 0.041,-0.64 0.048,-0.647C0.054,-0.653 0.062,-0.656 0.071,-0.656C0.08,-0.656 0.088,-0.653 0.094,-0.646Z" style="fill:rgb(82,82,82);fill-rule:nonzero;"/>
            </g>
            <g transform="matrix(55.4502,0,0,55.4502,482.104,540)">
                <path d="M0.285,-0.389C0.282,-0.392 0.277,-0.396 0.27,-0.402C0.263,-0.408 0.259,-0.412 0.257,-0.414C0.255,-0.416 0.252,-0.419 0.247,-0.422C0.242,-0.425 0.238,-0.428 0.235,-0.429C0.232,-0.43 0.228,-0.432 0.223,-0.433C0.198,-0.438 0.179,-0.434 0.164,-0.419C0.149,-0.405 0.146,-0.387 0.154,-0.365C0.158,-0.354 0.166,-0.342 0.178,-0.33C0.19,-0.317 0.209,-0.3 0.235,-0.278C0.24,-0.273 0.244,-0.27 0.247,-0.267C0.266,-0.251 0.281,-0.238 0.292,-0.227C0.303,-0.216 0.315,-0.2 0.328,-0.181C0.341,-0.161 0.348,-0.142 0.351,-0.123C0.355,-0.092 0.35,-0.065 0.337,-0.042C0.323,-0.019 0.304,-0.001 0.279,0.01C0.257,0.021 0.233,0.026 0.206,0.025C0.179,0.024 0.154,0.018 0.131,0.005C0.106,-0.009 0.086,-0.026 0.071,-0.046C0.056,-0.065 0.043,-0.089 0.03,-0.118C0.026,-0.127 0.026,-0.135 0.029,-0.144C0.032,-0.152 0.038,-0.158 0.047,-0.162C0.055,-0.166 0.063,-0.166 0.072,-0.163C0.08,-0.16 0.086,-0.154 0.09,-0.146C0.101,-0.122 0.111,-0.103 0.122,-0.089C0.133,-0.074 0.146,-0.062 0.163,-0.053C0.176,-0.046 0.191,-0.042 0.207,-0.041C0.223,-0.04 0.238,-0.043 0.251,-0.05C0.278,-0.063 0.29,-0.084 0.285,-0.113C0.283,-0.128 0.275,-0.144 0.262,-0.16C0.249,-0.176 0.229,-0.195 0.204,-0.217C0.202,-0.219 0.196,-0.224 0.187,-0.232C0.178,-0.239 0.171,-0.245 0.167,-0.248L0.149,-0.265C0.141,-0.272 0.135,-0.279 0.131,-0.284L0.115,-0.302C0.11,-0.309 0.105,-0.316 0.101,-0.323C0.097,-0.33 0.094,-0.336 0.092,-0.343C0.084,-0.367 0.082,-0.39 0.087,-0.411C0.092,-0.432 0.102,-0.451 0.117,-0.466C0.132,-0.481 0.151,-0.491 0.172,-0.497C0.193,-0.502 0.215,-0.502 0.237,-0.497C0.246,-0.495 0.254,-0.492 0.262,-0.489C0.269,-0.486 0.277,-0.482 0.284,-0.477C0.291,-0.472 0.297,-0.467 0.301,-0.464L0.317,-0.449L0.329,-0.437C0.336,-0.431 0.339,-0.424 0.34,-0.415C0.341,-0.406 0.338,-0.398 0.332,-0.391C0.325,-0.384 0.318,-0.381 0.309,-0.38C0.3,-0.379 0.292,-0.382 0.285,-0.389Z" style="fill:rgb(82,82,82);fill-rule:nonzero;"/>
            </g>
            <g transform="matrix(55.4502,0,0,55.4502,501.511,540)">
                <path d="M0.017,-0.563C0.046,-0.562 0.078,-0.561 0.111,-0.561C0.114,-0.593 0.117,-0.634 0.122,-0.684C0.123,-0.693 0.127,-0.701 0.134,-0.707C0.141,-0.712 0.15,-0.715 0.159,-0.714C0.168,-0.713 0.175,-0.709 0.181,-0.702C0.186,-0.695 0.189,-0.687 0.188,-0.678C0.183,-0.632 0.18,-0.594 0.177,-0.563C0.199,-0.564 0.225,-0.566 0.255,-0.568C0.264,-0.569 0.272,-0.566 0.279,-0.56C0.286,-0.554 0.289,-0.547 0.29,-0.538C0.291,-0.529 0.288,-0.521 0.282,-0.514C0.276,-0.507 0.268,-0.504 0.259,-0.503C0.226,-0.501 0.197,-0.499 0.172,-0.498C0.159,-0.321 0.161,-0.19 0.177,-0.103C0.182,-0.081 0.188,-0.065 0.196,-0.056C0.204,-0.046 0.211,-0.041 0.218,-0.04C0.226,-0.039 0.236,-0.043 0.247,-0.052C0.258,-0.06 0.27,-0.074 0.281,-0.095C0.294,-0.103 0.306,-0.139 0.319,-0.203C0.322,-0.212 0.327,-0.218 0.335,-0.223C0.343,-0.227 0.351,-0.228 0.36,-0.225C0.369,-0.222 0.375,-0.216 0.38,-0.208C0.384,-0.2 0.384,-0.192 0.381,-0.183C0.37,-0.132 0.356,-0.093 0.339,-0.065C0.324,-0.036 0.305,-0.013 0.283,0.004C0.26,0.02 0.237,0.027 0.212,0.025C0.186,0.022 0.165,0.011 0.148,-0.011C0.13,-0.032 0.119,-0.059 0.113,-0.092C0.095,-0.182 0.093,-0.317 0.106,-0.496C0.073,-0.496 0.042,-0.497 0.013,-0.498C0.004,-0.499 -0.003,-0.502 -0.01,-0.509C-0.016,-0.515 -0.019,-0.523 -0.018,-0.532C-0.017,-0.541 -0.014,-0.548 -0.007,-0.555C-0,-0.561 0.008,-0.564 0.017,-0.563Z" style="fill:rgb(82,82,82);fill-rule:nonzero;"/>
            </g>
            <g transform="matrix(55.4502,0,0,55.4502,522.139,540)">
                <path d="M0.325,-0.119C0.306,-0.164 0.292,-0.194 0.282,-0.207C0.26,-0.234 0.232,-0.247 0.197,-0.246C0.162,-0.245 0.135,-0.229 0.115,-0.198C0.088,-0.157 0.085,-0.122 0.108,-0.093C0.118,-0.08 0.132,-0.071 0.152,-0.065C0.17,-0.058 0.192,-0.057 0.216,-0.061C0.245,-0.067 0.282,-0.086 0.325,-0.119ZM0.142,-0.452C0.199,-0.505 0.251,-0.523 0.297,-0.505C0.334,-0.491 0.362,-0.454 0.382,-0.395C0.387,-0.377 0.392,-0.358 0.397,-0.337C0.402,-0.316 0.406,-0.294 0.409,-0.271C0.412,-0.248 0.414,-0.229 0.416,-0.213C0.417,-0.197 0.419,-0.178 0.42,-0.157C0.421,-0.136 0.422,-0.123 0.423,-0.119C0.423,-0.118 0.425,-0.099 0.43,-0.064C0.431,-0.051 0.432,-0.04 0.433,-0.033C0.434,-0.021 0.435,-0.012 0.434,-0.007C0.433,-0.004 0.432,-0.001 0.431,0.002C0.428,0.011 0.422,0.017 0.414,0.02C0.401,0.027 0.388,0.025 0.377,0.015C0.374,0.012 0.372,0.009 0.37,0.005C0.368,0.001 0.366,-0.005 0.364,-0.012L0.36,-0.026C0.359,-0.031 0.358,-0.034 0.357,-0.035L0.35,-0.055C0.307,-0.023 0.266,-0.004 0.228,0.003C0.192,0.01 0.159,0.008 0.129,-0.002C0.098,-0.012 0.074,-0.029 0.056,-0.053C0.037,-0.077 0.027,-0.105 0.028,-0.138C0.028,-0.171 0.038,-0.203 0.059,-0.234C0.08,-0.266 0.108,-0.289 0.142,-0.302C0.176,-0.315 0.211,-0.316 0.246,-0.307C0.28,-0.297 0.31,-0.277 0.334,-0.247C0.338,-0.242 0.342,-0.235 0.347,-0.228C0.34,-0.289 0.331,-0.337 0.319,-0.373C0.306,-0.413 0.29,-0.437 0.273,-0.444C0.253,-0.452 0.224,-0.439 0.186,-0.404C0.179,-0.397 0.171,-0.394 0.163,-0.395C0.154,-0.396 0.146,-0.399 0.14,-0.406C0.133,-0.413 0.13,-0.421 0.131,-0.43C0.132,-0.439 0.135,-0.446 0.142,-0.452Z" style="fill:rgb(82,82,82);fill-rule:nonzero;"/>
            </g>
        </g>
        <g transform="matrix(2.56039,0,0,4.92075,-1188.79,-1393.04)">
            <g transform="matrix(1.82899,-0,-0,1.82899,464.299,283.096)">
                <path d="M59.227,82.255L54.727,91.255L50.227,82.255L59.227,82.255Z"/>
                <path d="M54.727,56.359L54.727,84.055" style="fill:none;stroke:black;stroke-width:1px;"/>
            </g>
        </g>
        <g transform="matrix(2.56039,0,0,4.92075,-23.8742,-1393.04)">
            <g transform="matrix(1.82899,-0,-0,1.82899,9.32444,283.096)">
                <path d="M307.985,82.255L303.485,91.255L298.985,82.255L307.985,82.255Z"/>
                <path d="M303.485,56.359L303.485,84.055" style="fill:none;stroke:black;stroke-width:1px;"/>
            </g>
        </g>
    </g>
</svg>
