<?xml version="1.0" encoding="UTF-8" standalone="no"?>
<!DOCTYPE svg PUBLIC "-//W3C//DTD SVG 1.1//EN" "http://www.w3.org/Graphics/SVG/1.1/DTD/svg11.dtd">
<svg width="297px" height="227px" version="1.1" xmlns="http://www.w3.org/2000/svg" xmlns:xlink="http://www.w3.org/1999/xlink" xml:space="preserve" xmlns:serif="http://www.serif.com/" style="fill-rule:evenodd;clip-rule:evenodd;stroke-linejoin:round;stroke-miterlimit:2;">
    <g transform="matrix(1,0,0,1,-37.2044,-54.0477)">
        <g transform="matrix(0.193229,0,0,0.309745,0,0)">
            <g transform="matrix(1.56243,7.26398e-33,-1.16441e-32,0.974692,-485.562,67.2745)">
                <path d="M1051,564L1051,810C1051,837.625 1028.62,860 1001,860L976,860L976,835C976,821.2 964.8,810 951,810L901,810L901,785L951,785C964.8,785 976,773.8 976,760L976,735C976,721.2 964.8,710 951,710L901,710L901,685L951,685C964.8,685 976,673.8 976,660L976,635C976,621.2 964.8,610 951,610L901,610L901,585L951,585C964.8,585 976,573.8 976,560L976,535C976,521.2 964.8,510 951,510L901,510L901,485L951,485C964.8,485 976,473.8 976,460L976,435C976,421.2 964.8,410 951,410L901,410L901,383.125C906.3,384.3 911.8,385 917.475,385L934.5,385C981.825,385 1017.33,341.7 1008.05,295.3L980,155.1C979.35,151.7 977.85,148.725 976,146.025L976,110L1001,110C1028.62,110 1051,132.375 1051,160L1051,406L1392.14,406C1405.54,406 1416.4,416.862 1416.4,430.262L1416.4,539.738C1416.4,553.138 1405.54,564 1392.14,564L1051,564Z" style="fill:rgb(13,242,201);"/>
            </g>
        </g>
        <g transform="matrix(0.193229,0,0,0.309745,0,0)">
            <g transform="matrix(1.56243,7.26398e-33,-1.16441e-32,0.974692,-488.051,67.2745)">
                <path d="M801,400L801,160C801,132.375 823.375,110 851,110L876,110L876,146.025C874.15,148.725 872.65,151.725 871.975,155.1L843.925,295.3C837.7,326.425 851.875,355.825 875.975,372.025L875.975,410C875.975,423.8 887.175,435 900.975,435L950.975,435L950.975,460L900.975,460C887.175,460 875.975,471.2 875.975,485L875.975,510C875.975,523.8 887.175,535 900.975,535L950.975,535L950.975,560L900.975,560C887.175,560 875.975,571.2 875.975,585L875.975,610C875.975,623.8 887.175,635 900.975,635L950.975,635L950.975,660L900.975,660C887.175,660 875.975,671.2 875.975,685L875.975,710C875.975,723.8 887.175,735 900.975,735L950.975,735L950.975,760L900.975,760C887.175,760 875.975,771.2 875.975,785L875.975,810C875.975,823.8 887.175,835 900.975,835L950.975,835L950.975,860L851,860C823.375,860 801,837.625 801,810L801,558L459.86,558C446.461,558 435.599,547.138 435.599,533.738L435.599,424.262C435.599,410.862 446.461,400 459.86,400L801,400Z" style="fill:rgb(228,13,242);"/>
            </g>
        </g>
        <g transform="matrix(0.193229,0,0,0.309745,0,0)">
            <g transform="matrix(1.56243,7.26398e-33,-1.16441e-32,0.974692,-540.058,-25.6202)">
                <path d="M930.57,255L989.57,255L1017.62,395.2C1020.57,409.95 1016.8,425.075 1007.27,436.7C997.72,448.325 983.62,455 968.595,455L951.57,455C936.52,455 922.445,448.325 912.895,436.7C903.37,425.075 899.595,409.95 902.545,395.2L930.57,255Z" style="fill:rgb(14,152,202);"/>
            </g>
        </g>
        <g transform="matrix(0.193229,0,0,0.309745,0,0)">
            <g transform="matrix(6.3839,0,0,3.98248,1166.97,321.76)">
                <g transform="matrix(27.9209,0,0,27.9209,24,64)">
                    <rect x="0.026" y="-0.672" width="0.13" height="0.672" style="fill:rgb(4,78,65);fill-rule:nonzero;"/>
                </g>
                <g transform="matrix(27.9209,0,0,27.9209,29.1654,64)">
                    <path d="M0.029,-0L0.029,-0.492L0.159,-0.492L0.159,-0L0.029,-0ZM0.029,-0.551L0.029,-0.672L0.159,-0.672L0.159,-0.551L0.029,-0.551Z" style="fill:rgb(4,78,65);fill-rule:nonzero;"/>
                </g>
                <g transform="matrix(27.9209,0,0,27.9209,34.5262,64)">
                    <path d="M0.322,-0.343C0.319,-0.367 0.31,-0.384 0.296,-0.394C0.282,-0.403 0.26,-0.408 0.23,-0.408C0.205,-0.408 0.186,-0.405 0.173,-0.399C0.16,-0.392 0.153,-0.382 0.153,-0.367C0.153,-0.352 0.16,-0.341 0.173,-0.334C0.186,-0.326 0.206,-0.318 0.233,-0.311C0.261,-0.303 0.288,-0.296 0.313,-0.29C0.338,-0.283 0.361,-0.276 0.38,-0.269C0.406,-0.258 0.426,-0.244 0.44,-0.226C0.454,-0.207 0.461,-0.182 0.461,-0.15C0.461,-0.099 0.443,-0.059 0.407,-0.03C0.37,-0.001 0.317,0.013 0.246,0.013C0.17,0.013 0.112,-0.003 0.072,-0.035C0.031,-0.067 0.01,-0.108 0.009,-0.158L0.143,-0.158C0.143,-0.135 0.152,-0.117 0.17,-0.104C0.188,-0.091 0.213,-0.085 0.245,-0.085C0.268,-0.085 0.289,-0.089 0.306,-0.097C0.323,-0.104 0.332,-0.117 0.332,-0.136C0.332,-0.153 0.324,-0.166 0.309,-0.173C0.293,-0.18 0.274,-0.187 0.253,-0.192C0.212,-0.202 0.178,-0.211 0.153,-0.219C0.128,-0.227 0.106,-0.237 0.089,-0.248C0.066,-0.263 0.049,-0.279 0.041,-0.298C0.032,-0.317 0.027,-0.337 0.027,-0.359C0.027,-0.38 0.031,-0.399 0.038,-0.417C0.045,-0.435 0.057,-0.451 0.074,-0.464C0.091,-0.476 0.112,-0.487 0.139,-0.494C0.165,-0.501 0.197,-0.505 0.234,-0.505C0.305,-0.505 0.358,-0.491 0.392,-0.464C0.425,-0.437 0.444,-0.396 0.447,-0.343L0.322,-0.343Z" style="fill:rgb(4,78,65);fill-rule:nonzero;"/>
                </g>
                <g transform="matrix(27.9209,0,0,27.9209,47.5373,64)">
                    <path d="M0.305,-0.324L0.426,-0.324L0.426,-0.184C0.426,-0.158 0.422,-0.133 0.415,-0.11C0.407,-0.086 0.395,-0.065 0.379,-0.047C0.362,-0.028 0.341,-0.014 0.317,-0.003C0.292,0.008 0.262,0.013 0.227,0.013C0.191,0.013 0.16,0.008 0.135,-0.003C0.11,-0.014 0.089,-0.028 0.073,-0.046C0.056,-0.064 0.044,-0.085 0.037,-0.109C0.03,-0.133 0.026,-0.158 0.026,-0.185L0.026,-0.625L0.154,-0.625L0.154,-0.492L0.426,-0.492L0.426,-0.4L0.154,-0.4L0.154,-0.198C0.154,-0.167 0.16,-0.142 0.172,-0.126C0.183,-0.109 0.202,-0.1 0.229,-0.1C0.255,-0.1 0.274,-0.108 0.287,-0.125C0.299,-0.142 0.305,-0.165 0.305,-0.196L0.305,-0.324Z" style="fill:rgb(4,78,65);fill-rule:nonzero;"/>
                </g>
                <g transform="matrix(27.9209,0,0,27.9209,60.1855,64)">
                    <path d="M0.004,-0C0.004,-0.031 0.007,-0.059 0.012,-0.086C0.017,-0.113 0.026,-0.139 0.041,-0.165C0.055,-0.191 0.075,-0.217 0.101,-0.244C0.127,-0.271 0.161,-0.299 0.204,-0.33C0.228,-0.347 0.248,-0.362 0.264,-0.375C0.279,-0.388 0.292,-0.401 0.301,-0.413C0.31,-0.425 0.317,-0.437 0.321,-0.449C0.325,-0.461 0.327,-0.474 0.327,-0.488C0.327,-0.505 0.325,-0.519 0.32,-0.53C0.315,-0.541 0.309,-0.55 0.301,-0.557C0.292,-0.564 0.282,-0.568 0.271,-0.571C0.26,-0.574 0.248,-0.575 0.235,-0.575C0.205,-0.575 0.181,-0.567 0.164,-0.55C0.147,-0.533 0.138,-0.502 0.138,-0.457L0.013,-0.457C0.013,-0.529 0.032,-0.585 0.07,-0.626C0.107,-0.666 0.16,-0.686 0.229,-0.686C0.262,-0.686 0.293,-0.682 0.321,-0.674C0.348,-0.666 0.372,-0.654 0.392,-0.638C0.411,-0.622 0.427,-0.602 0.438,-0.578C0.448,-0.553 0.454,-0.525 0.454,-0.492C0.454,-0.467 0.451,-0.444 0.444,-0.423C0.437,-0.402 0.427,-0.382 0.412,-0.362C0.397,-0.342 0.377,-0.322 0.352,-0.301C0.327,-0.28 0.297,-0.257 0.262,-0.232C0.237,-0.213 0.215,-0.193 0.198,-0.172C0.181,-0.15 0.171,-0.13 0.17,-0.113L0.456,-0.113L0.456,-0L0.004,-0Z" style="fill:rgb(4,78,65);fill-rule:nonzero;"/>
                </g>
            </g>
        </g>
        <g transform="matrix(0.193229,0,0,0.309745,0,0)">
            <g transform="matrix(6.3839,0,0,3.98248,162.815,321.76)">
                <g transform="matrix(27.9209,0,0,27.9209,24,64)">
                    <rect x="0.026" y="-0.672" width="0.13" height="0.672" style="fill:rgb(84,5,90);fill-rule:nonzero;"/>
                </g>
                <g transform="matrix(27.9209,0,0,27.9209,29.1654,64)">
                    <path d="M0.029,-0L0.029,-0.492L0.159,-0.492L0.159,-0L0.029,-0ZM0.029,-0.551L0.029,-0.672L0.159,-0.672L0.159,-0.551L0.029,-0.551Z" style="fill:rgb(84,5,90);fill-rule:nonzero;"/>
                </g>
                <g transform="matrix(27.9209,0,0,27.9209,34.5262,64)">
                    <path d="M0.322,-0.343C0.319,-0.367 0.31,-0.384 0.296,-0.394C0.282,-0.403 0.26,-0.408 0.23,-0.408C0.205,-0.408 0.186,-0.405 0.173,-0.399C0.16,-0.392 0.153,-0.382 0.153,-0.367C0.153,-0.352 0.16,-0.341 0.173,-0.334C0.186,-0.326 0.206,-0.318 0.233,-0.311C0.261,-0.303 0.288,-0.296 0.313,-0.29C0.338,-0.283 0.361,-0.276 0.38,-0.269C0.406,-0.258 0.426,-0.244 0.44,-0.226C0.454,-0.207 0.461,-0.182 0.461,-0.15C0.461,-0.099 0.443,-0.059 0.407,-0.03C0.37,-0.001 0.317,0.013 0.246,0.013C0.17,0.013 0.112,-0.003 0.072,-0.035C0.031,-0.067 0.01,-0.108 0.009,-0.158L0.143,-0.158C0.143,-0.135 0.152,-0.117 0.17,-0.104C0.188,-0.091 0.213,-0.085 0.245,-0.085C0.268,-0.085 0.289,-0.089 0.306,-0.097C0.323,-0.104 0.332,-0.117 0.332,-0.136C0.332,-0.153 0.324,-0.166 0.309,-0.173C0.293,-0.18 0.274,-0.187 0.253,-0.192C0.212,-0.202 0.178,-0.211 0.153,-0.219C0.128,-0.227 0.106,-0.237 0.089,-0.248C0.066,-0.263 0.049,-0.279 0.041,-0.298C0.032,-0.317 0.027,-0.337 0.027,-0.359C0.027,-0.38 0.031,-0.399 0.038,-0.417C0.045,-0.435 0.057,-0.451 0.074,-0.464C0.091,-0.476 0.112,-0.487 0.139,-0.494C0.165,-0.501 0.197,-0.505 0.234,-0.505C0.305,-0.505 0.358,-0.491 0.392,-0.464C0.425,-0.437 0.444,-0.396 0.447,-0.343L0.322,-0.343Z" style="fill:rgb(84,5,90);fill-rule:nonzero;"/>
                </g>
                <g transform="matrix(27.9209,0,0,27.9209,47.5373,64)">
                    <path d="M0.305,-0.324L0.426,-0.324L0.426,-0.184C0.426,-0.158 0.422,-0.133 0.415,-0.11C0.407,-0.086 0.395,-0.065 0.379,-0.047C0.362,-0.028 0.341,-0.014 0.317,-0.003C0.292,0.008 0.262,0.013 0.227,0.013C0.191,0.013 0.16,0.008 0.135,-0.003C0.11,-0.014 0.089,-0.028 0.073,-0.046C0.056,-0.064 0.044,-0.085 0.037,-0.109C0.03,-0.133 0.026,-0.158 0.026,-0.185L0.026,-0.625L0.154,-0.625L0.154,-0.492L0.426,-0.492L0.426,-0.4L0.154,-0.4L0.154,-0.198C0.154,-0.167 0.16,-0.142 0.172,-0.126C0.183,-0.109 0.202,-0.1 0.229,-0.1C0.255,-0.1 0.274,-0.108 0.287,-0.125C0.299,-0.142 0.305,-0.165 0.305,-0.196L0.305,-0.324Z" style="fill:rgb(84,5,90);fill-rule:nonzero;"/>
                </g>
                <g transform="matrix(27.9209,0,0,27.9209,60.1855,64)">
                    <path d="M0.14,-0L0.14,-0.459L0.004,-0.459L0.004,-0.549C0.033,-0.549 0.057,-0.551 0.076,-0.556C0.095,-0.561 0.111,-0.568 0.124,-0.578C0.136,-0.587 0.145,-0.599 0.152,-0.614C0.158,-0.628 0.162,-0.645 0.164,-0.664L0.27,-0.664L0.27,-0L0.14,-0Z" style="fill:rgb(84,5,90);fill-rule:nonzero;"/>
                </g>
            </g>
        </g>
    </g>
</svg>
