<?xml version="1.0" encoding="UTF-8" standalone="no"?>
<!DOCTYPE svg PUBLIC "-//W3C//DTD SVG 1.1//EN" "http://www.w3.org/Graphics/SVG/1.1/DTD/svg11.dtd">
<svg width="250px" height="174px" version="1.1" xmlns="http://www.w3.org/2000/svg" xmlns:xlink="http://www.w3.org/1999/xlink" xml:space="preserve" xmlns:serif="http://www.serif.com/" style="fill-rule:evenodd;clip-rule:evenodd;stroke-linejoin:round;stroke-miterlimit:2;">
    <g transform="matrix(1,0,0,1,-500,-200)">
        <g transform="matrix(0.5,0,0,0.576923,250,84.6154)">
            <path d="M1000,230L1000,470C1000,486.557 984.489,500 965.385,500L534.615,500C515.511,500 500,486.557 500,470L500,230C500,213.443 515.511,200 534.615,200L965.385,200C984.489,200 1000,213.443 1000,230Z" style="fill:rgb(155,197,245);"/>
        </g>
        <g transform="matrix(0.471014,0,0,0.482618,234.058,85.503)">
            <path d="M1060,326L1060,534C1060,548.35 1048.06,560 1033.36,560L626.641,560C611.937,560 600,548.35 600,534L600,326C600,311.65 611.937,300 626.641,300L1033.36,300C1048.06,300 1060,311.65 1060,326Z" style="fill:rgb(245,160,155);"/>
        </g>
        <g transform="matrix(1.14583,0,0,0.778846,-360.417,-35.3846)">
            <path d="M940,390L940,470C940,475.519 936.954,480 933.203,480L786.797,480C783.046,480 780,475.519 780,470L780,390C780,384.481 783.046,380 786.797,380L933.203,380C936.954,380 940,384.481 940,390Z" style="fill:rgb(169,245,155);"/>
        </g>
        <g transform="matrix(0.480769,0,0,0.480769,331.21,101.021)">
            <g transform="matrix(27.9209,0,0,27.9209,390,250)">
                <path d="M0.022,-0L0.022,-0.562L0.126,-0.562L0.126,-0.565C0.154,-0.571 0.175,-0.574 0.192,-0.574C0.215,-0.574 0.233,-0.57 0.246,-0.564C0.259,-0.558 0.272,-0.546 0.284,-0.528C0.299,-0.546 0.315,-0.558 0.33,-0.564C0.344,-0.57 0.365,-0.574 0.39,-0.574C0.425,-0.574 0.451,-0.567 0.47,-0.552C0.49,-0.538 0.503,-0.514 0.511,-0.481C0.52,-0.448 0.524,-0.401 0.524,-0.342L0.524,-0L0.419,-0L0.419,-0.342C0.419,-0.39 0.417,-0.424 0.412,-0.442C0.407,-0.46 0.398,-0.469 0.385,-0.469C0.369,-0.469 0.358,-0.466 0.349,-0.459C0.341,-0.452 0.335,-0.44 0.331,-0.423C0.327,-0.406 0.325,-0.382 0.325,-0.352L0.325,-0L0.221,-0L0.221,-0.336C0.221,-0.387 0.218,-0.421 0.213,-0.44C0.208,-0.46 0.199,-0.469 0.186,-0.469C0.171,-0.469 0.158,-0.466 0.15,-0.459C0.142,-0.452 0.135,-0.44 0.132,-0.423C0.128,-0.406 0.126,-0.382 0.126,-0.352L0.126,-0L0.022,-0Z" style="fill:rgb(10,48,92);fill-rule:nonzero;"/>
            </g>
            <g transform="matrix(27.9209,0,0,27.9209,405.23,250)">
                <path d="M0.122,0.178C0.098,0.178 0.077,0.175 0.06,0.169C0.043,0.163 0.024,0.153 0.004,0.138L0.045,0.05C0.068,0.064 0.084,0.073 0.093,0.076C0.101,0.08 0.111,0.082 0.122,0.082C0.144,0.082 0.161,0.079 0.175,0.073C0.188,0.067 0.2,0.056 0.21,0.041C0.22,0.027 0.229,0.005 0.239,-0.025L0.051,-0.562L0.16,-0.562L0.295,-0.162L0.431,-0.562L0.541,-0.562L0.345,-0.017C0.328,0.032 0.309,0.071 0.29,0.099C0.271,0.127 0.248,0.147 0.221,0.16C0.195,0.172 0.162,0.178 0.122,0.178Z" style="fill:rgb(10,48,92);fill-rule:nonzero;"/>
            </g>
            <g transform="matrix(27.9209,0,0,27.9209,420.459,250)">
                <rect x="-0.003" y="0.069" width="0.551" height="0.096" style="fill:rgb(10,48,92);fill-rule:nonzero;"/>
            </g>
            <g transform="matrix(27.9209,0,0,27.9209,435.689,250)">
                <path d="M0.268,0.013C0.212,0.013 0.167,0.003 0.135,-0.017C0.103,-0.037 0.079,-0.068 0.065,-0.11C0.051,-0.152 0.044,-0.209 0.044,-0.28C0.044,-0.352 0.051,-0.408 0.065,-0.451C0.079,-0.493 0.103,-0.525 0.135,-0.545C0.167,-0.565 0.212,-0.575 0.268,-0.575C0.311,-0.575 0.352,-0.567 0.39,-0.553L0.39,-0.727L0.495,-0.727L0.495,-0L0.39,-0L0.39,-0.006C0.355,0.006 0.314,0.013 0.268,0.013ZM0.268,-0.084C0.31,-0.084 0.341,-0.088 0.36,-0.098C0.38,-0.107 0.39,-0.12 0.39,-0.136L0.39,-0.351C0.39,-0.395 0.38,-0.427 0.361,-0.447C0.342,-0.468 0.311,-0.478 0.268,-0.478C0.237,-0.478 0.212,-0.472 0.195,-0.46C0.178,-0.448 0.166,-0.428 0.159,-0.4C0.152,-0.371 0.148,-0.332 0.148,-0.28C0.148,-0.228 0.152,-0.189 0.159,-0.161C0.166,-0.133 0.178,-0.113 0.195,-0.101C0.212,-0.09 0.237,-0.084 0.268,-0.084Z" style="fill:rgb(10,48,92);fill-rule:nonzero;"/>
            </g>
            <g transform="matrix(27.9209,0,0,27.9209,450.918,250)">
                <path d="M0.275,-0.575C0.334,-0.575 0.38,-0.564 0.413,-0.542C0.446,-0.521 0.47,-0.487 0.483,-0.44C0.497,-0.394 0.503,-0.332 0.502,-0.253L0.141,-0.253C0.143,-0.209 0.148,-0.175 0.157,-0.151C0.166,-0.127 0.179,-0.109 0.198,-0.099C0.217,-0.089 0.243,-0.084 0.275,-0.084C0.299,-0.084 0.318,-0.086 0.333,-0.09C0.348,-0.095 0.362,-0.103 0.374,-0.115C0.387,-0.127 0.401,-0.145 0.418,-0.168L0.502,-0.113C0.472,-0.066 0.44,-0.033 0.406,-0.015C0.373,0.003 0.329,0.013 0.275,0.013C0.215,0.013 0.168,0.003 0.133,-0.017C0.098,-0.037 0.073,-0.068 0.058,-0.111C0.043,-0.153 0.035,-0.21 0.035,-0.281C0.035,-0.352 0.043,-0.408 0.058,-0.451C0.073,-0.493 0.098,-0.525 0.133,-0.545C0.168,-0.565 0.215,-0.575 0.275,-0.575ZM0.395,-0.349C0.391,-0.382 0.385,-0.408 0.377,-0.426C0.369,-0.445 0.357,-0.458 0.34,-0.466C0.324,-0.474 0.303,-0.478 0.275,-0.478C0.245,-0.478 0.221,-0.474 0.203,-0.466C0.185,-0.458 0.171,-0.445 0.161,-0.426C0.152,-0.408 0.146,-0.382 0.143,-0.349L0.395,-0.349Z" style="fill:rgb(10,48,92);fill-rule:nonzero;"/>
            </g>
            <g transform="matrix(27.9209,0,0,27.9209,466.148,250)">
                <path d="M0.289,0.013C0.228,0.013 0.181,0.003 0.145,-0.017C0.11,-0.037 0.085,-0.068 0.07,-0.11C0.054,-0.152 0.046,-0.209 0.046,-0.281C0.046,-0.352 0.054,-0.409 0.07,-0.452C0.085,-0.494 0.111,-0.525 0.146,-0.545C0.182,-0.565 0.231,-0.575 0.293,-0.575C0.345,-0.575 0.388,-0.565 0.419,-0.546C0.451,-0.528 0.481,-0.494 0.51,-0.446L0.423,-0.395C0.408,-0.418 0.395,-0.436 0.384,-0.447C0.373,-0.459 0.36,-0.467 0.347,-0.471C0.333,-0.476 0.315,-0.478 0.293,-0.478C0.255,-0.478 0.226,-0.472 0.206,-0.46C0.186,-0.449 0.171,-0.429 0.163,-0.401C0.155,-0.373 0.151,-0.333 0.151,-0.281C0.151,-0.229 0.155,-0.189 0.163,-0.161C0.171,-0.133 0.185,-0.113 0.205,-0.101C0.224,-0.09 0.252,-0.084 0.289,-0.084C0.311,-0.084 0.329,-0.086 0.343,-0.091C0.357,-0.096 0.37,-0.104 0.382,-0.116C0.394,-0.128 0.408,-0.145 0.424,-0.169L0.51,-0.116C0.48,-0.068 0.449,-0.034 0.417,-0.015C0.385,0.003 0.342,0.013 0.289,0.013Z" style="fill:rgb(10,48,92);fill-rule:nonzero;"/>
            </g>
            <g transform="matrix(27.9209,0,0,27.9209,481.378,250)">
                <path d="M0.273,0.013C0.216,0.013 0.172,0.003 0.14,-0.017C0.107,-0.037 0.084,-0.068 0.07,-0.111C0.055,-0.153 0.048,-0.21 0.048,-0.281C0.048,-0.352 0.055,-0.408 0.07,-0.451C0.084,-0.493 0.107,-0.525 0.14,-0.545C0.172,-0.565 0.216,-0.575 0.273,-0.575C0.329,-0.575 0.374,-0.565 0.406,-0.545C0.439,-0.525 0.463,-0.493 0.477,-0.451C0.491,-0.408 0.498,-0.352 0.498,-0.281C0.498,-0.21 0.491,-0.153 0.477,-0.111C0.463,-0.068 0.439,-0.037 0.406,-0.017C0.374,0.003 0.329,0.013 0.273,0.013ZM0.273,-0.084C0.304,-0.084 0.329,-0.09 0.346,-0.101C0.363,-0.113 0.375,-0.133 0.383,-0.161C0.39,-0.19 0.394,-0.229 0.394,-0.281C0.394,-0.332 0.39,-0.372 0.383,-0.4C0.375,-0.429 0.363,-0.449 0.346,-0.46C0.329,-0.472 0.304,-0.478 0.273,-0.478C0.241,-0.478 0.217,-0.472 0.2,-0.46C0.183,-0.449 0.171,-0.429 0.164,-0.4C0.156,-0.372 0.153,-0.332 0.153,-0.281C0.153,-0.229 0.156,-0.19 0.164,-0.161C0.171,-0.133 0.183,-0.113 0.2,-0.101C0.217,-0.09 0.241,-0.084 0.273,-0.084Z" style="fill:rgb(10,48,92);fill-rule:nonzero;"/>
            </g>
            <g transform="matrix(27.9209,0,0,27.9209,496.607,250)">
                <path d="M0.085,-0L0.085,-0.562L0.189,-0.562L0.189,-0.515C0.204,-0.531 0.222,-0.545 0.245,-0.557C0.268,-0.569 0.293,-0.575 0.32,-0.575C0.355,-0.575 0.384,-0.57 0.407,-0.56C0.43,-0.551 0.45,-0.536 0.467,-0.515C0.483,-0.494 0.498,-0.465 0.512,-0.428L0.418,-0.385C0.41,-0.412 0.402,-0.432 0.395,-0.445C0.387,-0.457 0.378,-0.466 0.367,-0.471C0.356,-0.476 0.34,-0.478 0.32,-0.478C0.273,-0.478 0.239,-0.462 0.219,-0.43C0.199,-0.397 0.189,-0.35 0.189,-0.288L0.189,-0L0.085,-0Z" style="fill:rgb(10,48,92);fill-rule:nonzero;"/>
            </g>
            <g transform="matrix(27.9209,0,0,27.9209,511.837,250)">
                <path d="M0.249,0.013C0.196,0.013 0.153,0.007 0.121,-0.005C0.09,-0.018 0.067,-0.037 0.052,-0.062C0.038,-0.088 0.031,-0.122 0.031,-0.165C0.031,-0.214 0.038,-0.251 0.052,-0.278C0.066,-0.304 0.088,-0.323 0.12,-0.333C0.151,-0.344 0.194,-0.349 0.249,-0.349L0.364,-0.349L0.364,-0.369C0.364,-0.395 0.36,-0.414 0.354,-0.428C0.348,-0.442 0.336,-0.452 0.32,-0.458C0.304,-0.463 0.28,-0.466 0.249,-0.466C0.224,-0.466 0.204,-0.464 0.191,-0.459C0.178,-0.453 0.167,-0.444 0.16,-0.431C0.153,-0.418 0.146,-0.397 0.139,-0.37L0.039,-0.395C0.05,-0.438 0.064,-0.472 0.08,-0.498C0.096,-0.524 0.118,-0.543 0.145,-0.556C0.173,-0.568 0.207,-0.575 0.249,-0.575C0.328,-0.575 0.384,-0.558 0.418,-0.524C0.451,-0.49 0.468,-0.439 0.468,-0.369L0.468,-0.156C0.468,-0.132 0.471,-0.115 0.475,-0.107C0.48,-0.099 0.491,-0.095 0.506,-0.095C0.511,-0.095 0.522,-0.096 0.539,-0.097L0.539,-0.001C0.532,-0 0.522,-0 0.509,-0C0.456,-0 0.42,-0.012 0.4,-0.036C0.384,-0.019 0.363,-0.006 0.339,0.001C0.315,0.009 0.285,0.013 0.249,0.013ZM0.249,-0.084C0.28,-0.084 0.304,-0.087 0.32,-0.095C0.336,-0.102 0.348,-0.114 0.354,-0.132C0.36,-0.149 0.364,-0.175 0.364,-0.208L0.364,-0.253L0.249,-0.253C0.215,-0.253 0.19,-0.251 0.175,-0.248C0.161,-0.244 0.151,-0.237 0.145,-0.225C0.138,-0.213 0.135,-0.193 0.135,-0.165C0.135,-0.143 0.138,-0.126 0.145,-0.115C0.151,-0.104 0.162,-0.096 0.178,-0.091C0.194,-0.086 0.218,-0.084 0.249,-0.084Z" style="fill:rgb(10,48,92);fill-rule:nonzero;"/>
            </g>
            <g transform="matrix(27.9209,0,0,27.9209,527.066,250)">
                <path d="M0.332,0.013C0.288,0.013 0.252,0.005 0.225,-0.01C0.199,-0.025 0.179,-0.049 0.167,-0.082C0.154,-0.115 0.148,-0.159 0.148,-0.213L0.148,-0.476L0.035,-0.476L0.035,-0.573L0.148,-0.573L0.148,-0.727L0.253,-0.727L0.253,-0.573L0.441,-0.573L0.441,-0.476L0.253,-0.476L0.253,-0.213C0.253,-0.179 0.255,-0.153 0.26,-0.134C0.265,-0.116 0.273,-0.103 0.284,-0.095C0.295,-0.087 0.311,-0.084 0.332,-0.084C0.354,-0.084 0.37,-0.085 0.38,-0.088C0.39,-0.091 0.398,-0.097 0.402,-0.105C0.407,-0.112 0.412,-0.126 0.418,-0.145L0.516,-0.112C0.507,-0.08 0.495,-0.056 0.481,-0.038C0.466,-0.02 0.447,-0.007 0.424,0.001C0.401,0.009 0.37,0.013 0.332,0.013Z" style="fill:rgb(10,48,92);fill-rule:nonzero;"/>
            </g>
            <g transform="matrix(27.9209,0,0,27.9209,542.296,250)">
                <path d="M0.273,0.013C0.216,0.013 0.172,0.003 0.14,-0.017C0.107,-0.037 0.084,-0.068 0.07,-0.111C0.055,-0.153 0.048,-0.21 0.048,-0.281C0.048,-0.352 0.055,-0.408 0.07,-0.451C0.084,-0.493 0.107,-0.525 0.14,-0.545C0.172,-0.565 0.216,-0.575 0.273,-0.575C0.329,-0.575 0.374,-0.565 0.406,-0.545C0.439,-0.525 0.463,-0.493 0.477,-0.451C0.491,-0.408 0.498,-0.352 0.498,-0.281C0.498,-0.21 0.491,-0.153 0.477,-0.111C0.463,-0.068 0.439,-0.037 0.406,-0.017C0.374,0.003 0.329,0.013 0.273,0.013ZM0.273,-0.084C0.304,-0.084 0.329,-0.09 0.346,-0.101C0.363,-0.113 0.375,-0.133 0.383,-0.161C0.39,-0.19 0.394,-0.229 0.394,-0.281C0.394,-0.332 0.39,-0.372 0.383,-0.4C0.375,-0.429 0.363,-0.449 0.346,-0.46C0.329,-0.472 0.304,-0.478 0.273,-0.478C0.241,-0.478 0.217,-0.472 0.2,-0.46C0.183,-0.449 0.171,-0.429 0.164,-0.4C0.156,-0.372 0.153,-0.332 0.153,-0.281C0.153,-0.229 0.156,-0.19 0.164,-0.161C0.171,-0.133 0.183,-0.113 0.2,-0.101C0.217,-0.09 0.241,-0.084 0.273,-0.084Z" style="fill:rgb(10,48,92);fill-rule:nonzero;"/>
            </g>
            <g transform="matrix(27.9209,0,0,27.9209,557.526,250)">
                <path d="M0.085,-0L0.085,-0.562L0.189,-0.562L0.189,-0.515C0.204,-0.531 0.222,-0.545 0.245,-0.557C0.268,-0.569 0.293,-0.575 0.32,-0.575C0.355,-0.575 0.384,-0.57 0.407,-0.56C0.43,-0.551 0.45,-0.536 0.467,-0.515C0.483,-0.494 0.498,-0.465 0.512,-0.428L0.418,-0.385C0.41,-0.412 0.402,-0.432 0.395,-0.445C0.387,-0.457 0.378,-0.466 0.367,-0.471C0.356,-0.476 0.34,-0.478 0.32,-0.478C0.273,-0.478 0.239,-0.462 0.219,-0.43C0.199,-0.397 0.189,-0.35 0.189,-0.288L0.189,-0L0.085,-0Z" style="fill:rgb(10,48,92);fill-rule:nonzero;"/>
            </g>
        </g>
        <g transform="matrix(0.480769,0,0,0.480769,345.821,130.471)">
            <g transform="matrix(27.9209,0,0,27.9209,390,250)">
                <path d="M0.199,-0L0.106,-0L0.001,-0.562L0.106,-0.562L0.168,-0.215L0.227,-0.407L0.318,-0.407L0.376,-0.217L0.439,-0.562L0.545,-0.562L0.438,-0L0.345,-0L0.273,-0.213L0.199,-0Z" style="fill:rgb(92,14,10);fill-rule:nonzero;"/>
            </g>
            <g transform="matrix(27.9209,0,0,27.9209,405.23,250)">
                <path d="M0.085,-0L0.085,-0.562L0.189,-0.562L0.189,-0.515C0.204,-0.531 0.222,-0.545 0.245,-0.557C0.268,-0.569 0.293,-0.575 0.32,-0.575C0.355,-0.575 0.384,-0.57 0.407,-0.56C0.43,-0.551 0.45,-0.536 0.467,-0.515C0.483,-0.494 0.498,-0.465 0.512,-0.428L0.418,-0.385C0.41,-0.412 0.402,-0.432 0.395,-0.445C0.387,-0.457 0.378,-0.466 0.367,-0.471C0.356,-0.476 0.34,-0.478 0.32,-0.478C0.273,-0.478 0.239,-0.462 0.219,-0.43C0.199,-0.397 0.189,-0.35 0.189,-0.288L0.189,-0L0.085,-0Z" style="fill:rgb(92,14,10);fill-rule:nonzero;"/>
            </g>
            <g transform="matrix(27.9209,0,0,27.9209,420.459,250)">
                <path d="M0.249,0.013C0.196,0.013 0.153,0.007 0.121,-0.005C0.09,-0.018 0.067,-0.037 0.052,-0.062C0.038,-0.088 0.031,-0.122 0.031,-0.165C0.031,-0.214 0.038,-0.251 0.052,-0.278C0.066,-0.304 0.088,-0.323 0.12,-0.333C0.151,-0.344 0.194,-0.349 0.249,-0.349L0.364,-0.349L0.364,-0.369C0.364,-0.395 0.36,-0.414 0.354,-0.428C0.348,-0.442 0.336,-0.452 0.32,-0.458C0.304,-0.463 0.28,-0.466 0.249,-0.466C0.224,-0.466 0.204,-0.464 0.191,-0.459C0.178,-0.453 0.167,-0.444 0.16,-0.431C0.153,-0.418 0.146,-0.397 0.139,-0.37L0.039,-0.395C0.05,-0.438 0.064,-0.472 0.08,-0.498C0.096,-0.524 0.118,-0.543 0.145,-0.556C0.173,-0.568 0.207,-0.575 0.249,-0.575C0.328,-0.575 0.384,-0.558 0.418,-0.524C0.451,-0.49 0.468,-0.439 0.468,-0.369L0.468,-0.156C0.468,-0.132 0.471,-0.115 0.475,-0.107C0.48,-0.099 0.491,-0.095 0.506,-0.095C0.511,-0.095 0.522,-0.096 0.539,-0.097L0.539,-0.001C0.532,-0 0.522,-0 0.509,-0C0.456,-0 0.42,-0.012 0.4,-0.036C0.384,-0.019 0.363,-0.006 0.339,0.001C0.315,0.009 0.285,0.013 0.249,0.013ZM0.249,-0.084C0.28,-0.084 0.304,-0.087 0.32,-0.095C0.336,-0.102 0.348,-0.114 0.354,-0.132C0.36,-0.149 0.364,-0.175 0.364,-0.208L0.364,-0.253L0.249,-0.253C0.215,-0.253 0.19,-0.251 0.175,-0.248C0.161,-0.244 0.151,-0.237 0.145,-0.225C0.138,-0.213 0.135,-0.193 0.135,-0.165C0.135,-0.143 0.138,-0.126 0.145,-0.115C0.151,-0.104 0.162,-0.096 0.178,-0.091C0.194,-0.086 0.218,-0.084 0.249,-0.084Z" style="fill:rgb(92,14,10);fill-rule:nonzero;"/>
            </g>
            <g transform="matrix(27.9209,0,0,27.9209,435.689,250)">
                <path d="M0.053,0.165L0.053,-0.562L0.158,-0.562L0.158,-0.556C0.193,-0.568 0.234,-0.575 0.279,-0.575C0.335,-0.575 0.38,-0.565 0.413,-0.545C0.445,-0.525 0.469,-0.494 0.483,-0.452C0.497,-0.409 0.505,-0.353 0.505,-0.282C0.505,-0.211 0.497,-0.154 0.483,-0.111C0.469,-0.069 0.445,-0.037 0.413,-0.017C0.38,0.003 0.335,0.013 0.279,0.013C0.236,0.013 0.196,0.005 0.158,-0.009L0.158,0.165L0.053,0.165ZM0.279,-0.084C0.311,-0.084 0.335,-0.09 0.352,-0.102C0.37,-0.114 0.382,-0.134 0.389,-0.162C0.396,-0.19 0.4,-0.23 0.4,-0.282C0.4,-0.333 0.396,-0.373 0.389,-0.401C0.382,-0.429 0.37,-0.449 0.352,-0.46C0.335,-0.472 0.311,-0.478 0.279,-0.478C0.198,-0.478 0.158,-0.461 0.158,-0.425L0.158,-0.211C0.158,-0.167 0.168,-0.135 0.186,-0.115C0.205,-0.094 0.236,-0.084 0.279,-0.084Z" style="fill:rgb(92,14,10);fill-rule:nonzero;"/>
            </g>
            <g transform="matrix(27.9209,0,0,27.9209,450.918,250)">
                <path d="M0.053,0.165L0.053,-0.562L0.158,-0.562L0.158,-0.556C0.193,-0.568 0.234,-0.575 0.279,-0.575C0.335,-0.575 0.38,-0.565 0.413,-0.545C0.445,-0.525 0.469,-0.494 0.483,-0.452C0.497,-0.409 0.505,-0.353 0.505,-0.282C0.505,-0.211 0.497,-0.154 0.483,-0.111C0.469,-0.069 0.445,-0.037 0.413,-0.017C0.38,0.003 0.335,0.013 0.279,0.013C0.236,0.013 0.196,0.005 0.158,-0.009L0.158,0.165L0.053,0.165ZM0.279,-0.084C0.311,-0.084 0.335,-0.09 0.352,-0.102C0.37,-0.114 0.382,-0.134 0.389,-0.162C0.396,-0.19 0.4,-0.23 0.4,-0.282C0.4,-0.333 0.396,-0.373 0.389,-0.401C0.382,-0.429 0.37,-0.449 0.352,-0.46C0.335,-0.472 0.311,-0.478 0.279,-0.478C0.198,-0.478 0.158,-0.461 0.158,-0.425L0.158,-0.211C0.158,-0.167 0.168,-0.135 0.186,-0.115C0.205,-0.094 0.236,-0.084 0.279,-0.084Z" style="fill:rgb(92,14,10);fill-rule:nonzero;"/>
            </g>
            <g transform="matrix(27.9209,0,0,27.9209,466.148,250)">
                <path d="M0.275,-0.575C0.334,-0.575 0.38,-0.564 0.413,-0.542C0.446,-0.521 0.47,-0.487 0.483,-0.44C0.497,-0.394 0.503,-0.332 0.502,-0.253L0.141,-0.253C0.143,-0.209 0.148,-0.175 0.157,-0.151C0.166,-0.127 0.179,-0.109 0.198,-0.099C0.217,-0.089 0.243,-0.084 0.275,-0.084C0.299,-0.084 0.318,-0.086 0.333,-0.09C0.348,-0.095 0.362,-0.103 0.374,-0.115C0.387,-0.127 0.401,-0.145 0.418,-0.168L0.502,-0.113C0.472,-0.066 0.44,-0.033 0.406,-0.015C0.373,0.003 0.329,0.013 0.275,0.013C0.215,0.013 0.168,0.003 0.133,-0.017C0.098,-0.037 0.073,-0.068 0.058,-0.111C0.043,-0.153 0.035,-0.21 0.035,-0.281C0.035,-0.352 0.043,-0.408 0.058,-0.451C0.073,-0.493 0.098,-0.525 0.133,-0.545C0.168,-0.565 0.215,-0.575 0.275,-0.575ZM0.395,-0.349C0.391,-0.382 0.385,-0.408 0.377,-0.426C0.369,-0.445 0.357,-0.458 0.34,-0.466C0.324,-0.474 0.303,-0.478 0.275,-0.478C0.245,-0.478 0.221,-0.474 0.203,-0.466C0.185,-0.458 0.171,-0.445 0.161,-0.426C0.152,-0.408 0.146,-0.382 0.143,-0.349L0.395,-0.349Z" style="fill:rgb(92,14,10);fill-rule:nonzero;"/>
            </g>
            <g transform="matrix(27.9209,0,0,27.9209,481.378,250)">
                <path d="M0.085,-0L0.085,-0.562L0.189,-0.562L0.189,-0.515C0.204,-0.531 0.222,-0.545 0.245,-0.557C0.268,-0.569 0.293,-0.575 0.32,-0.575C0.355,-0.575 0.384,-0.57 0.407,-0.56C0.43,-0.551 0.45,-0.536 0.467,-0.515C0.483,-0.494 0.498,-0.465 0.512,-0.428L0.418,-0.385C0.41,-0.412 0.402,-0.432 0.395,-0.445C0.387,-0.457 0.378,-0.466 0.367,-0.471C0.356,-0.476 0.34,-0.478 0.32,-0.478C0.273,-0.478 0.239,-0.462 0.219,-0.43C0.199,-0.397 0.189,-0.35 0.189,-0.288L0.189,-0L0.085,-0Z" style="fill:rgb(92,14,10);fill-rule:nonzero;"/>
            </g>
        </g>
        <g transform="matrix(0.480769,0,0,0.480769,360.138,161.368)">
            <g transform="matrix(27.9209,0,0,27.9209,390,250)">
                <path d="M0.347,-0.74C0.388,-0.74 0.421,-0.736 0.446,-0.728C0.471,-0.72 0.491,-0.707 0.506,-0.69C0.521,-0.672 0.532,-0.647 0.541,-0.615L0.443,-0.582C0.438,-0.601 0.433,-0.614 0.428,-0.622C0.423,-0.63 0.414,-0.635 0.403,-0.639C0.391,-0.642 0.373,-0.644 0.347,-0.644C0.32,-0.644 0.3,-0.64 0.286,-0.634C0.273,-0.628 0.264,-0.617 0.258,-0.6C0.253,-0.584 0.25,-0.56 0.25,-0.527L0.25,-0.475L0.412,-0.475L0.412,-0.378L0.25,-0.378L0.25,-0L0.145,-0L0.145,-0.378L0.033,-0.378L0.033,-0.475L0.145,-0.475L0.145,-0.527C0.145,-0.58 0.152,-0.622 0.165,-0.652C0.178,-0.683 0.199,-0.705 0.229,-0.719C0.258,-0.733 0.298,-0.74 0.347,-0.74Z" style="fill:rgb(23,93,9);fill-rule:nonzero;"/>
            </g>
            <g transform="matrix(27.9209,0,0,27.9209,405.23,250)">
                <path d="M0.257,0.013C0.208,0.013 0.169,0.005 0.141,-0.01C0.112,-0.024 0.092,-0.048 0.079,-0.082C0.066,-0.115 0.06,-0.161 0.06,-0.218L0.06,-0.562L0.165,-0.562L0.165,-0.218C0.165,-0.181 0.167,-0.152 0.172,-0.134C0.177,-0.115 0.187,-0.102 0.2,-0.095C0.213,-0.087 0.232,-0.084 0.257,-0.084C0.295,-0.084 0.323,-0.087 0.341,-0.093C0.36,-0.099 0.373,-0.11 0.38,-0.125C0.387,-0.14 0.391,-0.163 0.391,-0.194L0.391,-0.562L0.496,-0.562L0.496,-0L0.391,-0L0.391,-0.009C0.359,0.005 0.315,0.013 0.257,0.013Z" style="fill:rgb(23,93,9);fill-rule:nonzero;"/>
            </g>
            <g transform="matrix(27.9209,0,0,27.9209,420.459,250)">
                <path d="M0.06,-0L0.06,-0.562L0.165,-0.562L0.165,-0.548C0.203,-0.566 0.247,-0.575 0.298,-0.575C0.35,-0.575 0.39,-0.567 0.418,-0.553C0.446,-0.539 0.466,-0.515 0.478,-0.481C0.49,-0.448 0.496,-0.4 0.496,-0.339L0.496,-0L0.391,-0L0.391,-0.339C0.391,-0.375 0.388,-0.403 0.382,-0.423C0.377,-0.443 0.367,-0.457 0.354,-0.465C0.341,-0.474 0.322,-0.478 0.298,-0.478C0.259,-0.478 0.23,-0.475 0.211,-0.468C0.193,-0.461 0.18,-0.448 0.174,-0.431C0.168,-0.413 0.165,-0.386 0.165,-0.349L0.165,-0L0.06,-0Z" style="fill:rgb(23,93,9);fill-rule:nonzero;"/>
            </g>
            <g transform="matrix(27.9209,0,0,27.9209,435.689,250)">
                <path d="M0.289,0.013C0.228,0.013 0.181,0.003 0.145,-0.017C0.11,-0.037 0.085,-0.068 0.07,-0.11C0.054,-0.152 0.046,-0.209 0.046,-0.281C0.046,-0.352 0.054,-0.409 0.07,-0.452C0.085,-0.494 0.111,-0.525 0.146,-0.545C0.182,-0.565 0.231,-0.575 0.293,-0.575C0.345,-0.575 0.388,-0.565 0.419,-0.546C0.451,-0.528 0.481,-0.494 0.51,-0.446L0.423,-0.395C0.408,-0.418 0.395,-0.436 0.384,-0.447C0.373,-0.459 0.36,-0.467 0.347,-0.471C0.333,-0.476 0.315,-0.478 0.293,-0.478C0.255,-0.478 0.226,-0.472 0.206,-0.46C0.186,-0.449 0.171,-0.429 0.163,-0.401C0.155,-0.373 0.151,-0.333 0.151,-0.281C0.151,-0.229 0.155,-0.189 0.163,-0.161C0.171,-0.133 0.185,-0.113 0.205,-0.101C0.224,-0.09 0.252,-0.084 0.289,-0.084C0.311,-0.084 0.329,-0.086 0.343,-0.091C0.357,-0.096 0.37,-0.104 0.382,-0.116C0.394,-0.128 0.408,-0.145 0.424,-0.169L0.51,-0.116C0.48,-0.068 0.449,-0.034 0.417,-0.015C0.385,0.003 0.342,0.013 0.289,0.013Z" style="fill:rgb(23,93,9);fill-rule:nonzero;"/>
            </g>
        </g>
        <g transform="matrix(0.339903,0,0,0.339903,588.213,236.172)">
            <path d="M37.505,21.833L37.502,21.382C37.502,21.353 37.495,21.326 37.494,21.297C37.489,21.192 37.484,21.089 37.465,20.986C37.438,20.833 37.395,20.685 37.339,20.543C37.315,20.483 37.286,20.428 37.257,20.37C37.173,20.199 37.075,20.036 36.95,19.892L20.22,0.782C19.783,0.284 19.157,0 18.498,0L18.48,0C17.814,0.005 17.185,0.299 16.754,0.807L0.538,19.914C0.412,20.062 0.315,20.228 0.233,20.402C0.212,20.446 0.19,20.488 0.171,20.533C0.112,20.682 0.068,20.838 0.041,21C0.025,21.089 0.021,21.177 0.015,21.268C0.013,21.3 0.006,21.331 0.006,21.363L0,21.817L0.059,21.87C0.096,22.043 0.138,22.215 0.216,22.379L16.435,56.354C16.815,57.152 17.601,57.65 18.485,57.656L18.499,57.656C19.376,57.656 20.162,57.168 20.549,56.38L37.277,22.41C37.36,22.242 37.405,22.064 37.445,21.887L37.505,21.833ZM18.497,2C18.547,2 18.639,2.013 18.712,2.098L35.329,21.079C34.826,21.494 34.288,21.888 33.72,22.259C33.382,22.016 33.004,21.847 32.599,21.784C32.46,20.457 31.48,19.394 30.238,19.207C30.098,17.881 29.119,16.819 27.877,16.632C27.737,15.306 26.758,14.244 25.517,14.057C25.377,12.731 24.398,11.669 23.156,11.482C23.039,10.362 22.327,9.423 21.331,9.052C20.702,8.14 19.703,7.589 18.632,7.589C17.561,7.589 16.562,8.14 15.933,9.052C14.937,9.423 14.225,10.362 14.108,11.482C12.866,11.67 11.887,12.731 11.747,14.057C10.505,14.245 9.526,15.306 9.387,16.632C8.145,16.82 7.166,17.881 7.026,19.207C5.784,19.395 4.804,20.457 4.665,21.784C4.311,21.838 3.974,21.971 3.667,22.163C3.146,21.816 2.646,21.453 2.181,21.068L6.967,15.428L18.279,2.102C18.355,2.012 18.466,1.978 18.497,2ZM28.11,24.881C28.003,24.915 27.895,24.948 27.787,24.982C27.656,25.022 27.519,25.053 27.386,25.091C28.017,23.86 27.832,22.316 26.802,21.286L24.363,18.847C24.286,18.77 24.199,18.713 24.117,18.646C24.323,17.596 24.014,16.497 23.231,15.715L20.792,13.276C19.515,11.999 17.437,11.999 16.16,13.276L13.721,15.715C12.921,16.514 12.619,17.668 12.859,18.742C12.818,18.779 12.771,18.807 12.731,18.846L10.292,21.285C9.301,22.276 9.089,23.743 9.635,24.95C9.559,24.926 9.483,24.903 9.408,24.878C8.765,24.67 8.136,24.444 7.529,24.195C7.506,24.185 7.483,24.178 7.46,24.168C6.931,23.949 6.427,23.704 5.929,23.455C6.353,23.15 6.65,22.644 6.65,22.107C6.65,21.593 6.996,21.175 7.421,21.175C8.254,21.175 9.011,20.392 9.011,19.531C9.011,19.017 9.357,18.599 9.782,18.599C10.615,18.599 11.372,17.816 11.372,16.955C11.372,16.441 11.718,16.023 12.143,16.023C12.975,16.023 13.733,15.24 13.733,14.379C13.733,13.865 14.079,13.447 14.504,13.447C15.337,13.447 16.094,12.664 16.094,11.803C16.094,11.346 16.379,10.952 16.758,10.887L17.247,10.802L17.475,10.361C17.727,9.875 18.161,9.584 18.635,9.584C19.109,9.584 19.543,9.875 19.795,10.361L20.023,10.802L20.512,10.887C20.89,10.952 21.176,11.346 21.176,11.803C21.176,12.663 21.934,13.447 22.766,13.447C23.191,13.447 23.537,13.865 23.537,14.379C23.537,15.239 24.295,16.023 25.127,16.023C25.552,16.023 25.898,16.441 25.898,16.955C25.898,17.815 26.656,18.599 27.488,18.599C27.913,18.599 28.259,19.017 28.259,19.531C28.259,20.391 29.017,21.175 29.849,21.175C30.274,21.175 30.62,21.593 30.62,22.107C30.62,22.688 30.967,23.232 31.448,23.526C30.394,24.043 29.284,24.502 28.11,24.881ZM11.706,24.504C11.209,24.007 11.209,23.197 11.706,22.7L14.145,20.261C14.251,20.155 14.377,20.083 14.505,20.021C14.586,19.983 14.671,19.964 14.756,19.944C14.817,19.929 14.878,19.913 14.94,19.908C15.015,19.901 15.089,19.904 15.162,19.91C15.244,19.918 15.324,19.934 15.404,19.957C15.461,19.973 15.519,19.988 15.573,20.012C15.707,20.074 15.837,20.15 15.948,20.261L17.137,21.451C17.079,21.517 17.037,21.591 16.986,21.66C16.976,21.674 16.964,21.686 16.954,21.7L16.951,21.698C16.946,21.705 16.943,21.713 16.938,21.719C16.903,21.768 16.868,21.817 16.837,21.867C16.788,21.945 16.747,22.026 16.706,22.107C16.705,22.108 16.704,22.11 16.703,22.111C16.687,22.142 16.674,22.173 16.659,22.203C16.625,22.275 16.586,22.343 16.558,22.417C16.508,22.545 16.475,22.677 16.442,22.81C16.426,22.874 16.403,22.936 16.391,23.001C16.354,23.199 16.334,23.4 16.334,23.602L16.334,23.603C16.334,23.804 16.355,24.004 16.391,24.202C16.403,24.268 16.427,24.331 16.443,24.396C16.476,24.527 16.509,24.658 16.558,24.785C16.587,24.86 16.627,24.931 16.662,25.004C16.715,25.116 16.769,25.227 16.835,25.334C16.882,25.409 16.938,25.479 16.991,25.55C17.041,25.617 17.081,25.688 17.137,25.752L16.652,26.236C16.627,26.234 16.6,26.235 16.575,26.233C16.545,26.231 16.515,26.228 16.486,26.226C16.253,26.21 16.022,26.182 15.789,26.161C15.298,26.115 14.81,26.064 14.328,25.996C14.099,25.964 13.873,25.928 13.646,25.891C13.415,25.853 13.191,25.803 12.962,25.761L11.706,24.504ZM14.774,17.906C14.8,17.618 14.922,17.341 15.134,17.129L17.573,14.69C18.07,14.192 18.88,14.192 19.377,14.69L21.816,17.129C22.025,17.339 22.148,17.608 22.176,17.89C22.151,17.889 22.127,17.895 22.103,17.894C21.996,17.892 21.891,17.905 21.785,17.914C21.672,17.923 21.559,17.926 21.449,17.946C21.364,17.962 21.283,17.992 21.199,18.014C21.073,18.048 20.945,18.076 20.824,18.125C20.75,18.155 20.682,18.199 20.611,18.235C20.489,18.295 20.364,18.349 20.249,18.425C20.066,18.545 19.892,18.686 19.731,18.847L18.547,20.031L18.13,19.614L17.364,18.847C17.207,18.69 17.037,18.553 16.857,18.434C16.277,18.049 15.601,17.877 14.931,17.901C14.878,17.902 14.826,17.902 14.774,17.906ZM25.388,24.504L24.029,25.862C23.925,25.88 23.824,25.904 23.719,25.921C23.514,25.953 23.308,25.978 23.102,26.007C22.587,26.078 22.068,26.137 21.544,26.183C21.326,26.202 21.108,26.222 20.891,26.236C20.747,26.246 20.601,26.245 20.456,26.252L18.707,24.503C18.21,24.006 18.21,23.196 18.707,22.699L19.962,21.444L21.146,20.259C21.259,20.146 21.391,20.067 21.528,20.005C21.566,19.988 21.605,19.977 21.644,19.964C21.75,19.929 21.859,19.908 21.969,19.901C22.011,19.899 22.053,19.894 22.096,19.895C22.217,19.9 22.335,19.925 22.451,19.964C22.48,19.974 22.511,19.975 22.54,19.987C22.688,20.049 22.829,20.138 22.949,20.259L25.388,22.698C25.885,23.197 25.885,24.007 25.388,24.504ZM18.757,55.495C18.692,55.626 18.582,55.654 18.501,55.654L18.499,55.654C18.417,55.654 18.306,55.625 18.242,55.491L3.37,24.339C3.416,24.367 3.467,24.391 3.513,24.419C3.879,24.638 4.253,24.848 4.636,25.05C4.841,25.157 5.051,25.259 5.26,25.362C5.698,25.577 6.138,25.788 6.597,25.98C6.673,26.012 6.753,26.039 6.83,26.07C7.867,26.494 8.95,26.859 10.075,27.165C10.207,27.201 10.334,27.244 10.466,27.278C10.908,27.392 11.361,27.487 11.815,27.583C11.877,27.596 11.937,27.612 11.999,27.625L12.012,27.638L12.311,27.697C12.316,27.698 12.321,27.698 12.325,27.699C12.486,27.73 12.65,27.754 12.812,27.783C13.204,27.853 13.597,27.915 13.996,27.971C14.205,28.001 14.411,28.036 14.621,28.062C14.63,28.063 14.64,28.063 14.65,28.065C14.89,28.094 15.134,28.109 15.376,28.133C15.692,28.164 16.004,28.2 16.323,28.222C16.517,28.236 16.71,28.248 16.904,28.258C16.932,28.259 16.959,28.264 16.986,28.265L17.43,28.287L17.443,28.274C17.881,28.291 18.318,28.315 18.76,28.315C19.062,28.315 19.36,28.295 19.661,28.287L19.679,28.305L20.116,28.287C20.228,28.283 20.34,28.268 20.452,28.262C20.694,28.25 20.936,28.238 21.177,28.221C21.452,28.202 21.723,28.174 21.995,28.148C22.204,28.128 22.412,28.111 22.62,28.087C22.906,28.054 23.189,28.015 23.472,27.975C23.841,27.924 24.208,27.871 24.571,27.808C24.602,27.802 24.635,27.8 24.666,27.794L24.965,27.741C25.176,27.701 25.381,27.648 25.59,27.604C27.307,27.249 28.943,26.762 30.481,26.149C30.583,26.108 30.687,26.072 30.788,26.03C31.262,25.834 31.72,25.622 32.173,25.403C32.361,25.312 32.546,25.22 32.731,25.125C33.138,24.915 33.538,24.699 33.925,24.469C33.973,24.441 34.025,24.417 34.072,24.388L18.757,55.495Z" style="fill-rule:nonzero;"/>
        </g>
    </g>
</svg>
