<?xml version="1.0" encoding="UTF-8" standalone="no"?>
<!DOCTYPE svg PUBLIC "-//W3C//DTD SVG 1.1//EN" "http://www.w3.org/Graphics/SVG/1.1/DTD/svg11.dtd">
<svg width="529px" height="97px" version="1.1" xmlns="http://www.w3.org/2000/svg" xmlns:xlink="http://www.w3.org/1999/xlink" xml:space="preserve" xmlns:serif="http://www.serif.com/" style="fill-rule:evenodd;clip-rule:evenodd;stroke-linecap:round;stroke-linejoin:round;stroke-miterlimit:1.5;">
    <g transform="matrix(1,0,0,1,-18,-16)">
        <g transform="matrix(0.294271,0,0,0.119444,0,5.68434e-14)">
            <g id="params-only-keywords-light" transform="matrix(1.81547,0,0,4.4727,-396.154,-500.838)">
                <g transform="matrix(1.10519,0,0,1.10519,126.506,-557.504)">
                    <circle cx="692" cy="660" r="27" style="fill:rgb(240,248,73);"/>
                </g>
                <g transform="matrix(1.10519,0,0,1.10519,-225.598,-115.517)">
                    <g transform="matrix(46.0695,0,0,46.0695,430,276)">
                        <path d="M0.426,-0.768L0.512,-0.757L0.512,-0L0.437,-0L0.429,-0.071C0.409,-0.043 0.386,-0.022 0.36,-0.009C0.334,0.005 0.306,0.012 0.275,0.012C0.207,0.012 0.156,-0.013 0.121,-0.064C0.087,-0.114 0.07,-0.182 0.07,-0.269C0.07,-0.324 0.078,-0.372 0.095,-0.415C0.112,-0.458 0.136,-0.491 0.168,-0.515C0.2,-0.539 0.238,-0.551 0.282,-0.551C0.312,-0.551 0.34,-0.546 0.363,-0.535C0.387,-0.525 0.408,-0.509 0.426,-0.488L0.426,-0.768ZM0.304,-0.482C0.259,-0.482 0.224,-0.464 0.2,-0.428C0.176,-0.393 0.164,-0.34 0.164,-0.269C0.164,-0.199 0.175,-0.147 0.197,-0.111C0.219,-0.076 0.251,-0.058 0.293,-0.058C0.344,-0.058 0.389,-0.086 0.426,-0.143L0.426,-0.413C0.411,-0.435 0.394,-0.452 0.373,-0.464C0.352,-0.476 0.329,-0.482 0.304,-0.482Z" style="fill:rgb(128,128,128);fill-rule:nonzero;"/>
                    </g>
                    <g transform="matrix(46.0695,0,0,46.0695,458.35,276)">
                        <path d="M0.171,-0.239C0.172,-0.199 0.18,-0.166 0.194,-0.139C0.209,-0.112 0.228,-0.092 0.251,-0.079C0.274,-0.066 0.3,-0.06 0.329,-0.06C0.355,-0.06 0.38,-0.064 0.402,-0.072C0.425,-0.08 0.448,-0.092 0.473,-0.109L0.513,-0.052C0.488,-0.032 0.459,-0.016 0.426,-0.005C0.394,0.006 0.361,0.012 0.328,0.012C0.276,0.012 0.232,0 0.194,-0.023C0.157,-0.046 0.129,-0.079 0.109,-0.122C0.09,-0.164 0.081,-0.213 0.081,-0.269C0.081,-0.324 0.09,-0.372 0.11,-0.415C0.129,-0.458 0.157,-0.491 0.192,-0.515C0.228,-0.539 0.269,-0.551 0.316,-0.551C0.362,-0.551 0.401,-0.541 0.434,-0.519C0.467,-0.498 0.492,-0.468 0.509,-0.428C0.527,-0.388 0.536,-0.341 0.536,-0.287C0.536,-0.271 0.535,-0.255 0.534,-0.239L0.171,-0.239ZM0.317,-0.481C0.276,-0.481 0.242,-0.466 0.216,-0.437C0.189,-0.407 0.175,-0.364 0.171,-0.306L0.453,-0.306C0.452,-0.363 0.439,-0.406 0.415,-0.436C0.391,-0.466 0.359,-0.481 0.317,-0.481Z" style="fill:rgb(128,128,128);fill-rule:nonzero;"/>
                    </g>
                    <g transform="matrix(46.0695,0,0,46.0695,486.701,276)">
                        <path d="M0.422,-0.768C0.45,-0.768 0.476,-0.766 0.499,-0.761C0.523,-0.756 0.546,-0.749 0.568,-0.739L0.541,-0.675C0.507,-0.69 0.468,-0.697 0.425,-0.697C0.349,-0.697 0.311,-0.668 0.311,-0.608L0.311,-0.498L0.494,-0.498L0.485,-0.43L0.311,-0.43L0.311,-0L0.225,-0L0.225,-0.43L0.096,-0.43L0.096,-0.498L0.225,-0.498L0.225,-0.606C0.225,-0.638 0.234,-0.667 0.251,-0.691C0.268,-0.716 0.291,-0.735 0.321,-0.748C0.351,-0.762 0.384,-0.768 0.422,-0.768Z" style="fill:rgb(128,128,128);fill-rule:nonzero;"/>
                    </g>
                    <g transform="matrix(46.0695,0,0,46.0695,543.402,276)">
                        <path d="M0.459,-0.551C0.49,-0.551 0.515,-0.541 0.534,-0.519C0.554,-0.498 0.564,-0.459 0.564,-0.402L0.564,-0L0.484,-0L0.484,-0.388C0.484,-0.414 0.483,-0.433 0.481,-0.446C0.479,-0.459 0.476,-0.468 0.47,-0.475C0.464,-0.481 0.455,-0.484 0.442,-0.484C0.407,-0.484 0.375,-0.463 0.348,-0.419L0.348,-0L0.267,-0L0.267,-0.388C0.267,-0.414 0.266,-0.433 0.265,-0.446C0.263,-0.459 0.259,-0.468 0.253,-0.475C0.248,-0.481 0.238,-0.484 0.226,-0.484C0.19,-0.484 0.159,-0.463 0.131,-0.419L0.131,-0L0.052,-0L0.052,-0.54L0.119,-0.54L0.125,-0.477C0.141,-0.501 0.158,-0.519 0.177,-0.532C0.195,-0.545 0.217,-0.551 0.242,-0.551C0.293,-0.551 0.326,-0.528 0.34,-0.48C0.356,-0.503 0.373,-0.521 0.392,-0.533C0.411,-0.545 0.433,-0.551 0.459,-0.551Z" style="fill-rule:nonzero;"/>
                    </g>
                    <g transform="matrix(46.0695,0,0,46.0695,571.752,276)">
                        <path d="M0.363,0.004C0.349,0.044 0.332,0.079 0.313,0.108C0.293,0.138 0.268,0.162 0.237,0.181C0.205,0.201 0.167,0.212 0.122,0.217L0.108,0.148C0.144,0.142 0.173,0.133 0.195,0.121C0.217,0.108 0.234,0.093 0.246,0.074C0.258,0.055 0.27,0.03 0.281,-0L0.252,-0L0.063,-0.54L0.155,-0.54L0.31,-0.066L0.463,-0.54L0.552,-0.54L0.363,0.004Z" style="fill-rule:nonzero;"/>
                    </g>
                    <g transform="matrix(46.0695,0,0,46.0695,600.103,276)">
                        <path d="M0.422,-0.768C0.45,-0.768 0.476,-0.766 0.499,-0.761C0.523,-0.756 0.546,-0.749 0.568,-0.739L0.541,-0.675C0.507,-0.69 0.468,-0.697 0.425,-0.697C0.349,-0.697 0.311,-0.668 0.311,-0.608L0.311,-0.498L0.494,-0.498L0.485,-0.43L0.311,-0.43L0.311,-0L0.225,-0L0.225,-0.43L0.096,-0.43L0.096,-0.498L0.225,-0.498L0.225,-0.606C0.225,-0.638 0.234,-0.667 0.251,-0.691C0.268,-0.716 0.291,-0.735 0.321,-0.748C0.351,-0.762 0.384,-0.768 0.422,-0.768Z" style="fill-rule:nonzero;"/>
                    </g>
                    <g transform="matrix(46.0695,0,0,46.0695,628.453,276)">
                        <path d="M0.189,-0.157C0.189,-0.122 0.196,-0.097 0.211,-0.081C0.226,-0.065 0.249,-0.057 0.28,-0.057C0.308,-0.057 0.336,-0.065 0.363,-0.082C0.39,-0.098 0.411,-0.118 0.426,-0.143L0.426,-0.54L0.512,-0.54L0.512,-0L0.439,-0L0.432,-0.073C0.411,-0.046 0.385,-0.025 0.354,-0.011C0.323,0.004 0.291,0.012 0.259,0.012C0.207,0.012 0.168,-0.002 0.142,-0.029C0.116,-0.057 0.103,-0.096 0.103,-0.147L0.103,-0.54L0.189,-0.54L0.189,-0.157Z" style="fill-rule:nonzero;"/>
                    </g>
                    <g transform="matrix(46.0695,0,0,46.0695,656.804,276)">
                        <path d="M0.103,-0L0.103,-0.54L0.176,-0.54L0.183,-0.465C0.205,-0.492 0.232,-0.513 0.264,-0.528C0.297,-0.544 0.329,-0.551 0.362,-0.551C0.413,-0.551 0.451,-0.538 0.476,-0.51C0.501,-0.483 0.513,-0.444 0.513,-0.392L0.513,-0L0.427,-0L0.427,-0.329C0.427,-0.369 0.425,-0.4 0.421,-0.421C0.416,-0.442 0.408,-0.458 0.395,-0.468C0.381,-0.478 0.362,-0.484 0.335,-0.484C0.306,-0.484 0.278,-0.475 0.253,-0.457C0.227,-0.439 0.206,-0.418 0.189,-0.393L0.189,-0L0.103,-0Z" style="fill-rule:nonzero;"/>
                    </g>
                    <g transform="matrix(46.0695,0,0,46.0695,685.154,276)">
                        <path d="M0.347,-0.063C0.395,-0.063 0.442,-0.078 0.488,-0.11L0.53,-0.053C0.506,-0.034 0.478,-0.018 0.445,-0.006C0.411,0.006 0.379,0.012 0.347,0.012C0.294,0.012 0.249,0 0.211,-0.023C0.172,-0.045 0.143,-0.078 0.124,-0.12C0.104,-0.162 0.094,-0.211 0.094,-0.268C0.094,-0.322 0.104,-0.371 0.124,-0.414C0.144,-0.456 0.174,-0.49 0.212,-0.515C0.25,-0.539 0.296,-0.551 0.348,-0.551C0.417,-0.551 0.477,-0.53 0.529,-0.489L0.487,-0.431C0.44,-0.463 0.394,-0.479 0.347,-0.479C0.315,-0.479 0.288,-0.472 0.264,-0.456C0.24,-0.44 0.221,-0.416 0.207,-0.385C0.194,-0.353 0.187,-0.314 0.187,-0.268C0.187,-0.199 0.202,-0.147 0.231,-0.113C0.259,-0.079 0.298,-0.063 0.347,-0.063Z" style="fill-rule:nonzero;"/>
                    </g>
                    <g transform="matrix(46.0695,0,0,46.0695,713.505,276)">
                        <path d="M0.218,-0.359C0.218,-0.289 0.226,-0.228 0.242,-0.177C0.258,-0.125 0.281,-0.078 0.313,-0.036C0.344,0.006 0.385,0.05 0.437,0.096L0.392,0.144C0.332,0.095 0.284,0.047 0.246,0C0.208,-0.047 0.179,-0.099 0.158,-0.158C0.138,-0.216 0.128,-0.283 0.128,-0.359C0.128,-0.435 0.138,-0.502 0.158,-0.56C0.179,-0.618 0.208,-0.671 0.246,-0.718C0.284,-0.765 0.332,-0.813 0.392,-0.862L0.437,-0.814C0.385,-0.768 0.343,-0.723 0.312,-0.682C0.281,-0.64 0.257,-0.593 0.242,-0.542C0.226,-0.49 0.218,-0.429 0.218,-0.359Z" style="fill-rule:nonzero;"/>
                    </g>
                    <g transform="matrix(46.0695,0,0,46.0695,741.855,276)">
                        <path d="M0.49,-0.118C0.49,-0.097 0.493,-0.081 0.5,-0.071C0.507,-0.061 0.518,-0.054 0.534,-0.049L0.513,0.012C0.461,0.005 0.428,-0.02 0.414,-0.064C0.395,-0.039 0.371,-0.02 0.341,-0.007C0.312,0.005 0.28,0.012 0.245,0.012C0.209,0.012 0.178,0.005 0.152,-0.009C0.125,-0.022 0.105,-0.042 0.091,-0.067C0.077,-0.092 0.07,-0.121 0.07,-0.155C0.07,-0.211 0.092,-0.253 0.135,-0.283C0.179,-0.313 0.242,-0.328 0.324,-0.328L0.403,-0.328L0.403,-0.373C0.403,-0.41 0.392,-0.438 0.37,-0.455C0.348,-0.472 0.316,-0.48 0.274,-0.48C0.234,-0.48 0.187,-0.471 0.134,-0.452L0.111,-0.517C0.171,-0.54 0.23,-0.551 0.288,-0.551C0.354,-0.551 0.404,-0.536 0.438,-0.505C0.473,-0.474 0.49,-0.431 0.49,-0.377L0.49,-0.118ZM0.267,-0.054C0.293,-0.054 0.319,-0.061 0.343,-0.074C0.367,-0.088 0.387,-0.106 0.403,-0.13L0.403,-0.269L0.325,-0.269C0.268,-0.269 0.227,-0.259 0.201,-0.24C0.175,-0.221 0.163,-0.192 0.163,-0.156C0.163,-0.088 0.197,-0.054 0.267,-0.054Z" style="fill:rgb(228,13,242);fill-rule:nonzero;"/>
                    </g>
                    <g transform="matrix(46.0695,0,0,46.0695,770.206,276)">
                        <path d="M0.308,-0.169C0.323,-0.169 0.338,-0.165 0.35,-0.158C0.363,-0.15 0.373,-0.14 0.38,-0.128C0.387,-0.115 0.391,-0.102 0.391,-0.087C0.391,-0.074 0.389,-0.061 0.386,-0.049C0.383,-0.036 0.378,-0.022 0.371,-0.006L0.288,0.184L0.21,0.184L0.259,-0.018C0.249,-0.026 0.241,-0.036 0.235,-0.048C0.229,-0.06 0.226,-0.073 0.226,-0.087C0.226,-0.102 0.229,-0.115 0.236,-0.128C0.244,-0.14 0.253,-0.15 0.266,-0.158C0.278,-0.165 0.292,-0.169 0.308,-0.169Z" style="fill:rgb(228,13,242);fill-rule:nonzero;"/>
                    </g>
                    <g transform="matrix(46.0695,0,0,46.0695,826.907,276)">
                        <path d="M0.189,-0.47C0.209,-0.496 0.232,-0.516 0.258,-0.53C0.284,-0.544 0.313,-0.551 0.343,-0.551C0.413,-0.551 0.464,-0.527 0.497,-0.477C0.529,-0.428 0.546,-0.359 0.546,-0.27C0.546,-0.215 0.537,-0.166 0.521,-0.124C0.505,-0.081 0.48,-0.048 0.448,-0.024C0.416,-0 0.377,0.012 0.332,0.012C0.3,0.012 0.272,0.006 0.248,-0.005C0.224,-0.016 0.203,-0.033 0.185,-0.056L0.178,-0L0.103,-0L0.103,-0.757L0.189,-0.768L0.189,-0.47ZM0.311,-0.058C0.357,-0.058 0.392,-0.076 0.416,-0.111C0.44,-0.146 0.452,-0.2 0.452,-0.271C0.452,-0.341 0.441,-0.394 0.419,-0.429C0.398,-0.464 0.366,-0.482 0.325,-0.482C0.297,-0.482 0.272,-0.474 0.249,-0.457C0.226,-0.441 0.206,-0.42 0.189,-0.395L0.189,-0.128C0.204,-0.106 0.221,-0.089 0.243,-0.076C0.264,-0.064 0.287,-0.058 0.311,-0.058Z" style="fill:rgb(228,13,242);fill-rule:nonzero;"/>
                    </g>
                    <g transform="matrix(46.0695,0,0,46.0695,855.257,276)">
                        <path d="M0.308,-0.169C0.323,-0.169 0.338,-0.165 0.35,-0.158C0.363,-0.15 0.373,-0.14 0.38,-0.128C0.387,-0.115 0.391,-0.102 0.391,-0.087C0.391,-0.074 0.389,-0.061 0.386,-0.049C0.383,-0.036 0.378,-0.022 0.371,-0.006L0.288,0.184L0.21,0.184L0.259,-0.018C0.249,-0.026 0.241,-0.036 0.235,-0.048C0.229,-0.06 0.226,-0.073 0.226,-0.087C0.226,-0.102 0.229,-0.115 0.236,-0.128C0.244,-0.14 0.253,-0.15 0.266,-0.158C0.278,-0.165 0.292,-0.169 0.308,-0.169Z" style="fill:rgb(228,13,242);fill-rule:nonzero;"/>
                    </g>
                    <g transform="matrix(46.0695,0,0,46.0695,911.958,276)">
                        <path d="M0.347,-0.063C0.395,-0.063 0.442,-0.078 0.488,-0.11L0.53,-0.053C0.506,-0.034 0.478,-0.018 0.445,-0.006C0.411,0.006 0.379,0.012 0.347,0.012C0.294,0.012 0.249,0 0.211,-0.023C0.172,-0.045 0.143,-0.078 0.124,-0.12C0.104,-0.162 0.094,-0.211 0.094,-0.268C0.094,-0.322 0.104,-0.371 0.124,-0.414C0.144,-0.456 0.174,-0.49 0.212,-0.515C0.25,-0.539 0.296,-0.551 0.348,-0.551C0.417,-0.551 0.477,-0.53 0.529,-0.489L0.487,-0.431C0.44,-0.463 0.394,-0.479 0.347,-0.479C0.315,-0.479 0.288,-0.472 0.264,-0.456C0.24,-0.44 0.221,-0.416 0.207,-0.385C0.194,-0.353 0.187,-0.314 0.187,-0.268C0.187,-0.199 0.202,-0.147 0.231,-0.113C0.259,-0.079 0.298,-0.063 0.347,-0.063Z" style="fill:rgb(228,13,242);fill-rule:nonzero;"/>
                    </g>
                    <g transform="matrix(46.0695,0,0,46.0695,940.309,276)">
                        <path d="M0.308,-0.169C0.323,-0.169 0.338,-0.165 0.35,-0.158C0.363,-0.15 0.373,-0.14 0.38,-0.128C0.387,-0.115 0.391,-0.102 0.391,-0.087C0.391,-0.074 0.389,-0.061 0.386,-0.049C0.383,-0.036 0.378,-0.022 0.371,-0.006L0.288,0.184L0.21,0.184L0.259,-0.018C0.249,-0.026 0.241,-0.036 0.235,-0.048C0.229,-0.06 0.226,-0.073 0.226,-0.087C0.226,-0.102 0.229,-0.115 0.236,-0.128C0.244,-0.14 0.253,-0.15 0.266,-0.158C0.278,-0.165 0.292,-0.169 0.308,-0.169Z" style="fill-rule:nonzero;"/>
                    </g>
                    <g transform="matrix(46.0695,0,0,46.0695,997.01,276)">
                        <path d="M0.385,-0.608L0.231,-0.608L0.253,-0.414L0.076,-0.495L0.028,-0.349L0.219,-0.311L0.088,-0.167L0.212,-0.077L0.308,-0.246L0.404,-0.077L0.527,-0.167L0.396,-0.311L0.587,-0.349L0.539,-0.495L0.363,-0.414L0.385,-0.608Z" style="fill-rule:nonzero;"/>
                    </g>
                    <g transform="matrix(46.0695,0,0,46.0695,1025.36,276)">
                        <path d="M0.308,-0.169C0.323,-0.169 0.338,-0.165 0.35,-0.158C0.363,-0.15 0.373,-0.14 0.38,-0.128C0.387,-0.115 0.391,-0.102 0.391,-0.087C0.391,-0.074 0.389,-0.061 0.386,-0.049C0.383,-0.036 0.378,-0.022 0.371,-0.006L0.288,0.184L0.21,0.184L0.259,-0.018C0.249,-0.026 0.241,-0.036 0.235,-0.048C0.229,-0.06 0.226,-0.073 0.226,-0.087C0.226,-0.102 0.229,-0.115 0.236,-0.128C0.244,-0.14 0.253,-0.15 0.266,-0.158C0.278,-0.165 0.292,-0.169 0.308,-0.169Z" style="fill-rule:nonzero;"/>
                    </g>
                    <g transform="matrix(46.0695,0,0,46.0695,1082.06,276)">
                        <path d="M0.382,-0.778L0.544,-0.761L0.544,-0L0.4,-0L0.392,-0.06C0.375,-0.037 0.355,-0.018 0.329,-0.004C0.304,0.01 0.275,0.017 0.241,0.017C0.197,0.017 0.16,0.006 0.13,-0.018C0.1,-0.042 0.078,-0.076 0.063,-0.119C0.048,-0.163 0.041,-0.214 0.041,-0.274C0.041,-0.33 0.05,-0.379 0.067,-0.423C0.085,-0.467 0.11,-0.501 0.143,-0.526C0.175,-0.55 0.214,-0.563 0.258,-0.563C0.307,-0.563 0.348,-0.546 0.382,-0.512L0.382,-0.778ZM0.302,-0.444C0.272,-0.444 0.249,-0.43 0.233,-0.403C0.216,-0.375 0.208,-0.332 0.208,-0.273C0.208,-0.21 0.215,-0.165 0.23,-0.14C0.245,-0.114 0.265,-0.102 0.292,-0.102C0.326,-0.102 0.356,-0.123 0.382,-0.165L0.382,-0.399C0.37,-0.414 0.357,-0.425 0.345,-0.433C0.332,-0.44 0.318,-0.444 0.302,-0.444Z" style="fill:rgb(41,165,56);fill-rule:nonzero;"/>
                    </g>
                    <g transform="matrix(46.0695,0,0,46.0695,1110.41,276)">
                        <path d="M0.308,-0.211C0.329,-0.211 0.348,-0.206 0.365,-0.197C0.382,-0.187 0.395,-0.174 0.405,-0.157C0.415,-0.14 0.419,-0.121 0.419,-0.1C0.419,-0.082 0.416,-0.063 0.411,-0.045C0.405,-0.027 0.393,0.001 0.375,0.041L0.301,0.209L0.193,0.209L0.246,-0.009C0.23,-0.019 0.218,-0.032 0.209,-0.048C0.201,-0.064 0.197,-0.082 0.197,-0.101C0.197,-0.122 0.202,-0.14 0.212,-0.157C0.221,-0.174 0.235,-0.187 0.251,-0.197C0.268,-0.206 0.287,-0.211 0.308,-0.211Z" style="fill:rgb(41,165,56);fill-rule:nonzero;"/>
                    </g>
                    <g transform="matrix(46.0695,0,0,46.0695,1167.11,276)">
                        <path d="M0.212,-0.225C0.217,-0.182 0.231,-0.151 0.254,-0.131C0.277,-0.111 0.307,-0.101 0.343,-0.101C0.389,-0.101 0.436,-0.116 0.483,-0.146L0.548,-0.057C0.521,-0.034 0.489,-0.016 0.452,-0.003C0.415,0.011 0.375,0.017 0.33,0.017C0.269,0.017 0.218,0.005 0.175,-0.019C0.133,-0.043 0.101,-0.077 0.079,-0.121C0.058,-0.164 0.047,-0.215 0.047,-0.272C0.047,-0.326 0.058,-0.375 0.078,-0.419C0.099,-0.464 0.13,-0.498 0.17,-0.524C0.21,-0.55 0.257,-0.563 0.313,-0.563C0.364,-0.563 0.409,-0.551 0.448,-0.529C0.486,-0.507 0.516,-0.475 0.537,-0.433C0.558,-0.391 0.568,-0.341 0.568,-0.283C0.568,-0.261 0.567,-0.242 0.565,-0.225L0.212,-0.225ZM0.313,-0.454C0.283,-0.454 0.259,-0.443 0.242,-0.422C0.224,-0.4 0.214,-0.367 0.21,-0.323L0.41,-0.323C0.409,-0.41 0.377,-0.454 0.313,-0.454Z" style="fill:rgb(41,165,56);fill-rule:nonzero;"/>
                    </g>
                    <g transform="matrix(46.0695,0,0,46.0695,1195.46,276)">
                        <path d="M0.308,-0.211C0.329,-0.211 0.348,-0.206 0.365,-0.197C0.382,-0.187 0.395,-0.174 0.405,-0.157C0.415,-0.14 0.419,-0.121 0.419,-0.1C0.419,-0.082 0.416,-0.063 0.411,-0.045C0.405,-0.027 0.393,0.001 0.375,0.041L0.301,0.209L0.193,0.209L0.246,-0.009C0.23,-0.019 0.218,-0.032 0.209,-0.048C0.201,-0.064 0.197,-0.082 0.197,-0.101C0.197,-0.122 0.202,-0.14 0.212,-0.157C0.221,-0.174 0.235,-0.187 0.251,-0.197C0.268,-0.206 0.287,-0.211 0.308,-0.211Z" style="fill:rgb(41,165,56);fill-rule:nonzero;"/>
                    </g>
                    <g transform="matrix(46.0695,0,0,46.0695,1252.16,276)">
                        <path d="M0.418,-0.778C0.489,-0.778 0.551,-0.766 0.605,-0.744L0.561,-0.638C0.524,-0.652 0.485,-0.658 0.444,-0.658C0.411,-0.658 0.388,-0.653 0.375,-0.641C0.361,-0.629 0.354,-0.61 0.354,-0.583L0.354,-0.51L0.531,-0.51L0.513,-0.398L0.354,-0.398L0.354,-0L0.193,-0L0.193,-0.398L0.078,-0.398L0.078,-0.51L0.193,-0.51L0.193,-0.589C0.193,-0.625 0.201,-0.658 0.219,-0.686C0.236,-0.715 0.262,-0.737 0.296,-0.754C0.33,-0.77 0.371,-0.778 0.418,-0.778Z" style="fill:rgb(41,165,56);fill-rule:nonzero;"/>
                    </g>
                    <g transform="matrix(46.0695,0,0,46.0695,1280.51,276)">
                        <path d="M0.397,-0.359C0.397,-0.429 0.39,-0.49 0.374,-0.542C0.358,-0.593 0.335,-0.64 0.304,-0.682C0.272,-0.723 0.231,-0.768 0.178,-0.814L0.223,-0.862C0.283,-0.813 0.332,-0.765 0.37,-0.718C0.408,-0.671 0.437,-0.618 0.457,-0.56C0.478,-0.502 0.488,-0.435 0.488,-0.359C0.488,-0.283 0.478,-0.216 0.457,-0.158C0.437,-0.099 0.408,-0.047 0.37,0C0.332,0.047 0.283,0.095 0.223,0.144L0.178,0.096C0.23,0.05 0.272,0.006 0.303,-0.036C0.334,-0.078 0.358,-0.125 0.374,-0.177C0.389,-0.228 0.397,-0.289 0.397,-0.359Z" style="fill-rule:nonzero;"/>
                    </g>
                    <g transform="matrix(46.0695,0,0,46.0695,1308.86,276)">
                        <path d="M0.224,-0.524C0.224,-0.539 0.228,-0.552 0.235,-0.565C0.242,-0.578 0.252,-0.588 0.265,-0.595C0.277,-0.602 0.291,-0.606 0.307,-0.606C0.322,-0.606 0.337,-0.602 0.349,-0.595C0.362,-0.588 0.372,-0.578 0.379,-0.565C0.387,-0.552 0.39,-0.539 0.39,-0.524C0.39,-0.509 0.387,-0.495 0.379,-0.482C0.372,-0.469 0.362,-0.459 0.349,-0.451C0.337,-0.444 0.322,-0.44 0.307,-0.44C0.291,-0.44 0.277,-0.444 0.265,-0.451C0.252,-0.459 0.242,-0.469 0.235,-0.482C0.228,-0.495 0.224,-0.509 0.224,-0.524ZM0.224,-0.154C0.224,-0.169 0.228,-0.182 0.235,-0.195C0.242,-0.208 0.252,-0.218 0.265,-0.225C0.277,-0.233 0.291,-0.236 0.307,-0.236C0.322,-0.236 0.336,-0.233 0.349,-0.225C0.362,-0.218 0.372,-0.208 0.379,-0.195C0.387,-0.182 0.39,-0.169 0.39,-0.154C0.39,-0.138 0.387,-0.124 0.379,-0.112C0.372,-0.099 0.362,-0.089 0.349,-0.081C0.337,-0.074 0.322,-0.07 0.307,-0.07C0.291,-0.07 0.277,-0.074 0.265,-0.081C0.252,-0.089 0.242,-0.099 0.235,-0.112C0.228,-0.124 0.224,-0.138 0.224,-0.154Z" style="fill-rule:nonzero;"/>
                    </g>
                </g>
                <g transform="matrix(1.31865,0,0,1.10519,75.0549,37.0872)">
                    <path d="M619,206.175L619,184.825L830.437,184.825L830.437,165L856,195.5L830.437,226L830.437,206.175L619,206.175Z" style="fill:none;stroke:black;stroke-width:0.85px;"/>
                </g>
                <g transform="matrix(3.68071,0,0,3.68071,-3025.88,-705.171)">
                    <g transform="matrix(12,0,0,12,1063.56,279.06)">
                        <path d="M0.057,-0.017C0.059,-0.062 0.06,-0.109 0.061,-0.156C0.062,-0.203 0.062,-0.261 0.061,-0.33C0.06,-0.398 0.06,-0.444 0.06,-0.469L0.06,-0.636C0.061,-0.644 0.061,-0.65 0.061,-0.655C0.062,-0.66 0.064,-0.664 0.066,-0.668C0.069,-0.675 0.074,-0.68 0.081,-0.683C0.09,-0.688 0.1,-0.688 0.11,-0.683C0.122,-0.678 0.134,-0.666 0.146,-0.649C0.153,-0.638 0.161,-0.624 0.17,-0.606L0.19,-0.563C0.197,-0.548 0.201,-0.538 0.203,-0.534C0.282,-0.385 0.359,-0.258 0.432,-0.154C0.433,-0.153 0.44,-0.143 0.453,-0.122C0.444,-0.197 0.439,-0.237 0.438,-0.244C0.431,-0.343 0.428,-0.403 0.427,-0.424C0.426,-0.451 0.426,-0.495 0.425,-0.554C0.424,-0.613 0.424,-0.659 0.423,-0.69C0.423,-0.699 0.426,-0.707 0.432,-0.714C0.438,-0.721 0.446,-0.724 0.455,-0.724C0.464,-0.724 0.472,-0.721 0.479,-0.715C0.486,-0.709 0.489,-0.701 0.489,-0.692C0.49,-0.661 0.49,-0.615 0.491,-0.556C0.492,-0.497 0.492,-0.453 0.493,-0.426C0.494,-0.406 0.497,-0.347 0.504,-0.248C0.504,-0.243 0.509,-0.203 0.518,-0.127C0.523,-0.095 0.526,-0.071 0.527,-0.055C0.528,-0.044 0.529,-0.036 0.53,-0.03L0.53,-0.016C0.53,-0.014 0.53,-0.012 0.529,-0.011C0.528,-0.003 0.524,0.003 0.517,0.008C0.503,0.019 0.488,0.019 0.472,0.009C0.466,0.006 0.46,0 0.454,-0.007C0.445,-0.016 0.435,-0.03 0.422,-0.048C0.415,-0.059 0.406,-0.072 0.396,-0.089C0.385,-0.106 0.379,-0.115 0.378,-0.116C0.303,-0.223 0.225,-0.352 0.145,-0.504C0.142,-0.509 0.137,-0.519 0.13,-0.536L0.126,-0.544L0.126,-0.469C0.126,-0.445 0.126,-0.398 0.127,-0.329C0.128,-0.26 0.128,-0.201 0.127,-0.153C0.126,-0.105 0.125,-0.058 0.123,-0.013C0.122,-0.004 0.119,0.003 0.112,0.01C0.105,0.016 0.097,0.019 0.089,0.018C0.08,0.017 0.072,0.014 0.066,0.007C0.059,0 0.056,-0.008 0.057,-0.017Z" style="fill-rule:nonzero;"/>
                    </g>
                    <g transform="matrix(12,0,0,12,1069.9,279.06)">
                        <path d="M0.246,-0.429L0.231,-0.433C0.227,-0.434 0.224,-0.435 0.222,-0.435C0.196,-0.434 0.172,-0.418 0.15,-0.388C0.127,-0.357 0.111,-0.319 0.102,-0.272C0.094,-0.225 0.096,-0.182 0.107,-0.144C0.118,-0.105 0.138,-0.079 0.166,-0.064C0.201,-0.047 0.233,-0.05 0.262,-0.074C0.293,-0.099 0.315,-0.137 0.328,-0.188C0.34,-0.237 0.339,-0.284 0.326,-0.329C0.312,-0.374 0.285,-0.407 0.246,-0.429ZM0.27,-0.491C0.275,-0.49 0.279,-0.487 0.282,-0.484C0.31,-0.468 0.333,-0.448 0.352,-0.423C0.37,-0.397 0.383,-0.371 0.39,-0.344C0.397,-0.316 0.402,-0.287 0.403,-0.257C0.404,-0.227 0.4,-0.199 0.392,-0.172C0.376,-0.106 0.346,-0.056 0.303,-0.022C0.252,0.019 0.196,0.025 0.136,-0.006C0.113,-0.017 0.093,-0.034 0.077,-0.056C0.06,-0.077 0.049,-0.1 0.043,-0.126C0.037,-0.151 0.033,-0.177 0.032,-0.205C0.03,-0.233 0.032,-0.259 0.038,-0.284C0.048,-0.341 0.067,-0.389 0.096,-0.428C0.131,-0.474 0.171,-0.498 0.218,-0.501L0.219,-0.501C0.228,-0.505 0.236,-0.505 0.245,-0.502C0.254,-0.499 0.262,-0.495 0.27,-0.491Z" style="fill-rule:nonzero;"/>
                    </g>
                    <g transform="matrix(12,0,0,12,1074.75,279.06)">
                        <path d="M0.09,-0.46C0.091,-0.447 0.093,-0.425 0.096,-0.395C0.099,-0.365 0.102,-0.342 0.103,-0.326C0.104,-0.319 0.104,-0.312 0.104,-0.304C0.112,-0.323 0.12,-0.341 0.128,-0.356C0.149,-0.397 0.171,-0.425 0.194,-0.441C0.211,-0.453 0.229,-0.458 0.247,-0.457C0.266,-0.455 0.284,-0.446 0.3,-0.429C0.312,-0.416 0.322,-0.395 0.331,-0.365C0.336,-0.348 0.34,-0.328 0.345,-0.305C0.354,-0.328 0.364,-0.349 0.375,-0.368C0.394,-0.404 0.413,-0.432 0.432,-0.452C0.461,-0.481 0.49,-0.492 0.52,-0.487C0.539,-0.484 0.556,-0.472 0.569,-0.452C0.579,-0.438 0.587,-0.419 0.594,-0.396C0.605,-0.359 0.612,-0.311 0.616,-0.251C0.619,-0.22 0.62,-0.186 0.621,-0.148C0.622,-0.11 0.622,-0.08 0.622,-0.059C0.621,-0.038 0.621,-0.019 0.622,-0.003C0.622,0.006 0.619,0.014 0.613,0.021C0.606,0.028 0.599,0.031 0.59,0.031C0.581,0.031 0.573,0.028 0.566,0.022C0.559,0.015 0.556,0.008 0.556,-0.001C0.555,-0.017 0.555,-0.036 0.556,-0.057C0.556,-0.078 0.556,-0.107 0.555,-0.144C0.554,-0.181 0.553,-0.215 0.551,-0.246C0.546,-0.303 0.54,-0.347 0.531,-0.378C0.526,-0.395 0.52,-0.407 0.515,-0.415C0.514,-0.418 0.512,-0.419 0.511,-0.42L0.508,-0.423C0.501,-0.424 0.492,-0.418 0.479,-0.405C0.464,-0.39 0.449,-0.368 0.433,-0.337C0.419,-0.312 0.407,-0.285 0.397,-0.257C0.386,-0.229 0.38,-0.208 0.377,-0.195C0.374,-0.176 0.372,-0.138 0.372,-0.083C0.372,-0.081 0.372,-0.077 0.373,-0.07L0.375,-0.051C0.376,-0.042 0.376,-0.036 0.375,-0.031C0.374,-0.027 0.373,-0.023 0.371,-0.019C0.364,-0.004 0.352,0.002 0.336,-0.001C0.327,-0.002 0.32,-0.007 0.314,-0.014C0.313,-0.016 0.311,-0.018 0.309,-0.021L0.306,-0.031L0.306,-0.038C0.305,-0.041 0.305,-0.045 0.305,-0.05C0.304,-0.057 0.304,-0.068 0.303,-0.082C0.303,-0.087 0.303,-0.094 0.303,-0.103C0.302,-0.112 0.301,-0.13 0.301,-0.131C0.297,-0.18 0.291,-0.226 0.284,-0.271C0.279,-0.301 0.273,-0.326 0.268,-0.346C0.262,-0.366 0.257,-0.378 0.252,-0.383C0.247,-0.388 0.244,-0.39 0.241,-0.391C0.239,-0.391 0.236,-0.39 0.232,-0.387C0.218,-0.378 0.203,-0.357 0.187,-0.325C0.173,-0.298 0.16,-0.269 0.149,-0.236C0.138,-0.203 0.13,-0.179 0.127,-0.164C0.122,-0.139 0.119,-0.109 0.116,-0.073C0.115,-0.07 0.116,-0.06 0.117,-0.044C0.118,-0.036 0.118,-0.031 0.118,-0.03L0.118,-0.025C0.118,-0.022 0.117,-0.018 0.116,-0.015C0.112,-0.005 0.104,0.002 0.093,0.005C0.079,0.009 0.068,0.005 0.059,-0.007L0.053,-0.017C0.053,-0.018 0.053,-0.02 0.053,-0.021C0.052,-0.022 0.052,-0.023 0.052,-0.024C0.045,-0.062 0.041,-0.118 0.04,-0.192C0.039,-0.265 0.038,-0.309 0.037,-0.322C0.036,-0.338 0.034,-0.361 0.031,-0.39L0.024,-0.454C0.023,-0.463 0.026,-0.472 0.032,-0.479C0.038,-0.486 0.046,-0.489 0.055,-0.49C0.064,-0.491 0.072,-0.488 0.079,-0.482C0.086,-0.476 0.089,-0.469 0.09,-0.46Z" style="fill-rule:nonzero;"/>
                    </g>
                    <g transform="matrix(12,0,0,12,1082.28,279.06)">
                        <path d="M0.108,-0.455C0.113,-0.395 0.114,-0.32 0.112,-0.23C0.109,-0.09 0.107,-0.017 0.107,-0.01C0.107,-0.001 0.104,0.007 0.098,0.014C0.091,0.02 0.083,0.023 0.074,0.023C0.065,0.023 0.057,0.02 0.051,0.014C0.044,0.007 0.041,-0.001 0.041,-0.01C0.041,-0.013 0.043,-0.087 0.046,-0.232C0.048,-0.313 0.047,-0.386 0.042,-0.449C0.041,-0.458 0.044,-0.467 0.05,-0.474C0.056,-0.481 0.064,-0.484 0.073,-0.485C0.082,-0.486 0.09,-0.483 0.097,-0.477C0.103,-0.471 0.107,-0.464 0.108,-0.455ZM0.094,-0.646C0.101,-0.64 0.104,-0.632 0.104,-0.623C0.104,-0.614 0.101,-0.606 0.095,-0.6C0.088,-0.593 0.08,-0.59 0.071,-0.59C0.062,-0.59 0.054,-0.593 0.048,-0.6C0.041,-0.606 0.038,-0.614 0.038,-0.623C0.038,-0.632 0.041,-0.64 0.048,-0.647C0.054,-0.653 0.062,-0.656 0.071,-0.656C0.08,-0.656 0.088,-0.653 0.094,-0.646Z" style="fill-rule:nonzero;"/>
                    </g>
                    <g transform="matrix(12,0,0,12,1083.88,279.06)">
                        <path d="M0.102,-0.305C0.113,-0.326 0.125,-0.345 0.138,-0.363C0.167,-0.406 0.197,-0.438 0.227,-0.458C0.269,-0.486 0.308,-0.489 0.345,-0.467C0.369,-0.453 0.388,-0.423 0.402,-0.376C0.413,-0.342 0.421,-0.299 0.427,-0.246C0.436,-0.169 0.439,-0.092 0.438,-0.015C0.438,-0.006 0.435,0.001 0.428,0.008C0.421,0.014 0.413,0.017 0.405,0.017C0.396,0.017 0.388,0.014 0.382,0.007C0.375,0 0.372,-0.008 0.372,-0.017C0.373,-0.088 0.37,-0.162 0.361,-0.238C0.356,-0.288 0.348,-0.327 0.339,-0.356C0.33,-0.387 0.32,-0.405 0.311,-0.411C0.298,-0.418 0.282,-0.416 0.263,-0.403C0.241,-0.388 0.217,-0.362 0.192,-0.325C0.17,-0.292 0.151,-0.258 0.134,-0.222C0.117,-0.185 0.108,-0.158 0.106,-0.141C0.104,-0.129 0.103,-0.112 0.102,-0.09C0.101,-0.063 0.1,-0.044 0.099,-0.033C0.099,-0.032 0.099,-0.03 0.098,-0.029L0.098,-0.027C0.098,-0.024 0.097,-0.022 0.096,-0.019C0.094,-0.016 0.092,-0.013 0.089,-0.01C0.08,-0.001 0.07,0.002 0.058,-0.001C0.049,-0.003 0.042,-0.008 0.037,-0.016C0.036,-0.019 0.035,-0.021 0.034,-0.024L0.033,-0.031C0.032,-0.032 0.032,-0.033 0.032,-0.035C0.032,-0.037 0.032,-0.042 0.033,-0.049C0.034,-0.071 0.034,-0.083 0.034,-0.085C0.034,-0.094 0.035,-0.112 0.036,-0.141C0.037,-0.169 0.037,-0.191 0.037,-0.207L0.037,-0.25C0.037,-0.273 0.037,-0.288 0.037,-0.296C0.036,-0.304 0.036,-0.318 0.035,-0.337C0.034,-0.356 0.034,-0.372 0.033,-0.383C0.032,-0.394 0.03,-0.407 0.029,-0.422C0.027,-0.437 0.025,-0.452 0.022,-0.465C0.02,-0.474 0.022,-0.482 0.027,-0.49C0.032,-0.497 0.039,-0.502 0.048,-0.504C0.056,-0.505 0.065,-0.503 0.073,-0.499C0.08,-0.494 0.085,-0.486 0.086,-0.477C0.095,-0.432 0.101,-0.374 0.102,-0.305Z" style="fill-rule:nonzero;"/>
                    </g>
                    <g transform="matrix(12,0,0,12,1089.18,279.06)">
                        <path d="M0.325,-0.119C0.306,-0.164 0.292,-0.194 0.282,-0.207C0.26,-0.234 0.232,-0.247 0.197,-0.246C0.162,-0.245 0.135,-0.229 0.115,-0.198C0.088,-0.157 0.085,-0.122 0.108,-0.093C0.118,-0.08 0.132,-0.071 0.152,-0.065C0.17,-0.058 0.192,-0.057 0.216,-0.061C0.245,-0.067 0.282,-0.086 0.325,-0.119ZM0.142,-0.452C0.199,-0.505 0.251,-0.523 0.297,-0.505C0.334,-0.491 0.362,-0.454 0.382,-0.395C0.387,-0.377 0.392,-0.358 0.397,-0.337C0.402,-0.316 0.406,-0.294 0.409,-0.271C0.412,-0.248 0.414,-0.229 0.416,-0.213C0.417,-0.197 0.419,-0.178 0.42,-0.157C0.421,-0.136 0.422,-0.123 0.423,-0.119C0.423,-0.118 0.425,-0.099 0.43,-0.064C0.431,-0.051 0.432,-0.04 0.433,-0.033C0.434,-0.021 0.435,-0.012 0.434,-0.007C0.433,-0.004 0.432,-0.001 0.431,0.002C0.428,0.011 0.422,0.017 0.414,0.02C0.401,0.027 0.388,0.025 0.377,0.015C0.374,0.012 0.372,0.009 0.37,0.005C0.368,0.001 0.366,-0.005 0.364,-0.012L0.36,-0.026C0.359,-0.031 0.358,-0.034 0.357,-0.035L0.35,-0.055C0.307,-0.023 0.266,-0.004 0.228,0.003C0.192,0.01 0.159,0.008 0.129,-0.002C0.098,-0.012 0.074,-0.029 0.056,-0.053C0.037,-0.077 0.027,-0.105 0.028,-0.138C0.028,-0.171 0.038,-0.203 0.059,-0.234C0.08,-0.266 0.108,-0.289 0.142,-0.302C0.176,-0.315 0.211,-0.316 0.246,-0.307C0.28,-0.297 0.31,-0.277 0.334,-0.247C0.338,-0.242 0.342,-0.235 0.347,-0.228C0.34,-0.289 0.331,-0.337 0.319,-0.373C0.306,-0.413 0.29,-0.437 0.273,-0.444C0.253,-0.452 0.224,-0.439 0.186,-0.404C0.179,-0.397 0.171,-0.394 0.163,-0.395C0.154,-0.396 0.146,-0.399 0.14,-0.406C0.133,-0.413 0.13,-0.421 0.131,-0.43C0.132,-0.439 0.135,-0.446 0.142,-0.452Z" style="fill-rule:nonzero;"/>
                    </g>
                    <g transform="matrix(12,0,0,12,1094.37,279.06)">
                        <path d="M0.106,-0.678C0.109,-0.629 0.11,-0.479 0.11,-0.226C0.11,-0.205 0.111,-0.17 0.112,-0.119C0.113,-0.07 0.114,-0.034 0.113,-0.009C0.113,0 0.11,0.008 0.103,0.014C0.096,0.02 0.088,0.023 0.079,0.023C0.07,0.023 0.062,0.02 0.056,0.013C0.05,0.006 0.047,-0.002 0.047,-0.011C0.048,-0.034 0.047,-0.069 0.046,-0.117C0.045,-0.168 0.044,-0.205 0.044,-0.226C0.044,-0.477 0.043,-0.627 0.04,-0.674C0.039,-0.683 0.042,-0.691 0.048,-0.698C0.054,-0.705 0.062,-0.708 0.071,-0.709C0.08,-0.71 0.088,-0.707 0.095,-0.701C0.102,-0.695 0.105,-0.687 0.106,-0.678Z" style="fill-rule:nonzero;"/>
                    </g>
                    <g transform="matrix(12,0,0,12,1095.91,279.06)">
                        <path d="M0.288,-0.335C0.292,-0.336 0.298,-0.336 0.306,-0.337C0.303,-0.352 0.297,-0.367 0.287,-0.384C0.276,-0.402 0.265,-0.416 0.252,-0.427C0.239,-0.438 0.228,-0.443 0.219,-0.443C0.191,-0.443 0.166,-0.425 0.144,-0.389C0.134,-0.372 0.125,-0.353 0.118,-0.332C0.153,-0.331 0.184,-0.331 0.211,-0.332C0.245,-0.333 0.271,-0.334 0.288,-0.335ZM0.104,-0.263L0.102,-0.246C0.098,-0.189 0.106,-0.143 0.127,-0.107C0.147,-0.07 0.177,-0.052 0.216,-0.051C0.237,-0.05 0.254,-0.053 0.267,-0.06C0.28,-0.067 0.298,-0.08 0.319,-0.1C0.324,-0.105 0.329,-0.11 0.334,-0.117C0.339,-0.124 0.344,-0.13 0.348,-0.135L0.362,-0.159L0.375,-0.18C0.38,-0.188 0.388,-0.193 0.397,-0.195C0.406,-0.196 0.414,-0.195 0.422,-0.19C0.429,-0.185 0.434,-0.177 0.436,-0.168C0.437,-0.159 0.436,-0.15 0.431,-0.143C0.43,-0.142 0.425,-0.136 0.418,-0.125L0.402,-0.099C0.397,-0.092 0.391,-0.083 0.384,-0.074C0.377,-0.064 0.37,-0.056 0.363,-0.051C0.338,-0.027 0.314,-0.01 0.293,0.001C0.272,0.012 0.245,0.017 0.214,0.016C0.179,0.015 0.15,0.006 0.125,-0.011C0.099,-0.028 0.081,-0.05 0.068,-0.077C0.055,-0.103 0.046,-0.132 0.041,-0.161C0.036,-0.19 0.034,-0.221 0.037,-0.252C0.042,-0.318 0.059,-0.375 0.088,-0.423C0.123,-0.481 0.167,-0.51 0.219,-0.509C0.245,-0.509 0.269,-0.5 0.29,-0.481C0.311,-0.462 0.329,-0.441 0.344,-0.416C0.357,-0.393 0.366,-0.371 0.371,-0.35C0.374,-0.338 0.375,-0.327 0.374,-0.317C0.372,-0.302 0.365,-0.29 0.354,-0.281C0.347,-0.276 0.338,-0.273 0.325,-0.27C0.317,-0.269 0.306,-0.267 0.293,-0.266C0.274,-0.265 0.247,-0.264 0.212,-0.263C0.183,-0.262 0.147,-0.262 0.104,-0.263Z" style="fill-rule:nonzero;"/>
                    </g>
                    <g transform="matrix(12,0,0,12,1101.1,279.06)">
                        <path d="M0.285,-0.389C0.282,-0.392 0.277,-0.396 0.27,-0.402C0.263,-0.408 0.259,-0.412 0.257,-0.414C0.255,-0.416 0.252,-0.419 0.247,-0.422C0.242,-0.425 0.238,-0.428 0.235,-0.429C0.232,-0.43 0.228,-0.432 0.223,-0.433C0.198,-0.438 0.179,-0.434 0.164,-0.419C0.149,-0.405 0.146,-0.387 0.154,-0.365C0.158,-0.354 0.166,-0.342 0.178,-0.33C0.19,-0.317 0.209,-0.3 0.235,-0.278C0.24,-0.273 0.244,-0.27 0.247,-0.267C0.266,-0.251 0.281,-0.238 0.292,-0.227C0.303,-0.216 0.315,-0.2 0.328,-0.181C0.341,-0.161 0.348,-0.142 0.351,-0.123C0.355,-0.092 0.35,-0.065 0.337,-0.042C0.323,-0.019 0.304,-0.001 0.279,0.01C0.257,0.021 0.233,0.026 0.206,0.025C0.179,0.024 0.154,0.018 0.131,0.005C0.106,-0.009 0.086,-0.026 0.071,-0.046C0.056,-0.065 0.043,-0.089 0.03,-0.118C0.026,-0.127 0.026,-0.135 0.029,-0.144C0.032,-0.152 0.038,-0.158 0.047,-0.162C0.055,-0.166 0.063,-0.166 0.072,-0.163C0.08,-0.16 0.086,-0.154 0.09,-0.146C0.101,-0.122 0.111,-0.103 0.122,-0.089C0.133,-0.074 0.146,-0.062 0.163,-0.053C0.176,-0.046 0.191,-0.042 0.207,-0.041C0.223,-0.04 0.238,-0.043 0.251,-0.05C0.278,-0.063 0.29,-0.084 0.285,-0.113C0.283,-0.128 0.275,-0.144 0.262,-0.16C0.249,-0.176 0.229,-0.195 0.204,-0.217C0.202,-0.219 0.196,-0.224 0.187,-0.232C0.178,-0.239 0.171,-0.245 0.167,-0.248L0.149,-0.265C0.141,-0.272 0.135,-0.279 0.131,-0.284L0.115,-0.302C0.11,-0.309 0.105,-0.316 0.101,-0.323C0.097,-0.33 0.094,-0.336 0.092,-0.343C0.084,-0.367 0.082,-0.39 0.087,-0.411C0.092,-0.432 0.102,-0.451 0.117,-0.466C0.132,-0.481 0.151,-0.491 0.172,-0.497C0.193,-0.502 0.215,-0.502 0.237,-0.497C0.246,-0.495 0.254,-0.492 0.262,-0.489C0.269,-0.486 0.277,-0.482 0.284,-0.477C0.291,-0.472 0.297,-0.467 0.301,-0.464L0.317,-0.449L0.329,-0.437C0.336,-0.431 0.339,-0.424 0.34,-0.415C0.341,-0.406 0.338,-0.398 0.332,-0.391C0.325,-0.384 0.318,-0.381 0.309,-0.38C0.3,-0.379 0.292,-0.382 0.285,-0.389Z" style="fill-rule:nonzero;"/>
                    </g>
                </g>
            </g>
        </g>
    </g>
</svg>
