<?xml version="1.0" encoding="UTF-8" standalone="no"?>
<!DOCTYPE svg PUBLIC "-//W3C//DTD SVG 1.1//EN" "http://www.w3.org/Graphics/SVG/1.1/DTD/svg11.dtd">
<svg width="244px" height="82px" version="1.1" xmlns="http://www.w3.org/2000/svg" xmlns:xlink="http://www.w3.org/1999/xlink" xml:space="preserve" xmlns:serif="http://www.serif.com/" style="fill-rule:evenodd;clip-rule:evenodd;stroke-linejoin:round;stroke-miterlimit:2;">
    <g transform="matrix(1,0,0,1,-40,-40)">
        <g transform="matrix(0.417187,0,0,0.293519,0,0)">
            <g transform="matrix(1.39255,0,0,1.73186,-349.734,-140.82)">
                <rect x="320" y="160" width="420" height="160" style="fill:rgb(249,75,115);"/>
            </g>
        </g>
        <g transform="matrix(0.417187,0,0,0.293519,0,0)">
            <g transform="matrix(0.860258,0,0,1.15457,-196.661,-2.27129)">
                <rect x="480" y="160" width="400" height="160" style="fill:rgb(107,160,246);"/>
            </g>
        </g>
        <g transform="matrix(0.417187,0,0,0.293519,0,0)">
            <g transform="matrix(0.812318,0,0,1.15457,-196.554,-2.27129)">
                <rect x="400" y="200" width="80" height="80" style="fill:white;"/>
                <g transform="matrix(1,0,0,1,-64.899,-169.864)">
                    <g transform="matrix(55.8419,0,0,55.8419,490,430)">
                        <path d="M0.373,-0L0.285,-0L0.285,-0.56C0.264,-0.54 0.236,-0.52 0.201,-0.5C0.167,-0.479 0.136,-0.464 0.109,-0.454L0.109,-0.539C0.158,-0.562 0.201,-0.59 0.238,-0.623C0.275,-0.656 0.301,-0.688 0.316,-0.719L0.373,-0.719L0.373,-0Z" style="fill-rule:nonzero;"/>
                    </g>
                </g>
            </g>
        </g>
        <g transform="matrix(0.417187,0,0,0.293519,0,0)">
            <g transform="matrix(0.812318,0,0,1.15457,-66.5834,-2.27129)">
                <rect x="400" y="200" width="80" height="80" style="fill:white;"/>
                <g transform="matrix(1,0,0,1,-64.899,-169.864)">
                    <g transform="matrix(55.8419,0,0,55.8419,490,430)">
                        <path d="M0.042,-0.189L0.13,-0.201C0.14,-0.151 0.157,-0.115 0.181,-0.093C0.206,-0.071 0.235,-0.06 0.27,-0.06C0.311,-0.06 0.346,-0.074 0.375,-0.103C0.403,-0.132 0.417,-0.167 0.417,-0.209C0.417,-0.25 0.404,-0.283 0.378,-0.309C0.352,-0.336 0.318,-0.349 0.277,-0.349C0.261,-0.349 0.24,-0.345 0.215,-0.339L0.225,-0.416C0.231,-0.415 0.236,-0.415 0.239,-0.415C0.277,-0.415 0.31,-0.425 0.34,-0.444C0.37,-0.464 0.385,-0.494 0.385,-0.535C0.385,-0.567 0.374,-0.594 0.353,-0.615C0.331,-0.636 0.303,-0.646 0.268,-0.646C0.234,-0.646 0.205,-0.636 0.183,-0.614C0.16,-0.593 0.145,-0.561 0.139,-0.518L0.051,-0.533C0.062,-0.592 0.086,-0.638 0.124,-0.67C0.162,-0.703 0.209,-0.719 0.266,-0.719C0.305,-0.719 0.341,-0.71 0.374,-0.694C0.407,-0.677 0.432,-0.654 0.449,-0.625C0.467,-0.596 0.476,-0.565 0.476,-0.533C0.476,-0.502 0.467,-0.474 0.451,-0.448C0.434,-0.423 0.41,-0.403 0.377,-0.388C0.419,-0.378 0.452,-0.358 0.476,-0.327C0.499,-0.296 0.511,-0.258 0.511,-0.211C0.511,-0.149 0.488,-0.096 0.442,-0.052C0.397,-0.009 0.339,0.013 0.27,0.013C0.207,0.013 0.155,-0.006 0.113,-0.043C0.072,-0.081 0.048,-0.129 0.042,-0.189Z" style="fill-rule:nonzero;"/>
                    </g>
                </g>
            </g>
        </g>
        <g transform="matrix(0.417187,0,0,0.293519,0,0)">
            <g transform="matrix(0.812318,0,0,1.15457,30.8947,-2.27129)">
                <rect x="400" y="200" width="80" height="80" style="fill:white;"/>
                <g transform="matrix(1,0,0,1,-64.899,-169.864)">
                    <g transform="matrix(55.8419,0,0,55.8419,490,430)">
                        <path d="M0.042,-0.188L0.134,-0.195C0.141,-0.15 0.156,-0.117 0.181,-0.094C0.206,-0.071 0.236,-0.06 0.271,-0.06C0.314,-0.06 0.35,-0.076 0.379,-0.108C0.408,-0.14 0.423,-0.182 0.423,-0.235C0.423,-0.285 0.409,-0.325 0.381,-0.354C0.352,-0.382 0.316,-0.397 0.27,-0.397C0.242,-0.397 0.216,-0.391 0.193,-0.378C0.171,-0.365 0.153,-0.348 0.14,-0.328L0.057,-0.338L0.126,-0.706L0.482,-0.706L0.482,-0.622L0.197,-0.622L0.158,-0.43C0.201,-0.46 0.246,-0.475 0.293,-0.475C0.356,-0.475 0.409,-0.453 0.452,-0.41C0.495,-0.366 0.516,-0.311 0.516,-0.243C0.516,-0.178 0.497,-0.122 0.459,-0.075C0.414,-0.017 0.351,0.012 0.271,0.012C0.206,0.012 0.153,-0.006 0.112,-0.042C0.071,-0.079 0.047,-0.127 0.042,-0.188Z" style="fill-rule:nonzero;"/>
                    </g>
                </g>
            </g>
        </g>
        <g transform="matrix(0.417187,0,0,0.293519,0,0)">
            <g transform="matrix(0.812318,0,0,1.15457,128.373,-2.27129)">
                <rect x="400" y="200" width="80" height="80" style="fill:white;"/>
                <g transform="matrix(1,0,0,1,-64.899,-169.864)">
                    <g transform="matrix(55.8419,0,0,55.8419,490,430)">
                        <path d="M0.047,-0.622L0.047,-0.707L0.511,-0.707L0.511,-0.638C0.465,-0.59 0.42,-0.525 0.375,-0.445C0.33,-0.364 0.296,-0.282 0.271,-0.197C0.254,-0.137 0.243,-0.071 0.238,-0L0.147,-0C0.148,-0.056 0.16,-0.124 0.181,-0.204C0.202,-0.284 0.232,-0.361 0.272,-0.435C0.311,-0.509 0.353,-0.571 0.398,-0.622L0.047,-0.622Z" style="fill-rule:nonzero;"/>
                    </g>
                </g>
            </g>
        </g>
        <g transform="matrix(0.417187,0,0,0.293519,0,0)">
            <g transform="matrix(0.812318,0,0,1.15457,258.344,-2.27129)">
                <rect x="400" y="200" width="80" height="80" style="fill:white;"/>
                <g transform="matrix(1,0,0,1,-64.899,-169.864)">
                    <g transform="matrix(55.8419,0,0,55.8419,490,430)">
                        <path d="M0.055,-0.166L0.139,-0.173C0.146,-0.134 0.16,-0.105 0.18,-0.087C0.2,-0.069 0.226,-0.06 0.258,-0.06C0.285,-0.06 0.309,-0.066 0.329,-0.079C0.349,-0.091 0.366,-0.108 0.379,-0.128C0.392,-0.149 0.403,-0.177 0.412,-0.212C0.42,-0.247 0.425,-0.283 0.425,-0.319C0.425,-0.323 0.425,-0.329 0.424,-0.337C0.407,-0.309 0.383,-0.286 0.352,-0.269C0.322,-0.251 0.289,-0.243 0.253,-0.243C0.194,-0.243 0.144,-0.264 0.103,-0.307C0.062,-0.35 0.042,-0.407 0.042,-0.477C0.042,-0.55 0.063,-0.608 0.106,-0.652C0.149,-0.697 0.202,-0.719 0.267,-0.719C0.313,-0.719 0.356,-0.706 0.394,-0.681C0.433,-0.656 0.462,-0.62 0.482,-0.574C0.502,-0.528 0.512,-0.46 0.512,-0.373C0.512,-0.281 0.502,-0.208 0.482,-0.154C0.463,-0.1 0.433,-0.059 0.394,-0.03C0.355,-0.002 0.309,0.012 0.256,0.012C0.2,0.012 0.154,-0.003 0.119,-0.034C0.083,-0.066 0.062,-0.109 0.055,-0.166ZM0.415,-0.481C0.415,-0.532 0.401,-0.572 0.374,-0.602C0.347,-0.631 0.315,-0.646 0.277,-0.646C0.238,-0.646 0.204,-0.63 0.175,-0.598C0.146,-0.566 0.132,-0.525 0.132,-0.474C0.132,-0.429 0.146,-0.392 0.173,-0.363C0.201,-0.335 0.235,-0.32 0.275,-0.32C0.316,-0.32 0.349,-0.335 0.375,-0.363C0.401,-0.392 0.415,-0.431 0.415,-0.481Z" style="fill-rule:nonzero;"/>
                    </g>
                </g>
            </g>
        </g>
        <g transform="matrix(0.417187,0,0,0.293519,0,0)">
            <g transform="matrix(1.28887,0,0,1.83191,-116.037,-223.641)">
                <g transform="matrix(29.7564,0,0,29.7564,175.556,224)">
                    <path d="M0.342,-0.551L0.2,-0.291L0.383,-0.291L0.342,-0.551ZM0.339,-0.677L0.442,-0.677L0.544,-0.069L0.554,-0.056L0.612,-0.049L0.612,-0L0.349,-0L0.349,-0.049L0.41,-0.055L0.421,-0.07L0.393,-0.236L0.17,-0.236L0.078,-0.068L0.088,-0.053L0.147,-0.049L0.147,-0L-0.068,-0L-0.068,-0.049L-0.012,-0.056L0.339,-0.677Z" style="fill:rgb(84,3,22);fill-rule:nonzero;"/>
                </g>
            </g>
        </g>
        <g transform="matrix(0.417187,0,0,0.293519,0,0)">
            <g transform="matrix(1.28887,0,0,1.83191,-2.83766,-178.173)">
                <g transform="matrix(29.7564,0,0,29.7564,175.556,224)">
                    <path d="M0.18,-0.056C0.189,-0.055 0.198,-0.054 0.208,-0.054C0.217,-0.053 0.226,-0.053 0.235,-0.053C0.297,-0.053 0.344,-0.067 0.376,-0.094C0.407,-0.122 0.423,-0.162 0.423,-0.217C0.423,-0.252 0.411,-0.278 0.388,-0.295C0.365,-0.312 0.33,-0.321 0.283,-0.321C0.275,-0.321 0.266,-0.321 0.257,-0.32C0.249,-0.32 0.239,-0.319 0.23,-0.318L0.18,-0.056ZM0.239,-0.375L0.242,-0.375C0.257,-0.374 0.268,-0.373 0.275,-0.373C0.328,-0.373 0.37,-0.387 0.399,-0.414C0.428,-0.441 0.443,-0.479 0.443,-0.528C0.443,-0.559 0.433,-0.582 0.413,-0.597C0.393,-0.612 0.362,-0.62 0.322,-0.62C0.315,-0.62 0.304,-0.619 0.289,-0.618L0.284,-0.618L0.239,-0.375ZM0.082,-0.671L0.382,-0.671C0.448,-0.671 0.498,-0.66 0.53,-0.639C0.563,-0.618 0.579,-0.587 0.579,-0.544C0.579,-0.499 0.564,-0.46 0.535,-0.428C0.505,-0.396 0.462,-0.373 0.406,-0.358C0.457,-0.356 0.495,-0.343 0.521,-0.319C0.548,-0.296 0.561,-0.263 0.561,-0.22C0.561,-0.15 0.536,-0.095 0.487,-0.057C0.437,-0.019 0.367,-0 0.275,-0L-0.023,-0L-0.023,-0.049L0.041,-0.054L0.056,-0.069L0.157,-0.605L0.146,-0.619L0.082,-0.624L0.082,-0.671Z" style="fill:rgb(3,22,53);fill-rule:nonzero;"/>
                </g>
            </g>
        </g>
    </g>
</svg>
