<?xml version="1.0" encoding="UTF-8" standalone="no"?>
<!DOCTYPE svg PUBLIC "-//W3C//DTD SVG 1.1//EN" "http://www.w3.org/Graphics/SVG/1.1/DTD/svg11.dtd">
<svg width="926px" height="174px" version="1.1" xmlns="http://www.w3.org/2000/svg" xmlns:xlink="http://www.w3.org/1999/xlink" xml:space="preserve" xmlns:serif="http://www.serif.com/" style="fill-rule:evenodd;clip-rule:evenodd;stroke-linecap:round;stroke-linejoin:round;stroke-miterlimit:1.5;">
    <g transform="matrix(1,0,0,1,-1961,-188)">
        <g transform="matrix(0.670833,0,0,0.473148,1764,0)">
            <g id="string-indexing-dark">
                <g transform="matrix(1.49068,0,0,2.1135,-453.168,-352.955)">
                    <rect x="502" y="396" width="84" height="84" style="fill:rgb(26,230,192);stroke:black;stroke-width:1px;"/>
                    <g transform="matrix(60,0,0,60,525.16,459)">
                        <path d="M0.433,-0.688C0.433,-0.691 0.434,-0.694 0.437,-0.697C0.439,-0.699 0.442,-0.7 0.445,-0.7L0.562,-0.7C0.565,-0.7 0.568,-0.699 0.571,-0.697C0.573,-0.694 0.574,-0.691 0.574,-0.688L0.574,-0.012C0.574,-0.009 0.573,-0.006 0.571,-0.004C0.568,-0.001 0.565,-0 0.562,-0L0.445,-0C0.442,-0 0.439,-0.001 0.437,-0.004C0.434,-0.006 0.433,-0.009 0.433,-0.012L0.433,-0.288C0.433,-0.291 0.431,-0.293 0.428,-0.293L0.207,-0.293C0.204,-0.293 0.202,-0.291 0.202,-0.288L0.202,-0.012C0.202,-0.009 0.201,-0.006 0.199,-0.004C0.196,-0.001 0.193,-0 0.19,-0L0.073,-0C0.07,-0 0.067,-0.001 0.065,-0.004C0.062,-0.006 0.061,-0.009 0.061,-0.012L0.061,-0.688C0.061,-0.691 0.062,-0.694 0.065,-0.697C0.067,-0.699 0.07,-0.7 0.073,-0.7L0.19,-0.7C0.193,-0.7 0.196,-0.699 0.199,-0.697C0.201,-0.694 0.202,-0.691 0.202,-0.688L0.202,-0.419C0.202,-0.416 0.204,-0.414 0.207,-0.414L0.428,-0.414C0.431,-0.414 0.433,-0.416 0.433,-0.419L0.433,-0.688Z" style="fill:rgb(11,101,85);fill-rule:nonzero;"/>
                    </g>
                </g>
                <g transform="matrix(1.49068,0,0,2.1135,-327.95,-352.955)">
                    <rect x="502" y="396" width="84" height="84" style="fill:rgb(26,230,192);stroke:black;stroke-width:1px;"/>
                    <g transform="matrix(60,0,0,60,527.29,459)">
                        <path d="M0.279,0.008C0.223,0.008 0.175,-0.007 0.135,-0.036C0.095,-0.065 0.068,-0.105 0.053,-0.156C0.044,-0.187 0.039,-0.221 0.039,-0.258C0.039,-0.297 0.044,-0.333 0.053,-0.364C0.068,-0.413 0.096,-0.452 0.136,-0.48C0.176,-0.508 0.224,-0.522 0.28,-0.522C0.335,-0.522 0.381,-0.508 0.42,-0.481C0.459,-0.453 0.486,-0.414 0.502,-0.365C0.513,-0.332 0.518,-0.297 0.518,-0.26C0.518,-0.224 0.513,-0.19 0.504,-0.159C0.489,-0.107 0.462,-0.066 0.423,-0.037C0.383,-0.007 0.335,0.008 0.279,0.008ZM0.279,-0.113C0.301,-0.113 0.32,-0.12 0.335,-0.133C0.35,-0.146 0.361,-0.165 0.368,-0.188C0.373,-0.209 0.376,-0.233 0.376,-0.258C0.376,-0.286 0.373,-0.31 0.368,-0.329C0.361,-0.352 0.349,-0.369 0.334,-0.382C0.319,-0.395 0.3,-0.401 0.278,-0.401C0.255,-0.401 0.237,-0.395 0.222,-0.382C0.207,-0.369 0.196,-0.352 0.189,-0.329C0.184,-0.313 0.181,-0.289 0.181,-0.258C0.181,-0.228 0.183,-0.205 0.188,-0.188C0.195,-0.165 0.206,-0.146 0.222,-0.133C0.237,-0.12 0.256,-0.113 0.279,-0.113Z" style="fill:rgb(11,101,85);fill-rule:nonzero;"/>
                    </g>
                </g>
                <g transform="matrix(1.49068,0,0,2.1135,-202.733,-352.955)">
                    <rect x="502" y="396" width="84" height="84" style="fill:rgb(26,230,192);stroke:black;stroke-width:1px;"/>
                    <g transform="matrix(60,0,0,60,536.68,459)">
                        <path d="M0.064,-0C0.061,-0 0.058,-0.001 0.056,-0.004C0.053,-0.006 0.052,-0.009 0.052,-0.012L0.052,-0.688C0.052,-0.691 0.053,-0.694 0.056,-0.697C0.058,-0.699 0.061,-0.7 0.064,-0.7L0.181,-0.7C0.184,-0.7 0.187,-0.699 0.19,-0.697C0.192,-0.694 0.193,-0.691 0.193,-0.688L0.193,-0.012C0.193,-0.009 0.192,-0.006 0.19,-0.004C0.187,-0.001 0.184,-0 0.181,-0L0.064,-0Z" style="fill:rgb(11,101,85);fill-rule:nonzero;"/>
                    </g>
                </g>
                <g transform="matrix(1.49068,0,0,2.1135,-77.5155,-352.955)">
                    <rect x="502" y="396" width="84" height="84" style="fill:rgb(26,230,192);stroke:black;stroke-width:1px;"/>
                    <g transform="matrix(60,0,0,60,528.16,459)">
                        <path d="M0.257,-0.522C0.3,-0.522 0.339,-0.515 0.373,-0.5C0.407,-0.485 0.434,-0.464 0.453,-0.438C0.471,-0.412 0.481,-0.383 0.481,-0.351L0.481,-0.012C0.481,-0.009 0.48,-0.006 0.478,-0.004C0.475,-0.001 0.472,-0 0.469,-0L0.352,-0C0.349,-0 0.346,-0.001 0.344,-0.004C0.341,-0.006 0.34,-0.009 0.34,-0.012L0.34,-0.045C0.34,-0.047 0.339,-0.048 0.338,-0.049C0.337,-0.05 0.335,-0.049 0.334,-0.047C0.306,-0.01 0.261,0.008 0.199,0.008C0.147,0.008 0.105,-0.005 0.073,-0.03C0.041,-0.055 0.025,-0.093 0.025,-0.142C0.025,-0.193 0.043,-0.233 0.079,-0.262C0.115,-0.29 0.166,-0.304 0.233,-0.304L0.335,-0.304C0.338,-0.304 0.34,-0.306 0.34,-0.309L0.34,-0.331C0.34,-0.353 0.333,-0.37 0.32,-0.383C0.307,-0.395 0.287,-0.401 0.26,-0.401C0.239,-0.401 0.222,-0.397 0.209,-0.39C0.195,-0.383 0.186,-0.372 0.182,-0.359C0.18,-0.352 0.176,-0.348 0.169,-0.349L0.048,-0.365C0.04,-0.366 0.036,-0.369 0.037,-0.374C0.04,-0.402 0.051,-0.427 0.071,-0.45C0.09,-0.473 0.116,-0.49 0.149,-0.503C0.181,-0.516 0.217,-0.522 0.257,-0.522ZM0.237,-0.097C0.266,-0.097 0.29,-0.105 0.31,-0.12C0.33,-0.135 0.34,-0.155 0.34,-0.179L0.34,-0.215C0.34,-0.218 0.338,-0.22 0.335,-0.22L0.263,-0.22C0.233,-0.22 0.21,-0.214 0.193,-0.203C0.175,-0.192 0.167,-0.176 0.167,-0.155C0.167,-0.137 0.173,-0.123 0.186,-0.113C0.199,-0.102 0.216,-0.097 0.237,-0.097Z" style="fill:rgb(11,101,85);fill-rule:nonzero;"/>
                    </g>
                </g>
                <g transform="matrix(1.49068,0,0,2.1135,47.7019,-352.955)">
                    <rect x="502" y="396" width="84" height="84" style="fill:rgb(26,230,192);stroke:black;stroke-width:1px;"/>
                    <g transform="matrix(60,0,0,60,536.05,459)">
                        <path d="M0.052,0.098C0.044,0.098 0.04,0.094 0.041,0.085L0.074,-0.147C0.075,-0.154 0.079,-0.158 0.087,-0.158L0.189,-0.158C0.198,-0.158 0.201,-0.154 0.199,-0.145L0.137,0.088C0.135,0.095 0.13,0.098 0.123,0.098L0.052,0.098Z" style="fill:rgb(11,101,85);fill-rule:nonzero;"/>
                    </g>
                </g>
                <g transform="matrix(1.49068,0,0,2.1135,172.919,-352.955)">
                    <rect x="502" y="396" width="84" height="84" style="fill:rgb(26,230,192);stroke:black;stroke-width:1px;"/>
                </g>
                <g transform="matrix(1.49068,0,0,2.1135,298.137,-352.955)">
                    <rect x="502" y="396" width="84" height="84" style="fill:rgb(26,230,192);stroke:black;stroke-width:1px;"/>
                    <g transform="matrix(60,0,0,60,522.55,459)">
                        <path d="M0.511,-0.692C0.514,-0.697 0.519,-0.7 0.525,-0.7L0.642,-0.7C0.645,-0.7 0.648,-0.699 0.651,-0.697C0.653,-0.694 0.654,-0.691 0.654,-0.688L0.654,-0.012C0.654,-0.009 0.653,-0.006 0.651,-0.004C0.648,-0.001 0.645,-0 0.642,-0L0.525,-0C0.522,-0 0.519,-0.001 0.517,-0.004C0.514,-0.006 0.513,-0.009 0.513,-0.012L0.513,-0.453C0.513,-0.456 0.512,-0.457 0.511,-0.457C0.51,-0.457 0.508,-0.456 0.507,-0.454L0.401,-0.288C0.398,-0.283 0.393,-0.28 0.387,-0.28L0.328,-0.28C0.322,-0.28 0.317,-0.283 0.314,-0.288L0.208,-0.454C0.207,-0.456 0.205,-0.457 0.204,-0.457C0.203,-0.456 0.202,-0.455 0.202,-0.452L0.202,-0.012C0.202,-0.009 0.201,-0.006 0.199,-0.004C0.196,-0.001 0.193,-0 0.19,-0L0.073,-0C0.07,-0 0.067,-0.001 0.065,-0.004C0.062,-0.006 0.061,-0.009 0.061,-0.012L0.061,-0.688C0.061,-0.691 0.062,-0.694 0.065,-0.697C0.067,-0.699 0.07,-0.7 0.073,-0.7L0.19,-0.7C0.196,-0.7 0.201,-0.697 0.204,-0.692L0.354,-0.459C0.356,-0.455 0.358,-0.455 0.36,-0.459L0.511,-0.692Z" style="fill:rgb(11,101,85);fill-rule:nonzero;"/>
                    </g>
                </g>
                <g transform="matrix(1.49068,0,0,2.1135,423.354,-352.955)">
                    <rect x="502" y="396" width="84" height="84" style="fill:rgb(26,230,192);stroke:black;stroke-width:1px;"/>
                    <g transform="matrix(60,0,0,60,527.65,459)">
                        <path d="M0.352,-0.502C0.352,-0.505 0.353,-0.508 0.356,-0.511C0.358,-0.513 0.361,-0.514 0.364,-0.514L0.481,-0.514C0.484,-0.514 0.487,-0.513 0.49,-0.511C0.492,-0.508 0.493,-0.505 0.493,-0.502L0.493,-0.012C0.493,-0.009 0.492,-0.006 0.49,-0.004C0.487,-0.001 0.484,-0 0.481,-0L0.364,-0C0.361,-0 0.358,-0.001 0.356,-0.004C0.353,-0.006 0.352,-0.009 0.352,-0.012L0.352,-0.046C0.352,-0.048 0.351,-0.049 0.35,-0.05C0.349,-0.05 0.347,-0.049 0.346,-0.047C0.319,-0.011 0.278,0.007 0.222,0.007C0.171,0.007 0.13,-0.008 0.097,-0.039C0.064,-0.07 0.048,-0.113 0.048,-0.168L0.048,-0.502C0.048,-0.505 0.049,-0.508 0.052,-0.511C0.054,-0.513 0.057,-0.514 0.06,-0.514L0.176,-0.514C0.179,-0.514 0.182,-0.513 0.185,-0.511C0.187,-0.508 0.188,-0.505 0.188,-0.502L0.188,-0.203C0.188,-0.176 0.195,-0.155 0.21,-0.138C0.224,-0.121 0.244,-0.113 0.269,-0.113C0.292,-0.113 0.31,-0.12 0.325,-0.134C0.34,-0.147 0.349,-0.165 0.352,-0.187L0.352,-0.502Z" style="fill:rgb(11,101,85);fill-rule:nonzero;"/>
                    </g>
                </g>
                <g transform="matrix(1.49068,0,0,2.1135,548.571,-352.955)">
                    <rect x="502" y="396" width="84" height="84" style="fill:rgb(26,230,192);stroke:black;stroke-width:1px;"/>
                    <g transform="matrix(60,0,0,60,527.59,459)">
                        <path d="M0.32,-0.522C0.373,-0.522 0.416,-0.506 0.449,-0.473C0.482,-0.44 0.498,-0.396 0.498,-0.34L0.498,-0.012C0.498,-0.009 0.497,-0.006 0.495,-0.004C0.492,-0.001 0.489,-0 0.486,-0L0.369,-0C0.366,-0 0.363,-0.001 0.361,-0.004C0.358,-0.006 0.357,-0.009 0.357,-0.012L0.357,-0.311C0.357,-0.338 0.349,-0.359 0.335,-0.376C0.32,-0.393 0.3,-0.401 0.275,-0.401C0.25,-0.401 0.231,-0.393 0.216,-0.376C0.201,-0.359 0.193,-0.338 0.193,-0.311L0.193,-0.012C0.193,-0.009 0.192,-0.006 0.19,-0.004C0.187,-0.001 0.184,-0 0.181,-0L0.064,-0C0.061,-0 0.058,-0.001 0.056,-0.004C0.053,-0.006 0.052,-0.009 0.052,-0.012L0.052,-0.502C0.052,-0.505 0.053,-0.508 0.056,-0.511C0.058,-0.513 0.061,-0.514 0.064,-0.514L0.181,-0.514C0.184,-0.514 0.187,-0.513 0.19,-0.511C0.192,-0.508 0.193,-0.505 0.193,-0.502L0.193,-0.467C0.193,-0.465 0.194,-0.464 0.195,-0.463C0.196,-0.462 0.197,-0.463 0.198,-0.464C0.225,-0.503 0.266,-0.522 0.32,-0.522Z" style="fill:rgb(11,101,85);fill-rule:nonzero;"/>
                    </g>
                </g>
                <g transform="matrix(1.49068,0,0,2.1135,673.789,-352.955)">
                    <rect x="502" y="396" width="84" height="84" style="fill:rgb(26,230,192);stroke:black;stroke-width:1px;"/>
                    <g transform="matrix(60,0,0,60,527.02,459)">
                        <path d="M0.371,-0.688C0.371,-0.691 0.372,-0.694 0.375,-0.697C0.377,-0.699 0.38,-0.7 0.383,-0.7L0.5,-0.7C0.503,-0.7 0.506,-0.699 0.509,-0.697C0.511,-0.694 0.512,-0.691 0.512,-0.688L0.512,-0.012C0.512,-0.009 0.511,-0.006 0.509,-0.004C0.506,-0.001 0.503,-0 0.5,-0L0.383,-0C0.38,-0 0.377,-0.001 0.375,-0.004C0.372,-0.006 0.371,-0.009 0.371,-0.012L0.371,-0.045C0.371,-0.047 0.37,-0.048 0.369,-0.049C0.368,-0.049 0.366,-0.048 0.365,-0.047C0.337,-0.01 0.299,0.008 0.25,0.008C0.203,0.008 0.163,-0.005 0.13,-0.031C0.096,-0.057 0.072,-0.093 0.057,-0.138C0.046,-0.173 0.04,-0.213 0.04,-0.259C0.04,-0.306 0.046,-0.348 0.058,-0.383C0.073,-0.426 0.097,-0.46 0.131,-0.485C0.164,-0.509 0.204,-0.522 0.253,-0.522C0.301,-0.522 0.338,-0.505 0.365,-0.472C0.366,-0.47 0.368,-0.469 0.369,-0.47C0.37,-0.471 0.371,-0.472 0.371,-0.474L0.371,-0.688ZM0.35,-0.156C0.363,-0.181 0.37,-0.214 0.37,-0.257C0.37,-0.302 0.363,-0.337 0.348,-0.362C0.333,-0.388 0.31,-0.401 0.281,-0.401C0.25,-0.401 0.226,-0.388 0.21,-0.362C0.193,-0.336 0.185,-0.301 0.185,-0.256C0.185,-0.216 0.192,-0.183 0.206,-0.156C0.223,-0.127 0.247,-0.113 0.28,-0.113C0.31,-0.113 0.333,-0.127 0.35,-0.156Z" style="fill:rgb(11,101,85);fill-rule:nonzero;"/>
                    </g>
                </g>
                <g transform="matrix(1.49068,0,0,2.1135,799.006,-352.955)">
                    <rect x="502" y="396" width="84" height="84" style="fill:rgb(26,230,192);stroke:black;stroke-width:1px;"/>
                    <g transform="matrix(60,0,0,60,527.29,459)">
                        <path d="M0.279,0.008C0.223,0.008 0.175,-0.007 0.135,-0.036C0.095,-0.065 0.068,-0.105 0.053,-0.156C0.044,-0.187 0.039,-0.221 0.039,-0.258C0.039,-0.297 0.044,-0.333 0.053,-0.364C0.068,-0.413 0.096,-0.452 0.136,-0.48C0.176,-0.508 0.224,-0.522 0.28,-0.522C0.335,-0.522 0.381,-0.508 0.42,-0.481C0.459,-0.453 0.486,-0.414 0.502,-0.365C0.513,-0.332 0.518,-0.297 0.518,-0.26C0.518,-0.224 0.513,-0.19 0.504,-0.159C0.489,-0.107 0.462,-0.066 0.423,-0.037C0.383,-0.007 0.335,0.008 0.279,0.008ZM0.279,-0.113C0.301,-0.113 0.32,-0.12 0.335,-0.133C0.35,-0.146 0.361,-0.165 0.368,-0.188C0.373,-0.209 0.376,-0.233 0.376,-0.258C0.376,-0.286 0.373,-0.31 0.368,-0.329C0.361,-0.352 0.349,-0.369 0.334,-0.382C0.319,-0.395 0.3,-0.401 0.278,-0.401C0.255,-0.401 0.237,-0.395 0.222,-0.382C0.207,-0.369 0.196,-0.352 0.189,-0.329C0.184,-0.313 0.181,-0.289 0.181,-0.258C0.181,-0.228 0.183,-0.205 0.188,-0.188C0.195,-0.165 0.206,-0.146 0.222,-0.133C0.237,-0.12 0.256,-0.113 0.279,-0.113Z" style="fill:rgb(11,101,85);fill-rule:nonzero;"/>
                    </g>
                </g>
                <g transform="matrix(1.49068,0,0,2.1135,-505.077,-693.229)">
                    <g transform="matrix(41,0,0,41,567.621,689)">
                        <path d="M0.273,0.013C0.228,0.013 0.187,-0.004 0.15,-0.036C0.113,-0.069 0.084,-0.114 0.063,-0.172C0.042,-0.229 0.032,-0.293 0.032,-0.364C0.032,-0.434 0.042,-0.498 0.063,-0.555C0.084,-0.613 0.113,-0.658 0.15,-0.691C0.187,-0.724 0.228,-0.74 0.273,-0.74C0.318,-0.74 0.358,-0.724 0.395,-0.691C0.432,-0.658 0.462,-0.613 0.483,-0.555C0.504,-0.498 0.515,-0.434 0.515,-0.364C0.515,-0.293 0.504,-0.229 0.483,-0.172C0.462,-0.114 0.432,-0.069 0.395,-0.036C0.358,-0.004 0.318,0.013 0.273,0.013ZM0.273,-0.084C0.296,-0.084 0.318,-0.096 0.339,-0.121C0.36,-0.146 0.377,-0.18 0.39,-0.223C0.403,-0.266 0.409,-0.313 0.409,-0.364C0.409,-0.415 0.403,-0.462 0.39,-0.505C0.377,-0.548 0.36,-0.582 0.339,-0.606C0.318,-0.631 0.296,-0.644 0.273,-0.644C0.25,-0.644 0.228,-0.631 0.206,-0.606C0.185,-0.582 0.168,-0.548 0.155,-0.505C0.143,-0.462 0.136,-0.415 0.136,-0.364C0.136,-0.313 0.143,-0.266 0.155,-0.223C0.168,-0.18 0.185,-0.146 0.206,-0.121C0.228,-0.096 0.25,-0.084 0.273,-0.084ZM0.273,-0.294C0.251,-0.294 0.233,-0.3 0.219,-0.313C0.205,-0.326 0.198,-0.343 0.198,-0.364C0.198,-0.384 0.205,-0.4 0.219,-0.413C0.233,-0.425 0.251,-0.432 0.273,-0.432C0.295,-0.432 0.313,-0.425 0.327,-0.413C0.341,-0.4 0.348,-0.384 0.348,-0.364C0.348,-0.343 0.341,-0.326 0.327,-0.313C0.313,-0.3 0.295,-0.294 0.273,-0.294Z" style="fill:white;fill-rule:nonzero;"/>
                    </g>
                </g>
                <g transform="matrix(1.49068,0,0,2.1135,-379.86,-693.229)">
                    <g transform="matrix(41,0,0,41,567.621,689)">
                        <path d="M0.325,-0.096L0.455,-0.096L0.455,-0L0.092,-0L0.092,-0.096L0.221,-0.096L0.221,-0.525C0.18,-0.501 0.131,-0.489 0.074,-0.489L0.074,-0.586C0.123,-0.586 0.159,-0.598 0.183,-0.62C0.207,-0.643 0.219,-0.679 0.219,-0.727L0.325,-0.727L0.325,-0.096Z" style="fill:white;fill-rule:nonzero;"/>
                    </g>
                </g>
                <g transform="matrix(1.49068,0,0,2.1135,-254.642,-693.229)">
                    <g transform="matrix(41,0,0,41,567.621,689)">
                        <path d="M0.035,-0.069C0.035,-0.102 0.043,-0.132 0.061,-0.16C0.079,-0.189 0.101,-0.214 0.127,-0.236C0.153,-0.259 0.187,-0.285 0.229,-0.315C0.27,-0.346 0.302,-0.371 0.325,-0.39C0.348,-0.41 0.367,-0.432 0.383,-0.456C0.399,-0.481 0.407,-0.507 0.407,-0.535C0.407,-0.565 0.403,-0.588 0.396,-0.603C0.388,-0.618 0.375,-0.628 0.356,-0.635C0.338,-0.641 0.309,-0.644 0.272,-0.644C0.235,-0.644 0.208,-0.641 0.189,-0.635C0.17,-0.628 0.157,-0.618 0.15,-0.603C0.142,-0.588 0.138,-0.565 0.138,-0.535C0.138,-0.523 0.138,-0.514 0.139,-0.507L0.035,-0.507C0.032,-0.566 0.038,-0.612 0.052,-0.645C0.067,-0.679 0.091,-0.703 0.126,-0.718C0.161,-0.733 0.209,-0.74 0.272,-0.74C0.331,-0.74 0.378,-0.733 0.413,-0.72C0.448,-0.707 0.473,-0.685 0.489,-0.655C0.504,-0.626 0.512,-0.585 0.512,-0.535C0.512,-0.491 0.501,-0.451 0.479,-0.415C0.457,-0.378 0.43,-0.347 0.4,-0.32C0.369,-0.293 0.329,-0.262 0.281,-0.227C0.24,-0.199 0.209,-0.175 0.187,-0.155C0.165,-0.135 0.15,-0.116 0.142,-0.096L0.51,-0.096L0.51,-0L0.035,-0L0.035,-0.069Z" style="fill:white;fill-rule:nonzero;"/>
                    </g>
                </g>
                <g transform="matrix(1.49068,0,0,2.1135,-129.425,-693.229)">
                    <g transform="matrix(41,0,0,41,567.621,689)">
                        <path d="M0.273,0.013C0.213,0.013 0.167,0.005 0.134,-0.009C0.101,-0.024 0.078,-0.047 0.064,-0.078C0.05,-0.11 0.044,-0.153 0.044,-0.207L0.149,-0.207C0.149,-0.172 0.152,-0.146 0.157,-0.13C0.163,-0.113 0.174,-0.101 0.191,-0.094C0.209,-0.087 0.236,-0.084 0.273,-0.084C0.307,-0.084 0.332,-0.087 0.35,-0.094C0.368,-0.101 0.38,-0.113 0.387,-0.13C0.394,-0.147 0.397,-0.172 0.397,-0.204C0.397,-0.241 0.394,-0.269 0.388,-0.286C0.382,-0.304 0.372,-0.316 0.357,-0.323C0.343,-0.329 0.32,-0.334 0.29,-0.336L0.198,-0.336L0.198,-0.433L0.29,-0.433C0.322,-0.435 0.345,-0.439 0.359,-0.443C0.373,-0.448 0.383,-0.457 0.389,-0.47C0.394,-0.484 0.397,-0.506 0.397,-0.536C0.397,-0.565 0.394,-0.587 0.387,-0.602C0.38,-0.617 0.368,-0.628 0.35,-0.634C0.332,-0.64 0.307,-0.644 0.273,-0.644C0.235,-0.644 0.207,-0.64 0.19,-0.634C0.174,-0.627 0.163,-0.616 0.158,-0.6C0.153,-0.583 0.15,-0.557 0.15,-0.521L0.044,-0.521C0.044,-0.577 0.05,-0.62 0.064,-0.651C0.078,-0.683 0.101,-0.705 0.134,-0.719C0.166,-0.733 0.213,-0.74 0.273,-0.74C0.329,-0.74 0.374,-0.733 0.407,-0.72C0.44,-0.706 0.464,-0.684 0.479,-0.655C0.494,-0.626 0.502,-0.586 0.502,-0.536C0.502,-0.496 0.497,-0.465 0.488,-0.444C0.478,-0.422 0.462,-0.403 0.438,-0.385C0.462,-0.365 0.478,-0.342 0.488,-0.316C0.497,-0.29 0.502,-0.253 0.502,-0.204C0.502,-0.151 0.494,-0.109 0.48,-0.078C0.465,-0.047 0.441,-0.024 0.408,-0.009C0.375,0.005 0.33,0.013 0.273,0.013Z" style="fill:white;fill-rule:nonzero;"/>
                    </g>
                </g>
                <g transform="matrix(1.49068,0,0,2.1135,-4.20762,-693.229)">
                    <g transform="matrix(41,0,0,41,567.621,689)">
                        <path d="M0.447,-0L0.343,-0L0.343,-0.184L0.029,-0.184L0.029,-0.259L0.36,-0.727L0.447,-0.727L0.447,-0.28L0.515,-0.28L0.515,-0.184L0.447,-0.184L0.447,-0ZM0.343,-0.517L0.165,-0.28L0.343,-0.28L0.343,-0.517Z" style="fill:white;fill-rule:nonzero;"/>
                    </g>
                </g>
                <g transform="matrix(1.49068,0,0,2.1135,121.01,-693.229)">
                    <g transform="matrix(41,0,0,41,567.621,689)">
                        <path d="M0.273,0.013C0.212,0.013 0.164,0.006 0.13,-0.008C0.097,-0.022 0.073,-0.045 0.059,-0.076C0.045,-0.107 0.038,-0.151 0.038,-0.207L0.144,-0.207C0.144,-0.171 0.146,-0.145 0.152,-0.128C0.157,-0.112 0.169,-0.1 0.187,-0.094C0.205,-0.087 0.233,-0.084 0.273,-0.084C0.312,-0.084 0.341,-0.088 0.36,-0.097C0.38,-0.106 0.394,-0.121 0.402,-0.142C0.41,-0.164 0.414,-0.195 0.414,-0.236C0.414,-0.28 0.41,-0.313 0.402,-0.334C0.394,-0.356 0.38,-0.37 0.361,-0.378C0.342,-0.386 0.312,-0.39 0.273,-0.39C0.251,-0.39 0.231,-0.386 0.213,-0.379C0.195,-0.371 0.172,-0.356 0.142,-0.334L0.056,-0.334L0.056,-0.727L0.496,-0.727L0.496,-0.632L0.161,-0.632L0.161,-0.465C0.189,-0.479 0.227,-0.486 0.273,-0.486C0.335,-0.486 0.383,-0.479 0.418,-0.463C0.453,-0.448 0.479,-0.422 0.495,-0.386C0.511,-0.35 0.519,-0.3 0.519,-0.236C0.519,-0.175 0.511,-0.127 0.495,-0.09C0.479,-0.054 0.453,-0.028 0.418,-0.012C0.382,0.005 0.334,0.013 0.273,0.013Z" style="fill:white;fill-rule:nonzero;"/>
                    </g>
                </g>
                <g transform="matrix(1.49068,0,0,2.1135,246.227,-693.229)">
                    <g transform="matrix(41,0,0,41,567.621,689)">
                        <path d="M0.273,0.013C0.215,0.013 0.168,0.005 0.135,-0.011C0.101,-0.027 0.076,-0.053 0.061,-0.088C0.046,-0.123 0.038,-0.17 0.038,-0.229L0.038,-0.479C0.038,-0.543 0.046,-0.594 0.061,-0.632C0.076,-0.67 0.101,-0.698 0.135,-0.715C0.168,-0.732 0.215,-0.74 0.273,-0.74C0.328,-0.74 0.372,-0.734 0.406,-0.723C0.44,-0.711 0.465,-0.692 0.482,-0.666C0.498,-0.64 0.506,-0.605 0.506,-0.562L0.401,-0.562C0.401,-0.584 0.397,-0.6 0.389,-0.612C0.38,-0.624 0.367,-0.632 0.349,-0.637C0.331,-0.641 0.305,-0.644 0.273,-0.644C0.238,-0.644 0.211,-0.639 0.193,-0.63C0.175,-0.62 0.162,-0.604 0.154,-0.58C0.147,-0.557 0.143,-0.523 0.143,-0.479L0.143,-0.452C0.176,-0.467 0.219,-0.475 0.273,-0.475C0.333,-0.475 0.38,-0.467 0.413,-0.453C0.447,-0.438 0.471,-0.413 0.486,-0.378C0.501,-0.343 0.508,-0.294 0.508,-0.23C0.508,-0.171 0.501,-0.123 0.485,-0.088C0.47,-0.053 0.446,-0.027 0.412,-0.011C0.378,0.005 0.332,0.013 0.273,0.013ZM0.273,-0.084C0.308,-0.084 0.335,-0.088 0.353,-0.096C0.372,-0.105 0.385,-0.119 0.392,-0.14C0.4,-0.161 0.404,-0.191 0.404,-0.23C0.404,-0.274 0.4,-0.306 0.392,-0.326C0.385,-0.347 0.372,-0.361 0.354,-0.368C0.336,-0.375 0.309,-0.378 0.273,-0.378C0.236,-0.378 0.209,-0.375 0.191,-0.368C0.173,-0.361 0.161,-0.347 0.154,-0.326C0.146,-0.305 0.143,-0.273 0.143,-0.229C0.143,-0.19 0.147,-0.161 0.154,-0.14C0.162,-0.119 0.175,-0.105 0.193,-0.096C0.211,-0.088 0.238,-0.084 0.273,-0.084Z" style="fill:white;fill-rule:nonzero;"/>
                    </g>
                </g>
                <g transform="matrix(1.49068,0,0,2.1135,371.445,-693.229)">
                    <g transform="matrix(41,0,0,41,567.621,689)">
                        <path d="M0.11,-0C0.126,-0.07 0.147,-0.138 0.173,-0.202C0.198,-0.267 0.226,-0.328 0.255,-0.385C0.285,-0.443 0.326,-0.518 0.377,-0.61L0.389,-0.631L0.035,-0.631L0.035,-0.727L0.506,-0.727L0.506,-0.631C0.502,-0.622 0.496,-0.613 0.49,-0.604C0.485,-0.594 0.479,-0.584 0.474,-0.573C0.425,-0.489 0.387,-0.42 0.358,-0.366C0.33,-0.312 0.303,-0.255 0.279,-0.194C0.254,-0.133 0.234,-0.068 0.217,-0L0.11,-0Z" style="fill:white;fill-rule:nonzero;"/>
                    </g>
                </g>
                <g transform="matrix(1.49068,0,0,2.1135,496.662,-693.229)">
                    <g transform="matrix(41,0,0,41,567.621,689)">
                        <path d="M0.273,0.013C0.213,0.013 0.165,0.005 0.13,-0.01C0.096,-0.024 0.07,-0.048 0.055,-0.08C0.039,-0.112 0.031,-0.155 0.031,-0.209C0.031,-0.258 0.036,-0.296 0.047,-0.321C0.058,-0.347 0.078,-0.37 0.105,-0.389C0.085,-0.406 0.072,-0.425 0.064,-0.447C0.056,-0.468 0.052,-0.499 0.052,-0.539C0.052,-0.588 0.059,-0.626 0.074,-0.655C0.088,-0.685 0.111,-0.706 0.143,-0.72C0.175,-0.733 0.218,-0.74 0.273,-0.74C0.327,-0.74 0.371,-0.733 0.403,-0.72C0.435,-0.706 0.458,-0.685 0.473,-0.655C0.487,-0.626 0.495,-0.588 0.495,-0.539C0.495,-0.499 0.491,-0.468 0.483,-0.447C0.475,-0.425 0.461,-0.406 0.44,-0.389C0.468,-0.37 0.487,-0.347 0.499,-0.321C0.51,-0.296 0.515,-0.258 0.515,-0.209C0.515,-0.155 0.508,-0.112 0.492,-0.08C0.476,-0.048 0.451,-0.024 0.415,-0.01C0.38,0.005 0.333,0.013 0.273,0.013ZM0.273,-0.433C0.307,-0.433 0.332,-0.435 0.347,-0.44C0.363,-0.444 0.374,-0.454 0.38,-0.469C0.387,-0.483 0.39,-0.507 0.39,-0.539C0.39,-0.567 0.387,-0.588 0.38,-0.603C0.373,-0.618 0.362,-0.628 0.345,-0.635C0.329,-0.641 0.305,-0.644 0.273,-0.644C0.241,-0.644 0.216,-0.641 0.2,-0.635C0.184,-0.628 0.172,-0.618 0.166,-0.603C0.16,-0.588 0.156,-0.567 0.156,-0.539C0.156,-0.507 0.16,-0.483 0.166,-0.469C0.172,-0.454 0.183,-0.444 0.199,-0.44C0.214,-0.435 0.239,-0.433 0.273,-0.433ZM0.273,-0.084C0.31,-0.084 0.339,-0.087 0.358,-0.095C0.378,-0.102 0.391,-0.114 0.399,-0.132C0.407,-0.15 0.411,-0.176 0.411,-0.209C0.411,-0.247 0.407,-0.275 0.4,-0.293C0.392,-0.31 0.379,-0.322 0.36,-0.328C0.341,-0.333 0.312,-0.336 0.273,-0.336C0.233,-0.336 0.204,-0.333 0.186,-0.328C0.167,-0.322 0.154,-0.31 0.147,-0.293C0.139,-0.275 0.135,-0.247 0.135,-0.209C0.135,-0.176 0.139,-0.15 0.147,-0.132C0.154,-0.114 0.168,-0.102 0.187,-0.095C0.207,-0.087 0.235,-0.084 0.273,-0.084Z" style="fill:white;fill-rule:nonzero;"/>
                    </g>
                </g>
                <g transform="matrix(1.49068,0,0,2.1135,621.879,-693.229)">
                    <g transform="matrix(41,0,0,41,567.621,689)">
                        <path d="M0.273,0.013C0.19,0.013 0.131,-0.001 0.094,-0.028C0.057,-0.055 0.039,-0.101 0.039,-0.165L0.145,-0.165C0.145,-0.144 0.149,-0.127 0.157,-0.115C0.165,-0.103 0.178,-0.095 0.196,-0.09C0.215,-0.086 0.24,-0.084 0.273,-0.084C0.308,-0.084 0.335,-0.088 0.353,-0.098C0.372,-0.107 0.385,-0.123 0.392,-0.147C0.4,-0.17 0.404,-0.204 0.404,-0.248L0.404,-0.275C0.37,-0.26 0.326,-0.253 0.273,-0.253C0.213,-0.253 0.167,-0.26 0.133,-0.275C0.1,-0.289 0.075,-0.314 0.06,-0.349C0.046,-0.384 0.038,-0.434 0.038,-0.497C0.038,-0.557 0.046,-0.604 0.061,-0.639C0.076,-0.674 0.101,-0.7 0.135,-0.716C0.168,-0.732 0.215,-0.74 0.273,-0.74C0.332,-0.74 0.378,-0.732 0.412,-0.716C0.446,-0.7 0.47,-0.674 0.485,-0.64C0.501,-0.605 0.508,-0.558 0.508,-0.498L0.508,-0.248C0.508,-0.184 0.501,-0.133 0.485,-0.095C0.47,-0.057 0.446,-0.03 0.412,-0.013C0.378,0.004 0.332,0.013 0.273,0.013ZM0.273,-0.349C0.309,-0.349 0.336,-0.353 0.354,-0.36C0.372,-0.367 0.385,-0.38 0.392,-0.401C0.4,-0.422 0.404,-0.455 0.404,-0.498C0.404,-0.537 0.4,-0.567 0.392,-0.587C0.385,-0.608 0.372,-0.622 0.353,-0.631C0.335,-0.639 0.308,-0.644 0.273,-0.644C0.238,-0.644 0.211,-0.639 0.193,-0.631C0.175,-0.622 0.162,-0.608 0.154,-0.587C0.147,-0.567 0.143,-0.537 0.143,-0.497C0.143,-0.454 0.146,-0.422 0.154,-0.401C0.161,-0.38 0.173,-0.367 0.191,-0.36C0.209,-0.353 0.236,-0.349 0.273,-0.349Z" style="fill:white;fill-rule:nonzero;"/>
                    </g>
                </g>
                <g transform="matrix(1.49068,0,0,2.1135,747.097,-693.229)">
                    <g transform="matrix(41,0,0,41,556.439,689)">
                        <path d="M0.325,-0.096L0.455,-0.096L0.455,-0L0.092,-0L0.092,-0.096L0.221,-0.096L0.221,-0.525C0.18,-0.501 0.131,-0.489 0.074,-0.489L0.074,-0.586C0.123,-0.586 0.159,-0.598 0.183,-0.62C0.207,-0.643 0.219,-0.679 0.219,-0.727L0.325,-0.727L0.325,-0.096Z" style="fill:white;fill-rule:nonzero;"/>
                    </g>
                    <g transform="matrix(41,0,0,41,578.803,689)">
                        <path d="M0.273,0.013C0.228,0.013 0.187,-0.004 0.15,-0.036C0.113,-0.069 0.084,-0.114 0.063,-0.172C0.042,-0.229 0.032,-0.293 0.032,-0.364C0.032,-0.434 0.042,-0.498 0.063,-0.555C0.084,-0.613 0.113,-0.658 0.15,-0.691C0.187,-0.724 0.228,-0.74 0.273,-0.74C0.318,-0.74 0.358,-0.724 0.395,-0.691C0.432,-0.658 0.462,-0.613 0.483,-0.555C0.504,-0.498 0.515,-0.434 0.515,-0.364C0.515,-0.293 0.504,-0.229 0.483,-0.172C0.462,-0.114 0.432,-0.069 0.395,-0.036C0.358,-0.004 0.318,0.013 0.273,0.013ZM0.273,-0.084C0.296,-0.084 0.318,-0.096 0.339,-0.121C0.36,-0.146 0.377,-0.18 0.39,-0.223C0.403,-0.266 0.409,-0.313 0.409,-0.364C0.409,-0.415 0.403,-0.462 0.39,-0.505C0.377,-0.548 0.36,-0.582 0.339,-0.606C0.318,-0.631 0.296,-0.644 0.273,-0.644C0.25,-0.644 0.228,-0.631 0.206,-0.606C0.185,-0.582 0.168,-0.548 0.155,-0.505C0.143,-0.462 0.136,-0.415 0.136,-0.364C0.136,-0.313 0.143,-0.266 0.155,-0.223C0.168,-0.18 0.185,-0.146 0.206,-0.121C0.228,-0.096 0.25,-0.084 0.273,-0.084ZM0.273,-0.294C0.251,-0.294 0.233,-0.3 0.219,-0.313C0.205,-0.326 0.198,-0.343 0.198,-0.364C0.198,-0.384 0.205,-0.4 0.219,-0.413C0.233,-0.425 0.251,-0.432 0.273,-0.432C0.295,-0.432 0.313,-0.425 0.327,-0.413C0.341,-0.4 0.348,-0.384 0.348,-0.364C0.348,-0.343 0.341,-0.326 0.327,-0.313C0.313,-0.3 0.295,-0.294 0.273,-0.294Z" style="fill:white;fill-rule:nonzero;"/>
                    </g>
                </g>
                <g transform="matrix(1.49068,0,0,2.1135,747.683,-1005.97)">
                    <g transform="matrix(33,0,0,33,560.803,689)">
                        <rect x="0.101" y="-0.393" width="0.345" height="0.058" style="fill:white;fill-rule:nonzero;"/>
                    </g>
                    <g transform="matrix(33,0,0,33,578.803,689)">
                        <path d="M0.305,-0.057L0.434,-0.057L0.434,-0L0.113,-0L0.113,-0.057L0.242,-0.057L0.242,-0.576C0.204,-0.543 0.155,-0.526 0.095,-0.526L0.095,-0.585C0.14,-0.585 0.176,-0.597 0.202,-0.623C0.228,-0.648 0.241,-0.683 0.241,-0.727L0.305,-0.727L0.305,-0.057Z" style="fill:white;fill-rule:nonzero;"/>
                    </g>
                </g>
                <g transform="matrix(1.49068,0,0,2.1135,622.466,-1005.97)">
                    <g transform="matrix(33,0,0,33,560.803,689)">
                        <rect x="0.101" y="-0.393" width="0.345" height="0.058" style="fill:white;fill-rule:nonzero;"/>
                    </g>
                    <g transform="matrix(33,0,0,33,578.803,689)">
                        <path d="M0.055,-0.05C0.055,-0.078 0.063,-0.104 0.078,-0.129C0.093,-0.154 0.112,-0.177 0.135,-0.197C0.158,-0.218 0.188,-0.243 0.227,-0.274C0.271,-0.308 0.306,-0.338 0.333,-0.363C0.359,-0.388 0.382,-0.416 0.4,-0.448C0.419,-0.48 0.428,-0.515 0.428,-0.554C0.428,-0.588 0.423,-0.614 0.414,-0.632C0.405,-0.65 0.389,-0.663 0.367,-0.671C0.345,-0.679 0.313,-0.683 0.272,-0.683C0.231,-0.683 0.199,-0.679 0.177,-0.67C0.155,-0.662 0.139,-0.648 0.13,-0.629C0.122,-0.61 0.118,-0.582 0.118,-0.546L0.055,-0.546C0.054,-0.595 0.06,-0.634 0.074,-0.662C0.087,-0.69 0.109,-0.71 0.141,-0.722C0.172,-0.734 0.216,-0.74 0.272,-0.74C0.328,-0.74 0.371,-0.734 0.403,-0.723C0.434,-0.711 0.457,-0.692 0.47,-0.665C0.484,-0.639 0.491,-0.602 0.491,-0.554C0.491,-0.506 0.48,-0.462 0.459,-0.423C0.437,-0.384 0.411,-0.35 0.38,-0.322C0.35,-0.293 0.311,-0.261 0.264,-0.225C0.216,-0.188 0.18,-0.157 0.157,-0.133C0.134,-0.109 0.122,-0.084 0.119,-0.057L0.489,-0.057L0.489,-0L0.055,-0L0.055,-0.05Z" style="fill:white;fill-rule:nonzero;"/>
                    </g>
                </g>
                <g transform="matrix(1.49068,0,0,2.1135,497.248,-1005.97)">
                    <g transform="matrix(33,0,0,33,560.803,689)">
                        <rect x="0.101" y="-0.393" width="0.345" height="0.058" style="fill:white;fill-rule:nonzero;"/>
                    </g>
                    <g transform="matrix(33,0,0,33,578.803,689)">
                        <path d="M0.273,0.013C0.219,0.013 0.178,0.007 0.148,-0.005C0.118,-0.018 0.097,-0.037 0.085,-0.064C0.072,-0.091 0.065,-0.129 0.065,-0.177L0.128,-0.177C0.128,-0.142 0.132,-0.115 0.14,-0.096C0.149,-0.078 0.163,-0.064 0.184,-0.056C0.204,-0.048 0.234,-0.045 0.273,-0.045C0.31,-0.045 0.34,-0.049 0.36,-0.058C0.381,-0.067 0.396,-0.082 0.405,-0.104C0.414,-0.125 0.418,-0.155 0.418,-0.194C0.418,-0.235 0.414,-0.267 0.407,-0.289C0.399,-0.311 0.386,-0.327 0.368,-0.337C0.35,-0.347 0.324,-0.353 0.291,-0.355L0.219,-0.355L0.219,-0.414L0.291,-0.414C0.324,-0.416 0.35,-0.421 0.368,-0.43C0.386,-0.438 0.399,-0.451 0.407,-0.469C0.414,-0.487 0.418,-0.513 0.418,-0.547C0.418,-0.582 0.414,-0.61 0.405,-0.629C0.396,-0.648 0.381,-0.662 0.36,-0.67C0.34,-0.678 0.31,-0.683 0.273,-0.683C0.233,-0.683 0.203,-0.679 0.183,-0.672C0.163,-0.665 0.149,-0.652 0.14,-0.635C0.132,-0.618 0.128,-0.593 0.128,-0.56L0.065,-0.56C0.065,-0.606 0.072,-0.642 0.084,-0.668C0.097,-0.693 0.118,-0.712 0.147,-0.723C0.177,-0.734 0.219,-0.74 0.273,-0.74C0.325,-0.74 0.367,-0.734 0.397,-0.722C0.427,-0.71 0.448,-0.69 0.461,-0.662C0.474,-0.634 0.481,-0.596 0.481,-0.547C0.481,-0.502 0.475,-0.468 0.463,-0.445C0.451,-0.422 0.43,-0.402 0.399,-0.385C0.43,-0.367 0.451,-0.345 0.463,-0.317C0.475,-0.29 0.481,-0.249 0.481,-0.194C0.481,-0.142 0.474,-0.101 0.461,-0.071C0.448,-0.041 0.427,-0.02 0.397,-0.007C0.367,0.006 0.325,0.013 0.273,0.013Z" style="fill:white;fill-rule:nonzero;"/>
                    </g>
                </g>
                <g transform="matrix(1.49068,0,0,2.1135,372.031,-1005.97)">
                    <g transform="matrix(33,0,0,33,560.803,689)">
                        <rect x="0.101" y="-0.393" width="0.345" height="0.058" style="fill:white;fill-rule:nonzero;"/>
                    </g>
                    <g transform="matrix(33,0,0,33,578.803,689)">
                        <path d="M0.426,-0L0.364,-0L0.364,-0.193L0.05,-0.193L0.05,-0.245L0.372,-0.727L0.426,-0.727L0.426,-0.25L0.494,-0.25L0.494,-0.193L0.426,-0.193L0.426,-0ZM0.364,-0.607L0.128,-0.25L0.364,-0.25L0.364,-0.607Z" style="fill:white;fill-rule:nonzero;"/>
                    </g>
                </g>
                <g transform="matrix(1.49068,0,0,2.1135,246.814,-1005.97)">
                    <g transform="matrix(33,0,0,33,560.803,689)">
                        <rect x="0.101" y="-0.393" width="0.345" height="0.058" style="fill:white;fill-rule:nonzero;"/>
                    </g>
                    <g transform="matrix(33,0,0,33,578.803,689)">
                        <path d="M0.273,0.013C0.218,0.013 0.175,0.007 0.144,-0.004C0.113,-0.015 0.092,-0.034 0.079,-0.06C0.066,-0.085 0.059,-0.122 0.059,-0.168L0.122,-0.168C0.122,-0.135 0.126,-0.11 0.135,-0.093C0.143,-0.076 0.158,-0.063 0.18,-0.056C0.201,-0.048 0.232,-0.045 0.273,-0.045C0.315,-0.045 0.348,-0.05 0.371,-0.061C0.394,-0.072 0.41,-0.09 0.42,-0.115C0.43,-0.141 0.435,-0.177 0.435,-0.223C0.435,-0.27 0.43,-0.306 0.42,-0.331C0.41,-0.357 0.394,-0.374 0.371,-0.385C0.348,-0.396 0.315,-0.401 0.273,-0.401C0.249,-0.401 0.227,-0.397 0.208,-0.389C0.188,-0.38 0.163,-0.366 0.134,-0.345L0.077,-0.345L0.077,-0.727L0.475,-0.727L0.475,-0.671L0.14,-0.671L0.14,-0.414C0.159,-0.431 0.178,-0.442 0.198,-0.449C0.217,-0.456 0.242,-0.459 0.273,-0.459C0.33,-0.459 0.375,-0.452 0.407,-0.437C0.439,-0.423 0.463,-0.398 0.477,-0.365C0.491,-0.331 0.498,-0.283 0.498,-0.223C0.498,-0.163 0.491,-0.116 0.477,-0.082C0.463,-0.049 0.439,-0.024 0.407,-0.01C0.374,0.005 0.33,0.013 0.273,0.013Z" style="fill:white;fill-rule:nonzero;"/>
                    </g>
                </g>
                <g transform="matrix(1.49068,0,0,2.1135,121.596,-1005.97)">
                    <g transform="matrix(33,0,0,33,560.803,689)">
                        <rect x="0.101" y="-0.393" width="0.345" height="0.058" style="fill:white;fill-rule:nonzero;"/>
                    </g>
                    <g transform="matrix(33,0,0,33,578.803,689)">
                        <path d="M0.273,0.013C0.218,0.013 0.176,0.005 0.145,-0.009C0.114,-0.024 0.092,-0.048 0.079,-0.081C0.066,-0.114 0.059,-0.161 0.059,-0.22L0.059,-0.489C0.059,-0.553 0.066,-0.603 0.079,-0.639C0.092,-0.675 0.114,-0.701 0.145,-0.716C0.176,-0.732 0.218,-0.74 0.273,-0.74C0.327,-0.74 0.369,-0.734 0.4,-0.723C0.43,-0.712 0.452,-0.693 0.466,-0.668C0.48,-0.642 0.486,-0.607 0.486,-0.562L0.424,-0.562C0.424,-0.593 0.419,-0.618 0.41,-0.635C0.4,-0.652 0.385,-0.665 0.363,-0.672C0.342,-0.679 0.312,-0.683 0.273,-0.683C0.233,-0.683 0.203,-0.677 0.181,-0.665C0.16,-0.653 0.145,-0.633 0.135,-0.606C0.126,-0.578 0.122,-0.539 0.122,-0.489L0.122,-0.396C0.138,-0.418 0.158,-0.433 0.18,-0.442C0.203,-0.451 0.234,-0.455 0.273,-0.455C0.328,-0.455 0.371,-0.448 0.401,-0.434C0.432,-0.42 0.454,-0.396 0.467,-0.362C0.481,-0.329 0.487,-0.282 0.487,-0.221C0.487,-0.162 0.481,-0.115 0.467,-0.082C0.454,-0.048 0.432,-0.024 0.401,-0.01C0.37,0.005 0.327,0.013 0.273,0.013ZM0.273,-0.045C0.312,-0.045 0.343,-0.05 0.365,-0.061C0.386,-0.072 0.402,-0.09 0.411,-0.115C0.42,-0.14 0.425,-0.175 0.425,-0.221C0.425,-0.268 0.42,-0.304 0.411,-0.329C0.402,-0.354 0.387,-0.372 0.365,-0.382C0.343,-0.392 0.313,-0.397 0.273,-0.397C0.233,-0.397 0.202,-0.392 0.181,-0.382C0.16,-0.372 0.145,-0.354 0.135,-0.329C0.126,-0.303 0.122,-0.267 0.122,-0.22C0.122,-0.174 0.126,-0.138 0.135,-0.114C0.145,-0.089 0.16,-0.071 0.181,-0.06C0.203,-0.05 0.233,-0.045 0.273,-0.045Z" style="fill:white;fill-rule:nonzero;"/>
                    </g>
                </g>
                <g transform="matrix(1.49068,0,0,2.1135,-3.62113,-1005.97)">
                    <g transform="matrix(33,0,0,33,560.803,689)">
                        <rect x="0.101" y="-0.393" width="0.345" height="0.058" style="fill:white;fill-rule:nonzero;"/>
                    </g>
                    <g transform="matrix(33,0,0,33,578.803,689)">
                        <path d="M0.135,-0C0.163,-0.11 0.2,-0.22 0.246,-0.328C0.292,-0.437 0.349,-0.551 0.417,-0.67L0.056,-0.67L0.056,-0.727L0.485,-0.727L0.485,-0.67C0.417,-0.55 0.359,-0.436 0.313,-0.328C0.266,-0.22 0.229,-0.111 0.201,-0L0.135,-0Z" style="fill:white;fill-rule:nonzero;"/>
                    </g>
                </g>
                <g transform="matrix(1.49068,0,0,2.1135,-128.839,-1005.97)">
                    <g transform="matrix(33,0,0,33,560.803,689)">
                        <rect x="0.101" y="-0.393" width="0.345" height="0.058" style="fill:white;fill-rule:nonzero;"/>
                    </g>
                    <g transform="matrix(33,0,0,33,578.803,689)">
                        <path d="M0.273,0.013C0.216,0.013 0.172,0.006 0.141,-0.007C0.109,-0.021 0.087,-0.043 0.073,-0.073C0.059,-0.104 0.052,-0.146 0.052,-0.2C0.052,-0.236 0.055,-0.266 0.06,-0.29C0.066,-0.313 0.076,-0.332 0.089,-0.347C0.102,-0.362 0.121,-0.376 0.145,-0.387C0.117,-0.404 0.098,-0.423 0.088,-0.446C0.078,-0.469 0.073,-0.503 0.073,-0.548C0.073,-0.597 0.079,-0.635 0.091,-0.662C0.104,-0.69 0.124,-0.71 0.153,-0.722C0.182,-0.734 0.222,-0.74 0.273,-0.74C0.324,-0.74 0.363,-0.734 0.392,-0.722C0.421,-0.71 0.442,-0.69 0.455,-0.662C0.467,-0.635 0.474,-0.597 0.474,-0.548C0.474,-0.503 0.468,-0.469 0.458,-0.446C0.447,-0.423 0.428,-0.404 0.401,-0.387C0.436,-0.37 0.46,-0.348 0.474,-0.321C0.488,-0.294 0.495,-0.254 0.495,-0.2C0.495,-0.146 0.488,-0.104 0.474,-0.073C0.46,-0.043 0.437,-0.021 0.405,-0.007C0.373,0.006 0.329,0.013 0.273,0.013ZM0.273,-0.414C0.309,-0.414 0.337,-0.418 0.357,-0.425C0.377,-0.433 0.39,-0.447 0.399,-0.466C0.407,-0.485 0.411,-0.512 0.411,-0.548C0.411,-0.583 0.407,-0.61 0.399,-0.629C0.39,-0.648 0.376,-0.662 0.356,-0.67C0.336,-0.679 0.308,-0.683 0.273,-0.683C0.237,-0.683 0.209,-0.679 0.19,-0.67C0.17,-0.662 0.156,-0.648 0.148,-0.629C0.14,-0.61 0.135,-0.583 0.135,-0.548C0.135,-0.512 0.14,-0.484 0.148,-0.465C0.156,-0.447 0.17,-0.433 0.189,-0.425C0.208,-0.418 0.236,-0.414 0.273,-0.414ZM0.273,-0.045C0.315,-0.045 0.347,-0.049 0.369,-0.059C0.392,-0.068 0.408,-0.084 0.417,-0.106C0.427,-0.129 0.432,-0.16 0.432,-0.2C0.432,-0.242 0.427,-0.274 0.418,-0.295C0.408,-0.317 0.392,-0.333 0.37,-0.342C0.347,-0.351 0.315,-0.355 0.273,-0.355C0.231,-0.355 0.199,-0.351 0.176,-0.342C0.154,-0.333 0.138,-0.317 0.129,-0.295C0.119,-0.274 0.115,-0.242 0.115,-0.2C0.115,-0.159 0.119,-0.128 0.129,-0.106C0.138,-0.084 0.154,-0.068 0.176,-0.059C0.199,-0.049 0.231,-0.045 0.273,-0.045Z" style="fill:white;fill-rule:nonzero;"/>
                    </g>
                </g>
                <g transform="matrix(1.49068,0,0,2.1135,-254.056,-1005.97)">
                    <g transform="matrix(33,0,0,33,560.803,689)">
                        <rect x="0.101" y="-0.393" width="0.345" height="0.058" style="fill:white;fill-rule:nonzero;"/>
                    </g>
                    <g transform="matrix(33,0,0,33,578.803,689)">
                        <path d="M0.273,0.013C0.219,0.013 0.177,0.007 0.146,-0.004C0.115,-0.015 0.093,-0.034 0.08,-0.06C0.066,-0.085 0.059,-0.121 0.059,-0.165L0.122,-0.165C0.122,-0.134 0.127,-0.11 0.136,-0.092C0.145,-0.075 0.161,-0.063 0.182,-0.055C0.204,-0.048 0.234,-0.045 0.273,-0.045C0.312,-0.045 0.343,-0.05 0.365,-0.062C0.386,-0.074 0.402,-0.094 0.411,-0.121C0.42,-0.149 0.425,-0.188 0.425,-0.238L0.425,-0.331C0.408,-0.308 0.388,-0.293 0.365,-0.285C0.343,-0.276 0.312,-0.272 0.273,-0.272C0.218,-0.272 0.175,-0.279 0.145,-0.293C0.114,-0.307 0.092,-0.331 0.079,-0.365C0.066,-0.399 0.059,-0.446 0.059,-0.506C0.059,-0.566 0.066,-0.612 0.079,-0.645C0.092,-0.679 0.114,-0.703 0.145,-0.718C0.176,-0.733 0.218,-0.74 0.273,-0.74C0.327,-0.74 0.37,-0.733 0.401,-0.718C0.432,-0.704 0.454,-0.68 0.467,-0.646C0.481,-0.613 0.487,-0.567 0.487,-0.507L0.487,-0.238C0.487,-0.175 0.481,-0.125 0.467,-0.089C0.454,-0.053 0.432,-0.027 0.401,-0.011C0.37,0.005 0.327,0.013 0.273,0.013ZM0.273,-0.33C0.313,-0.33 0.343,-0.335 0.365,-0.345C0.387,-0.356 0.402,-0.373 0.411,-0.399C0.42,-0.424 0.425,-0.46 0.425,-0.507C0.425,-0.553 0.42,-0.588 0.411,-0.613C0.402,-0.638 0.386,-0.656 0.365,-0.667C0.343,-0.677 0.312,-0.683 0.273,-0.683C0.233,-0.683 0.203,-0.677 0.181,-0.667C0.16,-0.656 0.145,-0.638 0.135,-0.613C0.126,-0.588 0.122,-0.552 0.122,-0.506C0.122,-0.459 0.126,-0.423 0.135,-0.398C0.145,-0.373 0.16,-0.356 0.181,-0.345C0.202,-0.335 0.233,-0.33 0.273,-0.33Z" style="fill:white;fill-rule:nonzero;"/>
                    </g>
                </g>
                <g transform="matrix(1.49068,0,0,2.1135,-379.273,-1005.97)">
                    <g transform="matrix(33,0,0,33,551.803,689)">
                        <rect x="0.101" y="-0.393" width="0.345" height="0.058" style="fill:white;fill-rule:nonzero;"/>
                    </g>
                    <g transform="matrix(33,0,0,33,569.803,689)">
                        <path d="M0.305,-0.057L0.434,-0.057L0.434,-0L0.113,-0L0.113,-0.057L0.242,-0.057L0.242,-0.576C0.204,-0.543 0.155,-0.526 0.095,-0.526L0.095,-0.585C0.14,-0.585 0.176,-0.597 0.202,-0.623C0.228,-0.648 0.241,-0.683 0.241,-0.727L0.305,-0.727L0.305,-0.057Z" style="fill:white;fill-rule:nonzero;"/>
                    </g>
                    <g transform="matrix(33,0,0,33,587.803,689)">
                        <path d="M0.273,0.013C0.232,0.013 0.194,-0.003 0.161,-0.035C0.128,-0.067 0.101,-0.111 0.082,-0.169C0.062,-0.226 0.053,-0.291 0.053,-0.364C0.053,-0.436 0.062,-0.501 0.082,-0.559C0.101,-0.616 0.128,-0.66 0.161,-0.692C0.194,-0.724 0.232,-0.74 0.273,-0.74C0.314,-0.74 0.351,-0.724 0.385,-0.692C0.419,-0.66 0.445,-0.616 0.465,-0.559C0.484,-0.501 0.494,-0.436 0.494,-0.364C0.494,-0.291 0.484,-0.226 0.465,-0.169C0.445,-0.111 0.419,-0.067 0.385,-0.035C0.351,-0.003 0.314,0.013 0.273,0.013ZM0.273,-0.045C0.301,-0.045 0.327,-0.058 0.351,-0.085C0.375,-0.113 0.395,-0.151 0.409,-0.199C0.424,-0.248 0.431,-0.302 0.431,-0.364C0.431,-0.425 0.424,-0.48 0.409,-0.528C0.395,-0.577 0.375,-0.615 0.351,-0.642C0.327,-0.669 0.301,-0.683 0.273,-0.683C0.245,-0.683 0.219,-0.669 0.195,-0.642C0.17,-0.615 0.151,-0.577 0.137,-0.528C0.123,-0.48 0.115,-0.425 0.115,-0.364C0.115,-0.302 0.123,-0.248 0.137,-0.199C0.151,-0.151 0.17,-0.113 0.195,-0.085C0.219,-0.058 0.245,-0.045 0.273,-0.045ZM0.273,-0.313C0.257,-0.313 0.244,-0.317 0.234,-0.327C0.224,-0.336 0.219,-0.348 0.219,-0.364C0.219,-0.378 0.224,-0.39 0.234,-0.399C0.244,-0.408 0.257,-0.413 0.273,-0.413C0.288,-0.413 0.302,-0.408 0.312,-0.399C0.322,-0.39 0.327,-0.378 0.327,-0.364C0.327,-0.348 0.322,-0.336 0.312,-0.327C0.302,-0.317 0.288,-0.313 0.273,-0.313Z" style="fill:white;fill-rule:nonzero;"/>
                    </g>
                </g>
                <g transform="matrix(1.49068,0,0,2.1135,-504.491,-1005.97)">
                    <g transform="matrix(33,0,0,33,551.803,689)">
                        <rect x="0.101" y="-0.393" width="0.345" height="0.058" style="fill:white;fill-rule:nonzero;"/>
                    </g>
                    <g transform="matrix(33,0,0,33,569.803,689)">
                        <path d="M0.305,-0.057L0.434,-0.057L0.434,-0L0.113,-0L0.113,-0.057L0.242,-0.057L0.242,-0.576C0.204,-0.543 0.155,-0.526 0.095,-0.526L0.095,-0.585C0.14,-0.585 0.176,-0.597 0.202,-0.623C0.228,-0.648 0.241,-0.683 0.241,-0.727L0.305,-0.727L0.305,-0.057Z" style="fill:white;fill-rule:nonzero;"/>
                    </g>
                    <g transform="matrix(33,0,0,33,587.803,689)">
                        <path d="M0.305,-0.057L0.434,-0.057L0.434,-0L0.113,-0L0.113,-0.057L0.242,-0.057L0.242,-0.576C0.204,-0.543 0.155,-0.526 0.095,-0.526L0.095,-0.585C0.14,-0.585 0.176,-0.597 0.202,-0.623C0.228,-0.648 0.241,-0.683 0.241,-0.727L0.305,-0.727L0.305,-0.057Z" style="fill:white;fill-rule:nonzero;"/>
                    </g>
                </g>
            </g>
        </g>
    </g>
</svg>
