<?xml version="1.0" encoding="UTF-8" standalone="no"?>
<!DOCTYPE svg PUBLIC "-//W3C//DTD SVG 1.1//EN" "http://www.w3.org/Graphics/SVG/1.1/DTD/svg11.dtd">
<svg width="868px" height="93px" version="1.1" xmlns="http://www.w3.org/2000/svg" xmlns:xlink="http://www.w3.org/1999/xlink" xml:space="preserve" xmlns:serif="http://www.serif.com/" style="fill-rule:evenodd;clip-rule:evenodd;stroke-linecap:round;stroke-linejoin:round;stroke-miterlimit:1.5;">
    <g transform="matrix(1,0,0,1,-210.273,-229.686)">
        <g transform="matrix(0.670833,0,0,0.473148,0,0)">
            <g transform="matrix(0.569493,0,0,0.807431,28.3101,166.756)">
                <rect x="502" y="396" width="84" height="84" style="fill:rgb(26,230,192);stroke:black;stroke-width:2.62px;"/>
                <g transform="matrix(60,0,0,60,523.87,459)">
                    <path d="M0.506,-0C0.499,-0 0.495,-0.003 0.493,-0.01L0.463,-0.108C0.462,-0.111 0.46,-0.112 0.458,-0.112L0.212,-0.112C0.21,-0.112 0.208,-0.111 0.207,-0.108L0.178,-0.01C0.176,-0.003 0.172,-0 0.165,-0L0.038,-0C0.034,-0 0.031,-0.001 0.029,-0.004C0.027,-0.006 0.027,-0.009 0.028,-0.014L0.244,-0.69C0.246,-0.697 0.25,-0.7 0.257,-0.7L0.414,-0.7C0.421,-0.7 0.425,-0.697 0.427,-0.69L0.643,-0.014C0.644,-0.013 0.644,-0.011 0.644,-0.009C0.644,-0.003 0.64,-0 0.633,-0L0.506,-0ZM0.243,-0.227C0.242,-0.223 0.244,-0.221 0.247,-0.221L0.423,-0.221C0.427,-0.221 0.428,-0.223 0.427,-0.227L0.337,-0.524C0.336,-0.527 0.335,-0.528 0.334,-0.528C0.333,-0.527 0.332,-0.526 0.331,-0.524L0.243,-0.227Z" style="fill:rgb(11,101,85);fill-rule:nonzero;"/>
                </g>
            </g>
        </g>
        <g transform="matrix(0.670833,0,0,0.473148,0,0)">
            <g transform="matrix(0.569493,0,0,0.807431,76.1475,166.756)">
                <rect x="502" y="396" width="84" height="84" style="fill:rgb(26,230,192);stroke:black;stroke-width:2.62px;"/>
                <g transform="matrix(60,0,0,60,527.32,459)">
                    <path d="M0.366,-0.502C0.366,-0.505 0.367,-0.508 0.37,-0.511C0.372,-0.513 0.375,-0.514 0.378,-0.514L0.495,-0.514C0.498,-0.514 0.501,-0.513 0.504,-0.511C0.506,-0.508 0.507,-0.505 0.507,-0.502L0.507,-0.046C0.507,0.041 0.482,0.104 0.432,0.141C0.381,0.178 0.316,0.197 0.237,0.197C0.214,0.197 0.188,0.195 0.159,0.192C0.152,0.191 0.149,0.187 0.149,0.179L0.153,0.076C0.153,0.067 0.158,0.064 0.167,0.065C0.191,0.069 0.213,0.071 0.233,0.071C0.276,0.071 0.309,0.062 0.332,0.043C0.355,0.024 0.366,-0.006 0.366,-0.047C0.366,-0.049 0.365,-0.05 0.364,-0.051C0.363,-0.051 0.361,-0.05 0.36,-0.049C0.335,-0.022 0.298,-0.008 0.249,-0.008C0.206,-0.008 0.166,-0.019 0.13,-0.04C0.093,-0.061 0.067,-0.094 0.052,-0.141C0.042,-0.172 0.037,-0.211 0.037,-0.26C0.037,-0.312 0.043,-0.354 0.055,-0.387C0.069,-0.428 0.093,-0.46 0.126,-0.485C0.159,-0.51 0.198,-0.522 0.242,-0.522C0.293,-0.522 0.333,-0.507 0.36,-0.476C0.361,-0.475 0.363,-0.474 0.364,-0.475C0.365,-0.475 0.366,-0.476 0.366,-0.478L0.366,-0.502ZM0.358,-0.179C0.363,-0.199 0.366,-0.226 0.366,-0.261C0.366,-0.282 0.365,-0.298 0.364,-0.309C0.363,-0.32 0.36,-0.331 0.357,-0.341C0.351,-0.359 0.341,-0.374 0.327,-0.385C0.313,-0.396 0.296,-0.401 0.275,-0.401C0.255,-0.401 0.238,-0.396 0.224,-0.385C0.21,-0.374 0.2,-0.359 0.193,-0.341C0.184,-0.321 0.179,-0.294 0.179,-0.26C0.179,-0.223 0.183,-0.196 0.191,-0.18C0.197,-0.162 0.208,-0.148 0.223,-0.137C0.238,-0.126 0.255,-0.12 0.276,-0.12C0.297,-0.12 0.315,-0.126 0.329,-0.137C0.343,-0.148 0.353,-0.162 0.358,-0.179Z" style="fill:rgb(11,101,85);fill-rule:nonzero;"/>
                </g>
            </g>
        </g>
        <g transform="matrix(0.670833,0,0,0.473148,0,0)">
            <g transform="matrix(0.569493,0,0,0.807431,123.985,166.756)">
                <rect x="502" y="396" width="84" height="84" style="fill:rgb(26,230,192);stroke:black;stroke-width:2.62px;"/>
                <g transform="matrix(60,0,0,60,527.65,459)">
                    <path d="M0.352,-0.502C0.352,-0.505 0.353,-0.508 0.356,-0.511C0.358,-0.513 0.361,-0.514 0.364,-0.514L0.481,-0.514C0.484,-0.514 0.487,-0.513 0.49,-0.511C0.492,-0.508 0.493,-0.505 0.493,-0.502L0.493,-0.012C0.493,-0.009 0.492,-0.006 0.49,-0.004C0.487,-0.001 0.484,-0 0.481,-0L0.364,-0C0.361,-0 0.358,-0.001 0.356,-0.004C0.353,-0.006 0.352,-0.009 0.352,-0.012L0.352,-0.046C0.352,-0.048 0.351,-0.049 0.35,-0.05C0.349,-0.05 0.347,-0.049 0.346,-0.047C0.319,-0.011 0.278,0.007 0.222,0.007C0.171,0.007 0.13,-0.008 0.097,-0.039C0.064,-0.07 0.048,-0.113 0.048,-0.168L0.048,-0.502C0.048,-0.505 0.049,-0.508 0.052,-0.511C0.054,-0.513 0.057,-0.514 0.06,-0.514L0.176,-0.514C0.179,-0.514 0.182,-0.513 0.185,-0.511C0.187,-0.508 0.188,-0.505 0.188,-0.502L0.188,-0.203C0.188,-0.176 0.195,-0.155 0.21,-0.138C0.224,-0.121 0.244,-0.113 0.269,-0.113C0.292,-0.113 0.31,-0.12 0.325,-0.134C0.34,-0.147 0.349,-0.165 0.352,-0.187L0.352,-0.502Z" style="fill:rgb(11,101,85);fill-rule:nonzero;"/>
                </g>
            </g>
        </g>
        <g transform="matrix(0.670833,0,0,0.473148,0,0)">
            <g transform="matrix(0.569493,0,0,0.807431,171.822,166.756)">
                <rect x="502" y="396" width="84" height="84" style="fill:rgb(26,230,192);stroke:black;stroke-width:2.62px;"/>
                <g transform="matrix(60,0,0,60,528.16,459)">
                    <path d="M0.257,-0.522C0.3,-0.522 0.339,-0.515 0.373,-0.5C0.407,-0.485 0.434,-0.464 0.453,-0.438C0.471,-0.412 0.481,-0.383 0.481,-0.351L0.481,-0.012C0.481,-0.009 0.48,-0.006 0.478,-0.004C0.475,-0.001 0.472,-0 0.469,-0L0.352,-0C0.349,-0 0.346,-0.001 0.344,-0.004C0.341,-0.006 0.34,-0.009 0.34,-0.012L0.34,-0.045C0.34,-0.047 0.339,-0.048 0.338,-0.049C0.337,-0.05 0.335,-0.049 0.334,-0.047C0.306,-0.01 0.261,0.008 0.199,0.008C0.147,0.008 0.105,-0.005 0.073,-0.03C0.041,-0.055 0.025,-0.093 0.025,-0.142C0.025,-0.193 0.043,-0.233 0.079,-0.262C0.115,-0.29 0.166,-0.304 0.233,-0.304L0.335,-0.304C0.338,-0.304 0.34,-0.306 0.34,-0.309L0.34,-0.331C0.34,-0.353 0.333,-0.37 0.32,-0.383C0.307,-0.395 0.287,-0.401 0.26,-0.401C0.239,-0.401 0.222,-0.397 0.209,-0.39C0.195,-0.383 0.186,-0.372 0.182,-0.359C0.18,-0.352 0.176,-0.348 0.169,-0.349L0.048,-0.365C0.04,-0.366 0.036,-0.369 0.037,-0.374C0.04,-0.402 0.051,-0.427 0.071,-0.45C0.09,-0.473 0.116,-0.49 0.149,-0.503C0.181,-0.516 0.217,-0.522 0.257,-0.522ZM0.237,-0.097C0.266,-0.097 0.29,-0.105 0.31,-0.12C0.33,-0.135 0.34,-0.155 0.34,-0.179L0.34,-0.215C0.34,-0.218 0.338,-0.22 0.335,-0.22L0.263,-0.22C0.233,-0.22 0.21,-0.214 0.193,-0.203C0.175,-0.192 0.167,-0.176 0.167,-0.155C0.167,-0.137 0.173,-0.123 0.186,-0.113C0.199,-0.102 0.216,-0.097 0.237,-0.097Z" style="fill:rgb(11,101,85);fill-rule:nonzero;"/>
                </g>
            </g>
        </g>
        <g transform="matrix(0.670833,0,0,0.473148,0,0)">
            <g transform="matrix(0.569493,0,0,0.807431,219.66,166.756)">
                <rect x="502" y="396" width="84" height="84" style="fill:rgb(26,230,192);stroke:black;stroke-width:2.62px;"/>
            </g>
        </g>
        <g transform="matrix(0.670833,0,0,0.473148,0,0)">
            <g transform="matrix(0.569493,0,0,0.807431,315.334,166.756)">
                <rect x="502" y="396" width="84" height="84" style="fill:rgb(26,230,192);stroke:black;stroke-width:2.62px;"/>
                <g transform="matrix(60,0,0,60,528.16,459)">
                    <path d="M0.257,-0.522C0.3,-0.522 0.339,-0.515 0.373,-0.5C0.407,-0.485 0.434,-0.464 0.453,-0.438C0.471,-0.412 0.481,-0.383 0.481,-0.351L0.481,-0.012C0.481,-0.009 0.48,-0.006 0.478,-0.004C0.475,-0.001 0.472,-0 0.469,-0L0.352,-0C0.349,-0 0.346,-0.001 0.344,-0.004C0.341,-0.006 0.34,-0.009 0.34,-0.012L0.34,-0.045C0.34,-0.047 0.339,-0.048 0.338,-0.049C0.337,-0.05 0.335,-0.049 0.334,-0.047C0.306,-0.01 0.261,0.008 0.199,0.008C0.147,0.008 0.105,-0.005 0.073,-0.03C0.041,-0.055 0.025,-0.093 0.025,-0.142C0.025,-0.193 0.043,-0.233 0.079,-0.262C0.115,-0.29 0.166,-0.304 0.233,-0.304L0.335,-0.304C0.338,-0.304 0.34,-0.306 0.34,-0.309L0.34,-0.331C0.34,-0.353 0.333,-0.37 0.32,-0.383C0.307,-0.395 0.287,-0.401 0.26,-0.401C0.239,-0.401 0.222,-0.397 0.209,-0.39C0.195,-0.383 0.186,-0.372 0.182,-0.359C0.18,-0.352 0.176,-0.348 0.169,-0.349L0.048,-0.365C0.04,-0.366 0.036,-0.369 0.037,-0.374C0.04,-0.402 0.051,-0.427 0.071,-0.45C0.09,-0.473 0.116,-0.49 0.149,-0.503C0.181,-0.516 0.217,-0.522 0.257,-0.522ZM0.237,-0.097C0.266,-0.097 0.29,-0.105 0.31,-0.12C0.33,-0.135 0.34,-0.155 0.34,-0.179L0.34,-0.215C0.34,-0.218 0.338,-0.22 0.335,-0.22L0.263,-0.22C0.233,-0.22 0.21,-0.214 0.193,-0.203C0.175,-0.192 0.167,-0.176 0.167,-0.155C0.167,-0.137 0.173,-0.123 0.186,-0.113C0.199,-0.102 0.216,-0.097 0.237,-0.097Z" style="fill:rgb(11,101,85);fill-rule:nonzero;"/>
                </g>
            </g>
        </g>
        <g transform="matrix(0.670833,0,0,0.473148,0,0)">
            <g transform="matrix(0.569493,0,0,0.807431,267.497,166.756)">
                <rect x="502" y="396" width="84" height="84" style="fill:rgb(26,230,192);stroke:black;stroke-width:2.62px;"/>
                <g transform="matrix(60,0,0,60,526.96,459)">
                    <path d="M0.511,-0.376C0.523,-0.342 0.529,-0.302 0.529,-0.256C0.529,-0.21 0.523,-0.168 0.51,-0.131C0.495,-0.088 0.47,-0.055 0.438,-0.03C0.405,-0.005 0.364,0.008 0.315,0.008C0.267,0.008 0.23,-0.009 0.203,-0.042C0.202,-0.044 0.2,-0.045 0.199,-0.044C0.198,-0.043 0.197,-0.042 0.197,-0.04L0.197,0.174C0.197,0.177 0.196,0.18 0.194,0.183C0.191,0.185 0.188,0.186 0.185,0.186L0.068,0.186C0.065,0.186 0.062,0.185 0.06,0.183C0.057,0.18 0.056,0.177 0.056,0.174L0.056,-0.502C0.056,-0.505 0.057,-0.508 0.06,-0.511C0.062,-0.513 0.065,-0.514 0.068,-0.514L0.185,-0.514C0.188,-0.514 0.191,-0.513 0.194,-0.511C0.196,-0.508 0.197,-0.505 0.197,-0.502L0.197,-0.469C0.197,-0.467 0.198,-0.466 0.199,-0.466C0.2,-0.465 0.202,-0.466 0.203,-0.467C0.231,-0.504 0.27,-0.522 0.319,-0.522C0.365,-0.522 0.405,-0.509 0.439,-0.484C0.472,-0.458 0.496,-0.422 0.511,-0.376ZM0.358,-0.152C0.375,-0.178 0.383,-0.213 0.383,-0.258C0.383,-0.3 0.376,-0.333 0.362,-0.358C0.347,-0.387 0.322,-0.401 0.288,-0.401C0.257,-0.401 0.234,-0.387 0.219,-0.358C0.205,-0.334 0.198,-0.3 0.198,-0.257C0.198,-0.212 0.205,-0.178 0.22,-0.153C0.235,-0.126 0.258,-0.113 0.288,-0.113C0.318,-0.113 0.341,-0.126 0.358,-0.152Z" style="fill:rgb(11,101,85);fill-rule:nonzero;"/>
                </g>
            </g>
        </g>
        <g transform="matrix(0.670833,0,0,0.473148,0,0)">
            <g transform="matrix(0.569493,0,0,0.807431,363.172,166.756)">
                <rect x="502" y="396" width="84" height="84" style="fill:rgb(26,230,192);stroke:black;stroke-width:2.62px;"/>
                <g transform="matrix(60,0,0,60,528.94,459)">
                    <path d="M0.257,0.007C0.212,0.007 0.173,0.001 0.14,-0.012C0.107,-0.025 0.081,-0.042 0.063,-0.065C0.044,-0.088 0.035,-0.113 0.035,-0.142L0.035,-0.152C0.035,-0.155 0.036,-0.158 0.039,-0.161C0.041,-0.163 0.044,-0.164 0.047,-0.164L0.158,-0.164C0.161,-0.164 0.164,-0.163 0.167,-0.161C0.169,-0.158 0.17,-0.155 0.17,-0.152L0.17,-0.151C0.17,-0.136 0.178,-0.124 0.195,-0.114C0.211,-0.103 0.231,-0.098 0.256,-0.098C0.279,-0.098 0.297,-0.102 0.311,-0.112C0.325,-0.121 0.332,-0.132 0.332,-0.145C0.332,-0.157 0.326,-0.166 0.314,-0.172C0.302,-0.178 0.282,-0.184 0.255,-0.191C0.224,-0.199 0.199,-0.207 0.181,-0.214C0.138,-0.229 0.104,-0.247 0.079,-0.268C0.054,-0.289 0.041,-0.32 0.041,-0.36C0.041,-0.409 0.06,-0.448 0.099,-0.478C0.137,-0.507 0.188,-0.521 0.251,-0.521C0.294,-0.521 0.331,-0.514 0.363,-0.501C0.395,-0.487 0.42,-0.468 0.438,-0.443C0.455,-0.418 0.464,-0.39 0.464,-0.359C0.464,-0.356 0.463,-0.353 0.461,-0.351C0.458,-0.348 0.455,-0.347 0.452,-0.347L0.345,-0.347C0.342,-0.347 0.339,-0.348 0.337,-0.351C0.334,-0.353 0.333,-0.356 0.333,-0.359C0.333,-0.374 0.326,-0.386 0.311,-0.396C0.296,-0.406 0.276,-0.411 0.251,-0.411C0.229,-0.411 0.211,-0.407 0.197,-0.399C0.183,-0.391 0.176,-0.38 0.176,-0.366C0.176,-0.353 0.183,-0.343 0.197,-0.336C0.21,-0.329 0.233,-0.322 0.265,-0.315C0.272,-0.313 0.281,-0.311 0.29,-0.309C0.299,-0.306 0.309,-0.303 0.32,-0.3C0.367,-0.286 0.405,-0.268 0.432,-0.246C0.459,-0.224 0.473,-0.192 0.473,-0.15C0.473,-0.101 0.454,-0.062 0.415,-0.035C0.376,-0.007 0.323,0.007 0.257,0.007Z" style="fill:rgb(11,101,85);fill-rule:nonzero;"/>
                </g>
            </g>
        </g>
        <g transform="matrix(0.670833,0,0,0.473148,0,0)">
            <g transform="matrix(0.569493,0,0,0.807431,411.009,166.756)">
                <rect x="502" y="396" width="84" height="84" style="fill:rgb(26,230,192);stroke:black;stroke-width:2.62px;"/>
                <g transform="matrix(60,0,0,60,528.16,459)">
                    <path d="M0.257,-0.522C0.3,-0.522 0.339,-0.515 0.373,-0.5C0.407,-0.485 0.434,-0.464 0.453,-0.438C0.471,-0.412 0.481,-0.383 0.481,-0.351L0.481,-0.012C0.481,-0.009 0.48,-0.006 0.478,-0.004C0.475,-0.001 0.472,-0 0.469,-0L0.352,-0C0.349,-0 0.346,-0.001 0.344,-0.004C0.341,-0.006 0.34,-0.009 0.34,-0.012L0.34,-0.045C0.34,-0.047 0.339,-0.048 0.338,-0.049C0.337,-0.05 0.335,-0.049 0.334,-0.047C0.306,-0.01 0.261,0.008 0.199,0.008C0.147,0.008 0.105,-0.005 0.073,-0.03C0.041,-0.055 0.025,-0.093 0.025,-0.142C0.025,-0.193 0.043,-0.233 0.079,-0.262C0.115,-0.29 0.166,-0.304 0.233,-0.304L0.335,-0.304C0.338,-0.304 0.34,-0.306 0.34,-0.309L0.34,-0.331C0.34,-0.353 0.333,-0.37 0.32,-0.383C0.307,-0.395 0.287,-0.401 0.26,-0.401C0.239,-0.401 0.222,-0.397 0.209,-0.39C0.195,-0.383 0.186,-0.372 0.182,-0.359C0.18,-0.352 0.176,-0.348 0.169,-0.349L0.048,-0.365C0.04,-0.366 0.036,-0.369 0.037,-0.374C0.04,-0.402 0.051,-0.427 0.071,-0.45C0.09,-0.473 0.116,-0.49 0.149,-0.503C0.181,-0.516 0.217,-0.522 0.257,-0.522ZM0.237,-0.097C0.266,-0.097 0.29,-0.105 0.31,-0.12C0.33,-0.135 0.34,-0.155 0.34,-0.179L0.34,-0.215C0.34,-0.218 0.338,-0.22 0.335,-0.22L0.263,-0.22C0.233,-0.22 0.21,-0.214 0.193,-0.203C0.175,-0.192 0.167,-0.176 0.167,-0.155C0.167,-0.137 0.173,-0.123 0.186,-0.113C0.199,-0.102 0.216,-0.097 0.237,-0.097Z" style="fill:rgb(11,101,85);fill-rule:nonzero;"/>
                </g>
            </g>
        </g>
        <g transform="matrix(0.670833,0,0,0.473148,0,0)">
            <g transform="matrix(0.569493,0,0,0.807431,458.846,166.756)">
                <rect x="502" y="396" width="84" height="84" style="fill:rgb(26,230,192);stroke:black;stroke-width:2.62px;"/>
                <g transform="matrix(60,0,0,60,527.02,459)">
                    <path d="M0.371,-0.688C0.371,-0.691 0.372,-0.694 0.375,-0.697C0.377,-0.699 0.38,-0.7 0.383,-0.7L0.5,-0.7C0.503,-0.7 0.506,-0.699 0.509,-0.697C0.511,-0.694 0.512,-0.691 0.512,-0.688L0.512,-0.012C0.512,-0.009 0.511,-0.006 0.509,-0.004C0.506,-0.001 0.503,-0 0.5,-0L0.383,-0C0.38,-0 0.377,-0.001 0.375,-0.004C0.372,-0.006 0.371,-0.009 0.371,-0.012L0.371,-0.045C0.371,-0.047 0.37,-0.048 0.369,-0.049C0.368,-0.049 0.366,-0.048 0.365,-0.047C0.337,-0.01 0.299,0.008 0.25,0.008C0.203,0.008 0.163,-0.005 0.13,-0.031C0.096,-0.057 0.072,-0.093 0.057,-0.138C0.046,-0.173 0.04,-0.213 0.04,-0.259C0.04,-0.306 0.046,-0.348 0.058,-0.383C0.073,-0.426 0.097,-0.46 0.131,-0.485C0.164,-0.509 0.204,-0.522 0.253,-0.522C0.301,-0.522 0.338,-0.505 0.365,-0.472C0.366,-0.47 0.368,-0.469 0.369,-0.47C0.37,-0.471 0.371,-0.472 0.371,-0.474L0.371,-0.688ZM0.35,-0.156C0.363,-0.181 0.37,-0.214 0.37,-0.257C0.37,-0.302 0.363,-0.337 0.348,-0.362C0.333,-0.388 0.31,-0.401 0.281,-0.401C0.25,-0.401 0.226,-0.388 0.21,-0.362C0.193,-0.336 0.185,-0.301 0.185,-0.256C0.185,-0.216 0.192,-0.183 0.206,-0.156C0.223,-0.127 0.247,-0.113 0.28,-0.113C0.31,-0.113 0.333,-0.127 0.35,-0.156Z" style="fill:rgb(11,101,85);fill-rule:nonzero;"/>
                </g>
            </g>
        </g>
        <g transform="matrix(0.670833,0,0,0.473148,0,0)">
            <g transform="matrix(0.569493,0,0,0.807431,506.684,166.756)">
                <rect x="502" y="396" width="84" height="84" style="fill:rgb(26,230,192);stroke:black;stroke-width:2.62px;"/>
                <g transform="matrix(60,0,0,60,528.16,459)">
                    <path d="M0.257,-0.522C0.3,-0.522 0.339,-0.515 0.373,-0.5C0.407,-0.485 0.434,-0.464 0.453,-0.438C0.471,-0.412 0.481,-0.383 0.481,-0.351L0.481,-0.012C0.481,-0.009 0.48,-0.006 0.478,-0.004C0.475,-0.001 0.472,-0 0.469,-0L0.352,-0C0.349,-0 0.346,-0.001 0.344,-0.004C0.341,-0.006 0.34,-0.009 0.34,-0.012L0.34,-0.045C0.34,-0.047 0.339,-0.048 0.338,-0.049C0.337,-0.05 0.335,-0.049 0.334,-0.047C0.306,-0.01 0.261,0.008 0.199,0.008C0.147,0.008 0.105,-0.005 0.073,-0.03C0.041,-0.055 0.025,-0.093 0.025,-0.142C0.025,-0.193 0.043,-0.233 0.079,-0.262C0.115,-0.29 0.166,-0.304 0.233,-0.304L0.335,-0.304C0.338,-0.304 0.34,-0.306 0.34,-0.309L0.34,-0.331C0.34,-0.353 0.333,-0.37 0.32,-0.383C0.307,-0.395 0.287,-0.401 0.26,-0.401C0.239,-0.401 0.222,-0.397 0.209,-0.39C0.195,-0.383 0.186,-0.372 0.182,-0.359C0.18,-0.352 0.176,-0.348 0.169,-0.349L0.048,-0.365C0.04,-0.366 0.036,-0.369 0.037,-0.374C0.04,-0.402 0.051,-0.427 0.071,-0.45C0.09,-0.473 0.116,-0.49 0.149,-0.503C0.181,-0.516 0.217,-0.522 0.257,-0.522ZM0.237,-0.097C0.266,-0.097 0.29,-0.105 0.31,-0.12C0.33,-0.135 0.34,-0.155 0.34,-0.179L0.34,-0.215C0.34,-0.218 0.338,-0.22 0.335,-0.22L0.263,-0.22C0.233,-0.22 0.21,-0.214 0.193,-0.203C0.175,-0.192 0.167,-0.176 0.167,-0.155C0.167,-0.137 0.173,-0.123 0.186,-0.113C0.199,-0.102 0.216,-0.097 0.237,-0.097Z" style="fill:rgb(11,101,85);fill-rule:nonzero;"/>
                </g>
            </g>
        </g>
        <g transform="matrix(0.670833,0,0,0.473148,0,0)">
            <g transform="matrix(0.569493,0,0,0.807431,554.521,166.756)">
                <rect x="502" y="396" width="84" height="84" style="fill:rgb(26,230,192);stroke:black;stroke-width:2.62px;"/>
            </g>
        </g>
        <g transform="matrix(0.670833,0,0,0.473148,0,0)">
            <g transform="matrix(0.569493,0,0,0.807431,602.359,166.756)">
                <rect x="502" y="396" width="84" height="84" style="fill:rgb(26,230,192);stroke:black;stroke-width:2.62px;"/>
                <g transform="matrix(60,0,0,60,527.59,459)">
                    <path d="M0.32,-0.522C0.373,-0.522 0.416,-0.506 0.449,-0.473C0.482,-0.44 0.498,-0.396 0.498,-0.34L0.498,-0.012C0.498,-0.009 0.497,-0.006 0.495,-0.004C0.492,-0.001 0.489,-0 0.486,-0L0.369,-0C0.366,-0 0.363,-0.001 0.361,-0.004C0.358,-0.006 0.357,-0.009 0.357,-0.012L0.357,-0.311C0.357,-0.338 0.349,-0.359 0.335,-0.376C0.32,-0.393 0.3,-0.401 0.275,-0.401C0.25,-0.401 0.231,-0.393 0.216,-0.376C0.201,-0.359 0.193,-0.338 0.193,-0.311L0.193,-0.012C0.193,-0.009 0.192,-0.006 0.19,-0.004C0.187,-0.001 0.184,-0 0.181,-0L0.064,-0C0.061,-0 0.058,-0.001 0.056,-0.004C0.053,-0.006 0.052,-0.009 0.052,-0.012L0.052,-0.502C0.052,-0.505 0.053,-0.508 0.056,-0.511C0.058,-0.513 0.061,-0.514 0.064,-0.514L0.181,-0.514C0.184,-0.514 0.187,-0.513 0.19,-0.511C0.192,-0.508 0.193,-0.505 0.193,-0.502L0.193,-0.467C0.193,-0.465 0.194,-0.464 0.195,-0.463C0.196,-0.462 0.197,-0.463 0.198,-0.464C0.225,-0.503 0.266,-0.522 0.32,-0.522Z" style="fill:rgb(11,101,85);fill-rule:nonzero;"/>
                </g>
            </g>
        </g>
        <g transform="matrix(0.670833,0,0,0.473148,0,0)">
            <g transform="matrix(0.569493,0,0,0.807431,650.196,166.756)">
                <rect x="502" y="396" width="84" height="84" style="fill:rgb(26,230,192);stroke:black;stroke-width:2.62px;"/>
                <g transform="matrix(60,0,0,60,527.29,459)">
                    <path d="M0.279,0.008C0.223,0.008 0.175,-0.007 0.135,-0.036C0.095,-0.065 0.068,-0.105 0.053,-0.156C0.044,-0.187 0.039,-0.221 0.039,-0.258C0.039,-0.297 0.044,-0.333 0.053,-0.364C0.068,-0.413 0.096,-0.452 0.136,-0.48C0.176,-0.508 0.224,-0.522 0.28,-0.522C0.335,-0.522 0.381,-0.508 0.42,-0.481C0.459,-0.453 0.486,-0.414 0.502,-0.365C0.513,-0.332 0.518,-0.297 0.518,-0.26C0.518,-0.224 0.513,-0.19 0.504,-0.159C0.489,-0.107 0.462,-0.066 0.423,-0.037C0.383,-0.007 0.335,0.008 0.279,0.008ZM0.279,-0.113C0.301,-0.113 0.32,-0.12 0.335,-0.133C0.35,-0.146 0.361,-0.165 0.368,-0.188C0.373,-0.209 0.376,-0.233 0.376,-0.258C0.376,-0.286 0.373,-0.31 0.368,-0.329C0.361,-0.352 0.349,-0.369 0.334,-0.382C0.319,-0.395 0.3,-0.401 0.278,-0.401C0.255,-0.401 0.237,-0.395 0.222,-0.382C0.207,-0.369 0.196,-0.352 0.189,-0.329C0.184,-0.313 0.181,-0.289 0.181,-0.258C0.181,-0.228 0.183,-0.205 0.188,-0.188C0.195,-0.165 0.206,-0.146 0.222,-0.133C0.237,-0.12 0.256,-0.113 0.279,-0.113Z" style="fill:rgb(11,101,85);fill-rule:nonzero;"/>
                </g>
            </g>
        </g>
        <g transform="matrix(0.670833,0,0,0.473148,0,0)">
            <g transform="matrix(0.569493,0,0,0.807431,698.033,166.756)">
                <rect x="502" y="396" width="84" height="84" style="fill:rgb(26,230,192);stroke:black;stroke-width:2.62px;"/>
            </g>
        </g>
        <g transform="matrix(0.670833,0,0,0.473148,0,0)">
            <g transform="matrix(0.569493,0,0,0.807431,745.871,166.756)">
                <rect x="502" y="396" width="84" height="84" style="fill:rgb(26,230,192);stroke:black;stroke-width:2.62px;"/>
                <g transform="matrix(60,0,0,60,518.95,459)">
                    <path d="M0.622,-0.522C0.674,-0.522 0.715,-0.506 0.744,-0.475C0.773,-0.444 0.788,-0.4 0.788,-0.343L0.788,-0.012C0.788,-0.009 0.787,-0.006 0.785,-0.004C0.782,-0.001 0.779,-0 0.776,-0L0.659,-0C0.656,-0 0.653,-0.001 0.651,-0.004C0.648,-0.006 0.647,-0.009 0.647,-0.012L0.647,-0.312C0.647,-0.339 0.64,-0.361 0.626,-0.377C0.612,-0.393 0.593,-0.401 0.57,-0.401C0.547,-0.401 0.528,-0.393 0.513,-0.377C0.498,-0.361 0.491,-0.34 0.491,-0.313L0.491,-0.012C0.491,-0.009 0.49,-0.006 0.488,-0.004C0.485,-0.001 0.482,-0 0.479,-0L0.363,-0C0.36,-0 0.357,-0.001 0.355,-0.004C0.352,-0.006 0.351,-0.009 0.351,-0.012L0.351,-0.312C0.351,-0.339 0.344,-0.36 0.329,-0.377C0.314,-0.393 0.295,-0.401 0.272,-0.401C0.251,-0.401 0.233,-0.395 0.219,-0.382C0.204,-0.369 0.196,-0.352 0.193,-0.329L0.193,-0.012C0.193,-0.009 0.192,-0.006 0.19,-0.004C0.187,-0.001 0.184,-0 0.181,-0L0.064,-0C0.061,-0 0.058,-0.001 0.056,-0.004C0.053,-0.006 0.052,-0.009 0.052,-0.012L0.052,-0.502C0.052,-0.505 0.053,-0.508 0.056,-0.511C0.058,-0.513 0.061,-0.514 0.064,-0.514L0.181,-0.514C0.184,-0.514 0.187,-0.513 0.19,-0.511C0.192,-0.508 0.193,-0.505 0.193,-0.502L0.193,-0.463C0.193,-0.461 0.194,-0.46 0.195,-0.459C0.196,-0.458 0.198,-0.459 0.199,-0.461C0.226,-0.502 0.269,-0.522 0.326,-0.522C0.359,-0.522 0.389,-0.515 0.414,-0.501C0.439,-0.487 0.458,-0.467 0.471,-0.441C0.473,-0.437 0.475,-0.437 0.478,-0.441C0.493,-0.468 0.513,-0.489 0.538,-0.502C0.563,-0.515 0.591,-0.522 0.622,-0.522Z" style="fill:rgb(11,101,85);fill-rule:nonzero;"/>
                </g>
            </g>
        </g>
        <g transform="matrix(0.670833,0,0,0.473148,0,0)">
            <g transform="matrix(0.569493,0,0,0.807431,793.708,166.756)">
                <rect x="502" y="396" width="84" height="84" style="fill:rgb(26,230,192);stroke:black;stroke-width:2.62px;"/>
                <g transform="matrix(60,0,0,60,527.65,459)">
                    <path d="M0.352,-0.502C0.352,-0.505 0.353,-0.508 0.356,-0.511C0.358,-0.513 0.361,-0.514 0.364,-0.514L0.481,-0.514C0.484,-0.514 0.487,-0.513 0.49,-0.511C0.492,-0.508 0.493,-0.505 0.493,-0.502L0.493,-0.012C0.493,-0.009 0.492,-0.006 0.49,-0.004C0.487,-0.001 0.484,-0 0.481,-0L0.364,-0C0.361,-0 0.358,-0.001 0.356,-0.004C0.353,-0.006 0.352,-0.009 0.352,-0.012L0.352,-0.046C0.352,-0.048 0.351,-0.049 0.35,-0.05C0.349,-0.05 0.347,-0.049 0.346,-0.047C0.319,-0.011 0.278,0.007 0.222,0.007C0.171,0.007 0.13,-0.008 0.097,-0.039C0.064,-0.07 0.048,-0.113 0.048,-0.168L0.048,-0.502C0.048,-0.505 0.049,-0.508 0.052,-0.511C0.054,-0.513 0.057,-0.514 0.06,-0.514L0.176,-0.514C0.179,-0.514 0.182,-0.513 0.185,-0.511C0.187,-0.508 0.188,-0.505 0.188,-0.502L0.188,-0.203C0.188,-0.176 0.195,-0.155 0.21,-0.138C0.224,-0.121 0.244,-0.113 0.269,-0.113C0.292,-0.113 0.31,-0.12 0.325,-0.134C0.34,-0.147 0.349,-0.165 0.352,-0.187L0.352,-0.502Z" style="fill:rgb(11,101,85);fill-rule:nonzero;"/>
                </g>
            </g>
        </g>
        <g transform="matrix(0.670833,0,0,0.473148,0,0)">
            <g transform="matrix(0.569493,0,0,0.807431,841.546,166.756)">
                <rect x="502" y="396" width="84" height="84" style="fill:rgb(26,230,192);stroke:black;stroke-width:2.62px;"/>
                <g transform="matrix(60,0,0,60,527.62,459)">
                    <path d="M0.507,-0.31C0.511,-0.285 0.512,-0.256 0.511,-0.225C0.51,-0.217 0.506,-0.213 0.498,-0.213L0.189,-0.213C0.185,-0.213 0.184,-0.211 0.185,-0.208C0.187,-0.195 0.191,-0.181 0.196,-0.168C0.213,-0.131 0.249,-0.112 0.302,-0.112C0.345,-0.113 0.378,-0.13 0.403,-0.164C0.406,-0.168 0.409,-0.17 0.412,-0.17C0.414,-0.17 0.416,-0.169 0.419,-0.166L0.491,-0.095C0.494,-0.092 0.496,-0.089 0.496,-0.086C0.496,-0.085 0.495,-0.082 0.492,-0.078C0.47,-0.051 0.442,-0.029 0.407,-0.015C0.372,0 0.334,0.008 0.293,0.008C0.236,0.008 0.187,-0.005 0.148,-0.031C0.108,-0.057 0.079,-0.093 0.062,-0.14C0.048,-0.173 0.041,-0.217 0.041,-0.271C0.041,-0.308 0.046,-0.34 0.056,-0.368C0.071,-0.415 0.098,-0.453 0.137,-0.481C0.175,-0.509 0.22,-0.523 0.273,-0.523C0.34,-0.523 0.393,-0.504 0.434,-0.465C0.474,-0.426 0.498,-0.375 0.507,-0.31ZM0.274,-0.401C0.232,-0.401 0.204,-0.381 0.191,-0.342C0.188,-0.333 0.186,-0.323 0.184,-0.31C0.184,-0.307 0.186,-0.305 0.189,-0.305L0.362,-0.305C0.366,-0.305 0.367,-0.307 0.366,-0.31C0.363,-0.329 0.361,-0.339 0.361,-0.338C0.355,-0.358 0.345,-0.374 0.33,-0.385C0.315,-0.396 0.296,-0.401 0.274,-0.401Z" style="fill:rgb(11,101,85);fill-rule:nonzero;"/>
                </g>
            </g>
        </g>
        <g transform="matrix(0.670833,0,0,0.473148,0,0)">
            <g transform="matrix(0.569493,0,0,0.807431,889.383,166.756)">
                <rect x="502" y="396" width="84" height="84" style="fill:rgb(26,230,192);stroke:black;stroke-width:2.62px;"/>
                <g transform="matrix(60,0,0,60,528.4,459)">
                    <path d="M0.195,-0C0.188,-0 0.184,-0.003 0.182,-0.01L0.022,-0.501C0.021,-0.502 0.021,-0.504 0.021,-0.506C0.021,-0.512 0.025,-0.515 0.032,-0.515L0.161,-0.515C0.168,-0.515 0.173,-0.512 0.175,-0.505L0.257,-0.202C0.258,-0.2 0.259,-0.199 0.26,-0.199C0.261,-0.199 0.262,-0.2 0.263,-0.202L0.345,-0.505C0.347,-0.512 0.352,-0.515 0.359,-0.515L0.488,-0.513C0.492,-0.513 0.495,-0.512 0.497,-0.51C0.499,-0.507 0.499,-0.504 0.498,-0.499L0.339,-0.01C0.337,-0.003 0.333,-0 0.326,-0L0.195,-0Z" style="fill:rgb(11,101,85);fill-rule:nonzero;"/>
                </g>
            </g>
        </g>
        <g transform="matrix(0.670833,0,0,0.473148,0,0)">
            <g transform="matrix(0.569493,0,0,0.807431,937.22,166.756)">
                <rect x="502" y="396" width="84" height="84" style="fill:rgb(26,230,192);stroke:black;stroke-width:2.62px;"/>
                <g transform="matrix(60,0,0,60,527.62,459)">
                    <path d="M0.507,-0.31C0.511,-0.285 0.512,-0.256 0.511,-0.225C0.51,-0.217 0.506,-0.213 0.498,-0.213L0.189,-0.213C0.185,-0.213 0.184,-0.211 0.185,-0.208C0.187,-0.195 0.191,-0.181 0.196,-0.168C0.213,-0.131 0.249,-0.112 0.302,-0.112C0.345,-0.113 0.378,-0.13 0.403,-0.164C0.406,-0.168 0.409,-0.17 0.412,-0.17C0.414,-0.17 0.416,-0.169 0.419,-0.166L0.491,-0.095C0.494,-0.092 0.496,-0.089 0.496,-0.086C0.496,-0.085 0.495,-0.082 0.492,-0.078C0.47,-0.051 0.442,-0.029 0.407,-0.015C0.372,0 0.334,0.008 0.293,0.008C0.236,0.008 0.187,-0.005 0.148,-0.031C0.108,-0.057 0.079,-0.093 0.062,-0.14C0.048,-0.173 0.041,-0.217 0.041,-0.271C0.041,-0.308 0.046,-0.34 0.056,-0.368C0.071,-0.415 0.098,-0.453 0.137,-0.481C0.175,-0.509 0.22,-0.523 0.273,-0.523C0.34,-0.523 0.393,-0.504 0.434,-0.465C0.474,-0.426 0.498,-0.375 0.507,-0.31ZM0.274,-0.401C0.232,-0.401 0.204,-0.381 0.191,-0.342C0.188,-0.333 0.186,-0.323 0.184,-0.31C0.184,-0.307 0.186,-0.305 0.189,-0.305L0.362,-0.305C0.366,-0.305 0.367,-0.307 0.366,-0.31C0.363,-0.329 0.361,-0.339 0.361,-0.338C0.355,-0.358 0.345,-0.374 0.33,-0.385C0.315,-0.396 0.296,-0.401 0.274,-0.401Z" style="fill:rgb(11,101,85);fill-rule:nonzero;"/>
                </g>
            </g>
        </g>
        <g transform="matrix(0.670833,0,0,0.473148,0,0)">
            <g transform="matrix(0.569493,0,0,0.807431,985.058,166.756)">
                <rect x="502" y="396" width="84" height="84" style="fill:rgb(26,230,192);stroke:black;stroke-width:2.62px;"/>
            </g>
        </g>
        <g transform="matrix(0.670833,0,0,0.473148,0,0)">
            <g transform="matrix(0.569493,0,0,0.807431,1032.9,166.756)">
                <rect x="502" y="396" width="84" height="84" style="fill:rgb(26,230,192);stroke:black;stroke-width:2.62px;"/>
                <g transform="matrix(60,0,0,60,518.95,459)">
                    <path d="M0.622,-0.522C0.674,-0.522 0.715,-0.506 0.744,-0.475C0.773,-0.444 0.788,-0.4 0.788,-0.343L0.788,-0.012C0.788,-0.009 0.787,-0.006 0.785,-0.004C0.782,-0.001 0.779,-0 0.776,-0L0.659,-0C0.656,-0 0.653,-0.001 0.651,-0.004C0.648,-0.006 0.647,-0.009 0.647,-0.012L0.647,-0.312C0.647,-0.339 0.64,-0.361 0.626,-0.377C0.612,-0.393 0.593,-0.401 0.57,-0.401C0.547,-0.401 0.528,-0.393 0.513,-0.377C0.498,-0.361 0.491,-0.34 0.491,-0.313L0.491,-0.012C0.491,-0.009 0.49,-0.006 0.488,-0.004C0.485,-0.001 0.482,-0 0.479,-0L0.363,-0C0.36,-0 0.357,-0.001 0.355,-0.004C0.352,-0.006 0.351,-0.009 0.351,-0.012L0.351,-0.312C0.351,-0.339 0.344,-0.36 0.329,-0.377C0.314,-0.393 0.295,-0.401 0.272,-0.401C0.251,-0.401 0.233,-0.395 0.219,-0.382C0.204,-0.369 0.196,-0.352 0.193,-0.329L0.193,-0.012C0.193,-0.009 0.192,-0.006 0.19,-0.004C0.187,-0.001 0.184,-0 0.181,-0L0.064,-0C0.061,-0 0.058,-0.001 0.056,-0.004C0.053,-0.006 0.052,-0.009 0.052,-0.012L0.052,-0.502C0.052,-0.505 0.053,-0.508 0.056,-0.511C0.058,-0.513 0.061,-0.514 0.064,-0.514L0.181,-0.514C0.184,-0.514 0.187,-0.513 0.19,-0.511C0.192,-0.508 0.193,-0.505 0.193,-0.502L0.193,-0.463C0.193,-0.461 0.194,-0.46 0.195,-0.459C0.196,-0.458 0.198,-0.459 0.199,-0.461C0.226,-0.502 0.269,-0.522 0.326,-0.522C0.359,-0.522 0.389,-0.515 0.414,-0.501C0.439,-0.487 0.458,-0.467 0.471,-0.441C0.473,-0.437 0.475,-0.437 0.478,-0.441C0.493,-0.468 0.513,-0.489 0.538,-0.502C0.563,-0.515 0.591,-0.522 0.622,-0.522Z" style="fill:rgb(11,101,85);fill-rule:nonzero;"/>
                </g>
            </g>
        </g>
        <g transform="matrix(0.670833,0,0,0.473148,0,0)">
            <g transform="matrix(0.569493,0,0,0.807431,1080.73,166.756)">
                <rect x="502" y="396" width="84" height="84" style="fill:rgb(26,230,192);stroke:black;stroke-width:2.62px;"/>
                <g transform="matrix(60,0,0,60,527.29,459)">
                    <path d="M0.279,0.008C0.223,0.008 0.175,-0.007 0.135,-0.036C0.095,-0.065 0.068,-0.105 0.053,-0.156C0.044,-0.187 0.039,-0.221 0.039,-0.258C0.039,-0.297 0.044,-0.333 0.053,-0.364C0.068,-0.413 0.096,-0.452 0.136,-0.48C0.176,-0.508 0.224,-0.522 0.28,-0.522C0.335,-0.522 0.381,-0.508 0.42,-0.481C0.459,-0.453 0.486,-0.414 0.502,-0.365C0.513,-0.332 0.518,-0.297 0.518,-0.26C0.518,-0.224 0.513,-0.19 0.504,-0.159C0.489,-0.107 0.462,-0.066 0.423,-0.037C0.383,-0.007 0.335,0.008 0.279,0.008ZM0.279,-0.113C0.301,-0.113 0.32,-0.12 0.335,-0.133C0.35,-0.146 0.361,-0.165 0.368,-0.188C0.373,-0.209 0.376,-0.233 0.376,-0.258C0.376,-0.286 0.373,-0.31 0.368,-0.329C0.361,-0.352 0.349,-0.369 0.334,-0.382C0.319,-0.395 0.3,-0.401 0.278,-0.401C0.255,-0.401 0.237,-0.395 0.222,-0.382C0.207,-0.369 0.196,-0.352 0.189,-0.329C0.184,-0.313 0.181,-0.289 0.181,-0.258C0.181,-0.228 0.183,-0.205 0.188,-0.188C0.195,-0.165 0.206,-0.146 0.222,-0.133C0.237,-0.12 0.256,-0.113 0.279,-0.113Z" style="fill:rgb(11,101,85);fill-rule:nonzero;"/>
                </g>
            </g>
        </g>
        <g transform="matrix(0.670833,0,0,0.473148,0,0)">
            <g transform="matrix(0.569493,0,0,0.807431,1128.57,166.756)">
                <rect x="502" y="396" width="84" height="84" style="fill:rgb(26,230,192);stroke:black;stroke-width:2.62px;"/>
                <g transform="matrix(60,0,0,60,536.68,459)">
                    <path d="M0.064,-0C0.061,-0 0.058,-0.001 0.056,-0.004C0.053,-0.006 0.052,-0.009 0.052,-0.012L0.052,-0.688C0.052,-0.691 0.053,-0.694 0.056,-0.697C0.058,-0.699 0.061,-0.7 0.064,-0.7L0.181,-0.7C0.184,-0.7 0.187,-0.699 0.19,-0.697C0.192,-0.694 0.193,-0.691 0.193,-0.688L0.193,-0.012C0.193,-0.009 0.192,-0.006 0.19,-0.004C0.187,-0.001 0.184,-0 0.181,-0L0.064,-0Z" style="fill:rgb(11,101,85);fill-rule:nonzero;"/>
                </g>
            </g>
        </g>
        <g transform="matrix(0.670833,0,0,0.473148,0,0)">
            <g transform="matrix(0.569493,0,0,0.807431,1176.41,166.756)">
                <rect x="502" y="396" width="84" height="84" style="fill:rgb(26,230,192);stroke:black;stroke-width:2.62px;"/>
                <g transform="matrix(60,0,0,60,536.35,459)">
                    <path d="M0.128,-0.572C0.105,-0.572 0.087,-0.58 0.072,-0.595C0.057,-0.61 0.049,-0.628 0.049,-0.651C0.049,-0.674 0.056,-0.693 0.071,-0.708C0.086,-0.723 0.105,-0.73 0.128,-0.73C0.151,-0.73 0.17,-0.723 0.185,-0.708C0.2,-0.693 0.207,-0.674 0.207,-0.651C0.207,-0.628 0.2,-0.61 0.185,-0.595C0.169,-0.58 0.151,-0.572 0.128,-0.572ZM0.068,-0C0.065,-0 0.062,-0.001 0.06,-0.004C0.057,-0.006 0.056,-0.009 0.056,-0.012L0.056,-0.503C0.056,-0.506 0.057,-0.509 0.06,-0.512C0.062,-0.514 0.065,-0.515 0.068,-0.515L0.185,-0.515C0.188,-0.515 0.191,-0.514 0.194,-0.512C0.196,-0.509 0.197,-0.506 0.197,-0.503L0.197,-0.012C0.197,-0.009 0.196,-0.006 0.194,-0.004C0.191,-0.001 0.188,-0 0.185,-0L0.068,-0Z" style="fill:rgb(11,101,85);fill-rule:nonzero;"/>
                </g>
            </g>
        </g>
        <g transform="matrix(0.670833,0,0,0.473148,0,0)">
            <g transform="matrix(0.569493,0,0,0.807431,1224.24,166.756)">
                <rect x="502" y="396" width="84" height="84" style="fill:rgb(26,230,192);stroke:black;stroke-width:2.62px;"/>
                <g transform="matrix(60,0,0,60,527.59,459)">
                    <path d="M0.32,-0.522C0.373,-0.522 0.416,-0.506 0.449,-0.473C0.482,-0.44 0.498,-0.396 0.498,-0.34L0.498,-0.012C0.498,-0.009 0.497,-0.006 0.495,-0.004C0.492,-0.001 0.489,-0 0.486,-0L0.369,-0C0.366,-0 0.363,-0.001 0.361,-0.004C0.358,-0.006 0.357,-0.009 0.357,-0.012L0.357,-0.311C0.357,-0.338 0.349,-0.359 0.335,-0.376C0.32,-0.393 0.3,-0.401 0.275,-0.401C0.25,-0.401 0.231,-0.393 0.216,-0.376C0.201,-0.359 0.193,-0.338 0.193,-0.311L0.193,-0.012C0.193,-0.009 0.192,-0.006 0.19,-0.004C0.187,-0.001 0.184,-0 0.181,-0L0.064,-0C0.061,-0 0.058,-0.001 0.056,-0.004C0.053,-0.006 0.052,-0.009 0.052,-0.012L0.052,-0.502C0.052,-0.505 0.053,-0.508 0.056,-0.511C0.058,-0.513 0.061,-0.514 0.064,-0.514L0.181,-0.514C0.184,-0.514 0.187,-0.513 0.19,-0.511C0.192,-0.508 0.193,-0.505 0.193,-0.502L0.193,-0.467C0.193,-0.465 0.194,-0.464 0.195,-0.463C0.196,-0.462 0.197,-0.463 0.198,-0.464C0.225,-0.503 0.266,-0.522 0.32,-0.522Z" style="fill:rgb(11,101,85);fill-rule:nonzero;"/>
                </g>
            </g>
        </g>
        <g transform="matrix(0.670833,0,0,0.473148,0,0)">
            <g transform="matrix(0.569493,0,0,0.807431,1272.08,166.756)">
                <rect x="502" y="396" width="84" height="84" style="fill:rgb(26,230,192);stroke:black;stroke-width:2.62px;"/>
                <g transform="matrix(60,0,0,60,527.29,459)">
                    <path d="M0.279,0.008C0.223,0.008 0.175,-0.007 0.135,-0.036C0.095,-0.065 0.068,-0.105 0.053,-0.156C0.044,-0.187 0.039,-0.221 0.039,-0.258C0.039,-0.297 0.044,-0.333 0.053,-0.364C0.068,-0.413 0.096,-0.452 0.136,-0.48C0.176,-0.508 0.224,-0.522 0.28,-0.522C0.335,-0.522 0.381,-0.508 0.42,-0.481C0.459,-0.453 0.486,-0.414 0.502,-0.365C0.513,-0.332 0.518,-0.297 0.518,-0.26C0.518,-0.224 0.513,-0.19 0.504,-0.159C0.489,-0.107 0.462,-0.066 0.423,-0.037C0.383,-0.007 0.335,0.008 0.279,0.008ZM0.279,-0.113C0.301,-0.113 0.32,-0.12 0.335,-0.133C0.35,-0.146 0.361,-0.165 0.368,-0.188C0.373,-0.209 0.376,-0.233 0.376,-0.258C0.376,-0.286 0.373,-0.31 0.368,-0.329C0.361,-0.352 0.349,-0.369 0.334,-0.382C0.319,-0.395 0.3,-0.401 0.278,-0.401C0.255,-0.401 0.237,-0.395 0.222,-0.382C0.207,-0.369 0.196,-0.352 0.189,-0.329C0.184,-0.313 0.181,-0.289 0.181,-0.258C0.181,-0.228 0.183,-0.205 0.188,-0.188C0.195,-0.165 0.206,-0.146 0.222,-0.133C0.237,-0.12 0.256,-0.113 0.279,-0.113Z" style="fill:rgb(11,101,85);fill-rule:nonzero;"/>
                </g>
            </g>
        </g>
        <g transform="matrix(0.670833,0,0,0.473148,0,0)">
            <g transform="matrix(0.569493,0,0,0.807431,8.47886,36.7596)">
                <g transform="matrix(41,0,0,41,567.621,689)">
                    <path d="M0.273,0.013C0.228,0.013 0.187,-0.004 0.15,-0.036C0.113,-0.069 0.084,-0.114 0.063,-0.172C0.042,-0.229 0.032,-0.293 0.032,-0.364C0.032,-0.434 0.042,-0.498 0.063,-0.555C0.084,-0.613 0.113,-0.658 0.15,-0.691C0.187,-0.724 0.228,-0.74 0.273,-0.74C0.318,-0.74 0.358,-0.724 0.395,-0.691C0.432,-0.658 0.462,-0.613 0.483,-0.555C0.504,-0.498 0.515,-0.434 0.515,-0.364C0.515,-0.293 0.504,-0.229 0.483,-0.172C0.462,-0.114 0.432,-0.069 0.395,-0.036C0.358,-0.004 0.318,0.013 0.273,0.013ZM0.273,-0.084C0.296,-0.084 0.318,-0.096 0.339,-0.121C0.36,-0.146 0.377,-0.18 0.39,-0.223C0.403,-0.266 0.409,-0.313 0.409,-0.364C0.409,-0.415 0.403,-0.462 0.39,-0.505C0.377,-0.548 0.36,-0.582 0.339,-0.606C0.318,-0.631 0.296,-0.644 0.273,-0.644C0.25,-0.644 0.228,-0.631 0.206,-0.606C0.185,-0.582 0.168,-0.548 0.155,-0.505C0.143,-0.462 0.136,-0.415 0.136,-0.364C0.136,-0.313 0.143,-0.266 0.155,-0.223C0.168,-0.18 0.185,-0.146 0.206,-0.121C0.228,-0.096 0.25,-0.084 0.273,-0.084ZM0.273,-0.294C0.251,-0.294 0.233,-0.3 0.219,-0.313C0.205,-0.326 0.198,-0.343 0.198,-0.364C0.198,-0.384 0.205,-0.4 0.219,-0.413C0.233,-0.425 0.251,-0.432 0.273,-0.432C0.295,-0.432 0.313,-0.425 0.327,-0.413C0.341,-0.4 0.348,-0.384 0.348,-0.364C0.348,-0.343 0.341,-0.326 0.327,-0.313C0.313,-0.3 0.295,-0.294 0.273,-0.294Z" style="fill:rgb(30,33,41);fill-rule:nonzero;"/>
                </g>
            </g>
        </g>
        <g transform="matrix(0.670833,0,0,0.473148,0,0)">
            <g transform="matrix(0.569493,0,0,0.807431,56.3162,36.7596)">
                <g transform="matrix(41,0,0,41,567.621,689)">
                    <path d="M0.325,-0.096L0.455,-0.096L0.455,-0L0.092,-0L0.092,-0.096L0.221,-0.096L0.221,-0.525C0.18,-0.501 0.131,-0.489 0.074,-0.489L0.074,-0.586C0.123,-0.586 0.159,-0.598 0.183,-0.62C0.207,-0.643 0.219,-0.679 0.219,-0.727L0.325,-0.727L0.325,-0.096Z" style="fill:rgb(30,33,41);fill-rule:nonzero;"/>
                </g>
            </g>
        </g>
        <g transform="matrix(0.670833,0,0,0.473148,0,0)">
            <g transform="matrix(0.569493,0,0,0.807431,104.154,36.7596)">
                <g transform="matrix(41,0,0,41,567.621,689)">
                    <path d="M0.035,-0.069C0.035,-0.102 0.043,-0.132 0.061,-0.16C0.079,-0.189 0.101,-0.214 0.127,-0.236C0.153,-0.259 0.187,-0.285 0.229,-0.315C0.27,-0.346 0.302,-0.371 0.325,-0.39C0.348,-0.41 0.367,-0.432 0.383,-0.456C0.399,-0.481 0.407,-0.507 0.407,-0.535C0.407,-0.565 0.403,-0.588 0.396,-0.603C0.388,-0.618 0.375,-0.628 0.356,-0.635C0.338,-0.641 0.309,-0.644 0.272,-0.644C0.235,-0.644 0.208,-0.641 0.189,-0.635C0.17,-0.628 0.157,-0.618 0.15,-0.603C0.142,-0.588 0.138,-0.565 0.138,-0.535C0.138,-0.523 0.138,-0.514 0.139,-0.507L0.035,-0.507C0.032,-0.566 0.038,-0.612 0.052,-0.645C0.067,-0.679 0.091,-0.703 0.126,-0.718C0.161,-0.733 0.209,-0.74 0.272,-0.74C0.331,-0.74 0.378,-0.733 0.413,-0.72C0.448,-0.707 0.473,-0.685 0.489,-0.655C0.504,-0.626 0.512,-0.585 0.512,-0.535C0.512,-0.491 0.501,-0.451 0.479,-0.415C0.457,-0.378 0.43,-0.347 0.4,-0.32C0.369,-0.293 0.329,-0.262 0.281,-0.227C0.24,-0.199 0.209,-0.175 0.187,-0.155C0.165,-0.135 0.15,-0.116 0.142,-0.096L0.51,-0.096L0.51,-0L0.035,-0L0.035,-0.069Z" style="fill:rgb(30,33,41);fill-rule:nonzero;"/>
                </g>
            </g>
        </g>
        <g transform="matrix(0.670833,0,0,0.473148,0,0)">
            <g transform="matrix(0.569493,0,0,0.807431,151.991,36.7596)">
                <g transform="matrix(41,0,0,41,567.621,689)">
                    <path d="M0.273,0.013C0.213,0.013 0.167,0.005 0.134,-0.009C0.101,-0.024 0.078,-0.047 0.064,-0.078C0.05,-0.11 0.044,-0.153 0.044,-0.207L0.149,-0.207C0.149,-0.172 0.152,-0.146 0.157,-0.13C0.163,-0.113 0.174,-0.101 0.191,-0.094C0.209,-0.087 0.236,-0.084 0.273,-0.084C0.307,-0.084 0.332,-0.087 0.35,-0.094C0.368,-0.101 0.38,-0.113 0.387,-0.13C0.394,-0.147 0.397,-0.172 0.397,-0.204C0.397,-0.241 0.394,-0.269 0.388,-0.286C0.382,-0.304 0.372,-0.316 0.357,-0.323C0.343,-0.329 0.32,-0.334 0.29,-0.336L0.198,-0.336L0.198,-0.433L0.29,-0.433C0.322,-0.435 0.345,-0.439 0.359,-0.443C0.373,-0.448 0.383,-0.457 0.389,-0.47C0.394,-0.484 0.397,-0.506 0.397,-0.536C0.397,-0.565 0.394,-0.587 0.387,-0.602C0.38,-0.617 0.368,-0.628 0.35,-0.634C0.332,-0.64 0.307,-0.644 0.273,-0.644C0.235,-0.644 0.207,-0.64 0.19,-0.634C0.174,-0.627 0.163,-0.616 0.158,-0.6C0.153,-0.583 0.15,-0.557 0.15,-0.521L0.044,-0.521C0.044,-0.577 0.05,-0.62 0.064,-0.651C0.078,-0.683 0.101,-0.705 0.134,-0.719C0.166,-0.733 0.213,-0.74 0.273,-0.74C0.329,-0.74 0.374,-0.733 0.407,-0.72C0.44,-0.706 0.464,-0.684 0.479,-0.655C0.494,-0.626 0.502,-0.586 0.502,-0.536C0.502,-0.496 0.497,-0.465 0.488,-0.444C0.478,-0.422 0.462,-0.403 0.438,-0.385C0.462,-0.365 0.478,-0.342 0.488,-0.316C0.497,-0.29 0.502,-0.253 0.502,-0.204C0.502,-0.151 0.494,-0.109 0.48,-0.078C0.465,-0.047 0.441,-0.024 0.408,-0.009C0.375,0.005 0.33,0.013 0.273,0.013Z" style="fill:rgb(30,33,41);fill-rule:nonzero;"/>
                </g>
            </g>
        </g>
        <g transform="matrix(0.670833,0,0,0.473148,0,0)">
            <g transform="matrix(0.569493,0,0,0.807431,199.828,36.7596)">
                <g transform="matrix(41,0,0,41,567.621,689)">
                    <path d="M0.447,-0L0.343,-0L0.343,-0.184L0.029,-0.184L0.029,-0.259L0.36,-0.727L0.447,-0.727L0.447,-0.28L0.515,-0.28L0.515,-0.184L0.447,-0.184L0.447,-0ZM0.343,-0.517L0.165,-0.28L0.343,-0.28L0.343,-0.517Z" style="fill:rgb(30,33,41);fill-rule:nonzero;"/>
                </g>
            </g>
        </g>
        <g transform="matrix(0.670833,0,0,0.473148,0,0)">
            <g transform="matrix(0.569493,0,0,0.807431,247.666,36.7596)">
                <g transform="matrix(41,0,0,41,567.621,689)">
                    <path d="M0.273,0.013C0.212,0.013 0.164,0.006 0.13,-0.008C0.097,-0.022 0.073,-0.045 0.059,-0.076C0.045,-0.107 0.038,-0.151 0.038,-0.207L0.144,-0.207C0.144,-0.171 0.146,-0.145 0.152,-0.128C0.157,-0.112 0.169,-0.1 0.187,-0.094C0.205,-0.087 0.233,-0.084 0.273,-0.084C0.312,-0.084 0.341,-0.088 0.36,-0.097C0.38,-0.106 0.394,-0.121 0.402,-0.142C0.41,-0.164 0.414,-0.195 0.414,-0.236C0.414,-0.28 0.41,-0.313 0.402,-0.334C0.394,-0.356 0.38,-0.37 0.361,-0.378C0.342,-0.386 0.312,-0.39 0.273,-0.39C0.251,-0.39 0.231,-0.386 0.213,-0.379C0.195,-0.371 0.172,-0.356 0.142,-0.334L0.056,-0.334L0.056,-0.727L0.496,-0.727L0.496,-0.632L0.161,-0.632L0.161,-0.465C0.189,-0.479 0.227,-0.486 0.273,-0.486C0.335,-0.486 0.383,-0.479 0.418,-0.463C0.453,-0.448 0.479,-0.422 0.495,-0.386C0.511,-0.35 0.519,-0.3 0.519,-0.236C0.519,-0.175 0.511,-0.127 0.495,-0.09C0.479,-0.054 0.453,-0.028 0.418,-0.012C0.382,0.005 0.334,0.013 0.273,0.013Z" style="fill:rgb(30,33,41);fill-rule:nonzero;"/>
                </g>
            </g>
        </g>
        <g transform="matrix(0.670833,0,0,0.473148,0,0)">
            <g transform="matrix(0.569493,0,0,0.807431,295.503,36.7596)">
                <g transform="matrix(41,0,0,41,567.621,689)">
                    <path d="M0.273,0.013C0.215,0.013 0.168,0.005 0.135,-0.011C0.101,-0.027 0.076,-0.053 0.061,-0.088C0.046,-0.123 0.038,-0.17 0.038,-0.229L0.038,-0.479C0.038,-0.543 0.046,-0.594 0.061,-0.632C0.076,-0.67 0.101,-0.698 0.135,-0.715C0.168,-0.732 0.215,-0.74 0.273,-0.74C0.328,-0.74 0.372,-0.734 0.406,-0.723C0.44,-0.711 0.465,-0.692 0.482,-0.666C0.498,-0.64 0.506,-0.605 0.506,-0.562L0.401,-0.562C0.401,-0.584 0.397,-0.6 0.389,-0.612C0.38,-0.624 0.367,-0.632 0.349,-0.637C0.331,-0.641 0.305,-0.644 0.273,-0.644C0.238,-0.644 0.211,-0.639 0.193,-0.63C0.175,-0.62 0.162,-0.604 0.154,-0.58C0.147,-0.557 0.143,-0.523 0.143,-0.479L0.143,-0.452C0.176,-0.467 0.219,-0.475 0.273,-0.475C0.333,-0.475 0.38,-0.467 0.413,-0.453C0.447,-0.438 0.471,-0.413 0.486,-0.378C0.501,-0.343 0.508,-0.294 0.508,-0.23C0.508,-0.171 0.501,-0.123 0.485,-0.088C0.47,-0.053 0.446,-0.027 0.412,-0.011C0.378,0.005 0.332,0.013 0.273,0.013ZM0.273,-0.084C0.308,-0.084 0.335,-0.088 0.353,-0.096C0.372,-0.105 0.385,-0.119 0.392,-0.14C0.4,-0.161 0.404,-0.191 0.404,-0.23C0.404,-0.274 0.4,-0.306 0.392,-0.326C0.385,-0.347 0.372,-0.361 0.354,-0.368C0.336,-0.375 0.309,-0.378 0.273,-0.378C0.236,-0.378 0.209,-0.375 0.191,-0.368C0.173,-0.361 0.161,-0.347 0.154,-0.326C0.146,-0.305 0.143,-0.273 0.143,-0.229C0.143,-0.19 0.147,-0.161 0.154,-0.14C0.162,-0.119 0.175,-0.105 0.193,-0.096C0.211,-0.088 0.238,-0.084 0.273,-0.084Z" style="fill:rgb(30,33,41);fill-rule:nonzero;"/>
                </g>
            </g>
        </g>
        <g transform="matrix(0.670833,0,0,0.473148,0,0)">
            <g transform="matrix(0.569493,0,0,0.807431,343.341,36.7596)">
                <g transform="matrix(41,0,0,41,567.621,689)">
                    <path d="M0.11,-0C0.126,-0.07 0.147,-0.138 0.173,-0.202C0.198,-0.267 0.226,-0.328 0.255,-0.385C0.285,-0.443 0.326,-0.518 0.377,-0.61L0.389,-0.631L0.035,-0.631L0.035,-0.727L0.506,-0.727L0.506,-0.631C0.502,-0.622 0.496,-0.613 0.49,-0.604C0.485,-0.594 0.479,-0.584 0.474,-0.573C0.425,-0.489 0.387,-0.42 0.358,-0.366C0.33,-0.312 0.303,-0.255 0.279,-0.194C0.254,-0.133 0.234,-0.068 0.217,-0L0.11,-0Z" style="fill:rgb(30,33,41);fill-rule:nonzero;"/>
                </g>
            </g>
        </g>
        <g transform="matrix(0.670833,0,0,0.473148,0,0)">
            <g transform="matrix(0.569493,0,0,0.807431,391.178,36.7596)">
                <g transform="matrix(41,0,0,41,567.621,689)">
                    <path d="M0.273,0.013C0.213,0.013 0.165,0.005 0.13,-0.01C0.096,-0.024 0.07,-0.048 0.055,-0.08C0.039,-0.112 0.031,-0.155 0.031,-0.209C0.031,-0.258 0.036,-0.296 0.047,-0.321C0.058,-0.347 0.078,-0.37 0.105,-0.389C0.085,-0.406 0.072,-0.425 0.064,-0.447C0.056,-0.468 0.052,-0.499 0.052,-0.539C0.052,-0.588 0.059,-0.626 0.074,-0.655C0.088,-0.685 0.111,-0.706 0.143,-0.72C0.175,-0.733 0.218,-0.74 0.273,-0.74C0.327,-0.74 0.371,-0.733 0.403,-0.72C0.435,-0.706 0.458,-0.685 0.473,-0.655C0.487,-0.626 0.495,-0.588 0.495,-0.539C0.495,-0.499 0.491,-0.468 0.483,-0.447C0.475,-0.425 0.461,-0.406 0.44,-0.389C0.468,-0.37 0.487,-0.347 0.499,-0.321C0.51,-0.296 0.515,-0.258 0.515,-0.209C0.515,-0.155 0.508,-0.112 0.492,-0.08C0.476,-0.048 0.451,-0.024 0.415,-0.01C0.38,0.005 0.333,0.013 0.273,0.013ZM0.273,-0.433C0.307,-0.433 0.332,-0.435 0.347,-0.44C0.363,-0.444 0.374,-0.454 0.38,-0.469C0.387,-0.483 0.39,-0.507 0.39,-0.539C0.39,-0.567 0.387,-0.588 0.38,-0.603C0.373,-0.618 0.362,-0.628 0.345,-0.635C0.329,-0.641 0.305,-0.644 0.273,-0.644C0.241,-0.644 0.216,-0.641 0.2,-0.635C0.184,-0.628 0.172,-0.618 0.166,-0.603C0.16,-0.588 0.156,-0.567 0.156,-0.539C0.156,-0.507 0.16,-0.483 0.166,-0.469C0.172,-0.454 0.183,-0.444 0.199,-0.44C0.214,-0.435 0.239,-0.433 0.273,-0.433ZM0.273,-0.084C0.31,-0.084 0.339,-0.087 0.358,-0.095C0.378,-0.102 0.391,-0.114 0.399,-0.132C0.407,-0.15 0.411,-0.176 0.411,-0.209C0.411,-0.247 0.407,-0.275 0.4,-0.293C0.392,-0.31 0.379,-0.322 0.36,-0.328C0.341,-0.333 0.312,-0.336 0.273,-0.336C0.233,-0.336 0.204,-0.333 0.186,-0.328C0.167,-0.322 0.154,-0.31 0.147,-0.293C0.139,-0.275 0.135,-0.247 0.135,-0.209C0.135,-0.176 0.139,-0.15 0.147,-0.132C0.154,-0.114 0.168,-0.102 0.187,-0.095C0.207,-0.087 0.235,-0.084 0.273,-0.084Z" style="fill:rgb(30,33,41);fill-rule:nonzero;"/>
                </g>
            </g>
        </g>
        <g transform="matrix(0.670833,0,0,0.473148,0,0)">
            <g transform="matrix(0.569493,0,0,0.807431,439.015,36.7596)">
                <g transform="matrix(41,0,0,41,567.621,689)">
                    <path d="M0.273,0.013C0.19,0.013 0.131,-0.001 0.094,-0.028C0.057,-0.055 0.039,-0.101 0.039,-0.165L0.145,-0.165C0.145,-0.144 0.149,-0.127 0.157,-0.115C0.165,-0.103 0.178,-0.095 0.196,-0.09C0.215,-0.086 0.24,-0.084 0.273,-0.084C0.308,-0.084 0.335,-0.088 0.353,-0.098C0.372,-0.107 0.385,-0.123 0.392,-0.147C0.4,-0.17 0.404,-0.204 0.404,-0.248L0.404,-0.275C0.37,-0.26 0.326,-0.253 0.273,-0.253C0.213,-0.253 0.167,-0.26 0.133,-0.275C0.1,-0.289 0.075,-0.314 0.06,-0.349C0.046,-0.384 0.038,-0.434 0.038,-0.497C0.038,-0.557 0.046,-0.604 0.061,-0.639C0.076,-0.674 0.101,-0.7 0.135,-0.716C0.168,-0.732 0.215,-0.74 0.273,-0.74C0.332,-0.74 0.378,-0.732 0.412,-0.716C0.446,-0.7 0.47,-0.674 0.485,-0.64C0.501,-0.605 0.508,-0.558 0.508,-0.498L0.508,-0.248C0.508,-0.184 0.501,-0.133 0.485,-0.095C0.47,-0.057 0.446,-0.03 0.412,-0.013C0.378,0.004 0.332,0.013 0.273,0.013ZM0.273,-0.349C0.309,-0.349 0.336,-0.353 0.354,-0.36C0.372,-0.367 0.385,-0.38 0.392,-0.401C0.4,-0.422 0.404,-0.455 0.404,-0.498C0.404,-0.537 0.4,-0.567 0.392,-0.587C0.385,-0.608 0.372,-0.622 0.353,-0.631C0.335,-0.639 0.308,-0.644 0.273,-0.644C0.238,-0.644 0.211,-0.639 0.193,-0.631C0.175,-0.622 0.162,-0.608 0.154,-0.587C0.147,-0.567 0.143,-0.537 0.143,-0.497C0.143,-0.454 0.146,-0.422 0.154,-0.401C0.161,-0.38 0.173,-0.367 0.191,-0.36C0.209,-0.353 0.236,-0.349 0.273,-0.349Z" style="fill:rgb(30,33,41);fill-rule:nonzero;"/>
                </g>
            </g>
        </g>
        <g transform="matrix(0.670833,0,0,0.473148,0,0)">
            <g transform="matrix(0.569493,0,0,0.807431,486.853,36.7596)">
                <g transform="matrix(41,0,0,41,556.439,689)">
                    <path d="M0.325,-0.096L0.455,-0.096L0.455,-0L0.092,-0L0.092,-0.096L0.221,-0.096L0.221,-0.525C0.18,-0.501 0.131,-0.489 0.074,-0.489L0.074,-0.586C0.123,-0.586 0.159,-0.598 0.183,-0.62C0.207,-0.643 0.219,-0.679 0.219,-0.727L0.325,-0.727L0.325,-0.096Z" style="fill:rgb(30,33,41);fill-rule:nonzero;"/>
                </g>
                <g transform="matrix(41,0,0,41,578.803,689)">
                    <path d="M0.273,0.013C0.228,0.013 0.187,-0.004 0.15,-0.036C0.113,-0.069 0.084,-0.114 0.063,-0.172C0.042,-0.229 0.032,-0.293 0.032,-0.364C0.032,-0.434 0.042,-0.498 0.063,-0.555C0.084,-0.613 0.113,-0.658 0.15,-0.691C0.187,-0.724 0.228,-0.74 0.273,-0.74C0.318,-0.74 0.358,-0.724 0.395,-0.691C0.432,-0.658 0.462,-0.613 0.483,-0.555C0.504,-0.498 0.515,-0.434 0.515,-0.364C0.515,-0.293 0.504,-0.229 0.483,-0.172C0.462,-0.114 0.432,-0.069 0.395,-0.036C0.358,-0.004 0.318,0.013 0.273,0.013ZM0.273,-0.084C0.296,-0.084 0.318,-0.096 0.339,-0.121C0.36,-0.146 0.377,-0.18 0.39,-0.223C0.403,-0.266 0.409,-0.313 0.409,-0.364C0.409,-0.415 0.403,-0.462 0.39,-0.505C0.377,-0.548 0.36,-0.582 0.339,-0.606C0.318,-0.631 0.296,-0.644 0.273,-0.644C0.25,-0.644 0.228,-0.631 0.206,-0.606C0.185,-0.582 0.168,-0.548 0.155,-0.505C0.143,-0.462 0.136,-0.415 0.136,-0.364C0.136,-0.313 0.143,-0.266 0.155,-0.223C0.168,-0.18 0.185,-0.146 0.206,-0.121C0.228,-0.096 0.25,-0.084 0.273,-0.084ZM0.273,-0.294C0.251,-0.294 0.233,-0.3 0.219,-0.313C0.205,-0.326 0.198,-0.343 0.198,-0.364C0.198,-0.384 0.205,-0.4 0.219,-0.413C0.233,-0.425 0.251,-0.432 0.273,-0.432C0.295,-0.432 0.313,-0.425 0.327,-0.413C0.341,-0.4 0.348,-0.384 0.348,-0.364C0.348,-0.343 0.341,-0.326 0.327,-0.313C0.313,-0.3 0.295,-0.294 0.273,-0.294Z" style="fill:rgb(30,33,41);fill-rule:nonzero;"/>
                </g>
            </g>
        </g>
        <g transform="matrix(0.670833,0,0,0.473148,0,0)">
            <g transform="matrix(0.569493,0,0,0.807431,534.202,36.3383)">
                <g transform="matrix(41,0,0,41,556.439,689)">
                    <path d="M0.325,-0.096L0.455,-0.096L0.455,-0L0.092,-0L0.092,-0.096L0.221,-0.096L0.221,-0.525C0.18,-0.501 0.131,-0.489 0.074,-0.489L0.074,-0.586C0.123,-0.586 0.159,-0.598 0.183,-0.62C0.207,-0.643 0.219,-0.679 0.219,-0.727L0.325,-0.727L0.325,-0.096Z" style="fill:rgb(30,33,41);fill-rule:nonzero;"/>
                </g>
                <g transform="matrix(41,0,0,41,578.803,689)">
                    <path d="M0.325,-0.096L0.455,-0.096L0.455,-0L0.092,-0L0.092,-0.096L0.221,-0.096L0.221,-0.525C0.18,-0.501 0.131,-0.489 0.074,-0.489L0.074,-0.586C0.123,-0.586 0.159,-0.598 0.183,-0.62C0.207,-0.643 0.219,-0.679 0.219,-0.727L0.325,-0.727L0.325,-0.096Z" style="fill:rgb(30,33,41);fill-rule:nonzero;"/>
                </g>
            </g>
        </g>
        <g transform="matrix(0.670833,0,0,0.473148,0,0)">
            <g transform="matrix(0.569493,0,0,0.807431,582.04,36.3383)">
                <g transform="matrix(41,0,0,41,556.439,689)">
                    <path d="M0.325,-0.096L0.455,-0.096L0.455,-0L0.092,-0L0.092,-0.096L0.221,-0.096L0.221,-0.525C0.18,-0.501 0.131,-0.489 0.074,-0.489L0.074,-0.586C0.123,-0.586 0.159,-0.598 0.183,-0.62C0.207,-0.643 0.219,-0.679 0.219,-0.727L0.325,-0.727L0.325,-0.096Z" style="fill:rgb(30,33,41);fill-rule:nonzero;"/>
                </g>
                <g transform="matrix(41,0,0,41,578.803,689)">
                    <path d="M0.035,-0.069C0.035,-0.102 0.043,-0.132 0.061,-0.16C0.079,-0.189 0.101,-0.214 0.127,-0.236C0.153,-0.259 0.187,-0.285 0.229,-0.315C0.27,-0.346 0.302,-0.371 0.325,-0.39C0.348,-0.41 0.367,-0.432 0.383,-0.456C0.399,-0.481 0.407,-0.507 0.407,-0.535C0.407,-0.565 0.403,-0.588 0.396,-0.603C0.388,-0.618 0.375,-0.628 0.356,-0.635C0.338,-0.641 0.309,-0.644 0.272,-0.644C0.235,-0.644 0.208,-0.641 0.189,-0.635C0.17,-0.628 0.157,-0.618 0.15,-0.603C0.142,-0.588 0.138,-0.565 0.138,-0.535C0.138,-0.523 0.138,-0.514 0.139,-0.507L0.035,-0.507C0.032,-0.566 0.038,-0.612 0.052,-0.645C0.067,-0.679 0.091,-0.703 0.126,-0.718C0.161,-0.733 0.209,-0.74 0.272,-0.74C0.331,-0.74 0.378,-0.733 0.413,-0.72C0.448,-0.707 0.473,-0.685 0.489,-0.655C0.504,-0.626 0.512,-0.585 0.512,-0.535C0.512,-0.491 0.501,-0.451 0.479,-0.415C0.457,-0.378 0.43,-0.347 0.4,-0.32C0.369,-0.293 0.329,-0.262 0.281,-0.227C0.24,-0.199 0.209,-0.175 0.187,-0.155C0.165,-0.135 0.15,-0.116 0.142,-0.096L0.51,-0.096L0.51,-0L0.035,-0L0.035,-0.069Z" style="fill:rgb(30,33,41);fill-rule:nonzero;"/>
                </g>
            </g>
        </g>
        <g transform="matrix(0.670833,0,0,0.473148,0,0)">
            <g transform="matrix(0.569493,0,0,0.807431,629.877,36.3383)">
                <g transform="matrix(41,0,0,41,556.439,689)">
                    <path d="M0.325,-0.096L0.455,-0.096L0.455,-0L0.092,-0L0.092,-0.096L0.221,-0.096L0.221,-0.525C0.18,-0.501 0.131,-0.489 0.074,-0.489L0.074,-0.586C0.123,-0.586 0.159,-0.598 0.183,-0.62C0.207,-0.643 0.219,-0.679 0.219,-0.727L0.325,-0.727L0.325,-0.096Z" style="fill:rgb(30,33,41);fill-rule:nonzero;"/>
                </g>
                <g transform="matrix(41,0,0,41,578.803,689)">
                    <path d="M0.273,0.013C0.213,0.013 0.167,0.005 0.134,-0.009C0.101,-0.024 0.078,-0.047 0.064,-0.078C0.05,-0.11 0.044,-0.153 0.044,-0.207L0.149,-0.207C0.149,-0.172 0.152,-0.146 0.157,-0.13C0.163,-0.113 0.174,-0.101 0.191,-0.094C0.209,-0.087 0.236,-0.084 0.273,-0.084C0.307,-0.084 0.332,-0.087 0.35,-0.094C0.368,-0.101 0.38,-0.113 0.387,-0.13C0.394,-0.147 0.397,-0.172 0.397,-0.204C0.397,-0.241 0.394,-0.269 0.388,-0.286C0.382,-0.304 0.372,-0.316 0.357,-0.323C0.343,-0.329 0.32,-0.334 0.29,-0.336L0.198,-0.336L0.198,-0.433L0.29,-0.433C0.322,-0.435 0.345,-0.439 0.359,-0.443C0.373,-0.448 0.383,-0.457 0.389,-0.47C0.394,-0.484 0.397,-0.506 0.397,-0.536C0.397,-0.565 0.394,-0.587 0.387,-0.602C0.38,-0.617 0.368,-0.628 0.35,-0.634C0.332,-0.64 0.307,-0.644 0.273,-0.644C0.235,-0.644 0.207,-0.64 0.19,-0.634C0.174,-0.627 0.163,-0.616 0.158,-0.6C0.153,-0.583 0.15,-0.557 0.15,-0.521L0.044,-0.521C0.044,-0.577 0.05,-0.62 0.064,-0.651C0.078,-0.683 0.101,-0.705 0.134,-0.719C0.166,-0.733 0.213,-0.74 0.273,-0.74C0.329,-0.74 0.374,-0.733 0.407,-0.72C0.44,-0.706 0.464,-0.684 0.479,-0.655C0.494,-0.626 0.502,-0.586 0.502,-0.536C0.502,-0.496 0.497,-0.465 0.488,-0.444C0.478,-0.422 0.462,-0.403 0.438,-0.385C0.462,-0.365 0.478,-0.342 0.488,-0.316C0.497,-0.29 0.502,-0.253 0.502,-0.204C0.502,-0.151 0.494,-0.109 0.48,-0.078C0.465,-0.047 0.441,-0.024 0.408,-0.009C0.375,0.005 0.33,0.013 0.273,0.013Z" style="fill:rgb(30,33,41);fill-rule:nonzero;"/>
                </g>
            </g>
        </g>
        <g transform="matrix(0.670833,0,0,0.473148,0,0)">
            <g transform="matrix(0.569493,0,0,0.807431,677.715,36.3383)">
                <g transform="matrix(41,0,0,41,556.439,689)">
                    <path d="M0.325,-0.096L0.455,-0.096L0.455,-0L0.092,-0L0.092,-0.096L0.221,-0.096L0.221,-0.525C0.18,-0.501 0.131,-0.489 0.074,-0.489L0.074,-0.586C0.123,-0.586 0.159,-0.598 0.183,-0.62C0.207,-0.643 0.219,-0.679 0.219,-0.727L0.325,-0.727L0.325,-0.096Z" style="fill:rgb(30,33,41);fill-rule:nonzero;"/>
                </g>
                <g transform="matrix(41,0,0,41,578.803,689)">
                    <path d="M0.447,-0L0.343,-0L0.343,-0.184L0.029,-0.184L0.029,-0.259L0.36,-0.727L0.447,-0.727L0.447,-0.28L0.515,-0.28L0.515,-0.184L0.447,-0.184L0.447,-0ZM0.343,-0.517L0.165,-0.28L0.343,-0.28L0.343,-0.517Z" style="fill:rgb(30,33,41);fill-rule:nonzero;"/>
                </g>
            </g>
        </g>
        <g transform="matrix(0.670833,0,0,0.473148,0,0)">
            <g transform="matrix(0.569493,0,0,0.807431,725.552,36.3383)">
                <g transform="matrix(41,0,0,41,556.439,689)">
                    <path d="M0.325,-0.096L0.455,-0.096L0.455,-0L0.092,-0L0.092,-0.096L0.221,-0.096L0.221,-0.525C0.18,-0.501 0.131,-0.489 0.074,-0.489L0.074,-0.586C0.123,-0.586 0.159,-0.598 0.183,-0.62C0.207,-0.643 0.219,-0.679 0.219,-0.727L0.325,-0.727L0.325,-0.096Z" style="fill:rgb(30,33,41);fill-rule:nonzero;"/>
                </g>
                <g transform="matrix(41,0,0,41,578.803,689)">
                    <path d="M0.273,0.013C0.212,0.013 0.164,0.006 0.13,-0.008C0.097,-0.022 0.073,-0.045 0.059,-0.076C0.045,-0.107 0.038,-0.151 0.038,-0.207L0.144,-0.207C0.144,-0.171 0.146,-0.145 0.152,-0.128C0.157,-0.112 0.169,-0.1 0.187,-0.094C0.205,-0.087 0.233,-0.084 0.273,-0.084C0.312,-0.084 0.341,-0.088 0.36,-0.097C0.38,-0.106 0.394,-0.121 0.402,-0.142C0.41,-0.164 0.414,-0.195 0.414,-0.236C0.414,-0.28 0.41,-0.313 0.402,-0.334C0.394,-0.356 0.38,-0.37 0.361,-0.378C0.342,-0.386 0.312,-0.39 0.273,-0.39C0.251,-0.39 0.231,-0.386 0.213,-0.379C0.195,-0.371 0.172,-0.356 0.142,-0.334L0.056,-0.334L0.056,-0.727L0.496,-0.727L0.496,-0.632L0.161,-0.632L0.161,-0.465C0.189,-0.479 0.227,-0.486 0.273,-0.486C0.335,-0.486 0.383,-0.479 0.418,-0.463C0.453,-0.448 0.479,-0.422 0.495,-0.386C0.511,-0.35 0.519,-0.3 0.519,-0.236C0.519,-0.175 0.511,-0.127 0.495,-0.09C0.479,-0.054 0.453,-0.028 0.418,-0.012C0.382,0.005 0.334,0.013 0.273,0.013Z" style="fill:rgb(30,33,41);fill-rule:nonzero;"/>
                </g>
            </g>
        </g>
        <g transform="matrix(0.670833,0,0,0.473148,0,0)">
            <g transform="matrix(0.569493,0,0,0.807431,773.389,36.7596)">
                <g transform="matrix(41,0,0,41,556.439,689)">
                    <path d="M0.325,-0.096L0.455,-0.096L0.455,-0L0.092,-0L0.092,-0.096L0.221,-0.096L0.221,-0.525C0.18,-0.501 0.131,-0.489 0.074,-0.489L0.074,-0.586C0.123,-0.586 0.159,-0.598 0.183,-0.62C0.207,-0.643 0.219,-0.679 0.219,-0.727L0.325,-0.727L0.325,-0.096Z" style="fill:rgb(30,33,41);fill-rule:nonzero;"/>
                </g>
                <g transform="matrix(41,0,0,41,578.803,689)">
                    <path d="M0.273,0.013C0.215,0.013 0.168,0.005 0.135,-0.011C0.101,-0.027 0.076,-0.053 0.061,-0.088C0.046,-0.123 0.038,-0.17 0.038,-0.229L0.038,-0.479C0.038,-0.543 0.046,-0.594 0.061,-0.632C0.076,-0.67 0.101,-0.698 0.135,-0.715C0.168,-0.732 0.215,-0.74 0.273,-0.74C0.328,-0.74 0.372,-0.734 0.406,-0.723C0.44,-0.711 0.465,-0.692 0.482,-0.666C0.498,-0.64 0.506,-0.605 0.506,-0.562L0.401,-0.562C0.401,-0.584 0.397,-0.6 0.389,-0.612C0.38,-0.624 0.367,-0.632 0.349,-0.637C0.331,-0.641 0.305,-0.644 0.273,-0.644C0.238,-0.644 0.211,-0.639 0.193,-0.63C0.175,-0.62 0.162,-0.604 0.154,-0.58C0.147,-0.557 0.143,-0.523 0.143,-0.479L0.143,-0.452C0.176,-0.467 0.219,-0.475 0.273,-0.475C0.333,-0.475 0.38,-0.467 0.413,-0.453C0.447,-0.438 0.471,-0.413 0.486,-0.378C0.501,-0.343 0.508,-0.294 0.508,-0.23C0.508,-0.171 0.501,-0.123 0.485,-0.088C0.47,-0.053 0.446,-0.027 0.412,-0.011C0.378,0.005 0.332,0.013 0.273,0.013ZM0.273,-0.084C0.308,-0.084 0.335,-0.088 0.353,-0.096C0.372,-0.105 0.385,-0.119 0.392,-0.14C0.4,-0.161 0.404,-0.191 0.404,-0.23C0.404,-0.274 0.4,-0.306 0.392,-0.326C0.385,-0.347 0.372,-0.361 0.354,-0.368C0.336,-0.375 0.309,-0.378 0.273,-0.378C0.236,-0.378 0.209,-0.375 0.191,-0.368C0.173,-0.361 0.161,-0.347 0.154,-0.326C0.146,-0.305 0.143,-0.273 0.143,-0.229C0.143,-0.19 0.147,-0.161 0.154,-0.14C0.162,-0.119 0.175,-0.105 0.193,-0.096C0.211,-0.088 0.238,-0.084 0.273,-0.084Z" style="fill:rgb(30,33,41);fill-rule:nonzero;"/>
                </g>
            </g>
        </g>
        <g transform="matrix(0.670833,0,0,0.473148,0,0)">
            <g transform="matrix(0.569493,0,0,0.807431,821.227,36.3383)">
                <g transform="matrix(41,0,0,41,556.439,689)">
                    <path d="M0.325,-0.096L0.455,-0.096L0.455,-0L0.092,-0L0.092,-0.096L0.221,-0.096L0.221,-0.525C0.18,-0.501 0.131,-0.489 0.074,-0.489L0.074,-0.586C0.123,-0.586 0.159,-0.598 0.183,-0.62C0.207,-0.643 0.219,-0.679 0.219,-0.727L0.325,-0.727L0.325,-0.096Z" style="fill:rgb(30,33,41);fill-rule:nonzero;"/>
                </g>
                <g transform="matrix(41,0,0,41,578.803,689)">
                    <path d="M0.11,-0C0.126,-0.07 0.147,-0.138 0.173,-0.202C0.198,-0.267 0.226,-0.328 0.255,-0.385C0.285,-0.443 0.326,-0.518 0.377,-0.61L0.389,-0.631L0.035,-0.631L0.035,-0.727L0.506,-0.727L0.506,-0.631C0.502,-0.622 0.496,-0.613 0.49,-0.604C0.485,-0.594 0.479,-0.584 0.474,-0.573C0.425,-0.489 0.387,-0.42 0.358,-0.366C0.33,-0.312 0.303,-0.255 0.279,-0.194C0.254,-0.133 0.234,-0.068 0.217,-0L0.11,-0Z" style="fill:rgb(30,33,41);fill-rule:nonzero;"/>
                </g>
            </g>
        </g>
        <g transform="matrix(0.670833,0,0,0.473148,0,0)">
            <g transform="matrix(0.569493,0,0,0.807431,869.064,36.3383)">
                <g transform="matrix(41,0,0,41,556.439,689)">
                    <path d="M0.325,-0.096L0.455,-0.096L0.455,-0L0.092,-0L0.092,-0.096L0.221,-0.096L0.221,-0.525C0.18,-0.501 0.131,-0.489 0.074,-0.489L0.074,-0.586C0.123,-0.586 0.159,-0.598 0.183,-0.62C0.207,-0.643 0.219,-0.679 0.219,-0.727L0.325,-0.727L0.325,-0.096Z" style="fill:rgb(30,33,41);fill-rule:nonzero;"/>
                </g>
                <g transform="matrix(41,0,0,41,578.803,689)">
                    <path d="M0.273,0.013C0.213,0.013 0.165,0.005 0.13,-0.01C0.096,-0.024 0.07,-0.048 0.055,-0.08C0.039,-0.112 0.031,-0.155 0.031,-0.209C0.031,-0.258 0.036,-0.296 0.047,-0.321C0.058,-0.347 0.078,-0.37 0.105,-0.389C0.085,-0.406 0.072,-0.425 0.064,-0.447C0.056,-0.468 0.052,-0.499 0.052,-0.539C0.052,-0.588 0.059,-0.626 0.074,-0.655C0.088,-0.685 0.111,-0.706 0.143,-0.72C0.175,-0.733 0.218,-0.74 0.273,-0.74C0.327,-0.74 0.371,-0.733 0.403,-0.72C0.435,-0.706 0.458,-0.685 0.473,-0.655C0.487,-0.626 0.495,-0.588 0.495,-0.539C0.495,-0.499 0.491,-0.468 0.483,-0.447C0.475,-0.425 0.461,-0.406 0.44,-0.389C0.468,-0.37 0.487,-0.347 0.499,-0.321C0.51,-0.296 0.515,-0.258 0.515,-0.209C0.515,-0.155 0.508,-0.112 0.492,-0.08C0.476,-0.048 0.451,-0.024 0.415,-0.01C0.38,0.005 0.333,0.013 0.273,0.013ZM0.273,-0.433C0.307,-0.433 0.332,-0.435 0.347,-0.44C0.363,-0.444 0.374,-0.454 0.38,-0.469C0.387,-0.483 0.39,-0.507 0.39,-0.539C0.39,-0.567 0.387,-0.588 0.38,-0.603C0.373,-0.618 0.362,-0.628 0.345,-0.635C0.329,-0.641 0.305,-0.644 0.273,-0.644C0.241,-0.644 0.216,-0.641 0.2,-0.635C0.184,-0.628 0.172,-0.618 0.166,-0.603C0.16,-0.588 0.156,-0.567 0.156,-0.539C0.156,-0.507 0.16,-0.483 0.166,-0.469C0.172,-0.454 0.183,-0.444 0.199,-0.44C0.214,-0.435 0.239,-0.433 0.273,-0.433ZM0.273,-0.084C0.31,-0.084 0.339,-0.087 0.358,-0.095C0.378,-0.102 0.391,-0.114 0.399,-0.132C0.407,-0.15 0.411,-0.176 0.411,-0.209C0.411,-0.247 0.407,-0.275 0.4,-0.293C0.392,-0.31 0.379,-0.322 0.36,-0.328C0.341,-0.333 0.312,-0.336 0.273,-0.336C0.233,-0.336 0.204,-0.333 0.186,-0.328C0.167,-0.322 0.154,-0.31 0.147,-0.293C0.139,-0.275 0.135,-0.247 0.135,-0.209C0.135,-0.176 0.139,-0.15 0.147,-0.132C0.154,-0.114 0.168,-0.102 0.187,-0.095C0.207,-0.087 0.235,-0.084 0.273,-0.084Z" style="fill:rgb(30,33,41);fill-rule:nonzero;"/>
                </g>
            </g>
        </g>
        <g transform="matrix(0.670833,0,0,0.473148,0,0)">
            <g transform="matrix(0.569493,0,0,0.807431,916.901,36.3383)">
                <g transform="matrix(41,0,0,41,556.439,689)">
                    <path d="M0.325,-0.096L0.455,-0.096L0.455,-0L0.092,-0L0.092,-0.096L0.221,-0.096L0.221,-0.525C0.18,-0.501 0.131,-0.489 0.074,-0.489L0.074,-0.586C0.123,-0.586 0.159,-0.598 0.183,-0.62C0.207,-0.643 0.219,-0.679 0.219,-0.727L0.325,-0.727L0.325,-0.096Z" style="fill:rgb(30,33,41);fill-rule:nonzero;"/>
                </g>
                <g transform="matrix(41,0,0,41,578.803,689)">
                    <path d="M0.273,0.013C0.19,0.013 0.131,-0.001 0.094,-0.028C0.057,-0.055 0.039,-0.101 0.039,-0.165L0.145,-0.165C0.145,-0.144 0.149,-0.127 0.157,-0.115C0.165,-0.103 0.178,-0.095 0.196,-0.09C0.215,-0.086 0.24,-0.084 0.273,-0.084C0.308,-0.084 0.335,-0.088 0.353,-0.098C0.372,-0.107 0.385,-0.123 0.392,-0.147C0.4,-0.17 0.404,-0.204 0.404,-0.248L0.404,-0.275C0.37,-0.26 0.326,-0.253 0.273,-0.253C0.213,-0.253 0.167,-0.26 0.133,-0.275C0.1,-0.289 0.075,-0.314 0.06,-0.349C0.046,-0.384 0.038,-0.434 0.038,-0.497C0.038,-0.557 0.046,-0.604 0.061,-0.639C0.076,-0.674 0.101,-0.7 0.135,-0.716C0.168,-0.732 0.215,-0.74 0.273,-0.74C0.332,-0.74 0.378,-0.732 0.412,-0.716C0.446,-0.7 0.47,-0.674 0.485,-0.64C0.501,-0.605 0.508,-0.558 0.508,-0.498L0.508,-0.248C0.508,-0.184 0.501,-0.133 0.485,-0.095C0.47,-0.057 0.446,-0.03 0.412,-0.013C0.378,0.004 0.332,0.013 0.273,0.013ZM0.273,-0.349C0.309,-0.349 0.336,-0.353 0.354,-0.36C0.372,-0.367 0.385,-0.38 0.392,-0.401C0.4,-0.422 0.404,-0.455 0.404,-0.498C0.404,-0.537 0.4,-0.567 0.392,-0.587C0.385,-0.608 0.372,-0.622 0.353,-0.631C0.335,-0.639 0.308,-0.644 0.273,-0.644C0.238,-0.644 0.211,-0.639 0.193,-0.631C0.175,-0.622 0.162,-0.608 0.154,-0.587C0.147,-0.567 0.143,-0.537 0.143,-0.497C0.143,-0.454 0.146,-0.422 0.154,-0.401C0.161,-0.38 0.173,-0.367 0.191,-0.36C0.209,-0.353 0.236,-0.349 0.273,-0.349Z" style="fill:rgb(30,33,41);fill-rule:nonzero;"/>
                </g>
            </g>
        </g>
        <g transform="matrix(0.670833,0,0,0.473148,0,0)">
            <g transform="matrix(0.569493,0,0,0.807431,964.739,36.3383)">
                <g transform="matrix(41,0,0,41,556.439,689)">
                    <path d="M0.035,-0.069C0.035,-0.102 0.043,-0.132 0.061,-0.16C0.079,-0.189 0.101,-0.214 0.127,-0.236C0.153,-0.259 0.187,-0.285 0.229,-0.315C0.27,-0.346 0.302,-0.371 0.325,-0.39C0.348,-0.41 0.367,-0.432 0.383,-0.456C0.399,-0.481 0.407,-0.507 0.407,-0.535C0.407,-0.565 0.403,-0.588 0.396,-0.603C0.388,-0.618 0.375,-0.628 0.356,-0.635C0.338,-0.641 0.309,-0.644 0.272,-0.644C0.235,-0.644 0.208,-0.641 0.189,-0.635C0.17,-0.628 0.157,-0.618 0.15,-0.603C0.142,-0.588 0.138,-0.565 0.138,-0.535C0.138,-0.523 0.138,-0.514 0.139,-0.507L0.035,-0.507C0.032,-0.566 0.038,-0.612 0.052,-0.645C0.067,-0.679 0.091,-0.703 0.126,-0.718C0.161,-0.733 0.209,-0.74 0.272,-0.74C0.331,-0.74 0.378,-0.733 0.413,-0.72C0.448,-0.707 0.473,-0.685 0.489,-0.655C0.504,-0.626 0.512,-0.585 0.512,-0.535C0.512,-0.491 0.501,-0.451 0.479,-0.415C0.457,-0.378 0.43,-0.347 0.4,-0.32C0.369,-0.293 0.329,-0.262 0.281,-0.227C0.24,-0.199 0.209,-0.175 0.187,-0.155C0.165,-0.135 0.15,-0.116 0.142,-0.096L0.51,-0.096L0.51,-0L0.035,-0L0.035,-0.069Z" style="fill:rgb(30,33,41);fill-rule:nonzero;"/>
                </g>
                <g transform="matrix(41,0,0,41,578.803,689)">
                    <path d="M0.273,0.013C0.228,0.013 0.187,-0.004 0.15,-0.036C0.113,-0.069 0.084,-0.114 0.063,-0.172C0.042,-0.229 0.032,-0.293 0.032,-0.364C0.032,-0.434 0.042,-0.498 0.063,-0.555C0.084,-0.613 0.113,-0.658 0.15,-0.691C0.187,-0.724 0.228,-0.74 0.273,-0.74C0.318,-0.74 0.358,-0.724 0.395,-0.691C0.432,-0.658 0.462,-0.613 0.483,-0.555C0.504,-0.498 0.515,-0.434 0.515,-0.364C0.515,-0.293 0.504,-0.229 0.483,-0.172C0.462,-0.114 0.432,-0.069 0.395,-0.036C0.358,-0.004 0.318,0.013 0.273,0.013ZM0.273,-0.084C0.296,-0.084 0.318,-0.096 0.339,-0.121C0.36,-0.146 0.377,-0.18 0.39,-0.223C0.403,-0.266 0.409,-0.313 0.409,-0.364C0.409,-0.415 0.403,-0.462 0.39,-0.505C0.377,-0.548 0.36,-0.582 0.339,-0.606C0.318,-0.631 0.296,-0.644 0.273,-0.644C0.25,-0.644 0.228,-0.631 0.206,-0.606C0.185,-0.582 0.168,-0.548 0.155,-0.505C0.143,-0.462 0.136,-0.415 0.136,-0.364C0.136,-0.313 0.143,-0.266 0.155,-0.223C0.168,-0.18 0.185,-0.146 0.206,-0.121C0.228,-0.096 0.25,-0.084 0.273,-0.084ZM0.273,-0.294C0.251,-0.294 0.233,-0.3 0.219,-0.313C0.205,-0.326 0.198,-0.343 0.198,-0.364C0.198,-0.384 0.205,-0.4 0.219,-0.413C0.233,-0.425 0.251,-0.432 0.273,-0.432C0.295,-0.432 0.313,-0.425 0.327,-0.413C0.341,-0.4 0.348,-0.384 0.348,-0.364C0.348,-0.343 0.341,-0.326 0.327,-0.313C0.313,-0.3 0.295,-0.294 0.273,-0.294Z" style="fill:rgb(30,33,41);fill-rule:nonzero;"/>
                </g>
            </g>
        </g>
        <g transform="matrix(0.670833,0,0,0.473148,0,0)">
            <g transform="matrix(0.569493,0,0,0.807431,1012.58,36.3383)">
                <g transform="matrix(41,0,0,41,556.439,689)">
                    <path d="M0.035,-0.069C0.035,-0.102 0.043,-0.132 0.061,-0.16C0.079,-0.189 0.101,-0.214 0.127,-0.236C0.153,-0.259 0.187,-0.285 0.229,-0.315C0.27,-0.346 0.302,-0.371 0.325,-0.39C0.348,-0.41 0.367,-0.432 0.383,-0.456C0.399,-0.481 0.407,-0.507 0.407,-0.535C0.407,-0.565 0.403,-0.588 0.396,-0.603C0.388,-0.618 0.375,-0.628 0.356,-0.635C0.338,-0.641 0.309,-0.644 0.272,-0.644C0.235,-0.644 0.208,-0.641 0.189,-0.635C0.17,-0.628 0.157,-0.618 0.15,-0.603C0.142,-0.588 0.138,-0.565 0.138,-0.535C0.138,-0.523 0.138,-0.514 0.139,-0.507L0.035,-0.507C0.032,-0.566 0.038,-0.612 0.052,-0.645C0.067,-0.679 0.091,-0.703 0.126,-0.718C0.161,-0.733 0.209,-0.74 0.272,-0.74C0.331,-0.74 0.378,-0.733 0.413,-0.72C0.448,-0.707 0.473,-0.685 0.489,-0.655C0.504,-0.626 0.512,-0.585 0.512,-0.535C0.512,-0.491 0.501,-0.451 0.479,-0.415C0.457,-0.378 0.43,-0.347 0.4,-0.32C0.369,-0.293 0.329,-0.262 0.281,-0.227C0.24,-0.199 0.209,-0.175 0.187,-0.155C0.165,-0.135 0.15,-0.116 0.142,-0.096L0.51,-0.096L0.51,-0L0.035,-0L0.035,-0.069Z" style="fill:rgb(30,33,41);fill-rule:nonzero;"/>
                </g>
                <g transform="matrix(41,0,0,41,578.803,689)">
                    <path d="M0.325,-0.096L0.455,-0.096L0.455,-0L0.092,-0L0.092,-0.096L0.221,-0.096L0.221,-0.525C0.18,-0.501 0.131,-0.489 0.074,-0.489L0.074,-0.586C0.123,-0.586 0.159,-0.598 0.183,-0.62C0.207,-0.643 0.219,-0.679 0.219,-0.727L0.325,-0.727L0.325,-0.096Z" style="fill:rgb(30,33,41);fill-rule:nonzero;"/>
                </g>
            </g>
        </g>
        <g transform="matrix(0.670833,0,0,0.473148,0,0)">
            <g transform="matrix(0.569493,0,0,0.807431,1060.41,36.3383)">
                <g transform="matrix(41,0,0,41,556.439,689)">
                    <path d="M0.035,-0.069C0.035,-0.102 0.043,-0.132 0.061,-0.16C0.079,-0.189 0.101,-0.214 0.127,-0.236C0.153,-0.259 0.187,-0.285 0.229,-0.315C0.27,-0.346 0.302,-0.371 0.325,-0.39C0.348,-0.41 0.367,-0.432 0.383,-0.456C0.399,-0.481 0.407,-0.507 0.407,-0.535C0.407,-0.565 0.403,-0.588 0.396,-0.603C0.388,-0.618 0.375,-0.628 0.356,-0.635C0.338,-0.641 0.309,-0.644 0.272,-0.644C0.235,-0.644 0.208,-0.641 0.189,-0.635C0.17,-0.628 0.157,-0.618 0.15,-0.603C0.142,-0.588 0.138,-0.565 0.138,-0.535C0.138,-0.523 0.138,-0.514 0.139,-0.507L0.035,-0.507C0.032,-0.566 0.038,-0.612 0.052,-0.645C0.067,-0.679 0.091,-0.703 0.126,-0.718C0.161,-0.733 0.209,-0.74 0.272,-0.74C0.331,-0.74 0.378,-0.733 0.413,-0.72C0.448,-0.707 0.473,-0.685 0.489,-0.655C0.504,-0.626 0.512,-0.585 0.512,-0.535C0.512,-0.491 0.501,-0.451 0.479,-0.415C0.457,-0.378 0.43,-0.347 0.4,-0.32C0.369,-0.293 0.329,-0.262 0.281,-0.227C0.24,-0.199 0.209,-0.175 0.187,-0.155C0.165,-0.135 0.15,-0.116 0.142,-0.096L0.51,-0.096L0.51,-0L0.035,-0L0.035,-0.069Z" style="fill:rgb(30,33,41);fill-rule:nonzero;"/>
                </g>
                <g transform="matrix(41,0,0,41,578.803,689)">
                    <path d="M0.035,-0.069C0.035,-0.102 0.043,-0.132 0.061,-0.16C0.079,-0.189 0.101,-0.214 0.127,-0.236C0.153,-0.259 0.187,-0.285 0.229,-0.315C0.27,-0.346 0.302,-0.371 0.325,-0.39C0.348,-0.41 0.367,-0.432 0.383,-0.456C0.399,-0.481 0.407,-0.507 0.407,-0.535C0.407,-0.565 0.403,-0.588 0.396,-0.603C0.388,-0.618 0.375,-0.628 0.356,-0.635C0.338,-0.641 0.309,-0.644 0.272,-0.644C0.235,-0.644 0.208,-0.641 0.189,-0.635C0.17,-0.628 0.157,-0.618 0.15,-0.603C0.142,-0.588 0.138,-0.565 0.138,-0.535C0.138,-0.523 0.138,-0.514 0.139,-0.507L0.035,-0.507C0.032,-0.566 0.038,-0.612 0.052,-0.645C0.067,-0.679 0.091,-0.703 0.126,-0.718C0.161,-0.733 0.209,-0.74 0.272,-0.74C0.331,-0.74 0.378,-0.733 0.413,-0.72C0.448,-0.707 0.473,-0.685 0.489,-0.655C0.504,-0.626 0.512,-0.585 0.512,-0.535C0.512,-0.491 0.501,-0.451 0.479,-0.415C0.457,-0.378 0.43,-0.347 0.4,-0.32C0.369,-0.293 0.329,-0.262 0.281,-0.227C0.24,-0.199 0.209,-0.175 0.187,-0.155C0.165,-0.135 0.15,-0.116 0.142,-0.096L0.51,-0.096L0.51,-0L0.035,-0L0.035,-0.069Z" style="fill:rgb(30,33,41);fill-rule:nonzero;"/>
                </g>
            </g>
        </g>
        <g transform="matrix(0.670833,0,0,0.473148,0,0)">
            <g transform="matrix(0.569493,0,0,0.807431,1108.25,36.3383)">
                <g transform="matrix(41,0,0,41,556.439,689)">
                    <path d="M0.035,-0.069C0.035,-0.102 0.043,-0.132 0.061,-0.16C0.079,-0.189 0.101,-0.214 0.127,-0.236C0.153,-0.259 0.187,-0.285 0.229,-0.315C0.27,-0.346 0.302,-0.371 0.325,-0.39C0.348,-0.41 0.367,-0.432 0.383,-0.456C0.399,-0.481 0.407,-0.507 0.407,-0.535C0.407,-0.565 0.403,-0.588 0.396,-0.603C0.388,-0.618 0.375,-0.628 0.356,-0.635C0.338,-0.641 0.309,-0.644 0.272,-0.644C0.235,-0.644 0.208,-0.641 0.189,-0.635C0.17,-0.628 0.157,-0.618 0.15,-0.603C0.142,-0.588 0.138,-0.565 0.138,-0.535C0.138,-0.523 0.138,-0.514 0.139,-0.507L0.035,-0.507C0.032,-0.566 0.038,-0.612 0.052,-0.645C0.067,-0.679 0.091,-0.703 0.126,-0.718C0.161,-0.733 0.209,-0.74 0.272,-0.74C0.331,-0.74 0.378,-0.733 0.413,-0.72C0.448,-0.707 0.473,-0.685 0.489,-0.655C0.504,-0.626 0.512,-0.585 0.512,-0.535C0.512,-0.491 0.501,-0.451 0.479,-0.415C0.457,-0.378 0.43,-0.347 0.4,-0.32C0.369,-0.293 0.329,-0.262 0.281,-0.227C0.24,-0.199 0.209,-0.175 0.187,-0.155C0.165,-0.135 0.15,-0.116 0.142,-0.096L0.51,-0.096L0.51,-0L0.035,-0L0.035,-0.069Z" style="fill:rgb(30,33,41);fill-rule:nonzero;"/>
                </g>
                <g transform="matrix(41,0,0,41,578.803,689)">
                    <path d="M0.273,0.013C0.213,0.013 0.167,0.005 0.134,-0.009C0.101,-0.024 0.078,-0.047 0.064,-0.078C0.05,-0.11 0.044,-0.153 0.044,-0.207L0.149,-0.207C0.149,-0.172 0.152,-0.146 0.157,-0.13C0.163,-0.113 0.174,-0.101 0.191,-0.094C0.209,-0.087 0.236,-0.084 0.273,-0.084C0.307,-0.084 0.332,-0.087 0.35,-0.094C0.368,-0.101 0.38,-0.113 0.387,-0.13C0.394,-0.147 0.397,-0.172 0.397,-0.204C0.397,-0.241 0.394,-0.269 0.388,-0.286C0.382,-0.304 0.372,-0.316 0.357,-0.323C0.343,-0.329 0.32,-0.334 0.29,-0.336L0.198,-0.336L0.198,-0.433L0.29,-0.433C0.322,-0.435 0.345,-0.439 0.359,-0.443C0.373,-0.448 0.383,-0.457 0.389,-0.47C0.394,-0.484 0.397,-0.506 0.397,-0.536C0.397,-0.565 0.394,-0.587 0.387,-0.602C0.38,-0.617 0.368,-0.628 0.35,-0.634C0.332,-0.64 0.307,-0.644 0.273,-0.644C0.235,-0.644 0.207,-0.64 0.19,-0.634C0.174,-0.627 0.163,-0.616 0.158,-0.6C0.153,-0.583 0.15,-0.557 0.15,-0.521L0.044,-0.521C0.044,-0.577 0.05,-0.62 0.064,-0.651C0.078,-0.683 0.101,-0.705 0.134,-0.719C0.166,-0.733 0.213,-0.74 0.273,-0.74C0.329,-0.74 0.374,-0.733 0.407,-0.72C0.44,-0.706 0.464,-0.684 0.479,-0.655C0.494,-0.626 0.502,-0.586 0.502,-0.536C0.502,-0.496 0.497,-0.465 0.488,-0.444C0.478,-0.422 0.462,-0.403 0.438,-0.385C0.462,-0.365 0.478,-0.342 0.488,-0.316C0.497,-0.29 0.502,-0.253 0.502,-0.204C0.502,-0.151 0.494,-0.109 0.48,-0.078C0.465,-0.047 0.441,-0.024 0.408,-0.009C0.375,0.005 0.33,0.013 0.273,0.013Z" style="fill:rgb(30,33,41);fill-rule:nonzero;"/>
                </g>
            </g>
        </g>
        <g transform="matrix(0.670833,0,0,0.473148,0,0)">
            <g transform="matrix(0.569493,0,0,0.807431,1156.09,36.3383)">
                <g transform="matrix(41,0,0,41,556.439,689)">
                    <path d="M0.035,-0.069C0.035,-0.102 0.043,-0.132 0.061,-0.16C0.079,-0.189 0.101,-0.214 0.127,-0.236C0.153,-0.259 0.187,-0.285 0.229,-0.315C0.27,-0.346 0.302,-0.371 0.325,-0.39C0.348,-0.41 0.367,-0.432 0.383,-0.456C0.399,-0.481 0.407,-0.507 0.407,-0.535C0.407,-0.565 0.403,-0.588 0.396,-0.603C0.388,-0.618 0.375,-0.628 0.356,-0.635C0.338,-0.641 0.309,-0.644 0.272,-0.644C0.235,-0.644 0.208,-0.641 0.189,-0.635C0.17,-0.628 0.157,-0.618 0.15,-0.603C0.142,-0.588 0.138,-0.565 0.138,-0.535C0.138,-0.523 0.138,-0.514 0.139,-0.507L0.035,-0.507C0.032,-0.566 0.038,-0.612 0.052,-0.645C0.067,-0.679 0.091,-0.703 0.126,-0.718C0.161,-0.733 0.209,-0.74 0.272,-0.74C0.331,-0.74 0.378,-0.733 0.413,-0.72C0.448,-0.707 0.473,-0.685 0.489,-0.655C0.504,-0.626 0.512,-0.585 0.512,-0.535C0.512,-0.491 0.501,-0.451 0.479,-0.415C0.457,-0.378 0.43,-0.347 0.4,-0.32C0.369,-0.293 0.329,-0.262 0.281,-0.227C0.24,-0.199 0.209,-0.175 0.187,-0.155C0.165,-0.135 0.15,-0.116 0.142,-0.096L0.51,-0.096L0.51,-0L0.035,-0L0.035,-0.069Z" style="fill:rgb(30,33,41);fill-rule:nonzero;"/>
                </g>
                <g transform="matrix(41,0,0,41,578.803,689)">
                    <path d="M0.447,-0L0.343,-0L0.343,-0.184L0.029,-0.184L0.029,-0.259L0.36,-0.727L0.447,-0.727L0.447,-0.28L0.515,-0.28L0.515,-0.184L0.447,-0.184L0.447,-0ZM0.343,-0.517L0.165,-0.28L0.343,-0.28L0.343,-0.517Z" style="fill:rgb(30,33,41);fill-rule:nonzero;"/>
                </g>
            </g>
        </g>
        <g transform="matrix(0.670833,0,0,0.473148,0,0)">
            <g transform="matrix(0.569493,0,0,0.807431,1203.93,36.3383)">
                <g transform="matrix(41,0,0,41,556.439,689)">
                    <path d="M0.035,-0.069C0.035,-0.102 0.043,-0.132 0.061,-0.16C0.079,-0.189 0.101,-0.214 0.127,-0.236C0.153,-0.259 0.187,-0.285 0.229,-0.315C0.27,-0.346 0.302,-0.371 0.325,-0.39C0.348,-0.41 0.367,-0.432 0.383,-0.456C0.399,-0.481 0.407,-0.507 0.407,-0.535C0.407,-0.565 0.403,-0.588 0.396,-0.603C0.388,-0.618 0.375,-0.628 0.356,-0.635C0.338,-0.641 0.309,-0.644 0.272,-0.644C0.235,-0.644 0.208,-0.641 0.189,-0.635C0.17,-0.628 0.157,-0.618 0.15,-0.603C0.142,-0.588 0.138,-0.565 0.138,-0.535C0.138,-0.523 0.138,-0.514 0.139,-0.507L0.035,-0.507C0.032,-0.566 0.038,-0.612 0.052,-0.645C0.067,-0.679 0.091,-0.703 0.126,-0.718C0.161,-0.733 0.209,-0.74 0.272,-0.74C0.331,-0.74 0.378,-0.733 0.413,-0.72C0.448,-0.707 0.473,-0.685 0.489,-0.655C0.504,-0.626 0.512,-0.585 0.512,-0.535C0.512,-0.491 0.501,-0.451 0.479,-0.415C0.457,-0.378 0.43,-0.347 0.4,-0.32C0.369,-0.293 0.329,-0.262 0.281,-0.227C0.24,-0.199 0.209,-0.175 0.187,-0.155C0.165,-0.135 0.15,-0.116 0.142,-0.096L0.51,-0.096L0.51,-0L0.035,-0L0.035,-0.069Z" style="fill:rgb(30,33,41);fill-rule:nonzero;"/>
                </g>
                <g transform="matrix(41,0,0,41,578.803,689)">
                    <path d="M0.273,0.013C0.212,0.013 0.164,0.006 0.13,-0.008C0.097,-0.022 0.073,-0.045 0.059,-0.076C0.045,-0.107 0.038,-0.151 0.038,-0.207L0.144,-0.207C0.144,-0.171 0.146,-0.145 0.152,-0.128C0.157,-0.112 0.169,-0.1 0.187,-0.094C0.205,-0.087 0.233,-0.084 0.273,-0.084C0.312,-0.084 0.341,-0.088 0.36,-0.097C0.38,-0.106 0.394,-0.121 0.402,-0.142C0.41,-0.164 0.414,-0.195 0.414,-0.236C0.414,-0.28 0.41,-0.313 0.402,-0.334C0.394,-0.356 0.38,-0.37 0.361,-0.378C0.342,-0.386 0.312,-0.39 0.273,-0.39C0.251,-0.39 0.231,-0.386 0.213,-0.379C0.195,-0.371 0.172,-0.356 0.142,-0.334L0.056,-0.334L0.056,-0.727L0.496,-0.727L0.496,-0.632L0.161,-0.632L0.161,-0.465C0.189,-0.479 0.227,-0.486 0.273,-0.486C0.335,-0.486 0.383,-0.479 0.418,-0.463C0.453,-0.448 0.479,-0.422 0.495,-0.386C0.511,-0.35 0.519,-0.3 0.519,-0.236C0.519,-0.175 0.511,-0.127 0.495,-0.09C0.479,-0.054 0.453,-0.028 0.418,-0.012C0.382,0.005 0.334,0.013 0.273,0.013Z" style="fill:rgb(30,33,41);fill-rule:nonzero;"/>
                </g>
            </g>
        </g>
        <g transform="matrix(0.670833,0,0,0.473148,0,0)">
            <g transform="matrix(0.569493,0,0,0.807431,1251.76,36.3383)">
                <g transform="matrix(41,0,0,41,556.439,689)">
                    <path d="M0.035,-0.069C0.035,-0.102 0.043,-0.132 0.061,-0.16C0.079,-0.189 0.101,-0.214 0.127,-0.236C0.153,-0.259 0.187,-0.285 0.229,-0.315C0.27,-0.346 0.302,-0.371 0.325,-0.39C0.348,-0.41 0.367,-0.432 0.383,-0.456C0.399,-0.481 0.407,-0.507 0.407,-0.535C0.407,-0.565 0.403,-0.588 0.396,-0.603C0.388,-0.618 0.375,-0.628 0.356,-0.635C0.338,-0.641 0.309,-0.644 0.272,-0.644C0.235,-0.644 0.208,-0.641 0.189,-0.635C0.17,-0.628 0.157,-0.618 0.15,-0.603C0.142,-0.588 0.138,-0.565 0.138,-0.535C0.138,-0.523 0.138,-0.514 0.139,-0.507L0.035,-0.507C0.032,-0.566 0.038,-0.612 0.052,-0.645C0.067,-0.679 0.091,-0.703 0.126,-0.718C0.161,-0.733 0.209,-0.74 0.272,-0.74C0.331,-0.74 0.378,-0.733 0.413,-0.72C0.448,-0.707 0.473,-0.685 0.489,-0.655C0.504,-0.626 0.512,-0.585 0.512,-0.535C0.512,-0.491 0.501,-0.451 0.479,-0.415C0.457,-0.378 0.43,-0.347 0.4,-0.32C0.369,-0.293 0.329,-0.262 0.281,-0.227C0.24,-0.199 0.209,-0.175 0.187,-0.155C0.165,-0.135 0.15,-0.116 0.142,-0.096L0.51,-0.096L0.51,-0L0.035,-0L0.035,-0.069Z" style="fill:rgb(30,33,41);fill-rule:nonzero;"/>
                </g>
                <g transform="matrix(41,0,0,41,578.803,689)">
                    <path d="M0.273,0.013C0.215,0.013 0.168,0.005 0.135,-0.011C0.101,-0.027 0.076,-0.053 0.061,-0.088C0.046,-0.123 0.038,-0.17 0.038,-0.229L0.038,-0.479C0.038,-0.543 0.046,-0.594 0.061,-0.632C0.076,-0.67 0.101,-0.698 0.135,-0.715C0.168,-0.732 0.215,-0.74 0.273,-0.74C0.328,-0.74 0.372,-0.734 0.406,-0.723C0.44,-0.711 0.465,-0.692 0.482,-0.666C0.498,-0.64 0.506,-0.605 0.506,-0.562L0.401,-0.562C0.401,-0.584 0.397,-0.6 0.389,-0.612C0.38,-0.624 0.367,-0.632 0.349,-0.637C0.331,-0.641 0.305,-0.644 0.273,-0.644C0.238,-0.644 0.211,-0.639 0.193,-0.63C0.175,-0.62 0.162,-0.604 0.154,-0.58C0.147,-0.557 0.143,-0.523 0.143,-0.479L0.143,-0.452C0.176,-0.467 0.219,-0.475 0.273,-0.475C0.333,-0.475 0.38,-0.467 0.413,-0.453C0.447,-0.438 0.471,-0.413 0.486,-0.378C0.501,-0.343 0.508,-0.294 0.508,-0.23C0.508,-0.171 0.501,-0.123 0.485,-0.088C0.47,-0.053 0.446,-0.027 0.412,-0.011C0.378,0.005 0.332,0.013 0.273,0.013ZM0.273,-0.084C0.308,-0.084 0.335,-0.088 0.353,-0.096C0.372,-0.105 0.385,-0.119 0.392,-0.14C0.4,-0.161 0.404,-0.191 0.404,-0.23C0.404,-0.274 0.4,-0.306 0.392,-0.326C0.385,-0.347 0.372,-0.361 0.354,-0.368C0.336,-0.375 0.309,-0.378 0.273,-0.378C0.236,-0.378 0.209,-0.375 0.191,-0.368C0.173,-0.361 0.161,-0.347 0.154,-0.326C0.146,-0.305 0.143,-0.273 0.143,-0.229C0.143,-0.19 0.147,-0.161 0.154,-0.14C0.162,-0.119 0.175,-0.105 0.193,-0.096C0.211,-0.088 0.238,-0.084 0.273,-0.084Z" style="fill:rgb(30,33,41);fill-rule:nonzero;"/>
                </g>
            </g>
        </g>
        <g transform="matrix(0.670833,0,0,0.473148,0,0)">
            <g transform="matrix(1.49068,0,0,1.05675,47.8374,198.298)">
                <g transform="matrix(1,-0,-0,2,178.182,271.723)">
                    <path d="M156.455,44.345L160.955,39.845L165.455,44.345" style="fill:none;stroke:rgb(242,13,13);stroke-width:1px;stroke-linejoin:miter;stroke-miterlimit:10;"/>
                    <path d="M160.955,81.138L160.955,39.845" style="fill:none;stroke:rgb(242,13,13);stroke-width:1px;"/>
                </g>
            </g>
        </g>
        <g transform="matrix(0.670833,0,0,0.473148,0,0)">
            <g transform="matrix(1.49068,0,0,1.05675,334.862,198.298)">
                <g transform="matrix(1,-0,-0,2,-14.3636,271.723)">
                    <path d="M349,44.345L353.5,39.845L358,44.345" style="fill:none;stroke:rgb(242,13,13);stroke-width:1px;stroke-linejoin:miter;stroke-miterlimit:10;"/>
                    <path d="M353.5,81.138L353.5,39.845" style="fill:none;stroke:rgb(242,13,13);stroke-width:1px;"/>
                </g>
            </g>
        </g>
        <g transform="matrix(0.670833,0,0,0.473148,0,0)">
            <g transform="matrix(1.49068,0,0,2.1135,0,0)">
                <rect x="371.227" y="289.824" width="192.545" height="21" style="fill:none;stroke:rgb(242,13,13);stroke-width:1px;"/>
            </g>
        </g>
    </g>
</svg>
