<?xml version="1.0" encoding="UTF-8" standalone="no"?>
<!DOCTYPE svg PUBLIC "-//W3C//DTD SVG 1.1//EN" "http://www.w3.org/Graphics/SVG/1.1/DTD/svg11.dtd">
<svg width="332px" height="332px" version="1.1" xmlns="http://www.w3.org/2000/svg" xmlns:xlink="http://www.w3.org/1999/xlink" xml:space="preserve" xmlns:serif="http://www.serif.com/" style="fill-rule:evenodd;clip-rule:evenodd;stroke-linecap:round;stroke-linejoin:round;stroke-miterlimit:1.5;">
    <g transform="matrix(1,0,0,1,-884,-84)">
        <g transform="matrix(0.68125,0,0,0.924074,0,0)">
            <g id="coil-modulo3-light">
                <g transform="matrix(0.917431,0,0,0.811623,1174.31,-378.758)">
                    <path d="M400,1000L400,600" style="fill:none;stroke:black;stroke-width:1.45px;"/>
                </g>
                <g transform="matrix(1.10092,0,0,0.676353,1100.92,-270.541)">
                    <path d="M600,800L200,800" style="fill:none;stroke:black;stroke-width:1.45px;"/>
                </g>
                <g transform="matrix(0.917431,0,0,0.676353,1174.31,-270.541)">
                    <rect x="160" y="560" width="480" height="480" style="fill:none;stroke:black;stroke-width:1.6px;"/>
                </g>
                <g transform="matrix(5.61765e-17,0.676353,-0.917431,4.14147e-17,1541.79,266.314)">
                    <path d="M200,0C200,-110.457 110.457,-200 -0,-200C-96.453,-200 -174.643,-121.809 -174.643,-25.356C-174.643,54.714 -109.734,119.624 -29.663,119.624C34.024,119.624 85.654,67.995 85.653,4.307C85.653,-42.998 47.305,-81.347 -0,-81.347C-30.923,-81.347 -55.99,-56.279 -55.99,-25.356C-55.99,-12.602 -46.847,-1.681 -34.291,0.56" style="fill:none;stroke:black;stroke-width:1px;"/>
                </g>
                <g transform="matrix(1.46789,0,0,1.08216,1174.31,-1.23028e-13)">
                    <path d="M100,100L400,400" style="fill:none;stroke:black;stroke-width:1px;"/>
                </g>
                <g transform="matrix(1.46789,0,0,1.08216,1174.31,-1.23028e-13)">
                    <path d="M400,100L100,400" style="fill:none;stroke:black;stroke-width:1px;"/>
                </g>
                <g transform="matrix(1.46789,0,0,1.08216,1174.31,-1.23028e-13)">
                    <path d="M250,250L250,224.626C251.416,216.797 258.232,211.1 266.192,211.1C272.704,211.1 278.801,212.879 284.023,215.977L250,250Z" style="fill:rgb(217,38,165);stroke:black;stroke-width:1px;"/>
                </g>
                <g transform="matrix(1.46789,0,0,1.08216,1174.31,-1.23028e-13)">
                    <path d="M301.045,250L250,250L284.023,215.977C294.298,222.074 301.185,233.28 301.185,246.094C301.185,247.407 301.138,248.71 301.045,250Z" style="fill:rgb(217,38,165);stroke:black;stroke-width:1px;"/>
                </g>
                <g transform="matrix(1.46789,0,0,1.08216,1174.31,-1.23028e-13)">
                    <path d="M284.719,284.719L250,250L301.045,250C300.063,263.615 293.99,275.82 284.719,284.719Z" style="fill:rgb(217,38,165);stroke:black;stroke-width:1px;"/>
                </g>
                <g transform="matrix(1.46789,0,0,1.08216,1174.31,-1.23028e-13)">
                    <path d="M250,299.577L250,250L284.719,284.719C275.626,293.447 263.457,298.996 250,299.577Z" style="fill:rgb(217,38,165);stroke:black;stroke-width:1px;"/>
                </g>
                <g transform="matrix(1.46789,0,0,1.08216,1174.31,-1.23028e-13)">
                    <path d="M210.608,289.392L250,250L250,299.577C249.222,299.61 248.439,299.627 247.652,299.627C234.107,299.627 221.434,295.89 210.608,289.392Z" style="fill:rgb(217,38,165);stroke:black;stroke-width:1px;"/>
                </g>
                <g transform="matrix(1.46789,0,0,1.08216,1174.31,-1.23028e-13)">
                    <path d="M179.143,250L250,250L210.608,289.392C195.886,280.553 184.58,266.605 179.143,250Z" style="fill:rgb(217,38,165);stroke:black;stroke-width:1px;"/>
                </g>
                <g transform="matrix(1.46789,0,0,1.08216,1174.31,-1.23028e-13)">
                    <path d="M185.768,185.768L250,250L179.143,250C176.83,242.936 175.579,235.391 175.579,227.554C175.579,212.483 179.258,198.271 185.768,185.768Z" style="fill:rgb(217,38,165);stroke:black;stroke-width:1px;"/>
                </g>
                <g transform="matrix(1.46789,0,0,1.08216,1174.31,-1.23028e-13)">
                    <path d="M250,138.384L250,250L185.768,185.768C198.486,161.339 222.009,143.433 250,138.384Z" style="fill:rgb(217,38,165);stroke:black;stroke-width:1px;"/>
                </g>
                <g transform="matrix(1.46789,0,0,1.08216,1174.31,-1.23028e-13)">
                    <path d="M100,100L250,100L250,138.384C222.009,143.433 198.486,161.339 185.768,185.768L100,100Z" style="fill:none;stroke:black;stroke-width:1px;"/>
                </g>
                <g transform="matrix(1.46789,0,0,1.08216,0,0)">
                    <path d="M1136.99,163.012L1084.02,215.977C1078.8,212.879 1072.7,211.1 1066.19,211.1C1058.23,211.1 1051.42,216.797 1050,224.626L1050,138.384C1055.25,137.436 1060.66,136.942 1066.19,136.942C1093.21,136.942 1117.93,146.755 1136.99,163.012Z" style="fill:rgb(38,123,217);stroke:black;stroke-width:1px;"/>
                </g>
                <g transform="matrix(1.46789,0,0,1.08216,0,0)">
                    <path d="M1175.28,250L1101.05,250C1101.14,248.71 1101.18,247.407 1101.18,246.094C1101.18,233.28 1094.3,222.074 1084.02,215.977L1136.99,163.012C1160.46,183.033 1175.34,212.825 1175.34,246.094C1175.34,247.401 1175.32,248.703 1175.28,250Z" style="fill:rgb(38,123,217);stroke:black;stroke-width:1px;"/>
                </g>
                <g transform="matrix(1.46789,0,0,1.08216,0,0)">
                    <path d="M1136.58,336.582L1084.72,284.719C1093.99,275.82 1100.06,263.615 1101.05,250L1175.28,250C1174.24,284.038 1159.59,314.651 1136.58,336.582Z" style="fill:rgb(38,123,217);stroke:black;stroke-width:1px;"/>
                </g>
                <g transform="matrix(1.32951,0,0,1.08216,910.102,32.4649)">
                    <g transform="matrix(1.10408,0,0,1,0,0)">
                        <circle cx="430" cy="70" r="15" style="fill:rgb(50,247,211);stroke:black;stroke-width:1px;"/>
                    </g>
                    <g transform="matrix(0.690052,0,0,0.625,65.8557,-327.423)">
                        <g transform="matrix(40,0,0,40,580,650)">
                            <path d="M0.308,-0.717C0.383,-0.717 0.441,-0.686 0.48,-0.624C0.519,-0.561 0.539,-0.471 0.539,-0.353C0.539,-0.235 0.519,-0.145 0.48,-0.082C0.441,-0.02 0.383,0.012 0.308,0.012C0.232,0.012 0.175,-0.02 0.135,-0.082C0.096,-0.145 0.076,-0.235 0.076,-0.353C0.076,-0.471 0.096,-0.561 0.135,-0.624C0.175,-0.686 0.232,-0.717 0.308,-0.717ZM0.308,-0.648C0.214,-0.648 0.168,-0.55 0.168,-0.353C0.168,-0.275 0.174,-0.213 0.186,-0.169L0.402,-0.603C0.38,-0.633 0.349,-0.648 0.308,-0.648ZM0.308,-0.058C0.401,-0.058 0.448,-0.156 0.448,-0.353C0.448,-0.433 0.442,-0.495 0.43,-0.539L0.215,-0.103C0.226,-0.088 0.239,-0.076 0.255,-0.069C0.27,-0.062 0.288,-0.058 0.308,-0.058Z" style="fill-rule:nonzero;"/>
                        </g>
                    </g>
                </g>
                <g transform="matrix(1.32951,0,0,1.08216,1071.57,75.7515)">
                    <g transform="matrix(1.10408,0,0,1,0,0)">
                        <circle cx="430" cy="70" r="15" style="fill:rgb(50,247,211);stroke:black;stroke-width:1px;"/>
                    </g>
                    <g transform="matrix(0.690052,0,0,0.625,65.8557,-327.423)">
                        <g transform="matrix(40,0,0,40,580,650)">
                            <path d="M0.383,-0.706L0.383,-0.07L0.531,-0.07L0.531,-0L0.123,-0L0.123,-0.07L0.297,-0.07L0.297,-0.613L0.135,-0.514L0.097,-0.576L0.308,-0.706L0.383,-0.706Z" style="fill-rule:nonzero;"/>
                        </g>
                    </g>
                </g>
                <g transform="matrix(1.32951,0,0,1.08216,1130.27,194.79)">
                    <g transform="matrix(1.10408,0,0,1,0,0)">
                        <circle cx="430" cy="70" r="15" style="fill:rgb(50,247,211);stroke:black;stroke-width:1px;"/>
                    </g>
                    <g transform="matrix(0.690052,0,0,0.625,65.8557,-327.423)">
                        <g transform="matrix(40,0,0,40,580,650)">
                            <path d="M0.276,-0.717C0.32,-0.717 0.358,-0.709 0.39,-0.692C0.422,-0.675 0.446,-0.651 0.464,-0.622C0.481,-0.592 0.489,-0.558 0.489,-0.521C0.489,-0.477 0.479,-0.435 0.459,-0.394C0.439,-0.353 0.406,-0.308 0.362,-0.258C0.317,-0.209 0.254,-0.148 0.173,-0.073L0.506,-0.073L0.495,-0L0.075,-0L0.075,-0.07C0.168,-0.159 0.236,-0.228 0.281,-0.278C0.325,-0.328 0.356,-0.37 0.373,-0.405C0.39,-0.441 0.398,-0.478 0.398,-0.517C0.398,-0.557 0.387,-0.589 0.365,-0.612C0.342,-0.634 0.312,-0.646 0.272,-0.646C0.238,-0.646 0.21,-0.64 0.188,-0.628C0.166,-0.617 0.143,-0.598 0.12,-0.57L0.061,-0.616C0.089,-0.651 0.12,-0.676 0.155,-0.693C0.189,-0.709 0.23,-0.717 0.276,-0.717Z" style="fill-rule:nonzero;"/>
                        </g>
                    </g>
                </g>
                <g transform="matrix(1.32951,0,0,1.08216,1071.57,313.828)">
                    <g transform="matrix(1.10408,0,0,1,0,0)">
                        <circle cx="430" cy="70" r="15" style="fill:rgb(229,242,13);stroke:black;stroke-width:1px;"/>
                    </g>
                    <g transform="matrix(0.690052,0,0,0.625,65.8557,-327.423)">
                        <g transform="matrix(40,0,0,40,580,650)">
                            <path d="M0.275,-0.717C0.318,-0.717 0.356,-0.709 0.389,-0.694C0.422,-0.678 0.448,-0.656 0.466,-0.629C0.483,-0.603 0.492,-0.573 0.492,-0.541C0.492,-0.513 0.486,-0.488 0.474,-0.464C0.461,-0.441 0.444,-0.422 0.423,-0.406C0.402,-0.391 0.379,-0.381 0.354,-0.376C0.383,-0.374 0.41,-0.366 0.434,-0.352C0.458,-0.338 0.478,-0.319 0.493,-0.293C0.507,-0.268 0.515,-0.238 0.515,-0.204C0.515,-0.163 0.505,-0.126 0.484,-0.094C0.463,-0.061 0.434,-0.035 0.397,-0.016C0.36,0.002 0.318,0.012 0.27,0.012C0.228,0.012 0.188,0.004 0.149,-0.012C0.111,-0.028 0.078,-0.051 0.053,-0.083L0.111,-0.13C0.13,-0.107 0.154,-0.089 0.182,-0.077C0.209,-0.065 0.238,-0.059 0.268,-0.059C0.3,-0.059 0.328,-0.065 0.352,-0.077C0.375,-0.089 0.393,-0.105 0.406,-0.127C0.418,-0.149 0.425,-0.174 0.425,-0.204C0.425,-0.293 0.376,-0.337 0.278,-0.337L0.219,-0.337L0.23,-0.406L0.271,-0.406C0.295,-0.406 0.317,-0.41 0.337,-0.419C0.358,-0.428 0.374,-0.442 0.387,-0.461C0.399,-0.479 0.406,-0.502 0.406,-0.529C0.406,-0.554 0.4,-0.576 0.388,-0.594C0.376,-0.612 0.36,-0.625 0.34,-0.635C0.32,-0.644 0.297,-0.649 0.272,-0.649C0.243,-0.649 0.216,-0.644 0.193,-0.633C0.17,-0.623 0.147,-0.606 0.123,-0.584L0.075,-0.636C0.132,-0.69 0.199,-0.717 0.275,-0.717Z" style="fill-rule:nonzero;"/>
                        </g>
                    </g>
                </g>
                <g transform="matrix(1.32951,0,0,1.08216,910.102,357.114)">
                    <g transform="matrix(1.10408,0,0,1,0,0)">
                        <circle cx="430" cy="70" r="15" style="fill:rgb(50,247,211);stroke:black;stroke-width:1px;"/>
                    </g>
                    <g transform="matrix(0.690052,0,0,0.625,65.8557,-327.423)">
                        <g transform="matrix(40,0,0,40,580,650)">
                            <path d="M0.451,-0.241L0.542,-0.241L0.542,-0.172L0.451,-0.172L0.451,-0L0.368,-0L0.367,-0.172L0.074,-0.172L0.074,-0.234L0.281,-0.717L0.353,-0.687L0.165,-0.241L0.368,-0.241L0.379,-0.441L0.451,-0.441L0.451,-0.241Z" style="fill-rule:nonzero;"/>
                        </g>
                    </g>
                </g>
                <g transform="matrix(1.32951,0,0,1.08216,748.634,313.828)">
                    <g transform="matrix(1.10408,0,0,1,0,0)">
                        <circle cx="430" cy="70" r="15" style="fill:rgb(50,247,211);stroke:black;stroke-width:1px;"/>
                    </g>
                    <g transform="matrix(0.690052,0,0,0.625,65.8557,-327.423)">
                        <g transform="matrix(40,0,0,40,580,650)">
                            <path d="M0.499,-0.706L0.487,-0.637L0.208,-0.637L0.208,-0.415C0.229,-0.426 0.249,-0.434 0.268,-0.438C0.287,-0.443 0.308,-0.445 0.33,-0.445C0.368,-0.445 0.402,-0.436 0.431,-0.419C0.46,-0.402 0.483,-0.376 0.499,-0.343C0.515,-0.309 0.523,-0.27 0.523,-0.224C0.523,-0.177 0.513,-0.136 0.493,-0.1C0.473,-0.064 0.446,-0.037 0.409,-0.017C0.373,0.002 0.331,0.012 0.284,0.012C0.243,0.012 0.205,0.005 0.172,-0.01C0.139,-0.025 0.108,-0.046 0.079,-0.073L0.132,-0.125C0.154,-0.102 0.177,-0.086 0.202,-0.075C0.226,-0.065 0.254,-0.059 0.285,-0.059C0.331,-0.059 0.368,-0.074 0.394,-0.102C0.419,-0.13 0.432,-0.172 0.432,-0.226C0.432,-0.279 0.421,-0.318 0.398,-0.342C0.375,-0.365 0.344,-0.377 0.305,-0.377C0.286,-0.377 0.268,-0.375 0.253,-0.372C0.237,-0.368 0.218,-0.362 0.195,-0.353L0.126,-0.353L0.126,-0.706L0.499,-0.706Z" style="fill-rule:nonzero;"/>
                        </g>
                    </g>
                </g>
                <g transform="matrix(1.32951,0,0,1.08216,689.918,194.79)">
                    <g transform="matrix(1.10408,0,0,1,0,0)">
                        <circle cx="430" cy="70" r="15" style="fill:rgb(50,247,211);stroke:black;stroke-width:1px;"/>
                    </g>
                    <g transform="matrix(0.690052,0,0,0.625,65.8557,-327.423)">
                        <g transform="matrix(40,0,0,40,580,650)">
                            <path d="M0.338,-0.46C0.375,-0.46 0.409,-0.452 0.439,-0.435C0.469,-0.419 0.494,-0.394 0.511,-0.36C0.529,-0.327 0.538,-0.286 0.538,-0.237C0.538,-0.187 0.528,-0.143 0.508,-0.105C0.489,-0.068 0.462,-0.039 0.428,-0.018C0.394,0.002 0.357,0.012 0.316,0.012C0.234,0.012 0.174,-0.018 0.137,-0.078C0.1,-0.138 0.082,-0.223 0.082,-0.334C0.082,-0.411 0.092,-0.479 0.113,-0.537C0.134,-0.595 0.164,-0.639 0.203,-0.671C0.243,-0.702 0.29,-0.717 0.344,-0.717C0.396,-0.717 0.443,-0.704 0.484,-0.676L0.45,-0.618C0.417,-0.638 0.382,-0.648 0.343,-0.648C0.307,-0.648 0.276,-0.636 0.251,-0.613C0.225,-0.59 0.205,-0.557 0.191,-0.515C0.177,-0.472 0.169,-0.422 0.168,-0.365C0.19,-0.397 0.215,-0.422 0.243,-0.437C0.271,-0.452 0.303,-0.46 0.338,-0.46ZM0.315,-0.058C0.359,-0.058 0.392,-0.074 0.415,-0.105C0.438,-0.136 0.45,-0.18 0.45,-0.235C0.45,-0.29 0.439,-0.33 0.417,-0.354C0.395,-0.377 0.365,-0.389 0.325,-0.389C0.292,-0.389 0.263,-0.38 0.236,-0.363C0.21,-0.345 0.187,-0.32 0.169,-0.289C0.17,-0.236 0.176,-0.192 0.186,-0.158C0.197,-0.124 0.213,-0.099 0.234,-0.083C0.255,-0.066 0.282,-0.058 0.315,-0.058Z" style="fill-rule:nonzero;"/>
                        </g>
                    </g>
                </g>
                <g transform="matrix(1.32951,0,0,1.08216,748.634,78.8725)">
                    <g transform="matrix(1.10408,0,0,1,0,0)">
                        <circle cx="430" cy="70" r="15" style="fill:rgb(50,247,211);stroke:black;stroke-width:1px;"/>
                    </g>
                    <g transform="matrix(0.690052,0,0,0.625,65.8557,-327.423)">
                        <g transform="matrix(40,0,0,40,580,650)">
                            <path d="M0.518,-0.64L0.236,0.01L0.156,-0.015L0.431,-0.634L0.1,-0.634L0.1,-0.706L0.518,-0.706L0.518,-0.64Z" style="fill-rule:nonzero;"/>
                        </g>
                    </g>
                </g>
            </g>
        </g>
    </g>
</svg>
