<?xml version="1.0" encoding="UTF-8" standalone="no"?>
<!DOCTYPE svg PUBLIC "-//W3C//DTD SVG 1.1//EN" "http://www.w3.org/Graphics/SVG/1.1/DTD/svg11.dtd">
<svg width="600px" height="377px" version="1.1" xmlns="http://www.w3.org/2000/svg" xmlns:xlink="http://www.w3.org/1999/xlink" xml:space="preserve" xmlns:serif="http://www.serif.com/" style="fill-rule:evenodd;clip-rule:evenodd;stroke-linejoin:round;stroke-miterlimit:2;">
    <g transform="matrix(1,0,0,1,-301.931,-215.703)">
        <g id="path3022" transform="matrix(0.348731,0.348731,-0.348731,0.348731,345.139,166.218)">
            <path d="M71,70.9L120.6,21.3C124.3,17.6 128.5,16.9 133,21.3L179.1,67.4C182.4,70.7 182.1,75.7 179.1,78.7L78.8,178.9C75.2,182.5 70.5,183.1 66.3,178.9L21.2,133.8C17.6,130.2 17.9,124.5 21.2,121.2L71,70.9Z" style="fill:white;fill-rule:nonzero;"/>
        </g>
        <g id="path3000" transform="matrix(0.348731,0.348731,-0.348731,0.348731,345.139,166.218)">
            <path d="M71.8,76L123.7,127.9L76.5,175.1C73.6,178 70.6,178.1 67.6,175.1L24.4,131.9C21.7,129.2 21.9,126.2 24.4,123.7L71.8,76Z" style="fill:rgb(0,100,145);fill-rule:nonzero;"/>
        </g>
        <g id="path3002" transform="matrix(0.348731,0.348731,-0.348731,0.348731,345.139,166.218)">
            <path d="M127,124.8L75.1,72.9L122.3,25.7C125.2,22.8 128.2,22.7 131.2,25.7L174.4,68.9C177.1,71.6 176.9,74.6 174.4,77.1L127,124.8Z" style="fill:rgb(227,24,55);fill-rule:nonzero;"/>
        </g>
        <g id="path30221" serif:id="path3022" transform="matrix(0.348731,0.348731,-0.348731,0.348731,431.445,166.218)">
            <path d="M71,70.9L120.6,21.3C124.3,17.6 128.5,16.9 133,21.3L179.1,67.4C182.4,70.7 182.1,75.7 179.1,78.7L78.8,178.9C75.2,182.5 70.5,183.1 66.3,178.9L21.2,133.8C17.6,130.2 17.9,124.5 21.2,121.2L71,70.9Z" style="fill:white;fill-rule:nonzero;"/>
        </g>
        <g id="path30001" serif:id="path3000" transform="matrix(0.348731,0.348731,-0.348731,0.348731,431.445,166.218)">
            <path d="M71.8,76L123.7,127.9L76.5,175.1C73.6,178 70.6,178.1 67.6,175.1L24.4,131.9C21.7,129.2 21.9,126.2 24.4,123.7L71.8,76Z" style="fill:rgb(0,100,145);fill-rule:nonzero;"/>
        </g>
        <g id="path30021" serif:id="path3002" transform="matrix(0.348731,0.348731,-0.348731,0.348731,431.445,166.218)">
            <path d="M127,124.8L75.1,72.9L122.3,25.7C125.2,22.8 128.2,22.7 131.2,25.7L174.4,68.9C177.1,71.6 176.9,74.6 174.4,77.1L127,124.8Z" style="fill:rgb(227,24,55);fill-rule:nonzero;"/>
        </g>
        <g transform="matrix(0.348731,0.348731,-0.348731,0.348731,431.445,166.218)">
            <circle cx="126.7" cy="73" r="12.8" style="fill:white;"/>
        </g>
        <g id="path30222" serif:id="path3022" transform="matrix(0.348731,0.348731,-0.348731,0.348731,517.752,166.218)">
            <path d="M71,70.9L120.6,21.3C124.3,17.6 128.5,16.9 133,21.3L179.1,67.4C182.4,70.7 182.1,75.7 179.1,78.7L78.8,178.9C75.2,182.5 70.5,183.1 66.3,178.9L21.2,133.8C17.6,130.2 17.9,124.5 21.2,121.2L71,70.9Z" style="fill:white;fill-rule:nonzero;"/>
        </g>
        <g id="path30002" serif:id="path3000" transform="matrix(0.348731,0.348731,-0.348731,0.348731,517.752,166.218)">
            <path d="M71.8,76L123.7,127.9L76.5,175.1C73.6,178 70.6,178.1 67.6,175.1L24.4,131.9C21.7,129.2 21.9,126.2 24.4,123.7L71.8,76Z" style="fill:rgb(0,100,145);fill-rule:nonzero;"/>
        </g>
        <g id="path30022" serif:id="path3002" transform="matrix(0.348731,0.348731,-0.348731,0.348731,517.752,166.218)">
            <path d="M127,124.8L75.1,72.9L122.3,25.7C125.2,22.8 128.2,22.7 131.2,25.7L174.4,68.9C177.1,71.6 176.9,74.6 174.4,77.1L127,124.8Z" style="fill:rgb(227,24,55);fill-rule:nonzero;"/>
            <clipPath id="_clip1">
                <path d="M127,124.8L75.1,72.9L122.3,25.7C125.2,22.8 128.2,22.7 131.2,25.7L174.4,68.9C177.1,71.6 176.9,74.6 174.4,77.1L127,124.8Z" clip-rule="nonzero"/>
            </clipPath>
            <g clip-path="url(#_clip1)">
                <g transform="matrix(1,0,0,1,54.5242,-55.1258)">
                    <circle cx="90.8" cy="127.9" r="12.8" style="fill:white;"/>
                </g>
                <g transform="matrix(1,0,0,1,54.5242,-55.1258)">
                    <circle cx="53.4" cy="127.9" r="12.8" style="fill:white;"/>
                </g>
            </g>
        </g>
        <g id="path30223" serif:id="path3022" transform="matrix(0.348731,0.348731,-0.348731,0.348731,604.058,166.218)">
            <path d="M71,70.9L120.6,21.3C124.3,17.6 128.5,16.9 133,21.3L179.1,67.4C182.4,70.7 182.1,75.7 179.1,78.7L78.8,178.9C75.2,182.5 70.5,183.1 66.3,178.9L21.2,133.8C17.6,130.2 17.9,124.5 21.2,121.2L71,70.9Z" style="fill:white;fill-rule:nonzero;"/>
        </g>
        <g id="path30003" serif:id="path3000" transform="matrix(0.348731,0.348731,-0.348731,0.348731,604.058,166.218)">
            <path d="M71.8,76L123.7,127.9L76.5,175.1C73.6,178 70.6,178.1 67.6,175.1L24.4,131.9C21.7,129.2 21.9,126.2 24.4,123.7L71.8,76Z" style="fill:rgb(0,100,145);fill-rule:nonzero;"/>
        </g>
        <g id="path30023" serif:id="path3002" transform="matrix(0.348731,0.348731,-0.348731,0.348731,604.058,166.218)">
            <path d="M127,124.8L75.1,72.9L122.3,25.7C125.2,22.8 128.2,22.7 131.2,25.7L174.4,68.9C177.1,71.6 176.9,74.6 174.4,77.1L127,124.8Z" style="fill:rgb(227,24,55);fill-rule:nonzero;"/>
            <clipPath id="_clip2">
                <path d="M127,124.8L75.1,72.9L122.3,25.7C125.2,22.8 128.2,22.7 131.2,25.7L174.4,68.9C177.1,71.6 176.9,74.6 174.4,77.1L127,124.8Z" clip-rule="nonzero"/>
            </clipPath>
            <g clip-path="url(#_clip2)">
                <g transform="matrix(0.792497,-5.55112e-17,5.55112e-17,0.792497,79.7691,-28.2635)">
                    <circle cx="90.8" cy="127.9" r="12.8" style="fill:white;"/>
                </g>
                <g transform="matrix(0.792497,-5.55112e-17,5.55112e-17,0.792497,62.039,-30.3323)">
                    <circle cx="53.4" cy="127.9" r="12.8" style="fill:white;"/>
                </g>
                <g transform="matrix(0.792497,-5.55112e-17,5.55112e-17,0.792497,85.8699,-29.8496)">
                    <circle cx="53.4" cy="127.9" r="12.8" style="fill:white;"/>
                </g>
            </g>
        </g>
        <g id="path30224" serif:id="path3022" transform="matrix(0.348731,0.348731,-0.348731,0.348731,690.365,166.218)">
            <path d="M71,70.9L120.6,21.3C124.3,17.6 128.5,16.9 133,21.3L179.1,67.4C182.4,70.7 182.1,75.7 179.1,78.7L78.8,178.9C75.2,182.5 70.5,183.1 66.3,178.9L21.2,133.8C17.6,130.2 17.9,124.5 21.2,121.2L71,70.9Z" style="fill:white;fill-rule:nonzero;"/>
        </g>
        <g id="path30004" serif:id="path3000" transform="matrix(0.348731,0.348731,-0.348731,0.348731,690.365,166.218)">
            <path d="M71.8,76L123.7,127.9L76.5,175.1C73.6,178 70.6,178.1 67.6,175.1L24.4,131.9C21.7,129.2 21.9,126.2 24.4,123.7L71.8,76Z" style="fill:rgb(0,100,145);fill-rule:nonzero;"/>
        </g>
        <g id="path30024" serif:id="path3002" transform="matrix(0.348731,0.348731,-0.348731,0.348731,690.365,166.218)">
            <path d="M127,124.8L75.1,72.9L122.3,25.7C125.2,22.8 128.2,22.7 131.2,25.7L174.4,68.9C177.1,71.6 176.9,74.6 174.4,77.1L127,124.8Z" style="fill:rgb(227,24,55);fill-rule:nonzero;"/>
            <clipPath id="_clip3">
                <path d="M127,124.8L75.1,72.9L122.3,25.7C125.2,22.8 128.2,22.7 131.2,25.7L174.4,68.9C177.1,71.6 176.9,74.6 174.4,77.1L127,124.8Z" clip-rule="nonzero"/>
            </clipPath>
            <g clip-path="url(#_clip3)">
                <g transform="matrix(0.792497,-5.55112e-17,5.55112e-17,0.792497,79.7691,-28.2635)">
                    <circle cx="90.8" cy="127.9" r="12.8" style="fill:white;"/>
                </g>
                <g transform="matrix(0.792497,-5.55112e-17,5.55112e-17,0.792497,62.039,-30.3323)">
                    <circle cx="53.4" cy="127.9" r="12.8" style="fill:white;"/>
                </g>
                <g transform="matrix(0.792497,-5.55112e-17,5.55112e-17,0.792497,84.6893,-52.9827)">
                    <circle cx="53.4" cy="127.9" r="12.8" style="fill:white;"/>
                </g>
                <g transform="matrix(0.792497,-5.55112e-17,5.55112e-17,0.792497,86.7581,-5.61316)">
                    <circle cx="53.4" cy="127.9" r="12.8" style="fill:white;"/>
                </g>
            </g>
        </g>
        <g id="path30225" serif:id="path3022" transform="matrix(0.348731,0.348731,-0.348731,0.348731,776.671,166.218)">
            <path d="M71,70.9L120.6,21.3C124.3,17.6 128.5,16.9 133,21.3L179.1,67.4C182.4,70.7 182.1,75.7 179.1,78.7L78.8,178.9C75.2,182.5 70.5,183.1 66.3,178.9L21.2,133.8C17.6,130.2 17.9,124.5 21.2,121.2L71,70.9Z" style="fill:white;fill-rule:nonzero;"/>
        </g>
        <g id="path30005" serif:id="path3000" transform="matrix(0.348731,0.348731,-0.348731,0.348731,776.671,166.218)">
            <path d="M71.8,76L123.7,127.9L76.5,175.1C73.6,178 70.6,178.1 67.6,175.1L24.4,131.9C21.7,129.2 21.9,126.2 24.4,123.7L71.8,76Z" style="fill:rgb(0,100,145);fill-rule:nonzero;"/>
        </g>
        <g id="path30025" serif:id="path3002" transform="matrix(0.348731,0.348731,-0.348731,0.348731,776.671,166.218)">
            <path d="M127,124.8L75.1,72.9L122.3,25.7C125.2,22.8 128.2,22.7 131.2,25.7L174.4,68.9C177.1,71.6 176.9,74.6 174.4,77.1L127,124.8Z" style="fill:rgb(227,24,55);fill-rule:nonzero;"/>
            <clipPath id="_clip4">
                <path d="M127,124.8L75.1,72.9L122.3,25.7C125.2,22.8 128.2,22.7 131.2,25.7L174.4,68.9C177.1,71.6 176.9,74.6 174.4,77.1L127,124.8Z" clip-rule="nonzero"/>
            </clipPath>
            <g clip-path="url(#_clip4)">
                <g transform="matrix(0.792497,-5.55112e-17,5.55112e-17,0.792497,83.6021,-28.3354)">
                    <circle cx="90.8" cy="127.9" r="12.8" style="fill:white;"/>
                </g>
                <g transform="matrix(0.792497,-5.55112e-17,5.55112e-17,0.792497,55.8698,-28.3354)">
                    <circle cx="53.4" cy="127.9" r="12.8" style="fill:white;"/>
                </g>
                <g transform="matrix(0.792497,-5.55112e-17,5.55112e-17,0.792497,84.5557,-28.3354)">
                    <circle cx="53.4" cy="127.9" r="12.8" style="fill:white;"/>
                </g>
                <g transform="matrix(0.792497,-5.55112e-17,5.55112e-17,0.792497,84.4753,-56.9408)">
                    <circle cx="53.4" cy="127.9" r="12.8" style="fill:white;"/>
                </g>
                <g transform="matrix(0.792497,-5.55112e-17,5.55112e-17,0.792497,84.5557,0.350475)">
                    <circle cx="53.4" cy="127.9" r="12.8" style="fill:white;"/>
                </g>
            </g>
        </g>
        <g id="path30226" serif:id="path3022" transform="matrix(0.348731,0.348731,-0.348731,0.348731,862.978,166.218)">
            <path d="M71,70.9L120.6,21.3C124.3,17.6 128.5,16.9 133,21.3L179.1,67.4C182.4,70.7 182.1,75.7 179.1,78.7L78.8,178.9C75.2,182.5 70.5,183.1 66.3,178.9L21.2,133.8C17.6,130.2 17.9,124.5 21.2,121.2L71,70.9Z" style="fill:white;fill-rule:nonzero;"/>
        </g>
        <g id="path30006" serif:id="path3000" transform="matrix(0.348731,0.348731,-0.348731,0.348731,862.978,166.218)">
            <path d="M71.8,76L123.7,127.9L76.5,175.1C73.6,178 70.6,178.1 67.6,175.1L24.4,131.9C21.7,129.2 21.9,126.2 24.4,123.7L71.8,76Z" style="fill:rgb(0,100,145);fill-rule:nonzero;"/>
        </g>
        <g id="path30026" serif:id="path3002" transform="matrix(0.348731,0.348731,-0.348731,0.348731,862.978,166.218)">
            <path d="M127,124.8L75.1,72.9L122.3,25.7C125.2,22.8 128.2,22.7 131.2,25.7L174.4,68.9C177.1,71.6 176.9,74.6 174.4,77.1L127,124.8Z" style="fill:rgb(227,24,55);fill-rule:nonzero;"/>
            <clipPath id="_clip5">
                <path d="M127,124.8L75.1,72.9L122.3,25.7C125.2,22.8 128.2,22.7 131.2,25.7L174.4,68.9C177.1,71.6 176.9,74.6 174.4,77.1L127,124.8Z" clip-rule="nonzero"/>
            </clipPath>
            <g clip-path="url(#_clip5)">
                <g transform="matrix(0.792497,-5.55112e-17,5.55112e-17,0.792497,84.1084,-31.6701)">
                    <circle cx="90.8" cy="127.9" r="12.8" style="fill:white;"/>
                </g>
                <g transform="matrix(0.792497,-5.55112e-17,5.55112e-17,0.792497,57.9455,-57.8331)">
                    <circle cx="90.8" cy="127.9" r="12.8" style="fill:white;"/>
                </g>
                <g transform="matrix(0.792497,-5.55112e-17,5.55112e-17,0.792497,67.845,-15.4067)">
                    <circle cx="90.8" cy="127.9" r="12.8" style="fill:white;"/>
                </g>
                <g transform="matrix(0.792497,-5.55112e-17,5.55112e-17,0.792497,41.682,-41.5696)">
                    <circle cx="90.8" cy="127.9" r="12.8" style="fill:white;"/>
                </g>
                <g transform="matrix(0.792497,-5.55112e-17,5.55112e-17,0.792497,51.5815,0.856804)">
                    <circle cx="90.8" cy="127.9" r="12.8" style="fill:white;"/>
                </g>
                <g transform="matrix(0.792497,-5.55112e-17,5.55112e-17,0.792497,25.4186,-25.3061)">
                    <circle cx="90.8" cy="127.9" r="12.8" style="fill:white;"/>
                </g>
            </g>
        </g>
        <g id="path30227" serif:id="path3022" transform="matrix(0.348731,0.348731,-0.348731,0.348731,345.139,222.441)">
            <path d="M71,70.9L120.6,21.3C124.3,17.6 128.5,16.9 133,21.3L179.1,67.4C182.4,70.7 182.1,75.7 179.1,78.7L78.8,178.9C75.2,182.5 70.5,183.1 66.3,178.9L21.2,133.8C17.6,130.2 17.9,124.5 21.2,121.2L71,70.9Z" style="fill:white;fill-rule:nonzero;"/>
        </g>
        <g id="path30007" serif:id="path3000" transform="matrix(0.348731,0.348731,-0.348731,0.348731,345.139,222.441)">
            <path d="M71.8,76L123.7,127.9L76.5,175.1C73.6,178 70.6,178.1 67.6,175.1L24.4,131.9C21.7,129.2 21.9,126.2 24.4,123.7L71.8,76Z" style="fill:rgb(0,100,145);fill-rule:nonzero;"/>
        </g>
        <g transform="matrix(0.348731,0.348731,-0.348731,0.348731,306.935,222.511)">
            <circle cx="126.7" cy="73" r="12.8" style="fill:white;"/>
        </g>
        <g id="path30027" serif:id="path3002" transform="matrix(0.348731,0.348731,-0.348731,0.348731,345.139,222.441)">
            <path d="M127,124.8L75.1,72.9L122.3,25.7C125.2,22.8 128.2,22.7 131.2,25.7L174.4,68.9C177.1,71.6 176.9,74.6 174.4,77.1L127,124.8Z" style="fill:rgb(227,24,55);fill-rule:nonzero;"/>
        </g>
        <g transform="matrix(0.348731,0.348731,-0.348731,0.348731,345.139,222.441)">
            <circle cx="126.7" cy="73" r="12.8" style="fill:white;"/>
        </g>
        <g id="path30228" serif:id="path3022" transform="matrix(0.348731,0.348731,-0.348731,0.348731,431.445,222.441)">
            <path d="M71,70.9L120.6,21.3C124.3,17.6 128.5,16.9 133,21.3L179.1,67.4C182.4,70.7 182.1,75.7 179.1,78.7L78.8,178.9C75.2,182.5 70.5,183.1 66.3,178.9L21.2,133.8C17.6,130.2 17.9,124.5 21.2,121.2L71,70.9Z" style="fill:white;fill-rule:nonzero;"/>
        </g>
        <g id="path30008" serif:id="path3000" transform="matrix(0.348731,0.348731,-0.348731,0.348731,431.445,222.441)">
            <path d="M71.8,76L123.7,127.9L76.5,175.1C73.6,178 70.6,178.1 67.6,175.1L24.4,131.9C21.7,129.2 21.9,126.2 24.4,123.7L71.8,76Z" style="fill:rgb(0,100,145);fill-rule:nonzero;"/>
        </g>
        <g transform="matrix(0.348731,0.348731,-0.348731,0.348731,393.242,222.511)">
            <circle cx="126.7" cy="73" r="12.8" style="fill:white;"/>
        </g>
        <g transform="matrix(0.348731,0.348731,-0.348731,0.348731,431.445,222.441)">
            <circle cx="126.7" cy="73" r="12.8" style="fill:white;"/>
        </g>
        <g id="path30028" serif:id="path3002" transform="matrix(0.348731,0.348731,-0.348731,0.348731,431.393,222.371)">
            <path d="M127,124.8L75.1,72.9L122.3,25.7C125.2,22.8 128.2,22.7 131.2,25.7L174.4,68.9C177.1,71.6 176.9,74.6 174.4,77.1L127,124.8Z" style="fill:rgb(227,24,55);fill-rule:nonzero;"/>
            <clipPath id="_clip6">
                <path d="M127,124.8L75.1,72.9L122.3,25.7C125.2,22.8 128.2,22.7 131.2,25.7L174.4,68.9C177.1,71.6 176.9,74.6 174.4,77.1L127,124.8Z" clip-rule="nonzero"/>
            </clipPath>
            <g clip-path="url(#_clip6)">
                <g transform="matrix(1,0,0,1,54.5242,-55.1258)">
                    <circle cx="90.8" cy="127.9" r="12.8" style="fill:white;"/>
                </g>
                <g transform="matrix(1,0,0,1,54.5242,-55.1258)">
                    <circle cx="53.4" cy="127.9" r="12.8" style="fill:white;"/>
                </g>
            </g>
        </g>
        <g id="path30229" serif:id="path3022" transform="matrix(0.348731,0.348731,-0.348731,0.348731,517.752,222.441)">
            <path d="M71,70.9L120.6,21.3C124.3,17.6 128.5,16.9 133,21.3L179.1,67.4C182.4,70.7 182.1,75.7 179.1,78.7L78.8,178.9C75.2,182.5 70.5,183.1 66.3,178.9L21.2,133.8C17.6,130.2 17.9,124.5 21.2,121.2L71,70.9Z" style="fill:white;fill-rule:nonzero;"/>
        </g>
        <g id="path30009" serif:id="path3000" transform="matrix(0.348731,0.348731,-0.348731,0.348731,517.752,222.441)">
            <path d="M71.8,76L123.7,127.9L76.5,175.1C73.6,178 70.6,178.1 67.6,175.1L24.4,131.9C21.7,129.2 21.9,126.2 24.4,123.7L71.8,76Z" style="fill:rgb(0,100,145);fill-rule:nonzero;"/>
        </g>
        <g transform="matrix(0.348731,0.348731,-0.348731,0.348731,479.548,222.511)">
            <circle cx="126.7" cy="73" r="12.8" style="fill:white;"/>
        </g>
        <g transform="matrix(0.49318,0,0,0.49318,411.944,165.545)">
            <g id="path302210" serif:id="path3022" transform="matrix(0.707107,0.707107,-0.707107,0.707107,389.541,115.365)">
                <path d="M71,70.9L120.6,21.3C124.3,17.6 128.5,16.9 133,21.3L179.1,67.4C182.4,70.7 182.1,75.7 179.1,78.7L78.8,178.9C75.2,182.5 70.5,183.1 66.3,178.9L21.2,133.8C17.6,130.2 17.9,124.5 21.2,121.2L71,70.9Z" style="fill:white;fill-rule:nonzero;"/>
            </g>
            <g id="path300010" serif:id="path3000" transform="matrix(0.707107,0.707107,-0.707107,0.707107,389.541,115.365)">
                <path d="M71.8,76L123.7,127.9L76.5,175.1C73.6,178 70.6,178.1 67.6,175.1L24.4,131.9C21.7,129.2 21.9,126.2 24.4,123.7L71.8,76Z" style="fill:rgb(0,100,145);fill-rule:nonzero;"/>
            </g>
            <g transform="matrix(0.707107,0.707107,-0.707107,0.707107,312.078,115.506)">
                <circle cx="126.7" cy="73" r="12.8" style="fill:white;"/>
            </g>
        </g>
        <g id="path302211" serif:id="path3022" transform="matrix(0.348731,0.348731,-0.348731,0.348731,690.365,222.441)">
            <path d="M71,70.9L120.6,21.3C124.3,17.6 128.5,16.9 133,21.3L179.1,67.4C182.4,70.7 182.1,75.7 179.1,78.7L78.8,178.9C75.2,182.5 70.5,183.1 66.3,178.9L21.2,133.8C17.6,130.2 17.9,124.5 21.2,121.2L71,70.9Z" style="fill:white;fill-rule:nonzero;"/>
        </g>
        <g id="path300011" serif:id="path3000" transform="matrix(0.348731,0.348731,-0.348731,0.348731,690.365,222.441)">
            <path d="M71.8,76L123.7,127.9L76.5,175.1C73.6,178 70.6,178.1 67.6,175.1L24.4,131.9C21.7,129.2 21.9,126.2 24.4,123.7L71.8,76Z" style="fill:rgb(0,100,145);fill-rule:nonzero;"/>
        </g>
        <g transform="matrix(0.348731,0.348731,-0.348731,0.348731,652.161,222.511)">
            <circle cx="126.7" cy="73" r="12.8" style="fill:white;"/>
        </g>
        <g transform="matrix(0.49318,0,0,0.49318,584.557,165.545)">
            <g id="path302212" serif:id="path3022" transform="matrix(0.707107,0.707107,-0.707107,0.707107,389.541,115.365)">
                <path d="M71,70.9L120.6,21.3C124.3,17.6 128.5,16.9 133,21.3L179.1,67.4C182.4,70.7 182.1,75.7 179.1,78.7L78.8,178.9C75.2,182.5 70.5,183.1 66.3,178.9L21.2,133.8C17.6,130.2 17.9,124.5 21.2,121.2L71,70.9Z" style="fill:white;fill-rule:nonzero;"/>
            </g>
            <g id="path300012" serif:id="path3000" transform="matrix(0.707107,0.707107,-0.707107,0.707107,389.541,115.365)">
                <path d="M71.8,76L123.7,127.9L76.5,175.1C73.6,178 70.6,178.1 67.6,175.1L24.4,131.9C21.7,129.2 21.9,126.2 24.4,123.7L71.8,76Z" style="fill:rgb(0,100,145);fill-rule:nonzero;"/>
            </g>
            <g transform="matrix(0.707107,0.707107,-0.707107,0.707107,312.078,115.506)">
                <circle cx="126.7" cy="73" r="12.8" style="fill:white;"/>
            </g>
        </g>
        <g id="path30029" serif:id="path3002" transform="matrix(0.348731,0.348731,-0.348731,0.348731,517.961,222.423)">
            <path d="M127,124.8L75.1,72.9L122.3,25.7C125.2,22.8 128.2,22.7 131.2,25.7L174.4,68.9C177.1,71.6 176.9,74.6 174.4,77.1L127,124.8Z" style="fill:rgb(227,24,55);fill-rule:nonzero;"/>
            <clipPath id="_clip7">
                <path d="M127,124.8L75.1,72.9L122.3,25.7C125.2,22.8 128.2,22.7 131.2,25.7L174.4,68.9C177.1,71.6 176.9,74.6 174.4,77.1L127,124.8Z" clip-rule="nonzero"/>
            </clipPath>
            <g clip-path="url(#_clip7)">
                <g transform="matrix(0.792497,-5.55112e-17,5.55112e-17,0.792497,79.7691,-28.2635)">
                    <circle cx="90.8" cy="127.9" r="12.8" style="fill:white;"/>
                </g>
                <g transform="matrix(0.792497,-5.55112e-17,5.55112e-17,0.792497,62.039,-30.3323)">
                    <circle cx="53.4" cy="127.9" r="12.8" style="fill:white;"/>
                </g>
                <g transform="matrix(0.792497,-5.55112e-17,5.55112e-17,0.792497,85.8699,-29.8496)">
                    <circle cx="53.4" cy="127.9" r="12.8" style="fill:white;"/>
                </g>
            </g>
        </g>
        <g id="path300210" serif:id="path3002" transform="matrix(0.348731,0.348731,-0.348731,0.348731,604.058,222.354)">
            <path d="M127,124.8L75.1,72.9L122.3,25.7C125.2,22.8 128.2,22.7 131.2,25.7L174.4,68.9C177.1,71.6 176.9,74.6 174.4,77.1L127,124.8Z" style="fill:rgb(227,24,55);fill-rule:nonzero;"/>
            <clipPath id="_clip8">
                <path d="M127,124.8L75.1,72.9L122.3,25.7C125.2,22.8 128.2,22.7 131.2,25.7L174.4,68.9C177.1,71.6 176.9,74.6 174.4,77.1L127,124.8Z" clip-rule="nonzero"/>
            </clipPath>
            <g clip-path="url(#_clip8)">
                <g transform="matrix(0.792497,-5.55112e-17,5.55112e-17,0.792497,79.7691,-28.2635)">
                    <circle cx="90.8" cy="127.9" r="12.8" style="fill:white;"/>
                </g>
                <g transform="matrix(0.792497,-5.55112e-17,5.55112e-17,0.792497,62.039,-30.3323)">
                    <circle cx="53.4" cy="127.9" r="12.8" style="fill:white;"/>
                </g>
                <g transform="matrix(0.792497,-5.55112e-17,5.55112e-17,0.792497,84.6893,-52.9827)">
                    <circle cx="53.4" cy="127.9" r="12.8" style="fill:white;"/>
                </g>
                <g transform="matrix(0.792497,-5.55112e-17,5.55112e-17,0.792497,86.7581,-5.61316)">
                    <circle cx="53.4" cy="127.9" r="12.8" style="fill:white;"/>
                </g>
            </g>
        </g>
        <g id="path300211" serif:id="path3002" transform="matrix(0.348731,0.348731,-0.348731,0.348731,690.365,222.354)">
            <path d="M127,124.8L75.1,72.9L122.3,25.7C125.2,22.8 128.2,22.7 131.2,25.7L174.4,68.9C177.1,71.6 176.9,74.6 174.4,77.1L127,124.8Z" style="fill:rgb(227,24,55);fill-rule:nonzero;"/>
            <clipPath id="_clip9">
                <path d="M127,124.8L75.1,72.9L122.3,25.7C125.2,22.8 128.2,22.7 131.2,25.7L174.4,68.9C177.1,71.6 176.9,74.6 174.4,77.1L127,124.8Z" clip-rule="nonzero"/>
            </clipPath>
            <g clip-path="url(#_clip9)">
                <g transform="matrix(0.792497,-5.55112e-17,5.55112e-17,0.792497,83.6021,-28.3354)">
                    <circle cx="90.8" cy="127.9" r="12.8" style="fill:white;"/>
                </g>
                <g transform="matrix(0.792497,-5.55112e-17,5.55112e-17,0.792497,55.8698,-28.3354)">
                    <circle cx="53.4" cy="127.9" r="12.8" style="fill:white;"/>
                </g>
                <g transform="matrix(0.792497,-5.55112e-17,5.55112e-17,0.792497,84.5557,-28.3354)">
                    <circle cx="53.4" cy="127.9" r="12.8" style="fill:white;"/>
                </g>
                <g transform="matrix(0.792497,-5.55112e-17,5.55112e-17,0.792497,84.4753,-56.9408)">
                    <circle cx="53.4" cy="127.9" r="12.8" style="fill:white;"/>
                </g>
                <g transform="matrix(0.792497,-5.55112e-17,5.55112e-17,0.792497,84.5557,0.350475)">
                    <circle cx="53.4" cy="127.9" r="12.8" style="fill:white;"/>
                </g>
            </g>
        </g>
        <g id="path300212" serif:id="path3002" transform="matrix(0.348731,0.348731,-0.348731,0.348731,776.671,222.423)">
            <path d="M127,124.8L75.1,72.9L122.3,25.7C125.2,22.8 128.2,22.7 131.2,25.7L174.4,68.9C177.1,71.6 176.9,74.6 174.4,77.1L127,124.8Z" style="fill:rgb(227,24,55);fill-rule:nonzero;"/>
            <clipPath id="_clip10">
                <path d="M127,124.8L75.1,72.9L122.3,25.7C125.2,22.8 128.2,22.7 131.2,25.7L174.4,68.9C177.1,71.6 176.9,74.6 174.4,77.1L127,124.8Z" clip-rule="nonzero"/>
            </clipPath>
            <g clip-path="url(#_clip10)">
                <g transform="matrix(0.792497,-5.55112e-17,5.55112e-17,0.792497,84.1084,-31.6701)">
                    <circle cx="90.8" cy="127.9" r="12.8" style="fill:white;"/>
                </g>
                <g transform="matrix(0.792497,-5.55112e-17,5.55112e-17,0.792497,57.9455,-57.8331)">
                    <circle cx="90.8" cy="127.9" r="12.8" style="fill:white;"/>
                </g>
                <g transform="matrix(0.792497,-5.55112e-17,5.55112e-17,0.792497,67.845,-15.4067)">
                    <circle cx="90.8" cy="127.9" r="12.8" style="fill:white;"/>
                </g>
                <g transform="matrix(0.792497,-5.55112e-17,5.55112e-17,0.792497,41.682,-41.5696)">
                    <circle cx="90.8" cy="127.9" r="12.8" style="fill:white;"/>
                </g>
                <g transform="matrix(0.792497,-5.55112e-17,5.55112e-17,0.792497,51.5815,0.856804)">
                    <circle cx="90.8" cy="127.9" r="12.8" style="fill:white;"/>
                </g>
                <g transform="matrix(0.792497,-5.55112e-17,5.55112e-17,0.792497,25.4186,-25.3061)">
                    <circle cx="90.8" cy="127.9" r="12.8" style="fill:white;"/>
                </g>
            </g>
        </g>
        <g id="path302213" serif:id="path3022" transform="matrix(0.348731,0.348731,-0.348731,0.348731,345.139,278.663)">
            <path d="M71,70.9L120.6,21.3C124.3,17.6 128.5,16.9 133,21.3L179.1,67.4C182.4,70.7 182.1,75.7 179.1,78.7L78.8,178.9C75.2,182.5 70.5,183.1 66.3,178.9L21.2,133.8C17.6,130.2 17.9,124.5 21.2,121.2L71,70.9Z" style="fill:white;fill-rule:nonzero;"/>
        </g>
        <g id="path302214" serif:id="path3022" transform="matrix(0.348731,0.348731,-0.348731,0.348731,341.198,332.339)">
            <path d="M71,70.9L120.6,21.3C124.3,17.6 128.5,16.9 133,21.3L179.1,67.4C182.4,70.7 182.1,75.7 179.1,78.7L78.8,178.9C75.2,182.5 70.5,183.1 66.3,178.9L21.2,133.8C17.6,130.2 17.9,124.5 21.2,121.2L71,70.9Z" style="fill:white;fill-rule:nonzero;"/>
        </g>
        <g transform="matrix(0.348731,0.348731,-0.348731,0.348731,306.935,278.733)">
            <circle cx="126.7" cy="73" r="12.8" style="fill:white;"/>
        </g>
        <g transform="matrix(0.348731,0.348731,-0.348731,0.348731,302.995,332.409)">
            <circle cx="126.7" cy="73" r="12.8" style="fill:white;"/>
        </g>
        <g transform="matrix(0.348731,0.348731,-0.348731,0.348731,345.139,278.663)">
            <circle cx="126.7" cy="73" r="12.8" style="fill:white;"/>
        </g>
        <g transform="matrix(0.348731,0.348731,-0.348731,0.348731,341.198,332.339)">
            <circle cx="126.7" cy="73" r="12.8" style="fill:white;"/>
        </g>
        <g id="path300213" serif:id="path3002" transform="matrix(0.348731,0.348731,-0.348731,0.348731,345.086,278.594)">
            <path d="M127,124.8L75.1,72.9L122.3,25.7C125.2,22.8 128.2,22.7 131.2,25.7L174.4,68.9C177.1,71.6 176.9,74.6 174.4,77.1L127,124.8Z" style="fill:rgb(227,24,55);fill-rule:nonzero;"/>
            <clipPath id="_clip11">
                <path d="M127,124.8L75.1,72.9L122.3,25.7C125.2,22.8 128.2,22.7 131.2,25.7L174.4,68.9C177.1,71.6 176.9,74.6 174.4,77.1L127,124.8Z" clip-rule="nonzero"/>
            </clipPath>
            <g clip-path="url(#_clip11)">
                <g transform="matrix(1,0,0,1,54.5242,-55.1258)">
                    <circle cx="90.8" cy="127.9" r="12.8" style="fill:white;"/>
                </g>
                <g transform="matrix(1,0,0,1,54.5242,-55.1258)">
                    <circle cx="53.4" cy="127.9" r="12.8" style="fill:white;"/>
                </g>
            </g>
        </g>
        <g id="path300214" serif:id="path3002" transform="matrix(-0.348731,0.348731,0.348731,0.348731,344.441,278.209)">
            <path d="M127,124.8L75.1,72.9L122.3,25.7C125.2,22.8 128.2,22.7 131.2,25.7L174.4,68.9C177.1,71.6 176.9,74.6 174.4,77.1L127,124.8Z" style="fill:rgb(0,100,145);fill-rule:nonzero;"/>
            <clipPath id="_clip12">
                <path d="M127,124.8L75.1,72.9L122.3,25.7C125.2,22.8 128.2,22.7 131.2,25.7L174.4,68.9C177.1,71.6 176.9,74.6 174.4,77.1L127,124.8Z" clip-rule="nonzero"/>
            </clipPath>
            <g clip-path="url(#_clip12)">
                <g transform="matrix(-2.22045e-16,1,1,2.22045e-16,-1.27581,0.674192)">
                    <circle cx="90.8" cy="127.9" r="12.8" style="fill:white;"/>
                </g>
                <g transform="matrix(-2.22045e-16,1,1,2.22045e-16,-1.27581,0.674192)">
                    <circle cx="53.4" cy="127.9" r="12.8" style="fill:white;"/>
                </g>
            </g>
        </g>
        <g id="path302215" serif:id="path3022" transform="matrix(0.348731,0.348731,-0.348731,0.348731,431.445,278.663)">
            <path d="M71,70.9L120.6,21.3C124.3,17.6 128.5,16.9 133,21.3L179.1,67.4C182.4,70.7 182.1,75.7 179.1,78.7L78.8,178.9C75.2,182.5 70.5,183.1 66.3,178.9L21.2,133.8C17.6,130.2 17.9,124.5 21.2,121.2L71,70.9Z" style="fill:white;fill-rule:nonzero;"/>
        </g>
        <g id="path302216" serif:id="path3022" transform="matrix(0.348731,0.348731,-0.348731,0.348731,342.977,334.886)">
            <path d="M71,70.9L120.6,21.3C124.3,17.6 128.5,16.9 133,21.3L179.1,67.4C182.4,70.7 182.1,75.7 179.1,78.7L78.8,178.9C75.2,182.5 70.5,183.1 66.3,178.9L21.2,133.8C17.6,130.2 17.9,124.5 21.2,121.2L71,70.9Z" style="fill:white;fill-rule:nonzero;"/>
        </g>
        <g transform="matrix(0.348731,0.348731,-0.348731,0.348731,393.242,278.733)">
            <circle cx="126.7" cy="73" r="12.8" style="fill:white;"/>
        </g>
        <g transform="matrix(0.348731,0.348731,-0.348731,0.348731,304.773,334.956)">
            <circle cx="126.7" cy="73" r="12.8" style="fill:white;"/>
        </g>
        <g id="path302217" serif:id="path3022" transform="matrix(0.348731,0.348731,-0.348731,0.348731,517.752,278.663)">
            <path d="M71,70.9L120.6,21.3C124.3,17.6 128.5,16.9 133,21.3L179.1,67.4C182.4,70.7 182.1,75.7 179.1,78.7L78.8,178.9C75.2,182.5 70.5,183.1 66.3,178.9L21.2,133.8C17.6,130.2 17.9,124.5 21.2,121.2L71,70.9Z" style="fill:white;fill-rule:nonzero;"/>
        </g>
        <g id="path302218" serif:id="path3022" transform="matrix(0.348731,0.348731,-0.348731,0.348731,429.283,334.886)">
            <path d="M71,70.9L120.6,21.3C124.3,17.6 128.5,16.9 133,21.3L179.1,67.4C182.4,70.7 182.1,75.7 179.1,78.7L78.8,178.9C75.2,182.5 70.5,183.1 66.3,178.9L21.2,133.8C17.6,130.2 17.9,124.5 21.2,121.2L71,70.9Z" style="fill:white;fill-rule:nonzero;"/>
        </g>
        <g transform="matrix(0.348731,0.348731,-0.348731,0.348731,479.548,278.733)">
            <circle cx="126.7" cy="73" r="12.8" style="fill:white;"/>
        </g>
        <g transform="matrix(0.348731,0.348731,-0.348731,0.348731,391.08,334.956)">
            <circle cx="126.7" cy="73" r="12.8" style="fill:white;"/>
        </g>
        <g id="path302219" serif:id="path3022" transform="matrix(0.348731,0.348731,-0.348731,0.348731,604.058,278.663)">
            <path d="M71,70.9L120.6,21.3C124.3,17.6 128.5,16.9 133,21.3L179.1,67.4C182.4,70.7 182.1,75.7 179.1,78.7L78.8,178.9C75.2,182.5 70.5,183.1 66.3,178.9L21.2,133.8C17.6,130.2 17.9,124.5 21.2,121.2L71,70.9Z" style="fill:white;fill-rule:nonzero;"/>
        </g>
        <g id="path302220" serif:id="path3022" transform="matrix(0.348731,0.348731,-0.348731,0.348731,515.59,334.886)">
            <path d="M71,70.9L120.6,21.3C124.3,17.6 128.5,16.9 133,21.3L179.1,67.4C182.4,70.7 182.1,75.7 179.1,78.7L78.8,178.9C75.2,182.5 70.5,183.1 66.3,178.9L21.2,133.8C17.6,130.2 17.9,124.5 21.2,121.2L71,70.9Z" style="fill:white;fill-rule:nonzero;"/>
        </g>
        <g transform="matrix(0.348731,0.348731,-0.348731,0.348731,565.855,278.733)">
            <circle cx="126.7" cy="73" r="12.8" style="fill:white;"/>
        </g>
        <g transform="matrix(0.348731,0.348731,-0.348731,0.348731,477.386,334.956)">
            <circle cx="126.7" cy="73" r="12.8" style="fill:white;"/>
        </g>
        <g id="path302221" serif:id="path3022" transform="matrix(0.348731,0.348731,-0.348731,0.348731,690.365,278.663)">
            <path d="M71,70.9L120.6,21.3C124.3,17.6 128.5,16.9 133,21.3L179.1,67.4C182.4,70.7 182.1,75.7 179.1,78.7L78.8,178.9C75.2,182.5 70.5,183.1 66.3,178.9L21.2,133.8C17.6,130.2 17.9,124.5 21.2,121.2L71,70.9Z" style="fill:white;fill-rule:nonzero;"/>
        </g>
        <g id="path302222" serif:id="path3022" transform="matrix(0.348731,0.348731,-0.348731,0.348731,601.896,334.886)">
            <path d="M71,70.9L120.6,21.3C124.3,17.6 128.5,16.9 133,21.3L179.1,67.4C182.4,70.7 182.1,75.7 179.1,78.7L78.8,178.9C75.2,182.5 70.5,183.1 66.3,178.9L21.2,133.8C17.6,130.2 17.9,124.5 21.2,121.2L71,70.9Z" style="fill:white;fill-rule:nonzero;"/>
        </g>
        <g transform="matrix(0.348731,0.348731,-0.348731,0.348731,652.161,278.733)">
            <circle cx="126.7" cy="73" r="12.8" style="fill:white;"/>
        </g>
        <g transform="matrix(0.348731,0.348731,-0.348731,0.348731,563.693,334.956)">
            <circle cx="126.7" cy="73" r="12.8" style="fill:white;"/>
        </g>
        <g id="path300215" serif:id="path3002" transform="matrix(0.348731,0.348731,-0.348731,0.348731,431.655,278.646)">
            <path d="M127,124.8L75.1,72.9L122.3,25.7C125.2,22.8 128.2,22.7 131.2,25.7L174.4,68.9C177.1,71.6 176.9,74.6 174.4,77.1L127,124.8Z" style="fill:rgb(227,24,55);fill-rule:nonzero;"/>
            <clipPath id="_clip13">
                <path d="M127,124.8L75.1,72.9L122.3,25.7C125.2,22.8 128.2,22.7 131.2,25.7L174.4,68.9C177.1,71.6 176.9,74.6 174.4,77.1L127,124.8Z" clip-rule="nonzero"/>
            </clipPath>
            <g clip-path="url(#_clip13)">
                <g transform="matrix(0.792497,-5.55112e-17,5.55112e-17,0.792497,79.7691,-28.2635)">
                    <circle cx="90.8" cy="127.9" r="12.8" style="fill:white;"/>
                </g>
                <g transform="matrix(0.792497,-5.55112e-17,5.55112e-17,0.792497,62.039,-30.3323)">
                    <circle cx="53.4" cy="127.9" r="12.8" style="fill:white;"/>
                </g>
                <g transform="matrix(0.792497,-5.55112e-17,5.55112e-17,0.792497,85.8699,-29.8496)">
                    <circle cx="53.4" cy="127.9" r="12.8" style="fill:white;"/>
                </g>
            </g>
        </g>
        <g id="path300216" serif:id="path3002" transform="matrix(0.348731,0.348731,-0.348731,0.348731,345.139,334.99)">
            <path d="M127,124.8L75.1,72.9L122.3,25.7C125.2,22.8 128.2,22.7 131.2,25.7L174.4,68.9C177.1,71.6 176.9,74.6 174.4,77.1L127,124.8Z" style="fill:rgb(227,24,55);fill-rule:nonzero;"/>
            <clipPath id="_clip14">
                <path d="M127,124.8L75.1,72.9L122.3,25.7C125.2,22.8 128.2,22.7 131.2,25.7L174.4,68.9C177.1,71.6 176.9,74.6 174.4,77.1L127,124.8Z" clip-rule="nonzero"/>
            </clipPath>
            <g clip-path="url(#_clip14)">
                <g transform="matrix(0.792497,-5.55112e-17,5.55112e-17,0.792497,79.7691,-28.2635)">
                    <circle cx="90.8" cy="127.9" r="12.8" style="fill:white;"/>
                </g>
                <g transform="matrix(0.792497,-5.55112e-17,5.55112e-17,0.792497,62.039,-30.3323)">
                    <circle cx="53.4" cy="127.9" r="12.8" style="fill:white;"/>
                </g>
                <g transform="matrix(0.792497,-5.55112e-17,5.55112e-17,0.792497,85.8699,-29.8496)">
                    <circle cx="53.4" cy="127.9" r="12.8" style="fill:white;"/>
                </g>
            </g>
        </g>
        <g id="path300217" serif:id="path3002" transform="matrix(-0.348731,0.348731,0.348731,0.348731,344.231,334.99)">
            <path d="M127,124.8L75.1,72.9L122.3,25.7C125.2,22.8 128.2,22.7 131.2,25.7L174.4,68.9C177.1,71.6 176.9,74.6 174.4,77.1L127,124.8Z" style="fill:rgb(0,100,145);fill-rule:nonzero;"/>
            <clipPath id="_clip15">
                <path d="M127,124.8L75.1,72.9L122.3,25.7C125.2,22.8 128.2,22.7 131.2,25.7L174.4,68.9C177.1,71.6 176.9,74.6 174.4,77.1L127,124.8Z" clip-rule="nonzero"/>
            </clipPath>
            <g clip-path="url(#_clip15)">
                <g transform="matrix(-1.66533e-16,0.792497,0.792497,1.66533e-16,25.5865,25.9191)">
                    <circle cx="90.8" cy="127.9" r="12.8" style="fill:white;"/>
                </g>
                <g transform="matrix(-1.66533e-16,0.792497,0.792497,1.66533e-16,23.5177,8.18896)">
                    <circle cx="53.4" cy="127.9" r="12.8" style="fill:white;"/>
                </g>
                <g transform="matrix(-1.66533e-16,0.792497,0.792497,1.66533e-16,24.0004,32.0199)">
                    <circle cx="53.4" cy="127.9" r="12.8" style="fill:white;"/>
                </g>
            </g>
        </g>
        <g id="path300218" serif:id="path3002" transform="matrix(-0.348731,0.348731,0.348731,0.348731,430.538,334.921)">
            <path d="M127,124.8L75.1,72.9L122.3,25.7C125.2,22.8 128.2,22.7 131.2,25.7L174.4,68.9C177.1,71.6 176.9,74.6 174.4,77.1L127,124.8Z" style="fill:rgb(0,100,145);fill-rule:nonzero;"/>
            <clipPath id="_clip16">
                <path d="M127,124.8L75.1,72.9L122.3,25.7C125.2,22.8 128.2,22.7 131.2,25.7L174.4,68.9C177.1,71.6 176.9,74.6 174.4,77.1L127,124.8Z" clip-rule="nonzero"/>
            </clipPath>
            <g clip-path="url(#_clip16)">
                <g transform="matrix(-1.66533e-16,0.792497,0.792497,1.66533e-16,25.5865,25.9191)">
                    <circle cx="90.8" cy="127.9" r="12.8" style="fill:white;"/>
                </g>
                <g transform="matrix(-1.66533e-16,0.792497,0.792497,1.66533e-16,23.5177,8.18896)">
                    <circle cx="53.4" cy="127.9" r="12.8" style="fill:white;"/>
                </g>
                <g transform="matrix(-1.66533e-16,0.792497,0.792497,1.66533e-16,24.0004,32.0199)">
                    <circle cx="53.4" cy="127.9" r="12.8" style="fill:white;"/>
                </g>
            </g>
        </g>
        <g id="path300219" serif:id="path3002" transform="matrix(-0.348731,0.348731,0.348731,0.348731,517.054,334.99)">
            <path d="M127,124.8L75.1,72.9L122.3,25.7C125.2,22.8 128.2,22.7 131.2,25.7L174.4,68.9C177.1,71.6 176.9,74.6 174.4,77.1L127,124.8Z" style="fill:rgb(0,100,145);fill-rule:nonzero;"/>
            <clipPath id="_clip17">
                <path d="M127,124.8L75.1,72.9L122.3,25.7C125.2,22.8 128.2,22.7 131.2,25.7L174.4,68.9C177.1,71.6 176.9,74.6 174.4,77.1L127,124.8Z" clip-rule="nonzero"/>
            </clipPath>
            <g clip-path="url(#_clip17)">
                <g transform="matrix(-1.66533e-16,0.792497,0.792497,1.66533e-16,25.5865,25.9191)">
                    <circle cx="90.8" cy="127.9" r="12.8" style="fill:white;"/>
                </g>
                <g transform="matrix(-1.66533e-16,0.792497,0.792497,1.66533e-16,23.5177,8.18896)">
                    <circle cx="53.4" cy="127.9" r="12.8" style="fill:white;"/>
                </g>
                <g transform="matrix(-1.66533e-16,0.792497,0.792497,1.66533e-16,24.0004,32.0199)">
                    <circle cx="53.4" cy="127.9" r="12.8" style="fill:white;"/>
                </g>
            </g>
        </g>
        <g id="path300220" serif:id="path3002" transform="matrix(-0.348731,0.348731,0.348731,0.348731,603.151,334.99)">
            <path d="M127,124.8L75.1,72.9L122.3,25.7C125.2,22.8 128.2,22.7 131.2,25.7L174.4,68.9C177.1,71.6 176.9,74.6 174.4,77.1L127,124.8Z" style="fill:rgb(0,100,145);fill-rule:nonzero;"/>
            <clipPath id="_clip18">
                <path d="M127,124.8L75.1,72.9L122.3,25.7C125.2,22.8 128.2,22.7 131.2,25.7L174.4,68.9C177.1,71.6 176.9,74.6 174.4,77.1L127,124.8Z" clip-rule="nonzero"/>
            </clipPath>
            <g clip-path="url(#_clip18)">
                <g transform="matrix(-1.66533e-16,0.792497,0.792497,1.66533e-16,25.5865,25.9191)">
                    <circle cx="90.8" cy="127.9" r="12.8" style="fill:white;"/>
                </g>
                <g transform="matrix(-1.66533e-16,0.792497,0.792497,1.66533e-16,23.5177,8.18896)">
                    <circle cx="53.4" cy="127.9" r="12.8" style="fill:white;"/>
                </g>
                <g transform="matrix(-1.66533e-16,0.792497,0.792497,1.66533e-16,24.0004,32.0199)">
                    <circle cx="53.4" cy="127.9" r="12.8" style="fill:white;"/>
                </g>
            </g>
        </g>
        <g id="path300221" serif:id="path3002" transform="matrix(0.348731,0.348731,-0.348731,0.348731,517.752,278.576)">
            <path d="M127,124.8L75.1,72.9L122.3,25.7C125.2,22.8 128.2,22.7 131.2,25.7L174.4,68.9C177.1,71.6 176.9,74.6 174.4,77.1L127,124.8Z" style="fill:rgb(227,24,55);fill-rule:nonzero;"/>
            <clipPath id="_clip19">
                <path d="M127,124.8L75.1,72.9L122.3,25.7C125.2,22.8 128.2,22.7 131.2,25.7L174.4,68.9C177.1,71.6 176.9,74.6 174.4,77.1L127,124.8Z" clip-rule="nonzero"/>
            </clipPath>
            <g clip-path="url(#_clip19)">
                <g transform="matrix(0.792497,-5.55112e-17,5.55112e-17,0.792497,79.7691,-28.2635)">
                    <circle cx="90.8" cy="127.9" r="12.8" style="fill:white;"/>
                </g>
                <g transform="matrix(0.792497,-5.55112e-17,5.55112e-17,0.792497,62.039,-30.3323)">
                    <circle cx="53.4" cy="127.9" r="12.8" style="fill:white;"/>
                </g>
                <g transform="matrix(0.792497,-5.55112e-17,5.55112e-17,0.792497,84.6893,-52.9827)">
                    <circle cx="53.4" cy="127.9" r="12.8" style="fill:white;"/>
                </g>
                <g transform="matrix(0.792497,-5.55112e-17,5.55112e-17,0.792497,86.7581,-5.61316)">
                    <circle cx="53.4" cy="127.9" r="12.8" style="fill:white;"/>
                </g>
            </g>
        </g>
        <g id="path300222" serif:id="path3002" transform="matrix(0.348731,0.348731,-0.348731,0.348731,431.183,334.99)">
            <path d="M127,124.8L75.1,72.9L122.3,25.7C125.2,22.8 128.2,22.7 131.2,25.7L174.4,68.9C177.1,71.6 176.9,74.6 174.4,77.1L127,124.8Z" style="fill:rgb(227,24,55);fill-rule:nonzero;"/>
            <clipPath id="_clip20">
                <path d="M127,124.8L75.1,72.9L122.3,25.7C125.2,22.8 128.2,22.7 131.2,25.7L174.4,68.9C177.1,71.6 176.9,74.6 174.4,77.1L127,124.8Z" clip-rule="nonzero"/>
            </clipPath>
            <g clip-path="url(#_clip20)">
                <g transform="matrix(0.792497,-5.55112e-17,5.55112e-17,0.792497,79.7691,-28.2635)">
                    <circle cx="90.8" cy="127.9" r="12.8" style="fill:white;"/>
                </g>
                <g transform="matrix(0.792497,-5.55112e-17,5.55112e-17,0.792497,62.039,-30.3323)">
                    <circle cx="53.4" cy="127.9" r="12.8" style="fill:white;"/>
                </g>
                <g transform="matrix(0.792497,-5.55112e-17,5.55112e-17,0.792497,84.6893,-52.9827)">
                    <circle cx="53.4" cy="127.9" r="12.8" style="fill:white;"/>
                </g>
                <g transform="matrix(0.792497,-5.55112e-17,5.55112e-17,0.792497,86.7581,-5.61316)">
                    <circle cx="53.4" cy="127.9" r="12.8" style="fill:white;"/>
                </g>
            </g>
        </g>
        <g id="path300223" serif:id="path3002" transform="matrix(0.348731,0.348731,-0.348731,0.348731,604.058,278.576)">
            <path d="M127,124.8L75.1,72.9L122.3,25.7C125.2,22.8 128.2,22.7 131.2,25.7L174.4,68.9C177.1,71.6 176.9,74.6 174.4,77.1L127,124.8Z" style="fill:rgb(227,24,55);fill-rule:nonzero;"/>
            <clipPath id="_clip21">
                <path d="M127,124.8L75.1,72.9L122.3,25.7C125.2,22.8 128.2,22.7 131.2,25.7L174.4,68.9C177.1,71.6 176.9,74.6 174.4,77.1L127,124.8Z" clip-rule="nonzero"/>
            </clipPath>
            <g clip-path="url(#_clip21)">
                <g transform="matrix(0.792497,-5.55112e-17,5.55112e-17,0.792497,83.6021,-28.3354)">
                    <circle cx="90.8" cy="127.9" r="12.8" style="fill:white;"/>
                </g>
                <g transform="matrix(0.792497,-5.55112e-17,5.55112e-17,0.792497,55.8698,-28.3354)">
                    <circle cx="53.4" cy="127.9" r="12.8" style="fill:white;"/>
                </g>
                <g transform="matrix(0.792497,-5.55112e-17,5.55112e-17,0.792497,84.5557,-28.3354)">
                    <circle cx="53.4" cy="127.9" r="12.8" style="fill:white;"/>
                </g>
                <g transform="matrix(0.792497,-5.55112e-17,5.55112e-17,0.792497,84.4753,-56.9408)">
                    <circle cx="53.4" cy="127.9" r="12.8" style="fill:white;"/>
                </g>
                <g transform="matrix(0.792497,-5.55112e-17,5.55112e-17,0.792497,84.5557,0.350475)">
                    <circle cx="53.4" cy="127.9" r="12.8" style="fill:white;"/>
                </g>
            </g>
        </g>
        <g id="path300224" serif:id="path3002" transform="matrix(0.348731,0.348731,-0.348731,0.348731,517.961,334.99)">
            <path d="M127,124.8L75.1,72.9L122.3,25.7C125.2,22.8 128.2,22.7 131.2,25.7L174.4,68.9C177.1,71.6 176.9,74.6 174.4,77.1L127,124.8Z" style="fill:rgb(227,24,55);fill-rule:nonzero;"/>
            <clipPath id="_clip22">
                <path d="M127,124.8L75.1,72.9L122.3,25.7C125.2,22.8 128.2,22.7 131.2,25.7L174.4,68.9C177.1,71.6 176.9,74.6 174.4,77.1L127,124.8Z" clip-rule="nonzero"/>
            </clipPath>
            <g clip-path="url(#_clip22)">
                <g transform="matrix(0.792497,-5.55112e-17,5.55112e-17,0.792497,83.6021,-28.3354)">
                    <circle cx="90.8" cy="127.9" r="12.8" style="fill:white;"/>
                </g>
                <g transform="matrix(0.792497,-5.55112e-17,5.55112e-17,0.792497,55.8698,-28.3354)">
                    <circle cx="53.4" cy="127.9" r="12.8" style="fill:white;"/>
                </g>
                <g transform="matrix(0.792497,-5.55112e-17,5.55112e-17,0.792497,84.5557,-28.3354)">
                    <circle cx="53.4" cy="127.9" r="12.8" style="fill:white;"/>
                </g>
                <g transform="matrix(0.792497,-5.55112e-17,5.55112e-17,0.792497,84.4753,-56.9408)">
                    <circle cx="53.4" cy="127.9" r="12.8" style="fill:white;"/>
                </g>
                <g transform="matrix(0.792497,-5.55112e-17,5.55112e-17,0.792497,84.5557,0.350475)">
                    <circle cx="53.4" cy="127.9" r="12.8" style="fill:white;"/>
                </g>
            </g>
        </g>
        <g id="path300225" serif:id="path3002" transform="matrix(0.348731,0.348731,-0.348731,0.348731,690.365,278.646)">
            <path d="M127,124.8L75.1,72.9L122.3,25.7C125.2,22.8 128.2,22.7 131.2,25.7L174.4,68.9C177.1,71.6 176.9,74.6 174.4,77.1L127,124.8Z" style="fill:rgb(227,24,55);fill-rule:nonzero;"/>
            <clipPath id="_clip23">
                <path d="M127,124.8L75.1,72.9L122.3,25.7C125.2,22.8 128.2,22.7 131.2,25.7L174.4,68.9C177.1,71.6 176.9,74.6 174.4,77.1L127,124.8Z" clip-rule="nonzero"/>
            </clipPath>
            <g clip-path="url(#_clip23)">
                <g transform="matrix(0.792497,-5.55112e-17,5.55112e-17,0.792497,84.1084,-31.6701)">
                    <circle cx="90.8" cy="127.9" r="12.8" style="fill:white;"/>
                </g>
                <g transform="matrix(0.792497,-5.55112e-17,5.55112e-17,0.792497,57.9455,-57.8331)">
                    <circle cx="90.8" cy="127.9" r="12.8" style="fill:white;"/>
                </g>
                <g transform="matrix(0.792497,-5.55112e-17,5.55112e-17,0.792497,67.845,-15.4067)">
                    <circle cx="90.8" cy="127.9" r="12.8" style="fill:white;"/>
                </g>
                <g transform="matrix(0.792497,-5.55112e-17,5.55112e-17,0.792497,41.682,-41.5696)">
                    <circle cx="90.8" cy="127.9" r="12.8" style="fill:white;"/>
                </g>
                <g transform="matrix(0.792497,-5.55112e-17,5.55112e-17,0.792497,51.5815,0.856804)">
                    <circle cx="90.8" cy="127.9" r="12.8" style="fill:white;"/>
                </g>
                <g transform="matrix(0.792497,-5.55112e-17,5.55112e-17,0.792497,25.4186,-25.3061)">
                    <circle cx="90.8" cy="127.9" r="12.8" style="fill:white;"/>
                </g>
            </g>
        </g>
        <g id="path300226" serif:id="path3002" transform="matrix(0.348731,0.348731,-0.348731,0.348731,604.058,334.99)">
            <path d="M127,124.8L75.1,72.9L122.3,25.7C125.2,22.8 128.2,22.7 131.2,25.7L174.4,68.9C177.1,71.6 176.9,74.6 174.4,77.1L127,124.8Z" style="fill:rgb(227,24,55);fill-rule:nonzero;"/>
            <clipPath id="_clip24">
                <path d="M127,124.8L75.1,72.9L122.3,25.7C125.2,22.8 128.2,22.7 131.2,25.7L174.4,68.9C177.1,71.6 176.9,74.6 174.4,77.1L127,124.8Z" clip-rule="nonzero"/>
            </clipPath>
            <g clip-path="url(#_clip24)">
                <g transform="matrix(0.792497,-5.55112e-17,5.55112e-17,0.792497,84.1084,-31.6701)">
                    <circle cx="90.8" cy="127.9" r="12.8" style="fill:white;"/>
                </g>
                <g transform="matrix(0.792497,-5.55112e-17,5.55112e-17,0.792497,57.9455,-57.8331)">
                    <circle cx="90.8" cy="127.9" r="12.8" style="fill:white;"/>
                </g>
                <g transform="matrix(0.792497,-5.55112e-17,5.55112e-17,0.792497,67.845,-15.4067)">
                    <circle cx="90.8" cy="127.9" r="12.8" style="fill:white;"/>
                </g>
                <g transform="matrix(0.792497,-5.55112e-17,5.55112e-17,0.792497,41.682,-41.5696)">
                    <circle cx="90.8" cy="127.9" r="12.8" style="fill:white;"/>
                </g>
                <g transform="matrix(0.792497,-5.55112e-17,5.55112e-17,0.792497,51.5815,0.856804)">
                    <circle cx="90.8" cy="127.9" r="12.8" style="fill:white;"/>
                </g>
                <g transform="matrix(0.792497,-5.55112e-17,5.55112e-17,0.792497,25.4186,-25.3061)">
                    <circle cx="90.8" cy="127.9" r="12.8" style="fill:white;"/>
                </g>
            </g>
        </g>
        <g transform="matrix(0.348731,0.348731,-0.348731,0.348731,305.07,391.178)">
            <circle cx="126.7" cy="73" r="12.8" style="fill:white;"/>
        </g>
        <g id="path302223" serif:id="path3022" transform="matrix(0.348731,0.348731,-0.348731,0.348731,429.58,391.108)">
            <path d="M71,70.9L120.6,21.3C124.3,17.6 128.5,16.9 133,21.3L179.1,67.4C182.4,70.7 182.1,75.7 179.1,78.7L78.8,178.9C75.2,182.5 70.5,183.1 66.3,178.9L21.2,133.8C17.6,130.2 17.9,124.5 21.2,121.2L71,70.9Z" style="fill:white;fill-rule:nonzero;"/>
        </g>
        <g transform="matrix(0.348731,0.348731,-0.348731,0.348731,391.376,391.178)">
            <circle cx="126.7" cy="73" r="12.8" style="fill:white;"/>
        </g>
        <g id="path302224" serif:id="path3022" transform="matrix(0.348731,0.348731,-0.348731,0.348731,515.886,391.108)">
            <path d="M71,70.9L120.6,21.3C124.3,17.6 128.5,16.9 133,21.3L179.1,67.4C182.4,70.7 182.1,75.7 179.1,78.7L78.8,178.9C75.2,182.5 70.5,183.1 66.3,178.9L21.2,133.8C17.6,130.2 17.9,124.5 21.2,121.2L71,70.9Z" style="fill:white;fill-rule:nonzero;"/>
        </g>
        <g id="path300227" serif:id="path3002" transform="matrix(0.348731,0.348731,-0.348731,0.348731,345.173,391.213)">
            <path d="M127,124.8L75.1,72.9L122.3,25.7C125.2,22.8 128.2,22.7 131.2,25.7L174.4,68.9C177.1,71.6 176.9,74.6 174.4,77.1L127,124.8Z" style="fill:rgb(227,24,55);fill-rule:nonzero;"/>
            <clipPath id="_clip25">
                <path d="M127,124.8L75.1,72.9L122.3,25.7C125.2,22.8 128.2,22.7 131.2,25.7L174.4,68.9C177.1,71.6 176.9,74.6 174.4,77.1L127,124.8Z" clip-rule="nonzero"/>
            </clipPath>
            <g clip-path="url(#_clip25)">
                <g transform="matrix(0.792497,-5.55112e-17,5.55112e-17,0.792497,79.7691,-28.2635)">
                    <circle cx="90.8" cy="127.9" r="12.8" style="fill:white;"/>
                </g>
                <g transform="matrix(0.792497,-5.55112e-17,5.55112e-17,0.792497,62.039,-30.3323)">
                    <circle cx="53.4" cy="127.9" r="12.8" style="fill:white;"/>
                </g>
                <g transform="matrix(0.792497,-5.55112e-17,5.55112e-17,0.792497,84.6893,-52.9827)">
                    <circle cx="53.4" cy="127.9" r="12.8" style="fill:white;"/>
                </g>
                <g transform="matrix(0.792497,-5.55112e-17,5.55112e-17,0.792497,86.7581,-5.61316)">
                    <circle cx="53.4" cy="127.9" r="12.8" style="fill:white;"/>
                </g>
            </g>
        </g>
        <g id="path300228" serif:id="path3002" transform="matrix(-0.348731,0.348731,0.348731,0.348731,344.266,391.213)">
            <path d="M127,124.8L75.1,72.9L122.3,25.7C125.2,22.8 128.2,22.7 131.2,25.7L174.4,68.9C177.1,71.6 176.9,74.6 174.4,77.1L127,124.8Z" style="fill:rgb(0,100,145);fill-rule:nonzero;"/>
            <clipPath id="_clip26">
                <path d="M127,124.8L75.1,72.9L122.3,25.7C125.2,22.8 128.2,22.7 131.2,25.7L174.4,68.9C177.1,71.6 176.9,74.6 174.4,77.1L127,124.8Z" clip-rule="nonzero"/>
            </clipPath>
            <g clip-path="url(#_clip26)">
                <g transform="matrix(-1.66533e-16,0.792497,0.792497,1.66533e-16,25.5865,25.9191)">
                    <circle cx="90.8" cy="127.9" r="12.8" style="fill:white;"/>
                </g>
                <g transform="matrix(-1.66533e-16,0.792497,0.792497,1.66533e-16,23.5177,8.18896)">
                    <circle cx="53.4" cy="127.9" r="12.8" style="fill:white;"/>
                </g>
                <g transform="matrix(-1.66533e-16,0.792497,0.792497,1.66533e-16,0.867306,30.8393)">
                    <circle cx="53.4" cy="127.9" r="12.8" style="fill:white;"/>
                </g>
                <g transform="matrix(-1.66533e-16,0.792497,0.792497,1.66533e-16,48.2368,32.9081)">
                    <circle cx="53.4" cy="127.9" r="12.8" style="fill:white;"/>
                </g>
            </g>
        </g>
        <g id="path300229" serif:id="path3002" transform="matrix(-0.348731,0.348731,0.348731,0.348731,430.538,391.213)">
            <path d="M127,124.8L75.1,72.9L122.3,25.7C125.2,22.8 128.2,22.7 131.2,25.7L174.4,68.9C177.1,71.6 176.9,74.6 174.4,77.1L127,124.8Z" style="fill:rgb(0,100,145);fill-rule:nonzero;"/>
            <clipPath id="_clip27">
                <path d="M127,124.8L75.1,72.9L122.3,25.7C125.2,22.8 128.2,22.7 131.2,25.7L174.4,68.9C177.1,71.6 176.9,74.6 174.4,77.1L127,124.8Z" clip-rule="nonzero"/>
            </clipPath>
            <g clip-path="url(#_clip27)">
                <g transform="matrix(-1.66533e-16,0.792497,0.792497,1.66533e-16,25.5865,25.9191)">
                    <circle cx="90.8" cy="127.9" r="12.8" style="fill:white;"/>
                </g>
                <g transform="matrix(-1.66533e-16,0.792497,0.792497,1.66533e-16,23.5177,8.18896)">
                    <circle cx="53.4" cy="127.9" r="12.8" style="fill:white;"/>
                </g>
                <g transform="matrix(-1.66533e-16,0.792497,0.792497,1.66533e-16,0.867306,30.8393)">
                    <circle cx="53.4" cy="127.9" r="12.8" style="fill:white;"/>
                </g>
                <g transform="matrix(-1.66533e-16,0.792497,0.792497,1.66533e-16,48.2368,32.9081)">
                    <circle cx="53.4" cy="127.9" r="12.8" style="fill:white;"/>
                </g>
            </g>
        </g>
        <g id="path300230" serif:id="path3002" transform="matrix(-0.348731,0.348731,0.348731,0.348731,516.635,391.213)">
            <path d="M127,124.8L75.1,72.9L122.3,25.7C125.2,22.8 128.2,22.7 131.2,25.7L174.4,68.9C177.1,71.6 176.9,74.6 174.4,77.1L127,124.8Z" style="fill:rgb(0,100,145);fill-rule:nonzero;"/>
            <clipPath id="_clip28">
                <path d="M127,124.8L75.1,72.9L122.3,25.7C125.2,22.8 128.2,22.7 131.2,25.7L174.4,68.9C177.1,71.6 176.9,74.6 174.4,77.1L127,124.8Z" clip-rule="nonzero"/>
            </clipPath>
            <g clip-path="url(#_clip28)">
                <g transform="matrix(-1.66533e-16,0.792497,0.792497,1.66533e-16,25.5865,25.9191)">
                    <circle cx="90.8" cy="127.9" r="12.8" style="fill:white;"/>
                </g>
                <g transform="matrix(-1.66533e-16,0.792497,0.792497,1.66533e-16,23.5177,8.18896)">
                    <circle cx="53.4" cy="127.9" r="12.8" style="fill:white;"/>
                </g>
                <g transform="matrix(-1.66533e-16,0.792497,0.792497,1.66533e-16,0.867306,30.8393)">
                    <circle cx="53.4" cy="127.9" r="12.8" style="fill:white;"/>
                </g>
                <g transform="matrix(-1.66533e-16,0.792497,0.792497,1.66533e-16,48.2368,32.9081)">
                    <circle cx="53.4" cy="127.9" r="12.8" style="fill:white;"/>
                </g>
            </g>
        </g>
        <g id="path300231" serif:id="path3002" transform="matrix(0.348731,0.348731,-0.348731,0.348731,431.183,391.213)">
            <path d="M127,124.8L75.1,72.9L122.3,25.7C125.2,22.8 128.2,22.7 131.2,25.7L174.4,68.9C177.1,71.6 176.9,74.6 174.4,77.1L127,124.8Z" style="fill:rgb(227,24,55);fill-rule:nonzero;"/>
            <clipPath id="_clip29">
                <path d="M127,124.8L75.1,72.9L122.3,25.7C125.2,22.8 128.2,22.7 131.2,25.7L174.4,68.9C177.1,71.6 176.9,74.6 174.4,77.1L127,124.8Z" clip-rule="nonzero"/>
            </clipPath>
            <g clip-path="url(#_clip29)">
                <g transform="matrix(0.792497,-5.55112e-17,5.55112e-17,0.792497,83.6021,-28.3354)">
                    <circle cx="90.8" cy="127.9" r="12.8" style="fill:white;"/>
                </g>
                <g transform="matrix(0.792497,-5.55112e-17,5.55112e-17,0.792497,55.8698,-28.3354)">
                    <circle cx="53.4" cy="127.9" r="12.8" style="fill:white;"/>
                </g>
                <g transform="matrix(0.792497,-5.55112e-17,5.55112e-17,0.792497,84.5557,-28.3354)">
                    <circle cx="53.4" cy="127.9" r="12.8" style="fill:white;"/>
                </g>
                <g transform="matrix(0.792497,-5.55112e-17,5.55112e-17,0.792497,84.4753,-56.9408)">
                    <circle cx="53.4" cy="127.9" r="12.8" style="fill:white;"/>
                </g>
                <g transform="matrix(0.792497,-5.55112e-17,5.55112e-17,0.792497,84.5557,0.350475)">
                    <circle cx="53.4" cy="127.9" r="12.8" style="fill:white;"/>
                </g>
            </g>
        </g>
        <g id="path300232" serif:id="path3002" transform="matrix(0.348731,0.348731,-0.348731,0.348731,517.752,391.143)">
            <path d="M127,124.8L75.1,72.9L122.3,25.7C125.2,22.8 128.2,22.7 131.2,25.7L174.4,68.9C177.1,71.6 176.9,74.6 174.4,77.1L127,124.8Z" style="fill:rgb(227,24,55);fill-rule:nonzero;"/>
            <clipPath id="_clip30">
                <path d="M127,124.8L75.1,72.9L122.3,25.7C125.2,22.8 128.2,22.7 131.2,25.7L174.4,68.9C177.1,71.6 176.9,74.6 174.4,77.1L127,124.8Z" clip-rule="nonzero"/>
            </clipPath>
            <g clip-path="url(#_clip30)">
                <g transform="matrix(0.792497,-5.55112e-17,5.55112e-17,0.792497,84.1084,-31.6701)">
                    <circle cx="90.8" cy="127.9" r="12.8" style="fill:white;"/>
                </g>
                <g transform="matrix(0.792497,-5.55112e-17,5.55112e-17,0.792497,57.9455,-57.8331)">
                    <circle cx="90.8" cy="127.9" r="12.8" style="fill:white;"/>
                </g>
                <g transform="matrix(0.792497,-5.55112e-17,5.55112e-17,0.792497,67.845,-15.4067)">
                    <circle cx="90.8" cy="127.9" r="12.8" style="fill:white;"/>
                </g>
                <g transform="matrix(0.792497,-5.55112e-17,5.55112e-17,0.792497,41.682,-41.5696)">
                    <circle cx="90.8" cy="127.9" r="12.8" style="fill:white;"/>
                </g>
                <g transform="matrix(0.792497,-5.55112e-17,5.55112e-17,0.792497,51.5815,0.856804)">
                    <circle cx="90.8" cy="127.9" r="12.8" style="fill:white;"/>
                </g>
                <g transform="matrix(0.792497,-5.55112e-17,5.55112e-17,0.792497,25.4186,-25.3061)">
                    <circle cx="90.8" cy="127.9" r="12.8" style="fill:white;"/>
                </g>
            </g>
        </g>
        <g id="path302225" serif:id="path3022" transform="matrix(0.348731,0.348731,-0.348731,0.348731,343.273,447.575)">
            <path d="M71,70.9L120.6,21.3C124.3,17.6 128.5,16.9 133,21.3L179.1,67.4C182.4,70.7 182.1,75.7 179.1,78.7L78.8,178.9C75.2,182.5 70.5,183.1 66.3,178.9L21.2,133.8C17.6,130.2 17.9,124.5 21.2,121.2L71,70.9Z" style="fill:white;fill-rule:nonzero;"/>
        </g>
        <g transform="matrix(0.348731,0.348731,-0.348731,0.348731,305.07,447.645)">
            <circle cx="126.7" cy="73" r="12.8" style="fill:white;"/>
        </g>
        <g id="path302226" serif:id="path3022" transform="matrix(0.348731,0.348731,-0.348731,0.348731,429.58,447.575)">
            <path d="M71,70.9L120.6,21.3C124.3,17.6 128.5,16.9 133,21.3L179.1,67.4C182.4,70.7 182.1,75.7 179.1,78.7L78.8,178.9C75.2,182.5 70.5,183.1 66.3,178.9L21.2,133.8C17.6,130.2 17.9,124.5 21.2,121.2L71,70.9Z" style="fill:white;fill-rule:nonzero;"/>
        </g>
        <g id="path300233" serif:id="path3002" transform="matrix(0.348731,0.348731,-0.348731,0.348731,344.877,447.68)">
            <path d="M127,124.8L75.1,72.9L122.3,25.7C125.2,22.8 128.2,22.7 131.2,25.7L174.4,68.9C177.1,71.6 176.9,74.6 174.4,77.1L127,124.8Z" style="fill:rgb(227,24,55);fill-rule:nonzero;"/>
            <clipPath id="_clip31">
                <path d="M127,124.8L75.1,72.9L122.3,25.7C125.2,22.8 128.2,22.7 131.2,25.7L174.4,68.9C177.1,71.6 176.9,74.6 174.4,77.1L127,124.8Z" clip-rule="nonzero"/>
            </clipPath>
            <g clip-path="url(#_clip31)">
                <g transform="matrix(0.792497,-5.55112e-17,5.55112e-17,0.792497,83.6021,-28.3354)">
                    <circle cx="90.8" cy="127.9" r="12.8" style="fill:white;"/>
                </g>
                <g transform="matrix(0.792497,-5.55112e-17,5.55112e-17,0.792497,55.8698,-28.3354)">
                    <circle cx="53.4" cy="127.9" r="12.8" style="fill:white;"/>
                </g>
                <g transform="matrix(0.792497,-5.55112e-17,5.55112e-17,0.792497,84.5557,-28.3354)">
                    <circle cx="53.4" cy="127.9" r="12.8" style="fill:white;"/>
                </g>
                <g transform="matrix(0.792497,-5.55112e-17,5.55112e-17,0.792497,84.4753,-56.9408)">
                    <circle cx="53.4" cy="127.9" r="12.8" style="fill:white;"/>
                </g>
                <g transform="matrix(0.792497,-5.55112e-17,5.55112e-17,0.792497,84.5557,0.350475)">
                    <circle cx="53.4" cy="127.9" r="12.8" style="fill:white;"/>
                </g>
            </g>
        </g>
        <g id="path300234" serif:id="path3002" transform="matrix(0.348731,0.348731,-0.348731,0.348731,431.445,447.61)">
            <path d="M127,124.8L75.1,72.9L122.3,25.7C125.2,22.8 128.2,22.7 131.2,25.7L174.4,68.9C177.1,71.6 176.9,74.6 174.4,77.1L127,124.8Z" style="fill:rgb(227,24,55);fill-rule:nonzero;"/>
            <clipPath id="_clip32">
                <path d="M127,124.8L75.1,72.9L122.3,25.7C125.2,22.8 128.2,22.7 131.2,25.7L174.4,68.9C177.1,71.6 176.9,74.6 174.4,77.1L127,124.8Z" clip-rule="nonzero"/>
            </clipPath>
            <g clip-path="url(#_clip32)">
                <g transform="matrix(0.792497,-5.55112e-17,5.55112e-17,0.792497,84.1084,-31.6701)">
                    <circle cx="90.8" cy="127.9" r="12.8" style="fill:white;"/>
                </g>
                <g transform="matrix(0.792497,-5.55112e-17,5.55112e-17,0.792497,57.9455,-57.8331)">
                    <circle cx="90.8" cy="127.9" r="12.8" style="fill:white;"/>
                </g>
                <g transform="matrix(0.792497,-5.55112e-17,5.55112e-17,0.792497,67.845,-15.4067)">
                    <circle cx="90.8" cy="127.9" r="12.8" style="fill:white;"/>
                </g>
                <g transform="matrix(0.792497,-5.55112e-17,5.55112e-17,0.792497,41.682,-41.5696)">
                    <circle cx="90.8" cy="127.9" r="12.8" style="fill:white;"/>
                </g>
                <g transform="matrix(0.792497,-5.55112e-17,5.55112e-17,0.792497,51.5815,0.856804)">
                    <circle cx="90.8" cy="127.9" r="12.8" style="fill:white;"/>
                </g>
                <g transform="matrix(0.792497,-5.55112e-17,5.55112e-17,0.792497,25.4186,-25.3061)">
                    <circle cx="90.8" cy="127.9" r="12.8" style="fill:white;"/>
                </g>
            </g>
        </g>
        <g id="path300235" serif:id="path3002" transform="matrix(-0.348731,0.348731,0.348731,0.348731,430.748,278.576)">
            <path d="M127,124.8L75.1,72.9L122.3,25.7C125.2,22.8 128.2,22.7 131.2,25.7L174.4,68.9C177.1,71.6 176.9,74.6 174.4,77.1L127,124.8Z" style="fill:rgb(0,100,145);fill-rule:nonzero;"/>
            <clipPath id="_clip33">
                <path d="M127,124.8L75.1,72.9L122.3,25.7C125.2,22.8 128.2,22.7 131.2,25.7L174.4,68.9C177.1,71.6 176.9,74.6 174.4,77.1L127,124.8Z" clip-rule="nonzero"/>
            </clipPath>
            <g clip-path="url(#_clip33)">
                <g transform="matrix(-2.22045e-16,1,1,2.22045e-16,-1.27581,0.674192)">
                    <circle cx="90.8" cy="127.9" r="12.8" style="fill:white;"/>
                </g>
                <g transform="matrix(-2.22045e-16,1,1,2.22045e-16,-1.27581,0.674192)">
                    <circle cx="53.4" cy="127.9" r="12.8" style="fill:white;"/>
                </g>
            </g>
        </g>
        <g id="path300236" serif:id="path3002" transform="matrix(-0.348731,0.348731,0.348731,0.348731,516.844,278.663)">
            <path d="M127,124.8L75.1,72.9L122.3,25.7C125.2,22.8 128.2,22.7 131.2,25.7L174.4,68.9C177.1,71.6 176.9,74.6 174.4,77.1L127,124.8Z" style="fill:rgb(0,100,145);fill-rule:nonzero;"/>
            <clipPath id="_clip34">
                <path d="M127,124.8L75.1,72.9L122.3,25.7C125.2,22.8 128.2,22.7 131.2,25.7L174.4,68.9C177.1,71.6 176.9,74.6 174.4,77.1L127,124.8Z" clip-rule="nonzero"/>
            </clipPath>
            <g clip-path="url(#_clip34)">
                <g transform="matrix(-2.22045e-16,1,1,2.22045e-16,-1.27581,0.674192)">
                    <circle cx="90.8" cy="127.9" r="12.8" style="fill:white;"/>
                </g>
                <g transform="matrix(-2.22045e-16,1,1,2.22045e-16,-1.27581,0.674192)">
                    <circle cx="53.4" cy="127.9" r="12.8" style="fill:white;"/>
                </g>
            </g>
        </g>
        <g id="path300237" serif:id="path3002" transform="matrix(-0.348731,0.348731,0.348731,0.348731,603.361,278.698)">
            <path d="M127,124.8L75.1,72.9L122.3,25.7C125.2,22.8 128.2,22.7 131.2,25.7L174.4,68.9C177.1,71.6 176.9,74.6 174.4,77.1L127,124.8Z" style="fill:rgb(0,100,145);fill-rule:nonzero;"/>
            <clipPath id="_clip35">
                <path d="M127,124.8L75.1,72.9L122.3,25.7C125.2,22.8 128.2,22.7 131.2,25.7L174.4,68.9C177.1,71.6 176.9,74.6 174.4,77.1L127,124.8Z" clip-rule="nonzero"/>
            </clipPath>
            <g clip-path="url(#_clip35)">
                <g transform="matrix(-2.22045e-16,1,1,2.22045e-16,-1.27581,0.674192)">
                    <circle cx="90.8" cy="127.9" r="12.8" style="fill:white;"/>
                </g>
                <g transform="matrix(-2.22045e-16,1,1,2.22045e-16,-1.27581,0.674192)">
                    <circle cx="53.4" cy="127.9" r="12.8" style="fill:white;"/>
                </g>
            </g>
        </g>
        <g id="path300238" serif:id="path3002" transform="matrix(-0.348731,0.348731,0.348731,0.348731,689.667,278.733)">
            <path d="M127,124.8L75.1,72.9L122.3,25.7C125.2,22.8 128.2,22.7 131.2,25.7L174.4,68.9C177.1,71.6 176.9,74.6 174.4,77.1L127,124.8Z" style="fill:rgb(0,100,145);fill-rule:nonzero;"/>
            <clipPath id="_clip36">
                <path d="M127,124.8L75.1,72.9L122.3,25.7C125.2,22.8 128.2,22.7 131.2,25.7L174.4,68.9C177.1,71.6 176.9,74.6 174.4,77.1L127,124.8Z" clip-rule="nonzero"/>
            </clipPath>
            <g clip-path="url(#_clip36)">
                <g transform="matrix(-2.22045e-16,1,1,2.22045e-16,-1.27581,0.674192)">
                    <circle cx="90.8" cy="127.9" r="12.8" style="fill:white;"/>
                </g>
                <g transform="matrix(-2.22045e-16,1,1,2.22045e-16,-1.27581,0.674192)">
                    <circle cx="53.4" cy="127.9" r="12.8" style="fill:white;"/>
                </g>
            </g>
        </g>
        <g id="path300239" serif:id="path3002" transform="matrix(-0.348731,0.348731,0.348731,0.348731,344.231,447.558)">
            <path d="M127,124.8L75.1,72.9L122.3,25.7C125.2,22.8 128.2,22.7 131.2,25.7L174.4,68.9C177.1,71.6 176.9,74.6 174.4,77.1L127,124.8Z" style="fill:rgb(0,100,145);fill-rule:nonzero;"/>
            <clipPath id="_clip37">
                <path d="M127,124.8L75.1,72.9L122.3,25.7C125.2,22.8 128.2,22.7 131.2,25.7L174.4,68.9C177.1,71.6 176.9,74.6 174.4,77.1L127,124.8Z" clip-rule="nonzero"/>
            </clipPath>
            <g clip-path="url(#_clip37)">
                <g transform="matrix(-1.66533e-16,0.792497,0.792497,1.66533e-16,25.5146,29.7521)">
                    <circle cx="90.8" cy="127.9" r="12.8" style="fill:white;"/>
                </g>
                <g transform="matrix(-1.66533e-16,0.792497,0.792497,1.66533e-16,25.5146,2.01984)">
                    <circle cx="53.4" cy="127.9" r="12.8" style="fill:white;"/>
                </g>
                <g transform="matrix(-1.66533e-16,0.792497,0.792497,1.66533e-16,25.5146,30.7057)">
                    <circle cx="53.4" cy="127.9" r="12.8" style="fill:white;"/>
                </g>
                <g transform="matrix(-1.66533e-16,0.792497,0.792497,1.66533e-16,-3.09079,30.6253)">
                    <circle cx="53.4" cy="127.9" r="12.8" style="fill:white;"/>
                </g>
                <g transform="matrix(-1.66533e-16,0.792497,0.792497,1.66533e-16,54.2005,30.7057)">
                    <circle cx="53.4" cy="127.9" r="12.8" style="fill:white;"/>
                </g>
            </g>
        </g>
        <g id="path300240" serif:id="path3002" transform="matrix(-0.348731,0.348731,0.348731,0.348731,430.538,447.558)">
            <path d="M127,124.8L75.1,72.9L122.3,25.7C125.2,22.8 128.2,22.7 131.2,25.7L174.4,68.9C177.1,71.6 176.9,74.6 174.4,77.1L127,124.8Z" style="fill:rgb(0,100,145);fill-rule:nonzero;"/>
            <clipPath id="_clip38">
                <path d="M127,124.8L75.1,72.9L122.3,25.7C125.2,22.8 128.2,22.7 131.2,25.7L174.4,68.9C177.1,71.6 176.9,74.6 174.4,77.1L127,124.8Z" clip-rule="nonzero"/>
            </clipPath>
            <g clip-path="url(#_clip38)">
                <g transform="matrix(-1.66533e-16,0.792497,0.792497,1.66533e-16,25.5146,29.7521)">
                    <circle cx="90.8" cy="127.9" r="12.8" style="fill:white;"/>
                </g>
                <g transform="matrix(-1.66533e-16,0.792497,0.792497,1.66533e-16,25.5146,2.01984)">
                    <circle cx="53.4" cy="127.9" r="12.8" style="fill:white;"/>
                </g>
                <g transform="matrix(-1.66533e-16,0.792497,0.792497,1.66533e-16,25.5146,30.7057)">
                    <circle cx="53.4" cy="127.9" r="12.8" style="fill:white;"/>
                </g>
                <g transform="matrix(-1.66533e-16,0.792497,0.792497,1.66533e-16,-3.09079,30.6253)">
                    <circle cx="53.4" cy="127.9" r="12.8" style="fill:white;"/>
                </g>
                <g transform="matrix(-1.66533e-16,0.792497,0.792497,1.66533e-16,54.2005,30.7057)">
                    <circle cx="53.4" cy="127.9" r="12.8" style="fill:white;"/>
                </g>
            </g>
        </g>
        <g id="path300241" serif:id="path3002" transform="matrix(0.348731,0.348731,-0.348731,0.348731,345.086,503.954)">
            <path d="M127,124.8L75.1,72.9L122.3,25.7C125.2,22.8 128.2,22.7 131.2,25.7L174.4,68.9C177.1,71.6 176.9,74.6 174.4,77.1L127,124.8Z" style="fill:rgb(227,24,55);fill-rule:nonzero;"/>
            <clipPath id="_clip39">
                <path d="M127,124.8L75.1,72.9L122.3,25.7C125.2,22.8 128.2,22.7 131.2,25.7L174.4,68.9C177.1,71.6 176.9,74.6 174.4,77.1L127,124.8Z" clip-rule="nonzero"/>
            </clipPath>
            <g clip-path="url(#_clip39)">
                <g transform="matrix(0.792497,-5.55112e-17,5.55112e-17,0.792497,84.1084,-31.6701)">
                    <circle cx="90.8" cy="127.9" r="12.8" style="fill:white;"/>
                </g>
                <g transform="matrix(0.792497,-5.55112e-17,5.55112e-17,0.792497,57.9455,-57.8331)">
                    <circle cx="90.8" cy="127.9" r="12.8" style="fill:white;"/>
                </g>
                <g transform="matrix(0.792497,-5.55112e-17,5.55112e-17,0.792497,67.845,-15.4067)">
                    <circle cx="90.8" cy="127.9" r="12.8" style="fill:white;"/>
                </g>
                <g transform="matrix(0.792497,-5.55112e-17,5.55112e-17,0.792497,41.682,-41.5696)">
                    <circle cx="90.8" cy="127.9" r="12.8" style="fill:white;"/>
                </g>
                <g transform="matrix(0.792497,-5.55112e-17,5.55112e-17,0.792497,51.5815,0.856804)">
                    <circle cx="90.8" cy="127.9" r="12.8" style="fill:white;"/>
                </g>
                <g transform="matrix(0.792497,-5.55112e-17,5.55112e-17,0.792497,25.4186,-25.3061)">
                    <circle cx="90.8" cy="127.9" r="12.8" style="fill:white;"/>
                </g>
            </g>
        </g>
        <g id="path300242" serif:id="path3002" transform="matrix(-0.348731,0.348731,0.348731,0.348731,344.441,503.954)">
            <path d="M127,124.8L75.1,72.9L122.3,25.7C125.2,22.8 128.2,22.7 131.2,25.7L174.4,68.9C177.1,71.6 176.9,74.6 174.4,77.1L127,124.8Z" style="fill:rgb(0,100,145);fill-rule:nonzero;"/>
            <clipPath id="_clip40">
                <path d="M127,124.8L75.1,72.9L122.3,25.7C125.2,22.8 128.2,22.7 131.2,25.7L174.4,68.9C177.1,71.6 176.9,74.6 174.4,77.1L127,124.8Z" clip-rule="nonzero"/>
            </clipPath>
            <g clip-path="url(#_clip40)">
                <g transform="matrix(-1.66533e-16,0.792497,0.792497,1.66533e-16,22.1799,30.2584)">
                    <circle cx="90.8" cy="127.9" r="12.8" style="fill:white;"/>
                </g>
                <g transform="matrix(-1.66533e-16,0.792497,0.792497,1.66533e-16,-3.98306,4.09549)">
                    <circle cx="90.8" cy="127.9" r="12.8" style="fill:white;"/>
                </g>
                <g transform="matrix(-1.66533e-16,0.792497,0.792497,1.66533e-16,38.4433,13.995)">
                    <circle cx="90.8" cy="127.9" r="12.8" style="fill:white;"/>
                </g>
                <g transform="matrix(-1.66533e-16,0.792497,0.792497,1.66533e-16,12.2804,-12.168)">
                    <circle cx="90.8" cy="127.9" r="12.8" style="fill:white;"/>
                </g>
                <g transform="matrix(-1.66533e-16,0.792497,0.792497,1.66533e-16,54.7068,-2.26847)">
                    <circle cx="90.8" cy="127.9" r="12.8" style="fill:white;"/>
                </g>
                <g transform="matrix(-1.66533e-16,0.792497,0.792497,1.66533e-16,28.5439,-28.4314)">
                    <circle cx="90.8" cy="127.9" r="12.8" style="fill:white;"/>
                </g>
            </g>
        </g>
    </g>
</svg>
