<svg xmlns="http://www.w3.org/2000/svg" xmlns:xlink="http://www.w3.org/1999/xlink" width="600" height="377" fill-rule="evenodd" stroke-linejoin="round" stroke-miterlimit="2" xmlns:v="https://vecta.io/nano"><style><![CDATA[.B{fill-rule:nonzero}.C{fill:#fff}.D{fill:#006491}.E{fill:#e31837}]]></style><g transform="translate(-301.931 -215.703)"><g class="B"><use xlink:href="#p" class="C"/><use xlink:href="#q" class="D"/><use xlink:href="#r" class="E"/><use xlink:href="#p" x="86.306" class="C"/><use xlink:href="#q" x="86.306" class="D"/><use xlink:href="#r" x="86.306" class="E"/></g><g class="C"><circle cx="126.7" cy="73" r="12.8" transform="matrix(.348731 .348731 -.348731 .348731 431.445 166.218)"/><use xlink:href="#p" x="172.613" class="B"/></g><use xlink:href="#q" x="172.613" class="B D"/><g transform="matrix(.348731 .348731 -.348731 .348731 517.752 166.218)"><use xlink:href="#s" class="B E"/><clipPath id="A"><use xlink:href="#s"/></clipPath><g clip-path="url(#A)" class="C"><circle cx="145.324" cy="72.774" r="12.8"/><circle cx="107.924" cy="72.774" r="12.8"/></g></g><g class="B"><use xlink:href="#p" x="258.919" class="C"/><use xlink:href="#q" x="258.919" class="D"/></g><g transform="matrix(.348731 .348731 -.348731 .348731 604.058 166.218)"><use xlink:href="#s" class="B E"/><clipPath id="B"><use xlink:href="#s"/></clipPath><g clip-path="url(#B)" class="C"><circle cx="90.8" cy="127.9" r="12.8" transform="matrix(.792497 0 0 .792497 79.7691 -28.2635)"/><circle cx="53.4" cy="127.9" r="12.8" transform="matrix(.792497 0 0 .792497 62.039 -30.3323)"/><circle cx="53.4" cy="127.9" r="12.8" transform="matrix(.792497 0 0 .792497 85.8699 -29.8496)"/></g></g><g class="B"><use xlink:href="#p" x="345.226" class="C"/><use xlink:href="#q" x="345.226" class="D"/></g><g transform="matrix(.348731 .348731 -.348731 .348731 690.365 166.218)"><use xlink:href="#s" class="B E"/><clipPath id="C"><use xlink:href="#s"/></clipPath><g clip-path="url(#C)" class="C"><circle cx="90.8" cy="127.9" r="12.8" transform="matrix(.792497 0 0 .792497 79.7691 -28.2635)"/><circle cx="53.4" cy="127.9" r="12.8" transform="matrix(.792497 0 0 .792497 62.039 -30.3323)"/><circle cx="53.4" cy="127.9" r="12.8" transform="matrix(.792497 0 0 .792497 84.6893 -52.9827)"/><circle cx="53.4" cy="127.9" r="12.8" transform="matrix(.792497 0 0 .792497 86.7581 -5.61316)"/></g></g><g class="B"><path d="M776.706 215.703H811.3c2.581 0 4.289 1.221 4.324 4.324v32.153c0 2.302-1.848 3.941-3.941 3.941l-69.921-.035c-2.511 0-4.359-1.43-4.359-4.359v-31.456c0-2.511 2.092-4.394 4.394-4.394l34.908-.174z" class="C"/><use xlink:href="#q" x="431.532" class="D"/></g><g transform="matrix(.348731 .348731 -.348731 .348731 776.671 166.218)"><use xlink:href="#s" class="B E"/><clipPath id="D"><use xlink:href="#s"/></clipPath><g clip-path="url(#D)" class="C"><circle cx="90.8" cy="127.9" r="12.8" transform="matrix(.792497 0 0 .792497 83.6021 -28.3354)"/><circle cx="53.4" cy="127.9" r="12.8" transform="matrix(.792497 0 0 .792497 55.8698 -28.3354)"/><circle cx="53.4" cy="127.9" r="12.8" transform="matrix(.792497 0 0 .792497 84.5557 -28.3354)"/><circle cx="53.4" cy="127.9" r="12.8" transform="matrix(.792497 0 0 .792497 84.4753 -56.9408)"/><circle cx="53.4" cy="127.9" r="12.8" transform="matrix(.792497 0 0 .792497 84.5557 .350475)"/></g></g><g class="B"><use xlink:href="#p" x="517.839" class="C"/><use xlink:href="#q" x="517.839" class="D"/></g><g transform="matrix(.348731 .348731 -.348731 .348731 862.978 166.218)"><use xlink:href="#s" class="B E"/><clipPath id="E"><use xlink:href="#s"/></clipPath><g clip-path="url(#E)" class="C"><circle cx="90.8" cy="127.9" r="12.8" transform="matrix(.792497 0 0 .792497 84.1084 -31.6701)"/><circle cx="90.8" cy="127.9" r="12.8" transform="matrix(.792497 0 0 .792497 57.9455 -57.8331)"/><circle cx="90.8" cy="127.9" r="12.8" transform="matrix(.792497 0 0 .792497 67.845 -15.4067)"/><circle cx="90.8" cy="127.9" r="12.8" transform="matrix(.792497 0 0 .792497 41.682 -41.5696)"/><circle cx="90.8" cy="127.9" r="12.8" transform="matrix(.792497 0 0 .792497 51.5815 .856804)"/><circle cx="90.8" cy="127.9" r="12.8" transform="matrix(.792497 0 0 .792497 25.4186 -25.3061)"/></g></g><g class="B"><use xlink:href="#p" y="56.223" class="C"/><use xlink:href="#q" y="56.223" class="D"/></g><circle cx="126.7" cy="73" r="12.8" transform="matrix(.348731 .348731 -.348731 .348731 306.935 222.511)" class="C"/><path d="M345.906 310.251v-36.198h32.92c2.023 0 3.104 1.011 3.104 3.104v30.13c0 1.883-1.116 2.86-2.86 2.86l-33.164.105z" class="B E"/><g class="C"><circle cx="126.7" cy="73" r="12.8" transform="matrix(.348731 .348731 -.348731 .348731 345.139 222.441)"/><use xlink:href="#p" x="86.306" y="56.223" class="B"/></g><use xlink:href="#q" x="86.306" y="56.223" class="B D"/><g class="C"><circle cx="126.7" cy="73" r="12.8" transform="matrix(.348731 .348731 -.348731 .348731 393.242 222.511)"/><circle cx="126.7" cy="73" r="12.8" transform="matrix(.348731 .348731 -.348731 .348731 431.445 222.441)"/></g><g transform="matrix(.348731 .348731 -.348731 .348731 431.393 222.371)"><use xlink:href="#s" class="B E"/><clipPath id="F"><use xlink:href="#s"/></clipPath><g clip-path="url(#F)" class="C"><circle cx="145.324" cy="72.774" r="12.8"/><circle cx="107.924" cy="72.774" r="12.8"/></g></g><g class="B"><use xlink:href="#p" x="172.613" y="56.223" class="C"/><use xlink:href="#q" x="172.613" y="56.223" class="D"/></g><circle cx="126.7" cy="73" r="12.8" transform="matrix(.348731 .348731 -.348731 .348731 479.548 222.511)" class="C"/><g transform="matrix(.49318 0 0 .49318 411.944 165.545)"><g class="B"><use xlink:href="#t" class="C"/><use xlink:href="#u" class="D"/></g><circle cx="126.7" cy="73" r="12.8" transform="matrix(.707107 .707107 -.707107 .707107 312.078 115.506)" class="C"/></g><g class="B"><use xlink:href="#p" x="345.226" y="56.223" class="C"/><use xlink:href="#q" x="345.226" y="56.223" class="D"/></g><circle cx="126.7" cy="73" r="12.8" transform="matrix(.348731 .348731 -.348731 .348731 652.161 222.511)" class="C"/><g transform="matrix(.49318 0 0 .49318 584.557 165.545)"><g class="B"><use xlink:href="#t" class="C"/><use xlink:href="#u" class="D"/></g><circle cx="126.7" cy="73" r="12.8" transform="matrix(.707107 .707107 -.707107 .707107 312.078 115.506)" class="C"/></g><g transform="matrix(.348731 .348731 -.348731 .348731 517.961 222.423)"><use xlink:href="#s" class="B E"/><clipPath id="G"><use xlink:href="#s"/></clipPath><g clip-path="url(#G)" class="C"><circle cx="90.8" cy="127.9" r="12.8" transform="matrix(.792497 0 0 .792497 79.7691 -28.2635)"/><circle cx="53.4" cy="127.9" r="12.8" transform="matrix(.792497 0 0 .792497 62.039 -30.3323)"/><circle cx="53.4" cy="127.9" r="12.8" transform="matrix(.792497 0 0 .792497 85.8699 -29.8496)"/></g></g><g transform="matrix(.348731 .348731 -.348731 .348731 604.058 222.354)"><use xlink:href="#s" class="B E"/><clipPath id="H"><use xlink:href="#s"/></clipPath><g clip-path="url(#H)" class="C"><circle cx="90.8" cy="127.9" r="12.8" transform="matrix(.792497 0 0 .792497 79.7691 -28.2635)"/><circle cx="53.4" cy="127.9" r="12.8" transform="matrix(.792497 0 0 .792497 62.039 -30.3323)"/><circle cx="53.4" cy="127.9" r="12.8" transform="matrix(.792497 0 0 .792497 84.6893 -52.9827)"/><circle cx="53.4" cy="127.9" r="12.8" transform="matrix(.792497 0 0 .792497 86.7581 -5.61316)"/></g></g><g transform="matrix(.348731 .348731 -.348731 .348731 690.365 222.354)"><use xlink:href="#s" class="B E"/><clipPath id="I"><use xlink:href="#s"/></clipPath><g clip-path="url(#I)" class="C"><circle cx="90.8" cy="127.9" r="12.8" transform="matrix(.792497 0 0 .792497 83.6021 -28.3354)"/><circle cx="53.4" cy="127.9" r="12.8" transform="matrix(.792497 0 0 .792497 55.8698 -28.3354)"/><circle cx="53.4" cy="127.9" r="12.8" transform="matrix(.792497 0 0 .792497 84.5557 -28.3354)"/><circle cx="53.4" cy="127.9" r="12.8" transform="matrix(.792497 0 0 .792497 84.4753 -56.9408)"/><circle cx="53.4" cy="127.9" r="12.8" transform="matrix(.792497 0 0 .792497 84.5557 .350475)"/></g></g><g transform="matrix(.348731 .348731 -.348731 .348731 776.671 222.423)"><use xlink:href="#s" class="B E"/><clipPath id="J"><use xlink:href="#s"/></clipPath><g clip-path="url(#J)" class="C"><circle cx="90.8" cy="127.9" r="12.8" transform="matrix(.792497 0 0 .792497 84.1084 -31.6701)"/><circle cx="90.8" cy="127.9" r="12.8" transform="matrix(.792497 0 0 .792497 57.9455 -57.8331)"/><circle cx="90.8" cy="127.9" r="12.8" transform="matrix(.792497 0 0 .792497 67.845 -15.4067)"/><circle cx="90.8" cy="127.9" r="12.8" transform="matrix(.792497 0 0 .792497 41.682 -41.5696)"/><circle cx="90.8" cy="127.9" r="12.8" transform="matrix(.792497 0 0 .792497 51.5815 .856804)"/><circle cx="90.8" cy="127.9" r="12.8" transform="matrix(.792497 0 0 .792497 25.4186 -25.3061)"/></g></g><g class="C"><g class="B"><use xlink:href="#p" y="112.445"/><use xlink:href="#p" x="-3.941" y="166.121"/></g><circle cx="126.7" cy="73" r="12.8" transform="matrix(.348731 .348731 -.348731 .348731 306.935 278.733)"/><circle cx="126.7" cy="73" r="12.8" transform="matrix(.348731 .348731 -.348731 .348731 302.995 332.409)"/><circle cx="126.7" cy="73" r="12.8" transform="matrix(.348731 .348731 -.348731 .348731 345.139 278.663)"/><circle cx="126.7" cy="73" r="12.8" transform="matrix(.348731 .348731 -.348731 .348731 341.198 332.339)"/></g><g transform="matrix(.348731 .348731 -.348731 .348731 345.086 278.594)"><use xlink:href="#s" class="B E"/><clipPath id="K"><use xlink:href="#s"/></clipPath><g clip-path="url(#K)" class="C"><circle cx="145.324" cy="72.774" r="12.8"/><circle cx="107.924" cy="72.774" r="12.8"/></g></g><g transform="matrix(-.348731 .348731 .348731 .348731 344.441 278.209)"><use xlink:href="#s" class="B D"/><clipPath id="L"><use xlink:href="#s"/></clipPath><g clip-path="url(#L)" class="C"><g transform="matrix(0 1 1 0 -1.27581 .674192)"><circle cx="90.8" cy="127.9" r="12.8"/><circle cx="53.4" cy="127.9" r="12.8"/></g></g></g><g class="C"><g class="B"><use xlink:href="#p" x="86.306" y="112.445"/><use xlink:href="#p" x="-2.162" y="168.668"/></g><circle cx="126.7" cy="73" r="12.8" transform="matrix(.348731 .348731 -.348731 .348731 393.242 278.733)"/><circle cx="126.7" cy="73" r="12.8" transform="matrix(.348731 .348731 -.348731 .348731 304.773 334.956)"/><g class="B"><use xlink:href="#p" x="172.613" y="112.445"/><use xlink:href="#p" x="84.144" y="168.668"/></g><circle cx="126.7" cy="73" r="12.8" transform="matrix(.348731 .348731 -.348731 .348731 479.548 278.733)"/><circle cx="126.7" cy="73" r="12.8" transform="matrix(.348731 .348731 -.348731 .348731 391.08 334.956)"/><g class="B"><use xlink:href="#p" x="258.919" y="112.445"/><use xlink:href="#p" x="170.451" y="168.668"/></g><circle cx="126.7" cy="73" r="12.8" transform="matrix(.348731 .348731 -.348731 .348731 565.855 278.733)"/><circle cx="126.7" cy="73" r="12.8" transform="matrix(.348731 .348731 -.348731 .348731 477.386 334.956)"/><g class="B"><use xlink:href="#p" x="345.226" y="112.445"/><use xlink:href="#p" x="256.757" y="168.668"/></g><circle cx="126.7" cy="73" r="12.8" transform="matrix(.348731 .348731 -.348731 .348731 652.161 278.733)"/><circle cx="126.7" cy="73" r="12.8" transform="matrix(.348731 .348731 -.348731 .348731 563.693 334.956)"/></g><g transform="matrix(.348731 .348731 -.348731 .348731 431.655 278.646)"><use xlink:href="#s" class="B E"/><clipPath id="M"><use xlink:href="#s"/></clipPath><g clip-path="url(#M)" class="C"><circle cx="90.8" cy="127.9" r="12.8" transform="matrix(.792497 0 0 .792497 79.7691 -28.2635)"/><circle cx="53.4" cy="127.9" r="12.8" transform="matrix(.792497 0 0 .792497 62.039 -30.3323)"/><circle cx="53.4" cy="127.9" r="12.8" transform="matrix(.792497 0 0 .792497 85.8699 -29.8496)"/></g></g><g transform="matrix(.348731 .348731 -.348731 .348731 345.139 334.99)"><use xlink:href="#s" class="B E"/><clipPath id="N"><use xlink:href="#s"/></clipPath><g clip-path="url(#N)" class="C"><circle cx="90.8" cy="127.9" r="12.8" transform="matrix(.792497 0 0 .792497 79.7691 -28.2635)"/><circle cx="53.4" cy="127.9" r="12.8" transform="matrix(.792497 0 0 .792497 62.039 -30.3323)"/><circle cx="53.4" cy="127.9" r="12.8" transform="matrix(.792497 0 0 .792497 85.8699 -29.8496)"/></g></g><g transform="matrix(-.348731 .348731 .348731 .348731 344.231 334.99)"><use xlink:href="#s" class="B D"/><clipPath id="O"><use xlink:href="#s"/></clipPath><g clip-path="url(#O)" class="C"><circle cx="90.8" cy="127.9" r="12.8" transform="matrix(0 .792497 .792497 0 25.5865 25.9191)"/><circle cx="53.4" cy="127.9" r="12.8" transform="matrix(0 .792497 .792497 0 23.5177 8.18896)"/><circle cx="53.4" cy="127.9" r="12.8" transform="matrix(0 .792497 .792497 0 24.0004 32.0199)"/></g></g><g transform="matrix(-.348731 .348731 .348731 .348731 430.538 334.921)"><use xlink:href="#s" class="B D"/><clipPath id="P"><use xlink:href="#s"/></clipPath><g clip-path="url(#P)" class="C"><circle cx="90.8" cy="127.9" r="12.8" transform="matrix(0 .792497 .792497 0 25.5865 25.9191)"/><circle cx="53.4" cy="127.9" r="12.8" transform="matrix(0 .792497 .792497 0 23.5177 8.18896)"/><circle cx="53.4" cy="127.9" r="12.8" transform="matrix(0 .792497 .792497 0 24.0004 32.0199)"/></g></g><g transform="matrix(-.348731 .348731 .348731 .348731 517.054 334.99)"><use xlink:href="#s" class="B D"/><clipPath id="Q"><use xlink:href="#s"/></clipPath><g clip-path="url(#Q)" class="C"><circle cx="90.8" cy="127.9" r="12.8" transform="matrix(0 .792497 .792497 0 25.5865 25.9191)"/><circle cx="53.4" cy="127.9" r="12.8" transform="matrix(0 .792497 .792497 0 23.5177 8.18896)"/><circle cx="53.4" cy="127.9" r="12.8" transform="matrix(0 .792497 .792497 0 24.0004 32.0199)"/></g></g><g transform="matrix(-.348731 .348731 .348731 .348731 603.151 334.99)"><use xlink:href="#s" class="B D"/><clipPath id="R"><use xlink:href="#s"/></clipPath><g clip-path="url(#R)" class="C"><circle cx="90.8" cy="127.9" r="12.8" transform="matrix(0 .792497 .792497 0 25.5865 25.9191)"/><circle cx="53.4" cy="127.9" r="12.8" transform="matrix(0 .792497 .792497 0 23.5177 8.18896)"/><circle cx="53.4" cy="127.9" r="12.8" transform="matrix(0 .792497 .792497 0 24.0004 32.0199)"/></g></g><g transform="matrix(.348731 .348731 -.348731 .348731 517.752 278.576)"><use xlink:href="#s" class="B E"/><clipPath id="S"><use xlink:href="#s"/></clipPath><g clip-path="url(#S)" class="C"><circle cx="90.8" cy="127.9" r="12.8" transform="matrix(.792497 0 0 .792497 79.7691 -28.2635)"/><circle cx="53.4" cy="127.9" r="12.8" transform="matrix(.792497 0 0 .792497 62.039 -30.3323)"/><circle cx="53.4" cy="127.9" r="12.8" transform="matrix(.792497 0 0 .792497 84.6893 -52.9827)"/><circle cx="53.4" cy="127.9" r="12.8" transform="matrix(.792497 0 0 .792497 86.7581 -5.61316)"/></g></g><g transform="matrix(.348731 .348731 -.348731 .348731 431.183 334.99)"><use xlink:href="#s" class="B E"/><clipPath id="T"><use xlink:href="#s"/></clipPath><g clip-path="url(#T)" class="C"><circle cx="90.8" cy="127.9" r="12.8" transform="matrix(.792497 0 0 .792497 79.7691 -28.2635)"/><circle cx="53.4" cy="127.9" r="12.8" transform="matrix(.792497 0 0 .792497 62.039 -30.3323)"/><circle cx="53.4" cy="127.9" r="12.8" transform="matrix(.792497 0 0 .792497 84.6893 -52.9827)"/><circle cx="53.4" cy="127.9" r="12.8" transform="matrix(.792497 0 0 .792497 86.7581 -5.61316)"/></g></g><g transform="matrix(.348731 .348731 -.348731 .348731 604.058 278.576)"><use xlink:href="#s" class="B E"/><clipPath id="U"><use xlink:href="#s"/></clipPath><g clip-path="url(#U)" class="C"><circle cx="90.8" cy="127.9" r="12.8" transform="matrix(.792497 0 0 .792497 83.6021 -28.3354)"/><circle cx="53.4" cy="127.9" r="12.8" transform="matrix(.792497 0 0 .792497 55.8698 -28.3354)"/><circle cx="53.4" cy="127.9" r="12.8" transform="matrix(.792497 0 0 .792497 84.5557 -28.3354)"/><circle cx="53.4" cy="127.9" r="12.8" transform="matrix(.792497 0 0 .792497 84.4753 -56.9408)"/><circle cx="53.4" cy="127.9" r="12.8" transform="matrix(.792497 0 0 .792497 84.5557 .350475)"/></g></g><g transform="matrix(.348731 .348731 -.348731 .348731 517.961 334.99)"><use xlink:href="#s" class="B E"/><clipPath id="V"><use xlink:href="#s"/></clipPath><g clip-path="url(#V)" class="C"><circle cx="90.8" cy="127.9" r="12.8" transform="matrix(.792497 0 0 .792497 83.6021 -28.3354)"/><circle cx="53.4" cy="127.9" r="12.8" transform="matrix(.792497 0 0 .792497 55.8698 -28.3354)"/><circle cx="53.4" cy="127.9" r="12.8" transform="matrix(.792497 0 0 .792497 84.5557 -28.3354)"/><circle cx="53.4" cy="127.9" r="12.8" transform="matrix(.792497 0 0 .792497 84.4753 -56.9408)"/><circle cx="53.4" cy="127.9" r="12.8" transform="matrix(.792497 0 0 .792497 84.5557 .350475)"/></g></g><g transform="matrix(.348731 .348731 -.348731 .348731 690.365 278.646)"><use xlink:href="#s" class="B E"/><clipPath id="W"><use xlink:href="#s"/></clipPath><g clip-path="url(#W)" class="C"><circle cx="90.8" cy="127.9" r="12.8" transform="matrix(.792497 0 0 .792497 84.1084 -31.6701)"/><circle cx="90.8" cy="127.9" r="12.8" transform="matrix(.792497 0 0 .792497 57.9455 -57.8331)"/><circle cx="90.8" cy="127.9" r="12.8" transform="matrix(.792497 0 0 .792497 67.845 -15.4067)"/><circle cx="90.8" cy="127.9" r="12.8" transform="matrix(.792497 0 0 .792497 41.682 -41.5696)"/><circle cx="90.8" cy="127.9" r="12.8" transform="matrix(.792497 0 0 .792497 51.5815 .856804)"/><circle cx="90.8" cy="127.9" r="12.8" transform="matrix(.792497 0 0 .792497 25.4186 -25.3061)"/></g></g><g transform="matrix(.348731 .348731 -.348731 .348731 604.058 334.99)"><use xlink:href="#s" class="B E"/><clipPath id="X"><use xlink:href="#s"/></clipPath><g clip-path="url(#X)" class="C"><circle cx="90.8" cy="127.9" r="12.8" transform="matrix(.792497 0 0 .792497 84.1084 -31.6701)"/><circle cx="90.8" cy="127.9" r="12.8" transform="matrix(.792497 0 0 .792497 57.9455 -57.8331)"/><circle cx="90.8" cy="127.9" r="12.8" transform="matrix(.792497 0 0 .792497 67.845 -15.4067)"/><circle cx="90.8" cy="127.9" r="12.8" transform="matrix(.792497 0 0 .792497 41.682 -41.5696)"/><circle cx="90.8" cy="127.9" r="12.8" transform="matrix(.792497 0 0 .792497 51.5815 .856804)"/><circle cx="90.8" cy="127.9" r="12.8" transform="matrix(.792497 0 0 .792497 25.4186 -25.3061)"/></g></g><g class="C"><circle cx="126.7" cy="73" r="12.8" transform="matrix(.348731 .348731 -.348731 .348731 305.07 391.178)"/><use xlink:href="#p" x="84.441" y="224.89" class="B"/><circle cx="126.7" cy="73" r="12.8" transform="matrix(.348731 .348731 -.348731 .348731 391.376 391.178)"/><use xlink:href="#p" x="170.747" y="224.89" class="B"/></g><g transform="matrix(.348731 .348731 -.348731 .348731 345.173 391.213)"><use xlink:href="#s" class="B E"/><clipPath id="Y"><use xlink:href="#s"/></clipPath><g clip-path="url(#Y)" class="C"><circle cx="90.8" cy="127.9" r="12.8" transform="matrix(.792497 0 0 .792497 79.7691 -28.2635)"/><circle cx="53.4" cy="127.9" r="12.8" transform="matrix(.792497 0 0 .792497 62.039 -30.3323)"/><circle cx="53.4" cy="127.9" r="12.8" transform="matrix(.792497 0 0 .792497 84.6893 -52.9827)"/><circle cx="53.4" cy="127.9" r="12.8" transform="matrix(.792497 0 0 .792497 86.7581 -5.61316)"/></g></g><g transform="matrix(-.348731 .348731 .348731 .348731 344.266 391.213)"><use xlink:href="#s" class="B D"/><clipPath id="Z"><use xlink:href="#s"/></clipPath><g clip-path="url(#Z)" class="C"><circle cx="90.8" cy="127.9" r="12.8" transform="matrix(0 .792497 .792497 0 25.5865 25.9191)"/><circle cx="53.4" cy="127.9" r="12.8" transform="matrix(0 .792497 .792497 0 23.5177 8.18896)"/><circle cx="53.4" cy="127.9" r="12.8" transform="matrix(0 .792497 .792497 0 .867306 30.8393)"/><circle cx="53.4" cy="127.9" r="12.8" transform="matrix(0 .792497 .792497 0 48.2368 32.9081)"/></g></g><g transform="matrix(-.348731 .348731 .348731 .348731 430.538 391.213)"><use xlink:href="#s" class="B D"/><clipPath id="a"><use xlink:href="#s"/></clipPath><g clip-path="url(#a)" class="C"><circle cx="90.8" cy="127.9" r="12.8" transform="matrix(0 .792497 .792497 0 25.5865 25.9191)"/><circle cx="53.4" cy="127.9" r="12.8" transform="matrix(0 .792497 .792497 0 23.5177 8.18896)"/><circle cx="53.4" cy="127.9" r="12.8" transform="matrix(0 .792497 .792497 0 .867306 30.8393)"/><circle cx="53.4" cy="127.9" r="12.8" transform="matrix(0 .792497 .792497 0 48.2368 32.9081)"/></g></g><g transform="matrix(-.348731 .348731 .348731 .348731 516.635 391.213)"><use xlink:href="#s" class="B D"/><clipPath id="b"><use xlink:href="#s"/></clipPath><g clip-path="url(#b)" class="C"><circle cx="90.8" cy="127.9" r="12.8" transform="matrix(0 .792497 .792497 0 25.5865 25.9191)"/><circle cx="53.4" cy="127.9" r="12.8" transform="matrix(0 .792497 .792497 0 23.5177 8.18896)"/><circle cx="53.4" cy="127.9" r="12.8" transform="matrix(0 .792497 .792497 0 .867306 30.8393)"/><circle cx="53.4" cy="127.9" r="12.8" transform="matrix(0 .792497 .792497 0 48.2368 32.9081)"/></g></g><g transform="matrix(.348731 .348731 -.348731 .348731 431.183 391.213)"><use xlink:href="#s" class="B E"/><clipPath id="c"><use xlink:href="#s"/></clipPath><g clip-path="url(#c)" class="C"><circle cx="90.8" cy="127.9" r="12.8" transform="matrix(.792497 0 0 .792497 83.6021 -28.3354)"/><circle cx="53.4" cy="127.9" r="12.8" transform="matrix(.792497 0 0 .792497 55.8698 -28.3354)"/><circle cx="53.4" cy="127.9" r="12.8" transform="matrix(.792497 0 0 .792497 84.5557 -28.3354)"/><circle cx="53.4" cy="127.9" r="12.8" transform="matrix(.792497 0 0 .792497 84.4753 -56.9408)"/><circle cx="53.4" cy="127.9" r="12.8" transform="matrix(.792497 0 0 .792497 84.5557 .350475)"/></g></g><g transform="matrix(.348731 .348731 -.348731 .348731 517.752 391.143)"><use xlink:href="#s" class="B E"/><clipPath id="d"><use xlink:href="#s"/></clipPath><g clip-path="url(#d)" class="C"><circle cx="90.8" cy="127.9" r="12.8" transform="matrix(.792497 0 0 .792497 84.1084 -31.6701)"/><circle cx="90.8" cy="127.9" r="12.8" transform="matrix(.792497 0 0 .792497 57.9455 -57.8331)"/><circle cx="90.8" cy="127.9" r="12.8" transform="matrix(.792497 0 0 .792497 67.845 -15.4067)"/><circle cx="90.8" cy="127.9" r="12.8" transform="matrix(.792497 0 0 .792497 41.682 -41.5696)"/><circle cx="90.8" cy="127.9" r="12.8" transform="matrix(.792497 0 0 .792497 51.5815 .856804)"/><circle cx="90.8" cy="127.9" r="12.8" transform="matrix(.792497 0 0 .792497 25.4186 -25.3061)"/></g></g><g class="C"><use xlink:href="#p" x="-1.866" y="281.357" class="B"/><circle cx="126.7" cy="73" r="12.8" transform="matrix(.348731 .348731 -.348731 .348731 305.07 447.645)"/><use xlink:href="#p" x="84.441" y="281.357" class="B"/></g><g transform="matrix(.348731 .348731 -.348731 .348731 344.877 447.68)"><use xlink:href="#s" class="B E"/><clipPath id="e"><use xlink:href="#s"/></clipPath><g clip-path="url(#e)" class="C"><circle cx="90.8" cy="127.9" r="12.8" transform="matrix(.792497 0 0 .792497 83.6021 -28.3354)"/><circle cx="53.4" cy="127.9" r="12.8" transform="matrix(.792497 0 0 .792497 55.8698 -28.3354)"/><circle cx="53.4" cy="127.9" r="12.8" transform="matrix(.792497 0 0 .792497 84.5557 -28.3354)"/><circle cx="53.4" cy="127.9" r="12.8" transform="matrix(.792497 0 0 .792497 84.4753 -56.9408)"/><circle cx="53.4" cy="127.9" r="12.8" transform="matrix(.792497 0 0 .792497 84.5557 .350475)"/></g></g><g transform="matrix(.348731 .348731 -.348731 .348731 431.445 447.61)"><use xlink:href="#s" class="B E"/><clipPath id="f"><use xlink:href="#s"/></clipPath><g clip-path="url(#f)" class="C"><circle cx="90.8" cy="127.9" r="12.8" transform="matrix(.792497 0 0 .792497 84.1084 -31.6701)"/><circle cx="90.8" cy="127.9" r="12.8" transform="matrix(.792497 0 0 .792497 57.9455 -57.8331)"/><circle cx="90.8" cy="127.9" r="12.8" transform="matrix(.792497 0 0 .792497 67.845 -15.4067)"/><circle cx="90.8" cy="127.9" r="12.8" transform="matrix(.792497 0 0 .792497 41.682 -41.5696)"/><circle cx="90.8" cy="127.9" r="12.8" transform="matrix(.792497 0 0 .792497 51.5815 .856804)"/><circle cx="90.8" cy="127.9" r="12.8" transform="matrix(.792497 0 0 .792497 25.4186 -25.3061)"/></g></g><g transform="matrix(-.348731 .348731 .348731 .348731 430.748 278.576)"><use xlink:href="#s" class="B D"/><clipPath id="g"><use xlink:href="#s"/></clipPath><g clip-path="url(#g)" class="C"><g transform="matrix(0 1 1 0 -1.27581 .674192)"><circle cx="90.8" cy="127.9" r="12.8"/><circle cx="53.4" cy="127.9" r="12.8"/></g></g></g><g transform="matrix(-.348731 .348731 .348731 .348731 516.844 278.663)"><use xlink:href="#s" class="B D"/><clipPath id="h"><use xlink:href="#s"/></clipPath><g clip-path="url(#h)" class="C"><g transform="matrix(0 1 1 0 -1.27581 .674192)"><circle cx="90.8" cy="127.9" r="12.8"/><circle cx="53.4" cy="127.9" r="12.8"/></g></g></g><g transform="matrix(-.348731 .348731 .348731 .348731 603.361 278.698)"><use xlink:href="#s" class="B D"/><clipPath id="i"><use xlink:href="#s"/></clipPath><g clip-path="url(#i)" class="C"><g transform="matrix(0 1 1 0 -1.27581 .674192)"><circle cx="90.8" cy="127.9" r="12.8"/><circle cx="53.4" cy="127.9" r="12.8"/></g></g></g><g transform="matrix(-.348731 .348731 .348731 .348731 689.667 278.733)"><use xlink:href="#s" class="B D"/><clipPath id="j"><use xlink:href="#s"/></clipPath><g clip-path="url(#j)" class="C"><g transform="matrix(0 1 1 0 -1.27581 .674192)"><circle cx="90.8" cy="127.9" r="12.8"/><circle cx="53.4" cy="127.9" r="12.8"/></g></g></g><g transform="matrix(-.348731 .348731 .348731 .348731 344.231 447.558)"><use xlink:href="#s" class="B D"/><clipPath id="k"><use xlink:href="#s"/></clipPath><g clip-path="url(#k)" class="C"><circle cx="90.8" cy="127.9" r="12.8" transform="matrix(0 .792497 .792497 0 25.5146 29.7521)"/><circle cx="53.4" cy="127.9" r="12.8" transform="matrix(0 .792497 .792497 0 25.5146 2.01984)"/><circle cx="53.4" cy="127.9" r="12.8" transform="matrix(0 .792497 .792497 0 25.5146 30.7057)"/><circle cx="53.4" cy="127.9" r="12.8" transform="matrix(0 .792497 .792497 0 -3.09079 30.6253)"/><circle cx="53.4" cy="127.9" r="12.8" transform="matrix(0 .792497 .792497 0 54.2005 30.7057)"/></g></g><g transform="matrix(-.348731 .348731 .348731 .348731 430.538 447.558)"><use xlink:href="#s" class="B D"/><clipPath id="l"><use xlink:href="#s"/></clipPath><g clip-path="url(#l)" class="C"><circle cx="90.8" cy="127.9" r="12.8" transform="matrix(0 .792497 .792497 0 25.5146 29.7521)"/><circle cx="53.4" cy="127.9" r="12.8" transform="matrix(0 .792497 .792497 0 25.5146 2.01984)"/><circle cx="53.4" cy="127.9" r="12.8" transform="matrix(0 .792497 .792497 0 25.5146 30.7057)"/><circle cx="53.4" cy="127.9" r="12.8" transform="matrix(0 .792497 .792497 0 -3.09079 30.6253)"/><circle cx="53.4" cy="127.9" r="12.8" transform="matrix(0 .792497 .792497 0 54.2005 30.7057)"/></g></g><g transform="matrix(.348731 .348731 -.348731 .348731 345.086 503.954)"><use xlink:href="#s" class="B E"/><clipPath id="m"><use xlink:href="#s"/></clipPath><g clip-path="url(#m)" class="C"><circle cx="90.8" cy="127.9" r="12.8" transform="matrix(.792497 0 0 .792497 84.1084 -31.6701)"/><circle cx="90.8" cy="127.9" r="12.8" transform="matrix(.792497 0 0 .792497 57.9455 -57.8331)"/><circle cx="90.8" cy="127.9" r="12.8" transform="matrix(.792497 0 0 .792497 67.845 -15.4067)"/><circle cx="90.8" cy="127.9" r="12.8" transform="matrix(.792497 0 0 .792497 41.682 -41.5696)"/><circle cx="90.8" cy="127.9" r="12.8" transform="matrix(.792497 0 0 .792497 51.5815 .856804)"/><circle cx="90.8" cy="127.9" r="12.8" transform="matrix(.792497 0 0 .792497 25.4186 -25.3061)"/></g></g><g transform="matrix(-.348731 .348731 .348731 .348731 344.441 503.954)"><use xlink:href="#s" class="B D"/><clipPath id="n"><use xlink:href="#s"/></clipPath><g clip-path="url(#n)" class="C"><circle cx="90.8" cy="127.9" r="12.8" transform="matrix(0 .792497 .792497 0 22.1799 30.2584)"/><circle cx="90.8" cy="127.9" r="12.8" transform="matrix(0 .792497 .792497 0 -3.98306 4.09549)"/><circle cx="90.8" cy="127.9" r="12.8" transform="matrix(0 .792497 .792497 0 38.4433 13.995)"/><circle cx="90.8" cy="127.9" r="12.8" transform="matrix(0 .792497 .792497 0 12.2804 -12.168)"/><circle cx="90.8" cy="127.9" r="12.8" transform="matrix(0 .792497 .792497 0 54.7068 -2.26847)"/><circle cx="90.8" cy="127.9" r="12.8" transform="matrix(0 .792497 .792497 0 28.5439 -28.4314)"/></g></g></g><defs ><path id="p" d="M345.174 215.703h34.594c2.581 0 4.289 1.221 4.324 4.324v32.153c0 2.302-1.848 3.941-3.941 3.941l-69.921-.035c-2.511 0-4.359-1.43-4.359-4.359v-31.456c0-2.511 2.092-4.394 4.394-4.394l34.908-.174z"/><path id="q" d="M343.674 217.76v36.198h-32.92c-2.023 0-3.104-1.011-3.104-3.104v-30.13c0-1.883 1.116-2.86 2.86-2.86l33.164-.105z"/><path id="r" d="M345.906 254.028V217.83h32.92c2.023 0 3.104 1.011 3.104 3.104v30.13c0 1.883-1.116 2.86-2.86 2.86l-33.164.105z"/><path id="s" d="M127 124.8L75.1 72.9l47.2-47.2c2.9-2.9 5.9-3 8.9 0l43.2 43.2c2.7 2.7 2.5 5.7 0 8.2L127 124.8z"/><path id="t" d="M389.612 215.703h70.145c5.233 0 8.697 2.475 8.768 8.768v65.195c0 4.667-3.748 7.99-7.99 7.99l-141.775-.071c-5.091 0-8.839-2.899-8.839-8.839v-63.781c0-5.091 4.243-8.91 8.91-8.91l70.781-.354z"/><path id="u" d="M386.571 219.875v73.398H319.82c-4.101 0-6.293-2.051-6.293-6.293v-61.094c0-3.818 2.263-5.798 5.798-5.798l67.246-.212z"/></defs></svg>