<svg xmlns="http://www.w3.org/2000/svg" xmlns:xlink="http://www.w3.org/1999/xlink" width="379" height="74" fill-rule="evenodd" stroke-linejoin="round" stroke-miterlimit="2" xmlns:v="https://vecta.io/nano"><style><![CDATA[.B{fill-rule:nonzero}]]></style><path d="M3.189 18.27c.035 1.41.317 2.573.811 3.524.529.952 1.198 1.656 2.009 2.114s1.727.67 2.749.67c.916 0 1.797-.141 2.573-.423.811-.282 1.621-.705 2.502-1.304l1.41 2.009c-.881.705-1.903 1.269-3.066 1.656-1.128.388-2.291.599-3.454.599-1.833 0-3.383-.423-4.722-1.233-1.304-.811-2.291-1.974-2.996-3.489-.67-1.48-.987-3.207-.987-5.181 0-1.938.317-3.63 1.022-5.145.67-1.515 1.656-2.678 2.89-3.524 1.269-.846 2.714-1.269 4.37-1.269 1.621 0 2.996.352 4.159 1.128 1.163.74 2.044 1.797 2.643 3.207.634 1.41.952 3.066.952 4.969l-.07 1.692H3.189zm5.145-8.528c-1.445 0-2.643.529-3.559 1.551-.952 1.057-1.445 2.573-1.586 4.617h9.938c-.035-2.009-.493-3.524-1.339-4.581S9.814 9.742 8.334 9.742zM29.88 22.006c0 .881.282 1.551.846 1.938.564.423 1.339.634 2.326.634 1.022 0 2.079-.211 3.172-.67l.811 2.22a8.9 8.9 0 0 1-2.009.705c-.775.176-1.586.282-2.502.282-1.128 0-2.114-.211-2.96-.634a4.6 4.6 0 0 1-2.009-1.833c-.458-.811-.705-1.727-.705-2.819V2.411h-5.815V.015h8.846v21.991z" fill="#38a713" class="B"/><path d="M50.651 24.614c1.445 0 2.608-.282 3.454-.846.846-.529 1.269-1.269 1.269-2.185 0-.634-.106-1.163-.317-1.551-.247-.388-.67-.775-1.339-1.128-.67-.317-1.621-.634-2.96-.987-1.445-.352-2.643-.74-3.559-1.163s-1.656-.987-2.15-1.692c-.529-.67-.775-1.551-.775-2.608s.317-1.974.916-2.749 1.445-1.374 2.537-1.797 2.361-.634 3.771-.634c1.445 0 2.749.176 3.877.564 1.163.388 2.185.881 3.031 1.515l-1.339 2.079a8.82 8.82 0 0 0-2.502-1.269c-.881-.282-1.868-.458-3.031-.458-1.41 0-2.467.247-3.137.67-.634.458-.987 1.057-.987 1.833 0 .564.176 1.022.458 1.41.317.352.811.67 1.515.952s1.727.634 3.101.987c1.374.388 2.502.775 3.383 1.233s1.551 1.057 2.044 1.833c.493.74.74 1.656.74 2.819 0 1.269-.352 2.361-1.092 3.207-.775.846-1.727 1.48-2.96 1.868-1.198.388-2.537.599-3.947.599-2.996 0-5.498-.846-7.471-2.573l1.762-2.009c.74.67 1.621 1.163 2.608 1.515s2.009.564 3.101.564zM68.25 18.27c.035 1.41.317 2.573.811 3.524.529.952 1.198 1.656 2.009 2.114s1.727.67 2.749.67c.916 0 1.797-.141 2.573-.423.811-.282 1.621-.705 2.502-1.304l1.41 2.009c-.881.705-1.903 1.269-3.066 1.656-1.128.388-2.291.599-3.454.599-1.833 0-3.383-.423-4.722-1.233-1.304-.811-2.291-1.974-2.996-3.489-.67-1.48-.987-3.207-.987-5.181 0-1.938.317-3.63 1.022-5.145.67-1.515 1.656-2.678 2.89-3.524 1.269-.846 2.714-1.269 4.37-1.269 1.621 0 2.996.352 4.159 1.128 1.163.74 2.044 1.797 2.643 3.207.634 1.41.952 3.066.952 4.969l-.07 1.692H68.25zm5.145-8.528c-1.445 0-2.643.529-3.559 1.551-.952 1.057-1.445 2.573-1.586 4.617h9.938c-.035-2.009-.493-3.524-1.339-4.581s-1.974-1.586-3.454-1.586zm18.41 1.374c0-.529.141-.987.388-1.445a2.55 2.55 0 0 1 1.057-1.057c.423-.247.916-.388 1.48-.388a2.99 2.99 0 0 1 1.48.388 2.55 2.55 0 0 1 1.057 1.057 2.62 2.62 0 0 1 .388 1.445c0 .564-.106 1.022-.388 1.48-.247.458-.599.811-1.057 1.092a2.99 2.99 0 0 1-1.48.388c-.564 0-1.057-.141-1.48-.388-.458-.282-.811-.634-1.057-1.092s-.388-.916-.388-1.48zm0 13.039c0-.493.141-.987.388-1.445.247-.423.599-.811 1.057-1.057.423-.282.916-.388 1.48-.388.529 0 1.022.106 1.48.388.458.247.811.634 1.057 1.057.282.458.388.952.388 1.445 0 .564-.106 1.057-.388 1.515-.247.423-.599.775-1.057 1.057a2.99 2.99 0 0 1-1.48.388c-.564 0-1.057-.141-1.48-.388-.458-.282-.811-.634-1.057-1.057a3.12 3.12 0 0 1-.388-1.515z" class="B"/><path d="M247.385 41.443c.035 1.41.317 2.573.811 3.524.529.952 1.198 1.656 2.009 2.114s1.727.67 2.749.67c.916 0 1.797-.141 2.573-.423.811-.282 1.621-.705 2.502-1.304l1.41 2.009c-.881.705-1.903 1.269-3.066 1.656-1.128.388-2.291.599-3.454.599-1.833 0-3.383-.423-4.722-1.233-1.304-.811-2.291-1.974-2.996-3.489-.67-1.48-.987-3.207-.987-5.181 0-1.938.317-3.63 1.022-5.145.67-1.515 1.656-2.678 2.89-3.524 1.269-.846 2.714-1.269 4.37-1.269 1.621 0 2.996.352 4.159 1.128 1.163.74 2.044 1.797 2.643 3.207.634 1.41.952 3.066.952 4.969l-.07 1.692h-12.793zm5.145-8.528c-1.445 0-2.643.529-3.559 1.551-.952 1.057-1.445 2.573-1.586 4.617h9.938c-.035-2.009-.493-3.524-1.339-4.581s-1.974-1.586-3.454-1.586zm21.546 12.264c0 .881.282 1.551.846 1.938.564.423 1.339.634 2.326.634 1.022 0 2.079-.211 3.172-.67l.811 2.22a8.9 8.9 0 0 1-2.009.705c-.775.176-1.586.282-2.502.282-1.128 0-2.114-.211-2.96-.634a4.6 4.6 0 0 1-2.009-1.833c-.458-.811-.705-1.727-.705-2.819V25.584h-5.815v-2.396h8.846v21.991z" fill="#38a713" class="B"/><path d="M295.587 21.919c.634 0 1.198.211 1.586.599.423.423.634.916.634 1.515 0 .634-.211 1.163-.634 1.551-.388.423-.952.634-1.586.634a2.15 2.15 0 0 1-1.586-.634c-.423-.423-.599-.916-.599-1.551 0-.599.176-1.092.599-1.515a2.27 2.27 0 0 1 1.586-.599zm-6.308 8.916h8.705V47.47h5.392v2.396h-14.273V47.47h5.85V33.232h-5.674v-2.396zm32.013-8.035c.987 0 1.903.07 2.714.247a11.53 11.53 0 0 1 2.432.775l-.952 2.255c-1.198-.529-2.573-.775-4.088-.775-2.678 0-4.018 1.022-4.018 3.137v3.877h6.449l-.317 2.396h-6.132v15.154h-3.031V34.712h-4.546v-2.396h4.546V28.51c0-1.128.317-2.15.916-2.996.599-.881 1.41-1.551 2.467-2.009 1.057-.493 2.22-.705 3.559-.705z" fill="#d926a5" class="B"/><use xlink:href="#B" class="B"/><path d="M98.174 40.476c.634 0 1.198.211 1.586.599.423.423.634.916.634 1.515 0 .634-.211 1.163-.634 1.551-.388.423-.952.634-1.586.634a2.15 2.15 0 0 1-1.586-.634c-.423-.423-.599-.916-.599-1.551 0-.599.176-1.092.599-1.515a2.27 2.27 0 0 1 1.586-.599zm-6.308 8.916h8.705v16.634h5.392v2.396H91.689v-2.396h5.85V51.789h-5.674v-2.396zm32.012-8.035c.987 0 1.903.07 2.714.247a11.53 11.53 0 0 1 2.432.775l-.952 2.255c-1.198-.529-2.573-.775-4.088-.775-2.678 0-4.018 1.022-4.018 3.137v3.877h6.449l-.317 2.396h-6.132v15.154h-3.031V53.269h-4.546v-2.396h4.546v-3.806c0-1.128.317-2.15.916-2.996.599-.881 1.41-1.551 2.467-2.009 1.057-.493 2.22-.705 3.559-.705z" fill="#d926a5" class="B"/><use xlink:href="#B" x="-197.413" y="18.557" class="B"/><path d="M219.355 39.865v-6.197c-1.912-.076-3.442-.536-4.667-1.454-1.148-.842-2.066-2.142-2.524-3.827-.536-1.684-.766-4.897-.766-9.563l-.382-9.412c-.306-2.372-.994-4.285-2.066-5.663-.994-1.454-2.297-2.524-4.055-3.06-1.148-.46-3.06-.688-5.585-.688h-2.066v6.045h1.148c2.297 0 3.827.23 4.591.766s1.3 1.53 1.606 2.83c.23.918.306 4.209.306 9.87 0 5.433.688 9.181 1.836 11.554s3.215 4.285 6.197 5.663c-2.218.918-4.055 2.297-5.279 4.055s-2.066 4.209-2.448 7.269c-.154 1.684-.306 5.509-.306 11.63 0 3.291-.382 5.433-1.224 6.351s-2.603 1.53-5.279 1.53h-1.148v5.891h2.066c2.218 0 3.827-.076 4.821-.382 1.684-.46 3.061-1.224 4.055-2.297 1.072-.994 1.912-2.524 2.448-4.361.46-1.836.766-4.821.766-9.03l.154-8.033c.076-2.448.536-4.285 1.224-5.585.612-1.224 1.53-2.297 2.754-3.061.918-.536 2.297-.842 3.827-.842h-.005z" fill="#c4c4c4" class="B"/><defs ><path id="B" d="M357.49 47.082c0-.564.106-1.092.388-1.586a3.07 3.07 0 0 1 1.163-1.163c.458-.282 1.022-.423 1.586-.423a3.31 3.31 0 0 1 1.656.423c.493.282.846.67 1.128 1.163s.423 1.022.423 1.586a3.18 3.18 0 0 1-.423 1.621c-.282.493-.634.881-1.128 1.163a3.31 3.31 0 0 1-1.656.423c-.564 0-1.128-.141-1.586-.423a3.07 3.07 0 0 1-1.163-1.163c-.282-.493-.388-1.022-.388-1.621zm14.449 0c0-.564.141-1.092.423-1.586.247-.493.634-.881 1.128-1.163a3.18 3.18 0 0 1 1.621-.423 3.18 3.18 0 0 1 1.621.423 3.07 3.07 0 0 1 1.163 1.163c.247.493.388 1.022.388 1.586a3.55 3.55 0 0 1-.388 1.621 3.07 3.07 0 0 1-1.163 1.163 3.18 3.18 0 0 1-1.621.423 3.18 3.18 0 0 1-1.621-.423c-.493-.282-.881-.67-1.128-1.163a3.18 3.18 0 0 1-.423-1.621zm-28.933 0c0-.564.141-1.092.423-1.586s.67-.881 1.128-1.163a3.18 3.18 0 0 1 1.621-.423c.599 0 1.163.141 1.621.423a3.07 3.07 0 0 1 1.163 1.163c.282.493.423 1.022.423 1.586a3.18 3.18 0 0 1-.423 1.621 3.07 3.07 0 0 1-1.163 1.163c-.458.282-1.022.423-1.621.423a3.18 3.18 0 0 1-1.621-.423c-.458-.282-.846-.67-1.128-1.163a3.18 3.18 0 0 1-.423-1.621z"/></defs></svg>