<svg xmlns="http://www.w3.org/2000/svg" xmlns:xlink="http://www.w3.org/1999/xlink" width="571" height="126" fill-rule="evenodd" stroke-linejoin="round" stroke-miterlimit="2" xmlns:v="https://vecta.io/nano"><g transform="scale(.297396 .116667)"><g fill="#26d9b9"><use xlink:href="#B" transform="matrix(2.68854 0 0 3.7051 -989.875 -513.741)"/><use xlink:href="#B" transform="matrix(2.68854 0 0 3.7051 -988.944 -182.145)"/><use xlink:href="#B" transform="matrix(2.68854 0 0 3.7051 -842.005 -513.741)"/><use xlink:href="#B" transform="matrix(2.68854 0 0 3.7051 -841.074 -182.145)"/><use xlink:href="#B" transform="matrix(2.68854 0 0 3.7051 -694.135 -513.741)"/><use xlink:href="#B" transform="matrix(2.68854 0 0 3.7051 -693.205 -182.145)"/><use xlink:href="#B" transform="matrix(2.68854 0 0 3.7051 -546.266 -513.741)"/><use xlink:href="#B" transform="matrix(2.68854 0 0 3.7051 -545.335 -182.145)"/><use xlink:href="#B" transform="matrix(2.68854 0 0 3.7051 -397.465 -182.145)"/><use xlink:href="#B" transform="matrix(2.68854 0 0 3.7051 -249.596 -182.145)"/><use xlink:href="#B" transform="matrix(2.68854 0 0 3.7051 -101.726 -182.145)"/><use xlink:href="#B" transform="matrix(2.68854 0 0 3.7051 46.1436 -182.145)"/></g><g fill-rule="nonzero"><path d="M97.282 311.353c0 18.657 2.488 27.985 7.465 27.985.732 0 1.903-.373 3.513-1.119 1.61-.373 2.781-.746 3.513-.746 1.317 0 2.342 1.119 3.367 3.358.878 2.612 1.317 5.224 1.317 8.582 0 8.582-2.196 13.06-6.587 13.06h-.878c-.439-.373-.878-.373-1.025-.373l-7.173-2.612c-2.781-1.119-5.855-1.493-9.222-1.493-3.659 0-7.026.373-9.807 1.493l-7.319 2.612c-.293 0-.586 0-1.025.373h-1.025c-4.245 0-6.441-4.478-6.441-13.06 0-7.836 1.61-11.94 4.684-11.94.732 0 1.903.373 3.513.746 1.61.746 2.781 1.119 3.513 1.119 4.831 0 7.319-9.328 7.319-27.985v-26.12l.146-32.836V220.68l-.146-60.821c0-17.537-3.513-26.493-10.686-26.493H69.76c-7.026 0-10.539 8.582-10.539 26.12l.146 12.687.586 13.806c.146 2.239.146 5.224.146 9.328 0 15.672-1.903 23.508-5.709 23.508-3.659 0-5.416-5.597-5.416-17.164 0-3.358.146-8.955.293-16.791l.439-22.761c0-6.343-.146-12.687-.293-19.403l-.586-16.791c0-10.448 1.903-15.672 5.562-15.672 1.317 0 4.538.373 9.515 1.119.439 0 4.538.373 12.003.746l16.687.746c1.903 0 7.173-.373 15.663-.746 1.903 0 4.977-.373 9.515-1.119 3.952-.746 7.173-1.119 9.368-1.119 4.831 0 7.319 5.224 7.319 15.299v.746c0 2.612-.146 7.09-.293 13.806l-.878 21.642v4.105c0 3.731.146 9.702.439 17.537l.586 19.403c0 10.075-1.903 15.299-5.709 15.299-3.659 0-5.562-6.343-5.562-18.657 0-4.478.146-11.194.439-20.149l.439-19.776c0-17.164-3.806-25.746-11.564-25.746h-4.099c-3.659 0-6.148 1.866-7.758 5.597-1.61 4.105-2.488 10.448-2.635 19.403l-.439 26.12-.146 126.867zm69.671-191.046l-.586 72.389c3.952-9.328 7.465-16.045 10.686-19.776 3.22-3.358 7.026-5.224 11.418-5.224 8.344 0 15.077 5.97 20.2 18.284s7.612 28.358 7.612 48.135v62.314l.146 24.254c.439 12.314 1.61 18.657 3.806 18.657.732 0 1.903-.373 3.367-1.493.586-.373 1.317-.373 2.342-.373 3.659 0 5.416 4.105 5.416 12.314s-2.342 12.314-7.026 12.314c-1.317 0-3.074-.373-5.562-1.119-4.099-1.119-7.465-1.866-9.954-1.866s-4.538.373-5.855.746c-4.099 1.493-6.587 2.239-7.612 2.239-1.757 0-3.22-1.493-4.391-4.105s-1.757-5.597-1.757-9.702c0-3.358.586-5.97 1.61-8.209s2.196-3.358 3.513-3.358c1.025 0 2.342.746 3.806 1.866.878.746 1.757 1.119 2.488 1.119 2.928 0 4.391-8.209 4.538-24.254l.146-17.537.146-16.045v-20.149c0-25.373-1.025-42.538-2.928-51.12-2.781-13.06-7.758-19.403-14.931-19.403-7.758 0-13.321 6.716-16.834 20.149-2.488 9.328-3.659 23.881-3.806 44.403l-.146 26.866c0 1.493 0 4.105-.146 7.463v7.09l.146 24.627c.439 12.314 1.903 18.284 4.245 18.284.732 0 1.903-.373 3.367-1.493 1.317-.746 2.342-1.119 3.074-1.119 3.074 0 4.684 3.731 4.684 11.567 0 8.582-2.196 13.06-6.441 13.06-1.317 0-3.367-.373-6.148-1.119-3.659-1.119-6.88-1.493-9.515-1.493-1.61 0-3.952.373-6.88 1.119-3.952 1.119-6.441 1.493-7.465 1.493-3.952 0-6.002-4.478-6.002-13.433 0-7.463 1.903-11.194 5.562-11.194 1.317 0 2.196.373 2.781.746 1.61.746 2.781 1.119 3.513 1.119 1.61 0 2.635-3.731 3.22-11.567.439-7.463.732-22.761.878-46.269l.146-66.792-.878-70.896c-.586-9.702-1.903-14.552-4.099-14.552-.732 0-1.757.373-3.074 1.119s-2.488 1.119-3.22 1.119c-3.367 0-4.977-4.105-4.977-11.94 0-3.358.586-6.343 1.757-8.955s2.635-3.731 4.245-3.731c.439 0 2.196.373 4.977 1.119 1.903.373 3.806.746 6.002.746.878 0 2.049-.373 3.659-.746s2.635-.746 3.367-.746c2.196 0 3.367 4.105 3.367 12.314v.746z"/><use xlink:href="#C"/><use xlink:href="#D"/><use xlink:href="#C" x="1020.682" y="663.19"/><use xlink:href="#E"/><use xlink:href="#F"/><use xlink:href="#G"/><use xlink:href="#E" x="258.368"/><path d="M1695.137 972.304l.293-23.881c.146-10.075 1.903-15.299 5.27-15.299s5.123 5.597 5.123 17.164c0 27.239-1.317 45.896-4.099 56.717-3.659 14.552-9.807 21.642-18.297 21.642-7.758 0-13.321-6.343-16.687-19.03-2.488-9.328-3.659-25-3.659-47.015V873.05c0-5.224-.878-7.836-2.781-7.836h-4.684c-1.61 0-2.781-1.119-3.806-4.105-1.025-2.612-1.61-5.597-1.61-9.328 0-3.358.586-6.716 1.61-9.328s2.049-4.105 3.367-4.105h5.709c1.61 0 2.488-2.239 2.488-7.09v-38.433c0-9.328 1.903-14.179 5.709-14.179 3.513 0 5.27 4.851 5.27 14.179v39.926c0 3.731.878 5.597 2.635 5.597h15.955c3.659 0 5.562 4.478 5.562 13.06 0 9.328-2.049 13.806-6.002 13.806h-16.102c-1.317 0-2.049 2.612-2.049 7.836v91.792c0 26.12 3.367 39.179 10.1 39.179 6.88 0 10.393-10.448 10.686-31.717z"/><use xlink:href="#G" x="229.091"/><use xlink:href="#F" x="394.194"/><use xlink:href="#C" x="430.962" y="331.59"/><use xlink:href="#D" x="430.963" y="331.59"/></g></g><defs ><path id="B" d="M386 257h50v71h-50z"/><path id="C" d="M260.924 252.397v48.508l.146 22.015c.439 11.194 1.757 16.791 3.952 16.791.439 0 1.757-.746 3.659-1.866.439-.373 1.171-.746 2.196-.746 3.659 0 5.562 4.105 5.562 12.314 0 3.358-.586 6.343-1.757 8.955-1.317 2.612-2.781 3.731-4.684 3.731-1.61 0-3.952-.373-7.026-1.866-3.22-1.119-5.562-1.493-7.173-1.493a24.82 24.82 0 0 0-8.49 1.493c-3.806 1.119-6.294 1.866-7.612 1.866-3.952 0-5.855-4.105-5.855-12.687 0-8.209 1.61-12.314 4.977-12.314.732 0 1.903.373 3.513 1.119 1.464.746 2.635 1.119 3.367 1.119 2.342 0 3.806-7.836 4.245-23.881v-95.523c-.439-15.672-1.903-23.508-4.391-23.508-.732 0-1.903.373-3.22 1.119-1.464 1.119-2.488 1.493-3.22 1.493-3.513 0-5.27-4.105-5.27-11.94 0-8.582 2.196-12.687 6.441-12.687 1.903 0 3.22 0 3.952.373 3.074 1.119 5.123 1.493 6.002 1.493.732 0 1.903-.373 3.659-1.119 1.61-.373 2.781-.746 3.513-.746 2.781 0 4.245 4.851 4.245 14.552 0 1.119-.293 7.836-.293 8.955-.146 1.866-.146 9.702-.293 23.135l-.146 31.344zm-7.612-97.762c-2.196 0-4.099-2.239-5.709-6.343-1.757-4.105-2.488-8.955-2.488-14.552s.732-10.448 2.488-14.552c1.61-4.105 3.513-5.97 5.709-5.97s4.245 1.866 5.855 5.97 2.342 8.955 2.342 14.552-.732 10.448-2.342 14.552-3.659 6.343-5.855 6.343z"/><path id="D" d="M313.479 167.695c6.587 0 12.003 4.478 16.395 13.06v-1.493c0-9.328 1.61-13.806 4.684-13.806 3.22 0 4.831 4.105 4.831 11.94 0 1.493-.146 5.224-.293 11.194-.439 4.851-.586 10.075-.586 14.925 0 2.985.146 7.463.586 13.06.293 5.597.439 10.075.439 13.06 0 9.328-1.61 14.179-4.831 14.179-3.074 0-4.684-4.105-4.831-11.94l-.146-12.314c-.146-7.463-1.757-13.806-4.977-19.403-3.367-5.224-7.173-7.836-11.564-7.836-4.538 0-8.197 2.985-11.271 8.582-3.074 5.97-4.538 13.433-4.538 22.015 0 16.045 4.245 25.373 12.881 28.358l8.49 2.985c16.541 5.597 24.885 23.135 24.885 52.612 0 17.911-2.635 32.463-8.051 43.284-5.416 11.194-12.442 16.791-21.079 16.791-8.051 0-15.077-5.97-21.079-17.537.146 2.612.146 4.851.146 7.09 0 8.955-1.61 13.433-4.977 13.433-3.659 0-5.416-5.224-5.416-15.299 0 1.866.293-4.851.878-19.403.146-3.358.293-7.09.293-10.448 0-5.97-.146-11.567-.586-16.791s-.586-9.328-.586-12.314c0-8.582 1.61-13.06 4.684-13.06 2.049 0 3.367 1.119 3.952 3.731.439 2.612.732 8.955.878 19.776s2.342 19.403 6.587 26.12 9.807 10.075 16.395 10.075c4.831 0 8.783-2.985 11.857-9.328s4.684-14.179 4.684-23.508c0-16.791-5.27-26.866-15.809-29.478-10.1-2.612-17.712-7.836-22.982-15.299-5.27-7.09-7.905-20.149-7.905-38.433 0-17.537 2.635-31.344 7.758-42.538 5.123-10.821 11.857-16.045 20.2-16.045z"/><path id="E" d="M1325.672 848.796v10.448c5.855-19.03 13.613-28.358 23.421-28.358 5.27 0 10.247 3.358 14.931 10.075 4.684 7.09 7.905 15.672 9.515 25.746 1.317 8.582 2.049 19.403 2.049 33.209v70.896l.146 19.03c.439 8.582 1.757 12.687 3.952 12.687.878 0 2.049-.373 3.513-1.119 1.317-.373 2.342-.746 2.928-.746 1.317 0 2.342 1.119 3.367 3.358.878 2.239 1.317 4.851 1.317 8.209 0 3.731-.586 6.716-1.757 9.328s-2.635 3.731-4.245 3.731c-1.317 0-3.659-.373-6.733-1.493s-6.002-1.493-8.783-1.493c-2.488 0-4.684.373-6.294.746-4.831 1.493-7.465 2.239-7.758 2.239-3.952 0-5.855-4.478-5.855-13.06 0-7.836 1.61-11.567 4.977-11.567.732 0 1.61.373 2.635.746 1.903 1.119 3.074 1.493 3.513 1.493 2.342 0 3.659-6.716 3.806-20.523l.293-19.03.146-22.761v-28.358c0-13.06-.293-22.388-.732-27.239-.878-9.328-2.781-16.791-5.709-22.015-3.22-5.597-6.88-8.582-10.978-8.582-7.758 0-13.467 7.09-16.834 21.269-2.342 9.702-3.513 26.12-3.513 49.627v49.627c0 10.821.293 18.284.878 22.388s1.61 5.97 3.22 5.97c.732 0 1.903-.373 3.22-1.493s2.488-1.493 3.367-1.493c3.074 0 4.538 4.105 4.538 12.687 0 8.209-1.903 12.314-5.855 12.314-.732 0-3.367-.746-7.612-2.239-2.196-.746-4.538-1.119-7.173-1.119-2.049 0-4.831.373-8.197 1.493-4.245 1.119-6.733 1.866-7.319 1.866-4.099 0-6.148-4.105-6.148-12.687 0-7.836 1.61-11.94 4.684-11.94.439 0 1.317.373 2.781 1.119 1.317.746 2.488 1.119 3.806 1.119 2.928 0 4.391-7.09 4.538-21.642l.293-41.418v-45.15l-.293-13.06c-.146-8.582-.586-14.179-1.171-17.537-.732-2.985-1.757-4.478-3.367-4.478-.732 0-1.61.373-2.928.746-1.317.746-2.342 1.119-3.074 1.119-3.513 0-5.27-4.105-5.27-11.94 0-8.209 2.196-12.314 6.587-12.314.586 0 1.025 0 1.464.373l5.416 1.493c1.61 0 2.928-.373 4.099-.746 2.488-.373 3.806-.746 3.952-.746 2.781 0 4.245 3.731 4.245 11.194z"/><path id="F" d="M1429.303 830.885c9.661 0 16.834 9.702 21.664 28.732V821.93c0-10.075-.146-16.045-.293-18.284-.439-7.836-1.903-11.567-4.099-11.567-.732 0-1.903.373-3.22 1.119-1.464.746-2.635 1.119-3.367 1.119-3.659 0-5.416-4.105-5.416-11.94 0-8.209 2.488-12.314 7.319-12.314.732 0 2.196.373 4.245.746l4.831 1.119c.878 0 2.196-.373 3.806-.746s2.928-.746 3.806-.746c2.781 0 4.099 4.851 4.099 14.925v4.105c-.146.746-.146 7.463-.293 19.776 0 1.493-.146 11.194-.439 28.732l-.293 28.358v36.567l.293 62.314c.146 16.418.439 26.493.878 30.597s1.61 5.97 3.513 5.97c1.317 0 2.196-.373 2.928-.746 1.61-.373 2.635-.746 3.22-.746 3.659 0 5.416 4.105 5.416 12.314 0 8.582-2.196 12.687-6.587 12.687-1.025 0-2.488-.373-4.391-.746-2.049-.746-3.513-1.119-4.538-1.119-.293 0-1.464.373-3.367.746-1.171.746-2.196 1.119-3.074 1.119-2.635 0-3.952-4.478-3.952-13.433v-1.866l.146-6.343c-5.123 17.537-12.735 26.493-22.542 26.493-9.954 0-18.005-9.328-24.006-27.612s-9.076-42.538-9.076-72.389c0-30.224 2.928-54.105 8.929-72.389 6.002-17.911 13.906-26.866 23.86-26.866zm20.786 131.717c.439-8.209.586-18.657.586-31.717 0-16.791-.293-27.985-.732-33.955-.878-12.314-2.928-22.015-6.294-29.105-3.952-8.209-8.344-12.314-13.467-12.314-6.88 0-12.15 6.716-15.955 19.776-3.952 13.06-5.855 31.344-5.855 54.105 0 23.508 2.049 42.165 6.002 55.597 3.952 13.806 9.515 20.523 16.395 20.523 5.27 0 9.661-3.731 13.174-11.94 3.513-7.463 5.562-17.911 6.148-30.97z"/><path id="G" d="M1550.805 914.095c0 9.328-.293 15.299-.732 17.164-.439 2.239-1.903 3.358-4.245 3.358h-46.549c-1.317 0-2.049.373-2.488 1.119-.439 1.119-.586 2.612-.586 4.478 0 18.657 2.196 34.329 6.587 46.642s9.807 18.657 16.395 18.657c4.245 0 8.197-2.985 11.857-8.955 3.513-5.97 5.855-13.433 6.88-22.761l1.317-10.821c.732-5.97 2.342-8.955 4.831-8.955 3.659 0 5.416 4.851 5.416 14.179 0 16.045-3.22 30.597-9.661 42.911-6.441 12.687-13.76 19.03-21.957 19.03-10.247 0-18.444-8.582-24.445-26.493-6.002-17.164-9.076-41.045-9.076-70.523 0-30.224 3.22-54.851 9.661-73.881s14.784-28.358 25.177-28.358c9.222 0 16.687 7.836 22.689 23.508s8.929 35.448 8.929 59.702zm-53.136-9.702c0 3.358 1.025 5.224 3.22 5.224h34.985c2.049 0 3.074-1.866 3.074-5.224 0-13.06-1.903-24.627-5.855-34.329s-8.49-14.552-13.76-14.552c-5.416 0-10.393 4.851-14.931 14.925s-6.733 21.642-6.733 33.955z"/></defs></svg>