<?xml version="1.0" encoding="UTF-8" standalone="no"?>
<!DOCTYPE svg PUBLIC "-//W3C//DTD SVG 1.1//EN" "http://www.w3.org/Graphics/SVG/1.1/DTD/svg11.dtd">
<svg width="411px" height="127px" version="1.1" xmlns="http://www.w3.org/2000/svg" xmlns:xlink="http://www.w3.org/1999/xlink" xml:space="preserve" xmlns:serif="http://www.serif.com/" style="fill-rule:evenodd;clip-rule:evenodd;stroke-linejoin:round;stroke-miterlimit:1.5;">
    <g transform="matrix(1,0,0,1,-399.659,-208)">
        <g transform="matrix(0.65862,0,0,0.65862,136.21,71.0069)">
            <rect x="400" y="320" width="200" height="80" style="fill:rgb(242,13,13);"/>
        </g>
        <g transform="matrix(0.882351,0,0,0.65862,280.529,71.0069)">
            <rect x="400" y="320" width="200" height="80" style="fill:rgb(94,191,64);"/>
        </g>
        <g transform="matrix(0.461618,0,0,0.461618,177.113,69.0065)">
            <g transform="matrix(41.8814,0,0,41.8814,510,530)">
                <path d="M0.053,0.165L0.053,-0.562L0.158,-0.562L0.158,-0.556C0.193,-0.568 0.234,-0.575 0.279,-0.575C0.335,-0.575 0.38,-0.565 0.413,-0.545C0.445,-0.525 0.469,-0.494 0.483,-0.452C0.497,-0.409 0.505,-0.353 0.505,-0.282C0.505,-0.211 0.497,-0.154 0.483,-0.111C0.469,-0.069 0.445,-0.037 0.413,-0.017C0.38,0.003 0.335,0.013 0.279,0.013C0.236,0.013 0.196,0.005 0.158,-0.009L0.158,0.165L0.053,0.165ZM0.279,-0.084C0.311,-0.084 0.335,-0.09 0.352,-0.102C0.37,-0.114 0.382,-0.134 0.389,-0.162C0.396,-0.19 0.4,-0.23 0.4,-0.282C0.4,-0.333 0.396,-0.373 0.389,-0.401C0.382,-0.429 0.37,-0.449 0.352,-0.46C0.335,-0.472 0.311,-0.478 0.279,-0.478C0.198,-0.478 0.158,-0.461 0.158,-0.425L0.158,-0.211C0.158,-0.167 0.168,-0.135 0.186,-0.115C0.205,-0.094 0.236,-0.084 0.279,-0.084Z" style="fill:white;fill-rule:nonzero;"/>
            </g>
            <g transform="matrix(41.8814,0,0,41.8814,532.844,530)">
                <path d="M0.273,0.013C0.216,0.013 0.172,0.003 0.14,-0.017C0.107,-0.037 0.084,-0.068 0.07,-0.111C0.055,-0.153 0.048,-0.21 0.048,-0.281C0.048,-0.352 0.055,-0.408 0.07,-0.451C0.084,-0.493 0.107,-0.525 0.14,-0.545C0.172,-0.565 0.216,-0.575 0.273,-0.575C0.329,-0.575 0.374,-0.565 0.406,-0.545C0.439,-0.525 0.463,-0.493 0.477,-0.451C0.491,-0.408 0.498,-0.352 0.498,-0.281C0.498,-0.21 0.491,-0.153 0.477,-0.111C0.463,-0.068 0.439,-0.037 0.406,-0.017C0.374,0.003 0.329,0.013 0.273,0.013ZM0.273,-0.084C0.304,-0.084 0.329,-0.09 0.346,-0.101C0.363,-0.113 0.375,-0.133 0.383,-0.161C0.39,-0.19 0.394,-0.229 0.394,-0.281C0.394,-0.332 0.39,-0.372 0.383,-0.4C0.375,-0.429 0.363,-0.449 0.346,-0.46C0.329,-0.472 0.304,-0.478 0.273,-0.478C0.241,-0.478 0.217,-0.472 0.2,-0.46C0.183,-0.449 0.171,-0.429 0.164,-0.4C0.156,-0.372 0.153,-0.332 0.153,-0.281C0.153,-0.229 0.156,-0.19 0.164,-0.161C0.171,-0.133 0.183,-0.113 0.2,-0.101C0.217,-0.09 0.241,-0.084 0.273,-0.084Z" style="fill:white;fill-rule:nonzero;"/>
            </g>
            <g transform="matrix(41.8814,0,0,41.8814,555.689,530)">
                <path d="M0.199,-0L0.106,-0L0.001,-0.562L0.106,-0.562L0.168,-0.215L0.227,-0.407L0.318,-0.407L0.376,-0.217L0.439,-0.562L0.545,-0.562L0.438,-0L0.345,-0L0.273,-0.213L0.199,-0Z" style="fill:white;fill-rule:nonzero;"/>
            </g>
            <g transform="matrix(41.8814,0,0,41.8814,578.533,530)">
                <path d="M0.275,-0.575C0.334,-0.575 0.38,-0.564 0.413,-0.542C0.446,-0.521 0.47,-0.487 0.483,-0.44C0.497,-0.394 0.503,-0.332 0.502,-0.253L0.141,-0.253C0.143,-0.209 0.148,-0.175 0.157,-0.151C0.166,-0.127 0.179,-0.109 0.198,-0.099C0.217,-0.089 0.243,-0.084 0.275,-0.084C0.299,-0.084 0.318,-0.086 0.333,-0.09C0.348,-0.095 0.362,-0.103 0.374,-0.115C0.387,-0.127 0.401,-0.145 0.418,-0.168L0.502,-0.113C0.472,-0.066 0.44,-0.033 0.406,-0.015C0.373,0.003 0.329,0.013 0.275,0.013C0.215,0.013 0.168,0.003 0.133,-0.017C0.098,-0.037 0.073,-0.068 0.058,-0.111C0.043,-0.153 0.035,-0.21 0.035,-0.281C0.035,-0.352 0.043,-0.408 0.058,-0.451C0.073,-0.493 0.098,-0.525 0.133,-0.545C0.168,-0.565 0.215,-0.575 0.275,-0.575ZM0.395,-0.349C0.391,-0.382 0.385,-0.408 0.377,-0.426C0.369,-0.445 0.357,-0.458 0.34,-0.466C0.324,-0.474 0.303,-0.478 0.275,-0.478C0.245,-0.478 0.221,-0.474 0.203,-0.466C0.185,-0.458 0.171,-0.445 0.161,-0.426C0.152,-0.408 0.146,-0.382 0.143,-0.349L0.395,-0.349Z" style="fill:white;fill-rule:nonzero;"/>
            </g>
            <g transform="matrix(41.8814,0,0,41.8814,601.378,530)">
                <path d="M0.085,-0L0.085,-0.562L0.189,-0.562L0.189,-0.515C0.204,-0.531 0.222,-0.545 0.245,-0.557C0.268,-0.569 0.293,-0.575 0.32,-0.575C0.355,-0.575 0.384,-0.57 0.407,-0.56C0.43,-0.551 0.45,-0.536 0.467,-0.515C0.483,-0.494 0.498,-0.465 0.512,-0.428L0.418,-0.385C0.41,-0.412 0.402,-0.432 0.395,-0.445C0.387,-0.457 0.378,-0.466 0.367,-0.471C0.356,-0.476 0.34,-0.478 0.32,-0.478C0.273,-0.478 0.239,-0.462 0.219,-0.43C0.199,-0.397 0.189,-0.35 0.189,-0.288L0.189,-0L0.085,-0Z" style="fill:white;fill-rule:nonzero;"/>
            </g>
            <g transform="matrix(41.8814,0,0,41.8814,647.066,530)">
                <path d="M0.513,-0.364L0.106,-0.006L0.036,-0.077L0.361,-0.364L0.036,-0.65L0.106,-0.721L0.513,-0.364Z" style="fill:white;fill-rule:nonzero;"/>
            </g>
            <g transform="matrix(41.8814,0,0,41.8814,692.755,530)">
                <path d="M0.035,-0.069C0.035,-0.102 0.043,-0.132 0.061,-0.16C0.079,-0.189 0.101,-0.214 0.127,-0.236C0.153,-0.259 0.187,-0.285 0.229,-0.315C0.27,-0.346 0.302,-0.371 0.325,-0.39C0.348,-0.41 0.367,-0.432 0.383,-0.456C0.399,-0.481 0.407,-0.507 0.407,-0.535C0.407,-0.565 0.403,-0.588 0.396,-0.603C0.388,-0.618 0.375,-0.628 0.356,-0.635C0.338,-0.641 0.309,-0.644 0.272,-0.644C0.235,-0.644 0.208,-0.641 0.189,-0.635C0.17,-0.628 0.157,-0.618 0.15,-0.603C0.142,-0.588 0.138,-0.565 0.138,-0.535C0.138,-0.523 0.138,-0.514 0.139,-0.507L0.035,-0.507C0.032,-0.566 0.038,-0.612 0.052,-0.645C0.067,-0.679 0.091,-0.703 0.126,-0.718C0.161,-0.733 0.209,-0.74 0.272,-0.74C0.331,-0.74 0.378,-0.733 0.413,-0.72C0.448,-0.707 0.473,-0.685 0.489,-0.655C0.504,-0.626 0.512,-0.585 0.512,-0.535C0.512,-0.491 0.501,-0.451 0.479,-0.415C0.457,-0.378 0.43,-0.347 0.4,-0.32C0.369,-0.293 0.329,-0.262 0.281,-0.227C0.24,-0.199 0.209,-0.175 0.187,-0.155C0.165,-0.135 0.15,-0.116 0.142,-0.096L0.51,-0.096L0.51,-0L0.035,-0L0.035,-0.069Z" style="fill:white;fill-rule:nonzero;"/>
            </g>
            <g transform="matrix(41.8814,0,0,41.8814,715.6,530)">
                <path d="M0.273,0.013C0.212,0.013 0.164,0.006 0.13,-0.008C0.097,-0.022 0.073,-0.045 0.059,-0.076C0.045,-0.107 0.038,-0.151 0.038,-0.207L0.144,-0.207C0.144,-0.171 0.146,-0.145 0.152,-0.128C0.157,-0.112 0.169,-0.1 0.187,-0.094C0.205,-0.087 0.233,-0.084 0.273,-0.084C0.312,-0.084 0.341,-0.088 0.36,-0.097C0.38,-0.106 0.394,-0.121 0.402,-0.142C0.41,-0.164 0.414,-0.195 0.414,-0.236C0.414,-0.28 0.41,-0.313 0.402,-0.334C0.394,-0.356 0.38,-0.37 0.361,-0.378C0.342,-0.386 0.312,-0.39 0.273,-0.39C0.251,-0.39 0.231,-0.386 0.213,-0.379C0.195,-0.371 0.172,-0.356 0.142,-0.334L0.056,-0.334L0.056,-0.727L0.496,-0.727L0.496,-0.632L0.161,-0.632L0.161,-0.465C0.189,-0.479 0.227,-0.486 0.273,-0.486C0.335,-0.486 0.383,-0.479 0.418,-0.463C0.453,-0.448 0.479,-0.422 0.495,-0.386C0.511,-0.35 0.519,-0.3 0.519,-0.236C0.519,-0.175 0.511,-0.127 0.495,-0.09C0.479,-0.054 0.453,-0.028 0.418,-0.012C0.382,0.005 0.334,0.013 0.273,0.013Z" style="fill:white;fill-rule:nonzero;"/>
            </g>
        </g>
        <g transform="matrix(0.461618,0,0,0.461618,410.924,69.0065)">
            <g transform="matrix(41.8814,0,0,41.8814,510,530)">
                <path d="M0.25,0.013C0.2,0.013 0.16,0.004 0.13,-0.015C0.101,-0.033 0.075,-0.065 0.051,-0.111L0.134,-0.179C0.146,-0.151 0.156,-0.131 0.165,-0.118C0.174,-0.105 0.185,-0.097 0.197,-0.091C0.21,-0.086 0.228,-0.084 0.25,-0.084C0.292,-0.084 0.323,-0.086 0.345,-0.091C0.366,-0.096 0.38,-0.104 0.388,-0.115C0.396,-0.126 0.4,-0.142 0.4,-0.164C0.4,-0.185 0.397,-0.2 0.39,-0.21C0.384,-0.22 0.373,-0.227 0.356,-0.232C0.34,-0.237 0.312,-0.242 0.274,-0.246C0.2,-0.255 0.147,-0.272 0.115,-0.295C0.082,-0.318 0.065,-0.355 0.065,-0.405C0.065,-0.446 0.073,-0.479 0.088,-0.503C0.103,-0.528 0.128,-0.546 0.161,-0.557C0.194,-0.569 0.239,-0.575 0.295,-0.575C0.349,-0.575 0.39,-0.567 0.42,-0.551C0.45,-0.535 0.477,-0.507 0.501,-0.467L0.425,-0.393C0.411,-0.418 0.4,-0.436 0.39,-0.447C0.38,-0.459 0.368,-0.467 0.355,-0.471C0.341,-0.476 0.321,-0.478 0.295,-0.478C0.261,-0.478 0.235,-0.476 0.217,-0.472C0.199,-0.468 0.187,-0.46 0.18,-0.45C0.173,-0.44 0.17,-0.425 0.17,-0.405C0.17,-0.391 0.174,-0.38 0.181,-0.373C0.188,-0.365 0.199,-0.36 0.214,-0.356C0.228,-0.353 0.251,-0.349 0.281,-0.345C0.338,-0.336 0.383,-0.326 0.415,-0.313C0.447,-0.301 0.47,-0.283 0.484,-0.26C0.498,-0.236 0.505,-0.204 0.505,-0.164C0.505,-0.121 0.497,-0.087 0.48,-0.061C0.464,-0.036 0.437,-0.017 0.4,-0.005C0.362,0.007 0.312,0.013 0.25,0.013Z" style="fill:white;fill-rule:nonzero;"/>
            </g>
            <g transform="matrix(41.8814,0,0,41.8814,532.844,530)">
                <path d="M0.349,-0.562L0.349,-0.096L0.508,-0.096L0.508,-0L0.085,-0L0.085,-0.096L0.245,-0.096L0.245,-0.465L0.13,-0.465L0.13,-0.562L0.349,-0.562ZM0.28,-0.644C0.25,-0.644 0.229,-0.649 0.218,-0.66C0.207,-0.67 0.201,-0.69 0.201,-0.718C0.201,-0.747 0.207,-0.766 0.218,-0.777C0.229,-0.787 0.25,-0.793 0.28,-0.793C0.31,-0.793 0.331,-0.787 0.343,-0.777C0.354,-0.766 0.36,-0.747 0.36,-0.718C0.36,-0.69 0.354,-0.67 0.343,-0.66C0.331,-0.649 0.31,-0.644 0.28,-0.644Z" style="fill:white;fill-rule:nonzero;"/>
            </g>
            <g transform="matrix(41.8814,0,0,41.8814,555.689,530)">
                <path d="M0.271,0.178C0.228,0.178 0.195,0.172 0.17,0.161C0.144,0.149 0.119,0.129 0.095,0.099L0.171,0.034C0.188,0.054 0.202,0.067 0.214,0.073C0.226,0.079 0.245,0.082 0.271,0.082C0.302,0.082 0.325,0.078 0.342,0.07C0.358,0.063 0.37,0.05 0.376,0.031C0.383,0.013 0.386,-0.014 0.386,-0.05L0.386,-0.052C0.348,-0.037 0.308,-0.03 0.265,-0.03C0.208,-0.03 0.164,-0.04 0.131,-0.06C0.098,-0.081 0.075,-0.113 0.06,-0.157C0.046,-0.202 0.039,-0.261 0.039,-0.336C0.039,-0.393 0.047,-0.439 0.061,-0.474C0.076,-0.508 0.1,-0.534 0.133,-0.55C0.165,-0.566 0.209,-0.575 0.265,-0.575C0.309,-0.575 0.35,-0.568 0.386,-0.556L0.386,-0.562L0.491,-0.562L0.491,-0.058C0.491,0 0.484,0.046 0.47,0.08C0.455,0.114 0.432,0.139 0.4,0.155C0.369,0.17 0.325,0.178 0.271,0.178ZM0.265,-0.126C0.308,-0.126 0.339,-0.137 0.358,-0.157C0.377,-0.178 0.386,-0.21 0.386,-0.254L0.386,-0.425C0.386,-0.442 0.377,-0.455 0.357,-0.464C0.337,-0.473 0.306,-0.478 0.265,-0.478C0.232,-0.478 0.208,-0.474 0.191,-0.465C0.174,-0.457 0.162,-0.443 0.155,-0.422C0.148,-0.402 0.145,-0.373 0.145,-0.336C0.145,-0.281 0.148,-0.238 0.155,-0.208C0.163,-0.178 0.175,-0.157 0.192,-0.145C0.209,-0.133 0.233,-0.126 0.265,-0.126Z" style="fill:white;fill-rule:nonzero;"/>
            </g>
            <g transform="matrix(41.8814,0,0,41.8814,578.533,530)">
                <path d="M0.06,-0L0.06,-0.562L0.165,-0.562L0.165,-0.548C0.203,-0.566 0.247,-0.575 0.298,-0.575C0.35,-0.575 0.39,-0.567 0.418,-0.553C0.446,-0.539 0.466,-0.515 0.478,-0.481C0.49,-0.448 0.496,-0.4 0.496,-0.339L0.496,-0L0.391,-0L0.391,-0.339C0.391,-0.375 0.388,-0.403 0.382,-0.423C0.377,-0.443 0.367,-0.457 0.354,-0.465C0.341,-0.474 0.322,-0.478 0.298,-0.478C0.259,-0.478 0.23,-0.475 0.211,-0.468C0.193,-0.461 0.18,-0.448 0.174,-0.431C0.168,-0.413 0.165,-0.386 0.165,-0.349L0.165,-0L0.06,-0Z" style="fill:white;fill-rule:nonzero;"/>
            </g>
            <g transform="matrix(41.8814,0,0,41.8814,601.378,530)">
                <path d="M0.249,0.013C0.196,0.013 0.153,0.007 0.121,-0.005C0.09,-0.018 0.067,-0.037 0.052,-0.062C0.038,-0.088 0.031,-0.122 0.031,-0.165C0.031,-0.214 0.038,-0.251 0.052,-0.278C0.066,-0.304 0.088,-0.323 0.12,-0.333C0.151,-0.344 0.194,-0.349 0.249,-0.349L0.364,-0.349L0.364,-0.369C0.364,-0.395 0.36,-0.414 0.354,-0.428C0.348,-0.442 0.336,-0.452 0.32,-0.458C0.304,-0.463 0.28,-0.466 0.249,-0.466C0.224,-0.466 0.204,-0.464 0.191,-0.459C0.178,-0.453 0.167,-0.444 0.16,-0.431C0.153,-0.418 0.146,-0.397 0.139,-0.37L0.039,-0.395C0.05,-0.438 0.064,-0.472 0.08,-0.498C0.096,-0.524 0.118,-0.543 0.145,-0.556C0.173,-0.568 0.207,-0.575 0.249,-0.575C0.328,-0.575 0.384,-0.558 0.418,-0.524C0.451,-0.49 0.468,-0.439 0.468,-0.369L0.468,-0.156C0.468,-0.132 0.471,-0.115 0.475,-0.107C0.48,-0.099 0.491,-0.095 0.506,-0.095C0.511,-0.095 0.522,-0.096 0.539,-0.097L0.539,-0.001C0.532,-0 0.522,-0 0.509,-0C0.456,-0 0.42,-0.012 0.4,-0.036C0.384,-0.019 0.363,-0.006 0.339,0.001C0.315,0.009 0.285,0.013 0.249,0.013ZM0.249,-0.084C0.28,-0.084 0.304,-0.087 0.32,-0.095C0.336,-0.102 0.348,-0.114 0.354,-0.132C0.36,-0.149 0.364,-0.175 0.364,-0.208L0.364,-0.253L0.249,-0.253C0.215,-0.253 0.19,-0.251 0.175,-0.248C0.161,-0.244 0.151,-0.237 0.145,-0.225C0.138,-0.213 0.135,-0.193 0.135,-0.165C0.135,-0.143 0.138,-0.126 0.145,-0.115C0.151,-0.104 0.162,-0.096 0.178,-0.091C0.194,-0.086 0.218,-0.084 0.249,-0.084Z" style="fill:white;fill-rule:nonzero;"/>
            </g>
            <g transform="matrix(41.8814,0,0,41.8814,624.222,530)">
                <path d="M0.366,0.013C0.324,0.013 0.291,0.006 0.268,-0.006C0.244,-0.019 0.228,-0.04 0.218,-0.07C0.208,-0.1 0.203,-0.142 0.203,-0.195L0.203,-0.631L0.088,-0.631L0.088,-0.727L0.307,-0.727L0.307,-0.195C0.307,-0.153 0.312,-0.124 0.32,-0.108C0.328,-0.092 0.344,-0.084 0.366,-0.084C0.377,-0.084 0.389,-0.087 0.401,-0.095C0.414,-0.102 0.431,-0.115 0.454,-0.134L0.512,-0.045C0.485,-0.023 0.461,-0.008 0.44,0C0.42,0.009 0.395,0.013 0.366,0.013Z" style="fill:white;fill-rule:nonzero;"/>
            </g>
            <g transform="matrix(41.8814,0,0,41.8814,647.066,530)">
                <rect x="-0.003" y="0.069" width="0.551" height="0.096" style="fill:white;fill-rule:nonzero;"/>
            </g>
            <g transform="matrix(41.8814,0,0,41.8814,669.911,530)">
                <path d="M0.447,-0L0.343,-0L0.343,-0.184L0.029,-0.184L0.029,-0.259L0.36,-0.727L0.447,-0.727L0.447,-0.28L0.515,-0.28L0.515,-0.184L0.447,-0.184L0.447,-0ZM0.343,-0.517L0.165,-0.28L0.343,-0.28L0.343,-0.517Z" style="fill:white;fill-rule:nonzero;"/>
            </g>
            <g transform="matrix(41.8814,0,0,41.8814,692.755,530)">
                <path d="M0.271,0.178C0.228,0.178 0.195,0.172 0.17,0.161C0.144,0.149 0.119,0.129 0.095,0.099L0.171,0.034C0.188,0.054 0.202,0.067 0.214,0.073C0.226,0.079 0.245,0.082 0.271,0.082C0.302,0.082 0.325,0.078 0.342,0.07C0.358,0.063 0.37,0.05 0.376,0.031C0.383,0.013 0.386,-0.014 0.386,-0.05L0.386,-0.052C0.348,-0.037 0.308,-0.03 0.265,-0.03C0.208,-0.03 0.164,-0.04 0.131,-0.06C0.098,-0.081 0.075,-0.113 0.06,-0.157C0.046,-0.202 0.039,-0.261 0.039,-0.336C0.039,-0.393 0.047,-0.439 0.061,-0.474C0.076,-0.508 0.1,-0.534 0.133,-0.55C0.165,-0.566 0.209,-0.575 0.265,-0.575C0.309,-0.575 0.35,-0.568 0.386,-0.556L0.386,-0.562L0.491,-0.562L0.491,-0.058C0.491,0 0.484,0.046 0.47,0.08C0.455,0.114 0.432,0.139 0.4,0.155C0.369,0.17 0.325,0.178 0.271,0.178ZM0.265,-0.126C0.308,-0.126 0.339,-0.137 0.358,-0.157C0.377,-0.178 0.386,-0.21 0.386,-0.254L0.386,-0.425C0.386,-0.442 0.377,-0.455 0.357,-0.464C0.337,-0.473 0.306,-0.478 0.265,-0.478C0.232,-0.478 0.208,-0.474 0.191,-0.465C0.174,-0.457 0.162,-0.443 0.155,-0.422C0.148,-0.402 0.145,-0.373 0.145,-0.336C0.145,-0.281 0.148,-0.238 0.155,-0.208C0.163,-0.178 0.175,-0.157 0.192,-0.145C0.209,-0.133 0.233,-0.126 0.265,-0.126Z" style="fill:white;fill-rule:nonzero;"/>
            </g>
            <g transform="matrix(41.8814,0,0,41.8814,738.444,530)">
                <path d="M0.513,-0.364L0.106,-0.006L0.036,-0.077L0.361,-0.364L0.036,-0.65L0.106,-0.721L0.513,-0.364Z" style="fill:white;fill-rule:nonzero;"/>
            </g>
            <g transform="matrix(41.8814,0,0,41.8814,784.133,530)">
                <path d="M0.325,-0.096L0.455,-0.096L0.455,-0L0.092,-0L0.092,-0.096L0.221,-0.096L0.221,-0.525C0.18,-0.501 0.131,-0.489 0.074,-0.489L0.074,-0.586C0.123,-0.586 0.159,-0.598 0.183,-0.62C0.207,-0.643 0.219,-0.679 0.219,-0.727L0.325,-0.727L0.325,-0.096Z" style="fill:white;fill-rule:nonzero;"/>
            </g>
            <g transform="matrix(41.8814,0,0,41.8814,806.977,530)">
                <path d="M0.273,0.013C0.228,0.013 0.187,-0.004 0.15,-0.036C0.113,-0.069 0.084,-0.114 0.063,-0.172C0.042,-0.229 0.032,-0.293 0.032,-0.364C0.032,-0.434 0.042,-0.498 0.063,-0.555C0.084,-0.613 0.113,-0.658 0.15,-0.691C0.187,-0.724 0.228,-0.74 0.273,-0.74C0.318,-0.74 0.358,-0.724 0.395,-0.691C0.432,-0.658 0.462,-0.613 0.483,-0.555C0.504,-0.498 0.515,-0.434 0.515,-0.364C0.515,-0.293 0.504,-0.229 0.483,-0.172C0.462,-0.114 0.432,-0.069 0.395,-0.036C0.358,-0.004 0.318,0.013 0.273,0.013ZM0.273,-0.084C0.296,-0.084 0.318,-0.096 0.339,-0.121C0.36,-0.146 0.377,-0.18 0.39,-0.223C0.403,-0.266 0.409,-0.313 0.409,-0.364C0.409,-0.415 0.403,-0.462 0.39,-0.505C0.377,-0.548 0.36,-0.582 0.339,-0.606C0.318,-0.631 0.296,-0.644 0.273,-0.644C0.25,-0.644 0.228,-0.631 0.206,-0.606C0.185,-0.582 0.168,-0.548 0.155,-0.505C0.143,-0.462 0.136,-0.415 0.136,-0.364C0.136,-0.313 0.143,-0.266 0.155,-0.223C0.168,-0.18 0.185,-0.146 0.206,-0.121C0.228,-0.096 0.25,-0.084 0.273,-0.084ZM0.273,-0.294C0.251,-0.294 0.233,-0.3 0.219,-0.313C0.205,-0.326 0.198,-0.343 0.198,-0.364C0.198,-0.384 0.205,-0.4 0.219,-0.413C0.233,-0.425 0.251,-0.432 0.273,-0.432C0.295,-0.432 0.313,-0.425 0.327,-0.413C0.341,-0.4 0.348,-0.384 0.348,-0.364C0.348,-0.343 0.341,-0.326 0.327,-0.313C0.313,-0.3 0.295,-0.294 0.273,-0.294Z" style="fill:white;fill-rule:nonzero;"/>
            </g>
        </g>
        <g transform="matrix(0.0782112,0,0,0.0782112,551.141,208)">
            <g transform="matrix(1,0,0,1,1.58854,1.58854)">
                <path d="M718.411,785.077L78.412,785.077C41.078,785.077 11.746,755.743 11.746,718.411L11.746,78.412C11.746,41.078 41.08,11.746 78.412,11.746L718.411,11.746C755.745,11.746 785.077,41.08 785.077,78.412L785.077,718.411C785.077,755.743 755.743,785.077 718.411,785.077" style="fill:rgb(255,221,9);fill-rule:nonzero;"/>
            </g>
            <g transform="matrix(1,0,0,1,1.58854,1.58854)">
                <path d="M718.411,11.744L678.412,11.744C715.745,11.744 745.078,41.078 745.078,78.41L745.078,718.409C745.078,755.743 715.744,785.076 678.412,785.076L718.411,785.076C755.745,785.076 785.077,755.742 785.077,718.409L785.077,78.412C785.077,41.078 755.743,11.744 718.411,11.744" style="fill:rgb(253,152,8);fill-rule:nonzero;"/>
            </g>
            <g transform="matrix(1,0,0,1,1.58854,1.58854)">
                <path d="M78.412,11.744L118.411,11.744C82.412,11.744 51.745,41.078 51.745,78.41L51.745,718.409C51.745,755.743 81.079,785.076 118.411,785.076L78.412,785.076C41.078,785.076 11.746,755.742 11.746,718.409L11.746,78.412C11.744,41.078 42.411,11.744 78.412,11.744" style="fill:white;fill-rule:nonzero;"/>
            </g>
            <g transform="matrix(1,0,0,1,1.58854,1.58854)">
                <path d="M705.077,398.411C705.077,229.077 567.744,91.745 398.411,91.745C229.077,91.745 91.745,229.079 91.745,398.411C91.745,567.743 229.077,705.077 398.411,705.077C567.744,705.077 705.077,567.744 705.077,398.411" style="fill:rgb(252,195,9);fill-rule:nonzero;"/>
            </g>
            <g transform="matrix(1,0,0,1,1.58854,1.58854)">
                <path d="M398.411,91.745C391.744,91.745 385.078,91.745 378.411,93.077C538.41,102.41 665.077,235.744 665.077,398.411C665.077,561.077 538.41,694.41 378.411,703.744C385.078,703.744 391.744,705.077 398.411,705.077C567.744,705.077 705.077,567.744 705.077,398.411C705.077,229.077 567.744,91.745 398.411,91.745" style="fill:rgb(253,152,8);fill-rule:nonzero;"/>
            </g>
            <g transform="matrix(1,0,0,1,1.58854,1.58854)">
                <path d="M518.411,331.744L411.743,331.744L505.076,185.078L398.409,185.078L278.409,398.411L366.41,398.411L278.409,611.744L518.411,331.744Z" style="fill:rgb(255,221,9);fill-rule:nonzero;"/>
            </g>
            <g transform="matrix(1,0,0,1,1.58854,1.58854)">
                <path d="M278.411,625.078C275.744,625.078 273.078,625.078 271.744,623.745C266.411,619.745 263.744,613.078 266.411,607.745L347.744,411.745L278.411,411.745C273.078,411.745 269.078,409.078 266.411,405.078C263.744,401.078 263.744,395.745 266.411,391.745L386.411,178.412C389.078,174.412 393.078,171.745 398.411,171.745L505.078,171.745C510.411,171.745 514.411,174.412 517.078,178.412C519.745,182.412 519.745,187.745 517.078,191.745L437.077,318.412L518.411,318.412C523.743,318.412 527.743,321.079 530.41,326.412C533.078,331.744 531.743,337.079 529.078,341.079L289.078,621.078C286.411,623.744 282.411,625.078 278.411,625.078ZM301.078,385.078L366.411,385.078C370.411,385.078 374.411,387.745 377.078,390.411C379.745,394.411 379.745,398.411 378.411,402.411L322.412,538.41L489.078,345.077L411.745,345.077C406.412,345.077 402.412,342.41 399.745,338.41C397.078,334.41 397.078,329.077 399.745,325.077L479.746,198.41L405.078,198.41L301.078,385.078Z" style="fill-rule:nonzero;"/>
            </g>
            <g transform="matrix(1,0,0,1,1.58854,1.58854)">
                <path d="M718.411,798.411L78.412,798.411C34.411,798.411 -1.589,762.41 -1.589,718.411L-1.589,78.412C-1.589,34.411 34.411,-1.589 78.412,-1.589L718.411,-1.589C762.41,-1.589 798.411,34.411 798.411,78.412L798.411,718.411C798.411,762.41 762.41,798.411 718.411,798.411ZM78.412,25.078C49.078,25.078 25.078,49.078 25.078,78.412L25.078,718.411C25.078,747.745 49.078,771.745 78.412,771.745L718.411,771.745C747.745,771.745 771.745,747.745 771.745,718.411L771.745,78.412C771.745,49.078 747.745,25.078 718.411,25.078L78.412,25.078Z" style="fill-rule:nonzero;"/>
            </g>
            <g transform="matrix(1,0,0,1,1.58854,1.58854)">
                <path d="M398.411,718.411C222.412,718.411 78.41,574.411 78.41,398.411C78.41,222.41 222.412,78.412 398.411,78.412C574.41,78.412 718.411,222.412 718.411,398.412C718.411,574.413 574.411,718.411 398.411,718.411ZM398.411,105.079C237.077,105.079 105.077,237.079 105.077,398.412C105.077,559.746 237.077,691.746 398.411,691.746C559.744,691.746 691.744,559.746 691.744,398.412C691.744,237.079 559.744,105.079 398.411,105.079Z" style="fill-rule:nonzero;"/>
            </g>
            <g transform="matrix(1,0,0,1,1.58854,1.58854)">
                <path d="M105.079,78.412C105.079,63.745 93.079,51.745 78.412,51.745C63.745,51.745 51.745,63.745 51.745,78.412C51.745,93.079 63.745,105.079 78.412,105.079C93.079,105.079 105.079,93.077 105.079,78.412" style="fill-rule:nonzero;"/>
            </g>
            <g transform="matrix(1,0,0,1,1.58854,1.58854)">
                <path d="M105.079,718.411C105.079,703.744 93.079,691.744 78.412,691.744C63.745,691.744 51.745,703.744 51.745,718.411C51.745,733.078 63.745,745.078 78.412,745.078C93.079,745.078 105.079,733.078 105.079,718.411" style="fill-rule:nonzero;"/>
            </g>
            <g transform="matrix(1,0,0,1,1.58854,1.58854)">
                <path d="M745.078,78.412C745.078,63.745 733.078,51.745 718.411,51.745C703.744,51.745 691.744,63.745 691.744,78.412C691.744,93.079 703.744,105.079 718.411,105.079C733.078,105.079 745.078,93.077 745.078,78.412" style="fill-rule:nonzero;"/>
            </g>
            <g transform="matrix(1,0,0,1,1.58854,1.58854)">
                <path d="M745.078,718.411C745.078,703.744 733.078,691.744 718.411,691.744C703.744,691.744 691.744,703.744 691.744,718.411C691.744,733.078 703.744,745.078 718.411,745.078C733.078,745.078 745.078,733.078 745.078,718.411" style="fill-rule:nonzero;"/>
            </g>
        </g>
        <g transform="matrix(0.65862,0,0,0.65862,151.391,-73.8426)">
            <g transform="matrix(67.375,0,0,67.375,600,604)">
                <path d="M0.249,0.013C0.196,0.013 0.153,0.007 0.121,-0.005C0.09,-0.018 0.067,-0.037 0.052,-0.062C0.038,-0.088 0.031,-0.122 0.031,-0.165C0.031,-0.214 0.038,-0.251 0.052,-0.278C0.066,-0.304 0.088,-0.323 0.12,-0.333C0.151,-0.344 0.194,-0.349 0.249,-0.349L0.364,-0.349L0.364,-0.369C0.364,-0.395 0.36,-0.414 0.354,-0.428C0.348,-0.442 0.336,-0.452 0.32,-0.458C0.304,-0.463 0.28,-0.466 0.249,-0.466C0.224,-0.466 0.204,-0.464 0.191,-0.459C0.178,-0.453 0.167,-0.444 0.16,-0.431C0.153,-0.418 0.146,-0.397 0.139,-0.37L0.039,-0.395C0.05,-0.438 0.064,-0.472 0.08,-0.498C0.096,-0.524 0.118,-0.543 0.145,-0.556C0.173,-0.568 0.207,-0.575 0.249,-0.575C0.328,-0.575 0.384,-0.558 0.418,-0.524C0.451,-0.49 0.468,-0.439 0.468,-0.369L0.468,-0.156C0.468,-0.132 0.471,-0.115 0.475,-0.107C0.48,-0.099 0.491,-0.095 0.506,-0.095C0.511,-0.095 0.522,-0.096 0.539,-0.097L0.539,-0.001C0.532,-0 0.522,-0 0.509,-0C0.456,-0 0.42,-0.012 0.4,-0.036C0.384,-0.019 0.363,-0.006 0.339,0.001C0.315,0.009 0.285,0.013 0.249,0.013ZM0.249,-0.084C0.28,-0.084 0.304,-0.087 0.32,-0.095C0.336,-0.102 0.348,-0.114 0.354,-0.132C0.36,-0.149 0.364,-0.175 0.364,-0.208L0.364,-0.253L0.249,-0.253C0.215,-0.253 0.19,-0.251 0.175,-0.248C0.161,-0.244 0.151,-0.237 0.145,-0.225C0.138,-0.213 0.135,-0.193 0.135,-0.165C0.135,-0.143 0.138,-0.126 0.145,-0.115C0.151,-0.104 0.162,-0.096 0.178,-0.091C0.194,-0.086 0.218,-0.084 0.249,-0.084Z" style="fill:rgb(128,128,128);fill-rule:nonzero;"/>
            </g>
            <g transform="matrix(67.375,0,0,67.375,636.75,604)">
                <path d="M0.06,-0L0.06,-0.562L0.165,-0.562L0.165,-0.548C0.203,-0.566 0.247,-0.575 0.298,-0.575C0.35,-0.575 0.39,-0.567 0.418,-0.553C0.446,-0.539 0.466,-0.515 0.478,-0.481C0.49,-0.448 0.496,-0.4 0.496,-0.339L0.496,-0L0.391,-0L0.391,-0.339C0.391,-0.375 0.388,-0.403 0.382,-0.423C0.377,-0.443 0.367,-0.457 0.354,-0.465C0.341,-0.474 0.322,-0.478 0.298,-0.478C0.259,-0.478 0.23,-0.475 0.211,-0.468C0.193,-0.461 0.18,-0.448 0.174,-0.431C0.168,-0.413 0.165,-0.386 0.165,-0.349L0.165,-0L0.06,-0Z" style="fill:rgb(128,128,128);fill-rule:nonzero;"/>
            </g>
            <g transform="matrix(67.375,0,0,67.375,673.5,604)">
                <path d="M0.268,0.013C0.212,0.013 0.167,0.003 0.135,-0.017C0.103,-0.037 0.079,-0.068 0.065,-0.11C0.051,-0.152 0.044,-0.209 0.044,-0.28C0.044,-0.352 0.051,-0.408 0.065,-0.451C0.079,-0.493 0.103,-0.525 0.135,-0.545C0.167,-0.565 0.212,-0.575 0.268,-0.575C0.311,-0.575 0.352,-0.567 0.39,-0.553L0.39,-0.727L0.495,-0.727L0.495,-0L0.39,-0L0.39,-0.006C0.355,0.006 0.314,0.013 0.268,0.013ZM0.268,-0.084C0.31,-0.084 0.341,-0.088 0.36,-0.098C0.38,-0.107 0.39,-0.12 0.39,-0.136L0.39,-0.351C0.39,-0.395 0.38,-0.427 0.361,-0.447C0.342,-0.468 0.311,-0.478 0.268,-0.478C0.237,-0.478 0.212,-0.472 0.195,-0.46C0.178,-0.448 0.166,-0.428 0.159,-0.4C0.152,-0.371 0.148,-0.332 0.148,-0.28C0.148,-0.228 0.152,-0.189 0.159,-0.161C0.166,-0.133 0.178,-0.113 0.195,-0.101C0.212,-0.09 0.237,-0.084 0.268,-0.084Z" style="fill:rgb(128,128,128);fill-rule:nonzero;"/>
            </g>
        </g>
        <g transform="matrix(0.65862,0,0,0.65862,136.21,71.0069)">
            <path d="M500,320L500,255.5L630,255.5" style="fill:none;stroke:black;stroke-width:12.15px;"/>
        </g>
        <g transform="matrix(-0.820384,0,0,0.65862,1130.55,71.0069)">
            <path d="M500,320L500,255.5L630,255.5" style="fill:none;stroke:rgb(212,212,212);stroke-width:10.75px;"/>
        </g>
    </g>
</svg>
