<svg xmlns="http://www.w3.org/2000/svg" xmlns:xlink="http://www.w3.org/1999/xlink" width="411" height="127" fill-rule="evenodd" stroke-linejoin="round" stroke-miterlimit="1.5" xmlns:v="https://vecta.io/nano"><style><![CDATA[.B{fill-rule:nonzero}]]></style><path d="M-.001 73.765h131.724v52.69H-.001z" fill="#f20d0d"/><path d="M233.81 73.765h176.47v52.69H233.81z" fill="#5ebf40"/><g fill="#fff" class="B"><path d="M13.904 108.854V94.799h2.03v.116c.677-.232 1.469-.367 2.339-.367 1.083 0 1.953.193 2.591.58.619.387 1.083.986 1.353 1.798.271.831.425 1.914.425 3.287s-.155 2.475-.425 3.306c-.271.812-.735 1.431-1.353 1.817-.638.387-1.508.58-2.591.58a6.71 6.71 0 0 1-2.339-.425v3.364h-2.03zm4.369-4.814c.619 0 1.083-.116 1.411-.348.348-.232.58-.619.715-1.16s.213-1.315.213-2.32c0-.986-.077-1.759-.213-2.301s-.367-.928-.715-1.141c-.329-.232-.793-.348-1.411-.348-1.566 0-2.339.329-2.339 1.025v4.137c0 .851.193 1.469.541 1.856.367.406.967.599 1.798.599zm10.429 1.875c-1.102 0-1.953-.193-2.571-.58-.638-.387-1.083-.986-1.353-1.817-.29-.812-.425-1.914-.425-3.287s.135-2.455.425-3.287c.271-.812.715-1.431 1.353-1.817.619-.387 1.469-.58 2.571-.58 1.083 0 1.953.193 2.571.58.638.387 1.102 1.005 1.373 1.817.271.831.406 1.914.406 3.287s-.135 2.475-.406 3.287c-.271.831-.735 1.431-1.373 1.817-.619.387-1.489.58-2.571.58zm0-1.875c.599 0 1.083-.116 1.411-.329.329-.232.561-.619.715-1.16.135-.561.213-1.315.213-2.32 0-.986-.077-1.759-.213-2.301-.155-.561-.387-.947-.715-1.16-.329-.232-.812-.348-1.411-.348-.619 0-1.083.116-1.411.348-.329.213-.561.599-.696 1.16-.155.541-.213 1.315-.213 2.301 0 1.005.058 1.759.213 2.32.135.541.367.928.696 1.16.329.213.793.329 1.411.329zm9.115 1.624h-1.798l-2.03-10.865h2.03l1.199 6.709 1.141-3.712h1.759l1.121 3.673 1.218-6.67h2.049l-2.069 10.865H40.64l-1.392-4.118-1.431 4.118zm12.015-11.117c1.141 0 2.03.213 2.668.638.638.406 1.102 1.063 1.353 1.972.271.889.387 2.088.367 3.615h-6.979c.039.851.135 1.508.309 1.972s.425.812.793 1.005.87.29 1.489.29c.464 0 .831-.039 1.121-.116.29-.097.561-.251.793-.483.251-.232.522-.58.851-1.025l1.624 1.063c-.58.909-1.199 1.547-1.856 1.895-.638.348-1.489.541-2.533.541-1.16 0-2.069-.193-2.745-.58s-1.16-.986-1.45-1.817c-.29-.812-.445-1.914-.445-3.287s.155-2.455.445-3.287c.29-.812.773-1.431 1.45-1.817s1.585-.58 2.745-.58zm2.32 4.369c-.077-.638-.193-1.141-.348-1.489-.155-.367-.387-.619-.715-.773-.309-.155-.715-.232-1.257-.232-.58 0-1.044.077-1.392.232s-.619.406-.812.773c-.174.348-.29.851-.348 1.489h4.872zm4.552 6.748V94.799h2.011v.909a3.97 3.97 0 0 1 1.083-.812 3.09 3.09 0 0 1 1.45-.348c.677 0 1.237.097 1.682.29.445.174.831.464 1.16.87.309.406.599.967.87 1.682l-1.817.831c-.155-.522-.309-.909-.445-1.16-.155-.232-.329-.406-.541-.503s-.522-.135-.909-.135c-.909 0-1.566.309-1.953.928-.387.638-.58 1.547-.58 2.745v5.568h-2.011zm29.365-7.037l-7.869 6.921-1.353-1.373 6.283-5.549-6.283-5.529 1.353-1.373 7.869 6.902zm11.85 5.703c0-.638.155-1.218.503-1.759a6.18 6.18 0 0 1 1.276-1.469c.503-.445 1.16-.947 1.972-1.527l1.856-1.45c.445-.387.812-.812 1.121-1.276.309-.483.464-.986.464-1.527 0-.58-.077-1.025-.213-1.315-.155-.29-.406-.483-.773-.619-.348-.116-.909-.174-1.624-.174s-1.237.058-1.605.174c-.367.135-.619.329-.754.619-.155.29-.232.735-.232 1.315l.019.541h-2.011c-.058-1.141.058-2.03.329-2.668.29-.657.754-1.121 1.431-1.411s1.605-.425 2.823-.425c1.141 0 2.049.135 2.726.387s1.16.677 1.469 1.257c.29.561.445 1.353.445 2.32 0 .851-.213 1.624-.638 2.32-.425.715-.947 1.315-1.527 1.837-.599.522-1.373 1.121-2.301 1.798-.793.541-1.392 1.005-1.817 1.392s-.715.754-.87 1.141h7.115v1.856H97.92v-1.334zm15.147 1.585c-1.179 0-2.107-.135-2.765-.406-.638-.271-1.102-.715-1.373-1.315s-.406-1.45-.406-2.533h2.049c0 .696.039 1.199.155 1.527.097.309.329.541.677.657.348.135.889.193 1.663.193.754 0 1.315-.077 1.682-.251a1.5 1.5 0 0 0 .812-.87c.155-.425.232-1.025.232-1.817 0-.851-.077-1.489-.232-1.895-.155-.425-.425-.696-.793-.851s-.947-.232-1.701-.232c-.425 0-.812.077-1.16.213-.348.155-.793.445-1.373.87h-1.663v-7.598h8.507v1.837H110.9v3.229c.541-.271 1.276-.406 2.165-.406 1.199 0 2.127.135 2.803.445.677.29 1.179.793 1.489 1.489s.464 1.663.464 2.9c0 1.179-.155 2.107-.464 2.823-.309.696-.812 1.199-1.489 1.508-.696.329-1.624.483-2.803.483zm138.457 0c-.967 0-1.74-.174-2.32-.541-.561-.348-1.063-.967-1.527-1.856l1.605-1.315c.232.541.425.928.599 1.179s.387.406.619.522c.251.097.599.135 1.025.135.812 0 1.411-.039 1.837-.135.406-.097.677-.251.831-.464s.232-.522.232-.947c0-.406-.058-.696-.193-.889-.116-.193-.329-.329-.657-.425-.309-.097-.851-.193-1.585-.271-1.431-.174-2.455-.503-3.074-.947-.638-.445-.967-1.16-.967-2.127 0-.793.155-1.431.445-1.895.29-.483.773-.831 1.411-1.044.638-.232 1.508-.348 2.591-.348 1.044 0 1.837.155 2.417.464s1.102.851 1.566 1.624l-1.469 1.431c-.271-.483-.483-.831-.677-1.044a1.42 1.42 0 0 0-.677-.464c-.271-.097-.657-.135-1.16-.135-.657 0-1.16.039-1.508.116s-.58.232-.715.425-.193.483-.193.87c0 .271.077.483.213.619.135.155.348.251.638.329l1.295.213c1.102.174 1.972.367 2.591.619.619.232 1.063.58 1.334 1.025.271.464.406 1.083.406 1.856 0 .831-.155 1.489-.483 1.991-.309.483-.831.851-1.547 1.083-.735.232-1.701.348-2.9.348zm12.46-11.116v9.009h3.074v1.856h-8.178v-1.856h3.093v-7.134h-2.223v-1.875h4.234zm-1.334-1.585c-.58 0-.986-.097-1.199-.309-.213-.193-.329-.58-.329-1.121 0-.561.116-.928.329-1.141.213-.193.619-.309 1.199-.309s.986.116 1.218.309c.213.213.329.58.329 1.141 0 .541-.116.928-.329 1.121-.232.213-.638.309-1.218.309z"/><use xlink:href="#B"/><path d="M279.486 105.664V94.799h2.03v.271c.735-.348 1.585-.522 2.571-.522 1.005 0 1.779.155 2.32.425s.928.735 1.16 1.392c.232.638.348 1.566.348 2.745v6.554h-2.03V99.11c0-.696-.058-1.237-.174-1.624-.097-.387-.29-.657-.541-.812-.251-.174-.619-.251-1.083-.251-.754 0-1.315.058-1.682.193a1.19 1.19 0 0 0-.715.715c-.116.348-.174.87-.174 1.585v6.747h-2.03zm14.2.251c-1.025 0-1.856-.116-2.475-.348-.599-.251-1.044-.619-1.334-1.102-.271-.503-.406-1.16-.406-1.991 0-.947.135-1.663.406-2.185.271-.503.696-.87 1.315-1.063.599-.213 1.431-.309 2.494-.309h2.223v-.387c0-.503-.077-.87-.193-1.141s-.348-.464-.657-.58c-.309-.097-.773-.155-1.373-.155-.483 0-.87.039-1.121.135-.251.116-.464.29-.599.541s-.271.657-.406 1.179l-1.933-.483c.213-.831.483-1.489.793-1.991a2.94 2.94 0 0 1 1.257-1.121c.541-.232 1.199-.367 2.011-.367 1.527 0 2.61.329 3.267.986.638.657.967 1.643.967 2.997v4.118c0 .464.058.793.135.947.097.155.309.232.599.232.097 0 .309-.019.638-.039v1.856c-.135.019-.329.019-.58.019-1.025 0-1.721-.232-2.107-.696a2.63 2.63 0 0 1-1.179.715c-.464.155-1.044.232-1.74.232zm0-1.875c.599 0 1.063-.058 1.373-.213a1.15 1.15 0 0 0 .657-.715c.116-.329.193-.831.193-1.469v-.87h-2.223c-.657 0-1.141.039-1.431.097-.271.077-.464.213-.58.445-.135.232-.193.619-.193 1.16 0 .425.058.754.193.967.116.213.329.367.638.464s.773.135 1.373.135zm12.807 1.875c-.812 0-1.45-.135-1.895-.367-.464-.251-.773-.657-.967-1.237s-.29-1.392-.29-2.417v-8.429h-2.223v-1.856h4.234v10.285c0 .812.097 1.373.251 1.682s.464.464.889.464c.213 0 .445-.058.677-.213.251-.135.58-.387 1.025-.754l1.121 1.721c-.522.425-.986.715-1.392.87-.387.174-.87.251-1.431.251zm3.411 1.083h10.653v1.856h-10.653zm19.246-1.334h-2.011v-3.557h-6.071v-1.45l6.399-9.048h1.682v8.642h1.315v1.856h-1.315v3.557zm-2.011-9.995l-3.441 4.582h3.441v-4.582z"/><use xlink:href="#B" x="63.272"/><path d="M362.062 98.627l-7.869 6.921-1.353-1.373 6.283-5.549-6.283-5.529 1.353-1.373 7.869 6.902zm17.456 5.181h2.513v1.856h-7.018v-1.856h2.494v-8.294c-.793.464-1.74.696-2.842.696v-1.875c.947 0 1.643-.232 2.107-.657.464-.445.696-1.141.696-2.069h2.049v12.199zm9.54 2.107c-.87 0-1.663-.329-2.378-.947-.715-.638-1.276-1.508-1.682-2.629-.406-1.102-.599-2.339-.599-3.712 0-1.353.193-2.591.599-3.693.406-1.121.967-1.991 1.682-2.629s1.508-.947 2.378-.947 1.643.309 2.359.947 1.295 1.508 1.701 2.629c.406 1.102.619 2.339.619 3.693 0 1.373-.213 2.61-.619 3.712-.406 1.121-.986 1.991-1.701 2.629-.715.619-1.489.947-2.359.947zm0-1.875c.445 0 .87-.232 1.276-.715s.735-1.141.986-1.972.367-1.74.367-2.726-.116-1.895-.367-2.726-.58-1.489-.986-1.953c-.406-.483-.831-.735-1.276-.735s-.87.251-1.295.735c-.406.464-.735 1.121-.986 1.953a10.1 10.1 0 0 0-.367 2.726 10.1 10.1 0 0 0 .367 2.726c.251.831.58 1.489.986 1.972.425.483.851.715 1.295.715zm0-4.06c-.425 0-.773-.116-1.044-.367s-.406-.58-.406-.986c0-.387.135-.696.406-.947.271-.232.619-.367 1.044-.367s.773.135 1.044.367c.271.251.406.561.406.947 0 .406-.135.735-.406.986s-.619.367-1.044.367z"/></g><path d="M207.794 61.526h-50.055a5.16 5.16 0 0 1-5.214-5.214V6.257a5.16 5.16 0 0 1 5.214-5.214h50.055a5.16 5.16 0 0 1 5.214 5.214v50.055a5.16 5.16 0 0 1-5.214 5.214" fill="#ffdd09" class="B"/><path d="M207.794 1.043h-3.128a5.16 5.16 0 0 1 5.214 5.214v50.055a5.16 5.16 0 0 1-5.214 5.214h3.128a5.16 5.16 0 0 0 5.214-5.214V6.257a5.16 5.16 0 0 0-5.214-5.214" fill="#fd9808" class="B"/><path d="M157.739 1.043h3.128c-2.816 0-5.214 2.294-5.214 5.214v50.055a5.16 5.16 0 0 0 5.214 5.214h-3.128a5.16 5.16 0 0 1-5.214-5.214V6.257c0-2.92 2.398-5.214 5.214-5.214" fill="#fff" class="B"/><path d="M206.751 31.284c0-13.244-10.741-23.985-23.985-23.985s-23.985 10.741-23.985 23.985 10.741 23.985 23.985 23.985 23.985-10.741 23.985-23.985" fill="#fcc309" class="B"/><path d="M182.766 7.3c-.521 0-1.043 0-1.564.104 12.514.73 22.42 11.158 22.42 23.88s-9.907 23.15-22.42 23.88c.521 0 1.043.104 1.564.104 13.244 0 23.985-10.741 23.985-23.985S196.01 7.3 182.766 7.3" fill="#fd9808" class="B"/><path d="M192.152 26.07h-8.343l7.3-11.471h-8.343l-9.385 16.685h6.883l-6.883 16.685 18.771-21.899z" fill="#ffdd09" class="B"/><path d="M173.381 49.012c-.209 0-.417 0-.521-.104-.417-.313-.626-.834-.417-1.251l6.361-15.329h-5.423c-.417 0-.73-.209-.939-.521s-.209-.73 0-1.043l9.385-16.685c.209-.313.521-.521.939-.521h8.343c.417 0 .73.209.939.521s.209.73 0 1.043l-6.257 9.907h6.361c.417 0 .73.209.938.626s.104.834-.104 1.147l-18.771 21.899c-.209.209-.521.313-.834.313zm1.773-18.771h5.11c.313 0 .626.209.834.417.209.313.209.626.104.939l-4.38 10.637 13.035-15.121h-6.048c-.417 0-.73-.209-.939-.521s-.209-.73 0-1.043l6.257-9.907h-5.84l-8.134 14.599zm32.64 32.328h-50.055a6.28 6.28 0 0 1-6.257-6.257V6.257A6.28 6.28 0 0 1 157.739 0h50.055a6.28 6.28 0 0 1 6.257 6.257v50.055a6.28 6.28 0 0 1-6.257 6.257zM157.739 2.086c-2.294 0-4.171 1.877-4.171 4.171v50.055c0 2.294 1.877 4.171 4.171 4.171h50.055c2.294 0 4.171-1.877 4.171-4.171V6.257c0-2.294-1.877-4.171-4.171-4.171h-50.055zm25.027 54.226c-13.765 0-25.028-11.262-25.028-25.028s11.263-25.027 25.028-25.027 25.028 11.262 25.028 25.028-11.262 25.027-25.028 25.027zm0-47.969c-12.618 0-22.942 10.324-22.942 22.942s10.324 22.942 22.942 22.942 22.942-10.324 22.942-22.942-10.324-22.942-22.942-22.942z" class="B"/><use xlink:href="#C" class="B"/><use xlink:href="#C" y="50.055" class="B"/><use xlink:href="#C" x="50.055" class="B"/><use xlink:href="#C" x="50.055" y="50.055" class="B"/><path d="M157.953 116.541c-2.352 0-4.26-.266-5.68-.799-1.376-.577-2.396-1.42-3.062-2.529-.621-1.154-.932-2.662-.932-4.571 0-2.174.311-3.816.932-5.014.621-1.154 1.597-1.997 3.017-2.441 1.376-.488 3.284-.71 5.724-.71h5.103v-.887c0-1.154-.177-1.997-.444-2.618s-.799-1.065-1.509-1.331c-.71-.222-1.775-.355-3.151-.355-1.109 0-1.997.089-2.574.311-.577.266-1.065.666-1.376 1.242s-.621 1.509-.932 2.707l-4.437-1.109c.488-1.908 1.109-3.417 1.819-4.571s1.686-1.997 2.884-2.574c1.242-.532 2.751-.843 4.615-.843 3.506 0 5.991.754 7.499 2.263 1.464 1.509 2.219 3.772 2.219 6.878v9.452c0 1.065.133 1.819.311 2.174.222.355.71.532 1.376.532.222 0 .71-.044 1.464-.089v4.26c-.311.044-.754.044-1.331.044-2.352 0-3.949-.532-4.837-1.597a6.04 6.04 0 0 1-2.707 1.642c-1.065.355-2.396.532-3.994.532zm0-4.304c1.376 0 2.441-.133 3.151-.488.71-.311 1.242-.843 1.509-1.642.266-.754.444-1.908.444-3.372v-1.997h-5.103c-1.509 0-2.618.089-3.284.222-.621.177-1.065.488-1.331 1.021-.311.532-.444 1.42-.444 2.662 0 .976.133 1.731.444 2.219.266.488.754.843 1.464 1.065s1.775.311 3.151.311zm15.818 3.727V91.025h4.659v.621c1.686-.799 3.639-1.198 5.902-1.198 2.307 0 4.082.355 5.325.976s2.13 1.686 2.662 3.195c.532 1.464.799 3.594.799 6.301v15.043h-4.659V100.92c0-1.597-.133-2.84-.399-3.727-.222-.887-.666-1.509-1.242-1.864-.577-.399-1.42-.577-2.485-.577-1.731 0-3.017.133-3.861.444-.799.311-1.376.887-1.642 1.642-.266.799-.399 1.997-.399 3.639v15.487h-4.659zm33.434.577c-2.485 0-4.482-.444-5.902-1.331s-2.485-2.263-3.106-4.127-.932-4.393-.932-7.544c0-3.195.311-5.68.932-7.588.621-1.864 1.686-3.284 3.106-4.171s3.417-1.331 5.902-1.331a15.62 15.62 0 0 1 5.414.976v-7.721h4.659v32.26h-4.659v-.266c-1.553.532-3.372.843-5.414.843zm0-4.304c1.864 0 3.239-.177 4.082-.621.887-.399 1.331-.976 1.331-1.686v-9.541c0-1.952-.444-3.372-1.287-4.26-.843-.932-2.219-1.376-4.127-1.376-1.376 0-2.485.266-3.239.799s-1.287 1.42-1.597 2.662c-.311 1.287-.488 3.017-.488 5.325s.177 4.038.488 5.281.843 2.13 1.597 2.662c.754.488 1.864.754 3.239.754z" fill="gray" class="B"/><g fill="none"><path d="M65.861 73.765V31.284h85.621" stroke="#000" stroke-width="8.002"/><path d="M320.699 73.765V31.284h-106.65" stroke="#d4d4d4" stroke-width="7.997"/></g><defs ><path id="B" d="M273.02 109.105c-.831 0-1.469-.116-1.953-.329-.503-.232-.986-.619-1.45-1.199l1.469-1.257c.329.387.599.638.831.754s.599.174 1.102.174c.599 0 1.044-.077 1.373-.232.309-.135.541-.387.657-.754.135-.348.193-.87.193-1.566v-.039c-.735.29-1.508.425-2.339.425-1.102 0-1.953-.193-2.591-.58-.638-.406-1.083-1.025-1.373-1.875-.271-.87-.406-2.011-.406-3.461 0-1.102.155-1.991.425-2.668.29-.657.754-1.16 1.392-1.469.619-.309 1.469-.483 2.552-.483a7.42 7.42 0 0 1 2.339.367v-.116h2.03v9.744c0 1.121-.135 2.011-.406 2.668-.29.657-.735 1.141-1.353 1.45-.599.29-1.45.445-2.494.445zm-.116-5.877c.831 0 1.431-.213 1.798-.599.367-.406.541-1.025.541-1.875v-3.306c0-.329-.174-.58-.561-.754s-.986-.271-1.779-.271c-.638 0-1.102.077-1.431.251-.329.155-.561.425-.696.831-.135.387-.193.947-.193 1.663 0 1.063.058 1.895.193 2.475.155.58.387.986.715 1.218s.793.367 1.411.367z"/><path id="C" d="M159.825 6.257c0-1.147-.939-2.086-2.086-2.086s-2.086.939-2.086 2.086.939 2.086 2.086 2.086 2.086-.939 2.086-2.086"/></defs></svg>