<svg xmlns="http://www.w3.org/2000/svg" xmlns:xlink="http://www.w3.org/1999/xlink" width="1180" height="200" fill-rule="evenodd" stroke-linejoin="round" stroke-miterlimit="2" xmlns:v="https://vecta.io/nano"><style><![CDATA[.B{fill-rule:nonzero}.C{fill:#1fc53d}.D{fill:#0d5119}.E{fill:#05230b}.F{fill:#c5351f}.G{fill:#58130c}.H{fill:#370c07}]]></style><g transform="matrix(1.02564 0 0 1.03448 -413.333 -475.862)"><use xlink:href="#B" fill="#1fb5c5"/><g fill="#0b4147"><use xlink:href="#C"/><g class="B"><use xlink:href="#D"/><path d="M465.229 499.421v-20.373h3.77v1.704c.544-.58 1.196-1.088 2.03-1.523s1.74-.652 2.719-.652c1.269 0 2.32.181 3.154.544.834.326 1.559.87 2.175 1.631.58.761 1.124 1.813 1.631 3.154l-3.408 1.559c-.29-.979-.58-1.704-.834-2.175-.29-.435-.616-.761-1.015-.942s-.979-.254-1.704-.254c-1.704 0-2.936.58-3.661 1.74-.725 1.196-1.088 2.9-1.088 5.147v10.44h-3.77z"/></g></g></g><g transform="matrix(1.02564 0 0 1.03448 46.667 -475.862)"><use xlink:href="#B" fill="#c5ba1f"/><g fill="#3d3a0a"><use xlink:href="#C"/><g class="B"><path d="M441.515 499.892c-1.921 0-3.48-.217-4.64-.652-1.124-.471-1.958-1.16-2.501-2.066-.507-.942-.761-2.175-.761-3.734 0-1.776.254-3.118.761-4.096.507-.942 1.305-1.631 2.465-1.994 1.124-.399 2.683-.58 4.676-.58h4.169v-.725c0-.942-.145-1.631-.363-2.139s-.652-.87-1.232-1.088c-.58-.181-1.45-.29-2.574-.29-.906 0-1.631.072-2.103.254-.471.218-.87.544-1.124 1.015s-.507 1.232-.761 2.211l-3.625-.906c.399-1.559.906-2.791 1.486-3.734s1.377-1.631 2.356-2.103c1.015-.435 2.248-.689 3.77-.689 2.864 0 4.894.616 6.126 1.849 1.196 1.233 1.813 3.081 1.813 5.619v7.721c0 .87.109 1.486.254 1.776.181.29.58.435 1.124.435.181 0 .58-.036 1.196-.072v3.48c-.254.036-.616.036-1.087.036-1.921 0-3.226-.435-3.951-1.305-.58.616-1.341 1.088-2.211 1.341-.87.29-1.957.435-3.262.435zm0-3.516c1.124 0 1.994-.109 2.574-.399a2.16 2.16 0 0 0 1.232-1.341c.218-.616.363-1.559.363-2.755v-1.631h-4.169c-1.233 0-2.139.072-2.683.181-.507.145-.87.399-1.087.834-.254.435-.363 1.16-.363 2.175 0 .798.109 1.414.363 1.813.217.399.616.689 1.196.87s1.45.254 2.574.254z"/><use xlink:href="#E"/><path d="M481.749 499.892c-2.03 0-3.661-.363-4.821-1.087s-2.03-1.849-2.538-3.371-.761-3.589-.761-6.162c0-2.61.254-4.64.761-6.199.507-1.522 1.377-2.683 2.538-3.408s2.791-1.087 4.821-1.087a12.76 12.76 0 0 1 4.423.798v-6.308h3.806v26.354h-3.806v-.217c-1.269.435-2.755.689-4.423.689zm0-3.516c1.523 0 2.646-.145 3.335-.507.725-.326 1.087-.798 1.087-1.377v-7.794c0-1.595-.363-2.755-1.051-3.48-.689-.761-1.812-1.124-3.371-1.124-1.124 0-2.03.217-2.646.652s-1.051 1.16-1.305 2.175c-.254 1.051-.399 2.465-.399 4.35s.145 3.299.399 4.314.689 1.74 1.305 2.175c.616.399 1.522.616 2.646.616z"/></g></g></g><g transform="matrix(1.02564 0 0 1.03448 -413.333 -395.8621)"><use xlink:href="#B" class="C"/><use xlink:href="#C" class="D"/><g class="B E"><use xlink:href="#F"/><use xlink:href="#G"/><use xlink:href="#H"/><use xlink:href="#I"/></g></g><g transform="matrix(1.02564 0 0 1.03448 46.667 -395.8621)"><use xlink:href="#B" class="C"/><use xlink:href="#C" class="D"/><g class="B E"><use xlink:href="#F"/><use xlink:href="#G"/><use xlink:href="#H"/><use xlink:href="#I"/></g></g><g transform="matrix(1.02564 0 0 1.03448 -273.3333 -335.8621)"><use xlink:href="#B" class="C"/><use xlink:href="#C" class="D"/><g class="B E"><use xlink:href="#F"/><use xlink:href="#G"/><use xlink:href="#H"/><use xlink:href="#I"/></g></g><g transform="matrix(1.02564 0 0 1.03448 -153.333 -395.8621)"><use xlink:href="#B" class="C"/><use xlink:href="#C" class="D"/><g class="B E"><use xlink:href="#F"/><use xlink:href="#G"/><use xlink:href="#H"/><use xlink:href="#I"/></g></g><g transform="matrix(1.02564 0 0 1.03448 -273.3333 -395.8621)"><use xlink:href="#B" class="C"/><use xlink:href="#C" class="D"/><g class="B E"><use xlink:href="#F"/><use xlink:href="#G"/><use xlink:href="#H"/><use xlink:href="#I"/></g></g><g transform="matrix(1.02564 0 0 1.03448 186.667 -395.8621)"><use xlink:href="#B" class="C"/><path d="M520 460v58H403v-58h117zm-4.063 4.028H407.062v49.944h108.876l-.001-49.944z" class="D"/><g class="B E"><use xlink:href="#F"/><use xlink:href="#G"/><use xlink:href="#H"/><use xlink:href="#I"/></g></g><g transform="matrix(1.02564 0 0 1.03448 -273.3333 -475.862)"><use xlink:href="#B" class="C"/><use xlink:href="#C" class="D"/><g class="B E"><use xlink:href="#F"/><use xlink:href="#G"/><use xlink:href="#H"/><use xlink:href="#I"/></g></g><g transform="matrix(1.02564 0 0 1.03448 186.667 -475.862)"><use xlink:href="#B" class="C"/><use xlink:href="#C" class="D"/><g class="B E"><use xlink:href="#F"/><use xlink:href="#G"/><use xlink:href="#H"/><use xlink:href="#I"/></g></g><g transform="matrix(1.02564 0 0 1.03448 -413.333 -395.8621)"><use xlink:href="#B" y="58" class="F"/><use xlink:href="#C" y="58" class="G"/><g class="B H"><use xlink:href="#J"/><use xlink:href="#K"/><use xlink:href="#L"/><use xlink:href="#M"/><use xlink:href="#N"/></g></g><g transform="matrix(1.02564 0 0 1.03448 46.667 -395.8621)"><use xlink:href="#B" y="58" class="F"/><use xlink:href="#C" y="58" class="G"/><g class="B H"><use xlink:href="#J"/><use xlink:href="#K"/><use xlink:href="#L"/><use xlink:href="#M"/><use xlink:href="#N"/></g></g><g transform="matrix(1.02564 0 0 1.03448 186.667 -395.8621)"><use xlink:href="#B" y="58" class="F"/><use xlink:href="#C" y="58" class="G"/><g class="B H"><use xlink:href="#J"/><use xlink:href="#K"/><use xlink:href="#L"/><use xlink:href="#M"/><use xlink:href="#N"/></g></g><g transform="matrix(1.02564 0 0 1.03448 306.667 -395.8621)"><use xlink:href="#B" y="58" class="F"/><use xlink:href="#O" class="G"/><g class="B H"><use xlink:href="#J"/><use xlink:href="#K"/><use xlink:href="#L"/><use xlink:href="#M"/><use xlink:href="#N"/></g></g><g transform="matrix(1.02564 0 0 1.03448 -153.333 -395.8621)"><use xlink:href="#B" y="58" class="F"/><use xlink:href="#C" y="58" class="G"/><g class="B H"><use xlink:href="#J"/><use xlink:href="#K"/><use xlink:href="#L"/><use xlink:href="#M"/><use xlink:href="#N"/></g></g><g transform="matrix(1.02564 0 0 1.03448 -153.333 -535.862)"><use xlink:href="#B" y="58" class="F"/><path d="M520 518v58H403v-58h117zm-4.063 4.028H407.062v49.944h108.876l-.001-49.944z" class="G"/><g class="B H"><use xlink:href="#J"/><use xlink:href="#K"/><use xlink:href="#L"/><use xlink:href="#M"/><use xlink:href="#N"/></g></g><g transform="matrix(1.02564 0 0 1.03448 306.667 -535.862)"><use xlink:href="#B" y="58" class="F"/><use xlink:href="#C" y="58" class="G"/><g class="B H"><use xlink:href="#J"/><use xlink:href="#K"/><use xlink:href="#L"/><use xlink:href="#M"/><use xlink:href="#N"/></g></g><g transform="matrix(1.02564 0 0 1.03448 306.667 -455.862)"><use xlink:href="#B" y="58" class="F"/><use xlink:href="#O" class="G"/><g class="B H"><use xlink:href="#J"/><use xlink:href="#K"/><use xlink:href="#L"/><use xlink:href="#M"/><use xlink:href="#N"/></g></g><g transform="matrix(1.02564 0 0 1.03448 506.667 -475.862)"><use xlink:href="#B" fill="#c51fc5"/><g fill="#570d57"><use xlink:href="#O" y="-58"/><g class="B"><use xlink:href="#E" x="-19.772"/><use xlink:href="#D" x="9.886"/><path d="M484.069 499.892c-1.595 0-2.9-.29-3.879-.834-.942-.544-1.668-1.414-2.103-2.61-.471-1.196-.689-2.791-.689-4.749v-9.534h-4.096v-3.516h4.096v-5.582h3.806v5.582h6.815v3.516h-6.815v9.534c0 1.233.072 2.175.254 2.864.181.653.471 1.124.87 1.414s.979.399 1.74.399c.797 0 1.377-.036 1.74-.145s.653-.326.798-.616c.181-.254.363-.761.58-1.45l3.553 1.196c-.326 1.16-.761 2.03-1.269 2.683a4.6 4.6 0 0 1-2.066 1.414c-.834.29-1.957.435-3.335.435z"/></g></g></g><g transform="matrix(1.02564 0 0 1.03448 506.667 -395.8621)"><use xlink:href="#B" class="C"/><use xlink:href="#O" y="-58" class="D"/><g class="B E"><use xlink:href="#F"/><use xlink:href="#G"/><use xlink:href="#H"/><use xlink:href="#I"/></g></g><g transform="matrix(1.02564 0 0 1.03448 646.667 -335.8621)"><use xlink:href="#B" class="C"/><use xlink:href="#C" class="D"/><g class="B E"><use xlink:href="#F"/><use xlink:href="#G"/><use xlink:href="#H"/><use xlink:href="#I"/></g></g><g transform="matrix(1.02564 0 0 1.03448 506.667 -395.8621)"><use xlink:href="#B" y="58" class="F"/><use xlink:href="#O" class="G"/><g class="B H"><use xlink:href="#J"/><use xlink:href="#K"/><use xlink:href="#L"/><use xlink:href="#M"/><use xlink:href="#N"/></g></g><g transform="matrix(1.02564 0 0 1.03448 646.667 -455.862)"><use xlink:href="#B" y="58" class="F"/><use xlink:href="#C" y="58" class="G"/><g class="B H"><use xlink:href="#J"/><use xlink:href="#K"/><use xlink:href="#L"/><use xlink:href="#M"/><use xlink:href="#N"/></g></g><defs ><path id="B" d="M403 460h117v58H403z"/><path id="C" d="M520 460v58H403v-58h117zm-4.063 4.028H407.063l-.001 49.944h108.876l-.001-49.944z"/><path id="D" d="M452.271 499.892c-2.066 0-3.661-.363-4.821-1.087-1.196-.725-2.03-1.849-2.537-3.408-.544-1.522-.798-3.589-.798-6.163s.254-4.604.798-6.162c.507-1.522 1.341-2.683 2.537-3.408 1.16-.725 2.755-1.087 4.821-1.087 2.03 0 3.661.363 4.821 1.087 1.196.725 2.066 1.885 2.574 3.408.507 1.559.761 3.589.761 6.162s-.254 4.64-.761 6.163c-.507 1.559-1.377 2.683-2.574 3.408-1.16.725-2.791 1.087-4.821 1.087zm0-3.516c1.124 0 2.03-.217 2.646-.616.616-.435 1.051-1.16 1.341-2.175.254-1.051.399-2.465.399-4.35 0-1.849-.145-3.299-.399-4.314-.29-1.051-.725-1.776-1.341-2.175-.616-.435-1.523-.652-2.646-.652-1.16 0-2.03.217-2.646.652-.616.399-1.051 1.124-1.305 2.175-.29 1.015-.399 2.465-.399 4.314 0 1.885.109 3.299.399 4.35.254 1.015.689 1.74 1.305 2.175.616.399 1.486.616 2.646.616z"/><path id="E" d="M454.436 499.421v-20.373h3.806v.507c1.377-.652 2.973-.979 4.821-.979 1.885 0 3.335.29 4.35.798s1.74 1.377 2.175 2.61c.435 1.196.653 2.936.653 5.148v12.289h-3.806v-12.289c0-1.305-.109-2.32-.326-3.045-.181-.725-.544-1.233-1.015-1.522-.471-.326-1.16-.471-2.03-.471-1.414 0-2.465.109-3.154.363-.653.254-1.124.725-1.341 1.341-.218.652-.326 1.631-.326 2.972v12.651h-3.806z"/><path id="F" d="M446.255 478.217v2.8h-6.446v18.404h-3.033v-18.404h-6.475v-2.8h15.954z"/><path id="G" d="M448.718 499.421v-16.392h3.033v1.371c.438-.467.963-.875 1.633-1.225s1.4-.525 2.188-.525c1.021 0 1.867.146 2.538.438.671.263 1.254.7 1.75 1.313.467.613.904 1.458 1.313 2.538l-2.742 1.254c-.233-.788-.467-1.371-.671-1.75-.233-.35-.496-.613-.817-.758s-.788-.204-1.371-.204c-1.371 0-2.363.467-2.946 1.4-.583.963-.875 2.333-.875 4.142v8.4h-3.033z"/><path id="H" d="M469.644 499.8c-1.429 0-2.567-.233-3.383-.671-.846-.408-1.429-1.108-1.808-2.1-.379-.963-.554-2.304-.554-3.967v-10.033h3.063v10.033c0 1.079.058 1.925.204 2.45.146.554.438.933.817 1.138.379.233.933.321 1.663.321 1.108 0 1.925-.088 2.45-.263.554-.175.933-.496 1.138-.933s.321-1.108.321-2.013v-10.733h3.063v16.392h-3.063v-.263c-.933.408-2.217.642-3.908.642z"/><path id="I" d="M486.078 482.65c1.721 0 3.063.321 4.025.963.963.613 1.663 1.604 2.042 2.975.408 1.342.583 3.15.554 5.454H482.17c.058 1.283.204 2.275.467 2.975s.642 1.225 1.196 1.517 1.313.438 2.246.438c.7 0 1.254-.058 1.692-.175.438-.146.846-.379 1.196-.729.379-.35.788-.875 1.283-1.546l2.45 1.604c-.875 1.371-1.808 2.333-2.8 2.858-.963.525-2.246.817-3.821.817-1.75 0-3.121-.292-4.142-.875s-1.75-1.488-2.188-2.742c-.438-1.225-.671-2.888-.671-4.958s.233-3.704.671-4.958c.438-1.225 1.167-2.158 2.188-2.742s2.392-.875 4.142-.875zm3.5 6.592c-.117-.963-.292-1.721-.525-2.246-.233-.554-.583-.933-1.079-1.167-.467-.233-1.079-.35-1.896-.35-.875 0-1.575.117-2.1.35s-.933.613-1.225 1.167c-.263.525-.438 1.283-.525 2.246h7.35z"/><path id="J" d="M437.221 536.217v2.8h-9.917v7h6.329v2.8h-6.329v8.604h-3.033v-21.204h12.95z"/><path id="K" d="M445.547 557.8c-1.546 0-2.8-.175-3.733-.525-.904-.379-1.575-.933-2.013-1.663-.408-.758-.613-1.75-.613-3.004 0-1.429.204-2.508.613-3.296.408-.758 1.05-1.313 1.983-1.604.904-.321 2.158-.467 3.763-.467h3.354v-.583c0-.758-.117-1.313-.292-1.721s-.525-.7-.992-.875c-.467-.146-1.167-.233-2.071-.233-.729 0-1.313.058-1.692.204-.379.175-.7.438-.904.817s-.408.992-.613 1.779l-2.917-.729c.321-1.254.729-2.246 1.196-3.004s1.108-1.313 1.896-1.692c.817-.35 1.808-.554 3.033-.554 2.304 0 3.938.496 4.929 1.488.963.992 1.458 2.479 1.458 4.521v6.213c0 .7.088 1.196.204 1.429.146.233.467.35.904.35.146 0 .467-.029.963-.058v2.8c-.204.029-.496.029-.875.029-1.546 0-2.596-.35-3.179-1.05-.467.496-1.079.875-1.779 1.079-.7.233-1.575.35-2.625.35zm0-2.829c.904 0 1.604-.088 2.071-.321.467-.204.817-.554.992-1.079.175-.496.292-1.254.292-2.217v-1.313h-3.354c-.992 0-1.721.058-2.158.146-.408.117-.7.321-.875.671-.204.35-.292.933-.292 1.75 0 .642.088 1.138.292 1.458.175.321.496.554.963.7s1.167.204 2.071.204z"/><path id="L" d="M464.868 557.8c-1.225 0-2.188-.204-2.858-.554-.7-.379-1.167-.992-1.458-1.867s-.438-2.1-.438-3.646v-12.717h-3.354v-2.8h6.388v15.517c0 1.225.146 2.071.379 2.538s.7.7 1.342.7c.321 0 .671-.088 1.021-.321.379-.204.875-.583 1.546-1.138l1.692 2.596c-.788.642-1.488 1.079-2.1 1.313-.583.263-1.313.379-2.158.379z"/><path id="M" d="M477.394 557.8c-1.458 0-2.625-.263-3.5-.817-.846-.525-1.604-1.458-2.304-2.8l2.421-1.983c.35.817.642 1.4.904 1.779s.583.613.933.788c.379.146.904.204 1.546.204 1.225 0 2.129-.058 2.771-.204.613-.146 1.021-.379 1.254-.7s.35-.788.35-1.429c0-.613-.088-1.05-.292-1.342-.175-.292-.496-.496-.992-.642-.467-.146-1.283-.292-2.392-.408-2.158-.263-3.704-.758-4.638-1.429-.963-.671-1.458-1.75-1.458-3.208 0-1.196.233-2.158.671-2.858.438-.729 1.167-1.254 2.129-1.575.963-.35 2.275-.525 3.908-.525 1.575 0 2.771.233 3.646.7s1.663 1.283 2.363 2.45l-2.217 2.158c-.408-.729-.729-1.254-1.021-1.575-.292-.35-.642-.583-1.021-.7-.408-.146-.992-.204-1.75-.204-.992 0-1.75.058-2.275.175s-.875.35-1.079.642-.292.729-.292 1.313c0 .408.117.729.321.933.204.233.525.379.963.496l1.954.321c1.663.263 2.975.554 3.908.933.933.35 1.604.875 2.013 1.546.408.7.613 1.633.613 2.8 0 1.254-.233 2.246-.729 3.004-.467.729-1.254 1.283-2.333 1.633-1.108.35-2.567.525-4.375.525z"/><path id="N" d="M494.032 540.65c1.721 0 3.063.321 4.025.963.963.613 1.663 1.604 2.042 2.975.408 1.342.583 3.15.554 5.454h-10.529c.058 1.283.204 2.275.467 2.975s.642 1.225 1.196 1.517 1.313.438 2.246.438c.7 0 1.254-.058 1.692-.175.438-.146.846-.379 1.196-.729.379-.35.788-.875 1.283-1.546l2.45 1.604c-.875 1.371-1.808 2.333-2.8 2.858-.963.525-2.246.817-3.821.817-1.75 0-3.121-.292-4.142-.875s-1.75-1.488-2.188-2.742c-.438-1.225-.671-2.888-.671-4.958s.233-3.704.671-4.958c.438-1.225 1.167-2.158 2.188-2.742s2.392-.875 4.142-.875zm3.5 6.592c-.117-.963-.292-1.721-.525-2.246-.233-.554-.583-.933-1.079-1.167-.467-.233-1.079-.35-1.896-.35-.875 0-1.575.117-2.1.35s-.933.613-1.225 1.167c-.263.525-.438 1.283-.525 2.246h7.35z"/><path id="O" d="M520 518v58H403v-58h117zm-4.063 4.028H407.063l-.001 49.944h108.875v-49.944z"/></defs></svg>