<svg xmlns="http://www.w3.org/2000/svg" xmlns:xlink="http://www.w3.org/1999/xlink" width="865" height="271" fill-rule="evenodd" stroke-linejoin="round" stroke-miterlimit="2" xmlns:v="https://vecta.io/nano"><style><![CDATA[.B{fill-rule:nonzero}]]></style><path d="M489 41.073h375.739v229H489zm-489 0h375.739v229H0z" fill="#e8e8e8"/><g fill="#c7d2d7" class="B"><path d="M70.131 159.825h7.71v68.962h-7.71z"/><path d="M39.491 190.436h68.962v7.739H39.491z"/><path d="M46.901 172.641l5.45-5.436 48.735 48.778-5.464 5.436-48.721-48.778z"/><path d="M52.351 221.448l-5.45-5.436 48.692-48.85 5.464 5.45-48.707 48.835z"/></g><path d="M73.979 234.995c-22.311-.023-40.665-18.371-40.696-40.682 0-22.444 18.252-40.696 40.696-40.696s40.696 18.238 40.696 40.696c-.031 22.311-18.385 40.658-40.696 40.682zm0-72.738c-17.571.031-32.018 14.485-32.042 32.056 0 17.652 14.376 32.013 32.042 32.013s32.042-14.362 32.042-32.013c-.023-17.571-14.471-32.025-32.042-32.056z" fill="#486d7d" class="B"/><g fill="#c7d2d7" class="B"><path d="M193.107 159.825h7.724v68.962h-7.724z"/><path d="M162.495 190.436h68.947v7.739h-68.947z"/><path d="M169.89 172.627l5.45-5.436 48.707 48.821-5.464 5.436-48.692-48.821z"/><path d="M175.34 221.463l-5.464-5.436 48.664-48.864 5.464 5.436-48.664 48.864z"/></g><path d="M196.969 234.995c-22.316-.016-40.679-18.366-40.71-40.682.023-22.322 18.389-40.681 40.71-40.696 22.311.031 40.658 18.385 40.682 40.696-.023 22.308-18.373 40.658-40.682 40.682zm0-72.738c-17.577.023-32.033 14.48-32.056 32.056.039 17.563 14.493 31.998 32.056 32.013 17.561-.016 32.011-14.452 32.042-32.013-.023-17.571-14.471-32.025-32.042-32.056z" fill="#486d7d" class="B"/><g fill="#f0003d" class="B"><path d="M96.952 119.701l7.939-2.932 32.113 86.914-7.953 2.932-32.099-86.914z"/><path d="M71.347 196.802l7.395 4.105 31.727-59.464-7.41-4.091-31.713 59.449zm60.694-1.559l7.667 3.934 35.303-61.452-7.681-3.934-35.289 61.452z"/><path d="M202.519 202.595l-7.853 3.147-42.27-105.524 10.614 1.101 39.509 101.275z"/><path d="M106.779 128.512h65.042v8.454h-65.042zm66.401-18.681h-.257l-14.447-.815-5.597-8.747 20.402.494c2.189-.072 8.983-.958 8.983-9.512h9.083c0 13.632-10.871 18.581-18.167 18.581z"/></g><path d="M177.1 109.287l-.93-9.026c1.43-.172 6.108-1.373 6.108-9.012h9.083c-.014 13.203-9.341 17.58-14.262 18.038z" fill="#3a4353" class="B"/><path d="M117.221 102.864l-26.964 5.564c-4.02.858-6.58 5.007-5.679 9.298.887 4.291 2.646 7.553 8.897 6.251l.486-.358c2.403-.401 6.351-2.718 10.242-6.294 1.788-1.659 3.319-3.319 4.535-4.878l.501-.401c4.034-.83 16.779-1.745 16.708-3.891l-.186-.93c-.229-1.345-1.287-5.879-8.54-4.363z" fill="#7a003c" class="B"/><path d="M148.663 202.481c0 8.554-7.867 13.689-17.552 13.689l-45.331-9.555c-9.927-2.847-17.566-3.991-17.566-13.947v3.633c0-8.583 6.194-9.327 15.878-9.327h47.019c9.684 0 17.552 6.923 17.552 15.506z" fill="#a20041" class="B"/><path d="M303.105 146.361l5.605 5.605-12.143 12.143-5.605-5.605z" fill="#008335"/><g class="B"><path d="M350.941 138.27a17.72 17.72 0 0 0-17.718-17.718l-3.14 3.128 18.124 16.942 2.734-2.352z" fill="#d3d2d4"/><path d="M316.741 139.725l15.028 15.028s7.706-4.855 10.153-6.648c2.703-1.979 10.38-8.473 10.38-8.473l-20.441-20.441s-6.494 7.678-8.473 10.38c-1.793 2.448-6.648 10.153-6.648 10.153z" fill="#3fcb80"/></g><path d="M316.897 139.79l15.023 15.023-43.488 43.488-15.023-15.023z" fill="#3fcb80"/><g fill="#008335"><path d="M288.119 198.613l-15.023-15.023 4.997-4.997 15.023 15.023z"/><path d="M323.389 129.567l-1.502 2.179 17.856 17.856 2.179-1.502 3.971-3.141-19.364-19.364-3.141 3.971z" class="B"/></g><path d="M351.378 138.27c0-8.62-6.157-15.802-14.313-17.39 3.481 3.235 5.659 7.852 5.659 12.979l1.362 1.362s-7.678 6.494-10.38 8.473c-2.448 1.793-10.153 6.648-10.153 6.648l-.005-.005-41.366 41.366 6.532 6.532 43.488-43.488.005.005s7.706-4.855 10.153-6.648c2.703-1.979 10.38-8.473 10.38-8.473l-1.362-1.362z" fill="#094436" fill-opacity=".13" class="B"/><path d="M562.668 76.152h72.348v158.843h-72.348z" fill="#212121"/><path d="M574.974 103.562h12.663v4.75h-12.663z" fill="#fff"/><path d="M574.974 94.448h47.866v4.75h-47.866z" fill="#009be2"/><path d="M592.511 103.562h12.663v4.75h-12.663z" fill="#d0d0d0"/><path d="M592.511 213.178h12.663v4.75h-12.663z" fill="#009be2"/><path d="M610.048 103.562h12.663v4.75h-12.663z" fill="#fff"/><g transform="matrix(.180773 0 0 .180773 579.5 60.256)" class="B"><path d="M1102.435 348.832H792.13c-7.23 0-13.689 3.297-17.959 8.468-1.898 2.299-3.362 4.968-4.268 7.883a23.26 23.26 0 0 0-1.046 6.92v310.333c0 12.851 10.42 23.273 23.273 23.273h310.306c12.853 0 23.273-10.422 23.273-23.273V372.105c-.001-12.853-10.421-23.273-23.274-23.273z" fill="#ff004b"/><g fill="#ff9600"><path d="M877.47 348.832v-54.283c0-12.853-10.42-23.273-23.272-23.273s-23.273 10.42-23.273 23.273v54.283h46.545zm186.171 0v-54.283c0-12.853-10.42-23.273-23.273-23.273s-23.272 10.42-23.272 23.273v54.283h46.545zm-93.081 0v-54.283c0-12.853-10.42-23.273-23.273-23.273s-23.273 10.42-23.273 23.273v54.283h46.546z"/><use xlink:href="#B"/><use xlink:href="#B" x="-186.171"/><use xlink:href="#B" x="-93.082"/><path d="M1125.708 457.458h54.295c12.853 0 23.273-10.42 23.273-23.273s-10.42-23.273-23.273-23.273h-54.295v46.546z"/><use xlink:href="#C"/><use xlink:href="#C" y="-93.097"/><path d="M768.858 597.094h-54.309c-12.853 0-23.273 10.419-23.273 23.273s10.42 23.273 23.273 23.273h54.309v-46.546zm0-186.182h-54.309c-12.853 0-23.273 10.42-23.273 23.273s10.42 23.273 23.273 23.273h54.309v-46.546zm0 93.085h-54.309c-12.853 0-23.273 10.418-23.273 23.273s10.42 23.273 23.273 23.273h54.309v-46.546z"/></g><path d="M768.858 620.367v62.067c0 12.851 10.42 23.273 23.273 23.273h155.157V612.61h-62.059c-12.853 0-23.273-10.422-23.273-23.273V465.215c0-12.853 10.42-23.273 23.273-23.273h62.059v-93.11H792.131c-12.853 0-23.273 10.42-23.273 23.273v224.991c0-.002 0 23.271 0 23.271z" fill="#e1001c"/><path d="M1009.338 441.943h-124.11c-12.853 0-23.273 10.42-23.273 23.273v124.121c0 12.851 10.42 23.273 23.273 23.273h124.11c12.853 0 23.273-10.422 23.273-23.273V465.215c0-12.852-10.42-23.272-23.273-23.272z" fill="#a2a0a8"/><path d="M885.228 441.943c-12.853 0-23.273 10.42-23.273 23.273v124.121c0 12.851 10.42 23.273 23.273 23.273h62.048V441.943h-62.048z" fill="#7b7a84"/></g><g class="B"><path d="M595.899.33c2.22 0 4.02.84 5.43 2.55l-.03-.33v-.33c-.03-.12-.03-.18-.03-.21l-.06-.6c0-.69.33-1.02.96-1.02.69 0 1.02.42 1.02 1.26 0 .15-.03.63-.12 1.44l-.15 2.07c0 .54.03 1.08.09 1.65l.12 1.14v.3c0 .9-.36 1.35-1.08 1.35-.78 0-1.17-.42-1.14-1.29l.03-1.08c.03-1.44-.42-2.61-1.35-3.51s-2.16-1.35-3.69-1.35c-1.98 0-3.54.75-4.65 2.28s-1.68 3.63-1.68 6.3c0 2.73.57 4.86 1.74 6.39 1.14 1.56 2.73 2.31 4.8 2.31 1.11 0 2.13-.27 3.03-.81.87-.54 1.5-1.26 1.86-2.13.24-.57.36-1.35.36-2.34 0-.93.39-1.38 1.14-1.38.81 0 1.23.45 1.23 1.38 0 2.13-.75 3.9-2.22 5.25s-3.39 2.04-5.73 2.04c-2.7 0-4.86-.96-6.45-2.85-1.62-1.89-2.43-4.44-2.43-7.59 0-3.27.84-5.88 2.49-7.89 1.62-2.01 3.81-3 6.51-3z"/><use xlink:href="#D"/><path d="M626.919 6.9v.87c.72-.87 1.41-1.47 2.04-1.8.63-.3 1.44-.48 2.4-.48 1.95 0 3.39.75 4.32 2.28.69-.84 1.38-1.44 2.07-1.77s1.59-.51 2.7-.51c1.14 0 2.16.24 3.06.72.99.54 1.68 1.29 2.07 2.28.27.66.39 1.71.39 3.12v2.91l-.03 2.25.03 1.5c.09.72.36 1.08.78 1.08.15 0 .36-.03.63-.09s.48-.09.63-.09c.69 0 1.05.3 1.05.9 0 .69-.39 1.05-1.2 1.05-.3 0-.75-.03-1.35-.09a10.13 10.13 0 0 0-1.41-.12c-.33 0-.84.03-1.47.12l-1.5.09c-.84 0-1.26-.36-1.26-1.05 0-.6.33-.9.96-.9.09 0 .27.03.6.06a1.88 1.88 0 0 0 .48.06c.33 0 .54-.18.66-.51.09-.33.12-1.2.15-2.55l.03-1.83v-1.98c0-1.38-.09-2.4-.3-3.03-.24-.6-.63-1.11-1.2-1.47s-1.23-.54-1.98-.54c-1.41 0-2.4.48-2.97 1.47-.45.78-.66 2.13-.66 4.08v2.13l.15 3.51c.09.48.3.72.69.72.12 0 .3-.03.54-.09l.51-.06c.27 0 .51.09.72.27.18.21.27.45.27.72 0 .66-.48.99-1.41.99-.3 0-.75-.03-1.32-.12-.6-.09-1.05-.12-1.35-.12-.42 0-.87.03-1.38.12a7.41 7.41 0 0 1-1.32.12c-.81 0-1.23-.33-1.23-1.02 0-.63.3-.93.9-.93.21 0 .39.03.51.06.27.06.48.09.63.09.48 0 .72-.51.75-1.53l.03-1.41.03-1.29.03-.57v-2.49c0-1.74-.24-2.94-.69-3.63-.48-.69-1.32-1.02-2.52-1.02-1.32 0-2.34.48-3.03 1.44-.57.78-.87 2.13-.87 4.08v3.99l.03 1.41c.09.69.3 1.02.66 1.02.09 0 .3-.03.63-.12.03 0 .09 0 .18-.03h.21c.78 0 1.17.33 1.17.99 0 .63-.45.96-1.35.96-.33 0-.75-.03-1.26-.09-.69-.09-1.26-.12-1.74-.12-.24 0-.69.03-1.32.09l-1.56.12c-.81 0-1.2-.33-1.2-1.02 0-.63.39-.93 1.14-.93h.18a.53.53 0 0 0 .18.03l.75.15c.03.03.06.03.12.03.54 0 .84-.48.87-1.47l.06-1.71v-4.59l-.12-3.18c-.09-.42-.36-.63-.75-.63-.09 0-.36.06-.84.15l-.48.06c-.75 0-1.11-.33-1.11-.96 0-.69.42-1.02 1.23-1.02.21 0 .51.03.9.06l.99.06c.09 0 .21 0 .33-.03h.21l.72-.09h.09c.48 0 .72.3.72.87zm27.12-.03v.96c1.11-1.56 2.64-2.34 4.59-2.34 2.01 0 3.6.69 4.77 2.07s1.77 3.24 1.77 5.61c0 2.55-.63 4.56-1.86 6.06-1.26 1.53-2.94 2.28-5.04 2.28-1.74 0-3.15-.6-4.23-1.83v2.49l.06 1.47c.12.63.42.93.87.93.15 0 .36-.03.63-.09s.48-.09.63-.09c.63 0 .96.33.96.99s-.42.99-1.26.99c-.3 0-.75-.03-1.35-.12-.45-.06-1.11-.09-1.98-.09l-1.2.06-1.59.15c-.33 0-.63-.12-.87-.3-.24-.21-.36-.48-.36-.75 0-.63.33-.96 1.02-.96.12 0 .3.03.57.09a3.08 3.08 0 0 0 .75.12.66.66 0 0 0 .72-.57c.09-.39.12-1.5.15-3.27l.03-11.58c-.03-.93-.27-1.38-.78-1.38-.15 0-.36.03-.63.09a2.53 2.53 0 0 1-.69.12c-.75 0-1.11-.33-1.11-.99 0-.63.45-.96 1.32-.96l.72.03 1.11.06c.18 0 .45-.03.78-.06s.6-.03.75-.03c.51 0 .75.27.75.84zm.45 3.66c-.18.78-.27 1.74-.3 2.85 0 .09 0 .24-.03.45v.42c0 1.35.12 2.31.33 2.91.21.63.66 1.17 1.32 1.65.63.48 1.44.72 2.4.72 1.44 0 2.55-.54 3.36-1.59.78-1.02 1.17-2.52 1.17-4.47 0-3.99-1.41-6-4.26-6-.96 0-1.83.3-2.55.87a3.83 3.83 0 0 0-1.44 2.19z"/><use xlink:href="#D" x="61.44"/><path d="M690.189 5.49c1.35 0 2.46.36 3.36 1.05v-.12c0-.75.33-1.11.96-1.11.66 0 .99.33.99.96 0 .12-.03.42-.06.9a5.43 5.43 0 0 0-.12 1.2c0 .24.03.6.12 1.05l.09 1.05c0 .75-.33 1.14-.99 1.14-.63 0-.96-.33-.99-.96l-.03-.99c-.03-.6-.36-1.11-1.02-1.56-.69-.42-1.47-.63-2.37-.63-.93 0-1.68.24-2.31.69-.63.48-.93 1.08-.93 1.77 0 1.29.87 2.04 2.64 2.28l1.74.24c3.39.45 5.1 1.86 5.1 4.23 0 1.44-.54 2.61-1.65 3.48-1.11.9-2.55 1.35-4.32 1.35-1.65 0-3.09-.48-4.32-1.41.03.21.03.39.03.57 0 .72-.33 1.08-1.02 1.08-.75 0-1.11-.42-1.11-1.23 0 .15.06-.39.18-1.56l.06-.84c0-.48-.03-.93-.12-1.35s-.12-.75-.12-.99c0-.69.33-1.05.96-1.05.42 0 .69.09.81.3.09.21.15.72.18 1.59s.48 1.56 1.35 2.1 2.01.81 3.36.81c.99 0 1.8-.24 2.43-.75s.96-1.14.96-1.89c0-1.35-1.08-2.16-3.24-2.37-2.07-.21-3.63-.63-4.71-1.23-1.08-.57-1.62-1.62-1.62-3.09 0-1.41.54-2.52 1.59-3.42 1.05-.87 2.43-1.29 4.14-1.29z"/><use xlink:href="#E"/><use xlink:href="#F"/><use xlink:href="#E" x="24.6"/><use xlink:href="#G"/><path d="M753.489 6.93v.84c1.2-1.53 2.79-2.28 4.8-2.28 1.08 0 2.1.27 3.06.81.96.57 1.62 1.26 1.95 2.07.27.69.42 1.56.42 2.67v5.7l.03 1.53c.09.69.36 1.02.81 1.02.18 0 .42-.03.72-.09l.6-.06a1 1 0 0 1 .69.27.88.88 0 0 1 .27.66.95.95 0 0 1-.36.75c-.24.21-.54.3-.87.3-.27 0-.75-.03-1.38-.12a12.65 12.65 0 0 0-1.8-.12l-1.29.06-1.59.18c-.81 0-1.2-.36-1.2-1.05 0-.63.33-.93 1.02-.93.15 0 .33.03.54.06.39.09.63.12.72.12.48 0 .75-.54.78-1.65l.06-1.53.03-1.83v-2.28c0-1.05-.06-1.8-.15-2.19-.18-.75-.57-1.35-1.17-1.77a3.91 3.91 0 0 0-2.25-.69c-1.59 0-2.76.57-3.45 1.71-.48.78-.72 2.1-.72 3.99v3.99c0 .87.06 1.47.18 1.8s.33.48.66.48a2.2 2.2 0 0 0 .66-.12 2.22 2.22 0 0 1 .69-.12c.63 0 .93.33.93 1.02 0 .66-.39.99-1.2.99-.15 0-.69-.06-1.56-.18-.45-.06-.93-.09-1.47-.09-.42 0-.99.03-1.68.12l-1.5.15c-.84 0-1.26-.33-1.26-1.02 0-.63.33-.96.96-.96.09 0 .27.03.57.09a3.46 3.46 0 0 0 .78.09c.6 0 .9-.57.93-1.74l.06-3.33v-3.63l-.06-1.05c-.03-.69-.12-1.14-.24-1.41-.15-.24-.36-.36-.69-.36-.15 0-.33.03-.6.06-.27.06-.48.09-.63.09-.72 0-1.08-.33-1.08-.96 0-.66.45-.99 1.35-.99.12 0 .21 0 .3.03l1.11.12c.33 0 .6-.03.84-.06l.81-.06c.57 0 .87.3.87.9zM121.794 17.58l-1.08-2.94c-.12-.33-.24-.51-.36-.6-.15-.09-.42-.12-.81-.12h-5.34c-.39 0-.69.06-.81.21-.15.15-.36.51-.6 1.14l-.87 2.31c-.09.21-.12.42-.12.63 0 .63.39.96 1.17.96.21 0 .48-.03.87-.06l.81-.06c.81 0 1.23.36 1.23 1.05 0 .66-.45.99-1.35.99-.15 0-.39-.03-.66-.06l-1.5-.21c-.27-.03-.75-.06-1.38-.06l-1.47.06-1.26.18c-.57.09-.96.12-1.23.12-.78 0-1.17-.33-1.17-.99 0-.69.39-1.05 1.14-1.05.15 0 .27 0 .36.03h.39c.54 0 .96-.21 1.23-.63.12-.15.33-.63.6-1.41l5.58-15.09c.33-.84.96-1.26 1.89-1.26s1.53.42 1.83 1.26l5.37 14.88c.33.93.66 1.56.93 1.86s.69.45 1.2.45c.15 0 .27 0 .36-.03l.84-.06c.75 0 1.14.33 1.14.96 0 .69-.39 1.02-1.14 1.02-.21 0-.51-.03-.87-.06l-2.82-.21c-.75 0-1.95.09-3.6.24l-.96.06c-.81 0-1.2-.33-1.2-1.02s.45-1.02 1.32-1.02c.18 0 .45.03.81.06l.78.06c.66 0 .99-.27.99-.81 0-.09-.09-.33-.24-.78zm-2.16-6.12l-2.7-8.28-2.76 8.28-.06.21c0 .18.15.27.45.27h4.77c.24 0 .36-.09.36-.24 0-.03-.03-.12-.06-.24z"/><use xlink:href="#H"/><path d="M151.974 6.84v.81c1.05-1.47 2.43-2.19 4.17-2.19 1.41 0 2.52.39 3.42 1.17.84.81 1.29 1.83 1.29 3.06 0 .87-.21 1.59-.66 2.13a2.09 2.09 0 0 1-1.74.84c-.45 0-.84-.15-1.17-.42s-.48-.63-.48-1.02c0-.33.12-.6.36-.87.24-.24.51-.36.84-.36.06 0 .18.03.39.09.12-.24.18-.45.18-.66 0-.57-.24-1.08-.75-1.47s-1.17-.6-1.92-.6c-1.56 0-2.61.69-3.12 2.1-.33.87-.48 2.16-.48 3.9v1.98l.03 2.25c.09 1.14.42 1.71.93 1.71.27 0 .54-.03.81-.12.21-.06.42-.09.57-.09.63 0 .96.33.96.96 0 .69-.42 1.05-1.23 1.05h-.12c-.3 0-.75-.03-1.35-.09-.63-.09-1.08-.12-1.38-.12l-1.89.06-1.68.15c-.81 0-1.23-.36-1.23-1.05 0-.63.39-.93 1.14-.93.21 0 .36 0 .45.03l.45.09.42.06c.51 0 .78-.45.81-1.38l.06-1.53-.09-6.81c-.06-1.17-.36-1.77-.9-1.77a3.36 3.36 0 0 0-.66.09 3.36 3.36 0 0 1-.66.09c-.66 0-.99-.33-.99-.96 0-.69.42-1.05 1.29-1.05.21 0 .51.03.9.06a6.38 6.38 0 0 0 .9.09c.15 0 .42-.03.78-.06.15-.03.36-.06.57-.06.51 0 .78.27.78.84zm23.82 5.31c0 .75-.06 1.23-.15 1.38-.09.18-.39.27-.87.27h-9.54c-.27 0-.42.03-.51.09-.09.09-.12.21-.12.36 0 1.5.45 2.76 1.35 3.75a4.35 4.35 0 0 0 3.36 1.5c.87 0 1.68-.24 2.43-.72.72-.48 1.2-1.08 1.41-1.83l.27-.87c.15-.48.48-.72.99-.72.75 0 1.11.39 1.11 1.14 0 1.29-.66 2.46-1.98 3.45-1.32 1.02-2.82 1.53-4.5 1.53-2.1 0-3.78-.69-5.01-2.13-1.23-1.38-1.86-3.3-1.86-5.67 0-2.43.66-4.41 1.98-5.94s3.03-2.28 5.16-2.28c1.89 0 3.42.63 4.65 1.89s1.83 2.85 1.83 4.8zm-10.89-.78c0 .27.21.42.66.42h7.17c.42 0 .63-.15.63-.42 0-1.05-.39-1.98-1.2-2.76s-1.74-1.17-2.82-1.17c-1.11 0-2.13.39-3.06 1.2s-1.38 1.74-1.38 2.73z"/><use xlink:href="#H" x="47.7"/><path d="M206.934 21.36c-1.65 0-2.64-.72-3.03-2.13-1.02 1.5-2.61 2.25-4.8 2.25-1.62 0-2.91-.39-3.87-1.2-.99-.81-1.47-1.86-1.47-3.21 0-1.65.72-2.88 2.13-3.66.54-.3.99-.51 1.41-.6.39-.09 1.17-.18 2.34-.33 1.68-.18 2.79-.42 3.3-.75s.75-.9.75-1.77c0-.81-.27-1.47-.84-1.95-.57-.45-1.38-.69-2.4-.69-.9 0-1.74.24-2.52.75-.3.21-.45.42-.45.63 0 .09.09.18.27.3.27.21.42.54.42 1.02a1.36 1.36 0 0 1-.42.99c-.3.27-.66.39-1.11.39-.51 0-.96-.18-1.29-.54a1.81 1.81 0 0 1-.54-1.32c0-1.11.57-2.07 1.68-2.88s2.43-1.2 4.02-1.2c3.63 0 5.46 1.74 5.46 5.25v6.06l.06 1.71c.12.69.45 1.05 1.02 1.05.69 0 1.05-.63 1.05-1.92v-1.47c0-.63.3-.96.93-.96.66 0 .99.48.99 1.44v.15l-.03 1.71c-.03 1.92-1.05 2.88-3.06 2.88zm-3.33-5.97l.03-2.13c-.45.39-.9.69-1.38.84-.51.15-1.38.3-2.64.42-2.28.21-3.42 1.05-3.42 2.52 0 .75.27 1.35.84 1.8.54.45 1.29.66 2.22.66 1.35 0 2.4-.36 3.18-1.11.75-.72 1.14-1.71 1.17-3z"/><use xlink:href="#F" x="-496.965" y="-0.03"/><path d="M231.114 12.27v3.9l.03 1.77c.09.9.36 1.35.81 1.35.09 0 .36-.06.75-.15.09-.03.24-.06.45-.06.75 0 1.14.33 1.14.99 0 .27-.12.51-.36.72-.27.21-.57.3-.96.3-.33 0-.81-.03-1.44-.15-.66-.09-1.14-.12-1.47-.12-.51 0-1.11.03-1.74.12l-1.56.15c-.81 0-1.2-.33-1.2-1.02 0-.66.33-.99 1.02-.99.15 0 .39.03.72.09.3.06.54.09.69.09.48 0 .78-.63.87-1.92V9.66c-.09-1.26-.39-1.89-.9-1.89a3.36 3.36 0 0 0-.66.09c-.3.09-.51.12-.66.12-.72 0-1.08-.33-1.08-.96 0-.69.45-1.02 1.32-1.02l.81.03 1.23.12c.15 0 .39-.03.75-.09l.72-.06c.57 0 .87.39.87 1.17 0 .09-.06.63-.06.72-.03.15-.03.78-.06 1.86l-.03 2.52zm-1.56-7.86c-.45 0-.84-.18-1.17-.51-.36-.33-.51-.72-.51-1.17s.15-.84.51-1.17c.33-.33.72-.48 1.17-.48s.87.15 1.2.48.48.72.48 1.17-.15.84-.48 1.17-.75.51-1.2.51z"/><use xlink:href="#G" x="-496.965" y="-0.03"/><path d="M256.524 6.9v.84c1.2-1.53 2.79-2.28 4.8-2.28 1.08 0 2.1.27 3.06.81.96.57 1.62 1.26 1.95 2.07.27.69.42 1.56.42 2.67v5.7l.03 1.53c.09.69.36 1.02.81 1.02.18 0 .42-.03.72-.09l.6-.06a1 1 0 0 1 .69.27.88.88 0 0 1 .27.66.95.95 0 0 1-.36.75c-.24.21-.54.3-.87.3-.27 0-.75-.03-1.38-.12a12.65 12.65 0 0 0-1.8-.12l-1.29.06-1.59.18c-.81 0-1.2-.36-1.2-1.05 0-.63.33-.93 1.02-.93.15 0 .33.03.54.06.39.09.63.12.72.12.48 0 .75-.54.78-1.65l.06-1.53.03-1.83V12c0-1.05-.06-1.8-.15-2.19-.18-.75-.57-1.35-1.17-1.77a3.91 3.91 0 0 0-2.25-.69c-1.59 0-2.76.57-3.45 1.71-.48.78-.72 2.1-.72 3.99v3.99c0 .87.06 1.47.18 1.8s.33.48.66.48a2.2 2.2 0 0 0 .66-.12 2.22 2.22 0 0 1 .69-.12c.63 0 .93.33.93 1.02 0 .66-.39.99-1.2.99-.15 0-.69-.06-1.56-.18-.45-.06-.93-.09-1.47-.09-.42 0-.99.03-1.68.12l-1.5.15c-.84 0-1.26-.33-1.26-1.02 0-.63.33-.96.96-.96.09 0 .27.03.57.09a3.46 3.46 0 0 0 .78.09c.6 0 .9-.57.93-1.74l.06-3.33v-3.63l-.06-1.05c-.03-.69-.12-1.14-.24-1.41-.15-.24-.36-.36-.69-.36-.15 0-.33.03-.6.06-.27.06-.48.09-.63.09-.72 0-1.08-.33-1.08-.96 0-.66.45-.99 1.35-.99.12 0 .21 0 .3.03l1.11.12c.33 0 .6-.03.84-.06l.81-.06c.57 0 .87.3.87.9z"/></g><defs ><path id="B" d="M1017.096 705.706v54.297c0 12.851 10.42 23.273 23.273 23.273s23.273-10.422 23.273-23.273v-54.297h-46.546z"/><path id="C" d="M1125.708 643.64h54.295c12.853 0 23.273-10.422 23.273-23.273s-10.42-23.273-23.273-23.273h-54.295v46.546z"/><path id="D" d="M612.939 21.51c-2.1 0-3.78-.72-5.04-2.19-1.26-1.44-1.89-3.39-1.89-5.82s.63-4.38 1.92-5.85c1.26-1.44 2.97-2.16 5.1-2.16 2.19 0 3.9.72 5.16 2.13s1.89 3.36 1.89 5.79-.66 4.41-1.95 5.88-3.03 2.22-5.19 2.22zm.15-14.04c-1.41 0-2.49.48-3.3 1.47s-1.23 2.37-1.32 4.17v.39c0 1.89.39 3.36 1.2 4.41.78 1.08 1.89 1.62 3.3 1.62 1.47 0 2.61-.54 3.45-1.62.81-1.05 1.23-2.55 1.23-4.44 0-3.99-1.53-6-4.56-6z"/><path id="E" d="M703.479 12.3v3.9l.03 1.77c.09.9.36 1.35.81 1.35.09 0 .36-.06.75-.15.09-.03.24-.06.45-.06.75 0 1.14.33 1.14.99 0 .27-.12.51-.36.72-.27.21-.57.3-.96.3-.33 0-.81-.03-1.44-.15-.66-.09-1.14-.12-1.47-.12-.51 0-1.11.03-1.74.12l-1.56.15c-.81 0-1.2-.33-1.2-1.02 0-.66.33-.99 1.02-.99.15 0 .39.03.72.09.3.06.54.09.69.09.48 0 .78-.63.87-1.92V9.69c-.09-1.26-.39-1.89-.9-1.89a3.36 3.36 0 0 0-.66.09c-.3.09-.51.12-.66.12-.72 0-1.08-.33-1.08-.96 0-.69.45-1.02 1.32-1.02l.81.03 1.23.12c.15 0 .39-.03.75-.09l.72-.06c.57 0 .87.39.87 1.17 0 .09-.06.63-.06.72-.03.15-.03.78-.06 1.86l-.03 2.52zm-1.56-7.86c-.45 0-.84-.18-1.17-.51-.36-.33-.51-.72-.51-1.17s.15-.84.51-1.17c.33-.33.72-.48 1.17-.48s.87.15 1.2.48.48.72.48 1.17-.15.84-.48 1.17-.75.51-1.2.51z"/><path id="F" d="M716.649 11.1c0-.81.51-1.26 1.5-1.38-.09-.69-.42-1.26-.99-1.65s-1.32-.6-2.22-.6c-1.38 0-2.49.54-3.33 1.65s-1.26 2.55-1.26 4.38c0 1.89.39 3.36 1.2 4.41.78 1.08 1.86 1.62 3.27 1.62.87 0 1.65-.24 2.31-.75.63-.51 1.08-1.2 1.32-2.07l.36-1.2c.21-.39.54-.6.96-.6.33 0 .63.12.84.33s.33.51.33.84c0 .51-.15 1.11-.48 1.8s-.69 1.29-1.14 1.74c-1.17 1.26-2.7 1.89-4.59 1.89-2.04 0-3.69-.72-4.92-2.16-1.26-1.44-1.89-3.33-1.89-5.67 0-2.49.66-4.47 1.95-5.97 1.29-1.47 3-2.22 5.13-2.22 1.59 0 2.94.42 3.99 1.29 1.05.9 1.59 1.98 1.59 3.33 0 .75-.21 1.35-.6 1.83-.42.48-.96.72-1.59.72-.51 0-.9-.15-1.23-.45-.36-.3-.51-.66-.51-1.11z"/><path id="G" d="M739.419 21.51c-2.1 0-3.78-.72-5.04-2.19-1.26-1.44-1.89-3.39-1.89-5.82s.63-4.38 1.92-5.85c1.26-1.44 2.97-2.16 5.1-2.16 2.19 0 3.9.72 5.16 2.13s1.89 3.36 1.89 5.79-.66 4.41-1.95 5.88-3.03 2.22-5.19 2.22zm3.36-20.46c0 .51-.36.9-1.05 1.2l-4.26 1.86-.42.09c-.39 0-.6-.24-.6-.72 0-.27.21-.51.6-.78l3.78-2.37c.33-.21.63-.3.93-.3.69 0 1.02.33 1.02 1.02zm-3.21 6.42c-1.41 0-2.49.48-3.3 1.47s-1.23 2.37-1.32 4.17v.39c0 1.89.39 3.36 1.2 4.41.78 1.08 1.89 1.62 3.3 1.62 1.47 0 2.61-.54 3.45-1.62.81-1.05 1.23-2.55 1.23-4.44 0-3.99-1.53-6-4.56-6z"/><path id="H" d="M137.424 5.46c.51 0 1.11.09 1.77.24.09-1.95 1.23-2.94 3.42-2.94.93 0 1.68.24 2.31.72s.93 1.08.93 1.83c0 .48-.15.9-.45 1.23-.33.33-.69.51-1.11.51a1.23 1.23 0 0 1-.84-.33 1.01 1.01 0 0 1-.36-.78c0-.33.21-.66.66-.99-.33-.39-.72-.6-1.23-.6-1.05 0-1.59.66-1.62 1.98 1.53 1.02 2.28 2.4 2.28 4.11 0 1.38-.51 2.52-1.56 3.45s-2.34 1.38-3.9 1.38c-1.11 0-2.25-.27-3.42-.78-.33-.15-.6-.21-.81-.21-.27 0-.54.12-.75.36-.21.27-.33.57-.33.9 0 1.05 1.05 1.56 3.15 1.56h.18c.15 0 .33 0 .54-.03h.36c1.89 0 3.45.18 4.62.54 1.11.33 1.98.87 2.61 1.59s.96 1.53.96 2.43c0 1.47-.66 2.61-2.01 3.48-1.35.84-3.18 1.26-5.49 1.26s-4.11-.39-5.4-1.2c-1.32-.81-1.98-1.89-1.98-3.3 0-1.62.9-2.76 2.73-3.45-1.62-.63-2.43-1.59-2.43-2.88 0-1.41.81-2.37 2.43-2.88-.51-.69-.78-1.53-.78-2.46 0-1.35.54-2.49 1.59-3.39s2.34-1.35 3.93-1.35zm.09 1.98c-.87 0-1.62.27-2.25.78s-.96 1.17-1.02 1.95v.18c0 .87.3 1.59.9 2.13s1.38.81 2.34.81c.99 0 1.83-.27 2.46-.81s.93-1.23.93-2.07c0-.87-.33-1.56-.96-2.13s-1.44-.84-2.4-.84zm.03 11.64c-1.59 0-2.85.24-3.78.72s-1.38 1.14-1.38 1.95.45 1.47 1.35 1.95c.9.45 2.1.69 3.63.69 1.59 0 2.88-.24 3.81-.72s1.38-1.11 1.38-1.92c0-.84-.45-1.5-1.32-1.98-.87-.45-2.1-.69-3.69-.69z"/></defs></svg>