<?xml version="1.0" encoding="UTF-8" standalone="no"?>
<!DOCTYPE svg PUBLIC "-//W3C//DTD SVG 1.1//EN" "http://www.w3.org/Graphics/SVG/1.1/DTD/svg11.dtd">
<svg width="865px" height="271px" version="1.1" xmlns="http://www.w3.org/2000/svg" xmlns:xlink="http://www.w3.org/1999/xlink" xml:space="preserve" xmlns:serif="http://www.serif.com/" style="fill-rule:evenodd;clip-rule:evenodd;stroke-linejoin:round;stroke-miterlimit:2;">
    <g transform="matrix(1,0,0,1,-604,-269.927)">
        <g transform="matrix(1,0,0,1,719,-267)">
            <rect x="374" y="578" width="375.739" height="229" style="fill:rgb(232,232,232);"/>
        </g>
        <g transform="matrix(1,0,0,1,230,-267)">
            <rect x="374" y="578" width="375.739" height="229" style="fill:rgb(232,232,232);"/>
        </g>
        <g transform="matrix(0.223507,0,0,0.223507,527.744,315.199)">
            <g transform="matrix(1,0,0,1,490.092,205.708)">
                <rect x="164.864" y="306.816" width="34.496" height="308.544" style="fill:rgb(199,210,215);fill-rule:nonzero;"/>
            </g>
            <g transform="matrix(1,0,0,1,490.092,205.708)">
                <rect x="27.776" y="443.776" width="308.544" height="34.624" style="fill:rgb(199,210,215);fill-rule:nonzero;"/>
            </g>
            <g transform="matrix(1,0,0,1,490.092,205.708)">
                <path d="M60.928,364.16L85.312,339.84L303.36,558.08L278.912,582.4L60.928,364.16Z" style="fill:rgb(199,210,215);fill-rule:nonzero;"/>
            </g>
            <g transform="matrix(1,0,0,1,490.092,205.708)">
                <path d="M85.312,582.528L60.928,558.208L278.784,339.648L303.232,364.032L85.312,582.528Z" style="fill:rgb(199,210,215);fill-rule:nonzero;"/>
            </g>
            <g transform="matrix(1,0,0,1,490.092,205.708)">
                <path d="M182.08,643.136C82.258,643.031 0.14,560.942 0,461.12C0,360.704 81.664,279.04 182.08,279.04C282.496,279.04 364.16,360.64 364.16,461.12C364.02,560.942 281.902,643.031 182.08,643.136ZM182.08,317.696C103.464,317.836 38.825,382.504 38.72,461.12C38.72,540.096 103.04,604.352 182.08,604.352C261.12,604.352 325.44,540.096 325.44,461.12C325.335,382.504 260.696,317.836 182.08,317.696Z" style="fill:rgb(72,109,125);fill-rule:nonzero;"/>
            </g>
            <g transform="matrix(1,0,0,1,490.092,205.708)">
                <rect x="715.072" y="306.816" width="34.56" height="308.544" style="fill:rgb(199,210,215);fill-rule:nonzero;"/>
            </g>
            <g transform="matrix(1,0,0,1,490.092,205.708)">
                <rect x="578.112" y="443.776" width="308.48" height="34.624" style="fill:rgb(199,210,215);fill-rule:nonzero;"/>
            </g>
            <g transform="matrix(1,0,0,1,490.092,205.708)">
                <path d="M611.2,364.096L635.584,339.776L853.504,558.208L829.056,582.528L611.2,364.096Z" style="fill:rgb(199,210,215);fill-rule:nonzero;"/>
            </g>
            <g transform="matrix(1,0,0,1,490.092,205.708)">
                <path d="M635.584,582.592L611.136,558.272L828.864,339.648L853.312,363.968L635.584,582.592Z" style="fill:rgb(199,210,215);fill-rule:nonzero;"/>
            </g>
            <g transform="matrix(1,0,0,1,490.092,205.708)">
                <path d="M732.352,643.136C632.506,643.066 550.348,560.966 550.208,461.12C550.313,361.249 632.481,279.11 732.352,279.04C832.174,279.18 914.263,361.298 914.368,461.12C914.263,560.931 832.163,643.031 732.352,643.136ZM732.352,317.696C653.712,317.801 589.033,382.48 588.928,461.12C589.103,539.701 653.771,604.282 732.352,604.352C810.922,604.282 875.572,539.69 875.712,461.12C875.607,382.504 810.968,317.836 732.352,317.696Z" style="fill:rgb(72,109,125);fill-rule:nonzero;"/>
            </g>
            <g transform="matrix(1,0,0,1,490.092,205.708)">
                <path d="M284.864,127.296L320.384,114.176L464.064,503.04L428.48,516.16L284.864,127.296Z" style="fill:rgb(240,0,61);fill-rule:nonzero;"/>
            </g>
            <g transform="matrix(1,0,0,1,490.092,205.708)">
                <path d="M170.304,472.256L203.392,490.624L345.344,224.576L312.192,206.272L170.304,472.256ZM441.856,465.28L476.16,482.88L634.112,207.936L599.744,190.336L441.856,465.28Z" style="fill:rgb(240,0,61);fill-rule:nonzero;"/>
            </g>
            <g transform="matrix(1,0,0,1,490.092,205.708)">
                <path d="M757.184,498.176L722.048,512.256L532.928,40.128L580.416,45.056L757.184,498.176Z" style="fill:rgb(240,0,61);fill-rule:nonzero;"/>
            </g>
            <g transform="matrix(1,0,0,1,490.092,205.708)">
                <rect x="328.832" y="166.72" width="291.008" height="37.824" style="fill:rgb(240,0,61);fill-rule:nonzero;"/>
            </g>
            <g transform="matrix(1,0,0,1,490.092,205.708)">
                <path d="M625.92,83.136L624.768,83.136L560.128,79.488L535.087,40.352L626.368,42.56C636.16,42.24 666.56,38.272 666.56,-0L707.2,-0C707.2,60.992 658.56,83.136 625.92,83.136Z" style="fill:rgb(240,0,61);fill-rule:nonzero;"/>
            </g>
            <g transform="matrix(1,0,0,1,490.092,205.708)">
                <path d="M643.456,80.704L639.296,40.32C645.696,39.552 666.624,34.176 666.624,-0L707.264,-0C707.2,59.072 665.472,78.656 643.456,80.704Z" style="fill:rgb(58,67,83);fill-rule:nonzero;"/>
            </g>
            <g transform="matrix(1,0,0,1,490.092,205.708)">
                <path d="M375.552,51.968L254.912,76.864C236.928,80.704 225.472,99.264 229.504,118.464C233.472,137.664 241.344,152.256 269.312,146.432L271.488,144.832C282.24,143.04 299.904,132.672 317.312,116.672C325.312,109.248 332.16,101.824 337.6,94.848L339.84,93.056C357.888,89.344 414.912,85.248 414.592,75.648L413.76,71.488C412.736,65.472 408,45.184 375.552,51.968Z" style="fill:rgb(122,0,60);fill-rule:nonzero;"/>
            </g>
            <g transform="matrix(1,0,0,1,490.092,205.708)">
                <path d="M516.224,497.664C516.224,535.936 481.024,558.912 437.696,558.912L234.88,516.16C190.464,503.424 156.288,498.304 156.288,453.76L156.288,470.016C156.288,431.616 184,428.288 227.328,428.288L437.696,428.288C481.024,428.288 516.224,459.264 516.224,497.664Z" style="fill:rgb(162,0,65);fill-rule:nonzero;"/>
            </g>
        </g>
        <g transform="matrix(0.161937,0,0,0.161937,877.253,389.118)">
            <g>
                <g transform="matrix(0.7071,0.7071,-0.7071,0.7071,205.866,-49.9212)">
                    <rect x="138.721" y="169.156" width="48.948" height="106.044" style="fill:rgb(0,131,53);"/>
                </g>
                <path d="M479.742,117.82C479.742,57.394 430.757,8.409 370.331,8.409L350.941,27.724L462.859,132.343L479.742,117.82Z" style="fill:rgb(211,210,212);fill-rule:nonzero;"/>
                <path d="M268.55,126.802L361.349,219.601C361.349,219.601 408.933,189.62 424.049,178.55C440.738,166.328 488.151,126.229 488.151,126.229L361.922,0C361.922,0 321.823,47.413 309.601,64.102C298.531,79.217 268.55,126.802 268.55,126.802Z" style="fill:rgb(63,203,128);fill-rule:nonzero;"/>
                <g transform="matrix(0.7071,0.7071,-0.7071,0.7071,271.285,-37.293)">
                    <rect x="115.063" y="117.569" width="131.197" height="379.785" style="fill:rgb(63,203,128);"/>
                </g>
                <g transform="matrix(-0.7071,-0.7071,0.7071,-0.7071,-196.884,773.786)">
                    <rect x="-3.782" y="404.486" width="131.197" height="43.64" style="fill:rgb(0,131,53);"/>
                </g>
                <path d="M309.601,64.073C307.221,67.323 303.966,72.075 300.323,77.531L410.59,187.798C416.046,184.156 420.798,180.9 424.048,178.52C429.705,174.377 438.895,167.029 448.57,159.126L328.995,39.551C321.092,49.226 313.744,58.416 309.601,64.073Z" style="fill:rgb(0,131,53);fill-rule:nonzero;"/>
                <path d="M482.439,117.82C482.439,64.587 444.419,20.241 394.054,10.435C415.547,30.413 428.998,58.926 428.998,90.584L437.407,98.993C437.407,98.993 389.994,139.092 373.305,151.314C358.189,162.384 310.605,192.365 310.605,192.365L310.577,192.337L55.131,447.782L95.469,488.12L364.017,219.572L364.045,219.6C364.045,219.6 411.629,189.619 426.745,178.549C443.434,166.327 490.847,126.228 490.847,126.228L482.439,117.82Z" style="fill:rgb(9,68,54);fill-opacity:0.13;fill-rule:nonzero;"/>
            </g>
        </g>
        <g transform="matrix(0.31024,0,0,0.31024,908.962,261.918)">
            <g transform="matrix(1,0,0,1,707.48,271.276)">
                <rect x="123.188" y="0" width="233.2" height="512" style="fill:rgb(33,33,33);"/>
            </g>
            <g transform="matrix(1,0,0,1,707.48,271.276)">
                <rect x="162.852" y="88.352" width="40.816" height="15.312" style="fill:white;"/>
            </g>
            <g transform="matrix(1,0,0,1,707.48,271.276)">
                <rect x="162.852" y="58.976" width="154.288" height="15.312" style="fill:rgb(0,155,226);"/>
            </g>
            <g transform="matrix(1,0,0,1,707.48,271.276)">
                <rect x="219.38" y="88.352" width="40.816" height="15.312" style="fill:rgb(208,208,208);"/>
            </g>
            <g transform="matrix(1,0,0,1,707.48,271.276)">
                <rect x="219.38" y="441.68" width="40.816" height="15.312" style="fill:rgb(0,155,226);"/>
            </g>
            <g transform="matrix(1,0,0,1,707.48,271.276)">
                <rect x="275.908" y="88.352" width="40.816" height="15.312" style="fill:white;"/>
            </g>
        </g>
        <g transform="matrix(0.180773,0,0,0.180773,1183.5,330.183)">
            <g transform="matrix(1,0,0,1,691.276,271.276)">
                <path d="M411.159,77.556L100.854,77.556C93.624,77.556 87.165,80.853 82.895,86.024C80.997,88.323 79.533,90.992 78.627,93.907C77.947,96.093 77.581,98.417 77.581,100.827L77.581,411.16C77.581,424.011 88.001,434.433 100.854,434.433L411.16,434.433C424.013,434.433 434.433,424.011 434.433,411.16L434.433,100.829C434.432,87.976 424.012,77.556 411.159,77.556Z" style="fill:rgb(255,0,75);fill-rule:nonzero;"/>
            </g>
            <g transform="matrix(1,0,0,1,691.276,271.276)">
                <path d="M186.194,77.556L186.194,23.273C186.194,10.42 175.774,0 162.922,0C150.069,0 139.649,10.42 139.649,23.273L139.649,77.556L186.194,77.556Z" style="fill:rgb(255,150,0);fill-rule:nonzero;"/>
                <path d="M372.365,77.556L372.365,23.273C372.365,10.42 361.945,0 349.092,0C336.239,0 325.82,10.42 325.82,23.273L325.82,77.556L372.365,77.556Z" style="fill:rgb(255,150,0);fill-rule:nonzero;"/>
                <path d="M279.284,77.556L279.284,23.273C279.284,10.42 268.864,0 256.011,0C243.158,0 232.738,10.42 232.738,23.273L232.738,77.556L279.284,77.556Z" style="fill:rgb(255,150,0);fill-rule:nonzero;"/>
                <path d="M325.82,434.43L325.82,488.727C325.82,501.578 336.24,512 349.093,512C361.946,512 372.366,501.578 372.366,488.727L372.366,434.43L325.82,434.43Z" style="fill:rgb(255,150,0);fill-rule:nonzero;"/>
                <path d="M139.649,434.43L139.649,488.727C139.649,501.578 150.069,512 162.922,512C175.775,512 186.195,501.578 186.195,488.727L186.195,434.43L139.649,434.43Z" style="fill:rgb(255,150,0);fill-rule:nonzero;"/>
                <path d="M232.738,434.43L232.738,488.727C232.738,501.578 243.158,512 256.011,512C268.864,512 279.284,501.578 279.284,488.727L279.284,434.43L232.738,434.43Z" style="fill:rgb(255,150,0);fill-rule:nonzero;"/>
                <path d="M434.432,186.182L488.727,186.182C501.58,186.182 512,175.762 512,162.909C512,150.056 501.58,139.636 488.727,139.636L434.432,139.636L434.432,186.182Z" style="fill:rgb(255,150,0);fill-rule:nonzero;"/>
                <path d="M434.432,372.364L488.727,372.364C501.58,372.364 512,361.942 512,349.091C512,336.237 501.58,325.818 488.727,325.818L434.432,325.818L434.432,372.364Z" style="fill:rgb(255,150,0);fill-rule:nonzero;"/>
                <path d="M434.432,279.267L488.727,279.267C501.58,279.267 512,268.845 512,255.994C512,243.14 501.58,232.721 488.727,232.721L434.432,232.721L434.432,279.267Z" style="fill:rgb(255,150,0);fill-rule:nonzero;"/>
                <path d="M77.582,325.818L23.273,325.818C10.42,325.818 0,336.237 0,349.091C0,361.942 10.42,372.364 23.273,372.364L77.582,372.364L77.582,325.818Z" style="fill:rgb(255,150,0);fill-rule:nonzero;"/>
                <path d="M77.582,139.636L23.273,139.636C10.42,139.636 0,150.056 0,162.909C0,175.762 10.42,186.182 23.273,186.182L77.582,186.182L77.582,139.636Z" style="fill:rgb(255,150,0);fill-rule:nonzero;"/>
                <path d="M77.582,232.721L23.273,232.721C10.42,232.721 0,243.139 0,255.994C0,268.845 10.42,279.267 23.273,279.267L77.582,279.267L77.582,232.721Z" style="fill:rgb(255,150,0);fill-rule:nonzero;"/>
            </g>
            <g transform="matrix(1,0,0,1,691.276,271.276)">
                <path d="M77.582,349.091L77.582,411.158C77.582,424.009 88.002,434.431 100.855,434.431L256.012,434.431L256.012,341.334L193.953,341.334C181.1,341.334 170.68,330.912 170.68,318.061L170.68,193.939C170.68,181.086 181.1,170.666 193.953,170.666L256.012,170.666L256.012,77.556L100.855,77.556C88.002,77.556 77.582,87.976 77.582,100.829L77.582,325.82C77.582,325.818 77.582,349.091 77.582,349.091Z" style="fill:rgb(225,0,28);fill-rule:nonzero;"/>
            </g>
            <g transform="matrix(1,0,0,1,691.276,271.276)">
                <path d="M318.062,170.667L193.952,170.667C181.099,170.667 170.679,181.087 170.679,193.94L170.679,318.061C170.679,330.912 181.099,341.334 193.952,341.334L318.062,341.334C330.915,341.334 341.335,330.912 341.335,318.061L341.335,193.939C341.335,181.087 330.915,170.667 318.062,170.667Z" style="fill:rgb(162,160,168);fill-rule:nonzero;"/>
            </g>
            <g transform="matrix(1,0,0,1,691.276,271.276)">
                <path d="M193.952,170.667C181.099,170.667 170.679,181.087 170.679,193.94L170.679,318.061C170.679,330.912 181.099,341.334 193.952,341.334L256,341.334L256,170.667L193.952,170.667Z" style="fill:rgb(123,122,132);fill-rule:nonzero;"/>
            </g>
        </g>
        <g transform="matrix(0.576725,0,0,0.576725,865.831,-107.013)">
            <g transform="matrix(52.0178,0,0,52.0178,561.668,690)">
                <path d="M0.338,-0.689C0.412,-0.689 0.472,-0.661 0.519,-0.604L0.518,-0.615L0.518,-0.626C0.517,-0.63 0.517,-0.632 0.517,-0.633C0.516,-0.648 0.515,-0.654 0.515,-0.653C0.515,-0.676 0.526,-0.687 0.547,-0.687C0.57,-0.687 0.581,-0.673 0.581,-0.645C0.581,-0.64 0.58,-0.624 0.577,-0.597C0.574,-0.564 0.572,-0.541 0.572,-0.528C0.572,-0.51 0.573,-0.492 0.575,-0.473L0.579,-0.435L0.579,-0.425C0.579,-0.395 0.567,-0.38 0.543,-0.38C0.517,-0.38 0.504,-0.394 0.505,-0.423L0.506,-0.459C0.507,-0.507 0.492,-0.546 0.461,-0.576C0.43,-0.606 0.389,-0.621 0.338,-0.621C0.272,-0.621 0.22,-0.596 0.183,-0.545C0.146,-0.494 0.127,-0.424 0.127,-0.335C0.127,-0.244 0.146,-0.173 0.185,-0.122C0.223,-0.07 0.276,-0.045 0.345,-0.045C0.382,-0.045 0.416,-0.054 0.446,-0.072C0.475,-0.09 0.496,-0.114 0.508,-0.143C0.516,-0.162 0.52,-0.188 0.52,-0.221C0.52,-0.252 0.533,-0.267 0.558,-0.267C0.585,-0.267 0.599,-0.252 0.599,-0.221C0.599,-0.15 0.574,-0.091 0.525,-0.046C0.476,-0.001 0.412,0.022 0.334,0.022C0.244,0.022 0.172,-0.01 0.119,-0.073C0.065,-0.136 0.038,-0.221 0.038,-0.326C0.038,-0.435 0.066,-0.522 0.121,-0.589C0.175,-0.656 0.248,-0.689 0.338,-0.689Z" style="fill-rule:nonzero;"/>
            </g>
            <g transform="matrix(52.0178,0,0,52.0178,594.804,690)">
                <path d="M0.269,0.017C0.199,0.017 0.143,-0.007 0.101,-0.056C0.059,-0.104 0.038,-0.169 0.038,-0.25C0.038,-0.331 0.059,-0.396 0.102,-0.445C0.144,-0.493 0.201,-0.517 0.272,-0.517C0.345,-0.517 0.402,-0.493 0.444,-0.446C0.486,-0.399 0.507,-0.334 0.507,-0.253C0.507,-0.172 0.485,-0.106 0.442,-0.057C0.399,-0.008 0.341,0.017 0.269,0.017ZM0.274,-0.451C0.227,-0.451 0.191,-0.435 0.164,-0.402C0.137,-0.369 0.123,-0.323 0.12,-0.263L0.12,-0.25C0.12,-0.187 0.133,-0.138 0.16,-0.103C0.186,-0.067 0.223,-0.049 0.27,-0.049C0.319,-0.049 0.357,-0.067 0.385,-0.103C0.412,-0.138 0.426,-0.188 0.426,-0.251C0.426,-0.384 0.375,-0.451 0.274,-0.451Z" style="fill-rule:nonzero;"/>
            </g>
            <g transform="matrix(52.0178,0,0,52.0178,623.205,690)">
                <path d="M0.189,-0.47L0.189,-0.441C0.213,-0.47 0.236,-0.49 0.257,-0.501C0.278,-0.511 0.305,-0.517 0.337,-0.517C0.402,-0.517 0.45,-0.492 0.481,-0.441C0.504,-0.469 0.527,-0.489 0.55,-0.5C0.573,-0.511 0.603,-0.517 0.64,-0.517C0.678,-0.517 0.712,-0.509 0.742,-0.493C0.775,-0.475 0.798,-0.45 0.811,-0.417C0.82,-0.395 0.824,-0.36 0.824,-0.313L0.824,-0.216L0.823,-0.141C0.823,-0.114 0.823,-0.097 0.824,-0.091C0.827,-0.067 0.836,-0.055 0.85,-0.055C0.855,-0.055 0.862,-0.056 0.871,-0.058C0.88,-0.06 0.887,-0.061 0.892,-0.061C0.915,-0.061 0.927,-0.051 0.927,-0.031C0.927,-0.008 0.914,0.004 0.887,0.004C0.877,0.004 0.862,0.003 0.842,0.001C0.821,-0.002 0.806,-0.003 0.795,-0.003C0.784,-0.003 0.767,-0.002 0.746,0.001C0.724,0.003 0.707,0.004 0.696,0.004C0.668,0.004 0.654,-0.008 0.654,-0.031C0.654,-0.051 0.665,-0.061 0.686,-0.061C0.689,-0.061 0.695,-0.06 0.706,-0.059C0.71,-0.058 0.715,-0.057 0.722,-0.057C0.733,-0.057 0.74,-0.063 0.744,-0.074C0.747,-0.085 0.748,-0.114 0.749,-0.159L0.75,-0.22L0.75,-0.286C0.75,-0.332 0.747,-0.366 0.74,-0.387C0.732,-0.407 0.719,-0.424 0.7,-0.436C0.681,-0.448 0.659,-0.454 0.634,-0.454C0.587,-0.454 0.554,-0.438 0.535,-0.405C0.52,-0.379 0.513,-0.334 0.513,-0.269L0.513,-0.198C0.513,-0.135 0.515,-0.096 0.518,-0.081C0.521,-0.065 0.528,-0.057 0.541,-0.057C0.545,-0.057 0.551,-0.058 0.559,-0.06C0.566,-0.061 0.572,-0.062 0.576,-0.062C0.585,-0.062 0.593,-0.059 0.6,-0.053C0.606,-0.046 0.609,-0.038 0.609,-0.029C0.609,-0.007 0.593,0.004 0.562,0.004C0.552,0.004 0.537,0.003 0.518,-0C0.498,-0.003 0.483,-0.004 0.473,-0.004C0.459,-0.004 0.444,-0.003 0.427,-0C0.41,0.003 0.396,0.004 0.383,0.004C0.356,0.004 0.342,-0.007 0.342,-0.03C0.342,-0.051 0.352,-0.061 0.372,-0.061C0.379,-0.061 0.385,-0.06 0.389,-0.059C0.398,-0.057 0.405,-0.056 0.41,-0.056C0.426,-0.056 0.434,-0.073 0.435,-0.107L0.436,-0.154C0.437,-0.169 0.437,-0.183 0.437,-0.197C0.438,-0.209 0.438,-0.215 0.438,-0.216L0.438,-0.299C0.438,-0.357 0.43,-0.397 0.415,-0.42C0.399,-0.443 0.371,-0.454 0.331,-0.454C0.287,-0.454 0.253,-0.438 0.23,-0.406C0.211,-0.38 0.201,-0.335 0.201,-0.27L0.201,-0.137C0.201,-0.11 0.201,-0.095 0.202,-0.09C0.205,-0.067 0.212,-0.056 0.224,-0.056C0.227,-0.056 0.234,-0.057 0.245,-0.06C0.246,-0.06 0.248,-0.06 0.251,-0.061L0.258,-0.061C0.284,-0.061 0.297,-0.05 0.297,-0.028C0.297,-0.007 0.282,0.004 0.252,0.004C0.241,0.004 0.227,0.003 0.21,0.001C0.187,-0.002 0.168,-0.003 0.152,-0.003C0.144,-0.003 0.129,-0.002 0.108,-0C0.079,0.003 0.062,0.004 0.056,0.004C0.029,0.004 0.016,-0.007 0.016,-0.03C0.016,-0.051 0.029,-0.061 0.054,-0.061L0.06,-0.061C0.063,-0.06 0.065,-0.06 0.066,-0.06L0.091,-0.055C0.092,-0.054 0.093,-0.054 0.095,-0.054C0.113,-0.054 0.123,-0.07 0.124,-0.103L0.126,-0.16L0.126,-0.313C0.126,-0.37 0.125,-0.405 0.122,-0.419C0.119,-0.433 0.11,-0.44 0.097,-0.44C0.094,-0.44 0.085,-0.438 0.069,-0.435C0.062,-0.434 0.057,-0.433 0.053,-0.433C0.028,-0.433 0.016,-0.444 0.016,-0.465C0.016,-0.488 0.03,-0.499 0.057,-0.499C0.064,-0.499 0.074,-0.498 0.087,-0.497C0.1,-0.496 0.111,-0.495 0.12,-0.495C0.123,-0.495 0.127,-0.495 0.131,-0.496L0.138,-0.496L0.162,-0.499L0.165,-0.499C0.181,-0.499 0.189,-0.489 0.189,-0.47Z" style="fill-rule:nonzero;"/>
            </g>
            <g transform="matrix(52.0178,0,0,52.0178,670.126,690)">
                <path d="M0.191,-0.471L0.191,-0.439C0.228,-0.491 0.279,-0.517 0.344,-0.517C0.411,-0.517 0.464,-0.494 0.503,-0.448C0.542,-0.402 0.562,-0.34 0.562,-0.261C0.562,-0.176 0.541,-0.109 0.5,-0.059C0.458,-0.008 0.402,0.017 0.332,0.017C0.274,0.017 0.227,-0.003 0.191,-0.044L0.191,0.039C0.191,0.064 0.192,0.081 0.193,0.088C0.197,0.109 0.207,0.119 0.222,0.119C0.227,0.119 0.234,0.118 0.243,0.116C0.252,0.114 0.259,0.113 0.264,0.113C0.285,0.113 0.296,0.124 0.296,0.146C0.296,0.168 0.282,0.179 0.254,0.179C0.244,0.179 0.229,0.178 0.209,0.175C0.194,0.173 0.172,0.172 0.143,0.172C0.127,0.172 0.114,0.173 0.103,0.174C0.076,0.177 0.059,0.179 0.05,0.179C0.039,0.179 0.029,0.175 0.021,0.169C0.013,0.162 0.009,0.153 0.009,0.144C0.009,0.123 0.02,0.112 0.043,0.112C0.047,0.112 0.053,0.113 0.062,0.115C0.073,0.118 0.082,0.119 0.087,0.119C0.1,0.119 0.108,0.113 0.111,0.1C0.114,0.087 0.115,0.05 0.116,-0.009L0.117,-0.395C0.116,-0.426 0.108,-0.441 0.091,-0.441C0.086,-0.441 0.079,-0.44 0.07,-0.438C0.06,-0.435 0.052,-0.434 0.047,-0.434C0.022,-0.434 0.01,-0.445 0.01,-0.467C0.01,-0.488 0.025,-0.499 0.054,-0.499C0.061,-0.499 0.069,-0.499 0.078,-0.498C0.095,-0.497 0.107,-0.496 0.115,-0.496C0.121,-0.496 0.13,-0.497 0.141,-0.498C0.152,-0.499 0.161,-0.499 0.166,-0.499C0.183,-0.499 0.191,-0.49 0.191,-0.471ZM0.206,-0.349C0.2,-0.323 0.197,-0.291 0.196,-0.254C0.196,-0.251 0.196,-0.246 0.195,-0.239L0.195,-0.225C0.195,-0.18 0.199,-0.148 0.206,-0.128C0.213,-0.107 0.228,-0.089 0.25,-0.073C0.271,-0.057 0.298,-0.049 0.33,-0.049C0.378,-0.049 0.415,-0.067 0.442,-0.102C0.468,-0.136 0.481,-0.186 0.481,-0.251C0.481,-0.384 0.434,-0.451 0.339,-0.451C0.307,-0.451 0.278,-0.441 0.254,-0.422C0.229,-0.403 0.213,-0.378 0.206,-0.349Z" style="fill-rule:nonzero;"/>
            </g>
            <g transform="matrix(52.0178,0,0,52.0178,701.336,690)">
                <path d="M0.269,0.017C0.199,0.017 0.143,-0.007 0.101,-0.056C0.059,-0.104 0.038,-0.169 0.038,-0.25C0.038,-0.331 0.059,-0.396 0.102,-0.445C0.144,-0.493 0.201,-0.517 0.272,-0.517C0.345,-0.517 0.402,-0.493 0.444,-0.446C0.486,-0.399 0.507,-0.334 0.507,-0.253C0.507,-0.172 0.485,-0.106 0.442,-0.057C0.399,-0.008 0.341,0.017 0.269,0.017ZM0.274,-0.451C0.227,-0.451 0.191,-0.435 0.164,-0.402C0.137,-0.369 0.123,-0.323 0.12,-0.263L0.12,-0.25C0.12,-0.187 0.133,-0.138 0.16,-0.103C0.186,-0.067 0.223,-0.049 0.27,-0.049C0.319,-0.049 0.357,-0.067 0.385,-0.103C0.412,-0.138 0.426,-0.188 0.426,-0.251C0.426,-0.384 0.375,-0.451 0.274,-0.451Z" style="fill-rule:nonzero;"/>
            </g>
            <g transform="matrix(52.0178,0,0,52.0178,729.738,690)">
                <path d="M0.25,-0.517C0.295,-0.517 0.332,-0.505 0.362,-0.482L0.362,-0.486C0.362,-0.511 0.373,-0.523 0.394,-0.523C0.416,-0.523 0.427,-0.512 0.427,-0.491C0.427,-0.487 0.426,-0.477 0.425,-0.461C0.422,-0.448 0.421,-0.434 0.421,-0.421C0.421,-0.413 0.422,-0.401 0.425,-0.386C0.427,-0.371 0.428,-0.359 0.428,-0.351C0.428,-0.326 0.417,-0.313 0.395,-0.313C0.374,-0.313 0.363,-0.324 0.362,-0.345L0.361,-0.378C0.36,-0.398 0.349,-0.415 0.327,-0.43C0.304,-0.444 0.278,-0.451 0.248,-0.451C0.217,-0.451 0.192,-0.443 0.171,-0.428C0.15,-0.412 0.14,-0.392 0.14,-0.369C0.14,-0.326 0.169,-0.301 0.228,-0.293L0.286,-0.285C0.399,-0.27 0.456,-0.223 0.456,-0.144C0.456,-0.096 0.438,-0.057 0.401,-0.028C0.364,0.002 0.316,0.017 0.257,0.017C0.202,0.017 0.154,0.001 0.113,-0.03C0.114,-0.023 0.114,-0.017 0.114,-0.011C0.114,0.013 0.103,0.025 0.08,0.025C0.055,0.025 0.043,0.011 0.043,-0.016C0.043,-0.011 0.045,-0.029 0.049,-0.068C0.05,-0.077 0.051,-0.087 0.051,-0.096C0.051,-0.112 0.05,-0.127 0.047,-0.141C0.044,-0.155 0.043,-0.166 0.043,-0.174C0.043,-0.197 0.054,-0.209 0.075,-0.209C0.089,-0.209 0.098,-0.206 0.102,-0.199C0.105,-0.192 0.107,-0.175 0.108,-0.146C0.109,-0.117 0.124,-0.094 0.153,-0.076C0.182,-0.058 0.22,-0.049 0.265,-0.049C0.298,-0.049 0.325,-0.057 0.346,-0.074C0.367,-0.091 0.378,-0.112 0.378,-0.137C0.378,-0.182 0.342,-0.209 0.27,-0.216C0.201,-0.223 0.149,-0.237 0.113,-0.257C0.077,-0.276 0.059,-0.311 0.059,-0.36C0.059,-0.407 0.077,-0.444 0.112,-0.474C0.147,-0.503 0.193,-0.517 0.25,-0.517Z" style="fill-rule:nonzero;"/>
            </g>
            <g transform="matrix(52.0178,0,0,52.0178,755.331,690)">
                <path d="M0.201,-0.29L0.201,-0.16C0.201,-0.127 0.201,-0.107 0.202,-0.101C0.205,-0.071 0.214,-0.056 0.229,-0.056C0.232,-0.056 0.241,-0.058 0.254,-0.061C0.257,-0.062 0.262,-0.063 0.269,-0.063C0.294,-0.063 0.307,-0.052 0.307,-0.03C0.307,-0.021 0.303,-0.013 0.295,-0.006C0.286,0.001 0.276,0.004 0.263,0.004C0.252,0.004 0.236,0.003 0.215,-0.001C0.193,-0.004 0.177,-0.005 0.166,-0.005C0.149,-0.005 0.129,-0.004 0.108,-0.001C0.082,0.002 0.065,0.004 0.056,0.004C0.029,0.004 0.016,-0.007 0.016,-0.03C0.016,-0.052 0.027,-0.063 0.05,-0.063C0.055,-0.063 0.063,-0.062 0.074,-0.06C0.084,-0.058 0.092,-0.057 0.097,-0.057C0.113,-0.057 0.123,-0.078 0.126,-0.121L0.126,-0.377C0.123,-0.419 0.113,-0.44 0.096,-0.44C0.091,-0.44 0.083,-0.439 0.074,-0.437C0.064,-0.434 0.057,-0.433 0.052,-0.433C0.028,-0.433 0.016,-0.444 0.016,-0.465C0.016,-0.488 0.031,-0.499 0.06,-0.499C0.073,-0.499 0.082,-0.499 0.087,-0.498C0.108,-0.495 0.122,-0.494 0.128,-0.494C0.133,-0.494 0.141,-0.495 0.153,-0.497C0.164,-0.498 0.172,-0.499 0.177,-0.499C0.196,-0.499 0.206,-0.486 0.206,-0.46C0.206,-0.457 0.204,-0.439 0.204,-0.436C0.203,-0.431 0.203,-0.41 0.202,-0.374C0.201,-0.347 0.201,-0.319 0.201,-0.29ZM0.149,-0.552C0.134,-0.552 0.121,-0.558 0.11,-0.569C0.098,-0.58 0.093,-0.593 0.093,-0.608C0.093,-0.623 0.098,-0.636 0.11,-0.647C0.121,-0.658 0.134,-0.663 0.149,-0.663C0.164,-0.663 0.178,-0.658 0.189,-0.647C0.2,-0.636 0.205,-0.623 0.205,-0.608C0.205,-0.593 0.2,-0.58 0.189,-0.569C0.178,-0.558 0.164,-0.552 0.149,-0.552Z" style="fill-rule:nonzero;"/>
            </g>
            <g transform="matrix(52.0178,0,0,52.0178,771.456,690)">
                <path d="M0.33,-0.33C0.33,-0.357 0.347,-0.372 0.38,-0.376C0.377,-0.399 0.366,-0.418 0.347,-0.431C0.328,-0.444 0.303,-0.451 0.273,-0.451C0.227,-0.451 0.19,-0.433 0.162,-0.396C0.134,-0.359 0.12,-0.311 0.12,-0.25C0.12,-0.187 0.133,-0.138 0.16,-0.103C0.186,-0.067 0.222,-0.049 0.269,-0.049C0.298,-0.049 0.324,-0.057 0.346,-0.074C0.367,-0.091 0.382,-0.114 0.39,-0.143C0.397,-0.166 0.401,-0.18 0.402,-0.183C0.409,-0.196 0.42,-0.203 0.434,-0.203C0.445,-0.203 0.455,-0.199 0.462,-0.192C0.469,-0.185 0.473,-0.175 0.473,-0.164C0.473,-0.147 0.468,-0.127 0.457,-0.104C0.446,-0.081 0.434,-0.061 0.419,-0.046C0.38,-0.004 0.329,0.017 0.266,0.017C0.198,0.017 0.143,-0.007 0.102,-0.055C0.06,-0.103 0.039,-0.166 0.039,-0.244C0.039,-0.327 0.061,-0.393 0.104,-0.443C0.147,-0.492 0.204,-0.517 0.275,-0.517C0.328,-0.517 0.373,-0.503 0.408,-0.474C0.443,-0.444 0.461,-0.408 0.461,-0.363C0.461,-0.338 0.454,-0.318 0.441,-0.302C0.427,-0.286 0.409,-0.278 0.388,-0.278C0.371,-0.278 0.358,-0.283 0.347,-0.293C0.335,-0.303 0.33,-0.315 0.33,-0.33Z" style="fill-rule:nonzero;"/>
            </g>
            <g transform="matrix(52.0178,0,0,52.0178,797.985,690)">
                <path d="M0.201,-0.29L0.201,-0.16C0.201,-0.127 0.201,-0.107 0.202,-0.101C0.205,-0.071 0.214,-0.056 0.229,-0.056C0.232,-0.056 0.241,-0.058 0.254,-0.061C0.257,-0.062 0.262,-0.063 0.269,-0.063C0.294,-0.063 0.307,-0.052 0.307,-0.03C0.307,-0.021 0.303,-0.013 0.295,-0.006C0.286,0.001 0.276,0.004 0.263,0.004C0.252,0.004 0.236,0.003 0.215,-0.001C0.193,-0.004 0.177,-0.005 0.166,-0.005C0.149,-0.005 0.129,-0.004 0.108,-0.001C0.082,0.002 0.065,0.004 0.056,0.004C0.029,0.004 0.016,-0.007 0.016,-0.03C0.016,-0.052 0.027,-0.063 0.05,-0.063C0.055,-0.063 0.063,-0.062 0.074,-0.06C0.084,-0.058 0.092,-0.057 0.097,-0.057C0.113,-0.057 0.123,-0.078 0.126,-0.121L0.126,-0.377C0.123,-0.419 0.113,-0.44 0.096,-0.44C0.091,-0.44 0.083,-0.439 0.074,-0.437C0.064,-0.434 0.057,-0.433 0.052,-0.433C0.028,-0.433 0.016,-0.444 0.016,-0.465C0.016,-0.488 0.031,-0.499 0.06,-0.499C0.073,-0.499 0.082,-0.499 0.087,-0.498C0.108,-0.495 0.122,-0.494 0.128,-0.494C0.133,-0.494 0.141,-0.495 0.153,-0.497C0.164,-0.498 0.172,-0.499 0.177,-0.499C0.196,-0.499 0.206,-0.486 0.206,-0.46C0.206,-0.457 0.204,-0.439 0.204,-0.436C0.203,-0.431 0.203,-0.41 0.202,-0.374C0.201,-0.347 0.201,-0.319 0.201,-0.29ZM0.149,-0.552C0.134,-0.552 0.121,-0.558 0.11,-0.569C0.098,-0.58 0.093,-0.593 0.093,-0.608C0.093,-0.623 0.098,-0.636 0.11,-0.647C0.121,-0.658 0.134,-0.663 0.149,-0.663C0.164,-0.663 0.178,-0.658 0.189,-0.647C0.2,-0.636 0.205,-0.623 0.205,-0.608C0.205,-0.593 0.2,-0.58 0.189,-0.569C0.178,-0.558 0.164,-0.552 0.149,-0.552Z" style="fill-rule:nonzero;"/>
            </g>
            <g transform="matrix(52.0178,0,0,52.0178,814.111,690)">
                <path d="M0.269,0.017C0.199,0.017 0.143,-0.007 0.101,-0.056C0.059,-0.104 0.038,-0.169 0.038,-0.25C0.038,-0.331 0.059,-0.396 0.102,-0.445C0.144,-0.493 0.201,-0.517 0.272,-0.517C0.345,-0.517 0.402,-0.493 0.444,-0.446C0.486,-0.399 0.507,-0.334 0.507,-0.253C0.507,-0.172 0.485,-0.106 0.442,-0.057C0.399,-0.008 0.341,0.017 0.269,0.017ZM0.381,-0.665C0.381,-0.648 0.369,-0.635 0.346,-0.625L0.204,-0.563C0.194,-0.561 0.189,-0.56 0.19,-0.56C0.177,-0.56 0.17,-0.568 0.17,-0.584C0.17,-0.593 0.177,-0.601 0.19,-0.61L0.316,-0.689C0.327,-0.696 0.337,-0.699 0.347,-0.699C0.37,-0.699 0.381,-0.688 0.381,-0.665ZM0.274,-0.451C0.227,-0.451 0.191,-0.435 0.164,-0.402C0.137,-0.369 0.123,-0.323 0.12,-0.263L0.12,-0.25C0.12,-0.187 0.133,-0.138 0.16,-0.103C0.186,-0.067 0.223,-0.049 0.27,-0.049C0.319,-0.049 0.357,-0.067 0.385,-0.103C0.412,-0.138 0.426,-0.188 0.426,-0.251C0.426,-0.384 0.375,-0.451 0.274,-0.451Z" style="fill-rule:nonzero;"/>
            </g>
            <g transform="matrix(52.0178,0,0,52.0178,842.513,690)">
                <path d="M0.192,-0.469L0.192,-0.441C0.232,-0.492 0.285,-0.517 0.352,-0.517C0.388,-0.517 0.422,-0.508 0.454,-0.49C0.486,-0.471 0.508,-0.448 0.519,-0.421C0.528,-0.398 0.533,-0.369 0.533,-0.332L0.533,-0.142C0.533,-0.113 0.533,-0.096 0.534,-0.091C0.537,-0.068 0.546,-0.057 0.561,-0.057C0.567,-0.057 0.575,-0.058 0.585,-0.06C0.594,-0.061 0.601,-0.062 0.605,-0.062C0.614,-0.062 0.621,-0.059 0.628,-0.053C0.634,-0.047 0.637,-0.04 0.637,-0.031C0.637,-0.021 0.633,-0.013 0.625,-0.006C0.617,0.001 0.607,0.004 0.596,0.004C0.587,0.004 0.571,0.003 0.55,-0C0.529,-0.003 0.509,-0.004 0.49,-0.004C0.473,-0.004 0.458,-0.003 0.447,-0.002C0.414,0.002 0.396,0.004 0.394,0.004C0.367,0.004 0.354,-0.008 0.354,-0.031C0.354,-0.052 0.365,-0.062 0.388,-0.062C0.393,-0.062 0.399,-0.061 0.406,-0.06C0.419,-0.057 0.427,-0.056 0.43,-0.056C0.446,-0.056 0.455,-0.074 0.456,-0.111L0.458,-0.162L0.459,-0.223L0.459,-0.299C0.459,-0.334 0.457,-0.359 0.454,-0.372C0.448,-0.397 0.435,-0.417 0.415,-0.431C0.393,-0.446 0.368,-0.454 0.34,-0.454C0.287,-0.454 0.248,-0.435 0.225,-0.397C0.209,-0.371 0.201,-0.327 0.201,-0.264L0.201,-0.131C0.201,-0.102 0.203,-0.082 0.207,-0.071C0.211,-0.06 0.218,-0.055 0.229,-0.055C0.234,-0.055 0.242,-0.056 0.251,-0.059C0.26,-0.062 0.268,-0.063 0.274,-0.063C0.295,-0.063 0.305,-0.052 0.305,-0.029C0.305,-0.007 0.292,0.004 0.265,0.004C0.26,0.004 0.242,0.002 0.213,-0.002C0.198,-0.004 0.182,-0.005 0.164,-0.005C0.15,-0.005 0.131,-0.004 0.108,-0.001C0.079,0.002 0.062,0.004 0.058,0.004C0.03,0.004 0.016,-0.007 0.016,-0.03C0.016,-0.051 0.027,-0.062 0.048,-0.062C0.051,-0.062 0.057,-0.061 0.067,-0.059C0.076,-0.057 0.084,-0.056 0.093,-0.056C0.113,-0.056 0.123,-0.075 0.124,-0.114L0.126,-0.225L0.126,-0.346L0.124,-0.381C0.123,-0.404 0.12,-0.419 0.116,-0.428C0.111,-0.436 0.104,-0.44 0.093,-0.44C0.088,-0.44 0.082,-0.439 0.073,-0.438C0.064,-0.436 0.057,-0.435 0.052,-0.435C0.028,-0.435 0.016,-0.446 0.016,-0.467C0.016,-0.489 0.031,-0.5 0.061,-0.5C0.065,-0.5 0.068,-0.5 0.071,-0.499L0.108,-0.495C0.119,-0.495 0.128,-0.496 0.136,-0.497C0.153,-0.498 0.162,-0.499 0.163,-0.499C0.182,-0.499 0.192,-0.489 0.192,-0.469Z" style="fill-rule:nonzero;"/>
            </g>
        </g>
        <g transform="matrix(0.576725,0,0,0.576725,327.825,-107.043)">
            <g transform="matrix(52.0178,0,0,52.0178,662.844,690)">
                <path d="M0.523,-0.113L0.487,-0.211C0.483,-0.222 0.479,-0.228 0.475,-0.231C0.47,-0.234 0.461,-0.235 0.448,-0.235L0.27,-0.235C0.257,-0.235 0.247,-0.233 0.243,-0.228C0.238,-0.223 0.231,-0.211 0.223,-0.19L0.194,-0.113C0.191,-0.106 0.19,-0.099 0.19,-0.092C0.19,-0.071 0.203,-0.06 0.229,-0.06C0.236,-0.06 0.245,-0.061 0.258,-0.062C0.27,-0.063 0.279,-0.064 0.285,-0.064C0.312,-0.064 0.326,-0.052 0.326,-0.029C0.326,-0.007 0.311,0.004 0.281,0.004C0.276,0.004 0.268,0.003 0.259,0.002L0.209,-0.005C0.2,-0.006 0.184,-0.007 0.163,-0.007C0.14,-0.007 0.123,-0.006 0.114,-0.005L0.072,0.001C0.053,0.004 0.04,0.005 0.031,0.005C0.005,0.005 -0.008,-0.006 -0.008,-0.028C-0.008,-0.051 0.005,-0.063 0.03,-0.063C0.035,-0.063 0.039,-0.063 0.042,-0.062L0.055,-0.062C0.073,-0.062 0.087,-0.069 0.096,-0.083C0.1,-0.088 0.107,-0.104 0.116,-0.13L0.302,-0.633C0.313,-0.661 0.334,-0.675 0.365,-0.675C0.396,-0.675 0.416,-0.661 0.426,-0.633L0.605,-0.137C0.616,-0.106 0.627,-0.085 0.636,-0.075C0.645,-0.065 0.659,-0.06 0.676,-0.06C0.681,-0.06 0.685,-0.06 0.688,-0.061C0.707,-0.062 0.716,-0.063 0.716,-0.063C0.741,-0.063 0.754,-0.052 0.754,-0.031C0.754,-0.008 0.741,0.003 0.716,0.003C0.709,0.003 0.699,0.002 0.687,0.001C0.645,-0.004 0.614,-0.006 0.593,-0.006C0.568,-0.006 0.528,-0.003 0.473,0.002C0.459,0.003 0.448,0.004 0.441,0.004C0.414,0.004 0.401,-0.007 0.401,-0.03C0.401,-0.053 0.416,-0.064 0.445,-0.064C0.451,-0.064 0.46,-0.063 0.472,-0.062C0.483,-0.061 0.492,-0.06 0.498,-0.06C0.52,-0.06 0.531,-0.069 0.531,-0.087C0.531,-0.09 0.528,-0.098 0.523,-0.113ZM0.451,-0.317L0.361,-0.593L0.269,-0.317C0.268,-0.313 0.267,-0.311 0.267,-0.31C0.267,-0.304 0.272,-0.301 0.282,-0.301L0.441,-0.301C0.449,-0.301 0.453,-0.304 0.453,-0.309C0.453,-0.31 0.452,-0.313 0.451,-0.317Z" style="fill-rule:nonzero;"/>
            </g>
            <g transform="matrix(52.0178,0,0,52.0178,702.794,690)">
                <path d="M0.276,-0.517C0.293,-0.517 0.313,-0.514 0.335,-0.509C0.338,-0.574 0.376,-0.607 0.449,-0.607C0.48,-0.607 0.505,-0.599 0.526,-0.583C0.547,-0.567 0.557,-0.547 0.557,-0.522C0.557,-0.506 0.552,-0.492 0.542,-0.481C0.531,-0.47 0.519,-0.464 0.505,-0.464C0.494,-0.464 0.485,-0.468 0.477,-0.475C0.469,-0.482 0.465,-0.491 0.465,-0.501C0.465,-0.512 0.472,-0.523 0.487,-0.534C0.476,-0.547 0.463,-0.554 0.446,-0.554C0.411,-0.554 0.393,-0.532 0.392,-0.488C0.443,-0.454 0.468,-0.408 0.468,-0.351C0.468,-0.305 0.451,-0.267 0.416,-0.236C0.381,-0.205 0.338,-0.19 0.286,-0.19C0.249,-0.19 0.211,-0.199 0.172,-0.216C0.161,-0.221 0.152,-0.223 0.145,-0.223C0.136,-0.223 0.127,-0.219 0.12,-0.211C0.113,-0.202 0.109,-0.192 0.109,-0.181C0.109,-0.146 0.144,-0.129 0.214,-0.129L0.22,-0.129C0.225,-0.129 0.231,-0.129 0.238,-0.13L0.25,-0.13C0.313,-0.13 0.365,-0.124 0.404,-0.112C0.441,-0.101 0.47,-0.083 0.491,-0.059C0.512,-0.035 0.523,-0.008 0.523,0.022C0.523,0.071 0.501,0.109 0.456,0.138C0.411,0.166 0.35,0.18 0.273,0.18C0.196,0.18 0.136,0.167 0.093,0.14C0.049,0.113 0.027,0.077 0.027,0.03C0.027,-0.024 0.057,-0.062 0.118,-0.085C0.064,-0.106 0.037,-0.138 0.037,-0.181C0.037,-0.228 0.064,-0.26 0.118,-0.277C0.101,-0.3 0.092,-0.328 0.092,-0.359C0.092,-0.404 0.11,-0.442 0.145,-0.472C0.18,-0.502 0.223,-0.517 0.276,-0.517ZM0.279,-0.451C0.25,-0.451 0.225,-0.442 0.204,-0.425C0.183,-0.408 0.172,-0.386 0.17,-0.36L0.17,-0.354C0.17,-0.325 0.18,-0.301 0.2,-0.283C0.22,-0.265 0.246,-0.256 0.278,-0.256C0.311,-0.256 0.339,-0.265 0.36,-0.283C0.381,-0.301 0.391,-0.324 0.391,-0.352C0.391,-0.381 0.38,-0.404 0.359,-0.423C0.338,-0.442 0.311,-0.451 0.279,-0.451ZM0.28,-0.063C0.227,-0.063 0.185,-0.055 0.154,-0.039C0.123,-0.023 0.108,-0.001 0.108,0.026C0.108,0.053 0.123,0.075 0.153,0.091C0.183,0.106 0.223,0.114 0.274,0.114C0.327,0.114 0.37,0.106 0.401,0.09C0.432,0.074 0.447,0.053 0.447,0.026C0.447,-0.002 0.432,-0.024 0.403,-0.04C0.374,-0.055 0.333,-0.063 0.28,-0.063Z" style="fill-rule:nonzero;"/>
            </g>
            <g transform="matrix(52.0178,0,0,52.0178,732.496,690)">
                <path d="M0.19,-0.471L0.19,-0.444C0.225,-0.493 0.271,-0.517 0.329,-0.517C0.376,-0.517 0.413,-0.504 0.443,-0.478C0.471,-0.451 0.486,-0.417 0.486,-0.376C0.486,-0.347 0.479,-0.323 0.464,-0.305C0.449,-0.286 0.43,-0.277 0.406,-0.277C0.391,-0.277 0.378,-0.282 0.367,-0.291C0.356,-0.3 0.351,-0.312 0.351,-0.325C0.351,-0.336 0.355,-0.345 0.363,-0.354C0.371,-0.362 0.38,-0.366 0.391,-0.366C0.393,-0.366 0.397,-0.365 0.404,-0.363C0.408,-0.371 0.41,-0.378 0.41,-0.385C0.41,-0.404 0.402,-0.421 0.385,-0.434C0.368,-0.447 0.346,-0.454 0.321,-0.454C0.269,-0.454 0.234,-0.431 0.217,-0.384C0.206,-0.355 0.201,-0.312 0.201,-0.254L0.201,-0.188C0.201,-0.143 0.201,-0.118 0.202,-0.113C0.205,-0.075 0.216,-0.056 0.233,-0.056C0.242,-0.056 0.251,-0.057 0.26,-0.06C0.267,-0.062 0.274,-0.063 0.279,-0.063C0.3,-0.063 0.311,-0.052 0.311,-0.031C0.311,-0.008 0.297,0.004 0.27,0.004L0.266,0.004C0.256,0.004 0.241,0.003 0.221,0.001C0.2,-0.002 0.185,-0.003 0.175,-0.003C0.148,-0.003 0.127,-0.002 0.112,-0.001L0.056,0.004C0.029,0.004 0.015,-0.008 0.015,-0.031C0.015,-0.052 0.028,-0.062 0.053,-0.062C0.06,-0.062 0.065,-0.062 0.068,-0.061L0.083,-0.058C0.09,-0.057 0.094,-0.056 0.097,-0.056C0.114,-0.056 0.123,-0.071 0.124,-0.102L0.126,-0.153L0.123,-0.38C0.121,-0.419 0.111,-0.439 0.093,-0.439C0.088,-0.439 0.08,-0.438 0.071,-0.436C0.062,-0.434 0.054,-0.433 0.049,-0.433C0.027,-0.433 0.016,-0.444 0.016,-0.465C0.016,-0.488 0.03,-0.5 0.059,-0.5C0.066,-0.5 0.076,-0.499 0.089,-0.498C0.102,-0.496 0.112,-0.495 0.119,-0.495C0.124,-0.495 0.133,-0.496 0.145,-0.497C0.15,-0.498 0.157,-0.499 0.164,-0.499C0.181,-0.499 0.19,-0.49 0.19,-0.471Z" style="fill-rule:nonzero;"/>
            </g>
            <g transform="matrix(52.0178,0,0,52.0178,758.037,690)">
                <path d="M0.493,-0.294C0.493,-0.269 0.491,-0.253 0.488,-0.248C0.485,-0.242 0.475,-0.239 0.459,-0.239L0.141,-0.239C0.132,-0.239 0.127,-0.238 0.124,-0.236C0.121,-0.233 0.12,-0.229 0.12,-0.224C0.12,-0.174 0.135,-0.132 0.165,-0.099C0.195,-0.066 0.232,-0.049 0.277,-0.049C0.306,-0.049 0.333,-0.057 0.358,-0.073C0.382,-0.089 0.398,-0.109 0.405,-0.134L0.414,-0.163C0.419,-0.179 0.43,-0.187 0.447,-0.187C0.472,-0.187 0.484,-0.174 0.484,-0.149C0.484,-0.106 0.462,-0.067 0.418,-0.034C0.374,0 0.324,0.017 0.268,0.017C0.198,0.017 0.142,-0.006 0.101,-0.054C0.06,-0.1 0.039,-0.164 0.039,-0.243C0.039,-0.324 0.061,-0.39 0.105,-0.441C0.149,-0.492 0.206,-0.517 0.277,-0.517C0.34,-0.517 0.391,-0.496 0.432,-0.454C0.473,-0.412 0.493,-0.359 0.493,-0.294ZM0.13,-0.32C0.13,-0.311 0.137,-0.306 0.152,-0.306L0.391,-0.306C0.405,-0.306 0.412,-0.311 0.412,-0.32C0.412,-0.355 0.399,-0.386 0.372,-0.412C0.345,-0.438 0.314,-0.451 0.278,-0.451C0.241,-0.451 0.207,-0.438 0.176,-0.411C0.145,-0.384 0.13,-0.353 0.13,-0.32Z" style="fill-rule:nonzero;"/>
            </g>
            <g transform="matrix(52.0178,0,0,52.0178,785.502,690)">
                <path d="M0.276,-0.517C0.293,-0.517 0.313,-0.514 0.335,-0.509C0.338,-0.574 0.376,-0.607 0.449,-0.607C0.48,-0.607 0.505,-0.599 0.526,-0.583C0.547,-0.567 0.557,-0.547 0.557,-0.522C0.557,-0.506 0.552,-0.492 0.542,-0.481C0.531,-0.47 0.519,-0.464 0.505,-0.464C0.494,-0.464 0.485,-0.468 0.477,-0.475C0.469,-0.482 0.465,-0.491 0.465,-0.501C0.465,-0.512 0.472,-0.523 0.487,-0.534C0.476,-0.547 0.463,-0.554 0.446,-0.554C0.411,-0.554 0.393,-0.532 0.392,-0.488C0.443,-0.454 0.468,-0.408 0.468,-0.351C0.468,-0.305 0.451,-0.267 0.416,-0.236C0.381,-0.205 0.338,-0.19 0.286,-0.19C0.249,-0.19 0.211,-0.199 0.172,-0.216C0.161,-0.221 0.152,-0.223 0.145,-0.223C0.136,-0.223 0.127,-0.219 0.12,-0.211C0.113,-0.202 0.109,-0.192 0.109,-0.181C0.109,-0.146 0.144,-0.129 0.214,-0.129L0.22,-0.129C0.225,-0.129 0.231,-0.129 0.238,-0.13L0.25,-0.13C0.313,-0.13 0.365,-0.124 0.404,-0.112C0.441,-0.101 0.47,-0.083 0.491,-0.059C0.512,-0.035 0.523,-0.008 0.523,0.022C0.523,0.071 0.501,0.109 0.456,0.138C0.411,0.166 0.35,0.18 0.273,0.18C0.196,0.18 0.136,0.167 0.093,0.14C0.049,0.113 0.027,0.077 0.027,0.03C0.027,-0.024 0.057,-0.062 0.118,-0.085C0.064,-0.106 0.037,-0.138 0.037,-0.181C0.037,-0.228 0.064,-0.26 0.118,-0.277C0.101,-0.3 0.092,-0.328 0.092,-0.359C0.092,-0.404 0.11,-0.442 0.145,-0.472C0.18,-0.502 0.223,-0.517 0.276,-0.517ZM0.279,-0.451C0.25,-0.451 0.225,-0.442 0.204,-0.425C0.183,-0.408 0.172,-0.386 0.17,-0.36L0.17,-0.354C0.17,-0.325 0.18,-0.301 0.2,-0.283C0.22,-0.265 0.246,-0.256 0.278,-0.256C0.311,-0.256 0.339,-0.265 0.36,-0.283C0.381,-0.301 0.391,-0.324 0.391,-0.352C0.391,-0.381 0.38,-0.404 0.359,-0.423C0.338,-0.442 0.311,-0.451 0.279,-0.451ZM0.28,-0.063C0.227,-0.063 0.185,-0.055 0.154,-0.039C0.123,-0.023 0.108,-0.001 0.108,0.026C0.108,0.053 0.123,0.075 0.153,0.091C0.183,0.106 0.223,0.114 0.274,0.114C0.327,0.114 0.37,0.106 0.401,0.09C0.432,0.074 0.447,0.053 0.447,0.026C0.447,-0.002 0.432,-0.024 0.403,-0.04C0.374,-0.055 0.333,-0.063 0.28,-0.063Z" style="fill-rule:nonzero;"/>
            </g>
            <g transform="matrix(52.0178,0,0,52.0178,813.28,690)">
                <path d="M0.469,0.013C0.414,0.013 0.381,-0.011 0.368,-0.058C0.334,-0.008 0.281,0.017 0.208,0.017C0.154,0.017 0.111,0.004 0.079,-0.023C0.046,-0.05 0.03,-0.085 0.03,-0.13C0.03,-0.185 0.054,-0.226 0.101,-0.252C0.119,-0.262 0.134,-0.269 0.148,-0.272C0.161,-0.275 0.187,-0.278 0.226,-0.283C0.282,-0.289 0.319,-0.297 0.336,-0.308C0.353,-0.319 0.361,-0.338 0.361,-0.367C0.361,-0.394 0.352,-0.416 0.333,-0.432C0.314,-0.447 0.287,-0.455 0.253,-0.455C0.223,-0.455 0.195,-0.447 0.169,-0.43C0.159,-0.423 0.154,-0.416 0.154,-0.409C0.154,-0.406 0.157,-0.403 0.163,-0.399C0.172,-0.392 0.177,-0.381 0.177,-0.365C0.177,-0.352 0.172,-0.341 0.163,-0.332C0.153,-0.323 0.141,-0.319 0.126,-0.319C0.109,-0.319 0.094,-0.325 0.083,-0.337C0.071,-0.349 0.065,-0.364 0.065,-0.381C0.065,-0.418 0.084,-0.45 0.121,-0.477C0.158,-0.504 0.202,-0.517 0.255,-0.517C0.376,-0.517 0.437,-0.459 0.437,-0.342L0.437,-0.14C0.437,-0.108 0.438,-0.089 0.439,-0.083C0.443,-0.06 0.454,-0.048 0.473,-0.048C0.496,-0.048 0.508,-0.069 0.508,-0.112L0.508,-0.161C0.508,-0.182 0.518,-0.193 0.539,-0.193C0.561,-0.193 0.572,-0.177 0.572,-0.145L0.572,-0.14L0.571,-0.083C0.57,-0.019 0.536,0.013 0.469,0.013ZM0.358,-0.186L0.359,-0.257C0.344,-0.244 0.329,-0.234 0.313,-0.229C0.296,-0.224 0.267,-0.219 0.225,-0.215C0.149,-0.208 0.111,-0.18 0.111,-0.131C0.111,-0.106 0.12,-0.086 0.139,-0.071C0.157,-0.056 0.182,-0.049 0.213,-0.049C0.258,-0.049 0.293,-0.061 0.319,-0.086C0.344,-0.11 0.357,-0.143 0.358,-0.186Z" style="fill-rule:nonzero;"/>
            </g>
            <g transform="matrix(52.0178,0,0,52.0178,842.618,690)">
                <path d="M0.33,-0.33C0.33,-0.357 0.347,-0.372 0.38,-0.376C0.377,-0.399 0.366,-0.418 0.347,-0.431C0.328,-0.444 0.303,-0.451 0.273,-0.451C0.227,-0.451 0.19,-0.433 0.162,-0.396C0.134,-0.359 0.12,-0.311 0.12,-0.25C0.12,-0.187 0.133,-0.138 0.16,-0.103C0.186,-0.067 0.222,-0.049 0.269,-0.049C0.298,-0.049 0.324,-0.057 0.346,-0.074C0.367,-0.091 0.382,-0.114 0.39,-0.143C0.397,-0.166 0.401,-0.18 0.402,-0.183C0.409,-0.196 0.42,-0.203 0.434,-0.203C0.445,-0.203 0.455,-0.199 0.462,-0.192C0.469,-0.185 0.473,-0.175 0.473,-0.164C0.473,-0.147 0.468,-0.127 0.457,-0.104C0.446,-0.081 0.434,-0.061 0.419,-0.046C0.38,-0.004 0.329,0.017 0.266,0.017C0.198,0.017 0.143,-0.007 0.102,-0.055C0.06,-0.103 0.039,-0.166 0.039,-0.244C0.039,-0.327 0.061,-0.393 0.104,-0.443C0.147,-0.492 0.204,-0.517 0.275,-0.517C0.328,-0.517 0.373,-0.503 0.408,-0.474C0.443,-0.444 0.461,-0.408 0.461,-0.363C0.461,-0.338 0.454,-0.318 0.441,-0.302C0.427,-0.286 0.409,-0.278 0.388,-0.278C0.371,-0.278 0.358,-0.283 0.347,-0.293C0.335,-0.303 0.33,-0.315 0.33,-0.33Z" style="fill-rule:nonzero;"/>
            </g>
            <g transform="matrix(52.0178,0,0,52.0178,869.147,690)">
                <path d="M0.201,-0.29L0.201,-0.16C0.201,-0.127 0.201,-0.107 0.202,-0.101C0.205,-0.071 0.214,-0.056 0.229,-0.056C0.232,-0.056 0.241,-0.058 0.254,-0.061C0.257,-0.062 0.262,-0.063 0.269,-0.063C0.294,-0.063 0.307,-0.052 0.307,-0.03C0.307,-0.021 0.303,-0.013 0.295,-0.006C0.286,0.001 0.276,0.004 0.263,0.004C0.252,0.004 0.236,0.003 0.215,-0.001C0.193,-0.004 0.177,-0.005 0.166,-0.005C0.149,-0.005 0.129,-0.004 0.108,-0.001C0.082,0.002 0.065,0.004 0.056,0.004C0.029,0.004 0.016,-0.007 0.016,-0.03C0.016,-0.052 0.027,-0.063 0.05,-0.063C0.055,-0.063 0.063,-0.062 0.074,-0.06C0.084,-0.058 0.092,-0.057 0.097,-0.057C0.113,-0.057 0.123,-0.078 0.126,-0.121L0.126,-0.377C0.123,-0.419 0.113,-0.44 0.096,-0.44C0.091,-0.44 0.083,-0.439 0.074,-0.437C0.064,-0.434 0.057,-0.433 0.052,-0.433C0.028,-0.433 0.016,-0.444 0.016,-0.465C0.016,-0.488 0.031,-0.499 0.06,-0.499C0.073,-0.499 0.082,-0.499 0.087,-0.498C0.108,-0.495 0.122,-0.494 0.128,-0.494C0.133,-0.494 0.141,-0.495 0.153,-0.497C0.164,-0.498 0.172,-0.499 0.177,-0.499C0.196,-0.499 0.206,-0.486 0.206,-0.46C0.206,-0.457 0.204,-0.439 0.204,-0.436C0.203,-0.431 0.203,-0.41 0.202,-0.374C0.201,-0.347 0.201,-0.319 0.201,-0.29ZM0.149,-0.552C0.134,-0.552 0.121,-0.558 0.11,-0.569C0.098,-0.58 0.093,-0.593 0.093,-0.608C0.093,-0.623 0.098,-0.636 0.11,-0.647C0.121,-0.658 0.134,-0.663 0.149,-0.663C0.164,-0.663 0.178,-0.658 0.189,-0.647C0.2,-0.636 0.205,-0.623 0.205,-0.608C0.205,-0.593 0.2,-0.58 0.189,-0.569C0.178,-0.558 0.164,-0.552 0.149,-0.552Z" style="fill-rule:nonzero;"/>
            </g>
            <g transform="matrix(52.0178,0,0,52.0178,885.273,690)">
                <path d="M0.269,0.017C0.199,0.017 0.143,-0.007 0.101,-0.056C0.059,-0.104 0.038,-0.169 0.038,-0.25C0.038,-0.331 0.059,-0.396 0.102,-0.445C0.144,-0.493 0.201,-0.517 0.272,-0.517C0.345,-0.517 0.402,-0.493 0.444,-0.446C0.486,-0.399 0.507,-0.334 0.507,-0.253C0.507,-0.172 0.485,-0.106 0.442,-0.057C0.399,-0.008 0.341,0.017 0.269,0.017ZM0.381,-0.665C0.381,-0.648 0.369,-0.635 0.346,-0.625L0.204,-0.563C0.194,-0.561 0.189,-0.56 0.19,-0.56C0.177,-0.56 0.17,-0.568 0.17,-0.584C0.17,-0.593 0.177,-0.601 0.19,-0.61L0.316,-0.689C0.327,-0.696 0.337,-0.699 0.347,-0.699C0.37,-0.699 0.381,-0.688 0.381,-0.665ZM0.274,-0.451C0.227,-0.451 0.191,-0.435 0.164,-0.402C0.137,-0.369 0.123,-0.323 0.12,-0.263L0.12,-0.25C0.12,-0.187 0.133,-0.138 0.16,-0.103C0.186,-0.067 0.223,-0.049 0.27,-0.049C0.319,-0.049 0.357,-0.067 0.385,-0.103C0.412,-0.138 0.426,-0.188 0.426,-0.251C0.426,-0.384 0.375,-0.451 0.274,-0.451Z" style="fill-rule:nonzero;"/>
            </g>
            <g transform="matrix(52.0178,0,0,52.0178,913.674,690)">
                <path d="M0.192,-0.469L0.192,-0.441C0.232,-0.492 0.285,-0.517 0.352,-0.517C0.388,-0.517 0.422,-0.508 0.454,-0.49C0.486,-0.471 0.508,-0.448 0.519,-0.421C0.528,-0.398 0.533,-0.369 0.533,-0.332L0.533,-0.142C0.533,-0.113 0.533,-0.096 0.534,-0.091C0.537,-0.068 0.546,-0.057 0.561,-0.057C0.567,-0.057 0.575,-0.058 0.585,-0.06C0.594,-0.061 0.601,-0.062 0.605,-0.062C0.614,-0.062 0.621,-0.059 0.628,-0.053C0.634,-0.047 0.637,-0.04 0.637,-0.031C0.637,-0.021 0.633,-0.013 0.625,-0.006C0.617,0.001 0.607,0.004 0.596,0.004C0.587,0.004 0.571,0.003 0.55,-0C0.529,-0.003 0.509,-0.004 0.49,-0.004C0.473,-0.004 0.458,-0.003 0.447,-0.002C0.414,0.002 0.396,0.004 0.394,0.004C0.367,0.004 0.354,-0.008 0.354,-0.031C0.354,-0.052 0.365,-0.062 0.388,-0.062C0.393,-0.062 0.399,-0.061 0.406,-0.06C0.419,-0.057 0.427,-0.056 0.43,-0.056C0.446,-0.056 0.455,-0.074 0.456,-0.111L0.458,-0.162L0.459,-0.223L0.459,-0.299C0.459,-0.334 0.457,-0.359 0.454,-0.372C0.448,-0.397 0.435,-0.417 0.415,-0.431C0.393,-0.446 0.368,-0.454 0.34,-0.454C0.287,-0.454 0.248,-0.435 0.225,-0.397C0.209,-0.371 0.201,-0.327 0.201,-0.264L0.201,-0.131C0.201,-0.102 0.203,-0.082 0.207,-0.071C0.211,-0.06 0.218,-0.055 0.229,-0.055C0.234,-0.055 0.242,-0.056 0.251,-0.059C0.26,-0.062 0.268,-0.063 0.274,-0.063C0.295,-0.063 0.305,-0.052 0.305,-0.029C0.305,-0.007 0.292,0.004 0.265,0.004C0.26,0.004 0.242,0.002 0.213,-0.002C0.198,-0.004 0.182,-0.005 0.164,-0.005C0.15,-0.005 0.131,-0.004 0.108,-0.001C0.079,0.002 0.062,0.004 0.058,0.004C0.03,0.004 0.016,-0.007 0.016,-0.03C0.016,-0.051 0.027,-0.062 0.048,-0.062C0.051,-0.062 0.057,-0.061 0.067,-0.059C0.076,-0.057 0.084,-0.056 0.093,-0.056C0.113,-0.056 0.123,-0.075 0.124,-0.114L0.126,-0.225L0.126,-0.346L0.124,-0.381C0.123,-0.404 0.12,-0.419 0.116,-0.428C0.111,-0.436 0.104,-0.44 0.093,-0.44C0.088,-0.44 0.082,-0.439 0.073,-0.438C0.064,-0.436 0.057,-0.435 0.052,-0.435C0.028,-0.435 0.016,-0.446 0.016,-0.467C0.016,-0.489 0.031,-0.5 0.061,-0.5C0.065,-0.5 0.068,-0.5 0.071,-0.499L0.108,-0.495C0.119,-0.495 0.128,-0.496 0.136,-0.497C0.153,-0.498 0.162,-0.499 0.163,-0.499C0.182,-0.499 0.192,-0.489 0.192,-0.469Z" style="fill-rule:nonzero;"/>
            </g>
        </g>
    </g>
</svg>
