<svg xmlns="http://www.w3.org/2000/svg" xmlns:xlink="http://www.w3.org/1999/xlink" width="579" height="168" fill-rule="evenodd" stroke-linecap="round" stroke-miterlimit="10" xmlns:v="https://vecta.io/nano"><style><![CDATA[.B{fill-rule:nonzero}.C{stroke-width:2}.D{stroke-linejoin:round}.E{stroke-miterlimit:1.5}]]></style><g fill="#8f8f8f" class="B"><path d="M88.868 35.832l1.63.208v14.348h-1.422l-.152-1.346c-.379.531-.815.929-1.308 1.175-.493.265-1.024.398-1.611.398-1.289 0-2.255-.474-2.919-1.44-.644-.948-.967-2.237-.967-3.886 0-1.042.152-1.952.474-2.767s.777-1.44 1.384-1.895 1.327-.682 2.161-.682c.569 0 1.099.095 1.535.303a3.19 3.19 0 0 1 1.194.891v-5.307zm-2.312 5.421c-.853 0-1.516.341-1.971 1.024-.455.663-.682 1.668-.682 3.014 0 1.327.208 2.312.625 2.995.417.663 1.024 1.005 1.82 1.005.967 0 1.82-.531 2.521-1.611v-5.118c-.284-.417-.607-.739-1.005-.967a2.59 2.59 0 0 0-1.308-.341zm9.142 4.606c.019.758.171 1.384.436 1.895.284.512.644.891 1.08 1.137s.929.36 1.478.36c.493 0 .967-.076 1.384-.227a5.77 5.77 0 0 0 1.346-.701l.758 1.08a5.31 5.31 0 0 1-1.649.891 5.73 5.73 0 0 1-1.857.322c-.986 0-1.82-.227-2.54-.663-.701-.436-1.232-1.061-1.611-1.876-.36-.796-.531-1.725-.531-2.786 0-1.042.171-1.952.55-2.767a4.41 4.41 0 0 1 1.554-1.895c.682-.455 1.459-.682 2.35-.682.872 0 1.611.19 2.237.607.625.398 1.099.967 1.422 1.725.341.758.512 1.649.512 2.672l-.038.91h-6.88zm2.767-4.587c-.777 0-1.422.284-1.914.834-.512.569-.777 1.384-.853 2.483h5.345c-.019-1.08-.265-1.895-.72-2.464s-1.061-.853-1.857-.853z"/><use xlink:href="#B"/></g><path d="M136.149 39.945c.588 0 1.061.19 1.422.607.379.398.569 1.137.569 2.218v7.619h-1.516v-7.354c0-.493-.019-.853-.057-1.099s-.095-.417-.208-.55c-.114-.114-.284-.171-.531-.171-.663 0-1.27.398-1.782 1.232v7.942h-1.535v-7.354l-.038-1.099c-.038-.246-.114-.417-.227-.55-.095-.114-.284-.171-.512-.171-.682 0-1.27.398-1.801 1.232v7.942h-1.497V40.154h1.27l.114 1.194c.303-.455.625-.796.986-1.042.341-.246.758-.36 1.232-.36.967 0 1.592.436 1.857 1.346.303-.436.625-.777.986-1.005s.777-.341 1.27-.341z" class="B"/><use xlink:href="#C" class="B"/><path d="M151.743 52.492h9.723v1.422h-9.723z" class="B"/><use xlink:href="#B" x="58.319" class="B"/><use xlink:href="#D" class="B"/><use xlink:href="#E" class="B"/><use xlink:href="#F" class="B"/><path d="M219.179 49.877c-.341.227-.777.398-1.27.531a5.9 5.9 0 0 1-1.478.208c-.72 0-1.327-.133-1.857-.398-.512-.265-.891-.625-1.175-1.099-.265-.455-.398-.986-.398-1.592v-6.103h-2.35v-1.27H213v-2.331l1.63-.19v2.521h3.525l-.19 1.27h-3.336v6.084c0 .569.152 1.024.455 1.308s.815.436 1.497.436 1.346-.171 1.952-.493l.644 1.118zm7.418-14.519c.341 0 .644.114.853.322a1.1 1.1 0 0 1 .341.815c0 .341-.114.625-.341.834-.208.227-.512.341-.853.341a1.16 1.16 0 0 1-.853-.341c-.228-.227-.322-.493-.322-.834 0-.322.095-.588.322-.815a1.22 1.22 0 0 1 .853-.322zm-3.393 4.795h4.682V49.1h2.9v1.289h-7.676V49.1h3.146v-7.657h-3.052v-1.289z" class="B"/><use xlink:href="#G" class="B"/><use xlink:href="#E" x="58.32" class="B"/><use xlink:href="#H" class="B"/><g fill="#4db358" class="B"><use xlink:href="#I"/><use xlink:href="#J"/><use xlink:href="#K"/><use xlink:href="#L"/><use xlink:href="#M"/><path d="M326.702 51.602h9.723v2.407h-9.723z"/><use xlink:href="#J" x="58.32"/></g><use xlink:href="#N" class="B"/><g fill="#267bd9" class="B"><use xlink:href="#I" x="104.973"/><use xlink:href="#J" x="104.977"/><use xlink:href="#K" x="104.975"/><use xlink:href="#L" x="104.973"/><use xlink:href="#M" x="104.974"/><path d="M431.675 51.602h9.723v2.407h-9.723zm15.132-10.482a3.56 3.56 0 0 1 1.175-1.024 3.05 3.05 0 0 1 1.459-.379c1.289 0 2.255.493 2.881 1.44.625.967.929 2.312.929 4.037 0 1.08-.152 2.028-.474 2.862s-.796 1.478-1.403 1.952c-.625.474-1.365.701-2.255.701-.512 0-.986-.095-1.44-.322a2.89 2.89 0 0 1-1.099-.929l-.133.929h-2.71V35.965l3.071-.322v5.478zm1.516 7.354c1.175 0 1.763-1.08 1.763-3.241 0-.834-.057-1.478-.19-1.952s-.322-.815-.55-1.005c-.246-.19-.531-.284-.872-.284-.625 0-1.194.398-1.668 1.194v4.359c.19.303.417.55.663.701a1.6 1.6 0 0 0 .853.227z"/></g><use xlink:href="#N" x="104.974" class="B"/><g fill="#f2af0d" class="B"><use xlink:href="#I" x="209.95"/><use xlink:href="#J" x="209.951"/><use xlink:href="#K" x="209.949"/><use xlink:href="#L" x="209.947"/><use xlink:href="#M" x="209.947"/><path d="M536.649 51.602h9.723v2.407h-9.723zm17.539-3.298c.379 0 .758-.076 1.137-.227.36-.152.758-.379 1.156-.663l1.365 1.952c-.474.417-1.042.739-1.706.986-.644.246-1.365.36-2.123.36-1.099 0-2.047-.227-2.843-.663-.815-.455-1.422-1.099-1.857-1.914-.417-.815-.644-1.763-.644-2.843 0-1.061.227-2.028.663-2.881a4.82 4.82 0 0 1 1.876-1.971c.815-.474 1.763-.72 2.862-.72.777 0 1.459.114 2.066.322.625.227 1.194.55 1.706.986l-1.327 1.839c-.739-.512-1.516-.777-2.312-.777-.739 0-1.308.265-1.706.777-.417.512-.625 1.308-.625 2.426 0 1.08.208 1.857.625 2.312.398.474.967.701 1.687.701z"/></g><use xlink:href="#O" class="B"/><path d="M574.922 40.457a1.59 1.59 0 0 1 .208-.777 1.37 1.37 0 0 1 .569-.569 1.55 1.55 0 0 1 .796-.208c.284 0 .569.076.796.208a1.37 1.37 0 0 1 .569.569 1.41 1.41 0 0 1 .208.777c0 .284-.057.55-.208.796-.133.246-.322.436-.569.588-.227.133-.512.208-.796.208a1.56 1.56 0 0 1-.796-.208c-.246-.152-.436-.341-.569-.588a1.66 1.66 0 0 1-.208-.796zm0 7.013a1.59 1.59 0 0 1 .208-.777 1.37 1.37 0 0 1 .569-.569c.227-.152.493-.208.796-.208.284 0 .55.057.796.208a1.37 1.37 0 0 1 .569.569 1.41 1.41 0 0 1 .208.777c0 .303-.057.569-.208.796-.133.246-.322.436-.569.588-.227.133-.512.208-.796.208a1.56 1.56 0 0 1-.796-.208c-.246-.152-.436-.341-.569-.588a1.55 1.55 0 0 1-.208-.796zm-431.67 20.375a1.68 1.68 0 0 1 .208-.853 1.65 1.65 0 0 1 .625-.625c.246-.152.55-.227.853-.227a1.78 1.78 0 0 1 .891.227c.265.152.455.36.607.625a1.69 1.69 0 0 1 .227.853 1.71 1.71 0 0 1-.227.872 1.6 1.6 0 0 1-.607.625 1.78 1.78 0 0 1-.891.227c-.303 0-.607-.076-.853-.227a1.65 1.65 0 0 1-.625-.625c-.152-.265-.208-.55-.208-.872zm7.771 0a1.69 1.69 0 0 1 .227-.853 1.48 1.48 0 0 1 .607-.625 1.71 1.71 0 0 1 .872-.227 1.71 1.71 0 0 1 .872.227 1.65 1.65 0 0 1 .625.625 1.89 1.89 0 0 1 .208.853 1.91 1.91 0 0 1-.208.872 1.65 1.65 0 0 1-.625.625 1.71 1.71 0 0 1-.872.227 1.71 1.71 0 0 1-.872-.227 1.49 1.49 0 0 1-.607-.625 1.71 1.71 0 0 1-.227-.872zm-15.561 0a1.69 1.69 0 0 1 .227-.853 1.74 1.74 0 0 1 .607-.625 1.71 1.71 0 0 1 .872-.227 1.67 1.67 0 0 1 .872.227 1.65 1.65 0 0 1 .625.625 1.69 1.69 0 0 1 .227.853 1.71 1.71 0 0 1-.227.872 1.65 1.65 0 0 1-.625.625c-.246.152-.55.227-.872.227a1.71 1.71 0 0 1-.872-.227 1.76 1.76 0 0 1-.607-.625 1.71 1.71 0 0 1-.227-.872z" class="B"/><path d="M82.111 117.343l.663-1.251 8.586 4.378v1.668l-8.586 4.378-.663-1.251 7.714-3.961-7.714-3.961zm9.723 0l.644-1.251 8.605 4.378v1.668l-8.586 4.378-.663-1.251 7.714-3.961-7.714-3.961zm9.723 0l.644-1.251 8.605 4.378v1.668l-8.586 4.378-.663-1.251 7.714-3.961-7.714-3.961z" fill="#8f8f8f" class="B"/><path d="M134.798 116.945c.588 0 1.061.19 1.422.607.379.398.569 1.137.569 2.218v7.619h-1.516v-7.354c0-.493-.019-.853-.057-1.099s-.095-.417-.208-.55c-.114-.114-.284-.171-.531-.171-.663 0-1.27.398-1.782 1.232v7.942h-1.535v-7.354l-.038-1.099c-.038-.246-.114-.417-.227-.55-.095-.114-.284-.171-.512-.171-.682 0-1.27.398-1.801 1.232v7.942h-1.497v-10.235h1.27l.114 1.194c.303-.455.625-.796.986-1.042.341-.246.758-.36 1.232-.36.967 0 1.592.436 1.857 1.346.303-.436.625-.777.986-1.005s.777-.341 1.27-.341z" class="B"/><use xlink:href="#C" x="-1.351" y="77" class="B"/><path d="M150.392 129.492h9.723v1.422h-9.723zm18.696-16.66a6.93 6.93 0 0 1 1.459.133c.455.095.891.227 1.308.417l-.512 1.213c-.644-.284-1.384-.417-2.199-.417-1.44 0-2.161.55-2.161 1.687v2.085h3.469l-.171 1.289h-3.298v8.15h-1.63v-8.15h-2.445v-1.289h2.445v-2.047a2.75 2.75 0 0 1 .493-1.611 3 3 0 0 1 1.327-1.08c.569-.265 1.194-.379 1.914-.379z" class="B"/><use xlink:href="#D" x="-1.351" y="77" class="B"/><use xlink:href="#P" class="B"/><use xlink:href="#F" x="-1.351" y="77" class="B"/><path d="M217.828 126.877c-.341.227-.777.398-1.27.531a5.9 5.9 0 0 1-1.478.208c-.72 0-1.327-.133-1.857-.398-.512-.265-.891-.625-1.175-1.099-.265-.455-.398-.986-.398-1.592v-6.103h-2.35v-1.27h2.35v-2.331l1.63-.19v2.521h3.525l-.19 1.27h-3.336v6.084c0 .569.152 1.024.455 1.308s.815.436 1.497.436 1.346-.171 1.952-.493l.644 1.118zm7.418-14.519c.341 0 .644.114.853.322a1.1 1.1 0 0 1 .341.815c0 .341-.114.625-.341.834-.208.227-.512.341-.853.341a1.16 1.16 0 0 1-.853-.341c-.228-.227-.322-.493-.322-.834 0-.322.095-.588.322-.815a1.22 1.22 0 0 1 .853-.322zm-3.393 4.795h4.682v8.946h2.9v1.289h-7.676V126.1h3.146v-7.657h-3.052v-1.289z" class="B"/><use xlink:href="#G" x="-1.351" y="77" class="B"/><use xlink:href="#P" x="58.32" class="B"/><use xlink:href="#H" x="-1.351" y="77" class="B"/><g fill="#4db358" class="B"><path d="M272.982 118.405h-2.18l-.379-5.44h2.919l-.36 5.44zm15.398 8.984h-3.184v-5.667h-3.26v5.667h-3.203v-13.476h3.203v5.174h3.26v-5.174h3.184v13.476z"/><use xlink:href="#M" x="-24.68" y="77"/><use xlink:href="#K" x="10.314" y="77"/><use xlink:href="#K" x="21.977" y="77"/><path d="M330.222 116.718c1.042 0 1.933.227 2.691.682s1.327 1.08 1.725 1.914c.398.815.588 1.782.588 2.881 0 1.156-.19 2.142-.588 2.957-.398.834-.986 1.459-1.725 1.914-.758.436-1.649.644-2.691.644-1.061 0-1.952-.208-2.71-.644s-1.327-1.061-1.725-1.895c-.379-.815-.588-1.801-.588-2.957 0-1.099.208-2.047.607-2.881.398-.815.967-1.459 1.725-1.914.758-.474 1.649-.701 2.691-.701zm0 2.274c-.625 0-1.099.265-1.403.777s-.455 1.327-.455 2.445c0 1.137.152 1.971.455 2.483s.758.758 1.403.758c.625 0 1.099-.246 1.403-.777.284-.512.436-1.346.436-2.483 0-1.099-.152-1.914-.455-2.426a1.5 1.5 0 0 0-1.384-.777zm10.033-5.08h3.26l-.398 8.51h-2.464l-.398-8.51zm1.63 10.292a1.83 1.83 0 0 1 .891.227 1.85 1.85 0 0 1 .625.644 1.79 1.79 0 0 1 .246.891 1.78 1.78 0 0 1-.246.872 1.85 1.85 0 0 1-.625.644 1.83 1.83 0 0 1-.891.227 1.78 1.78 0 0 1-.891-.227 2.09 2.09 0 0 1-.644-.644 1.76 1.76 0 0 1-.227-.872 1.78 1.78 0 0 1 .227-.891 2.09 2.09 0 0 1 .644-.644 1.78 1.78 0 0 1 .891-.227zm12.744-5.799h-2.18l-.379-5.44h2.919l-.36 5.44z"/></g><use xlink:href="#N" x="10.313" y="77" class="B"/><g fill="#267bd9" class="B"><use xlink:href="#Q"/><path d="M398.026 125.55a2.03 2.03 0 0 1 .303-1.08c.19-.322.455-.588.796-.796a2.09 2.09 0 0 1 1.08-.284 2.19 2.19 0 0 1 1.08.284c.322.208.588.474.796.796a2.19 2.19 0 0 1 .284 1.08 2.09 2.09 0 0 1-.284 1.08c-.208.322-.474.588-.796.796a2.19 2.19 0 0 1-1.08.284 2.09 2.09 0 0 1-1.08-.284c-.341-.208-.607-.474-.796-.796-.208-.322-.303-.682-.303-1.08z"/><use xlink:href="#R"/><path d="M427.095 122.252h1.365v2.312h-1.365v2.824h-2.938l-.019-2.824h-5.572v-2.047l3.734-8.946 2.616.967-3.184 7.714h2.426l.341-3.241h2.597v3.241z"/></g><use xlink:href="#N" x="80.296" y="77" class="B"/><g fill="#f2af0d" class="B"><path d="M461.744 113.192c-.625 0-1.099.095-1.403.265-.303.19-.436.512-.398.967l.303 2.881.038.474c0 .853-.265 1.497-.796 1.933s-1.289.72-2.274.872c1.024.152 1.782.436 2.293.853s.777 1.042.777 1.914c0 .152-.019.322-.038.512l-.303 2.881v.152c0 .417.152.682.455.834.303.171.758.246 1.346.246v2.142c-1.099 0-1.99-.114-2.672-.303s-1.194-.512-1.516-.948c-.322-.417-.493-1.005-.493-1.725 0-.133.019-.341.038-.625l.303-2.767v-.265c0-.588-.227-1.024-.701-1.27-.474-.265-1.118-.379-1.971-.379v-2.502c.834 0 1.497-.114 1.971-.379.474-.246.701-.682.701-1.27v-.265l-.303-2.748-.038-.663c0-.72.171-1.289.493-1.725.322-.417.834-.739 1.516-.929s1.573-.303 2.672-.303v2.142z"/><use xlink:href="#R" x="58.321"/><use xlink:href="#S"/><path d="M504.705 113.571c.986 0 1.82.19 2.521.531s1.232.815 1.592 1.403a3.62 3.62 0 0 1 .531 1.933c0 .739-.171 1.44-.493 2.142-.341.682-.891 1.459-1.668 2.293-.777.853-1.857 1.914-3.279 3.165h5.762l-.341 2.35h-8.946v-2.18l3.582-3.582c.796-.872 1.365-1.611 1.725-2.218.36-.588.531-1.156.531-1.706s-.152-.986-.474-1.289c-.322-.322-.758-.474-1.327-.474-.512 0-.948.114-1.327.322s-.758.55-1.099 1.042l-1.876-1.422c.531-.739 1.156-1.308 1.914-1.706.739-.398 1.63-.607 2.672-.607z"/><use xlink:href="#S" x="34.989"/><use xlink:href="#Q" x="151.626"/><path d="M548.591 111.05c1.099 0 2.009.114 2.691.303s1.175.512 1.497.948c.341.417.493 1.005.493 1.725 0 .133-.019.341-.038.625l-.284 2.767c-.019.057-.019.152-.019.265 0 .588.246 1.024.701 1.27.474.265 1.137.379 1.971.379v2.502c-.834 0-1.478.114-1.952.379-.474.246-.72.682-.72 1.27 0 .114 0 .208.019.265l.284 2.748.038.663c0 .72-.171 1.289-.493 1.725s-.834.739-1.516.929c-.663.19-1.573.303-2.672.303v-2.142c.644 0 1.118-.095 1.422-.265.303-.19.436-.512.379-.967l-.303-2.881c-.019-.171-.019-.322-.019-.474 0-.872.265-1.516.796-1.933.531-.436 1.27-.72 2.255-.872-1.024-.152-1.782-.436-2.293-.853s-.758-1.042-.758-1.914l.019-.512.303-2.881c.019-.038.019-.095.019-.152 0-.417-.152-.682-.455-.834-.303-.171-.758-.246-1.365-.246v-2.142z"/></g><use xlink:href="#O" x="-1.351" y="77" class="B"/><g fill="none"><g stroke="#4db358" class="C"><path d="M304.5 63.749l4.5-3 4.5 3"/><path d="M309 100.547V60.749" class="D E"/></g><g stroke="#267bd9" class="C"><path d="M401.5 63.749l4.5-3 4.5 3"/><path d="M406 100.547V60.749" class="D E"/></g><g stroke="#f2af0d" class="C"><path d="M508.5 63.749l4.5-3 4.5 3"/><path d="M513 100.547V60.749" class="D E"/></g><path d="M268.002 131.5v11.047h289.001V131.5M268.002 34.059V23.012h289.001v11.047" stroke="#585858" stroke-width=".5" class="D E"/></g><g class="B"><path d="M372.543 158.507l4.34-.14-1.44-4.88-.52-2.06-.44 1.26-1.94 5.82zm-.44 1.34l-1.04 3.36c-.06.18-.16.3-.32.4a.72.72 0 0 1-.5.06.61.61 0 0 1-.38-.32.63.63 0 0 1-.08-.5l.96-3.1c-.14-.12-.22-.28-.24-.46s.04-.34.16-.48.28-.2.46-.22l.68-2 .78-2.32.66-1.98.62-1.8.38-1 .14-.34c.02-.06.04-.1.06-.12.02-.04.04-.08.06-.1a.34.34 0 0 1 .12-.12c.14-.14.32-.18.52-.16.16.02.3.1.4.24.04.02.06.06.08.1s.04.08.06.1c.02.04.02.1.04.16l.1.36.3 1.14.6 2.42 1.58 5.26c.26.1.4.3.4.6a.64.64 0 0 1-.06.28c.68 1.74 1.4 3.08 2.16 4 .12.14.18.3.16.48a.77.77 0 0 1-.22.46c-.14.1-.32.16-.5.14a.61.61 0 0 1-.44-.24c-.86-1.04-1.68-2.52-2.44-4.46l-5.26.16zm9.82.46v-2.06-.76l-.04-.86c-.02-.18-.02-.44-.04-.74s-.06-.58-.1-.84l-.12-.76a.64.64 0 0 1 .1-.5.69.69 0 0 1 .42-.28c.16-.02.34 0 .5.1a.63.63 0 0 1 .26.44c.18.82.28 1.78.32 2.88l.7-.9c1.1-1.26 2.26-2.16 3.48-2.66a.67.67 0 0 1 .52-.02c.16.08.28.2.36.36.06.18.06.34 0 .5-.08.18-.2.3-.36.36-1.04.44-2.04 1.22-3 2.32-1.02 1.18-1.56 2.26-1.66 3.28-.02.06-.02.12-.02.18v1.72l-.02.68v.3.04c-.02.02-.02.06-.02.08l-.04.12a.56.56 0 0 1-.32.32c-.14.08-.26.1-.38.06-.14-.06-.22-.1-.28-.14a.54.54 0 0 1-.16-.14c-.04-.06-.08-.12-.1-.2 0-.02 0-.06-.02-.1v-.14l-.02-1.42.04-1.22zm13.38-6.54l.08 1.44.12 2.34.04 2.3-.12 3.48c-.12 1.2-.34 2.06-.66 2.6-.42.74-1.12 1.16-2.08 1.26-.7.1-1.42 0-2.18-.26a.61.61 0 0 1-.38-.32c-.08-.18-.1-.34-.02-.52.06-.18.16-.3.34-.38.16-.08.32-.08.5-.02.56.18 1.08.26 1.58.2.54-.06.9-.28 1.12-.64s.36-1.04.46-2.04l.04-.44c-.94.58-1.88.64-2.86.18-.66-.3-1.18-.74-1.6-1.32a4.7 4.7 0 0 1-.82-1.86c-.14-.66-.18-1.32-.12-1.98.04-.66.16-1.26.38-1.84a4.61 4.61 0 0 1 .94-1.58 2.66 2.66 0 0 1 1.44-.84c.82-.18 1.66.08 2.5.76-.02-.18-.02-.34-.02-.48 0-.18.06-.32.18-.46s.28-.2.46-.22c.18 0 .32.06.46.18s.2.28.22.46zm-1.22 2.48c-.86-1.1-1.62-1.56-2.32-1.42-.26.06-.52.22-.78.48-.26.28-.46.64-.64 1.1-.18.48-.28.98-.3 1.52a5.05 5.05 0 0 0 .12 1.56 3.26 3.26 0 0 0 .6 1.34c.28.42.64.72 1.08.92.78.38 1.54.14 2.26-.68a.53.53 0 0 1 .12-.1v-1.1l-.12-3.58c0-.02 0-.02-.02-.04zm3.8-2.38c-.02.14-.04.46-.08.96l-.12 1.26-.08 1.42.02 1.48c.06 1.04.22 1.84.5 2.38.28.52.66.78 1.14.8.28 0 .56-.16.84-.5.3-.34.58-.86.84-1.56.36-.9.66-2.08.88-3.52l.24-1.62.08-.62c.02-.1.02-.16.02-.2 0-.02 0-.06.02-.08v-.04l.04-.12c.02-.06.06-.1.1-.14a.65.65 0 0 1 .56-.22c.22.02.4.12.52.3.02.06.06.12.08.18.02.04.02.08.02.12v.06c0 3.22.24 6 .7 8.38.04.18.02.34-.08.48-.1.16-.26.26-.44.3-.18.02-.36-.02-.5-.1-.16-.12-.26-.26-.28-.44-.2-.94-.36-1.9-.46-2.88-.06.22-.14.42-.22.62-.32.82-.68 1.48-1.06 1.94-.56.66-1.2 1-1.94.98-1.02-.02-1.78-.54-2.3-1.54-.38-.7-.6-1.66-.66-2.88-.04-.4-.04-.92-.02-1.58l.08-1.52.12-1.3.08-.92a.65.65 0 0 1 .24-.44.66.66 0 0 1 .5-.16c.18.02.32.08.46.22a.66.66 0 0 1 .16.5z"/><use xlink:href="#T"/><use xlink:href="#U"/><path d="M427.463 157.087c.22-.42.46-.8.72-1.16.58-.86 1.18-1.5 1.78-1.9.84-.56 1.62-.62 2.36-.18.48.28.86.88 1.14 1.82.22.68.38 1.54.5 2.6.18 1.54.24 3.08.22 4.62 0 .18-.06.32-.2.46-.14.12-.3.18-.46.18a.58.58 0 0 1-.46-.2.65.65 0 0 1-.2-.48 33.54 33.54 0 0 0-.22-4.42c-.1-1-.26-1.78-.44-2.36-.18-.62-.38-.98-.56-1.1-.26-.14-.58-.1-.96.16-.44.3-.92.82-1.42 1.56-.44.66-.82 1.34-1.16 2.06-.34.74-.52 1.28-.56 1.62-.04.24-.06.58-.08 1.02l-.06 1.14c0 .02 0 .06-.02.08v.04c0 .06-.02.1-.04.16-.04.06-.08.12-.14.18-.18.18-.38.24-.62.18-.18-.04-.32-.14-.42-.3l-.06-.16-.02-.14c-.02-.02-.02-.04-.02-.08s0-.14.02-.28l.02-.72.04-1.12.02-1.32v-.86-.92c-.02-.16-.02-.44-.04-.82l-.04-.92-.08-.78-.14-.86a.64.64 0 0 1 .1-.5.69.69 0 0 1 .42-.28c.16-.02.34.02.5.1a.63.63 0 0 1 .26.44c.18.9.3 2.06.32 3.44z"/><use xlink:href="#V"/><use xlink:href="#W"/><use xlink:href="#X"/><path d="M373.389 9.11v.9l.04 2.14.02 2.2a.58.58 0 0 1-.2.46c-.14.12-.3.18-.48.18a.58.58 0 0 1-.46-.2c-.12-.14-.18-.3-.18-.48.02-.46 0-1.16-.02-2.12l-.04-2.18-.08-8.96c-.02-.18.04-.34.16-.48s.28-.2.46-.22.34.04.48.16.2.28.22.46a4.52 4.52 0 0 1 .02.52c.3-.3.62-.56.98-.8.44-.28.94-.48 1.52-.6.56-.1 1.12-.12 1.66-.04.6.1 1.14.32 1.6.66.46.36.8.86.98 1.48.18.7.2 1.38.06 2a4.53 4.53 0 0 1-.8 1.76c-.4.56-.84 1.02-1.34 1.4-.5.4-1.02.72-1.56.94-.64.28-1.66.56-3.04.82zm.02-1.34c1.12-.22 1.96-.46 2.5-.68.98-.42 1.78-1.08 2.38-1.94.58-.86.76-1.74.5-2.6-.18-.68-.68-1.08-1.5-1.2s-1.58.04-2.26.46c-.62.4-1.14 1-1.54 1.8-.02.04-.06.08-.08.1v4.06zm12.86 4.38c-.38-.9-.66-1.5-.86-1.76a2 2 0 0 0-1.7-.78c-.7.02-1.24.34-1.64.96-.54.82-.6 1.52-.14 2.1.2.26.48.44.88.56.36.14.8.16 1.28.08.58-.12 1.32-.5 2.18-1.16zm-3.66-6.66c1.14-1.06 2.18-1.42 3.1-1.06.74.28 1.3 1.02 1.7 2.2l.3 1.16c.1.42.18.86.24 1.32l.14 1.16.08 1.12.06.76c0 .02.04.4.14 1.1l.06.62c.02.24.04.42.02.52l-.06.18c-.06.18-.18.3-.34.36-.26.14-.52.1-.74-.1a.72.72 0 0 1-.14-.2c-.04-.08-.08-.2-.12-.34l-.08-.28c-.02-.1-.04-.16-.06-.18l-.14-.4c-.86.64-1.68 1.02-2.44 1.16-.72.14-1.38.1-1.98-.1-.62-.2-1.1-.54-1.46-1.02a2.53 2.53 0 0 1-.56-1.7c0-.66.2-1.3.62-1.92.42-.64.98-1.1 1.66-1.36s1.38-.28 2.08-.1c.68.2 1.28.6 1.76 1.2.08.1.16.24.26.38-.14-1.22-.32-2.18-.56-2.9-.26-.8-.58-1.28-.92-1.42-.4-.16-.98.1-1.74.8-.14.14-.3.2-.46.18-.18-.02-.34-.08-.46-.22-.14-.14-.2-.3-.18-.48s.08-.32.22-.44zm6.54 6.16V9.59v-.76l-.04-.86c-.02-.18-.02-.44-.04-.74s-.06-.58-.1-.84l-.12-.76a.64.64 0 0 1 .1-.5.69.69 0 0 1 .42-.28c.16-.02.34 0 .5.1a.63.63 0 0 1 .26.44c.18.82.28 1.78.32 2.88l.7-.9c1.1-1.26 2.26-2.16 3.48-2.66a.67.67 0 0 1 .52-.02c.16.08.28.2.36.36.06.18.06.34 0 .5-.08.18-.2.3-.36.36-1.04.44-2.04 1.22-3 2.32-1.02 1.18-1.56 2.26-1.66 3.28-.02.06-.02.12-.02.18v1.72l-.02.68v.3.04c-.02.02-.02.06-.02.08l-.04.12a.56.56 0 0 1-.32.32c-.14.08-.26.1-.38.06-.14-.06-.22-.1-.28-.14a.54.54 0 0 1-.16-.14c-.04-.06-.08-.12-.1-.2 0-.02 0-.06-.02-.1v-.14l-.02-1.42.04-1.22zm12.7.5c-.38-.9-.66-1.5-.86-1.76a2 2 0 0 0-1.7-.78c-.7.02-1.24.34-1.64.96-.54.82-.6 1.52-.14 2.1.2.26.48.44.88.56.36.14.8.16 1.28.08.58-.12 1.32-.5 2.18-1.16zm-3.66-6.66c1.14-1.06 2.18-1.42 3.1-1.06.74.28 1.3 1.02 1.7 2.2l.3 1.16c.1.42.18.86.24 1.32l.14 1.16.08 1.12.06.76c0 .02.04.4.14 1.1l.06.62c.02.24.04.42.02.52l-.06.18c-.06.18-.18.3-.34.36-.26.14-.52.1-.74-.1a.72.72 0 0 1-.14-.2c-.04-.08-.08-.2-.12-.34l-.08-.28c-.02-.1-.04-.16-.06-.18l-.14-.4c-.86.64-1.68 1.02-2.44 1.16-.72.14-1.38.1-1.98-.1-.62-.2-1.1-.54-1.46-1.02a2.53 2.53 0 0 1-.56-1.7c0-.66.2-1.3.62-1.92.42-.64.98-1.1 1.66-1.36s1.38-.28 2.08-.1c.7.2 1.28.6 1.76 1.2.08.1.16.24.26.38-.14-1.22-.32-2.18-.56-2.9-.26-.8-.58-1.28-.92-1.42-.4-.16-.98.1-1.74.8-.14.14-.3.2-.46.18-.18-.02-.34-.08-.46-.22-.14-.14-.2-.3-.18-.48s.08-.32.22-.44zm.54-2.54l.96-1.1 1.08-1.12c.14-.12.3-.18.48-.18.18.02.32.08.44.22s.18.28.18.46c-.02.18-.08.34-.22.46l-.96 1.02-1 1.12c-.12.14-.28.2-.44.22-.18.02-.34-.04-.48-.18-.14-.12-.2-.28-.22-.46s.04-.32.18-.46z"/><use xlink:href="#T" x="-0.234" y="-148.657"/><use xlink:href="#U" x="-0.234" y="-148.657"/><use xlink:href="#V" x="-9.074" y="-148.657"/><path d="M433.369 11.65V9.59v-.76l-.04-.86c-.02-.18-.02-.44-.04-.74s-.06-.58-.1-.84l-.12-.76c-.04-.18 0-.34.1-.5a.69.69 0 0 1 .42-.28c.16-.02.34 0 .5.1a.63.63 0 0 1 .26.44c.18.82.28 1.78.32 2.88l.7-.9c1.1-1.26 2.26-2.16 3.48-2.66a.67.67 0 0 1 .52-.02c.16.08.28.2.36.36.06.18.06.34 0 .5-.08.18-.2.3-.36.36-1.04.44-2.04 1.22-3 2.32-1.02 1.18-1.56 2.26-1.66 3.28-.02.06-.02.12-.02.18v1.72l-.02.68v.3.04c-.02.02-.02.06-.02.08l-.04.12a.56.56 0 0 1-.32.32c-.14.08-.26.1-.38.06-.14-.06-.22-.1-.28-.14s-.12-.08-.16-.14-.08-.12-.1-.2c0-.02 0-.06-.02-.1v-.14l-.02-1.42.04-1.22z"/><use xlink:href="#W" x="-2.194" y="-148.657"/><use xlink:href="#X" x="-2.194" y="-148.657"/></g><g transform="matrix(.705263 0 0 1 -393.537 -411.941)"><path d="M558 446h95v23h-95z" fill="#8d33cc"/><g fill="#fff" class="B"><use xlink:href="#Y"/><path d="M581.721 462.042v-9.084h5.7v1.92h-3.029v1.596h2.978v1.836h-2.978v1.716h3.012v2.016h-5.683zm6.772 0v-9.084h5.615v1.92h-2.944v1.812h2.893v1.848h-2.893v3.504h-2.671zm6.534-9.084h2.739v9.084h-2.739z"/><use xlink:href="#Z"/><path d="M607.074 452.958h2.739v9.084h-2.739zm10.566 5.604a7.03 7.03 0 0 1 .051.816c0 .48-.034.9-.102 1.248-.085.36-.238.66-.476.888s-.579.408-1.004.516c-.442.108-1.021.168-1.736.168-.851 0-1.497-.048-1.94-.168-.459-.108-.783-.3-1.004-.576-.119-.132-.204-.276-.289-.456s-.136-.408-.187-.708a8.47 8.47 0 0 1-.119-1.128l-.034-1.74.034-1.716c.017-.444.068-.804.119-1.08s.102-.504.187-.66.17-.312.289-.444c.221-.276.561-.456.987-.564s1.055-.156 1.872-.156c.732 0 1.31.048 1.753.144s.783.252 1.021.468.391.492.476.828c.085.348.119.756.119 1.236v.372c-.017.132-.017.276-.034.432h-2.501v-.6l-.034-.396-.034-.252-.051-.144c-.051-.156-.289-.228-.715-.228-.221 0-.374.012-.459.048-.102.036-.17.096-.204.18-.034.06-.051.144-.068.216-.017.084-.034.216-.051.384l-.034.72-.017 1.188.017 1.212.034.72.051.396c.017.084.034.168.068.228.034.084.102.132.204.168s.289.048.544.048c.34 0 .544-.072.613-.204.051-.084.085-.168.102-.252l.051-.3c.017-.108.017-.228.034-.372v-.48h2.467zm1.089-5.604h2.739v9.084h-2.739zm10.056 8.496c-.119.144-.238.264-.391.348-.153.096-.357.168-.579.228-.221.072-.493.108-.8.132l-1.072.036c-.834 0-1.463-.048-1.872-.168-.425-.108-.766-.3-.987-.576-.119-.132-.204-.288-.289-.456-.085-.156-.136-.384-.187-.66s-.102-.648-.119-1.104l-.034-1.74.034-1.74a7.64 7.64 0 0 1 .119-1.092c.051-.276.102-.504.187-.66a2.77 2.77 0 0 1 .289-.456 1.95 1.95 0 0 1 .408-.348 2.08 2.08 0 0 1 .561-.24 5.85 5.85 0 0 1 .817-.12l1.072-.036c.817 0 1.446.06 1.872.168s.749.3.97.576a2.77 2.77 0 0 1 .289.456c.085.156.153.384.204.66s.085.648.102 1.092l.034 1.74-.034 1.74c-.017.456-.051.828-.102 1.104s-.119.504-.204.66c-.085.168-.17.324-.289.456zm-2.178-1.5c.017-.06.051-.132.068-.216s.034-.216.051-.396l.034-.72v-1.176-1.212l-.034-.732-.051-.396c-.017-.084-.051-.156-.068-.216-.051-.084-.119-.144-.204-.18s-.238-.048-.459-.048-.374.012-.459.048c-.102.036-.17.096-.204.18a.73.73 0 0 0-.068.216c-.017.084-.034.216-.051.396l-.034.732-.017 1.212.017 1.176.034.72.051.396a.73.73 0 0 0 .068.216c.034.084.102.132.204.168.085.036.238.048.459.048s.374-.012.459-.048.153-.084.204-.168zm-1.804-7.38v-.06l1.548-2.016h2.399v.072l-1.957 2.004h-1.991z"/><use xlink:href="#Z" x="31.41"/></g></g><g transform="matrix(.705263 0 0 1 -393.537 -337.5)"><path d="M558 446h95v23h-95z" fill="#e40df2"/><g fill="#fff" class="B"><path d="M578.914 462.042v-9.084h2.671v7.068h2.756v2.016h-5.428zm6.227 0v-9.084h2.671v7.068h2.756v2.016h-5.428z"/><use xlink:href="#a"/><path d="M606.648 462.042v-5.448h-.102l-1.957 5.448h-1.174l-1.974-5.448h-.102v5.448h-2.433v-9.084h3.777l1.191 3.948h.119l1.327-3.948h3.76l.017 9.084h-2.45z"/><use xlink:href="#a" x="18.853"/><use xlink:href="#Y" x="44.086"/><use xlink:href="#a" x="34.302"/></g></g><defs ><path id="B" d="M112.12 35.832c.531 0 1.024.038 1.459.133.455.095.891.227 1.308.417l-.512 1.213c-.644-.284-1.384-.417-2.199-.417-1.44 0-2.161.55-2.161 1.687v2.085h3.469l-.171 1.289h-3.298v8.15h-1.63v-8.15h-2.445V40.95h2.445v-2.047c0-.607.171-1.156.493-1.611a3 3 0 0 1 1.327-1.08c.569-.265 1.194-.379 1.914-.379z"/><path id="C" d="M145.993 50.464c-.265.758-.588 1.422-.948 1.971-.379.569-.853 1.024-1.44 1.384-.607.379-1.327.588-2.18.682l-.265-1.308c.682-.114 1.232-.284 1.649-.512.417-.246.739-.531.967-.891s.455-.834.663-1.403h-.55l-3.582-10.235h1.744l2.938 8.984 2.9-8.984h1.687l-3.582 10.311z"/><path id="D" d="M177.687 47.413c0 .663.133 1.137.417 1.44s.72.455 1.308.455c.531 0 1.061-.152 1.573-.474.512-.303.91-.682 1.194-1.156v-7.525h1.63v10.235h-1.384l-.133-1.384c-.398.512-.891.91-1.478 1.175-.588.284-1.194.436-1.801.436-.986 0-1.725-.265-2.218-.777-.493-.531-.739-1.27-.739-2.237v-7.449h1.63v7.259z"/><path id="E" d="M187.72 50.389V40.154h1.384l.133 1.422c.417-.512.929-.91 1.535-1.194.625-.303 1.232-.436 1.857-.436.967 0 1.687.246 2.161.777.474.512.701 1.251.701 2.237v7.43h-1.63v-6.236c0-.758-.038-1.346-.114-1.744-.095-.398-.246-.701-.493-.891-.265-.19-.625-.303-1.137-.303a2.63 2.63 0 0 0-1.554.512c-.493.341-.891.739-1.213 1.213v7.449h-1.63z"/><path id="F" d="M204.009 49.195c.91 0 1.801-.284 2.672-.891l.796 1.08c-.455.36-.986.663-1.611.891-.644.227-1.251.341-1.857.341-1.005 0-1.857-.227-2.578-.663-.739-.417-1.289-1.042-1.649-1.839-.379-.796-.569-1.725-.569-2.805 0-1.024.19-1.952.569-2.767a4.67 4.67 0 0 1 1.668-1.914c.72-.455 1.592-.682 2.578-.682 1.308 0 2.445.398 3.431 1.175l-.796 1.099c-.891-.607-1.763-.91-2.654-.91-.607 0-1.118.133-1.573.436s-.815.758-1.08 1.346c-.246.607-.379 1.346-.379 2.218 0 1.308.284 2.293.834 2.938.531.644 1.27.948 2.199.948z"/><path id="G" d="M238.28 39.945c.948 0 1.744.208 2.388.644.663.436 1.156 1.042 1.497 1.839.322.796.493 1.744.493 2.843 0 1.042-.171 1.99-.512 2.786s-.834 1.422-1.497 1.876-1.459.682-2.388.682c-.948 0-1.763-.227-2.407-.663-.663-.436-1.156-1.042-1.497-1.857-.341-.796-.512-1.725-.512-2.805 0-1.061.171-2.009.512-2.805s.853-1.422 1.516-1.876c.663-.436 1.459-.663 2.407-.663zm0 1.327c-.891 0-1.554.322-2.009.986s-.663 1.668-.663 3.033c0 1.346.208 2.331.663 2.995.436.663 1.099.986 1.99.986s1.554-.322 1.99-.986.663-1.668.663-3.014-.227-2.35-.663-3.014-1.099-.986-1.971-.986z"/><path id="H" d="M259.883 43.584c0 1.327.152 2.483.455 3.45.303.986.739 1.876 1.346 2.672.588.796 1.365 1.63 2.35 2.502l-.853.91c-1.137-.929-2.047-1.839-2.767-2.729a10.06 10.06 0 0 1-1.668-2.995c-.379-1.099-.569-2.369-.569-3.81s.19-2.71.569-3.81c.398-1.099.948-2.104 1.668-2.995s1.63-1.801 2.767-2.729l.853.91c-.986.872-1.782 1.725-2.369 2.502-.588.796-1.042 1.687-1.327 2.654-.303.986-.455 2.142-.455 3.469z"/><path id="I" d="M275.414 40.059h3.108l-3.45 10.33h-3.62l-3.469-10.33h3.317l2.009 7.98 2.104-7.98z"/><path id="J" d="M289.124 47.413c0 .379.057.663.152.834.114.19.284.322.531.417l-.625 2.009c-.625-.057-1.156-.19-1.554-.398a2.63 2.63 0 0 1-.986-.948c-.379.455-.872.796-1.478 1.042-.607.227-1.232.341-1.914.341-.701 0-1.308-.133-1.839-.398a3.15 3.15 0 0 1-1.232-1.156c-.284-.493-.417-1.042-.417-1.687 0-.739.19-1.365.588-1.895s.967-.929 1.725-1.194c.758-.284 1.649-.417 2.71-.417h1.384v-.379c0-1.061-.682-1.592-2.028-1.592-.341 0-.777.038-1.308.152a11.44 11.44 0 0 0-1.535.398l-.701-2.047c.644-.246 1.327-.436 2.047-.569s1.384-.208 1.971-.208c1.516 0 2.654.322 3.393.929.758.625 1.118 1.516 1.118 2.729v4.037zm-4.814 1.118c.341 0 .701-.114 1.061-.322.36-.19.625-.474.796-.815v-1.687h-.758c-.834 0-1.459.133-1.876.398-.398.265-.607.644-.607 1.156 0 .398.114.701.36.929s.588.341 1.024.341z"/><path id="K" d="M297.491 47.148c0 .398.114.682.341.872s.569.284.986.284c.474 0 .948-.114 1.459-.322l.739 2.066c-.853.436-1.857.663-2.976.663-1.213 0-2.123-.341-2.729-1.042-.588-.682-.891-1.668-.891-2.9v-8.7h-3.052v-2.104h6.122v11.183z"/><path id="L" d="M306.844 47.129c0 .493.076.815.265 1.024.171.19.436.284.777.284a1.78 1.78 0 0 0 .948-.284 2.64 2.64 0 0 0 .815-.834v-7.259h3.071v10.33h-2.691l-.133-1.213c-.341.493-.796.872-1.365 1.137s-1.156.398-1.801.398c-.986 0-1.725-.265-2.218-.834s-.739-1.346-.739-2.369v-7.449h3.071v7.07z"/><path id="M" d="M318.09 46.124c.095.815.36 1.403.796 1.782s1.005.569 1.687.569c.872 0 1.763-.284 2.654-.853l1.232 1.687c-.512.436-1.118.777-1.82 1.024-.701.265-1.459.379-2.312.379-1.156 0-2.123-.227-2.938-.682-.796-.455-1.403-1.099-1.82-1.933-.398-.815-.607-1.782-.607-2.862 0-1.024.208-1.952.588-2.786.398-.853.986-1.497 1.744-1.99s1.649-.739 2.71-.739c.967 0 1.82.227 2.559.644.72.417 1.289 1.024 1.687 1.82s.588 1.744.588 2.843c0 .417-.019.777-.057 1.099h-6.691zm1.914-4.34c-.569 0-1.024.208-1.346.607-.341.417-.531 1.042-.607 1.876h3.791c-.019-1.649-.625-2.483-1.839-2.483z"/><path id="N" d="M354.899 47.185c.284 0 .569.076.796.208.246.152.436.341.569.569a1.59 1.59 0 0 1 .208.777 3 3 0 0 1-.095.72c-.057.246-.152.512-.284.815l-1.573 3.601h-1.478l.929-3.829a1.68 1.68 0 0 1-.455-.569 1.63 1.63 0 0 1-.171-.739c0-.284.057-.531.19-.777a1.81 1.81 0 0 1 .569-.569c.227-.133.493-.208.796-.208z"/><path id="O" d="M566.538 43.584c0-1.327-.133-2.483-.436-3.469-.303-.967-.739-1.857-1.327-2.654-.607-.777-1.384-1.63-2.388-2.502l.853-.91c1.137.929 2.066 1.839 2.786 2.729s1.27 1.895 1.649 2.995c.398 1.099.588 2.369.588 3.81s-.19 2.71-.588 3.81a9.61 9.61 0 0 1-1.649 2.995c-.72.891-1.649 1.801-2.786 2.729l-.853-.91c.986-.872 1.782-1.706 2.369-2.502a8.86 8.86 0 0 0 1.346-2.672c.284-.967.436-2.123.436-3.45z"/><path id="P" d="M186.369 127.389v-10.235h1.384l.133 1.422c.417-.512.929-.91 1.535-1.194.625-.303 1.232-.436 1.857-.436.967 0 1.687.246 2.161.777.474.512.701 1.251.701 2.237v7.43h-1.63v-6.236c0-.758-.038-1.346-.114-1.744-.095-.398-.246-.701-.493-.891-.265-.19-.625-.303-1.137-.303a2.63 2.63 0 0 0-1.554.512c-.493.341-.891.739-1.213 1.213v7.449h-1.63z"/><path id="Q" d="M387.993 113.571c.948 0 1.763.152 2.445.474.701.303 1.232.72 1.592 1.251.36.512.55 1.099.55 1.725 0 .834-.246 1.516-.72 2.066-.493.531-1.156.929-2.028 1.175 2.123.284 3.184 1.403 3.184 3.336a3.71 3.71 0 0 1-.644 2.085c-.417.625-1.024 1.118-1.82 1.478-.777.379-1.706.55-2.748.55-1.005 0-1.895-.171-2.691-.512s-1.478-.853-2.066-1.497l1.744-1.611a3.53 3.53 0 0 0 2.805 1.27c.682 0 1.232-.171 1.649-.512.398-.341.607-.834.607-1.459 0-.701-.19-1.213-.569-1.535-.398-.322-.967-.474-1.706-.474h-1.232l.36-2.123h.872c.607 0 1.099-.152 1.478-.455.36-.303.55-.739.55-1.308 0-.493-.171-.891-.531-1.194-.36-.284-.834-.436-1.422-.436-.512 0-.986.095-1.422.284-.436.208-.853.493-1.27.872l-1.573-1.63c1.251-1.213 2.786-1.82 4.606-1.82z"/><path id="R" d="M414.219 113.912v11.145h2.521v2.331h-8.757v-2.331h3.241v-8.112l-2.767 1.725-1.308-2.104 4.359-2.654h2.71z"/><path id="S" d="M481.853 123.389a2.28 2.28 0 0 1 1.08.265c.322.19.569.436.758.758s.265.682.265 1.08a3.96 3.96 0 0 1-.152 1.042c-.114.341-.341.872-.682 1.63l-1.403 3.184h-2.047l1.005-4.132c-.303-.19-.531-.436-.701-.739-.152-.303-.227-.644-.227-1.005 0-.398.095-.739.284-1.061.171-.322.436-.569.739-.758a2.28 2.28 0 0 1 1.08-.265z"/><path id="T" d="M406.023 153.987l.12 1.3.14 1.38c.02.14.02.28.02.44l.48-1.04c.42-.82.86-1.38 1.32-1.7a1.65 1.65 0 0 1 1.06-.32c.38.04.74.22 1.06.56.24.26.44.68.62 1.28.1.34.18.74.28 1.2.18-.46.38-.88.6-1.26.38-.72.76-1.28 1.14-1.68.58-.58 1.16-.8 1.76-.7.38.06.72.3.98.7.2.28.36.66.5 1.12.22.74.36 1.7.44 2.9l.1 2.06.02 1.78v1.12c0 .18-.06.34-.18.48-.14.14-.28.2-.46.2s-.34-.06-.48-.18c-.14-.14-.2-.28-.2-.46-.02-.32-.02-.7 0-1.12l-.02-1.74-.08-2.04c-.1-1.14-.22-2.02-.4-2.64-.1-.34-.22-.58-.32-.74-.02-.06-.06-.08-.08-.1l-.06-.06c-.14-.02-.32.1-.58.36-.3.3-.6.74-.92 1.36-.28.5-.52 1.04-.72 1.6-.22.56-.34.98-.4 1.24-.06.38-.1 1.14-.1 2.24 0 .04 0 .12.02.26l.04.38c.02.18.02.3 0 .4-.02.08-.04.16-.08.24-.14.3-.38.42-.7.36-.18-.02-.32-.12-.44-.26-.02-.04-.06-.08-.1-.14l-.06-.2v-.14c-.02-.06-.02-.14-.02-.24-.02-.14-.02-.36-.04-.64v-.42l-.04-.56-.34-2.8-.32-1.5c-.12-.4-.22-.64-.32-.74s-.16-.14-.22-.16c-.04 0-.1.02-.18.08-.28.18-.58.6-.9 1.24a12.21 12.21 0 0 0-.76 1.78l-.44 1.44c-.1.5-.16 1.1-.22 1.82-.02.06 0 .26.02.58a2.26 2.26 0 0 1 .02.28v.1a.71.71 0 0 1-.04.2c-.08.2-.24.34-.46.4-.28.08-.5 0-.68-.24l-.12-.2v-.08c-.02-.02-.02-.04-.02-.06-.14-.76-.22-1.88-.24-3.36l-.06-2.6-.12-1.36-.14-1.28a.66.66 0 0 1 .16-.5c.12-.14.28-.2.46-.22s.34.04.48.16.2.26.22.44z"/><path id="U" d="M422.543 156.487c.08-.02.2-.02.36-.04-.06-.3-.18-.6-.38-.94-.22-.36-.44-.64-.7-.86s-.48-.32-.66-.32c-.56 0-1.06.36-1.5 1.08-.2.34-.38.72-.52 1.14h1.86l1.54-.06zm-3.68 1.44l-.04.34c-.08 1.14.08 2.06.5 2.78.4.74 1 1.1 1.78 1.12.42.02.76-.04 1.02-.18s.62-.4 1.04-.8c.1-.1.2-.2.3-.34l.28-.36.28-.48.26-.42c.1-.16.26-.26.44-.3.18-.02.34 0 .5.1.14.1.24.26.28.44.02.18 0 .36-.1.5a2.81 2.81 0 0 0-.26.36l-.32.52-.36.5c-.14.2-.28.36-.42.46-.5.48-.98.82-1.4 1.04s-.96.32-1.58.3c-.7-.02-1.28-.2-1.78-.54-.52-.34-.88-.78-1.14-1.32-.26-.52-.44-1.1-.54-1.68s-.14-1.2-.08-1.82c.1-1.32.44-2.46 1.02-3.42.7-1.16 1.58-1.74 2.62-1.72.52 0 1 .18 1.42.56s.78.8 1.08 1.3c.26.46.44.9.54 1.32.06.24.08.46.06.66a1.09 1.09 0 0 1-.4.72c-.14.1-.32.16-.58.22l-.64.08-1.62.06h-2.16z"/><path id="V" d="M434.603 151.927l1.88.04.22-2.46c.02-.18.1-.34.24-.46.14-.1.32-.16.5-.14a.65.65 0 0 1 .44.24c.1.14.16.3.14.48l-.22 2.3 1.56-.1c.18-.02.34.04.48.16s.2.26.22.44-.04.34-.16.48-.28.2-.46.22l-1.74.1c-.26 3.54-.22 6.16.1 7.9.1.44.22.76.38.94.16.2.3.3.44.32.16.02.36-.06.58-.24.22-.16.46-.44.68-.86.26-.16.5-.88.76-2.16.06-.18.16-.3.32-.4a.62.62 0 0 1 .5-.04c.18.06.3.18.4.34.08.16.08.32.02.5-.22 1.02-.5 1.8-.84 2.36-.3.58-.68 1.04-1.12 1.38-.46.32-.92.46-1.42.42a1.79 1.79 0 0 1-1.28-.72c-.36-.42-.58-.96-.7-1.62-.36-1.8-.4-4.5-.14-8.08a53.08 53.08 0 0 1-1.86-.04c-.18-.02-.32-.08-.46-.22a.55.55 0 0 1-.16-.46c.02-.18.08-.32.22-.46.14-.12.3-.18.48-.16z"/><path id="W" d="M446.623 154.607l-.3-.08c-.08-.02-.14-.04-.18-.04-.52.02-1 .34-1.44.94-.46.62-.78 1.38-.96 2.32-.16.94-.12 1.8.1 2.56.22.78.62 1.3 1.18 1.6.7.34 1.34.28 1.92-.2.62-.5 1.06-1.26 1.32-2.28.24-.98.22-1.92-.04-2.82a3.35 3.35 0 0 0-1.6-2zm.48-1.24a.48.48 0 0 1 .24.14c.56.32 1.02.72 1.4 1.22.36.52.62 1.04.76 1.58.14.56.24 1.14.26 1.74s-.06 1.16-.22 1.7c-.32 1.32-.92 2.32-1.78 3-1.02.82-2.14.94-3.34.32-.46-.22-.86-.56-1.18-1-.34-.42-.56-.88-.68-1.4a7.92 7.92 0 0 1-.22-1.58 5.13 5.13 0 0 1 .12-1.58c.2-1.14.58-2.1 1.16-2.88.7-.92 1.5-1.4 2.44-1.46h.02a.67.67 0 0 1 .52-.02c.18.06.34.14.5.22z"/><path id="X" d="M455.483 155.407c-.06-.06-.16-.14-.3-.26l-.26-.24c-.04-.04-.1-.1-.2-.16s-.18-.12-.24-.14-.14-.06-.24-.08c-.5-.1-.88-.02-1.18.28-.3.28-.36.64-.2 1.08.08.22.24.46.48.7.24.26.62.6 1.14 1.04l.24.22.9.8c.22.22.46.54.72.92.26.4.4.78.46 1.16.08.62-.02 1.16-.28 1.62-.28.46-.66.82-1.16 1.04-.44.22-.92.32-1.46.3s-1.04-.14-1.5-.4c-.5-.28-.9-.62-1.2-1.02-.3-.38-.56-.86-.82-1.44a.67.67 0 0 1-.02-.52c.06-.16.18-.28.36-.36.16-.08.32-.08.5-.02.16.06.28.18.36.34.22.48.42.86.64 1.14.22.3.48.54.82.72.26.14.56.22.88.24s.62-.04.88-.18c.54-.26.78-.68.68-1.26-.04-.3-.2-.62-.46-.94s-.66-.7-1.16-1.14c-.04-.04-.16-.14-.34-.3l-.4-.32-.36-.34a2.95 2.95 0 0 1-.36-.38l-.32-.36-.28-.42c-.08-.14-.14-.26-.18-.4-.16-.48-.2-.94-.1-1.36a2.29 2.29 0 0 1 .6-1.1c.3-.3.68-.5 1.1-.62.42-.1.86-.1 1.3 0 .18.04.34.1.5.16a2.39 2.39 0 0 1 .44.24l.34.26.32.3.24.24c.14.12.2.26.22.44s-.04.34-.16.48c-.14.14-.28.2-.46.22s-.34-.04-.48-.18z"/><path id="Y" d="M573.707 462.042v-9.084h3.59c.817 0 1.446.048 1.872.156s.766.3.987.564c.119.132.204.276.289.432.068.156.136.372.187.648s.085.624.102 1.056l.034 1.68-.034 1.68c-.017.444-.051.792-.102 1.068s-.119.492-.187.648c-.085.156-.17.3-.289.432a1.6 1.6 0 0 1-.408.336c-.153.096-.357.168-.579.228s-.493.096-.8.12l-1.072.036h-3.59zm3.522-2.004c.221 0 .374-.012.459-.048s.153-.084.204-.168c.017-.06.051-.12.068-.204.017-.072.034-.192.051-.36s.017-.396.034-.684v-1.116-1.14l-.034-.684-.051-.372c-.017-.084-.051-.144-.068-.204-.051-.06-.119-.108-.204-.144s-.238-.048-.459-.048h-.851v5.172h.851z"/><path id="Z" d="M604.521 462.042l-3.046-4.872h-.102v4.872h-2.433v-9.084h2.62l1.804 3.156h.102v-3.156h2.45v9.084h-1.395z"/><path id="a" d="M595.401 462.042l-.221-2.1h-1.293l-.204 2.1h-2.688l1.378-9.084h4.492l1.293 9.084h-2.756zm-.783-7.188h-.187l-.425 3.252h1.055l-.442-3.252z"/></defs></svg>