<svg xmlns="http://www.w3.org/2000/svg" xmlns:xlink="http://www.w3.org/1999/xlink" width="583" height="241" fill-rule="evenodd" stroke-linecap="round" stroke-miterlimit="10" xmlns:v="https://vecta.io/nano"><style><![CDATA[.B{stroke-linejoin:round}.C{stroke-miterlimit:1.5}]]></style><path d="M99 40.421v42.892c0 2.959-2.402 5.361-5.361 5.361H5.361C2.402 88.674 0 86.272 0 83.313V40.421c0-2.959 2.402-5.362 5.361-5.362h88.278c2.959 0 5.361 2.403 5.361 5.362z" fill="#e7e7e7"/><g fill-rule="nonzero"><path d="M400.225 213.377c-28.504 0-51.614-23.104-51.614-51.614 0-20.911 12.465-38.878 30.345-46.985l-6.862-15.45 1.117 2.7-46.992 63.078v12.648h6.882v6.889h-20.654v-6.889h6.889v-6.889l-19.469-1.827c-3.546 25.046-25.012 44.333-51.039 44.333-28.504.007-51.607-23.097-51.607-51.607 0-28.504 23.104-51.607 51.614-51.607 7.451 0 14.516 1.611 20.911 4.446L282.644 82.2l-5.854-16.35h-6.882c-6.456 0-4.73-6.882-4.73-6.882s.426-6.023 5.163-6.023 4.73 4.304 12.472 4.304c7.41 0 18.062 2.145 18.062 2.145s4.73 6.449-4.297 6.449h-12.905l4.893 17.575h74.792l-5.874-13.352h-4.568v-6.876l32.524-3.999-5.001 10.882h-15.551l20.146 42.363c4.805-1.482 9.914-2.281 15.199-2.281 28.504 0 51.614 23.104 51.614 51.607-.007 28.511-23.117 51.614-51.621 51.614zm-151.391-96.346c-24.707 0-44.732 20.024-44.732 44.732s20.024 44.725 44.732 44.725c22.461 0 41.01-16.573 44.19-38.161l-35.826-3.688c-.568 3.228-3.255 5.725-6.645 5.725-3.803 0-6.882-3.079-6.882-6.889a6.89 6.89 0 0 1 6.882-6.889c.812 0 1.57.21 2.294.474l14.353-36.07c-5.61-2.517-11.816-3.959-18.366-3.959zm10.32 41.72l34.371 3.634c.007-.21.034-.413.034-.623 0-15.903-8.317-29.83-20.823-37.768l-13.582 34.757zm26.562-67.964l-10.442 26.717c15.057 9.014 25.168 25.438 25.168 44.265 0 .447-.054.9-.068 1.347l11.68 1.232-26.338-73.56zm80.538-4.642l5.001 4.155h-80.253l27.408 73.351 52.02-68.113-4.175-9.393zm33.972 30.886c-4.311 0-8.466.643-12.411 1.787l16.066 36.706c3.262.528 5.806 3.248 5.806 6.659 0 3.803-3.079 6.889-6.882 6.889a6.89 6.89 0 0 1-6.889-6.889c0-1.847.751-3.526 1.956-4.771l-16.133-36.354c-15.477 7.038-26.25 22.589-26.25 40.698 0 24.701 20.024 44.725 44.725 44.725s44.725-20.024 44.725-44.725-20.011-44.725-44.711-44.725z"/><g fill="#e6611a"><path d="M142.033 12.892c-.704 0-1.28-.128-1.712-.368-.416-.24-.736-.624-.928-1.152-.208-.528-.304-1.232-.304-2.096V5.068h-1.808V3.516h1.808V1.052h1.68v2.464h3.008v1.552h-3.008v4.208c0 .544.032.96.112 1.264.08.288.208.496.384.624s.432.176.768.176c.352 0 .608-.016.768-.064s.288-.144.352-.272c.08-.112.16-.336.256-.64l1.568.528c-.144.512-.336.896-.56 1.184a2.03 2.03 0 0 1-.912.624c-.368.128-.864.192-1.472.192z"/><use xlink:href="#B"/><path d="M155.024 15.324V3.692h1.68v.096c.56-.192 1.216-.304 1.936-.304.896 0 1.616.16 2.144.48.512.32.896.816 1.12 1.488.224.688.352 1.584.352 2.72s-.128 2.048-.352 2.736c-.224.672-.608 1.184-1.12 1.504-.528.32-1.248.48-2.144.48-.688 0-1.328-.128-1.936-.352v2.784h-1.68zm3.616-3.984c.512 0 .896-.096 1.168-.288.288-.192.48-.512.592-.96s.176-1.088.176-1.92c0-.816-.064-1.456-.176-1.904s-.304-.768-.592-.944c-.272-.192-.656-.288-1.168-.288-1.296 0-1.936.272-1.936.848v3.424c0 .704.16 1.216.448 1.536.304.336.8.496 1.488.496z"/><use xlink:href="#C"/><path d="M171.582 13.788h8.816v1.536h-8.816z"/><use xlink:href="#D"/><use xlink:href="#B" x="43.637"/><use xlink:href="#E"/><use xlink:href="#E" x="8.727"/><use xlink:href="#B" x="69.818"/><path d="M224.954 12.684V3.692h1.68v.224c.608-.288 1.312-.432 2.128-.432.832 0 1.472.128 1.92.352s.768.608.96 1.152c.192.528.288 1.296.288 2.272v5.424h-1.68V7.26c0-.576-.048-1.024-.144-1.344-.08-.32-.24-.544-.448-.672-.208-.144-.512-.208-.896-.208-.624 0-1.088.048-1.392.16-.288.112-.496.32-.592.592-.096.288-.144.72-.144 1.312v5.584h-1.68z"/><use xlink:href="#F"/><use xlink:href="#G"/><use xlink:href="#H"/><path d="M43.875 48.154v7.456h2.544v1.536h-6.768V55.61h2.56v-5.904h-1.84v-1.552h3.504zm-1.104-1.312c-.48 0-.816-.08-.992-.256-.176-.16-.272-.48-.272-.928 0-.464.096-.768.272-.944.176-.16.512-.256.992-.256s.816.096 1.008.256c.176.176.272.48.272.944 0 .448-.096.768-.272.928-.192.176-.528.256-1.008.256zm8.791 10.512c-.864 0-1.552-.112-2.064-.352-.512-.224-1.008-.624-1.44-1.2V45.514h1.664v2.752c.56-.208 1.168-.32 1.84-.32.864 0 1.552.16 2.064.48s.88.832 1.104 1.504c.224.688.336 1.584.336 2.736 0 1.136-.112 2.048-.336 2.72s-.592 1.168-1.104 1.488-1.2.48-2.064.48zm0-1.552c.464 0 .832-.096 1.104-.272.256-.192.448-.512.56-.96s.16-1.072.16-1.904-.048-1.456-.16-1.92c-.112-.448-.304-.768-.56-.96-.272-.192-.64-.288-1.104-.288-.512 0-.896.048-1.152.16s-.432.32-.528.608c-.112.288-.16.72-.16 1.296v3.712c.24.208.48.352.736.432.24.064.608.096 1.104.096z"/><use xlink:href="#I"/><use xlink:href="#G" x="43.637"/><use xlink:href="#C" x="-89.703" y="44.462"/><use xlink:href="#D" x="-98.43" y="44.462"/><use xlink:href="#J"/><use xlink:href="#I" x="449.271" y="51.528"/><path d="M514.096 108.674v-8.992h1.664v-.048c.448-.096.784-.144 1.056-.144.368 0 .656.064.864.16s.416.288.608.576c.24-.288.496-.48.736-.576.224-.096.56-.16.96-.16.56 0 .976.112 1.28.352.32.224.528.608.656 1.136.144.528.208 1.28.208 2.224v5.472h-1.68v-5.472c0-.768-.032-1.312-.112-1.6s-.224-.432-.432-.432c-.256 0-.432.048-.576.16-.128.112-.224.304-.288.576s-.096.656-.096 1.136v5.632h-1.664v-5.376c0-.816-.048-1.36-.128-1.664-.08-.32-.224-.464-.432-.464-.24 0-.448.048-.576.16s-.24.304-.288.576c-.064.272-.096.656-.096 1.136v5.632h-1.664zm8.327 1.104h8.816v1.536h-8.816z"/><use xlink:href="#H" x="501.634" y="51.528"/><use xlink:href="#F" x="527.816" y="51.528"/><use xlink:href="#K"/><use xlink:href="#L"/><use xlink:href="#C" x="403.204" y="95.99"/><use xlink:href="#D" x="394.477" y="95.99"/></g><g fill="#40bf4f"><path d="M429.361 32.83c-.688 0-1.216-.096-1.616-.272-.416-.192-.816-.512-1.2-.992l1.216-1.04c.272.32.496.528.688.624s.496.144.912.144c.496 0 .864-.064 1.136-.192a.97.97 0 0 0 .544-.624c.112-.288.16-.72.16-1.296v-.032a5.2 5.2 0 0 1-1.936.352c-.912 0-1.616-.16-2.144-.48-.528-.336-.896-.848-1.136-1.552-.224-.72-.336-1.664-.336-2.864 0-.912.128-1.648.352-2.208.24-.544.624-.96 1.152-1.216.512-.256 1.216-.4 2.112-.4a6.14 6.14 0 0 1 1.936.304v-.096h1.68v8.064c0 .928-.112 1.664-.336 2.208-.24.544-.608.944-1.12 1.2-.496.24-1.2.368-2.064.368zm-.096-4.864c.688 0 1.184-.176 1.488-.496.304-.336.448-.848.448-1.552v-2.736c0-.272-.144-.48-.464-.624s-.816-.224-1.472-.224c-.528 0-.912.064-1.184.208-.272.128-.464.352-.576.688-.112.32-.16.784-.16 1.376 0 .88.048 1.568.16 2.048.128.48.32.816.592 1.008s.656.304 1.168.304zm10.071-6.976v7.456h2.544v1.536h-6.768v-1.536h2.56v-5.904h-1.84V20.99h3.504zm-1.104-1.312c-.48 0-.816-.08-.992-.256-.176-.16-.272-.48-.272-.928 0-.464.096-.768.272-.944.176-.16.512-.256.992-.256s.816.096 1.008.256c.176.176.272.48.272.944 0 .448-.096.768-.272.928-.192.176-.528.256-1.008.256z"/><use xlink:href="#M"/><use xlink:href="#F" x="439.098" y="-27.164"/><use xlink:href="#M" x="17.454"/><path d="M12.331 77.982V68.99h1.664v-.048c.448-.096.784-.144 1.056-.144.368 0 .656.064.864.16s.416.288.608.576c.24-.288.496-.48.736-.576.224-.096.56-.16.96-.16.56 0 .976.112 1.28.352.32.224.528.608.656 1.136.144.528.208 1.28.208 2.224v5.472h-1.68V72.51c0-.768-.032-1.312-.112-1.6s-.224-.432-.432-.432c-.256 0-.432.048-.576.16-.128.112-.224.304-.288.576s-.096.656-.096 1.136v5.632h-1.664v-5.376c0-.816-.048-1.36-.128-1.664-.08-.32-.224-.464-.432-.464-.24 0-.448.048-.576.16s-.24.304-.288.576c-.064.272-.096.656-.096 1.136v5.632h-1.664zm12.775-9.2c.944 0 1.68.176 2.208.528.528.336.912.88 1.12 1.632.224.736.32 1.728.304 2.992h-5.776c.032.704.112 1.248.256 1.632s.352.672.656.832.72.24 1.232.24c.384 0 .688-.032.928-.096.24-.08.464-.208.656-.4.208-.192.432-.48.704-.848l1.344.88c-.48.752-.992 1.28-1.536 1.568-.528.288-1.232.448-2.096.448-.96 0-1.712-.16-2.272-.48s-.96-.816-1.2-1.504c-.24-.672-.368-1.584-.368-2.72s.128-2.032.368-2.72c.24-.672.64-1.184 1.2-1.504s1.312-.48 2.272-.48zm1.92 3.616c-.064-.528-.16-.944-.288-1.232-.128-.304-.32-.512-.592-.64-.256-.128-.592-.192-1.04-.192-.48 0-.864.064-1.152.192a1.37 1.37 0 0 0-.672.64c-.144.288-.24.704-.288 1.232h4.032zm.528-6.416l-2.672 2.32-1.088-1.184 2.656-2.304 1.104 1.168zm7.192 12.208c-.704 0-1.28-.128-1.712-.368-.416-.24-.736-.624-.928-1.152-.208-.528-.304-1.232-.304-2.096v-4.208h-1.808v-1.552h1.808V66.35h1.68v2.464h3.008v1.552h-3.008v4.208c0 .544.032.96.112 1.264.08.288.208.496.384.624s.432.176.768.176c.352 0 .608-.016.768-.064s.288-.144.352-.272c.08-.112.16-.336.256-.64l1.568.528c-.144.512-.336.896-.56 1.184a2.03 2.03 0 0 1-.912.624c-.368.128-.864.192-1.472.192z"/><use xlink:href="#C" x="-124.742" y="65.298"/><path d="M51.176 78.19c-.896 0-1.616-.16-2.128-.48s-.896-.816-1.12-1.488-.336-1.584-.336-2.72c0-1.152.112-2.048.336-2.736.224-.672.608-1.184 1.12-1.504s1.232-.48 2.128-.48a5.63 5.63 0 0 1 1.952.352V66.35h1.68v11.632h-1.68v-.096c-.56.192-1.216.304-1.952.304zm0-1.552c.672 0 1.168-.064 1.472-.224.32-.144.48-.352.48-.608v-3.44c0-.704-.16-1.216-.464-1.536-.304-.336-.8-.496-1.488-.496-.496 0-.896.096-1.168.288s-.464.512-.576.96c-.112.464-.176 1.088-.176 1.92s.064 1.456.176 1.904.304.768.576.96c.272.176.672.272 1.168.272z"/><use xlink:href="#C" x="-107.288" y="65.298"/><use xlink:href="#D" x="-116.014" y="65.298"/><path d="M369.219 240.754v-11.632h1.68v.096c.56-.192 1.216-.304 1.936-.304.896 0 1.616.16 2.144.48.512.32.896.816 1.12 1.488.224.688.352 1.584.352 2.72s-.128 2.048-.352 2.736c-.224.672-.608 1.184-1.12 1.504-.528.32-1.248.48-2.144.48-.688 0-1.328-.128-1.936-.352v2.784h-1.68zm3.616-3.984c.512 0 .896-.096 1.168-.288.288-.192.48-.512.592-.96s.176-1.088.176-1.92c0-.816-.064-1.456-.176-1.904s-.304-.768-.592-.944c-.272-.192-.656-.288-1.168-.288-1.296 0-1.936.272-1.936.848v3.424c0 .704.16 1.216.448 1.536.304.336.8.496 1.488.496z"/><use xlink:href="#N"/><use xlink:href="#K" x="-162.827" y="129.44"/><use xlink:href="#F" x="382.444" y="180.968"/><path d="M409.136 238.322c-.672 0-1.2-.112-1.568-.304-.384-.208-.64-.544-.8-1.024s-.24-1.152-.24-2v-6.976h-1.84v-1.536h3.504v8.512c0 .672.08 1.136.208 1.392s.384.384.736.384c.176 0 .368-.048.56-.176.208-.112.48-.32.848-.624l.928 1.424c-.432.352-.816.592-1.152.72-.32.144-.72.208-1.184.208z"/><use xlink:href="#N" x="34.909"/><use xlink:href="#F" x="408.626" y="180.968"/><use xlink:href="#H" x="399.898" y="180.968"/><path d="M140.028 227.598c.656 0 1.184.064 1.584.192s.72.336.96.608c.24.288.416.688.56 1.2l-1.568.528c-.08-.304-.16-.512-.24-.64s-.224-.208-.4-.272c-.192-.048-.48-.08-.896-.08-.432 0-.752.064-.976.16-.208.096-.352.272-.448.544-.08.256-.128.64-.128 1.168v.832h2.592v1.552h-2.592v6.048h-1.68v-6.048h-1.792v-1.552h1.792v-.832c0-.848.112-1.52.32-2 .208-.496.544-.848 1.024-1.072.464-.224 1.104-.336 1.888-.336z"/><use xlink:href="#H" x="113.639" y="182.292"/><use xlink:href="#N" x="-225.167" y="1.324"/><use xlink:href="#J" x="-335.631" y="130.764"/><use xlink:href="#F" x="157.276" y="182.292"/><use xlink:href="#H" x="148.548" y="182.292"/></g><g fill="#e6611a"><use xlink:href="#K" x="-507.967" y="57.989"/><use xlink:href="#L" x="-507.967" y="57.989"/><use xlink:href="#F" x="46.032" y="109.517"/><path d="M67.22 166.663v-8.992h1.664v-.048c.448-.096.784-.144 1.056-.144.368 0 .656.064.864.16s.416.288.608.576c.24-.288.496-.48.736-.576.224-.096.56-.16.96-.16.56 0 .976.112 1.28.352.32.224.528.608.656 1.136.144.528.208 1.28.208 2.224v5.472h-1.68v-5.472c0-.768-.032-1.312-.112-1.6s-.224-.432-.432-.432c-.256 0-.432.048-.576.16-.128.112-.224.304-.288.576s-.096.656-.096 1.136v5.632h-1.664v-5.376c0-.816-.048-1.36-.128-1.664-.08-.32-.224-.464-.432-.464-.24 0-.448.048-.576.16s-.24.304-.288.576c-.064.272-.096.656-.096 1.136v5.632H67.22zm8.327 1.104h8.816v1.536h-8.816z"/><use xlink:href="#H" x="54.758" y="109.517"/><use xlink:href="#I" x="37.305" y="109.517"/><use xlink:href="#N" x="-275.321" y="-71.451"/><use xlink:href="#K" x="-438.149" y="57.989"/><use xlink:href="#F" x="107.122" y="109.517"/></g></g><g transform="matrix(.999996 .000001 -.000001 1.000003 -.000421 .000712)" fill="none" stroke="#e6611a"><path d="M234.698 22.726l1.899-5.064 5.405-.195"/><path d="M262 52.945l-25.403-35.283" class="B C"/></g><g fill="none"><g stroke="#e6611a"><path d="M138.601 166.145l-3-4.5 3-4.5"/><path d="M190 161.645h-54.399" class="B C"/><path d="M484.539 106.832l4.955 2.167-.094 5.407"/><path d="M451.846 133.161l37.648-24.162" class="B C"/></g><g stroke="#40bf4f"><path d="M413.204 32.614l5.096 1.812.287 5.4"/><path d="M390.922 54.86L418.3 34.426" class="B C"/><path d="M198.996 224.455l-5.346-.822-1.297-5.25"/><path d="M240.303 172.603l-46.653 51.03" class="B C"/><path d="M366.197 218.249l-1.381 5.229-5.358.736"/><path d="M335.578 190.451l29.238 33.027" class="B C"/></g></g><defs ><path id="B" d="M151.032 3.692v7.456h2.544v1.536h-6.768v-1.536h2.56V5.244h-1.84V3.692h3.504zm-1.104-1.312c-.48 0-.816-.08-.992-.256-.176-.16-.272-.48-.272-.928 0-.464.096-.768.272-.944.176-.16.512-.256.992-.256s.816.096 1.008.256c.176.176.272.48.272.944 0 .448-.096.768-.272.928-.192.176-.528.256-1.008.256z"/><path id="C" d="M167.271 12.892c-.912 0-1.616-.16-2.128-.48-.528-.32-.896-.816-1.12-1.504-.24-.672-.352-1.584-.352-2.72s.112-2.032.352-2.72c.224-.672.592-1.184 1.12-1.504.512-.32 1.216-.48 2.128-.48.896 0 1.616.16 2.128.48.528.32.912.832 1.136 1.504.224.688.336 1.584.336 2.72s-.112 2.048-.336 2.72c-.224.688-.608 1.184-1.136 1.504-.512.32-1.232.48-2.128.48zm0-1.552c.496 0 .896-.096 1.168-.272.272-.192.464-.512.592-.96.112-.464.176-1.088.176-1.92 0-.816-.064-1.456-.176-1.904-.128-.464-.32-.784-.592-.96-.272-.192-.672-.288-1.168-.288-.512 0-.896.096-1.168.288-.272.176-.464.496-.576.96-.128.448-.176 1.088-.176 1.904 0 .832.048 1.456.176 1.92.112.448.304.768.576.96.272.176.656.272 1.168.272z"/><path id="D" d="M184.357 12.892c-.8 0-1.44-.144-1.92-.448-.464-.288-.88-.8-1.264-1.536l1.328-1.088c.192.448.352.768.496.976s.32.336.512.432c.208.08.496.112.848.112.672 0 1.168-.032 1.52-.112.336-.08.56-.208.688-.384s.192-.432.192-.784c0-.336-.048-.576-.16-.736-.096-.16-.272-.272-.544-.352-.256-.08-.704-.16-1.312-.224-1.184-.144-2.032-.416-2.544-.784-.528-.368-.8-.96-.8-1.76 0-.656.128-1.184.368-1.568.24-.4.64-.688 1.168-.864.528-.192 1.248-.288 2.144-.288.864 0 1.52.128 2 .384s.912.704 1.296 1.344l-1.216 1.184c-.224-.4-.4-.688-.56-.864a1.18 1.18 0 0 0-.56-.384c-.224-.08-.544-.112-.96-.112-.544 0-.96.032-1.248.096s-.48.192-.592.352-.16.4-.16.72c0 .224.064.4.176.512.112.128.288.208.528.272l1.072.176c.912.144 1.632.304 2.144.512.512.192.88.48 1.104.848.224.384.336.896.336 1.536 0 .688-.128 1.232-.4 1.648-.256.4-.688.704-1.28.896-.608.192-1.408.288-2.4.288z"/><path id="E" d="M203.668 12.892c-.672 0-1.2-.112-1.568-.304-.384-.208-.64-.544-.8-1.024s-.24-1.152-.24-2V2.588h-1.84V1.052h3.504v8.512c0 .672.08 1.136.208 1.392s.384.384.736.384c.176 0 .368-.048.56-.176.208-.112.48-.32.848-.624l.928 1.424c-.432.352-.816.592-1.152.72-.32.144-.72.208-1.184.208z"/><path id="F" d="M16.093 57.354c-.848 0-1.536-.096-2.048-.288-.496-.208-.864-.512-1.104-.912-.224-.416-.336-.96-.336-1.648 0-.784.112-1.376.336-1.808.224-.416.576-.72 1.088-.88.496-.176 1.184-.256 2.064-.256h1.84v-.32c0-.416-.064-.72-.16-.944s-.288-.384-.544-.48c-.256-.08-.64-.128-1.136-.128-.4 0-.72.032-.928.112-.208.096-.384.24-.496.448s-.224.544-.336.976l-1.6-.4c.176-.688.4-1.232.656-1.648s.608-.72 1.04-.928c.448-.192.992-.304 1.664-.304 1.264 0 2.16.272 2.704.816.528.544.8 1.36.8 2.48v3.408c0 .384.048.656.112.784.08.128.256.192.496.192.08 0 .256-.016.528-.032v1.536c-.112.016-.272.016-.48.016-.848 0-1.424-.192-1.744-.576-.256.272-.592.48-.976.592-.384.128-.864.192-1.44.192zm0-1.552c.496 0 .88-.048 1.136-.176.256-.112.448-.304.544-.592.096-.272.16-.688.16-1.216v-.72h-1.84c-.544 0-.944.032-1.184.08-.224.064-.384.176-.48.368-.112.192-.16.512-.16.96 0 .352.048.624.16.8.096.176.272.304.528.384s.64.112 1.136.112z"/><path id="G" d="M26.148 57.354c-.704 0-1.28-.128-1.712-.368-.416-.24-.736-.624-.928-1.152-.208-.528-.304-1.232-.304-2.096V49.53h-1.808v-1.552h1.808v-2.464h1.68v2.464h3.008v1.552h-3.008v4.208c0 .544.032.96.112 1.264.08.288.208.496.384.624s.432.176.768.176c.352 0 .608-.016.768-.064s.288-.144.352-.272c.08-.112.16-.336.256-.64l1.568.528c-.144.512-.336.896-.56 1.184a2.03 2.03 0 0 1-.912.624c-.368.128-.864.192-1.472.192z"/><path id="H" d="M30.924 57.146v-8.992h1.664v.752c.24-.256.528-.48.896-.672s.768-.288 1.2-.288c.56 0 1.024.08 1.392.24a2.31 2.31 0 0 1 .96.72c.256.336.496.8.72 1.392l-1.504.688c-.128-.432-.256-.752-.368-.96-.128-.192-.272-.336-.448-.416s-.432-.112-.752-.112c-.752 0-1.296.256-1.616.768-.32.528-.48 1.28-.48 2.272v4.608h-1.664z"/><path id="I" d="M59.857 57.354c-.784 0-1.408-.128-1.856-.368-.464-.224-.784-.608-.992-1.152-.208-.528-.304-1.264-.304-2.176v-5.504h1.68v5.504c0 .592.032 1.056.112 1.344.08.304.24.512.448.624.208.128.512.176.912.176.608 0 1.056-.048 1.344-.144.304-.096.512-.272.624-.512s.176-.608.176-1.104v-5.888h1.68v8.992h-1.68v-.144c-.512.224-1.216.352-2.144.352z"/><path id="J" d="M497.249 108.674v-8.992h1.68v.224c.608-.288 1.312-.432 2.128-.432.832 0 1.472.128 1.92.352s.768.608.96 1.152c.192.528.288 1.296.288 2.272v5.424h-1.68v-5.424c0-.576-.048-1.024-.144-1.344-.08-.32-.24-.544-.448-.672-.208-.144-.512-.208-.896-.208-.624 0-1.088.048-1.392.16-.288.112-.496.32-.592.592-.096.288-.144.72-.144 1.312v5.584h-1.68z"/><path id="K" d="M552.941 108.882c-.896 0-1.616-.16-2.128-.48s-.896-.816-1.12-1.488-.336-1.584-.336-2.72c0-1.152.112-2.048.336-2.736.224-.672.608-1.184 1.12-1.504s1.232-.48 2.128-.48a5.63 5.63 0 0 1 1.952.352v-2.784h1.68v11.632h-1.68v-.096c-.56.192-1.216.304-1.952.304zm0-1.552c.672 0 1.168-.064 1.472-.224.32-.144.48-.352.48-.608v-3.44c0-.704-.16-1.216-.464-1.536-.304-.336-.8-.496-1.488-.496-.496 0-.896.096-1.168.288s-.464.512-.576.96c-.112.464-.176 1.088-.176 1.92s.064 1.456.176 1.904.304.768.576.96c.272.176.672.272 1.168.272z"/><path id="L" d="M562.964 99.682v7.456h2.544v1.536h-6.768v-1.536h2.56v-5.904h-1.84v-1.552h3.504zm-1.104-1.312c-.48 0-.816-.08-.992-.256-.176-.16-.272-.48-.272-.928 0-.464.096-.768.272-.944.176-.16.512-.256.992-.256s.816.096 1.008.256c.176.176.272.48.272.944 0 .448-.096.768-.272.928-.192.176-.528.256-1.008.256z"/><path id="M" d="M443.84 29.982V20.99h1.664v.752c.24-.256.528-.48.896-.672s.768-.288 1.2-.288c.56 0 1.024.08 1.392.24a2.31 2.31 0 0 1 .96.72c.256.336.496.8.72 1.392l-1.504.688c-.128-.432-.256-.752-.368-.96-.128-.192-.272-.336-.448-.416s-.432-.112-.752-.112c-.752 0-1.296.256-1.616.768-.32.528-.48 1.28-.48 2.272v4.608h-1.664z"/><path id="N" d="M381.498 228.914c.944 0 1.68.176 2.208.528.528.336.912.88 1.12 1.632.224.736.32 1.728.304 2.992h-5.776c.032.704.112 1.248.256 1.632s.352.672.656.832.72.24 1.232.24c.384 0 .688-.032.928-.096.24-.08.464-.208.656-.4.208-.192.432-.48.704-.848l1.344.88c-.48.752-.992 1.28-1.536 1.568-.528.288-1.232.448-2.096.448-.96 0-1.712-.16-2.272-.48s-.96-.816-1.2-1.504c-.24-.672-.368-1.584-.368-2.72s.128-2.032.368-2.72c.24-.672.64-1.184 1.2-1.504s1.312-.48 2.272-.48zm1.92 3.616c-.064-.528-.16-.944-.288-1.232-.128-.304-.32-.512-.592-.64-.256-.128-.592-.192-1.04-.192-.48 0-.864.064-1.152.192a1.37 1.37 0 0 0-.672.64c-.144.288-.24.704-.288 1.232h4.032z"/></defs></svg>