<svg xmlns="http://www.w3.org/2000/svg" xmlns:xlink="http://www.w3.org/1999/xlink" width="520" height="360" fill-rule="evenodd" stroke-linejoin="round" stroke-miterlimit="2" xmlns:v="https://vecta.io/nano"><style><![CDATA[.B{fill-rule:nonzero}]]></style><path d="M520 36v288c0 19.868-16.131 36-36 36H36c-19.868 0-36-16.132-36-36V36C0 16.132 16.131 0 36 0H484c19.868 0 36 16.132 36 36z" fill="#9bc5f5"/><path d="M485.333 89.101v208.801c0 14.405-11.698 26.1-26.099 26.1H60.767c-14.406 0-26.1-11.695-26.1-26.1V89.101c0-14.405 11.695-26.1 26.1-26.1h398.467c14.402 0 26.099 11.695 26.099 26.1z" fill="#f5a09b"/><path d="M450.66 142.2v129.6c0 8.941-7.26 16.2-16.199 16.2H85.527c-8.94 0-16.199-7.259-16.199-16.2V142.2c0-8.941 7.26-16.2 16.199-16.2h348.934c8.94 0 16.199 7.259 16.199 16.2z" fill="#a9f59b"/><g fill="#0a305c" class="B"><path d="M39.53 44.124V28.432h2.904v-.084c.782-.168 1.368-.251 1.843-.251.642 0 1.145.112 1.508.279s.726.503 1.061 1.005c.419-.503.866-.838 1.284-1.005.391-.168.977-.279 1.675-.279.977 0 1.703.195 2.234.614.558.391.921 1.061 1.145 1.982.251.921.363 2.234.363 3.881v9.549h-2.932v-9.549c0-1.34-.056-2.29-.195-2.792s-.391-.754-.754-.754c-.447 0-.754.084-1.005.279-.223.195-.391.53-.503 1.005s-.168 1.145-.168 1.982v9.828h-2.904v-9.381c0-1.424-.084-2.373-.223-2.904-.14-.558-.391-.81-.754-.81-.419 0-.782.084-1.005.279s-.419.53-.503 1.005c-.112.475-.168 1.145-.168 1.982v9.828H39.53zm18.022 4.97c-.67 0-1.256-.084-1.731-.251s-1.005-.447-1.564-.866l1.145-2.457c.642.391 1.089.642 1.34.726.223.112.503.168.81.168.614 0 1.089-.084 1.48-.251.363-.168.698-.475.977-.893.279-.391.53-1.005.81-1.843L55.57 28.432h3.043L62.382 39.6l3.797-11.168h3.071l-5.472 15.217c-.475 1.368-1.005 2.457-1.536 3.239s-1.173 1.34-1.927 1.703c-.726.335-1.647.503-2.764.503zm11.739-3.043h15.384v2.68H69.291zm22.797-1.564c-1.564 0-2.82-.279-3.713-.838s-1.564-1.424-1.954-2.597-.586-2.764-.586-4.747c0-2.01.195-3.574.586-4.774.391-1.173 1.061-2.066 1.954-2.625s2.15-.838 3.713-.838a9.82 9.82 0 0 1 3.406.614v-4.858h2.932v20.298h-2.932v-.168c-.977.335-2.122.53-3.406.53zm0-2.708c1.173 0 2.038-.112 2.569-.391.558-.251.838-.614.838-1.061v-6.003c0-1.229-.279-2.122-.81-2.68-.53-.586-1.396-.866-2.597-.866-.866 0-1.564.168-2.038.503s-.81.893-1.005 1.675c-.195.81-.307 1.899-.307 3.351s.112 2.541.307 3.323.53 1.34 1.005 1.675c.475.307 1.173.475 2.038.475z"/><use xlink:href="#B"/><use xlink:href="#C"/><use xlink:href="#D"/><use xlink:href="#E"/><path d="M167.705 44.487c-1.48 0-2.68-.168-3.574-.503-.866-.363-1.508-.893-1.927-1.591-.391-.726-.586-1.675-.586-2.876 0-1.368.195-2.401.586-3.155.391-.726 1.005-1.256 1.899-1.536.866-.307 2.066-.447 3.602-.447h3.211v-.558c0-.726-.112-1.256-.279-1.647s-.503-.67-.949-.838c-.447-.14-1.117-.223-1.982-.223-.698 0-1.256.056-1.619.195a1.81 1.81 0 0 0-.866.782c-.195.363-.391.949-.586 1.703l-2.792-.698c.307-1.201.698-2.15 1.145-2.876s1.061-1.256 1.815-1.619c.782-.335 1.731-.53 2.904-.53 2.206 0 3.769.475 4.719 1.424.921.949 1.396 2.373 1.396 4.328v5.947c0 .67.084 1.145.195 1.368.14.223.447.335.866.335.14 0 .447-.028.921-.056v2.68c-.195.028-.475.028-.838.028-1.48 0-2.485-.335-3.043-1.005a3.79 3.79 0 0 1-1.703 1.033c-.67.223-1.508.335-2.513.335zm0-2.708c.866 0 1.536-.084 1.982-.307a1.66 1.66 0 0 0 .949-1.033c.168-.475.279-1.201.279-2.122V37.06h-3.211c-.949 0-1.647.056-2.066.14-.391.112-.67.307-.838.642-.195.335-.279.893-.279 1.675 0 .614.084 1.089.279 1.396.168.307.475.53.921.67s1.117.195 1.982.195zm17.547 2.708c-1.229 0-2.234-.223-2.988-.642-.726-.419-1.284-1.089-1.619-2.01-.363-.921-.53-2.15-.53-3.658v-7.343h-3.155v-2.708h3.155v-4.3h2.932v4.3h5.249v2.708h-5.249v7.343c0 .949.056 1.675.195 2.206.14.503.363.866.67 1.089s.754.307 1.34.307c.614 0 1.061-.028 1.34-.112s.503-.251.614-.475c.14-.195.279-.586.447-1.117l2.736.921c-.251.893-.586 1.564-.977 2.066-.419.503-.949.866-1.591 1.089s-1.508.335-2.569.335z"/><use xlink:href="#D" x="60.918"/><use xlink:href="#E" x="60.919"/></g><g fill="#5c0e0a" class="B"><path d="M74.864 105.38h-2.597l-2.932-15.692h2.932l1.731 9.689 1.647-5.361h2.541l1.619 5.305 1.759-9.633h2.96l-2.988 15.692h-2.597l-2.01-5.947-2.066 5.947z"/><use xlink:href="#F"/><path d="M106.719 105.743c-1.48 0-2.68-.168-3.574-.503-.866-.363-1.508-.893-1.927-1.591-.391-.726-.586-1.675-.586-2.876 0-1.368.195-2.401.586-3.155.391-.726 1.005-1.256 1.899-1.536.866-.307 2.066-.447 3.602-.447h3.211v-.558c0-.726-.112-1.256-.279-1.647s-.503-.67-.949-.838c-.447-.14-1.117-.223-1.982-.223-.698 0-1.256.056-1.619.195a1.81 1.81 0 0 0-.866.782c-.195.363-.391.949-.586 1.703l-2.792-.698c.307-1.201.698-2.15 1.145-2.876s1.061-1.256 1.815-1.619c.782-.335 1.731-.53 2.904-.53 2.206 0 3.769.475 4.719 1.424.921.949 1.396 2.373 1.396 4.328v5.947c0 .67.084 1.145.195 1.368.14.223.447.335.866.335.14 0 .447-.028.921-.056v2.68c-.195.028-.475.028-.838.028-1.48 0-2.485-.335-3.043-1.005-.447.475-1.033.838-1.703 1.033-.67.223-1.508.335-2.513.335zm0-2.708c.866 0 1.536-.084 1.982-.307.447-.195.782-.53.949-1.033.168-.475.279-1.201.279-2.122v-1.256h-3.211c-.949 0-1.647.056-2.066.14-.391.112-.67.307-.838.642-.195.335-.279.893-.279 1.675 0 .614.084 1.089.279 1.396.168.307.475.53.921.67s1.117.195 1.982.195z"/><use xlink:href="#G"/><use xlink:href="#G" x="15.229"/><use xlink:href="#B" x="45.622" y="61.256"/><use xlink:href="#F" x="76.148"/></g><g fill="#175d09" class="B"><path d="M108.775 148.984c1.145 0 2.066.112 2.764.335s1.256.586 1.675 1.061c.419.503.726 1.201.977 2.094l-2.736.921c-.14-.53-.279-.893-.419-1.117s-.391-.363-.698-.475c-.335-.084-.838-.14-1.564-.14-.754 0-1.312.112-1.703.279-.363.168-.614.475-.782.949-.14.447-.223 1.117-.223 2.038v1.452h4.523v2.708h-4.523v10.554h-2.932v-10.554h-3.127v-2.708h3.127v-1.452c0-1.48.195-2.652.558-3.49.363-.866.949-1.48 1.787-1.871.81-.391 1.927-.586 3.295-.586zm12.717 21.024c-1.368 0-2.457-.223-3.239-.642-.81-.391-1.368-1.061-1.731-2.01-.363-.921-.53-2.206-.53-3.797v-9.605h2.932v9.605c0 1.033.056 1.843.195 2.345.14.53.419.893.782 1.089.363.223.893.307 1.591.307 1.061 0 1.843-.084 2.345-.251.53-.168.893-.475 1.089-.893s.307-1.061.307-1.927v-10.275h2.932v15.692h-2.932v-.251c-.893.391-2.122.614-3.741.614zm9.728-.363v-15.692h2.932v.391c1.061-.503 2.29-.754 3.713-.754 1.452 0 2.569.223 3.351.614s1.34 1.061 1.675 2.01c.335.921.503 2.262.503 3.965v9.465h-2.932v-9.465c0-1.005-.084-1.787-.251-2.345-.14-.558-.419-.949-.782-1.173-.363-.251-.893-.363-1.564-.363-1.089 0-1.899.084-2.429.279-.503.195-.866.558-1.033 1.033-.168.503-.251 1.256-.251 2.29v9.744h-2.932z"/><use xlink:href="#C" x="29.711" y="125.521"/></g><path d="M210 90.673l-.002-.319c0-.021-.005-.04-.006-.06l-.021-.22a1.62 1.62 0 0 0-.089-.313c-.017-.042-.037-.081-.058-.122-.059-.121-.129-.236-.217-.338L197.78 75.79a1.62 1.62 0 0 0-1.217-.553h-.013c-.471.004-.916.211-1.22.571l-11.465 13.509c-.089.105-.158.222-.216.345l-.044.093a1.62 1.62 0 0 0-.092.33c-.011.063-.014.125-.018.189l-.006.067-.004.321.042.037c.026.122.056.244.111.36l11.467 24.02c.269.564.824.916 1.449.921h.01c.62 0 1.176-.345 1.449-.902l11.827-24.017c.059-.119.09-.245.119-.37l.042-.038zm-13.439-14.022c.035 0 .1.009.152.069l11.748 13.42a12.7 12.7 0 0 1-1.138.834c-.239-.172-.506-.291-.793-.336-.098-.938-.791-1.69-1.669-1.822-.099-.937-.791-1.688-1.669-1.821-.099-.937-.791-1.688-1.669-1.821-.099-.937-.791-1.688-1.669-1.821-.083-.792-.586-1.456-1.29-1.718-.445-.645-1.151-1.034-1.908-1.034s-1.463.39-1.908 1.034c-.704.262-1.208.926-1.29 1.718-.878.133-1.57.883-1.669 1.821-.878.133-1.57.883-1.669 1.821-.878.133-1.57.883-1.669 1.821-.878.133-1.571.884-1.669 1.822-.25.038-.489.132-.706.268l-1.051-.774 3.384-3.987 7.998-9.421c.054-.064.132-.088.154-.072zm6.796 16.177l-.228.071-.284.077a2.31 2.31 0 0 0-.413-2.69l-1.724-1.724c-.054-.054-.116-.095-.174-.142.146-.742-.073-1.519-.626-2.072l-1.724-1.724a2.32 2.32 0 0 0-3.275 0l-1.724 1.724c-.566.565-.779 1.381-.609 2.14-.029.026-.062.046-.09.074l-1.724 1.724c-.701.701-.851 1.738-.464 2.591l-.16-.051-1.328-.483-.049-.019-1.082-.504c.3-.216.51-.573.51-.953 0-.363.245-.659.545-.659.589 0 1.124-.554 1.124-1.162 0-.363.245-.659.545-.659.589 0 1.124-.554 1.124-1.162 0-.363.245-.659.545-.659.588 0 1.124-.554 1.124-1.162 0-.363.245-.659.545-.659.589 0 1.124-.554 1.124-1.162 0-.323.201-.602.469-.648l.346-.06.161-.312c.178-.344.485-.549.82-.549s.642.206.82.549l.161.312.346.06c.267.046.469.325.469.648 0 .608.536 1.162 1.124 1.162.3 0 .545.296.545.659 0 .608.536 1.162 1.124 1.162.3 0 .545.296.545.659 0 .608.536 1.162 1.124 1.162.3 0 .545.296.545.659 0 .608.536 1.162 1.124 1.162.3 0 .545.296.545.659 0 .411.245.795.585 1.003a17.7 17.7 0 0 1-2.36.958zm-11.598-.267c-.351-.351-.351-.924 0-1.275l1.724-1.724a.91.91 0 0 1 .255-.17c.057-.027.117-.04.177-.054.043-.011.086-.022.13-.025.053-.005.105-.003.157.001a.95.95 0 0 1 .171.033c.04.011.081.022.119.039a.9.9 0 0 1 .265.176l.841.841c-.041.047-.071.099-.107.148-.007.01-.016.018-.023.028l-.002-.001-.081.119c-.035.055-.064.112-.093.17l-.033.068-.071.151c-.035.09-.059.184-.082.278l-.036.135c-.026.14-.04.282-.04.425h0c0 .142.015.284.04.423.008.047.025.091.037.137l.081.275c.021.053.049.103.074.155l.122.233c.033.053.073.103.11.153l.103.143-.343.342-.054-.002-.063-.005-.493-.046-1.033-.117-.482-.074-.484-.092-.888-.889zm2.169-4.665c.018-.204.105-.399.255-.549l1.724-1.724a.9.9 0 0 1 1.275 0l1.724 1.724c.148.148.235.339.255.538-.018-.001-.035.004-.052.003-.076-.001-.15.008-.225.014l-.238.023c-.06.011-.117.033-.177.048l-.265.078c-.052.021-.1.052-.151.078-.086.042-.175.081-.256.134a2.31 2.31 0 0 0-.366.298l-.837.837-.295-.295-.542-.542c-.111-.111-.231-.208-.358-.292-.41-.272-.888-.394-1.362-.377l-.111.004zm7.504 4.665l-.961.96-.219.042-.436.061-1.102.124-.462.037-.308.011-1.237-1.237c-.351-.351-.351-.924 0-1.275l.887-.887.837-.838c.08-.08.173-.136.27-.18.027-.012.054-.02.082-.029a.92.92 0 0 1 .23-.045l.09-.004c.086.004.169.021.251.049.021.007.042.008.063.016a.89.89 0 0 1 .289.192l1.724 1.724c.351.353.351.925 0 1.277zm-4.688 21.911c-.046.093-.124.112-.181.112h-.001a.19.19 0 0 1-.182-.115l-10.514-22.024.101.057.794.446.441.221.945.437.165.064a19.77 19.77 0 0 0 2.294.774l.276.08.954.216.13.03.009.009.211.042.354.061.837.133.442.064.021.002.513.048.67.063.411.025.058.005.314.016.009-.009.931.029.637-.02.013.013.309-.013.238-.018.513-.029.578-.052.442-.043.602-.079.777-.118.067-.01.211-.037.442-.097c1.214-.251 2.371-.595 3.458-1.029l.217-.084.979-.443.395-.197.844-.464.104-.057-10.828 21.993z" class="B"/><defs ><path id="B" d="M107.512 28.069c1.647 0 2.932.307 3.853.921.921.586 1.591 1.536 1.954 2.848.391 1.284.558 3.015.53 5.221h-10.079c.056 1.229.195 2.178.447 2.848s.614 1.173 1.145 1.452 1.256.419 2.15.419c.67 0 1.201-.056 1.619-.168.419-.14.81-.363 1.145-.698.363-.335.754-.838 1.229-1.48l2.345 1.536c-.838 1.312-1.731 2.234-2.68 2.736-.921.503-2.15.782-3.658.782-1.675 0-2.988-.279-3.965-.838s-1.675-1.424-2.094-2.625c-.419-1.173-.642-2.764-.642-4.747s.223-3.546.642-4.747c.419-1.173 1.117-2.066 2.094-2.625s2.29-.838 3.965-.838zm3.351 6.31c-.112-.921-.279-1.647-.503-2.15-.223-.53-.558-.893-1.033-1.117-.447-.223-1.033-.335-1.815-.335-.838 0-1.508.112-2.01.335a2.39 2.39 0 0 0-1.173 1.117c-.251.503-.419 1.229-.503 2.15h7.036z"/><path id="C" d="M123.133 44.487c-1.703 0-3.015-.279-4.021-.838-.977-.558-1.675-1.424-2.094-2.597-.447-1.173-.67-2.764-.67-4.774 0-1.982.223-3.574.67-4.774.419-1.173 1.145-2.038 2.122-2.597 1.005-.558 2.373-.838 4.104-.838 1.452 0 2.652.279 3.518.81.893.503 1.731 1.452 2.541 2.792l-2.429 1.424c-.419-.642-.782-1.145-1.089-1.452-.307-.335-.67-.558-1.033-.67-.391-.14-.893-.195-1.508-.195-1.061 0-1.871.168-2.429.503-.558.307-.977.866-1.201 1.647s-.335 1.899-.335 3.351.112 2.569.335 3.351.614 1.34 1.173 1.675c.53.307 1.312.475 2.345.475.614 0 1.117-.056 1.508-.195s.754-.363 1.089-.698.726-.81 1.173-1.48l2.401 1.48c-.838 1.34-1.703 2.29-2.597 2.82-.893.503-2.094.782-3.574.782z"/><path id="D" d="M137.916 44.487c-1.591 0-2.82-.279-3.713-.838-.921-.558-1.564-1.424-1.954-2.625-.419-1.173-.614-2.764-.614-4.747s.195-3.546.614-4.747c.391-1.173 1.033-2.066 1.954-2.625.893-.558 2.122-.838 3.713-.838 1.564 0 2.82.279 3.713.838.921.558 1.591 1.452 1.982 2.625.391 1.201.586 2.764.586 4.747s-.195 3.574-.586 4.747c-.391 1.201-1.061 2.066-1.982 2.625-.893.558-2.15.838-3.713.838zm0-2.708c.866 0 1.564-.168 2.038-.475.475-.335.81-.893 1.033-1.675.195-.81.307-1.899.307-3.351 0-1.424-.112-2.541-.307-3.323-.223-.81-.558-1.368-1.033-1.675-.475-.335-1.173-.503-2.038-.503-.893 0-1.564.168-2.038.503-.475.307-.81.866-1.005 1.675-.223.782-.307 1.899-.307 3.323 0 1.452.084 2.541.307 3.351.195.782.53 1.34 1.005 1.675.475.307 1.145.475 2.038.475z"/><path id="E" d="M147.896 44.124V28.432h2.904v1.312c.419-.447.921-.838 1.564-1.173a4.46 4.46 0 0 1 2.094-.503c.977 0 1.787.14 2.429.419.642.251 1.201.67 1.675 1.256.447.586.866 1.396 1.256 2.429l-2.625 1.201c-.223-.754-.447-1.312-.642-1.675-.223-.335-.475-.586-.782-.726s-.754-.195-1.312-.195c-1.312 0-2.262.447-2.82 1.34-.558.921-.838 2.234-.838 3.965v8.041h-2.904z"/><path id="F" d="M86.911 105.38V89.688h2.904v1.312c.419-.447.921-.838 1.564-1.173a4.46 4.46 0 0 1 2.094-.503c.977 0 1.787.14 2.429.419.642.251 1.201.67 1.675 1.256.447.586.866 1.396 1.256 2.429l-2.625 1.201c-.223-.754-.447-1.312-.642-1.675-.223-.335-.475-.586-.782-.726s-.754-.195-1.312-.195c-1.312 0-2.262.447-2.82 1.34-.558.921-.838 2.234-.838 3.965v8.041h-2.904z"/><path id="G" d="M116.477 109.987V89.688h2.932v.168c.977-.335 2.122-.53 3.378-.53 1.564 0 2.82.279 3.741.838.893.558 1.564 1.424 1.954 2.597.391 1.201.614 2.764.614 4.747s-.223 3.574-.614 4.774c-.391 1.173-1.061 2.066-1.954 2.625-.921.558-2.178.838-3.741.838a9.67 9.67 0 0 1-3.378-.614v4.858h-2.932zm6.31-6.952c.893 0 1.564-.168 2.038-.503.503-.335.838-.893 1.033-1.675s.307-1.899.307-3.351c0-1.424-.112-2.541-.307-3.323s-.53-1.34-1.033-1.647c-.475-.335-1.145-.503-2.038-.503-2.262 0-3.378.475-3.378 1.48v5.975c0 1.229.279 2.122.782 2.68.53.586 1.396.866 2.597.866z"/></defs></svg>