<?xml version="1.0" encoding="UTF-8" standalone="no"?>
<!DOCTYPE svg PUBLIC "-//W3C//DTD SVG 1.1//EN" "http://www.w3.org/Graphics/SVG/1.1/DTD/svg11.dtd">
<svg width="951px" height="256px" version="1.1" xmlns="http://www.w3.org/2000/svg" xmlns:xlink="http://www.w3.org/1999/xlink" xml:space="preserve" xmlns:serif="http://www.serif.com/" style="fill-rule:evenodd;clip-rule:evenodd;stroke-linecap:round;stroke-miterlimit:10;">
    <g id="Mesa-de-trabajo1" serif:id="Mesa de trabajo1" transform="matrix(0.495312,0,0,0.237037,0,0)">
        <rect x="0" y="0" width="1920" height="1080" style="fill:none;"/>
        <g transform="matrix(2.01893,0,0,2.54322,-762.145,-358.115)">
            <path d="M977,418.25L977,488.75C977,508.205 967.478,524 955.75,524L750.25,524C738.522,524 729,508.205 729,488.75L729,418.25C729,398.795 738.522,383 750.25,383L955.75,383C967.478,383 977,398.795 977,418.25Z" style="fill:rgb(26,230,121);"/>
        </g>
        <g transform="matrix(1.00946,0,0,2.54322,-692.492,-358.115)">
            <path d="M977,418.25L977,488.75C977,508.205 957.956,524 934.5,524L771.5,524C748.044,524 729,508.205 729,488.75L729,418.25C729,398.795 748.044,383 771.5,383L934.5,383C957.956,383 977,398.795 977,418.25Z" style="fill:rgb(78,172,235);"/>
        </g>
        <g transform="matrix(1.00946,0,0,2.54322,890.347,-358.115)">
            <path d="M977,418.25L977,488.75C977,508.205 957.956,524 934.5,524L771.5,524C748.044,524 729,508.205 729,488.75L729,418.25C729,398.795 748.044,383 771.5,383L934.5,383C957.956,383 977,398.795 977,418.25Z" style="fill:rgb(230,213,26);"/>
        </g>
        <g transform="matrix(2.01893,0,0,4.21875,-745.525,-1117.99)">
            <g transform="matrix(37.6933,0,0,37.6933,756,466)">
                <path d="M0.263,-0.517C0.329,-0.517 0.378,-0.491 0.411,-0.44L0.411,-0.541C0.411,-0.568 0.41,-0.584 0.409,-0.59C0.406,-0.611 0.396,-0.621 0.381,-0.621C0.376,-0.621 0.368,-0.62 0.359,-0.618C0.349,-0.616 0.341,-0.615 0.336,-0.615C0.311,-0.615 0.299,-0.626 0.299,-0.647C0.299,-0.669 0.316,-0.68 0.349,-0.68C0.354,-0.68 0.364,-0.679 0.378,-0.678C0.399,-0.676 0.41,-0.675 0.411,-0.675C0.417,-0.675 0.426,-0.676 0.437,-0.677C0.448,-0.678 0.457,-0.679 0.463,-0.679C0.482,-0.679 0.491,-0.666 0.491,-0.639L0.491,-0.628C0.49,-0.626 0.49,-0.608 0.489,-0.575C0.489,-0.571 0.488,-0.545 0.486,-0.498C0.485,-0.465 0.484,-0.439 0.484,-0.422L0.484,-0.324L0.486,-0.157C0.487,-0.113 0.489,-0.086 0.492,-0.075C0.495,-0.064 0.503,-0.059 0.516,-0.059C0.525,-0.059 0.531,-0.06 0.536,-0.061C0.547,-0.062 0.554,-0.063 0.558,-0.063C0.583,-0.063 0.595,-0.052 0.595,-0.03C0.595,-0.007 0.58,0.004 0.55,0.004C0.543,0.004 0.533,0.003 0.52,0.002C0.506,-0 0.496,-0.001 0.489,-0.001C0.487,-0.001 0.479,-0 0.466,0.001C0.458,0.003 0.451,0.004 0.445,0.004C0.427,0.004 0.418,-0.008 0.418,-0.032L0.418,-0.037L0.419,-0.054C0.384,-0.007 0.332,0.017 0.265,0.017C0.197,0.017 0.142,-0.008 0.101,-0.057C0.06,-0.106 0.039,-0.171 0.039,-0.251C0.039,-0.332 0.059,-0.396 0.1,-0.445C0.141,-0.493 0.195,-0.517 0.263,-0.517ZM0.405,-0.164C0.408,-0.186 0.409,-0.214 0.409,-0.249C0.409,-0.294 0.407,-0.324 0.404,-0.34C0.398,-0.373 0.384,-0.399 0.361,-0.418C0.334,-0.44 0.304,-0.451 0.269,-0.451C0.222,-0.451 0.186,-0.433 0.16,-0.398C0.133,-0.363 0.12,-0.314 0.12,-0.253C0.12,-0.19 0.134,-0.14 0.161,-0.104C0.188,-0.067 0.226,-0.049 0.273,-0.049C0.309,-0.049 0.339,-0.059 0.363,-0.081C0.387,-0.101 0.401,-0.129 0.405,-0.164Z" style="fill-rule:nonzero;"/>
            </g>
            <g transform="matrix(37.6933,0,0,37.6933,778.616,466)">
                <path d="M0.493,-0.294C0.493,-0.269 0.491,-0.253 0.488,-0.248C0.485,-0.242 0.475,-0.239 0.459,-0.239L0.141,-0.239C0.132,-0.239 0.127,-0.238 0.124,-0.236C0.121,-0.233 0.12,-0.229 0.12,-0.224C0.12,-0.174 0.135,-0.132 0.165,-0.099C0.195,-0.066 0.232,-0.049 0.277,-0.049C0.306,-0.049 0.333,-0.057 0.358,-0.073C0.382,-0.089 0.398,-0.109 0.405,-0.134L0.414,-0.163C0.419,-0.179 0.43,-0.187 0.447,-0.187C0.472,-0.187 0.484,-0.174 0.484,-0.149C0.484,-0.106 0.462,-0.067 0.418,-0.034C0.374,0 0.324,0.017 0.268,0.017C0.198,0.017 0.142,-0.006 0.101,-0.054C0.06,-0.1 0.039,-0.164 0.039,-0.243C0.039,-0.324 0.061,-0.39 0.105,-0.441C0.149,-0.492 0.206,-0.517 0.277,-0.517C0.34,-0.517 0.391,-0.496 0.432,-0.454C0.473,-0.412 0.493,-0.359 0.493,-0.294ZM0.13,-0.32C0.13,-0.311 0.137,-0.306 0.152,-0.306L0.391,-0.306C0.405,-0.306 0.412,-0.311 0.412,-0.32C0.412,-0.355 0.399,-0.386 0.372,-0.412C0.345,-0.438 0.314,-0.451 0.278,-0.451C0.241,-0.451 0.207,-0.438 0.176,-0.411C0.145,-0.384 0.13,-0.353 0.13,-0.32Z" style="fill-rule:nonzero;"/>
            </g>
            <g transform="matrix(37.6933,0,0,37.6933,798.518,466)">
                <path d="M0.33,-0.33C0.33,-0.357 0.347,-0.372 0.38,-0.376C0.377,-0.399 0.366,-0.418 0.347,-0.431C0.328,-0.444 0.303,-0.451 0.273,-0.451C0.227,-0.451 0.19,-0.433 0.162,-0.396C0.134,-0.359 0.12,-0.311 0.12,-0.25C0.12,-0.187 0.133,-0.138 0.16,-0.103C0.186,-0.067 0.222,-0.049 0.269,-0.049C0.298,-0.049 0.324,-0.057 0.346,-0.074C0.367,-0.091 0.382,-0.114 0.39,-0.143C0.397,-0.166 0.401,-0.18 0.402,-0.183C0.409,-0.196 0.42,-0.203 0.434,-0.203C0.445,-0.203 0.455,-0.199 0.462,-0.192C0.469,-0.185 0.473,-0.175 0.473,-0.164C0.473,-0.147 0.468,-0.127 0.457,-0.104C0.446,-0.081 0.434,-0.061 0.419,-0.046C0.38,-0.004 0.329,0.017 0.266,0.017C0.198,0.017 0.143,-0.007 0.102,-0.055C0.06,-0.103 0.039,-0.166 0.039,-0.244C0.039,-0.327 0.061,-0.393 0.104,-0.443C0.147,-0.492 0.204,-0.517 0.275,-0.517C0.328,-0.517 0.373,-0.503 0.408,-0.474C0.443,-0.444 0.461,-0.408 0.461,-0.363C0.461,-0.338 0.454,-0.318 0.441,-0.302C0.427,-0.286 0.409,-0.278 0.388,-0.278C0.371,-0.278 0.358,-0.283 0.347,-0.293C0.335,-0.303 0.33,-0.315 0.33,-0.33Z" style="fill-rule:nonzero;"/>
            </g>
            <g transform="matrix(37.6933,0,0,37.6933,817.742,466)">
                <path d="M0.269,0.017C0.199,0.017 0.143,-0.007 0.101,-0.056C0.059,-0.104 0.038,-0.169 0.038,-0.25C0.038,-0.331 0.059,-0.396 0.102,-0.445C0.144,-0.493 0.201,-0.517 0.272,-0.517C0.345,-0.517 0.402,-0.493 0.444,-0.446C0.486,-0.399 0.507,-0.334 0.507,-0.253C0.507,-0.172 0.485,-0.106 0.442,-0.057C0.399,-0.008 0.341,0.017 0.269,0.017ZM0.274,-0.451C0.227,-0.451 0.191,-0.435 0.164,-0.402C0.137,-0.369 0.123,-0.323 0.12,-0.263L0.12,-0.25C0.12,-0.187 0.133,-0.138 0.16,-0.103C0.186,-0.067 0.223,-0.049 0.27,-0.049C0.319,-0.049 0.357,-0.067 0.385,-0.103C0.412,-0.138 0.426,-0.188 0.426,-0.251C0.426,-0.384 0.375,-0.451 0.274,-0.451Z" style="fill-rule:nonzero;"/>
            </g>
            <g transform="matrix(37.6933,0,0,37.6933,838.322,466)">
                <path d="M0.19,-0.471L0.19,-0.444C0.225,-0.493 0.271,-0.517 0.329,-0.517C0.376,-0.517 0.413,-0.504 0.443,-0.478C0.471,-0.451 0.486,-0.417 0.486,-0.376C0.486,-0.347 0.479,-0.323 0.464,-0.305C0.449,-0.286 0.43,-0.277 0.406,-0.277C0.391,-0.277 0.378,-0.282 0.367,-0.291C0.356,-0.3 0.351,-0.312 0.351,-0.325C0.351,-0.336 0.355,-0.345 0.363,-0.354C0.371,-0.362 0.38,-0.366 0.391,-0.366C0.393,-0.366 0.397,-0.365 0.404,-0.363C0.408,-0.371 0.41,-0.378 0.41,-0.385C0.41,-0.404 0.402,-0.421 0.385,-0.434C0.368,-0.447 0.346,-0.454 0.321,-0.454C0.269,-0.454 0.234,-0.431 0.217,-0.384C0.206,-0.355 0.201,-0.312 0.201,-0.254L0.201,-0.188C0.201,-0.143 0.201,-0.118 0.202,-0.113C0.205,-0.075 0.216,-0.056 0.233,-0.056C0.242,-0.056 0.251,-0.057 0.26,-0.06C0.267,-0.062 0.274,-0.063 0.279,-0.063C0.3,-0.063 0.311,-0.052 0.311,-0.031C0.311,-0.008 0.297,0.004 0.27,0.004L0.266,0.004C0.256,0.004 0.241,0.003 0.221,0.001C0.2,-0.002 0.185,-0.003 0.175,-0.003C0.148,-0.003 0.127,-0.002 0.112,-0.001L0.056,0.004C0.029,0.004 0.015,-0.008 0.015,-0.031C0.015,-0.052 0.028,-0.062 0.053,-0.062C0.06,-0.062 0.065,-0.062 0.068,-0.061L0.083,-0.058C0.09,-0.057 0.094,-0.056 0.097,-0.056C0.114,-0.056 0.123,-0.071 0.124,-0.102L0.126,-0.153L0.123,-0.38C0.121,-0.419 0.111,-0.439 0.093,-0.439C0.088,-0.439 0.08,-0.438 0.071,-0.436C0.062,-0.434 0.054,-0.433 0.049,-0.433C0.027,-0.433 0.016,-0.444 0.016,-0.465C0.016,-0.488 0.03,-0.5 0.059,-0.5C0.066,-0.5 0.076,-0.499 0.089,-0.498C0.102,-0.496 0.112,-0.495 0.119,-0.495C0.124,-0.495 0.133,-0.496 0.145,-0.497C0.15,-0.498 0.157,-0.499 0.164,-0.499C0.181,-0.499 0.19,-0.49 0.19,-0.471Z" style="fill-rule:nonzero;"/>
            </g>
            <g transform="matrix(37.6933,0,0,37.6933,856.829,466)">
                <path d="M0.469,0.013C0.414,0.013 0.381,-0.011 0.368,-0.058C0.334,-0.008 0.281,0.017 0.208,0.017C0.154,0.017 0.111,0.004 0.079,-0.023C0.046,-0.05 0.03,-0.085 0.03,-0.13C0.03,-0.185 0.054,-0.226 0.101,-0.252C0.119,-0.262 0.134,-0.269 0.148,-0.272C0.161,-0.275 0.187,-0.278 0.226,-0.283C0.282,-0.289 0.319,-0.297 0.336,-0.308C0.353,-0.319 0.361,-0.338 0.361,-0.367C0.361,-0.394 0.352,-0.416 0.333,-0.432C0.314,-0.447 0.287,-0.455 0.253,-0.455C0.223,-0.455 0.195,-0.447 0.169,-0.43C0.159,-0.423 0.154,-0.416 0.154,-0.409C0.154,-0.406 0.157,-0.403 0.163,-0.399C0.172,-0.392 0.177,-0.381 0.177,-0.365C0.177,-0.352 0.172,-0.341 0.163,-0.332C0.153,-0.323 0.141,-0.319 0.126,-0.319C0.109,-0.319 0.094,-0.325 0.083,-0.337C0.071,-0.349 0.065,-0.364 0.065,-0.381C0.065,-0.418 0.084,-0.45 0.121,-0.477C0.158,-0.504 0.202,-0.517 0.255,-0.517C0.376,-0.517 0.437,-0.459 0.437,-0.342L0.437,-0.14C0.437,-0.108 0.438,-0.089 0.439,-0.083C0.443,-0.06 0.454,-0.048 0.473,-0.048C0.496,-0.048 0.508,-0.069 0.508,-0.112L0.508,-0.161C0.508,-0.182 0.518,-0.193 0.539,-0.193C0.561,-0.193 0.572,-0.177 0.572,-0.145L0.572,-0.14L0.571,-0.083C0.57,-0.019 0.536,0.013 0.469,0.013ZM0.358,-0.186L0.359,-0.257C0.344,-0.244 0.329,-0.234 0.313,-0.229C0.296,-0.224 0.267,-0.219 0.225,-0.215C0.149,-0.208 0.111,-0.18 0.111,-0.131C0.111,-0.106 0.12,-0.086 0.139,-0.071C0.157,-0.056 0.182,-0.049 0.213,-0.049C0.258,-0.049 0.293,-0.061 0.319,-0.086C0.344,-0.11 0.357,-0.143 0.358,-0.186Z" style="fill-rule:nonzero;"/>
            </g>
            <g transform="matrix(37.6933,0,0,37.6933,878.088,466)">
                <path d="M0.314,-0.138L0.316,-0.202C0.317,-0.229 0.329,-0.243 0.352,-0.243C0.375,-0.243 0.387,-0.228 0.387,-0.197C0.387,-0.124 0.378,-0.074 0.359,-0.045C0.334,-0.006 0.292,0.013 0.234,0.013C0.181,0.013 0.143,-0.004 0.12,-0.038C0.103,-0.063 0.095,-0.105 0.095,-0.164L0.095,-0.404C0.095,-0.418 0.089,-0.425 0.076,-0.425L0.044,-0.425C0.033,-0.425 0.025,-0.428 0.018,-0.436C0.011,-0.443 0.007,-0.451 0.007,-0.461C0.007,-0.47 0.011,-0.479 0.018,-0.486C0.025,-0.493 0.032,-0.497 0.041,-0.497L0.08,-0.497C0.091,-0.497 0.097,-0.503 0.097,-0.516L0.097,-0.619C0.097,-0.644 0.11,-0.657 0.136,-0.657C0.16,-0.657 0.172,-0.644 0.172,-0.619L0.172,-0.512C0.172,-0.502 0.178,-0.497 0.19,-0.497L0.299,-0.497C0.324,-0.497 0.337,-0.485 0.337,-0.462C0.337,-0.437 0.323,-0.425 0.296,-0.425L0.186,-0.425C0.177,-0.425 0.172,-0.418 0.172,-0.404L0.172,-0.158C0.172,-0.088 0.195,-0.053 0.241,-0.053C0.288,-0.053 0.312,-0.081 0.314,-0.138Z" style="fill-rule:nonzero;"/>
            </g>
            <g transform="matrix(37.6933,0,0,37.6933,893.166,466)">
                <path d="M0.269,0.017C0.199,0.017 0.143,-0.007 0.101,-0.056C0.059,-0.104 0.038,-0.169 0.038,-0.25C0.038,-0.331 0.059,-0.396 0.102,-0.445C0.144,-0.493 0.201,-0.517 0.272,-0.517C0.345,-0.517 0.402,-0.493 0.444,-0.446C0.486,-0.399 0.507,-0.334 0.507,-0.253C0.507,-0.172 0.485,-0.106 0.442,-0.057C0.399,-0.008 0.341,0.017 0.269,0.017ZM0.274,-0.451C0.227,-0.451 0.191,-0.435 0.164,-0.402C0.137,-0.369 0.123,-0.323 0.12,-0.263L0.12,-0.25C0.12,-0.187 0.133,-0.138 0.16,-0.103C0.186,-0.067 0.223,-0.049 0.27,-0.049C0.319,-0.049 0.357,-0.067 0.385,-0.103C0.412,-0.138 0.426,-0.188 0.426,-0.251C0.426,-0.384 0.375,-0.451 0.274,-0.451Z" style="fill-rule:nonzero;"/>
            </g>
            <g transform="matrix(37.6933,0,0,37.6933,913.746,466)">
                <path d="M0.19,-0.471L0.19,-0.444C0.225,-0.493 0.271,-0.517 0.329,-0.517C0.376,-0.517 0.413,-0.504 0.443,-0.478C0.471,-0.451 0.486,-0.417 0.486,-0.376C0.486,-0.347 0.479,-0.323 0.464,-0.305C0.449,-0.286 0.43,-0.277 0.406,-0.277C0.391,-0.277 0.378,-0.282 0.367,-0.291C0.356,-0.3 0.351,-0.312 0.351,-0.325C0.351,-0.336 0.355,-0.345 0.363,-0.354C0.371,-0.362 0.38,-0.366 0.391,-0.366C0.393,-0.366 0.397,-0.365 0.404,-0.363C0.408,-0.371 0.41,-0.378 0.41,-0.385C0.41,-0.404 0.402,-0.421 0.385,-0.434C0.368,-0.447 0.346,-0.454 0.321,-0.454C0.269,-0.454 0.234,-0.431 0.217,-0.384C0.206,-0.355 0.201,-0.312 0.201,-0.254L0.201,-0.188C0.201,-0.143 0.201,-0.118 0.202,-0.113C0.205,-0.075 0.216,-0.056 0.233,-0.056C0.242,-0.056 0.251,-0.057 0.26,-0.06C0.267,-0.062 0.274,-0.063 0.279,-0.063C0.3,-0.063 0.311,-0.052 0.311,-0.031C0.311,-0.008 0.297,0.004 0.27,0.004L0.266,0.004C0.256,0.004 0.241,0.003 0.221,0.001C0.2,-0.002 0.185,-0.003 0.175,-0.003C0.148,-0.003 0.127,-0.002 0.112,-0.001L0.056,0.004C0.029,0.004 0.015,-0.008 0.015,-0.031C0.015,-0.052 0.028,-0.062 0.053,-0.062C0.06,-0.062 0.065,-0.062 0.068,-0.061L0.083,-0.058C0.09,-0.057 0.094,-0.056 0.097,-0.056C0.114,-0.056 0.123,-0.071 0.124,-0.102L0.126,-0.153L0.123,-0.38C0.121,-0.419 0.111,-0.439 0.093,-0.439C0.088,-0.439 0.08,-0.438 0.071,-0.436C0.062,-0.434 0.054,-0.433 0.049,-0.433C0.027,-0.433 0.016,-0.444 0.016,-0.465C0.016,-0.488 0.03,-0.5 0.059,-0.5C0.066,-0.5 0.076,-0.499 0.089,-0.498C0.102,-0.496 0.112,-0.495 0.119,-0.495C0.124,-0.495 0.133,-0.496 0.145,-0.497C0.15,-0.498 0.157,-0.499 0.164,-0.499C0.181,-0.499 0.19,-0.49 0.19,-0.471Z" style="fill-rule:nonzero;"/>
            </g>
        </g>
        <g transform="matrix(2.01893,0,0,4.21875,-1536.94,-1117.99)">
            <g transform="matrix(37.6933,0,0,37.6933,804.323,466)">
                <path d="M0.335,-0.591C0.335,-0.6 0.338,-0.609 0.345,-0.616C0.334,-0.627 0.317,-0.632 0.295,-0.632C0.266,-0.632 0.244,-0.623 0.228,-0.605C0.211,-0.586 0.203,-0.561 0.203,-0.528L0.203,-0.51C0.203,-0.501 0.207,-0.497 0.216,-0.497L0.294,-0.497C0.316,-0.497 0.327,-0.485 0.327,-0.461C0.327,-0.437 0.316,-0.425 0.294,-0.425L0.22,-0.425C0.209,-0.425 0.203,-0.419 0.203,-0.407L0.203,-0.127C0.203,-0.102 0.203,-0.088 0.204,-0.084C0.207,-0.066 0.216,-0.057 0.229,-0.057C0.232,-0.057 0.241,-0.059 0.254,-0.062C0.263,-0.063 0.27,-0.064 0.274,-0.064C0.297,-0.064 0.308,-0.053 0.308,-0.031C0.308,-0.008 0.294,0.004 0.267,0.004C0.256,0.004 0.239,0.003 0.216,-0C0.193,-0.003 0.175,-0.004 0.164,-0.004C0.144,-0.004 0.126,-0.003 0.11,-0.001C0.084,0.002 0.067,0.004 0.06,0.004C0.031,0.004 0.017,-0.008 0.017,-0.031C0.017,-0.04 0.021,-0.047 0.028,-0.054C0.034,-0.061 0.043,-0.064 0.052,-0.064C0.059,-0.064 0.066,-0.063 0.075,-0.061C0.083,-0.058 0.09,-0.057 0.097,-0.057C0.11,-0.057 0.118,-0.065 0.121,-0.081C0.124,-0.097 0.126,-0.136 0.127,-0.197L0.128,-0.407C0.128,-0.419 0.122,-0.425 0.11,-0.425L0.06,-0.425C0.037,-0.425 0.025,-0.437 0.025,-0.462C0.025,-0.485 0.037,-0.497 0.061,-0.497L0.118,-0.497C0.127,-0.497 0.131,-0.501 0.131,-0.51L0.131,-0.528C0.131,-0.581 0.145,-0.621 0.173,-0.649C0.201,-0.677 0.241,-0.691 0.292,-0.691C0.334,-0.691 0.368,-0.683 0.393,-0.666C0.418,-0.649 0.431,-0.626 0.431,-0.597C0.431,-0.582 0.426,-0.571 0.417,-0.562C0.408,-0.553 0.396,-0.548 0.382,-0.548C0.369,-0.548 0.358,-0.552 0.349,-0.561C0.339,-0.569 0.335,-0.579 0.335,-0.591Z" style="fill-rule:nonzero;"/>
            </g>
            <g transform="matrix(37.6933,0,0,37.6933,817.365,466)">
                <path d="M0.447,-0.025L0.447,-0.056C0.412,-0.007 0.359,0.017 0.29,0.017C0.211,0.017 0.157,-0.007 0.126,-0.056C0.113,-0.077 0.105,-0.102 0.104,-0.131C0.103,-0.145 0.103,-0.174 0.103,-0.219L0.103,-0.302C0.103,-0.393 0.093,-0.439 0.074,-0.439C0.07,-0.439 0.064,-0.438 0.055,-0.437C0.046,-0.435 0.04,-0.434 0.035,-0.434C0.012,-0.434 0,-0.445 0,-0.467C0,-0.488 0.014,-0.499 0.043,-0.499C0.05,-0.499 0.059,-0.498 0.073,-0.497C0.086,-0.496 0.095,-0.495 0.102,-0.495C0.108,-0.495 0.118,-0.496 0.133,-0.498C0.143,-0.499 0.149,-0.5 0.15,-0.5C0.171,-0.5 0.181,-0.487 0.181,-0.462L0.181,-0.441L0.18,-0.376L0.177,-0.302L0.177,-0.237C0.177,-0.179 0.182,-0.137 0.191,-0.112C0.206,-0.07 0.243,-0.049 0.301,-0.049C0.33,-0.049 0.355,-0.056 0.377,-0.069C0.399,-0.082 0.414,-0.099 0.423,-0.12C0.434,-0.146 0.439,-0.195 0.439,-0.268L0.439,-0.388C0.436,-0.42 0.427,-0.436 0.413,-0.436C0.406,-0.436 0.4,-0.435 0.395,-0.434L0.383,-0.434C0.36,-0.434 0.348,-0.444 0.348,-0.465C0.348,-0.488 0.361,-0.5 0.387,-0.5C0.393,-0.5 0.402,-0.499 0.415,-0.498C0.427,-0.497 0.436,-0.496 0.442,-0.496C0.447,-0.496 0.455,-0.497 0.466,-0.498C0.477,-0.499 0.485,-0.499 0.49,-0.499C0.51,-0.499 0.52,-0.488 0.52,-0.467C0.52,-0.458 0.519,-0.45 0.518,-0.445C0.515,-0.42 0.513,-0.382 0.513,-0.333L0.513,-0.179C0.513,-0.138 0.513,-0.116 0.514,-0.111C0.517,-0.076 0.527,-0.058 0.542,-0.058C0.547,-0.058 0.553,-0.059 0.562,-0.061C0.571,-0.062 0.577,-0.063 0.582,-0.063C0.605,-0.063 0.616,-0.052 0.616,-0.03C0.616,-0.007 0.602,0.004 0.574,0.004C0.568,0.004 0.559,0.003 0.548,0.002C0.531,0 0.521,-0.001 0.517,-0.001C0.515,-0.001 0.508,-0 0.496,0.001C0.488,0.003 0.481,0.004 0.475,0.004C0.456,0.004 0.447,-0.006 0.447,-0.025Z" style="fill-rule:nonzero;"/>
            </g>
            <g transform="matrix(37.6933,0,0,37.6933,840.697,466)">
                <path d="M0.192,-0.469L0.192,-0.441C0.232,-0.492 0.285,-0.517 0.352,-0.517C0.388,-0.517 0.422,-0.508 0.454,-0.49C0.486,-0.471 0.508,-0.448 0.519,-0.421C0.528,-0.398 0.533,-0.369 0.533,-0.332L0.533,-0.142C0.533,-0.113 0.533,-0.096 0.534,-0.091C0.537,-0.068 0.546,-0.057 0.561,-0.057C0.567,-0.057 0.575,-0.058 0.585,-0.06C0.594,-0.061 0.601,-0.062 0.605,-0.062C0.614,-0.062 0.621,-0.059 0.628,-0.053C0.634,-0.047 0.637,-0.04 0.637,-0.031C0.637,-0.021 0.633,-0.013 0.625,-0.006C0.617,0.001 0.607,0.004 0.596,0.004C0.587,0.004 0.571,0.003 0.55,-0C0.529,-0.003 0.509,-0.004 0.49,-0.004C0.473,-0.004 0.458,-0.003 0.447,-0.002C0.414,0.002 0.396,0.004 0.394,0.004C0.367,0.004 0.354,-0.008 0.354,-0.031C0.354,-0.052 0.365,-0.062 0.388,-0.062C0.393,-0.062 0.399,-0.061 0.406,-0.06C0.419,-0.057 0.427,-0.056 0.43,-0.056C0.446,-0.056 0.455,-0.074 0.456,-0.111L0.458,-0.162L0.459,-0.223L0.459,-0.299C0.459,-0.334 0.457,-0.359 0.454,-0.372C0.448,-0.397 0.435,-0.417 0.415,-0.431C0.393,-0.446 0.368,-0.454 0.34,-0.454C0.287,-0.454 0.248,-0.435 0.225,-0.397C0.209,-0.371 0.201,-0.327 0.201,-0.264L0.201,-0.131C0.201,-0.102 0.203,-0.082 0.207,-0.071C0.211,-0.06 0.218,-0.055 0.229,-0.055C0.234,-0.055 0.242,-0.056 0.251,-0.059C0.26,-0.062 0.268,-0.063 0.274,-0.063C0.295,-0.063 0.305,-0.052 0.305,-0.029C0.305,-0.007 0.292,0.004 0.265,0.004C0.26,0.004 0.242,0.002 0.213,-0.002C0.198,-0.004 0.182,-0.005 0.164,-0.005C0.15,-0.005 0.131,-0.004 0.108,-0.001C0.079,0.002 0.062,0.004 0.058,0.004C0.03,0.004 0.016,-0.007 0.016,-0.03C0.016,-0.051 0.027,-0.062 0.048,-0.062C0.051,-0.062 0.057,-0.061 0.067,-0.059C0.076,-0.057 0.084,-0.056 0.093,-0.056C0.113,-0.056 0.123,-0.075 0.124,-0.114L0.126,-0.225L0.126,-0.346L0.124,-0.381C0.123,-0.404 0.12,-0.419 0.116,-0.428C0.111,-0.436 0.104,-0.44 0.093,-0.44C0.088,-0.44 0.082,-0.439 0.073,-0.438C0.064,-0.436 0.057,-0.435 0.052,-0.435C0.028,-0.435 0.016,-0.446 0.016,-0.467C0.016,-0.489 0.031,-0.5 0.061,-0.5C0.065,-0.5 0.068,-0.5 0.071,-0.499L0.108,-0.495C0.119,-0.495 0.128,-0.496 0.136,-0.497C0.153,-0.498 0.162,-0.499 0.163,-0.499C0.182,-0.499 0.192,-0.489 0.192,-0.469Z" style="fill-rule:nonzero;"/>
            </g>
            <g transform="matrix(37.6933,0,0,37.6933,864.707,466)">
                <path d="M0.33,-0.33C0.33,-0.357 0.347,-0.372 0.38,-0.376C0.377,-0.399 0.366,-0.418 0.347,-0.431C0.328,-0.444 0.303,-0.451 0.273,-0.451C0.227,-0.451 0.19,-0.433 0.162,-0.396C0.134,-0.359 0.12,-0.311 0.12,-0.25C0.12,-0.187 0.133,-0.138 0.16,-0.103C0.186,-0.067 0.222,-0.049 0.269,-0.049C0.298,-0.049 0.324,-0.057 0.346,-0.074C0.367,-0.091 0.382,-0.114 0.39,-0.143C0.397,-0.166 0.401,-0.18 0.402,-0.183C0.409,-0.196 0.42,-0.203 0.434,-0.203C0.445,-0.203 0.455,-0.199 0.462,-0.192C0.469,-0.185 0.473,-0.175 0.473,-0.164C0.473,-0.147 0.468,-0.127 0.457,-0.104C0.446,-0.081 0.434,-0.061 0.419,-0.046C0.38,-0.004 0.329,0.017 0.266,0.017C0.198,0.017 0.143,-0.007 0.102,-0.055C0.06,-0.103 0.039,-0.166 0.039,-0.244C0.039,-0.327 0.061,-0.393 0.104,-0.443C0.147,-0.492 0.204,-0.517 0.275,-0.517C0.328,-0.517 0.373,-0.503 0.408,-0.474C0.443,-0.444 0.461,-0.408 0.461,-0.363C0.461,-0.338 0.454,-0.318 0.441,-0.302C0.427,-0.286 0.409,-0.278 0.388,-0.278C0.371,-0.278 0.358,-0.283 0.347,-0.293C0.335,-0.303 0.33,-0.315 0.33,-0.33Z" style="fill-rule:nonzero;"/>
            </g>
        </g>
        <g transform="matrix(2.01893,0,0,4.21875,45.8951,-1117.99)">
            <g transform="matrix(37.6933,0,0,37.6933,804.323,466)">
                <path d="M0.335,-0.591C0.335,-0.6 0.338,-0.609 0.345,-0.616C0.334,-0.627 0.317,-0.632 0.295,-0.632C0.266,-0.632 0.244,-0.623 0.228,-0.605C0.211,-0.586 0.203,-0.561 0.203,-0.528L0.203,-0.51C0.203,-0.501 0.207,-0.497 0.216,-0.497L0.294,-0.497C0.316,-0.497 0.327,-0.485 0.327,-0.461C0.327,-0.437 0.316,-0.425 0.294,-0.425L0.22,-0.425C0.209,-0.425 0.203,-0.419 0.203,-0.407L0.203,-0.127C0.203,-0.102 0.203,-0.088 0.204,-0.084C0.207,-0.066 0.216,-0.057 0.229,-0.057C0.232,-0.057 0.241,-0.059 0.254,-0.062C0.263,-0.063 0.27,-0.064 0.274,-0.064C0.297,-0.064 0.308,-0.053 0.308,-0.031C0.308,-0.008 0.294,0.004 0.267,0.004C0.256,0.004 0.239,0.003 0.216,-0C0.193,-0.003 0.175,-0.004 0.164,-0.004C0.144,-0.004 0.126,-0.003 0.11,-0.001C0.084,0.002 0.067,0.004 0.06,0.004C0.031,0.004 0.017,-0.008 0.017,-0.031C0.017,-0.04 0.021,-0.047 0.028,-0.054C0.034,-0.061 0.043,-0.064 0.052,-0.064C0.059,-0.064 0.066,-0.063 0.075,-0.061C0.083,-0.058 0.09,-0.057 0.097,-0.057C0.11,-0.057 0.118,-0.065 0.121,-0.081C0.124,-0.097 0.126,-0.136 0.127,-0.197L0.128,-0.407C0.128,-0.419 0.122,-0.425 0.11,-0.425L0.06,-0.425C0.037,-0.425 0.025,-0.437 0.025,-0.462C0.025,-0.485 0.037,-0.497 0.061,-0.497L0.118,-0.497C0.127,-0.497 0.131,-0.501 0.131,-0.51L0.131,-0.528C0.131,-0.581 0.145,-0.621 0.173,-0.649C0.201,-0.677 0.241,-0.691 0.292,-0.691C0.334,-0.691 0.368,-0.683 0.393,-0.666C0.418,-0.649 0.431,-0.626 0.431,-0.597C0.431,-0.582 0.426,-0.571 0.417,-0.562C0.408,-0.553 0.396,-0.548 0.382,-0.548C0.369,-0.548 0.358,-0.552 0.349,-0.561C0.339,-0.569 0.335,-0.579 0.335,-0.591Z" style="fill-rule:nonzero;"/>
            </g>
            <g transform="matrix(37.6933,0,0,37.6933,817.365,466)">
                <path d="M0.447,-0.025L0.447,-0.056C0.412,-0.007 0.359,0.017 0.29,0.017C0.211,0.017 0.157,-0.007 0.126,-0.056C0.113,-0.077 0.105,-0.102 0.104,-0.131C0.103,-0.145 0.103,-0.174 0.103,-0.219L0.103,-0.302C0.103,-0.393 0.093,-0.439 0.074,-0.439C0.07,-0.439 0.064,-0.438 0.055,-0.437C0.046,-0.435 0.04,-0.434 0.035,-0.434C0.012,-0.434 0,-0.445 0,-0.467C0,-0.488 0.014,-0.499 0.043,-0.499C0.05,-0.499 0.059,-0.498 0.073,-0.497C0.086,-0.496 0.095,-0.495 0.102,-0.495C0.108,-0.495 0.118,-0.496 0.133,-0.498C0.143,-0.499 0.149,-0.5 0.15,-0.5C0.171,-0.5 0.181,-0.487 0.181,-0.462L0.181,-0.441L0.18,-0.376L0.177,-0.302L0.177,-0.237C0.177,-0.179 0.182,-0.137 0.191,-0.112C0.206,-0.07 0.243,-0.049 0.301,-0.049C0.33,-0.049 0.355,-0.056 0.377,-0.069C0.399,-0.082 0.414,-0.099 0.423,-0.12C0.434,-0.146 0.439,-0.195 0.439,-0.268L0.439,-0.388C0.436,-0.42 0.427,-0.436 0.413,-0.436C0.406,-0.436 0.4,-0.435 0.395,-0.434L0.383,-0.434C0.36,-0.434 0.348,-0.444 0.348,-0.465C0.348,-0.488 0.361,-0.5 0.387,-0.5C0.393,-0.5 0.402,-0.499 0.415,-0.498C0.427,-0.497 0.436,-0.496 0.442,-0.496C0.447,-0.496 0.455,-0.497 0.466,-0.498C0.477,-0.499 0.485,-0.499 0.49,-0.499C0.51,-0.499 0.52,-0.488 0.52,-0.467C0.52,-0.458 0.519,-0.45 0.518,-0.445C0.515,-0.42 0.513,-0.382 0.513,-0.333L0.513,-0.179C0.513,-0.138 0.513,-0.116 0.514,-0.111C0.517,-0.076 0.527,-0.058 0.542,-0.058C0.547,-0.058 0.553,-0.059 0.562,-0.061C0.571,-0.062 0.577,-0.063 0.582,-0.063C0.605,-0.063 0.616,-0.052 0.616,-0.03C0.616,-0.007 0.602,0.004 0.574,0.004C0.568,0.004 0.559,0.003 0.548,0.002C0.531,0 0.521,-0.001 0.517,-0.001C0.515,-0.001 0.508,-0 0.496,0.001C0.488,0.003 0.481,0.004 0.475,0.004C0.456,0.004 0.447,-0.006 0.447,-0.025Z" style="fill-rule:nonzero;"/>
            </g>
            <g transform="matrix(37.6933,0,0,37.6933,840.697,466)">
                <path d="M0.192,-0.469L0.192,-0.441C0.232,-0.492 0.285,-0.517 0.352,-0.517C0.388,-0.517 0.422,-0.508 0.454,-0.49C0.486,-0.471 0.508,-0.448 0.519,-0.421C0.528,-0.398 0.533,-0.369 0.533,-0.332L0.533,-0.142C0.533,-0.113 0.533,-0.096 0.534,-0.091C0.537,-0.068 0.546,-0.057 0.561,-0.057C0.567,-0.057 0.575,-0.058 0.585,-0.06C0.594,-0.061 0.601,-0.062 0.605,-0.062C0.614,-0.062 0.621,-0.059 0.628,-0.053C0.634,-0.047 0.637,-0.04 0.637,-0.031C0.637,-0.021 0.633,-0.013 0.625,-0.006C0.617,0.001 0.607,0.004 0.596,0.004C0.587,0.004 0.571,0.003 0.55,-0C0.529,-0.003 0.509,-0.004 0.49,-0.004C0.473,-0.004 0.458,-0.003 0.447,-0.002C0.414,0.002 0.396,0.004 0.394,0.004C0.367,0.004 0.354,-0.008 0.354,-0.031C0.354,-0.052 0.365,-0.062 0.388,-0.062C0.393,-0.062 0.399,-0.061 0.406,-0.06C0.419,-0.057 0.427,-0.056 0.43,-0.056C0.446,-0.056 0.455,-0.074 0.456,-0.111L0.458,-0.162L0.459,-0.223L0.459,-0.299C0.459,-0.334 0.457,-0.359 0.454,-0.372C0.448,-0.397 0.435,-0.417 0.415,-0.431C0.393,-0.446 0.368,-0.454 0.34,-0.454C0.287,-0.454 0.248,-0.435 0.225,-0.397C0.209,-0.371 0.201,-0.327 0.201,-0.264L0.201,-0.131C0.201,-0.102 0.203,-0.082 0.207,-0.071C0.211,-0.06 0.218,-0.055 0.229,-0.055C0.234,-0.055 0.242,-0.056 0.251,-0.059C0.26,-0.062 0.268,-0.063 0.274,-0.063C0.295,-0.063 0.305,-0.052 0.305,-0.029C0.305,-0.007 0.292,0.004 0.265,0.004C0.26,0.004 0.242,0.002 0.213,-0.002C0.198,-0.004 0.182,-0.005 0.164,-0.005C0.15,-0.005 0.131,-0.004 0.108,-0.001C0.079,0.002 0.062,0.004 0.058,0.004C0.03,0.004 0.016,-0.007 0.016,-0.03C0.016,-0.051 0.027,-0.062 0.048,-0.062C0.051,-0.062 0.057,-0.061 0.067,-0.059C0.076,-0.057 0.084,-0.056 0.093,-0.056C0.113,-0.056 0.123,-0.075 0.124,-0.114L0.126,-0.225L0.126,-0.346L0.124,-0.381C0.123,-0.404 0.12,-0.419 0.116,-0.428C0.111,-0.436 0.104,-0.44 0.093,-0.44C0.088,-0.44 0.082,-0.439 0.073,-0.438C0.064,-0.436 0.057,-0.435 0.052,-0.435C0.028,-0.435 0.016,-0.446 0.016,-0.467C0.016,-0.489 0.031,-0.5 0.061,-0.5C0.065,-0.5 0.068,-0.5 0.071,-0.499L0.108,-0.495C0.119,-0.495 0.128,-0.496 0.136,-0.497C0.153,-0.498 0.162,-0.499 0.163,-0.499C0.182,-0.499 0.192,-0.489 0.192,-0.469Z" style="fill-rule:nonzero;"/>
            </g>
            <g transform="matrix(37.6933,0,0,37.6933,864.707,466)">
                <path d="M0.33,-0.33C0.33,-0.357 0.347,-0.372 0.38,-0.376C0.377,-0.399 0.366,-0.418 0.347,-0.431C0.328,-0.444 0.303,-0.451 0.273,-0.451C0.227,-0.451 0.19,-0.433 0.162,-0.396C0.134,-0.359 0.12,-0.311 0.12,-0.25C0.12,-0.187 0.133,-0.138 0.16,-0.103C0.186,-0.067 0.222,-0.049 0.269,-0.049C0.298,-0.049 0.324,-0.057 0.346,-0.074C0.367,-0.091 0.382,-0.114 0.39,-0.143C0.397,-0.166 0.401,-0.18 0.402,-0.183C0.409,-0.196 0.42,-0.203 0.434,-0.203C0.445,-0.203 0.455,-0.199 0.462,-0.192C0.469,-0.185 0.473,-0.175 0.473,-0.164C0.473,-0.147 0.468,-0.127 0.457,-0.104C0.446,-0.081 0.434,-0.061 0.419,-0.046C0.38,-0.004 0.329,0.017 0.266,0.017C0.198,0.017 0.143,-0.007 0.102,-0.055C0.06,-0.103 0.039,-0.166 0.039,-0.244C0.039,-0.327 0.061,-0.393 0.104,-0.443C0.147,-0.492 0.204,-0.517 0.275,-0.517C0.328,-0.517 0.373,-0.503 0.408,-0.474C0.443,-0.444 0.461,-0.408 0.461,-0.363C0.461,-0.338 0.454,-0.318 0.441,-0.302C0.427,-0.286 0.409,-0.278 0.388,-0.278C0.371,-0.278 0.358,-0.283 0.347,-0.293C0.335,-0.303 0.33,-0.315 0.33,-0.33Z" style="fill-rule:nonzero;"/>
            </g>
        </g>
        <g transform="matrix(2.01893,0,0,4.21875,-762.145,-1117.97)">
            <g transform="matrix(1,-0,-0,1,377.5,265)">
                <path d="M340.711,174.989L349.697,188.498L340.684,201.989" style="fill:none;stroke:rgb(61,61,61);stroke-width:3px;"/>
                <path d="M145.498,189.793C144.671,189.792 143.999,189.119 144,188.291C144.001,187.463 144.674,186.792 145.502,186.793L150.214,186.797C151.042,186.798 151.713,187.471 151.712,188.299C151.711,189.127 151.039,189.798 150.211,189.797L145.498,189.793ZM156.494,189.804C155.666,189.803 154.995,189.13 154.995,188.302C154.996,187.474 155.669,186.803 156.497,186.804L165.921,186.813C166.749,186.814 167.421,187.487 167.42,188.315C167.419,189.143 166.746,189.814 165.918,189.813L156.494,189.804ZM172.201,189.82C171.373,189.819 170.702,189.146 170.703,188.318C170.703,187.49 171.376,186.819 172.204,186.82L181.629,186.829C182.456,186.83 183.128,187.503 183.127,188.331C183.126,189.158 182.453,189.83 181.626,189.829L172.201,189.82ZM187.909,189.835C187.081,189.835 186.41,189.162 186.41,188.334C186.411,187.506 187.084,186.835 187.912,186.835L197.336,186.845C198.164,186.846 198.836,187.518 198.835,188.346C198.834,189.174 198.161,189.846 197.333,189.845L187.909,189.835ZM203.616,189.851C202.788,189.85 202.117,189.178 202.117,188.35C202.118,187.522 202.791,186.85 203.619,186.851L213.043,186.861C213.871,186.861 214.543,187.534 214.542,188.362C214.541,189.19 213.868,189.861 213.04,189.861L203.616,189.851ZM219.324,189.867C218.496,189.866 217.824,189.193 217.825,188.365C217.826,187.538 218.499,186.866 219.327,186.867L228.751,186.876C229.579,186.877 230.251,187.55 230.25,188.378C230.249,189.206 229.576,189.877 228.748,189.876L219.324,189.867ZM235.031,189.883C234.203,189.882 233.532,189.209 233.532,188.381C233.533,187.553 234.206,186.882 235.034,186.883L244.458,186.892C245.286,186.893 245.958,187.566 245.957,188.394C245.956,189.222 245.283,189.893 244.455,189.892L235.031,189.883ZM250.739,189.899C249.911,189.898 249.24,189.225 249.24,188.397C249.241,187.569 249.914,186.898 250.742,186.899L260.166,186.908C260.994,186.909 261.666,187.582 261.665,188.41C261.664,189.237 260.991,189.909 260.163,189.908L250.739,189.899ZM266.446,189.914C265.618,189.914 264.947,189.241 264.948,188.413C264.949,187.585 265.621,186.914 266.449,186.914L275.874,186.924C276.702,186.925 277.373,187.598 277.372,188.425C277.372,189.253 276.699,189.925 275.871,189.924L266.446,189.914ZM282.154,189.93C281.326,189.929 280.654,189.257 280.655,188.429C280.656,187.601 281.329,186.929 282.157,186.93L291.581,186.94C292.409,186.941 293.08,187.613 293.08,188.441C293.079,189.269 292.406,189.941 291.578,189.94L282.154,189.93ZM297.861,189.946C297.033,189.945 296.362,189.272 296.363,188.445C296.364,187.617 297.036,186.945 297.864,186.946L307.289,186.956C308.117,186.956 308.788,187.629 308.787,188.457C308.786,189.285 308.114,189.956 307.286,189.956L297.861,189.946ZM313.569,189.962C312.741,189.961 312.069,189.288 312.07,188.46C312.071,187.632 312.744,186.961 313.572,186.962L322.996,186.971C323.824,186.972 324.495,187.645 324.495,188.473C324.494,189.301 323.821,189.972 322.993,189.971L313.569,189.962ZM329.276,189.978C328.448,189.977 327.777,189.304 327.777,188.476C327.778,187.648 328.451,186.977 329.279,186.978L338.703,186.987C339.531,186.988 340.203,187.661 340.202,188.489C340.201,189.317 339.528,189.988 338.7,189.987L329.276,189.978ZM344.983,189.993C344.156,189.993 343.484,189.32 343.485,188.492C343.486,187.664 344.159,186.993 344.986,186.993L349.699,186.998C350.527,186.999 351.198,187.672 351.197,188.5C351.196,189.328 350.524,189.999 349.696,189.998L344.983,189.993Z" style="fill:rgb(61,61,61);"/>
            </g>
        </g>
        <g transform="matrix(2.01893,0,0,4.21875,154.448,-1118.84)">
            <g transform="matrix(1,-0,-0,1,-76.5,265.207)">
                <path d="M794.711,174.782L803.697,188.291L794.684,201.782" style="fill:none;stroke:rgb(61,61,61);stroke-width:3px;"/>
                <path d="M599.498,189.585C598.671,189.585 597.999,188.912 598,188.084C598.001,187.256 598.674,186.585 599.502,186.585L604.214,186.59C605.042,186.591 605.713,187.264 605.712,188.092C605.711,188.919 605.039,189.591 604.211,189.59L599.498,189.585ZM610.494,189.596C609.666,189.596 608.995,188.923 608.995,188.095C608.996,187.267 609.669,186.596 610.497,186.596L619.921,186.606C620.749,186.607 621.421,187.28 621.42,188.107C621.419,188.935 620.746,189.607 619.918,189.606L610.494,189.596ZM626.201,189.612C625.373,189.611 624.702,188.939 624.703,188.111C624.703,187.283 625.376,186.611 626.204,186.612L635.629,186.622C636.456,186.623 637.128,187.295 637.127,188.123C637.126,188.951 636.453,189.623 635.626,189.622L626.201,189.612ZM641.909,189.628C641.081,189.627 640.41,188.954 640.41,188.127C640.411,187.299 641.084,186.627 641.912,186.628L651.336,186.638C652.164,186.638 652.836,187.311 652.835,188.139C652.834,188.967 652.161,189.638 651.333,189.638L641.909,189.628ZM657.616,189.644C656.788,189.643 656.117,188.97 656.117,188.142C656.118,187.314 656.791,186.643 657.619,186.644L667.043,186.653C667.871,186.654 668.543,187.327 668.542,188.155C668.541,188.983 667.868,189.654 667.04,189.653L657.616,189.644ZM673.324,189.66C672.496,189.659 671.824,188.986 671.825,188.158C671.826,187.33 672.499,186.659 673.327,186.66L682.751,186.669C683.579,186.67 684.251,187.343 684.25,188.171C684.249,188.999 683.576,189.67 682.748,189.669L673.324,189.66ZM689.031,189.675C688.203,189.675 687.532,189.002 687.532,188.174C687.533,187.346 688.206,186.675 689.034,186.675L698.458,186.685C699.286,186.686 699.958,187.359 699.957,188.186C699.956,189.014 699.283,189.686 698.455,189.685L689.031,189.675ZM704.739,189.691C703.911,189.69 703.24,189.018 703.24,188.19C703.241,187.362 703.914,186.69 704.742,186.691L714.166,186.701C714.994,186.702 715.666,187.374 715.665,188.202C715.664,189.03 714.991,189.702 714.163,189.701L704.739,189.691ZM720.446,189.707C719.618,189.706 718.947,189.033 718.948,188.206C718.949,187.378 719.621,186.706 720.449,186.707L729.874,186.717C730.702,186.717 731.373,187.39 731.372,188.218C731.372,189.046 730.699,189.717 729.871,189.717L720.446,189.707ZM736.154,189.723C735.326,189.722 734.654,189.049 734.655,188.221C734.656,187.394 735.329,186.722 736.157,186.723L745.581,186.732C746.409,186.733 747.08,187.406 747.08,188.234C747.079,189.062 746.406,189.733 745.578,189.732L736.154,189.723ZM751.861,189.739C751.033,189.738 750.362,189.065 750.363,188.237C750.364,187.409 751.036,186.738 751.864,186.739L761.289,186.748C762.117,186.749 762.788,187.422 762.787,188.25C762.786,189.078 762.114,189.749 761.286,189.748L751.861,189.739ZM767.569,189.755C766.741,189.754 766.069,189.081 766.07,188.253C766.071,187.425 766.744,186.754 767.572,186.755L776.996,186.764C777.824,186.765 778.495,187.438 778.495,188.266C778.494,189.093 777.821,189.765 776.993,189.764L767.569,189.755ZM783.276,189.77C782.448,189.769 781.777,189.097 781.777,188.269C781.778,187.441 782.451,186.769 783.279,186.77L792.703,186.78C793.531,186.781 794.203,187.453 794.202,188.281C794.201,189.109 793.528,189.781 792.7,189.78L783.276,189.77ZM798.983,189.786C798.156,189.785 797.484,189.112 797.485,188.285C797.486,187.457 798.159,186.785 798.986,186.786L803.699,186.791C804.527,186.792 805.198,187.465 805.197,188.292C805.196,189.12 804.524,189.792 803.696,189.791L798.983,189.786Z" style="fill:rgb(61,61,61);"/>
            </g>
        </g>
        <g transform="matrix(1.83802,0,0,3.84073,10.3027,-1687.63)">
            <g transform="matrix(1,0,0,1,897.029,466.863)">
                <path d="M42.985,102.692C42.985,102.692 42.495,106.682 41.585,109.692C40.815,112.242 39.595,114.212 39.485,116.832C39.395,118.992 41.095,120.672 49.075,120.822C55.855,120.942 58.205,118.812 57.995,115.872C57.795,113.142 56.635,111.092 56.005,107.942C55.555,105.672 55.235,102.972 55.235,102.972L42.985,102.692Z" style="fill:rgb(131,93,78);fill-rule:nonzero;"/>
            </g>
            <g transform="matrix(1,0,0,1,897.029,466.863)">
                <path d="M52.135,24.382L34.665,30.862L23.045,32.862C23.045,32.862 21.655,34.622 23.465,36.692C24.775,38.182 26.975,39.252 29.985,39.282C33.375,39.312 34.745,37.982 35.125,39.112C35.505,40.242 30.825,43.032 28.255,44.542C25.685,46.052 17.285,48.652 16.915,52.412C16.635,55.302 19.515,57.222 20.935,57.672C22.745,58.242 25.315,58.122 26.065,58.202C26.815,58.282 27.045,59.712 25.985,60.612C24.925,61.522 22.065,62.502 20.105,63.252C18.145,64.002 10.145,66.652 9.085,67.102C8.025,67.552 6.825,69.442 7.725,72.232C8.635,75.022 11.875,77.132 14.815,78.192C17.755,79.252 18.585,78.792 18.585,78.792C18.585,78.792 18.175,80.392 16.705,81.722C15.235,83.052 10.585,88.002 10.585,88.002C10.585,88.002 1.795,88.232 1.025,88.862C0.255,89.492 -0.235,91.032 0.115,92.502C0.465,93.972 1.585,97.682 8.585,99.712C15.585,101.742 20.275,99.712 20.275,99.712C20.275,99.712 17.955,104.172 23.285,106.292C27.305,107.892 33.435,106.012 34.975,105.592C36.515,105.172 41.905,102.932 41.905,102.932C41.905,102.932 43.375,106.452 49.325,106.712C55.625,106.992 60.035,103.912 60.035,103.912C60.035,103.912 68.755,109.242 75.435,106.432C80.265,104.402 78.725,99.572 78.725,99.572C78.725,99.572 87.195,101.042 93.355,98.592C99.515,96.142 100.495,92.782 100.495,91.102C100.495,89.422 98.045,88.002 96.925,88.072C95.805,88.142 92.515,87.742 90.555,86.902C88.595,86.062 85.955,84.692 85.955,84.692C85.955,84.692 81.375,83.192 78.375,80.602C77.125,79.532 77.255,78.432 79.075,78.362C80.895,78.292 86.415,78.342 89.575,76.052C92.895,73.642 92.895,71.492 92.725,70.522C92.475,69.132 90.995,68.572 90.995,68.572C90.995,68.572 78.315,64.572 78.035,64.222C77.755,63.872 75.725,61.562 75.515,61.352C75.305,61.142 71.735,59.812 72.505,58.762C73.275,57.712 77.325,57.682 79.645,55.262C82.355,52.432 81.605,49.872 80.695,48.892C79.785,47.912 78.145,47.402 78.145,47.402C78.145,47.402 75.065,48.312 74.015,47.822C72.965,47.332 67.965,42.532 67.965,42.532C67.965,42.532 63.715,40.162 63.765,39.442C63.835,38.462 68.125,39.472 71.675,38.322C74.865,37.292 74.745,35.092 74.545,34.262C74.235,32.962 73.085,32.422 72.315,31.862C71.535,31.312 52.135,24.382 52.135,24.382Z" style="fill:rgb(10,124,31);fill-rule:nonzero;"/>
            </g>
            <g transform="matrix(1,0,0,1,897.029,466.863)">
                <path d="M45.015,11.642C45.015,11.642 42.265,17.362 37.595,22.562C30.175,30.822 22.965,32.922 22.965,32.922C22.965,32.922 23.875,35.582 28.705,35.442C34.165,35.282 41.305,31.382 41.305,31.382C41.305,31.382 43.405,36.422 45.995,39.362C49.105,42.892 52.765,45.462 56.425,43.562C57.805,42.842 58.085,39.842 56.425,37.752C52.345,32.612 54.975,32.992 55.265,33.252C55.265,33.252 58.455,35.722 64.325,35.652C70.195,35.582 72.305,31.872 72.305,31.872C72.305,31.872 65.025,27.812 60.265,22.282C55.505,16.752 51.585,11.992 51.585,11.992L45.015,11.642Z" style="fill:rgb(2,171,72);fill-rule:nonzero;"/>
            </g>
            <g transform="matrix(1,0,0,1,897.029,466.863)">
                <path d="M42.005,41.732C41.995,41.742 38.605,43.922 34.795,43.622C33.145,43.492 31.975,42.262 31.975,42.262C31.975,42.262 28.195,44.482 26.325,45.442C24.015,46.632 21.055,47.812 19.495,48.942C18.725,49.502 17.645,50.692 17.645,50.692C17.645,50.692 18.205,53.282 23.105,53.282C28.005,53.282 31.295,52.652 34.305,53.492C37.315,54.332 42.005,59.022 45.295,59.022C48.585,59.022 50.895,54.612 54.045,54.612C57.195,54.612 58.035,56.222 62.865,56.712C67.695,57.202 75.325,54.402 77.075,52.722C79.445,50.442 78.155,47.402 78.155,47.402C78.155,47.402 75.085,46.172 72.325,44.832C69.935,43.672 67.985,42.572 67.985,42.572C67.985,42.572 66.865,43.832 65.605,43.762C64.345,43.692 62.535,42.972 61.065,44.092C59.595,45.212 58.715,46.972 55.805,47.402C48.655,48.452 42.005,41.732 42.005,41.732Z" style="fill:rgb(2,171,72);fill-rule:nonzero;"/>
            </g>
            <g transform="matrix(1,0,0,1,897.029,466.863)">
                <path d="M9.045,67.142C9.045,67.142 8.025,70.542 12.725,72.652C17.425,74.762 26.255,72.892 26.665,73.302C27.075,73.712 19.425,77.852 23.425,81.242C28.205,85.292 40.525,73.222 41.335,73.222C42.145,73.222 42.555,83.192 47.495,84.972C52.435,86.752 57.295,79.462 60.295,78.572C63.295,77.682 65.485,80.352 69.365,80.512C74.485,80.722 76.985,79.382 77.305,77.272C77.625,75.162 73.095,71.362 74.065,70.552C75.035,69.742 76.735,72.742 83.545,72.252C90.355,71.762 91.035,68.572 91.035,68.572L75.475,61.362C75.475,61.362 73.335,63.912 69.935,63.992C66.535,64.072 57.945,62.612 54.545,63.582C51.145,64.552 50.085,68.442 44.415,68.202C38.745,67.962 34.935,64.152 31.045,66.012C27.155,67.872 24.305,70.252 22.145,68.922C20.905,68.152 21.035,67.052 21.145,65.342C21.225,64.042 21.725,62.672 21.725,62.672L9.045,67.142Z" style="fill:rgb(2,171,72);fill-rule:nonzero;"/>
            </g>
            <g transform="matrix(1,0,0,1,897.029,466.863)">
                <path d="M0.985,88.902C0.985,88.902 3.165,94.862 13.795,94.862C22.875,94.862 26.065,89.822 27.785,88.382C29.495,86.942 30.735,84.922 31.285,85.812C31.835,86.702 25.795,93.222 23.325,95.622C21.945,96.962 20.235,99.532 22.845,101.182C25.455,102.832 31.555,102.072 36.495,99.952C41.435,97.832 42.875,93.432 42.875,93.432C42.875,93.432 39.175,91.992 38.485,87.532C37.795,83.072 37.595,81.182 36.155,80.982C34.715,80.772 24.455,89.142 18.105,86.432C15.085,85.142 16.655,81.772 16.655,81.772C16.655,81.772 13.745,84.072 9.835,85.562C6.845,86.692 0.985,88.902 0.985,88.902Z" style="fill:rgb(2,171,72);fill-rule:nonzero;"/>
            </g>
            <g transform="matrix(1,0,0,1,897.029,466.863)">
                <path d="M44.875,93.772C44.875,93.772 43.595,97.772 43.855,98.752C44.345,100.622 46.175,102.552 50.775,102.202C55.375,101.862 57.905,100.142 57.845,98.632C57.785,97.122 54.825,93.352 56.265,92.392C57.705,91.432 58.735,93.622 60.175,95.962C61.615,98.302 67.855,105.842 74.445,102.272C80.475,99.002 72.385,92.532 74.035,91.502C75.685,90.472 79.595,94.102 85.555,93.832C96.115,93.352 97.555,88.142 97.555,88.142C97.555,88.142 93.505,87.112 91.175,86.492C88.845,85.872 85.955,84.702 85.955,84.702C85.955,84.702 81.225,87.112 74.645,86.902C68.065,86.692 64.145,84.092 61.335,84.572C58.525,85.052 56.395,89.022 52.895,91.292C48.025,94.452 44.875,93.772 44.875,93.772Z" style="fill:rgb(2,171,72);fill-rule:nonzero;"/>
            </g>
            <g transform="matrix(1,0,0,1,897.029,466.863)">
                <path d="M52.525,13.982C52.465,14.162 50.845,19.972 49.115,19.972C47.375,19.972 44.505,13.742 44.505,13.742C44.505,13.742 38.435,13.552 38.155,12.722C37.795,11.642 42.165,7.032 42.165,7.032C42.165,7.032 41.385,0.682 42.105,0.082C42.915,-0.598 48.575,3.192 48.575,3.192C48.575,3.192 54.335,-0.098 55.285,0.612C56.245,1.332 54.505,6.782 54.505,6.782C54.505,6.782 59.115,10.552 58.755,11.572C58.395,12.602 52.525,13.982 52.525,13.982Z" style="fill:rgb(252,193,26);fill-rule:nonzero;"/>
            </g>
            <g transform="matrix(1,0,0,1,897.029,466.863)">
                <path d="M44.855,1.992C44.605,2.192 45.085,3.452 46.325,4.922C47.565,6.392 48.435,7.612 48.705,7.652C48.975,7.682 50.785,5.372 51.415,4.672C52.055,3.972 52.805,2.582 52.585,2.362C52.185,1.962 48.635,4.442 48.635,4.442C48.635,4.442 45.275,1.662 44.855,1.992Z" style="fill:rgb(254,229,107);fill-rule:nonzero;"/>
            </g>
            <g transform="matrix(1,0,0,1,897.029,466.863)">
                <path d="M38.885,12.022C39.175,12.232 46.255,9.572 46.355,9.212C46.465,8.792 44.245,7.842 43.575,7.642C42.905,7.442 41.695,8.482 40.565,9.722C39.595,10.762 38.645,11.852 38.885,12.022Z" style="fill:rgb(254,229,107);fill-rule:nonzero;"/>
            </g>
            <g transform="matrix(1,0,0,1,897.029,466.863)">
                <path d="M50.575,22.422C47.015,22.472 45.435,24.912 45.475,27.852C45.515,30.792 47.625,32.782 50.945,32.742C54.265,32.702 55.995,30.422 55.875,27.232C55.775,24.452 53.805,22.382 50.575,22.422Z" style="fill:rgb(255,95,94);fill-rule:nonzero;"/>
            </g>
            <g transform="matrix(1,0,0,1,897.029,466.863)">
                <path d="M64.295,42.252C60.735,42.302 58.665,44.942 58.705,47.882C58.745,50.822 60.985,53.102 64.545,53.062C68.195,53.022 70.015,50.412 69.885,47.222C69.785,44.452 67.525,42.212 64.295,42.252Z" style="fill:rgb(252,216,30);fill-rule:nonzero;"/>
            </g>
            <g transform="matrix(1,0,0,1,897.029,466.863)">
                <path d="M40.385,43.282C36.655,43.332 34.665,45.912 34.705,49.042C34.745,52.172 37.245,54.392 40.715,54.342C44.185,54.302 46.105,51.812 45.975,48.422C45.865,45.462 43.765,43.242 40.385,43.282Z" style="fill:rgb(223,14,43);fill-rule:nonzero;"/>
            </g>
            <g transform="matrix(1,0,0,1,897.029,466.863)">
                <path d="M30.535,62.222C26.765,62.262 24.905,65.042 24.945,68.312C24.995,71.582 27.275,73.742 30.945,73.692C34.615,73.642 36.545,71.112 36.415,67.562C36.295,64.482 34.115,62.182 30.535,62.222Z" style="fill:rgb(255,210,177);fill-rule:nonzero;"/>
            </g>
            <g transform="matrix(1,0,0,1,897.029,466.863)">
                <path d="M51.565,67.912C47.605,67.962 45.855,70.672 45.905,73.942C45.955,77.212 48.295,79.422 51.975,79.372C55.655,79.322 57.585,76.792 57.455,73.252C57.335,70.172 55.155,67.872 51.565,67.912Z" style="fill:rgb(252,216,30);fill-rule:nonzero;"/>
            </g>
            <g transform="matrix(1,0,0,1,897.029,466.863)">
                <path d="M70.565,62.262C66.575,62.312 64.625,65.082 64.665,68.392C64.715,71.702 67.035,74.152 70.755,74.112C74.465,74.062 76.645,71.272 76.505,67.682C76.395,64.552 74.195,62.222 70.565,62.262Z" style="fill:rgb(255,95,93);fill-rule:nonzero;"/>
            </g>
            <g transform="matrix(1,0,0,1,897.029,466.863)">
                <path d="M72.615,90.462C72.795,86.812 70.635,84.892 67.635,84.712C64.635,84.532 62.365,86.362 62.155,89.752C61.945,93.142 63.995,95.412 67.255,95.522C70.095,95.622 72.445,93.952 72.615,90.462Z" style="fill:rgb(201,201,201);fill-rule:nonzero;"/>
            </g>
            <g transform="matrix(1,0,0,1,897.029,466.863)">
                <path d="M32.175,85.052C28.465,85.102 26.825,87.602 26.865,90.612C26.905,93.622 29.105,95.662 32.555,95.622C36.005,95.582 37.815,93.242 37.685,89.982C37.585,87.122 35.545,85.002 32.175,85.052Z" style="fill:rgb(255,95,94);fill-rule:nonzero;"/>
            </g>
            <g transform="matrix(1,0,0,1,897.029,466.863)">
                <path d="M28.675,90.512C29.755,91.092 30.165,89.522 30.705,88.982C31.245,88.442 32.525,87.532 31.905,86.742C31.285,85.952 29.705,86.402 28.965,87.242C27.965,88.362 27.795,90.042 28.675,90.512Z" style="fill:rgb(249,255,255);fill-rule:nonzero;"/>
            </g>
            <g transform="matrix(1,0,0,1,897.029,466.863)">
                <path d="M64.135,90.352C65.215,90.932 65.675,89.352 66.125,88.732C66.705,87.942 68.115,87.402 67.495,86.622C66.875,85.832 65.375,86.332 64.635,87.162C63.635,88.282 63.255,89.872 64.135,90.352Z" style="fill:rgb(249,255,255);fill-rule:nonzero;"/>
            </g>
            <g transform="matrix(1,0,0,1,897.029,466.863)">
                <path d="M66.885,68.102C68.075,68.712 68.525,66.992 69.105,66.282C69.625,65.652 71.145,64.972 70.455,64.142C69.765,63.312 68.145,63.752 67.325,64.622C66.225,65.802 65.915,67.602 66.885,68.102Z" style="fill:rgb(249,255,255);fill-rule:nonzero;"/>
            </g>
            <g transform="matrix(1,0,0,1,897.029,466.863)">
                <path d="M48.065,73.822C49.145,74.402 49.555,72.832 50.095,72.292C50.635,71.752 51.915,70.552 51.295,69.762C50.675,68.972 49.145,69.472 48.355,70.552C47.475,71.762 47.185,73.352 48.065,73.822Z" style="fill:rgb(249,255,255);fill-rule:nonzero;"/>
            </g>
            <g transform="matrix(1,0,0,1,897.029,466.863)">
                <path d="M26.975,68.142C28.055,68.722 28.735,67.082 29.205,66.482C30.115,65.322 30.985,64.702 30.365,63.912C29.745,63.122 28.085,63.792 27.265,64.862C26.365,66.062 26.105,67.672 26.975,68.142Z" style="fill:rgb(249,255,255);fill-rule:nonzero;"/>
            </g>
            <g transform="matrix(1,0,0,1,897.029,466.863)">
                <path d="M36.865,49.002C37.945,49.582 38.465,48.092 38.895,47.472C39.555,46.522 40.795,45.732 40.175,44.942C39.555,44.152 38.065,44.572 37.155,45.732C36.235,46.902 35.985,48.522 36.865,49.002Z" style="fill:rgb(249,255,255);fill-rule:nonzero;"/>
            </g>
            <g transform="matrix(1,0,0,1,897.029,466.863)">
                <path d="M60.965,48.492C62.145,49.132 62.595,47.402 63.185,46.812C63.775,46.222 65.185,45.222 64.505,44.362C63.825,43.502 62.095,43.992 61.285,44.902C60.185,46.132 59.995,47.982 60.965,48.492Z" style="fill:rgb(249,255,255);fill-rule:nonzero;"/>
            </g>
            <g transform="matrix(1,0,0,1,897.029,466.863)">
                <path d="M47.015,27.762C48.095,28.342 48.505,26.772 49.045,26.232C49.585,25.692 50.865,24.782 50.245,23.992C49.625,23.202 48.375,23.622 47.465,24.692C46.505,25.842 46.135,27.292 47.015,27.762Z" style="fill:rgb(249,255,255);fill-rule:nonzero;"/>
            </g>
            <g transform="matrix(1,0,0,1,897.029,466.863)">
                <path d="M35.635,28.712C34.095,28.712 33.395,29.372 33.275,30.742C33.155,32.072 33.985,32.892 35.225,32.982C36.965,33.102 37.505,31.662 37.505,30.742C37.495,29.702 36.665,28.712 35.635,28.712Z" style="fill:rgb(249,195,25);fill-rule:nonzero;"/>
            </g>
            <g transform="matrix(1,0,0,1,897.029,466.863)">
                <path d="M42.245,34.582C40.945,33.762 39.825,34.312 39.285,34.982C38.515,35.932 38.635,37.382 39.715,37.972C41.125,38.742 42.255,38.152 42.715,37.462C43.415,36.422 43.205,35.192 42.245,34.582Z" style="fill:rgb(249,195,25);fill-rule:nonzero;"/>
            </g>
            <g transform="matrix(1,0,0,1,897.029,466.863)">
                <path d="M48.145,37.352C46.815,37.602 46.195,38.672 46.455,40.022C46.655,41.082 47.825,41.832 49.025,41.542C50.725,41.142 50.805,39.592 50.525,38.722C50.225,37.742 49.165,37.172 48.145,37.352Z" style="fill:rgb(249,195,25);fill-rule:nonzero;"/>
            </g>
            <g transform="matrix(1,0,0,1,897.029,466.863)">
                <path d="M64.925,31.152C63.715,30.202 62.475,30.562 61.845,31.352C61.125,32.252 61.065,33.422 61.975,34.262C63.055,35.252 64.565,34.732 65.095,34.052C65.705,33.282 65.735,31.792 64.925,31.152Z" style="fill:rgb(249,195,25);fill-rule:nonzero;"/>
            </g>
            <g transform="matrix(1,0,0,1,897.029,466.863)">
                <path d="M58.045,36.662C56.495,36.662 55.785,37.322 55.655,38.682C55.535,40.002 56.415,40.862 57.665,40.952C59.425,41.072 59.925,39.592 59.925,38.682C59.935,37.652 59.095,36.662 58.045,36.662Z" style="fill:rgb(249,195,25);fill-rule:nonzero;"/>
            </g>
            <g transform="matrix(1,0,0,1,897.029,466.863)">
                <path d="M30.115,51.162C28.535,51.162 27.815,51.832 27.685,53.212C27.565,54.552 28.415,55.382 29.685,55.472C31.475,55.602 32.025,54.132 32.025,53.212C32.025,52.162 31.175,51.162 30.115,51.162Z" style="fill:rgb(249,195,25);fill-rule:nonzero;"/>
            </g>
            <g transform="matrix(1,0,0,1,897.029,466.863)">
                <path d="M37.235,56.612C35.715,56.132 34.895,56.592 34.275,57.862C33.775,58.892 34.275,60.262 35.495,60.672C37.255,61.252 38.155,60.092 38.435,59.192C38.765,58.172 38.255,56.932 37.235,56.612Z" style="fill:rgb(249,195,25);fill-rule:nonzero;"/>
            </g>
            <g transform="matrix(1,0,0,1,897.029,466.863)">
                <path d="M46.675,63.062C46.635,61.462 45.895,60.752 44.425,60.662C42.985,60.572 42.135,61.462 42.075,62.762C41.995,64.582 43.565,65.102 44.545,65.072C45.665,65.032 46.705,64.142 46.675,63.062Z" style="fill:rgb(249,195,25);fill-rule:nonzero;"/>
            </g>
            <g transform="matrix(1,0,0,1,897.029,466.863)">
                <path d="M54.235,60.272C52.585,60.272 51.835,60.972 51.695,62.422C51.565,63.832 52.455,64.692 53.785,64.792C55.655,64.922 56.235,63.392 56.235,62.422C56.235,61.322 55.345,60.272 54.235,60.272Z" style="fill:rgb(249,195,25);fill-rule:nonzero;"/>
            </g>
            <g transform="matrix(1,0,0,1,897.029,466.863)">
                <path d="M63.535,57.412C61.995,57.412 61.295,58.072 61.175,59.442C61.055,60.772 61.885,61.592 63.125,61.682C64.865,61.802 65.405,60.362 65.405,59.442C65.395,58.412 64.565,57.412 63.535,57.412Z" style="fill:rgb(249,195,25);fill-rule:nonzero;"/>
            </g>
            <g transform="matrix(1,0,0,1,897.029,466.863)">
                <path d="M69.695,55.482C70.005,56.852 71.065,57.372 72.395,57.032C73.685,56.702 74.185,55.652 73.855,54.452C73.395,52.772 71.845,52.742 70.985,53.052C70.015,53.392 69.475,54.472 69.695,55.482Z" style="fill:rgb(249,195,25);fill-rule:nonzero;"/>
            </g>
            <g transform="matrix(1,0,0,1,897.029,466.863)">
                <path d="M83.085,69.572C81.625,69.572 80.955,70.212 80.835,71.522C80.715,72.802 81.505,73.592 82.695,73.672C84.355,73.792 84.865,72.402 84.865,71.522C84.865,70.532 84.075,69.572 83.085,69.572Z" style="fill:rgb(249,195,25);fill-rule:nonzero;"/>
            </g>
            <g transform="matrix(1,0,0,1,897.029,466.863)">
                <path d="M78.515,77.312C78.665,75.622 78.015,74.792 76.535,74.522C75.095,74.262 74.125,75.092 73.905,76.442C73.595,78.342 75.125,79.072 76.125,79.162C77.255,79.262 78.415,78.452 78.515,77.312Z" style="fill:rgb(249,195,25);fill-rule:nonzero;"/>
            </g>
            <g transform="matrix(1,0,0,1,897.029,466.863)">
                <path d="M68.205,78.352C66.585,78.422 65.705,79.532 65.805,81.132C65.905,82.692 67.035,83.482 68.505,83.352C70.565,83.172 70.935,81.402 70.765,80.342C70.575,79.152 69.435,78.292 68.205,78.352Z" style="fill:rgb(249,195,25);fill-rule:nonzero;"/>
            </g>
            <g transform="matrix(1,0,0,1,897.029,466.863)">
                <path d="M58.825,81.692C57.175,81.482 56.185,82.452 56.035,84.032C55.895,85.562 56.875,86.482 58.335,86.612C60.695,86.832 61.025,85.092 61.025,84.032C61.025,82.842 60.035,81.842 58.825,81.692Z" style="fill:rgb(249,195,25);fill-rule:nonzero;"/>
            </g>
            <g transform="matrix(1,0,0,1,897.029,466.863)">
                <path d="M47.095,82.972C45.475,83.042 44.595,84.152 44.695,85.752C44.795,87.312 45.925,88.102 47.395,87.972C49.455,87.792 49.825,86.022 49.655,84.962C49.475,83.772 48.325,82.922 47.095,82.972Z" style="fill:rgb(249,195,25);fill-rule:nonzero;"/>
            </g>
            <g transform="matrix(1,0,0,1,897.029,466.863)">
                <path d="M36.875,79.832C35.285,79.902 34.455,81.162 34.525,82.542C34.595,84.052 35.725,84.822 37.165,84.692C39.185,84.512 39.545,82.792 39.385,81.772C39.195,80.602 38.075,79.772 36.875,79.832Z" style="fill:rgb(249,195,25);fill-rule:nonzero;"/>
            </g>
            <g transform="matrix(1,0,0,1,897.029,466.863)">
                <path d="M27.285,75.962C25.695,76.032 24.835,77.112 24.935,78.662C25.035,80.172 26.125,80.932 27.565,80.802C29.585,80.622 29.945,78.912 29.785,77.882C29.605,76.732 28.485,75.912 27.285,75.962Z" style="fill:rgb(249,195,25);fill-rule:nonzero;"/>
            </g>
            <g transform="matrix(1,0,0,1,897.029,466.863)">
                <path d="M21.285,68.372C19.915,68.432 19.175,69.372 19.265,70.732C19.355,72.052 20.295,72.722 21.535,72.612C23.275,72.462 23.585,70.962 23.435,70.062C23.285,69.052 22.315,68.332 21.285,68.372Z" style="fill:rgb(249,195,25);fill-rule:nonzero;"/>
            </g>
        </g>
        <g transform="matrix(0.433754,0,0,0.906372,88.2189,105.469)">
            <g>
                <path d="M411.5,447.5L327.797,322.156L374.547,322.156L290.406,196.109L336.687,196.109L205.75,0L74.797,196.109L121.078,196.109L36.938,322.156L83.688,322.156L0,447.5L189.625,447.5L189.625,512L221.876,512L221.876,447.5L411.5,447.5ZM125.797,299.938L79.063,299.938L163.188,173.922L116.907,173.922L205.75,40.875L294.578,173.922L248.281,173.922L332.437,299.938L285.687,299.938L369.39,425.297L213.813,425.297L213.813,387.906L276.86,315.875L264.719,305.25L213.813,363.438L213.813,304.032L264.657,245.923L252.516,235.314L213.813,279.548L213.813,171.469L197.688,171.469L197.688,279.532L158.985,235.313L146.844,245.922L197.688,304.031L197.688,363.422L146.782,305.25L134.657,315.875L197.688,387.906L197.688,425.297L42.109,425.297L125.797,299.938Z" style="fill:rgb(2,171,72);fill-rule:nonzero;"/>
            </g>
        </g>
        <g transform="matrix(2.01893,0,0,4.21875,1822.67,685.012)">
            <path d="M8,0L8,16M14,2L2,14M16,8L0,8M14,14L2,2" style="fill-rule:nonzero;stroke:black;stroke-width:2px;stroke-linejoin:round;stroke-miterlimit:4;"/>
        </g>
    </g>
</svg>
