<svg xmlns="http://www.w3.org/2000/svg" xmlns:xlink="http://www.w3.org/1999/xlink" width="951" height="256" fill-rule="evenodd" stroke-linecap="round" stroke-miterlimit="10" xmlns:v="https://vecta.io/nano"><g transform="scale(.495312 .237037)"><path d="M977 418.25v70.5c0 19.455-9.522 35.25-21.25 35.25h-205.5c-11.728 0-21.25-15.795-21.25-35.25v-70.5c0-19.455 9.522-35.25 21.25-35.25h205.5c11.728 0 21.25 15.795 21.25 35.25z" fill="#1ae679" transform="matrix(2.01893 0 0 2.54322 -762.145 -358.115)"/><use xlink:href="#B" fill="#4eaceb" transform="matrix(1.00946 0 0 2.54322 -692.492 -358.115)"/><use xlink:href="#B" fill="#e6d51a" transform="matrix(1.00946 0 0 2.54322 890.347 -358.115)"/><g fill-rule="nonzero"><path d="M800.8 765.735c5.023 0 8.752 4.134 11.263 12.244v-16.061c0-4.294-.076-6.838-.152-7.792-.228-3.339-.989-4.93-2.131-4.93-.381 0-.989.159-1.674.477-.761.318-1.37.477-1.75.477-1.903 0-2.816-1.749-2.816-5.089 0-3.498 1.294-5.248 3.805-5.248.381 0 1.142.159 2.207.318l2.511.477c.457 0 1.142-.159 1.979-.318s1.522-.318 1.979-.318c1.446 0 2.131 2.067 2.131 6.361v1.749c-.076.318-.076 3.18-.152 8.428 0 .636-.076 4.771-.228 12.244l-.152 12.085v15.584l.152 26.556c.076 6.997.228 11.29.457 13.04s.837 2.544 1.826 2.544a3.68 3.68 0 0 0 1.522-.318c.837-.159 1.37-.318 1.674-.318 1.903 0 2.816 1.749 2.816 5.248 0 3.657-1.142 5.407-3.425 5.407-.533 0-1.294-.159-2.283-.318-1.065-.318-1.826-.477-2.359-.477-.152 0-.761.159-1.75.318-.609.318-1.142.477-1.598.477-1.37 0-2.055-1.908-2.055-5.725v-.795l.076-2.703c-2.664 7.474-6.621 11.29-11.719 11.29-5.175 0-9.36-3.975-12.48-11.767s-4.718-18.128-4.718-30.85c0-12.881 1.522-23.058 4.642-30.85 3.12-7.633 7.23-11.449 12.404-11.449zm10.806 56.134c.228-3.498.304-7.951.304-13.517 0-7.156-.152-11.926-.381-14.471-.457-5.248-1.522-9.382-3.272-12.403-2.055-3.498-4.338-5.248-7.001-5.248-3.577 0-6.316 2.862-8.295 8.428-2.055 5.566-3.044 13.358-3.044 23.058 0 10.018 1.065 17.969 3.12 23.694 2.055 5.884 4.947 8.746 8.523 8.746 2.74 0 5.023-1.59 6.849-5.089 1.826-3.18 2.892-7.633 3.196-13.199zm52.358-20.673c0 3.975-.152 6.52-.381 7.315-.228.954-.989 1.431-2.207 1.431h-24.2c-.685 0-1.065.159-1.294.477-.228.477-.304 1.113-.304 1.908 0 7.951 1.142 14.63 3.425 19.877s5.099 7.951 8.523 7.951c2.207 0 4.262-1.272 6.164-3.816 1.826-2.544 3.044-5.725 3.577-9.7l.685-4.612c.381-2.544 1.218-3.816 2.511-3.816 1.903 0 2.816 2.067 2.816 6.043 0 6.838-1.674 13.04-5.023 18.287-3.348 5.407-7.153 8.11-11.415 8.11-5.327 0-9.589-3.657-12.709-11.29-3.12-7.315-4.718-17.492-4.718-30.055 0-12.881 1.674-23.376 5.023-31.486s7.686-12.085 13.089-12.085c4.794 0 8.675 3.339 11.796 10.018s4.642 15.107 4.642 25.443zm-27.624-4.134c0 1.431.533 2.226 1.674 2.226h18.188c1.065 0 1.598-.795 1.598-2.226 0-5.566-.989-10.495-3.044-14.63s-4.414-6.202-7.153-6.202c-2.816 0-5.403 2.067-7.762 6.361s-3.501 9.223-3.501 14.471z"/><use xlink:href="#C"/><use xlink:href="#D"/><use xlink:href="#E"/><path d="M1020.044 850.015c-4.186 0-6.697-3.816-7.686-11.29-2.587 7.951-6.621 11.926-12.176 11.926-4.109 0-7.382-2.067-9.817-6.361-2.511-4.294-3.729-9.859-3.729-17.015 0-8.746 1.826-15.266 5.403-19.4 1.37-1.59 2.511-2.703 3.577-3.18.989-.477 2.968-.954 5.936-1.749 4.262-.954 7.077-2.226 8.371-3.975s1.903-4.771 1.903-9.382c0-4.294-.685-7.792-2.131-10.336-1.446-2.385-3.501-3.657-6.088-3.657-2.283 0-4.414 1.272-6.392 3.975-.761 1.113-1.142 2.226-1.142 3.339 0 .477.228.954.685 1.59.685 1.113 1.065 2.862 1.065 5.407 0 2.067-.381 3.816-1.065 5.248-.761 1.431-1.674 2.067-2.816 2.067-1.294 0-2.435-.954-3.272-2.862-.913-1.908-1.37-4.294-1.37-6.997 0-5.884 1.446-10.972 4.262-15.266s6.164-6.361 10.197-6.361c9.208 0 13.85 9.223 13.85 27.828v32.122c0 5.089.076 8.11.152 9.064.304 3.657 1.142 5.566 2.587 5.566 1.75 0 2.664-3.339 2.664-10.177v-7.792c0-3.339.761-5.089 2.359-5.089 1.674 0 2.511 2.544 2.511 7.633v.795l-.076 9.064c-.076 10.177-2.664 15.266-7.762 15.266zm-8.447-31.645l.076-11.29c-1.142 2.067-2.283 3.657-3.501 4.453-1.294.795-3.501 1.59-6.697 2.226-5.784 1.113-8.675 5.566-8.675 13.358 0 3.975.685 7.156 2.131 9.541 1.37 2.385 3.272 3.498 5.631 3.498 3.425 0 6.088-1.908 8.067-5.884 1.903-3.816 2.892-9.064 2.968-15.902zm39.572 7.633l.152-10.177c.076-4.294.989-6.52 2.74-6.52s2.664 2.385 2.664 7.315c0 11.608-.685 19.559-2.131 24.171-1.903 6.202-5.099 9.223-9.513 9.223-4.033 0-6.925-2.703-8.675-8.11-1.294-3.975-1.903-10.654-1.903-20.036v-38.164c0-2.226-.457-3.339-1.446-3.339h-2.435c-.837 0-1.446-.477-1.979-1.749-.533-1.113-.837-2.385-.837-3.975 0-1.431.304-2.862.837-3.975s1.065-1.749 1.75-1.749h2.968c.837 0 1.294-.954 1.294-3.021v-16.379c0-3.975.989-6.043 2.968-6.043 1.826 0 2.74 2.067 2.74 6.043v17.015c0 1.59.457 2.385 1.37 2.385h8.295c1.903 0 2.892 1.908 2.892 5.566 0 3.975-1.065 5.884-3.12 5.884h-8.371c-.685 0-1.065 1.113-1.065 3.339v39.119c0 11.131 1.75 16.697 5.251 16.697 3.577 0 5.403-4.453 5.555-13.517z"/><use xlink:href="#D" x="152.276"/><use xlink:href="#E" x="152.276"/><use xlink:href="#F"/><use xlink:href="#G"/><use xlink:href="#H"/><use xlink:href="#C" x="-657.784"/><use xlink:href="#F" x="1582.835"/><use xlink:href="#G" x="1582.836"/><use xlink:href="#H" x="1582.835"/><use xlink:href="#C" x="925.051"/></g><path d="M687.873 738.234l18.142 56.991-18.197 56.915" fill="none" stroke="#3d3d3d" stroke-width="9.921"/><path d="M293.751 800.688c-1.67-.004-3.026-2.843-3.024-6.337s1.361-6.324 3.032-6.32l9.513.017c1.672.004 3.026 2.843 3.024 6.337s-1.359 6.324-3.03 6.32l-9.515-.017zm22.2.046c-1.672-.004-3.026-2.843-3.026-6.337s1.361-6.324 3.032-6.32l19.026.038c1.672.004 3.028 2.843 3.026 6.337s-1.361 6.324-3.032 6.32l-19.026-.038zm31.711.067c-1.672-.004-3.026-2.843-3.024-6.337s1.359-6.324 3.03-6.32l19.028.038c1.67.004 3.026 2.843 3.024 6.337s-1.361 6.324-3.03 6.32l-19.028-.038zm31.713.063c-1.672 0-3.026-2.839-3.026-6.332s1.361-6.324 3.032-6.324l19.026.042c1.672.004 3.028 2.839 3.026 6.332s-1.361 6.328-3.032 6.324l-19.026-.042zm31.711.067c-1.672-.004-3.026-2.839-3.026-6.332s1.361-6.328 3.032-6.324l19.026.042c1.672 0 3.028 2.839 3.026 6.332s-1.361 6.324-3.032 6.324l-19.026-.042zm31.713.067c-1.672-.004-3.028-2.843-3.026-6.337s1.361-6.324 3.032-6.32l19.026.038c1.672.004 3.028 2.843 3.026 6.337s-1.361 6.324-3.032 6.32L442.801 801zm31.711.068c-1.672-.004-3.026-2.843-3.026-6.337s1.361-6.324 3.032-6.32l19.026.038c1.672.004 3.028 2.843 3.026 6.337s-1.361 6.324-3.032 6.32l-19.026-.038zm31.713.067c-1.672-.004-3.026-2.843-3.026-6.337s1.361-6.324 3.032-6.32l19.026.038c1.672.004 3.028 2.843 3.026 6.337s-1.361 6.324-3.032 6.32l-19.026-.038zm31.711.063c-1.672 0-3.026-2.839-3.024-6.332s1.359-6.324 3.03-6.324l19.028.042c1.672.004 3.026 2.843 3.024 6.332s-1.359 6.328-3.03 6.324l-19.028-.042zm31.713.067c-1.672-.004-3.028-2.839-3.026-6.332s1.361-6.328 3.032-6.324l19.026.042c1.672.004 3.026 2.839 3.026 6.332s-1.361 6.328-3.032 6.324l-19.026-.042zm31.711.067c-1.672-.004-3.026-2.843-3.024-6.332s1.359-6.328 3.03-6.324l19.028.042c1.672 0 3.026 2.839 3.024 6.332s-1.359 6.324-3.03 6.324l-19.028-.042zm31.713.067c-1.672-.004-3.028-2.843-3.026-6.337s1.361-6.324 3.032-6.32l19.026.038c1.672.004 3.026 2.843 3.026 6.337s-1.361 6.324-3.032 6.32l-19.026-.038zm31.711.068c-1.672-.004-3.026-2.843-3.026-6.337s1.361-6.324 3.032-6.32l19.026.038c1.672.004 3.028 2.843 3.026 6.337s-1.361 6.324-3.032 6.32l-19.026-.038zm31.711.063c-1.67 0-3.026-2.839-3.024-6.332s1.361-6.324 3.03-6.324l9.515.021c1.672.004 3.026 2.843 3.024 6.337s-1.359 6.324-3.03 6.32l-9.515-.021z" fill="#3d3d3d"/><path d="M1604.466 737.364l18.142 56.991-18.197 56.915" fill="none" stroke="#3d3d3d" stroke-width="9.921"/><path d="M1210.344 799.814c-1.67 0-3.026-2.839-3.024-6.332s1.361-6.324 3.032-6.324l9.513.021c1.672.004 3.026 2.843 3.024 6.337s-1.359 6.324-3.03 6.32l-9.515-.021zm22.2.046c-1.672 0-3.026-2.839-3.026-6.332s1.361-6.324 3.032-6.324l19.026.042c1.672.004 3.028 2.843 3.026 6.332s-1.361 6.328-3.032 6.324l-19.026-.042zm31.711.067c-1.672-.004-3.026-2.839-3.024-6.332s1.359-6.328 3.03-6.324l19.028.042c1.67.004 3.026 2.839 3.024 6.332s-1.361 6.328-3.03 6.324l-19.028-.042zm31.713.067c-1.672-.004-3.026-2.843-3.026-6.332s1.361-6.328 3.032-6.324l19.026.042c1.672 0 3.028 2.839 3.026 6.332s-1.361 6.324-3.032 6.324l-19.026-.042zm31.711.068c-1.672-.004-3.026-2.843-3.026-6.337s1.361-6.324 3.032-6.32l19.026.038c1.672.004 3.028 2.843 3.026 6.337s-1.361 6.324-3.032 6.32l-19.026-.038zm31.713.067c-1.672-.004-3.028-2.843-3.026-6.337s1.361-6.324 3.032-6.32l19.026.038c1.672.004 3.028 2.843 3.026 6.337s-1.361 6.324-3.032 6.32l-19.026-.038zm31.711.063c-1.672 0-3.026-2.839-3.026-6.332s1.361-6.324 3.032-6.324l19.026.042c1.672.004 3.028 2.843 3.026 6.332s-1.361 6.328-3.032 6.324l-19.026-.042zm31.713.067c-1.672-.004-3.026-2.839-3.026-6.332s1.361-6.328 3.032-6.324l19.026.042c1.672.004 3.028 2.839 3.026 6.332s-1.361 6.328-3.032 6.324l-19.026-.042zm31.711.067c-1.672-.004-3.026-2.843-3.024-6.332s1.359-6.328 3.03-6.324l19.028.042c1.672 0 3.026 2.839 3.024 6.332s-1.359 6.324-3.03 6.324l-19.028-.042zm31.713.068c-1.672-.004-3.028-2.843-3.026-6.337s1.361-6.324 3.032-6.32l19.026.038c1.672.004 3.026 2.843 3.026 6.337s-1.361 6.324-3.032 6.32l-19.026-.038zm31.711.067c-1.672-.004-3.026-2.843-3.024-6.337s1.359-6.324 3.03-6.32l19.028.038c1.672.004 3.026 2.843 3.024 6.337s-1.359 6.324-3.03 6.32l-19.028-.038zm31.713.067c-1.672-.004-3.028-2.843-3.026-6.337s1.361-6.324 3.032-6.32l19.026.038c1.672.004 3.026 2.843 3.026 6.337s-1.361 6.324-3.032 6.32l-19.026-.038zm31.711.063c-1.672-.004-3.026-2.839-3.026-6.332s1.361-6.328 3.032-6.324l19.026.042c1.672.004 3.028 2.839 3.026 6.332s-1.361 6.328-3.032 6.324l-19.026-.042zm31.711.067c-1.67-.004-3.026-2.843-3.024-6.332s1.361-6.328 3.03-6.324l9.515.021c1.672.004 3.026 2.843 3.024 6.332s-1.359 6.328-3.03 6.324l-9.515-.021z" fill="#3d3d3d"/><g fill-rule="nonzero"><path d="M1738.067 499.877s-.901 15.325-2.573 26.885c-1.415 9.794-3.658 17.36-3.86 27.423-.165 8.296 2.959 14.748 17.627 15.325 12.462.461 16.781-7.72 16.395-19.012-.368-10.485-2.5-18.359-3.658-30.457-.827-8.718-1.415-19.088-1.415-19.088l-22.516-1.075z" fill="#835d4e"/><path d="M1754.885 199.109l-32.11 24.888-21.358 7.681s-2.555 6.76.772 14.71c2.408 5.723 6.451 9.832 11.984 9.947 6.231.115 8.749-4.993 9.447-.653s-7.903 15.056-12.627 20.855-20.163 15.785-20.843 30.227c-.515 11.1 4.779 18.474 7.389 20.202 3.327 2.189 8.051 1.728 9.429 2.036s1.801 5.8-.147 9.256c-1.948 3.495-7.205 7.259-10.808 10.14s-18.307 13.058-20.255 14.787-4.154 8.987-2.5 19.703c1.673 10.716 7.628 18.82 13.032 22.891s6.929 2.304 6.929 2.304-.754 6.145-3.455 11.253-11.249 24.12-11.249 24.12-16.156.883-17.571 3.303-2.316 8.334-1.673 13.98 2.702 19.895 15.568 27.692 21.486 0 21.486 0-4.264 17.13 5.532 25.272c7.389 6.145 18.656-1.075 21.486-2.689s12.737-10.216 12.737-10.216 2.702 13.519 13.638 14.518c11.58 1.075 19.685-10.754 19.685-10.754s16.028 20.471 28.306 9.679c8.878-7.797 6.047-26.347 6.047-26.347s15.568 5.646 26.89-3.764 13.123-22.315 13.123-28.767-4.503-11.906-6.562-11.637-8.106-1.267-11.708-4.494-8.455-8.488-8.455-8.488-8.418-5.761-13.932-15.709c-2.298-4.11-2.059-8.334 1.287-8.603s13.491-.077 19.299-8.872c6.102-9.256 6.102-17.514 5.79-21.239-.46-5.339-3.18-7.489-3.18-7.489s-23.306-15.363-23.821-16.707-4.246-10.216-4.632-11.023-6.948-5.915-5.532-9.947 8.859-4.148 13.123-13.443c4.981-10.869 3.603-20.702 1.93-24.465s-4.687-5.723-4.687-5.723-5.661 3.495-7.591 1.613-11.12-20.317-11.12-20.317-7.812-9.103-7.72-11.868c.129-3.764 8.014.115 14.539-4.302 5.863-3.956 5.643-12.406 5.275-15.593-.57-4.993-2.684-7.067-4.099-9.218-1.434-2.112-37.091-28.729-37.091-28.729z" fill="#0a7c1f"/><path d="M1741.798 150.179s-5.055 21.969-13.638 41.941c-13.638 31.724-26.89 39.79-26.89 39.79s1.673 10.216 10.55 9.679c10.036-.615 23.159-15.593 23.159-15.593s3.86 19.357 8.62 30.649c5.716 13.558 12.443 23.428 19.171 16.131 2.536-2.765 3.051-14.288 0-22.315-7.499-19.741-2.665-18.282-2.132-17.283 0 0 5.863 9.487 16.652 9.218s14.667-14.518 14.667-14.518-13.381-15.593-22.13-36.833l-15.954-39.521-12.076-1.344zm-5.532 115.567c-.018.038-6.249 8.411-13.252 7.259-3.033-.499-5.183-5.223-5.183-5.223s-6.948 8.526-10.385 12.214c-4.246 4.57-9.686 9.103-12.554 13.443-1.415 2.151-3.4 6.721-3.4 6.721s1.029 9.947 10.036 9.947 15.053-2.42 20.586.807 14.153 21.239 20.2 21.239 10.293-16.938 16.083-16.938 7.334 6.184 16.211 8.066 22.902-8.872 26.118-15.325c4.356-8.757 1.985-20.433 1.985-20.433s-5.643-4.724-10.716-9.871c-4.393-4.455-7.977-8.68-7.977-8.68s-2.059 4.839-4.374 4.57-5.643-3.034-8.345 1.267-4.319 11.061-9.668 12.713c-13.142 4.033-25.365-21.777-25.365-21.777zm-60.581 97.593s-1.875 13.058 6.764 21.162 24.868.922 25.622 2.496-13.307 17.475-5.955 30.495c8.786 15.555 31.43-30.803 32.919-30.803s2.242 38.292 11.322 45.129 18.013-21.162 23.527-24.581 9.539 6.836 16.671 7.451c9.411.807 14.006-4.34 14.594-12.444s-7.738-22.699-5.955-25.81 4.908 8.411 17.424 6.529 13.767-14.134 13.767-14.134l-28.6-27.692s-3.933 9.794-10.183 10.101-22.038-5.3-28.287-1.575-8.198 18.666-18.619 17.744-17.424-15.555-24.574-8.411-12.388 16.285-16.358 11.177c-2.279-2.957-2.04-7.182-1.838-13.75.147-4.993 1.066-10.255 1.066-10.255l-23.306 17.168zm-14.815 83.574s4.007 22.891 23.545 22.891c16.689 0 22.553-19.357 25.714-24.888 3.143-5.531 5.422-13.289 6.433-9.871s-10.091 28.46-14.631 37.678c-2.536 5.147-5.679 15.017-.882 21.354s16.009 3.418 25.089-4.724 11.727-25.042 11.727-25.042-6.801-5.531-8.069-22.66-1.636-24.389-4.283-25.157c-2.647-.807-21.505 31.34-33.176 20.932-5.551-4.955-2.665-17.898-2.665-17.898s-5.349 8.834-12.535 14.556l-16.266 12.828zm80.671 18.705s-2.353 15.363-1.875 19.127c.901 7.182 4.264 14.595 12.719 13.251 8.455-1.306 13.105-7.912 12.995-13.711s-5.551-20.279-2.904-23.966 4.54 4.724 7.187 13.711 14.116 37.946 26.229 24.235c11.083-12.559-3.786-37.409-.754-41.365s10.219 9.986 21.174 8.949c19.409-1.844 22.056-21.854 22.056-21.854l-11.727-6.337c-4.283-2.381-9.594-6.875-9.594-6.875s-8.694 9.256-20.788 8.45-19.299-10.792-24.464-8.949-9.08 17.091-15.513 25.81c-8.951 12.137-14.741 9.525-14.741 9.525z" fill="#02ab48"/><path d="M1755.602 159.166c-.11.691-3.088 23.006-6.268 23.006-3.198 0-8.473-23.928-8.473-23.928s-11.157-.73-11.671-3.918c-.662-4.148 7.37-21.854 7.37-21.854s-1.434-24.389-.11-26.693c1.489-2.612 11.892 11.945 11.892 11.945s10.587-12.636 12.333-9.909c1.764 2.765-1.434 23.697-1.434 23.697s8.473 14.48 7.812 18.397c-.662 3.956-11.451 9.256-11.451 9.256z" fill="#fcc11a"/><path d="M1741.504 113.115c-.46.768.423 5.607 2.702 11.253s3.878 10.332 4.374 10.485c.496.115 3.823-8.757 4.981-11.445 1.176-2.689 2.555-8.027 2.15-8.872-.735-1.536-7.26 7.989-7.26 7.989s-6.176-10.677-6.948-9.41zm-10.973 38.523c.533.807 13.546-9.41 13.73-10.792.202-1.613-3.878-5.262-5.11-6.03s-3.455 3.226-5.532 7.989c-1.783 3.994-3.529 8.181-3.088 8.834z" fill="#fee56b"/><path d="M1752.018 191.582c-6.543.192-9.447 9.563-9.374 20.855s3.952 18.935 10.054 18.781 9.282-8.91 9.061-21.162c-.184-10.677-3.805-18.628-9.742-18.474z" fill="#ff5f5e"/><path d="M1777.235 267.743c-6.543.192-10.348 10.332-10.275 21.623s4.191 20.049 10.734 19.895c6.709-.154 10.054-10.178 9.815-22.43-.184-10.639-4.338-19.242-10.275-19.088z" fill="#fcd81e"/><path d="M1733.288 271.699c-6.856.192-10.513 10.101-10.44 22.123s4.669 20.548 11.047 20.356c6.378-.154 9.907-9.717 9.668-22.737-.202-11.369-4.062-19.895-10.275-19.741z" fill="#df0e2b"/><path d="M1715.184 344.443c-6.929.154-10.348 10.831-10.275 23.39.092 12.559 4.283 20.855 11.028 20.663s10.293-9.909 10.054-23.544c-.221-11.829-4.227-20.663-10.808-20.509z" fill="#ffd2b1"/><path d="M1753.837 366.296c-7.279.192-10.495 10.6-10.403 23.16s4.393 21.047 11.157 20.855 10.311-9.909 10.072-23.505c-.221-11.829-4.227-20.663-10.826-20.509z" fill="#fcd81e"/><path d="M1788.76 344.596c-7.334.192-10.918 10.831-10.844 23.544.092 12.713 4.356 22.123 11.194 21.969 6.819-.192 10.826-10.908 10.569-24.696-.202-12.021-4.246-20.97-10.918-20.817z" fill="#ff5f5d"/><path d="M1792.528 452.905c.331-14.019-3.639-21.393-9.153-22.084s-9.686 6.337-10.072 19.357 3.382 21.739 9.374 22.161c5.22.384 9.539-6.03 9.852-19.434z" fill="#c9c9c9"/><path d="M1718.198 432.126c-6.819.192-9.833 9.794-9.76 21.354s4.117 19.396 10.458 19.242 9.668-9.141 9.429-21.662c-.184-10.984-3.933-19.127-10.127-18.935z" fill="#ff5f5e"/><path d="M1711.765 453.097c1.985 2.228 2.739-3.802 3.731-5.876s3.345-5.569 2.206-8.603-4.044-1.306-5.404 1.92c-1.838 4.302-2.15 10.754-.533 12.559zm65.176-.615c1.985 2.228 2.831-3.841 3.658-6.222 1.066-3.034 3.658-5.108 2.518-8.104-1.14-3.034-3.897-1.114-5.257 2.074-1.838 4.302-2.536 10.408-.919 12.252zm5.055-85.456c2.187 2.343 3.014-4.263 4.08-6.99.956-2.42 3.75-5.031 2.481-8.219s-4.246-1.498-5.753 1.844c-2.022 4.532-2.592 11.445-.809 13.366zm-34.592 21.969c1.985 2.228 2.739-3.802 3.731-5.876s3.345-6.683 2.206-9.717-3.952-1.114-5.404 3.034c-1.617 4.647-2.15 10.754-.533 12.559zm-38.763-21.815c1.985 2.228 3.235-4.071 4.099-6.376 1.673-4.455 3.272-6.836 2.132-9.871s-4.191-.461-5.698 3.649c-1.654 4.609-2.132 10.792-.533 12.598zm18.178-73.512c1.985 2.228 2.941-3.495 3.731-5.876 1.213-3.649 3.492-6.683 2.353-9.717s-3.878-1.421-5.551 3.034c-1.691 4.494-2.15 10.716-.533 12.559zm44.296-1.959c2.169 2.458 2.996-4.186 4.08-6.452s3.676-6.107 2.426-9.41-4.43-1.421-5.918 2.074c-2.022 4.724-2.371 11.829-.588 13.788zm-25.641-79.618c1.985 2.228 2.739-3.802 3.731-5.876s3.345-5.569 2.206-8.603-3.437-1.421-5.11 2.689c-1.764 4.417-2.445 9.986-.827 11.791z" fill="#f9ffff"/><path d="M1724.558 215.74c-2.831 0-4.117 2.535-4.338 7.797-.221 5.108 1.305 8.258 3.584 8.603 3.198.461 4.191-5.07 4.191-8.603-.018-3.994-1.544-7.797-3.437-7.797zm12.149 22.545c-2.389-3.149-4.448-1.037-5.441 1.536-1.415 3.649-1.195 9.218.79 11.484 2.592 2.957 4.669.691 5.514-1.959 1.287-3.994.901-8.718-.864-11.061zm10.844 10.639c-2.445.96-3.584 5.07-3.106 10.255.368 4.071 2.518 6.952 4.724 5.838 3.125-1.536 3.272-7.489 2.757-10.831-.551-3.764-2.5-5.953-4.374-5.262zm30.842-23.813c-2.224-3.649-4.503-2.266-5.661.768-1.323 3.457-1.434 7.95.239 11.177 1.985 3.802 4.76 1.805 5.735-.807 1.121-2.957 1.176-8.68-.312-11.138zm-12.645 21.163c-2.849 0-4.154 2.535-4.393 7.758-.221 5.07 1.397 8.373 3.694 8.718 3.235.461 4.154-5.223 4.154-8.718.018-3.956-1.526-7.758-3.455-7.758zm-51.336 55.69c-2.904 0-4.227 2.573-4.466 7.873-.221 5.147 1.342 8.334 3.676 8.68 3.29.499 4.301-5.147 4.301-8.68 0-4.033-1.562-7.873-3.511-7.873zm13.087 20.932c-2.794-1.844-4.301-.077-5.441 4.801-.919 3.956 0 9.218 2.242 10.792 3.235 2.228 4.889-2.228 5.404-5.684.607-3.918-.331-8.68-2.206-9.909zm17.351 24.773c-.074-6.145-1.434-8.872-4.136-9.218-2.647-.346-4.209 3.073-4.319 8.066-.147 6.99 2.739 8.987 4.54 8.872 2.059-.154 3.97-3.572 3.915-7.72zm13.895-10.716c-3.033 0-4.411 2.689-4.669 8.258-.239 5.415 1.397 8.718 3.841 9.103 3.437.499 4.503-5.377 4.503-9.103 0-4.225-1.636-8.258-3.676-8.258zm17.094-10.984c-2.831 0-4.117 2.535-4.338 7.797-.221 5.108 1.305 8.258 3.584 8.603 3.198.461 4.191-5.07 4.191-8.603-.018-3.956-1.544-7.797-3.437-7.797zm11.322-7.413c.57 5.262 2.518 7.259 4.963 5.953 2.371-1.267 3.29-5.3 2.684-9.909-.845-6.452-3.694-6.568-5.275-5.377-1.783 1.306-2.775 5.454-2.371 9.333zm24.611 54.116c-2.684 0-3.915 2.458-4.136 7.489-.221 4.916 1.231 7.95 3.419 8.258 3.051.461 3.989-4.878 3.989-8.258 0-3.802-1.452-7.489-3.272-7.489zm-8.4 29.727c.276-6.491-.919-9.679-3.639-10.716-2.647-.999-4.43 2.189-4.834 7.374-.57 7.297 2.242 10.101 4.08 10.447 2.077.384 4.209-2.727 4.393-7.105zm-18.95 3.995c-2.978.269-4.595 4.532-4.411 10.677.184 5.992 2.261 9.026 4.963 8.526 3.786-.691 4.466-7.489 4.154-11.561-.349-4.57-2.445-7.873-4.705-7.643zm-17.241 12.828c-3.033-.807-4.852 2.919-5.128 8.987-.257 5.876 1.544 9.41 4.227 9.909 4.338.845 4.944-5.838 4.944-9.909 0-4.57-1.82-8.411-4.044-8.987zm-21.56 4.916c-2.978.269-4.595 4.532-4.411 10.677.184 5.992 2.261 9.026 4.963 8.526 3.786-.691 4.466-7.489 4.154-11.561-.331-4.57-2.445-7.835-4.705-7.643zm-18.784-12.06c-2.922.269-4.448 5.108-4.319 10.408.129 5.8 2.206 8.757 4.852 8.258 3.713-.691 4.374-7.297 4.08-11.215-.349-4.494-2.408-7.681-4.613-7.451zm-17.627-14.864c-2.922.269-4.503 4.417-4.319 10.37.184 5.8 2.187 8.718 4.834 8.219 3.713-.691 4.374-7.259 4.08-11.215-.331-4.417-2.389-7.566-4.595-7.374zm-11.028-29.151c-2.518.23-3.878 3.841-3.713 9.064.165 5.07 1.893 7.643 4.172 7.221 3.198-.576 3.768-6.337 3.492-9.794-.276-3.879-2.059-6.644-3.952-6.491z" fill="#f9c319"/><path d="M411.5 447.5l-83.703-125.344h46.75l-84.141-126.047h46.281L205.75 0 74.797 196.109h46.281l-84.14 126.047h46.75L0 447.5h189.625V512h32.251v-64.5H411.5zM125.797 299.938H79.063l84.125-126.016h-46.281L205.75 40.875l88.828 133.047h-46.297l84.156 126.016h-46.75l83.703 125.359H213.813v-37.391l63.047-72.031-12.141-10.625-50.906 58.188v-59.406l50.844-58.109-12.141-10.609-38.703 44.234V171.469h-16.125v108.063l-38.703-44.219-12.141 10.609 50.844 58.109v59.391l-50.906-58.172-12.125 10.625 63.031 72.031v37.391H42.109l83.688-125.359z" fill="#02ab48" transform="matrix(.433754 0 0 .906372 88.2189 105.469)"/><path d="M8 0v16m6-14L2 14m14-6H0m14 6L2 2" stroke="#000" stroke-width="2" stroke-linejoin="round" stroke-miterlimit="4" transform="matrix(2.01893 0 0 4.21875 1822.67 685.012)"/></g></g><defs ><path id="B" d="M977 418.25v70.5c0 19.455-19.044 35.25-42.5 35.25h-163c-23.456 0-42.5-15.795-42.5-35.25v-70.5c0-19.455 19.044-35.25 42.5-35.25h163c23.456 0 42.5 15.795 42.5 35.25z"/><path id="C" d="M891.74 795.471c0-4.294 1.294-6.679 3.805-7.315-.228-3.657-1.065-6.679-2.511-8.746s-3.348-3.18-5.631-3.18c-3.501 0-6.316 2.862-8.447 8.746s-3.196 13.517-3.196 23.217c0 10.018.989 17.81 3.044 23.376 1.979 5.725 4.718 8.587 8.295 8.587 2.207 0 4.186-1.272 5.86-3.975 1.598-2.703 2.74-6.361 3.348-10.972l.913-6.361c.533-2.067 1.37-3.18 2.435-3.18.837 0 1.598.636 2.131 1.749s.837 2.703.837 4.453c0 2.703-.381 5.884-1.218 9.541s-1.75 6.838-2.892 9.223c-2.968 6.679-6.849 10.018-11.643 10.018-5.175 0-9.36-3.816-12.48-11.449-3.196-7.633-4.794-17.651-4.794-30.055 0-13.199 1.674-23.694 4.947-31.645 3.272-7.792 7.61-11.767 13.013-11.767 4.033 0 7.458 2.226 10.121 6.838 2.664 4.771 4.033 10.495 4.033 17.651 0 3.975-.533 7.156-1.522 9.7-1.065 2.544-2.435 3.816-4.033 3.816-1.294 0-2.283-.795-3.12-2.385-.913-1.59-1.294-3.498-1.294-5.884z"/><path id="D" d="M925.91 850.651c-5.327 0-9.589-3.816-12.785-11.608-3.196-7.633-4.794-17.969-4.794-30.85s1.598-23.217 4.87-31.009c3.196-7.633 7.534-11.449 12.937-11.449 5.555 0 9.893 3.816 13.089 11.29s4.794 17.81 4.794 30.691-1.674 23.376-4.947 31.168-7.686 11.767-13.165 11.767zm.381-74.421c-3.577 0-6.316 2.544-8.371 7.792s-3.12 12.562-3.348 22.104v2.067c0 10.018.989 17.81 3.044 23.376 1.979 5.725 4.794 8.587 8.371 8.587 3.729 0 6.621-2.862 8.752-8.587 2.055-5.566 3.12-13.517 3.12-23.535 0-21.149-3.881-31.804-11.567-31.804z"/><path id="E" d="M961.447 773.05v4.294c2.664-7.792 6.164-11.608 10.578-11.608 3.577 0 6.392 2.067 8.675 6.202 2.131 4.294 3.272 9.7 3.272 16.22 0 4.612-.533 8.428-1.674 11.29-1.142 3.021-2.587 4.453-4.414 4.453-1.142 0-2.131-.795-2.968-2.226s-1.218-3.339-1.218-5.407c0-1.749.304-3.18.913-4.612.609-1.272 1.294-1.908 2.131-1.908.152 0 .457.159.989.477.304-1.272.457-2.385.457-3.498 0-3.021-.609-5.725-1.903-7.792s-2.968-3.18-4.87-3.18c-3.957 0-6.621 3.657-7.914 11.131-.837 4.612-1.218 11.449-1.218 20.672v10.495l.076 11.926c.228 6.043 1.065 9.064 2.359 9.064a3.46 3.46 0 0 0 2.055-.636c.533-.318 1.065-.477 1.446-.477 1.598 0 2.435 1.749 2.435 5.089 0 3.657-1.065 5.566-3.12 5.566h-.304c-.761 0-1.903-.159-3.425-.477-1.598-.477-2.74-.636-3.501-.636a34.47 34.47 0 0 0-4.794.318l-4.262.795c-2.055 0-3.12-1.908-3.12-5.566 0-3.339.989-4.93 2.892-4.93.533 0 .913 0 1.142.159l1.142.477c.533.159.837.318 1.065.318 1.294 0 1.979-2.385 2.055-7.315l.152-8.11-.228-36.097c-.152-6.202-.913-9.382-2.283-9.382-.381 0-.989.159-1.674.477s-1.294.477-1.674.477c-1.674 0-2.511-1.749-2.511-5.089 0-3.657 1.065-5.566 3.272-5.566.533 0 1.294.159 2.283.318.989.318 1.75.477 2.283.477.381 0 1.065-.159 1.979-.318.381-.159.913-.318 1.446-.318 1.294 0 1.979 1.431 1.979 4.453z"/><path id="F" d="M112.425 753.968c0-1.431.228-2.862.761-3.975-.837-1.749-2.131-2.544-3.805-2.544-2.207 0-3.881 1.431-5.099 4.294-1.294 3.021-1.903 6.997-1.903 12.244v2.862c0 1.431.304 2.067.989 2.067h5.936c1.674 0 2.511 1.908 2.511 5.725s-.837 5.725-2.511 5.725h-5.631c-.837 0-1.294.954-1.294 2.862v44.525l.076 6.838c.228 2.862.913 4.294 1.903 4.294.228 0 .913-.318 1.903-.795.685-.159 1.218-.318 1.522-.318 1.75 0 2.587 1.749 2.587 5.248 0 3.657-1.065 5.566-3.12 5.566-.837 0-2.131-.159-3.881-.636s-3.12-.636-3.957-.636c-1.522 0-2.892.159-4.109.477-1.979.477-3.272.795-3.805.795-2.207 0-3.272-1.908-3.272-5.566 0-1.431.304-2.544.837-3.657.457-1.113 1.142-1.59 1.826-1.59.533 0 1.065.159 1.75.477.609.477 1.142.636 1.674.636.989 0 1.598-1.272 1.826-3.816s.381-8.746.457-18.446l.076-33.394c0-1.908-.457-2.862-1.37-2.862h-3.805c-1.75 0-2.664-1.908-2.664-5.884 0-3.657.913-5.566 2.74-5.566h4.338c.685 0 .989-.636.989-2.067v-2.862c0-8.428 1.065-14.789 3.196-19.241s5.175-6.679 9.056-6.679c3.196 0 5.784 1.272 7.686 3.975s2.892 6.361 2.892 10.972c0 2.385-.381 4.134-1.065 5.566s-1.598 2.226-2.664 2.226c-.989 0-1.826-.636-2.511-2.067-.761-1.272-1.065-2.862-1.065-4.771z"/><path id="G" d="M147.279 843.972v-4.93c-2.664 7.792-6.697 11.608-11.948 11.608-6.012 0-10.121-3.816-12.48-11.608-.989-3.339-1.598-7.315-1.674-11.926-.076-2.226-.076-6.838-.076-13.994v-13.199c0-14.471-.761-21.786-2.207-21.786-.304 0-.761.159-1.446.318-.685.318-1.142.477-1.522.477-1.75 0-2.664-1.749-2.664-5.248 0-3.339 1.065-5.089 3.272-5.089.533 0 1.218.159 2.283.318.989.159 1.674.318 2.207.318.457 0 1.218-.159 2.359-.477.761-.159 1.218-.318 1.294-.318 1.598 0 2.359 2.067 2.359 6.043v3.339l-.076 10.336-.228 11.767v10.336c0 9.223.381 15.902 1.065 19.877 1.142 6.679 3.957 10.018 8.371 10.018 2.207 0 4.109-1.113 5.784-3.18s2.816-4.771 3.501-8.11c.837-4.134 1.218-11.926 1.218-23.535v-19.082c-.228-5.089-.913-7.633-1.979-7.633-.533 0-.989.159-1.37.318h-.913c-1.75 0-2.664-1.59-2.664-4.93 0-3.657.989-5.566 2.968-5.566.457 0 1.142.159 2.131.318.913.159 1.598.318 2.055.318.381 0 .989-.159 1.826-.318s1.446-.159 1.826-.159c1.522 0 2.283 1.749 2.283 5.089 0 1.431-.076 2.703-.152 3.498-.228 3.975-.381 10.018-.381 17.81v24.489l.076 10.813c.228 5.566.989 8.428 2.131 8.428.381 0 .837-.159 1.522-.477.685-.159 1.142-.318 1.522-.318 1.75 0 2.587 1.749 2.587 5.248 0 3.657-1.065 5.407-3.196 5.407-.457 0-1.142-.159-1.979-.318-1.294-.318-2.055-.477-2.359-.477-.152 0-.685.159-1.598.318-.609.318-1.142.477-1.598.477-1.446 0-2.131-1.59-2.131-4.612z"/><path id="H" d="M174.98 773.368v4.453c3.044-8.11 7.077-12.085 12.176-12.085 2.74 0 5.327 1.431 7.762 4.294 2.435 3.021 4.109 6.679 4.947 10.972.685 3.657 1.065 8.269 1.065 14.153v30.214l.076 8.11c.228 3.657.913 5.407 2.055 5.407.457 0 1.065-.159 1.826-.477.685-.159 1.218-.318 1.522-.318.685 0 1.218.477 1.75 1.431.457.954.685 2.067.685 3.498 0 1.59-.304 2.862-.913 3.975s-1.37 1.59-2.207 1.59c-.685 0-1.903-.159-3.501-.636s-3.12-.636-4.566-.636c-1.294 0-2.435.159-3.272.318l-4.033.954c-2.055 0-3.044-1.908-3.044-5.566 0-3.339.837-4.93 2.587-4.93.381 0 .837.159 1.37.318.989.477 1.598.636 1.826.636 1.218 0 1.903-2.862 1.979-8.746l.152-8.11.076-9.7v-12.085c0-5.566-.152-9.541-.381-11.608-.457-3.975-1.446-7.156-2.968-9.382-1.674-2.385-3.577-3.657-5.708-3.657-4.033 0-7.001 3.021-8.752 9.064-1.218 4.134-1.826 11.131-1.826 21.149v21.149c0 4.612.152 7.792.457 9.541s.837 2.544 1.674 2.544c.381 0 .989-.159 1.674-.636s1.294-.636 1.75-.636c1.598 0 2.359 1.749 2.359 5.407 0 3.498-.989 5.248-3.044 5.248-.381 0-1.75-.318-3.957-.954-1.142-.318-2.359-.477-3.729-.477-1.065 0-2.511.159-4.262.636-2.207.477-3.501.795-3.805.795-2.131 0-3.196-1.749-3.196-5.407 0-3.339.837-5.089 2.435-5.089.228 0 .685.159 1.446.477.685.318 1.294.477 1.979.477 1.522 0 2.283-3.021 2.359-9.223l.152-17.651v-19.241l-.152-5.566c-.076-3.657-.304-6.043-.609-7.474-.381-1.272-.913-1.908-1.75-1.908-.381 0-.837.159-1.522.318-.685.318-1.218.477-1.598.477-1.826 0-2.74-1.749-2.74-5.089 0-3.498 1.142-5.248 3.425-5.248.304 0 .533 0 .761.159l2.816.636c.837 0 1.522-.159 2.131-.318 1.294-.159 1.979-.318 2.055-.318 1.446 0 2.207 1.59 2.207 4.771z"/></defs></svg>