<svg xmlns="http://www.w3.org/2000/svg" xmlns:xlink="http://www.w3.org/1999/xlink" width="722" height="433" fill-rule="evenodd" stroke-miterlimit="10" xmlns:v="https://vecta.io/nano"><style><![CDATA[.B{fill-rule:nonzero}.C{fill:#ffaef8}.D{stroke-linejoin:round}.E{stroke-miterlimit:1.5}]]></style><path d="M170.991 0h105v105h-105z" fill="#afe117"/><g class="B"><path d="M212.775 49.132h-4.512v3.008h4v1.936h-4v4.512h-2.688V47.212h7.472l-.272 1.92zm5.782-3.824c.288 0 .56.064.784.192s.416.304.544.528a1.46 1.46 0 0 1 .192.752c0 .272-.064.512-.192.736s-.32.4-.544.528c-.24.128-.496.192-.784.192-.304 0-.56-.064-.8-.192a1.33 1.33 0 0 1-.544-.528c-.144-.224-.208-.464-.208-.736a1.33 1.33 0 0 1 .208-.752 1.33 1.33 0 0 1 .544-.528c.24-.128.496-.192.8-.192zm-3.424 4.56h4.992v6.944h2.208v1.776h-7.28v-1.776h2.48v-5.168h-2.4v-1.776z"/><use xlink:href="#B"/><use xlink:href="#C"/></g><path d="M170.991 164h105v105h-105z" fill="#00d3e2"/><g class="B"><path d="M188.095 211.212l.64 11.376h-2.336l-.144-4.864-.016-1.056.032-1.376.112-1.616.016-.176-1.28 7.152h-2.032l-1.392-7.152.128 1.696.048 1.632-.016.928-.08 4.832h-2.304l.64-11.376h2.768l1.264 7.36 1.2-7.36h2.752z"/><use xlink:href="#C" x="-44.308" y="164"/><use xlink:href="#D"/><use xlink:href="#E"/><path d="M227.048 220.076c0 .32.048.56.128.704.096.16.24.272.448.352l-.528 1.696c-.528-.048-.976-.16-1.312-.336a2.22 2.22 0 0 1-.832-.8c-.32.384-.736.672-1.248.88a4.52 4.52 0 0 1-1.616.288c-.592 0-1.104-.112-1.552-.336a2.66 2.66 0 0 1-1.04-.976c-.24-.416-.352-.88-.352-1.424 0-.624.16-1.152.496-1.6s.816-.784 1.456-1.008c.64-.24 1.392-.352 2.288-.352h1.168v-.32c0-.896-.576-1.344-1.712-1.344-.288 0-.656.032-1.104.128-.432.08-.864.192-1.296.336l-.592-1.728a9.8 9.8 0 0 1 1.728-.48c.608-.112 1.168-.176 1.664-.176 1.28 0 2.24.272 2.864.784.64.528.944 1.28.944 2.304v3.408zm-4.064.944c.288 0 .592-.096.896-.272a1.55 1.55 0 0 0 .672-.688v-1.424h-.64c-.704 0-1.232.112-1.584.336a1.1 1.1 0 0 0-.512.976c0 .336.096.592.304.784s.496.288.864.288zm14.406-7.888h-4.512v3.008h4v1.936h-4v4.512h-2.688v-11.376h7.472l-.272 1.92z"/><use xlink:href="#E" x="29.538"/><use xlink:href="#B" x="24.615" y="164"/><use xlink:href="#C" x="24.616" y="164"/></g><path d="M170.991 328h105v105h-105z" fill="#e98739"/><g class="B"><path d="M182.031 375.212l2.128 9.28 2.144-9.28h2.752l-3.28 11.376h-3.328l-3.28-11.376h2.864z"/><use xlink:href="#E" x="-19.693" y="164"/><use xlink:href="#D" y="164"/><use xlink:href="#C" x="-24.615" y="328"/><path d="M223.496 377.58c.88 0 1.632.192 2.272.576s1.12.912 1.456 1.616c.336.688.496 1.504.496 2.432 0 .976-.16 1.808-.496 2.496-.336.704-.832 1.232-1.456 1.616-.64.368-1.392.544-2.272.544-.896 0-1.648-.176-2.288-.544s-1.12-.896-1.456-1.6c-.32-.688-.496-1.52-.496-2.496 0-.928.176-1.728.512-2.432.336-.688.816-1.232 1.456-1.616.64-.4 1.392-.592 2.272-.592zm0 1.92c-.528 0-.928.224-1.184.656s-.384 1.12-.384 2.064c0 .96.128 1.664.384 2.096s.64.64 1.184.64c.528 0 .928-.208 1.184-.656.24-.432.368-1.136.368-2.096 0-.928-.128-1.616-.384-2.048s-.64-.656-1.168-.656zm13.894-2.368h-4.512v3.008h4v1.936h-4v4.512h-2.688v-11.376h7.472l-.272 1.92z"/><use xlink:href="#E" x="29.538" y="164"/><use xlink:href="#B" x="24.615" y="328"/><use xlink:href="#C" x="24.616" y="328"/></g><g fill="none" stroke="#000" stroke-width="6"><path d="M236.991 151.394l-13.5 9-13.5-9"/><path d="M223.491 105v55.394" class="D E"/><path d="M236.991 315.394l-13.5 9-13.5-9"/><path d="M223.491 269v55.394" class="D E"/></g><g class="B"><use xlink:href="#F"/><use xlink:href="#F" x="6.648"/><use xlink:href="#G"/><use xlink:href="#H"/><use xlink:href="#G" x="14.77"/><use xlink:href="#I"/><use xlink:href="#F" x="44.31"/><use xlink:href="#F" x="50.958"/><use xlink:href="#J"/><use xlink:href="#K"/><use xlink:href="#L"/><use xlink:href="#M"/><use xlink:href="#N"/><use xlink:href="#O"/><use xlink:href="#P"/><use xlink:href="#Q"/><use xlink:href="#R"/><use xlink:href="#S"/><use xlink:href="#T"/><use xlink:href="#U"/><use xlink:href="#V"/><use xlink:href="#V" x="7.39"/><path d="M325.253 45.833h6.156v1.524h-6.156z"/><use xlink:href="#W"/><use xlink:href="#X"/><use xlink:href="#H" x="22.16" y="24"/><use xlink:href="#I" x="14.77" y="24"/><use xlink:href="#Y"/><use xlink:href="#H" x="44.31" y="24"/><use xlink:href="#I" x="36.93" y="24"/><use xlink:href="#J" x="22.15" y="24"/><use xlink:href="#K" x="22.16" y="24"/><use xlink:href="#L" x="22.15" y="24"/><use xlink:href="#M" x="22.15" y="24"/><use xlink:href="#N" x="22.15" y="24"/><use xlink:href="#O" x="22.15" y="24"/><use xlink:href="#Z"/><use xlink:href="#a"/><use xlink:href="#b"/><use xlink:href="#R" x="29.54" y="24"/><use xlink:href="#L" x="88.61" y="24"/><use xlink:href="#b" x="22.16"/><use xlink:href="#R" x="51.69" y="24"/><use xlink:href="#T" x="44.31" y="24"/><use xlink:href="#c"/><use xlink:href="#G" x="-7.39" y="48"/><path d="M323.657 63.893l-3.216 3.696h3.276l-.18 1.476h-5.388v-1.368l3.24-3.708h-2.976v-1.464h5.244v1.368z"/><use xlink:href="#Y" x="-36.93" y="24"/><use xlink:href="#J" x="-29.54" y="48"/><use xlink:href="#K" x="-29.54" y="48"/><use xlink:href="#L" x="-29.54" y="48"/><use xlink:href="#M" x="-29.54" y="48"/><use xlink:href="#N" x="-29.54" y="48"/><use xlink:href="#T" x="-73.85" y="48"/><use xlink:href="#G" x="-14.77" y="72"/><use xlink:href="#H" x="-14.77" y="72"/><use xlink:href="#d"/><use xlink:href="#X" x="-14.77" y="48"/><use xlink:href="#J" x="-29.54" y="72"/><use xlink:href="#K" x="-29.54" y="72"/><use xlink:href="#L" x="-29.54" y="72"/><use xlink:href="#M" x="-29.54" y="72"/><use xlink:href="#N" x="-29.54" y="72"/><use xlink:href="#T" x="-73.85" y="72"/><path d="M119.429 38.309c.828 0 1.428.3 1.812.912.384.6.576 1.452.576 2.556 0 .684-.096 1.284-.3 1.812-.192.528-.48.936-.864 1.236-.372.3-.828.444-1.344.444a1.98 1.98 0 0 1-1.548-.672v2.988l-1.944.204v-9.264h1.716l.096.732c.252-.324.528-.564.84-.708.312-.156.636-.24.96-.24zm-.6 1.44a.96.96 0 0 0-.588.192 1.91 1.91 0 0 0-.48.564v2.76a1.53 1.53 0 0 0 .432.444c.144.096.324.132.528.132.36 0 .624-.156.816-.48.18-.324.276-.84.276-1.56 0-.528-.036-.936-.108-1.236-.084-.3-.192-.516-.336-.636s-.324-.18-.54-.18z"/><use xlink:href="#U" x="-180.158"/><use xlink:href="#I" x="-209.688" y="24"/><path d="M139.911 39.173c.54-.576 1.188-.864 1.92-.864.576 0 1.02.18 1.332.516s.468.816.468 1.44v4.8h-1.944v-4.26c0-.264-.024-.48-.06-.624-.048-.156-.108-.264-.192-.336-.096-.06-.216-.096-.384-.096-.192 0-.384.072-.564.204-.192.132-.384.336-.576.588v4.524h-1.944v-9.132l1.944-.192v3.432z"/><use xlink:href="#W" x="-246.618" y="24"/><use xlink:href="#X" x="-246.608" y="24"/><use xlink:href="#H" x="-224.458" y="48"/><use xlink:href="#I" x="-231.848" y="48"/><use xlink:href="#Y" x="-246.618" y="24"/><use xlink:href="#H" x="-202.308" y="48"/><use xlink:href="#I" x="-209.688" y="48"/><use xlink:href="#c" x="-165.388"/><use xlink:href="#W" x="-224.468" y="153.523"/><use xlink:href="#X" x="-224.458" y="153.523"/><path d="M126.917 189.252l1.944.204v9.132h-1.728l-.096-.72c-.204.276-.444.504-.756.672-.3.168-.648.252-1.056.252-.528 0-.972-.132-1.332-.42s-.624-.696-.804-1.212c-.18-.528-.264-1.14-.264-1.86 0-.672.108-1.26.312-1.788.216-.528.516-.936.912-1.236a2.26 2.26 0 0 1 1.38-.444c.588 0 1.08.204 1.488.612v-3.192zm-.96 4.008c-.36 0-.636.168-.828.492-.204.336-.3.852-.3 1.56 0 .756.084 1.296.264 1.596.18.312.42.456.744.456.408 0 .768-.252 1.08-.756V193.8a1.96 1.96 0 0 0-.444-.408c-.156-.084-.324-.132-.516-.132z"/><use xlink:href="#Y" x="-231.848" y="153.523"/><use xlink:href="#W" x="-194.928" y="153.523"/><path d="M107.299 216.432c-.216.096-.492.156-.792.204a9.48 9.48 0 0 1-1.092.06c.432.18.744.396.948.66.216.264.324.612.324 1.02a1.96 1.96 0 0 1-.348 1.128c-.228.336-.552.588-.972.78s-.9.276-1.452.276c-.276 0-.528-.024-.756-.072-.072.036-.132.096-.168.156a.47.47 0 0 0-.048.216c0 .132.048.228.144.3s.288.108.576.108h1.068c.492 0 .936.072 1.308.24.384.168.672.384.876.672s.312.612.312.972c0 .456-.132.84-.396 1.164s-.66.564-1.176.744c-.528.168-1.164.252-1.932.252-.804 0-1.44-.084-1.908-.252-.456-.156-.78-.396-.972-.696-.18-.312-.276-.684-.276-1.152h1.716c0 .204.048.36.12.48.084.12.228.204.444.264a4.4 4.4 0 0 0 .924.084c.576 0 .972-.072 1.188-.204a.59.59 0 0 0 .336-.552.57.57 0 0 0-.24-.468c-.156-.12-.396-.168-.708-.168h-1.044c-.456 0-.828-.06-1.128-.18-.312-.12-.528-.276-.672-.468-.144-.204-.216-.42-.216-.66s.06-.468.192-.696a1.66 1.66 0 0 1 .54-.54c-.408-.216-.708-.48-.888-.78s-.276-.66-.276-1.092c0-.48.12-.9.372-1.26s.588-.636 1.032-.828c.444-.204.948-.3 1.512-.3.468.012.876-.024 1.236-.084a4.76 4.76 0 0 0 .96-.3c.264-.12.564-.264.876-.456l.456 1.428zm-3.468.684c-.312 0-.552.096-.732.288s-.276.456-.276.804.096.624.276.828c.18.192.42.288.732.288.324 0 .564-.096.732-.288.18-.192.264-.48.264-.852 0-.36-.084-.636-.252-.804-.168-.18-.42-.264-.744-.264z"/><use xlink:href="#Y" x="-254.008" y="177.523"/><use xlink:href="#X" x="-224.458" y="177.523"/><path d="M126.605 220.536c0 .252.072.432.216.552s.36.18.624.18c.3 0 .6-.072.924-.204l.468 1.308c-.54.276-1.176.42-1.884.42-.768 0-1.344-.216-1.728-.66-.372-.432-.564-1.056-.564-1.836v-5.508h-1.932v-1.332h3.876v7.08z"/><use xlink:href="#X" x="-209.688" y="177.523"/><use xlink:href="#W" x="-194.928" y="177.523"/><path d="M89.997 237.252l1.944.204v9.132h-1.728l-.096-.72c-.204.276-.444.504-.756.672-.3.168-.648.252-1.056.252-.528 0-.972-.132-1.332-.42s-.624-.696-.804-1.212c-.18-.528-.264-1.14-.264-1.86 0-.672.108-1.26.312-1.788.216-.528.516-.936.912-1.236a2.26 2.26 0 0 1 1.38-.444c.588 0 1.08.204 1.488.612v-3.192zm-.96 4.008c-.36 0-.636.168-.828.492-.204.336-.3.852-.3 1.56 0 .756.084 1.296.264 1.596.18.312.42.456.744.456.408 0 .768-.252 1.08-.756V241.8a1.96 1.96 0 0 0-.444-.408c-.156-.084-.324-.132-.516-.132zm6.574 3.264c0 .312.048.516.168.648.108.12.276.18.492.18.204 0 .408-.06.6-.18a1.67 1.67 0 0 0 .516-.528v-4.596h1.944v6.54h-1.704l-.084-.768c-.216.312-.504.552-.864.72a2.64 2.64 0 0 1-1.14.252c-.624 0-1.092-.168-1.404-.528s-.468-.852-.468-1.5v-4.716h1.944v4.476zm10.428-4.668c.384 0 .744.06 1.068.192l-.36 2.736h-1.212v-1.2c-.36.06-.684.252-.96.588-.288.324-.504.744-.66 1.236v1.872h1.284v1.308h-4.092v-1.308h.864v-3.936h-.864v-1.296h2.34l.36 1.476c.24-.564.528-.984.9-1.26.36-.276.804-.408 1.332-.408z"/><use xlink:href="#U" x="-194.928" y="201.523"/><use xlink:href="#I" x="-224.458" y="225.523"/><use xlink:href="#G" x="-194.928" y="225.523"/><use xlink:href="#X" x="-209.688" y="201.523"/><use xlink:href="#H" x="-187.538" y="225.523"/><use xlink:href="#V" x="-239.23" y="344.567"/><use xlink:href="#e"/><path d="M91.099 382.876c.468 0 .816.156 1.044.456.216.312.324.792.324 1.464v4.836h-1.668v-4.62c0-.228-.024-.396-.06-.48-.048-.096-.132-.144-.264-.144-.108 0-.216.036-.324.096s-.228.168-.348.324v4.824h-1.368v-4.62c0-.228-.024-.396-.072-.48-.048-.096-.132-.144-.252-.144a.68.68 0 0 0-.336.096c-.108.06-.228.168-.348.324v4.824h-1.692v-6.54h1.428l.132.636c.216-.288.42-.504.636-.636.204-.144.456-.216.732-.216a1.08 1.08 0 0 1 .636.192c.168.132.288.324.36.588.456-.516.936-.78 1.44-.78z"/><use xlink:href="#Y" x="-268.77" y="344.567"/><use xlink:href="#H" x="-224.46" y="368.567"/><use xlink:href="#c" x="-194.92" y="320.567"/><use xlink:href="#e" x="36.92"/><use xlink:href="#X" x="-217.07" y="344.567"/><use xlink:href="#H" x="-194.92" y="368.567"/><use xlink:href="#c" x="-165.38" y="320.567"/><use xlink:href="#F" y="188"/><use xlink:href="#F" x="6.648" y="188"/><use xlink:href="#G" y="188"/><use xlink:href="#H" y="188"/><use xlink:href="#G" x="14.77" y="188"/><use xlink:href="#I" y="188"/><use xlink:href="#F" x="44.31" y="188"/><use xlink:href="#F" x="50.958" y="188"/><use xlink:href="#J" y="188"/><use xlink:href="#K" y="188"/><use xlink:href="#L" y="188"/><use xlink:href="#M" y="188"/><use xlink:href="#N" y="188"/><use xlink:href="#O" y="188"/><use xlink:href="#P" y="188"/><use xlink:href="#Q" y="188"/><use xlink:href="#R" y="188"/><use xlink:href="#S" y="188"/><use xlink:href="#O" x="44.31" y="188"/><use xlink:href="#Z" x="22.16" y="164"/><use xlink:href="#a" x="22.15" y="164"/><use xlink:href="#f"/><use xlink:href="#L" x="103.38" y="188"/><use xlink:href="#Z" x="51.7" y="164"/><use xlink:href="#O" x="96" y="188"/><use xlink:href="#g"/><use xlink:href="#L" x="140.3" y="188"/><use xlink:href="#a" x="81.23" y="164"/><use xlink:href="#M" x="147.69" y="188"/><use xlink:href="#a" x="96" y="164"/><use xlink:href="#Z" x="110.77" y="164"/><use xlink:href="#O" x="155.08" y="188"/><use xlink:href="#f" x="96"/><use xlink:href="#h"/><use xlink:href="#i"/><use xlink:href="#Q" x="169.85" y="188"/><use xlink:href="#R" x="169.84" y="188"/><use xlink:href="#j"/><use xlink:href="#a" x="169.84" y="164"/><use xlink:href="#b" x="169.85" y="164"/><use xlink:href="#T" x="184.61" y="188"/><use xlink:href="#G" x="-14.77" y="212"/><use xlink:href="#H" x="-14.77" y="212"/><use xlink:href="#d" y="140"/><use xlink:href="#X" x="-14.77" y="188"/><use xlink:href="#J" x="-29.54" y="212"/><use xlink:href="#K" x="-29.54" y="212"/><use xlink:href="#L" x="-29.54" y="212"/><use xlink:href="#M" x="-29.54" y="212"/><use xlink:href="#N" x="-29.54" y="212"/><use xlink:href="#T" x="-73.85" y="212"/><use xlink:href="#F" y="352"/><use xlink:href="#F" x="6.648" y="352"/><use xlink:href="#G" y="352"/><use xlink:href="#H" y="352"/><use xlink:href="#G" x="14.77" y="352"/><use xlink:href="#I" y="352"/><use xlink:href="#F" x="44.31" y="352"/><use xlink:href="#F" x="50.958" y="352"/><use xlink:href="#J" y="352"/><use xlink:href="#K" y="352"/><use xlink:href="#L" y="352"/><use xlink:href="#M" y="352"/><use xlink:href="#N" y="352"/><use xlink:href="#O" y="352"/><use xlink:href="#P" y="352"/><use xlink:href="#Q" y="352"/><use xlink:href="#R" y="352"/><use xlink:href="#S" y="352"/><use xlink:href="#O" x="44.31" y="352"/><use xlink:href="#Z" x="22.16" y="328"/><use xlink:href="#a" x="22.15" y="328"/><use xlink:href="#f" y="164"/><use xlink:href="#L" x="103.38" y="352"/><use xlink:href="#Z" x="51.7" y="328"/><use xlink:href="#O" x="96" y="352"/><use xlink:href="#g" y="164"/><use xlink:href="#L" x="140.3" y="352"/><use xlink:href="#a" x="81.23" y="328"/><use xlink:href="#M" x="147.69" y="352"/><use xlink:href="#a" x="96" y="328"/><use xlink:href="#Z" x="110.77" y="328"/><use xlink:href="#O" x="155.08" y="352"/><use xlink:href="#f" x="96" y="164"/><use xlink:href="#h" y="164"/><use xlink:href="#i" y="164"/><use xlink:href="#Q" x="169.85" y="352"/><use xlink:href="#R" x="169.84" y="352"/><use xlink:href="#j" y="164"/><use xlink:href="#a" x="169.84" y="328"/><use xlink:href="#b" x="169.85" y="328"/><use xlink:href="#O" x="228.92" y="352"/><use xlink:href="#f" x="169.84" y="164"/><use xlink:href="#j" x="44.31" y="164"/><path d="M662.459 366.453c.372 0 .672.12.9.384.24.252.36.72.36 1.404v4.824h-.96v-4.656c0-.312-.012-.54-.036-.696s-.06-.264-.132-.348c-.072-.072-.18-.108-.336-.108-.42 0-.804.252-1.128.78v5.028h-.972v-4.656l-.024-.696c-.024-.156-.072-.264-.144-.348-.06-.072-.18-.108-.324-.108-.432 0-.804.252-1.14.78v5.028h-.948v-6.48h.804l.072.756c.192-.288.396-.504.624-.66.216-.156.48-.228.78-.228.612 0 1.008.276 1.176.852.192-.276.396-.492.624-.636s.492-.216.804-.216z"/><use xlink:href="#L" x="288" y="352"/><use xlink:href="#b" x="221.54" y="328"/><use xlink:href="#K" x="310.16" y="352"/><use xlink:href="#j" x="81.23" y="164"/><use xlink:href="#a" x="251.07" y="328"/><use xlink:href="#b" x="251.08" y="328"/><use xlink:href="#K" x="339.69" y="352"/><use xlink:href="#T" x="273.23" y="352"/><use xlink:href="#G" x="-14.77" y="376"/><use xlink:href="#H" x="-14.77" y="376"/><use xlink:href="#d" y="304"/><use xlink:href="#X" x="-14.77" y="352"/><use xlink:href="#J" x="-29.54" y="376"/><use xlink:href="#K" x="-29.54" y="376"/><use xlink:href="#L" x="-29.54" y="376"/><use xlink:href="#M" x="-29.54" y="376"/><use xlink:href="#N" x="-29.54" y="376"/><use xlink:href="#T" x="-73.85" y="376"/></g><use xlink:href="#k" class="C"/><g class="B"><use xlink:href="#l"/><use xlink:href="#m"/><use xlink:href="#n"/><use xlink:href="#o"/><use xlink:href="#m" x="15.758"/><use xlink:href="#p"/><use xlink:href="#n" x="20.373"/><use xlink:href="#q"/><use xlink:href="#r"/></g><use xlink:href="#k" y="164" class="C"/><g class="B"><path d="M398.679 224.242a1.05 1.05 0 0 1-.061.331l-.049.123.025.208-.147.135c-.061.061-.11.147-.147.282l-.086.355-.233.221c-.037.135-.135.294-.306.453-.221.208-.368.355-.429.453l-.221-.037a.65.65 0 0 1-.404.257l-.331.074-.098-.074h-.061l-.025.061-.098.025-.11.061-.037-.037-.061.037-.306-.257.012-.184-.049-.061.037-.306v-.539l.037-.147.049-.429-.135.27-.098.074-.049.098-.086.037-.123.208-.221.221-.086.098-.172.172-.049.11-.282.184-.306.343-.147.037-.123.098c-.11-.025-.184-.086-.233-.184-.208-.098-.331-.27-.355-.502l.074-.037-.012-.086v-.135l-.074-.086.098-.11.037-.208.086-.294v-.049c0-.025.012-.061.025-.11v-.061a.61.61 0 0 1 .037-.196l.061-.012c.025-.012.037-.025.037-.049s-.012-.049-.037-.074l-.037-.074c.037-.135.074-.196.135-.208.012-.049.025-.086.037-.098v-.159l.159-.159c0-.159.061-.27.172-.331l.012-.159c.025-.086.049-.135.074-.172l.012-.11c.012.012.025.025.037.025.012-.025 0-.049-.012-.074.086-.086.196-.221.319-.38l.098-.037c.086 0 .147-.025.172-.086l.196-.098.539-.012v.061l.245.061c.012 0 .061.012.159.037.012.061.049.086.11.086h.037l.074.074.233.061.012-.049-.061.037.294-.025.049.159.098.098-.074.049.049.208-.11.123-.061.184-.049.074.037.11-.11.221c0 .012.012.037.025.086l-.025.049.012.061-.037.086v.098l-.061.074.012.184.012.037-.037.037-.025.074.025.074-.074.11-.025.074.025.123-.074.086.074.074-.098.184-.025.086.074.012-.061.147v.086h-.037l.025.147h.147l.037.098.074-.012.196-.061.061.074.061-.037c.025.012.049.012.086.012.098 0 .159-.074.184-.221h.098l.037-.098c.061.025.11.037.147.037.061 0 .086-.037.086-.098.086-.012.147-.098.196-.257.037-.147.123-.233.233-.257.025-.135.074-.221.135-.245v-.086c0-.172.049-.282.147-.343a.25.25 0 0 0 .074-.184v-.037l.074-.147-.061-.086v-.147c-.025-.025-.037-.061-.037-.098 0-.061.037-.123.11-.196l.012-.233-.159-.147.11-.257-.159-.123-.049-.404-.11.012-.208-.355-.11-.025-.147-.196-.098.037-.159-.098h-.123l-.086-.123-.11-.012-.159-.159h-.184l-.147-.098c-.061-.012-.159-.025-.27-.025s-.196.012-.245.025l-.294.025c-.025 0-.049-.012-.086-.037l-.086-.025-.049.025-.172.123c-.037.012-.11.012-.196.012-.098 0-.172-.012-.221-.025a3.34 3.34 0 0 0-.576.257l-.086.147-.245.012-.074.061c-.11.012-.208.098-.282.27l-.086-.012c-.061.086-.184.184-.38.294l-.086.208-.147.074c-.086.11-.147.196-.159.257-.037.135-.098.221-.208.245v.074l-.123.049c.012.025.012.061.012.098 0 .11-.061.208-.184.282l-.025.245-.147.331-.208.539-.037.135c.037.061.049.11.049.135 0 .037-.012.074-.037.123l.061.098-.037.135-.025.159.086.319-.025.221.11.208.025.123h.025l.098.221.049.172v.086l.049.049.208.306.184.061.049.086.061.025c.11.184.257.282.441.282l.086.074.159-.012.098.11h.147l.135.098.037-.025.208.061.074-.025c.049-.012.086-.025.123-.025.049 0 .11.025.196.061l.172.086.172.049.282-.049.245-.074a.34.34 0 0 0 .159.037c.049 0 .11-.025.196-.061l.233-.074.184-.012.221-.123c.294-.049.564-.147.796-.306l.123-.098.319-.147.282.061c.012 0 .025 0 .037-.012h.037c.172 0 .27.135.294.392-.061.11-.147.196-.257.233l-.037.061c-.086 0-.184.049-.306.159s-.245.159-.355.159h-.074c-.172.049-.355.123-.551.221-.012-.012-.037-.012-.074-.012-.049 0-.11.025-.184.074l-.233.061-.38.061-.221.025c-.074 0-.159-.025-.257-.061h-.392l-.098-.061h-.11l-.135.012-.294-.012-.208-.074-.11-.061-.147-.012c-.012-.025-.123-.049-.319-.061l-.184-.098c-.025.012-.061.012-.11.012-.11 0-.208-.049-.282-.135-.025-.037-.049-.049-.074-.049-.012 0-.012.012-.012.025l-.208-.012-.074-.196-.245-.123-.098-.159-.221-.086-.037-.135-.196-.221-.135-.221-.061-.282-.086-.098-.025-.11-.098-.049.012-.159-.037-.123.012-.159h.012c.012 0 .012-.012.012-.025 0-.037-.025-.123-.074-.245l-.061-.257.025-.282.037-.098-.012-.159.098-.196.025-.135-.025-.123.098-.172.025-.294.282-.588.196-.539.221-.208.221-.331.282-.306.38-.429c.123-.147.257-.233.392-.27l.355-.172.257-.184c.135-.098.245-.147.319-.147h.11l.147-.135.331-.11c.012.061.025.086.049.086-.012 0 .012-.025.074-.061a.45.45 0 0 1 .245-.061h.074l.074-.086.343.061.159.049.086-.074c.086.037.135.049.172.049a.33.33 0 0 0 .159-.049l.147.049.049.049c.086 0 .159.025.245.074l.208.061c.208.025.392.098.527.221.123.037.245.11.355.233.012.037.049.074.135.098s.135.061.172.123l.135.233.184.074.049.245.172.147.11.319-.049.098.086.172c-.037.037-.061.11-.061.196v.074l.11.123-.025.257v.012c-.012.012-.012.012-.012.025s.012.049.025.098.012.086.012.11zm-2.891-.172l-.012-.11-.012-.061-.086-.037-.184-.172h-.123l-.037-.049-.147-.025-.074.025-.037-.037c-.074.012-.147.037-.221.061l.012.025-.147.049-.025.037-.037.012c-.098.061-.172.135-.208.245l-.123.172-.037.074.037.098-.098.098.012.049c-.074.086-.11.184-.11.306l-.049.074-.025.147-.049.061-.025.086-.025.025-.012.11-.037.049-.037.147.049.147-.098.061.025.037-.074.086.049.159-.098.11v.159l.012.049.098.061c.012-.074.049-.123.11-.135v-.074l.159-.037.11-.11.025-.012-.037.037h-.098l.392-.331.074-.025.061-.147a.2.2 0 0 0 .135-.086l.074-.086.049-.012-.025-.135.086-.012.221-.282.074-.061c.012-.037.061-.098.172-.184v-.025l-.025-.037.196-.196.025-.11.049-.025-.012-.037.049-.074.025-.086.061-.049z"/><use xlink:href="#s"/><use xlink:href="#n" y="164"/><use xlink:href="#o" y="164"/><use xlink:href="#s" x="15.758"/><use xlink:href="#p" y="164"/><use xlink:href="#n" x="20.373" y="164"/><use xlink:href="#q" y="164"/><use xlink:href="#r" y="164"/></g><use xlink:href="#k" y="328" class="C"/><g class="B"><use xlink:href="#l" y="328"/><use xlink:href="#s" y="164"/><use xlink:href="#n" y="328"/><use xlink:href="#o" y="328"/><use xlink:href="#s" x="15.758" y="164"/><use xlink:href="#p" y="328"/><use xlink:href="#n" x="20.373" y="328"/><use xlink:href="#q" y="328"/><use xlink:href="#r" y="328"/></g><path d="M63 379.689v12.68a4.23 4.23 0 0 1-4.227 4.227H4.227A4.23 4.23 0 0 1 0 392.369v-12.68a4.23 4.23 0 0 1 4.227-4.227h54.546A4.23 4.23 0 0 1 63 379.689z" fill="#bcf9ab"/><g class="B"><use xlink:href="#q" x="-411.151" y="323.686"/><path d="M30.351 387.101c0 .098-.074.221-.221.355l-.098.037-.086.11-.221.061c-.037.061-.086.086-.123.086-.012 0-.012 0-.025-.012h-.037c-.184.086-.392.135-.649.135h-.098l-.306-.061-.208-.098-.466-.392-.098-.331-.196-.159c.025-.037.037-.086.037-.159 0-.049-.037-.135-.098-.245l.037-.294v-.049a1.08 1.08 0 0 0-.086-.38l.074-.368-.159.319-.184.025-.025.257c-.061.037-.147.049-.233.049l-.135.294-.159.184c-.061.074-.123.11-.172.123l-.037.025-.441.453h-.049l-.233.27-.221.11-.123.159-.282.086-.404.159-.245-.123c-.159 0-.282-.074-.343-.221l-.11-.061c0-.025 0-.061.012-.098v-.086l-.196-.172.049-.074-.147-.343.049-.049-.025-.025v-.074c-.012-.025-.012-.049-.012-.061 0-.086.012-.172.037-.257l.012-.319-.049-.257c.037-.061.061-.123.061-.172 0-.061-.025-.11-.074-.159l.135-.098v-.147l-.049-.404.135-.784c0-.135-.037-.319-.11-.576.025-.257.196-.404.515-.429l.098.037.172.025.221.245-.074.319-.025.527.037.404-.074.147.037.098-.061.196v.123l-.025.037c.012.025.012.061.012.11a1.03 1.03 0 0 1-.049.331l.061.086-.049.184.025.147v.172a.3.3 0 0 1 .061.184c0 .061-.012.135-.049.196v.049l.061.27.11.11.172-.123c.025-.086.086-.135.172-.159v-.123c.049 0 .123-.012.233-.037l.025-.11.208-.086.037-.037c.061-.061.147-.11.282-.159v-.049l.233-.172c.061-.159.159-.257.306-.306.086-.086.147-.147.184-.159l.159-.208v-.037l.049-.025.11-.049.061-.172.257-.11.049-.012.086-.086v-.11l.074-.025c.025-.135.086-.233.196-.294l.184-.417.061-.221.025-.049h.049l.086-.061-.074-.025c.086-.147.159-.306.208-.466l.355-.012.282.233.123.196-.135.527-.184.245-.147.478-.123.074v.184l-.074.135.037.221-.098.086.049.392.025.551h.061v.319l.172.208.159.086.012.061c.061.012.123.025.208.061l.306.025.184-.049.331-.159c.061-.037.147-.049.245-.049.245 0 .368.11.368.319z"/><use xlink:href="#s" x="-368.369" y="159.686"/><use xlink:href="#t"/><path d="M44.685 386.807c0 .098-.074.221-.221.368-.037.135-.098.233-.184.319l-.074.012-.135.233-.221.037-.233.147-.123.221-.135-.025c-.086.037-.159.061-.221.074l-.074.11c-.025-.012-.061-.012-.11-.012-.11 0-.208.074-.306.221l-.172-.147c-.037.012-.086.012-.147.012a.59.59 0 0 1-.27-.049h-.208l-.098-.061c-.306-.049-.502-.172-.588-.355v-.037l-.147-.074-.074-.208-.147-.098v-.184l-.147-.539.025-.441.049-.196v-.257l.061-.196-.012-.086.086-.147-.025.025a.6.6 0 0 1 .061-.233v-.061l-.037-.294c0-.135.061-.257.184-.368.012-.012.012-.037.012-.074s-.012-.098-.037-.208c-.037-.098-.049-.172-.049-.208 0-.098.025-.196.074-.306.061.098.159.147.282.147h.037c.012-.037.049-.074.11-.11a1.46 1.46 0 0 1 .27-.515l.049-.049c0-.037.025-.123.074-.282h.098l.025-.061.098-.025a.86.86 0 0 1 .086-.123c.012-.012.098-.061.257-.147a.6.6 0 0 1 .147-.159c.037-.012.074-.037.123-.049l.049-.074c.221-.074.355-.11.417-.11s.123.012.184.049l.061-.012.086.049a1.93 1.93 0 0 0 .294.184l.208.159v.049c.184.147.282.355.282.625l-.037.123.037.404-.11.074-.123.319-.233.257-.012.196c-.257.184-.502.343-.723.453-.074.11-.184.172-.343.172H42.7l-.233.147h-.196l-.294.123-.221-.11h-.025c-.012.061-.037.159-.049.294l-.098.074-.012.147-.074.208.037.38-.049.037c0 .11 0 .184-.012.233 0 .012 0 .025-.012.037v.037c0 .061.037.123.098.159.025.098.061.159.123.184l.086.074.27.074v.037l.098.025.417.025.245-.037.123-.086.074-.025.123-.184.061-.012.306-.098c.037-.061.086-.11.159-.147l.037-.061c.159-.037.257-.123.282-.257a.6.6 0 0 1 .441-.172h.049c.159.184.233.331.233.441zm-1.213-3.528a.6.6 0 0 0-.037-.147l-.061-.012-.025.012h-.049c-.012.012-.037.012-.049.012s-.025 0-.037-.012h-.037l-.123.086-.11.012-.061.025-.208.27-.135.098-.196.343-.11.074c-.025.135-.086.257-.172.355l-.049.086c.086-.061.196-.086.306-.086l.086-.037.037-.11.172.012.098-.147h.074l.135.049.061-.184h.086v-.135l.159-.037.037-.037.025-.11.159-.233c.012-.037.025-.086.025-.147z"/></g><path d="M85.413 213.16v12.68a4.23 4.23 0 0 1-4.227 4.227H26.64a4.23 4.23 0 0 1-4.227-4.227v-12.68a4.23 4.23 0 0 1 4.227-4.227h54.546a4.23 4.23 0 0 1 4.227 4.227z" fill="#bcf9ab"/><g class="B"><path d="M45.397 216.885c0 .074-.074.147-.221.208a.6.6 0 0 1-.184.11c-.11.049-.196.086-.245.123l-.257-.086c-.135.098-.294.147-.502.147l-.147-.037-.11.098H43.4l-.208.135a.64.64 0 0 0-.257-.049c-.025.012-.086.037-.172.049a.32.32 0 0 1-.135-.037l-.037.466.012.343-.037.429.025.466.037.221v.172l.172.368c-.025.025-.037.049-.037.086 0 .061.086.098.27.135l.025.147.086.037.147.098.098.074.172-.025c.074 0 .147.012.221.037.037-.012.098-.074.208-.172.074-.061.147-.098.208-.098h.037c.012.012.025.012.037.012.074-.159.208-.257.392-.306.172 0 .319.049.429.159v.086c0 .282-.098.453-.294.527-.074.172-.233.282-.466.331l-.147.135h-.159l-.282.074c-.061.012-.159.025-.282.025a.46.46 0 0 1-.208-.049h-.159l-.429-.233-.11-.037-.257-.343-.147-.159-.27-.613-.098-.576.025-.147-.098-.135.061-.172-.061-.27.086-.086.025-.159-.037-.147.025-.221-.049-.196.061-.061v-.196l-.086-.037-.233.049-.221-.159h-.037c-.245 0-.368-.135-.368-.392v-.037l-.147-.233.233-.221.306.049.159-.025.233.061h.257v-.245l-.159-.343.159-.086-.061-.184.012-.38-.098-.159c-.061-.086-.086-.172-.086-.245 0-.086.025-.159.061-.221l.037-.172.098-.098.441-.061c.257 0 .404.123.429.355l-.037.061a.39.39 0 0 1 .074.208c0 .012 0 .025-.012.061l-.025.074-.012.086.049.159-.012.061.025.172-.11.147.061.245-.049.294.098.11-.098.221.38-.049.674.061.539-.086.184.012.061-.012h.478c.257 0 .38.086.38.27zm7.367 3.687c0 .098-.074.221-.221.355l-.098.037-.086.11-.221.061c-.037.061-.086.086-.123.086-.012 0-.012 0-.025-.012h-.037a1.49 1.49 0 0 1-.649.135h-.098l-.306-.061-.208-.098-.466-.392-.098-.331-.196-.159c.025-.037.037-.086.037-.159 0-.049-.037-.135-.098-.245l.037-.294v-.049a1.08 1.08 0 0 0-.086-.38l.074-.368-.159.319-.184.025-.025.257c-.061.037-.147.049-.233.049l-.135.294-.159.184c-.061.074-.123.11-.172.123l-.037.025-.441.453h-.049l-.233.27-.221.11-.123.159-.282.086-.404.159-.245-.123c-.159 0-.282-.074-.343-.221l-.11-.061a.31.31 0 0 1 .012-.098v-.086l-.196-.172.049-.074-.147-.343.049-.049-.025-.025v-.074c-.012-.025-.012-.049-.012-.061a.91.91 0 0 1 .037-.257l.012-.319-.049-.257c.037-.061.061-.123.061-.172 0-.061-.025-.11-.074-.159l.135-.098v-.147l-.049-.404.135-.784c0-.135-.037-.319-.11-.576.025-.257.196-.404.515-.429l.098.037.172.025.221.245-.074.319-.025.527.037.404-.074.147.037.098-.061.196v.123l-.025.037c.012.025.012.061.012.11a1.03 1.03 0 0 1-.049.331l.061.086-.049.184.025.147v.172a.3.3 0 0 1 .061.184c0 .061-.012.135-.049.196v.049l.061.27.11.11.172-.123c.025-.086.086-.135.172-.159v-.123a1.18 1.18 0 0 0 .233-.037l.025-.11.208-.086.037-.037c.061-.061.147-.11.282-.159v-.049l.233-.172c.061-.159.159-.257.306-.306.086-.086.147-.147.184-.159l.159-.208v-.037l.049-.025.11-.049.061-.172.257-.11.049-.012.086-.086V218l.074-.025c.025-.135.086-.233.196-.294l.184-.417.061-.221.025-.049h.049l.086-.061-.074-.025a2.23 2.23 0 0 0 .208-.466l.355-.012.282.233.123.196-.135.527-.184.245-.147.478-.123.074v.184l-.074.135.037.221-.098.086.049.392.025.551h.061v.319l.172.208.159.086.012.061a.94.94 0 0 1 .208.061l.306.025.184-.049.331-.159c.061-.037.147-.049.245-.049.245 0 .368.11.368.319z"/><use xlink:href="#m" x="-345.956" y="157.157"/><use xlink:href="#t" x="22.413" y="-166.529"/><use xlink:href="#p" x="-357.704" y="157.157"/></g><path d="M95.991 189.026v12.68a4.23 4.23 0 0 1-4.227 4.227H37.218a4.23 4.23 0 0 1-4.227-4.227v-12.68a4.23 4.23 0 0 1 4.227-4.227h54.546a4.23 4.23 0 0 1 4.227 4.227z" fill="#aadffa"/><g class="B"><use xlink:href="#u"/><use xlink:href="#q" x="-366.81" y="133.023"/><use xlink:href="#n" x="-337.329" y="133.023"/></g><path d="M104.826 33.824v12.68a4.23 4.23 0 0 1-4.227 4.227H46.053a4.23 4.23 0 0 1-4.227-4.227v-12.68a4.23 4.23 0 0 1 4.227-4.227h54.546a4.23 4.23 0 0 1 4.227 4.227z" fill="#aadffa"/><g class="B"><use xlink:href="#u" x="8.835" y="-155.202"/><use xlink:href="#q" x="-357.975" y="-22.179"/><use xlink:href="#n" x="-328.494" y="-22.179"/></g><path d="M80.931 59.256v12.68a4.23 4.23 0 0 1-4.227 4.227H22.158a4.23 4.23 0 0 1-4.227-4.227v-12.68a4.23 4.23 0 0 1 4.227-4.227h54.546a4.23 4.23 0 0 1 4.227 4.227z" fill="#d9b0fc"/><g class="B"><use xlink:href="#t" x="3.893" y="-317.879"/><use xlink:href="#v"/><use xlink:href="#u" x="-9.251" y="-127.215"/><use xlink:href="#q" x="-376.054" y="5.807"/></g><path d="M75.413 237.293v12.68a4.23 4.23 0 0 1-4.227 4.227H16.64a4.23 4.23 0 0 1-4.227-4.227v-12.68a4.23 4.23 0 0 1 4.227-4.227h54.546a4.23 4.23 0 0 1 4.227 4.227z" fill="#fdc9af"/><g class="B"><use xlink:href="#v" x="-8.252" y="175.483"/><path d="M48.301 243.431c0 .061-.049.147-.159.257l-.135.208-.049.245-.11.037-.025.074c-.135.037-.221.147-.282.306a.79.79 0 0 1-.294.245c-.037.037-.074.074-.11.086l-.061.11-.11.025-.319.172-.417.049-.11-.025-.184.037-.074-.086c-.11-.061-.196-.11-.245-.172-.098-.025-.172-.098-.221-.233-.135-.159-.208-.294-.208-.392v-.037l-.086-.147-.025-.025-.074-.221-.11-.233.025-.282-.123-.159-.184-1.054c-.025-.135-.037-.257-.037-.355l-.025-.061-.061-.086-.11.147-.441.466-.159.257-.086.172-.135.196-.098.098.012.061-.172.38-.098.123-.123.025-.11.11c0 .159-.074.27-.233.319l-.025.025c-.074.184-.159.294-.245.331l-.11.172-.355.306c-.025.086-.074.147-.135.208-.012.025-.049.061-.086.098-.025.135-.135.233-.343.294l-.135.037c-.159-.012-.294-.098-.404-.282l-.184-.306.061-.294-.025-.159.025-.025.012-.159-.135-.294.098-.147-.049-.159.086-.172.025-.282-.049-.049.098-.172-.037-.086-.012-.196.049-.368-.025-.159c0-.012 0-.037.012-.049v-.049l-.061-.098.037-.392-.012-.135.037-.196-.049-.331.221-.368c.257.037.429.098.527.159.098.074.147.196.147.38v.11l.086.147-.037.257.049.49-.086.233.037.257v.208l-.098.135.074.221-.074.135-.012.135.074.135-.098.257-.037.11v.11l.061.123.208-.208c0-.123.037-.208.123-.245.012-.086.037-.147.098-.184l-.037-.037.159-.147.037-.049v-.11l.196-.147.049-.123.11-.074.478-.539c-.037.049-.172.196-.404.453v.025l.025-.086.159-.184.11-.208v-.123l.184-.061.025-.159.049-.049.012-.061v-.086l.172-.172v-.061c-.012-.025-.012-.037-.012-.049 0-.147.086-.233.245-.245.074-.147.184-.233.331-.257l.074-.11.025-.025c.074-.11.184-.184.331-.221l.11-.135h.294l.147.172.135.074.012.037.086.025.025.257.208.123-.086.27.135.294v.343l.098.466.025.441.11.257.074.319c.049.049.086.123.11.208l.221.061v.245l.123.135v.037l.049.012.049.074.049-.061c-.012 0 0 0 .061.012.086 0 .184-.086.282-.245l.147-.037.037-.061c.025-.061.074-.11.147-.147l.086.012.049-.049.012-.061.037-.049c.086-.061.135-.147.159-.257l.135-.147.025-.11.086-.196.233-.086.331.11.11.355c0 .012 0 .012.012.025v.037z"/><use xlink:href="#q" x="-381.661" y="181.29"/></g><use xlink:href="#k" y="26" class="C"/><g class="B"><path d="M398.679 86.242a1.05 1.05 0 0 1-.061.331l-.049.123.025.208-.147.135c-.061.061-.11.147-.147.282l-.086.355-.233.221c-.037.135-.135.294-.306.453-.221.208-.368.355-.429.453l-.221-.037a.65.65 0 0 1-.404.257l-.331.074-.098-.074h-.061l-.025.061-.098.025-.11.061-.037-.037-.061.037-.306-.257.012-.184-.049-.061.037-.306v-.539l.037-.147.049-.429-.135.27-.098.074-.049.098-.086.037-.123.208-.221.221-.086.098-.172.172-.049.11-.282.184-.306.343-.147.037-.123.098c-.11-.025-.184-.086-.233-.184-.208-.098-.331-.27-.355-.502l.074-.037-.012-.086v-.135l-.074-.086.098-.11.037-.208.086-.294v-.049c0-.025.012-.061.025-.11v-.061a.61.61 0 0 1 .037-.196l.061-.012c.025-.012.037-.025.037-.049s-.012-.049-.037-.074l-.037-.074c.037-.135.074-.196.135-.208.012-.049.025-.086.037-.098v-.159l.159-.159c0-.159.061-.27.172-.331l.012-.159c.025-.086.049-.135.074-.172l.012-.11c.012.012.025.025.037.025.012-.025 0-.049-.012-.074.086-.086.196-.221.319-.38l.098-.037c.086 0 .147-.025.172-.086l.196-.098.539-.012v.061l.245.061c.012 0 .061.012.159.037.012.061.049.086.11.086h.037l.074.074.233.061.012-.049-.061.037.294-.025.049.159.098.098-.074.049.049.208-.11.123-.061.184-.049.074.037.11-.11.221c0 .012.012.037.025.086l-.025.049.012.061-.037.086v.098l-.061.074.012.184.012.037-.037.037-.025.074.025.074-.074.11-.025.074.025.123-.074.086.074.074-.098.184-.025.086.074.012-.061.147v.086h-.037l.025.147h.147l.037.098.074-.012.196-.061.061.074.061-.037c.025.012.049.012.086.012.098 0 .159-.074.184-.221h.098l.037-.098c.061.025.11.037.147.037.061 0 .086-.037.086-.098.086-.012.147-.098.196-.257.037-.147.123-.233.233-.257.025-.135.074-.221.135-.245v-.086c0-.172.049-.282.147-.343a.25.25 0 0 0 .074-.184v-.037l.074-.147-.061-.086v-.147c-.025-.025-.037-.061-.037-.098 0-.061.037-.123.11-.196l.012-.233-.159-.147.11-.257-.159-.123-.049-.404-.11.012-.208-.355-.11-.025-.147-.196-.098.037-.159-.098h-.123l-.086-.123-.11-.012-.159-.159h-.184l-.147-.098c-.061-.012-.159-.025-.27-.025s-.196.012-.245.025l-.294.025c-.025 0-.049-.012-.086-.037l-.086-.025-.049.025-.172.123c-.037.012-.11.012-.196.012-.098 0-.172-.012-.221-.025a3.34 3.34 0 0 0-.576.257l-.086.147-.245.012-.074.061c-.11.012-.208.098-.282.27l-.086-.012c-.061.086-.184.184-.38.294l-.086.208-.147.074c-.086.11-.147.196-.159.257-.037.135-.098.221-.208.245v.074l-.123.049c.012.025.012.061.012.098 0 .11-.061.208-.184.282l-.025.245-.147.331-.208.539-.037.135c.037.061.049.11.049.135 0 .037-.012.074-.037.123l.061.098-.037.135-.025.159.086.319-.025.221.11.208.025.123h.025l.098.221.049.172v.086l.049.049.208.306.184.061.049.086.061.025c.11.184.257.282.441.282l.086.074.159-.012.098.11h.147l.135.098.037-.025.208.061.074-.025c.049-.012.086-.025.123-.025.049 0 .11.025.196.061l.172.086.172.049.282-.049.245-.074a.34.34 0 0 0 .159.037c.049 0 .11-.025.196-.061l.233-.074.184-.012.221-.123c.294-.049.564-.147.796-.306l.123-.098.319-.147.282.061c.012 0 .025 0 .037-.012h.037c.172 0 .27.135.294.392-.061.11-.147.196-.257.233l-.037.061c-.086 0-.184.049-.306.159s-.245.159-.355.159h-.074c-.172.049-.355.123-.551.221-.012-.012-.037-.012-.074-.012-.049 0-.11.025-.184.074l-.233.061-.38.061-.221.025c-.074 0-.159-.025-.257-.061h-.392l-.098-.061h-.11l-.135.012-.294-.012-.208-.074-.11-.061-.147-.012c-.012-.025-.123-.049-.319-.061l-.184-.098c-.025.012-.061.012-.11.012-.11 0-.208-.049-.282-.135-.025-.037-.049-.049-.074-.049-.012 0-.012.012-.012.025l-.208-.012-.074-.196-.245-.123-.098-.159-.221-.086-.037-.135-.196-.221-.135-.221-.061-.282-.086-.098-.025-.11-.098-.049.012-.159-.037-.123.012-.159h.012c.012 0 .012-.012.012-.025 0-.037-.025-.123-.074-.245l-.061-.257.025-.282.037-.098-.012-.159.098-.196.025-.135-.025-.123.098-.172.025-.294.282-.588.196-.539.221-.208.221-.331.282-.306.38-.429c.123-.147.257-.233.392-.27l.355-.172.257-.184c.135-.098.245-.147.319-.147h.11l.147-.135.331-.11c.012.061.025.086.049.086-.012 0 .012-.025.074-.061a.45.45 0 0 1 .245-.061h.074l.074-.086.343.061.159.049.086-.074c.086.037.135.049.172.049a.33.33 0 0 0 .159-.049l.147.049.049.049c.086 0 .159.025.245.074l.208.061c.208.025.392.098.527.221.123.037.245.11.355.233.012.037.049.074.135.098s.135.061.172.123l.135.233.184.074.049.245.172.147.11.319-.049.098.086.172c-.037.037-.061.11-.061.196v.074l.11.123-.025.257v.012c-.012.012-.012.012-.012.025s.012.049.025.098a.42.42 0 0 1 .012.11zm-2.891-.172l-.012-.11-.012-.061-.086-.037-.184-.172h-.123l-.037-.049-.147-.025-.074.025-.037-.037a1.48 1.48 0 0 0-.221.061l.012.025-.147.049-.025.037-.037.012c-.098.061-.172.135-.208.245l-.123.172-.037.074.037.098-.098.098.012.049c-.074.086-.11.184-.11.306l-.049.074-.025.147-.049.061-.025.086-.025.025-.012.11-.037.049-.037.147.049.147-.098.061.025.037-.074.086.049.159-.098.11v.159l.012.049.098.061c.012-.074.049-.123.11-.135v-.074l.159-.037.11-.11.025-.012-.037.037h-.098l.392-.331.074-.025.061-.147a.2.2 0 0 0 .135-.086l.074-.086.049-.012-.025-.135.086-.012.221-.282.074-.061c.012-.037.061-.098.172-.184v-.025l-.025-.037.196-.196.025-.11.049-.025-.012-.037.049-.074.025-.086.061-.049z"/><use xlink:href="#s" y="-138"/><use xlink:href="#n" y="26"/><use xlink:href="#o" y="26"/><use xlink:href="#s" x="15.758" y="-138"/><use xlink:href="#p" y="26"/><use xlink:href="#n" x="20.373" y="26"/><use xlink:href="#q" y="26"/><use xlink:href="#r" y="26"/></g><defs ><path id="B" d="M229.187 55.852c0 .336.096.576.288.736s.48.24.832.24c.4 0 .8-.096 1.232-.272l.624 1.744c-.72.368-1.568.56-2.512.56-1.024 0-1.792-.288-2.304-.88-.496-.576-.752-1.408-.752-2.448v-7.344h-2.576v-1.776h5.168v9.44z"/><path id="C" d="M236.729 54.988c.08.688.304 1.184.672 1.504s.848.48 1.424.48c.736 0 1.488-.24 2.24-.72l1.04 1.424c-.432.368-.944.656-1.536.864-.592.224-1.232.32-1.952.32-.976 0-1.792-.192-2.48-.576-.672-.384-1.184-.928-1.536-1.632-.336-.688-.512-1.504-.512-2.416 0-.864.176-1.648.496-2.352.336-.72.832-1.264 1.472-1.68s1.392-.624 2.288-.624c.816 0 1.536.192 2.16.544.608.352 1.088.864 1.424 1.536s.496 1.472.496 2.4a7.95 7.95 0 0 1-.048.928h-5.648zm1.616-3.664c-.48 0-.864.176-1.136.512-.288.352-.448.88-.512 1.584h3.2c-.016-1.392-.528-2.096-1.552-2.096z"/><path id="D" d="M204.988 210.14l2.592.272v12.176h-2.304l-.128-.96a3.02 3.02 0 0 1-1.008.896c-.4.224-.864.336-1.408.336-.704 0-1.296-.176-1.776-.56s-.832-.928-1.072-1.616c-.24-.704-.352-1.52-.352-2.48 0-.896.144-1.68.416-2.384.288-.704.688-1.248 1.216-1.648.512-.384 1.136-.592 1.84-.592a2.69 2.69 0 0 1 1.984.816v-4.256zm-1.28 5.344c-.48 0-.848.224-1.104.656-.272.448-.4 1.136-.4 2.08 0 1.008.112 1.728.352 2.128.24.416.56.608.992.608.544 0 1.024-.336 1.44-1.008v-3.744c-.192-.24-.4-.416-.592-.544a1.42 1.42 0 0 0-.688-.176z"/><path id="E" d="M213.634 209.308c.288 0 .56.064.784.192s.416.304.544.528a1.46 1.46 0 0 1 .192.752c0 .272-.064.512-.192.736s-.32.4-.544.528c-.24.128-.496.192-.784.192-.304 0-.56-.064-.8-.192a1.33 1.33 0 0 1-.544-.528c-.144-.224-.208-.464-.208-.736a1.33 1.33 0 0 1 .752-1.28c.24-.128.496-.192.8-.192zm-3.424 4.56h4.992v6.944h2.208v1.776h-7.28v-1.776h2.48v-5.168h-2.4v-1.776z"/><path id="F" d="M303.103 21.833h6.888v1.524h-6.888z"/><path id="G" d="M320.945 11.105c.216 0 .42.048.588.144s.312.228.408.396.144.348.144.564c0 .204-.048.384-.144.552s-.24.3-.408.396a1.22 1.22 0 0 1-.588.144c-.228 0-.42-.048-.6-.144a1 1 0 0 1-.408-.396c-.108-.168-.156-.348-.156-.552 0-.216.048-.396.156-.564a1 1 0 0 1 .408-.396c.18-.096.372-.144.6-.144zm-2.568 3.42h3.744v5.208h1.656v1.332h-5.46v-1.332h1.86v-3.876h-1.8v-1.332z"/><path id="H" d="M325.505 21.065v-6.54h1.692l.144.756c.288-.324.6-.576.924-.732s.696-.24 1.104-.24c.564 0 .996.18 1.32.516.312.348.48.828.48 1.44v4.8h-1.944v-4.236c0-.276-.024-.492-.06-.648-.048-.156-.108-.264-.192-.336-.096-.06-.216-.096-.384-.096-.192 0-.384.06-.576.192a2.41 2.41 0 0 0-.564.552v4.572h-1.944z"/><path id="I" d="M346.155 20.681a3.53 3.53 0 0 1-.96.432 4.1 4.1 0 0 1-1.176.156c-.84 0-1.476-.204-1.896-.636-.42-.42-.636-1.02-.636-1.8v-2.964h-1.368v-1.344h1.368v-1.416l1.944-.228v1.644h2.112l-.192 1.344h-1.92v2.964c0 .324.072.564.228.696.144.144.372.216.708.216a2.22 2.22 0 0 0 1.14-.3l.648 1.236z"/><path id="J" d="M364.187 16.757c0 .84.096 1.572.288 2.184.192.624.468 1.188.852 1.692.372.504.864 1.032 1.488 1.584l-.54.576c-.72-.588-1.296-1.164-1.752-1.728a6.37 6.37 0 0 1-1.056-1.896c-.24-.696-.36-1.5-.36-2.412s.12-1.716.36-2.412a6.52 6.52 0 0 1 1.056-1.896c.456-.564 1.032-1.14 1.752-1.728l.54.576c-.624.552-1.128 1.092-1.5 1.584-.372.504-.66 1.068-.84 1.68-.192.624-.288 1.356-.288 2.196z"/><path id="K" d="M372.395 20.357c.492 0 .888-.096 1.176-.288a.84.84 0 0 0 .432-.744c0-.216-.036-.396-.108-.528-.084-.132-.228-.264-.456-.384-.228-.108-.552-.216-1.008-.336-.492-.12-.9-.252-1.212-.396s-.564-.336-.732-.576c-.18-.228-.264-.528-.264-.888a1.49 1.49 0 0 1 .312-.936c.204-.264.492-.468.864-.612s.804-.216 1.284-.216c.492 0 .936.06 1.32.192.396.132.744.3 1.032.516l-.456.708c-.264-.192-.552-.336-.852-.432s-.636-.156-1.032-.156c-.48 0-.84.084-1.068.228-.216.156-.336.36-.336.624a.79.79 0 0 0 .156.48c.108.12.276.228.516.324s.588.216 1.056.336c.468.132.852.264 1.152.42a1.76 1.76 0 0 1 .696.624c.168.252.252.564.252.96 0 .432-.12.804-.372 1.092a2.24 2.24 0 0 1-1.008.636c-.408.132-.864.204-1.344.204-1.02 0-1.872-.288-2.544-.876l.6-.684c.252.228.552.396.888.516s.684.192 1.056.192z"/><path id="L" d="M378.393 18.197c.012.48.108.876.276 1.2.18.324.408.564.684.72s.588.228.936.228a2.58 2.58 0 0 0 .876-.144c.276-.096.552-.24.852-.444l.48.684a3.36 3.36 0 0 1-1.044.564 3.62 3.62 0 0 1-1.176.204c-.624 0-1.152-.144-1.608-.42-.444-.276-.78-.672-1.02-1.188-.228-.504-.336-1.092-.336-1.764 0-.66.108-1.236.348-1.752.228-.516.564-.912.984-1.2a2.61 2.61 0 0 1 1.488-.432c.552 0 1.02.12 1.416.384.396.252.696.612.9 1.092.216.48.324 1.044.324 1.692l-.024.576h-4.356zm1.752-2.904c-.492 0-.9.18-1.212.528-.324.36-.492.876-.54 1.572h3.384c-.012-.684-.168-1.2-.456-1.56s-.672-.54-1.176-.54z"/><path id="M" d="M387.477 19.469c0 .3.096.528.288.66.192.144.456.216.792.216.348 0 .708-.072 1.08-.228l.276.756a3.03 3.03 0 0 1-.684.24c-.264.06-.54.096-.852.096-.384 0-.72-.072-1.008-.216-.3-.144-.516-.348-.684-.624-.156-.276-.24-.588-.24-.96v-6.612h-1.98v-.816h3.012v7.488z"/><path id="N" d="M396.175 11.849c.336 0 .648.024.924.084.288.06.564.144.828.264l-.324.768c-.408-.18-.876-.264-1.392-.264-.912 0-1.368.348-1.368 1.068v1.32h2.196l-.108.816h-2.088v5.16h-1.032v-5.16h-1.548v-.816h1.548v-1.296a1.74 1.74 0 0 1 .312-1.02 1.9 1.9 0 0 1 .84-.684c.36-.168.756-.24 1.212-.24z"/><path id="O" d="M402.187 19.037c.18 0 .36.048.504.132.156.096.276.216.36.36.084.156.132.312.132.492a1.9 1.9 0 0 1-.06.456c-.036.156-.096.324-.18.516l-.996 2.28h-.936l.588-2.424c-.12-.096-.216-.216-.288-.36a1.03 1.03 0 0 1-.108-.468c0-.18.036-.336.12-.492.096-.144.204-.264.36-.36.144-.084.312-.132.504-.132z"/><path id="P" d="M417.401 14.453c.828 0 1.428.288 1.788.876.372.588.552 1.416.552 2.496 0 .66-.096 1.248-.276 1.764-.18.504-.468.9-.84 1.188s-.84.432-1.38.432c-.72 0-1.284-.252-1.716-.756v3.096l-1.032.12v-9.084h.876l.096.9c.228-.336.516-.588.852-.768.324-.18.684-.264 1.08-.264zm-.252.828c-.336 0-.636.096-.912.3-.264.192-.504.444-.708.744v3.204c.18.264.384.456.648.6.252.144.54.216.84.216.54 0 .948-.204 1.212-.624.264-.408.408-1.044.408-1.908 0-.852-.12-1.488-.372-1.908-.24-.42-.612-.624-1.116-.624z"/><path id="Q" d="M426.521 19.649c0 .252.036.444.12.564s.216.204.408.264l-.252.732c-.624-.084-1.02-.384-1.188-.912a2.15 2.15 0 0 1-.876.684 2.99 2.99 0 0 1-1.152.228c-.432 0-.804-.084-1.116-.252-.324-.156-.564-.396-.732-.696s-.252-.648-.252-1.056c0-.672.264-1.176.78-1.536.528-.36 1.284-.54 2.268-.54h.948v-.54c0-.444-.132-.78-.396-.984s-.648-.3-1.152-.3c-.48 0-1.044.108-1.68.336l-.276-.78c.72-.276 1.428-.408 2.124-.408.792 0 1.392.18 1.8.552.42.372.624.888.624 1.536v3.108zm-2.676.768c.312 0 .624-.084.912-.24a2.14 2.14 0 0 0 .72-.672v-1.668h-.936c-.684 0-1.176.12-1.488.348s-.456.576-.456 1.008c0 .816.408 1.224 1.248 1.224z"/><path id="R" d="M434.415 20.741c-.216.144-.492.252-.804.336-.324.084-.636.132-.936.132-.456 0-.84-.084-1.176-.252a1.81 1.81 0 0 1-.744-.696c-.168-.288-.252-.624-.252-1.008v-3.864h-1.488v-.804h1.488v-1.476l1.032-.12v1.596h2.232l-.12.804h-2.112v3.852c0 .36.096.648.288.828s.516.276.948.276.852-.108 1.236-.312l.408.708z"/><path id="S" d="M437.679 15.473a2.43 2.43 0 0 1 .924-.756 2.61 2.61 0 0 1 1.152-.264c.612 0 1.068.156 1.368.492.3.324.444.792.444 1.416v4.704h-1.032v-4.68c0-.384-.084-.672-.264-.852s-.468-.276-.852-.276c-.348 0-.672.108-.984.324s-.564.468-.756.768v4.716h-1.032v-9.072l1.032-.12v3.6z"/><path id="T" d="M447.565 16.757c0-.84-.084-1.572-.276-2.196-.192-.612-.468-1.176-.84-1.68a11.31 11.31 0 0 0-1.512-1.584l.54-.576c.72.588 1.308 1.164 1.764 1.728s.804 1.2 1.044 1.896c.252.696.372 1.5.372 2.412s-.12 1.716-.372 2.412c-.24.708-.588 1.332-1.044 1.896s-1.044 1.14-1.764 1.728l-.54-.576c.624-.552 1.128-1.08 1.5-1.584a5.61 5.61 0 0 0 .852-1.692c.18-.612.276-1.344.276-2.184z"/><path id="U" d="M308.851 43.181c0 .24.036.42.096.528.072.12.18.204.336.264l-.396 1.272c-.396-.036-.732-.12-.984-.252-.264-.144-.468-.348-.624-.6-.24.288-.552.504-.936.66a3.39 3.39 0 0 1-1.212.216c-.444 0-.828-.084-1.164-.252-.336-.18-.588-.42-.78-.732-.18-.312-.264-.66-.264-1.068 0-.468.12-.864.372-1.2s.612-.588 1.092-.756c.48-.18 1.044-.264 1.716-.264h.876v-.24c0-.672-.432-1.008-1.284-1.008-.216 0-.492.024-.828.096a7.24 7.24 0 0 0-.972.252l-.444-1.296a7.35 7.35 0 0 1 1.296-.36 7.02 7.02 0 0 1 1.248-.132c.96 0 1.68.204 2.148.588.48.396.708.96.708 1.728v2.556zm-3.048.708c.216 0 .444-.072.672-.204a1.16 1.16 0 0 0 .504-.516v-1.068h-.48c-.528 0-.924.084-1.188.252-.252.168-.384.408-.384.732 0 .252.072.444.228.588s.372.216.648.216z"/><path id="V" d="M314.455 35.729l1.944.204v9.132h-1.728l-.096-.72c-.204.276-.444.504-.756.672-.3.168-.648.252-1.056.252-.528 0-.972-.132-1.332-.42s-.624-.696-.804-1.212c-.18-.528-.264-1.14-.264-1.86 0-.672.108-1.26.312-1.788.216-.528.516-.936.912-1.236a2.26 2.26 0 0 1 1.38-.444c.588 0 1.08.204 1.488.612v-3.192zm-.96 4.008c-.36 0-.636.168-.828.492-.204.336-.3.852-.3 1.56 0 .756.084 1.296.264 1.596.18.312.42.456.744.456.408 0 .768-.252 1.08-.756v-2.808a1.96 1.96 0 0 0-.444-.408c-.156-.084-.324-.132-.516-.132z"/><path id="W" d="M336.363 43.745c.24 0 .48-.048.72-.144.228-.096.48-.24.732-.42l.864 1.236c-.3.264-.66.468-1.08.624-.408.156-.864.228-1.344.228-.696 0-1.296-.144-1.8-.42-.516-.288-.9-.696-1.176-1.212-.264-.516-.408-1.116-.408-1.8 0-.672.144-1.284.42-1.824a3.05 3.05 0 0 1 1.188-1.248c.516-.3 1.116-.456 1.812-.456a3.99 3.99 0 0 1 1.308.204 3.48 3.48 0 0 1 1.08.624l-.84 1.164c-.468-.324-.96-.492-1.464-.492-.468 0-.828.168-1.08.492-.264.324-.396.828-.396 1.536 0 .684.132 1.176.396 1.464.252.3.612.444 1.068.444z"/><path id="X" d="M343.107 38.309c.66 0 1.224.144 1.704.432a2.75 2.75 0 0 1 1.092 1.212c.252.516.372 1.128.372 1.824 0 .732-.12 1.356-.372 1.872a2.82 2.82 0 0 1-1.092 1.212c-.48.276-1.044.408-1.704.408-.672 0-1.236-.132-1.716-.408s-.84-.672-1.092-1.2c-.24-.516-.372-1.14-.372-1.872 0-.696.132-1.296.384-1.824.252-.516.612-.924 1.092-1.212.48-.3 1.044-.444 1.704-.444zm0 1.44c-.396 0-.696.168-.888.492s-.288.84-.288 1.548c0 .72.096 1.248.288 1.572s.48.48.888.48c.396 0 .696-.156.888-.492.18-.324.276-.852.276-1.572 0-.696-.096-1.212-.288-1.536a.95.95 0 0 0-.876-.492z"/><path id="Y" d="M364.115 42.365c.06.516.228.888.504 1.128s.636.36 1.068.36c.552 0 1.116-.18 1.68-.54l.78 1.068c-.324.276-.708.492-1.152.648-.444.168-.924.24-1.464.24-.732 0-1.344-.144-1.86-.432a2.84 2.84 0 0 1-1.152-1.224c-.252-.516-.384-1.128-.384-1.812a4.22 4.22 0 0 1 .372-1.764c.252-.54.624-.948 1.104-1.26s1.044-.468 1.716-.468c.612 0 1.152.144 1.62.408.456.264.816.648 1.068 1.152s.372 1.104.372 1.8c0 .264-.012.492-.036.696h-4.236zm1.212-2.748c-.36 0-.648.132-.852.384-.216.264-.336.66-.384 1.188h2.4c-.012-1.044-.396-1.572-1.164-1.572z"/><path id="Z" d="M439.575 44.309c.576 0 1.14-.18 1.692-.564l.504.684a3.62 3.62 0 0 1-1.02.564c-.408.144-.792.216-1.176.216-.636 0-1.176-.144-1.632-.42-.468-.264-.816-.66-1.044-1.164-.24-.504-.36-1.092-.36-1.776 0-.648.12-1.236.36-1.752.24-.504.6-.912 1.056-1.212.456-.288 1.008-.432 1.632-.432.828 0 1.548.252 2.172.744l-.504.696c-.564-.384-1.116-.576-1.68-.576-.384 0-.708.084-.996.276s-.516.48-.684.852c-.156.384-.24.852-.24 1.404 0 .828.18 1.452.528 1.86.336.408.804.6 1.392.6z"/><path id="a" d="M446.509 38.453c.6 0 1.104.132 1.512.408.42.276.732.66.948 1.164.204.504.312 1.104.312 1.8 0 .66-.108 1.26-.324 1.764s-.528.9-.948 1.188-.924.432-1.512.432c-.6 0-1.116-.144-1.524-.42-.42-.276-.732-.66-.948-1.176-.216-.504-.324-1.092-.324-1.776 0-.672.108-1.272.324-1.776s.54-.9.96-1.188c.42-.276.924-.42 1.524-.42zm0 .84c-.564 0-.984.204-1.272.624s-.42 1.056-.42 1.92c0 .852.132 1.476.42 1.896.276.42.696.624 1.26.624s.984-.204 1.26-.624.42-1.056.42-1.908-.144-1.488-.42-1.908-.696-.624-1.248-.624z"/><path id="b" d="M451.417 45.065v-6.48h.876l.084.9c.264-.324.588-.576.972-.756.396-.192.78-.276 1.176-.276.612 0 1.068.156 1.368.492.3.324.444.792.444 1.416v4.704h-1.032v-3.948c0-.48-.024-.852-.072-1.104-.06-.252-.156-.444-.312-.564-.168-.12-.396-.192-.72-.192-.348 0-.684.108-.984.324a2.92 2.92 0 0 0-.768.768v4.716h-1.032z"/><path id="c" d="M305.971 67.889c.336 0 .6-.06.792-.168.192-.096.3-.252.3-.456a.53.53 0 0 0-.12-.348c-.084-.096-.228-.18-.444-.264-.204-.084-.54-.192-.996-.312-.648-.18-1.152-.42-1.5-.732-.348-.3-.516-.732-.516-1.272 0-.396.108-.744.324-1.056.216-.3.54-.54.972-.708.42-.168.936-.264 1.536-.264 1.032 0 1.92.264 2.64.804l-.768 1.14c-.288-.168-.576-.312-.888-.408a3.15 3.15 0 0 0-.924-.144c-.324 0-.552.036-.708.12s-.228.216-.228.384a.39.39 0 0 0 .12.288c.072.072.216.156.432.24s.54.192.984.312c.48.132.864.276 1.152.432.3.156.528.372.696.636.168.252.252.588.252.996 0 .468-.144.852-.42 1.188-.276.324-.648.564-1.116.732s-.984.24-1.56.24a5.03 5.03 0 0 1-1.644-.252c-.492-.18-.912-.42-1.26-.732l.972-1.092a3.33 3.33 0 0 0 .9.504c.324.12.66.192 1.02.192z"/><path id="d" d="M322.277 83.729c.852 0 1.596.144 2.244.408l-.528 1.272c-.444-.168-.912-.24-1.404-.24-.396 0-.672.06-.828.204-.168.144-.252.372-.252.696v.876h2.124l-.216 1.344h-1.908v4.776h-1.932v-4.776h-1.38v-1.344h1.38v-.948c0-.432.096-.828.312-1.164.204-.348.516-.612.924-.816.408-.192.9-.288 1.464-.288z"/><path id="e" d="M81.715 379.672c.216 0 .42.048.588.144s.312.228.408.396.144.348.144.564c0 .204-.048.384-.144.552s-.24.3-.408.396a1.22 1.22 0 0 1-.588.144c-.228 0-.42-.048-.6-.144a1 1 0 0 1-.408-.396c-.108-.168-.156-.348-.156-.552 0-.216.048-.396.156-.564a1 1 0 0 1 .408-.396c.18-.096.372-.144.6-.144zm-2.568 3.42h3.744v5.208h1.656v1.332h-5.46V388.3h1.86v-3.876h-1.8v-1.332z"/><path id="f" d="M477.453 199.849l1.032.132v9.084h-.9l-.096-.852c-.24.336-.516.588-.828.744-.312.168-.648.252-1.02.252-.816 0-1.428-.3-1.848-.912-.408-.6-.612-1.416-.612-2.46 0-.66.096-1.236.3-1.752s.492-.912.876-1.2.84-.432 1.368-.432c.36 0 .696.06.972.192a2.02 2.02 0 0 1 .756.564v-3.36zm-1.464 3.432c-.54 0-.96.216-1.248.648-.288.42-.432 1.056-.432 1.908 0 .84.132 1.464.396 1.896a1.28 1.28 0 0 0 1.152.636c.612 0 1.152-.336 1.596-1.02v-3.24c-.18-.264-.384-.468-.636-.612a1.64 1.64 0 0 0-.828-.216z"/><path id="g" d="M516.089 202.873c-.252.072-.528.12-.816.144s-.648.036-1.08.036c.744.348 1.128.9 1.128 1.632 0 .432-.108.816-.3 1.152-.192.324-.468.588-.84.78-.372.18-.804.276-1.296.276-.216 0-.396-.012-.54-.024-.144-.024-.288-.06-.432-.096a.77.77 0 0 0-.24.276c-.072.108-.096.228-.096.348 0 .168.06.3.192.396s.36.144.672.144h1.176a3.05 3.05 0 0 1 1.164.228c.348.156.624.372.816.636a1.45 1.45 0 0 1 .3.9 1.63 1.63 0 0 1-.804 1.464c-.54.336-1.296.504-2.292.504-.672 0-1.212-.06-1.62-.204-.396-.144-.684-.348-.852-.636-.18-.288-.264-.66-.264-1.104h.936c0 .264.048.48.156.636.096.156.276.276.54.348.264.084.624.12 1.104.12.708 0 1.224-.084 1.56-.264.324-.18.492-.444.492-.804a.75.75 0 0 0-.408-.684c-.264-.156-.624-.24-1.056-.24h-1.152c-.36 0-.66-.06-.912-.168-.24-.108-.42-.252-.54-.444-.12-.18-.18-.384-.18-.612 0-.204.06-.408.18-.6.12-.204.3-.372.528-.528-.372-.192-.648-.444-.816-.732-.18-.288-.264-.648-.264-1.056 0-.432.108-.816.324-1.164a2.29 2.29 0 0 1 .912-.804c.396-.192.84-.288 1.344-.288l1.296-.06c.336-.048.624-.108.852-.18s.504-.168.804-.3l.324.972zm-3.276.324c-.504 0-.888.144-1.14.408-.264.276-.384.636-.384 1.092s.132.828.384 1.092c.264.276.648.42 1.164.42.456 0 .804-.132 1.044-.408.24-.264.36-.636.36-1.116s-.12-.852-.36-1.104-.6-.384-1.068-.384z"/><path id="h" d="M577.989 207.181c0 .42.084.72.264.912s.456.288.828.288a1.85 1.85 0 0 0 .996-.3c.324-.192.576-.432.756-.732v-4.764h1.032v6.48h-.876l-.084-.876a2.46 2.46 0 0 1-.936.744c-.372.18-.756.276-1.14.276-.624 0-1.092-.168-1.404-.492-.312-.336-.468-.804-.468-1.416v-4.716h1.032v4.596z"/><path id="i" d="M588.727 202.441c.168 0 .324.012.456.036a4.1 4.1 0 0 1 .456.108l-.144 2.196h-.852v-1.38h-.06c-.492 0-.924.168-1.272.528-.36.348-.636.888-.864 1.596v2.748h1.32v.792h-3.36v-.792h1.008v-4.896h-1.008v-.792h1.8l.192 1.536c.264-.564.576-.984.936-1.26s.828-.42 1.392-.42z"/><path id="j" d="M608.957 199.549c.216 0 .408.072.54.204.144.144.216.312.216.516 0 .216-.072.396-.216.528-.132.144-.324.216-.54.216s-.396-.072-.54-.216-.204-.312-.204-.528c0-.204.06-.372.204-.516.144-.132.324-.204.54-.204zm-2.148 3.036h2.964v5.664h1.836v.816h-4.86v-.816h1.992v-4.848h-1.932v-.816z"/><path id="k" d="M447.491 56.726v12.68a4.23 4.23 0 0 1-4.227 4.227h-54.546a4.23 4.23 0 0 1-4.227-4.227v-12.68a4.23 4.23 0 0 1 4.227-4.227h54.546a4.23 4.23 0 0 1 4.227 4.227z"/><path id="l" d="M398.679 60.242a1.05 1.05 0 0 1-.061.331l-.049.123.025.208-.147.135c-.061.061-.11.147-.147.282l-.086.355-.233.221c-.037.135-.135.294-.306.453-.221.208-.368.355-.429.453l-.221-.037a.65.65 0 0 1-.404.257l-.331.074-.098-.074h-.061l-.025.061-.098.025-.11.061-.037-.037-.061.037-.306-.257.012-.184-.049-.061.037-.306v-.539l.037-.147.049-.429-.135.27-.098.074-.049.098-.086.037-.123.208-.221.221-.086.098-.172.172-.049.11-.282.184-.306.343-.147.037-.123.098c-.11-.025-.184-.086-.233-.184-.208-.098-.331-.27-.355-.502l.074-.037-.012-.086v-.135l-.074-.086.098-.11.037-.208.086-.294v-.049c0-.025.012-.061.025-.11v-.061a.61.61 0 0 1 .037-.196l.061-.012c.025-.012.037-.025.037-.049s-.012-.049-.037-.074l-.037-.074c.037-.135.074-.196.135-.208.012-.049.025-.086.037-.098v-.159l.159-.159c0-.159.061-.27.172-.331l.012-.159c.025-.086.049-.135.074-.172l.012-.11c.012.012.025.025.037.025.012-.025 0-.049-.012-.074.086-.086.196-.221.319-.38l.098-.037c.086 0 .147-.025.172-.086l.196-.098.539-.012v.061l.245.061c.012 0 .061.012.159.037.012.061.049.086.11.086h.037l.074.074.233.061.012-.049-.061.037.294-.025.049.159.098.098-.074.049.049.208-.11.123-.061.184-.049.074.037.11-.11.221c0 .012.012.037.025.086l-.025.049.012.061-.037.086v.098l-.061.074.012.184.012.037-.037.037-.025.074.025.074-.074.11-.025.074.025.123-.074.086.074.074-.098.184-.025.086.074.012-.061.147v.086h-.037l.025.147h.147l.037.098.074-.012.196-.061.061.074.061-.037c.025.012.049.012.086.012.098 0 .159-.074.184-.221h.098l.037-.098c.061.025.11.037.147.037.061 0 .086-.037.086-.098.086-.012.147-.098.196-.257.037-.147.123-.233.233-.257.025-.135.074-.221.135-.245v-.086c0-.172.049-.282.147-.343a.25.25 0 0 0 .074-.184v-.037l.074-.147-.061-.086v-.147c-.025-.025-.037-.061-.037-.098 0-.061.037-.123.11-.196l.012-.233-.159-.147.11-.257-.159-.123-.049-.404-.11.012-.208-.355-.11-.025-.147-.196-.098.037-.159-.098h-.123l-.086-.123-.11-.012-.159-.159h-.184l-.147-.098c-.061-.012-.159-.025-.27-.025s-.196.012-.245.025l-.294.025c-.025 0-.049-.012-.086-.037l-.086-.025-.049.025-.172.123c-.037.012-.11.012-.196.012-.098 0-.172-.012-.221-.025a3.34 3.34 0 0 0-.576.257l-.086.147-.245.012-.074.061c-.11.012-.208.098-.282.27l-.086-.012c-.061.086-.184.184-.38.294l-.086.208-.147.074c-.086.11-.147.196-.159.257-.037.135-.098.221-.208.245v.074l-.123.049c.012.025.012.061.012.098 0 .11-.061.208-.184.282l-.025.245-.147.331-.208.539-.037.135c.037.061.049.11.049.135 0 .037-.012.074-.037.123l.061.098-.037.135-.025.159.086.319-.025.221.11.208.025.123h.025l.098.221.049.172v.086l.049.049.208.306.184.061.049.086.061.025c.11.184.257.282.441.282l.086.074.159-.012.098.11h.147l.135.098.037-.025.208.061.074-.025c.049-.012.086-.025.123-.025.049 0 .11.025.196.061l.172.086.172.049.282-.049.245-.074a.34.34 0 0 0 .159.037c.049 0 .11-.025.196-.061l.233-.074.184-.012.221-.123c.294-.049.564-.147.796-.306l.123-.098.319-.147.282.061c.012 0 .025 0 .037-.012h.037c.172 0 .27.135.294.392-.061.11-.147.196-.257.233l-.037.061c-.086 0-.184.049-.306.159s-.245.159-.355.159h-.074c-.172.049-.355.123-.551.221-.012-.012-.037-.012-.074-.012-.049 0-.11.025-.184.074l-.233.061-.38.061-.221.025c-.074 0-.159-.025-.257-.061h-.392l-.098-.061h-.11l-.135.012-.294-.012-.208-.074-.11-.061-.147-.012c-.012-.025-.123-.049-.319-.061l-.184-.098c-.025.012-.061.012-.11.012-.11 0-.208-.049-.282-.135-.025-.037-.049-.049-.074-.049-.012 0-.012.012-.012.025l-.208-.012-.074-.196-.245-.123-.098-.159-.221-.086-.037-.135-.196-.221-.135-.221-.061-.282-.086-.098-.025-.11-.098-.049.012-.159-.037-.123.012-.159h.012c.012 0 .012-.012.012-.025 0-.037-.025-.123-.074-.245l-.061-.257.025-.282.037-.098-.012-.159.098-.196.025-.135-.025-.123.098-.172.025-.294.282-.588.196-.539.221-.208.221-.331.282-.306.38-.429c.123-.147.257-.233.392-.27l.355-.172.257-.184c.135-.098.245-.147.319-.147h.11l.147-.135.331-.11c.012.061.025.086.049.086-.012 0 .012-.025.074-.061a.45.45 0 0 1 .245-.061h.074l.074-.086.343.061.159.049.086-.074c.086.037.135.049.172.049a.33.33 0 0 0 .159-.049l.147.049.049.049c.086 0 .159.025.245.074l.208.061c.208.025.392.098.527.221.123.037.245.11.355.233.012.037.049.074.135.098s.135.061.172.123l.135.233.184.074.049.245.172.147.11.319-.049.098.086.172c-.037.037-.061.11-.061.196v.074l.11.123-.025.257v.012c-.012.012-.012.012-.012.025s.012.049.025.098a.42.42 0 0 1 .012.11zm-2.891-.172l-.012-.11-.012-.061-.086-.037-.184-.172h-.123l-.037-.049-.147-.025-.074.025-.037-.037c-.074.012-.147.037-.221.061l.012.025-.147.049-.025.037-.037.012c-.098.061-.172.135-.208.245l-.123.172-.037.074.037.098-.098.098.012.049c-.074.086-.11.184-.11.306l-.049.074-.025.147-.049.061-.025.086-.025.025-.012.11-.037.049-.037.147.049.147-.098.061.025.037-.074.086.049.159-.098.11v.159l.012.049.098.061c.012-.074.049-.123.11-.135v-.074l.159-.037.11-.11.025-.012-.037.037h-.098l.392-.331.074-.025.061-.147a.2.2 0 0 0 .135-.086l.074-.086.049-.012-.025-.135.086-.012.221-.282.074-.061c.012-.037.061-.098.172-.184v-.025l-.025-.037.196-.196.025-.11.049-.025-.012-.037.049-.074.025-.086.061-.049z"/><path id="m" d="M404.192 62.313l-.147.368.098.245-.049.074-.049.196-.098.172-.049.025-.025.233-.221.025c-.11.11-.233.196-.355.257l-.074-.012-.184.061-.11.012-.233.086-.27-.123-.037-.025-.208.012.049.025-.343-.049-.306.074-.123-.11-.257.025-.098-.074c-.012 0-.037 0-.098.012v.074c0 .074-.012.147-.037.221l.037.233-.098.123.025.404-.037.306.049.466-.098.123.049.184-.037.123.074.037v.184c.012.049.025.086.025.11 0 .074-.049.135-.135.184l.049.172-.061.098-.025.49c-.025.576-.147.858-.38.858-.049 0-.196-.037-.429-.098l.037-.368-.074-.539.123-.221.012-.27-.049-.368.098-.159-.11-.282.086-.147-.074-.245.098-.221c-.012-.049-.049-.098-.086-.135-.049-.037-.074-.074-.074-.086 0-.025.025-.049.086-.074-.012-.025-.012-.061-.012-.123a1.57 1.57 0 0 1 .074-.417l-.074-.123.037-.159-.086-.11.11-.135-.049-.355.074-.502-.086-.159.135-.233-.147-.135.086-.233-.086-.061.012-.208.074-.257v-.049l.012-.049v-.135l.012-.049-.061-.196.061-.208-.061-.159.049-.184-.049-.049.037-.245-.037-.135.025-.123-.037-.086-.441.196v-.074l-.086.012-.135.123h-.11l-.147.196-.123-.049-.061.123c-.404-.233-.6-.429-.6-.564 0-.098.037-.184.11-.245l-.012-.184c.233-.135.441-.196.649-.208l.086-.086.392-.159.086-.086.343.025.061-.025.11-.429.294.061.196.319.11-.11.221.159c.11 0 .208.025.306.061l.061.11.086-.037.098.074c.061 0 .098 0 .135.012l-.012.074.27-.086.135.147.233.074.159.196.294.184.012.025.233.074v.074c.061.049.11.11.147.196l.098.061.074.135h.147v.245l.086.086.025.086.123.025c.012.184.074.343.159.478v.086l.123.123-.025.196.098.221.037.257.086.025zm-.919.184l-.012-.061.012-.049-.074-.221.049-.11-.049-.098-.012-.123-.098-.196-.049-.135-.184-.319-.147-.123-.086-.208-.11-.049-.196-.257-.196.025-.147-.196-.123.025-.086-.159-.049-.012h-.172l-.123.061-.098-.098-.123.025-.049-.086-.221-.037.012.147-.025.233.049.135.172.159-.135.294.012.184-.061.368c.025.159.074.282.147.392l-.049.135c.012.012.012.012.012.025 0 .025-.037.061-.098.11l.086.11-.061.147-.025.159.037.172-.012.159h.257c.037-.012.074-.025.135-.025a.3.3 0 0 1 .196.074c.012 0 .025 0 .049-.012h.037c.025 0 .074.012.135.025a.32.32 0 0 1 .135-.037c.061 0 .123.012.184.049h.11l.098.025.245-.074.196.123c.074.025.098.037.086.037l.233-.233.025-.172.061-.025-.037-.098.086-.098.049-.086z"/><path id="n" d="M409.84 59.568l-.098.404-.453.061-.245.159-.159-.074-.172.098-.184.074-.123.086v.049l-.257.123-.172.221h-.086l-.282.257-.172.282-.061.025c-.025.061-.049.159-.086.294l-.172.061-.074.147-.098.123-.025.184-.098.037v.184l-.037.037.086.135-.184.074-.025.159-.123.208.074.159-.159.221.025.172v.049c-.012.025-.012.049-.012.061l.025.11.208.221-.159.282-.147.11-.343.172-.453-.184v-.282l-.049-.11.037-.184-.025-.294c0-.025 0-.061.012-.098v-.086l-.012-.123a.26.26 0 0 1-.086-.196c0-.061.025-.135.086-.221 0-.037-.012-.159-.025-.368l.037-.037-.037-.159.025-.147-.025-.086.037-.282-.074-.123.049-.135-.049-.159c.012-.049.012-.11.012-.196 0-.123-.012-.208-.049-.245l.049-.074-.049-.221-.11-.159.061-.196-.049-.074-.049-.294v-.098a.3.3 0 0 1-.061-.184c0-.159.184-.306.539-.417l.306.061.061.233.123.159-.037.331.086.539.037.196c.012.012.012.061.025.135 0 .049-.025.098-.061.159l.037.245-.025.27-.049.123.037.049.025.123c.049-.061.074-.123.086-.184l.049-.184a.24.24 0 0 1 .11-.11l.049-.184.172-.098.025-.147.135-.147.098-.184c.11-.11.208-.184.306-.221l.135-.208.123-.025.037-.037.049-.074.135-.074.074-.086.074.012.098-.049.049-.074.147-.074.208-.135.294-.098.184-.025v.012.012c.037 0 .086-.012.147-.049.037-.037.098-.049.172-.049.037 0 .086.012.172.025.208.012.331.11.355.294z"/><path id="o" d="M414.288 61.259l-.074.221c0 .208-.012.38-.037.502l-.074.123v.135l-.061.086-.037.172-.135.135-.086.306-.098.037-.049.135-.147.086-.098.208-.147.074-.012.147-.233.086c-.11.147-.233.245-.392.282l-.049.012c-.11.172-.27.257-.453.257-.086.049-.172.074-.282.074l-.123.086-.123.037-.159.123-.159-.012-.172.049-.208-.086-.527-.037-.184-.282-.27-.282.061-.196-.184-.417.086-.159-.061-.294.061-.184-.025-.245c0-.159.037-.27.123-.343.012-.086.061-.221.159-.404h.061l-.025-.086.037-.172v-.184a1.06 1.06 0 0 0 .11-.147l-.037-.172v-.049c.061-.11.086-.233.086-.355l.257-.355.086-.074-.012-.049h.049l.184-.208.012-.282.306-.11c.11-.074.184-.196.221-.368h.159c.086-.049.172-.074.245-.074s.147.012.208.049l.135.012.319-.123.172.159.135.086h.098l.184.098h.098c.11.098.233.233.368.404l.025.061.086.049.257.331.233.576v.123l.11.429zm-.809.294l-.012-.061a.34.34 0 0 1-.098-.184l.037-.061-.11-.233.025-.233-.049-.061c-.11-.086-.159-.147-.172-.196-.074-.037-.11-.11-.11-.245l-.074-.012-.147-.245-.11-.086-.257-.098-.098-.025c-.049 0-.086-.012-.098-.049l-.245.27-.159.343-.257.135-.037.135-.123.061-.049.319-.147.074a1.01 1.01 0 0 0-.049.319l-.196.184.061.037c0 .098-.037.184-.11.257-.025.074-.061.159-.098.245v.098l-.037.049.012.147-.135.331.025.061v.343l-.049.172.012.172.11.159.172.061.061.025.098-.049.319.025.049-.123h.049c.049 0 .074.012.086.037l.11-.037.098.037.159-.11.025-.037.11-.025c.061-.086.196-.184.404-.27l.025-.061.245-.172.135-.196.196-.098.012-.061.061-.135v-.159l.147-.123.049-.086.061-.074c-.037-.098-.049-.172-.049-.208 0-.074.025-.147.074-.233l.049-.049z"/><path id="p" d="M424.802 63.121c0 .098-.074.221-.221.368-.037.135-.098.233-.184.319l-.074.012-.135.233-.221.037-.233.147-.123.221-.135-.025c-.086.037-.159.061-.221.074l-.074.11c-.025-.012-.061-.012-.11-.012-.11 0-.208.074-.306.221l-.172-.147c-.037.012-.086.012-.147.012a.59.59 0 0 1-.27-.049h-.208l-.098-.061c-.306-.049-.502-.172-.588-.355v-.037l-.147-.074-.074-.208-.147-.098v-.184l-.147-.539.025-.441.049-.196v-.257l.061-.196-.012-.086.086-.147-.025.025a.6.6 0 0 1 .061-.233v-.061l-.037-.294c0-.135.061-.257.184-.368.012-.012.012-.037.012-.074s-.012-.098-.037-.208c-.037-.098-.049-.172-.049-.208 0-.098.025-.196.074-.306.061.098.159.147.282.147h.037c.012-.037.049-.074.11-.11a1.46 1.46 0 0 1 .27-.515l.049-.049c0-.037.025-.123.074-.282h.098l.025-.061.098-.025a.86.86 0 0 1 .086-.123c.012-.012.098-.061.257-.147a.6.6 0 0 1 .147-.159c.037-.012.074-.037.123-.049l.049-.074c.221-.074.355-.11.417-.11s.123.012.184.049l.061-.012.086.049a1.93 1.93 0 0 0 .294.184l.208.159v.049c.184.147.282.355.282.625l-.037.123.037.404-.11.074-.123.319-.233.257-.012.196c-.257.184-.502.343-.723.453-.074.11-.184.172-.343.172h-.037l-.233.147h-.196l-.294.123-.221-.11h-.025c-.012.061-.037.159-.049.294l-.098.074-.012.147-.074.208.037.38-.049.037c0 .11 0 .184-.012.233 0 .012 0 .025-.012.037v.037c0 .061.037.123.098.159.025.098.061.159.123.184l.086.074.27.074v.037l.098.025.417.025.245-.037.123-.086.074-.025.123-.184.061-.012.306-.098c.037-.061.086-.11.159-.147l.037-.061c.159-.037.257-.123.282-.257a.6.6 0 0 1 .441-.172h.049c.159.184.233.331.233.441zm-1.213-3.528a.6.6 0 0 0-.037-.147l-.061-.012-.025.012h-.049c-.012.012-.037.012-.049.012s-.025 0-.037-.012h-.037l-.123.086-.11.012-.061.025-.208.27-.135.098-.196.343-.11.074c-.025.135-.086.257-.172.355l-.049.086c.086-.061.196-.086.306-.086l.086-.037.037-.11.172.012.098-.147h.074l.135.049.061-.184h.086v-.135l.159-.037.037-.037.025-.11.159-.233c.012-.037.025-.086.025-.147z"/><path id="q" d="M434.135 59.728c0 .074-.074.147-.221.208a.6.6 0 0 1-.184.11c-.11.049-.196.086-.245.123l-.257-.086c-.135.098-.294.147-.502.147l-.147-.037-.11.098h-.331l-.208.135a.64.64 0 0 0-.257-.049c-.025.012-.086.037-.172.049a.32.32 0 0 1-.135-.037l-.037.466.012.343-.037.429.025.466.037.221v.172l.172.368c-.025.025-.037.049-.037.086 0 .061.086.098.27.135l.025.147.086.037.147.098.098.074.172-.025c.074 0 .147.012.221.037.037-.012.098-.074.208-.172.074-.061.147-.098.208-.098h.037c.012.012.025.012.037.012.074-.159.208-.257.392-.306.172 0 .319.049.429.159v.086c0 .282-.098.453-.294.527-.074.172-.233.282-.466.331l-.147.135h-.159l-.282.074c-.061.012-.159.025-.282.025-.061 0-.135-.012-.208-.049h-.159l-.429-.233-.11-.037-.257-.343-.147-.159-.27-.613-.098-.576.025-.147-.098-.135.061-.172-.061-.27.086-.086.025-.159-.037-.147.025-.221-.049-.196.061-.061v-.196l-.086-.037-.233.049-.221-.159h-.037c-.245 0-.368-.135-.368-.392v-.037l-.147-.233.233-.221.306.049.159-.025.233.061h.257v-.245l-.159-.343.159-.086-.061-.184.012-.38-.098-.159c-.061-.086-.086-.172-.086-.245 0-.086.025-.159.061-.221l.037-.172.098-.098.441-.061c.257 0 .404.123.429.355l-.037.061a.39.39 0 0 1 .074.208c0 .012 0 .025-.012.061l-.025.074-.012.086.049.159-.012.061.025.172-.11.147.061.245-.049.294.098.11-.098.221.38-.049.674.061.539-.086.184.012.061-.012h.478c.257 0 .38.086.38.27z"/><path id="r" d="M441.073 61.81c-.025.086-.061.196-.11.306l.012.074.086.441-.086.466.037.221-.074.159.049.539-.049.086v.355l-.012.282.037.123-.025.772.098.221-.074.098.037.208-.061.061.061.208-.11.123v.086l-.049.11c-.025.135-.11.343-.27.6l-.086.306-.123.074-.037.037-.11.147-.123.184-.208.11c-.098.184-.208.282-.343.306-.037.037-.074.061-.086.074l-.037.037-.172.074-.098.098h-.123l-.061.098-.221-.049-.233.147-.221-.049-.404.061-.086-.012-.061.025-.404-.074h-.184l-.074-.074-.49-.159-.417-.061-.061-.11-.221-.025-.074-.208-.147-.037-.098-.184-.233-.086-.196-.282-.355-.221.025-.233c-.012-.012-.049-.172-.11-.478a1.52 1.52 0 0 1 .086-.478v-.11l.123-.061.074-.208.049.025.123-.196.221-.172.172-.049.331-.27.319.025c.086-.086.184-.123.319-.123.184.086.282.196.282.331 0 .086-.037.159-.11.245l-.172.086-.184.135-.184.049-.11.208h-.184l-.074.123-.159.135.012.184-.098.172.049.123.086.196.27.172.061.184.331.257.184.012.221.172h.221l.135.135.172-.012.098.074.588-.025.38-.123.233.012.257-.147a.48.48 0 0 1 .172-.037c.012-.012.049-.025.086-.049l.061-.098.123.037.049-.049v-.098c.012-.049.061-.086.159-.123.037-.086.098-.147.196-.208.025-.037.049-.135.061-.27l.172-.098.037-.086c.037-.061.061-.135.098-.208l.012-.037.037-.478.049-.037v-.196l-.049-.184.074-.147-.025-.331c0-.074 0-.159.012-.245.012-.098.012-.159.012-.172v-.625l-.086-.159.086-.257-.025-.245v-.625l-.037-.159.049-.086v-.159c0-.061 0-.098.012-.11l-.098-.282v-.429l-.135.221-.147.11-.147.147-.098.037-.037.147-.11.061-.012.037-.172.147-.233.282-.331.343-.123.037-.037.061-.368.27h-.11l-.123.123-.049.123-.27.086-.049.086-.184.025-.257.172-.208.049-.098.074-.135.025-.037.025c-.11.11-.27.172-.502.172-.245 0-.441-.074-.576-.233l-.27-.404-.012-.233-.147-.441v-.368l-.049-.147.074-.123-.061-.27.086-.074.012-.123.074-.147-.025-.257.049-.098v-.086a2.35 2.35 0 0 1 .086-.6l-.037-.331.037-.306-.11-.441.025-.086-.049-.074.147-.392c.037-.135.049-.257.049-.392.098-.049.196-.074.294-.074.074 0 .147.012.221.037l.11.245.208.147-.061.294.11.184-.049.123.159.135-.147.27.074.319-.086.135.012.025-.074.527v.478l-.074.074-.049.429-.11.135c0 .037 0 .098.012.159v.123l.086.221-.086.159.025.196-.025.049.025.147.11.098.086-.025.012.074.086-.123h.355c.049-.049.11-.086.184-.123.184-.135.355-.208.502-.221l.012-.159.87-.478.049-.098c-.025.012-.049.025-.061.037.025-.012.086-.049.172-.11l.049-.159.086-.135.172-.061.098-.147.061.012.074-.049.147-.159.061-.012.012-.037.221-.233.135-.221c.086-.025.172-.086.233-.172l.172-.355-.025-.38.123-.049v-.037l-.074-.221.012-.049c-.061-.086-.086-.159-.086-.208 0-.086.049-.196.147-.331v.037l.049-.123.012-.049v.037c.061-.159.233-.245.49-.257l.392.38.037.319.123.208-.074.196.012.086v.061l-.061.11.037.074v.196l-.049.196.049.27v.196l.037.086-.025.233.086.306z"/><path id="s" d="M404.192 226.313l-.147.368.098.245-.049.074-.049.196-.098.172-.049.025-.025.233-.221.025c-.11.11-.233.196-.355.257l-.074-.012-.184.061-.11.012-.233.086-.27-.123-.037-.025-.208.012.049.025-.343-.049-.306.074-.123-.11-.257.025-.098-.074c-.012 0-.037 0-.098.012v.074c0 .074-.012.147-.037.221l.037.233-.098.123.025.404-.037.306.049.466-.098.123.049.184-.037.123.074.037v.184c.012.049.025.086.025.11 0 .074-.049.135-.135.184l.049.172-.061.098-.025.49c-.025.576-.147.858-.38.858-.049 0-.196-.037-.429-.098l.037-.368-.074-.539.123-.221.012-.27-.049-.368.098-.159-.11-.282.086-.147-.074-.245.098-.221c-.012-.049-.049-.098-.086-.135-.049-.037-.074-.074-.074-.086 0-.025.025-.049.086-.074-.012-.025-.012-.061-.012-.123a1.57 1.57 0 0 1 .074-.417l-.074-.123.037-.159-.086-.11.11-.135-.049-.355.074-.502-.086-.159.135-.233-.147-.135.086-.233-.086-.061.012-.208.074-.257v-.049l.012-.049v-.135l.012-.049-.061-.196.061-.208-.061-.159.049-.184-.049-.049.037-.245-.037-.135.025-.123-.037-.086-.441.196v-.074l-.086.012-.135.123h-.11l-.147.196-.123-.049-.061.123c-.404-.233-.6-.429-.6-.564 0-.098.037-.184.11-.245l-.012-.184c.233-.135.441-.196.649-.208l.086-.086.392-.159.086-.086.343.025.061-.025.11-.429.294.061.196.319.11-.11.221.159c.11 0 .208.025.306.061l.061.11.086-.037.098.074a.42.42 0 0 1 .135.012l-.012.074.27-.086.135.147.233.074.159.196.294.184.012.025.233.074v.074c.061.049.11.11.147.196l.098.061.074.135h.147v.245l.086.086.025.086.123.025c.012.184.074.343.159.478v.086l.123.123-.025.196.098.221.037.257.086.025zm-.919.184l-.012-.061.012-.049-.074-.221.049-.11-.049-.098-.012-.123-.098-.196-.049-.135-.184-.319-.147-.123-.086-.208-.11-.049-.196-.257-.196.025-.147-.196-.123.025-.086-.159-.049-.012h-.172l-.123.061-.098-.098-.123.025-.049-.086-.221-.037.012.147-.025.233.049.135.172.159-.135.294.012.184-.061.368c.025.159.074.282.147.392l-.049.135c.012.012.012.012.012.025 0 .025-.037.061-.098.11l.086.11-.061.147-.025.159.037.172-.012.159h.257c.037-.012.074-.025.135-.025a.3.3 0 0 1 .196.074c.012 0 .025 0 .049-.012h.037c.025 0 .074.012.135.025a.32.32 0 0 1 .135-.037c.061 0 .123.012.184.049h.11l.098.025.245-.074.196.123c.074.025.098.037.086.037l.233-.233.025-.172.061-.025-.037-.098.086-.098.049-.086z"/><path id="t" d="M40.221 386.477c0 .086-.037.159-.098.221-.061.098-.172.196-.319.306l-.123.086-.11.147-.11.049-.172.11-.123.012-.049.049c-.159.049-.294.135-.38.245-.061.037-.11.061-.159.061-.037 0-.061 0-.086-.012-.135.086-.319.123-.539.123-.184 0-.306-.012-.368-.049l-.221-.123-.074-.123v-.037c0-.11-.049-.196-.135-.257l-.049-.245-.098-.11-.061-.453-.012-.27.012-.196.025-.074a.34.34 0 0 1-.037-.159l.061-.649-.11-.221.11-.184.037-.306-.025-.208.074-.184-.074-.245.11-.172.012-.11v-.429l.037-.086-.012-.515.037-.527-.049-.098-.012-.368.037-.331-.037-.123.074-.735.453-.123c.135 0 .233.074.319.208l.025.098.184.184-.098.257.025.049c-.012.159-.037.257-.061.306l.025.257.061.233-.086.257c0 .135-.025.27-.061.38 0 .037-.012.11-.025.196l-.012.074.11.135-.049.135.025.135a.5.5 0 0 1-.049.196l.025.11-.074.392v.257l-.086.257.049.233-.049.539.037.061-.061.282-.025.343-.025.086-.012.343.061.172-.025.184.074.159-.012.061a.5.5 0 0 1 .135.196h.11l.159.049.074-.098.11-.012c.049-.012.086-.025.11-.025h.037c.086-.012.147-.061.196-.123l.074-.037c.061-.086.147-.147.282-.184.037-.037.123-.098.233-.196 0-.11.074-.196.208-.257.123 0 .208-.025.245-.061.159.025.27.074.319.123.037.061.061.184.061.355z"/><path id="u" d="M62.563 196.144l-.147.172-.135.319-.098.074-.086.172-.245.025-.159.159h-.245l-.147.123-.135-.037-.159.037v.098l-.453-.037-.196.012-.147.074-.123-.074c.086-.012.147-.012.196-.012-.061.012-.257.025-.588.049l-.037-.012-.098-.012-.159.086a.84.84 0 0 0-.27-.11l-.355-.025h-.098c-.061-.012-.123-.012-.184-.012s-.135.012-.196.049l-.172-.11-.098-.025c-.025 0-.074-.012-.135-.037-.306-.037-.453-.282-.453-.76v-.11l.233-.172.294-.11.221.11h.172v.037c.086.037.147.098.196.196l.098.012v.159l.159.037.037.025 1.568-.098.38-.061h.037l.025-.061.172-.025.025-.037a1.55 1.55 0 0 0 .478-.147l.012-.061c-.012-.012-.025-.037-.049-.086l-.061.012-.159-.123h-.11l-.061-.086.037-.049-.135.025-.098-.11c-.025.012-.061.012-.123.012-.11 0-.208-.025-.319-.061h-.11l-.086-.037-.172.061-.098-.11h-.037l-.172-.135-.38-.147-.123-.098-.466-.086-.049-.086-.343-.221-.184-.404-.147-.208-.049-.637.049-.074a.87.87 0 0 1 .196-.49c.123-.061.184-.159.184-.282l.184-.037c.037-.061.098-.123.196-.184l.184-.147.772-.294.135-.037.245-.025.404-.11.772.049.025.061c.074.025.159.086.245.196v.061l.196.123-.086.294-.025.11c-.049.208-.159.306-.343.306a.36.36 0 0 1-.331-.208v-.037l-.147-.012-.172.049-.159-.11-.086.061a.5.5 0 0 0-.294.098c-.123 0-.245.049-.355.147h-.159l-.11.086-.172.037-.025.025-.074.037-.11.11-.037.012-.11.172-.135.074c-.037.11-.049.196-.061.27.012.11.025.184.049.221.012.037.074.086.159.123v.061l.159.086c.135.049.233.098.294.159h.245l.159.135.282.037.11.074.478.135.061.135.049-.086c.11 0 .245.049.429.147l.221.037.025.086h.196l.343.196c.037.11.135.208.27.294l.135.086-.037.147a.43.43 0 0 1 .086.257v.037z"/><path id="v" d="M46.808 61.651c0 .098-.061.184-.196.27v.025c-.159.184-.294.294-.404.319l-.184.221-.123.159-.282.074-.123.172-.196.098-.319.282-.196-.184.037-.306.135-.221c.012-.11.074-.208.196-.294v-.049l.074-.049.012-.184.196-.049v-.11l.147-.025c.037-.159.098-.282.208-.355l.037-.025.074-.074.098-.294c.539.135.809.331.809.6zm1.25 6.493c0 .184-.037.306-.098.355l-.061.049-.061.172-.196.061c-.061.135-.147.233-.257.306l-.11.037-.159.172-.147.037c-.061.147-.172.221-.355.233a1.06 1.06 0 0 1-.11.147.77.77 0 0 1-.38.147l-.061.012-.086.11h-.245l-.196.147-.502-.368-.233-.478-.012-.6-.049-.147.147-1.078.049-.049c-.025-.123-.037-.245-.037-.355 0-.074.025-.221.074-.453l.061-.282c-.012-.049-.049-.098-.098-.159l.074-.233.025-.282.025-.037a.8.8 0 0 1-.061-.245c.012-.012.012-.037.025-.074.012-.025.012-.049.012-.061a.68.68 0 0 1-.037-.208c0-.196.11-.282.331-.27l.147.012c.098-.049.159-.074.184-.074.159 0 .27.086.331.27v.049c.037.098.049.196.049.282a.48.48 0 0 1-.025.159l-.086.613.086.172a.58.58 0 0 1-.147.392l.049.147-.159.466c-.012.208-.037.355-.061.466v.306l-.074.172.012.123-.025.282.025.221.184.147.147-.025.025-.037.098.012.159-.049.135-.135.049-.074.086-.012.025-.061.037-.049.074.049.123-.123.074.012.025-.086h.025l.037-.098.11-.049.233-.11a.92.92 0 0 1 .551-.196h.049c.086.061.147.135.184.221z"/></defs></svg>