<svg xmlns="http://www.w3.org/2000/svg" xmlns:xlink="http://www.w3.org/1999/xlink" width="1100" height="271" fill-rule="evenodd" stroke-linecap="round" stroke-linejoin="round" stroke-miterlimit="1.5" xmlns:v="https://vecta.io/nano"><style><![CDATA[.B{fill-rule:nonzero}.C{fill:#868686}.D{fill:none}.E{stroke:#868686}.F{stroke-width:3.076}]]></style><g transform="scale(.572917 .250926)"><g fill="#f25e0d" class="B"><use xlink:href="#B"/><use xlink:href="#C"/><path d="M505.737 471.372c1.955 0 3.77.319 5.376 1.116 1.676.797 3.281 1.913 4.817 3.507l-1.885 10.202c-2.374-2.391-5.097-3.507-8.099-3.507-5.306 0-7.959 4.623-7.959 14.187v17.535h12.777l-.628 10.84h-12.148v68.546h-6.004v-68.546h-9.007v-10.84h9.007v-17.216c0-5.101.628-9.724 1.815-13.55 1.187-3.985 2.793-7.014 4.887-9.086 2.095-2.232 4.399-3.188 7.052-3.188z"/></g><g fill="#1a7ae6" class="B"><use xlink:href="#D"/><use xlink:href="#B" x="214.825"/><use xlink:href="#B" x="257.789"/></g><path d="M706.319 536.571c0 11.159.559 20.883 1.676 29.013 1.117 8.289 2.723 15.782 4.957 22.477 2.164 6.695 5.027 13.709 8.657 21.042l-3.142 7.652c-4.189-7.811-7.54-15.463-10.193-22.955s-4.678-15.782-6.144-25.187c-1.396-9.246-2.095-19.926-2.095-32.041s.698-22.796 2.095-32.041c1.466-9.246 3.491-17.694 6.144-25.187s6.004-15.144 10.193-22.955l3.142 7.652c-3.631 7.333-6.563 14.506-8.727 21.042-2.164 6.695-3.84 14.187-4.887 22.317-1.117 8.289-1.676 18.013-1.676 29.172z" class="B"/><use xlink:href="#E" class="B"/><use xlink:href="#D" x="214.823" class="B"/><use xlink:href="#F" class="B"/><use xlink:href="#G" class="B"/><use xlink:href="#C" x="472.615" class="B"/><path d="M975.628 481.255V582.64h10.333v11.159h-28.486V582.64h12.148v-86.559l-11.311 15.782-2.653-9.883 14.732-20.723h5.236zm37.728 85.603c1.047 0 2.095.638 2.932 1.754.908 1.275 1.606 2.869 2.095 4.782.489 2.072.768 4.145.768 6.536 0 2.072-.14 4.145-.349 6.058-.209 2.072-.559 4.304-1.047 6.855l-5.795 30.288h-5.446l3.421-32.201c-.698-1.275-1.257-2.869-1.676-4.782s-.628-3.985-.628-6.217c0-2.391.209-4.463.698-6.536.559-1.913 1.187-3.507 2.095-4.782.838-1.116 1.815-1.754 2.932-1.754z" class="B"/><use xlink:href="#E" x="343.72" class="B"/><use xlink:href="#D" x="558.544" class="B"/><use xlink:href="#F" x="343.719" class="B"/><use xlink:href="#G" x="343.719" class="B"/><use xlink:href="#C" x="816.338" class="B"/><path d="M1311.871 479.502c3.072 0 5.725 1.275 7.959 3.985s3.91 6.536 5.167 11.159c1.187 4.782 1.745 10.202 1.745 16.1 0 7.014-.698 13.709-2.095 20.245s-3.7 13.709-6.772 21.68c-3.142 7.811-7.54 17.535-13.196 29.491h23.249l-.768 11.637h-29.324V582.64c6.493-14.187 11.241-25.187 14.383-33.157 3.072-7.97 5.236-14.666 6.423-20.245 1.187-5.739 1.745-11.637 1.745-17.854 0-6.376-.768-11.477-2.304-15.144-1.606-3.507-3.7-5.42-6.493-5.42-2.374 0-4.329.956-5.865 2.869-1.536 1.754-3.142 4.782-4.748 9.246l-4.119-7.333c1.955-5.579 4.119-9.565 6.563-12.275 2.374-2.551 5.236-3.826 8.448-3.826zm51.421 57.069c0-11.159-.489-20.883-1.606-29.172-1.117-8.13-2.723-15.622-4.887-22.317-2.234-6.536-5.097-13.709-8.797-21.042l3.142-7.652c4.189 7.811 7.61 15.463 10.263 22.955s4.678 15.941 6.074 25.187c1.466 9.246 2.164 19.926 2.164 32.041s-.698 22.796-2.164 32.041c-1.396 9.405-3.421 17.694-6.074 25.187s-6.074 15.144-10.263 22.955l-3.142-7.652c3.631-7.333 6.563-14.347 8.727-21.042s3.84-14.187 4.957-22.477c1.047-8.13 1.606-17.854 1.606-29.013zm30.877-26.303a27.69 27.69 0 0 1 .768-6.536c.489-2.073 1.187-3.666 2.095-4.782.838-1.116 1.815-1.754 2.932-1.754 1.047 0 2.095.638 2.932 1.754.908 1.116 1.606 2.71 2.095 4.782.559 2.072.768 4.145.768 6.536s-.209 4.623-.768 6.695c-.489 2.072-1.187 3.666-2.095 4.942-.838 1.116-1.885 1.754-2.932 1.754-1.117 0-2.095-.638-2.932-1.754-.908-1.275-1.606-2.869-2.095-4.942a29.08 29.08 0 0 1-.768-6.695zm0 58.982a27.69 27.69 0 0 1 .768-6.536c.489-2.073 1.187-3.666 2.095-4.782.838-1.275 1.815-1.754 2.932-1.754 1.047 0 2.025.478 2.932 1.754.908 1.116 1.606 2.71 2.095 4.782.559 2.072.768 4.145.768 6.536 0 2.551-.209 4.782-.768 6.695-.489 2.072-1.187 3.666-2.095 4.942-.838 1.116-1.885 1.754-2.932 1.754-1.117 0-2.095-.638-2.932-1.754-.908-1.275-1.606-2.869-2.095-4.942-.489-1.913-.768-4.145-.768-6.695zm-799.29 143.787c.977 0 1.885.159 2.653.478.838.319 1.676.797 2.653 1.435l-.838 29.172h-4.957V725.79h-.349c-2.863 0-5.376 2.232-7.401 7.014-2.095 4.623-3.7 11.796-5.027 21.201v36.505h7.68v10.521h-19.549V790.51h5.865v-65.039h-5.865V714.95h10.473l1.117 20.404c1.536-7.492 3.351-13.072 5.446-16.738s4.817-5.579 8.099-5.579z" class="B"/><use xlink:href="#C" x="171.86" y="207.232" class="B"/><use xlink:href="#H" class="B"/><use xlink:href="#I" class="B"/><use xlink:href="#F" x="-85.93" y="207.233" class="B"/><path d="M814.17 796.727c-1.257 1.913-2.863 3.348-4.678 4.463-1.885 1.116-3.7 1.754-5.446 1.754-2.653 0-4.887-1.116-6.842-3.348-1.885-2.232-3.281-5.261-4.329-9.246-.977-3.826-1.466-8.289-1.466-13.39v-51.33h-8.657v-10.68h8.657v-19.607l6.004-1.594v21.201H810.4l-.698 10.68h-12.288v51.17c0 4.782.559 8.608 1.676 10.999s3.002 3.666 5.516 3.666 4.957-1.435 7.191-4.145l2.374 9.405zm56.328-67.908h27.857v11.796h-27.857v-11.796zm0 30.925h27.857V771.7h-27.857v-11.956z" class="B"/><use xlink:href="#E" x="214.825" y="207.233" class="B"/><use xlink:href="#J" class="B"/><use xlink:href="#F" x="214.825" y="207.233" class="B"/><use xlink:href="#I" x="386.684" class="B"/><use xlink:href="#C" x="687.44" y="207.232" class="B"/><path d="M1190.453 688.488v101.385h10.333v11.159H1172.3v-11.159h12.148v-86.559l-11.311 15.782-2.653-9.883 14.732-20.723h5.236zm77.765 23.433h5.655v32.52h14.033v11.477h-14.033v32.52h-5.655v-32.52h-13.894v-11.477h13.894v-32.52z" class="B"/><use xlink:href="#E" x="601.512" y="207.233" class="B"/><use xlink:href="#J" x="386.678" class="B"/><use xlink:href="#F" x="601.51" y="207.233" class="B"/><use xlink:href="#I" x="773.36" class="B"/><use xlink:href="#C" x="1074.124" y="207.232" class="B"/><path d="M1569.674 686.734c3.072 0 5.725 1.275 7.959 3.985s3.91 6.536 5.167 11.159c1.187 4.782 1.745 10.202 1.745 16.1 0 7.014-.698 13.709-2.095 20.245s-3.7 13.709-6.772 21.68c-3.142 7.811-7.54 17.535-13.196 29.491h23.249l-.768 11.637h-29.324v-11.159c6.493-14.187 11.241-25.187 14.383-33.157 3.072-7.97 5.236-14.666 6.423-20.245 1.187-5.739 1.745-11.637 1.745-17.854 0-6.376-.768-11.477-2.304-15.144-1.606-3.507-3.7-5.42-6.493-5.42-2.374 0-4.329.956-5.865 2.869-1.536 1.754-3.142 4.782-4.748 9.246l-4.119-7.333c1.955-5.579 4.119-9.565 6.563-12.275 2.374-2.551 5.236-3.826 8.448-3.826z" class="B"/><g fill="#f25e0d" class="B"><use xlink:href="#K"/><use xlink:href="#C" x="171.86" y="414.465"/><path d="M685.276 1003.96c-1.257 1.913-2.863 3.348-4.678 4.463-1.885 1.116-3.7 1.754-5.446 1.754-2.653 0-4.887-1.116-6.842-3.348-1.885-2.232-3.281-5.261-4.329-9.246-.977-3.826-1.466-8.289-1.466-13.39v-51.33h-8.657v-10.68h8.657v-19.607l6.004-1.594v21.201h12.986l-.698 10.68H668.52v51.17c0 4.782.559 8.608 1.676 10.999s3.002 3.666 5.516 3.666 4.957-1.435 7.191-4.145l2.374 9.405z"/><use xlink:href="#G" x="-171.859" y="414.465"/><use xlink:href="#K" x="171.859"/><path d="M784.218 1008.264v-86.081h5.097l.489 11.956c1.536-4.304 3.421-7.652 5.655-10.043 2.304-2.551 4.538-3.666 6.842-3.666 3.561 0 6.214 2.072 7.959 6.536 1.745 4.304 2.583 10.521 2.583 18.81v62.489h-6.004v-52.446c0-6.376-.14-11.318-.419-14.666-.349-3.348-.908-5.898-1.815-7.492-.977-1.594-2.304-2.551-4.189-2.551-2.025 0-3.98 1.435-5.725 4.304-1.815 2.869-3.281 6.217-4.468 10.202v62.648h-6.004z"/></g><use xlink:href="#K" x="300.753" class="B"/><use xlink:href="#C" x="472.615" y="414.465" class="B"/><use xlink:href="#H" x="300.755" y="207.232" class="B"/><use xlink:href="#G" x="128.895" y="414.465" class="B"/><path d="M1056.671 987.062c0 3.985.559 7.014 1.676 8.768 1.117 1.913 2.653 2.869 4.608 2.869 2.025 0 4.119-.956 6.284-3.029l1.606 10.043c-1.117 1.275-2.444 2.391-3.98 3.188s-3.142 1.275-4.957 1.275c-2.234 0-4.189-.956-5.865-2.869-1.745-1.913-3.002-4.623-3.98-8.289-.908-3.666-1.396-7.811-1.396-12.753V898.43h-11.52v-10.84h17.524v99.472zm58.254 16.898c-1.257 1.913-2.863 3.348-4.678 4.463-1.885 1.116-3.7 1.754-5.446 1.754-2.653 0-4.887-1.116-6.842-3.348-1.885-2.232-3.281-5.261-4.329-9.246-.977-3.826-1.466-8.289-1.466-13.39v-51.33h-8.657v-10.68h8.657v-19.607l6.004-1.594v21.201h12.986l-.698 10.68h-12.288v51.17c0 4.782.559 8.608 1.676 10.999s3.002 3.666 5.516 3.666 4.957-1.435 7.191-4.145l2.374 9.405z" class="B"/><g class="C B"><path d="M551.689 155.856l.244-19.333v-24.202l-.061-19.333V69.76l.061-2.643c.061-.695.183-1.252.305-1.808.183-.974.487-1.669.914-2.086.548-.695 1.157-.695 1.767 0 .731.695 1.462 2.365 2.193 4.729l1.462 5.981 1.218 5.981.792 4.034c4.813 20.724 9.503 38.389 13.95 52.854.061.139.487 1.53 1.279 4.451l-.914-16.969-.67-25.036-.122-18.082-.122-18.916c0-1.252.183-2.365.548-3.338s.853-1.391 1.401-1.391 1.036.417 1.462 1.252.609 1.947.609 3.199l.122 18.916.122 18.082.67 24.758c0 .695.305 6.259.853 16.83l.548 10.014.183 3.477v1.947c0 .278 0 .556-.061.695-.061 1.113-.305 1.947-.731 2.643-.853 1.53-1.767 1.53-2.741.139-.366-.417-.731-1.252-1.097-2.225-.548-1.252-1.157-3.199-1.949-5.703l-1.584-5.703-1.097-3.755c-4.569-14.883-9.32-32.825-14.194-53.967-.183-.695-.487-2.086-.914-4.451l-.244-1.113v10.432l.061 19.473v24.48l-.244 19.473c-.061 1.252-.244 2.225-.67 3.199-.426.835-.914 1.252-1.401 1.113-.548-.139-1.036-.556-1.401-1.53-.426-.974-.609-2.086-.548-3.338z"/><use xlink:href="#L"/><use xlink:href="#M"/><use xlink:href="#N"/><use xlink:href="#O"/><use xlink:href="#P"/><use xlink:href="#Q"/><use xlink:href="#R"/><use xlink:href="#O" x="314.484"/><path d="M1021.332 141.669c-1.157-6.259-2.01-10.432-2.619-12.24-1.34-3.755-3.046-5.564-5.178-5.424s-3.777 2.365-4.995 6.676c-1.645 5.703-1.828 10.571-.426 14.604.609 1.808 1.462 3.06 2.68 3.895 1.097.974 2.437 1.113 3.899.556 1.767-.835 4.021-3.477 6.64-8.067zm-11.148-46.317c3.472-7.372 6.64-9.875 9.442-7.372 2.254 1.947 3.96 7.094 5.178 15.3l.914 8.067a196.88 196.88 0 0 1 .731 9.18l.426 8.067.244 7.789.183 5.285c0 .139.122 2.782.426 7.65l.183 4.312c.061 1.669.122 2.921.061 3.616l-.183 1.252c-.183 1.252-.548 2.086-1.036 2.504-.792.974-1.584.695-2.254-.695-.183-.417-.305-.835-.426-1.391s-.244-1.391-.366-2.365l-.244-1.947c-.061-.695-.122-1.113-.183-1.252l-.426-2.782c-2.619 4.451-5.117 7.094-7.432 8.067-2.193.974-4.203.695-6.031-.695-1.888-1.391-3.351-3.755-4.447-7.094-1.157-3.338-1.767-7.233-1.706-11.823 0-4.59.609-9.041 1.888-13.353 1.279-4.451 2.985-7.65 5.056-9.458s4.203-1.947 6.336-.695c2.132 1.391 3.899 4.173 5.361 8.345.244.695.487 1.669.792 2.643-.426-8.484-.975-15.161-1.706-20.168-.792-5.564-1.767-8.902-2.802-9.875-1.218-1.113-2.985.695-5.3 5.564-.426.974-.914 1.391-1.401 1.252-.548-.139-1.036-.556-1.401-1.53-.426-.974-.609-2.086-.548-3.338s.244-2.225.67-3.06zm1.645-17.664l2.924-7.65c1.279-3.199 2.376-5.842 3.29-7.789.426-.835.914-1.252 1.462-1.252.548.139.975.556 1.34 1.53s.548 1.947.548 3.199c-.061 1.252-.244 2.365-.67 3.199-.792 1.808-1.767 4.173-2.924 7.094l-3.046 7.789c-.366.974-.853 1.391-1.34 1.53-.548.139-1.036-.278-1.462-1.252-.426-.835-.609-1.947-.67-3.199s.122-2.225.548-3.199z"/><use xlink:href="#M" x="422.857"/><use xlink:href="#P" x="379.24"/><use xlink:href="#S"/><use xlink:href="#O" x="449.173"/><use xlink:href="#L" x="555.658"/><use xlink:href="#T"/><path d="M1550.351 147.372c4.264 3.755 8.224 4.451 11.94 2.086 4.995-3.199 8.102-9.458 9.26-18.499 1.097-8.206.548-17.664-1.584-28.096-2.01-9.736-4.873-17.803-8.589-24.202s-7.554-9.319-11.392-8.902l.122 22.393.061 20.307.183 34.912zm-2.741-86.096c2.68-1.113 5.361-.835 8.102.835 2.68 1.669 5.178 4.312 7.432 7.928 2.254 3.755 4.264 8.067 6.092 13.074 1.767 4.868 3.229 10.154 4.386 15.856 2.559 12.657 3.168 24.202 1.767 34.633-.792 5.842-2.132 10.849-4.142 15.161s-4.63 7.511-7.858 9.597c-4.264 2.782-8.711 2.225-13.402-1.53-.366 1.947-1.036 2.921-1.949 2.782-.548-.139-1.036-.556-1.401-1.53s-.548-2.086-.487-3.338l.183-8.206c.061-2.782.061-5.703.061-8.902l-.061-7.928c-.061-2.086-.061-5.007-.122-8.902l-.061-8.067-.061-21.281-.183-24.619c0-.556 0-.974.061-1.391.061-1.113.244-2.086.548-2.782s.67-1.252 1.097-1.391z"/><use xlink:href="#L" x="996.286"/><use xlink:href="#T" x="440.629"/><use xlink:href="#U"/><use xlink:href="#V"/><use xlink:href="#W"/><use xlink:href="#S" x="620.641"/><use xlink:href="#L" x="1155.344"/><use xlink:href="#T" x="599.687"/><path d="M1760.464 828.009a48.68 48.68 0 0 0-.731-8.484c-.548-2.643-1.218-4.868-2.01-6.398-1.584-3.06-3.229-2.643-4.934 1.113-.853 1.808-1.645 4.59-2.376 8.206-.792 3.616-1.34 7.233-1.767 10.71-.853 7.511-1.218 16.413-1.157 26.705.122 11.405.853 19.612 2.132 24.758 1.401 5.424 3.29 8.902 5.544 10.154 2.315 1.252 4.447-.278 6.336-4.451 2.254-4.868 4.142-13.074 5.726-24.897.183-1.252.487-2.086 1.036-2.782.487-.556.975-.695 1.523-.278s.914 1.113 1.218 2.225c.244 1.252.305 2.365.122 3.616-1.767 13.214-4.082 22.811-6.823 28.792-2.985 6.537-6.336 8.763-10.052 6.676-3.351-1.808-6.031-6.676-8.041-14.326-1.706-6.537-2.619-16.273-2.741-29.209-.061-11.127.366-20.863 1.279-29.209.487-4.173 1.157-8.484 2.071-12.796s1.949-7.928 3.168-10.571c1.157-2.504 2.376-4.173 3.655-5.007s2.437-.974 3.594-.278c1.097.695 2.132 1.947 3.107 3.895 1.279 2.504 2.254 5.703 3.046 9.597.731 4.034 1.097 8.067 1.097 12.24 0 1.252-.183 2.365-.548 3.199-.426.974-.914 1.391-1.462 1.391s-1.036-.417-1.401-1.391c-.426-.835-.609-1.947-.609-3.199z"/><use xlink:href="#V" x="110.999" y="742.95"/><use xlink:href="#P" x="1110.27" y="742.95"/><use xlink:href="#X"/><use xlink:href="#U" x="206.823" y="742.95"/><use xlink:href="#L" x="1286.506" y="742.95"/><use xlink:href="#Q" x="-900.655" y="310.53"/><use xlink:href="#R" x="-900.655" y="310.53"/><path d="M86.197 374.448c.183 6.815.244 27.679.244 62.869l.122 14.883.061 15.3c0 1.252-.183 2.365-.609 3.199s-.914 1.252-1.462 1.252-1.036-.417-1.401-1.391-.548-2.086-.548-3.338c.061-3.199 0-8.067-.061-14.744l-.122-15.161-.244-62.312c-.061-1.252.122-2.365.487-3.338s.853-1.391 1.401-1.53 1.036.278 1.462 1.113.609 1.947.67 3.199z"/><use xlink:href="#R" x="-866.481" y="310.53"/><use xlink:href="#N" x="-529.336" y="310.53"/><use xlink:href="#O" x="-529.334" y="310.53"/><use xlink:href="#R" x="-796.546" y="310.53"/><use xlink:href="#O" x="-638.622" y="462.136"/><path d="M65.789 573.762c.244-.139.609-.139 1.097-.278-.183-2.086-.548-4.173-1.157-6.537-.67-2.504-1.34-4.451-2.132-5.981s-1.462-2.225-2.01-2.225c-1.706 0-3.229 2.504-4.569 7.511-.609 2.365-1.157 5.007-1.584 7.928 2.132.139 4.021.139 5.665 0l4.691-.417zM54.58 583.777l-.122 2.365c-.244 7.928.244 14.326 1.523 19.333 1.218 5.146 3.046 7.65 5.422 7.789 1.279.139 2.315-.278 3.107-1.252s1.888-2.782 3.168-5.564c.305-.695.609-1.391.914-2.365s.609-1.808.853-2.504l.853-3.338.792-2.921c.305-1.113.792-1.808 1.34-2.086.548-.139 1.036 0 1.523.695.426.695.731 1.808.853 3.06.061 1.252 0 2.504-.305 3.477-.061.139-.366.974-.792 2.504l-.975 3.616-1.097 3.477c-.426 1.391-.853 2.504-1.279 3.199-1.523 3.338-2.985 5.703-4.264 7.233s-2.924 2.225-4.813 2.086c-2.132-.139-3.899-1.391-5.422-3.755-1.584-2.365-2.68-5.424-3.472-9.18-.792-3.616-1.34-7.65-1.645-11.684s-.426-8.345-.244-12.657c.305-9.18 1.34-17.108 3.107-23.784 2.132-8.067 4.813-12.101 7.98-11.962 1.584 0 3.046 1.252 4.325 3.895s2.376 5.564 3.29 9.041c.792 3.199 1.34 6.259 1.645 9.18.183 1.669.244 3.199.183 4.59-.122 2.086-.548 3.755-1.218 5.007-.426.695-.975 1.113-1.767 1.53-.487.139-1.157.417-1.949.556-1.157.139-2.802.278-4.934.417-1.767.139-3.96.139-6.579 0z"/><use xlink:href="#T" x="-1086.089" y="462.136"/><use xlink:href="#P" x="-590.983" y="462.136"/><use xlink:href="#X" x="-1701.254" y="-280.814"/><path d="M147.785 555.263l2.985 32.825c.792 7.094 1.645 12.796 2.437 17.247.975 5.285 1.584 8.206 1.888 8.902.305-.417.609-1.53.975-3.06.426-1.669.975-4.59 1.645-8.902 2.863-17.664 4.934-33.521 6.336-47.29.122-1.252.426-2.225.914-2.921.426-.695.975-.835 1.523-.556s.914.974 1.218 1.947c.305 1.113.366 2.225.244 3.477-1.462 14.465-3.594 30.6-6.457 48.403-.792 4.868-1.401 8.206-1.888 10.293-.67 2.643-1.34 4.729-2.132 5.981-1.401 2.365-2.802 2.504-4.142.278-1.401-2.365-2.68-6.676-3.838-12.935-.914-4.868-1.767-11.127-2.619-18.499-.792-7.233-1.828-18.36-2.985-33.521a9.37 9.37 0 0 1 .305-3.477c.305-.974.731-1.669 1.279-1.947.548-.139 1.036.139 1.523.835.426.695.731 1.669.792 2.921z"/><use xlink:href="#R" x="-786.557" y="462.136"/><use xlink:href="#Y"/><use xlink:href="#R" x="-735.872" y="462.136"/><path d="M180.561 826.53l-.487-3.477-.487-3.616-.487-2.921c-.183-1.113-.426-2.086-.609-2.782l-.731-1.947c-1.401-3.199-3.107-4.173-5.117-2.921s-3.411 4.034-4.142 8.484c-.548 3.199-.061 7.094 1.34 11.544.244.835.548 1.669.853 2.504.305.974.609 1.669.853 2.365l1.157 2.643.975 2.365 1.34 2.921 1.157 2.643 2.132 4.729c.548 1.252 1.218 3.06 2.01 5.146s1.462 4.034 1.949 5.564l1.462 5.981c.548 2.365.914 4.451 1.097 6.537s.305 4.312.305 6.676c-.061 2.504-.183 5.007-.487 7.511-.609 4.59-1.645 8.067-3.168 10.71s-3.29 4.173-5.178 4.729c-1.767.417-3.533.139-5.3-.835-1.828-1.113-3.411-2.782-4.813-5.146-1.767-2.921-3.107-6.815-4.021-11.684-.975-4.729-1.462-9.597-1.645-14.744-.061-1.252.122-2.365.487-3.338s.853-1.391 1.401-1.53.975.278 1.462 1.113c.426.835.609 1.947.67 3.199.122 4.034.548 7.789 1.218 11.266s1.584 6.259 2.741 8.206c1.036 1.669 2.193 2.921 3.472 3.616 1.279.835 2.559 1.113 3.838.695 2.619-.695 4.264-3.755 4.934-9.041.244-1.53.366-3.199.366-4.729s-.061-3.06-.244-4.59-.426-3.06-.731-4.729l-1.157-4.59c-.426-1.391-.975-2.921-1.584-4.59l-1.888-4.729-3.29-7.511-1.34-2.782-1.097-2.643c-.548-1.252-.914-2.225-1.218-2.921l-.975-2.643c-.426-.974-.731-1.947-1.036-2.921-2.254-7.094-2.863-13.77-1.828-20.029.548-3.477 1.462-6.537 2.741-9.041 1.218-2.504 2.559-4.312 4.082-5.285 1.462-.974 3.046-1.113 4.691-.278s3.046 2.643 4.325 5.424a27.54 27.54 0 0 1 1.218 3.338c.366 1.391.67 2.782.975 4.312s.487 2.921.67 3.895c.183 1.113.366 2.504.548 4.173s.305 2.643.366 2.921c.183 1.252.183 2.365-.061 3.477-.305 1.113-.67 1.808-1.218 2.225s-1.036.417-1.523-.278c-.487-.556-.792-1.391-.975-2.643z"/><use xlink:href="#P" x="-502.285" y="740.08"/><use xlink:href="#W" x="-1475.238" y="740.08"/><use xlink:href="#S" x="-854.598" y="740.08"/><use xlink:href="#P" x="-426.381" y="740.08"/><use xlink:href="#W" x="-1399.334" y="740.08"/><path d="M330.664 853.375l-.67-8.624c-.366-2.365-.731-4.173-1.157-5.285-.426-.974-.853-1.808-1.218-2.225s-.731-.695-1.036-.556c-.914.139-1.949 1.53-3.107 4.173-1.157 2.782-2.01 6.815-2.68 12.24-.731 5.703-1.036 10.988-.792 15.856.183 4.868.609 9.18 1.34 12.657s1.645 6.259 2.741 8.067c1.645 2.643 3.411 2.921 5.3 1.113 2.498-2.365 4.873-8.206 7.188-17.247.305-1.113.67-1.808 1.218-2.225.548-.278 1.036-.139 1.523.417.487.695.792 1.53.975 2.782a10.9 10.9 0 0 1-.183 3.477c-2.741 10.849-5.787 17.943-9.138 21.281-3.29 3.199-6.336 2.504-9.199-2.225-2.559-4.312-4.325-10.571-5.239-19.055s-.792-17.664.366-27.401c.853-6.676 2.132-12.101 3.838-16.413s3.594-6.537 5.665-6.676c2.315-.278 4.203 1.808 5.665 6.398 1.401 4.59 2.315 10.849 2.619 18.638a9.54 9.54 0 0 1-.426 3.338c-.366.974-.853 1.53-1.401 1.669s-1.036-.278-1.462-1.113c-.426-.695-.67-1.808-.731-3.06zm16.143-18.36c.305 8.345.366 18.777.244 31.295l-.305 30.6c0 1.252-.183 2.365-.548 3.338-.426.835-.914 1.252-1.462 1.252s-1.036-.417-1.401-1.252c-.426-.974-.609-2.086-.609-3.338l.305-30.878c.122-11.266.061-21.42-.244-30.182-.061-1.252.122-2.504.487-3.477s.853-1.391 1.401-1.53 1.036.278 1.462 1.113c.366.835.609 1.808.67 3.06zm-.853-26.566c.426.835.609 1.947.609 3.199s-.183 2.365-.548 3.199c-.426.974-.914 1.391-1.462 1.391s-1.036-.417-1.401-1.391c-.426-.835-.609-1.947-.609-3.199s.183-2.365.609-3.338c.366-.835.853-1.252 1.401-1.252s1.036.417 1.401 1.391z"/><use xlink:href="#R" x="-605.748" y="740.08"/><use xlink:href="#Y" x="-36.123" y="429.55"/><use xlink:href="#P" x="-504.783" y="891.686"/><use xlink:href="#O" x="-442.525" y="891.686"/><use xlink:href="#P" x="-442.525" y="891.686"/><use xlink:href="#S" x="-821.763" y="891.687"/><use xlink:href="#L" x="-287.061" y="891.687"/><use xlink:href="#O" x="-347.979" y="891.686"/><use xlink:href="#W" x="-1347.25" y="891.687"/><use xlink:href="#L" x="-214.569" y="891.687"/></g><path d="M609.986 316H1244v100H609.986z" stroke-width="1.02" stroke-dasharray="3.07,3.07,3.07,0,0,0" transform="matrix(1.65951 0 0 3.98524 -460.59 -604.426)" class="D E"/><path d="M624.705 241.914l7.855-35.867 7.855 35.867h-15.709z" class="C"/><path d="M632.56 422.099V234.74" class="D E F"/><path d="M959.819 216.153l16.995-10.107-6.655 37.107-10.34-27z" class="C"/><path d="M868.597 422.099l98.758-197.166" class="D E F"/><path d="M1117.36 243.612l-6.146-37.565 16.849 11.314-10.703 26.251z" class="C"/><path d="M1212.852 422.099l-92.439-196.5" class="D E F"/><path d="M282.033 564.392l-15.709-17.934 15.709-17.934v35.867z" class="C"/><path d="M367.962 546.458h-89.071" class="D E F"/><path d="M562.84 985.161c4.336 0 7.855-8.038 7.855-17.934s-3.519-17.934-7.855-17.934-7.855 8.034-7.855 17.934 3.521 17.934 7.855 17.934zm-135.838 0l-15.709-17.934 15.709-17.934v35.867z" class="C"/><path d="M558.127 967.228H423.86" class="D E F"/><path d="M1708.158 846.092l15.709 17.934-15.709 17.934v-35.867z" class="C"/><path d="M1603.831 864.026H1711.3" class="D E F"/><path d="M1561.521 222.247l16.662-12.681-5.554 38.043-11.108-25.362z" class="C"/><path d="M1430.632 546.458l138.666-316.599" class="D E F"/></g><defs ><path id="B" d="M420.086 471.372l6.004 1.754v120.673h-5.236l-.559-11.318c-1.396 4.463-3.002 7.811-4.817 9.883-1.815 2.232-3.77 3.348-5.935 3.348-4.748 0-8.308-3.985-10.752-12.115-2.374-7.97-3.561-18.81-3.561-32.679 0-8.768.559-16.419 1.745-23.274s2.863-12.115 5.097-15.941 4.887-5.739 7.959-5.739c2.095 0 4.049.797 5.655 2.551 1.676 1.594 3.142 4.145 4.399 7.492v-44.635zm-8.518 45.591c-3.142 0-5.585 2.869-7.261 8.608-1.676 5.579-2.513 14.028-2.513 25.346 0 11.159.768 19.448 2.304 25.187 1.536 5.579 3.77 8.449 6.703 8.449 3.561 0 6.703-4.463 9.286-13.55v-43.041c-1.047-3.507-2.234-6.217-3.7-8.13s-3.072-2.869-4.817-2.869z"/><path id="C" d="M445.247 555.7c.07 6.376.628 11.637 1.606 15.941 1.047 4.304 2.374 7.492 3.98 9.565s3.421 3.029 5.446 3.029c1.815 0 3.561-.638 5.097-1.913 1.606-1.275 3.212-3.188 4.957-5.898l2.793 9.086c-1.745 3.188-3.77 5.739-6.074 7.492-2.234 1.754-4.538 2.71-6.842 2.71-3.631 0-6.703-1.913-9.356-5.579-2.583-3.666-4.538-8.927-5.935-15.782-1.327-6.695-1.955-14.506-1.955-23.433 0-8.768.628-16.419 2.025-23.274 1.327-6.855 3.281-12.115 5.725-15.941 2.513-3.826 5.376-5.739 8.657-5.739 3.212 0 5.935 1.594 8.239 5.101 2.304 3.348 4.049 8.13 5.236 14.506 1.257 6.376 1.885 13.869 1.885 22.477 0 2.551-.07 5.101-.14 7.652h-25.344zm10.193-38.577c-2.863 0-5.236 2.391-7.052 7.014-1.885 4.782-2.863 11.637-3.142 20.883h19.689c-.07-9.086-.977-15.941-2.653-20.723s-3.91-7.173-6.842-7.173z"/><path id="D" d="M596.415 574.988c0 3.348.209 5.898.698 7.492s1.257 2.71 2.374 3.507l-1.466 9.724c-3.631-1.116-5.935-5.101-6.912-12.115-1.327 3.985-3.002 7.014-5.097 9.086-2.025 1.913-4.259 3.029-6.703 3.029-2.513 0-4.678-1.116-6.493-3.348-1.885-2.072-3.281-5.261-4.259-9.246s-1.466-8.608-1.466-14.028c0-8.927 1.536-15.622 4.538-20.404 3.072-4.782 7.471-7.173 13.196-7.173h5.516v-7.173c0-5.898-.768-10.362-2.304-13.072s-3.77-3.985-6.703-3.985c-2.793 0-6.074 1.435-9.775 4.463l-1.606-10.362c4.189-3.666 8.308-5.42 12.358-5.42 4.608 0 8.099 2.391 10.473 7.333 2.444 4.942 3.631 11.796 3.631 20.404v41.287zm-15.569 10.202c1.815 0 3.631-1.116 5.306-3.188 1.676-2.232 3.072-5.101 4.189-8.927v-22.158h-5.446c-3.98 0-6.842 1.594-8.657 4.623s-2.653 7.652-2.653 13.39c0 10.84 2.374 16.26 7.261 16.26z"/><path id="E" d="M766.458 507.717h6.214l-13.684 86.081h-6.982l-13.615-86.081h6.353l10.961 73.647 10.752-73.647z"/><path id="F" d="M841.846 572.597c0 3.985.559 7.014 1.676 8.768 1.117 1.913 2.653 2.869 4.608 2.869 2.025 0 4.119-.956 6.284-3.029l1.606 10.043c-1.117 1.275-2.444 2.391-3.98 3.188s-3.142 1.275-4.957 1.275c-2.234 0-4.189-.956-5.865-2.869-1.745-1.913-3.002-4.623-3.98-8.289-.908-3.666-1.396-7.811-1.396-12.753v-87.835h-11.52v-10.84h17.524v99.472z"/><path id="G" d="M876.153 568.771c0 5.579.489 9.565 1.536 12.115s2.653 3.826 4.817 3.826c1.955 0 3.91-1.275 5.795-3.985 1.885-2.551 3.351-5.739 4.399-9.724v-63.286h6.004v86.081h-5.097l-.489-11.637c-1.466 4.304-3.281 7.652-5.446 9.883-2.164 2.391-4.399 3.666-6.633 3.666-3.631 0-6.353-2.232-8.169-6.536-1.815-4.463-2.723-10.68-2.723-18.81v-62.648h6.004v61.054z"/><path id="H" d="M668.17 791.626c2.863 0 5.167-1.275 6.842-3.826 1.676-2.391 2.513-5.739 2.513-9.883 0-2.869-.209-5.261-.628-7.014a13.63 13.63 0 0 0-2.653-5.101c-1.327-1.435-3.212-2.869-5.865-4.463-2.863-1.594-5.236-3.348-7.052-5.261s-3.281-4.463-4.259-7.652c-1.047-3.029-1.536-7.014-1.536-11.796s.628-8.927 1.815-12.434 2.863-6.217 5.027-8.13 4.678-2.869 7.471-2.869c2.863 0 5.446.797 7.68 2.551 2.304 1.754 4.329 3.985 6.004 6.855l-2.653 9.405c-1.536-2.551-3.212-4.463-4.957-5.739s-3.7-2.072-6.004-2.072c-2.793 0-4.887 1.116-6.214 3.029-1.257 2.072-1.955 4.782-1.955 8.289 0 2.551.349 4.623.908 6.376.628 1.594 1.606 3.029 3.002 4.304s3.421 2.869 6.144 4.463c2.723 1.754 4.957 3.507 6.703 5.579s3.072 4.782 4.049 8.289c.977 3.348 1.466 7.492 1.466 12.753 0 5.739-.698 10.68-2.164 14.506-1.536 3.826-3.421 6.695-5.865 8.449-2.374 1.754-5.027 2.71-7.82 2.71-5.935 0-10.892-3.826-14.801-11.637l3.491-9.086c1.466 3.029 3.212 5.261 5.167 6.855s3.98 2.551 6.144 2.551z"/><path id="I" d="M704.294 776.004c0 5.579.489 9.565 1.536 12.115s2.653 3.826 4.817 3.826c1.955 0 3.91-1.275 5.795-3.985 1.885-2.551 3.351-5.739 4.399-9.724V714.95h6.004v86.081h-5.097l-.489-11.637c-1.466 4.304-3.281 7.652-5.446 9.883-2.164 2.391-4.399 3.666-6.633 3.666-3.631 0-6.353-2.232-8.169-6.536-1.815-4.463-2.723-10.68-2.723-18.81V714.95h6.004v61.054z"/><path id="J" d="M1026.063 782.221c0 3.348.209 5.898.698 7.492s1.257 2.71 2.374 3.507l-1.466 9.724c-3.631-1.116-5.935-5.101-6.912-12.115-1.327 3.985-3.002 7.014-5.097 9.086-2.025 1.913-4.259 3.029-6.703 3.029-2.513 0-4.678-1.116-6.493-3.348-1.885-2.072-3.281-5.261-4.259-9.246s-1.466-8.608-1.466-14.028c0-8.927 1.536-15.622 4.538-20.404 3.072-4.782 7.471-7.173 13.196-7.173h5.516v-7.173c0-5.898-.768-10.362-2.304-13.072s-3.77-3.985-6.703-3.985c-2.793 0-6.074 1.435-9.775 4.463l-1.606-10.362c4.189-3.666 8.308-5.42 12.358-5.42 4.608 0 8.099 2.391 10.473 7.333 2.444 4.942 3.631 11.796 3.631 20.404v41.287zm-15.569 10.202c1.815 0 3.631-1.116 5.306-3.188 1.676-2.232 3.072-5.101 4.189-8.927V758.15h-5.446c-3.98 0-6.842 1.594-8.657 4.623s-2.653 7.652-2.653 13.39c0 10.84 2.374 16.26 7.261 16.26z"/><path id="K" d="M594.879 920.27c.977 0 1.885.159 2.653.478.838.319 1.676.797 2.653 1.435l-.838 29.172h-4.957v-18.332h-.349c-2.863 0-5.376 2.232-7.401 7.014-2.095 4.623-3.7 11.796-5.027 21.201v36.505h7.68v10.521h-19.549v-10.521h5.865v-65.039h-5.865v-10.521h10.473l1.117 20.404c1.536-7.492 3.351-13.072 5.446-16.738s4.817-5.579 8.099-5.579z"/><path id="L" d="M595.368 98.551l-.914-.556c-.244-.139-.426-.278-.548-.278-1.584.139-3.046 2.365-4.386 6.537-1.401 4.312-2.376 9.597-2.924 16.134-.487 6.537-.366 12.518.305 17.803.67 5.424 1.888 9.041 3.594 11.127 2.132 2.365 4.082 1.947 5.848-1.391 1.888-3.477 3.229-8.763 4.021-15.856.731-6.815.67-13.353-.122-19.612-.853-6.259-2.498-10.849-4.873-13.909zm1.462-8.624c.305.139.548.556.731.974 1.706 2.225 3.107 5.007 4.264 8.484 1.097 3.616 1.888 7.233 2.315 10.988.426 3.895.731 7.928.792 12.101s-.183 8.067-.67 11.823c-.975 9.18-2.802 16.134-5.422 20.863-3.107 5.703-6.518 6.537-10.173 2.225-1.401-1.53-2.619-3.895-3.594-6.954-1.036-2.921-1.706-6.12-2.071-9.736-.366-3.477-.609-7.094-.67-10.988-.122-3.895 0-7.511.366-10.988.609-7.928 1.767-14.604 3.533-20.029 2.132-6.398 4.569-9.736 7.432-10.154h.061c.548-.556 1.036-.556 1.584-.139s1.036.974 1.523 1.53z"/><path id="M" d="M610.475 94.239l.366 9.041.426 9.597.061 3.06 1.462-7.233c1.279-5.703 2.619-9.597 4.021-11.823 1.036-1.669 2.132-2.365 3.229-2.225 1.157.278 2.254 1.53 3.229 3.895.731 1.808 1.34 4.729 1.888 8.902.305 2.365.548 5.146.853 8.345.548-3.199 1.157-6.12 1.828-8.763 1.157-5.007 2.315-8.902 3.472-11.684 1.767-4.034 3.533-5.564 5.361-4.868 1.157.417 2.193 2.086 2.985 4.868.609 1.947 1.097 4.59 1.523 7.789.67 5.146 1.097 11.823 1.34 20.168.183 4.312.244 9.041.305 14.326l.061 12.379c-.061 2.921-.061 5.564 0 7.789 0 1.252-.183 2.365-.548 3.338-.426.974-.853 1.391-1.401 1.391s-1.036-.417-1.462-1.252c-.426-.974-.609-1.947-.609-3.199-.061-2.225-.061-4.868 0-7.789l-.061-12.101-.244-14.187c-.305-7.928-.67-14.048-1.218-18.36-.305-2.365-.67-4.034-.975-5.146-.061-.417-.183-.556-.244-.695l-.183-.417c-.426-.139-.975.695-1.767 2.504-.914 2.086-1.828 5.146-2.802 9.458-.853 3.477-1.584 7.233-2.193 11.127-.67 3.895-1.036 6.815-1.218 8.624-.183 2.643-.305 7.928-.305 15.578 0 .278 0 .835.061 1.808l.122 2.643c.061 1.252.061 2.086 0 2.782-.061.556-.122 1.113-.244 1.669-.426 2.086-1.157 2.921-2.132 2.504-.548-.139-.975-.835-1.34-1.808-.061-.278-.183-.556-.305-.974l-.183-1.391v-.974c-.061-.417-.061-.974-.061-1.669-.061-.974-.061-2.504-.122-4.451v-2.921a185.02 185.02 0 0 1-.122-3.895c-.244-6.815-.609-13.214-1.036-19.473-.305-4.173-.67-7.65-.975-10.432-.366-2.782-.67-4.451-.975-5.146s-.487-.974-.67-1.113c-.122 0-.305.139-.548.556-.853 1.252-1.767 4.173-2.741 8.624a158.45 158.45 0 0 0-2.315 12.379l-1.34 10.014c-.305 3.477-.487 7.65-.67 12.657-.061.417 0 1.808.061 4.034a35.71 35.71 0 0 1 .061 1.947v.695a10.72 10.72 0 0 1-.122 1.391c-.244 1.391-.731 2.365-1.401 2.782-.853.556-1.523 0-2.071-1.669l-.366-1.391v-.556c-.061-.139-.061-.278-.061-.417-.426-5.285-.67-13.074-.731-23.367l-.183-18.082-.366-9.458-.426-8.902c-.061-1.252.122-2.504.487-3.477s.853-1.391 1.401-1.53 1.036.278 1.462 1.113.609 1.808.67 3.06z"/><path id="N" d="M649.585 113.851l-.061 33.938c2.619 2.921 5.056 2.782 7.31-.417 1.828-2.643 3.168-6.259 4.021-10.988.853-4.59 1.218-9.458 1.036-14.326s-.731-9.458-1.645-13.631c-.67-2.921-1.34-5.007-2.132-6.537-.792-1.391-1.584-2.086-2.315-2.086-2.071.139-4.142 4.868-6.214 14.048zm-.122 43.674c-.122.974-.366 1.808-.731 2.504s-.792.974-1.218.974c-.548 0-1.036-.417-1.401-1.252-.426-.974-.609-2.086-.609-3.338l.366-89.574c0-1.252.183-2.225.609-3.199.426-.835.914-1.252 1.462-1.252s.975.417 1.401 1.391c.366.974.548 2.086.548 3.338l-.183 30.322c1.888-4.312 3.838-6.676 5.97-6.815 1.767-.139 3.351 1.113 4.752 3.616 1.401 2.643 2.498 5.981 3.411 10.014.792 3.755 1.401 7.789 1.767 12.379a119.83 119.83 0 0 1 .122 14.048c-.244 4.729-.914 9.319-2.071 13.631-1.157 4.451-2.741 8.067-4.752 10.849-2.924 4.034-6.092 4.868-9.442 2.365z"/><path id="O" d="M668.165 138.192v-14.326-5.285l-.122-5.981-.122-5.146-.305-5.842-.366-5.285a9.37 9.37 0 0 1 .305-3.477c.305-.974.731-1.669 1.279-1.947.487-.139 1.036 0 1.523.695.426.695.731 1.808.792 3.06.548 5.703.853 12.379.975 20.029.67-2.086 1.34-4.173 2.132-6.259 3.351-8.763 6.884-15.022 10.6-18.499.548-.556 1.036-.556 1.584-.139.487.556.853 1.391 1.097 2.504.183 1.252.183 2.365 0 3.477-.244 1.252-.609 2.086-1.097 2.504-3.168 3.06-6.214 8.484-9.138 16.134-3.107 8.206-4.752 15.717-5.056 22.811-.061.417-.061.835-.061 1.252v11.962l-.061 4.729v2.086.278c-.061.139-.061.417-.061.556l-.122.835c-.183.974-.487 1.808-.975 2.225-.426.556-.792.695-1.157.417-.426-.417-.67-.695-.853-.974s-.366-.556-.487-.974-.244-.835-.305-1.391c0-.139 0-.417-.061-.695v-.974l-.061-9.875.122-8.484z"/><path id="P" d="M704.411 111.626c.244-.139.609-.139 1.097-.278-.183-2.086-.548-4.173-1.157-6.537-.67-2.504-1.34-4.451-2.132-5.981s-1.462-2.225-2.01-2.225c-1.706 0-3.229 2.504-4.569 7.511-.609 2.365-1.157 5.007-1.584 7.928 2.132.139 4.021.139 5.665 0l4.691-.417zm-11.209 10.014l-.122 2.365c-.244 7.928.244 14.326 1.523 19.333 1.218 5.146 3.046 7.65 5.422 7.789 1.279.139 2.315-.278 3.107-1.252s1.888-2.782 3.168-5.564c.305-.695.609-1.391.914-2.365s.609-1.808.853-2.504l.853-3.338.792-2.921c.305-1.113.792-1.808 1.34-2.086.548-.139 1.036 0 1.523.695.426.695.731 1.808.853 3.06.061 1.252 0 2.504-.305 3.477-.061.139-.366.974-.792 2.504l-.975 3.616-1.097 3.477c-.426 1.391-.853 2.504-1.279 3.199-1.523 3.338-2.985 5.703-4.264 7.233s-2.924 2.225-4.813 2.086c-2.132-.139-3.899-1.391-5.422-3.755-1.584-2.365-2.68-5.424-3.472-9.18-.792-3.616-1.34-7.65-1.645-11.684s-.426-8.345-.244-12.657c.305-9.18 1.34-17.108 3.107-23.784 2.132-8.067 4.813-12.101 7.98-11.962 1.584 0 3.046 1.252 4.325 3.895s2.376 5.564 3.29 9.041c.792 3.199 1.34 6.259 1.645 9.18.183 1.669.244 3.199.183 4.59-.122 2.086-.548 3.755-1.218 5.007-.426.695-.975 1.113-1.767 1.53-.487.139-1.157.417-1.949.556-1.157.139-2.802.278-4.934.417-1.767.139-3.96.139-6.579 0z"/><path id="Q" d="M934.645 120.527v6.259l.122 14.883.061 15.3c0 1.252-.183 2.365-.609 3.199s-.914 1.252-1.462 1.252-1.036-.417-1.401-1.391-.548-2.086-.548-3.338c.061-3.199 0-8.067-.061-14.744l-.122-15.161-.244-62.312c-.061-1.252.122-2.365.487-3.338s.853-1.391 1.401-1.53 1.036.278 1.462 1.113.609 1.947.67 3.199.061 2.365.061 3.616c.914-2.086 1.888-3.895 2.985-5.564 1.34-1.947 2.863-3.338 4.63-4.173 1.706-.695 3.411-.835 5.056-.278 1.828.695 3.472 2.225 4.873 4.59 1.401 2.504 2.437 5.981 2.985 10.293.548 4.868.609 9.597.183 13.909-.426 4.451-1.218 8.484-2.437 12.24-1.218 3.895-2.559 7.094-4.082 9.736-1.523 2.782-3.107 5.007-4.752 6.537-1.949 1.947-5.056 3.895-9.26 5.703zm.061-9.319c3.411-1.53 5.97-3.199 7.615-4.729 2.985-2.921 5.422-7.511 7.249-13.492 1.767-5.981 2.315-12.101 1.523-18.082-.548-4.729-2.071-7.511-4.569-8.345s-4.813.278-6.884 3.199c-1.888 2.782-3.472 6.954-4.691 12.518-.061.278-.183.556-.244.695v28.235z"/><path id="R" d="M973.877 141.669c-1.157-6.259-2.01-10.432-2.619-12.24-1.34-3.755-3.046-5.564-5.178-5.424s-3.777 2.365-4.995 6.676c-1.645 5.703-1.828 10.571-.426 14.604.609 1.808 1.462 3.06 2.68 3.895 1.097.974 2.437 1.113 3.899.556 1.767-.835 4.021-3.477 6.64-8.067zm-11.148-46.317c3.472-7.372 6.64-9.875 9.442-7.372 2.254 1.947 3.96 7.094 5.178 15.3l.914 8.067a196.88 196.88 0 0 1 .731 9.18l.426 8.067.244 7.789.183 5.285c0 .139.122 2.782.426 7.65l.183 4.312c.061 1.669.122 2.921.061 3.616l-.183 1.252c-.183 1.252-.548 2.086-1.036 2.504-.792.974-1.584.695-2.254-.695-.183-.417-.305-.835-.426-1.391s-.244-1.391-.366-2.365l-.244-1.947c-.061-.695-.122-1.113-.183-1.252l-.426-2.782c-2.619 4.451-5.117 7.094-7.432 8.067-2.193.974-4.203.695-6.031-.695-1.888-1.391-3.351-3.755-4.447-7.094-1.157-3.338-1.767-7.233-1.706-11.823 0-4.59.609-9.041 1.888-13.353 1.279-4.451 2.985-7.65 5.056-9.458s4.203-1.947 6.336-.695c2.071 1.391 3.899 4.173 5.361 8.345.244.695.487 1.669.792 2.643-.426-8.484-.975-15.161-1.706-20.168-.792-5.564-1.767-8.902-2.802-9.875-1.218-1.113-2.985.695-5.3 5.564-.426.974-.914 1.391-1.401 1.252-.548-.139-1.036-.556-1.401-1.53-.426-.974-.609-2.086-.548-3.338s.244-2.225.67-3.06z"/><path id="S" d="M1093.458 79.913l5.726.278.67-17.108c.061-1.252.305-2.365.731-3.199.426-.695.975-1.113 1.523-.974s.975.695 1.34 1.669a9.54 9.54 0 0 1 .426 3.338l-.67 15.995 4.752-.695c.548-.139 1.036.278 1.462 1.113s.609 1.808.67 3.06-.122 2.365-.487 3.338-.853 1.391-1.401 1.53l-5.3.695c-.792 24.619-.67 42.84.305 54.94.305 3.06.67 5.285 1.157 6.537.487 1.391.914 2.086 1.34 2.225.487.139 1.097-.417 1.767-1.669.67-1.113 1.401-3.06 2.071-5.981.792-1.113 1.523-6.12 2.315-15.022.183-1.252.487-2.086.975-2.782.487-.556.975-.695 1.523-.278s.914 1.252 1.218 2.365c.244 1.113.244 2.225.061 3.477-.67 7.094-1.523 12.518-2.559 16.413-.914 4.034-2.071 7.233-3.411 9.597-1.401 2.225-2.802 3.199-4.325 2.921-1.584-.417-2.863-1.947-3.899-5.007-1.097-2.921-1.767-6.676-2.132-11.266-1.097-12.518-1.218-31.295-.426-56.192-2.01 0-3.899-.139-5.665-.278-.548-.139-.975-.556-1.401-1.53-.366-.835-.548-1.947-.487-3.199s.244-2.225.67-3.199c.426-.835.914-1.252 1.462-1.113z"/><path id="T" d="M1178.012 104.115c-.183-.417-.487-.974-.914-1.808l-.792-1.669c-.122-.278-.305-.695-.609-1.113s-.548-.835-.731-.974-.426-.417-.731-.556c-1.523-.695-2.68-.139-3.594 1.947-.914 1.947-1.097 4.451-.609 7.511.244 1.53.731 3.199 1.462 4.868.731 1.808 1.888 4.173 3.472 7.233l.731 1.53 2.741 5.564c.67 1.53 1.401 3.755 2.193 6.398a38.86 38.86 0 0 1 1.401 8.067c.244 4.312-.061 8.067-.853 11.266-.853 3.199-2.01 5.703-3.533 7.233-1.34 1.53-2.802 2.225-4.447 2.086s-3.168-.974-4.569-2.782c-1.523-1.947-2.741-4.312-3.655-7.094-.914-2.643-1.706-5.981-2.498-10.014-.244-1.252-.244-2.365-.061-3.616.183-1.113.548-1.947 1.097-2.504.487-.556.975-.556 1.523-.139.487.417.853 1.252 1.097 2.365.67 3.338 1.279 5.981 1.949 7.928.67 2.086 1.462 3.755 2.498 5.007.792.974 1.706 1.53 2.68 1.669s1.888-.278 2.68-1.252c1.645-1.808 2.376-4.729 2.071-8.763-.122-2.086-.609-4.312-1.401-6.537s-2.01-4.868-3.533-7.928c-.122-.278-.487-.974-1.036-2.086l-1.218-2.225-1.097-2.365c-.487-.974-.853-1.947-1.097-2.643l-.975-2.504c-.305-.974-.609-1.947-.853-2.921s-.426-1.808-.548-2.782c-.487-3.338-.609-6.537-.305-9.458s.914-5.564 1.828-7.65 2.071-3.477 3.351-4.312c1.279-.695 2.619-.695 3.96 0 .548.278 1.036.695 1.523 1.113a8.75 8.75 0 0 1 1.34 1.669c.426.695.792 1.391 1.036 1.808l.975 2.086.731 1.669c.426.835.609 1.808.67 3.06s-.122 2.365-.487 3.338c-.426.974-.853 1.391-1.401 1.53s-1.036-.278-1.462-1.252z"/><path id="U" d="M1643.678 157.942l.061 20.863c0 1.252-.183 2.225-.609 3.199-.426.835-.853 1.252-1.401 1.252-.609 0-1.036-.417-1.401-1.391-.426-.974-.609-2.086-.609-3.338v-21.559l-.122-20.029.061-14.604c0-4.451-.061-9.18-.244-14.187-.122-4.729-.305-9.458-.609-14.187-.061-1.252.061-2.504.426-3.477.305-.974.792-1.669 1.34-1.808.487-.139 1.036.139 1.462.835.426.835.731 1.808.792 3.06l.366 6.815c1.767-5.424 3.777-8.484 6.031-9.041 1.767-.417 3.351.556 4.813 2.921s2.68 5.564 3.655 9.458c.914 3.755 1.584 7.928 2.01 12.379.426 4.59.548 9.319.426 14.048-.183 4.868-.792 9.458-1.888 13.909-1.157 4.451-2.68 8.067-4.691 10.849-1.036 1.53-2.193 2.643-3.351 3.199-1.157.695-2.254 1.113-3.29.974-1.036 0-2.071 0-3.229-.139zm-.061-9.18c1.584.417 3.046.417 4.325 0 1.279-.278 2.437-1.113 3.533-2.643 1.767-2.504 3.046-6.12 3.838-10.849.792-4.59 1.036-9.458.792-14.465-.244-4.868-.853-9.458-1.888-13.492-.67-2.921-1.462-5.007-2.254-6.259s-1.584-1.669-2.315-1.53c-.853.139-1.828 1.53-2.802 4.034-1.097 2.643-2.071 6.815-3.107 12.518l-.122.556v20.307 11.823z"/><path id="V" d="M1666.826 93.405l-.244 6.676-.366 8.763-.244 9.875c-.061 4.312-.061 7.65.061 10.293.183 7.233.67 12.796 1.523 16.552.853 3.616 2.01 5.424 3.472 5.564.853 0 1.706-1.113 2.559-3.477.914-2.365 1.767-5.981 2.559-10.849 1.097-6.259 2.01-14.465 2.68-24.48l.731-11.266.244-4.312c.061-.695.061-1.113.061-1.391 0-.139 0-.417.061-.556v-.278l.122-.835c.061-.417.183-.695.305-.974.426-1.113 1.036-1.669 1.706-1.53s1.218.835 1.584 2.086c.061.417.183.835.244 1.252.061.278.061.556.061.835v.417c0 22.393.731 41.727 2.132 58.279.122 1.252.061 2.365-.244 3.338-.305 1.113-.792 1.808-1.34 2.086-.548.139-1.097-.139-1.523-.695-.487-.835-.792-1.808-.853-3.06-.609-6.537-1.097-13.214-1.401-20.029-.183 1.53-.426 2.921-.67 4.312-.975 5.703-2.071 10.293-3.229 13.492-1.706 4.59-3.655 6.954-5.909 6.815-3.107-.139-5.422-3.755-7.006-10.71-1.157-4.868-1.828-11.544-2.01-20.029-.122-2.782-.122-6.398-.061-10.988l.244-10.571.366-9.041.244-6.398c.061-1.252.305-2.225.731-3.06s.975-1.252 1.523-1.113.975.556 1.401 1.53c.366.974.548 2.225.487 3.477z"/><path id="W" d="M1692.351 115.798l2.193-8.067c1.767-5.981 3.594-10.432 5.422-13.214 2.559-3.895 4.934-4.312 7.188-1.252 1.462 1.947 2.619 6.12 3.472 12.657.67 4.729 1.157 10.71 1.523 18.082.548 10.71.731 21.42.67 32.13 0 1.252-.183 2.225-.609 3.199-.426.835-.914 1.252-1.401 1.252-.548 0-1.036-.417-1.401-1.391-.426-.974-.609-2.086-.609-3.338.061-9.875-.122-20.168-.67-30.739-.305-6.954-.792-12.379-1.34-16.413-.548-4.312-1.157-6.815-1.706-7.65-.792-.974-1.767-.695-2.924 1.113-1.34 2.086-2.802 5.703-4.325 10.849-1.34 4.59-2.498 9.319-3.533 14.326-1.036 5.146-1.584 8.902-1.706 11.266-.122 1.669-.183 4.034-.244 7.094l-.183 7.928c0 .139 0 .417-.061.556v.278c0 .417-.061.695-.122 1.113-.122.417-.244.835-.426 1.252-.548 1.252-1.157 1.669-1.888 1.252-.548-.278-.975-.974-1.279-2.086-.061-.417-.122-.695-.183-1.113l-.061-.974c-.061-.139-.061-.278-.061-.556s0-.974.061-1.947l.061-5.007c0-1.252.061-3.755.122-7.789l.061-9.18v-5.981-6.398c-.061-1.113-.061-3.06-.122-5.703l-.122-6.398-.244-5.424-.426-5.981a9.37 9.37 0 0 1 .305-3.477c.305-.974.731-1.669 1.279-1.947.487-.139 1.036.139 1.523.695.426.695.731 1.808.792 3.06.548 6.259.914 14.326.975 23.923z"/><path id="X" d="M1825.707 881.142v-14.326-5.285l-.122-5.981-.122-5.146-.305-5.842-.366-5.285c-.122-1.252 0-2.365.305-3.477.305-.974.731-1.669 1.279-1.947.487-.139 1.036 0 1.523.695.426.695.731 1.808.792 3.06.548 5.703.853 12.379.975 20.029.67-2.086 1.34-4.173 2.132-6.259 3.351-8.763 6.884-15.022 10.6-18.499.548-.556 1.036-.556 1.584-.139.487.556.853 1.391 1.097 2.504.183 1.252.183 2.365 0 3.477-.244 1.252-.609 2.086-1.097 2.504-3.168 3.06-6.214 8.484-9.138 16.134-3.107 8.206-4.752 15.717-5.056 22.811-.061.417-.061.835-.061 1.252v11.962l-.061 4.729v2.086.278c-.061.139-.061.417-.061.556l-.122.835c-.183.974-.487 1.808-.975 2.225-.426.556-.792.695-1.157.417-.426-.417-.67-.695-.853-.974s-.366-.556-.487-.974-.244-.835-.305-1.391c0-.139 0-.417-.061-.695v-.974l-.061-9.875.122-8.484z"/><path id="Y" d="M217.05 529.114l.061 14.883-.061 15.022-.061 15.022c0 17.664.244 32.408.792 44.231a9.54 9.54 0 0 1-.426 3.338c-.366.974-.792 1.53-1.34 1.669s-1.036-.278-1.462-.974c-.426-.835-.731-1.947-.792-3.199l-.305-7.511c-.548 1.391-1.097 2.643-1.645 3.895-2.619 5.564-5.726 6.954-9.32 4.173-3.351-2.504-5.361-9.041-6.031-19.612-.548-8.484-.122-17.247 1.218-26.566 1.462-9.875 3.533-16.413 6.214-19.333 1.645-1.808 3.351-2.086 5.117-.556 1.401 1.252 2.741 3.477 4.021 6.954v-31.156c0-1.252.183-2.365.609-3.338.366-.974.853-1.391 1.401-1.391s.975.417 1.401 1.252c.426.974.609 1.947.609 3.199zm-4.082 49.099c-1.279-5.564-2.071-8.902-2.437-9.875-1.036-3.199-2.01-5.285-2.985-6.12-.67-.556-1.279-.556-1.888.139-1.645 1.808-3.046 6.537-4.142 14.048-1.157 7.928-1.523 15.439-1.097 22.393.426 6.815 1.523 10.849 3.29 12.24 2.132 1.53 3.899.835 5.422-2.225 1.462-3.06 2.802-7.511 3.96-13.353l-.122-17.108v-.139z"/></defs></svg>