<svg xmlns="http://www.w3.org/2000/svg" xmlns:xlink="http://www.w3.org/1999/xlink" width="752" height="297" fill-rule="evenodd" stroke-linecap="round" stroke-linejoin="round" stroke-miterlimit="1.5" xmlns:v="https://vecta.io/nano"><style><![CDATA[.B{fill-rule:nonzero}.C{fill:#0080da}.D{fill:#b5c1d1}.E{fill:#7d8697}.F{stroke-linejoin:miter}.G{stroke-miterlimit:10}]]></style><g transform="matrix(.742095 0 0 .76841 77.549 -294.699)"><g class="B C"><use xlink:href="#B"/><use xlink:href="#C"/><use xlink:href="#D"/><use xlink:href="#E"/><use xlink:href="#F"/><use xlink:href="#G"/></g><use xlink:href="#H" class="B"/><use xlink:href="#I" class="B"/><use xlink:href="#J" class="B"/><use xlink:href="#H" x="29.539" class="B"/><use xlink:href="#I" x="29.539" class="B"/><use xlink:href="#J" x="29.539" class="B"/><g class="C B"><use xlink:href="#K"/><use xlink:href="#L"/><use xlink:href="#M"/></g><use xlink:href="#C" x="29.539" y="54.082" class="B"/><use xlink:href="#N" class="B"/><use xlink:href="#M" x="39.385" class="B"/><use xlink:href="#O" class="B"/><use xlink:href="#P" class="B"/><use xlink:href="#Q" class="B"/><use xlink:href="#R" class="B"/><use xlink:href="#S" class="B"/><path d="M395.738 483.492c0-.232.064-.433.176-.634s.272-.355.48-.464a1.35 1.35 0 0 1 .672-.17c.24 0 .48.062.672.17.208.108.368.263.48.464a1.12 1.12 0 0 1 .176.634 1.17 1.17 0 0 1-.176.649c-.112.201-.272.355-.48.479-.192.108-.432.17-.672.17a1.35 1.35 0 0 1-.672-.17c-.208-.124-.368-.278-.48-.479a1.32 1.32 0 0 1-.176-.649zm0 5.717c0-.232.064-.433.176-.634s.272-.355.48-.464c.192-.124.416-.17.672-.17.24 0 .464.046.672.17.208.108.368.263.48.464a1.12 1.12 0 0 1 .176.634c0 .247-.048.464-.176.649-.112.201-.272.355-.48.479-.192.108-.432.17-.672.17a1.35 1.35 0 0 1-.672-.17c-.208-.124-.368-.278-.48-.479-.112-.185-.176-.402-.176-.649z" class="B"/><g class="C B"><use xlink:href="#D" x="19.693" y="81.124"/><use xlink:href="#F" x="9.846" y="81.123"/><use xlink:href="#B" x="59.077" y="81.123"/><use xlink:href="#P" x="-9.846" y="27.041"/><use xlink:href="#G" x="29.538" y="81.123"/></g><use xlink:href="#R" x="-9.847" y="27.041" class="B"/><g fill="#00b700" class="B"><use xlink:href="#T"/><path d="M384.004 507.721h6.464v1.097h-2.512v8.715h2.512v1.097h-6.464v-1.097h2.512v-8.715h-2.512v-1.097z"/><use xlink:href="#P" x="39.385" y="27.041"/><path d="M406.592 517.718c.656 0 1.184-.124 1.568-.371.384-.232.576-.556.576-.958 0-.278-.048-.51-.144-.68-.112-.17-.304-.34-.608-.494-.304-.139-.736-.278-1.344-.433-.656-.155-1.2-.324-1.616-.51s-.752-.433-.976-.742c-.24-.294-.352-.68-.352-1.143s.144-.865.416-1.205.656-.603 1.152-.788 1.072-.278 1.712-.278c.656 0 1.248.077 1.76.247.528.17.992.386 1.376.664l-.608.912a4.06 4.06 0 0 0-1.136-.556 4.59 4.59 0 0 0-1.376-.201c-.64 0-1.12.108-1.424.294-.288.201-.448.464-.448.804 0 .247.08.448.208.618.144.155.368.294.688.417s.784.278 1.408.433c.624.17 1.136.34 1.536.541s.704.464.928.804c.224.324.336.726.336 1.236 0 .556-.16 1.035-.496 1.406a3 3 0 0 1-1.344.819c-.544.17-1.152.263-1.792.263-1.36 0-2.496-.371-3.392-1.128l.8-.881c.336.294.736.51 1.184.664s.912.247 1.408.247z"/><use xlink:href="#B" x="137.846" y="81.123"/><use xlink:href="#K" x="147.692" y="27.041"/><use xlink:href="#L" x="147.692" y="27.041"/><use xlink:href="#C" x="167.385" y="81.124"/><use xlink:href="#N" x="137.846" y="27.041"/><use xlink:href="#M" x="177.231" y="27.041"/><use xlink:href="#O" x="137.846" y="27.041"/><use xlink:href="#P" x="137.846" y="27.041"/><use xlink:href="#Q" x="137.847" y="27.041"/><use xlink:href="#T" x="137.846"/></g><use xlink:href="#S" x="137.846" y="27.041" class="B"/><use xlink:href="#H" x="-32.923" y="108.164" class="B"/><use xlink:href="#I" x="-32.923" y="108.165" class="B"/><use xlink:href="#J" x="-32.923" y="108.164" class="B"/><use xlink:href="#H" x="-3.385" y="108.164" class="B"/><use xlink:href="#I" x="-3.384" y="108.165" class="B"/><use xlink:href="#J" x="-3.384" y="108.164" class="B"/><path d="M372.549 544.45a1.34 1.34 0 0 1 .192-.695 1.33 1.33 0 0 1 .512-.51 1.48 1.48 0 0 1 .736-.185 1.49 1.49 0 0 1 .736.185 1.37 1.37 0 0 1 .528.51c.128.216.176.448.176.695 0 .263-.048.494-.176.711a1.37 1.37 0 0 1-.528.51 1.48 1.48 0 0 1-.736.185 1.49 1.49 0 0 1-.736-.185 1.33 1.33 0 0 1-.512-.51c-.128-.216-.192-.448-.192-.711zm9.398-5.98a3.22 3.22 0 0 1 1.232-.973 3.58 3.58 0 0 1 1.536-.34c.816 0 1.424.201 1.824.634.4.417.592 1.02.592 1.823v6.057h-1.376v-6.026c0-.494-.112-.865-.352-1.097s-.624-.355-1.136-.355a2.31 2.31 0 0 0-1.312.417c-.416.278-.752.603-1.008.989v6.073h-1.376V533.99l1.376-.155v4.636z" class="B"/><use xlink:href="#B" x="114.769" y="108.164" class="B"/><use xlink:href="#R" x="26.153" y="54.082" class="B"/><use xlink:href="#S" x="26.154" y="54.082" class="B"/><g fill="#d20097" class="B"><use xlink:href="#U"/><path d="M290.534 587.731c1.136 0 2.128.185 2.992.525l-.704 1.638c-.592-.216-1.216-.309-1.872-.309-.528 0-.896.077-1.104.263-.224.185-.336.479-.336.896v1.128h2.832l-.288 1.731h-2.544v6.15h-2.576v-6.15h-1.84v-1.731h1.84v-1.221c0-.556.128-1.066.416-1.499.272-.448.688-.788 1.232-1.051.544-.247 1.2-.371 1.952-.371z"/><use xlink:href="#V"/><use xlink:href="#V" x="8.871"/><use xlink:href="#W"/><use xlink:href="#X"/><use xlink:href="#Y"/><use xlink:href="#Z"/><use xlink:href="#V" x="59.077"/><use xlink:href="#V" x="67.948"/><path d="M393.344 592.181h17.312v1.947h-17.312v-1.947zm0 3.338h17.312v1.932h-17.312v-1.932zm34.188-3.09h-1.84l-.32-4.435h2.464l-.304 4.435z"/><use xlink:href="#V" x="128"/><use xlink:href="#V" x="136.871"/><use xlink:href="#Y" x="108.308"/><use xlink:href="#X" x="128"/><use xlink:href="#U" x="196.923"/><use xlink:href="#W" x="157.538"/><use xlink:href="#V" x="187.077"/><use xlink:href="#V" x="195.948"/><path d="M516.148 592.429h-1.84l-.32-4.435h2.464l-.304 4.435zm7.19.448a1.49 1.49 0 0 1 .24-.819 1.72 1.72 0 0 1 .64-.618 1.64 1.64 0 0 1 .864-.232 1.72 1.72 0 0 1 .864.232 1.81 1.81 0 0 1 .624.618 1.62 1.62 0 0 1 0 1.638 1.64 1.64 0 0 1-.624.603 1.72 1.72 0 0 1-.864.232 1.64 1.64 0 0 1-.864-.232c-.272-.139-.48-.34-.64-.603a1.49 1.49 0 0 1-.24-.819zm0 5.47a1.49 1.49 0 0 1 .24-.819 1.81 1.81 0 0 1 .64-.603c.256-.139.544-.216.864-.216a1.88 1.88 0 0 1 .864.216c.256.155.464.355.624.603a1.62 1.62 0 0 1 .224.819 1.63 1.63 0 0 1-.224.834 1.8 1.8 0 0 1-.624.618c-.272.155-.56.216-.864.216-.32 0-.608-.062-.864-.216-.272-.155-.48-.355-.64-.618a1.5 1.5 0 0 1-.24-.834z"/></g><g class="C B"><use xlink:href="#a"/><use xlink:href="#F" x="9.846" y="189.287"/><use xlink:href="#B" x="59.077" y="189.288"/><use xlink:href="#P" x="-9.846" y="135.205"/><use xlink:href="#G" x="29.538" y="189.288"/></g><use xlink:href="#R" x="-9.847" y="135.206" class="B"/><g fill="#00b700" class="B"><use xlink:href="#T" y="108.164"/><path d="M390.612 617.013h-4.816v3.678h4.176v1.128h-4.176v3.878h5.136v1.097h-6.56v-10.909h6.416l-.176 1.128z"/><use xlink:href="#P" x="39.385" y="135.205"/><use xlink:href="#G" x="78.769" y="189.288"/><use xlink:href="#F" x="98.461" y="189.287"/><use xlink:href="#N" x="98.461" y="135.206"/><use xlink:href="#a" x="128"/><use xlink:href="#E" x="147.693" y="189.288"/><use xlink:href="#B" x="187.077" y="189.288"/><use xlink:href="#P" x="118.154" y="135.205"/><use xlink:href="#G" x="157.538" y="189.288"/><use xlink:href="#T" x="118.153" y="108.164"/></g><use xlink:href="#S" x="118.154" y="135.206" class="B"/><use xlink:href="#C" x="29.539" y="216.329" class="B"/><use xlink:href="#N" y="162.247" class="B"/><use xlink:href="#M" x="39.385" y="162.247" class="B"/><use xlink:href="#O" y="162.246" class="B"/><use xlink:href="#P" y="162.246" class="B"/><use xlink:href="#Q" y="162.247" class="B"/><use xlink:href="#R" y="162.247" class="B"/><use xlink:href="#S" y="162.247" class="B"/><g fill="none" stroke="#000" stroke-width=".98" transform="translate(-523 114)"><path d="M784 270h282v282H784z"/><path d="M784 300h282"/></g><g fill="#e03d00" class="B"><path d="M366.359 397.293c.72-.742 1.584-1.113 2.56-1.113.768 0 1.36.232 1.776.664s.624 1.051.624 1.854v6.181h-2.592v-5.485c0-.34-.032-.618-.08-.804-.064-.201-.144-.34-.256-.433-.128-.077-.288-.124-.512-.124-.256 0-.512.093-.752.263-.256.17-.512.433-.768.757v5.825h-2.592v-11.759l2.592-.247v4.419z"/><use xlink:href="#Z" x="19.693" y="-194.873"/><use xlink:href="#b"/><use xlink:href="#b" x="9.846"/><path d="M406.928 396.18c.88 0 1.632.185 2.272.556s1.12.881 1.456 1.561c.336.664.496 1.452.496 2.349 0 .943-.16 1.746-.496 2.411a3.68 3.68 0 0 1-1.456 1.561c-.64.355-1.392.525-2.272.525-.896 0-1.648-.17-2.288-.525s-1.12-.865-1.456-1.545c-.32-.664-.496-1.468-.496-2.411 0-.896.176-1.669.512-2.349.336-.664.816-1.19 1.456-1.561.64-.386 1.392-.572 2.272-.572zm0 1.854c-.528 0-.928.216-1.184.634s-.384 1.082-.384 1.993c0 .927.128 1.607.384 2.024s.64.618 1.184.618c.528 0 .928-.201 1.184-.634.24-.417.368-1.097.368-2.024 0-.896-.128-1.561-.384-1.978s-.64-.634-1.168-.634zm8.006 5.347a1.61 1.61 0 0 1 .256-.881c.16-.263.384-.479.672-.649a1.81 1.81 0 0 1 .912-.232 1.9 1.9 0 0 1 .912.232c.272.17.496.386.672.649a1.74 1.74 0 0 1 .24.881 1.66 1.66 0 0 1-.24.881c-.176.263-.4.479-.672.649a1.9 1.9 0 0 1-.912.232 1.81 1.81 0 0 1-.912-.232c-.288-.17-.512-.386-.672-.649a1.54 1.54 0 0 1-.256-.881zm12.726-7.201c1.104 0 1.904.386 2.416 1.174.512.773.768 1.87.768 3.291 0 .881-.128 1.653-.4 2.333-.256.68-.64 1.205-1.152 1.592-.496.386-1.104.572-1.792.572-.848 0-1.536-.294-2.064-.865v3.848l-2.592.263v-11.929h2.288l.128.943c.336-.417.704-.726 1.12-.912a2.94 2.94 0 0 1 1.28-.309zm-.8 1.854a1.31 1.31 0 0 0-.784.247 2.49 2.49 0 0 0-.64.726v3.554c.176.263.384.448.576.572s.432.17.704.17a1.19 1.19 0 0 0 1.088-.618c.24-.417.368-1.082.368-2.009 0-.68-.048-1.205-.144-1.592-.112-.386-.256-.664-.448-.819s-.432-.232-.72-.232zm11.158 6.846c-.384 1.143-.976 1.993-1.76 2.565-.768.572-1.808.896-3.12.958l-.288-1.762c.56-.077 1.024-.17 1.376-.309s.64-.309.848-.541c.224-.232.416-.541.576-.912h-.88l-2.768-8.421h2.736l1.696 6.814 1.84-6.814h2.656l-2.912 8.421z"/></g></g><g fill="none" stroke="#000"><path d="M.371 178.474h183.297v117.884H.371zm567.703 0h183.297v117.884H568.074z" stroke-width=".741"/><path d="M.371 255.281h183.297m384.406 0h183.297" stroke-width=".743"/></g><g fill="#d6dee7"><path d="M32.337 227.365h12.757v10.205H32.337z"/><path d="M64.226 197.001v31.39a3.44 3.44 0 0 1-3.438 3.438H16.64a3.44 3.44 0 0 1-3.438-3.438v-31.39a3.44 3.44 0 0 1 3.438-3.438h44.147a3.44 3.44 0 0 1 3.438 3.438z"/></g><g class="B"><path d="M61.671 231.192H15.754c-1.4 0-2.551-1.151-2.552-2.551v.637c.001 1.4 1.152 2.551 2.551 2.551h45.917c1.4 0 2.551-1.151 2.551-2.551v-.637c-.001 1.4-1.152 2.551-2.551 2.551z" class="D"/><path d="M16.392 195.476h44.646c.7 0 1.276.576 1.276 1.275V222.9c0 .7-.576 1.276-1.276 1.276H16.392c-.7 0-1.276-.576-1.276-1.276v-26.148c0-.7.576-1.276 1.276-1.276z" fill="#485263"/><use xlink:href="#c" class="E"/><path d="M48.239 239.314c-3.066 0-3.164-2.392-3.164-2.392H32.351s-.097 2.392-3.162 2.392c-.332 0-.305 1.249 0 1.249h19.05c.306 0 .334-1.249 0-1.249z" class="D"/><path d="M15.592 223.886l46.244-28.12c-.225-.186-.508-.289-.799-.29H16.391a1.28 1.28 0 0 0-1.275 1.276v26.149a1.27 1.27 0 0 0 .476.986z" fill-opacity=".5" class="E"/></g><g fill="#d6dee7"><path d="M600.039 227.365h12.757v10.205h-12.757z"/><path d="M631.929 197.001v31.39a3.44 3.44 0 0 1-3.438 3.438h-44.147a3.44 3.44 0 0 1-3.438-3.438v-31.39a3.44 3.44 0 0 1 3.438-3.438h44.147a3.44 3.44 0 0 1 3.438 3.438z"/></g><g class="B"><path d="M629.374 231.192h-45.916c-1.4 0-2.551-1.151-2.552-2.551v.637c.001 1.4 1.152 2.551 2.551 2.551h45.917c1.4 0 2.551-1.151 2.551-2.551v-.637c-.001 1.4-1.152 2.551-2.551 2.551z" class="D"/><path d="M584.095 195.476h44.646c.7 0 1.276.576 1.276 1.275V222.9c0 .7-.576 1.276-1.276 1.276h-44.646c-.7 0-1.276-.576-1.276-1.276v-26.148c0-.7.576-1.276 1.276-1.276z" fill="#485263"/><use xlink:href="#c" x="567.703" class="E"/><path d="M615.942 239.314c-3.066 0-3.164-2.392-3.164-2.392h-12.725s-.097 2.392-3.162 2.392c-.332 0-.305 1.249 0 1.249h19.05c.306 0 .334-1.249 0-1.249z" class="D"/><path d="M583.295 223.886l46.244-28.12c-.225-.186-.508-.289-.799-.29h-44.646a1.28 1.28 0 0 0-1.275 1.276v26.149a1.27 1.27 0 0 0 .476.986z" fill-opacity=".5" class="E"/><path d="M18.014 272.565c.366 0 .662.118.886.378.236.248.355.709.355 1.383v4.75h-.945v-4.585c0-.307-.012-.532-.035-.685s-.059-.26-.13-.343c-.071-.071-.177-.106-.331-.106-.414 0-.792.248-1.111.768v4.951h-.957v-4.585l-.024-.685c-.024-.154-.071-.26-.142-.343-.059-.071-.177-.106-.319-.106-.425 0-.792.248-1.123.768v4.951h-.934v-6.381h.792l.071.744c.189-.284.39-.496.614-.65a1.28 1.28 0 0 1 .768-.225c.603 0 .993.272 1.158.839.189-.272.39-.484.614-.626s.484-.213.792-.213zm6.137 6.558a5.62 5.62 0 0 1-.591 1.229c-.236.355-.532.638-.898.863-.378.236-.827.366-1.359.425l-.165-.815c.425-.071.768-.177 1.028-.319.26-.154.461-.331.603-.555s.284-.52.414-.874h-.343l-2.233-6.381h1.087l1.832 5.601 1.808-5.601h1.052l-2.233 6.428zm7.97-9.122c.331 0 .638.024.91.083a3.86 3.86 0 0 1 .815.26l-.319.756c-.402-.177-.863-.26-1.371-.26-.898 0-1.347.343-1.347 1.052v1.3h2.162l-.106.804h-2.056v5.081h-1.016v-5.081h-1.524v-.804h1.524v-1.276a1.71 1.71 0 0 1 .307-1.004 1.87 1.87 0 0 1 .827-.674c.355-.165.744-.236 1.193-.236zm4.518 7.22c0 .414.083.709.26.898s.449.284.815.284a1.82 1.82 0 0 0 .981-.295c.319-.189.567-.425.744-.721v-4.691h1.016v6.381h-.863l-.083-.863a2.42 2.42 0 0 1-.922.733c-.366.177-.744.272-1.123.272-.614 0-1.075-.165-1.383-.484-.307-.331-.461-.792-.461-1.394v-4.644h1.016v4.526zm6.256 1.855v-6.381h.863l.083.886a2.69 2.69 0 0 1 .957-.744c.39-.189.768-.272 1.158-.272.603 0 1.052.154 1.347.484.295.319.437.78.437 1.394v4.632h-1.016v-3.888c0-.473-.024-.839-.071-1.087-.059-.248-.154-.437-.307-.555-.165-.118-.39-.189-.709-.189a1.64 1.64 0 0 0-.969.319 2.89 2.89 0 0 0-.756.756v4.644h-1.016zm10.155-.744c.567 0 1.123-.177 1.666-.555l.496.674c-.284.225-.614.414-1.004.555a3.44 3.44 0 0 1-1.158.213c-.626 0-1.158-.142-1.607-.414a2.43 2.43 0 0 1-1.028-1.146c-.236-.496-.355-1.075-.355-1.749 0-.638.118-1.217.355-1.725a2.91 2.91 0 0 1 1.04-1.193c.449-.284.993-.425 1.607-.425a3.35 3.35 0 0 1 2.139.733l-.496.685c-.555-.378-1.099-.567-1.654-.567-.378 0-.697.083-.981.272s-.508.473-.674.839c-.154.378-.236.839-.236 1.383 0 .815.177 1.43.52 1.832.331.402.792.591 1.371.591z"/><g fill="#25bf00"><use xlink:href="#d"/><path d="M68.558 279.076l-2.328-6.133h1.087l1.323 3.675.39 1.229.39-1.158 1.359-3.746h1.064l-2.316 6.133h-.969z"/><use xlink:href="#d" x="12.481"/><path d="M79.337 271.809v-1.193h1.04v1.193h-1.04zm0 7.267v-6.133h1.04v6.133h-1.04zm2.601-8.461h1.04v8.461h-1.04z"/><use xlink:href="#d" x="24.303"/><path d="M92.117 279.076h-.969v-8.461h1.04v3.025c.437-.555 1.004-.827 1.678-.827.378 0 .744.071 1.075.225s.614.366.827.638c.225.272.39.614.52.993a4.28 4.28 0 0 1 .177 1.253c0 1.052-.26 1.855-.78 2.434-.52.567-1.134.863-1.867.863a1.96 1.96 0 0 1-1.702-.91v.768zm-.012-3.108c0 .733.095 1.264.295 1.595.331.532.768.792 1.335.792.449 0 .839-.189 1.17-.591.331-.39.496-.981.496-1.761 0-.792-.154-1.383-.473-1.773-.319-.378-.697-.567-1.146-.567-.461 0-.851.201-1.182.591s-.496.969-.496 1.713zm5.603-5.353h1.04v8.461h-1.04zm6.844 6.488l1.075.13c-.177.626-.484 1.111-.945 1.465-.461.343-1.04.52-1.749.52-.898 0-1.607-.284-2.139-.827-.52-.555-.78-1.335-.78-2.328 0-1.028.26-1.832.792-2.399s1.217-.851 2.068-.851c.815 0 1.489.272 2.009.839.52.555.78 1.335.78 2.352l-.012.272h-4.573c.047.674.236 1.193.579 1.548a1.7 1.7 0 0 0 1.276.532c.378 0 .709-.095.981-.295.26-.201.484-.52.638-.957zm-3.415-1.678h3.427c-.047-.52-.177-.898-.39-1.158a1.6 1.6 0 0 0-1.288-.603c-.484 0-.886.165-1.205.484-.331.319-.508.744-.544 1.276z"/></g></g><g fill="none" stroke="#25bf00" stroke-miterlimit="4" stroke-width="2.474"><path d="M147.799 275.818c0 6.148-4.983 11.131-11.131 11.131s-11.131-4.983-11.131-11.131 4.983-11.131 11.131-11.131 11.131 4.983 11.131 11.131z" class="F"/><path d="M132.957 275.818l2.082 2.082c.216.216.568.216.784 0l4.555-4.555"/></g><g class="B"><path d="M649.93 203.944h-3.574v2.826h3.099v.867h-3.099v2.98h3.811v.843h-4.868v-8.383h4.761l-.131.867z"/><use xlink:href="#e"/><use xlink:href="#f"/><path d="M671.246 204.905c.166 0 .321.012.451.036a4.06 4.06 0 0 1 .451.107l-.142 2.173h-.843v-1.365h-.059c-.487 0-.914.166-1.259.522-.356.344-.629.879-.855 1.579v2.719h1.306v.784h-3.325v-.784h.997v-4.844h-.997v-.784h1.781l.19 1.52c.261-.558.57-.974.926-1.247s.819-.416 1.377-.416z"/><use xlink:href="#g"/><path d="M691.707 204.917c.819 0 1.413.285 1.769.867.368.582.546 1.401.546 2.47a5.28 5.28 0 0 1-.273 1.745 2.53 2.53 0 0 1-.831 1.175c-.368.285-.831.427-1.365.427-.712 0-1.27-.249-1.698-.748v3.063l-1.021.119v-8.988h.867l.095.891a2.34 2.34 0 0 1 .843-.76c.321-.178.677-.261 1.069-.261zm-.249.819a1.47 1.47 0 0 0-.902.297 2.97 2.97 0 0 0-.701.736v3.17a1.8 1.8 0 0 0 .641.594 1.67 1.67 0 0 0 .831.214c.534 0 .938-.202 1.199-.617.261-.404.404-1.033.404-1.888 0-.843-.119-1.472-.368-1.888-.237-.416-.606-.617-1.104-.617zm7.124-.819c.594 0 1.092.131 1.496.404.416.273.724.653.938 1.152.202.499.309 1.092.309 1.781 0 .653-.107 1.247-.321 1.745s-.522.891-.938 1.175-.914.427-1.496.427c-.594 0-1.104-.142-1.508-.416-.416-.273-.724-.653-.938-1.164-.214-.499-.321-1.08-.321-1.757 0-.665.107-1.259.321-1.757s.534-.891.95-1.175c.416-.273.914-.416 1.508-.416zm0 .831c-.558 0-.974.202-1.259.617s-.416 1.045-.416 1.9c0 .843.131 1.46.416 1.876.273.416.689.617 1.247.617s.974-.202 1.247-.617.416-1.045.416-1.888-.142-1.472-.416-1.888-.689-.617-1.235-.617z"/><use xlink:href="#h"/><use xlink:href="#i"/><use xlink:href="#f" x="58.455"/><path d="M645.026 223.855h4.797v.843h-1.864v6.697h1.864v.843h-4.797v-.843h1.864v-6.697h-1.864v-.843z"/><use xlink:href="#e" y="20.778"/><path d="M661.787 231.538c.487 0 .879-.095 1.164-.285.285-.178.427-.427.427-.736 0-.214-.036-.392-.107-.522-.083-.131-.226-.261-.451-.38-.226-.107-.546-.214-.997-.332-.487-.119-.891-.249-1.199-.392s-.558-.332-.724-.57c-.178-.226-.261-.522-.261-.879s.107-.665.309-.926.487-.463.855-.606.796-.214 1.27-.214c.487 0 .926.059 1.306.19.392.131.736.297 1.021.511l-.451.701a2.97 2.97 0 0 0-.843-.427c-.297-.095-.629-.154-1.021-.154-.475 0-.831.083-1.057.226a.73.73 0 0 0-.332.617c0 .19.059.344.154.475.107.119.273.226.511.321s.582.214 1.045.332c.463.131.843.261 1.14.416a1.74 1.74 0 0 1 .689.617c.166.249.249.558.249.95 0 .427-.119.796-.368 1.08-.261.285-.582.499-.997.629-.404.131-.855.202-1.33.202-1.009 0-1.852-.285-2.517-.867l.594-.677a2.59 2.59 0 0 0 .879.511c.332.119.677.19 1.045.19z"/><use xlink:href="#h" x="-36.533" y="20.778"/><path d="M678.049 223.119l1.021.131v8.988h-.891l-.095-.843c-.237.332-.511.582-.819.736-.309.166-.641.249-1.009.249-.807 0-1.413-.297-1.829-.902-.404-.594-.606-1.401-.606-2.434 0-.653.095-1.223.297-1.734s.487-.902.867-1.187.831-.427 1.354-.427c.356 0 .689.059.962.19.285.119.534.309.748.558v-3.325zm-1.449 3.396c-.534 0-.95.214-1.235.641-.285.416-.427 1.045-.427 1.888 0 .831.131 1.449.392 1.876a1.27 1.27 0 0 0 1.14.629c.606 0 1.14-.332 1.579-1.009v-3.206c-.178-.261-.38-.463-.629-.606s-.522-.214-.819-.214zm5.731 2.885c.012.475.107.867.273 1.187.178.321.404.558.677.712a1.85 1.85 0 0 0 .926.226c.309 0 .606-.047.867-.142a3.6 3.6 0 0 0 .843-.439l.475.677c-.297.237-.641.427-1.033.558a3.58 3.58 0 0 1-1.164.202c-.617 0-1.14-.142-1.591-.416-.439-.273-.772-.665-1.009-1.175-.226-.499-.332-1.08-.332-1.745 0-.653.107-1.223.344-1.734a2.76 2.76 0 0 1 .974-1.187 2.58 2.58 0 0 1 1.472-.427c.546 0 1.009.119 1.401.38.392.249.689.606.891 1.08.214.475.321 1.033.321 1.674l-.024.57h-4.31zm1.734-2.873c-.487 0-.891.178-1.199.522-.321.356-.487.867-.534 1.555h3.348c-.012-.677-.166-1.187-.451-1.544s-.665-.534-1.164-.534zm16.298-.831c.368 0 .665.119.891.38.237.249.356.712.356 1.389v4.773h-.95v-4.607a4.87 4.87 0 0 0-.036-.689c-.024-.154-.059-.261-.131-.344-.071-.071-.178-.107-.332-.107-.416 0-.796.249-1.116.772v4.975h-.962v-4.607l-.024-.689c-.024-.154-.071-.261-.142-.344-.059-.071-.178-.107-.321-.107-.427 0-.796.249-1.128.772v4.975h-.938v-6.412h.796l.071.748c.19-.285.392-.499.617-.653.214-.154.475-.226.772-.226.606 0 .997.273 1.164.843.19-.273.392-.487.617-.629s.487-.214.796-.214z"/><use xlink:href="#g" x="29.231" y="20.779"/><path d="M714.543 223.119a4.36 4.36 0 0 1 .914.083c.285.059.558.142.819.261l-.321.76c-.404-.178-.867-.261-1.377-.261-.902 0-1.354.344-1.354 1.057v1.306h2.173l-.107.807h-2.066v5.106h-1.021v-5.106h-1.532v-.807h1.532v-1.282a1.72 1.72 0 0 1 .309-1.009 1.88 1.88 0 0 1 .831-.677c.356-.166.748-.237 1.199-.237zm4.535 7.255c0 .416.083.712.261.902s.451.285.819.285a1.83 1.83 0 0 0 .986-.297 2.08 2.08 0 0 0 .748-.724v-4.714h1.021v6.412h-.867l-.083-.867c-.249.321-.558.57-.926.736-.368.178-.748.273-1.128.273-.617 0-1.08-.166-1.389-.487-.309-.332-.463-.796-.463-1.401v-4.666h1.021v4.548z"/><use xlink:href="#i" x="14.612" y="20.778"/><path d="M735.566 231.49c.57 0 1.128-.178 1.674-.558l.499.677a3.58 3.58 0 0 1-1.009.558c-.404.142-.784.214-1.164.214-.629 0-1.164-.142-1.615-.416-.463-.261-.807-.653-1.033-1.152-.237-.499-.356-1.08-.356-1.757 0-.641.119-1.223.356-1.734.237-.499.594-.902 1.045-1.199.451-.285.997-.427 1.615-.427.819 0 1.532.249 2.149.736l-.499.689c-.558-.38-1.104-.57-1.662-.57-.38 0-.701.083-.986.273s-.511.475-.677.843c-.154.38-.237.843-.237 1.389 0 .819.178 1.437.522 1.84.332.404.796.594 1.377.594z"/></g><g fill="none" stroke="#717171" stroke-width="1.48"><path d="M98.699 173.13l-6.679 4.453-6.679-4.453" class="F G"/><path d="M271.237 112.427H92.02v65.155"/><path d="M666.405 173.13l-6.679 4.453-6.679-4.453" class="F G"/><path d="M480.51 112.427h179.217v65.155"/></g><g class="B"><path d="M155.39 99.292c.074.891.089 2.004.059 3.339l-.074 3.265a.53.53 0 0 1-.49.49.47.47 0 0 1-.341-.134.48.48 0 0 1-.148-.356l.074-3.295-.059-3.221a.49.49 0 0 1 .119-.371c.089-.104.208-.148.341-.163s.252.03.356.119a.53.53 0 0 1 .163.327zm-.208-2.835a.43.43 0 0 1 .148.341.47.47 0 0 1-.134.341.48.48 0 0 1-.356.148.43.43 0 0 1-.49-.49.48.48 0 0 1 .148-.356.47.47 0 0 1 .341-.134.43.43 0 0 1 .341.148zm1.915 2.76l.089.965.104 1.024a2.28 2.28 0 0 1 .015.327l.356-.772c.312-.609.638-1.024.98-1.262.252-.178.519-.252.787-.237a1.25 1.25 0 0 1 .787.416c.178.193.327.505.46.95.074.252.134.549.208.891a6.94 6.94 0 0 1 .445-.935c.282-.534.564-.95.846-1.247.43-.43.861-.594 1.306-.519.282.045.534.223.727.519.148.208.267.49.371.831.163.549.267 1.262.327 2.152l.074 1.529.015 1.321v.83a.53.53 0 0 1-.134.356.45.45 0 0 1-.341.148.53.53 0 0 1-.356-.134.45.45 0 0 1-.148-.341 7.73 7.73 0 0 1 0-.831l-.015-1.291-.059-1.514c-.074-.846-.163-1.499-.297-1.959a2.22 2.22 0 0 0-.237-.549c-.015-.045-.045-.059-.059-.074l-.045-.045c-.104-.015-.237.074-.43.267-.223.223-.445.549-.683 1.009-.208.371-.386.772-.534 1.187a6.73 6.73 0 0 0-.297.92c-.045.282-.074.846-.074 1.662 0 .03 0 .089.015.193l.03.282c.015.134.015.223 0 .297-.015.059-.03.119-.059.178-.104.223-.282.312-.519.267-.134-.015-.237-.089-.327-.193-.015-.03-.045-.059-.074-.104l-.045-.148v-.104c-.015-.045-.015-.104-.015-.178-.015-.104-.015-.267-.03-.475v-.312l-.03-.416-.252-2.078-.237-1.113c-.089-.297-.163-.475-.237-.549s-.119-.104-.163-.119c-.03 0-.074.015-.134.059-.208.134-.43.445-.668.92a9.06 9.06 0 0 0-.564 1.321l-.327 1.069c-.074.371-.119.816-.163 1.351-.015.045 0 .193.015.43a1.68 1.68 0 0 1 .015.208v.074c0 .045-.015.104-.03.148-.059.148-.178.252-.341.297a.43.43 0 0 1-.505-.178l-.089-.148v-.059c-.015-.015-.015-.03-.015-.045-.104-.564-.163-1.395-.178-2.493l-.045-1.929-.089-1.009-.104-.95a.49.49 0 0 1 .119-.371c.089-.104.208-.148.341-.163s.252.03.356.119.148.193.163.327z"/><use xlink:href="#j"/><use xlink:href="#k"/><path d="M177.103 103.907v-1.529-.564l-.03-.638c-.015-.134-.015-.327-.03-.549s-.045-.43-.074-.623l-.089-.564c-.03-.134 0-.252.074-.371a.51.51 0 0 1 .312-.208c.119-.015.252 0 .371.074a.47.47 0 0 1 .193.327c.134.609.208 1.321.237 2.137l.519-.668c.816-.935 1.677-1.603 2.582-1.974.134-.059.252-.059.386-.015a.58.58 0 0 1 .267.267.53.53 0 0 1 0 .371c-.059.134-.148.223-.267.267-.772.327-1.514.905-2.226 1.722-.757.876-1.158 1.677-1.232 2.434-.015.045-.015.089-.015.134v1.276l-.015.505v.223.03c-.015.015-.015.045-.015.059l-.03.089c-.045.104-.119.193-.237.237-.104.059-.193.074-.282.045-.104-.045-.163-.074-.208-.104s-.089-.059-.119-.104-.059-.089-.074-.148c0-.015 0-.045-.015-.074v-.104l-.015-1.054.03-.905z"/><use xlink:href="#l"/><use xlink:href="#m"/><use xlink:href="#n"/><use xlink:href="#o"/><use xlink:href="#o" x="1.915"/><use xlink:href="#k" x="36.452"/><use xlink:href="#j" x="373.11"/><use xlink:href="#p"/><use xlink:href="#l" x="367.456"/><use xlink:href="#m" x="363.805"/><use xlink:href="#k" x="390.016"/><path d="M568.084 101.518c.163-.312.341-.594.534-.861.43-.638.876-1.113 1.321-1.41.623-.416 1.202-.46 1.751-.134.356.208.638.653.846 1.351.163.505.282 1.143.371 1.929.134 1.143.178 2.286.163 3.428a.45.45 0 0 1-.148.341c-.104.089-.223.134-.341.134a.43.43 0 0 1-.341-.148.48.48 0 0 1-.148-.356 24.89 24.89 0 0 0-.163-3.28c-.074-.742-.193-1.321-.327-1.751-.134-.46-.282-.727-.416-.816-.193-.104-.43-.074-.712.119-.327.223-.683.609-1.054 1.158-.327.49-.609.994-.861 1.529-.252.549-.386.95-.416 1.202a7.13 7.13 0 0 0-.059.757l-.045.846c0 .015 0 .045-.015.059v.03c0 .045-.015.074-.03.119-.03.045-.059.089-.104.134a.45.45 0 0 1-.46.134c-.134-.03-.237-.104-.312-.223l-.045-.119-.015-.104c-.015-.015-.015-.03-.015-.059s0-.104.015-.208l.015-.534.03-.831.015-.98v-.638-.683c-.015-.119-.015-.327-.03-.609l-.03-.683-.059-.579-.104-.638c-.03-.134 0-.252.074-.371a.51.51 0 0 1 .312-.208.67.67 0 0 1 .371.074.47.47 0 0 1 .193.327c.134.668.223 1.529.237 2.553z"/><use xlink:href="#m" x="385.949"/><use xlink:href="#n" x="385.949"/><use xlink:href="#o" x="385.949"/><use xlink:href="#o" x="387.863"/><use xlink:href="#k" x="422.401"/><path d="M600.528 105.184a.43.43 0 0 1 .148.341.47.47 0 0 1-.134.341.48.48 0 0 1-.356.148.43.43 0 0 1-.49-.49.48.48 0 0 1 .148-.356.47.47 0 0 1 .341-.134.43.43 0 0 1 .341.148z"/><use xlink:href="#j" x="435.877"/><use xlink:href="#p" x="62.767"/></g><defs ><path id="B" d="M278.928 425.253c.288 0 .544.093.72.263.192.185.288.402.288.664a.87.87 0 0 1-.288.68c-.176.185-.432.278-.72.278s-.528-.093-.72-.278-.272-.402-.272-.68c0-.263.08-.479.272-.664a1.05 1.05 0 0 1 .72-.263zm-2.864 3.909h3.952v7.293h2.448v1.051h-6.48v-1.051h2.656v-6.243h-2.576v-1.051z"/><path id="C" d="M291.19 428.992c.496 0 .896.155 1.2.494.32.324.48.927.48 1.808v6.212h-1.28v-5.995c0-.402-.016-.695-.048-.896s-.08-.34-.176-.448c-.096-.093-.24-.139-.448-.139-.56 0-1.072.324-1.504 1.004v6.474h-1.296v-5.995l-.032-.896c-.032-.201-.096-.34-.192-.448-.08-.093-.24-.139-.432-.139-.576 0-1.072.324-1.52 1.004v6.474h-1.264v-8.344h1.072l.096.973c.256-.371.528-.649.832-.85.288-.201.64-.294 1.04-.294.816 0 1.344.355 1.568 1.097.256-.355.528-.634.832-.819s.656-.278 1.072-.278z"/><path id="D" d="M299.212 428.992c1.104 0 1.904.371 2.384 1.128.496.757.736 1.823.736 3.214 0 .85-.128 1.607-.368 2.271-.24.649-.624 1.159-1.12 1.53s-1.12.556-1.84.556c-.96 0-1.712-.324-2.288-.973v3.987l-1.376.155v-11.697h1.168l.128 1.159a3.12 3.12 0 0 1 1.136-.989c.432-.232.912-.34 1.44-.34zm-.336 1.066c-.448 0-.848.124-1.216.386-.352.247-.672.572-.944.958v4.126c.24.34.512.587.864.773.336.185.72.278 1.12.278.72 0 1.264-.263 1.616-.804.352-.525.544-1.344.544-2.457 0-1.097-.16-1.916-.496-2.457-.32-.541-.816-.804-1.488-.804z"/><path id="E" d="M308.482 428.992c.8 0 1.472.17 2.016.525.56.355.976.85 1.264 1.499.272.649.416 1.422.416 2.318 0 .85-.144 1.622-.432 2.271s-.704 1.159-1.264 1.53-1.232.556-2.016.556c-.8 0-1.488-.185-2.032-.541-.56-.355-.976-.85-1.264-1.514-.288-.649-.432-1.406-.432-2.287 0-.865.144-1.638.432-2.287s.72-1.159 1.28-1.53c.56-.355 1.232-.541 2.032-.541zm0 1.082c-.752 0-1.312.263-1.696.804s-.56 1.36-.56 2.472c0 1.097.176 1.901.56 2.441.368.541.928.804 1.68.804s1.312-.263 1.68-.804.56-1.36.56-2.457-.192-1.916-.56-2.457-.928-.804-1.664-.804z"/><path id="F" d="M320.873 428.977a3.59 3.59 0 0 1 .608.046c.192.031.384.077.608.139l-.192 2.828h-1.136v-1.777h-.08c-.656 0-1.232.216-1.696.68-.48.448-.848 1.143-1.152 2.055v3.539h1.76v1.02h-4.48v-1.02h1.344v-6.304h-1.344v-1.02h2.4l.256 1.978c.352-.726.768-1.267 1.248-1.622s1.104-.541 1.856-.541z"/><path id="G" d="M331.743 437.089c-.288.185-.656.324-1.072.433-.432.108-.848.17-1.248.17-.608 0-1.12-.108-1.568-.324-.432-.216-.752-.51-.992-.896-.224-.371-.336-.804-.336-1.298v-4.976h-1.984v-1.035h1.984v-1.901l1.376-.155v2.055h2.976l-.16 1.035h-2.816v4.96c0 .464.128.834.384 1.066s.688.355 1.264.355a3.6 3.6 0 0 0 1.648-.402l.544.912z"/><path id="H" d="M345.947 430.244c.32-.402.688-.711 1.104-.927s.88-.324 1.36-.324c1.12 0 1.936.371 2.464 1.143.512.757.784 1.823.784 3.199 0 .85-.144 1.607-.4 2.256-.256.664-.656 1.174-1.168 1.545s-1.136.556-1.856.556c-.512 0-.96-.093-1.344-.263s-.72-.433-1.008-.788l-.112.865h-1.2v-11.697l1.376-.17v4.605zm1.952 6.366c.736 0 1.296-.278 1.68-.819s.576-1.375.576-2.472c0-1.082-.176-1.901-.528-2.441-.336-.541-.848-.819-1.504-.819-.448 0-.848.124-1.216.386-.368.247-.688.572-.96.958v4.126c.24.34.512.603.864.804a2.23 2.23 0 0 0 1.088.278z"/><path id="I" d="M357.777 435.451c0 .386.128.68.384.85.256.185.608.278 1.056.278a3.81 3.81 0 0 0 1.44-.294l.368.973c-.256.124-.56.232-.912.309s-.72.124-1.136.124c-.512 0-.96-.093-1.344-.278-.4-.185-.688-.448-.912-.804-.208-.355-.32-.757-.32-1.236v-8.514h-2.64v-1.051h4.016v9.642z"/><path id="J" d="M370.455 435.683c0 .324.048.572.16.726s.288.263.544.34l-.336.943c-.832-.108-1.36-.494-1.584-1.174-.304.386-.688.68-1.168.881-.464.185-.976.294-1.536.294-.576 0-1.072-.108-1.488-.324a2.16 2.16 0 0 1-.976-.896c-.224-.386-.336-.834-.336-1.36 0-.865.352-1.514 1.04-1.978.704-.464 1.712-.695 3.024-.695h1.264v-.695c0-.572-.176-1.004-.528-1.267s-.864-.386-1.536-.386c-.64 0-1.392.139-2.24.433l-.368-1.004c.96-.355 1.904-.525 2.832-.525 1.056 0 1.856.232 2.4.711.56.479.832 1.143.832 1.978v4.002zm-3.568.989c.416 0 .832-.108 1.216-.309.384-.216.704-.494.96-.865v-2.148h-1.248c-.912 0-1.568.155-1.984.448s-.608.742-.608 1.298c0 1.051.544 1.576 1.664 1.576z"/><path id="K" d="M280.816 479.721l1.376.17v11.697h-1.2l-.128-1.097c-.32.433-.688.757-1.104.958-.416.216-.864.324-1.36.324-1.088 0-1.904-.386-2.464-1.174-.544-.773-.816-1.823-.816-3.168 0-.85.128-1.592.4-2.256s.656-1.174 1.168-1.545 1.12-.556 1.824-.556c.48 0 .928.077 1.296.247.384.155.72.402 1.008.726v-4.327zm-1.952 4.419c-.72 0-1.28.278-1.664.834-.384.541-.576 1.36-.576 2.457 0 1.082.176 1.885.528 2.441.352.541.864.819 1.536.819.816 0 1.536-.433 2.128-1.313v-4.172c-.24-.34-.512-.603-.848-.788s-.704-.278-1.104-.278z"/><path id="L" d="M286.582 487.896c.016.618.144 1.128.368 1.545.24.417.544.726.912.927s.784.294 1.248.294a3.55 3.55 0 0 0 1.168-.185c.368-.124.736-.309 1.136-.572l.64.881c-.4.309-.864.556-1.392.726a4.98 4.98 0 0 1-1.568.263c-.832 0-1.536-.185-2.144-.541-.592-.355-1.04-.865-1.36-1.53-.304-.649-.448-1.406-.448-2.271 0-.85.144-1.592.464-2.256.304-.664.752-1.174 1.312-1.545.576-.371 1.232-.556 1.984-.556.736 0 1.36.155 1.888.494.528.324.928.788 1.2 1.406.288.618.432 1.344.432 2.179l-.032.742h-5.808zm2.336-3.739c-.656 0-1.2.232-1.616.68-.432.464-.656 1.128-.72 2.024h4.512c-.016-.881-.224-1.545-.608-2.009s-.896-.695-1.568-.695z"/><path id="M" d="M300.444 479.721c.448 0 .864.031 1.232.108.384.077.752.185 1.104.34l-.432.989c-.544-.232-1.168-.34-1.856-.34-1.216 0-1.824.448-1.824 1.375v1.7h2.928l-.144 1.051h-2.784v6.644h-1.376v-6.644h-2.064v-1.051h2.064v-1.669c0-.494.144-.943.416-1.313.272-.386.64-.68 1.12-.881.48-.216 1.008-.309 1.616-.309z"/><path id="N" d="M329.039 491.65a7.3 7.3 0 0 1-.8 1.607 3.8 3.8 0 0 1-1.216 1.128c-.512.309-1.12.479-1.84.556l-.224-1.066c.576-.093 1.04-.232 1.392-.417.352-.201.624-.433.816-.726s.384-.68.56-1.143h-.464l-3.024-8.344h1.472l2.48 7.324 2.448-7.324h1.424l-3.024 8.406z"/><path id="O" d="M345.947 489.163c0 .541.112.927.352 1.174s.608.371 1.104.371a2.53 2.53 0 0 0 1.328-.386 2.77 2.77 0 0 0 1.008-.943v-6.134h1.376v8.344h-1.168l-.112-1.128a3.26 3.26 0 0 1-1.248.958c-.496.232-1.008.355-1.52.355-.832 0-1.456-.216-1.872-.634-.416-.433-.624-1.035-.624-1.823v-6.073h1.376v5.918z"/><path id="P" d="M354.417 491.589v-8.344h1.168l.112 1.159a3.63 3.63 0 0 1 1.296-.973c.528-.247 1.04-.355 1.568-.355.816 0 1.424.201 1.824.634.4.417.592 1.02.592 1.823v6.057h-1.376v-5.084c0-.618-.032-1.097-.096-1.422-.08-.324-.208-.572-.416-.726-.224-.155-.528-.247-.96-.247-.464 0-.912.139-1.312.417a3.83 3.83 0 0 0-1.024.989v6.073h-1.376z"/><path id="Q" d="M368.167 490.615c.768 0 1.52-.232 2.256-.726l.672.881c-.384.294-.832.541-1.36.726-.544.185-1.056.278-1.568.278-.848 0-1.568-.185-2.176-.541-.624-.34-1.088-.85-1.392-1.499-.32-.649-.48-1.406-.48-2.287 0-.834.16-1.592.48-2.256a3.85 3.85 0 0 1 1.408-1.561c.608-.371 1.344-.556 2.176-.556 1.104 0 2.064.324 2.896.958l-.672.896c-.752-.494-1.488-.742-2.24-.742-.512 0-.944.108-1.328.355s-.688.618-.912 1.097c-.208.494-.32 1.097-.32 1.808 0 1.066.24 1.87.704 2.395.448.525 1.072.773 1.856.773z"/><path id="R" d="M375.95 486.041c0 1.082.128 2.024.384 2.812.256.804.624 1.53 1.136 2.179.496.649 1.152 1.329 1.984 2.04l-.72.742c-.96-.757-1.728-1.499-2.336-2.225s-1.072-1.53-1.408-2.441c-.32-.896-.48-1.932-.48-3.106s.16-2.21.48-3.106a8.32 8.32 0 0 1 1.408-2.441c.608-.726 1.376-1.468 2.336-2.225l.72.742c-.832.711-1.504 1.406-2 2.04-.496.649-.88 1.375-1.12 2.163-.256.804-.384 1.746-.384 2.828z"/><path id="S" d="M388.66 486.041c0-1.082-.112-2.024-.368-2.828a7.19 7.19 0 0 0-1.12-2.163c-.512-.634-1.168-1.329-2.016-2.04l.72-.742c.96.757 1.744 1.499 2.352 2.225s1.072 1.545 1.392 2.441c.336.896.496 1.932.496 3.106s-.16 2.21-.496 3.106a7.76 7.76 0 0 1-1.392 2.441c-.608.726-1.392 1.468-2.352 2.225l-.72-.742c.832-.711 1.504-1.391 2-2.04s.88-1.375 1.136-2.179c.24-.788.368-1.731.368-2.812z"/><path id="T" d="M377.998 511.043h-1.216l-.256-4.11h1.728l-.256 4.11z"/><path id="U" d="M278.912 586.928c.288 0 .56.062.784.185s.416.294.544.51.192.448.192.726c0 .263-.064.494-.192.711s-.32.386-.544.51a1.67 1.67 0 0 1-.784.185 1.69 1.69 0 0 1-.8-.185 1.31 1.31 0 0 1-.544-.51c-.144-.216-.208-.448-.208-.711 0-.278.064-.51.208-.726a1.31 1.31 0 0 1 .544-.51 1.69 1.69 0 0 1 .8-.185zm-3.424 4.404h4.992v6.706h2.208v1.715h-7.28v-1.715h2.48v-4.991h-2.4v-1.715z"/><path id="V" d="M304.354 600.742h9.184v1.962h-9.184z"/><path id="W" d="M324.383 599.753v-8.421h2.256l.192.973c.384-.417.8-.742 1.232-.943s.928-.309 1.472-.309c.752 0 1.328.232 1.76.664.416.448.64 1.066.64 1.854v6.181h-2.592v-5.455c0-.355-.032-.634-.08-.834-.064-.201-.144-.34-.256-.433-.128-.077-.288-.124-.512-.124-.256 0-.512.077-.768.247-.24.155-.496.386-.752.711v5.887h-2.592z"/><path id="X" d="M341.557 597.327c0 .309.048.541.128.68.096.155.24.263.448.34l-.528 1.638c-.528-.046-.976-.155-1.312-.324-.352-.185-.624-.448-.832-.773-.32.371-.736.649-1.248.85-.512.185-1.04.278-1.616.278-.592 0-1.104-.108-1.552-.324-.448-.232-.784-.541-1.04-.943-.24-.402-.352-.85-.352-1.375 0-.603.16-1.113.496-1.545s.816-.757 1.456-.973c.64-.232 1.392-.34 2.288-.34h1.168v-.309c0-.865-.576-1.298-1.712-1.298-.288 0-.656.031-1.104.124-.432.077-.864.185-1.296.324l-.592-1.669a10.07 10.07 0 0 1 1.728-.464c.608-.108 1.168-.17 1.664-.17 1.28 0 2.24.263 2.864.757.64.51.944 1.236.944 2.225v3.291zm-4.064.912c.288 0 .592-.093.896-.263a1.52 1.52 0 0 0 .672-.664v-1.375h-.64c-.704 0-1.232.108-1.584.324a1.05 1.05 0 0 0-.512.943c0 .324.096.572.304.757s.496.278.864.278z"/><path id="Y" d="M350.507 591.053c.624 0 1.088.201 1.392.587.288.402.432 1.02.432 1.885v6.227h-2.224v-5.949c0-.294-.032-.51-.08-.618-.064-.124-.176-.185-.352-.185-.144 0-.288.046-.432.124s-.304.216-.464.417v6.212h-1.824v-5.949c0-.294-.032-.51-.096-.618-.064-.124-.176-.185-.336-.185a.93.93 0 0 0-.448.124c-.144.077-.304.216-.464.417v6.212h-2.256v-8.421h1.904l.176.819c.288-.371.56-.649.848-.819.272-.185.608-.278.976-.278.336 0 .624.093.848.247.224.17.384.417.48.757.608-.664 1.248-1.004 1.92-1.004z"/><path id="Z" d="M356.161 596.276c.08.664.304 1.143.672 1.452s.848.464 1.424.464c.736 0 1.488-.232 2.24-.695l1.04 1.375c-.432.355-.944.634-1.536.834-.592.216-1.232.309-1.952.309-.976 0-1.792-.185-2.48-.556a3.71 3.71 0 0 1-1.536-1.576c-.336-.664-.512-1.452-.512-2.333 0-.834.176-1.592.496-2.271.336-.695.832-1.221 1.472-1.622s1.392-.603 2.288-.603c.816 0 1.536.185 2.16.525a3.51 3.51 0 0 1 1.424 1.483c.336.649.496 1.422.496 2.318 0 .34-.016.634-.048.896h-5.648zm1.616-3.539c-.48 0-.864.17-1.136.494-.288.34-.448.85-.512 1.53h3.2c-.016-1.344-.528-2.024-1.552-2.024z"/><path id="a" d="M318.905 618.28c1.104 0 1.904.371 2.384 1.128.496.757.736 1.823.736 3.214 0 .85-.128 1.607-.368 2.271-.24.649-.624 1.159-1.12 1.53s-1.12.556-1.84.556c-.96 0-1.712-.324-2.288-.973v3.987l-1.376.155V618.45h1.168l.128 1.159a3.12 3.12 0 0 1 1.136-.989c.432-.232.912-.34 1.44-.34zm-.336 1.066c-.448 0-.848.124-1.216.386-.352.247-.672.572-.944.958v4.126c.24.34.512.587.864.773.336.185.72.278 1.12.278.72 0 1.264-.263 1.616-.804.352-.525.544-1.344.544-2.457 0-1.097-.16-1.916-.496-2.457-.32-.541-.816-.804-1.488-.804z"/><path id="b" d="M388.004 402.238c0 .324.096.556.288.711s.48.232.832.232c.4 0 .8-.093 1.232-.263l.624 1.684c-.72.355-1.568.541-2.512.541-1.024 0-1.792-.278-2.304-.85-.496-.556-.752-1.36-.752-2.364v-7.092h-2.576v-1.715h5.168v9.117z"/><path id="c" d="M40.628 227.365c0 1.051-.864 1.915-1.914 1.915s-1.914-.864-1.914-1.914.864-1.913 1.913-1.914 1.914.864 1.915 1.913z"/><path id="d" d="M64.278 278.32c-.378.331-.756.555-1.111.697a3.29 3.29 0 0 1-1.146.201c-.674 0-1.182-.165-1.548-.496a1.61 1.61 0 0 1-.544-1.264c0-.295.071-.567.201-.815.142-.248.319-.449.544-.603s.473-.26.744-.343c.201-.047.508-.106.922-.154.839-.095 1.453-.213 1.855-.355v-.272c0-.425-.095-.721-.284-.898-.272-.236-.662-.355-1.193-.355-.484 0-.839.095-1.075.26-.236.177-.402.473-.52.91l-1.016-.142c.095-.425.248-.78.461-1.052.213-.26.52-.473.91-.614.402-.142.874-.213 1.394-.213s.945.059 1.276.177c.331.13.567.284.721.473.154.177.26.414.319.697.035.177.059.496.059.969v1.383l.059 1.832c.047.248.142.496.272.733h-1.087c-.106-.213-.177-.473-.213-.756zm-.083-2.316c-.378.154-.945.284-1.702.39-.425.059-.721.13-.898.213-.177.071-.319.189-.414.331a.93.93 0 0 0-.142.496.89.89 0 0 0 .307.685c.213.189.52.284.922.284s.756-.095 1.075-.26a1.68 1.68 0 0 0 .685-.721c.106-.236.165-.579.165-1.04v-.378z"/><path id="e" d="M652.3 211.46v-6.412h.867l.083.891c.261-.321.582-.57.962-.748.392-.19.772-.273 1.164-.273.606 0 1.057.154 1.354.487.297.321.439.784.439 1.401v4.654h-1.021v-3.906c0-.475-.024-.843-.071-1.092-.059-.249-.154-.439-.309-.558-.166-.119-.392-.19-.712-.19-.344 0-.677.107-.974.321a2.89 2.89 0 0 0-.76.76v4.666H652.3z"/><path id="f" d="M664.696 211.139c-.214.142-.487.249-.796.332-.321.083-.629.131-.926.131-.451 0-.831-.083-1.164-.249-.321-.166-.558-.392-.736-.689-.166-.285-.249-.617-.249-.997v-3.823h-1.472v-.796h1.472v-1.46l1.021-.119v1.579h2.208l-.119.796h-2.09v3.811c0 .356.095.641.285.819s.511.273.938.273.843-.107 1.223-.309l.404.701z"/><path id="g" d="M677.301 211.507a5.69 5.69 0 0 1-.594 1.235 2.86 2.86 0 0 1-.902.867c-.38.237-.831.368-1.365.427l-.166-.819c.427-.071.772-.178 1.033-.321.261-.154.463-.332.606-.558s.285-.522.416-.879h-.344l-2.244-6.412h1.092l1.84 5.628 1.817-5.628h1.057l-2.244 6.459z"/><path id="h" d="M705.879 202.044c.214 0 .404.071.534.202a.69.69 0 0 1 .214.511.68.68 0 0 1-.214.522c-.131.142-.321.214-.534.214s-.392-.071-.534-.214-.202-.309-.202-.522a.68.68 0 0 1 .202-.511c.142-.131.321-.202.534-.202zm-2.125 3.004h2.933v5.604h1.817v.807h-4.809v-.807h1.971v-4.797h-1.912v-.807z"/><path id="i" d="M710.755 211.46v-6.412h.867l.083.891c.261-.321.582-.57.962-.748.392-.19.772-.273 1.164-.273.606 0 1.057.154 1.354.487.297.321.439.784.439 1.401v4.654h-1.021v-3.906c0-.475-.024-.843-.071-1.092-.059-.249-.154-.439-.309-.558-.166-.119-.392-.19-.712-.19-.344 0-.677.107-.974.321a2.89 2.89 0 0 0-.76.76v4.666h-1.021z"/><path id="j" d="M166.566 106.015l.015 2.226a.45.45 0 0 1-.148.341c-.104.089-.208.134-.341.134a.41.41 0 0 1-.341-.148.48.48 0 0 1-.148-.356v-2.3l-.03-2.137.015-1.558-.059-1.514-.148-1.514c-.015-.134.015-.267.104-.371a.47.47 0 0 1 .327-.193c.119-.015.252.015.356.089.104.089.178.193.193.327l.089.727c.43-.579.92-.905 1.469-.965a1.66 1.66 0 0 1 1.173.312 3.1 3.1 0 0 1 .891 1.009 4.85 4.85 0 0 1 .49 1.321 5.63 5.63 0 0 1 .104 1.499c-.045.519-.193 1.009-.46 1.484a3.28 3.28 0 0 1-1.143 1.158 2.45 2.45 0 0 1-.816.341c-.282.074-.549.119-.801.104-.252 0-.505 0-.787-.015zm-.015-.98c.386.045.742.045 1.054 0a1.97 1.97 0 0 0 .861-.282c.43-.267.742-.653.935-1.158a3.2 3.2 0 0 0 .193-1.544 3.65 3.65 0 0 0-.46-1.44c-.163-.312-.356-.534-.549-.668s-.386-.178-.564-.163c-.208.015-.445.163-.683.43-.267.282-.505.727-.757 1.336l-.03.059v2.167 1.262z"/><path id="k" d="M174.209 99.677l-.223-.059c-.059-.015-.104-.03-.134-.03-.386.015-.742.252-1.069.698-.341.46-.579 1.024-.712 1.722-.119.698-.089 1.336.074 1.9.163.579.46.965.876 1.187.519.252.994.208 1.425-.148.46-.371.787-.935.98-1.692.178-.727.163-1.425-.03-2.093-.208-.668-.609-1.158-1.187-1.484zm.356-.92c.074.015.134.059.178.104.416.237.757.534 1.039.905.267.386.46.772.564 1.173.104.416.178.846.193 1.291a3.93 3.93 0 0 1-.163 1.262c-.237.98-.683 1.722-1.321 2.226-.757.609-1.588.698-2.479.237-.341-.163-.638-.416-.876-.742-.252-.312-.416-.653-.505-1.039a5.88 5.88 0 0 1-.163-1.173c-.03-.416 0-.801.089-1.173.148-.846.43-1.558.861-2.137.519-.683 1.113-1.039 1.811-1.083h.015c.134-.059.252-.059.386-.015s.252.104.371.163z"/><path id="l" d="M181.912 97.689l1.395.03.163-1.826c.015-.134.074-.252.178-.341.104-.074.237-.119.371-.104a.48.48 0 0 1 .327.178c.074.104.119.223.104.356l-.163 1.707 1.158-.074c.134-.015.252.03.356.119s.148.193.163.327-.03.252-.119.356-.208.148-.341.163l-1.291.074c-.193 2.627-.163 4.571.074 5.863.074.327.163.564.282.698.119.148.223.223.327.237.119.015.267-.045.43-.178.163-.119.341-.327.505-.638.193-.119.371-.653.564-1.603.045-.134.119-.223.237-.297a.46.46 0 0 1 .371-.03.55.55 0 0 1 .297.252.46.46 0 0 1 .015.371c-.163.757-.371 1.336-.623 1.751-.223.43-.505.772-.831 1.024-.341.237-.683.341-1.054.312a1.33 1.33 0 0 1-.95-.534c-.267-.312-.43-.712-.519-1.202-.267-1.336-.297-3.339-.104-5.996a39.39 39.39 0 0 1-1.38-.03.53.53 0 0 1-.341-.163c-.089-.089-.134-.208-.119-.341a.53.53 0 0 1 .163-.341c.104-.089.223-.134.356-.119z"/><path id="m" d="M191.381 104.353l-.148-8.386a.53.53 0 0 1 .134-.356.43.43 0 0 1 .341-.148.53.53 0 0 1 .356.134.43.43 0 0 1 .148.341l.104 5.195.134-.267c.579-1.113 1.217-1.751 1.944-1.915.371-.089.698-.045.98.119.267.178.49.43.653.757.252.475.416 1.158.49 2.063l.059 1.187-.015 1.083-.045.98-.03.638a.43.43 0 0 1-.148.341.53.53 0 0 1-.356.134.43.43 0 0 1-.341-.148.53.53 0 0 1-.134-.356l.03-.668.045-.965.015-1.024-.059-1.113c-.074-.772-.193-1.351-.386-1.722-.134-.282-.327-.401-.549-.356-.416.104-.846.564-1.276 1.41-.341.653-.609 1.365-.816 2.152a5.02 5.02 0 0 0-.163 1.069l.015 1.232v.104c-.015.03-.015.059-.03.089-.015.045-.03.104-.074.148a.44.44 0 0 1-.579.148c-.104-.045-.193-.134-.252-.237-.015-.015-.015-.045-.03-.074 0-.015 0-.045-.015-.059v-.267c-.015-.178-.015-.327-.015-.46l.015-.801z"/><path id="n" d="M201.043 101.073c.059-.015.148-.015.267-.03-.045-.223-.134-.445-.282-.698-.163-.267-.327-.475-.519-.638s-.356-.237-.49-.237c-.416 0-.787.267-1.113.801-.148.252-.282.534-.386.846h1.38l1.143-.045zm-2.731 1.069l-.03.252c-.059.846.059 1.529.371 2.063.297.549.742.816 1.321.831.312.015.564-.03.757-.134s.46-.297.772-.594c.074-.074.148-.148.223-.252l.208-.267.208-.356.193-.312c.074-.119.193-.193.327-.223.134-.015.252 0 .371.074.104.074.178.193.208.327.015.134 0 .267-.074.371-.015.015-.089.104-.193.267l-.237.386-.267.371c-.104.148-.208.267-.312.341-.371.356-.727.609-1.039.772s-.712.237-1.173.223c-.519-.015-.95-.148-1.321-.401-.386-.252-.653-.579-.846-.98-.193-.386-.327-.816-.401-1.247s-.104-.891-.059-1.351c.074-.98.327-1.826.757-2.538.519-.861 1.173-1.291 1.944-1.276a1.53 1.53 0 0 1 1.054.416c.312.282.579.594.801.965.193.341.327.668.401.98.045.178.059.341.045.49a.81.81 0 0 1-.297.534c-.104.074-.237.119-.43.163l-.475.059-1.202.045h-1.603z"/><path id="o" d="M204.754 95.982c.045.727.059 2.954.059 6.709l.03 1.588.015 1.633a.43.43 0 0 1-.148.341.53.53 0 0 1-.356.134.43.43 0 0 1-.341-.148.53.53 0 0 1-.134-.356c.015-.341 0-.861-.015-1.573l-.03-1.618-.059-6.649c-.015-.134.03-.252.119-.356s.208-.148.341-.163.252.03.356.119.148.208.163.341z"/><path id="p" d="M545.212 98.965c-.134 1.351-.134 2.627 0 3.844.089.846.237 1.469.445 1.885.104.178.208.297.312.371a.44.44 0 0 0 .312.03l.015-.03c.015-.015.059-.059.119-.134l.163-.267c.163-.312.327-.727.505-1.262.267-.816.475-1.603.609-2.36l.163-1.187.015-.505v-.223c0-.03 0-.059.015-.074 0-.045.015-.089.059-.163a.44.44 0 0 1 .356-.237.51.51 0 0 1 .445.178l.089.178c.015.015.015.045.03.059v.059a19.41 19.41 0 0 1 .074 1.796v.876l.015.861.208 5.892c.015.134-.03.252-.119.356-.104.104-.223.148-.341.163-.134.015-.252-.03-.356-.119a.53.53 0 0 1-.163-.341l-.178-4.868c-.193.564-.371 1.024-.564 1.38-.282.519-.579.831-.92.92-.386.104-.742.045-1.054-.148-.267-.163-.49-.416-.668-.757-.267-.519-.445-1.262-.549-2.226a20.35 20.35 0 0 1-.015-4.037c.015-.134.074-.252.178-.341.089-.074.223-.119.356-.104s.252.059.341.163c.074.104.119.237.104.371z"/></defs></svg>