<?xml version="1.0" encoding="UTF-8" standalone="no"?>
<!DOCTYPE svg PUBLIC "-//W3C//DTD SVG 1.1//EN" "http://www.w3.org/Graphics/SVG/1.1/DTD/svg11.dtd">
<svg width="393px" height="306px" version="1.1" xmlns="http://www.w3.org/2000/svg" xmlns:xlink="http://www.w3.org/1999/xlink" xml:space="preserve" xmlns:serif="http://www.serif.com/" style="fill-rule:evenodd;clip-rule:evenodd;stroke-linejoin:round;stroke-miterlimit:2;">
    <g transform="matrix(1,0,0,1,-672.785,-253.263)">
        <g transform="matrix(1.65124,0,0,1.65124,-702.699,-567.835)">
            <g transform="matrix(1,0,0,1,917.267,497.263)">
                <path d="M48.4,57.827C45.9,57.827 43.7,56.627 42.9,56.127C42,55.627 41.7,54.427 42.2,53.527C42.7,52.627 43.9,52.327 44.8,52.827C47,54.027 48.7,54.327 50,53.727C51.6,53.027 53.8,50.527 55.4,43.127C56.8,36.427 56.9,27.527 53.8,23.727C52.9,22.527 51.7,22.027 50.2,22.027C46.6,22.027 45.6,24.527 45.6,25.927C45.6,26.327 45.7,28.027 47.2,28.027C47.5,28.027 47.9,27.927 48.2,27.527C48.5,27.127 48.6,26.627 48.5,26.027C48.3,25.027 49,24.027 50,23.827C51,23.627 52,24.327 52.2,25.327C52.5,27.027 52.2,28.727 51.1,29.927C50.1,31.127 48.6,31.827 47.1,31.827C44,31.827 41.8,29.327 41.8,25.927C41.8,24.027 42.6,22.127 43.9,20.727C45,19.627 46.9,18.227 50.2,18.227C52.8,18.227 55.1,19.327 56.7,21.327C60.8,26.427 60.5,36.627 59,43.827C57.5,51.127 55,55.527 51.5,57.127C50.5,57.727 49.4,57.827 48.4,57.827" style="fill:rgb(137,102,76);fill-rule:nonzero;"/>
                <path d="M28,25.827L26.1,39.227C21.2,39.227 20,48.327 21.4,56.727C21.5,57.527 26.9,58.427 26.9,58.427C25.9,53.127 27.3,50.527 27.3,50.527C27,55.227 27.6,60.027 35.7,60.027C43.2,60.027 47.3,57.427 47.7,50.527C48.9,28.527 28,25.827 28,25.827" style="fill:rgb(137,102,76);fill-rule:nonzero;"/>
            </g>
            <g transform="matrix(1,0,0,1,917.267,497.263)">
                <path d="M21.5,55.727C19.1,56.727 13.1,57.227 14.6,59.927L26.5,59.927C28.4,57.227 24.7,54.327 21.5,55.727" style="fill:rgb(224,172,126);fill-rule:nonzero;"/>
                <path d="M36.5,52.127C36.5,52.127 34.6,40.927 26.1,39.127C17.7,37.327 22.7,34.527 27,35.527C37.5,37.827 36.5,52.127 36.5,52.127" style="fill:rgb(224,172,126);fill-rule:nonzero;"/>
            </g>
            <g transform="matrix(1,0,0,1,917.267,497.263)">
                <path d="M25.9,34.527L16.4,34.527L10,55.027L13.2,58.527L25.9,34.527Z" style="fill:rgb(137,102,76);fill-rule:nonzero;"/>
            </g>
            <g transform="matrix(1,0,0,1,917.267,497.263)">
                <path d="M12.8,55.227C10.9,52.927 8,55.927 6.5,57.027C5.8,57.527 2,57.627 3.2,59.927L11.4,59.927C14,59.127 13.9,56.627 12.8,55.227" style="fill:rgb(224,172,126);fill-rule:nonzero;"/>
            </g>
            <g transform="matrix(1,0,0,1,917.267,497.263)">
                <circle cx="36.8" cy="19.127" r="5.9" style="fill:rgb(137,102,76);"/>
            </g>
            <g transform="matrix(1,0,0,1,917.267,497.263)">
                <circle cx="36.8" cy="19.127" r="3.8" style="fill:rgb(255,197,211);"/>
            </g>
            <g transform="matrix(1,0,0,1,917.267,497.263)">
                <circle cx="5.9" cy="19.127" r="5.9" style="fill:rgb(137,102,76);"/>
            </g>
            <g transform="matrix(1,0,0,1,917.267,497.263)">
                <circle cx="5.9" cy="19.127" r="3.8" style="fill:rgb(255,197,211);"/>
            </g>
            <g transform="matrix(1,0,0,1,917.267,497.263)">
                <path d="M29.4,3.327C30.2,2.927 30.7,2.727 30.7,2.727C28.4,1.927 26.4,1.427 24.7,1.227C25.6,0.527 26.2,0.327 26.2,0.327C11.7,-1.773 4.8,6.627 4.8,14.127L37.8,14.127C37.4,8.927 34.5,5.327 29.4,3.327" style="fill:rgb(137,102,76);fill-rule:nonzero;"/>
                <path d="M37.9,15.227C37.9,8.327 30.5,2.727 21.3,2.727C12.1,2.727 4.7,8.327 4.7,15.227C4.7,16.827 5.1,18.427 5.9,19.827C5.2,21.227 4.7,22.827 4.7,24.427C4.7,31.327 12.1,36.927 21.3,36.927C30.5,36.927 37.9,31.327 37.9,24.427C37.9,22.827 37.5,21.227 36.7,19.827C37.5,18.427 37.9,16.927 37.9,15.227" style="fill:rgb(137,102,76);fill-rule:nonzero;"/>
            </g>
            <g transform="matrix(1,0,0,1,917.267,497.263)">
                <path d="M35.6,15.727C35.6,3.727 21.4,11.327 21.4,11.327C21.4,11.327 7.1,3.727 7.1,15.727C7.1,19.127 9.2,22.127 12.4,24.027C11.5,25.227 10.9,26.627 10.9,28.027C10.9,32.327 15.6,35.827 21.3,35.827C27.1,35.827 31.7,32.327 31.7,28.027C31.7,26.527 31.1,25.127 30.2,24.027C33.5,22.127 35.6,19.127 35.6,15.727" style="fill:rgb(224,172,126);fill-rule:nonzero;"/>
            </g>
            <g transform="matrix(1,0,0,1,917.267,497.263)">
                <ellipse cx="22.9" cy="23.227" rx="0.7" ry="1.5" style="fill:rgb(59,48,42);"/>
                <ellipse cx="19.8" cy="23.227" rx="0.7" ry="1.5" style="fill:rgb(59,48,42);"/>
                <ellipse cx="27.5" cy="18.227" rx="2.5" ry="3.2" style="fill:rgb(59,48,42);"/>
                <ellipse cx="15.2" cy="18.227" rx="2.5" ry="3.2" style="fill:rgb(59,48,42);"/>
                <path d="M28.4,28.527C28.8,29.627 25.7,31.827 21.3,31.827C16.9,31.827 13.8,29.627 14.2,28.527C14.7,27.427 28,27.427 28.4,28.527" style="fill:rgb(59,48,42);fill-rule:nonzero;"/>
            </g>
        </g>
        <g transform="matrix(0.193593,0,0,0.193593,678.092,406.656)">
            <g transform="matrix(1,0,0,1,765.438,271.276)">
                <path d="M225.889,326.987L225.889,357.746C225.889,365.613 231.105,372.527 238.668,374.688L311.749,395.568C334.641,402.108 351.724,421.243 355.639,444.727L363.432,491.481C365.222,502.222 356.94,511.998 346.052,511.998L17.625,511.998C6.737,511.998 -1.546,502.221 0.245,491.481L8.038,444.727C11.952,421.242 29.035,402.108 51.928,395.568L125.009,374.688C132.574,372.526 137.788,365.612 137.788,357.746L137.788,326.987L225.889,326.987Z" style="fill:rgb(0,190,165);fill-rule:nonzero;"/>
            </g>
            <g transform="matrix(1,0,0,1,765.438,271.276)">
                <path d="M181.839,441.519C219.071,441.519 250.13,415.121 257.342,380.024L238.669,374.689C231.104,372.528 225.89,365.613 225.89,357.747L225.89,326.988L137.788,326.988L137.788,357.747C137.788,365.614 132.572,372.528 125.009,374.689L106.336,380.024C113.547,415.122 144.607,441.519 181.839,441.519Z" style="fill:rgb(180,135,100);fill-rule:nonzero;"/>
            </g>
            <g transform="matrix(1,0,0,1,765.438,271.276)">
                <path d="M225.889,335.798L201.661,326.988L137.788,326.988L137.788,357.747C137.788,365.614 132.572,372.528 125.009,374.689L106.336,380.024L106.336,380.025C180.605,415.443 225.889,335.798 225.889,335.798Z" style="fill:rgb(150,109,80);fill-rule:nonzero;"/>
            </g>
            <g transform="matrix(1,0,0,1,765.438,271.276)">
                <path d="M305.181,36.253C307.384,20.835 323.903,28.911 323.903,28.911C312.89,-28.355 197.992,20.835 197.992,20.835L208.638,9.822C155.135,-20.325 88.233,28.544 88.233,28.544C67.309,21.936 14.448,42.494 14.448,92.784C14.448,144.177 40.878,221.266 40.878,221.266L331.612,221.266C331.612,221.266 340.422,124.354 340.422,89.114C340.422,53.874 305.181,36.253 305.181,36.253Z" style="fill:rgb(85,55,50);fill-rule:nonzero;"/>
            </g>
            <g transform="matrix(1,0,0,1,765.438,271.276)">
                <path d="M323.902,28.911C287.56,-16.608 219.832,39.557 219.832,39.557C255.073,42.31 251.218,84.158 251.218,84.158C243.509,71.493 231.946,73.696 231.946,73.696C230.294,113.892 203.313,152.987 188.813,159.962L189.548,221.266L331.611,221.266C331.611,221.266 340.421,124.354 340.421,89.114C340.421,53.874 305.18,36.253 305.18,36.253C307.383,20.835 323.902,28.911 323.902,28.911Z" style="fill:rgb(100,70,60);fill-rule:nonzero;"/>
            </g>
            <g transform="matrix(1,0,0,1,765.438,271.276)">
                <path d="M313.991,203.646L313.991,124.355L49.687,124.355L49.687,203.646C39.956,203.646 32.067,211.534 32.067,221.266L32.067,238.886C32.067,248.617 39.956,256.506 49.687,256.506C50.173,256.506 50.629,256.401 51.104,256.363C56.376,285.956 76.494,311.28 105.067,322.709L149.118,340.329C170.122,348.731 193.554,348.731 214.559,340.329L258.61,322.709C287.185,311.28 307.303,285.956 312.573,256.363C313.049,256.402 313.505,256.506 313.99,256.506C323.721,256.506 331.61,248.617 331.61,238.886L331.61,221.266C331.611,211.534 323.722,203.646 313.991,203.646Z" style="fill:rgb(195,151,114);fill-rule:nonzero;"/>
            </g>
            <g transform="matrix(1,0,0,1,765.438,271.276)">
                <path d="M278.75,124.354L49.687,124.354L49.687,203.645C39.956,203.645 32.067,211.533 32.067,221.265L32.067,238.885C32.067,248.616 39.956,256.505 49.687,256.505C50.173,256.505 50.629,256.4 51.104,256.362C56.376,285.955 76.494,311.279 105.067,322.708L149.118,340.328C159.061,344.306 169.55,346.334 180.066,346.546C150.168,333.278 128.018,311.837 113.643,294.316C100.731,278.576 93.736,258.867 93.736,238.508L93.736,173.849C93.736,164.712 100.717,156.973 109.83,156.316C124.309,155.272 137.699,150.783 146.597,150.783C173.027,150.783 208.268,141.973 261.129,159.593C295.59,171.08 305.18,150.783 305.18,150.783L278.75,124.354Z" style="fill:rgb(180,135,100);fill-rule:nonzero;"/>
            </g>
            <g transform="matrix(1,0,0,1,765.438,271.276)">
                <path d="M58.497,203.646C58.497,203.646 58.497,159.595 84.927,133.165C84.927,133.165 102.042,139.625 137.788,133.165C160.639,129.035 164.953,133.165 164.953,133.165C164.953,133.165 163.117,151.336 137.788,159.595C137.788,159.595 164.218,177.215 190.649,150.785L188.813,159.962C188.813,159.962 216.711,165.468 241.674,136.101C241.674,136.101 251.219,135.366 261.13,141.974C278.422,153.502 296.371,146.868 296.371,146.868C296.371,146.868 313.991,168.404 313.991,203.645L331.611,203.645L331.611,106.733L40.876,106.733L40.876,203.645L58.496,203.645L58.496,203.646L58.497,203.646Z" style="fill:rgb(85,55,50);fill-rule:nonzero;"/>
            </g>
            <g transform="matrix(1,0,0,1,765.438,271.276)">
                <path d="M181.839,300.557C166.176,300.557 151.524,296.703 141.643,289.979C137.621,287.243 136.575,281.762 139.316,277.741C142.047,273.724 147.533,272.677 151.554,275.414C158.48,280.124 169.802,282.938 181.839,282.938C193.876,282.938 205.198,280.124 212.124,275.414C216.155,272.674 221.627,273.715 224.362,277.741C227.102,281.763 226.057,287.244 222.035,289.979C212.153,296.703 197.501,300.557 181.839,300.557Z" style="fill:rgb(150,109,80);fill-rule:nonzero;"/>
            </g>
            <g transform="matrix(1,0,0,1,765.438,271.276)">
                <path d="M241.674,136.102C241.674,136.102 251.219,135.367 261.13,141.976C278.422,153.504 296.371,146.87 296.371,146.87C296.371,146.87 313.991,168.406 313.991,203.647L331.611,203.647L331.611,106.735L225.305,106.735C216.019,133.37 199.223,154.956 188.815,159.963C188.813,159.962 216.711,165.468 241.674,136.102Z" style="fill:rgb(100,70,60);fill-rule:nonzero;"/>
            </g>
            <g transform="matrix(1,0,0,1,765.438,271.276)">
                <path d="M115.763,238.886C108.465,238.886 102.548,232.969 102.548,225.671L102.548,216.861C102.548,209.563 108.465,203.646 115.763,203.646C123.061,203.646 128.978,209.563 128.978,216.861L128.978,225.671C128.978,232.97 123.061,238.886 115.763,238.886Z" style="fill:rgb(90,65,55);fill-rule:nonzero;"/>
                <path d="M247.915,238.886C240.617,238.886 234.7,232.969 234.7,225.671L234.7,216.861C234.7,209.563 240.617,203.646 247.915,203.646C255.213,203.646 261.13,209.563 261.13,216.861L261.13,225.671C261.13,232.97 255.213,238.886 247.915,238.886Z" style="fill:rgb(90,65,55);fill-rule:nonzero;"/>
            </g>
            <g transform="matrix(1,0,0,1,765.438,271.276)">
                <path d="M181.839,459.14C226.146,459.14 264.775,427.972 274.274,384.863L257.352,380.028L257.342,380.026C250.13,415.121 219.071,441.52 181.839,441.52C144.607,441.52 113.548,415.122 106.336,380.026L106.326,380.028L89.404,384.863C98.902,427.971 137.53,459.14 181.839,459.14Z" style="fill:rgb(0,170,154);fill-rule:nonzero;"/>
                <path d="M26.87,409.893C17.136,418.986 10.312,431.074 8.037,444.729L0.244,491.483C-1.545,502.223 6.736,512 17.624,512L67.305,512L67.305,481.778C67.305,472.775 64.546,463.989 59.401,456.602L26.87,409.893Z" style="fill:rgb(0,170,154);fill-rule:nonzero;"/>
                <path d="M336.807,409.893C346.541,418.986 353.365,431.074 355.64,444.729L363.433,491.483C365.223,502.223 356.941,512 346.053,512L296.372,512L296.372,481.778C296.372,472.775 299.131,463.989 304.276,456.602L336.807,409.893Z" style="fill:rgb(0,170,154);fill-rule:nonzero;"/>
            </g>
        </g>
        <g transform="matrix(0.84508,0,0,0.84508,232.221,12.4148)">
            <g transform="matrix(29,0,0,29,530.73,313.024)">
                <path d="M0.436,-0.263L0.55,-0.219C0.532,-0.139 0.503,-0.08 0.461,-0.043C0.419,-0.006 0.368,0.012 0.307,0.012C0.231,0.012 0.169,-0.017 0.121,-0.076C0.066,-0.144 0.039,-0.236 0.039,-0.352C0.039,-0.474 0.067,-0.569 0.122,-0.638C0.169,-0.698 0.234,-0.728 0.314,-0.728C0.38,-0.728 0.435,-0.706 0.479,-0.661C0.511,-0.629 0.534,-0.581 0.549,-0.519L0.432,-0.484C0.424,-0.523 0.409,-0.553 0.387,-0.573C0.365,-0.594 0.338,-0.604 0.308,-0.604C0.265,-0.604 0.229,-0.586 0.202,-0.548C0.175,-0.51 0.161,-0.448 0.161,-0.361C0.161,-0.271 0.174,-0.207 0.201,-0.168C0.228,-0.13 0.263,-0.111 0.305,-0.111C0.336,-0.111 0.363,-0.123 0.386,-0.148C0.409,-0.172 0.425,-0.21 0.436,-0.263Z" style="fill-rule:nonzero;"/>
            </g>
            <g transform="matrix(29,0,0,29,547.893,313.024)">
                <rect x="0.059" y="-0.716" width="0.113" height="0.716" style="fill-rule:nonzero;"/>
            </g>
            <g transform="matrix(29,0,0,29,554.505,313.024)">
                <path d="M0.143,-0.36L0.041,-0.383C0.053,-0.435 0.074,-0.473 0.102,-0.496C0.131,-0.519 0.172,-0.53 0.225,-0.53C0.273,-0.53 0.309,-0.524 0.334,-0.51C0.359,-0.497 0.377,-0.479 0.388,-0.456C0.398,-0.433 0.404,-0.391 0.404,-0.331L0.403,-0.17C0.403,-0.125 0.405,-0.092 0.408,-0.07C0.412,-0.048 0.418,-0.025 0.428,-0L0.317,-0L0.302,-0.057C0.283,-0.034 0.262,-0.017 0.24,-0.005C0.219,0.006 0.195,0.012 0.17,0.012C0.129,0.012 0.095,-0.002 0.069,-0.03C0.042,-0.058 0.029,-0.095 0.029,-0.141C0.029,-0.17 0.035,-0.196 0.045,-0.218C0.056,-0.24 0.071,-0.257 0.091,-0.27C0.11,-0.283 0.142,-0.295 0.185,-0.305C0.237,-0.317 0.273,-0.328 0.293,-0.338C0.293,-0.367 0.291,-0.386 0.287,-0.395C0.283,-0.404 0.276,-0.411 0.265,-0.417C0.254,-0.422 0.239,-0.425 0.219,-0.425C0.199,-0.425 0.183,-0.421 0.171,-0.412C0.16,-0.403 0.15,-0.385 0.143,-0.36ZM0.293,-0.249C0.279,-0.243 0.257,-0.236 0.227,-0.229C0.192,-0.219 0.169,-0.209 0.158,-0.198C0.147,-0.187 0.142,-0.173 0.142,-0.155C0.142,-0.135 0.148,-0.119 0.16,-0.105C0.172,-0.092 0.187,-0.085 0.205,-0.085C0.221,-0.085 0.236,-0.09 0.252,-0.101C0.268,-0.112 0.278,-0.125 0.284,-0.14C0.29,-0.155 0.293,-0.182 0.293,-0.222L0.293,-0.249Z" style="fill-rule:nonzero;"/>
            </g>
            <g transform="matrix(29,0,0,29,567.731,313.024)">
                <path d="M0.02,-0.148L0.132,-0.169C0.142,-0.115 0.172,-0.087 0.223,-0.087C0.25,-0.087 0.27,-0.093 0.284,-0.103C0.297,-0.113 0.304,-0.127 0.304,-0.144C0.304,-0.155 0.301,-0.164 0.295,-0.17C0.289,-0.177 0.277,-0.183 0.258,-0.188C0.166,-0.212 0.107,-0.235 0.082,-0.257C0.051,-0.285 0.035,-0.323 0.035,-0.371C0.035,-0.419 0.05,-0.458 0.081,-0.487C0.112,-0.516 0.156,-0.53 0.214,-0.53C0.27,-0.53 0.312,-0.519 0.341,-0.498C0.37,-0.476 0.391,-0.441 0.402,-0.393L0.296,-0.369C0.287,-0.411 0.26,-0.432 0.216,-0.432C0.189,-0.432 0.169,-0.428 0.157,-0.42C0.146,-0.412 0.14,-0.401 0.14,-0.389C0.14,-0.377 0.145,-0.368 0.156,-0.36C0.167,-0.353 0.2,-0.341 0.256,-0.325C0.319,-0.308 0.361,-0.286 0.384,-0.261C0.406,-0.236 0.417,-0.203 0.417,-0.161C0.417,-0.111 0.4,-0.07 0.365,-0.037C0.331,-0.005 0.284,0.012 0.223,0.012C0.168,0.012 0.123,-0.002 0.088,-0.029C0.054,-0.056 0.031,-0.096 0.02,-0.148Z" style="fill-rule:nonzero;"/>
            </g>
            <g transform="matrix(29,0,0,29,580.957,313.024)">
                <path d="M0.306,-0.165L0.417,-0.142C0.403,-0.09 0.379,-0.051 0.348,-0.026C0.316,-0.001 0.278,0.012 0.232,0.012C0.17,0.012 0.121,-0.009 0.087,-0.051C0.047,-0.1 0.026,-0.168 0.026,-0.256C0.026,-0.343 0.047,-0.412 0.087,-0.464C0.122,-0.508 0.167,-0.53 0.221,-0.53C0.282,-0.53 0.33,-0.508 0.364,-0.463C0.404,-0.411 0.424,-0.336 0.424,-0.235L0.423,-0.22L0.142,-0.22C0.142,-0.179 0.151,-0.147 0.169,-0.125C0.187,-0.102 0.208,-0.091 0.233,-0.091C0.27,-0.091 0.294,-0.116 0.306,-0.165ZM0.312,-0.304C0.311,-0.344 0.302,-0.374 0.286,-0.395C0.27,-0.415 0.25,-0.425 0.228,-0.425C0.204,-0.425 0.184,-0.415 0.168,-0.394C0.151,-0.372 0.143,-0.342 0.144,-0.304L0.312,-0.304Z" style="fill-rule:nonzero;"/>
            </g>
            <g transform="matrix(29,0,0,29,600.795,313.024)">
                <path d="M0.054,-0L0.054,-0.716L0.167,-0.716L0.167,-0.458C0.184,-0.482 0.203,-0.5 0.223,-0.512C0.244,-0.524 0.266,-0.53 0.29,-0.53C0.34,-0.53 0.383,-0.508 0.417,-0.462C0.452,-0.417 0.469,-0.35 0.469,-0.262C0.469,-0.174 0.451,-0.107 0.416,-0.059C0.381,-0.012 0.339,0.012 0.291,0.012C0.267,0.012 0.243,0.004 0.219,-0.011C0.195,-0.026 0.175,-0.048 0.158,-0.076L0.158,-0L0.054,-0ZM0.166,-0.271C0.166,-0.226 0.17,-0.192 0.178,-0.168C0.187,-0.145 0.199,-0.127 0.214,-0.115C0.23,-0.103 0.246,-0.097 0.264,-0.097C0.288,-0.097 0.31,-0.11 0.327,-0.135C0.345,-0.161 0.354,-0.202 0.354,-0.258C0.354,-0.317 0.345,-0.36 0.327,-0.386C0.309,-0.412 0.287,-0.425 0.259,-0.425C0.233,-0.425 0.211,-0.413 0.193,-0.387C0.175,-0.362 0.166,-0.323 0.166,-0.271Z" style="fill-rule:nonzero;"/>
            </g>
            <g transform="matrix(29,0,0,29,615.323,313.024)">
                <path d="M0.143,-0.36L0.041,-0.383C0.053,-0.435 0.074,-0.473 0.102,-0.496C0.131,-0.519 0.172,-0.53 0.225,-0.53C0.273,-0.53 0.309,-0.524 0.334,-0.51C0.359,-0.497 0.377,-0.479 0.388,-0.456C0.398,-0.433 0.404,-0.391 0.404,-0.331L0.403,-0.17C0.403,-0.125 0.405,-0.092 0.408,-0.07C0.412,-0.048 0.418,-0.025 0.428,-0L0.317,-0L0.302,-0.057C0.283,-0.034 0.262,-0.017 0.24,-0.005C0.219,0.006 0.195,0.012 0.17,0.012C0.129,0.012 0.095,-0.002 0.069,-0.03C0.042,-0.058 0.029,-0.095 0.029,-0.141C0.029,-0.17 0.035,-0.196 0.045,-0.218C0.056,-0.24 0.071,-0.257 0.091,-0.27C0.11,-0.283 0.142,-0.295 0.185,-0.305C0.237,-0.317 0.273,-0.328 0.293,-0.338C0.293,-0.367 0.291,-0.386 0.287,-0.395C0.283,-0.404 0.276,-0.411 0.265,-0.417C0.254,-0.422 0.239,-0.425 0.219,-0.425C0.199,-0.425 0.183,-0.421 0.171,-0.412C0.16,-0.403 0.15,-0.385 0.143,-0.36ZM0.293,-0.249C0.279,-0.243 0.257,-0.236 0.227,-0.229C0.192,-0.219 0.169,-0.209 0.158,-0.198C0.147,-0.187 0.142,-0.173 0.142,-0.155C0.142,-0.135 0.148,-0.119 0.16,-0.105C0.172,-0.092 0.187,-0.085 0.205,-0.085C0.221,-0.085 0.236,-0.09 0.252,-0.101C0.268,-0.112 0.278,-0.125 0.284,-0.14C0.29,-0.155 0.293,-0.182 0.293,-0.222L0.293,-0.249Z" style="fill-rule:nonzero;"/>
            </g>
            <g transform="matrix(29,0,0,29,628.549,313.024)">
                <path d="M0.02,-0.148L0.132,-0.169C0.142,-0.115 0.172,-0.087 0.223,-0.087C0.25,-0.087 0.27,-0.093 0.284,-0.103C0.297,-0.113 0.304,-0.127 0.304,-0.144C0.304,-0.155 0.301,-0.164 0.295,-0.17C0.289,-0.177 0.277,-0.183 0.258,-0.188C0.166,-0.212 0.107,-0.235 0.082,-0.257C0.051,-0.285 0.035,-0.323 0.035,-0.371C0.035,-0.419 0.05,-0.458 0.081,-0.487C0.112,-0.516 0.156,-0.53 0.214,-0.53C0.27,-0.53 0.312,-0.519 0.341,-0.498C0.37,-0.476 0.391,-0.441 0.402,-0.393L0.296,-0.369C0.287,-0.411 0.26,-0.432 0.216,-0.432C0.189,-0.432 0.169,-0.428 0.157,-0.42C0.146,-0.412 0.14,-0.401 0.14,-0.389C0.14,-0.377 0.145,-0.368 0.156,-0.36C0.167,-0.353 0.2,-0.341 0.256,-0.325C0.319,-0.308 0.361,-0.286 0.384,-0.261C0.406,-0.236 0.417,-0.203 0.417,-0.161C0.417,-0.111 0.4,-0.07 0.365,-0.037C0.331,-0.005 0.284,0.012 0.223,0.012C0.168,0.012 0.123,-0.002 0.088,-0.029C0.054,-0.056 0.031,-0.096 0.02,-0.148Z" style="fill-rule:nonzero;"/>
            </g>
            <g transform="matrix(29,0,0,29,641.774,313.024)">
                <path d="M0.306,-0.165L0.417,-0.142C0.403,-0.09 0.379,-0.051 0.348,-0.026C0.316,-0.001 0.278,0.012 0.232,0.012C0.17,0.012 0.121,-0.009 0.087,-0.051C0.047,-0.1 0.026,-0.168 0.026,-0.256C0.026,-0.343 0.047,-0.412 0.087,-0.464C0.122,-0.508 0.167,-0.53 0.221,-0.53C0.282,-0.53 0.33,-0.508 0.364,-0.463C0.404,-0.411 0.424,-0.336 0.424,-0.235L0.423,-0.22L0.142,-0.22C0.142,-0.179 0.151,-0.147 0.169,-0.125C0.187,-0.102 0.208,-0.091 0.233,-0.091C0.27,-0.091 0.294,-0.116 0.306,-0.165ZM0.312,-0.304C0.311,-0.344 0.302,-0.374 0.286,-0.395C0.27,-0.415 0.25,-0.425 0.228,-0.425C0.204,-0.425 0.184,-0.415 0.168,-0.394C0.151,-0.372 0.143,-0.342 0.144,-0.304L0.312,-0.304Z" style="fill-rule:nonzero;"/>
            </g>
            <rect x="530.73" y="316.097" width="124.27" height="2.124"/>
            <g transform="matrix(29,0,0,29,536.026,354.024)">
                <path d="M0.037,-0.23L0.11,-0.238C0.114,-0.198 0.123,-0.168 0.137,-0.146C0.151,-0.124 0.171,-0.106 0.196,-0.093C0.222,-0.079 0.251,-0.073 0.283,-0.073C0.329,-0.073 0.365,-0.084 0.391,-0.107C0.416,-0.129 0.429,-0.159 0.429,-0.195C0.429,-0.216 0.425,-0.234 0.415,-0.25C0.406,-0.266 0.392,-0.279 0.373,-0.289C0.355,-0.299 0.314,-0.313 0.252,-0.332C0.197,-0.348 0.157,-0.364 0.134,-0.381C0.11,-0.397 0.092,-0.419 0.079,-0.444C0.066,-0.47 0.06,-0.499 0.06,-0.531C0.06,-0.589 0.078,-0.636 0.116,-0.673C0.153,-0.71 0.204,-0.728 0.267,-0.728C0.311,-0.728 0.349,-0.719 0.382,-0.702C0.414,-0.685 0.44,-0.66 0.458,-0.628C0.476,-0.596 0.486,-0.558 0.487,-0.514L0.412,-0.507C0.408,-0.554 0.394,-0.588 0.37,-0.611C0.346,-0.633 0.313,-0.645 0.27,-0.645C0.226,-0.645 0.192,-0.635 0.169,-0.615C0.146,-0.595 0.134,-0.57 0.134,-0.539C0.134,-0.51 0.143,-0.487 0.16,-0.471C0.177,-0.455 0.215,-0.439 0.274,-0.423C0.332,-0.407 0.373,-0.393 0.396,-0.381C0.432,-0.363 0.459,-0.339 0.477,-0.309C0.495,-0.28 0.504,-0.244 0.504,-0.203C0.504,-0.162 0.495,-0.124 0.476,-0.091C0.456,-0.057 0.43,-0.031 0.397,-0.014C0.364,0.004 0.324,0.013 0.278,0.013C0.205,0.013 0.147,-0.009 0.104,-0.053C0.061,-0.096 0.039,-0.155 0.037,-0.23Z" style="fill-rule:nonzero;"/>
            </g>
            <g transform="matrix(29,0,0,29,551.886,354.024)">
                <path d="M0.332,-0L0.332,-0.076C0.315,-0.047 0.295,-0.025 0.273,-0.01C0.25,0.004 0.225,0.012 0.197,0.012C0.163,0.012 0.135,0.003 0.111,-0.015C0.087,-0.033 0.071,-0.056 0.063,-0.084C0.055,-0.112 0.051,-0.149 0.051,-0.197L0.051,-0.519L0.123,-0.519L0.123,-0.231C0.123,-0.178 0.126,-0.142 0.131,-0.124C0.136,-0.106 0.146,-0.091 0.161,-0.08C0.175,-0.069 0.192,-0.064 0.21,-0.064C0.245,-0.064 0.273,-0.078 0.295,-0.106C0.314,-0.131 0.324,-0.176 0.324,-0.241L0.324,-0.519L0.396,-0.519L0.396,-0L0.332,-0Z" style="fill-rule:nonzero;"/>
            </g>
            <g transform="matrix(29,0,0,29,565.111,354.024)">
                <path d="M0.053,0.199L0.053,-0.519L0.119,-0.519L0.119,-0.451C0.135,-0.479 0.153,-0.499 0.173,-0.512C0.193,-0.524 0.215,-0.53 0.241,-0.53C0.275,-0.53 0.305,-0.52 0.332,-0.5C0.359,-0.481 0.381,-0.45 0.397,-0.41C0.414,-0.369 0.422,-0.321 0.422,-0.264C0.422,-0.175 0.403,-0.108 0.366,-0.06C0.33,-0.012 0.286,0.012 0.236,0.012C0.214,0.012 0.194,0.006 0.174,-0.005C0.155,-0.017 0.139,-0.033 0.125,-0.054L0.125,0.199L0.053,0.199ZM0.118,-0.256C0.118,-0.189 0.129,-0.14 0.151,-0.108C0.174,-0.076 0.201,-0.061 0.233,-0.061C0.264,-0.061 0.29,-0.077 0.313,-0.11C0.337,-0.143 0.348,-0.194 0.348,-0.262C0.348,-0.33 0.337,-0.38 0.314,-0.413C0.292,-0.445 0.265,-0.461 0.232,-0.461C0.203,-0.461 0.177,-0.444 0.153,-0.409C0.13,-0.374 0.118,-0.323 0.118,-0.256Z" style="fill-rule:nonzero;"/>
            </g>
            <g transform="matrix(29,0,0,29,578.337,354.024)">
                <path d="M0.344,-0.167L0.418,-0.156C0.406,-0.1 0.383,-0.059 0.351,-0.031C0.318,-0.002 0.278,0.012 0.23,0.012C0.17,0.012 0.122,-0.011 0.084,-0.057C0.047,-0.103 0.028,-0.169 0.028,-0.255C0.028,-0.344 0.047,-0.413 0.085,-0.46C0.122,-0.507 0.17,-0.53 0.228,-0.53C0.283,-0.53 0.328,-0.507 0.365,-0.461C0.402,-0.415 0.42,-0.348 0.42,-0.26L0.42,-0.237L0.103,-0.237C0.105,-0.179 0.119,-0.135 0.143,-0.105C0.167,-0.075 0.196,-0.061 0.231,-0.061C0.285,-0.061 0.323,-0.096 0.344,-0.167ZM0.107,-0.309L0.344,-0.309C0.341,-0.354 0.331,-0.388 0.315,-0.41C0.292,-0.442 0.263,-0.458 0.227,-0.458C0.195,-0.458 0.167,-0.445 0.145,-0.418C0.122,-0.391 0.109,-0.355 0.107,-0.309Z" style="fill-rule:nonzero;"/>
            </g>
            <g transform="matrix(29,0,0,29,591.562,354.024)">
                <path d="M0.053,-0L0.053,-0.519L0.118,-0.519L0.118,-0.44C0.134,-0.476 0.149,-0.501 0.163,-0.512C0.177,-0.524 0.193,-0.53 0.21,-0.53C0.234,-0.53 0.259,-0.521 0.284,-0.502L0.259,-0.42C0.241,-0.433 0.224,-0.439 0.207,-0.439C0.192,-0.439 0.178,-0.434 0.165,-0.423C0.152,-0.413 0.143,-0.398 0.138,-0.378C0.129,-0.345 0.125,-0.309 0.125,-0.271L0.125,-0L0.053,-0Z" style="fill-rule:nonzero;"/>
            </g>
            <g transform="matrix(29,0,0,29,599.478,354.024)">
                <path d="M0.332,-0.19L0.402,-0.179C0.394,-0.117 0.374,-0.07 0.341,-0.037C0.308,-0.005 0.269,0.012 0.223,0.012C0.167,0.012 0.122,-0.011 0.086,-0.057C0.05,-0.103 0.032,-0.17 0.032,-0.26C0.032,-0.35 0.05,-0.418 0.086,-0.463C0.122,-0.508 0.169,-0.53 0.226,-0.53C0.27,-0.53 0.307,-0.517 0.337,-0.489C0.367,-0.462 0.387,-0.421 0.395,-0.366L0.325,-0.353C0.318,-0.388 0.306,-0.414 0.29,-0.432C0.273,-0.449 0.252,-0.458 0.229,-0.458C0.193,-0.458 0.164,-0.442 0.14,-0.411C0.117,-0.379 0.105,-0.33 0.105,-0.261C0.105,-0.191 0.117,-0.139 0.139,-0.108C0.161,-0.076 0.19,-0.061 0.225,-0.061C0.252,-0.061 0.275,-0.071 0.295,-0.092C0.314,-0.113 0.326,-0.146 0.332,-0.19Z" style="fill-rule:nonzero;"/>
            </g>
            <g transform="matrix(29,0,0,29,611.373,354.024)">
                <rect x="0.051" y="-0.716" width="0.072" height="0.716" style="fill-rule:nonzero;"/>
            </g>
            <g transform="matrix(29,0,0,29,616.654,354.024)">
                <path d="M0.33,-0.064C0.306,-0.039 0.281,-0.02 0.255,-0.007C0.229,0.005 0.202,0.012 0.174,0.012C0.13,0.012 0.094,-0.002 0.068,-0.028C0.042,-0.055 0.028,-0.091 0.028,-0.136C0.028,-0.166 0.035,-0.193 0.047,-0.216C0.059,-0.239 0.076,-0.257 0.098,-0.27C0.119,-0.283 0.152,-0.293 0.195,-0.299C0.254,-0.307 0.297,-0.317 0.324,-0.329L0.325,-0.352C0.325,-0.387 0.318,-0.412 0.306,-0.426C0.288,-0.447 0.26,-0.458 0.223,-0.458C0.19,-0.458 0.165,-0.451 0.148,-0.437C0.131,-0.423 0.119,-0.397 0.111,-0.359L0.041,-0.371C0.051,-0.426 0.071,-0.467 0.102,-0.492C0.133,-0.518 0.177,-0.53 0.234,-0.53C0.278,-0.53 0.313,-0.522 0.339,-0.505C0.364,-0.488 0.38,-0.468 0.387,-0.443C0.394,-0.418 0.397,-0.382 0.397,-0.334L0.397,-0.217C0.397,-0.135 0.399,-0.084 0.402,-0.062C0.405,-0.041 0.411,-0.02 0.42,-0L0.345,-0C0.337,-0.018 0.332,-0.039 0.33,-0.064ZM0.324,-0.26C0.298,-0.247 0.259,-0.236 0.207,-0.227C0.176,-0.222 0.155,-0.216 0.143,-0.209C0.131,-0.203 0.122,-0.193 0.115,-0.181C0.108,-0.169 0.105,-0.155 0.105,-0.139C0.105,-0.114 0.113,-0.094 0.128,-0.079C0.143,-0.065 0.164,-0.057 0.191,-0.057C0.217,-0.057 0.24,-0.064 0.261,-0.077C0.282,-0.09 0.298,-0.108 0.309,-0.131C0.319,-0.153 0.324,-0.185 0.324,-0.228L0.324,-0.26Z" style="fill-rule:nonzero;"/>
            </g>
            <g transform="matrix(29,0,0,29,629.88,354.024)">
                <path d="M0.025,-0.155L0.097,-0.168C0.101,-0.132 0.112,-0.105 0.131,-0.087C0.15,-0.069 0.175,-0.061 0.207,-0.061C0.238,-0.061 0.262,-0.068 0.279,-0.084C0.296,-0.099 0.305,-0.119 0.305,-0.143C0.305,-0.163 0.297,-0.179 0.283,-0.19C0.273,-0.198 0.248,-0.208 0.209,-0.22C0.153,-0.237 0.116,-0.252 0.097,-0.264C0.078,-0.276 0.064,-0.292 0.053,-0.312C0.043,-0.332 0.038,-0.355 0.038,-0.381C0.038,-0.425 0.052,-0.461 0.08,-0.489C0.108,-0.516 0.148,-0.53 0.198,-0.53C0.229,-0.53 0.257,-0.525 0.281,-0.513C0.305,-0.502 0.323,-0.486 0.336,-0.467C0.349,-0.448 0.357,-0.421 0.362,-0.385L0.292,-0.373C0.285,-0.43 0.255,-0.458 0.2,-0.458C0.168,-0.458 0.145,-0.452 0.13,-0.439C0.115,-0.427 0.107,-0.411 0.107,-0.391C0.107,-0.372 0.114,-0.357 0.129,-0.346C0.138,-0.339 0.164,-0.329 0.207,-0.314C0.267,-0.295 0.305,-0.28 0.323,-0.269C0.34,-0.258 0.354,-0.242 0.364,-0.223C0.374,-0.204 0.378,-0.181 0.378,-0.154C0.378,-0.104 0.363,-0.064 0.331,-0.034C0.3,-0.003 0.257,0.012 0.203,0.012C0.101,0.012 0.042,-0.043 0.025,-0.155Z" style="fill-rule:nonzero;"/>
            </g>
            <g transform="matrix(29,0,0,29,641.774,354.024)">
                <path d="M0.344,-0.167L0.418,-0.156C0.406,-0.1 0.383,-0.059 0.351,-0.031C0.318,-0.002 0.278,0.012 0.23,0.012C0.17,0.012 0.122,-0.011 0.084,-0.057C0.047,-0.103 0.028,-0.169 0.028,-0.255C0.028,-0.344 0.047,-0.413 0.085,-0.46C0.122,-0.507 0.17,-0.53 0.228,-0.53C0.283,-0.53 0.328,-0.507 0.365,-0.461C0.402,-0.415 0.42,-0.348 0.42,-0.26L0.42,-0.237L0.103,-0.237C0.105,-0.179 0.119,-0.135 0.143,-0.105C0.167,-0.075 0.196,-0.061 0.231,-0.061C0.285,-0.061 0.323,-0.096 0.344,-0.167ZM0.107,-0.309L0.344,-0.309C0.341,-0.354 0.331,-0.388 0.315,-0.41C0.292,-0.442 0.263,-0.458 0.227,-0.458C0.195,-0.458 0.167,-0.445 0.145,-0.418C0.122,-0.391 0.109,-0.355 0.107,-0.309Z" style="fill-rule:nonzero;"/>
            </g>
            <g transform="matrix(29,0,0,29,520.195,395.024)">
                <path d="M0.48,-0.251L0.558,-0.227C0.541,-0.147 0.511,-0.087 0.468,-0.047C0.424,-0.008 0.372,0.012 0.31,0.012C0.256,0.012 0.209,-0.001 0.171,-0.028C0.132,-0.054 0.101,-0.097 0.076,-0.155C0.051,-0.214 0.039,-0.283 0.039,-0.363C0.039,-0.442 0.051,-0.508 0.076,-0.563C0.101,-0.617 0.134,-0.658 0.176,-0.686C0.218,-0.714 0.265,-0.728 0.316,-0.728C0.373,-0.728 0.422,-0.71 0.462,-0.675C0.503,-0.64 0.532,-0.588 0.548,-0.52L0.472,-0.498C0.446,-0.597 0.393,-0.647 0.315,-0.647C0.276,-0.647 0.242,-0.637 0.213,-0.617C0.185,-0.597 0.162,-0.566 0.145,-0.523C0.128,-0.481 0.119,-0.428 0.119,-0.363C0.119,-0.265 0.136,-0.191 0.171,-0.142C0.205,-0.093 0.251,-0.069 0.309,-0.069C0.351,-0.069 0.387,-0.084 0.418,-0.114C0.449,-0.144 0.47,-0.19 0.48,-0.251Z" style="fill-rule:nonzero;"/>
            </g>
            <g transform="matrix(29,0,0,29,537.357,395.024)">
                <rect x="0.051" y="-0.716" width="0.072" height="0.716" style="fill-rule:nonzero;"/>
            </g>
            <g transform="matrix(29,0,0,29,542.639,395.024)">
                <path d="M0.33,-0.064C0.306,-0.039 0.281,-0.02 0.255,-0.007C0.229,0.005 0.202,0.012 0.174,0.012C0.13,0.012 0.094,-0.002 0.068,-0.028C0.042,-0.055 0.028,-0.091 0.028,-0.136C0.028,-0.166 0.035,-0.193 0.047,-0.216C0.059,-0.239 0.076,-0.257 0.098,-0.27C0.119,-0.283 0.152,-0.293 0.195,-0.299C0.254,-0.307 0.297,-0.317 0.324,-0.329L0.325,-0.352C0.325,-0.387 0.318,-0.412 0.306,-0.426C0.288,-0.447 0.26,-0.458 0.223,-0.458C0.19,-0.458 0.165,-0.451 0.148,-0.437C0.131,-0.423 0.119,-0.397 0.111,-0.359L0.041,-0.371C0.051,-0.426 0.071,-0.467 0.102,-0.492C0.133,-0.518 0.177,-0.53 0.234,-0.53C0.278,-0.53 0.313,-0.522 0.339,-0.505C0.364,-0.488 0.38,-0.468 0.387,-0.443C0.394,-0.418 0.397,-0.382 0.397,-0.334L0.397,-0.217C0.397,-0.135 0.399,-0.084 0.402,-0.062C0.405,-0.041 0.411,-0.02 0.42,-0L0.345,-0C0.337,-0.018 0.332,-0.039 0.33,-0.064ZM0.324,-0.26C0.298,-0.247 0.259,-0.236 0.207,-0.227C0.176,-0.222 0.155,-0.216 0.143,-0.209C0.131,-0.203 0.122,-0.193 0.115,-0.181C0.108,-0.169 0.105,-0.155 0.105,-0.139C0.105,-0.114 0.113,-0.094 0.128,-0.079C0.143,-0.065 0.164,-0.057 0.191,-0.057C0.217,-0.057 0.24,-0.064 0.261,-0.077C0.282,-0.09 0.298,-0.108 0.309,-0.131C0.319,-0.153 0.324,-0.185 0.324,-0.228L0.324,-0.26Z" style="fill-rule:nonzero;"/>
            </g>
            <g transform="matrix(29,0,0,29,555.865,395.024)">
                <path d="M0.025,-0.155L0.097,-0.168C0.101,-0.132 0.112,-0.105 0.131,-0.087C0.15,-0.069 0.175,-0.061 0.207,-0.061C0.238,-0.061 0.262,-0.068 0.279,-0.084C0.296,-0.099 0.305,-0.119 0.305,-0.143C0.305,-0.163 0.297,-0.179 0.283,-0.19C0.273,-0.198 0.248,-0.208 0.209,-0.22C0.153,-0.237 0.116,-0.252 0.097,-0.264C0.078,-0.276 0.064,-0.292 0.053,-0.312C0.043,-0.332 0.038,-0.355 0.038,-0.381C0.038,-0.425 0.052,-0.461 0.08,-0.489C0.108,-0.516 0.148,-0.53 0.198,-0.53C0.229,-0.53 0.257,-0.525 0.281,-0.513C0.305,-0.502 0.323,-0.486 0.336,-0.467C0.349,-0.448 0.357,-0.421 0.362,-0.385L0.292,-0.373C0.285,-0.43 0.255,-0.458 0.2,-0.458C0.168,-0.458 0.145,-0.452 0.13,-0.439C0.115,-0.427 0.107,-0.411 0.107,-0.391C0.107,-0.372 0.114,-0.357 0.129,-0.346C0.138,-0.339 0.164,-0.329 0.207,-0.314C0.267,-0.295 0.305,-0.28 0.323,-0.269C0.34,-0.258 0.354,-0.242 0.364,-0.223C0.374,-0.204 0.378,-0.181 0.378,-0.154C0.378,-0.104 0.363,-0.064 0.331,-0.034C0.3,-0.003 0.257,0.012 0.203,0.012C0.101,0.012 0.042,-0.043 0.025,-0.155Z" style="fill-rule:nonzero;"/>
            </g>
            <g transform="matrix(29,0,0,29,567.759,395.024)">
                <path d="M0.344,-0.167L0.418,-0.156C0.406,-0.1 0.383,-0.059 0.351,-0.031C0.318,-0.002 0.278,0.012 0.23,0.012C0.17,0.012 0.122,-0.011 0.084,-0.057C0.047,-0.103 0.028,-0.169 0.028,-0.255C0.028,-0.344 0.047,-0.413 0.085,-0.46C0.122,-0.507 0.17,-0.53 0.228,-0.53C0.283,-0.53 0.328,-0.507 0.365,-0.461C0.402,-0.415 0.42,-0.348 0.42,-0.26L0.42,-0.237L0.103,-0.237C0.105,-0.179 0.119,-0.135 0.143,-0.105C0.167,-0.075 0.196,-0.061 0.231,-0.061C0.285,-0.061 0.323,-0.096 0.344,-0.167ZM0.107,-0.309L0.344,-0.309C0.341,-0.354 0.331,-0.388 0.315,-0.41C0.292,-0.442 0.263,-0.458 0.227,-0.458C0.195,-0.458 0.167,-0.445 0.145,-0.418C0.122,-0.391 0.109,-0.355 0.107,-0.309Z" style="fill-rule:nonzero;"/>
            </g>
            <g transform="matrix(29,0,0,29,587.598,395.024)">
                <path d="M0.054,-0L0.054,-0.519L0.118,-0.519L0.118,-0.446C0.132,-0.473 0.151,-0.494 0.173,-0.508C0.196,-0.523 0.22,-0.53 0.247,-0.53C0.277,-0.53 0.302,-0.523 0.323,-0.507C0.344,-0.492 0.358,-0.469 0.367,-0.439C0.384,-0.47 0.404,-0.492 0.426,-0.508C0.448,-0.523 0.472,-0.53 0.499,-0.53C0.539,-0.53 0.571,-0.516 0.595,-0.489C0.618,-0.461 0.63,-0.417 0.63,-0.356L0.63,-0L0.558,-0L0.558,-0.327C0.558,-0.364 0.555,-0.39 0.55,-0.406C0.545,-0.421 0.536,-0.433 0.524,-0.441C0.512,-0.45 0.498,-0.454 0.483,-0.454C0.452,-0.454 0.427,-0.442 0.408,-0.417C0.388,-0.393 0.378,-0.354 0.378,-0.301L0.378,-0L0.306,-0L0.306,-0.337C0.306,-0.38 0.3,-0.41 0.286,-0.428C0.273,-0.445 0.255,-0.454 0.232,-0.454C0.199,-0.454 0.173,-0.441 0.154,-0.414C0.135,-0.388 0.125,-0.339 0.125,-0.269L0.125,-0L0.054,-0Z" style="fill-rule:nonzero;"/>
            </g>
            <g transform="matrix(29,0,0,29,607.408,395.024)">
                <path d="M0.33,-0.064C0.306,-0.039 0.281,-0.02 0.255,-0.007C0.229,0.005 0.202,0.012 0.174,0.012C0.13,0.012 0.094,-0.002 0.068,-0.028C0.042,-0.055 0.028,-0.091 0.028,-0.136C0.028,-0.166 0.035,-0.193 0.047,-0.216C0.059,-0.239 0.076,-0.257 0.098,-0.27C0.119,-0.283 0.152,-0.293 0.195,-0.299C0.254,-0.307 0.297,-0.317 0.324,-0.329L0.325,-0.352C0.325,-0.387 0.318,-0.412 0.306,-0.426C0.288,-0.447 0.26,-0.458 0.223,-0.458C0.19,-0.458 0.165,-0.451 0.148,-0.437C0.131,-0.423 0.119,-0.397 0.111,-0.359L0.041,-0.371C0.051,-0.426 0.071,-0.467 0.102,-0.492C0.133,-0.518 0.177,-0.53 0.234,-0.53C0.278,-0.53 0.313,-0.522 0.339,-0.505C0.364,-0.488 0.38,-0.468 0.387,-0.443C0.394,-0.418 0.397,-0.382 0.397,-0.334L0.397,-0.217C0.397,-0.135 0.399,-0.084 0.402,-0.062C0.405,-0.041 0.411,-0.02 0.42,-0L0.345,-0C0.337,-0.018 0.332,-0.039 0.33,-0.064ZM0.324,-0.26C0.298,-0.247 0.259,-0.236 0.207,-0.227C0.176,-0.222 0.155,-0.216 0.143,-0.209C0.131,-0.203 0.122,-0.193 0.115,-0.181C0.108,-0.169 0.105,-0.155 0.105,-0.139C0.105,-0.114 0.113,-0.094 0.128,-0.079C0.143,-0.065 0.164,-0.057 0.191,-0.057C0.217,-0.057 0.24,-0.064 0.261,-0.077C0.282,-0.09 0.298,-0.108 0.309,-0.131C0.319,-0.153 0.324,-0.185 0.324,-0.228L0.324,-0.26Z" style="fill-rule:nonzero;"/>
            </g>
            <g transform="matrix(29,0,0,29,620.633,395.024)">
                <path d="M0.329,-0L0.329,-0.065C0.316,-0.04 0.299,-0.021 0.278,-0.008C0.258,0.005 0.236,0.012 0.212,0.012C0.162,0.012 0.118,-0.012 0.082,-0.059C0.045,-0.107 0.027,-0.173 0.027,-0.259C0.027,-0.318 0.035,-0.368 0.051,-0.409C0.068,-0.45 0.089,-0.481 0.116,-0.5C0.144,-0.52 0.174,-0.53 0.207,-0.53C0.231,-0.53 0.253,-0.524 0.273,-0.511C0.294,-0.499 0.31,-0.481 0.324,-0.459L0.324,-0.716L0.396,-0.716L0.396,-0L0.329,-0ZM0.101,-0.259C0.101,-0.192 0.112,-0.142 0.135,-0.109C0.159,-0.077 0.186,-0.061 0.217,-0.061C0.247,-0.061 0.274,-0.076 0.296,-0.107C0.319,-0.139 0.33,-0.186 0.33,-0.249C0.33,-0.322 0.319,-0.375 0.296,-0.408C0.274,-0.441 0.246,-0.458 0.211,-0.458C0.181,-0.458 0.155,-0.442 0.133,-0.41C0.111,-0.378 0.101,-0.327 0.101,-0.259Z" style="fill-rule:nonzero;"/>
            </g>
            <g transform="matrix(29,0,0,29,633.859,395.024)">
                <path d="M0.053,-0L0.053,-0.519L0.118,-0.519L0.118,-0.44C0.134,-0.476 0.149,-0.501 0.163,-0.512C0.177,-0.524 0.193,-0.53 0.21,-0.53C0.234,-0.53 0.259,-0.521 0.284,-0.502L0.259,-0.42C0.241,-0.433 0.224,-0.439 0.207,-0.439C0.192,-0.439 0.178,-0.434 0.165,-0.423C0.152,-0.413 0.143,-0.398 0.138,-0.378C0.129,-0.345 0.125,-0.309 0.125,-0.271L0.125,-0L0.053,-0Z" style="fill-rule:nonzero;"/>
            </g>
            <g transform="matrix(29,0,0,29,641.774,395.024)">
                <path d="M0.344,-0.167L0.418,-0.156C0.406,-0.1 0.383,-0.059 0.351,-0.031C0.318,-0.002 0.278,0.012 0.23,0.012C0.17,0.012 0.122,-0.011 0.084,-0.057C0.047,-0.103 0.028,-0.169 0.028,-0.255C0.028,-0.344 0.047,-0.413 0.085,-0.46C0.122,-0.507 0.17,-0.53 0.228,-0.53C0.283,-0.53 0.328,-0.507 0.365,-0.461C0.402,-0.415 0.42,-0.348 0.42,-0.26L0.42,-0.237L0.103,-0.237C0.105,-0.179 0.119,-0.135 0.143,-0.105C0.167,-0.075 0.196,-0.061 0.231,-0.061C0.285,-0.061 0.323,-0.096 0.344,-0.167ZM0.107,-0.309L0.344,-0.309C0.341,-0.354 0.331,-0.388 0.315,-0.41C0.292,-0.442 0.263,-0.458 0.227,-0.458C0.195,-0.458 0.167,-0.445 0.145,-0.418C0.122,-0.391 0.109,-0.355 0.107,-0.309Z" style="fill-rule:nonzero;"/>
            </g>
        </g>
        <g transform="matrix(0.84508,0,0,0.84508,507.977,218.325)">
            <g transform="matrix(29,0,0,29,492,313.024)">
                <path d="M0.436,-0.263L0.55,-0.219C0.532,-0.139 0.503,-0.08 0.461,-0.043C0.419,-0.006 0.368,0.012 0.307,0.012C0.231,0.012 0.169,-0.017 0.121,-0.076C0.066,-0.144 0.039,-0.236 0.039,-0.352C0.039,-0.474 0.067,-0.569 0.122,-0.638C0.169,-0.698 0.234,-0.728 0.314,-0.728C0.38,-0.728 0.435,-0.706 0.479,-0.661C0.511,-0.629 0.534,-0.581 0.549,-0.519L0.432,-0.484C0.424,-0.523 0.409,-0.553 0.387,-0.573C0.365,-0.594 0.338,-0.604 0.308,-0.604C0.265,-0.604 0.229,-0.586 0.202,-0.548C0.175,-0.51 0.161,-0.448 0.161,-0.361C0.161,-0.271 0.174,-0.207 0.201,-0.168C0.228,-0.13 0.263,-0.111 0.305,-0.111C0.336,-0.111 0.363,-0.123 0.386,-0.148C0.409,-0.172 0.425,-0.21 0.436,-0.263Z" style="fill-rule:nonzero;"/>
            </g>
            <g transform="matrix(29,0,0,29,509.162,313.024)">
                <rect x="0.059" y="-0.716" width="0.113" height="0.716" style="fill-rule:nonzero;"/>
            </g>
            <g transform="matrix(29,0,0,29,515.775,313.024)">
                <path d="M0.143,-0.36L0.041,-0.383C0.053,-0.435 0.074,-0.473 0.102,-0.496C0.131,-0.519 0.172,-0.53 0.225,-0.53C0.273,-0.53 0.309,-0.524 0.334,-0.51C0.359,-0.497 0.377,-0.479 0.388,-0.456C0.398,-0.433 0.404,-0.391 0.404,-0.331L0.403,-0.17C0.403,-0.125 0.405,-0.092 0.408,-0.07C0.412,-0.048 0.418,-0.025 0.428,-0L0.317,-0L0.302,-0.057C0.283,-0.034 0.262,-0.017 0.24,-0.005C0.219,0.006 0.195,0.012 0.17,0.012C0.129,0.012 0.095,-0.002 0.069,-0.03C0.042,-0.058 0.029,-0.095 0.029,-0.141C0.029,-0.17 0.035,-0.196 0.045,-0.218C0.056,-0.24 0.071,-0.257 0.091,-0.27C0.11,-0.283 0.142,-0.295 0.185,-0.305C0.237,-0.317 0.273,-0.328 0.293,-0.338C0.293,-0.367 0.291,-0.386 0.287,-0.395C0.283,-0.404 0.276,-0.411 0.265,-0.417C0.254,-0.422 0.239,-0.425 0.219,-0.425C0.199,-0.425 0.183,-0.421 0.171,-0.412C0.16,-0.403 0.15,-0.385 0.143,-0.36ZM0.293,-0.249C0.279,-0.243 0.257,-0.236 0.227,-0.229C0.192,-0.219 0.169,-0.209 0.158,-0.198C0.147,-0.187 0.142,-0.173 0.142,-0.155C0.142,-0.135 0.148,-0.119 0.16,-0.105C0.172,-0.092 0.187,-0.085 0.205,-0.085C0.221,-0.085 0.236,-0.09 0.252,-0.101C0.268,-0.112 0.278,-0.125 0.284,-0.14C0.29,-0.155 0.293,-0.182 0.293,-0.222L0.293,-0.249Z" style="fill-rule:nonzero;"/>
            </g>
            <g transform="matrix(29,0,0,29,529,313.024)">
                <path d="M0.02,-0.148L0.132,-0.169C0.142,-0.115 0.172,-0.087 0.223,-0.087C0.25,-0.087 0.27,-0.093 0.284,-0.103C0.297,-0.113 0.304,-0.127 0.304,-0.144C0.304,-0.155 0.301,-0.164 0.295,-0.17C0.289,-0.177 0.277,-0.183 0.258,-0.188C0.166,-0.212 0.107,-0.235 0.082,-0.257C0.051,-0.285 0.035,-0.323 0.035,-0.371C0.035,-0.419 0.05,-0.458 0.081,-0.487C0.112,-0.516 0.156,-0.53 0.214,-0.53C0.27,-0.53 0.312,-0.519 0.341,-0.498C0.37,-0.476 0.391,-0.441 0.402,-0.393L0.296,-0.369C0.287,-0.411 0.26,-0.432 0.216,-0.432C0.189,-0.432 0.169,-0.428 0.157,-0.42C0.146,-0.412 0.14,-0.401 0.14,-0.389C0.14,-0.377 0.145,-0.368 0.156,-0.36C0.167,-0.353 0.2,-0.341 0.256,-0.325C0.319,-0.308 0.361,-0.286 0.384,-0.261C0.406,-0.236 0.417,-0.203 0.417,-0.161C0.417,-0.111 0.4,-0.07 0.365,-0.037C0.331,-0.005 0.284,0.012 0.223,0.012C0.168,0.012 0.123,-0.002 0.088,-0.029C0.054,-0.056 0.031,-0.096 0.02,-0.148Z" style="fill-rule:nonzero;"/>
            </g>
            <g transform="matrix(29,0,0,29,542.226,313.024)">
                <path d="M0.306,-0.165L0.417,-0.142C0.403,-0.09 0.379,-0.051 0.348,-0.026C0.316,-0.001 0.278,0.012 0.232,0.012C0.17,0.012 0.121,-0.009 0.087,-0.051C0.047,-0.1 0.026,-0.168 0.026,-0.256C0.026,-0.343 0.047,-0.412 0.087,-0.464C0.122,-0.508 0.167,-0.53 0.221,-0.53C0.282,-0.53 0.33,-0.508 0.364,-0.463C0.404,-0.411 0.424,-0.336 0.424,-0.235L0.423,-0.22L0.142,-0.22C0.142,-0.179 0.151,-0.147 0.169,-0.125C0.187,-0.102 0.208,-0.091 0.233,-0.091C0.27,-0.091 0.294,-0.116 0.306,-0.165ZM0.312,-0.304C0.311,-0.344 0.302,-0.374 0.286,-0.395C0.27,-0.415 0.25,-0.425 0.228,-0.425C0.204,-0.425 0.184,-0.415 0.168,-0.394C0.151,-0.372 0.143,-0.342 0.144,-0.304L0.312,-0.304Z" style="fill-rule:nonzero;"/>
            </g>
            <g transform="matrix(29,0,0,29,562.064,313.024)">
                <path d="M0.449,-0L0.344,-0L0.344,-0.076C0.327,-0.047 0.307,-0.025 0.283,-0.01C0.26,0.004 0.236,0.012 0.211,0.012C0.163,0.012 0.122,-0.012 0.087,-0.059C0.051,-0.107 0.034,-0.174 0.034,-0.262C0.034,-0.351 0.051,-0.418 0.085,-0.463C0.12,-0.508 0.162,-0.53 0.213,-0.53C0.237,-0.53 0.259,-0.524 0.28,-0.512C0.3,-0.5 0.319,-0.482 0.336,-0.458L0.336,-0.716L0.449,-0.716L0.449,-0ZM0.149,-0.271C0.149,-0.224 0.153,-0.189 0.161,-0.166C0.169,-0.143 0.18,-0.126 0.195,-0.114C0.21,-0.102 0.227,-0.097 0.245,-0.097C0.27,-0.097 0.291,-0.11 0.31,-0.137C0.328,-0.163 0.337,-0.204 0.337,-0.257C0.337,-0.317 0.328,-0.36 0.31,-0.386C0.293,-0.412 0.27,-0.425 0.243,-0.425C0.217,-0.425 0.194,-0.412 0.176,-0.387C0.158,-0.361 0.149,-0.322 0.149,-0.271Z" style="fill-rule:nonzero;"/>
            </g>
            <g transform="matrix(29,0,0,29,576.593,313.024)">
                <path d="M0.306,-0.165L0.417,-0.142C0.403,-0.09 0.379,-0.051 0.348,-0.026C0.316,-0.001 0.278,0.012 0.232,0.012C0.17,0.012 0.121,-0.009 0.087,-0.051C0.047,-0.1 0.026,-0.168 0.026,-0.256C0.026,-0.343 0.047,-0.412 0.087,-0.464C0.122,-0.508 0.167,-0.53 0.221,-0.53C0.282,-0.53 0.33,-0.508 0.364,-0.463C0.404,-0.411 0.424,-0.336 0.424,-0.235L0.423,-0.22L0.142,-0.22C0.142,-0.179 0.151,-0.147 0.169,-0.125C0.187,-0.102 0.208,-0.091 0.233,-0.091C0.27,-0.091 0.294,-0.116 0.306,-0.165ZM0.312,-0.304C0.311,-0.344 0.302,-0.374 0.286,-0.395C0.27,-0.415 0.25,-0.425 0.228,-0.425C0.204,-0.425 0.184,-0.415 0.168,-0.394C0.151,-0.372 0.143,-0.342 0.144,-0.304L0.312,-0.304Z" style="fill-rule:nonzero;"/>
            </g>
            <g transform="matrix(29,0,0,29,589.818,313.024)">
                <path d="M0.167,-0L0.054,-0L0.054,-0.519L0.159,-0.519L0.159,-0.445C0.177,-0.479 0.193,-0.502 0.207,-0.513C0.221,-0.525 0.237,-0.53 0.256,-0.53C0.282,-0.53 0.306,-0.522 0.33,-0.504L0.294,-0.385C0.276,-0.4 0.258,-0.407 0.242,-0.407C0.226,-0.407 0.212,-0.401 0.2,-0.39C0.189,-0.378 0.18,-0.357 0.175,-0.327C0.17,-0.297 0.167,-0.241 0.167,-0.16L0.167,-0Z" style="fill-rule:nonzero;"/>
            </g>
            <g transform="matrix(29,0,0,29,599.065,313.024)">
                <path d="M0.059,-0.589L0.059,-0.716L0.172,-0.716L0.172,-0.589L0.059,-0.589ZM0.059,-0L0.059,-0.519L0.172,-0.519L0.172,-0L0.059,-0Z" style="fill-rule:nonzero;"/>
            </g>
            <g transform="matrix(29,0,0,29,605.678,313.024)">
                <path d="M0.176,-0L0.004,-0.519L0.123,-0.519L0.203,-0.254L0.226,-0.166L0.25,-0.254L0.331,-0.519L0.446,-0.519L0.277,-0L0.176,-0Z" style="fill-rule:nonzero;"/>
            </g>
            <g transform="matrix(29,0,0,29,618.903,313.024)">
                <path d="M0.143,-0.36L0.041,-0.383C0.053,-0.435 0.074,-0.473 0.102,-0.496C0.131,-0.519 0.172,-0.53 0.225,-0.53C0.273,-0.53 0.309,-0.524 0.334,-0.51C0.359,-0.497 0.377,-0.479 0.388,-0.456C0.398,-0.433 0.404,-0.391 0.404,-0.331L0.403,-0.17C0.403,-0.125 0.405,-0.092 0.408,-0.07C0.412,-0.048 0.418,-0.025 0.428,-0L0.317,-0L0.302,-0.057C0.283,-0.034 0.262,-0.017 0.24,-0.005C0.219,0.006 0.195,0.012 0.17,0.012C0.129,0.012 0.095,-0.002 0.069,-0.03C0.042,-0.058 0.029,-0.095 0.029,-0.141C0.029,-0.17 0.035,-0.196 0.045,-0.218C0.056,-0.24 0.071,-0.257 0.091,-0.27C0.11,-0.283 0.142,-0.295 0.185,-0.305C0.237,-0.317 0.273,-0.328 0.293,-0.338C0.293,-0.367 0.291,-0.386 0.287,-0.395C0.283,-0.404 0.276,-0.411 0.265,-0.417C0.254,-0.422 0.239,-0.425 0.219,-0.425C0.199,-0.425 0.183,-0.421 0.171,-0.412C0.16,-0.403 0.15,-0.385 0.143,-0.36ZM0.293,-0.249C0.279,-0.243 0.257,-0.236 0.227,-0.229C0.192,-0.219 0.169,-0.209 0.158,-0.198C0.147,-0.187 0.142,-0.173 0.142,-0.155C0.142,-0.135 0.148,-0.119 0.16,-0.105C0.172,-0.092 0.187,-0.085 0.205,-0.085C0.221,-0.085 0.236,-0.09 0.252,-0.101C0.268,-0.112 0.278,-0.125 0.284,-0.14C0.29,-0.155 0.293,-0.182 0.293,-0.222L0.293,-0.249Z" style="fill-rule:nonzero;"/>
            </g>
            <g transform="matrix(29,0,0,29,632.129,313.024)">
                <path d="M0.449,-0L0.344,-0L0.344,-0.076C0.327,-0.047 0.307,-0.025 0.283,-0.01C0.26,0.004 0.236,0.012 0.211,0.012C0.163,0.012 0.122,-0.012 0.087,-0.059C0.051,-0.107 0.034,-0.174 0.034,-0.262C0.034,-0.351 0.051,-0.418 0.085,-0.463C0.12,-0.508 0.162,-0.53 0.213,-0.53C0.237,-0.53 0.259,-0.524 0.28,-0.512C0.3,-0.5 0.319,-0.482 0.336,-0.458L0.336,-0.716L0.449,-0.716L0.449,-0ZM0.149,-0.271C0.149,-0.224 0.153,-0.189 0.161,-0.166C0.169,-0.143 0.18,-0.126 0.195,-0.114C0.21,-0.102 0.227,-0.097 0.245,-0.097C0.27,-0.097 0.291,-0.11 0.31,-0.137C0.328,-0.163 0.337,-0.204 0.337,-0.257C0.337,-0.317 0.328,-0.36 0.31,-0.386C0.293,-0.412 0.27,-0.425 0.243,-0.425C0.217,-0.425 0.194,-0.412 0.176,-0.387C0.158,-0.361 0.149,-0.322 0.149,-0.271Z" style="fill-rule:nonzero;"/>
            </g>
            <g transform="matrix(29,0,0,29,646.657,313.024)">
                <path d="M0.143,-0.36L0.041,-0.383C0.053,-0.435 0.074,-0.473 0.102,-0.496C0.131,-0.519 0.172,-0.53 0.225,-0.53C0.273,-0.53 0.309,-0.524 0.334,-0.51C0.359,-0.497 0.377,-0.479 0.388,-0.456C0.398,-0.433 0.404,-0.391 0.404,-0.331L0.403,-0.17C0.403,-0.125 0.405,-0.092 0.408,-0.07C0.412,-0.048 0.418,-0.025 0.428,-0L0.317,-0L0.302,-0.057C0.283,-0.034 0.262,-0.017 0.24,-0.005C0.219,0.006 0.195,0.012 0.17,0.012C0.129,0.012 0.095,-0.002 0.069,-0.03C0.042,-0.058 0.029,-0.095 0.029,-0.141C0.029,-0.17 0.035,-0.196 0.045,-0.218C0.056,-0.24 0.071,-0.257 0.091,-0.27C0.11,-0.283 0.142,-0.295 0.185,-0.305C0.237,-0.317 0.273,-0.328 0.293,-0.338C0.293,-0.367 0.291,-0.386 0.287,-0.395C0.283,-0.404 0.276,-0.411 0.265,-0.417C0.254,-0.422 0.239,-0.425 0.219,-0.425C0.199,-0.425 0.183,-0.421 0.171,-0.412C0.16,-0.403 0.15,-0.385 0.143,-0.36ZM0.293,-0.249C0.279,-0.243 0.257,-0.236 0.227,-0.229C0.192,-0.219 0.169,-0.209 0.158,-0.198C0.147,-0.187 0.142,-0.173 0.142,-0.155C0.142,-0.135 0.148,-0.119 0.16,-0.105C0.172,-0.092 0.187,-0.085 0.205,-0.085C0.221,-0.085 0.236,-0.09 0.252,-0.101C0.268,-0.112 0.278,-0.125 0.284,-0.14C0.29,-0.155 0.293,-0.182 0.293,-0.222L0.293,-0.249Z" style="fill-rule:nonzero;"/>
            </g>
            <rect x="492" y="316.097" width="167.883" height="2.124"/>
            <g transform="matrix(29,0,0,29,492,354.024)">
                <path d="M0.037,-0.23L0.11,-0.238C0.114,-0.198 0.123,-0.168 0.137,-0.146C0.151,-0.124 0.171,-0.106 0.196,-0.093C0.222,-0.079 0.251,-0.073 0.283,-0.073C0.329,-0.073 0.365,-0.084 0.391,-0.107C0.416,-0.129 0.429,-0.159 0.429,-0.195C0.429,-0.216 0.425,-0.234 0.415,-0.25C0.406,-0.266 0.392,-0.279 0.373,-0.289C0.355,-0.299 0.314,-0.313 0.252,-0.332C0.197,-0.348 0.157,-0.364 0.134,-0.381C0.11,-0.397 0.092,-0.419 0.079,-0.444C0.066,-0.47 0.06,-0.499 0.06,-0.531C0.06,-0.589 0.078,-0.636 0.116,-0.673C0.153,-0.71 0.204,-0.728 0.267,-0.728C0.311,-0.728 0.349,-0.719 0.382,-0.702C0.414,-0.685 0.44,-0.66 0.458,-0.628C0.476,-0.596 0.486,-0.558 0.487,-0.514L0.412,-0.507C0.408,-0.554 0.394,-0.588 0.37,-0.611C0.346,-0.633 0.313,-0.645 0.27,-0.645C0.226,-0.645 0.192,-0.635 0.169,-0.615C0.146,-0.595 0.134,-0.57 0.134,-0.539C0.134,-0.51 0.143,-0.487 0.16,-0.471C0.177,-0.455 0.215,-0.439 0.274,-0.423C0.332,-0.407 0.373,-0.393 0.396,-0.381C0.432,-0.363 0.459,-0.339 0.477,-0.309C0.495,-0.28 0.504,-0.244 0.504,-0.203C0.504,-0.162 0.495,-0.124 0.476,-0.091C0.456,-0.057 0.43,-0.031 0.397,-0.014C0.364,0.004 0.324,0.013 0.278,0.013C0.205,0.013 0.147,-0.009 0.104,-0.053C0.061,-0.096 0.039,-0.155 0.037,-0.23Z" style="fill-rule:nonzero;"/>
            </g>
            <g transform="matrix(29,0,0,29,507.859,354.024)">
                <path d="M0.332,-0L0.332,-0.076C0.315,-0.047 0.295,-0.025 0.273,-0.01C0.25,0.004 0.225,0.012 0.197,0.012C0.163,0.012 0.135,0.003 0.111,-0.015C0.087,-0.033 0.071,-0.056 0.063,-0.084C0.055,-0.112 0.051,-0.149 0.051,-0.197L0.051,-0.519L0.123,-0.519L0.123,-0.231C0.123,-0.178 0.126,-0.142 0.131,-0.124C0.136,-0.106 0.146,-0.091 0.161,-0.08C0.175,-0.069 0.192,-0.064 0.21,-0.064C0.245,-0.064 0.273,-0.078 0.295,-0.106C0.314,-0.131 0.324,-0.176 0.324,-0.241L0.324,-0.519L0.396,-0.519L0.396,-0L0.332,-0Z" style="fill-rule:nonzero;"/>
            </g>
            <g transform="matrix(29,0,0,29,521.085,354.024)">
                <path d="M0.119,-0L0.052,-0L0.052,-0.716L0.124,-0.716L0.124,-0.46C0.139,-0.484 0.157,-0.501 0.176,-0.513C0.195,-0.524 0.217,-0.53 0.241,-0.53C0.274,-0.53 0.304,-0.52 0.331,-0.5C0.358,-0.481 0.38,-0.451 0.396,-0.41C0.413,-0.37 0.421,-0.321 0.421,-0.263C0.421,-0.175 0.403,-0.108 0.366,-0.06C0.329,-0.012 0.286,0.012 0.237,0.012C0.212,0.012 0.19,0.005 0.17,-0.008C0.15,-0.02 0.133,-0.04 0.119,-0.065L0.119,-0ZM0.118,-0.263C0.118,-0.209 0.123,-0.169 0.133,-0.143C0.143,-0.116 0.156,-0.096 0.174,-0.082C0.192,-0.068 0.212,-0.061 0.234,-0.061C0.264,-0.061 0.29,-0.077 0.313,-0.111C0.336,-0.144 0.347,-0.194 0.347,-0.26C0.347,-0.328 0.336,-0.378 0.314,-0.41C0.292,-0.442 0.265,-0.458 0.232,-0.458C0.203,-0.458 0.176,-0.441 0.153,-0.408C0.13,-0.375 0.118,-0.326 0.118,-0.263Z" style="fill-rule:nonzero;"/>
            </g>
            <g transform="matrix(29,0,0,29,534.311,354.024)">
                <path d="M0.332,-0.19L0.402,-0.179C0.394,-0.117 0.374,-0.07 0.341,-0.037C0.308,-0.005 0.269,0.012 0.223,0.012C0.167,0.012 0.122,-0.011 0.086,-0.057C0.05,-0.103 0.032,-0.17 0.032,-0.26C0.032,-0.35 0.05,-0.418 0.086,-0.463C0.122,-0.508 0.169,-0.53 0.226,-0.53C0.27,-0.53 0.307,-0.517 0.337,-0.489C0.367,-0.462 0.387,-0.421 0.395,-0.366L0.325,-0.353C0.318,-0.388 0.306,-0.414 0.29,-0.432C0.273,-0.449 0.252,-0.458 0.229,-0.458C0.193,-0.458 0.164,-0.442 0.14,-0.411C0.117,-0.379 0.105,-0.33 0.105,-0.261C0.105,-0.191 0.117,-0.139 0.139,-0.108C0.161,-0.076 0.19,-0.061 0.225,-0.061C0.252,-0.061 0.275,-0.071 0.295,-0.092C0.314,-0.113 0.326,-0.146 0.332,-0.19Z" style="fill-rule:nonzero;"/>
            </g>
            <g transform="matrix(29,0,0,29,546.205,354.024)">
                <rect x="0.051" y="-0.716" width="0.072" height="0.716" style="fill-rule:nonzero;"/>
            </g>
            <g transform="matrix(29,0,0,29,551.487,354.024)">
                <path d="M0.33,-0.064C0.306,-0.039 0.281,-0.02 0.255,-0.007C0.229,0.005 0.202,0.012 0.174,0.012C0.13,0.012 0.094,-0.002 0.068,-0.028C0.042,-0.055 0.028,-0.091 0.028,-0.136C0.028,-0.166 0.035,-0.193 0.047,-0.216C0.059,-0.239 0.076,-0.257 0.098,-0.27C0.119,-0.283 0.152,-0.293 0.195,-0.299C0.254,-0.307 0.297,-0.317 0.324,-0.329L0.325,-0.352C0.325,-0.387 0.318,-0.412 0.306,-0.426C0.288,-0.447 0.26,-0.458 0.223,-0.458C0.19,-0.458 0.165,-0.451 0.148,-0.437C0.131,-0.423 0.119,-0.397 0.111,-0.359L0.041,-0.371C0.051,-0.426 0.071,-0.467 0.102,-0.492C0.133,-0.518 0.177,-0.53 0.234,-0.53C0.278,-0.53 0.313,-0.522 0.339,-0.505C0.364,-0.488 0.38,-0.468 0.387,-0.443C0.394,-0.418 0.397,-0.382 0.397,-0.334L0.397,-0.217C0.397,-0.135 0.399,-0.084 0.402,-0.062C0.405,-0.041 0.411,-0.02 0.42,-0L0.345,-0C0.337,-0.018 0.332,-0.039 0.33,-0.064ZM0.324,-0.26C0.298,-0.247 0.259,-0.236 0.207,-0.227C0.176,-0.222 0.155,-0.216 0.143,-0.209C0.131,-0.203 0.122,-0.193 0.115,-0.181C0.108,-0.169 0.105,-0.155 0.105,-0.139C0.105,-0.114 0.113,-0.094 0.128,-0.079C0.143,-0.065 0.164,-0.057 0.191,-0.057C0.217,-0.057 0.24,-0.064 0.261,-0.077C0.282,-0.09 0.298,-0.108 0.309,-0.131C0.319,-0.153 0.324,-0.185 0.324,-0.228L0.324,-0.26Z" style="fill-rule:nonzero;"/>
            </g>
            <g transform="matrix(29,0,0,29,564.712,354.024)">
                <path d="M0.025,-0.155L0.097,-0.168C0.101,-0.132 0.112,-0.105 0.131,-0.087C0.15,-0.069 0.175,-0.061 0.207,-0.061C0.238,-0.061 0.262,-0.068 0.279,-0.084C0.296,-0.099 0.305,-0.119 0.305,-0.143C0.305,-0.163 0.297,-0.179 0.283,-0.19C0.273,-0.198 0.248,-0.208 0.209,-0.22C0.153,-0.237 0.116,-0.252 0.097,-0.264C0.078,-0.276 0.064,-0.292 0.053,-0.312C0.043,-0.332 0.038,-0.355 0.038,-0.381C0.038,-0.425 0.052,-0.461 0.08,-0.489C0.108,-0.516 0.148,-0.53 0.198,-0.53C0.229,-0.53 0.257,-0.525 0.281,-0.513C0.305,-0.502 0.323,-0.486 0.336,-0.467C0.349,-0.448 0.357,-0.421 0.362,-0.385L0.292,-0.373C0.285,-0.43 0.255,-0.458 0.2,-0.458C0.168,-0.458 0.145,-0.452 0.13,-0.439C0.115,-0.427 0.107,-0.411 0.107,-0.391C0.107,-0.372 0.114,-0.357 0.129,-0.346C0.138,-0.339 0.164,-0.329 0.207,-0.314C0.267,-0.295 0.305,-0.28 0.323,-0.269C0.34,-0.258 0.354,-0.242 0.364,-0.223C0.374,-0.204 0.378,-0.181 0.378,-0.154C0.378,-0.104 0.363,-0.064 0.331,-0.034C0.3,-0.003 0.257,0.012 0.203,0.012C0.101,0.012 0.042,-0.043 0.025,-0.155Z" style="fill-rule:nonzero;"/>
            </g>
            <g transform="matrix(29,0,0,29,576.607,354.024)">
                <path d="M0.344,-0.167L0.418,-0.156C0.406,-0.1 0.383,-0.059 0.351,-0.031C0.318,-0.002 0.278,0.012 0.23,0.012C0.17,0.012 0.122,-0.011 0.084,-0.057C0.047,-0.103 0.028,-0.169 0.028,-0.255C0.028,-0.344 0.047,-0.413 0.085,-0.46C0.122,-0.507 0.17,-0.53 0.228,-0.53C0.283,-0.53 0.328,-0.507 0.365,-0.461C0.402,-0.415 0.42,-0.348 0.42,-0.26L0.42,-0.237L0.103,-0.237C0.105,-0.179 0.119,-0.135 0.143,-0.105C0.167,-0.075 0.196,-0.061 0.231,-0.061C0.285,-0.061 0.323,-0.096 0.344,-0.167ZM0.107,-0.309L0.344,-0.309C0.341,-0.354 0.331,-0.388 0.315,-0.41C0.292,-0.442 0.263,-0.458 0.227,-0.458C0.195,-0.458 0.167,-0.445 0.145,-0.418C0.122,-0.391 0.109,-0.355 0.107,-0.309Z" style="fill-rule:nonzero;"/>
            </g>
            <g transform="matrix(29,0,0,29,492,395.024)">
                <path d="M0.48,-0.251L0.558,-0.227C0.541,-0.147 0.511,-0.087 0.468,-0.047C0.424,-0.008 0.372,0.012 0.31,0.012C0.256,0.012 0.209,-0.001 0.171,-0.028C0.132,-0.054 0.101,-0.097 0.076,-0.155C0.051,-0.214 0.039,-0.283 0.039,-0.363C0.039,-0.442 0.051,-0.508 0.076,-0.563C0.101,-0.617 0.134,-0.658 0.176,-0.686C0.218,-0.714 0.265,-0.728 0.316,-0.728C0.373,-0.728 0.422,-0.71 0.462,-0.675C0.503,-0.64 0.532,-0.588 0.548,-0.52L0.472,-0.498C0.446,-0.597 0.393,-0.647 0.315,-0.647C0.276,-0.647 0.242,-0.637 0.213,-0.617C0.185,-0.597 0.162,-0.566 0.145,-0.523C0.128,-0.481 0.119,-0.428 0.119,-0.363C0.119,-0.265 0.136,-0.191 0.171,-0.142C0.205,-0.093 0.251,-0.069 0.309,-0.069C0.351,-0.069 0.387,-0.084 0.418,-0.114C0.449,-0.144 0.47,-0.19 0.48,-0.251Z" style="fill-rule:nonzero;"/>
            </g>
            <g transform="matrix(29,0,0,29,509.162,395.024)">
                <rect x="0.051" y="-0.716" width="0.072" height="0.716" style="fill-rule:nonzero;"/>
            </g>
            <g transform="matrix(29,0,0,29,514.444,395.024)">
                <path d="M0.33,-0.064C0.306,-0.039 0.281,-0.02 0.255,-0.007C0.229,0.005 0.202,0.012 0.174,0.012C0.13,0.012 0.094,-0.002 0.068,-0.028C0.042,-0.055 0.028,-0.091 0.028,-0.136C0.028,-0.166 0.035,-0.193 0.047,-0.216C0.059,-0.239 0.076,-0.257 0.098,-0.27C0.119,-0.283 0.152,-0.293 0.195,-0.299C0.254,-0.307 0.297,-0.317 0.324,-0.329L0.325,-0.352C0.325,-0.387 0.318,-0.412 0.306,-0.426C0.288,-0.447 0.26,-0.458 0.223,-0.458C0.19,-0.458 0.165,-0.451 0.148,-0.437C0.131,-0.423 0.119,-0.397 0.111,-0.359L0.041,-0.371C0.051,-0.426 0.071,-0.467 0.102,-0.492C0.133,-0.518 0.177,-0.53 0.234,-0.53C0.278,-0.53 0.313,-0.522 0.339,-0.505C0.364,-0.488 0.38,-0.468 0.387,-0.443C0.394,-0.418 0.397,-0.382 0.397,-0.334L0.397,-0.217C0.397,-0.135 0.399,-0.084 0.402,-0.062C0.405,-0.041 0.411,-0.02 0.42,-0L0.345,-0C0.337,-0.018 0.332,-0.039 0.33,-0.064ZM0.324,-0.26C0.298,-0.247 0.259,-0.236 0.207,-0.227C0.176,-0.222 0.155,-0.216 0.143,-0.209C0.131,-0.203 0.122,-0.193 0.115,-0.181C0.108,-0.169 0.105,-0.155 0.105,-0.139C0.105,-0.114 0.113,-0.094 0.128,-0.079C0.143,-0.065 0.164,-0.057 0.191,-0.057C0.217,-0.057 0.24,-0.064 0.261,-0.077C0.282,-0.09 0.298,-0.108 0.309,-0.131C0.319,-0.153 0.324,-0.185 0.324,-0.228L0.324,-0.26Z" style="fill-rule:nonzero;"/>
            </g>
            <g transform="matrix(29,0,0,29,527.669,395.024)">
                <path d="M0.025,-0.155L0.097,-0.168C0.101,-0.132 0.112,-0.105 0.131,-0.087C0.15,-0.069 0.175,-0.061 0.207,-0.061C0.238,-0.061 0.262,-0.068 0.279,-0.084C0.296,-0.099 0.305,-0.119 0.305,-0.143C0.305,-0.163 0.297,-0.179 0.283,-0.19C0.273,-0.198 0.248,-0.208 0.209,-0.22C0.153,-0.237 0.116,-0.252 0.097,-0.264C0.078,-0.276 0.064,-0.292 0.053,-0.312C0.043,-0.332 0.038,-0.355 0.038,-0.381C0.038,-0.425 0.052,-0.461 0.08,-0.489C0.108,-0.516 0.148,-0.53 0.198,-0.53C0.229,-0.53 0.257,-0.525 0.281,-0.513C0.305,-0.502 0.323,-0.486 0.336,-0.467C0.349,-0.448 0.357,-0.421 0.362,-0.385L0.292,-0.373C0.285,-0.43 0.255,-0.458 0.2,-0.458C0.168,-0.458 0.145,-0.452 0.13,-0.439C0.115,-0.427 0.107,-0.411 0.107,-0.391C0.107,-0.372 0.114,-0.357 0.129,-0.346C0.138,-0.339 0.164,-0.329 0.207,-0.314C0.267,-0.295 0.305,-0.28 0.323,-0.269C0.34,-0.258 0.354,-0.242 0.364,-0.223C0.374,-0.204 0.378,-0.181 0.378,-0.154C0.378,-0.104 0.363,-0.064 0.331,-0.034C0.3,-0.003 0.257,0.012 0.203,0.012C0.101,0.012 0.042,-0.043 0.025,-0.155Z" style="fill-rule:nonzero;"/>
            </g>
            <g transform="matrix(29,0,0,29,539.564,395.024)">
                <path d="M0.344,-0.167L0.418,-0.156C0.406,-0.1 0.383,-0.059 0.351,-0.031C0.318,-0.002 0.278,0.012 0.23,0.012C0.17,0.012 0.122,-0.011 0.084,-0.057C0.047,-0.103 0.028,-0.169 0.028,-0.255C0.028,-0.344 0.047,-0.413 0.085,-0.46C0.122,-0.507 0.17,-0.53 0.228,-0.53C0.283,-0.53 0.328,-0.507 0.365,-0.461C0.402,-0.415 0.42,-0.348 0.42,-0.26L0.42,-0.237L0.103,-0.237C0.105,-0.179 0.119,-0.135 0.143,-0.105C0.167,-0.075 0.196,-0.061 0.231,-0.061C0.285,-0.061 0.323,-0.096 0.344,-0.167ZM0.107,-0.309L0.344,-0.309C0.341,-0.354 0.331,-0.388 0.315,-0.41C0.292,-0.442 0.263,-0.458 0.227,-0.458C0.195,-0.458 0.167,-0.445 0.145,-0.418C0.122,-0.391 0.109,-0.355 0.107,-0.309Z" style="fill-rule:nonzero;"/>
            </g>
            <g transform="matrix(29,0,0,29,559.402,395.024)">
                <path d="M0.053,-0L0.053,-0.716L0.125,-0.716L0.125,-0.459C0.141,-0.483 0.161,-0.501 0.182,-0.512C0.203,-0.524 0.227,-0.53 0.252,-0.53C0.298,-0.53 0.333,-0.516 0.36,-0.487C0.386,-0.458 0.399,-0.405 0.399,-0.329L0.399,-0L0.327,-0L0.327,-0.329C0.327,-0.374 0.319,-0.406 0.303,-0.425C0.287,-0.445 0.265,-0.455 0.237,-0.455C0.206,-0.455 0.179,-0.442 0.157,-0.417C0.135,-0.392 0.125,-0.347 0.125,-0.284L0.125,-0L0.053,-0Z" style="fill-rule:nonzero;"/>
            </g>
            <g transform="matrix(29,0,0,29,572.628,395.024)">
                <path d="M0.053,-0.615L0.053,-0.716L0.125,-0.716L0.125,-0.615L0.053,-0.615ZM0.053,-0L0.053,-0.519L0.125,-0.519L0.125,-0L0.053,-0ZM0.234,-0.614L0.234,-0.716L0.306,-0.716L0.306,-0.614L0.234,-0.614ZM0.143,0.201L0.156,0.126C0.171,0.131 0.182,0.133 0.19,0.133C0.205,0.133 0.216,0.127 0.223,0.115C0.23,0.103 0.234,0.074 0.234,0.026L0.234,-0.519L0.306,-0.519L0.306,0.028C0.306,0.099 0.297,0.147 0.279,0.172C0.26,0.198 0.234,0.21 0.199,0.21C0.18,0.21 0.161,0.207 0.143,0.201Z" style="fill-rule:nonzero;"/>
            </g>
            <g transform="matrix(29,0,0,29,583.191,395.024)">
                <path d="M0.33,-0.064C0.306,-0.039 0.281,-0.02 0.255,-0.007C0.229,0.005 0.202,0.012 0.174,0.012C0.13,0.012 0.094,-0.002 0.068,-0.028C0.042,-0.055 0.028,-0.091 0.028,-0.136C0.028,-0.166 0.035,-0.193 0.047,-0.216C0.059,-0.239 0.076,-0.257 0.098,-0.27C0.119,-0.283 0.152,-0.293 0.195,-0.299C0.254,-0.307 0.297,-0.317 0.324,-0.329L0.325,-0.352C0.325,-0.387 0.318,-0.412 0.306,-0.426C0.288,-0.447 0.26,-0.458 0.223,-0.458C0.19,-0.458 0.165,-0.451 0.148,-0.437C0.131,-0.423 0.119,-0.397 0.111,-0.359L0.041,-0.371C0.051,-0.426 0.071,-0.467 0.102,-0.492C0.133,-0.518 0.177,-0.53 0.234,-0.53C0.278,-0.53 0.313,-0.522 0.339,-0.505C0.364,-0.488 0.38,-0.468 0.387,-0.443C0.394,-0.418 0.397,-0.382 0.397,-0.334L0.397,-0.217C0.397,-0.135 0.399,-0.084 0.402,-0.062C0.405,-0.041 0.411,-0.02 0.42,-0L0.345,-0C0.337,-0.018 0.332,-0.039 0.33,-0.064ZM0.324,-0.26C0.298,-0.247 0.259,-0.236 0.207,-0.227C0.176,-0.222 0.155,-0.216 0.143,-0.209C0.131,-0.203 0.122,-0.193 0.115,-0.181C0.108,-0.169 0.105,-0.155 0.105,-0.139C0.105,-0.114 0.113,-0.094 0.128,-0.079C0.143,-0.065 0.164,-0.057 0.191,-0.057C0.217,-0.057 0.24,-0.064 0.261,-0.077C0.282,-0.09 0.298,-0.108 0.309,-0.131C0.319,-0.153 0.324,-0.185 0.324,-0.228L0.324,-0.26Z" style="fill-rule:nonzero;"/>
            </g>
        </g>
        <g transform="matrix(2.22223e-17,0.362918,-0.45329,2.7756e-17,1096.28,143.025)">
            <path d="M631,536.55L631,499.45L750.802,499.45L750.802,465L817,518L750.802,571L750.802,536.55L631,536.55Z" style="fill:rgb(242,175,13);"/>
        </g>
    </g>
</svg>
