<svg xmlns="http://www.w3.org/2000/svg" xmlns:xlink="http://www.w3.org/1999/xlink" width="393" height="306" fill-rule="evenodd" stroke-linejoin="round" stroke-miterlimit="2" xmlns:v="https://vecta.io/nano"><style><![CDATA[.B{fill-rule:nonzero}.C{fill:#89664c}.D{fill:#e0ac7e}]]></style><g transform="matrix(1.65124 0 0 1.65124 -1375.484 -821.098)"><g class="B C"><path d="M965.667 555.09c-2.5 0-4.7-1.2-5.5-1.7-.9-.5-1.2-1.7-.7-2.6s1.7-1.2 2.6-.7c2.2 1.2 3.9 1.5 5.2.9 1.6-.7 3.8-3.2 5.4-10.6 1.4-6.7 1.5-15.6-1.6-19.4-.9-1.2-2.1-1.7-3.6-1.7-3.6 0-4.6 2.5-4.6 3.9 0 .4.1 2.1 1.6 2.1.3 0 .7-.1 1-.5s.4-.9.3-1.5c-.2-1 .5-2 1.5-2.2s2 .5 2.2 1.5c.3 1.7 0 3.4-1.1 4.6-1 1.2-2.5 1.9-4 1.9-3.1 0-5.3-2.5-5.3-5.9 0-1.9.8-3.8 2.1-5.2 1.1-1.1 3-2.5 6.3-2.5 2.6 0 4.9 1.1 6.5 3.1 4.1 5.1 3.8 15.3 2.3 22.5-1.5 7.3-4 11.7-7.5 13.3-1 .6-2.1.7-3.1.7"/><path d="M945.267 523.09l-1.9 13.4c-4.9 0-6.1 9.1-4.7 17.5.1.8 5.5 1.7 5.5 1.7-1-5.3.4-7.9.4-7.9-.3 4.7.3 9.5 8.4 9.5 7.5 0 11.6-2.6 12-9.5 1.2-22-19.7-24.7-19.7-24.7"/></g><path d="M938.767 552.99c-2.4 1-8.4 1.5-6.9 4.2h11.9c1.9-2.7-1.8-5.6-5-4.2m15-3.6s-1.9-11.2-10.4-13c-8.4-1.8-3.4-4.6.9-3.6 10.5 2.3 9.5 16.6 9.5 16.6" class="D B"/><path d="M943.167 531.79h-9.5l-6.4 20.5 3.2 3.5 12.7-24z" class="B C"/><path d="M930.067 552.49c-1.9-2.3-4.8.7-6.3 1.8-.7.5-4.5.6-3.3 2.9h8.2c2.6-.8 2.5-3.3 1.4-4.7" class="B D"/><circle cx="954.067" cy="516.39" r="5.9" class="C"/><circle cx="954.067" cy="516.39" r="3.8" fill="#ffc5d3"/><circle cx="923.167" cy="516.39" r="5.9" class="C"/><circle cx="923.167" cy="516.39" r="3.8" fill="#ffc5d3"/><g class="B C"><path d="M946.667 500.59l1.3-.6c-2.3-.8-4.3-1.3-6-1.5.9-.7 1.5-.9 1.5-.9-14.5-2.1-21.4 6.3-21.4 13.8h33c-.4-5.2-3.3-8.8-8.4-10.8"/><path d="M955.167 512.49c0-6.9-7.4-12.5-16.6-12.5s-16.6 5.6-16.6 12.5c0 1.6.4 3.2 1.2 4.6-.7 1.4-1.2 3-1.2 4.6 0 6.9 7.4 12.5 16.6 12.5s16.6-5.6 16.6-12.5c0-1.6-.4-3.2-1.2-4.6.8-1.4 1.2-2.9 1.2-4.6"/></g><path d="M952.867 512.99c0-12-14.2-4.4-14.2-4.4s-14.3-7.6-14.3 4.4c0 3.4 2.1 6.4 5.3 8.3-.9 1.2-1.5 2.6-1.5 4 0 4.3 4.7 7.8 10.4 7.8 5.8 0 10.4-3.5 10.4-7.8 0-1.5-.6-2.9-1.5-4 3.3-1.9 5.4-4.9 5.4-8.3" class="B D"/><g fill="#3b302a"><ellipse cx="940.167" cy="520.49" rx=".7" ry="1.5"/><ellipse cx="937.067" cy="520.49" rx=".7" ry="1.5"/><ellipse cx="944.767" cy="515.49" rx="2.5" ry="3.2"/><ellipse cx="932.467" cy="515.49" rx="2.5" ry="3.2"/><path d="M945.667 525.79c.4 1.1-2.7 3.3-7.1 3.3s-7.5-2.2-7.1-3.3c.5-1.1 13.8-1.1 14.2 0" class="B"/></g></g><g transform="matrix(.193593 0 0 .193593 5.307 153.393)" class="B"><path d="M991.327 598.263v30.759a17.62 17.62 0 0 0 12.779 16.942l73.081 20.88c22.892 6.54 39.975 25.675 43.89 49.159l7.793 46.754c1.79 10.741-6.492 20.517-17.38 20.517H783.063c-10.888 0-19.171-9.777-17.38-20.517l7.793-46.754a61.67 61.67 0 0 1 43.89-49.159l73.081-20.88a17.62 17.62 0 0 0 12.779-16.942v-30.759h88.101z" fill="#00bea5"/><path d="M947.277 712.795c37.232 0 68.291-26.398 75.503-61.495l-18.673-5.335a17.62 17.62 0 0 1-12.779-16.942v-30.759h-88.102v30.759a17.62 17.62 0 0 1-12.779 16.942l-18.673 5.335c7.211 35.098 38.271 61.495 75.503 61.495z" fill="#b48764"/><path d="M991.327 607.074l-24.228-8.81h-63.873v30.759a17.62 17.62 0 0 1-12.779 16.942l-18.673 5.335v.001c74.269 35.418 119.553-44.227 119.553-44.227z" fill="#966d50"/><path d="M1070.619 307.529c2.203-15.418 18.722-7.342 18.722-7.342-11.013-57.266-125.911-8.076-125.911-8.076l10.646-11.013c-53.503-30.147-120.405 18.722-120.405 18.722-20.924-6.608-73.785 13.95-73.785 64.24 0 51.393 26.43 128.482 26.43 128.482h290.734s8.81-96.912 8.81-132.152-35.241-52.861-35.241-52.861z" fill="#553732"/><path d="M1089.34 300.187c-36.342-45.519-104.07 10.646-104.07 10.646 35.241 2.753 31.386 44.601 31.386 44.601-7.709-12.665-19.272-10.462-19.272-10.462-1.652 40.196-28.633 79.291-43.133 86.266l.735 61.304h142.063s8.81-96.912 8.81-132.152-35.241-52.861-35.241-52.861c2.203-15.418 18.722-7.342 18.722-7.342z" fill="#64463c"/><path d="M1079.429 474.922v-79.291H815.125v79.291c-9.731 0-17.62 7.888-17.62 17.62v17.62c0 9.731 7.889 17.62 17.62 17.62.486 0 .942-.105 1.417-.143 5.272 29.593 25.39 54.917 53.963 66.346l44.051 17.62a88.1 88.1 0 0 0 65.441 0l44.051-17.62c28.575-11.429 48.693-36.753 53.963-66.346.476.039.932.143 1.417.143 9.731 0 17.62-7.889 17.62-17.62v-17.62c.001-9.732-7.888-17.62-17.619-17.62z" fill="#c39772"/><path d="M1044.188 395.63H815.125v79.291c-9.731 0-17.62 7.888-17.62 17.62v17.62c0 9.731 7.889 17.62 17.62 17.62.486 0 .942-.105 1.417-.143 5.272 29.593 25.39 54.917 53.963 66.346l44.051 17.62c9.943 3.978 20.432 6.006 30.948 6.218-29.898-13.268-52.048-34.709-66.423-52.23-12.912-15.74-19.907-35.449-19.907-55.808v-64.659c0-9.137 6.981-16.876 16.094-17.533 14.479-1.044 27.869-5.533 36.767-5.533 26.43 0 61.671-8.81 114.532 8.81 34.461 11.487 44.051-8.81 44.051-8.81l-26.43-26.429z" fill="#b48764"/><path d="M823.935 474.922s0-44.051 26.43-70.481c0 0 17.115 6.46 52.861 0 22.851-4.13 27.165 0 27.165 0s-1.836 18.171-27.165 26.43c0 0 26.43 17.62 52.861-8.81l-1.836 9.177s27.898 5.506 52.861-23.861c0 0 9.545-.735 19.456 5.873 17.292 11.528 35.241 4.894 35.241 4.894s17.62 21.536 17.62 56.777h17.62v-96.912H806.314v96.912h17.62v.001h.001z" fill="#553732"/><path d="M947.277 571.833c-15.663 0-30.315-3.854-40.196-10.578-4.022-2.736-5.068-8.217-2.327-12.238 2.731-4.017 8.217-5.064 12.238-2.327 6.926 4.71 18.248 7.524 30.285 7.524s23.359-2.814 30.285-7.524c4.031-2.74 9.503-1.699 12.238 2.327a8.81 8.81 0 0 1-2.327 12.238c-9.882 6.724-24.534 10.578-40.196 10.578z" fill="#966d50"/><path d="M1007.112 407.378s9.545-.735 19.456 5.874c17.292 11.528 35.241 4.894 35.241 4.894s17.62 21.536 17.62 56.777h17.62v-96.912H990.743c-9.286 26.635-26.082 48.221-36.49 53.228-.002-.001 27.896 5.505 52.859-23.861z" fill="#64463c"/><g fill="#5a4137"><use xlink:href="#B"/><use xlink:href="#B" x="132.152"/></g><path d="M947.277 730.416c44.307 0 82.936-31.168 92.435-74.277l-16.922-4.835-.01-.002c-7.212 35.095-38.271 61.494-75.503 61.494s-68.291-26.398-75.503-61.494l-.01.002-16.922 4.835c9.498 43.108 48.126 74.277 92.435 74.277zm-154.969-49.247c-9.734 9.093-16.558 21.181-18.833 34.836l-7.793 46.754c-1.789 10.74 6.492 20.517 17.38 20.517h49.681v-30.222a44.05 44.05 0 0 0-7.904-25.176l-32.531-46.709zm309.937 0c9.734 9.093 16.558 21.181 18.833 34.836l7.793 46.754c1.79 10.74-6.492 20.517-17.38 20.517h-49.681v-30.222a44.05 44.05 0 0 1 7.904-25.176l32.531-46.709z" fill="#00aa9a"/></g><g class="B"><use xlink:href="#C"/><path d="M23.895 6.135h2.769v17.547h-2.769z"/><use xlink:href="#D"/><use xlink:href="#E"/><use xlink:href="#F"/><path d="M68.479 23.682V6.135h2.769v6.323c.417-.588.882-1.029 1.372-1.323.515-.294 1.054-.441 1.642-.441 1.225 0 2.279.539 3.112 1.666.858 1.103 1.274 2.745 1.274 4.901s-.441 3.799-1.299 4.975c-.858 1.152-1.887 1.74-3.063 1.74-.588 0-1.176-.196-1.765-.564s-1.078-.907-1.495-1.593v1.863h-2.549zm2.745-6.641c0 1.103.098 1.936.294 2.524.221.564.515 1.005.882 1.299.392.294.784.441 1.225.441.588 0 1.127-.319 1.544-.931.441-.637.662-1.642.662-3.014 0-1.446-.221-2.5-.662-3.137s-.98-.956-1.666-.956c-.637 0-1.176.294-1.617.931-.441.613-.662 1.568-.662 2.843z"/><use xlink:href="#D" x="51.396"/><use xlink:href="#E" x="51.396"/><use xlink:href="#F" x="51.396"/></g><path d="M7.945 26.279h105.018v1.795H7.945z"/><g class="B"><use xlink:href="#G"/><path d="M33.96 58.33v-1.863c-.417.711-.907 1.25-1.446 1.617-.564.343-1.176.539-1.863.539-.833 0-1.519-.221-2.108-.662s-.98-1.005-1.176-1.691-.294-1.593-.294-2.769V45.61h1.765v7.058c0 1.299.074 2.181.196 2.622a1.95 1.95 0 0 0 .735 1.078c.343.27.76.392 1.201.392.858 0 1.544-.343 2.083-1.029.466-.613.711-1.716.711-3.308V45.61h1.765v12.72H33.96zm4.339 4.877V45.611h1.617v1.666c.392-.686.833-1.176 1.323-1.495.49-.294 1.029-.441 1.666-.441a3.64 3.64 0 0 1 2.23.735c.662.466 1.201 1.225 1.593 2.206.417 1.005.613 2.181.613 3.578 0 2.181-.466 3.823-1.372 4.999-.882 1.176-1.961 1.765-3.186 1.765-.539 0-1.029-.147-1.519-.417-.466-.294-.858-.686-1.201-1.201v6.2h-1.765zm1.593-11.151c0 1.642.27 2.843.809 3.627.564.784 1.225 1.152 2.01 1.152.76 0 1.397-.392 1.961-1.201.588-.809.858-2.059.858-3.725s-.27-2.892-.833-3.701c-.539-.784-1.201-1.176-2.01-1.176-.711 0-1.348.417-1.936 1.274-.564.858-.858 2.108-.858 3.75z"/><use xlink:href="#H"/><path d="M60.652 58.33V45.611h1.593v1.936c.392-.882.76-1.495 1.103-1.765a1.74 1.74 0 0 1 1.152-.441c.588 0 1.201.221 1.814.686l-.613 2.01c-.441-.319-.858-.466-1.274-.466a1.55 1.55 0 0 0-1.029.392c-.319.245-.539.613-.662 1.103-.221.809-.319 1.691-.319 2.622v6.641h-1.765z"/><use xlink:href="#I"/><path d="M77.345 40.783h1.765V58.33h-1.765z"/><use xlink:href="#J"/><use xlink:href="#K"/><use xlink:href="#H" x="53.609"/><use xlink:href="#L"/><path d="M14.796 75.431h1.765v17.547h-1.765z"/><use xlink:href="#J" x="-62.548" y="34.648"/><use xlink:href="#K" x="-62.549" y="34.648"/><use xlink:href="#H" x="-8.94" y="34.648"/><path d="M57.327 92.979V80.259h1.568v1.789c.343-.662.809-1.176 1.348-1.519a3.21 3.21 0 0 1 1.814-.539c.735 0 1.348.172 1.863.564.515.368.858.931 1.078 1.666.417-.76.907-1.299 1.446-1.691.539-.368 1.127-.539 1.789-.539.98 0 1.765.343 2.353 1.005.564.686.858 1.765.858 3.259v8.725h-1.765v-8.014c0-.907-.074-1.544-.196-1.936a1.63 1.63 0 0 0-.637-.858c-.294-.221-.637-.319-1.005-.319-.76 0-1.372.294-1.838.907-.49.588-.735 1.544-.735 2.843v7.377h-1.765V84.72c0-1.054-.147-1.789-.49-2.23a1.58 1.58 0 0 0-1.323-.637 2.2 2.2 0 0 0-1.912.98c-.466.637-.711 1.838-.711 3.554v6.592h-1.74z"/><use xlink:href="#J" x="-7.813" y="34.648"/><path d="M91.983 92.979v-1.593c-.319.613-.735 1.078-1.25 1.397a2.92 2.92 0 0 1-1.617.49c-1.225 0-2.304-.588-3.186-1.74-.907-1.176-1.348-2.794-1.348-4.901 0-1.446.196-2.671.588-3.676.417-1.005.931-1.765 1.593-2.23a3.74 3.74 0 0 1 2.23-.735 2.89 2.89 0 0 1 1.617.466c.515.294.907.735 1.25 1.274v-6.298h1.765V92.98h-1.642zm-5.588-6.347c0 1.642.27 2.867.833 3.676.588.784 1.25 1.176 2.01 1.176.735 0 1.397-.368 1.936-1.127.564-.784.833-1.936.833-3.48 0-1.789-.27-3.088-.833-3.897-.539-.809-1.225-1.225-2.083-1.225-.735 0-1.372.392-1.912 1.176s-.784 2.034-.784 3.701zm10.001 6.347v-12.72h1.593v1.936c.392-.882.76-1.495 1.103-1.765a1.74 1.74 0 0 1 1.152-.441c.588 0 1.201.221 1.814.686l-.613 2.01c-.441-.319-.858-.466-1.274-.466a1.55 1.55 0 0 0-1.029.392c-.319.245-.539.613-.662 1.103-.221.809-.319 1.691-.319 2.622v6.641h-1.765z"/><use xlink:href="#H" x="53.609" y="34.648"/><use xlink:href="#C" x="243.027" y="205.91"/><path d="M266.921 212.045h2.769v17.547h-2.769z"/><use xlink:href="#D" x="243.026" y="205.911"/><use xlink:href="#E" x="243.025" y="205.91"/><use xlink:href="#F" x="243.026" y="205.911"/><use xlink:href="#M"/><use xlink:href="#F" x="272.068" y="205.911"/><path d="M337.728 229.592h-2.769v-12.719h2.573v1.814c.441-.833.833-1.397 1.176-1.666.343-.294.735-.417 1.201-.417.637 0 1.225.196 1.814.637l-.882 2.916c-.441-.368-.882-.539-1.274-.539s-.735.147-1.029.417c-.27.294-.49.809-.613 1.544s-.196 2.108-.196 4.093v3.921zm5.168-14.434v-3.112h2.769v3.112h-2.769zm0 14.435v-12.719h2.769v12.719h-2.769zm8.456-.001l-4.215-12.719h2.916l1.961 6.494.564 2.157.588-2.157 1.985-6.494h2.818l-4.142 12.719h-2.475z"/><use xlink:href="#D" x="330.177" y="205.911"/><use xlink:href="#M" x="59.21"/><use xlink:href="#D" x="353.631" y="205.911"/></g><path d="M250.971 232.189h141.875v1.795H250.971z"/><g class="B"><use xlink:href="#G" x="238.55" y="205.91"/><path d="M272.51 264.241v-1.863c-.417.711-.907 1.25-1.446 1.617-.564.343-1.176.539-1.863.539-.833 0-1.519-.221-2.108-.662s-.98-1.005-1.176-1.691-.294-1.593-.294-2.769v-7.891h1.765v7.058c0 1.299.074 2.181.196 2.622a1.95 1.95 0 0 0 .735 1.078c.343.27.76.392 1.201.392.858 0 1.544-.343 2.083-1.029.466-.613.711-1.716.711-3.308v-6.813h1.765v12.719h-1.568zm5.957 0h-1.642v-17.547h1.765v6.274a4.05 4.05 0 0 1 1.274-1.299 3.15 3.15 0 0 1 1.593-.417 3.62 3.62 0 0 1 2.206.735c.662.466 1.201 1.201 1.593 2.206.417.98.613 2.181.613 3.603 0 2.157-.441 3.799-1.348 4.975s-1.961 1.765-3.161 1.765a2.94 2.94 0 0 1-1.642-.49c-.49-.294-.907-.784-1.25-1.397v1.593zm-.025-6.445c0 1.323.123 2.304.368 2.941.245.662.564 1.152 1.005 1.495s.931.515 1.47.515c.735 0 1.372-.392 1.936-1.225.564-.809.833-2.034.833-3.652 0-1.666-.27-2.892-.809-3.676s-1.201-1.176-2.01-1.176c-.711 0-1.372.417-1.936 1.225s-.858 2.01-.858 3.554z"/><use xlink:href="#I" x="220.685" y="205.91"/><path d="M298.029 246.693h1.765v17.547h-1.765z"/><use xlink:href="#J" x="220.685" y="205.91"/><use xlink:href="#K" x="220.683" y="205.91"/><use xlink:href="#H" x="274.294" y="205.91"/><use xlink:href="#L" x="251.929" y="205.911"/><path d="M266.724 281.342h1.765v17.547h-1.765z"/><use xlink:href="#J" x="189.381" y="240.558"/><use xlink:href="#K" x="189.379" y="240.558"/><use xlink:href="#H" x="242.989" y="240.558"/><path d="M309.23 298.889v-17.547h1.765v6.298c.392-.588.882-1.029 1.397-1.299a3.44 3.44 0 0 1 1.716-.441c1.127 0 1.985.343 2.647 1.054.637.711.956 2.01.956 3.872v8.063h-1.765v-8.063c0-1.103-.196-1.887-.588-2.353-.392-.49-.931-.735-1.617-.735-.76 0-1.421.319-1.961.931s-.784 1.716-.784 3.259v6.96h-1.765zm11.177-15.072v-2.475h1.765v2.475h-1.765zm0 15.072V286.17h1.765v12.719h-1.765zm4.436-15.047v-2.5h1.765v2.5h-1.765zm-2.23 19.973l.319-1.838c.368.123.637.172.833.172.368 0 .637-.147.809-.441s.27-1.005.27-2.181V286.17h1.765v13.406c0 1.74-.221 2.916-.662 3.529-.466.637-1.103.931-1.961.931a4.35 4.35 0 0 1-1.372-.221z"/><use xlink:href="#J" x="247.477" y="240.558"/></g><path d="M180.282 118.763h16.817v43.478h15.616l-24.024 24.024-24.024-24.024h15.616v-43.478z" fill="#f2af0d"/><defs ><path id="B" d="M881.201 510.162a13.22 13.22 0 0 1-13.215-13.215v-8.81a13.22 13.22 0 0 1 13.215-13.215 13.22 13.22 0 0 1 13.215 13.215v8.81c0 7.299-5.917 13.215-13.215 13.215z"/><path id="C" d="M18.63 17.237l2.794 1.078c-.441 1.961-1.152 3.407-2.181 4.313s-2.279 1.348-3.774 1.348c-1.863 0-3.382-.711-4.558-2.157-1.348-1.666-2.01-3.921-2.01-6.764 0-2.99.686-5.318 2.034-7.009 1.152-1.47 2.745-2.206 4.705-2.206 1.617 0 2.965.539 4.044 1.642.784.784 1.348 1.961 1.716 3.48l-2.867.858c-.196-.956-.564-1.691-1.103-2.181a2.72 2.72 0 0 0-1.936-.76c-1.054 0-1.936.441-2.598 1.372s-1.005 2.451-1.005 4.583c0 2.206.319 3.774.98 4.73.662.931 1.519 1.397 2.549 1.397.76 0 1.421-.294 1.985-.907.564-.588.956-1.519 1.225-2.818z"/><path id="D" d="M31.542 14.859l-2.5-.564c.294-1.274.809-2.206 1.495-2.769.711-.564 1.716-.833 3.014-.833 1.176 0 2.059.147 2.671.49.613.319 1.054.76 1.323 1.323.245.564.392 1.593.392 3.063l-.025 3.946c0 1.103.049 1.912.123 2.451a8.76 8.76 0 0 0 .49 1.716h-2.72l-.368-1.397c-.466.564-.98.98-1.519 1.274-.515.27-1.103.417-1.716.417-1.005 0-1.838-.343-2.475-1.029-.662-.686-.98-1.593-.98-2.72 0-.711.147-1.348.392-1.887.27-.539.637-.956 1.127-1.274.466-.319 1.25-.613 2.304-.858 1.274-.294 2.157-.564 2.647-.809 0-.711-.049-1.176-.147-1.397s-.27-.392-.539-.539c-.27-.123-.637-.196-1.127-.196s-.882.098-1.176.319c-.27.221-.515.662-.686 1.274zm3.676 2.72c-.343.147-.882.319-1.617.49-.858.245-1.421.49-1.691.76s-.392.613-.392 1.054a1.79 1.79 0 0 0 .441 1.225 1.45 1.45 0 0 0 1.103.49c.392 0 .76-.123 1.152-.392s.637-.588.784-.956.221-1.029.221-2.01v-.662z"/><path id="E" d="M39.704 20.055l2.745-.515c.245 1.323.98 2.01 2.23 2.01.662 0 1.152-.147 1.495-.392a1.22 1.22 0 0 0 .49-1.005c0-.27-.074-.49-.221-.637-.147-.172-.441-.319-.907-.441-2.255-.588-3.701-1.152-4.313-1.691-.76-.686-1.152-1.617-1.152-2.794s.368-2.132 1.127-2.843 1.838-1.054 3.259-1.054c1.372 0 2.402.27 3.112.784.711.539 1.225 1.397 1.495 2.573l-2.598.588c-.221-1.029-.882-1.544-1.961-1.544-.662 0-1.152.098-1.446.294-.27.196-.417.466-.417.76s.123.515.392.711c.27.172 1.078.466 2.451.858 1.544.417 2.573.956 3.137 1.568.539.613.809 1.421.809 2.451 0 1.225-.417 2.23-1.274 3.039-.833.784-1.985 1.201-3.48 1.201-1.348 0-2.451-.343-3.308-1.005-.833-.662-1.397-1.642-1.666-2.916z"/><path id="F" d="M57.89 19.638l2.72.564c-.343 1.274-.931 2.23-1.691 2.843-.784.613-1.716.931-2.843.931-1.519 0-2.72-.515-3.554-1.544-.98-1.201-1.495-2.867-1.495-5.024 0-2.132.515-3.823 1.495-5.098.858-1.078 1.961-1.617 3.284-1.617 1.495 0 2.671.539 3.505 1.642.98 1.274 1.47 3.112 1.47 5.588l-.025.368h-6.887c0 1.005.221 1.789.662 2.328.441.564.956.833 1.568.833.907 0 1.495-.613 1.789-1.814zm.147-3.407c-.025-.98-.245-1.716-.637-2.23-.392-.49-.882-.735-1.421-.735-.588 0-1.078.245-1.47.76-.417.539-.613 1.274-.588 2.206h4.117z"/><path id="G" d="M13.328 52.694l1.789-.196c.098.98.319 1.716.662 2.255s.833.98 1.446 1.299c.637.343 1.348.49 2.132.49 1.127 0 2.01-.27 2.647-.833.613-.539.931-1.274.931-2.157 0-.515-.098-.956-.343-1.348-.221-.392-.564-.711-1.029-.956-.441-.245-1.446-.588-2.965-1.054-1.348-.392-2.328-.784-2.892-1.201-.588-.392-1.029-.931-1.348-1.544-.319-.637-.466-1.348-.466-2.132 0-1.421.441-2.573 1.372-3.48.907-.907 2.157-1.348 3.701-1.348 1.078 0 2.01.221 2.818.637.784.417 1.421 1.029 1.863 1.814s.686 1.716.711 2.794l-1.838.172c-.098-1.152-.441-1.985-1.029-2.549-.588-.539-1.397-.833-2.451-.833-1.078 0-1.912.245-2.475.735s-.858 1.103-.858 1.863c0 .711.221 1.274.637 1.666s1.348.784 2.794 1.176c1.421.392 2.426.735 2.99 1.029.882.441 1.544 1.029 1.985 1.765.441.711.662 1.593.662 2.598s-.221 1.936-.686 2.745c-.49.833-1.127 1.47-1.936 1.887-.809.441-1.789.662-2.916.662-1.789 0-3.21-.539-4.264-1.617-1.054-1.054-1.593-2.5-1.642-4.338z"/><path id="H" d="M56.608 54.238l1.814.27c-.294 1.372-.858 2.377-1.642 3.063-.809.711-1.789 1.054-2.965 1.054-1.47 0-2.647-.564-3.578-1.691-.907-1.127-1.372-2.745-1.372-4.852 0-2.181.466-3.872 1.397-5.024.907-1.152 2.083-1.716 3.505-1.716 1.348 0 2.451.564 3.358 1.691s1.348 2.769 1.348 4.926v.564h-7.769c.049 1.421.392 2.5.98 3.235s1.299 1.078 2.157 1.078c1.323 0 2.255-.858 2.769-2.598zm-5.808-3.48h5.808c-.074-1.103-.319-1.936-.711-2.475-.564-.784-1.274-1.176-2.157-1.176-.784 0-1.47.319-2.01.98-.564.662-.882 1.544-.931 2.671z"/><path id="I" d="M74.179 53.674l1.716.27c-.196 1.519-.686 2.671-1.495 3.48-.809.784-1.765 1.201-2.892 1.201-1.372 0-2.475-.564-3.358-1.691s-1.323-2.769-1.323-4.975.441-3.872 1.323-4.975 2.034-1.642 3.431-1.642c1.078 0 1.985.319 2.72 1.005.735.662 1.225 1.666 1.421 3.014l-1.716.319c-.172-.858-.466-1.495-.858-1.936-.417-.417-.931-.637-1.495-.637-.882 0-1.593.392-2.181 1.152-.564.784-.858 1.985-.858 3.676 0 1.716.294 2.99.833 3.75.539.784 1.25 1.152 2.108 1.152.662 0 1.225-.245 1.716-.76.466-.515.76-1.323.907-2.402z"/><path id="J" d="M88.645 56.762c-.588.613-1.201 1.078-1.838 1.397-.637.294-1.299.466-1.985.466-1.078 0-1.961-.343-2.598-.98-.637-.662-.98-1.544-.98-2.647a4.21 4.21 0 0 1 .466-1.961c.294-.564.711-1.005 1.25-1.323.515-.319 1.323-.564 2.377-.711 1.446-.196 2.5-.441 3.161-.735l.025-.564c0-.858-.172-1.47-.466-1.814-.441-.515-1.127-.784-2.034-.784-.809 0-1.421.172-1.838.515s-.711.98-.907 1.912l-1.716-.294c.245-1.348.735-2.353 1.495-2.965.76-.637 1.838-.931 3.235-.931 1.078 0 1.936.196 2.573.613.613.417 1.005.907 1.176 1.519s.245 1.495.245 2.671v2.867l.123 3.799c.074.515.221 1.029.441 1.519h-1.838c-.196-.441-.319-.956-.368-1.568zm-.147-4.803c-.637.319-1.593.588-2.867.809-.76.123-1.274.27-1.568.441-.294.147-.515.392-.686.686s-.245.637-.245 1.029c0 .613.196 1.103.564 1.47.368.343.882.539 1.544.539.637 0 1.201-.172 1.716-.49s.907-.76 1.176-1.323c.245-.539.368-1.323.368-2.377v-.784z"/><path id="K" d="M92.348 54.532l1.765-.319c.098.882.368 1.544.833 1.985s1.078.637 1.863.637c.76 0 1.348-.172 1.765-.564.417-.368.637-.858.637-1.446 0-.49-.196-.882-.539-1.152-.245-.196-.858-.441-1.814-.735-1.372-.417-2.279-.784-2.745-1.078s-.809-.686-1.078-1.176c-.245-.49-.368-1.054-.368-1.691 0-1.078.343-1.961 1.029-2.647.686-.662 1.666-1.005 2.892-1.005.76 0 1.446.123 2.034.417a3.24 3.24 0 0 1 1.348 1.127c.319.466.515 1.127.637 2.01l-1.716.294c-.172-1.397-.907-2.083-2.255-2.083-.784 0-1.348.147-1.716.466a1.44 1.44 0 0 0-.564 1.176c0 .466.172.833.539 1.103.221.172.858.417 1.912.784 1.47.466 2.402.833 2.843 1.103.417.27.76.662 1.005 1.127s.343 1.029.343 1.691c0 1.225-.368 2.206-1.152 2.941-.76.76-1.814 1.127-3.137 1.127-2.5 0-3.946-1.348-4.362-4.093z"/><path id="L" d="M10.806 86.827l1.912.588c-.417 1.961-1.152 3.431-2.206 4.411-1.078.956-2.353 1.446-3.872 1.446-1.323 0-2.475-.319-3.407-.98-.956-.637-1.716-1.691-2.328-3.112-.613-1.446-.907-3.137-.907-5.098 0-1.936.294-3.554.907-4.901.613-1.323 1.421-2.328 2.451-3.014a6.07 6.07 0 0 1 3.431-1.029c1.397 0 2.598.441 3.578 1.299 1.005.858 1.716 2.132 2.108 3.799l-1.863.539c-.637-2.426-1.936-3.652-3.848-3.652-.956 0-1.789.245-2.5.735-.686.49-1.25 1.25-1.666 2.304-.417 1.029-.637 2.328-.637 3.921 0 2.402.417 4.215 1.274 5.416.833 1.201 1.961 1.789 3.382 1.789 1.029 0 1.912-.368 2.671-1.103s1.274-1.863 1.519-3.358z"/><path id="M" d="M321.185 229.592h-2.573v-1.863c-.417.711-.907 1.25-1.495 1.617-.564.343-1.152.539-1.765.539-1.176 0-2.181-.588-3.039-1.74-.882-1.176-1.299-2.818-1.299-4.975 0-2.181.417-3.823 1.25-4.926.858-1.103 1.887-1.642 3.137-1.642.588 0 1.127.147 1.642.441.49.294.956.735 1.372 1.323v-6.323h2.769v17.547zm-7.352-6.641c0 1.152.098 2.01.294 2.573s.466.98.833 1.274.784.417 1.225.417c.613 0 1.127-.319 1.593-.98.441-.637.662-1.642.662-2.941 0-1.47-.221-2.524-.662-3.161-.417-.637-.98-.956-1.642-.956-.637 0-1.201.319-1.642.931-.441.637-.662 1.593-.662 2.843z"/></defs></svg>