<?xml version="1.0" encoding="UTF-8" standalone="no"?>
<!DOCTYPE svg PUBLIC "-//W3C//DTD SVG 1.1//EN" "http://www.w3.org/Graphics/SVG/1.1/DTD/svg11.dtd">
<svg width="702px" height="252px" version="1.1" xmlns="http://www.w3.org/2000/svg" xmlns:xlink="http://www.w3.org/1999/xlink" xml:space="preserve" xmlns:serif="http://www.serif.com/" style="fill-rule:evenodd;clip-rule:evenodd;stroke-linecap:round;stroke-miterlimit:10;">
    <g transform="matrix(1,0,0,1,-39,-14.8622)">
        <g transform="matrix(0.755208,0,0,0.448148,0,0)">
            <g transform="matrix(0.208423,0,0,0.351229,51.6414,200.947)">
                <path d="M400,0L0,100L0,600L400,800L800,600L800,100L400,0ZM720,130L425,240L95,130L400,50L720,130ZM50,570L50,165L400,285L400,745L50,570Z" style="fill:rgb(255,0,211);fill-rule:nonzero;"/>
            </g>
        </g>
        <g transform="matrix(0.755208,0,0,0.448148,0,0)">
            <g transform="matrix(0.208423,0,0,0.351229,395.832,200.947)">
                <path d="M400,0L0,100L0,600L400,800L800,600L800,100L400,0ZM720,130L425,240L95,130L400,50L720,130ZM50,570L50,165L400,285L400,745L50,570Z" style="fill:rgb(0,174,255);fill-rule:nonzero;"/>
            </g>
        </g>
        <g transform="matrix(0.755208,0,0,0.448148,0,0)">
            <g transform="matrix(0.669632,0,0,1.12845,-480.935,-402.147)">
                <g transform="matrix(40.4853,0,0,40.4853,860.729,467)">
                    <path d="M0.31,0.011C0.258,0.011 0.212,0 0.173,-0.021C0.133,-0.042 0.102,-0.072 0.08,-0.111C0.058,-0.149 0.047,-0.193 0.047,-0.243L0.047,-0.457C0.047,-0.506 0.058,-0.55 0.08,-0.588C0.102,-0.626 0.133,-0.656 0.173,-0.677C0.212,-0.697 0.258,-0.708 0.31,-0.708C0.363,-0.708 0.409,-0.697 0.449,-0.677C0.488,-0.656 0.519,-0.626 0.541,-0.588C0.563,-0.55 0.574,-0.506 0.574,-0.457L0.574,-0.243C0.574,-0.193 0.563,-0.149 0.541,-0.11C0.519,-0.071 0.488,-0.042 0.449,-0.021C0.409,0 0.363,0.011 0.31,0.011ZM0.31,-0.11C0.347,-0.11 0.376,-0.122 0.399,-0.145C0.422,-0.168 0.433,-0.199 0.433,-0.238L0.433,-0.458C0.433,-0.497 0.422,-0.528 0.4,-0.552C0.377,-0.575 0.347,-0.587 0.31,-0.587C0.273,-0.587 0.244,-0.575 0.222,-0.552C0.199,-0.528 0.188,-0.497 0.188,-0.458L0.188,-0.238C0.188,-0.199 0.199,-0.168 0.222,-0.145C0.244,-0.122 0.273,-0.11 0.31,-0.11Z" style="fill:rgb(255,0,211);fill-rule:nonzero;"/>
                </g>
                <g transform="matrix(40.4853,0,0,40.4853,885.87,467)">
                    <path d="M0.507,-0.383C0.52,-0.348 0.526,-0.307 0.526,-0.259C0.526,-0.213 0.52,-0.173 0.509,-0.138C0.494,-0.093 0.469,-0.057 0.436,-0.031C0.402,-0.005 0.362,0.008 0.316,0.008C0.267,0.008 0.229,-0.01 0.201,-0.047C0.2,-0.048 0.198,-0.049 0.197,-0.049C0.196,-0.048 0.195,-0.047 0.195,-0.045L0.195,-0.012C0.195,-0.009 0.194,-0.006 0.192,-0.004C0.189,-0.001 0.186,-0 0.183,-0L0.066,-0C0.063,-0 0.06,-0.001 0.058,-0.004C0.055,-0.006 0.054,-0.009 0.054,-0.012L0.054,-0.688C0.054,-0.691 0.055,-0.694 0.058,-0.697C0.06,-0.699 0.063,-0.7 0.066,-0.7L0.183,-0.7C0.186,-0.7 0.189,-0.699 0.192,-0.697C0.194,-0.694 0.195,-0.691 0.195,-0.688L0.195,-0.474C0.195,-0.472 0.196,-0.471 0.197,-0.47C0.198,-0.469 0.2,-0.47 0.201,-0.472C0.227,-0.505 0.264,-0.522 0.312,-0.522C0.361,-0.522 0.401,-0.509 0.435,-0.485C0.467,-0.46 0.492,-0.426 0.507,-0.383ZM0.359,-0.156C0.373,-0.181 0.38,-0.215 0.38,-0.256C0.38,-0.302 0.372,-0.337 0.356,-0.362C0.34,-0.388 0.316,-0.401 0.285,-0.401C0.256,-0.401 0.233,-0.388 0.218,-0.362C0.203,-0.337 0.196,-0.302 0.196,-0.257C0.196,-0.212 0.203,-0.179 0.216,-0.156C0.232,-0.127 0.255,-0.113 0.286,-0.113C0.319,-0.113 0.343,-0.127 0.359,-0.156Z" style="fill:rgb(255,0,211);fill-rule:nonzero;"/>
                </g>
                <g transform="matrix(40.4853,0,0,40.4853,908.785,467)">
                    <path d="M0.127,-0.572C0.104,-0.572 0.086,-0.58 0.071,-0.595C0.056,-0.61 0.049,-0.628 0.049,-0.651C0.049,-0.674 0.056,-0.693 0.071,-0.708C0.086,-0.723 0.104,-0.73 0.127,-0.73C0.15,-0.73 0.169,-0.723 0.184,-0.708C0.199,-0.693 0.206,-0.674 0.206,-0.651C0.206,-0.628 0.199,-0.61 0.184,-0.595C0.169,-0.58 0.15,-0.572 0.127,-0.572ZM-0.048,0.204C-0.056,0.204 -0.06,0.2 -0.06,0.192L-0.06,0.097C-0.06,0.088 -0.056,0.085 -0.047,0.086C-0.008,0.087 0.02,0.082 0.036,0.069C0.051,0.056 0.059,0.034 0.059,0.002L0.057,-0.502C0.057,-0.505 0.058,-0.508 0.061,-0.511C0.063,-0.513 0.066,-0.514 0.069,-0.514L0.186,-0.514C0.189,-0.514 0.192,-0.513 0.195,-0.511C0.197,-0.508 0.198,-0.505 0.198,-0.502L0.198,-0C0.198,0.054 0.191,0.096 0.176,0.126C0.161,0.155 0.136,0.176 0.102,0.188C0.067,0.2 0.017,0.205 -0.048,0.204Z" style="fill:rgb(255,0,211);fill-rule:nonzero;"/>
                </g>
                <g transform="matrix(40.4853,0,0,40.4853,919.068,467)">
                    <path d="M0.507,-0.31C0.511,-0.285 0.512,-0.256 0.511,-0.225C0.51,-0.217 0.506,-0.213 0.498,-0.213L0.189,-0.213C0.185,-0.213 0.184,-0.211 0.185,-0.208C0.187,-0.195 0.191,-0.181 0.196,-0.168C0.213,-0.131 0.249,-0.112 0.302,-0.112C0.345,-0.113 0.378,-0.13 0.403,-0.164C0.406,-0.168 0.409,-0.17 0.412,-0.17C0.414,-0.17 0.416,-0.169 0.419,-0.166L0.491,-0.095C0.494,-0.092 0.496,-0.089 0.496,-0.086C0.496,-0.085 0.495,-0.082 0.492,-0.078C0.47,-0.051 0.442,-0.029 0.407,-0.015C0.372,0 0.334,0.008 0.293,0.008C0.236,0.008 0.187,-0.005 0.148,-0.031C0.108,-0.057 0.079,-0.093 0.062,-0.14C0.048,-0.173 0.041,-0.217 0.041,-0.271C0.041,-0.308 0.046,-0.34 0.056,-0.368C0.071,-0.415 0.098,-0.453 0.137,-0.481C0.175,-0.509 0.22,-0.523 0.273,-0.523C0.34,-0.523 0.393,-0.504 0.434,-0.465C0.474,-0.426 0.498,-0.375 0.507,-0.31ZM0.274,-0.401C0.232,-0.401 0.204,-0.381 0.191,-0.342C0.188,-0.333 0.186,-0.323 0.184,-0.31C0.184,-0.307 0.186,-0.305 0.189,-0.305L0.362,-0.305C0.366,-0.305 0.367,-0.307 0.366,-0.31C0.363,-0.329 0.361,-0.339 0.361,-0.338C0.355,-0.358 0.345,-0.374 0.33,-0.385C0.315,-0.396 0.296,-0.401 0.274,-0.401Z" style="fill:rgb(255,0,211);fill-rule:nonzero;"/>
                </g>
                <g transform="matrix(40.4853,0,0,40.4853,940.687,467)">
                    <path d="M0.347,-0.413C0.347,-0.41 0.346,-0.407 0.344,-0.405C0.341,-0.402 0.338,-0.401 0.335,-0.401L0.239,-0.401C0.236,-0.401 0.234,-0.399 0.234,-0.396L0.234,-0.184C0.234,-0.162 0.239,-0.146 0.248,-0.135C0.257,-0.124 0.271,-0.119 0.291,-0.119L0.324,-0.119C0.327,-0.119 0.33,-0.118 0.333,-0.116C0.335,-0.113 0.336,-0.11 0.336,-0.107L0.336,-0.012C0.336,-0.005 0.332,-0 0.324,0.001C0.296,0.002 0.276,0.003 0.264,0.003C0.209,0.003 0.167,-0.006 0.14,-0.025C0.113,-0.043 0.099,-0.077 0.098,-0.128L0.098,-0.396C0.098,-0.399 0.096,-0.401 0.093,-0.401L0.036,-0.401C0.033,-0.401 0.03,-0.402 0.028,-0.405C0.025,-0.407 0.024,-0.41 0.024,-0.413L0.024,-0.502C0.024,-0.505 0.025,-0.508 0.028,-0.511C0.03,-0.513 0.033,-0.514 0.036,-0.514L0.093,-0.514C0.096,-0.514 0.098,-0.516 0.098,-0.519L0.098,-0.638C0.098,-0.641 0.099,-0.644 0.102,-0.647C0.104,-0.649 0.107,-0.65 0.11,-0.65L0.222,-0.65C0.225,-0.65 0.228,-0.649 0.231,-0.647C0.233,-0.644 0.234,-0.641 0.234,-0.638L0.234,-0.519C0.234,-0.516 0.236,-0.514 0.239,-0.514L0.335,-0.514C0.338,-0.514 0.341,-0.513 0.344,-0.511C0.346,-0.508 0.347,-0.505 0.347,-0.502L0.347,-0.413Z" style="fill:rgb(255,0,211);fill-rule:nonzero;"/>
                </g>
                <g transform="matrix(40.4853,0,0,40.4853,955.788,467)">
                    <path d="M0.279,0.008C0.223,0.008 0.175,-0.007 0.135,-0.036C0.095,-0.065 0.068,-0.105 0.053,-0.156C0.044,-0.187 0.039,-0.221 0.039,-0.258C0.039,-0.297 0.044,-0.333 0.053,-0.364C0.068,-0.413 0.096,-0.452 0.136,-0.48C0.176,-0.508 0.224,-0.522 0.28,-0.522C0.335,-0.522 0.381,-0.508 0.42,-0.481C0.459,-0.453 0.486,-0.414 0.502,-0.365C0.513,-0.332 0.518,-0.297 0.518,-0.26C0.518,-0.224 0.513,-0.19 0.504,-0.159C0.489,-0.107 0.462,-0.066 0.423,-0.037C0.383,-0.007 0.335,0.008 0.279,0.008ZM0.279,-0.113C0.301,-0.113 0.32,-0.12 0.335,-0.133C0.35,-0.146 0.361,-0.165 0.368,-0.188C0.373,-0.209 0.376,-0.233 0.376,-0.258C0.376,-0.286 0.373,-0.31 0.368,-0.329C0.361,-0.352 0.349,-0.369 0.334,-0.382C0.319,-0.395 0.3,-0.401 0.278,-0.401C0.255,-0.401 0.237,-0.395 0.222,-0.382C0.207,-0.369 0.196,-0.352 0.189,-0.329C0.184,-0.313 0.181,-0.289 0.181,-0.258C0.181,-0.228 0.183,-0.205 0.188,-0.188C0.195,-0.165 0.206,-0.146 0.222,-0.133C0.237,-0.12 0.256,-0.113 0.279,-0.113Z" style="fill:rgb(255,0,211);fill-rule:nonzero;"/>
                </g>
                <g transform="matrix(40.4853,0,0,40.4853,850,507.485)">
                    <path d="M0.128,-0.572C0.105,-0.572 0.087,-0.58 0.072,-0.595C0.057,-0.61 0.049,-0.628 0.049,-0.651C0.049,-0.674 0.056,-0.693 0.071,-0.708C0.086,-0.723 0.105,-0.73 0.128,-0.73C0.151,-0.73 0.17,-0.723 0.185,-0.708C0.2,-0.693 0.207,-0.674 0.207,-0.651C0.207,-0.628 0.2,-0.61 0.185,-0.595C0.169,-0.58 0.151,-0.572 0.128,-0.572ZM0.068,-0C0.065,-0 0.062,-0.001 0.06,-0.004C0.057,-0.006 0.056,-0.009 0.056,-0.012L0.056,-0.503C0.056,-0.506 0.057,-0.509 0.06,-0.512C0.062,-0.514 0.065,-0.515 0.068,-0.515L0.185,-0.515C0.188,-0.515 0.191,-0.514 0.194,-0.512C0.196,-0.509 0.197,-0.506 0.197,-0.503L0.197,-0.012C0.197,-0.009 0.196,-0.006 0.194,-0.004C0.191,-0.001 0.188,-0 0.185,-0L0.068,-0Z" style="fill:rgb(255,0,211);fill-rule:nonzero;"/>
                </g>
                <g transform="matrix(40.4853,0,0,40.4853,860.324,507.485)">
                    <path d="M0.347,-0.413C0.347,-0.41 0.346,-0.407 0.344,-0.405C0.341,-0.402 0.338,-0.401 0.335,-0.401L0.239,-0.401C0.236,-0.401 0.234,-0.399 0.234,-0.396L0.234,-0.184C0.234,-0.162 0.239,-0.146 0.248,-0.135C0.257,-0.124 0.271,-0.119 0.291,-0.119L0.324,-0.119C0.327,-0.119 0.33,-0.118 0.333,-0.116C0.335,-0.113 0.336,-0.11 0.336,-0.107L0.336,-0.012C0.336,-0.005 0.332,-0 0.324,0.001C0.296,0.002 0.276,0.003 0.264,0.003C0.209,0.003 0.167,-0.006 0.14,-0.025C0.113,-0.043 0.099,-0.077 0.098,-0.128L0.098,-0.396C0.098,-0.399 0.096,-0.401 0.093,-0.401L0.036,-0.401C0.033,-0.401 0.03,-0.402 0.028,-0.405C0.025,-0.407 0.024,-0.41 0.024,-0.413L0.024,-0.502C0.024,-0.505 0.025,-0.508 0.028,-0.511C0.03,-0.513 0.033,-0.514 0.036,-0.514L0.093,-0.514C0.096,-0.514 0.098,-0.516 0.098,-0.519L0.098,-0.638C0.098,-0.641 0.099,-0.644 0.102,-0.647C0.104,-0.649 0.107,-0.65 0.11,-0.65L0.222,-0.65C0.225,-0.65 0.228,-0.649 0.231,-0.647C0.233,-0.644 0.234,-0.641 0.234,-0.638L0.234,-0.519C0.234,-0.516 0.236,-0.514 0.239,-0.514L0.335,-0.514C0.338,-0.514 0.341,-0.513 0.344,-0.511C0.346,-0.508 0.347,-0.505 0.347,-0.502L0.347,-0.413Z" style="fill:rgb(255,0,211);fill-rule:nonzero;"/>
                </g>
                <g transform="matrix(40.4853,0,0,40.4853,875.425,507.485)">
                    <path d="M0.507,-0.31C0.511,-0.285 0.512,-0.256 0.511,-0.225C0.51,-0.217 0.506,-0.213 0.498,-0.213L0.189,-0.213C0.185,-0.213 0.184,-0.211 0.185,-0.208C0.187,-0.195 0.191,-0.181 0.196,-0.168C0.213,-0.131 0.249,-0.112 0.302,-0.112C0.345,-0.113 0.378,-0.13 0.403,-0.164C0.406,-0.168 0.409,-0.17 0.412,-0.17C0.414,-0.17 0.416,-0.169 0.419,-0.166L0.491,-0.095C0.494,-0.092 0.496,-0.089 0.496,-0.086C0.496,-0.085 0.495,-0.082 0.492,-0.078C0.47,-0.051 0.442,-0.029 0.407,-0.015C0.372,0 0.334,0.008 0.293,0.008C0.236,0.008 0.187,-0.005 0.148,-0.031C0.108,-0.057 0.079,-0.093 0.062,-0.14C0.048,-0.173 0.041,-0.217 0.041,-0.271C0.041,-0.308 0.046,-0.34 0.056,-0.368C0.071,-0.415 0.098,-0.453 0.137,-0.481C0.175,-0.509 0.22,-0.523 0.273,-0.523C0.34,-0.523 0.393,-0.504 0.434,-0.465C0.474,-0.426 0.498,-0.375 0.507,-0.31ZM0.274,-0.401C0.232,-0.401 0.204,-0.381 0.191,-0.342C0.188,-0.333 0.186,-0.323 0.184,-0.31C0.184,-0.307 0.186,-0.305 0.189,-0.305L0.362,-0.305C0.366,-0.305 0.367,-0.307 0.366,-0.31C0.363,-0.329 0.361,-0.339 0.361,-0.338C0.355,-0.358 0.345,-0.374 0.33,-0.385C0.315,-0.396 0.296,-0.401 0.274,-0.401Z" style="fill:rgb(255,0,211);fill-rule:nonzero;"/>
                </g>
                <g transform="matrix(40.4853,0,0,40.4853,897.53,507.485)">
                    <path d="M0.308,-0.521C0.332,-0.521 0.351,-0.516 0.365,-0.507C0.37,-0.504 0.372,-0.499 0.371,-0.492L0.35,-0.378C0.349,-0.37 0.345,-0.368 0.336,-0.371C0.326,-0.374 0.314,-0.376 0.301,-0.376C0.296,-0.376 0.288,-0.375 0.279,-0.374C0.255,-0.372 0.235,-0.363 0.218,-0.348C0.201,-0.332 0.193,-0.311 0.193,-0.285L0.193,-0.012C0.193,-0.009 0.192,-0.006 0.19,-0.004C0.187,-0.001 0.184,-0 0.181,-0L0.064,-0C0.061,-0 0.058,-0.001 0.056,-0.004C0.053,-0.006 0.052,-0.009 0.052,-0.012L0.052,-0.502C0.052,-0.505 0.053,-0.508 0.056,-0.511C0.058,-0.513 0.061,-0.514 0.064,-0.514L0.181,-0.514C0.184,-0.514 0.187,-0.513 0.19,-0.511C0.192,-0.508 0.193,-0.505 0.193,-0.502L0.193,-0.464C0.193,-0.462 0.194,-0.461 0.195,-0.46C0.196,-0.459 0.197,-0.46 0.198,-0.461C0.225,-0.501 0.262,-0.521 0.308,-0.521Z" style="fill:rgb(255,0,211);fill-rule:nonzero;"/>
                </g>
                <g transform="matrix(40.4853,0,0,40.4853,912.793,507.485)">
                    <path d="M0.257,-0.522C0.3,-0.522 0.339,-0.515 0.373,-0.5C0.407,-0.485 0.434,-0.464 0.453,-0.438C0.471,-0.412 0.481,-0.383 0.481,-0.351L0.481,-0.012C0.481,-0.009 0.48,-0.006 0.478,-0.004C0.475,-0.001 0.472,-0 0.469,-0L0.352,-0C0.349,-0 0.346,-0.001 0.344,-0.004C0.341,-0.006 0.34,-0.009 0.34,-0.012L0.34,-0.045C0.34,-0.047 0.339,-0.048 0.338,-0.049C0.337,-0.05 0.335,-0.049 0.334,-0.047C0.306,-0.01 0.261,0.008 0.199,0.008C0.147,0.008 0.105,-0.005 0.073,-0.03C0.041,-0.055 0.025,-0.093 0.025,-0.142C0.025,-0.193 0.043,-0.233 0.079,-0.262C0.115,-0.29 0.166,-0.304 0.233,-0.304L0.335,-0.304C0.338,-0.304 0.34,-0.306 0.34,-0.309L0.34,-0.331C0.34,-0.353 0.333,-0.37 0.32,-0.383C0.307,-0.395 0.287,-0.401 0.26,-0.401C0.239,-0.401 0.222,-0.397 0.209,-0.39C0.195,-0.383 0.186,-0.372 0.182,-0.359C0.18,-0.352 0.176,-0.348 0.169,-0.349L0.048,-0.365C0.04,-0.366 0.036,-0.369 0.037,-0.374C0.04,-0.402 0.051,-0.427 0.071,-0.45C0.09,-0.473 0.116,-0.49 0.149,-0.503C0.181,-0.516 0.217,-0.522 0.257,-0.522ZM0.237,-0.097C0.266,-0.097 0.29,-0.105 0.31,-0.12C0.33,-0.135 0.34,-0.155 0.34,-0.179L0.34,-0.215C0.34,-0.218 0.338,-0.22 0.335,-0.22L0.263,-0.22C0.233,-0.22 0.21,-0.214 0.193,-0.203C0.175,-0.192 0.167,-0.176 0.167,-0.155C0.167,-0.137 0.173,-0.123 0.186,-0.113C0.199,-0.102 0.216,-0.097 0.237,-0.097Z" style="fill:rgb(255,0,211);fill-rule:nonzero;"/>
                </g>
                <g transform="matrix(40.4853,0,0,40.4853,934.169,507.485)">
                    <path d="M0.507,-0.383C0.52,-0.348 0.526,-0.307 0.526,-0.259C0.526,-0.213 0.52,-0.173 0.509,-0.138C0.494,-0.093 0.469,-0.057 0.436,-0.031C0.402,-0.005 0.362,0.008 0.316,0.008C0.267,0.008 0.229,-0.01 0.201,-0.047C0.2,-0.048 0.198,-0.049 0.197,-0.049C0.196,-0.048 0.195,-0.047 0.195,-0.045L0.195,-0.012C0.195,-0.009 0.194,-0.006 0.192,-0.004C0.189,-0.001 0.186,-0 0.183,-0L0.066,-0C0.063,-0 0.06,-0.001 0.058,-0.004C0.055,-0.006 0.054,-0.009 0.054,-0.012L0.054,-0.688C0.054,-0.691 0.055,-0.694 0.058,-0.697C0.06,-0.699 0.063,-0.7 0.066,-0.7L0.183,-0.7C0.186,-0.7 0.189,-0.699 0.192,-0.697C0.194,-0.694 0.195,-0.691 0.195,-0.688L0.195,-0.474C0.195,-0.472 0.196,-0.471 0.197,-0.47C0.198,-0.469 0.2,-0.47 0.201,-0.472C0.227,-0.505 0.264,-0.522 0.312,-0.522C0.361,-0.522 0.401,-0.509 0.435,-0.485C0.467,-0.46 0.492,-0.426 0.507,-0.383ZM0.359,-0.156C0.373,-0.181 0.38,-0.215 0.38,-0.256C0.38,-0.302 0.372,-0.337 0.356,-0.362C0.34,-0.388 0.316,-0.401 0.285,-0.401C0.256,-0.401 0.233,-0.388 0.218,-0.362C0.203,-0.337 0.196,-0.302 0.196,-0.257C0.196,-0.212 0.203,-0.179 0.216,-0.156C0.232,-0.127 0.255,-0.113 0.286,-0.113C0.319,-0.113 0.343,-0.127 0.359,-0.156Z" style="fill:rgb(255,0,211);fill-rule:nonzero;"/>
                </g>
                <g transform="matrix(40.4853,0,0,40.4853,957.084,507.485)">
                    <path d="M0.064,-0C0.061,-0 0.058,-0.001 0.056,-0.004C0.053,-0.006 0.052,-0.009 0.052,-0.012L0.052,-0.688C0.052,-0.691 0.053,-0.694 0.056,-0.697C0.058,-0.699 0.061,-0.7 0.064,-0.7L0.181,-0.7C0.184,-0.7 0.187,-0.699 0.19,-0.697C0.192,-0.694 0.193,-0.691 0.193,-0.688L0.193,-0.012C0.193,-0.009 0.192,-0.006 0.19,-0.004C0.187,-0.001 0.184,-0 0.181,-0L0.064,-0Z" style="fill:rgb(255,0,211);fill-rule:nonzero;"/>
                </g>
                <g transform="matrix(40.4853,0,0,40.4853,966.962,507.485)">
                    <path d="M0.507,-0.31C0.511,-0.285 0.512,-0.256 0.511,-0.225C0.51,-0.217 0.506,-0.213 0.498,-0.213L0.189,-0.213C0.185,-0.213 0.184,-0.211 0.185,-0.208C0.187,-0.195 0.191,-0.181 0.196,-0.168C0.213,-0.131 0.249,-0.112 0.302,-0.112C0.345,-0.113 0.378,-0.13 0.403,-0.164C0.406,-0.168 0.409,-0.17 0.412,-0.17C0.414,-0.17 0.416,-0.169 0.419,-0.166L0.491,-0.095C0.494,-0.092 0.496,-0.089 0.496,-0.086C0.496,-0.085 0.495,-0.082 0.492,-0.078C0.47,-0.051 0.442,-0.029 0.407,-0.015C0.372,0 0.334,0.008 0.293,0.008C0.236,0.008 0.187,-0.005 0.148,-0.031C0.108,-0.057 0.079,-0.093 0.062,-0.14C0.048,-0.173 0.041,-0.217 0.041,-0.271C0.041,-0.308 0.046,-0.34 0.056,-0.368C0.071,-0.415 0.098,-0.453 0.137,-0.481C0.175,-0.509 0.22,-0.523 0.273,-0.523C0.34,-0.523 0.393,-0.504 0.434,-0.465C0.474,-0.426 0.498,-0.375 0.507,-0.31ZM0.274,-0.401C0.232,-0.401 0.204,-0.381 0.191,-0.342C0.188,-0.333 0.186,-0.323 0.184,-0.31C0.184,-0.307 0.186,-0.305 0.189,-0.305L0.362,-0.305C0.366,-0.305 0.367,-0.307 0.366,-0.31C0.363,-0.329 0.361,-0.339 0.361,-0.338C0.355,-0.358 0.345,-0.374 0.33,-0.385C0.315,-0.396 0.296,-0.401 0.274,-0.401Z" style="fill:rgb(255,0,211);fill-rule:nonzero;"/>
                </g>
            </g>
        </g>
        <g transform="matrix(0.755208,0,0,0.448148,0,0)">
            <g transform="matrix(0.669632,0,0,1.12845,-136.744,-402.147)">
                <g transform="matrix(40.4853,0,0,40.4853,860.729,467)">
                    <path d="M0.31,0.011C0.258,0.011 0.212,0 0.173,-0.021C0.133,-0.042 0.102,-0.072 0.08,-0.111C0.058,-0.149 0.047,-0.193 0.047,-0.243L0.047,-0.457C0.047,-0.506 0.058,-0.55 0.08,-0.588C0.102,-0.626 0.133,-0.656 0.173,-0.677C0.212,-0.697 0.258,-0.708 0.31,-0.708C0.363,-0.708 0.409,-0.697 0.449,-0.677C0.488,-0.656 0.519,-0.626 0.541,-0.588C0.563,-0.55 0.574,-0.506 0.574,-0.457L0.574,-0.243C0.574,-0.193 0.563,-0.149 0.541,-0.11C0.519,-0.071 0.488,-0.042 0.449,-0.021C0.409,0 0.363,0.011 0.31,0.011ZM0.31,-0.11C0.347,-0.11 0.376,-0.122 0.399,-0.145C0.422,-0.168 0.433,-0.199 0.433,-0.238L0.433,-0.458C0.433,-0.497 0.422,-0.528 0.4,-0.552C0.377,-0.575 0.347,-0.587 0.31,-0.587C0.273,-0.587 0.244,-0.575 0.222,-0.552C0.199,-0.528 0.188,-0.497 0.188,-0.458L0.188,-0.238C0.188,-0.199 0.199,-0.168 0.222,-0.145C0.244,-0.122 0.273,-0.11 0.31,-0.11Z" style="fill:rgb(0,174,255);fill-rule:nonzero;"/>
                </g>
                <g transform="matrix(40.4853,0,0,40.4853,885.87,467)">
                    <path d="M0.507,-0.383C0.52,-0.348 0.526,-0.307 0.526,-0.259C0.526,-0.213 0.52,-0.173 0.509,-0.138C0.494,-0.093 0.469,-0.057 0.436,-0.031C0.402,-0.005 0.362,0.008 0.316,0.008C0.267,0.008 0.229,-0.01 0.201,-0.047C0.2,-0.048 0.198,-0.049 0.197,-0.049C0.196,-0.048 0.195,-0.047 0.195,-0.045L0.195,-0.012C0.195,-0.009 0.194,-0.006 0.192,-0.004C0.189,-0.001 0.186,-0 0.183,-0L0.066,-0C0.063,-0 0.06,-0.001 0.058,-0.004C0.055,-0.006 0.054,-0.009 0.054,-0.012L0.054,-0.688C0.054,-0.691 0.055,-0.694 0.058,-0.697C0.06,-0.699 0.063,-0.7 0.066,-0.7L0.183,-0.7C0.186,-0.7 0.189,-0.699 0.192,-0.697C0.194,-0.694 0.195,-0.691 0.195,-0.688L0.195,-0.474C0.195,-0.472 0.196,-0.471 0.197,-0.47C0.198,-0.469 0.2,-0.47 0.201,-0.472C0.227,-0.505 0.264,-0.522 0.312,-0.522C0.361,-0.522 0.401,-0.509 0.435,-0.485C0.467,-0.46 0.492,-0.426 0.507,-0.383ZM0.359,-0.156C0.373,-0.181 0.38,-0.215 0.38,-0.256C0.38,-0.302 0.372,-0.337 0.356,-0.362C0.34,-0.388 0.316,-0.401 0.285,-0.401C0.256,-0.401 0.233,-0.388 0.218,-0.362C0.203,-0.337 0.196,-0.302 0.196,-0.257C0.196,-0.212 0.203,-0.179 0.216,-0.156C0.232,-0.127 0.255,-0.113 0.286,-0.113C0.319,-0.113 0.343,-0.127 0.359,-0.156Z" style="fill:rgb(0,174,255);fill-rule:nonzero;"/>
                </g>
                <g transform="matrix(40.4853,0,0,40.4853,908.785,467)">
                    <path d="M0.127,-0.572C0.104,-0.572 0.086,-0.58 0.071,-0.595C0.056,-0.61 0.049,-0.628 0.049,-0.651C0.049,-0.674 0.056,-0.693 0.071,-0.708C0.086,-0.723 0.104,-0.73 0.127,-0.73C0.15,-0.73 0.169,-0.723 0.184,-0.708C0.199,-0.693 0.206,-0.674 0.206,-0.651C0.206,-0.628 0.199,-0.61 0.184,-0.595C0.169,-0.58 0.15,-0.572 0.127,-0.572ZM-0.048,0.204C-0.056,0.204 -0.06,0.2 -0.06,0.192L-0.06,0.097C-0.06,0.088 -0.056,0.085 -0.047,0.086C-0.008,0.087 0.02,0.082 0.036,0.069C0.051,0.056 0.059,0.034 0.059,0.002L0.057,-0.502C0.057,-0.505 0.058,-0.508 0.061,-0.511C0.063,-0.513 0.066,-0.514 0.069,-0.514L0.186,-0.514C0.189,-0.514 0.192,-0.513 0.195,-0.511C0.197,-0.508 0.198,-0.505 0.198,-0.502L0.198,-0C0.198,0.054 0.191,0.096 0.176,0.126C0.161,0.155 0.136,0.176 0.102,0.188C0.067,0.2 0.017,0.205 -0.048,0.204Z" style="fill:rgb(0,174,255);fill-rule:nonzero;"/>
                </g>
                <g transform="matrix(40.4853,0,0,40.4853,919.068,467)">
                    <path d="M0.507,-0.31C0.511,-0.285 0.512,-0.256 0.511,-0.225C0.51,-0.217 0.506,-0.213 0.498,-0.213L0.189,-0.213C0.185,-0.213 0.184,-0.211 0.185,-0.208C0.187,-0.195 0.191,-0.181 0.196,-0.168C0.213,-0.131 0.249,-0.112 0.302,-0.112C0.345,-0.113 0.378,-0.13 0.403,-0.164C0.406,-0.168 0.409,-0.17 0.412,-0.17C0.414,-0.17 0.416,-0.169 0.419,-0.166L0.491,-0.095C0.494,-0.092 0.496,-0.089 0.496,-0.086C0.496,-0.085 0.495,-0.082 0.492,-0.078C0.47,-0.051 0.442,-0.029 0.407,-0.015C0.372,0 0.334,0.008 0.293,0.008C0.236,0.008 0.187,-0.005 0.148,-0.031C0.108,-0.057 0.079,-0.093 0.062,-0.14C0.048,-0.173 0.041,-0.217 0.041,-0.271C0.041,-0.308 0.046,-0.34 0.056,-0.368C0.071,-0.415 0.098,-0.453 0.137,-0.481C0.175,-0.509 0.22,-0.523 0.273,-0.523C0.34,-0.523 0.393,-0.504 0.434,-0.465C0.474,-0.426 0.498,-0.375 0.507,-0.31ZM0.274,-0.401C0.232,-0.401 0.204,-0.381 0.191,-0.342C0.188,-0.333 0.186,-0.323 0.184,-0.31C0.184,-0.307 0.186,-0.305 0.189,-0.305L0.362,-0.305C0.366,-0.305 0.367,-0.307 0.366,-0.31C0.363,-0.329 0.361,-0.339 0.361,-0.338C0.355,-0.358 0.345,-0.374 0.33,-0.385C0.315,-0.396 0.296,-0.401 0.274,-0.401Z" style="fill:rgb(0,174,255);fill-rule:nonzero;"/>
                </g>
                <g transform="matrix(40.4853,0,0,40.4853,940.687,467)">
                    <path d="M0.347,-0.413C0.347,-0.41 0.346,-0.407 0.344,-0.405C0.341,-0.402 0.338,-0.401 0.335,-0.401L0.239,-0.401C0.236,-0.401 0.234,-0.399 0.234,-0.396L0.234,-0.184C0.234,-0.162 0.239,-0.146 0.248,-0.135C0.257,-0.124 0.271,-0.119 0.291,-0.119L0.324,-0.119C0.327,-0.119 0.33,-0.118 0.333,-0.116C0.335,-0.113 0.336,-0.11 0.336,-0.107L0.336,-0.012C0.336,-0.005 0.332,-0 0.324,0.001C0.296,0.002 0.276,0.003 0.264,0.003C0.209,0.003 0.167,-0.006 0.14,-0.025C0.113,-0.043 0.099,-0.077 0.098,-0.128L0.098,-0.396C0.098,-0.399 0.096,-0.401 0.093,-0.401L0.036,-0.401C0.033,-0.401 0.03,-0.402 0.028,-0.405C0.025,-0.407 0.024,-0.41 0.024,-0.413L0.024,-0.502C0.024,-0.505 0.025,-0.508 0.028,-0.511C0.03,-0.513 0.033,-0.514 0.036,-0.514L0.093,-0.514C0.096,-0.514 0.098,-0.516 0.098,-0.519L0.098,-0.638C0.098,-0.641 0.099,-0.644 0.102,-0.647C0.104,-0.649 0.107,-0.65 0.11,-0.65L0.222,-0.65C0.225,-0.65 0.228,-0.649 0.231,-0.647C0.233,-0.644 0.234,-0.641 0.234,-0.638L0.234,-0.519C0.234,-0.516 0.236,-0.514 0.239,-0.514L0.335,-0.514C0.338,-0.514 0.341,-0.513 0.344,-0.511C0.346,-0.508 0.347,-0.505 0.347,-0.502L0.347,-0.413Z" style="fill:rgb(0,174,255);fill-rule:nonzero;"/>
                </g>
                <g transform="matrix(40.4853,0,0,40.4853,955.788,467)">
                    <path d="M0.279,0.008C0.223,0.008 0.175,-0.007 0.135,-0.036C0.095,-0.065 0.068,-0.105 0.053,-0.156C0.044,-0.187 0.039,-0.221 0.039,-0.258C0.039,-0.297 0.044,-0.333 0.053,-0.364C0.068,-0.413 0.096,-0.452 0.136,-0.48C0.176,-0.508 0.224,-0.522 0.28,-0.522C0.335,-0.522 0.381,-0.508 0.42,-0.481C0.459,-0.453 0.486,-0.414 0.502,-0.365C0.513,-0.332 0.518,-0.297 0.518,-0.26C0.518,-0.224 0.513,-0.19 0.504,-0.159C0.489,-0.107 0.462,-0.066 0.423,-0.037C0.383,-0.007 0.335,0.008 0.279,0.008ZM0.279,-0.113C0.301,-0.113 0.32,-0.12 0.335,-0.133C0.35,-0.146 0.361,-0.165 0.368,-0.188C0.373,-0.209 0.376,-0.233 0.376,-0.258C0.376,-0.286 0.373,-0.31 0.368,-0.329C0.361,-0.352 0.349,-0.369 0.334,-0.382C0.319,-0.395 0.3,-0.401 0.278,-0.401C0.255,-0.401 0.237,-0.395 0.222,-0.382C0.207,-0.369 0.196,-0.352 0.189,-0.329C0.184,-0.313 0.181,-0.289 0.181,-0.258C0.181,-0.228 0.183,-0.205 0.188,-0.188C0.195,-0.165 0.206,-0.146 0.222,-0.133C0.237,-0.12 0.256,-0.113 0.279,-0.113Z" style="fill:rgb(0,174,255);fill-rule:nonzero;"/>
                </g>
                <g transform="matrix(40.4853,0,0,40.4853,846.964,507.485)">
                    <path d="M0.128,-0.572C0.105,-0.572 0.087,-0.58 0.072,-0.595C0.057,-0.61 0.049,-0.628 0.049,-0.651C0.049,-0.674 0.056,-0.693 0.071,-0.708C0.086,-0.723 0.105,-0.73 0.128,-0.73C0.151,-0.73 0.17,-0.723 0.185,-0.708C0.2,-0.693 0.207,-0.674 0.207,-0.651C0.207,-0.628 0.2,-0.61 0.185,-0.595C0.169,-0.58 0.151,-0.572 0.128,-0.572ZM0.068,-0C0.065,-0 0.062,-0.001 0.06,-0.004C0.057,-0.006 0.056,-0.009 0.056,-0.012L0.056,-0.503C0.056,-0.506 0.057,-0.509 0.06,-0.512C0.062,-0.514 0.065,-0.515 0.068,-0.515L0.185,-0.515C0.188,-0.515 0.191,-0.514 0.194,-0.512C0.196,-0.509 0.197,-0.506 0.197,-0.503L0.197,-0.012C0.197,-0.009 0.196,-0.006 0.194,-0.004C0.191,-0.001 0.188,-0 0.185,-0L0.068,-0Z" style="fill:rgb(0,174,255);fill-rule:nonzero;"/>
                </g>
                <g transform="matrix(40.4853,0,0,40.4853,857.287,507.485)">
                    <path d="M0.347,-0.413C0.347,-0.41 0.346,-0.407 0.344,-0.405C0.341,-0.402 0.338,-0.401 0.335,-0.401L0.239,-0.401C0.236,-0.401 0.234,-0.399 0.234,-0.396L0.234,-0.184C0.234,-0.162 0.239,-0.146 0.248,-0.135C0.257,-0.124 0.271,-0.119 0.291,-0.119L0.324,-0.119C0.327,-0.119 0.33,-0.118 0.333,-0.116C0.335,-0.113 0.336,-0.11 0.336,-0.107L0.336,-0.012C0.336,-0.005 0.332,-0 0.324,0.001C0.296,0.002 0.276,0.003 0.264,0.003C0.209,0.003 0.167,-0.006 0.14,-0.025C0.113,-0.043 0.099,-0.077 0.098,-0.128L0.098,-0.396C0.098,-0.399 0.096,-0.401 0.093,-0.401L0.036,-0.401C0.033,-0.401 0.03,-0.402 0.028,-0.405C0.025,-0.407 0.024,-0.41 0.024,-0.413L0.024,-0.502C0.024,-0.505 0.025,-0.508 0.028,-0.511C0.03,-0.513 0.033,-0.514 0.036,-0.514L0.093,-0.514C0.096,-0.514 0.098,-0.516 0.098,-0.519L0.098,-0.638C0.098,-0.641 0.099,-0.644 0.102,-0.647C0.104,-0.649 0.107,-0.65 0.11,-0.65L0.222,-0.65C0.225,-0.65 0.228,-0.649 0.231,-0.647C0.233,-0.644 0.234,-0.641 0.234,-0.638L0.234,-0.519C0.234,-0.516 0.236,-0.514 0.239,-0.514L0.335,-0.514C0.338,-0.514 0.341,-0.513 0.344,-0.511C0.346,-0.508 0.347,-0.505 0.347,-0.502L0.347,-0.413Z" style="fill:rgb(0,174,255);fill-rule:nonzero;"/>
                </g>
                <g transform="matrix(40.4853,0,0,40.4853,872.388,507.485)">
                    <path d="M0.507,-0.31C0.511,-0.285 0.512,-0.256 0.511,-0.225C0.51,-0.217 0.506,-0.213 0.498,-0.213L0.189,-0.213C0.185,-0.213 0.184,-0.211 0.185,-0.208C0.187,-0.195 0.191,-0.181 0.196,-0.168C0.213,-0.131 0.249,-0.112 0.302,-0.112C0.345,-0.113 0.378,-0.13 0.403,-0.164C0.406,-0.168 0.409,-0.17 0.412,-0.17C0.414,-0.17 0.416,-0.169 0.419,-0.166L0.491,-0.095C0.494,-0.092 0.496,-0.089 0.496,-0.086C0.496,-0.085 0.495,-0.082 0.492,-0.078C0.47,-0.051 0.442,-0.029 0.407,-0.015C0.372,0 0.334,0.008 0.293,0.008C0.236,0.008 0.187,-0.005 0.148,-0.031C0.108,-0.057 0.079,-0.093 0.062,-0.14C0.048,-0.173 0.041,-0.217 0.041,-0.271C0.041,-0.308 0.046,-0.34 0.056,-0.368C0.071,-0.415 0.098,-0.453 0.137,-0.481C0.175,-0.509 0.22,-0.523 0.273,-0.523C0.34,-0.523 0.393,-0.504 0.434,-0.465C0.474,-0.426 0.498,-0.375 0.507,-0.31ZM0.274,-0.401C0.232,-0.401 0.204,-0.381 0.191,-0.342C0.188,-0.333 0.186,-0.323 0.184,-0.31C0.184,-0.307 0.186,-0.305 0.189,-0.305L0.362,-0.305C0.366,-0.305 0.367,-0.307 0.366,-0.31C0.363,-0.329 0.361,-0.339 0.361,-0.338C0.355,-0.358 0.345,-0.374 0.33,-0.385C0.315,-0.396 0.296,-0.401 0.274,-0.401Z" style="fill:rgb(0,174,255);fill-rule:nonzero;"/>
                </g>
                <g transform="matrix(40.4853,0,0,40.4853,894.493,507.485)">
                    <path d="M0.308,-0.521C0.332,-0.521 0.351,-0.516 0.365,-0.507C0.37,-0.504 0.372,-0.499 0.371,-0.492L0.35,-0.378C0.349,-0.37 0.345,-0.368 0.336,-0.371C0.326,-0.374 0.314,-0.376 0.301,-0.376C0.296,-0.376 0.288,-0.375 0.279,-0.374C0.255,-0.372 0.235,-0.363 0.218,-0.348C0.201,-0.332 0.193,-0.311 0.193,-0.285L0.193,-0.012C0.193,-0.009 0.192,-0.006 0.19,-0.004C0.187,-0.001 0.184,-0 0.181,-0L0.064,-0C0.061,-0 0.058,-0.001 0.056,-0.004C0.053,-0.006 0.052,-0.009 0.052,-0.012L0.052,-0.502C0.052,-0.505 0.053,-0.508 0.056,-0.511C0.058,-0.513 0.061,-0.514 0.064,-0.514L0.181,-0.514C0.184,-0.514 0.187,-0.513 0.19,-0.511C0.192,-0.508 0.193,-0.505 0.193,-0.502L0.193,-0.464C0.193,-0.462 0.194,-0.461 0.195,-0.46C0.196,-0.459 0.197,-0.46 0.198,-0.461C0.225,-0.501 0.262,-0.521 0.308,-0.521Z" style="fill:rgb(0,174,255);fill-rule:nonzero;"/>
                </g>
                <g transform="matrix(40.4853,0,0,40.4853,909.756,507.485)">
                    <path d="M0.257,-0.522C0.3,-0.522 0.339,-0.515 0.373,-0.5C0.407,-0.485 0.434,-0.464 0.453,-0.438C0.471,-0.412 0.481,-0.383 0.481,-0.351L0.481,-0.012C0.481,-0.009 0.48,-0.006 0.478,-0.004C0.475,-0.001 0.472,-0 0.469,-0L0.352,-0C0.349,-0 0.346,-0.001 0.344,-0.004C0.341,-0.006 0.34,-0.009 0.34,-0.012L0.34,-0.045C0.34,-0.047 0.339,-0.048 0.338,-0.049C0.337,-0.05 0.335,-0.049 0.334,-0.047C0.306,-0.01 0.261,0.008 0.199,0.008C0.147,0.008 0.105,-0.005 0.073,-0.03C0.041,-0.055 0.025,-0.093 0.025,-0.142C0.025,-0.193 0.043,-0.233 0.079,-0.262C0.115,-0.29 0.166,-0.304 0.233,-0.304L0.335,-0.304C0.338,-0.304 0.34,-0.306 0.34,-0.309L0.34,-0.331C0.34,-0.353 0.333,-0.37 0.32,-0.383C0.307,-0.395 0.287,-0.401 0.26,-0.401C0.239,-0.401 0.222,-0.397 0.209,-0.39C0.195,-0.383 0.186,-0.372 0.182,-0.359C0.18,-0.352 0.176,-0.348 0.169,-0.349L0.048,-0.365C0.04,-0.366 0.036,-0.369 0.037,-0.374C0.04,-0.402 0.051,-0.427 0.071,-0.45C0.09,-0.473 0.116,-0.49 0.149,-0.503C0.181,-0.516 0.217,-0.522 0.257,-0.522ZM0.237,-0.097C0.266,-0.097 0.29,-0.105 0.31,-0.12C0.33,-0.135 0.34,-0.155 0.34,-0.179L0.34,-0.215C0.34,-0.218 0.338,-0.22 0.335,-0.22L0.263,-0.22C0.233,-0.22 0.21,-0.214 0.193,-0.203C0.175,-0.192 0.167,-0.176 0.167,-0.155C0.167,-0.137 0.173,-0.123 0.186,-0.113C0.199,-0.102 0.216,-0.097 0.237,-0.097Z" style="fill:rgb(0,174,255);fill-rule:nonzero;"/>
                </g>
                <g transform="matrix(40.4853,0,0,40.4853,931.133,507.485)">
                    <path d="M0.371,-0.688C0.371,-0.691 0.372,-0.694 0.375,-0.697C0.377,-0.699 0.38,-0.7 0.383,-0.7L0.5,-0.7C0.503,-0.7 0.506,-0.699 0.509,-0.697C0.511,-0.694 0.512,-0.691 0.512,-0.688L0.512,-0.012C0.512,-0.009 0.511,-0.006 0.509,-0.004C0.506,-0.001 0.503,-0 0.5,-0L0.383,-0C0.38,-0 0.377,-0.001 0.375,-0.004C0.372,-0.006 0.371,-0.009 0.371,-0.012L0.371,-0.045C0.371,-0.047 0.37,-0.048 0.369,-0.049C0.368,-0.049 0.366,-0.048 0.365,-0.047C0.337,-0.01 0.299,0.008 0.25,0.008C0.203,0.008 0.163,-0.005 0.13,-0.031C0.096,-0.057 0.072,-0.093 0.057,-0.138C0.046,-0.173 0.04,-0.213 0.04,-0.259C0.04,-0.306 0.046,-0.348 0.058,-0.383C0.073,-0.426 0.097,-0.46 0.131,-0.485C0.164,-0.509 0.204,-0.522 0.253,-0.522C0.301,-0.522 0.338,-0.505 0.365,-0.472C0.366,-0.47 0.368,-0.469 0.369,-0.47C0.37,-0.471 0.371,-0.472 0.371,-0.474L0.371,-0.688ZM0.35,-0.156C0.363,-0.181 0.37,-0.214 0.37,-0.257C0.37,-0.302 0.363,-0.337 0.348,-0.362C0.333,-0.388 0.31,-0.401 0.281,-0.401C0.25,-0.401 0.226,-0.388 0.21,-0.362C0.193,-0.336 0.185,-0.301 0.185,-0.256C0.185,-0.216 0.192,-0.183 0.206,-0.156C0.223,-0.127 0.247,-0.113 0.28,-0.113C0.31,-0.113 0.333,-0.127 0.35,-0.156Z" style="fill:rgb(0,174,255);fill-rule:nonzero;"/>
                </g>
                <g transform="matrix(40.4853,0,0,40.4853,954.047,507.485)">
                    <path d="M0.279,0.008C0.223,0.008 0.175,-0.007 0.135,-0.036C0.095,-0.065 0.068,-0.105 0.053,-0.156C0.044,-0.187 0.039,-0.221 0.039,-0.258C0.039,-0.297 0.044,-0.333 0.053,-0.364C0.068,-0.413 0.096,-0.452 0.136,-0.48C0.176,-0.508 0.224,-0.522 0.28,-0.522C0.335,-0.522 0.381,-0.508 0.42,-0.481C0.459,-0.453 0.486,-0.414 0.502,-0.365C0.513,-0.332 0.518,-0.297 0.518,-0.26C0.518,-0.224 0.513,-0.19 0.504,-0.159C0.489,-0.107 0.462,-0.066 0.423,-0.037C0.383,-0.007 0.335,0.008 0.279,0.008ZM0.279,-0.113C0.301,-0.113 0.32,-0.12 0.335,-0.133C0.35,-0.146 0.361,-0.165 0.368,-0.188C0.373,-0.209 0.376,-0.233 0.376,-0.258C0.376,-0.286 0.373,-0.31 0.368,-0.329C0.361,-0.352 0.349,-0.369 0.334,-0.382C0.319,-0.395 0.3,-0.401 0.278,-0.401C0.255,-0.401 0.237,-0.395 0.222,-0.382C0.207,-0.369 0.196,-0.352 0.189,-0.329C0.184,-0.313 0.181,-0.289 0.181,-0.258C0.181,-0.228 0.183,-0.205 0.188,-0.188C0.195,-0.165 0.206,-0.146 0.222,-0.133C0.237,-0.12 0.256,-0.113 0.279,-0.113Z" style="fill:rgb(0,174,255);fill-rule:nonzero;"/>
                </g>
                <g transform="matrix(40.4853,0,0,40.4853,976.598,507.485)">
                    <path d="M0.308,-0.521C0.332,-0.521 0.351,-0.516 0.365,-0.507C0.37,-0.504 0.372,-0.499 0.371,-0.492L0.35,-0.378C0.349,-0.37 0.345,-0.368 0.336,-0.371C0.326,-0.374 0.314,-0.376 0.301,-0.376C0.296,-0.376 0.288,-0.375 0.279,-0.374C0.255,-0.372 0.235,-0.363 0.218,-0.348C0.201,-0.332 0.193,-0.311 0.193,-0.285L0.193,-0.012C0.193,-0.009 0.192,-0.006 0.19,-0.004C0.187,-0.001 0.184,-0 0.181,-0L0.064,-0C0.061,-0 0.058,-0.001 0.056,-0.004C0.053,-0.006 0.052,-0.009 0.052,-0.012L0.052,-0.502C0.052,-0.505 0.053,-0.508 0.056,-0.511C0.058,-0.513 0.061,-0.514 0.064,-0.514L0.181,-0.514C0.184,-0.514 0.187,-0.513 0.19,-0.511C0.192,-0.508 0.193,-0.505 0.193,-0.502L0.193,-0.464C0.193,-0.462 0.194,-0.461 0.195,-0.46C0.196,-0.459 0.197,-0.46 0.198,-0.461C0.225,-0.501 0.262,-0.521 0.308,-0.521Z" style="fill:rgb(0,174,255);fill-rule:nonzero;"/>
                </g>
            </g>
        </g>
        <g transform="matrix(0.755208,0,0,0.448148,0,0)">
            <g transform="matrix(0.669632,0,0,1.12845,-37.8428,-265.024)">
                <g transform="matrix(36,0,0,36,181.455,714.34)">
                    <rect x="-0.548" y="0.069" width="1.096" height="0.096" style="fill:rgb(255,0,211);fill-rule:nonzero;"/>
                </g>
                <g transform="matrix(36,0,0,36,201.091,714.34)">
                    <path d="M0.349,-0.562L0.349,-0.096L0.508,-0.096L0.508,-0L0.085,-0L0.085,-0.096L0.245,-0.096L0.245,-0.465L0.13,-0.465L0.13,-0.562L0.349,-0.562ZM0.28,-0.644C0.25,-0.644 0.229,-0.649 0.218,-0.66C0.207,-0.67 0.201,-0.69 0.201,-0.718C0.201,-0.747 0.207,-0.766 0.218,-0.777C0.229,-0.787 0.25,-0.793 0.28,-0.793C0.31,-0.793 0.331,-0.787 0.343,-0.777C0.354,-0.766 0.36,-0.747 0.36,-0.718C0.36,-0.69 0.354,-0.67 0.343,-0.66C0.331,-0.649 0.31,-0.644 0.28,-0.644Z" style="fill:rgb(255,0,211);fill-rule:nonzero;"/>
                </g>
                <g transform="matrix(36,0,0,36,220.727,714.34)">
                    <path d="M0.332,0.013C0.288,0.013 0.252,0.005 0.225,-0.01C0.199,-0.025 0.179,-0.049 0.167,-0.082C0.154,-0.115 0.148,-0.159 0.148,-0.213L0.148,-0.476L0.035,-0.476L0.035,-0.573L0.148,-0.573L0.148,-0.727L0.253,-0.727L0.253,-0.573L0.441,-0.573L0.441,-0.476L0.253,-0.476L0.253,-0.213C0.253,-0.179 0.255,-0.153 0.26,-0.134C0.265,-0.116 0.273,-0.103 0.284,-0.095C0.295,-0.087 0.311,-0.084 0.332,-0.084C0.354,-0.084 0.37,-0.085 0.38,-0.088C0.39,-0.091 0.398,-0.097 0.402,-0.105C0.407,-0.112 0.412,-0.126 0.418,-0.145L0.516,-0.112C0.507,-0.08 0.495,-0.056 0.481,-0.038C0.466,-0.02 0.447,-0.007 0.424,0.001C0.401,0.009 0.37,0.013 0.332,0.013Z" style="fill:rgb(255,0,211);fill-rule:nonzero;"/>
                </g>
                <g transform="matrix(36,0,0,36,240.364,714.34)">
                    <path d="M0.275,-0.575C0.334,-0.575 0.38,-0.564 0.413,-0.542C0.446,-0.521 0.47,-0.487 0.483,-0.44C0.497,-0.394 0.503,-0.332 0.502,-0.253L0.141,-0.253C0.143,-0.209 0.148,-0.175 0.157,-0.151C0.166,-0.127 0.179,-0.109 0.198,-0.099C0.217,-0.089 0.243,-0.084 0.275,-0.084C0.299,-0.084 0.318,-0.086 0.333,-0.09C0.348,-0.095 0.362,-0.103 0.374,-0.115C0.387,-0.127 0.401,-0.145 0.418,-0.168L0.502,-0.113C0.472,-0.066 0.44,-0.033 0.406,-0.015C0.373,0.003 0.329,0.013 0.275,0.013C0.215,0.013 0.168,0.003 0.133,-0.017C0.098,-0.037 0.073,-0.068 0.058,-0.111C0.043,-0.153 0.035,-0.21 0.035,-0.281C0.035,-0.352 0.043,-0.408 0.058,-0.451C0.073,-0.493 0.098,-0.525 0.133,-0.545C0.168,-0.565 0.215,-0.575 0.275,-0.575ZM0.395,-0.349C0.391,-0.382 0.385,-0.408 0.377,-0.426C0.369,-0.445 0.357,-0.458 0.34,-0.466C0.324,-0.474 0.303,-0.478 0.275,-0.478C0.245,-0.478 0.221,-0.474 0.203,-0.466C0.185,-0.458 0.171,-0.445 0.161,-0.426C0.152,-0.408 0.146,-0.382 0.143,-0.349L0.395,-0.349Z" style="fill:rgb(255,0,211);fill-rule:nonzero;"/>
                </g>
                <g transform="matrix(36,0,0,36,260,714.34)">
                    <path d="M0.085,-0L0.085,-0.562L0.189,-0.562L0.189,-0.515C0.204,-0.531 0.222,-0.545 0.245,-0.557C0.268,-0.569 0.293,-0.575 0.32,-0.575C0.355,-0.575 0.384,-0.57 0.407,-0.56C0.43,-0.551 0.45,-0.536 0.467,-0.515C0.483,-0.494 0.498,-0.465 0.512,-0.428L0.418,-0.385C0.41,-0.412 0.402,-0.432 0.395,-0.445C0.387,-0.457 0.378,-0.466 0.367,-0.471C0.356,-0.476 0.34,-0.478 0.32,-0.478C0.273,-0.478 0.239,-0.462 0.219,-0.43C0.199,-0.397 0.189,-0.35 0.189,-0.288L0.189,-0L0.085,-0Z" style="fill:rgb(255,0,211);fill-rule:nonzero;"/>
                </g>
                <g transform="matrix(36,0,0,36,299.273,714.34)">
                    <rect x="-0.548" y="0.069" width="1.096" height="0.096" style="fill:rgb(255,0,211);fill-rule:nonzero;"/>
                </g>
                <g transform="matrix(36,0,0,36,318.909,714.34)">
                    <path d="M0.43,0.132C0.369,0.132 0.316,0.111 0.269,0.07C0.222,0.029 0.186,-0.029 0.161,-0.104C0.135,-0.179 0.123,-0.265 0.123,-0.364C0.123,-0.462 0.135,-0.548 0.161,-0.623C0.186,-0.698 0.222,-0.756 0.269,-0.797C0.316,-0.838 0.369,-0.859 0.43,-0.859L0.43,-0.763C0.39,-0.763 0.355,-0.746 0.324,-0.713C0.293,-0.68 0.27,-0.633 0.253,-0.573C0.236,-0.513 0.227,-0.443 0.227,-0.364C0.227,-0.284 0.236,-0.214 0.253,-0.154C0.27,-0.094 0.293,-0.047 0.324,-0.014C0.355,0.019 0.39,0.035 0.43,0.035L0.43,0.132Z" style="fill:rgb(255,0,211);fill-rule:nonzero;"/>
                </g>
                <g transform="matrix(36,0,0,36,338.545,714.34)">
                    <path d="M0.116,0.035C0.156,0.035 0.192,0.019 0.222,-0.014C0.253,-0.047 0.277,-0.094 0.294,-0.154C0.311,-0.214 0.319,-0.284 0.319,-0.364C0.319,-0.443 0.311,-0.513 0.294,-0.573C0.277,-0.633 0.253,-0.68 0.222,-0.713C0.192,-0.746 0.156,-0.763 0.116,-0.763L0.116,-0.859C0.177,-0.859 0.231,-0.838 0.277,-0.797C0.324,-0.756 0.36,-0.698 0.385,-0.623C0.411,-0.548 0.424,-0.462 0.424,-0.364C0.424,-0.265 0.411,-0.179 0.385,-0.104C0.36,-0.029 0.324,0.029 0.277,0.07C0.231,0.111 0.177,0.132 0.116,0.132L0.116,0.035Z" style="fill:rgb(255,0,211);fill-rule:nonzero;"/>
                </g>
            </g>
        </g>
        <g transform="matrix(0.755208,0,0,0.448148,0,0)">
            <g transform="matrix(0.669632,0,0,1.12845,306.348,-265.024)">
                <g transform="matrix(36,0,0,36,181.455,714.34)">
                    <rect x="-0.548" y="0.069" width="1.096" height="0.096" style="fill:rgb(0,174,255);fill-rule:nonzero;"/>
                </g>
                <g transform="matrix(36,0,0,36,201.091,714.34)">
                    <path d="M0.06,-0L0.06,-0.562L0.165,-0.562L0.165,-0.548C0.203,-0.566 0.247,-0.575 0.298,-0.575C0.35,-0.575 0.39,-0.567 0.418,-0.553C0.446,-0.539 0.466,-0.515 0.478,-0.481C0.49,-0.448 0.496,-0.4 0.496,-0.339L0.496,-0L0.391,-0L0.391,-0.339C0.391,-0.375 0.388,-0.403 0.382,-0.423C0.377,-0.443 0.367,-0.457 0.354,-0.465C0.341,-0.474 0.322,-0.478 0.298,-0.478C0.259,-0.478 0.23,-0.475 0.211,-0.468C0.193,-0.461 0.18,-0.448 0.174,-0.431C0.168,-0.413 0.165,-0.386 0.165,-0.349L0.165,-0L0.06,-0Z" style="fill:rgb(0,174,255);fill-rule:nonzero;"/>
                </g>
                <g transform="matrix(36,0,0,36,220.727,714.34)">
                    <path d="M0.275,-0.575C0.334,-0.575 0.38,-0.564 0.413,-0.542C0.446,-0.521 0.47,-0.487 0.483,-0.44C0.497,-0.394 0.503,-0.332 0.502,-0.253L0.141,-0.253C0.143,-0.209 0.148,-0.175 0.157,-0.151C0.166,-0.127 0.179,-0.109 0.198,-0.099C0.217,-0.089 0.243,-0.084 0.275,-0.084C0.299,-0.084 0.318,-0.086 0.333,-0.09C0.348,-0.095 0.362,-0.103 0.374,-0.115C0.387,-0.127 0.401,-0.145 0.418,-0.168L0.502,-0.113C0.472,-0.066 0.44,-0.033 0.406,-0.015C0.373,0.003 0.329,0.013 0.275,0.013C0.215,0.013 0.168,0.003 0.133,-0.017C0.098,-0.037 0.073,-0.068 0.058,-0.111C0.043,-0.153 0.035,-0.21 0.035,-0.281C0.035,-0.352 0.043,-0.408 0.058,-0.451C0.073,-0.493 0.098,-0.525 0.133,-0.545C0.168,-0.565 0.215,-0.575 0.275,-0.575ZM0.395,-0.349C0.391,-0.382 0.385,-0.408 0.377,-0.426C0.369,-0.445 0.357,-0.458 0.34,-0.466C0.324,-0.474 0.303,-0.478 0.275,-0.478C0.245,-0.478 0.221,-0.474 0.203,-0.466C0.185,-0.458 0.171,-0.445 0.161,-0.426C0.152,-0.408 0.146,-0.382 0.143,-0.349L0.395,-0.349Z" style="fill:rgb(0,174,255);fill-rule:nonzero;"/>
                </g>
                <g transform="matrix(36,0,0,36,240.364,714.34)">
                    <path d="M0.398,-0.562L0.518,-0.562L0.333,-0.281L0.518,-0L0.398,-0L0.273,-0.19L0.147,-0L0.027,-0L0.213,-0.281L0.027,-0.562L0.147,-0.562L0.273,-0.372L0.398,-0.562Z" style="fill:rgb(0,174,255);fill-rule:nonzero;"/>
                </g>
                <g transform="matrix(36,0,0,36,260,714.34)">
                    <path d="M0.332,0.013C0.288,0.013 0.252,0.005 0.225,-0.01C0.199,-0.025 0.179,-0.049 0.167,-0.082C0.154,-0.115 0.148,-0.159 0.148,-0.213L0.148,-0.476L0.035,-0.476L0.035,-0.573L0.148,-0.573L0.148,-0.727L0.253,-0.727L0.253,-0.573L0.441,-0.573L0.441,-0.476L0.253,-0.476L0.253,-0.213C0.253,-0.179 0.255,-0.153 0.26,-0.134C0.265,-0.116 0.273,-0.103 0.284,-0.095C0.295,-0.087 0.311,-0.084 0.332,-0.084C0.354,-0.084 0.37,-0.085 0.38,-0.088C0.39,-0.091 0.398,-0.097 0.402,-0.105C0.407,-0.112 0.412,-0.126 0.418,-0.145L0.516,-0.112C0.507,-0.08 0.495,-0.056 0.481,-0.038C0.466,-0.02 0.447,-0.007 0.424,0.001C0.401,0.009 0.37,0.013 0.332,0.013Z" style="fill:rgb(0,174,255);fill-rule:nonzero;"/>
                </g>
                <g transform="matrix(36,0,0,36,299.273,714.34)">
                    <rect x="-0.548" y="0.069" width="1.096" height="0.096" style="fill:rgb(0,174,255);fill-rule:nonzero;"/>
                </g>
                <g transform="matrix(36,0,0,36,318.909,714.34)">
                    <path d="M0.43,0.132C0.369,0.132 0.316,0.111 0.269,0.07C0.222,0.029 0.186,-0.029 0.161,-0.104C0.135,-0.179 0.123,-0.265 0.123,-0.364C0.123,-0.462 0.135,-0.548 0.161,-0.623C0.186,-0.698 0.222,-0.756 0.269,-0.797C0.316,-0.838 0.369,-0.859 0.43,-0.859L0.43,-0.763C0.39,-0.763 0.355,-0.746 0.324,-0.713C0.293,-0.68 0.27,-0.633 0.253,-0.573C0.236,-0.513 0.227,-0.443 0.227,-0.364C0.227,-0.284 0.236,-0.214 0.253,-0.154C0.27,-0.094 0.293,-0.047 0.324,-0.014C0.355,0.019 0.39,0.035 0.43,0.035L0.43,0.132Z" style="fill:rgb(0,174,255);fill-rule:nonzero;"/>
                </g>
                <g transform="matrix(36,0,0,36,338.545,714.34)">
                    <path d="M0.116,0.035C0.156,0.035 0.192,0.019 0.222,-0.014C0.253,-0.047 0.277,-0.094 0.294,-0.154C0.311,-0.214 0.319,-0.284 0.319,-0.364C0.319,-0.443 0.311,-0.513 0.294,-0.573C0.277,-0.633 0.253,-0.68 0.222,-0.713C0.192,-0.746 0.156,-0.763 0.116,-0.763L0.116,-0.859C0.177,-0.859 0.231,-0.838 0.277,-0.797C0.324,-0.756 0.36,-0.698 0.385,-0.623C0.411,-0.548 0.424,-0.462 0.424,-0.364C0.424,-0.265 0.411,-0.179 0.385,-0.104C0.36,-0.029 0.324,0.029 0.277,0.07C0.231,0.111 0.177,0.132 0.116,0.132L0.116,0.035Z" style="fill:rgb(0,174,255);fill-rule:nonzero;"/>
                </g>
            </g>
        </g>
        <g transform="matrix(0.755208,0,0,0.448148,0,0)">
            <g transform="matrix(1.17418,0,0,1.9787,511.196,-1167.09)">
                <g transform="matrix(22.8119,0,0,22.8119,191.564,714.34)">
                    <path d="M0.393,-0.225L0.393,-0.727L0.497,-0.727L0.497,-0L0.385,-0L0.154,-0.5L0.154,-0L0.048,-0L0.048,-0.727L0.16,-0.727L0.393,-0.225Z" style="fill:rgb(1,167,55);fill-rule:nonzero;"/>
                </g>
                <g transform="matrix(22.8119,0,0,22.8119,204.007,714.34)">
                    <path d="M0.257,0.013C0.208,0.013 0.169,0.005 0.141,-0.01C0.112,-0.024 0.092,-0.048 0.079,-0.082C0.066,-0.115 0.06,-0.161 0.06,-0.218L0.06,-0.562L0.165,-0.562L0.165,-0.218C0.165,-0.181 0.167,-0.152 0.172,-0.134C0.177,-0.115 0.187,-0.102 0.2,-0.095C0.213,-0.087 0.232,-0.084 0.257,-0.084C0.295,-0.084 0.323,-0.087 0.341,-0.093C0.36,-0.099 0.373,-0.11 0.38,-0.125C0.387,-0.14 0.391,-0.163 0.391,-0.194L0.391,-0.562L0.496,-0.562L0.496,-0L0.391,-0L0.391,-0.009C0.359,0.005 0.315,0.013 0.257,0.013Z" style="fill:rgb(1,167,55);fill-rule:nonzero;"/>
                </g>
                <g transform="matrix(22.8119,0,0,22.8119,216.45,714.34)">
                    <path d="M0.275,-0.575C0.334,-0.575 0.38,-0.564 0.413,-0.542C0.446,-0.521 0.47,-0.487 0.483,-0.44C0.497,-0.394 0.503,-0.332 0.502,-0.253L0.141,-0.253C0.143,-0.209 0.148,-0.175 0.157,-0.151C0.166,-0.127 0.179,-0.109 0.198,-0.099C0.217,-0.089 0.243,-0.084 0.275,-0.084C0.299,-0.084 0.318,-0.086 0.333,-0.09C0.348,-0.095 0.362,-0.103 0.374,-0.115C0.387,-0.127 0.401,-0.145 0.418,-0.168L0.502,-0.113C0.472,-0.066 0.44,-0.033 0.406,-0.015C0.373,0.003 0.329,0.013 0.275,0.013C0.215,0.013 0.168,0.003 0.133,-0.017C0.098,-0.037 0.073,-0.068 0.058,-0.111C0.043,-0.153 0.035,-0.21 0.035,-0.281C0.035,-0.352 0.043,-0.408 0.058,-0.451C0.073,-0.493 0.098,-0.525 0.133,-0.545C0.168,-0.565 0.215,-0.575 0.275,-0.575ZM0.395,-0.349C0.391,-0.382 0.385,-0.408 0.377,-0.426C0.369,-0.445 0.357,-0.458 0.34,-0.466C0.324,-0.474 0.303,-0.478 0.275,-0.478C0.245,-0.478 0.221,-0.474 0.203,-0.466C0.185,-0.458 0.171,-0.445 0.161,-0.426C0.152,-0.408 0.146,-0.382 0.143,-0.349L0.395,-0.349Z" style="fill:rgb(1,167,55);fill-rule:nonzero;"/>
                </g>
                <g transform="matrix(22.8119,0,0,22.8119,228.893,714.34)">
                    <path d="M0.319,-0L0.225,-0L0.022,-0.562L0.129,-0.562L0.272,-0.155L0.415,-0.562L0.523,-0.562L0.319,-0Z" style="fill:rgb(1,167,55);fill-rule:nonzero;"/>
                </g>
                <g transform="matrix(22.8119,0,0,22.8119,241.336,714.34)">
                    <path d="M0.273,0.013C0.216,0.013 0.172,0.003 0.14,-0.017C0.107,-0.037 0.084,-0.068 0.07,-0.111C0.055,-0.153 0.048,-0.21 0.048,-0.281C0.048,-0.352 0.055,-0.408 0.07,-0.451C0.084,-0.493 0.107,-0.525 0.14,-0.545C0.172,-0.565 0.216,-0.575 0.273,-0.575C0.329,-0.575 0.374,-0.565 0.406,-0.545C0.439,-0.525 0.463,-0.493 0.477,-0.451C0.491,-0.408 0.498,-0.352 0.498,-0.281C0.498,-0.21 0.491,-0.153 0.477,-0.111C0.463,-0.068 0.439,-0.037 0.406,-0.017C0.374,0.003 0.329,0.013 0.273,0.013ZM0.273,-0.084C0.304,-0.084 0.329,-0.09 0.346,-0.101C0.363,-0.113 0.375,-0.133 0.383,-0.161C0.39,-0.19 0.394,-0.229 0.394,-0.281C0.394,-0.332 0.39,-0.372 0.383,-0.4C0.375,-0.429 0.363,-0.449 0.346,-0.46C0.329,-0.472 0.304,-0.478 0.273,-0.478C0.241,-0.478 0.217,-0.472 0.2,-0.46C0.183,-0.449 0.171,-0.429 0.164,-0.4C0.156,-0.372 0.153,-0.332 0.153,-0.281C0.153,-0.229 0.156,-0.19 0.164,-0.161C0.171,-0.133 0.183,-0.113 0.2,-0.101C0.217,-0.09 0.241,-0.084 0.273,-0.084Z" style="fill:rgb(1,167,55);fill-rule:nonzero;"/>
                </g>
                <g transform="matrix(22.8119,0,0,22.8119,266.221,714.34)">
                    <path d="M0.319,-0L0.225,-0L0.022,-0.562L0.129,-0.562L0.272,-0.155L0.415,-0.562L0.523,-0.562L0.319,-0Z" style="fill:rgb(1,167,55);fill-rule:nonzero;"/>
                </g>
                <g transform="matrix(22.8119,0,0,22.8119,278.664,714.34)">
                    <path d="M0.249,0.013C0.196,0.013 0.153,0.007 0.121,-0.005C0.09,-0.018 0.067,-0.037 0.052,-0.062C0.038,-0.088 0.031,-0.122 0.031,-0.165C0.031,-0.214 0.038,-0.251 0.052,-0.278C0.066,-0.304 0.088,-0.323 0.12,-0.333C0.151,-0.344 0.194,-0.349 0.249,-0.349L0.364,-0.349L0.364,-0.369C0.364,-0.395 0.36,-0.414 0.354,-0.428C0.348,-0.442 0.336,-0.452 0.32,-0.458C0.304,-0.463 0.28,-0.466 0.249,-0.466C0.224,-0.466 0.204,-0.464 0.191,-0.459C0.178,-0.453 0.167,-0.444 0.16,-0.431C0.153,-0.418 0.146,-0.397 0.139,-0.37L0.039,-0.395C0.05,-0.438 0.064,-0.472 0.08,-0.498C0.096,-0.524 0.118,-0.543 0.145,-0.556C0.173,-0.568 0.207,-0.575 0.249,-0.575C0.328,-0.575 0.384,-0.558 0.418,-0.524C0.451,-0.49 0.468,-0.439 0.468,-0.369L0.468,-0.156C0.468,-0.132 0.471,-0.115 0.475,-0.107C0.48,-0.099 0.491,-0.095 0.506,-0.095C0.511,-0.095 0.522,-0.096 0.539,-0.097L0.539,-0.001C0.532,-0 0.522,-0 0.509,-0C0.456,-0 0.42,-0.012 0.4,-0.036C0.384,-0.019 0.363,-0.006 0.339,0.001C0.315,0.009 0.285,0.013 0.249,0.013ZM0.249,-0.084C0.28,-0.084 0.304,-0.087 0.32,-0.095C0.336,-0.102 0.348,-0.114 0.354,-0.132C0.36,-0.149 0.364,-0.175 0.364,-0.208L0.364,-0.253L0.249,-0.253C0.215,-0.253 0.19,-0.251 0.175,-0.248C0.161,-0.244 0.151,-0.237 0.145,-0.225C0.138,-0.213 0.135,-0.193 0.135,-0.165C0.135,-0.143 0.138,-0.126 0.145,-0.115C0.151,-0.104 0.162,-0.096 0.178,-0.091C0.194,-0.086 0.218,-0.084 0.249,-0.084Z" style="fill:rgb(1,167,55);fill-rule:nonzero;"/>
                </g>
                <g transform="matrix(22.8119,0,0,22.8119,291.107,714.34)">
                    <path d="M0.366,0.013C0.324,0.013 0.291,0.006 0.268,-0.006C0.244,-0.019 0.228,-0.04 0.218,-0.07C0.208,-0.1 0.203,-0.142 0.203,-0.195L0.203,-0.631L0.088,-0.631L0.088,-0.727L0.307,-0.727L0.307,-0.195C0.307,-0.153 0.312,-0.124 0.32,-0.108C0.328,-0.092 0.344,-0.084 0.366,-0.084C0.377,-0.084 0.389,-0.087 0.401,-0.095C0.414,-0.102 0.431,-0.115 0.454,-0.134L0.512,-0.045C0.485,-0.023 0.461,-0.008 0.44,0C0.42,0.009 0.395,0.013 0.366,0.013Z" style="fill:rgb(1,167,55);fill-rule:nonzero;"/>
                </g>
                <g transform="matrix(22.8119,0,0,22.8119,303.55,714.34)">
                    <path d="M0.273,0.013C0.216,0.013 0.172,0.003 0.14,-0.017C0.107,-0.037 0.084,-0.068 0.07,-0.111C0.055,-0.153 0.048,-0.21 0.048,-0.281C0.048,-0.352 0.055,-0.408 0.07,-0.451C0.084,-0.493 0.107,-0.525 0.14,-0.545C0.172,-0.565 0.216,-0.575 0.273,-0.575C0.329,-0.575 0.374,-0.565 0.406,-0.545C0.439,-0.525 0.463,-0.493 0.477,-0.451C0.491,-0.408 0.498,-0.352 0.498,-0.281C0.498,-0.21 0.491,-0.153 0.477,-0.111C0.463,-0.068 0.439,-0.037 0.406,-0.017C0.374,0.003 0.329,0.013 0.273,0.013ZM0.273,-0.084C0.304,-0.084 0.329,-0.09 0.346,-0.101C0.363,-0.113 0.375,-0.133 0.383,-0.161C0.39,-0.19 0.394,-0.229 0.394,-0.281C0.394,-0.332 0.39,-0.372 0.383,-0.4C0.375,-0.429 0.363,-0.449 0.346,-0.46C0.329,-0.472 0.304,-0.478 0.273,-0.478C0.241,-0.478 0.217,-0.472 0.2,-0.46C0.183,-0.449 0.171,-0.429 0.164,-0.4C0.156,-0.372 0.153,-0.332 0.153,-0.281C0.153,-0.229 0.156,-0.19 0.164,-0.161C0.171,-0.133 0.183,-0.113 0.2,-0.101C0.217,-0.09 0.241,-0.084 0.273,-0.084Z" style="fill:rgb(1,167,55);fill-rule:nonzero;"/>
                </g>
                <g transform="matrix(22.8119,0,0,22.8119,315.993,714.34)">
                    <path d="M0.085,-0L0.085,-0.562L0.189,-0.562L0.189,-0.515C0.204,-0.531 0.222,-0.545 0.245,-0.557C0.268,-0.569 0.293,-0.575 0.32,-0.575C0.355,-0.575 0.384,-0.57 0.407,-0.56C0.43,-0.551 0.45,-0.536 0.467,-0.515C0.483,-0.494 0.498,-0.465 0.512,-0.428L0.418,-0.385C0.41,-0.412 0.402,-0.432 0.395,-0.445C0.387,-0.457 0.378,-0.466 0.367,-0.471C0.356,-0.476 0.34,-0.478 0.32,-0.478C0.273,-0.478 0.239,-0.462 0.219,-0.43C0.199,-0.397 0.189,-0.35 0.189,-0.288L0.189,-0L0.085,-0Z" style="fill:rgb(1,167,55);fill-rule:nonzero;"/>
                </g>
            </g>
        </g>
        <g transform="matrix(0.755208,0,0,0.448148,0,0)">
            <g transform="matrix(1.17418,0,0,1.9787,526.318,-994.11)">
                <g transform="matrix(22.8119,0,0,22.8119,179.121,714.34)">
                    <path d="M0.273,0.013C0.227,0.013 0.189,0.009 0.159,0C0.129,-0.008 0.103,-0.021 0.083,-0.04C0.063,-0.06 0.045,-0.086 0.029,-0.119L0.11,-0.195C0.121,-0.164 0.132,-0.141 0.143,-0.125C0.154,-0.11 0.169,-0.1 0.188,-0.093C0.208,-0.087 0.236,-0.084 0.273,-0.084C0.308,-0.084 0.335,-0.087 0.353,-0.095C0.371,-0.103 0.384,-0.115 0.391,-0.133C0.398,-0.15 0.402,-0.176 0.402,-0.21C0.402,-0.235 0.398,-0.254 0.39,-0.267C0.382,-0.281 0.369,-0.292 0.351,-0.301C0.333,-0.311 0.304,-0.322 0.264,-0.335C0.208,-0.354 0.166,-0.371 0.137,-0.388C0.107,-0.405 0.086,-0.425 0.073,-0.448C0.059,-0.471 0.053,-0.501 0.053,-0.538C0.053,-0.587 0.06,-0.627 0.074,-0.656C0.088,-0.685 0.111,-0.707 0.143,-0.72C0.175,-0.733 0.218,-0.74 0.273,-0.74C0.315,-0.74 0.35,-0.736 0.378,-0.729C0.405,-0.722 0.429,-0.71 0.448,-0.693C0.468,-0.677 0.485,-0.653 0.501,-0.624L0.426,-0.543C0.415,-0.572 0.404,-0.593 0.394,-0.607C0.383,-0.62 0.369,-0.63 0.351,-0.635C0.333,-0.641 0.307,-0.644 0.273,-0.644C0.241,-0.644 0.217,-0.641 0.2,-0.635C0.184,-0.628 0.173,-0.618 0.167,-0.603C0.16,-0.588 0.157,-0.567 0.157,-0.538C0.157,-0.517 0.161,-0.501 0.167,-0.49C0.174,-0.479 0.185,-0.47 0.201,-0.462C0.217,-0.455 0.244,-0.445 0.281,-0.434C0.339,-0.415 0.384,-0.397 0.416,-0.379C0.448,-0.361 0.471,-0.339 0.485,-0.312C0.499,-0.286 0.506,-0.252 0.506,-0.21C0.506,-0.155 0.499,-0.112 0.484,-0.08C0.468,-0.048 0.444,-0.024 0.41,-0.01C0.377,0.005 0.331,0.013 0.273,0.013Z" style="fill:rgb(235,28,28);fill-rule:nonzero;"/>
                </g>
                <g transform="matrix(22.8119,0,0,22.8119,191.564,714.34)">
                    <path d="M0.332,0.013C0.288,0.013 0.252,0.005 0.225,-0.01C0.199,-0.025 0.179,-0.049 0.167,-0.082C0.154,-0.115 0.148,-0.159 0.148,-0.213L0.148,-0.476L0.035,-0.476L0.035,-0.573L0.148,-0.573L0.148,-0.727L0.253,-0.727L0.253,-0.573L0.441,-0.573L0.441,-0.476L0.253,-0.476L0.253,-0.213C0.253,-0.179 0.255,-0.153 0.26,-0.134C0.265,-0.116 0.273,-0.103 0.284,-0.095C0.295,-0.087 0.311,-0.084 0.332,-0.084C0.354,-0.084 0.37,-0.085 0.38,-0.088C0.39,-0.091 0.398,-0.097 0.402,-0.105C0.407,-0.112 0.412,-0.126 0.418,-0.145L0.516,-0.112C0.507,-0.08 0.495,-0.056 0.481,-0.038C0.466,-0.02 0.447,-0.007 0.424,0.001C0.401,0.009 0.37,0.013 0.332,0.013Z" style="fill:rgb(235,28,28);fill-rule:nonzero;"/>
                </g>
                <g transform="matrix(22.8119,0,0,22.8119,204.007,714.34)">
                    <path d="M0.273,0.013C0.216,0.013 0.172,0.003 0.14,-0.017C0.107,-0.037 0.084,-0.068 0.07,-0.111C0.055,-0.153 0.048,-0.21 0.048,-0.281C0.048,-0.352 0.055,-0.408 0.07,-0.451C0.084,-0.493 0.107,-0.525 0.14,-0.545C0.172,-0.565 0.216,-0.575 0.273,-0.575C0.329,-0.575 0.374,-0.565 0.406,-0.545C0.439,-0.525 0.463,-0.493 0.477,-0.451C0.491,-0.408 0.498,-0.352 0.498,-0.281C0.498,-0.21 0.491,-0.153 0.477,-0.111C0.463,-0.068 0.439,-0.037 0.406,-0.017C0.374,0.003 0.329,0.013 0.273,0.013ZM0.273,-0.084C0.304,-0.084 0.329,-0.09 0.346,-0.101C0.363,-0.113 0.375,-0.133 0.383,-0.161C0.39,-0.19 0.394,-0.229 0.394,-0.281C0.394,-0.332 0.39,-0.372 0.383,-0.4C0.375,-0.429 0.363,-0.449 0.346,-0.46C0.329,-0.472 0.304,-0.478 0.273,-0.478C0.241,-0.478 0.217,-0.472 0.2,-0.46C0.183,-0.449 0.171,-0.429 0.164,-0.4C0.156,-0.372 0.153,-0.332 0.153,-0.281C0.153,-0.229 0.156,-0.19 0.164,-0.161C0.171,-0.133 0.183,-0.113 0.2,-0.101C0.217,-0.09 0.241,-0.084 0.273,-0.084Z" style="fill:rgb(235,28,28);fill-rule:nonzero;"/>
                </g>
                <g transform="matrix(22.8119,0,0,22.8119,216.45,714.34)">
                    <path d="M0.053,0.165L0.053,-0.562L0.158,-0.562L0.158,-0.556C0.193,-0.568 0.234,-0.575 0.279,-0.575C0.335,-0.575 0.38,-0.565 0.413,-0.545C0.445,-0.525 0.469,-0.494 0.483,-0.452C0.497,-0.409 0.505,-0.353 0.505,-0.282C0.505,-0.211 0.497,-0.154 0.483,-0.111C0.469,-0.069 0.445,-0.037 0.413,-0.017C0.38,0.003 0.335,0.013 0.279,0.013C0.236,0.013 0.196,0.005 0.158,-0.009L0.158,0.165L0.053,0.165ZM0.279,-0.084C0.311,-0.084 0.335,-0.09 0.352,-0.102C0.37,-0.114 0.382,-0.134 0.389,-0.162C0.396,-0.19 0.4,-0.23 0.4,-0.282C0.4,-0.333 0.396,-0.373 0.389,-0.401C0.382,-0.429 0.37,-0.449 0.352,-0.46C0.335,-0.472 0.311,-0.478 0.279,-0.478C0.198,-0.478 0.158,-0.461 0.158,-0.425L0.158,-0.211C0.158,-0.167 0.168,-0.135 0.186,-0.115C0.205,-0.094 0.236,-0.084 0.279,-0.084Z" style="fill:rgb(235,28,28);fill-rule:nonzero;"/>
                </g>
                <g transform="matrix(22.8119,0,0,22.8119,228.893,714.34)">
                    <path d="M0.473,-0.727L0.473,-0.631L0.325,-0.631L0.325,-0.096L0.473,-0.096L0.473,-0L0.074,-0L0.074,-0.096L0.221,-0.096L0.221,-0.631L0.074,-0.631L0.074,-0.727L0.473,-0.727Z" style="fill:rgb(235,28,28);fill-rule:nonzero;"/>
                </g>
                <g transform="matrix(22.8119,0,0,22.8119,241.336,714.34)">
                    <path d="M0.332,0.013C0.288,0.013 0.252,0.005 0.225,-0.01C0.199,-0.025 0.179,-0.049 0.167,-0.082C0.154,-0.115 0.148,-0.159 0.148,-0.213L0.148,-0.476L0.035,-0.476L0.035,-0.573L0.148,-0.573L0.148,-0.727L0.253,-0.727L0.253,-0.573L0.441,-0.573L0.441,-0.476L0.253,-0.476L0.253,-0.213C0.253,-0.179 0.255,-0.153 0.26,-0.134C0.265,-0.116 0.273,-0.103 0.284,-0.095C0.295,-0.087 0.311,-0.084 0.332,-0.084C0.354,-0.084 0.37,-0.085 0.38,-0.088C0.39,-0.091 0.398,-0.097 0.402,-0.105C0.407,-0.112 0.412,-0.126 0.418,-0.145L0.516,-0.112C0.507,-0.08 0.495,-0.056 0.481,-0.038C0.466,-0.02 0.447,-0.007 0.424,0.001C0.401,0.009 0.37,0.013 0.332,0.013Z" style="fill:rgb(235,28,28);fill-rule:nonzero;"/>
                </g>
                <g transform="matrix(22.8119,0,0,22.8119,253.779,714.34)">
                    <path d="M0.275,-0.575C0.334,-0.575 0.38,-0.564 0.413,-0.542C0.446,-0.521 0.47,-0.487 0.483,-0.44C0.497,-0.394 0.503,-0.332 0.502,-0.253L0.141,-0.253C0.143,-0.209 0.148,-0.175 0.157,-0.151C0.166,-0.127 0.179,-0.109 0.198,-0.099C0.217,-0.089 0.243,-0.084 0.275,-0.084C0.299,-0.084 0.318,-0.086 0.333,-0.09C0.348,-0.095 0.362,-0.103 0.374,-0.115C0.387,-0.127 0.401,-0.145 0.418,-0.168L0.502,-0.113C0.472,-0.066 0.44,-0.033 0.406,-0.015C0.373,0.003 0.329,0.013 0.275,0.013C0.215,0.013 0.168,0.003 0.133,-0.017C0.098,-0.037 0.073,-0.068 0.058,-0.111C0.043,-0.153 0.035,-0.21 0.035,-0.281C0.035,-0.352 0.043,-0.408 0.058,-0.451C0.073,-0.493 0.098,-0.525 0.133,-0.545C0.168,-0.565 0.215,-0.575 0.275,-0.575ZM0.395,-0.349C0.391,-0.382 0.385,-0.408 0.377,-0.426C0.369,-0.445 0.357,-0.458 0.34,-0.466C0.324,-0.474 0.303,-0.478 0.275,-0.478C0.245,-0.478 0.221,-0.474 0.203,-0.466C0.185,-0.458 0.171,-0.445 0.161,-0.426C0.152,-0.408 0.146,-0.382 0.143,-0.349L0.395,-0.349Z" style="fill:rgb(235,28,28);fill-rule:nonzero;"/>
                </g>
                <g transform="matrix(22.8119,0,0,22.8119,266.221,714.34)">
                    <path d="M0.085,-0L0.085,-0.562L0.189,-0.562L0.189,-0.515C0.204,-0.531 0.222,-0.545 0.245,-0.557C0.268,-0.569 0.293,-0.575 0.32,-0.575C0.355,-0.575 0.384,-0.57 0.407,-0.56C0.43,-0.551 0.45,-0.536 0.467,-0.515C0.483,-0.494 0.498,-0.465 0.512,-0.428L0.418,-0.385C0.41,-0.412 0.402,-0.432 0.395,-0.445C0.387,-0.457 0.378,-0.466 0.367,-0.471C0.356,-0.476 0.34,-0.478 0.32,-0.478C0.273,-0.478 0.239,-0.462 0.219,-0.43C0.199,-0.397 0.189,-0.35 0.189,-0.288L0.189,-0L0.085,-0Z" style="fill:rgb(235,28,28);fill-rule:nonzero;"/>
                </g>
                <g transform="matrix(22.8119,0,0,22.8119,278.664,714.34)">
                    <path d="M0.249,0.013C0.196,0.013 0.153,0.007 0.121,-0.005C0.09,-0.018 0.067,-0.037 0.052,-0.062C0.038,-0.088 0.031,-0.122 0.031,-0.165C0.031,-0.214 0.038,-0.251 0.052,-0.278C0.066,-0.304 0.088,-0.323 0.12,-0.333C0.151,-0.344 0.194,-0.349 0.249,-0.349L0.364,-0.349L0.364,-0.369C0.364,-0.395 0.36,-0.414 0.354,-0.428C0.348,-0.442 0.336,-0.452 0.32,-0.458C0.304,-0.463 0.28,-0.466 0.249,-0.466C0.224,-0.466 0.204,-0.464 0.191,-0.459C0.178,-0.453 0.167,-0.444 0.16,-0.431C0.153,-0.418 0.146,-0.397 0.139,-0.37L0.039,-0.395C0.05,-0.438 0.064,-0.472 0.08,-0.498C0.096,-0.524 0.118,-0.543 0.145,-0.556C0.173,-0.568 0.207,-0.575 0.249,-0.575C0.328,-0.575 0.384,-0.558 0.418,-0.524C0.451,-0.49 0.468,-0.439 0.468,-0.369L0.468,-0.156C0.468,-0.132 0.471,-0.115 0.475,-0.107C0.48,-0.099 0.491,-0.095 0.506,-0.095C0.511,-0.095 0.522,-0.096 0.539,-0.097L0.539,-0.001C0.532,-0 0.522,-0 0.509,-0C0.456,-0 0.42,-0.012 0.4,-0.036C0.384,-0.019 0.363,-0.006 0.339,0.001C0.315,0.009 0.285,0.013 0.249,0.013ZM0.249,-0.084C0.28,-0.084 0.304,-0.087 0.32,-0.095C0.336,-0.102 0.348,-0.114 0.354,-0.132C0.36,-0.149 0.364,-0.175 0.364,-0.208L0.364,-0.253L0.249,-0.253C0.215,-0.253 0.19,-0.251 0.175,-0.248C0.161,-0.244 0.151,-0.237 0.145,-0.225C0.138,-0.213 0.135,-0.193 0.135,-0.165C0.135,-0.143 0.138,-0.126 0.145,-0.115C0.151,-0.104 0.162,-0.096 0.178,-0.091C0.194,-0.086 0.218,-0.084 0.249,-0.084Z" style="fill:rgb(235,28,28);fill-rule:nonzero;"/>
                </g>
                <g transform="matrix(22.8119,0,0,22.8119,291.107,714.34)">
                    <path d="M0.332,0.013C0.288,0.013 0.252,0.005 0.225,-0.01C0.199,-0.025 0.179,-0.049 0.167,-0.082C0.154,-0.115 0.148,-0.159 0.148,-0.213L0.148,-0.476L0.035,-0.476L0.035,-0.573L0.148,-0.573L0.148,-0.727L0.253,-0.727L0.253,-0.573L0.441,-0.573L0.441,-0.476L0.253,-0.476L0.253,-0.213C0.253,-0.179 0.255,-0.153 0.26,-0.134C0.265,-0.116 0.273,-0.103 0.284,-0.095C0.295,-0.087 0.311,-0.084 0.332,-0.084C0.354,-0.084 0.37,-0.085 0.38,-0.088C0.39,-0.091 0.398,-0.097 0.402,-0.105C0.407,-0.112 0.412,-0.126 0.418,-0.145L0.516,-0.112C0.507,-0.08 0.495,-0.056 0.481,-0.038C0.466,-0.02 0.447,-0.007 0.424,0.001C0.401,0.009 0.37,0.013 0.332,0.013Z" style="fill:rgb(235,28,28);fill-rule:nonzero;"/>
                </g>
                <g transform="matrix(22.8119,0,0,22.8119,303.55,714.34)">
                    <path d="M0.349,-0.562L0.349,-0.096L0.508,-0.096L0.508,-0L0.085,-0L0.085,-0.096L0.245,-0.096L0.245,-0.465L0.13,-0.465L0.13,-0.562L0.349,-0.562ZM0.28,-0.644C0.25,-0.644 0.229,-0.649 0.218,-0.66C0.207,-0.67 0.201,-0.69 0.201,-0.718C0.201,-0.747 0.207,-0.766 0.218,-0.777C0.229,-0.787 0.25,-0.793 0.28,-0.793C0.31,-0.793 0.331,-0.787 0.343,-0.777C0.354,-0.766 0.36,-0.747 0.36,-0.718C0.36,-0.69 0.354,-0.67 0.343,-0.66C0.331,-0.649 0.31,-0.644 0.28,-0.644Z" style="fill:rgb(235,28,28);fill-rule:nonzero;"/>
                </g>
                <g transform="matrix(22.8119,0,0,22.8119,315.993,714.34)">
                    <path d="M0.273,0.013C0.216,0.013 0.172,0.003 0.14,-0.017C0.107,-0.037 0.084,-0.068 0.07,-0.111C0.055,-0.153 0.048,-0.21 0.048,-0.281C0.048,-0.352 0.055,-0.408 0.07,-0.451C0.084,-0.493 0.107,-0.525 0.14,-0.545C0.172,-0.565 0.216,-0.575 0.273,-0.575C0.329,-0.575 0.374,-0.565 0.406,-0.545C0.439,-0.525 0.463,-0.493 0.477,-0.451C0.491,-0.408 0.498,-0.352 0.498,-0.281C0.498,-0.21 0.491,-0.153 0.477,-0.111C0.463,-0.068 0.439,-0.037 0.406,-0.017C0.374,0.003 0.329,0.013 0.273,0.013ZM0.273,-0.084C0.304,-0.084 0.329,-0.09 0.346,-0.101C0.363,-0.113 0.375,-0.133 0.383,-0.161C0.39,-0.19 0.394,-0.229 0.394,-0.281C0.394,-0.332 0.39,-0.372 0.383,-0.4C0.375,-0.429 0.363,-0.449 0.346,-0.46C0.329,-0.472 0.304,-0.478 0.273,-0.478C0.241,-0.478 0.217,-0.472 0.2,-0.46C0.183,-0.449 0.171,-0.429 0.164,-0.4C0.156,-0.372 0.153,-0.332 0.153,-0.281C0.153,-0.229 0.156,-0.19 0.164,-0.161C0.171,-0.133 0.183,-0.113 0.2,-0.101C0.217,-0.09 0.241,-0.084 0.273,-0.084Z" style="fill:rgb(235,28,28);fill-rule:nonzero;"/>
                </g>
                <g transform="matrix(22.8119,0,0,22.8119,328.436,714.34)">
                    <path d="M0.06,-0L0.06,-0.562L0.165,-0.562L0.165,-0.548C0.203,-0.566 0.247,-0.575 0.298,-0.575C0.35,-0.575 0.39,-0.567 0.418,-0.553C0.446,-0.539 0.466,-0.515 0.478,-0.481C0.49,-0.448 0.496,-0.4 0.496,-0.339L0.496,-0L0.391,-0L0.391,-0.339C0.391,-0.375 0.388,-0.403 0.382,-0.423C0.377,-0.443 0.367,-0.457 0.354,-0.465C0.341,-0.474 0.322,-0.478 0.298,-0.478C0.259,-0.478 0.23,-0.475 0.211,-0.468C0.193,-0.461 0.18,-0.448 0.174,-0.431C0.168,-0.413 0.165,-0.386 0.165,-0.349L0.165,-0L0.06,-0Z" style="fill:rgb(235,28,28);fill-rule:nonzero;"/>
                </g>
            </g>
        </g>
        <g transform="matrix(0.755208,0,0,0.448148,0,0)">
            <g transform="matrix(0.669632,0,0,1.12845,-204.158,-204.166)">
                <g transform="matrix(1.97741,-0,-0,1.97741,382,210.315)">
                    <path d="M469.065,114.001L476.344,125.578L468.457,136.75" style="fill:none;stroke:rgb(166,166,166);stroke-width:5.06px;"/>
                    <path d="M382.677,221.304C421.186,211.383 407.914,174.923 423.712,149.696C434.059,133.174 457.238,125.49 476.344,125.578" style="fill:none;stroke:rgb(166,166,166);stroke-width:5.06px;stroke-linejoin:round;stroke-miterlimit:1.5;"/>
                </g>
            </g>
        </g>
        <g transform="matrix(0.755208,0,0,0.448148,0,0)">
            <g transform="matrix(0.669632,0,0,1.12845,-204.158,-204.166)">
                <g transform="matrix(1.97741,-0,-0,1.97741,382,210.315)">
                    <path d="M113.384,43.039L107.107,30.89L115.908,20.423" style="fill:none;stroke:rgb(255,198,245);stroke-width:5.06px;"/>
                    <path d="M122.741,221.304C146.053,194.145 168.744,152.777 171.282,116.932C174.341,73.719 150.424,36.504 107.107,30.89" style="fill:none;stroke:rgb(255,198,245);stroke-width:5.06px;stroke-linejoin:round;stroke-miterlimit:1.5;stroke-dasharray:15.17,10.11,0,0;"/>
                </g>
            </g>
        </g>
        <g transform="matrix(0.755208,0,0,0.448148,0,0)">
            <g transform="matrix(0.669632,0,0,1.12845,-204.158,-204.166)">
                <g transform="matrix(1.97741,-0,-0,1.97741,382,210.315)">
                    <path d="M270.165,23.807L277.434,35.39L269.537,46.555" style="fill:none;stroke:rgb(166,166,166);stroke-width:5.06px;"/>
                    <path d="M122.741,221.304C187.722,219.235 202.139,181.869 215.874,123.271C224.32,87.239 230.628,35.194 277.434,35.39" style="fill:none;stroke:rgb(166,166,166);stroke-width:5.06px;stroke-linejoin:round;stroke-miterlimit:1.5;"/>
                </g>
            </g>
        </g>
        <g transform="matrix(0.755208,0,0,0.448148,0,0)">
            <g transform="matrix(0.446421,0,0,1.12845,95.3907,-239.864)">
                <path d="M1471,334L1369,334L1369,647.924L1471,647.924" style="fill:none;stroke:rgb(0,174,255);stroke-width:11.77px;stroke-linejoin:round;stroke-miterlimit:1.5;"/>
            </g>
        </g>
        <g transform="matrix(0.755208,0,0,0.448148,0,0)">
            <g transform="matrix(0.0615239,0,0,0.103679,909.795,189.123)">
                <g id="cycle">
                    <g>
                        <path d="M570,793.333L413.333,700L503.333,540L560,573.333L503.333,676.667L603.333,736.667L570,793.333ZM190,366.667L133.333,266.667L36.667,323.333L3.333,266.667L160,173.333L250,333.333L190,366.667Z" style="fill:rgb(1,167,55);fill-rule:nonzero;"/>
                    </g>
                    <g>
                        <path d="M733.333,200L550,200L550,133.333L666.667,133.333L666.667,16.667L733.333,16.667L733.333,200Z" style="fill:rgb(1,167,55);fill-rule:nonzero;"/>
                    </g>
                    <g>
                        <path d="M513.333,716.667L500,650C633.333,620 730,500 730,363.333C730,343.333 726.667,320 723.333,300L790,286.667C796.667,313.333 800,340 800,363.333C800,536.667 680,683.333 513.333,716.667Z" style="fill:rgb(1,167,55);fill-rule:nonzero;"/>
                    </g>
                    <g>
                        <path d="M326.667,710C176.667,663.333 73.333,526.667 73.333,366.667C73.333,323.333 80,280 96.667,240L160,263.333C146.667,296.667 140,330 140,366.667C140,496.667 223.333,606.667 343.333,646.667L326.667,710Z" style="fill:rgb(1,167,55);fill-rule:nonzero;"/>
                    </g>
                    <g>
                        <path d="M653.333,166.667C596.667,103.333 516.667,66.667 433.333,66.667C363.333,66.667 296.667,93.333 243.333,136.667L200,86.667C263.333,30 346.667,0 433.333,0C536.667,0 633.333,43.333 703.333,120L653.333,166.667Z" style="fill:rgb(1,167,55);fill-rule:nonzero;"/>
                    </g>
                </g>
            </g>
        </g>
        <g transform="matrix(0.755208,0,0,0.448148,0,0)">
            <g transform="matrix(0.0732134,0,0,0.123377,929.729,355.845)">
                <path d="M589.473,120.093C606.85,98.133 590.44,66.667 561.613,66.667L337.723,66.667C325.217,66.667 313.665,73.053 307.44,83.409L138.017,365.257C124.659,387.477 141.463,415.18 168.301,415.18L282.588,415.18L174.918,684.01C159.369,718.02 201.419,749.1 229.697,724.5L666.667,311.04L438.367,311.04L589.473,120.093Z" style="fill:none;fill-rule:nonzero;stroke:rgb(235,28,28);stroke-width:66.67px;stroke-linejoin:round;stroke-miterlimit:4;"/>
            </g>
        </g>
    </g>
</svg>
