<svg xmlns="http://www.w3.org/2000/svg" xmlns:xlink="http://www.w3.org/1999/xlink" width="702" height="252" fill-rule="evenodd" stroke-linecap="round" stroke-miterlimit="10" xmlns:v="https://vecta.io/nano"><style><![CDATA[.B{stroke-width:5.06}.C{stroke-linejoin:round}.D{stroke-miterlimit:1.5}.E{fill:#ff00d3}.F{fill:#00aeff}.G{fill-rule:nonzero}]]></style><g class="G"><path d="M62.961 75.192L0 90.932v78.701l62.961 31.481 62.961-31.481V90.932l-62.961-15.74zm50.369 20.462l-46.434 17.314-51.943-17.314 48.008-12.592 50.369 12.592zM7.87 164.912v-63.748l55.091 18.888v72.405L7.87 164.912z" class="E"/><path d="M322.897 75.192l-62.961 15.74v78.701l62.961 31.481 62.961-31.481V90.932l-62.961-15.74zm50.369 20.462l-46.434 17.314-51.943-17.314 48.008-12.592 50.369 12.592zm-105.46 69.257v-63.748l55.091 18.888v72.405l-55.091-27.546z" class="F"/><g class="E"><use xlink:href="#B"/><path d="M56.168 33.243c.266.717.389 1.556.389 2.539 0 .942-.123 1.761-.348 2.477-.307.921-.819 1.658-1.495 2.191-.696.532-1.515.798-2.457.798-1.003 0-1.781-.369-2.354-1.126-.02-.02-.061-.041-.082-.041-.02.02-.041.041-.041.082v.676c0 .061-.02.123-.061.164a.25.25 0 0 1-.184.082H47.14c-.061 0-.123-.02-.164-.082-.061-.041-.082-.102-.082-.164v-13.84a.25.25 0 0 1 .082-.184c.041-.041.102-.061.164-.061h2.395a.33.33 0 0 1 .184.061.33.33 0 0 1 .061.184v4.381c0 .041.02.061.041.082s.061 0 .082-.041c.532-.676 1.29-1.024 2.273-1.024 1.003 0 1.822.266 2.518.758.655.512 1.167 1.208 1.474 2.088zm-3.03 4.648c.287-.512.43-1.208.43-2.047 0-.942-.164-1.658-.491-2.17-.328-.532-.819-.798-1.454-.798a1.5 1.5 0 0 0-1.372.798c-.307.512-.45 1.228-.45 2.15s.143 1.597.409 2.068c.328.594.798.88 1.433.88.676 0 1.167-.287 1.495-.88z"/><use xlink:href="#C"/><use xlink:href="#D"/><use xlink:href="#E"/><use xlink:href="#F"/><path d="M30.269 49.847a1.54 1.54 0 0 1-1.147-.471 1.54 1.54 0 0 1-.471-1.147c0-.471.143-.86.45-1.167s.696-.45 1.167-.45.86.143 1.167.45.45.696.45 1.167-.143.839-.45 1.147c-.328.307-.696.471-1.167.471zm-1.228 11.711c-.061 0-.123-.02-.164-.082-.061-.041-.082-.102-.082-.164V51.26a.25.25 0 0 1 .082-.184c.041-.041.102-.061.164-.061h2.395a.33.33 0 0 1 .184.061.33.33 0 0 1 .061.184v10.053c0 .061-.02.123-.061.164a.25.25 0 0 1-.184.082h-2.395z"/><use xlink:href="#G"/><use xlink:href="#D" x="-22.071" y="20.473"/><use xlink:href="#H"/><path d="M64.665 50.871c.88 0 1.679.143 2.375.45s1.249.737 1.638 1.269c.369.532.573 1.126.573 1.781v6.941c0 .061-.02.123-.061.164a.25.25 0 0 1-.184.082H66.61c-.061 0-.123-.02-.164-.082-.061-.041-.082-.102-.082-.164v-.676c0-.041-.02-.061-.041-.082s-.061 0-.082.041c-.573.758-1.495 1.126-2.764 1.126-1.065 0-1.925-.266-2.58-.778s-.983-1.29-.983-2.293c0-1.044.369-1.863 1.106-2.457.737-.573 1.781-.86 3.153-.86h2.088c.061 0 .102-.041.102-.102v-.45c0-.45-.143-.798-.409-1.065-.266-.246-.676-.369-1.228-.369-.43 0-.778.082-1.044.225-.287.143-.471.369-.553.635-.041.143-.123.225-.266.205l-2.477-.328c-.164-.02-.246-.082-.225-.184a2.76 2.76 0 0 1 .696-1.556c.389-.471.921-.819 1.597-1.085.655-.266 1.392-.389 2.211-.389zm-.409 8.701c.594 0 1.085-.164 1.495-.471s.614-.717.614-1.208v-.737c0-.061-.041-.102-.102-.102h-1.474c-.614 0-1.085.123-1.433.348-.369.225-.532.553-.532.983 0 .369.123.655.389.86.266.225.614.328 1.044.328z"/><use xlink:href="#I"/><path d="M83.112 61.558c-.061 0-.123-.02-.164-.082-.061-.041-.082-.102-.082-.164v-13.84a.25.25 0 0 1 .082-.184c.041-.041.102-.061.164-.061h2.395a.33.33 0 0 1 .184.061.33.33 0 0 1 .061.184v13.84c0 .061-.02.123-.061.164a.25.25 0 0 1-.184.082h-2.395z"/><use xlink:href="#D" x="24.221" y="20.473"/></g><g class="F"><use xlink:href="#B" x="259.936"/><use xlink:href="#I" x="235.51" y="-20.474"/><use xlink:href="#C" x="259.936"/><use xlink:href="#D" x="259.936"/><use xlink:href="#E" x="259.936"/><use xlink:href="#F" x="259.936"/><path d="M288.67 49.847a1.54 1.54 0 0 1-1.617-1.617c0-.471.143-.86.45-1.167s.696-.45 1.167-.45.86.143 1.167.45.45.696.45 1.167-.143.839-.45 1.147c-.328.307-.696.471-1.167.471zm-1.228 11.711c-.061 0-.123-.02-.164-.082-.061-.041-.082-.102-.082-.164V51.26a.25.25 0 0 1 .082-.184c.041-.041.102-.061.164-.061h2.395a.33.33 0 0 1 .184.061.33.33 0 0 1 .061.184v10.053c0 .061-.02.123-.061.164a.25.25 0 0 1-.184.082h-2.395z"/><use xlink:href="#G" x="258.4"/><use xlink:href="#D" x="236.329" y="20.473"/><use xlink:href="#H" x="258.4"/><path d="M323.065 50.871c.88 0 1.679.143 2.375.45s1.249.737 1.638 1.269c.369.532.573 1.126.573 1.781v6.941c0 .061-.02.123-.061.164a.25.25 0 0 1-.184.082h-2.395c-.061 0-.123-.02-.164-.082-.061-.041-.082-.102-.082-.164v-.676c0-.041-.02-.061-.041-.082s-.061 0-.082.041c-.573.758-1.495 1.126-2.764 1.126-1.065 0-1.925-.266-2.58-.778s-.983-1.29-.983-2.293c0-1.044.369-1.863 1.106-2.457.737-.573 1.781-.86 3.153-.86h2.088c.061 0 .102-.041.102-.102v-.45c0-.45-.143-.798-.409-1.065-.266-.246-.676-.369-1.228-.369-.43 0-.778.082-1.044.225-.287.143-.471.369-.553.635-.041.143-.123.225-.266.205l-2.477-.328c-.164-.02-.246-.082-.225-.184a2.76 2.76 0 0 1 .696-1.556c.389-.471.921-.819 1.597-1.085.655-.266 1.392-.389 2.211-.389zm-.409 8.701c.594 0 1.085-.164 1.495-.471s.614-.717.614-1.208v-.737c0-.061-.041-.102-.102-.102h-1.474c-.614 0-1.085.123-1.433.348-.369.225-.532.553-.532.983 0 .369.123.655.389.86.266.225.614.328 1.044.328zm13.554-12.1a.25.25 0 0 1 .082-.184c.041-.041.102-.061.164-.061h2.395a.33.33 0 0 1 .184.061.33.33 0 0 1 .061.184v13.84c0 .061-.02.123-.061.164a.25.25 0 0 1-.184.082h-2.395c-.061 0-.123-.02-.164-.082-.061-.041-.082-.102-.082-.164v-.676c0-.041-.02-.061-.041-.082-.02 0-.061.02-.082.041-.573.758-1.351 1.126-2.354 1.126-.962 0-1.781-.266-2.457-.798-.696-.532-1.187-1.269-1.495-2.191-.225-.717-.348-1.536-.348-2.477 0-.962.123-1.822.369-2.539.307-.88.798-1.576 1.495-2.088.676-.491 1.495-.758 2.498-.758.983 0 1.74.348 2.293 1.024.02.041.061.061.082.041s.041-.041.041-.082v-4.381zm-.43 10.892c.266-.512.409-1.187.409-2.068 0-.921-.143-1.638-.45-2.15a1.5 1.5 0 0 0-1.372-.798c-.635 0-1.126.266-1.454.798-.348.532-.512 1.249-.512 2.17 0 .819.143 1.495.43 2.047.348.594.839.88 1.515.88.614 0 1.085-.287 1.433-.88z"/><use xlink:href="#F" x="259.055" y="20.474"/><use xlink:href="#H" x="299.921"/></g><g class="E"><path d="M14.208 228.875h19.953v1.748H14.208zm26.26-11.488v8.484h2.895v1.748h-7.701v-1.748h2.913v-6.718h-2.094v-1.766h3.987zm-1.256-1.493c-.546 0-.928-.091-1.129-.291-.2-.182-.309-.546-.309-1.056 0-.528.109-.874.309-1.074.2-.182.583-.291 1.129-.291s.928.109 1.147.291c.2.2.309.546.309 1.074 0 .51-.109.874-.309 1.056-.218.2-.601.291-1.147.291z"/><use xlink:href="#J"/><use xlink:href="#K"/><path d="M65.453 227.619v-10.232h1.893v.856c.273-.291.601-.546 1.02-.765a2.9 2.9 0 0 1 1.365-.328c.637 0 1.165.091 1.584.273a2.63 2.63 0 0 1 1.092.819c.291.382.564.91.819 1.584l-1.711.783c-.146-.492-.291-.856-.419-1.092-.146-.218-.309-.382-.51-.473s-.492-.127-.856-.127c-.856 0-1.475.291-1.839.874-.364.601-.546 1.456-.546 2.585v5.243h-1.893zm8.337 1.256h19.953v1.748H73.79z"/><use xlink:href="#L"/><use xlink:href="#M"/></g><g class="F"><path d="M274.144 228.875h19.953v1.748h-19.953zm20.999-1.256v-10.232h1.912v.255c.692-.328 1.493-.492 2.421-.492.947 0 1.675.146 2.185.401s.874.692 1.092 1.311c.218.601.328 1.475.328 2.585v6.172h-1.912v-6.172c0-.655-.055-1.165-.164-1.529-.091-.364-.273-.619-.51-.765-.237-.164-.583-.237-1.02-.237-.71 0-1.238.055-1.584.182a1.12 1.12 0 0 0-.674.674c-.109.328-.164.819-.164 1.493v6.354h-1.912z"/><use xlink:href="#K" x="250.005"/><path d="M321.157 217.387h2.185l-3.368 5.116 3.368 5.116h-2.185l-2.276-3.459-2.294 3.459h-2.185l3.386-5.116-3.386-5.116h2.185l2.294 3.459 2.276-3.459z"/><use xlink:href="#J" x="279.797"/><path d="M333.725 228.875h19.953v1.748h-19.953z"/><use xlink:href="#L" x="259.936"/><use xlink:href="#M" x="259.935"/></g><g fill="#01a737"><path d="M524.878 90.999V80.844h2.104V95.55h-2.266l-4.673-10.114V95.55H517.9V80.844h2.266l4.713 10.155zm8.283 4.814c-.991 0-1.78-.162-2.347-.465-.587-.283-.991-.769-1.254-1.456-.263-.668-.384-1.598-.384-2.751v-6.959h2.124v6.959c0 .748.04 1.335.142 1.699.101.384.303.647.566.789.263.162.647.223 1.153.223.769 0 1.335-.061 1.699-.182.384-.121.647-.344.789-.647s.223-.769.223-1.396v-7.444h2.124V95.55h-2.124v-.182c-.647.283-1.537.445-2.711.445z"/><use xlink:href="#N"/><path d="M556.483 95.55h-1.901l-4.106-11.368h2.164l2.893 8.233 2.893-8.233h2.185l-4.127 11.368z"/><use xlink:href="#O"/><path d="M589.584 95.55h-1.901l-4.106-11.368h2.164l2.893 8.233 2.893-8.233h2.185l-4.127 11.368z"/><use xlink:href="#P"/><path d="M612.602 95.813c-.85 0-1.517-.142-1.982-.384-.485-.263-.809-.688-1.011-1.295s-.303-1.456-.303-2.529v-8.82h-2.326v-1.942h4.43v10.762c0 .85.101 1.436.263 1.76s.485.485.931.485a1.26 1.26 0 0 0 .708-.223c.263-.142.607-.405 1.072-.789l1.173 1.8c-.546.445-1.032.748-1.456.91-.405.182-.91.263-1.497.263z"/><use xlink:href="#O" x="55.169"/><path d="M628.986 95.55V84.182h2.104v.951c.303-.324.668-.607 1.133-.85a3.23 3.23 0 0 1 1.517-.364c.708 0 1.295.101 1.76.303.465.182.87.485 1.214.91.324.425.627 1.011.91 1.76l-1.901.87c-.162-.546-.324-.951-.465-1.214-.162-.243-.344-.425-.566-.526s-.546-.142-.951-.142c-.951 0-1.639.324-2.043.971-.405.668-.607 1.618-.607 2.872v5.826h-2.104z"/></g><g fill="#eb1c1c"><path d="M522.837 173.334c-.931 0-1.699-.081-2.306-.263-.607-.162-1.133-.425-1.537-.809-.405-.405-.769-.931-1.092-1.598l1.639-1.537c.223.627.445 1.092.668 1.416.223.303.526.506.91.647.405.121.971.182 1.719.182.708 0 1.254-.061 1.618-.223s.627-.405.769-.769c.142-.344.223-.87.223-1.558 0-.506-.081-.89-.243-1.153-.162-.283-.425-.506-.789-.688-.364-.202-.951-.425-1.76-.688-1.133-.384-1.982-.728-2.569-1.072-.607-.344-1.032-.748-1.295-1.214-.283-.465-.405-1.072-.405-1.821 0-.991.142-1.8.425-2.387a2.58 2.58 0 0 1 1.396-1.295c.647-.263 1.517-.405 2.63-.405.85 0 1.558.081 2.124.223.546.142 1.032.384 1.416.728.405.324.748.809 1.072 1.396l-1.517 1.639c-.223-.587-.445-1.011-.647-1.295-.223-.263-.506-.465-.87-.566-.364-.121-.89-.182-1.578-.182-.647 0-1.133.061-1.477.182-.324.142-.546.344-.668.647-.142.303-.202.728-.202 1.315 0 .425.081.748.202.971.142.223.364.405.688.566.324.142.87.344 1.618.566 1.173.384 2.084.748 2.731 1.113s1.113.809 1.396 1.355c.283.526.425 1.214.425 2.063 0 1.113-.142 1.982-.445 2.63-.324.647-.809 1.133-1.497 1.416-.668.303-1.598.465-2.771.465z"/><use xlink:href="#Q"/><use xlink:href="#O" x="-21.681" y="77.521"/><path d="M551.489 176.408v-14.706h2.124v.121c.708-.243 1.537-.384 2.448-.384 1.133 0 2.043.202 2.711.607.647.405 1.133 1.032 1.416 1.881.283.87.445 2.003.445 3.439s-.162 2.589-.445 3.459c-.283.85-.769 1.497-1.416 1.901-.668.405-1.578.607-2.711.607-.87 0-1.679-.162-2.448-.445v3.52h-2.124zm4.572-5.037c.647 0 1.133-.121 1.477-.364.364-.243.607-.647.748-1.214s.223-1.376.223-2.427c0-1.032-.081-1.841-.223-2.407s-.384-.971-.748-1.193c-.344-.243-.829-.364-1.477-.364-1.639 0-2.448.344-2.448 1.072v4.329c0 .89.202 1.537.566 1.942.384.425 1.011.627 1.881.627zm14.957-13.006v1.942h-2.994v10.822h2.994v1.942h-8.071v-1.942h2.974v-10.822h-2.974v-1.942h8.071z"/><use xlink:href="#Q" x="44.135"/><use xlink:href="#N" x="44.522" y="77.52"/><path d="M596.27 173.071v-11.368h2.104v.951c.303-.324.668-.607 1.133-.85a3.23 3.23 0 0 1 1.517-.364c.708 0 1.295.101 1.76.303.465.182.87.485 1.214.91.324.425.627 1.011.91 1.76l-1.901.87c-.162-.546-.324-.951-.465-1.214-.162-.243-.344-.425-.566-.526s-.546-.142-.951-.142c-.951 0-1.639.324-2.043.971-.405.668-.607 1.618-.607 2.872v5.826h-2.104z"/><use xlink:href="#P" x="11.421" y="77.521"/><use xlink:href="#Q" x="88.27"/><path d="M634.712 161.702v9.426h3.216v1.942h-8.557v-1.942h3.237v-7.464h-2.326v-1.962h4.43zm-1.396-1.659c-.607 0-1.032-.101-1.254-.324-.223-.202-.344-.607-.344-1.173 0-.587.121-.971.344-1.193.223-.202.647-.324 1.254-.324s1.032.121 1.274.324c.223.223.344.607.344 1.193 0 .566-.121.971-.344 1.173-.243.223-.668.324-1.274.324z"/><use xlink:href="#O" x="77.623" y="77.521"/><path d="M650.934 173.071v-11.368h2.124v.283c.769-.364 1.659-.546 2.69-.546 1.052 0 1.861.162 2.427.445s.971.769 1.214 1.456c.243.668.364 1.639.364 2.872v6.857h-2.124v-6.857c0-.728-.061-1.295-.182-1.699-.101-.405-.303-.688-.566-.85-.263-.182-.647-.263-1.133-.263-.789 0-1.376.061-1.76.202-.364.142-.627.405-.748.748-.121.364-.182.91-.182 1.659v7.06h-2.124z"/></g></g><g fill="none"><g stroke="#a6a6a6" class="B"><path d="M469.064 114.002l7.279 11.577-7.887 11.172"/><path d="M382.676 221.305c38.509-9.921 25.237-46.381 41.035-71.608 10.347-16.522 33.526-24.206 52.632-24.118" class="C D"/></g><g stroke="#ffc6f5" class="B"><path d="M113.384 43.04l-6.277-12.149 8.801-10.467"/><path d="M122.741 221.305c23.312-27.159 46.003-68.527 48.541-104.372 3.059-43.213-20.858-80.428-64.175-86.042" stroke-dasharray="15.17,10.11,0,0" class="C D"/></g><g stroke="#a6a6a6" class="B"><path d="M270.164 23.807l7.269 11.583-7.897 11.165"/><path d="M122.741 221.305c64.981-2.069 79.398-39.435 93.133-98.033 8.446-36.032 14.754-88.077 61.56-87.881" class="C D"/></g><path d="M528.974 46.552h-34.388v158.755h34.388" stroke="#00aeff" stroke-width="5.058" class="C D"/></g><g fill="#01a737" class="G"><path d="M674.568 106.755l-7.279-4.337 4.182-7.434 2.633 1.549-2.633 4.801 4.646 2.788-1.549 2.633zM656.912 86.93l-2.633-4.646-4.491 2.633-1.549-2.633 7.279-4.337 4.182 7.434-2.788 1.549zm25.245-7.744h-8.518v-3.098h5.421v-5.421h3.098v8.518z"/><path d="M671.935 103.192l-.619-3.098c6.195-1.394 10.686-6.97 10.686-13.32 0-.929-.155-2.013-.31-2.943l3.098-.62a15 15 0 0 1 .465 3.562c0 8.054-5.576 14.868-13.319 16.417zm-8.673-.309c-6.969-2.168-11.771-8.518-11.771-15.953 0-2.013.31-4.027 1.084-5.885l2.943 1.084a12.62 12.62 0 0 0-.929 4.801c0 6.04 3.872 11.151 9.447 13.01l-.774 2.943zm15.178-25.246c-2.633-2.943-6.35-4.646-10.222-4.646-3.252 0-6.35 1.239-8.828 3.252l-2.013-2.323c2.943-2.633 6.815-4.027 10.841-4.027 4.801 0 9.293 2.013 12.545 5.576l-2.323 2.168z"/></g><path d="M695.731 151.249c.961-1.214.053-2.954-1.54-2.954h-12.379c-.691 0-1.33.353-1.674.926l-9.368 15.584c-.739 1.229.191 2.76 1.674 2.76h6.319l-5.953 14.864c-.86 1.88 1.465 3.599 3.029 2.239l24.161-22.861h-12.623l8.355-10.558z" fill="none" stroke="#eb1c1c" stroke-miterlimit="4" stroke-width="3.686" class="C"/><defs ><path id="B" d="M39.421 41.31c-1.065 0-2.006-.225-2.805-.655a4.59 4.59 0 0 1-1.904-1.843c-.45-.778-.676-1.679-.676-2.703v-4.381c0-1.003.225-1.904.676-2.682s1.085-1.392 1.904-1.822c.798-.409 1.74-.635 2.805-.635 1.085 0 2.027.225 2.846.635.798.43 1.433 1.044 1.884 1.822s.676 1.679.676 2.682v4.381c0 1.024-.225 1.925-.676 2.723s-1.085 1.392-1.884 1.822c-.819.43-1.761.655-2.846.655zm0-2.477c.758 0 1.351-.246 1.822-.717s.696-1.106.696-1.904v-4.504c0-.798-.225-1.433-.676-1.925-.471-.471-1.085-.717-1.843-.717s-1.351.246-1.802.717c-.471.491-.696 1.126-.696 1.925v4.504c0 .798.225 1.433.696 1.904.45.471 1.044.717 1.802.717z"/><path id="C" d="M59.977 29.374a1.54 1.54 0 0 1-1.147-.471c-.307-.307-.45-.676-.45-1.147s.143-.86.45-1.167.676-.45 1.147-.45.86.143 1.167.45.45.696.45 1.167-.143.839-.45 1.147-.696.471-1.167.471zm-3.583 15.888c-.164 0-.246-.082-.246-.246v-1.945c0-.184.082-.246.266-.225.798.02 1.372-.082 1.699-.348.307-.266.471-.717.471-1.372l-.041-10.319a.25.25 0 0 1 .082-.184c.041-.041.102-.061.164-.061h2.395a.33.33 0 0 1 .184.061.33.33 0 0 1 .061.184v10.278c0 1.106-.143 1.965-.45 2.58-.307.594-.819 1.024-1.515 1.269-.717.246-1.74.348-3.071.328z"/><path id="D" d="M72.957 34.738c.082.512.102 1.106.082 1.74-.02.164-.102.246-.266.246h-6.326c-.082 0-.102.041-.082.102a4.07 4.07 0 0 0 .225.819c.348.758 1.085 1.147 2.17 1.147.88-.02 1.556-.369 2.068-1.065.061-.082.123-.123.184-.123.041 0 .082.02.143.082l1.474 1.454c.061.061.102.123.102.184 0 .02-.02.082-.082.164a4.27 4.27 0 0 1-1.74 1.29c-.717.307-1.495.471-2.334.471-1.167 0-2.17-.266-2.969-.798-.819-.532-1.413-1.269-1.761-2.232-.287-.676-.43-1.576-.43-2.682 0-.758.102-1.413.307-1.986.307-.962.86-1.74 1.658-2.314.778-.573 1.699-.86 2.784-.86 1.372 0 2.457.389 3.296 1.187.819.798 1.31 1.843 1.495 3.173zm-4.77-1.863c-.86 0-1.433.409-1.699 1.208-.061.184-.102.389-.143.655 0 .061.041.102.102.102h3.542c.082 0 .102-.041.082-.102l-.102-.573c-.123-.409-.328-.737-.635-.962s-.696-.328-1.147-.328z"/><path id="E" d="M80.614 32.629c0 .061-.02.123-.061.164a.25.25 0 0 1-.184.082h-1.965c-.061 0-.102.041-.102.102v4.34c0 .45.102.778.287 1.003s.471.328.88.328h.676a.33.33 0 0 1 .184.061.33.33 0 0 1 .061.184v1.945c0 .143-.082.246-.246.266l-1.228.041c-1.126 0-1.986-.184-2.539-.573-.553-.369-.839-1.065-.86-2.109v-5.487c0-.061-.041-.102-.102-.102h-1.167c-.061 0-.123-.02-.164-.082-.061-.041-.082-.102-.082-.164v-1.822a.25.25 0 0 1 .082-.184c.041-.041.102-.061.164-.061h1.167c.061 0 .102-.041.102-.102v-2.436a.25.25 0 0 1 .082-.184c.041-.041.102-.061.164-.061h2.293a.33.33 0 0 1 .184.061.33.33 0 0 1 .061.184v2.436c0 .061.041.102.102.102h1.965a.33.33 0 0 1 .184.061.33.33 0 0 1 .061.184v1.822z"/><path id="F" d="M86.859 41.248c-1.147 0-2.129-.307-2.948-.901s-1.372-1.413-1.679-2.457c-.184-.635-.287-1.331-.287-2.088 0-.798.102-1.536.287-2.17.307-1.003.88-1.802 1.699-2.375s1.802-.86 2.948-.86c1.126 0 2.068.287 2.866.839.798.573 1.351 1.372 1.679 2.375a6.75 6.75 0 0 1 .328 2.15 7.42 7.42 0 0 1-.287 2.068c-.307 1.065-.86 1.904-1.658 2.498-.819.614-1.802.921-2.948.921zm0-2.477c.45 0 .839-.143 1.147-.409s.532-.655.676-1.126a6.26 6.26 0 0 0 .164-1.433c0-.573-.061-1.065-.164-1.454a2.27 2.27 0 0 0-.696-1.085c-.307-.266-.696-.389-1.147-.389-.471 0-.839.123-1.147.389s-.532.614-.676 1.085c-.102.328-.164.819-.164 1.454 0 .614.041 1.085.143 1.433.143.471.369.86.696 1.126.307.266.696.409 1.167.409z"/><path id="G" d="M39.974 53.103c0 .061-.02.123-.061.164a.25.25 0 0 1-.184.082h-1.965c-.061 0-.102.041-.102.102v4.34c0 .45.102.778.287 1.003s.471.328.88.328h.676a.33.33 0 0 1 .184.061.33.33 0 0 1 .061.184v1.945c0 .143-.082.246-.246.266l-1.228.041c-1.126 0-1.986-.184-2.539-.573-.553-.369-.839-1.065-.86-2.109v-5.487c0-.061-.041-.102-.102-.102h-1.167c-.061 0-.123-.02-.164-.082-.061-.041-.082-.102-.082-.164V51.28a.25.25 0 0 1 .082-.184c.041-.041.102-.061.164-.061h1.167c.061 0 .102-.041.102-.102v-2.436a.25.25 0 0 1 .082-.184c.041-.041.102-.061.164-.061h2.293a.33.33 0 0 1 .184.061.33.33 0 0 1 .061.184v2.436c0 .061.041.102.102.102h1.965a.33.33 0 0 1 .184.061.33.33 0 0 1 .061.184v1.822z"/><path id="H" d="M57.991 50.891c.491 0 .88.102 1.167.287.102.061.143.164.123.307l-.43 2.334c-.02.164-.102.205-.287.143a2.52 2.52 0 0 0-.717-.102c-.102 0-.266.02-.45.041-.491.041-.901.225-1.249.532-.348.328-.512.758-.512 1.29v5.589c0 .061-.02.123-.061.164a.25.25 0 0 1-.184.082h-2.395c-.061 0-.123-.02-.164-.082-.061-.041-.082-.102-.082-.164V51.28a.25.25 0 0 1 .082-.184c.041-.041.102-.061.164-.061h2.395a.33.33 0 0 1 .184.061.33.33 0 0 1 .061.184v.778c0 .041.02.061.041.082s.041 0 .061-.02c.553-.819 1.31-1.228 2.252-1.228z"/><path id="I" d="M80.594 53.717c.266.717.389 1.556.389 2.539 0 .942-.123 1.761-.348 2.477-.307.921-.819 1.658-1.495 2.191-.696.532-1.515.798-2.457.798-1.003 0-1.781-.369-2.354-1.126-.02-.02-.061-.041-.082-.041-.02.02-.041.041-.041.082v.676c0 .061-.02.123-.061.164a.25.25 0 0 1-.184.082h-2.395c-.061 0-.123-.02-.164-.082-.061-.041-.082-.102-.082-.164v-13.84a.25.25 0 0 1 .082-.184c.041-.041.102-.061.164-.061h2.395a.33.33 0 0 1 .184.061.33.33 0 0 1 .061.184v4.381c0 .041.02.061.041.082s.061 0 .082-.041c.532-.676 1.29-1.024 2.273-1.024 1.003 0 1.822.266 2.518.758.655.512 1.167 1.208 1.474 2.088zm-3.03 4.648c.287-.512.43-1.208.43-2.047 0-.942-.164-1.658-.491-2.17-.328-.532-.819-.798-1.454-.798a1.5 1.5 0 0 0-1.372.798c-.307.512-.45 1.228-.45 2.15s.143 1.597.409 2.068c.328.594.798.88 1.433.88.676 0 1.167-.287 1.495-.88z"/><path id="J" d="M50.089 227.856c-.801 0-1.456-.146-1.948-.419-.473-.273-.837-.71-1.056-1.311-.237-.601-.346-1.402-.346-2.385v-4.788h-2.057v-1.766h2.057v-2.804h1.912v2.804h3.423v1.766h-3.423v4.788c0 .619.036 1.092.127 1.438.091.328.237.564.437.71s.492.2.874.2c.401 0 .692-.018.874-.073a.64.64 0 0 0 .401-.309c.091-.127.182-.382.291-.728l1.784.601c-.164.583-.382 1.02-.637 1.347a2.31 2.31 0 0 1-1.038.71c-.419.146-.983.218-1.675.218z"/><path id="K" d="M58.982 217.151c1.074 0 1.912.2 2.512.601.601.382 1.038 1.001 1.274 1.857.255.837.364 1.966.346 3.404h-6.572c.036.801.127 1.42.291 1.857s.401.765.746.947.819.273 1.402.273c.437 0 .783-.036 1.056-.109a1.88 1.88 0 0 0 .746-.455c.237-.218.492-.546.801-.965l1.529 1.001c-.546.856-1.129 1.456-1.748 1.784-.601.328-1.402.51-2.385.51-1.092 0-1.948-.182-2.585-.546s-1.092-.928-1.365-1.711c-.273-.765-.419-1.802-.419-3.095s.146-2.312.419-3.095c.273-.765.728-1.347 1.365-1.711s1.493-.546 2.585-.546zm2.185 4.114c-.073-.601-.182-1.074-.328-1.402-.146-.346-.364-.583-.674-.728-.291-.146-.674-.218-1.183-.218-.546 0-.983.073-1.311.218a1.56 1.56 0 0 0-.765.728c-.164.328-.273.801-.328 1.402h4.588z"/><path id="L" d="M101.525 230.022c-1.111 0-2.075-.382-2.931-1.129s-1.511-1.802-1.966-3.168c-.473-1.365-.692-2.931-.692-4.733 0-1.784.218-3.35.692-4.715.455-1.365 1.111-2.421 1.966-3.168s1.821-1.129 2.931-1.129v1.748c-.728 0-1.365.309-1.93.91s-.983 1.456-1.293 2.549-.473 2.367-.473 3.805c0 1.456.164 2.731.473 3.823s.728 1.948 1.293 2.549 1.202.892 1.93.892v1.766z"/><path id="M" d="M105.739 228.256c.728 0 1.384-.291 1.93-.892.564-.601 1.001-1.456 1.311-2.549s.455-2.367.455-3.823c0-1.438-.146-2.713-.455-3.805s-.746-1.948-1.311-2.549c-.546-.601-1.202-.91-1.93-.91v-1.748c1.111 0 2.094.382 2.931 1.129.856.746 1.511 1.802 1.966 3.168.473 1.365.71 2.931.71 4.715 0 1.802-.237 3.368-.71 4.733-.455 1.365-1.111 2.421-1.966 3.168-.837.746-1.821 1.129-2.931 1.129v-1.766z"/><path id="N" d="M544.559 83.919c1.193 0 2.124.223 2.792.668.668.425 1.153 1.113 1.416 2.063.283.931.405 2.185.384 3.783h-7.302c.04.89.142 1.578.324 2.063s.445.85.829 1.052.91.303 1.558.303c.485 0 .87-.04 1.173-.121a2.09 2.09 0 0 0 .829-.506c.263-.243.546-.607.89-1.072l1.699 1.113c-.607.951-1.254 1.618-1.942 1.982-.668.364-1.558.566-2.65.566-1.214 0-2.164-.202-2.872-.607s-1.214-1.032-1.517-1.901c-.303-.85-.465-2.003-.465-3.439s.162-2.569.465-3.439c.303-.85.809-1.497 1.517-1.901s1.659-.607 2.872-.607zm2.427 4.572c-.081-.668-.202-1.193-.364-1.558-.162-.384-.405-.647-.748-.809-.324-.162-.748-.243-1.315-.243-.607 0-1.092.081-1.456.243s-.647.425-.85.809c-.182.364-.303.89-.364 1.558h5.098z"/><path id="O" d="M566.586 95.813c-1.153 0-2.043-.202-2.69-.607-.668-.405-1.133-1.032-1.416-1.901-.303-.85-.445-2.003-.445-3.439s.142-2.569.445-3.439c.283-.85.748-1.497 1.416-1.901.647-.405 1.537-.607 2.69-.607 1.133 0 2.043.202 2.69.607.668.405 1.153 1.052 1.436 1.901.283.87.425 2.003.425 3.439s-.142 2.589-.425 3.439c-.283.87-.769 1.497-1.436 1.901-.647.405-1.558.607-2.69.607zm0-1.962c.627 0 1.133-.121 1.477-.344.344-.243.587-.647.748-1.214.142-.587.223-1.376.223-2.427 0-1.032-.081-1.841-.223-2.407-.162-.587-.405-.991-.748-1.214-.344-.243-.85-.364-1.477-.364-.647 0-1.133.121-1.477.364-.344.223-.587.627-.728 1.214-.162.566-.223 1.376-.223 2.407 0 1.052.061 1.841.223 2.427.142.566.384.971.728 1.214.344.223.829.344 1.477.344z"/><path id="P" d="M599.201 95.813c-1.072 0-1.942-.121-2.589-.364-.627-.263-1.092-.647-1.396-1.153-.283-.526-.425-1.214-.425-2.084 0-.991.142-1.74.425-2.286.283-.526.728-.91 1.376-1.113.627-.223 1.497-.324 2.609-.324h2.326v-.405c0-.526-.081-.91-.202-1.193s-.364-.485-.688-.607c-.324-.101-.809-.162-1.436-.162-.506 0-.91.04-1.173.142-.263.121-.485.303-.627.566s-.283.688-.425 1.234l-2.023-.506c.223-.87.506-1.558.829-2.084a3.07 3.07 0 0 1 1.315-1.173c.566-.243 1.254-.384 2.104-.384 1.598 0 2.731.344 3.419 1.032.668.688 1.011 1.719 1.011 3.135v4.309c0 .485.061.829.142.991.101.162.324.243.627.243.101 0 .324-.02.668-.04v1.942c-.142.02-.344.02-.607.02-1.072 0-1.8-.243-2.205-.728a2.75 2.75 0 0 1-1.234.748c-.485.162-1.092.243-1.821.243zm0-1.962c.627 0 1.113-.061 1.436-.223.324-.142.566-.384.688-.748.121-.344.202-.87.202-1.537v-.91h-2.326c-.688 0-1.193.04-1.497.101-.283.081-.485.223-.607.465-.142.243-.202.647-.202 1.214 0 .445.061.789.202 1.011.121.223.344.384.668.485s.809.142 1.436.142z"/><path id="Q" d="M535.065 173.334c-.89 0-1.618-.162-2.164-.465-.526-.303-.931-.789-1.173-1.456-.263-.668-.384-1.558-.384-2.65v-5.32h-2.286v-1.962h2.286v-3.115h2.124v3.115h3.803v1.962h-3.803v5.32c0 .688.04 1.214.142 1.598.101.364.263.627.485.789s.546.223.971.223c.445 0 .769-.02.971-.081s.364-.182.445-.344c.101-.142.202-.425.324-.809l1.982.668c-.182.647-.425 1.133-.708 1.497-.303.364-.688.627-1.153.789s-1.092.243-1.861.243z"/></defs></svg>