<svg xmlns="http://www.w3.org/2000/svg" xmlns:xlink="http://www.w3.org/1999/xlink" width="879" height="404" fill-rule="evenodd" stroke-linecap="round" stroke-miterlimit="10" xmlns:v="https://vecta.io/nano"><style><![CDATA[.B{fill-rule:nonzero}.C{stroke-width:9.764}.D{stroke-linejoin:round}.E{stroke-miterlimit:1.5}.F{stroke-dasharray:12,8,0,0}]]></style><g transform="scale(.457813 .374074)"><g fill="#f25e0d" class="B"><use xlink:href="#B"/><use xlink:href="#C"/><path d="M350.473 200.709c2.955 0 5.334.353 7.136 1.059s3.244 1.853 4.325 3.352c1.081 1.588 1.874 3.793 2.523 6.616l-7.064 2.911c-.36-1.676-.721-2.823-1.081-3.529s-1.009-1.147-1.802-1.5c-.865-.265-2.162-.441-4.037-.441-1.946 0-3.388.353-4.397.882-.937.529-1.586 1.5-2.018 2.999-.36 1.411-.577 3.529-.577 6.44v4.587h11.677v8.557h-11.677v33.346h-7.569v-33.346h-8.073v-8.557h8.073V219.5c0-4.676.505-8.381 1.442-11.027.937-2.735 2.451-4.676 4.613-5.911 2.09-1.235 4.974-1.853 8.506-1.853z"/></g><use xlink:href="#D" class="B"/><use xlink:href="#E" class="B"/><path d="M484.316 265.991v-49.578h7.497v-.265c2.018-.529 3.532-.794 4.757-.794 1.658 0 2.955.353 3.892.882s1.874 1.588 2.739 3.176c1.081-1.588 2.235-2.647 3.316-3.176 1.009-.529 2.523-.882 4.325-.882 2.523 0 4.397.618 5.767 1.941 1.442 1.235 2.379 3.352 2.955 6.263.649 2.911.937 7.057.937 12.262v30.171h-7.569V235.82c0-4.234-.144-7.234-.505-8.822s-1.009-2.382-1.946-2.382c-1.153 0-1.946.265-2.595.882-.577.618-1.009 1.676-1.297 3.176s-.432 3.617-.432 6.263v31.053h-7.497v-29.64c0-4.499-.216-7.499-.577-9.175-.36-1.764-1.009-2.558-1.946-2.558-1.081 0-2.018.265-2.595.882s-1.081 1.676-1.297 3.176c-.288 1.5-.432 3.617-.432 6.263v31.053h-7.497zm37.516 6.087h39.717v8.469h-39.717zm53.878-6.087h-6.704l-7.569-49.578h7.569l4.469 30.612 4.253-16.938h6.559l4.181 16.761 4.541-30.435h7.641l-7.713 49.578h-6.704l-5.19-18.79-5.334 18.79zm44.651 1.147c-4.109 0-7.28-.882-9.587-2.647-2.379-1.764-4.037-4.499-5.046-8.292-1.081-3.705-1.586-8.734-1.586-14.997s.505-11.204 1.586-14.997c1.009-3.705 2.667-6.528 5.046-8.292 2.307-1.764 5.478-2.647 9.587-2.647 4.037 0 7.28.882 9.587 2.647 2.379 1.764 4.109 4.587 5.118 8.292 1.009 3.793 1.514 8.734 1.514 14.997s-.505 11.292-1.514 14.997c-1.009 3.793-2.739 6.528-5.118 8.292-2.307 1.764-5.55 2.647-9.587 2.647zm0-8.557c2.235 0 4.037-.529 5.262-1.5 1.225-1.059 2.09-2.823 2.667-5.293.505-2.558.793-5.999.793-10.586 0-4.499-.288-8.028-.793-10.498-.577-2.558-1.442-4.323-2.667-5.293-1.225-1.059-3.027-1.588-5.262-1.588-2.307 0-4.037.529-5.262 1.588-1.225.97-2.09 2.735-2.595 5.293-.577 2.47-.793 5.999-.793 10.498 0 4.587.216 8.028.793 10.586.505 2.47 1.37 4.234 2.595 5.293 1.225.97 2.955 1.5 5.262 1.5z" class="B"/><use xlink:href="#F" class="B"/><use xlink:href="#B" x="432.491" class="B"/><use xlink:href="#G" class="B"/><use xlink:href="#H" class="B"/><g fill="#4db358" class="B"><use xlink:href="#I"/><use xlink:href="#C" x="550.444"/><use xlink:href="#J"/><use xlink:href="#I" x="117.952"/></g><use xlink:href="#K" class="B"/><use xlink:href="#G" x="314.54" class="B"/><use xlink:href="#I" x="275.222" class="B"/><use xlink:href="#F" x="471.809" class="B"/><use xlink:href="#L" class="B"/><path d="M1271.673 208.649l5.046-6.263 29.337 31.494-29.337 31.582-5.046-6.263 19.462-20.996h-55.647v-8.557h55.647l-19.462-20.996z" class="B"/><use xlink:href="#M" class="B"/><use xlink:href="#D" x="982.935" class="B"/><use xlink:href="#I" x="629.078" class="B"/><use xlink:href="#K" x="511.126" class="B"/><use xlink:href="#F" x="-235.904" y="136.336" class="B"/><use xlink:href="#C" x="157.27" y="136.337" class="B"/><use xlink:href="#N" class="B"/><use xlink:href="#E" x="78.635" y="136.336" class="B"/><use xlink:href="#F" x="-78.635" y="136.336" class="B"/><use xlink:href="#D" x="196.587" y="136.336" class="B"/><g fill="#d91ae6" class="B"><use xlink:href="#O"/><use xlink:href="#C" x="432.491" y="136.337"/><use xlink:href="#D" x="353.856" y="136.336"/><use xlink:href="#H" x="39.317" y="136.337"/><use xlink:href="#N" x="353.856"/><use xlink:href="#C" x="589.761" y="136.337"/><use xlink:href="#J" x="39.317" y="136.337"/><use xlink:href="#N" x="471.808"/><use xlink:href="#P"/><use xlink:href="#G" x="314.54" y="136.336"/><use xlink:href="#Q"/><use xlink:href="#O" x="432.492"/><use xlink:href="#M" x="-196.587" y="136.337"/><use xlink:href="#N" x="707.713"/><use xlink:href="#H" x="471.808" y="136.337"/><use xlink:href="#L" x="117.952" y="136.337"/><use xlink:href="#L" x="157.269" y="136.337"/></g><g fill="#f25e0d" class="B"><use xlink:href="#O" x="-432.491" y="419.704"/><use xlink:href="#R"/><path d="M327.047 822.031v-49.578h7.497v-.265c2.018-.529 3.532-.794 4.757-.794 1.658 0 2.955.353 3.892.882s1.874 1.588 2.739 3.176c1.081-1.588 2.235-2.647 3.316-3.176 1.009-.529 2.523-.882 4.325-.882 2.523 0 4.397.618 5.767 1.941 1.442 1.235 2.379 3.352 2.955 6.263.649 2.911.937 7.057.937 12.262v30.171h-7.569V791.86c0-4.234-.144-7.234-.505-8.822s-1.009-2.382-1.946-2.382c-1.153 0-1.946.265-2.595.882-.577.618-1.009 1.676-1.297 3.176s-.432 3.617-.432 6.263v31.053h-7.497v-29.64c0-4.499-.216-7.499-.577-9.175-.36-1.764-1.009-2.558-1.946-2.558-1.081 0-2.018.265-2.595.882s-1.081 1.676-1.297 3.176c-.288 1.5-.432 3.617-.432 6.263v31.053h-7.497zm58.203 1.147c-3.892 0-6.992-.618-9.299-1.941-2.307-1.235-4.541-3.44-6.487-6.616v-56.724h7.497v15.173c2.523-1.147 5.262-1.764 8.289-1.764 3.892 0 6.992.882 9.299 2.647s3.965 4.587 4.974 8.292c1.009 3.793 1.514 8.734 1.514 15.085 0 6.263-.505 11.292-1.514 14.997s-2.667 6.44-4.974 8.204-5.406 2.647-9.299 2.647zm0-8.557c2.09 0 3.748-.529 4.974-1.5 1.153-1.059 2.018-2.823 2.523-5.293s.721-5.911.721-10.498-.216-8.028-.721-10.586c-.505-2.47-1.37-4.234-2.523-5.293-1.225-1.059-2.883-1.588-4.974-1.588-2.307 0-4.037.265-5.19.882s-1.946 1.764-2.379 3.352c-.505 1.588-.721 3.97-.721 7.146v20.467c1.081 1.147 2.162 1.941 3.316 2.382 1.081.353 2.739.529 4.974.529z"/><use xlink:href="#B" x="157.27" y="556.04"/><use xlink:href="#R" x="157.269"/></g><use xlink:href="#N" x="39.317" y="419.704" fill="#4db358" class="B"/><use xlink:href="#K" x="-393.174" y="556.04" class="B"/><g fill="#d91ae6" class="B"><use xlink:href="#O" x="-39.317" y="419.704"/><use xlink:href="#C" x="393.174" y="556.04"/><use xlink:href="#D" x="314.539" y="556.04"/><use xlink:href="#H" y="556.04"/><use xlink:href="#N" x="314.539" y="419.704"/><use xlink:href="#P" x="-157.27" y="419.704"/><use xlink:href="#G" x="157.27" y="556.04"/><use xlink:href="#Q" x="-157.27" y="419.704"/><use xlink:href="#O" x="275.222" y="419.704"/><use xlink:href="#M" x="-353.857" y="556.04"/><use xlink:href="#N" x="550.443" y="419.704"/><use xlink:href="#H" x="314.539" y="556.04"/><use xlink:href="#L" x="-39.318" y="556.04"/><use xlink:href="#L" y="556.04"/></g><g fill="none" class="C"><g stroke="#f25e0d"><path d="M186.966 763.219l13.106 24.059-13.106 24.059"/><path d="M170.374 239.258H56.791v548.02h143.281" class="D E F"/></g><g stroke="#4db358"><path d="M526.42 903.31l19.659-16.04 19.659 16.04"/><path d="M893.382 158.98V65.495h969.829v949.012H546.079V887.27" class="D E F"/></g><g stroke="#d91ae6"><path d="M1022.251 676.594l-19.659 16.04-19.659-16.04"/><path d="M1002.593 445.1v247.534" class="D E F"/></g></g></g><defs ><path id="B" d="M266.144 267.138c-4.037 0-7.28-.882-9.587-2.647s-4.037-4.499-5.046-8.204-1.514-8.734-1.514-14.997c0-6.352.505-11.292 1.514-15.085 1.009-3.705 2.739-6.528 5.046-8.292s5.55-2.647 9.587-2.647c3.1 0 6.055.706 8.794 1.941v-15.35h7.569v64.134h-7.569v-.529c-2.523 1.059-5.478 1.676-8.794 1.676zm0-8.557c3.027 0 5.262-.353 6.632-1.235 1.442-.794 2.162-1.941 2.162-3.352v-18.967c0-3.882-.721-6.705-2.09-8.469-1.37-1.853-3.604-2.735-6.704-2.735-2.235 0-4.037.529-5.262 1.588s-2.09 2.823-2.595 5.293c-.505 2.558-.793 5.999-.793 10.586s.288 8.028.793 10.498 1.37 4.234 2.595 5.293c1.225.97 3.027 1.5 5.262 1.5z"/><path id="C" d="M305.966 215.265c4.253 0 7.569.97 9.947 2.911 2.379 1.853 4.109 4.852 5.046 8.998 1.009 4.058 1.442 9.528 1.37 16.497h-26.022c.144 3.882.505 6.881 1.153 8.998s1.586 3.705 2.955 4.587 3.244 1.323 5.55 1.323c1.73 0 3.1-.176 4.181-.529 1.081-.441 2.09-1.147 2.955-2.205.937-1.059 1.946-2.647 3.172-4.676l6.055 4.852c-2.162 4.146-4.469 7.057-6.92 8.645-2.379 1.588-5.55 2.47-9.443 2.47-4.325 0-7.713-.882-10.236-2.647s-4.325-4.499-5.406-8.292c-1.081-3.705-1.658-8.734-1.658-14.997s.577-11.204 1.658-14.997c1.081-3.705 2.883-6.528 5.406-8.292s5.911-2.647 10.236-2.647zm8.65 19.937c-.288-2.911-.721-5.205-1.297-6.793-.577-1.676-1.442-2.823-2.667-3.529-1.153-.706-2.667-1.059-4.685-1.059-2.162 0-3.892.353-5.19 1.059s-2.307 1.853-3.027 3.529c-.649 1.588-1.081 3.882-1.297 6.793h18.165z"/><path id="D" d="M408.421 265.991v-49.578h7.569v1.235c2.739-1.588 5.911-2.382 9.587-2.382 3.748 0 6.632.706 8.65 1.941s3.46 3.352 4.325 6.352c.865 2.911 1.297 7.146 1.297 12.527v29.906h-7.569v-29.906c0-3.176-.216-5.646-.649-7.41-.36-1.764-1.081-2.999-2.018-3.705-.937-.794-2.307-1.147-4.037-1.147-2.811 0-4.902.265-6.271.882-1.297.618-2.235 1.764-2.667 3.264-.432 1.588-.649 3.97-.649 7.234v30.788h-7.569z"/><path id="E" d="M461.938 267.138c-3.532 0-6.343-.706-8.362-2.029-2.09-1.235-3.532-3.352-4.469-6.352-.937-2.911-1.37-6.969-1.37-11.998v-30.347h7.569v30.347c0 3.264.144 5.822.505 7.41.36 1.676 1.081 2.823 2.018 3.44.937.706 2.307.97 4.109.97 2.739 0 4.757-.265 6.055-.794 1.37-.529 2.307-1.5 2.811-2.823s.793-3.352.793-6.087v-32.464h7.569v49.578h-7.569v-.794c-2.307 1.235-5.478 1.941-9.659 1.941z"/><path id="F" d="M646.127 265.991v-49.578h7.497v4.146a15.51 15.51 0 0 1 4.037-3.705 9.85 9.85 0 0 1 5.406-1.588c2.523 0 4.613.441 6.271 1.323 1.658.794 3.1 2.117 4.325 3.97 1.153 1.853 2.235 4.411 3.244 7.675l-6.776 3.793c-.577-2.382-1.153-4.146-1.658-5.293-.577-1.059-1.225-1.853-2.018-2.294s-1.946-.618-3.388-.618c-3.388 0-5.839 1.411-7.28 4.234-1.442 2.911-2.162 7.057-2.162 12.527v25.407h-7.497z"/><path id="G" d="M736.655 267.138c-3.604 0-6.487-.794-8.65-2.47-2.09-1.588-3.965-4.411-5.694-8.469l5.983-5.999c.865 2.47 1.586 4.234 2.235 5.381s1.442 1.853 2.307 2.382c.937.441 2.235.618 3.82.618 3.027 0 5.262-.176 6.848-.618 1.514-.441 2.523-1.147 3.1-2.117s.865-2.382.865-4.323c0-1.853-.216-3.176-.721-4.058-.432-.882-1.225-1.5-2.451-1.941-1.153-.441-3.172-.882-5.911-1.235-5.334-.794-9.154-2.294-11.461-4.323-2.379-2.029-3.604-5.293-3.604-9.704 0-3.617.577-6.528 1.658-8.645 1.081-2.205 2.883-3.793 5.262-4.764 2.379-1.059 5.622-1.588 9.659-1.588 3.892 0 6.848.706 9.01 2.117s4.109 3.882 5.839 7.41l-5.478 6.528c-1.009-2.205-1.802-3.793-2.523-4.764-.721-1.059-1.586-1.764-2.523-2.117-1.009-.441-2.451-.618-4.325-.618-2.451 0-4.325.176-5.622.529s-2.162 1.059-2.667 1.941-.721 2.205-.721 3.97c0 1.235.288 2.205.793 2.823.505.706 1.297 1.147 2.379 1.5 1.009.265 2.667.618 4.829.97 4.109.794 7.352 1.676 9.659 2.823 2.307 1.059 3.965 2.647 4.974 4.676 1.009 2.117 1.514 4.94 1.514 8.469 0 3.793-.577 6.793-1.802 9.086-1.153 2.205-3.1 3.882-5.767 4.94-2.739 1.059-6.343 1.588-10.812 1.588z"/><path id="H" d="M788.948 277.635c-4.397 0-8.217-1.853-11.605-5.47s-5.983-8.734-7.785-15.35c-1.874-6.616-2.739-14.203-2.739-22.937 0-8.645.865-16.232 2.739-22.848 1.802-6.616 4.397-11.733 7.785-15.35s7.208-5.47 11.605-5.47v8.469c-2.883 0-5.406 1.5-7.641 4.411s-3.892 7.057-5.118 12.351-1.874 11.468-1.874 18.438c0 7.057.649 13.233 1.874 18.526s2.883 9.439 5.118 12.351 4.757 4.323 7.641 4.323v8.557z"/><path id="I" d="M821.201 267.138c-3.172 0-5.767-.706-7.713-2.029-1.874-1.323-3.316-3.44-4.181-6.352-.937-2.911-1.37-6.793-1.37-11.557v-23.201h-8.145v-8.557h8.145v-13.586h7.569v13.586h13.551v8.557h-13.551V247.2c0 2.999.144 5.293.505 6.969.36 1.588.937 2.735 1.73 3.44s1.946.97 3.46.97c1.586 0 2.739-.088 3.46-.353s1.297-.794 1.586-1.5c.36-.618.721-1.853 1.153-3.529l7.064 2.911c-.649 2.823-1.514 4.94-2.523 6.528-1.081 1.588-2.451 2.735-4.109 3.44s-3.892 1.059-6.632 1.059z"/><path id="J" d="M904.593 216.412h8.65l-13.335 24.789 13.335 24.789h-8.65l-9.01-16.761-9.082 16.761h-8.65l13.407-24.789-13.407-24.789h8.65l9.082 16.761 9.01-16.761z"/><path id="K" d="M974.218 228.675c-2.307 0-3.82-.441-4.685-1.5-.865-.97-1.297-2.735-1.297-5.205 0-2.558.432-4.323 1.297-5.381.865-.97 2.379-1.411 4.685-1.411 2.235 0 3.82.441 4.685 1.411.865 1.059 1.225 2.823 1.225 5.381 0 2.47-.36 4.234-1.225 5.205-.865 1.059-2.451 1.5-4.685 1.5zm0 38.463c-2.307 0-3.82-.529-4.685-1.5s-1.297-2.735-1.297-5.293.432-4.323 1.297-5.293 2.379-1.5 4.685-1.5c2.235 0 3.82.529 4.685 1.5s1.225 2.735 1.225 5.293-.36 4.323-1.225 5.293-2.451 1.5-4.685 1.5z"/><path id="L" d="M1159.488 269.078c2.883 0 5.478-1.411 7.641-4.323 2.235-2.911 3.965-7.057 5.19-12.351s1.802-11.468 1.802-18.526c0-6.969-.577-13.144-1.802-18.438s-2.955-9.439-5.19-12.351c-2.162-2.911-4.757-4.411-7.641-4.411v-8.469c4.397 0 8.289 1.853 11.605 5.47 3.388 3.617 5.983 8.734 7.785 15.35 1.874 6.616 2.811 14.203 2.811 22.848 0 8.734-.937 16.32-2.811 22.937-1.802 6.616-4.397 11.733-7.785 15.35-3.316 3.617-7.208 5.47-11.605 5.47v-8.557z"/><path id="M" d="M1372.87 216.412v41.11h11.461v8.469h-30.491v-8.469h11.533v-32.552h-8.289v-8.557h15.786zm-4.974-7.234c-2.162 0-3.676-.441-4.469-1.411-.793-.882-1.225-2.647-1.225-5.117 0-2.558.432-4.234 1.225-5.205.793-.882 2.307-1.411 4.469-1.411s3.676.529 4.541 1.411c.793.97 1.225 2.647 1.225 5.205 0 2.47-.432 4.234-1.225 5.117-.865.97-2.379 1.411-4.541 1.411z"/><path id="N" d="M506.662 403.474c-3.172 0-5.767-.706-7.713-2.029-1.874-1.323-3.316-3.44-4.181-6.352-.937-2.911-1.37-6.793-1.37-11.557v-23.201h-8.145v-8.557h8.145v-13.586h7.569v13.586h13.551v8.557h-13.551v23.201c0 2.999.144 5.293.505 6.969.36 1.588.937 2.735 1.73 3.44s1.946.97 3.46.97c1.586 0 2.739-.088 3.46-.353s1.297-.794 1.586-1.5c.36-.618.721-1.853 1.153-3.529l7.064 2.911c-.649 2.823-1.514 4.94-2.523 6.528-1.081 1.588-2.451 2.735-4.109 3.44s-3.892 1.059-6.632 1.059z"/><path id="O" d="M705.699 403.474c-3.027 0-5.406-.618-7.064-1.676-1.73-1.147-2.883-2.999-3.604-5.646s-1.081-6.352-1.081-11.027v-38.463h-8.289v-8.469h15.786v46.932c0 3.705.36 6.263.937 7.675s1.73 2.117 3.316 2.117c.793 0 1.658-.265 2.523-.97.937-.618 2.162-1.764 3.82-3.44l4.181 7.851c-1.946 1.941-3.676 3.264-5.19 3.97-1.442.794-3.244 1.147-5.334 1.147z"/><path id="P" d="M1013.535 403.474c-2.307 0-3.82-.529-4.685-1.5s-1.297-2.735-1.297-5.293.432-4.323 1.297-5.293 2.379-1.5 4.685-1.5c2.235 0 3.82.529 4.685 1.5s1.225 2.735 1.225 5.293-.36 4.323-1.225 5.293-2.451 1.5-4.685 1.5z"/><path id="Q" d="M1076.312 416.883v-64.134h7.569v.529c2.523-1.059 5.478-1.676 8.722-1.676 4.037 0 7.28.882 9.659 2.647 2.307 1.764 4.037 4.499 5.046 8.204 1.009 3.793 1.586 8.734 1.586 14.997s-.577 11.292-1.586 15.085c-1.009 3.705-2.739 6.528-5.046 8.292-2.379 1.764-5.622 2.647-9.659 2.647-3.1 0-5.983-.706-8.722-1.941v15.35h-7.569zm16.291-21.966c2.307 0 4.037-.529 5.262-1.588 1.297-1.059 2.162-2.823 2.667-5.293s.793-5.999.793-10.586c0-4.499-.288-8.028-.793-10.498s-1.37-4.234-2.667-5.205c-1.225-1.059-2.955-1.588-5.262-1.588-5.839 0-8.722 1.5-8.722 4.676v18.879c0 3.882.721 6.705 2.018 8.469 1.37 1.853 3.604 2.735 6.704 2.735z"/><path id="R" d="M304.092 823.178c-3.82 0-6.92-.529-9.226-1.588-2.235-1.147-3.892-2.823-4.974-5.028-1.009-2.294-1.514-5.293-1.514-9.086 0-4.323.505-7.587 1.514-9.969 1.009-2.294 2.595-3.97 4.902-4.852 2.235-.97 5.334-1.411 9.299-1.411h8.289v-1.764c0-2.294-.288-3.97-.721-5.205s-1.297-2.117-2.451-2.647c-1.153-.441-2.883-.706-5.118-.706-1.802 0-3.244.176-4.181.618a5.16 5.16 0 0 0-2.235 2.47c-.505 1.147-1.009 2.999-1.514 5.381l-7.208-2.205c.793-3.793 1.802-6.793 2.955-9.086s2.739-3.97 4.685-5.117c2.018-1.059 4.469-1.676 7.497-1.676 5.694 0 9.731 1.5 12.182 4.499 2.379 2.999 3.604 7.499 3.604 13.674v18.79c0 2.117.216 3.617.505 4.323.36.706 1.153 1.059 2.235 1.059.36 0 1.153-.088 2.379-.176v8.469c-.505.088-1.225.088-2.162.088-3.82 0-6.415-1.059-7.857-3.176-1.153 1.5-2.667 2.647-4.397 3.264-1.73.706-3.892 1.059-6.487 1.059zm0-8.557c2.235 0 3.965-.265 5.118-.97 1.153-.618 2.018-1.676 2.451-3.264.432-1.5.721-3.793.721-6.705v-3.97h-8.289c-2.451 0-4.253.176-5.334.441-1.009.353-1.73.97-2.162 2.029-.505 1.059-.721 2.823-.721 5.293 0 1.941.216 3.44.721 4.411.432.97 1.225 1.676 2.379 2.117s2.883.618 5.118.618z"/></defs></svg>