<?xml version="1.0" encoding="UTF-8" standalone="no"?>
<!DOCTYPE svg PUBLIC "-//W3C//DTD SVG 1.1//EN" "http://www.w3.org/Graphics/SVG/1.1/DTD/svg11.dtd">
<svg width="440px" height="317px" version="1.1" xmlns="http://www.w3.org/2000/svg" xmlns:xlink="http://www.w3.org/1999/xlink" xml:space="preserve" xmlns:serif="http://www.serif.com/" style="fill-rule:evenodd;clip-rule:evenodd;stroke-linecap:round;stroke-linejoin:round;stroke-miterlimit:1.5;">
    <g id="Mesa-de-trabajo1" serif:id="Mesa de trabajo1" transform="matrix(0.229167,0,0,0.293519,0,0)">
        <rect x="0" y="0" width="1920" height="1080" style="fill:white;"/>
        <g transform="matrix(2.43302,0,0,1.31406,-1401.5,-327.25)">
            <path d="M1358,294.033C1358,276.354 1348.07,262 1335.84,262L607.159,262C594.929,262 585,276.354 585,294.033L585,1026.97C585,1044.65 594.929,1059 607.159,1059L1335.84,1059C1348.07,1059 1358,1044.65 1358,1026.97L1358,294.033Z" style="fill:rgb(67,188,188);stroke:rgb(50,140,140);stroke-width:13.22px;"/>
        </g>
        <g transform="matrix(2.31303,0,0,1.80591,-2242.48,-633.69)">
            <g transform="matrix(48.2248,0,0,48.2248,1008,422)">
                <path d="M0.073,-0C0.07,-0 0.067,-0.001 0.065,-0.004C0.062,-0.006 0.061,-0.009 0.061,-0.012L0.061,-0.688C0.061,-0.691 0.062,-0.694 0.065,-0.697C0.067,-0.699 0.07,-0.7 0.073,-0.7L0.19,-0.7C0.193,-0.7 0.196,-0.699 0.199,-0.697C0.201,-0.694 0.202,-0.691 0.202,-0.688L0.202,-0.126C0.202,-0.123 0.204,-0.121 0.207,-0.121L0.534,-0.121C0.537,-0.121 0.54,-0.12 0.543,-0.118C0.545,-0.115 0.546,-0.112 0.546,-0.109L0.546,-0.012C0.546,-0.009 0.545,-0.006 0.543,-0.004C0.54,-0.001 0.537,-0 0.534,-0L0.073,-0Z" style="fill:white;fill-rule:nonzero;"/>
            </g>
            <g transform="matrix(48.2248,0,0,48.2248,1035.58,422)">
                <path d="M0.128,-0.572C0.105,-0.572 0.087,-0.58 0.072,-0.595C0.057,-0.61 0.049,-0.628 0.049,-0.651C0.049,-0.674 0.056,-0.693 0.071,-0.708C0.086,-0.723 0.105,-0.73 0.128,-0.73C0.151,-0.73 0.17,-0.723 0.185,-0.708C0.2,-0.693 0.207,-0.674 0.207,-0.651C0.207,-0.628 0.2,-0.61 0.185,-0.595C0.169,-0.58 0.151,-0.572 0.128,-0.572ZM0.068,-0C0.065,-0 0.062,-0.001 0.06,-0.004C0.057,-0.006 0.056,-0.009 0.056,-0.012L0.056,-0.503C0.056,-0.506 0.057,-0.509 0.06,-0.512C0.062,-0.514 0.065,-0.515 0.068,-0.515L0.185,-0.515C0.188,-0.515 0.191,-0.514 0.194,-0.512C0.196,-0.509 0.197,-0.506 0.197,-0.503L0.197,-0.012C0.197,-0.009 0.196,-0.006 0.194,-0.004C0.191,-0.001 0.188,-0 0.185,-0L0.068,-0Z" style="fill:white;fill-rule:nonzero;"/>
            </g>
            <g transform="matrix(48.2248,0,0,48.2248,1047.88,422)">
                <path d="M0.507,-0.383C0.52,-0.348 0.526,-0.307 0.526,-0.259C0.526,-0.213 0.52,-0.173 0.509,-0.138C0.494,-0.093 0.469,-0.057 0.436,-0.031C0.402,-0.005 0.362,0.008 0.316,0.008C0.267,0.008 0.229,-0.01 0.201,-0.047C0.2,-0.048 0.198,-0.049 0.197,-0.049C0.196,-0.048 0.195,-0.047 0.195,-0.045L0.195,-0.012C0.195,-0.009 0.194,-0.006 0.192,-0.004C0.189,-0.001 0.186,-0 0.183,-0L0.066,-0C0.063,-0 0.06,-0.001 0.058,-0.004C0.055,-0.006 0.054,-0.009 0.054,-0.012L0.054,-0.688C0.054,-0.691 0.055,-0.694 0.058,-0.697C0.06,-0.699 0.063,-0.7 0.066,-0.7L0.183,-0.7C0.186,-0.7 0.189,-0.699 0.192,-0.697C0.194,-0.694 0.195,-0.691 0.195,-0.688L0.195,-0.474C0.195,-0.472 0.196,-0.471 0.197,-0.47C0.198,-0.469 0.2,-0.47 0.201,-0.472C0.227,-0.505 0.264,-0.522 0.312,-0.522C0.361,-0.522 0.401,-0.509 0.435,-0.485C0.467,-0.46 0.492,-0.426 0.507,-0.383ZM0.359,-0.156C0.373,-0.181 0.38,-0.215 0.38,-0.256C0.38,-0.302 0.372,-0.337 0.356,-0.362C0.34,-0.388 0.316,-0.401 0.285,-0.401C0.256,-0.401 0.233,-0.388 0.218,-0.362C0.203,-0.337 0.196,-0.302 0.196,-0.257C0.196,-0.212 0.203,-0.179 0.216,-0.156C0.232,-0.127 0.255,-0.113 0.286,-0.113C0.319,-0.113 0.343,-0.127 0.359,-0.156Z" style="fill:white;fill-rule:nonzero;"/>
            </g>
            <g transform="matrix(48.2248,0,0,48.2248,1075.18,422)">
                <path d="M0.308,-0.521C0.332,-0.521 0.351,-0.516 0.365,-0.507C0.37,-0.504 0.372,-0.499 0.371,-0.492L0.35,-0.378C0.349,-0.37 0.345,-0.368 0.336,-0.371C0.326,-0.374 0.314,-0.376 0.301,-0.376C0.296,-0.376 0.288,-0.375 0.279,-0.374C0.255,-0.372 0.235,-0.363 0.218,-0.348C0.201,-0.332 0.193,-0.311 0.193,-0.285L0.193,-0.012C0.193,-0.009 0.192,-0.006 0.19,-0.004C0.187,-0.001 0.184,-0 0.181,-0L0.064,-0C0.061,-0 0.058,-0.001 0.056,-0.004C0.053,-0.006 0.052,-0.009 0.052,-0.012L0.052,-0.502C0.052,-0.505 0.053,-0.508 0.056,-0.511C0.058,-0.513 0.061,-0.514 0.064,-0.514L0.181,-0.514C0.184,-0.514 0.187,-0.513 0.19,-0.511C0.192,-0.508 0.193,-0.505 0.193,-0.502L0.193,-0.464C0.193,-0.462 0.194,-0.461 0.195,-0.46C0.196,-0.459 0.197,-0.46 0.198,-0.461C0.225,-0.501 0.262,-0.521 0.308,-0.521Z" style="fill:white;fill-rule:nonzero;"/>
            </g>
            <g transform="matrix(48.2248,0,0,48.2248,1093.02,422)">
                <path d="M0.507,-0.31C0.511,-0.285 0.512,-0.256 0.511,-0.225C0.51,-0.217 0.506,-0.213 0.498,-0.213L0.189,-0.213C0.185,-0.213 0.184,-0.211 0.185,-0.208C0.187,-0.195 0.191,-0.181 0.196,-0.168C0.213,-0.131 0.249,-0.112 0.302,-0.112C0.345,-0.113 0.378,-0.13 0.403,-0.164C0.406,-0.168 0.409,-0.17 0.412,-0.17C0.414,-0.17 0.416,-0.169 0.419,-0.166L0.491,-0.095C0.494,-0.092 0.496,-0.089 0.496,-0.086C0.496,-0.085 0.495,-0.082 0.492,-0.078C0.47,-0.051 0.442,-0.029 0.407,-0.015C0.372,0 0.334,0.008 0.293,0.008C0.236,0.008 0.187,-0.005 0.148,-0.031C0.108,-0.057 0.079,-0.093 0.062,-0.14C0.048,-0.173 0.041,-0.217 0.041,-0.271C0.041,-0.308 0.046,-0.34 0.056,-0.368C0.071,-0.415 0.098,-0.453 0.137,-0.481C0.175,-0.509 0.22,-0.523 0.273,-0.523C0.34,-0.523 0.393,-0.504 0.434,-0.465C0.474,-0.426 0.498,-0.375 0.507,-0.31ZM0.274,-0.401C0.232,-0.401 0.204,-0.381 0.191,-0.342C0.188,-0.333 0.186,-0.323 0.184,-0.31C0.184,-0.307 0.186,-0.305 0.189,-0.305L0.362,-0.305C0.366,-0.305 0.367,-0.307 0.366,-0.31C0.363,-0.329 0.361,-0.339 0.361,-0.338C0.355,-0.358 0.345,-0.374 0.33,-0.385C0.315,-0.396 0.296,-0.401 0.274,-0.401Z" style="fill:white;fill-rule:nonzero;"/>
            </g>
            <g transform="matrix(48.2248,0,0,48.2248,1119.35,422)">
                <path d="M0.308,-0.521C0.332,-0.521 0.351,-0.516 0.365,-0.507C0.37,-0.504 0.372,-0.499 0.371,-0.492L0.35,-0.378C0.349,-0.37 0.345,-0.368 0.336,-0.371C0.326,-0.374 0.314,-0.376 0.301,-0.376C0.296,-0.376 0.288,-0.375 0.279,-0.374C0.255,-0.372 0.235,-0.363 0.218,-0.348C0.201,-0.332 0.193,-0.311 0.193,-0.285L0.193,-0.012C0.193,-0.009 0.192,-0.006 0.19,-0.004C0.187,-0.001 0.184,-0 0.181,-0L0.064,-0C0.061,-0 0.058,-0.001 0.056,-0.004C0.053,-0.006 0.052,-0.009 0.052,-0.012L0.052,-0.502C0.052,-0.505 0.053,-0.508 0.056,-0.511C0.058,-0.513 0.061,-0.514 0.064,-0.514L0.181,-0.514C0.184,-0.514 0.187,-0.513 0.19,-0.511C0.192,-0.508 0.193,-0.505 0.193,-0.502L0.193,-0.464C0.193,-0.462 0.194,-0.461 0.195,-0.46C0.196,-0.459 0.197,-0.46 0.198,-0.461C0.225,-0.501 0.262,-0.521 0.308,-0.521Z" style="fill:white;fill-rule:nonzero;"/>
            </g>
            <g transform="matrix(48.2248,0,0,48.2248,1137.82,422)">
                <path d="M0.06,-0C0.057,-0 0.054,-0.001 0.052,-0.004C0.049,-0.006 0.048,-0.009 0.048,-0.012L0.048,-0.502C0.048,-0.505 0.049,-0.508 0.052,-0.511C0.054,-0.513 0.057,-0.514 0.06,-0.514L0.177,-0.514C0.18,-0.514 0.183,-0.513 0.186,-0.511C0.188,-0.508 0.189,-0.505 0.189,-0.502L0.189,-0.012C0.189,-0.009 0.188,-0.006 0.186,-0.004C0.183,-0.001 0.18,-0 0.177,-0L0.06,-0ZM0.063,-0.576C0.058,-0.576 0.055,-0.577 0.054,-0.58C0.053,-0.583 0.053,-0.586 0.055,-0.59L0.108,-0.691C0.111,-0.697 0.116,-0.7 0.123,-0.7L0.224,-0.7C0.229,-0.7 0.232,-0.699 0.234,-0.696C0.235,-0.693 0.235,-0.689 0.232,-0.685L0.161,-0.584C0.158,-0.579 0.153,-0.576 0.147,-0.576L0.063,-0.576Z" style="fill:white;fill-rule:nonzero;"/>
            </g>
            <g transform="matrix(48.2248,0,0,48.2248,1149.25,422)">
                <path d="M0.257,-0.522C0.3,-0.522 0.339,-0.515 0.373,-0.5C0.407,-0.485 0.434,-0.464 0.453,-0.438C0.471,-0.412 0.481,-0.383 0.481,-0.351L0.481,-0.012C0.481,-0.009 0.48,-0.006 0.478,-0.004C0.475,-0.001 0.472,-0 0.469,-0L0.352,-0C0.349,-0 0.346,-0.001 0.344,-0.004C0.341,-0.006 0.34,-0.009 0.34,-0.012L0.34,-0.045C0.34,-0.047 0.339,-0.048 0.338,-0.049C0.337,-0.05 0.335,-0.049 0.334,-0.047C0.306,-0.01 0.261,0.008 0.199,0.008C0.147,0.008 0.105,-0.005 0.073,-0.03C0.041,-0.055 0.025,-0.093 0.025,-0.142C0.025,-0.193 0.043,-0.233 0.079,-0.262C0.115,-0.29 0.166,-0.304 0.233,-0.304L0.335,-0.304C0.338,-0.304 0.34,-0.306 0.34,-0.309L0.34,-0.331C0.34,-0.353 0.333,-0.37 0.32,-0.383C0.307,-0.395 0.287,-0.401 0.26,-0.401C0.239,-0.401 0.222,-0.397 0.209,-0.39C0.195,-0.383 0.186,-0.372 0.182,-0.359C0.18,-0.352 0.176,-0.348 0.169,-0.349L0.048,-0.365C0.04,-0.366 0.036,-0.369 0.037,-0.374C0.04,-0.402 0.051,-0.427 0.071,-0.45C0.09,-0.473 0.116,-0.49 0.149,-0.503C0.181,-0.516 0.217,-0.522 0.257,-0.522ZM0.237,-0.097C0.266,-0.097 0.29,-0.105 0.31,-0.12C0.33,-0.135 0.34,-0.155 0.34,-0.179L0.34,-0.215C0.34,-0.218 0.338,-0.22 0.335,-0.22L0.263,-0.22C0.233,-0.22 0.21,-0.214 0.193,-0.203C0.175,-0.192 0.167,-0.176 0.167,-0.155C0.167,-0.137 0.173,-0.123 0.186,-0.113C0.199,-0.102 0.216,-0.097 0.237,-0.097Z" style="fill:white;fill-rule:nonzero;"/>
            </g>
        </g>
        <g transform="matrix(3.45722,0,0,2.69925,-1960.9,-364.909)">
            <g transform="matrix(0.669043,0,0,0.669043,201.718,-25.3741)">
                <g transform="matrix(0.700086,0,0,0.647778,594.555,308.913)">
                    <path d="M66.667,626.667L66.667,176.667C66.667,134.609 101.275,100 143.333,100L320,100C330.371,100.467 340.071,105.317 346.667,113.333L440,220C446.596,228.017 456.296,232.867 466.667,233.333L897.333,233.333C899.55,233.131 901.775,233.03 904.001,233.03C944.23,233.03 977.334,266.133 977.334,306.363C977.334,306.464 977.334,306.565 977.333,306.667L977.333,630C975.561,668.961 943.001,700.04 904,700L140,700C99.771,700 66.667,666.896 66.667,626.667Z" style="fill:rgb(150,74,197);fill-rule:nonzero;stroke:rgb(108,25,160);stroke-width:13.3px;stroke-miterlimit:4;"/>
                </g>
                <g transform="matrix(1,0,0,1,-321.644,8.66574)">
                    <g transform="matrix(37.3668,0,0,37.3668,1008,422)">
                        <path d="M0.35,-0.701C0.394,-0.701 0.433,-0.692 0.466,-0.674C0.499,-0.656 0.525,-0.631 0.544,-0.598C0.562,-0.565 0.571,-0.527 0.571,-0.484C0.571,-0.442 0.562,-0.405 0.543,-0.373C0.524,-0.341 0.497,-0.316 0.463,-0.299C0.428,-0.281 0.389,-0.272 0.344,-0.272L0.202,-0.272C0.199,-0.272 0.197,-0.27 0.197,-0.267L0.197,-0.012C0.197,-0.009 0.196,-0.006 0.194,-0.004C0.191,-0.001 0.188,-0 0.185,-0L0.068,-0C0.065,-0 0.062,-0.001 0.06,-0.004C0.057,-0.006 0.056,-0.009 0.056,-0.012L0.056,-0.689C0.056,-0.692 0.057,-0.695 0.06,-0.698C0.062,-0.7 0.065,-0.701 0.068,-0.701L0.35,-0.701ZM0.329,-0.385C0.36,-0.385 0.384,-0.394 0.403,-0.412C0.422,-0.429 0.431,-0.452 0.431,-0.481C0.431,-0.51 0.422,-0.534 0.403,-0.552C0.384,-0.57 0.36,-0.579 0.329,-0.579L0.202,-0.579C0.199,-0.579 0.197,-0.577 0.197,-0.574L0.197,-0.39C0.197,-0.387 0.199,-0.385 0.202,-0.385L0.329,-0.385Z" style="fill:white;fill-rule:nonzero;"/>
                    </g>
                    <g transform="matrix(37.3668,0,0,37.3668,1030.05,422)">
                        <path d="M0.257,-0.522C0.3,-0.522 0.339,-0.515 0.373,-0.5C0.407,-0.485 0.434,-0.464 0.453,-0.438C0.471,-0.412 0.481,-0.383 0.481,-0.351L0.481,-0.012C0.481,-0.009 0.48,-0.006 0.478,-0.004C0.475,-0.001 0.472,-0 0.469,-0L0.352,-0C0.349,-0 0.346,-0.001 0.344,-0.004C0.341,-0.006 0.34,-0.009 0.34,-0.012L0.34,-0.045C0.34,-0.047 0.339,-0.048 0.338,-0.049C0.337,-0.05 0.335,-0.049 0.334,-0.047C0.306,-0.01 0.261,0.008 0.199,0.008C0.147,0.008 0.105,-0.005 0.073,-0.03C0.041,-0.055 0.025,-0.093 0.025,-0.142C0.025,-0.193 0.043,-0.233 0.079,-0.262C0.115,-0.29 0.166,-0.304 0.233,-0.304L0.335,-0.304C0.338,-0.304 0.34,-0.306 0.34,-0.309L0.34,-0.331C0.34,-0.353 0.333,-0.37 0.32,-0.383C0.307,-0.395 0.287,-0.401 0.26,-0.401C0.239,-0.401 0.222,-0.397 0.209,-0.39C0.195,-0.383 0.186,-0.372 0.182,-0.359C0.18,-0.352 0.176,-0.348 0.169,-0.349L0.048,-0.365C0.04,-0.366 0.036,-0.369 0.037,-0.374C0.04,-0.402 0.051,-0.427 0.071,-0.45C0.09,-0.473 0.116,-0.49 0.149,-0.503C0.181,-0.516 0.217,-0.522 0.257,-0.522ZM0.237,-0.097C0.266,-0.097 0.29,-0.105 0.31,-0.12C0.33,-0.135 0.34,-0.155 0.34,-0.179L0.34,-0.215C0.34,-0.218 0.338,-0.22 0.335,-0.22L0.263,-0.22C0.233,-0.22 0.21,-0.214 0.193,-0.203C0.175,-0.192 0.167,-0.176 0.167,-0.155C0.167,-0.137 0.173,-0.123 0.186,-0.113C0.199,-0.102 0.216,-0.097 0.237,-0.097Z" style="fill:white;fill-rule:nonzero;"/>
                    </g>
                    <g transform="matrix(37.3668,0,0,37.3668,1049.78,422)">
                        <path d="M0.371,-0.502C0.371,-0.505 0.372,-0.508 0.375,-0.511C0.377,-0.513 0.38,-0.514 0.383,-0.514L0.5,-0.514C0.503,-0.514 0.506,-0.513 0.509,-0.511C0.511,-0.508 0.512,-0.505 0.512,-0.502L0.512,0.174C0.512,0.177 0.511,0.18 0.509,0.183C0.506,0.185 0.503,0.186 0.5,0.186L0.383,0.186C0.38,0.186 0.377,0.185 0.375,0.183C0.372,0.18 0.371,0.177 0.371,0.174L0.371,-0.04C0.371,-0.042 0.37,-0.043 0.369,-0.044C0.368,-0.045 0.366,-0.044 0.365,-0.042C0.338,-0.009 0.301,0.008 0.253,0.008C0.204,0.008 0.164,-0.005 0.131,-0.03C0.097,-0.055 0.073,-0.088 0.058,-0.131C0.046,-0.166 0.04,-0.208 0.04,-0.256C0.04,-0.301 0.046,-0.341 0.057,-0.376C0.072,-0.422 0.096,-0.458 0.13,-0.484C0.163,-0.509 0.203,-0.522 0.25,-0.522C0.299,-0.522 0.337,-0.504 0.365,-0.467C0.366,-0.466 0.368,-0.465 0.369,-0.466C0.37,-0.466 0.371,-0.467 0.371,-0.469L0.371,-0.502ZM0.348,-0.153C0.363,-0.178 0.37,-0.212 0.37,-0.257C0.37,-0.3 0.363,-0.333 0.35,-0.358C0.333,-0.387 0.31,-0.401 0.28,-0.401C0.247,-0.401 0.223,-0.387 0.206,-0.358C0.192,-0.331 0.185,-0.298 0.185,-0.258C0.185,-0.213 0.193,-0.178 0.21,-0.152C0.227,-0.126 0.25,-0.113 0.281,-0.113C0.31,-0.113 0.333,-0.126 0.348,-0.153Z" style="fill:white;fill-rule:nonzero;"/>
                    </g>
                    <g transform="matrix(37.3668,0,0,37.3668,1071,422)">
                        <path d="M0.352,-0.502C0.352,-0.505 0.353,-0.508 0.356,-0.511C0.358,-0.513 0.361,-0.514 0.364,-0.514L0.481,-0.514C0.484,-0.514 0.487,-0.513 0.49,-0.511C0.492,-0.508 0.493,-0.505 0.493,-0.502L0.493,-0.012C0.493,-0.009 0.492,-0.006 0.49,-0.004C0.487,-0.001 0.484,-0 0.481,-0L0.364,-0C0.361,-0 0.358,-0.001 0.356,-0.004C0.353,-0.006 0.352,-0.009 0.352,-0.012L0.352,-0.046C0.352,-0.048 0.351,-0.049 0.35,-0.05C0.349,-0.05 0.347,-0.049 0.346,-0.047C0.319,-0.011 0.278,0.007 0.222,0.007C0.171,0.007 0.13,-0.008 0.097,-0.039C0.064,-0.07 0.048,-0.113 0.048,-0.168L0.048,-0.502C0.048,-0.505 0.049,-0.508 0.052,-0.511C0.054,-0.513 0.057,-0.514 0.06,-0.514L0.176,-0.514C0.179,-0.514 0.182,-0.513 0.185,-0.511C0.187,-0.508 0.188,-0.505 0.188,-0.502L0.188,-0.203C0.188,-0.176 0.195,-0.155 0.21,-0.138C0.224,-0.121 0.244,-0.113 0.269,-0.113C0.292,-0.113 0.31,-0.12 0.325,-0.134C0.34,-0.147 0.349,-0.165 0.352,-0.187L0.352,-0.502Z" style="fill:white;fill-rule:nonzero;"/>
                    </g>
                    <g transform="matrix(37.3668,0,0,37.3668,1091.37,422)">
                        <path d="M0.507,-0.31C0.511,-0.285 0.512,-0.256 0.511,-0.225C0.51,-0.217 0.506,-0.213 0.498,-0.213L0.189,-0.213C0.185,-0.213 0.184,-0.211 0.185,-0.208C0.187,-0.195 0.191,-0.181 0.196,-0.168C0.213,-0.131 0.249,-0.112 0.302,-0.112C0.345,-0.113 0.378,-0.13 0.403,-0.164C0.406,-0.168 0.409,-0.17 0.412,-0.17C0.414,-0.17 0.416,-0.169 0.419,-0.166L0.491,-0.095C0.494,-0.092 0.496,-0.089 0.496,-0.086C0.496,-0.085 0.495,-0.082 0.492,-0.078C0.47,-0.051 0.442,-0.029 0.407,-0.015C0.372,0 0.334,0.008 0.293,0.008C0.236,0.008 0.187,-0.005 0.148,-0.031C0.108,-0.057 0.079,-0.093 0.062,-0.14C0.048,-0.173 0.041,-0.217 0.041,-0.271C0.041,-0.308 0.046,-0.34 0.056,-0.368C0.071,-0.415 0.098,-0.453 0.137,-0.481C0.175,-0.509 0.22,-0.523 0.273,-0.523C0.34,-0.523 0.393,-0.504 0.434,-0.465C0.474,-0.426 0.498,-0.375 0.507,-0.31ZM0.274,-0.401C0.232,-0.401 0.204,-0.381 0.191,-0.342C0.188,-0.333 0.186,-0.323 0.184,-0.31C0.184,-0.307 0.186,-0.305 0.189,-0.305L0.362,-0.305C0.366,-0.305 0.367,-0.307 0.366,-0.31C0.363,-0.329 0.361,-0.339 0.361,-0.338C0.355,-0.358 0.345,-0.374 0.33,-0.385C0.315,-0.396 0.296,-0.401 0.274,-0.401Z" style="fill:white;fill-rule:nonzero;"/>
                    </g>
                    <g transform="matrix(37.3668,0,0,37.3668,1111.32,422)">
                        <path d="M0.347,-0.413C0.347,-0.41 0.346,-0.407 0.344,-0.405C0.341,-0.402 0.338,-0.401 0.335,-0.401L0.239,-0.401C0.236,-0.401 0.234,-0.399 0.234,-0.396L0.234,-0.184C0.234,-0.162 0.239,-0.146 0.248,-0.135C0.257,-0.124 0.271,-0.119 0.291,-0.119L0.324,-0.119C0.327,-0.119 0.33,-0.118 0.333,-0.116C0.335,-0.113 0.336,-0.11 0.336,-0.107L0.336,-0.012C0.336,-0.005 0.332,-0 0.324,0.001C0.296,0.002 0.276,0.003 0.264,0.003C0.209,0.003 0.167,-0.006 0.14,-0.025C0.113,-0.043 0.099,-0.077 0.098,-0.128L0.098,-0.396C0.098,-0.399 0.096,-0.401 0.093,-0.401L0.036,-0.401C0.033,-0.401 0.03,-0.402 0.028,-0.405C0.025,-0.407 0.024,-0.41 0.024,-0.413L0.024,-0.502C0.024,-0.505 0.025,-0.508 0.028,-0.511C0.03,-0.513 0.033,-0.514 0.036,-0.514L0.093,-0.514C0.096,-0.514 0.098,-0.516 0.098,-0.519L0.098,-0.638C0.098,-0.641 0.099,-0.644 0.102,-0.647C0.104,-0.649 0.107,-0.65 0.11,-0.65L0.222,-0.65C0.225,-0.65 0.228,-0.649 0.231,-0.647C0.233,-0.644 0.234,-0.641 0.234,-0.638L0.234,-0.519C0.234,-0.516 0.236,-0.514 0.239,-0.514L0.335,-0.514C0.338,-0.514 0.341,-0.513 0.344,-0.511C0.346,-0.508 0.347,-0.505 0.347,-0.502L0.347,-0.413Z" style="fill:white;fill-rule:nonzero;"/>
                    </g>
                    <g transform="matrix(37.3668,0,0,37.3668,1125.26,422)">
                        <path d="M0.507,-0.31C0.511,-0.285 0.512,-0.256 0.511,-0.225C0.51,-0.217 0.506,-0.213 0.498,-0.213L0.189,-0.213C0.185,-0.213 0.184,-0.211 0.185,-0.208C0.187,-0.195 0.191,-0.181 0.196,-0.168C0.213,-0.131 0.249,-0.112 0.302,-0.112C0.345,-0.113 0.378,-0.13 0.403,-0.164C0.406,-0.168 0.409,-0.17 0.412,-0.17C0.414,-0.17 0.416,-0.169 0.419,-0.166L0.491,-0.095C0.494,-0.092 0.496,-0.089 0.496,-0.086C0.496,-0.085 0.495,-0.082 0.492,-0.078C0.47,-0.051 0.442,-0.029 0.407,-0.015C0.372,0 0.334,0.008 0.293,0.008C0.236,0.008 0.187,-0.005 0.148,-0.031C0.108,-0.057 0.079,-0.093 0.062,-0.14C0.048,-0.173 0.041,-0.217 0.041,-0.271C0.041,-0.308 0.046,-0.34 0.056,-0.368C0.071,-0.415 0.098,-0.453 0.137,-0.481C0.175,-0.509 0.22,-0.523 0.273,-0.523C0.34,-0.523 0.393,-0.504 0.434,-0.465C0.474,-0.426 0.498,-0.375 0.507,-0.31ZM0.274,-0.401C0.232,-0.401 0.204,-0.381 0.191,-0.342C0.188,-0.333 0.186,-0.323 0.184,-0.31C0.184,-0.307 0.186,-0.305 0.189,-0.305L0.362,-0.305C0.366,-0.305 0.367,-0.307 0.366,-0.31C0.363,-0.329 0.361,-0.339 0.361,-0.338C0.355,-0.358 0.345,-0.374 0.33,-0.385C0.315,-0.396 0.296,-0.401 0.274,-0.401Z" style="fill:white;fill-rule:nonzero;"/>
                    </g>
                </g>
            </g>
            <g transform="matrix(0.669043,0,0,0.669043,307.666,117.756)">
                <g transform="matrix(0.145188,0,0,0.145188,743.568,350.234)">
                    <path d="M392.997,201.543C397.44,199.486 402.56,199.486 407.003,201.543L573.67,278.736C579.563,281.465 583.333,287.367 583.333,293.86L583.333,486.843C583.333,492.79 580.163,498.287 575.017,501.267L408.35,597.757C403.187,600.747 396.813,600.747 391.65,597.757L224.983,501.267C219.836,498.287 216.667,492.79 216.667,486.843L216.667,293.86C216.667,287.367 220.437,281.465 226.329,278.736L392.997,201.543ZM250,320.869L383.333,387.77L383.333,554.427L250,477.233L250,320.869ZM416.667,554.427L550,477.233L550,320.869L416.667,387.77L416.667,554.427ZM400,358.84L528.307,294.46L400,235.034L271.694,294.46L400,358.84Z" style="fill:rgb(255,237,0);"/>
                    <path d="M83.333,100C83.333,90.795 90.795,83.333 100,83.333L200,83.333C209.205,83.333 216.667,90.795 216.667,100C216.667,109.205 209.205,116.667 200,116.667L116.667,116.667L116.667,200C116.667,209.205 109.205,216.667 100,216.667C90.795,216.667 83.333,209.205 83.333,200L83.333,100Z" style="fill:rgb(255,237,0);"/>
                    <path d="M700,83.333C709.203,83.333 716.667,90.795 716.667,100L716.667,200C716.667,209.205 709.203,216.667 700,216.667C690.797,216.667 683.333,209.205 683.333,200L683.333,116.667L600,116.667C590.797,116.667 583.333,109.205 583.333,100C583.333,90.795 590.797,83.333 600,83.333L700,83.333Z" style="fill:rgb(255,237,0);"/>
                    <path d="M100,716.667C90.795,716.667 83.333,709.203 83.333,700L83.333,600C83.333,590.797 90.795,583.333 100,583.333C109.205,583.333 116.667,590.797 116.667,600L116.667,683.333L200,683.333C209.205,683.333 216.667,690.797 216.667,700C216.667,709.203 209.205,716.667 200,716.667L100,716.667Z" style="fill:rgb(255,237,0);"/>
                    <path d="M716.667,700C716.667,709.203 709.203,716.667 700,716.667L600,716.667C590.797,716.667 583.333,709.203 583.333,700C583.333,690.797 590.797,683.333 600,683.333L683.333,683.333L683.333,600C683.333,590.797 690.797,583.333 700,583.333C709.203,583.333 716.667,590.797 716.667,600L716.667,700Z" style="fill:rgb(255,237,0);"/>
                </g>
                <g transform="matrix(1,0,0,1,-254.157,-75.619)">
                    <g transform="matrix(29.8934,0,0,29.8934,1008,422)">
                        <path d="M0.511,-0.692C0.514,-0.697 0.519,-0.7 0.525,-0.7L0.642,-0.7C0.645,-0.7 0.648,-0.699 0.651,-0.697C0.653,-0.694 0.654,-0.691 0.654,-0.688L0.654,-0.012C0.654,-0.009 0.653,-0.006 0.651,-0.004C0.648,-0.001 0.645,-0 0.642,-0L0.525,-0C0.522,-0 0.519,-0.001 0.517,-0.004C0.514,-0.006 0.513,-0.009 0.513,-0.012L0.513,-0.453C0.513,-0.456 0.512,-0.457 0.511,-0.457C0.51,-0.457 0.508,-0.456 0.507,-0.454L0.401,-0.288C0.398,-0.283 0.393,-0.28 0.387,-0.28L0.328,-0.28C0.322,-0.28 0.317,-0.283 0.314,-0.288L0.208,-0.454C0.207,-0.456 0.205,-0.457 0.204,-0.457C0.203,-0.456 0.202,-0.455 0.202,-0.452L0.202,-0.012C0.202,-0.009 0.201,-0.006 0.199,-0.004C0.196,-0.001 0.193,-0 0.19,-0L0.073,-0C0.07,-0 0.067,-0.001 0.065,-0.004C0.062,-0.006 0.061,-0.009 0.061,-0.012L0.061,-0.688C0.061,-0.691 0.062,-0.694 0.065,-0.697C0.067,-0.699 0.07,-0.7 0.073,-0.7L0.19,-0.7C0.196,-0.7 0.201,-0.697 0.204,-0.692L0.354,-0.459C0.356,-0.455 0.358,-0.455 0.36,-0.459L0.511,-0.692Z" style="fill:rgb(255,237,0);fill-rule:nonzero;"/>
                    </g>
                    <g transform="matrix(29.8934,0,0,29.8934,1029.37,422)">
                        <path d="M0.279,0.008C0.223,0.008 0.175,-0.007 0.135,-0.036C0.095,-0.065 0.068,-0.105 0.053,-0.156C0.044,-0.187 0.039,-0.221 0.039,-0.258C0.039,-0.297 0.044,-0.333 0.053,-0.364C0.068,-0.413 0.096,-0.452 0.136,-0.48C0.176,-0.508 0.224,-0.522 0.28,-0.522C0.335,-0.522 0.381,-0.508 0.42,-0.481C0.459,-0.453 0.486,-0.414 0.502,-0.365C0.513,-0.332 0.518,-0.297 0.518,-0.26C0.518,-0.224 0.513,-0.19 0.504,-0.159C0.489,-0.107 0.462,-0.066 0.423,-0.037C0.383,-0.007 0.335,0.008 0.279,0.008ZM0.279,-0.113C0.301,-0.113 0.32,-0.12 0.335,-0.133C0.35,-0.146 0.361,-0.165 0.368,-0.188C0.373,-0.209 0.376,-0.233 0.376,-0.258C0.376,-0.286 0.373,-0.31 0.368,-0.329C0.361,-0.352 0.349,-0.369 0.334,-0.382C0.319,-0.395 0.3,-0.401 0.278,-0.401C0.255,-0.401 0.237,-0.395 0.222,-0.382C0.207,-0.369 0.196,-0.352 0.189,-0.329C0.184,-0.313 0.181,-0.289 0.181,-0.258C0.181,-0.228 0.183,-0.205 0.188,-0.188C0.195,-0.165 0.206,-0.146 0.222,-0.133C0.237,-0.12 0.256,-0.113 0.279,-0.113ZM0.219,-0.576C0.214,-0.576 0.211,-0.577 0.21,-0.58C0.209,-0.583 0.209,-0.586 0.211,-0.59L0.264,-0.691C0.267,-0.697 0.272,-0.7 0.279,-0.7L0.38,-0.7C0.385,-0.7 0.388,-0.699 0.39,-0.696C0.391,-0.693 0.391,-0.689 0.388,-0.685L0.317,-0.584C0.314,-0.579 0.309,-0.576 0.303,-0.576L0.219,-0.576Z" style="fill:rgb(255,237,0);fill-rule:nonzero;"/>
                    </g>
                    <g transform="matrix(29.8934,0,0,29.8934,1045.79,422)">
                        <path d="M0.371,-0.688C0.371,-0.691 0.372,-0.694 0.375,-0.697C0.377,-0.699 0.38,-0.7 0.383,-0.7L0.5,-0.7C0.503,-0.7 0.506,-0.699 0.509,-0.697C0.511,-0.694 0.512,-0.691 0.512,-0.688L0.512,-0.012C0.512,-0.009 0.511,-0.006 0.509,-0.004C0.506,-0.001 0.503,-0 0.5,-0L0.383,-0C0.38,-0 0.377,-0.001 0.375,-0.004C0.372,-0.006 0.371,-0.009 0.371,-0.012L0.371,-0.045C0.371,-0.047 0.37,-0.048 0.369,-0.049C0.368,-0.049 0.366,-0.048 0.365,-0.047C0.337,-0.01 0.299,0.008 0.25,0.008C0.203,0.008 0.163,-0.005 0.13,-0.031C0.096,-0.057 0.072,-0.093 0.057,-0.138C0.046,-0.173 0.04,-0.213 0.04,-0.259C0.04,-0.306 0.046,-0.348 0.058,-0.383C0.073,-0.426 0.097,-0.46 0.131,-0.485C0.164,-0.509 0.204,-0.522 0.253,-0.522C0.301,-0.522 0.338,-0.505 0.365,-0.472C0.366,-0.47 0.368,-0.469 0.369,-0.47C0.37,-0.471 0.371,-0.472 0.371,-0.474L0.371,-0.688ZM0.35,-0.156C0.363,-0.181 0.37,-0.214 0.37,-0.257C0.37,-0.302 0.363,-0.337 0.348,-0.362C0.333,-0.388 0.31,-0.401 0.281,-0.401C0.25,-0.401 0.226,-0.388 0.21,-0.362C0.193,-0.336 0.185,-0.301 0.185,-0.256C0.185,-0.216 0.192,-0.183 0.206,-0.156C0.223,-0.127 0.247,-0.113 0.28,-0.113C0.31,-0.113 0.333,-0.127 0.35,-0.156Z" style="fill:rgb(255,237,0);fill-rule:nonzero;"/>
                    </g>
                    <g transform="matrix(29.8934,0,0,29.8934,1062.7,422)">
                        <path d="M0.352,-0.502C0.352,-0.505 0.353,-0.508 0.356,-0.511C0.358,-0.513 0.361,-0.514 0.364,-0.514L0.481,-0.514C0.484,-0.514 0.487,-0.513 0.49,-0.511C0.492,-0.508 0.493,-0.505 0.493,-0.502L0.493,-0.012C0.493,-0.009 0.492,-0.006 0.49,-0.004C0.487,-0.001 0.484,-0 0.481,-0L0.364,-0C0.361,-0 0.358,-0.001 0.356,-0.004C0.353,-0.006 0.352,-0.009 0.352,-0.012L0.352,-0.046C0.352,-0.048 0.351,-0.049 0.35,-0.05C0.349,-0.05 0.347,-0.049 0.346,-0.047C0.319,-0.011 0.278,0.007 0.222,0.007C0.171,0.007 0.13,-0.008 0.097,-0.039C0.064,-0.07 0.048,-0.113 0.048,-0.168L0.048,-0.502C0.048,-0.505 0.049,-0.508 0.052,-0.511C0.054,-0.513 0.057,-0.514 0.06,-0.514L0.176,-0.514C0.179,-0.514 0.182,-0.513 0.185,-0.511C0.187,-0.508 0.188,-0.505 0.188,-0.502L0.188,-0.203C0.188,-0.176 0.195,-0.155 0.21,-0.138C0.224,-0.121 0.244,-0.113 0.269,-0.113C0.292,-0.113 0.31,-0.12 0.325,-0.134C0.34,-0.147 0.349,-0.165 0.352,-0.187L0.352,-0.502Z" style="fill:rgb(255,237,0);fill-rule:nonzero;"/>
                    </g>
                    <g transform="matrix(29.8934,0,0,29.8934,1079,422)">
                        <path d="M0.064,-0C0.061,-0 0.058,-0.001 0.056,-0.004C0.053,-0.006 0.052,-0.009 0.052,-0.012L0.052,-0.688C0.052,-0.691 0.053,-0.694 0.056,-0.697C0.058,-0.699 0.061,-0.7 0.064,-0.7L0.181,-0.7C0.184,-0.7 0.187,-0.699 0.19,-0.697C0.192,-0.694 0.193,-0.691 0.193,-0.688L0.193,-0.012C0.193,-0.009 0.192,-0.006 0.19,-0.004C0.187,-0.001 0.184,-0 0.181,-0L0.064,-0Z" style="fill:rgb(255,237,0);fill-rule:nonzero;"/>
                    </g>
                    <g transform="matrix(29.8934,0,0,29.8934,1086.29,422)">
                        <path d="M0.279,0.008C0.223,0.008 0.175,-0.007 0.135,-0.036C0.095,-0.065 0.068,-0.105 0.053,-0.156C0.044,-0.187 0.039,-0.221 0.039,-0.258C0.039,-0.297 0.044,-0.333 0.053,-0.364C0.068,-0.413 0.096,-0.452 0.136,-0.48C0.176,-0.508 0.224,-0.522 0.28,-0.522C0.335,-0.522 0.381,-0.508 0.42,-0.481C0.459,-0.453 0.486,-0.414 0.502,-0.365C0.513,-0.332 0.518,-0.297 0.518,-0.26C0.518,-0.224 0.513,-0.19 0.504,-0.159C0.489,-0.107 0.462,-0.066 0.423,-0.037C0.383,-0.007 0.335,0.008 0.279,0.008ZM0.279,-0.113C0.301,-0.113 0.32,-0.12 0.335,-0.133C0.35,-0.146 0.361,-0.165 0.368,-0.188C0.373,-0.209 0.376,-0.233 0.376,-0.258C0.376,-0.286 0.373,-0.31 0.368,-0.329C0.361,-0.352 0.349,-0.369 0.334,-0.382C0.319,-0.395 0.3,-0.401 0.278,-0.401C0.255,-0.401 0.237,-0.395 0.222,-0.382C0.207,-0.369 0.196,-0.352 0.189,-0.329C0.184,-0.313 0.181,-0.289 0.181,-0.258C0.181,-0.228 0.183,-0.205 0.188,-0.188C0.195,-0.165 0.206,-0.146 0.222,-0.133C0.237,-0.12 0.256,-0.113 0.279,-0.113Z" style="fill:rgb(255,237,0);fill-rule:nonzero;"/>
                    </g>
                </g>
            </g>
            <g transform="matrix(0.669043,0,0,0.669043,422.666,117.756)">
                <g opacity="0.2">
                    <g transform="matrix(0.145188,0,0,0.145188,743.568,350.234)">
                        <path d="M392.997,201.543C397.44,199.486 402.56,199.486 407.003,201.543L573.67,278.736C579.563,281.465 583.333,287.367 583.333,293.86L583.333,486.843C583.333,492.79 580.163,498.287 575.017,501.267L408.35,597.757C403.187,600.747 396.813,600.747 391.65,597.757L224.983,501.267C219.836,498.287 216.667,492.79 216.667,486.843L216.667,293.86C216.667,287.367 220.437,281.465 226.329,278.736L392.997,201.543ZM250,320.869L383.333,387.77L383.333,554.427L250,477.233L250,320.869ZM416.667,554.427L550,477.233L550,320.869L416.667,387.77L416.667,554.427ZM400,358.84L528.307,294.46L400,235.034L271.694,294.46L400,358.84Z" style="fill:rgb(255,237,0);"/>
                        <path d="M83.333,100C83.333,90.795 90.795,83.333 100,83.333L200,83.333C209.205,83.333 216.667,90.795 216.667,100C216.667,109.205 209.205,116.667 200,116.667L116.667,116.667L116.667,200C116.667,209.205 109.205,216.667 100,216.667C90.795,216.667 83.333,209.205 83.333,200L83.333,100Z" style="fill:rgb(255,237,0);"/>
                        <path d="M700,83.333C709.203,83.333 716.667,90.795 716.667,100L716.667,200C716.667,209.205 709.203,216.667 700,216.667C690.797,216.667 683.333,209.205 683.333,200L683.333,116.667L600,116.667C590.797,116.667 583.333,109.205 583.333,100C583.333,90.795 590.797,83.333 600,83.333L700,83.333Z" style="fill:rgb(255,237,0);"/>
                        <path d="M100,716.667C90.795,716.667 83.333,709.203 83.333,700L83.333,600C83.333,590.797 90.795,583.333 100,583.333C109.205,583.333 116.667,590.797 116.667,600L116.667,683.333L200,683.333C209.205,683.333 216.667,690.797 216.667,700C216.667,709.203 209.205,716.667 200,716.667L100,716.667Z" style="fill:rgb(255,237,0);"/>
                        <path d="M716.667,700C716.667,709.203 709.203,716.667 700,716.667L600,716.667C590.797,716.667 583.333,709.203 583.333,700C583.333,690.797 590.797,683.333 600,683.333L683.333,683.333L683.333,600C683.333,590.797 690.797,583.333 700,583.333C709.203,583.333 716.667,590.797 716.667,600L716.667,700Z" style="fill:rgb(255,237,0);"/>
                    </g>
                    <g transform="matrix(1,0,0,1,-254.157,-75.619)">
                        <g transform="matrix(29.8934,0,0,29.8934,1008,422)">
                            <path d="M0.511,-0.692C0.514,-0.697 0.519,-0.7 0.525,-0.7L0.642,-0.7C0.645,-0.7 0.648,-0.699 0.651,-0.697C0.653,-0.694 0.654,-0.691 0.654,-0.688L0.654,-0.012C0.654,-0.009 0.653,-0.006 0.651,-0.004C0.648,-0.001 0.645,-0 0.642,-0L0.525,-0C0.522,-0 0.519,-0.001 0.517,-0.004C0.514,-0.006 0.513,-0.009 0.513,-0.012L0.513,-0.453C0.513,-0.456 0.512,-0.457 0.511,-0.457C0.51,-0.457 0.508,-0.456 0.507,-0.454L0.401,-0.288C0.398,-0.283 0.393,-0.28 0.387,-0.28L0.328,-0.28C0.322,-0.28 0.317,-0.283 0.314,-0.288L0.208,-0.454C0.207,-0.456 0.205,-0.457 0.204,-0.457C0.203,-0.456 0.202,-0.455 0.202,-0.452L0.202,-0.012C0.202,-0.009 0.201,-0.006 0.199,-0.004C0.196,-0.001 0.193,-0 0.19,-0L0.073,-0C0.07,-0 0.067,-0.001 0.065,-0.004C0.062,-0.006 0.061,-0.009 0.061,-0.012L0.061,-0.688C0.061,-0.691 0.062,-0.694 0.065,-0.697C0.067,-0.699 0.07,-0.7 0.073,-0.7L0.19,-0.7C0.196,-0.7 0.201,-0.697 0.204,-0.692L0.354,-0.459C0.356,-0.455 0.358,-0.455 0.36,-0.459L0.511,-0.692Z" style="fill:rgb(255,237,0);fill-rule:nonzero;"/>
                        </g>
                        <g transform="matrix(29.8934,0,0,29.8934,1029.37,422)">
                            <path d="M0.279,0.008C0.223,0.008 0.175,-0.007 0.135,-0.036C0.095,-0.065 0.068,-0.105 0.053,-0.156C0.044,-0.187 0.039,-0.221 0.039,-0.258C0.039,-0.297 0.044,-0.333 0.053,-0.364C0.068,-0.413 0.096,-0.452 0.136,-0.48C0.176,-0.508 0.224,-0.522 0.28,-0.522C0.335,-0.522 0.381,-0.508 0.42,-0.481C0.459,-0.453 0.486,-0.414 0.502,-0.365C0.513,-0.332 0.518,-0.297 0.518,-0.26C0.518,-0.224 0.513,-0.19 0.504,-0.159C0.489,-0.107 0.462,-0.066 0.423,-0.037C0.383,-0.007 0.335,0.008 0.279,0.008ZM0.279,-0.113C0.301,-0.113 0.32,-0.12 0.335,-0.133C0.35,-0.146 0.361,-0.165 0.368,-0.188C0.373,-0.209 0.376,-0.233 0.376,-0.258C0.376,-0.286 0.373,-0.31 0.368,-0.329C0.361,-0.352 0.349,-0.369 0.334,-0.382C0.319,-0.395 0.3,-0.401 0.278,-0.401C0.255,-0.401 0.237,-0.395 0.222,-0.382C0.207,-0.369 0.196,-0.352 0.189,-0.329C0.184,-0.313 0.181,-0.289 0.181,-0.258C0.181,-0.228 0.183,-0.205 0.188,-0.188C0.195,-0.165 0.206,-0.146 0.222,-0.133C0.237,-0.12 0.256,-0.113 0.279,-0.113ZM0.219,-0.576C0.214,-0.576 0.211,-0.577 0.21,-0.58C0.209,-0.583 0.209,-0.586 0.211,-0.59L0.264,-0.691C0.267,-0.697 0.272,-0.7 0.279,-0.7L0.38,-0.7C0.385,-0.7 0.388,-0.699 0.39,-0.696C0.391,-0.693 0.391,-0.689 0.388,-0.685L0.317,-0.584C0.314,-0.579 0.309,-0.576 0.303,-0.576L0.219,-0.576Z" style="fill:rgb(255,237,0);fill-rule:nonzero;"/>
                        </g>
                        <g transform="matrix(29.8934,0,0,29.8934,1045.79,422)">
                            <path d="M0.371,-0.688C0.371,-0.691 0.372,-0.694 0.375,-0.697C0.377,-0.699 0.38,-0.7 0.383,-0.7L0.5,-0.7C0.503,-0.7 0.506,-0.699 0.509,-0.697C0.511,-0.694 0.512,-0.691 0.512,-0.688L0.512,-0.012C0.512,-0.009 0.511,-0.006 0.509,-0.004C0.506,-0.001 0.503,-0 0.5,-0L0.383,-0C0.38,-0 0.377,-0.001 0.375,-0.004C0.372,-0.006 0.371,-0.009 0.371,-0.012L0.371,-0.045C0.371,-0.047 0.37,-0.048 0.369,-0.049C0.368,-0.049 0.366,-0.048 0.365,-0.047C0.337,-0.01 0.299,0.008 0.25,0.008C0.203,0.008 0.163,-0.005 0.13,-0.031C0.096,-0.057 0.072,-0.093 0.057,-0.138C0.046,-0.173 0.04,-0.213 0.04,-0.259C0.04,-0.306 0.046,-0.348 0.058,-0.383C0.073,-0.426 0.097,-0.46 0.131,-0.485C0.164,-0.509 0.204,-0.522 0.253,-0.522C0.301,-0.522 0.338,-0.505 0.365,-0.472C0.366,-0.47 0.368,-0.469 0.369,-0.47C0.37,-0.471 0.371,-0.472 0.371,-0.474L0.371,-0.688ZM0.35,-0.156C0.363,-0.181 0.37,-0.214 0.37,-0.257C0.37,-0.302 0.363,-0.337 0.348,-0.362C0.333,-0.388 0.31,-0.401 0.281,-0.401C0.25,-0.401 0.226,-0.388 0.21,-0.362C0.193,-0.336 0.185,-0.301 0.185,-0.256C0.185,-0.216 0.192,-0.183 0.206,-0.156C0.223,-0.127 0.247,-0.113 0.28,-0.113C0.31,-0.113 0.333,-0.127 0.35,-0.156Z" style="fill:rgb(255,237,0);fill-rule:nonzero;"/>
                        </g>
                        <g transform="matrix(29.8934,0,0,29.8934,1062.7,422)">
                            <path d="M0.352,-0.502C0.352,-0.505 0.353,-0.508 0.356,-0.511C0.358,-0.513 0.361,-0.514 0.364,-0.514L0.481,-0.514C0.484,-0.514 0.487,-0.513 0.49,-0.511C0.492,-0.508 0.493,-0.505 0.493,-0.502L0.493,-0.012C0.493,-0.009 0.492,-0.006 0.49,-0.004C0.487,-0.001 0.484,-0 0.481,-0L0.364,-0C0.361,-0 0.358,-0.001 0.356,-0.004C0.353,-0.006 0.352,-0.009 0.352,-0.012L0.352,-0.046C0.352,-0.048 0.351,-0.049 0.35,-0.05C0.349,-0.05 0.347,-0.049 0.346,-0.047C0.319,-0.011 0.278,0.007 0.222,0.007C0.171,0.007 0.13,-0.008 0.097,-0.039C0.064,-0.07 0.048,-0.113 0.048,-0.168L0.048,-0.502C0.048,-0.505 0.049,-0.508 0.052,-0.511C0.054,-0.513 0.057,-0.514 0.06,-0.514L0.176,-0.514C0.179,-0.514 0.182,-0.513 0.185,-0.511C0.187,-0.508 0.188,-0.505 0.188,-0.502L0.188,-0.203C0.188,-0.176 0.195,-0.155 0.21,-0.138C0.224,-0.121 0.244,-0.113 0.269,-0.113C0.292,-0.113 0.31,-0.12 0.325,-0.134C0.34,-0.147 0.349,-0.165 0.352,-0.187L0.352,-0.502Z" style="fill:rgb(255,237,0);fill-rule:nonzero;"/>
                        </g>
                        <g transform="matrix(29.8934,0,0,29.8934,1079,422)">
                            <path d="M0.064,-0C0.061,-0 0.058,-0.001 0.056,-0.004C0.053,-0.006 0.052,-0.009 0.052,-0.012L0.052,-0.688C0.052,-0.691 0.053,-0.694 0.056,-0.697C0.058,-0.699 0.061,-0.7 0.064,-0.7L0.181,-0.7C0.184,-0.7 0.187,-0.699 0.19,-0.697C0.192,-0.694 0.193,-0.691 0.193,-0.688L0.193,-0.012C0.193,-0.009 0.192,-0.006 0.19,-0.004C0.187,-0.001 0.184,-0 0.181,-0L0.064,-0Z" style="fill:rgb(255,237,0);fill-rule:nonzero;"/>
                        </g>
                        <g transform="matrix(29.8934,0,0,29.8934,1086.29,422)">
                            <path d="M0.279,0.008C0.223,0.008 0.175,-0.007 0.135,-0.036C0.095,-0.065 0.068,-0.105 0.053,-0.156C0.044,-0.187 0.039,-0.221 0.039,-0.258C0.039,-0.297 0.044,-0.333 0.053,-0.364C0.068,-0.413 0.096,-0.452 0.136,-0.48C0.176,-0.508 0.224,-0.522 0.28,-0.522C0.335,-0.522 0.381,-0.508 0.42,-0.481C0.459,-0.453 0.486,-0.414 0.502,-0.365C0.513,-0.332 0.518,-0.297 0.518,-0.26C0.518,-0.224 0.513,-0.19 0.504,-0.159C0.489,-0.107 0.462,-0.066 0.423,-0.037C0.383,-0.007 0.335,0.008 0.279,0.008ZM0.279,-0.113C0.301,-0.113 0.32,-0.12 0.335,-0.133C0.35,-0.146 0.361,-0.165 0.368,-0.188C0.373,-0.209 0.376,-0.233 0.376,-0.258C0.376,-0.286 0.373,-0.31 0.368,-0.329C0.361,-0.352 0.349,-0.369 0.334,-0.382C0.319,-0.395 0.3,-0.401 0.278,-0.401C0.255,-0.401 0.237,-0.395 0.222,-0.382C0.207,-0.369 0.196,-0.352 0.189,-0.329C0.184,-0.313 0.181,-0.289 0.181,-0.258C0.181,-0.228 0.183,-0.205 0.188,-0.188C0.195,-0.165 0.206,-0.146 0.222,-0.133C0.237,-0.12 0.256,-0.113 0.279,-0.113Z" style="fill:rgb(255,237,0);fill-rule:nonzero;"/>
                        </g>
                    </g>
                </g>
            </g>
            <g transform="matrix(0.669043,0,0,0.669043,192.666,117.756)">
                <g opacity="0.2">
                    <g transform="matrix(0.145188,0,0,0.145188,743.568,350.234)">
                        <path d="M392.997,201.543C397.44,199.486 402.56,199.486 407.003,201.543L573.67,278.736C579.563,281.465 583.333,287.367 583.333,293.86L583.333,486.843C583.333,492.79 580.163,498.287 575.017,501.267L408.35,597.757C403.187,600.747 396.813,600.747 391.65,597.757L224.983,501.267C219.836,498.287 216.667,492.79 216.667,486.843L216.667,293.86C216.667,287.367 220.437,281.465 226.329,278.736L392.997,201.543ZM250,320.869L383.333,387.77L383.333,554.427L250,477.233L250,320.869ZM416.667,554.427L550,477.233L550,320.869L416.667,387.77L416.667,554.427ZM400,358.84L528.307,294.46L400,235.034L271.694,294.46L400,358.84Z" style="fill:rgb(255,237,0);"/>
                        <path d="M83.333,100C83.333,90.795 90.795,83.333 100,83.333L200,83.333C209.205,83.333 216.667,90.795 216.667,100C216.667,109.205 209.205,116.667 200,116.667L116.667,116.667L116.667,200C116.667,209.205 109.205,216.667 100,216.667C90.795,216.667 83.333,209.205 83.333,200L83.333,100Z" style="fill:rgb(255,237,0);"/>
                        <path d="M700,83.333C709.203,83.333 716.667,90.795 716.667,100L716.667,200C716.667,209.205 709.203,216.667 700,216.667C690.797,216.667 683.333,209.205 683.333,200L683.333,116.667L600,116.667C590.797,116.667 583.333,109.205 583.333,100C583.333,90.795 590.797,83.333 600,83.333L700,83.333Z" style="fill:rgb(255,237,0);"/>
                        <path d="M100,716.667C90.795,716.667 83.333,709.203 83.333,700L83.333,600C83.333,590.797 90.795,583.333 100,583.333C109.205,583.333 116.667,590.797 116.667,600L116.667,683.333L200,683.333C209.205,683.333 216.667,690.797 216.667,700C216.667,709.203 209.205,716.667 200,716.667L100,716.667Z" style="fill:rgb(255,237,0);"/>
                        <path d="M716.667,700C716.667,709.203 709.203,716.667 700,716.667L600,716.667C590.797,716.667 583.333,709.203 583.333,700C583.333,690.797 590.797,683.333 600,683.333L683.333,683.333L683.333,600C683.333,590.797 690.797,583.333 700,583.333C709.203,583.333 716.667,590.797 716.667,600L716.667,700Z" style="fill:rgb(255,237,0);"/>
                    </g>
                    <g transform="matrix(1,0,0,1,-254.157,-75.619)">
                        <g transform="matrix(29.8934,0,0,29.8934,1008,422)">
                            <path d="M0.511,-0.692C0.514,-0.697 0.519,-0.7 0.525,-0.7L0.642,-0.7C0.645,-0.7 0.648,-0.699 0.651,-0.697C0.653,-0.694 0.654,-0.691 0.654,-0.688L0.654,-0.012C0.654,-0.009 0.653,-0.006 0.651,-0.004C0.648,-0.001 0.645,-0 0.642,-0L0.525,-0C0.522,-0 0.519,-0.001 0.517,-0.004C0.514,-0.006 0.513,-0.009 0.513,-0.012L0.513,-0.453C0.513,-0.456 0.512,-0.457 0.511,-0.457C0.51,-0.457 0.508,-0.456 0.507,-0.454L0.401,-0.288C0.398,-0.283 0.393,-0.28 0.387,-0.28L0.328,-0.28C0.322,-0.28 0.317,-0.283 0.314,-0.288L0.208,-0.454C0.207,-0.456 0.205,-0.457 0.204,-0.457C0.203,-0.456 0.202,-0.455 0.202,-0.452L0.202,-0.012C0.202,-0.009 0.201,-0.006 0.199,-0.004C0.196,-0.001 0.193,-0 0.19,-0L0.073,-0C0.07,-0 0.067,-0.001 0.065,-0.004C0.062,-0.006 0.061,-0.009 0.061,-0.012L0.061,-0.688C0.061,-0.691 0.062,-0.694 0.065,-0.697C0.067,-0.699 0.07,-0.7 0.073,-0.7L0.19,-0.7C0.196,-0.7 0.201,-0.697 0.204,-0.692L0.354,-0.459C0.356,-0.455 0.358,-0.455 0.36,-0.459L0.511,-0.692Z" style="fill:rgb(255,237,0);fill-rule:nonzero;"/>
                        </g>
                        <g transform="matrix(29.8934,0,0,29.8934,1029.37,422)">
                            <path d="M0.279,0.008C0.223,0.008 0.175,-0.007 0.135,-0.036C0.095,-0.065 0.068,-0.105 0.053,-0.156C0.044,-0.187 0.039,-0.221 0.039,-0.258C0.039,-0.297 0.044,-0.333 0.053,-0.364C0.068,-0.413 0.096,-0.452 0.136,-0.48C0.176,-0.508 0.224,-0.522 0.28,-0.522C0.335,-0.522 0.381,-0.508 0.42,-0.481C0.459,-0.453 0.486,-0.414 0.502,-0.365C0.513,-0.332 0.518,-0.297 0.518,-0.26C0.518,-0.224 0.513,-0.19 0.504,-0.159C0.489,-0.107 0.462,-0.066 0.423,-0.037C0.383,-0.007 0.335,0.008 0.279,0.008ZM0.279,-0.113C0.301,-0.113 0.32,-0.12 0.335,-0.133C0.35,-0.146 0.361,-0.165 0.368,-0.188C0.373,-0.209 0.376,-0.233 0.376,-0.258C0.376,-0.286 0.373,-0.31 0.368,-0.329C0.361,-0.352 0.349,-0.369 0.334,-0.382C0.319,-0.395 0.3,-0.401 0.278,-0.401C0.255,-0.401 0.237,-0.395 0.222,-0.382C0.207,-0.369 0.196,-0.352 0.189,-0.329C0.184,-0.313 0.181,-0.289 0.181,-0.258C0.181,-0.228 0.183,-0.205 0.188,-0.188C0.195,-0.165 0.206,-0.146 0.222,-0.133C0.237,-0.12 0.256,-0.113 0.279,-0.113ZM0.219,-0.576C0.214,-0.576 0.211,-0.577 0.21,-0.58C0.209,-0.583 0.209,-0.586 0.211,-0.59L0.264,-0.691C0.267,-0.697 0.272,-0.7 0.279,-0.7L0.38,-0.7C0.385,-0.7 0.388,-0.699 0.39,-0.696C0.391,-0.693 0.391,-0.689 0.388,-0.685L0.317,-0.584C0.314,-0.579 0.309,-0.576 0.303,-0.576L0.219,-0.576Z" style="fill:rgb(255,237,0);fill-rule:nonzero;"/>
                        </g>
                        <g transform="matrix(29.8934,0,0,29.8934,1045.79,422)">
                            <path d="M0.371,-0.688C0.371,-0.691 0.372,-0.694 0.375,-0.697C0.377,-0.699 0.38,-0.7 0.383,-0.7L0.5,-0.7C0.503,-0.7 0.506,-0.699 0.509,-0.697C0.511,-0.694 0.512,-0.691 0.512,-0.688L0.512,-0.012C0.512,-0.009 0.511,-0.006 0.509,-0.004C0.506,-0.001 0.503,-0 0.5,-0L0.383,-0C0.38,-0 0.377,-0.001 0.375,-0.004C0.372,-0.006 0.371,-0.009 0.371,-0.012L0.371,-0.045C0.371,-0.047 0.37,-0.048 0.369,-0.049C0.368,-0.049 0.366,-0.048 0.365,-0.047C0.337,-0.01 0.299,0.008 0.25,0.008C0.203,0.008 0.163,-0.005 0.13,-0.031C0.096,-0.057 0.072,-0.093 0.057,-0.138C0.046,-0.173 0.04,-0.213 0.04,-0.259C0.04,-0.306 0.046,-0.348 0.058,-0.383C0.073,-0.426 0.097,-0.46 0.131,-0.485C0.164,-0.509 0.204,-0.522 0.253,-0.522C0.301,-0.522 0.338,-0.505 0.365,-0.472C0.366,-0.47 0.368,-0.469 0.369,-0.47C0.37,-0.471 0.371,-0.472 0.371,-0.474L0.371,-0.688ZM0.35,-0.156C0.363,-0.181 0.37,-0.214 0.37,-0.257C0.37,-0.302 0.363,-0.337 0.348,-0.362C0.333,-0.388 0.31,-0.401 0.281,-0.401C0.25,-0.401 0.226,-0.388 0.21,-0.362C0.193,-0.336 0.185,-0.301 0.185,-0.256C0.185,-0.216 0.192,-0.183 0.206,-0.156C0.223,-0.127 0.247,-0.113 0.28,-0.113C0.31,-0.113 0.333,-0.127 0.35,-0.156Z" style="fill:rgb(255,237,0);fill-rule:nonzero;"/>
                        </g>
                        <g transform="matrix(29.8934,0,0,29.8934,1062.7,422)">
                            <path d="M0.352,-0.502C0.352,-0.505 0.353,-0.508 0.356,-0.511C0.358,-0.513 0.361,-0.514 0.364,-0.514L0.481,-0.514C0.484,-0.514 0.487,-0.513 0.49,-0.511C0.492,-0.508 0.493,-0.505 0.493,-0.502L0.493,-0.012C0.493,-0.009 0.492,-0.006 0.49,-0.004C0.487,-0.001 0.484,-0 0.481,-0L0.364,-0C0.361,-0 0.358,-0.001 0.356,-0.004C0.353,-0.006 0.352,-0.009 0.352,-0.012L0.352,-0.046C0.352,-0.048 0.351,-0.049 0.35,-0.05C0.349,-0.05 0.347,-0.049 0.346,-0.047C0.319,-0.011 0.278,0.007 0.222,0.007C0.171,0.007 0.13,-0.008 0.097,-0.039C0.064,-0.07 0.048,-0.113 0.048,-0.168L0.048,-0.502C0.048,-0.505 0.049,-0.508 0.052,-0.511C0.054,-0.513 0.057,-0.514 0.06,-0.514L0.176,-0.514C0.179,-0.514 0.182,-0.513 0.185,-0.511C0.187,-0.508 0.188,-0.505 0.188,-0.502L0.188,-0.203C0.188,-0.176 0.195,-0.155 0.21,-0.138C0.224,-0.121 0.244,-0.113 0.269,-0.113C0.292,-0.113 0.31,-0.12 0.325,-0.134C0.34,-0.147 0.349,-0.165 0.352,-0.187L0.352,-0.502Z" style="fill:rgb(255,237,0);fill-rule:nonzero;"/>
                        </g>
                        <g transform="matrix(29.8934,0,0,29.8934,1079,422)">
                            <path d="M0.064,-0C0.061,-0 0.058,-0.001 0.056,-0.004C0.053,-0.006 0.052,-0.009 0.052,-0.012L0.052,-0.688C0.052,-0.691 0.053,-0.694 0.056,-0.697C0.058,-0.699 0.061,-0.7 0.064,-0.7L0.181,-0.7C0.184,-0.7 0.187,-0.699 0.19,-0.697C0.192,-0.694 0.193,-0.691 0.193,-0.688L0.193,-0.012C0.193,-0.009 0.192,-0.006 0.19,-0.004C0.187,-0.001 0.184,-0 0.181,-0L0.064,-0Z" style="fill:rgb(255,237,0);fill-rule:nonzero;"/>
                        </g>
                        <g transform="matrix(29.8934,0,0,29.8934,1086.29,422)">
                            <path d="M0.279,0.008C0.223,0.008 0.175,-0.007 0.135,-0.036C0.095,-0.065 0.068,-0.105 0.053,-0.156C0.044,-0.187 0.039,-0.221 0.039,-0.258C0.039,-0.297 0.044,-0.333 0.053,-0.364C0.068,-0.413 0.096,-0.452 0.136,-0.48C0.176,-0.508 0.224,-0.522 0.28,-0.522C0.335,-0.522 0.381,-0.508 0.42,-0.481C0.459,-0.453 0.486,-0.414 0.502,-0.365C0.513,-0.332 0.518,-0.297 0.518,-0.26C0.518,-0.224 0.513,-0.19 0.504,-0.159C0.489,-0.107 0.462,-0.066 0.423,-0.037C0.383,-0.007 0.335,0.008 0.279,0.008ZM0.279,-0.113C0.301,-0.113 0.32,-0.12 0.335,-0.133C0.35,-0.146 0.361,-0.165 0.368,-0.188C0.373,-0.209 0.376,-0.233 0.376,-0.258C0.376,-0.286 0.373,-0.31 0.368,-0.329C0.361,-0.352 0.349,-0.369 0.334,-0.382C0.319,-0.395 0.3,-0.401 0.278,-0.401C0.255,-0.401 0.237,-0.395 0.222,-0.382C0.207,-0.369 0.196,-0.352 0.189,-0.329C0.184,-0.313 0.181,-0.289 0.181,-0.258C0.181,-0.228 0.183,-0.205 0.188,-0.188C0.195,-0.165 0.206,-0.146 0.222,-0.133C0.237,-0.12 0.256,-0.113 0.279,-0.113Z" style="fill:rgb(255,237,0);fill-rule:nonzero;"/>
                        </g>
                    </g>
                </g>
            </g>
        </g>
    </g>
</svg>
