<svg xmlns="http://www.w3.org/2000/svg" xmlns:xlink="http://www.w3.org/1999/xlink" width="440" height="317" fill-rule="evenodd" stroke-linecap="round" stroke-linejoin="round" stroke-miterlimit="1.5" xmlns:v="https://vecta.io/nano"><g transform="scale(.229167 .293519)"><path d="M0 0h1920v1080H0z" fill="#fff"/><path d="M1358 294.033c0-17.679-9.93-32.033-22.16-32.033H607.159C594.929 262 585 276.354 585 294.033v732.937c0 17.68 9.929 32.03 22.159 32.03h728.681c12.23 0 22.16-14.35 22.16-32.03V294.033z" fill="#43bcbc" stroke="#328c8c" stroke-width="13.22" transform="matrix(2.43302 0 0 1.31406 -1401.5 -327.25)"/><path d="M97.197 128.404c-.335 0-.669-.087-.892-.348-.335-.174-.446-.435-.446-.697V68.486c0-.261.112-.523.446-.784.223-.174.558-.261.892-.261h13.051a2.16 2.16 0 0 1 1.004.261c.223.261.335.523.335.784v48.944c0 .261.223.435.558.435h36.475a2.16 2.16 0 0 1 1.004.261c.223.261.335.523.335.784v8.448a.88.88 0 0 1-.335.697c-.335.261-.669.348-1.004.348H97.197zm69.928-49.815c-2.566 0-4.573-.697-6.247-2.003s-2.566-2.874-2.566-4.877.781-3.658 2.454-4.964 3.793-1.916 6.358-1.916 4.685.61 6.358 1.916 2.454 2.961 2.454 4.964-.781 3.571-2.454 4.877c-1.785 1.306-3.793 2.003-6.358 2.003zm-6.693 49.815c-.335 0-.669-.087-.892-.348-.335-.174-.446-.435-.446-.697V84.598c0-.261.112-.523.446-.784.223-.174.558-.261.892-.261h13.051a2.16 2.16 0 0 1 1.004.261c.223.261.335.523.335.784v42.761a.88.88 0 0 1-.335.697c-.335.261-.669.348-1.004.348h-13.051zm77.419-33.355c1.45 3.048 2.119 6.619 2.119 10.799 0 4.006-.669 7.49-1.896 10.538-1.673 3.919-4.462 7.054-8.143 9.319-3.793 2.264-8.254 3.396-13.385 3.396-5.466 0-9.704-1.568-12.828-4.79a.96.96 0 0 0-.446-.174c-.112.087-.223.174-.223.348v2.874a.88.88 0 0 1-.335.697c-.335.261-.669.348-1.004.348h-13.05c-.335 0-.669-.087-.892-.348-.335-.174-.446-.435-.446-.697V68.486c0-.261.112-.523.446-.784.223-.174.558-.261.892-.261h13.051a2.16 2.16 0 0 1 1.004.261c.223.261.335.523.335.784v18.637c0 .174.112.261.223.348s.335 0 .446-.174c2.9-2.874 7.027-4.354 12.382-4.354 5.466 0 9.928 1.132 13.72 3.222 3.569 2.177 6.358 5.138 8.031 8.883zm-16.509 19.769c1.562-2.177 2.342-5.138 2.342-8.709 0-4.006-.892-7.054-2.677-9.232-1.785-2.264-4.462-3.396-7.92-3.396-3.235 0-5.8 1.132-7.474 3.396-1.673 2.177-2.454 5.225-2.454 9.144s.781 6.793 2.231 8.796c1.785 2.526 4.35 3.745 7.808 3.745 3.681 0 6.358-1.219 8.143-3.745zM278.8 83.03c2.677 0 4.796.435 6.358 1.219.558.261.781.697.669 1.306l-2.342 9.928c-.112.697-.558.871-1.562.61-1.115-.261-2.454-.435-3.904-.435-.558 0-1.45.087-2.454.174-2.677.174-4.908.958-6.804 2.264-1.896 1.393-2.789 3.222-2.789 5.487v23.775a.88.88 0 0 1-.335.697c-.335.261-.669.348-1.004.348h-13.051c-.335 0-.669-.087-.892-.348-.335-.174-.446-.435-.446-.697V84.685c0-.261.112-.523.446-.784.223-.174.558-.261.892-.261h13.051a2.16 2.16 0 0 1 1.004.261c.223.261.335.523.335.784v3.309c0 .174.112.261.223.348s.223 0 .335-.087c3.012-3.484 7.139-5.225 12.27-5.225zm63.462 18.376c.446 2.177.558 4.703.446 7.403-.112.697-.558 1.045-1.45 1.045H306.79c-.446 0-.558.174-.446.435.223 1.132.669 2.351 1.227 3.484 1.896 3.222 5.912 4.877 11.824 4.877 4.796-.087 8.477-1.568 11.266-4.529.335-.348.669-.523 1.004-.523.223 0 .446.087.781.348l8.031 6.183c.335.261.558.523.558.784 0 .087-.112.348-.446.697-2.454 2.351-5.577 4.267-9.481 5.487-3.904 1.306-8.143 2.003-12.716 2.003-6.358 0-11.824-1.132-16.174-3.396-4.462-2.264-7.697-5.4-9.593-9.493-1.562-2.874-2.342-6.706-2.342-11.409 0-3.222.558-6.009 1.673-8.448 1.673-4.093 4.685-7.403 9.035-9.841 4.239-2.439 9.258-3.658 15.17-3.658 7.474 0 13.385 1.655 17.959 5.051 4.462 3.396 7.139 7.838 8.143 13.499zm-25.99-7.925c-4.685 0-7.808 1.742-9.258 5.138-.335.784-.558 1.655-.781 2.787 0 .261.223.435.558.435h19.297c.446 0 .558-.174.446-.435-.335-1.655-.558-2.526-.558-2.439-.669-1.742-1.785-3.135-3.458-4.093s-3.793-1.393-6.247-1.393zm64.694-10.451c2.677 0 4.796.435 6.358 1.219.558.261.781.697.669 1.306l-2.342 9.928c-.112.697-.558.871-1.562.61-1.115-.261-2.454-.435-3.904-.435-.558 0-1.45.087-2.454.174-2.677.174-4.908.958-6.804 2.264-1.896 1.393-2.789 3.222-2.789 5.487v23.775a.88.88 0 0 1-.335.697c-.335.261-.669.348-1.004.348h-13.051c-.335 0-.669-.087-.892-.348-.335-.174-.446-.435-.446-.697V84.685c0-.261.112-.523.446-.784.223-.174.558-.261.892-.261H366.8a2.16 2.16 0 0 1 1.004.261c.223.261.335.523.335.784v3.309c0 .174.112.261.223.348s.223 0 .335-.087c3.012-3.484 7.139-5.225 12.27-5.225zm15.059 45.374c-.335 0-.669-.087-.892-.348-.335-.174-.446-.435-.446-.697V84.685c0-.261.112-.523.446-.784.223-.174.558-.261.892-.261h13.051a2.16 2.16 0 0 1 1.004.261c.223.261.335.523.335.784v42.674a.88.88 0 0 1-.335.697c-.335.261-.669.348-1.004.348h-13.051zm.335-50.164c-.558 0-.892-.087-1.004-.348s-.112-.523.112-.871l5.912-8.796c.335-.523.892-.784 1.673-.784h11.266c.558 0 .892.087 1.115.348.112.261.112.61-.223.958l-7.92 8.796c-.335.435-.892.697-1.562.697h-9.37zm48.077 4.703c4.796 0 9.147.61 12.939 1.916s6.804 3.135 8.924 5.4c2.008 2.264 3.123 4.79 3.123 7.577v29.523a.88.88 0 0 1-.335.697c-.335.261-.669.348-1.004.348h-13.051c-.335 0-.669-.087-.892-.348-.335-.174-.446-.435-.446-.697v-2.874c0-.174-.112-.261-.223-.348s-.335 0-.446.174c-3.123 3.222-8.143 4.79-15.059 4.79-5.8 0-10.485-1.132-14.055-3.309s-5.354-5.487-5.354-9.754c0-4.442 2.008-7.925 6.023-10.451 4.016-2.439 9.704-3.658 17.178-3.658h11.378c.335 0 .558-.174.558-.435v-1.916c0-1.916-.781-3.396-2.231-4.529-1.45-1.045-3.681-1.568-6.693-1.568-2.342 0-4.239.348-5.689.958-1.562.61-2.566 1.568-3.012 2.7-.223.61-.669.958-1.45.871l-13.497-1.393c-.892-.087-1.339-.348-1.227-.784.335-2.439 1.562-4.616 3.793-6.619 2.119-2.003 5.02-3.484 8.701-4.616 3.569-1.132 7.585-1.655 12.047-1.655zm-2.231 37.013c3.235 0 5.912-.697 8.143-2.003s3.346-3.048 3.346-5.138v-3.135c0-.261-.223-.435-.558-.435h-8.031c-3.346 0-5.912.523-7.808 1.481-2.008.958-2.9 2.351-2.9 4.18 0 1.568.669 2.787 2.119 3.658 1.45.958 3.346 1.393 5.689 1.393z" fill="#fff" fill-rule="nonzero"/><g transform="matrix(3.45722 0 0 2.69925 -1960.9 -364.909)"><g transform="matrix(.669043 0 0 .669043 201.718 -25.3741)" fill-rule="nonzero"><path d="M641.228 714.854v-291.5c0-27.244 24.229-49.663 53.673-49.663h123.682c7.261.303 14.051 3.444 18.669 8.637l65.341 69.097c4.618 5.193 11.409 8.335 18.669 8.637h301.503a55.57 55.57 0 0 1 4.668-.196c28.164 0 51.339 21.443 51.339 47.504l-.001.197v209.448c-1.241 25.238-24.035 45.37-51.339 45.344H692.567c-28.164 0-51.339-21.444-51.339-47.504z" fill="#964ac5" stroke="#6c19a0" stroke-miterlimit="4" stroke-width="8.97"/><g fill="#fff"><path d="M699.434 404.472c1.644 0 3.101.336 4.335 1.009s2.205 1.607 2.915 2.84c.673 1.233 1.009 2.653 1.009 4.26 0 1.569-.336 2.952-1.046 4.148s-1.719 2.13-2.989 2.765c-1.308.673-2.765 1.009-4.447 1.009h-5.306c-.112 0-.187.075-.187.187v9.529c0 .112-.037.224-.112.299-.112.112-.224.149-.336.149h-4.372a.34.34 0 0 1-.299-.149.34.34 0 0 1-.149-.299V404.92c0-.112.037-.224.149-.336.075-.075.187-.112.299-.112h10.537zm-.785 11.808c1.158 0 2.055-.336 2.765-1.009.71-.635 1.046-1.495 1.046-2.578s-.336-1.98-1.046-2.653-1.607-1.009-2.765-1.009h-4.746c-.112 0-.187.075-.187.187v6.875c0 .112.075.187.187.187h4.746zm19.36-5.119c1.607 0 3.064.262 4.335.822s2.279 1.345 2.989 2.317c.673.972 1.046 2.055 1.046 3.251v12.667c0 .112-.037.224-.112.299-.112.112-.224.149-.336.149h-4.372a.34.34 0 0 1-.299-.149.34.34 0 0 1-.149-.299v-1.233c0-.075-.037-.112-.075-.149s-.112 0-.149.075c-1.046 1.383-2.728 2.055-5.045 2.055-1.943 0-3.512-.486-4.708-1.42s-1.794-2.354-1.794-4.185c0-1.906.673-3.4 2.018-4.484 1.345-1.046 3.251-1.569 5.754-1.569h3.811c.112 0 .187-.075.187-.187v-.822c0-.822-.262-1.457-.747-1.943-.486-.448-1.233-.673-2.242-.673-.785 0-1.42.149-1.906.411-.523.262-.859.673-1.009 1.158-.075.262-.224.411-.486.374l-4.521-.598c-.299-.037-.448-.149-.411-.336.112-1.046.523-1.98 1.27-2.84.71-.859 1.682-1.495 2.915-1.98 1.196-.486 2.541-.71 4.036-.71zm-.747 15.881c1.084 0 1.98-.299 2.728-.859s1.121-1.308 1.121-2.205v-1.345c0-.112-.075-.187-.187-.187h-2.69c-1.121 0-1.98.224-2.616.635-.673.411-.972 1.009-.972 1.794 0 .673.224 1.196.71 1.569.486.411 1.121.598 1.906.598zm24.737-15.134c0-.112.037-.224.149-.336.075-.075.187-.112.299-.112h4.372a.6.6 0 0 1 .448.448v25.26a.6.6 0 0 1-.448.448h-4.372c-.112 0-.224-.037-.299-.112-.112-.112-.149-.224-.149-.336v-7.996c0-.075-.037-.112-.075-.149s-.112 0-.149.075c-1.009 1.233-2.391 1.868-4.185 1.868-1.831 0-3.326-.486-4.559-1.42-1.27-.934-2.167-2.167-2.728-3.774-.448-1.308-.673-2.877-.673-4.671 0-1.682.224-3.176.635-4.484.561-1.719 1.457-3.064 2.728-4.036 1.233-.934 2.728-1.42 4.484-1.42 1.831 0 3.251.673 4.297 2.055.037.037.112.075.149.037.037 0 .075-.037.075-.112v-1.233zm-.859 13.041c.561-.934.822-2.205.822-3.886 0-1.607-.262-2.84-.747-3.774-.635-1.084-1.495-1.607-2.616-1.607-1.233 0-2.13.523-2.765 1.607-.523 1.009-.785 2.242-.785 3.737 0 1.682.299 2.989.934 3.961s1.495 1.457 2.653 1.457c1.084 0 1.943-.486 2.504-1.495zm21.369-13.041c0-.112.037-.224.149-.336.075-.075.187-.112.299-.112h4.372a.6.6 0 0 1 .448.448v18.31c0 .112-.037.224-.112.299-.112.112-.224.149-.336.149h-4.372a.34.34 0 0 1-.299-.149.34.34 0 0 1-.149-.299v-1.27c0-.075-.037-.112-.075-.149-.037 0-.112.037-.149.112-1.009 1.345-2.541 2.018-4.633 2.018-1.906 0-3.438-.561-4.671-1.719s-1.831-2.765-1.831-4.82v-12.481c0-.112.037-.224.149-.336.075-.075.187-.112.299-.112h4.335a.6.6 0 0 1 .448.448v11.173c0 1.009.262 1.794.822 2.429.523.635 1.27.934 2.205.934.859 0 1.532-.262 2.093-.785.561-.486.897-1.158 1.009-1.98v-11.771z"/><use xlink:href="#B"/><path d="M802.642 415.234c0 .112-.037.224-.112.299-.112.112-.224.149-.336.149h-3.587c-.112 0-.187.075-.187.187v7.922c0 .822.187 1.42.523 1.831s.859.598 1.607.598h1.233c.112 0 .224.037.336.112.075.112.112.224.112.336v3.55c0 .262-.149.448-.448.486l-2.242.075c-2.055 0-3.625-.336-4.633-1.046-1.009-.673-1.532-1.943-1.569-3.849v-10.014c0-.112-.075-.187-.187-.187h-2.13a.34.34 0 0 1-.299-.149.34.34 0 0 1-.149-.299v-3.326c0-.112.037-.224.149-.336.075-.075.187-.112.299-.112h2.13c.112 0 .187-.075.187-.187v-4.447c0-.112.037-.224.149-.336.075-.075.187-.112.299-.112h4.185c.112 0 .224.037.336.112.075.112.112.224.112.336v4.447c0 .112.075.187.187.187h3.587c.112 0 .224.037.336.112.075.112.112.224.112.336v3.326z"/><use xlink:href="#B" x="33.89"/></g></g><g transform="matrix(.669043 0 0 .669043 307.666 117.756)" fill="#ffed00"><use xlink:href="#C"/><use xlink:href="#D"/><use xlink:href="#E"/><use xlink:href="#F"/><use xlink:href="#G"/><g fill-rule="nonzero"><use xlink:href="#H"/><use xlink:href="#I"/><use xlink:href="#J"/><use xlink:href="#K"/><use xlink:href="#L"/><use xlink:href="#M"/></g></g><g opacity=".2" transform="matrix(.669043 0 0 .669043 422.666 117.756)" fill="#ffed00"><use xlink:href="#C"/><use xlink:href="#D"/><use xlink:href="#E"/><use xlink:href="#F"/><use xlink:href="#G"/><g fill-rule="nonzero"><use xlink:href="#H"/><use xlink:href="#I"/><use xlink:href="#J"/><use xlink:href="#K"/><use xlink:href="#L"/><use xlink:href="#M"/></g></g><g opacity=".2" transform="matrix(.669043 0 0 .669043 192.666 117.756)" fill="#ffed00"><use xlink:href="#C"/><use xlink:href="#D"/><use xlink:href="#E"/><use xlink:href="#F"/><use xlink:href="#G"/><g fill-rule="nonzero"><use xlink:href="#H"/><use xlink:href="#I"/><use xlink:href="#J"/><use xlink:href="#K"/><use xlink:href="#L"/><use xlink:href="#M"/></g></g></g></g><defs ><path id="B" d="M788.671 419.082c.149.934.187 2.018.149 3.176-.037.299-.187.448-.486.448h-11.546c-.149 0-.187.075-.149.187a7.43 7.43 0 0 0 .411 1.495c.635 1.383 1.98 2.093 3.961 2.093 1.607-.037 2.84-.673 3.774-1.943.112-.149.224-.224.336-.224.075 0 .149.037.262.149l2.69 2.653c.112.112.187.224.187.336 0 .037-.037.149-.149.299-.822 1.009-1.868 1.831-3.176 2.354-1.308.561-2.728.859-4.26.859-2.13 0-3.961-.486-5.418-1.457-1.495-.972-2.578-2.317-3.214-4.073-.523-1.233-.785-2.877-.785-4.895 0-1.383.187-2.578.561-3.625.561-1.756 1.569-3.176 3.027-4.222 1.42-1.046 3.101-1.569 5.082-1.569 2.504 0 4.484.71 6.016 2.167 1.495 1.457 2.391 3.363 2.728 5.792zm-8.706-3.4c-1.569 0-2.616.747-3.101 2.205-.112.336-.187.71-.262 1.196 0 .112.075.187.187.187h6.464c.149 0 .187-.075.149-.187l-.187-1.046c-.224-.747-.598-1.345-1.158-1.756s-1.27-.598-2.093-.598z"/><path id="C" d="M800.626 379.496a2.42 2.42 0 0 1 2.034 0l24.198 11.207a2.42 2.42 0 0 1 1.403 2.196v28.019a2.42 2.42 0 0 1-1.207 2.094l-24.198 14.009a2.42 2.42 0 0 1-2.425 0l-24.198-14.009a2.42 2.42 0 0 1-1.207-2.094v-28.019a2.42 2.42 0 0 1 1.403-2.196l24.198-11.207zm-20.761 17.325l19.358 9.713v24.197l-19.358-11.208V396.82zm24.198 33.91l19.358-11.208V396.82l-19.358 9.713v24.197zm-2.42-28.397l18.629-9.347-18.629-8.628-18.628 8.628 18.628 9.347z"/><path id="D" d="M755.667 364.753a2.42 2.42 0 0 1 2.42-2.42h14.519a2.42 2.42 0 0 1 2.42 2.42 2.42 2.42 0 0 1-2.42 2.42h-12.099v12.099a2.42 2.42 0 0 1-2.42 2.42 2.42 2.42 0 0 1-2.42-2.42v-14.519z"/><path id="E" d="M845.2 362.333a2.42 2.42 0 0 1 2.42 2.42v14.519a2.42 2.42 0 0 1-2.42 2.42 2.42 2.42 0 0 1-2.42-2.42v-12.099h-12.099a2.42 2.42 0 0 1-2.42-2.42 2.42 2.42 0 0 1 2.42-2.42H845.2z"/><path id="F" d="M758.087 454.285a2.42 2.42 0 0 1-2.42-2.42v-14.519a2.42 2.42 0 0 1 2.42-2.42 2.42 2.42 0 0 1 2.42 2.42v12.099h12.099a2.42 2.42 0 0 1 2.42 2.42 2.42 2.42 0 0 1-2.42 2.42h-14.519z"/><path id="G" d="M847.619 451.866a2.42 2.42 0 0 1-2.42 2.42h-14.519a2.42 2.42 0 0 1-2.42-2.42 2.42 2.42 0 0 1 2.42-2.42h12.099v-12.099a2.42 2.42 0 0 1 2.42-2.42 2.42 2.42 0 0 1 2.42 2.42v14.519z"/><path id="H" d="M769.119 325.695c.09-.149.239-.239.419-.239h3.498c.09 0 .179.03.269.09.06.09.09.179.09.269v20.208a.34.34 0 0 1-.09.239c-.09.09-.179.12-.269.12h-3.498c-.09 0-.179-.03-.239-.12-.09-.06-.12-.149-.12-.239v-13.183c0-.09-.03-.12-.06-.12s-.09.03-.12.09l-3.169 4.962c-.09.149-.239.239-.419.239h-1.764c-.179 0-.329-.09-.419-.239l-3.169-4.962c-.03-.06-.09-.09-.12-.09-.03.03-.06.06-.06.149v13.153a.34.34 0 0 1-.09.239c-.09.09-.179.12-.269.12h-3.498c-.09 0-.179-.03-.239-.12-.09-.06-.12-.149-.12-.239v-20.208c0-.09.03-.179.12-.269a.34.34 0 0 1 .239-.09h3.498c.179 0 .329.09.419.239l4.484 6.965c.06.12.12.12.179 0l4.514-6.965z"/><path id="I" d="M783.553 346.62c-1.674 0-3.109-.448-4.305-1.315s-2.003-2.063-2.451-3.587c-.269-.927-.419-1.943-.419-3.049 0-1.166.149-2.242.419-3.169.448-1.465 1.285-2.631 2.481-3.468s2.631-1.256 4.305-1.256c1.644 0 3.019.419 4.185 1.226 1.166.837 1.973 2.003 2.451 3.468.329.986.478 2.033.478 3.139 0 1.076-.149 2.093-.419 3.019-.448 1.554-1.256 2.78-2.421 3.647-1.196.897-2.631 1.345-4.305 1.345zm0-3.617c.658 0 1.226-.209 1.674-.598s.777-.957.986-1.644a9.14 9.14 0 0 0 .239-2.093c0-.837-.09-1.554-.239-2.122-.209-.688-.568-1.196-1.016-1.584s-1.016-.568-1.674-.568c-.688 0-1.226.179-1.674.568s-.777.897-.986 1.584c-.149.478-.239 1.196-.239 2.122 0 .897.06 1.584.209 2.093.209.688.538 1.256 1.016 1.644.448.389 1.016.598 1.704.598zm-1.794-13.841c-.149 0-.239-.03-.269-.12s-.03-.179.03-.299l1.584-3.019c.09-.179.239-.269.448-.269h3.019c.149 0 .239.03.299.12.03.09.03.209-.06.329l-2.122 3.019c-.09.149-.239.239-.419.239h-2.511z"/><path id="J" d="M802.723 325.814c0-.09.03-.179.12-.269a.34.34 0 0 1 .239-.09h3.498c.09 0 .179.03.269.09.06.09.09.179.09.269v20.208a.34.34 0 0 1-.09.239c-.09.09-.179.12-.269.12h-3.498c-.09 0-.179-.03-.239-.12-.09-.06-.12-.149-.12-.239v-.986c0-.06-.03-.09-.06-.12-.03 0-.09.03-.12.06-.837 1.106-1.973 1.644-3.438 1.644-1.405 0-2.601-.389-3.587-1.166-1.016-.777-1.734-1.853-2.182-3.199-.329-1.046-.508-2.242-.508-3.617 0-1.405.179-2.661.538-3.707.448-1.285 1.166-2.302 2.182-3.049.986-.717 2.182-1.106 3.647-1.106 1.435 0 2.541.508 3.348 1.495.03.06.09.09.12.06s.06-.06.06-.12v-6.397zm-.628 15.903c.389-.747.598-1.734.598-3.019 0-1.345-.209-2.391-.658-3.139a2.19 2.19 0 0 0-2.003-1.166c-.927 0-1.644.389-2.122 1.166-.508.777-.747 1.823-.747 3.169 0 1.196.209 2.182.628 2.989.508.867 1.226 1.285 2.212 1.285.897 0 1.584-.419 2.093-1.285z"/><path id="K" d="M819.065 331.375c0-.09.03-.179.12-.269a.34.34 0 0 1 .239-.09h3.498c.09 0 .179.03.269.09.06.09.09.179.09.269v14.648a.34.34 0 0 1-.09.239c-.09.09-.179.12-.269.12h-3.498c-.09 0-.179-.03-.239-.12-.09-.06-.12-.149-.12-.239v-1.016c0-.06-.03-.09-.06-.12-.03 0-.09.03-.12.09-.807 1.076-2.033 1.614-3.707 1.614-1.525 0-2.75-.448-3.737-1.375s-1.465-2.212-1.465-3.856v-9.984c0-.09.03-.179.12-.269a.34.34 0 0 1 .239-.09h3.468c.09 0 .179.03.269.09.06.09.09.179.09.269v8.938c0 .807.209 1.435.658 1.943.419.508 1.016.747 1.764.747.688 0 1.226-.209 1.674-.628.448-.389.717-.927.807-1.584v-9.416z"/><path id="L" d="M826.756 346.381c-.09 0-.179-.03-.239-.12-.09-.06-.12-.149-.12-.239v-20.208c0-.09.03-.179.12-.269a.34.34 0 0 1 .239-.09h3.498c.09 0 .179.03.269.09.06.09.09.179.09.269v20.208a.34.34 0 0 1-.09.239c-.09.09-.179.12-.269.12h-3.498z"/><path id="M" d="M840.473 346.62c-1.674 0-3.109-.448-4.305-1.315s-2.003-2.063-2.451-3.587c-.269-.927-.419-1.943-.419-3.049 0-1.166.149-2.242.419-3.169.448-1.465 1.285-2.631 2.481-3.468s2.631-1.256 4.305-1.256c1.644 0 3.019.419 4.185 1.226 1.166.837 1.973 2.003 2.451 3.468.329.986.478 2.033.478 3.139 0 1.076-.149 2.093-.419 3.019-.448 1.554-1.256 2.78-2.421 3.647-1.196.897-2.631 1.345-4.305 1.345zm0-3.617c.658 0 1.226-.209 1.674-.598s.777-.957.986-1.644a9.14 9.14 0 0 0 .239-2.093c0-.837-.09-1.554-.239-2.122-.209-.688-.568-1.196-1.016-1.584s-1.016-.568-1.674-.568c-.688 0-1.226.179-1.674.568s-.777.897-.986 1.584c-.149.478-.239 1.196-.239 2.122 0 .897.06 1.584.209 2.093.209.688.538 1.256 1.016 1.644.448.389 1.016.598 1.704.598z"/></defs></svg>