<svg xmlns="http://www.w3.org/2000/svg" xmlns:xlink="http://www.w3.org/1999/xlink" width="581" height="316" fill-rule="evenodd" stroke-linejoin="round" stroke-miterlimit="2" xmlns:v="https://vecta.io/nano"><style><![CDATA[.B{fill-rule:nonzero}.C{fill:#f3dc8a}.D{fill:#f3918a}.E{fill:#9bf38a}.F{fill:#b18af3}]]></style><path d="M251.156 12.558v290.445c0 6.931-5.627 12.558-12.558 12.558H12.558C5.627 315.561 0 309.935 0 303.003V12.558C0 5.627 5.627 0 12.558 0h226.04c6.931 0 12.558 5.627 12.558 12.558zm329.844 0v290.445c0 6.931-5.627 12.558-12.558 12.558h-226.04c-6.931 0-12.558-5.627-12.558-12.558V12.558C329.844 5.627 335.471 0 342.402 0h226.04C575.373 0 581 5.627 581 12.558z" fill="#ebebeb"/><use xlink:href="#B" class="E"/><g class="B"><use xlink:href="#C"/><use xlink:href="#C" x="12.935"/><use xlink:href="#D"/><use xlink:href="#E"/><use xlink:href="#C" x="51.741"/><use xlink:href="#C" x="64.676"/></g><use xlink:href="#B" x="323.916" class="C"/><g class="B"><use xlink:href="#F"/><use xlink:href="#F" x="9.701"/><path d="M491.722 49.423c-.501 0-.873-.129-1.083-.388s-.356-.582-.404-.97h-.081a2.27 2.27 0 0 1-.873 1.132c-.404.291-.954.42-1.633.42-.873 0-1.568-.226-2.086-.679s-.776-1.067-.776-1.859c0-.776.291-1.374.857-1.795s1.471-.631 2.733-.631h1.779v-.825c0-.614-.178-1.083-.517-1.391s-.841-.453-1.471-.453c-.566 0-1.019.113-1.374.323-.356.226-.647.534-.857.905l-.873-.647c.113-.21.259-.42.437-.631s.404-.388.679-.55c.275-.146.582-.275.922-.372.34-.081.728-.129 1.148-.129.986 0 1.762.243 2.344.744.566.501.857 1.18.857 2.07v4.592h1.164v1.132h-.889zm-3.848-.889c.34 0 .647-.032.922-.129a2.39 2.39 0 0 0 .711-.323c.21-.129.372-.291.485-.485a1.11 1.11 0 0 0 .162-.598v-1.374h-1.779c-.776 0-1.342.113-1.698.323a1.03 1.03 0 0 0-.534.938v.34c0 .437.162.76.469.97.307.226.728.34 1.261.34z"/><use xlink:href="#G"/><use xlink:href="#G" x="9.701"/><use xlink:href="#F" x="48.506"/><use xlink:href="#F" x="58.207"/></g><g transform="matrix(.240668 0 0 .538961 -77.729 -125.8474)"><use xlink:href="#H" class="F"/><g class="B"><use xlink:href="#I"/><use xlink:href="#I" x="53.747"/></g></g><path d="M398.289 32.499v25.008a3.13 3.13 0 0 1-3.126 3.126h-32.014a3.13 3.13 0 0 1-3.126-3.126V32.499a3.13 3.13 0 0 1 3.126-3.126h32.014a3.13 3.13 0 0 1 3.126 3.126z" class="D"/><path d="M378.337 50.08v-4.506h-4.312v-1.466h4.312v-4.506h1.638v4.506h4.312v1.466h-4.312v4.506h-1.638z" class="B"/><g transform="matrix(.240668 0 0 .538961 -77.729 -88.12)"><use xlink:href="#H" class="F"/><g class="B"><path d="M524.195 319.58l-2.508-10.48v-8.12h7.883v8.12l-2.508 10.48h-2.866zm1.433 9.68c-2.419 0-4.121-.24-5.106-.68s-1.523-1.04-1.523-1.72v-.72c0-.68.537-1.28 1.523-1.72s2.687-.68 5.106-.68 4.21.24 5.196.68 1.433 1.04 1.433 1.72v.72c0 .68-.448 1.28-1.433 1.72s-2.777.68-5.196.68z"/><use xlink:href="#I" x="53.747"/></g></g><path d="M398.289 70.227v25.008a3.13 3.13 0 0 1-3.126 3.126h-32.014a3.13 3.13 0 0 1-3.126-3.126V70.227a3.13 3.13 0 0 1 3.126-3.126h32.014a3.13 3.13 0 0 1 3.126 3.126z" class="D"/><path d="M376.03 81.685h6.252v1.811h-6.252z" class="B"/><use xlink:href="#J" class="F"/><path d="M50.605 121.158v-1.725l9.27-5.368v1.789l-7.653 4.333v.172l7.653 4.333v1.832l-9.27-5.368z" class="B"/><use xlink:href="#K" class="D"/><path d="M376.462 125.319l-1.229-.905 2.673-3.665-4.29-1.423.453-1.423 4.29 1.38v-4.657h1.595v4.657l4.29-1.38.453 1.423-4.29 1.423 2.673 3.665-1.229.905-2.695-3.708-2.695 3.708z" class="B"/><use xlink:href="#J" y="37.727" class="F"/><path d="M50.605 162.464l7.653-4.333v-.172l-7.653-4.333v-1.832l9.27 5.368v1.725l-9.27 5.368v-1.789z" class="B"/><use xlink:href="#K" y="37.727" class="D"/><path d="M374.629 167.573l7.502-19.359h1.552l-7.502 19.359h-1.552z" class="B"/><g transform="matrix(.240668 0 0 .538961 -77.729 25.062)"><use xlink:href="#H" class="F"/><g class="B"><path d="M506.369 318.3v-3.2l38.518-9.96v3.32l-31.8 8.04v.32l31.8 8.04v3.4l-38.518-9.96z"/><use xlink:href="#I" x="53.747"/></g></g><g transform="matrix(.240668 0 0 .538961 246.187 25.062)"><use xlink:href="#H" class="D"/><path d="M506.817 334.42l31.173-35.92h6.45l-31.173 35.92h-6.45zm53.746 0l31.173-35.92h6.45l-31.173 35.92h-6.45z" class="B"/></g><g transform="matrix(.240668 0 0 .538961 -77.729 62.789)"><use xlink:href="#H" class="F"/><g class="B"><path d="M506.369 324.94l31.8-8.04v-.32l-31.8-8.04v-3.4l38.518 9.96v3.2l-38.518 9.96v-3.32z"/><use xlink:href="#I" x="53.747"/></g></g><use xlink:href="#K" y="113.182" class="D"/><path d="M376.332 232.378c-.949 0-1.725-.323-2.307-.97-.604-.625-.905-1.574-.905-2.846s.302-2.221.905-2.867c.582-.625 1.358-.949 2.307-.949s1.725.323 2.328.949c.582.647.884 1.595.884 2.867s-.302 2.221-.884 2.846c-.604.647-1.38.97-2.328.97zm0-1.164c.517 0 .949-.172 1.272-.539s.474-.884.474-1.574v-1.078c0-.69-.151-1.207-.474-1.574s-.755-.539-1.272-.539-.927.172-1.25.539c-.345.366-.496.884-.496 1.574v1.078c0 .69.151 1.207.496 1.574.323.366.733.539 1.25.539zm7.351-6.209h1.552l-3.449 6.468h-1.552l3.449-6.468zm-7.157 8.58h1.552l-3.449 6.468h-1.552l3.449-6.468zm5.454 6.726c-.949 0-1.725-.323-2.307-.97-.604-.625-.905-1.574-.905-2.846s.302-2.221.905-2.867c.582-.625 1.358-.949 2.307-.949s1.725.323 2.328.949c.582.647.884 1.595.884 2.867s-.302 2.221-.884 2.846c-.604.647-1.38.97-2.328.97zm0-1.164c.517 0 .927-.172 1.272-.539.323-.366.474-.884.474-1.574v-1.078c0-.69-.151-1.207-.474-1.574-.345-.366-.755-.539-1.272-.539s-.927.172-1.25.539-.496.884-.496 1.574v1.078c0 .69.172 1.207.496 1.574s.733.539 1.25.539z" class="B"/><g transform="matrix(.240668 0 0 .538961 246.187 100.516)"><use xlink:href="#H" class="D"/><g class="B"><use xlink:href="#L"/><use xlink:href="#L" x="53.746"/></g></g><use xlink:href="#M" class="E"/><g class="B"><use xlink:href="#C" y="37.727"/><use xlink:href="#C" x="12.935" y="37.727"/><path d="M163.532 89.144V78.02h1.725v1.811h.086c.108-.28.259-.539.431-.798.172-.237.388-.453.647-.647a2.63 2.63 0 0 1 .884-.453c.345-.108.755-.172 1.207-.172 1.164 0 2.091.366 2.803 1.099.711.755 1.056 1.789 1.056 3.148v7.136h-1.725V82.31c0-1.013-.216-1.789-.668-2.285s-1.099-.733-1.962-.733c-.345 0-.69.043-1.013.129s-.625.216-.884.388a1.86 1.86 0 0 0-.625.668c-.151.28-.237.582-.237.949v7.718h-1.725z"/><use xlink:href="#D" x="12.936" y="37.727"/><use xlink:href="#C" x="51.741" y="37.727"/><use xlink:href="#C" x="64.676" y="37.727"/></g><use xlink:href="#M" x="323.916" class="C"/><g class="B"><use xlink:href="#F" y="37.727"/><use xlink:href="#F" x="9.701" y="37.727"/><path d="M488.666 87.344c-.873 0-1.617-.146-2.247-.453-.631-.291-1.18-.679-1.617-1.18l.873-.76c.404.42.841.744 1.31.97s1.051.34 1.714.34c.647 0 1.18-.113 1.601-.356.404-.226.614-.582.614-1.083 0-.21-.032-.404-.113-.55-.097-.146-.194-.259-.34-.34s-.291-.162-.469-.21a5.5 5.5 0 0 0-.55-.113l-1.31-.194-.938-.178c-.34-.081-.663-.194-.938-.372-.275-.162-.517-.388-.695-.663-.194-.275-.291-.647-.291-1.099 0-.42.081-.792.259-1.099.162-.291.388-.55.695-.776.307-.21.663-.356 1.067-.469.404-.097.857-.146 1.342-.146.76 0 1.407.113 1.973.356.55.243 1.019.566 1.423.986l-.841.792c-.097-.113-.226-.243-.356-.372a3.83 3.83 0 0 0-.534-.34c-.21-.097-.469-.178-.744-.243s-.598-.097-.97-.097c-.663 0-1.164.113-1.504.34a1.09 1.09 0 0 0-.534.986c0 .21.049.388.129.534a.86.86 0 0 0 .323.356 2.17 2.17 0 0 0 .485.194l.534.129 1.31.194.954.178c.34.081.647.194.922.356.275.178.517.404.711.679.178.275.275.647.275 1.099 0 .825-.323 1.471-.954 1.924-.647.453-1.504.679-2.571.679z"/><use xlink:href="#N"/><path d="M504.657 75.185h1.294v4.98h.065c.534-1.035 1.391-1.552 2.571-1.552 1.019 0 1.827.388 2.409 1.148.566.76.857 1.843.857 3.218s-.291 2.458-.857 3.218c-.582.76-1.391 1.148-2.409 1.148-1.18 0-2.037-.517-2.571-1.552h-.065v1.358h-1.294V75.185zm3.428 11.011c.76 0 1.342-.226 1.762-.695.404-.453.614-1.051.614-1.811v-1.423c0-.76-.21-1.358-.614-1.827-.42-.453-1.002-.679-1.762-.679-.291 0-.566.032-.825.113s-.485.178-.679.323-.34.323-.453.534a1.58 1.58 0 0 0-.178.744v3.007c0 .275.065.517.178.728s.259.388.453.534a2.23 2.23 0 0 0 .679.34c.259.081.534.113.825.113z"/><use xlink:href="#F" x="48.506" y="37.727"/><use xlink:href="#F" x="58.207" y="37.727"/></g><use xlink:href="#O" class="E"/><g class="B"><use xlink:href="#C" y="75.454"/><use xlink:href="#C" x="12.935" y="75.454"/><path d="M163.144 125.405h3.881v-13.021h-3.881v-1.466h5.605v14.487h3.881v1.466h-9.486v-1.466z"/><use xlink:href="#P"/><use xlink:href="#C" x="51.741" y="75.454"/><use xlink:href="#C" x="64.676" y="75.454"/></g><use xlink:href="#O" x="323.916" class="C"/><g class="B"><use xlink:href="#F" y="75.454"/><use xlink:href="#F" x="9.701" y="75.454"/><use xlink:href="#Q"/><use xlink:href="#N" y="37.727"/><path d="M504.414 123.778h2.91v-9.766h-2.91v-1.099h4.204v10.865h2.91v1.099h-7.114v-1.099z"/><use xlink:href="#F" x="48.506" y="75.454"/><use xlink:href="#F" x="58.207" y="75.454"/></g><use xlink:href="#O" y="37.727" class="E"/><g class="B"><use xlink:href="#C" y="113.181"/><use xlink:href="#C" x="12.935" y="113.181"/><use xlink:href="#D" y="113.181"/><use xlink:href="#E" y="113.181"/><use xlink:href="#C" x="51.741" y="113.181"/><use xlink:href="#C" x="64.676" y="113.181"/></g><use xlink:href="#O" x="323.916" y="37.727" class="C"/><g class="B"><path d="M459.853 162.135h5.691v.877h-5.691zm7.114 0h5.691v.877h-5.691zm10.257-1.126c-.462 0-.806-.13-1.02-.391-.225-.261-.332-.593-.332-1.008v-3.913h-2.039v-.806h1.518c.202 0 .356-.047.439-.13s.119-.225.119-.427v-1.601h.913v2.158h2.786v.806h-2.786v4.506h2.786v.806h-2.383z"/><use xlink:href="#R"/><path d="M492.602 160.013h-.047c-.059.154-.142.296-.237.427a1.69 1.69 0 0 1-.344.368c-.142.107-.308.19-.498.249a2.24 2.24 0 0 1-.664.095c-.64 0-1.15-.202-1.541-.617-.391-.403-.581-.972-.581-1.719v-3.925h.949v3.759c0 .557.119.972.368 1.245s.605.415 1.079.415a2.19 2.19 0 0 0 .557-.071c.178-.047.344-.119.486-.213s.261-.213.344-.368a1.03 1.03 0 0 0 .13-.522v-4.245h.949v6.118h-.949v-.996zm5.775 1.138c-.439 0-.842-.071-1.186-.225-.356-.154-.652-.368-.901-.652-.249-.273-.451-.617-.581-1.008a4.07 4.07 0 0 1-.202-1.304 3.9 3.9 0 0 1 .213-1.328 2.95 2.95 0 0 1 .569-1.02 2.66 2.66 0 0 1 .889-.64 2.75 2.75 0 0 1 1.138-.225 2.69 2.69 0 0 1 1.126.225 2.63 2.63 0 0 1 .854.617 2.88 2.88 0 0 1 .545.949c.13.368.19.759.19 1.198v.451h-4.529v.285c0 .273.047.522.13.747a1.64 1.64 0 0 0 .379.593 1.46 1.46 0 0 0 .593.379 1.98 1.98 0 0 0 .771.142c.415 0 .771-.095 1.067-.285a1.84 1.84 0 0 0 .688-.783l.7.474c-.178.415-.486.747-.901 1.008-.427.273-.949.403-1.553.403zm-.059-5.62a1.83 1.83 0 0 0-.723.142c-.225.095-.415.225-.569.391-.166.166-.296.356-.379.581a1.9 1.9 0 0 0-.142.747v.083h3.51v-.13a2.08 2.08 0 0 0-.119-.735c-.083-.225-.202-.415-.344-.581-.154-.154-.332-.285-.534-.368a1.93 1.93 0 0 0-.7-.13z"/><use xlink:href="#S"/><use xlink:href="#T"/><use xlink:href="#U"/><path d="M523.881 162.135h5.691v.877h-5.691zm7.115 0h5.691v.877h-5.691z"/></g><use xlink:href="#O" y="75.455" class="E"/><g class="B"><use xlink:href="#C" y="150.909"/><use xlink:href="#C" x="12.935" y="150.909"/><path d="M173.513 203.598c0 1.121-.474 1.962-1.401 2.501s-2.328.798-4.204.798c-1.789 0-3.083-.237-3.859-.711-.798-.474-1.186-1.164-1.186-2.048 0-.604.151-1.078.474-1.401s.755-.582 1.337-.733v-.259c-.323-.151-.561-.366-.733-.604s-.259-.561-.259-.927c0-.582.194-1.013.582-1.294.366-.28.841-.496 1.423-.647v-.086c-.69-.302-1.229-.755-1.595-1.337-.388-.582-.582-1.272-.582-2.07 0-.561.108-1.078.302-1.552a3.32 3.32 0 0 1 .884-1.229c.366-.323.819-.582 1.358-.776s1.121-.28 1.768-.28c.841 0 1.574.151 2.199.453v-.194c0-.431.108-.798.302-1.078s.539-.431 1.035-.431h2.048v1.509h-2.501v.755c.41.345.711.755.927 1.229s.323 1.013.323 1.595c0 .561-.108 1.078-.302 1.552-.216.474-.517.884-.884 1.207-.366.345-.819.604-1.358.798s-1.143.28-1.789.28c-.194 0-.366 0-.539-.022l-.517-.065c-.172.022-.345.065-.539.129s-.366.151-.517.259a1.66 1.66 0 0 0-.388.388c-.108.151-.151.302-.151.496 0 .323.172.539.496.647s.755.172 1.294.172h2.458c1.444 0 2.479.259 3.126.798s.97 1.272.97 2.177zm-1.617.086c0-.453-.172-.798-.539-1.056-.366-.28-.992-.41-1.876-.41h-3.859c-.755.302-1.121.798-1.121 1.509 0 .496.194.905.582 1.272.388.345 1.035.517 1.94.517h1.682c1.013 0 1.789-.151 2.35-.453.561-.323.841-.776.841-1.38zm-4.075-6.403c.862 0 1.509-.194 1.919-.604s.604-.927.604-1.595v-.625c0-.668-.194-1.186-.604-1.595-.41-.388-1.056-.582-1.919-.582s-1.488.194-1.897.582c-.41.41-.604.927-.604 1.595v.625c0 .668.194 1.186.604 1.595s1.035.604 1.897.604z"/><use xlink:href="#P" y="75.455"/><use xlink:href="#C" x="51.741" y="150.909"/><use xlink:href="#C" x="64.676" y="150.909"/></g><use xlink:href="#O" x="323.916" y="75.455" class="C"/><g class="B"><path d="M459.853 199.863h5.691v.877h-5.691zm7.114 0h5.691v.877h-5.691zm7.684-6.438h-.83v-.806h.83v-1.257c0-.415.107-.747.332-1.008.213-.261.557-.391 1.02-.391h1.458v.806h-1.862v1.85h1.862v.806h-1.862v5.312h-.949v-5.312zm3.723-3.462h.949v8.774h-.949v-8.774z"/><use xlink:href="#V"/><use xlink:href="#V" x="7.115"/><use xlink:href="#R" x="14.229" y="37.728"/><use xlink:href="#S" y="37.728"/><use xlink:href="#T" y="37.728"/><use xlink:href="#U" y="37.728"/><path d="M523.881 199.863h5.691v.877h-5.691zm7.115 0h5.691v.877h-5.691z"/></g><use xlink:href="#O" y="113.182" class="E"/><g class="B"><use xlink:href="#C" y="188.636"/><use xlink:href="#C" x="12.935" y="188.636"/><path d="M163.144 238.587h3.881v-13.021h-3.881V224.1h5.605v14.487h3.881v1.466h-9.486v-1.466z"/><use xlink:href="#D" x="12.936" y="188.636"/><use xlink:href="#C" x="51.741" y="188.636"/><use xlink:href="#C" x="64.676" y="188.636"/></g><use xlink:href="#O" x="323.916" y="113.182" class="C"/><g class="B"><use xlink:href="#F" y="188.636"/><use xlink:href="#F" x="9.701" y="188.636"/><use xlink:href="#Q" y="113.182"/><use xlink:href="#W"/><use xlink:href="#G" x="9.701" y="188.636"/><use xlink:href="#F" x="48.506" y="188.636"/><use xlink:href="#F" x="58.207" y="188.636"/></g><use xlink:href="#O" x="323.916" y="150.909" class="C"/><g class="B"><use xlink:href="#F" y="226.363"/><use xlink:href="#F" x="9.701" y="226.363"/><path d="M485.254 267.443h1.294v1.358h.065c.534-1.035 1.391-1.552 2.571-1.552 1.019 0 1.827.388 2.409 1.148.566.76.857 1.843.857 3.218s-.291 2.458-.857 3.218c-.582.76-1.391 1.148-2.409 1.148-1.18 0-2.037-.517-2.571-1.552h-.065v4.592h-1.294v-11.577zm3.428 7.389c.76 0 1.342-.226 1.762-.695.404-.453.614-1.051.614-1.811v-1.423c0-.76-.21-1.358-.614-1.827-.42-.453-1.002-.679-1.762-.679-.291 0-.566.032-.825.113s-.485.178-.679.323-.34.323-.453.534a1.58 1.58 0 0 0-.178.744v3.007c0 .275.065.517.178.728s.259.388.453.534a2.23 2.23 0 0 0 .679.34c.259.081.534.113.825.113z"/><use xlink:href="#W" y="37.727"/><path d="M503.606 267.443h1.148l.954 7.211h.146l1.423-7.211h1.423l1.423 7.211h.146l.954-7.211h1.116l-1.277 8.343h-1.682l-1.326-6.985h-.129l-1.358 6.985h-1.682l-1.277-8.343z"/><use xlink:href="#F" x="48.506" y="226.363"/><use xlink:href="#F" x="58.207" y="226.363"/><g fill="#f8d583"><path d="M112.972 42.625L97.761 60.632l3.716-13.891h-7.102l-.118.005c-.953 0-1.736-.785-1.736-1.736a1.74 1.74 0 0 1 .118-.63l5.609-13.891a1.83 1.83 0 0 1 1.736-1.111h7.536l.118-.003c.952 0 1.736.783 1.736 1.736 0 .215-.04.429-.118.629l-3.334 8.057h5.73c.941.016 1.707.795 1.707 1.736a1.74 1.74 0 0 1-.387 1.094z"/><use xlink:href="#X"/><path d="M112.972 80.353L97.761 98.36l3.716-13.891h-7.102l-.118.005c-.953 0-1.736-.785-1.736-1.736a1.74 1.74 0 0 1 .118-.63l5.609-13.891a1.83 1.83 0 0 1 1.736-1.111h7.536l.118-.003c.952 0 1.736.783 1.736 1.736 0 .215-.04.429-.118.629l-3.334 8.057h5.73c.941.016 1.707.795 1.707 1.736a1.74 1.74 0 0 1-.387 1.094zm323.916 0L421.677 98.36l3.716-13.891h-7.102l-.118.005c-.953 0-1.736-.785-1.736-1.736a1.74 1.74 0 0 1 .118-.63l5.609-13.891a1.83 1.83 0 0 1 1.736-1.111h7.536l.118-.003c.952 0 1.736.783 1.736 1.736 0 .215-.04.429-.118.629l-3.334 8.057h5.73c.941.016 1.707.795 1.707 1.736a1.74 1.74 0 0 1-.387 1.094z"/><use xlink:href="#X" x="-323.916" y="75.455"/><use xlink:href="#X" y="75.455"/><use xlink:href="#X" x="-323.916" y="113.182"/><use xlink:href="#X" y="113.182"/><use xlink:href="#X" x="-323.916" y="150.909"/><use xlink:href="#X" y="150.909"/><use xlink:href="#X" x="-323.916" y="188.637"/><use xlink:href="#X" y="188.637"/><use xlink:href="#X" y="226.364"/></g></g><defs ><path id="B" d="M217.201 32.499v25.008a3.13 3.13 0 0 1-3.126 3.126h-79.443a3.13 3.13 0 0 1-3.126-3.126V32.499a3.13 3.13 0 0 1 3.126-3.126h79.443a3.13 3.13 0 0 1 3.126 3.126z"/><path id="C" d="M136.842 53.465h10.348v1.595h-10.348z"/><path id="D" d="M168.08 51.676c-.798 0-1.531-.129-2.156-.41-.647-.28-1.186-.668-1.638-1.186-.453-.496-.819-1.121-1.056-1.832s-.366-1.488-.366-2.371.129-1.703.388-2.415c.237-.711.582-1.337 1.035-1.854a4.85 4.85 0 0 1 1.617-1.164c.625-.28 1.315-.41 2.07-.41s1.423.129 2.048.41a4.78 4.78 0 0 1 1.552 1.121c.431.496.755 1.056.992 1.725s.345 1.38.345 2.177v.819h-8.235v.517c0 .496.086.949.237 1.358a2.98 2.98 0 0 0 .69 1.078c.28.302.647.539 1.078.69.41.172.884.259 1.401.259.755 0 1.401-.172 1.94-.517s.97-.819 1.25-1.423l1.272.862c-.323.755-.884 1.358-1.638 1.832-.776.496-1.725.733-2.824.733zm-.108-10.219a3.33 3.33 0 0 0-1.315.259c-.41.172-.755.41-1.035.711-.302.302-.539.647-.69 1.056-.172.41-.259.862-.259 1.358v.151h6.381v-.237c0-.496-.065-.927-.216-1.337s-.366-.755-.625-1.056c-.28-.28-.604-.517-.97-.668a3.51 3.51 0 0 0-1.272-.237z"/><path id="E" d="M183.516 49.606h-.086c-.711 1.38-1.854 2.07-3.428 2.07-1.358 0-2.436-.517-3.191-1.531-.776-1.013-1.164-2.458-1.164-4.29s.388-3.277 1.164-4.29c.755-1.013 1.832-1.531 3.191-1.531 1.574 0 2.716.69 3.428 2.07h.086v-1.811h1.725v15.436h-1.725v-6.123zm-2.846.539c.388 0 .755-.043 1.099-.151s.647-.259.905-.453.474-.431.625-.711.216-.604.216-.97v-4.01c0-.366-.065-.711-.216-.992s-.366-.517-.625-.711-.561-.323-.905-.431-.711-.151-1.099-.151c-1.013 0-1.789.302-2.328.905-.561.625-.841 1.423-.841 2.436v1.897c0 1.013.28 1.811.841 2.415.539.625 1.315.927 2.328.927z"/><path id="F" d="M465.286 50.959h7.761v1.196h-7.761z"/><path id="G" d="M500.291 48.065h-.065c-.534 1.035-1.391 1.552-2.571 1.552-1.019 0-1.827-.388-2.393-1.148-.582-.76-.873-1.843-.873-3.218s.291-2.458.873-3.218c.566-.76 1.374-1.148 2.393-1.148 1.18 0 2.037.517 2.571 1.552h.065v-4.98h1.294v11.965h-1.294v-1.358zm-2.134.404c.291 0 .566-.032.825-.113a2.23 2.23 0 0 0 .679-.34c.194-.146.356-.323.469-.534s.162-.453.162-.728v-3.007c0-.275-.049-.534-.162-.744s-.275-.388-.469-.534-.42-.243-.679-.323-.534-.113-.825-.113c-.76 0-1.342.226-1.746.679-.42.469-.631 1.067-.631 1.827v1.423c0 .76.21 1.358.631 1.811.404.469.986.695 1.746.695z"/><path id="H" d="M632 293.8v46.4c0 3.201-5.82 5.8-12.989 5.8H485.989c-7.169 0-12.989-2.599-12.989-5.8v-46.4c0-3.201 5.82-5.8 12.989-5.8h133.022c7.169 0 12.989 2.599 12.989 5.8z"/><path id="I" d="M504.308 314.02v-2.72h42.639v2.72h-42.639zm0 8v-2.72h42.639v2.72h-42.639z"/><path id="J" d="M74.373 107.954v25.008a3.13 3.13 0 0 1-3.126 3.126H39.233a3.13 3.13 0 0 1-3.126-3.126v-25.008a3.13 3.13 0 0 1 3.126-3.126h32.014a3.13 3.13 0 0 1 3.126 3.126z"/><path id="K" d="M398.289 107.954v25.008a3.13 3.13 0 0 1-3.126 3.126h-32.014a3.13 3.13 0 0 1-3.126-3.126v-25.008a3.13 3.13 0 0 1 3.126-3.126h32.014a3.13 3.13 0 0 1 3.126 3.126z"/><path id="L" d="M514.431 326.02l-5.106-1.68 11.108-6.8-17.826-2.64 1.881-2.64 17.826 2.56v-8.64h6.629v8.64l17.826-2.56 1.881 2.64-17.826 2.64 11.108 6.8-5.106 1.68-11.197-6.88-11.197 6.88z"/><path id="M" d="M217.201 70.227v25.008a3.13 3.13 0 0 1-3.126 3.126h-79.443a3.13 3.13 0 0 1-3.126-3.126V70.227a3.13 3.13 0 0 1 3.126-3.126h79.443a3.13 3.13 0 0 1 3.126 3.126z"/><path id="N" d="M500.243 85.792h-.065c-.081.21-.194.404-.323.582-.129.194-.291.356-.469.501a2.23 2.23 0 0 1-.679.34c-.259.081-.566.129-.905.129-.873 0-1.568-.275-2.102-.841-.534-.55-.792-1.326-.792-2.344v-5.352h1.294v5.126c0 .76.162 1.326.501 1.698s.825.566 1.471.566c.259 0 .517-.032.76-.097s.469-.162.663-.291.356-.291.469-.501c.113-.194.178-.437.178-.711v-5.788h1.294v8.343h-1.294v-1.358z"/><path id="O" d="M217.201 107.954v25.008a3.13 3.13 0 0 1-3.126 3.126h-79.443a3.13 3.13 0 0 1-3.126-3.126v-25.008a3.13 3.13 0 0 1 3.126-3.126h79.443a3.13 3.13 0 0 1 3.126 3.126z"/><path id="P" d="M181.36 126.871c-.841 0-1.466-.237-1.854-.711-.41-.474-.604-1.078-.604-1.832v-7.114h-3.708v-1.466h2.759c.366 0 .647-.086.798-.237s.216-.41.216-.776v-2.91h1.66v3.924h5.066v1.466h-5.066v8.192h5.066v1.466h-4.333z"/><path id="Q" d="M484.591 124.877v-8.343h1.196v.97h.065a2.24 2.24 0 0 1 .55-.825c.243-.226.582-.34 1.051-.34.485 0 .841.113 1.083.356s.388.566.437.954h.049c.146-.372.372-.695.647-.938s.663-.372 1.164-.372c.679 0 1.132.243 1.374.711.226.469.34 1.148.34 2.037v5.788h-1.196v-5.578c0-.711-.065-1.213-.21-1.488s-.42-.404-.808-.404c-.34 0-.631.113-.841.323-.21.226-.323.566-.323 1.019v6.128h-1.196v-5.578c0-.711-.065-1.213-.21-1.488s-.42-.404-.792-.404c-.34 0-.631.113-.841.323-.226.226-.34.566-.34 1.019v6.128h-1.196z"/><path id="R" d="M481.397 160.203h1.79v-4.506h-1.79v-.806h2.739v1.541h.059c.13-.486.368-.854.723-1.138.344-.273.794-.403 1.34-.403h.854v.949h-1.15c-.545 0-.984.154-1.316.474-.344.32-.51.735-.51 1.245v2.644h2.371v.806h-5.11v-.806z"/><path id="S" d="M506.866 160.013h-.047a1.97 1.97 0 0 1-1.885 1.138c-.747 0-1.34-.285-1.755-.842-.427-.557-.64-1.352-.64-2.36s.213-1.802.64-2.36c.415-.557 1.008-.842 1.755-.842a1.97 1.97 0 0 1 1.885 1.138h.047v-3.652h.949v8.774h-.949v-.996zm-1.565.296c.213 0 .415-.024.605-.083s.356-.142.498-.249.261-.237.344-.391.119-.332.119-.534v-2.205c0-.202-.036-.391-.119-.545s-.202-.285-.344-.391-.308-.178-.498-.237-.391-.083-.605-.083c-.557 0-.984.166-1.281.498-.308.344-.462.783-.462 1.34v1.043c0 .557.154.996.462 1.328.296.344.723.51 1.281.51z"/><path id="T" d="M512.878 153.539c-.273 0-.474-.059-.581-.178a.58.58 0 0 1-.166-.427v-.19a.63.63 0 0 1 .166-.439c.107-.107.308-.166.581-.166s.474.059.581.166a.63.63 0 0 1 .166.439v.19a.58.58 0 0 1-.166.427c-.107.119-.308.178-.581.178zm-2.68 6.664h2.205v-4.506h-2.205v-.806h3.154v5.312h2.063v.806h-5.217v-.806z"/><path id="U" d="M519.008 161.009l-2.194-6.118h.96l.877 2.561.949 2.763h.047l.949-2.763.877-2.561h.937l-2.194 6.118h-1.209z"/><path id="V" d="M484.041 198.879c-.427 0-.806-.071-1.15-.225-.356-.154-.64-.368-.877-.652-.249-.273-.427-.617-.557-1.008s-.19-.83-.19-1.316.059-.925.19-1.316.308-.735.557-1.02c.237-.273.522-.486.877-.64.344-.154.723-.225 1.15-.225s.818.071 1.162.225a2.62 2.62 0 0 1 .877.64c.237.285.415.628.545 1.02s.19.83.19 1.316-.059.925-.19 1.316-.308.735-.545 1.008a2.5 2.5 0 0 1-.877.652c-.344.154-.735.225-1.162.225zm0-.818c.534 0 .96-.154 1.281-.474s.486-.806.486-1.47v-.877c0-.664-.166-1.15-.486-1.47s-.747-.474-1.281-.474-.96.154-1.281.474-.486.806-.486 1.47v.877c0 .664.166 1.15.486 1.47s.747.474 1.281.474z"/><path id="W" d="M498.27 238.253c-.582 0-1.099-.097-1.568-.307a3.14 3.14 0 0 1-1.196-.889c-.34-.372-.582-.841-.76-1.374s-.259-1.132-.259-1.795.081-1.261.259-1.795.42-1.002.76-1.391a3.28 3.28 0 0 1 1.196-.873c.469-.21.986-.307 1.568-.307s1.116.097 1.585.307.857.501 1.196.873c.323.388.566.857.744 1.391s.259 1.132.259 1.795-.081 1.261-.259 1.795-.42 1.002-.744 1.374a3.41 3.41 0 0 1-1.196.889c-.469.21-1.002.307-1.585.307zm0-1.116c.728 0 1.31-.21 1.746-.647s.663-1.099.663-2.005v-1.196c0-.905-.226-1.568-.663-2.005s-1.019-.647-1.746-.647-1.31.21-1.746.647-.663 1.099-.663 2.005v1.196c0 .905.226 1.568.663 2.005s1.019.647 1.746.647z"/><path id="X" d="M436.888 42.625l-15.211 18.007 3.716-13.891h-7.102l-.118.005c-.953 0-1.736-.785-1.736-1.736a1.74 1.74 0 0 1 .118-.63l5.609-13.891a1.83 1.83 0 0 1 1.736-1.111h7.536l.118-.003c.952 0 1.736.783 1.736 1.736 0 .215-.04.429-.118.629l-3.334 8.057h5.73c.941.016 1.707.795 1.707 1.736a1.74 1.74 0 0 1-.387 1.094z"/></defs></svg>