<svg xmlns="http://www.w3.org/2000/svg" width="350" height="90" fill-rule="evenodd" stroke-linecap="round" stroke-linejoin="round" stroke-miterlimit="1.5" xmlns:v="https://vecta.io/nano"><path d="M50.303 56.591a2.86 2.86 0 0 0 2.86 2.86 2.86 2.86 0 0 0 2.859-2.86 2.86 2.86 0 0 0-2.859-2.859 2.86 2.86 0 0 0-2.86 2.859zm250.392-2.859l-4.289 5.719-4.29-5.719h8.579z" fill="gray"/><path d="M53.163 54.876V32.533h243.243v22.343" fill="none" stroke="gray" stroke-width="1.91" stroke-dasharray="5.72,3.81,0,0,0,0"/><g fill-rule="nonzero"><path d="M13.129 89.064c-.949 0-1.653-.245-2.051-.735s-.673-1.102-.765-1.836h-.153c-.337.918-.888 1.622-1.653 2.142-.765.551-1.806.796-3.091.796-1.653 0-2.969-.428-3.948-1.285s-1.469-2.02-1.469-3.52c0-1.469.551-2.602 1.622-3.397s2.785-1.194 5.172-1.194h3.367v-1.561c0-1.163-.337-2.051-.979-2.632s-1.592-.857-2.785-.857c-1.071 0-1.928.214-2.602.612a4.84 4.84 0 0 0-1.622 1.714L.519 76.087a6.99 6.99 0 0 1 .826-1.194c.337-.398.765-.735 1.285-1.041.52-.275 1.102-.52 1.745-.704.643-.153 1.377-.245 2.173-.245 1.867 0 3.336.459 4.438 1.408 1.071.949 1.622 2.234 1.622 3.918v8.692h2.204v2.142h-1.683zM5.845 87.38c.643 0 1.224-.061 1.745-.245.52-.153.949-.337 1.347-.612.398-.245.704-.551.918-.918.214-.337.306-.735.306-1.132v-2.602H6.794c-1.469 0-2.54.214-3.214.612s-1.01 1.01-1.01 1.775v.643c0 .826.306 1.438.888 1.836.582.428 1.377.643 2.387.643z"/><path d="M36.604 78.015v-3.612h14.569v3.612H36.604zm0 7.039v-3.612h14.569v3.612H36.604zm18.364-7.039v-3.612h14.569v3.612H54.968zm0 7.039v-3.612h14.569v3.612H54.968z" fill="#0d79f2"/><path d="M92.705 66.415h2.448v9.427h.122c1.01-1.959 2.632-2.938 4.866-2.938 1.928 0 3.458.735 4.56 2.173 1.071 1.438 1.622 3.489 1.622 6.091s-.551 4.652-1.622 6.091c-1.102 1.438-2.632 2.173-4.56 2.173-2.234 0-3.856-.979-4.866-2.938h-.122v2.571h-2.448V66.415zm6.489 20.843c1.438 0 2.54-.428 3.336-1.316.765-.857 1.163-1.989 1.163-3.428v-2.693c0-1.438-.398-2.571-1.163-3.458-.796-.857-1.898-1.285-3.336-1.285-.551 0-1.071.061-1.561.214s-.918.337-1.285.612-.643.612-.857 1.01a2.99 2.99 0 0 0-.337 1.408v5.693c0 .52.122.979.337 1.377s.49.735.857 1.01a4.22 4.22 0 0 0 1.285.643c.49.153 1.01.214 1.561.214z"/><path d="M243.151 84.749h14.691v3.703h-14.691zm18.363 0h14.691v3.703h-14.691zm26.138-1.806c-2.663 0-4.652-.735-6.029-2.204s-2.051-3.458-2.051-5.999c0-1.285.184-2.448.551-3.489.337-1.01.857-1.898 1.53-2.632.643-.704 1.469-1.255 2.418-1.653.949-.367 1.989-.551 3.183-.551s2.234.184 3.183.551c.949.398 1.745.918 2.387 1.622s1.163 1.53 1.53 2.51c.337 1.01.52 2.112.52 3.336v1.347H284.07v.275c0 1.01.306 1.836.949 2.448.643.643 1.561.949 2.785.949.949 0 1.745-.184 2.418-.551.673-.337 1.255-.826 1.745-1.408l2.448 2.663c-.612.765-1.469 1.408-2.571 1.959s-2.51.826-4.193.826zm-.367-13.283c-.979 0-1.745.306-2.326.888-.582.612-.888 1.438-.888 2.448v.245h6.366v-.245c0-1.041-.275-1.867-.826-2.448-.582-.582-1.347-.888-2.326-.888zm21.149 10.039h-.214c-.398.949-.979 1.745-1.683 2.326-.735.612-1.745.918-2.999.918-.888 0-1.683-.153-2.387-.49-.735-.337-1.347-.826-1.867-1.5s-.949-1.53-1.224-2.571c-.306-1.041-.459-2.265-.459-3.703s.153-2.663.459-3.703c.275-1.041.704-1.898 1.224-2.571s1.132-1.163 1.867-1.5c.704-.337 1.5-.49 2.387-.49.643 0 1.194.092 1.683.245s.918.398 1.316.673c.367.275.704.612.979 1.01s.49.857.704 1.316h.214v-2.877h4.53v21.914h-4.53v-8.998zm-2.938-.275c.796 0 1.469-.184 2.081-.582.582-.398.857-1.01.857-1.836v-4.652c0-.826-.275-1.438-.857-1.836-.612-.398-1.285-.582-2.081-.582-1.01 0-1.806.306-2.357.918-.551.643-.826 1.5-.826 2.602v2.448c0 1.102.275 1.959.826 2.571.551.643 1.347.949 2.357.949zm11.11 5.325h14.691v3.703h-14.691zm18.363 0h14.691v3.703h-14.691z" fill="#0d79f2"/><path d="M197.727 31.976l-34.788 41.181 8.498-31.77h-16.242l-.27.012c-2.18 0-3.971-1.795-3.971-3.971 0-.492.091-.981.27-1.442l12.827-31.77c.671-1.581 2.252-2.593 3.971-2.542h17.235l.27-.008c2.176 0 3.971 1.791 3.971 3.971a3.95 3.95 0 0 1-.27 1.438l-7.625 18.426h13.105c2.152.036 3.904 1.819 3.904 3.971 0 .913-.314 1.795-.886 2.502z" fill="#f2af0d" stroke="#000" stroke-miterlimit="4" stroke-width="3.336"/></g></svg>