<?xml version="1.0" encoding="UTF-8" standalone="no"?>
<!DOCTYPE svg PUBLIC "-//W3C//DTD SVG 1.1//EN" "http://www.w3.org/Graphics/SVG/1.1/DTD/svg11.dtd">
<svg width="581px" height="316px" version="1.1" xmlns="http://www.w3.org/2000/svg" xmlns:xlink="http://www.w3.org/1999/xlink" xml:space="preserve" xmlns:serif="http://www.serif.com/" style="fill-rule:evenodd;clip-rule:evenodd;stroke-linejoin:round;stroke-miterlimit:2;">
    <g transform="matrix(1,0,0,1,-319,-207.5)">
        <g transform="matrix(0.538961,0,0,0.5605,143.299,94.2789)">
            <path d="M792,224.405L792,742.595C792,754.961 781.56,765 768.7,765L349.3,765C336.44,765 326,754.961 326,742.595L326,224.405C326,212.039 336.44,202 349.3,202L768.7,202C781.56,202 792,212.039 792,224.405Z" style="fill:rgb(235,235,235);"/>
        </g>
        <g transform="matrix(0.538961,0,0,0.5605,473.143,94.2789)">
            <path d="M792,224.405L792,742.595C792,754.961 781.56,765 768.7,765L349.3,765C336.44,765 326,754.961 326,742.595L326,224.405C326,212.039 336.44,202 349.3,202L768.7,202C781.56,202 792,212.039 792,224.405Z" style="fill:rgb(235,235,235);"/>
        </g>
        <g transform="matrix(0.538961,0,0,0.538961,195.578,81.6526)">
            <path d="M632,293.8L632,340.2C632,343.401 629.401,346 626.2,346L478.8,346C475.599,346 473,343.401 473,340.2L473,293.8C473,290.599 475.599,288 478.8,288L626.2,288C629.401,288 632,290.599 632,293.8Z" style="fill:rgb(155,243,138);"/>
            <g transform="matrix(40,0,0,40,480.5,328.9)">
                <rect x="0.06" y="0.095" width="0.48" height="0.074" style="fill-rule:nonzero;"/>
            </g>
            <g transform="matrix(40,0,0,40,504.5,328.9)">
                <rect x="0.06" y="0.095" width="0.48" height="0.074" style="fill-rule:nonzero;"/>
            </g>
            <g transform="matrix(40,0,0,40,528.5,328.9)">
                <path d="M0.309,0.012C0.272,0.012 0.238,0.006 0.209,-0.007C0.179,-0.02 0.154,-0.038 0.133,-0.062C0.112,-0.085 0.095,-0.114 0.084,-0.147C0.073,-0.18 0.067,-0.216 0.067,-0.257C0.067,-0.298 0.073,-0.336 0.085,-0.369C0.096,-0.402 0.112,-0.431 0.133,-0.455C0.154,-0.478 0.179,-0.496 0.208,-0.509C0.237,-0.522 0.269,-0.528 0.304,-0.528C0.339,-0.528 0.37,-0.522 0.399,-0.509C0.427,-0.496 0.451,-0.479 0.471,-0.457C0.491,-0.434 0.506,-0.408 0.517,-0.377C0.528,-0.346 0.533,-0.313 0.533,-0.276L0.533,-0.238L0.151,-0.238L0.151,-0.214C0.151,-0.191 0.155,-0.17 0.162,-0.151C0.169,-0.132 0.18,-0.115 0.194,-0.101C0.207,-0.087 0.224,-0.076 0.244,-0.069C0.263,-0.061 0.285,-0.057 0.309,-0.057C0.344,-0.057 0.374,-0.065 0.399,-0.081C0.424,-0.097 0.444,-0.119 0.457,-0.147L0.516,-0.107C0.501,-0.072 0.475,-0.044 0.44,-0.022C0.404,0.001 0.36,0.012 0.309,0.012ZM0.304,-0.462C0.282,-0.462 0.262,-0.458 0.243,-0.45C0.224,-0.442 0.208,-0.431 0.195,-0.417C0.181,-0.403 0.17,-0.387 0.163,-0.368C0.155,-0.349 0.151,-0.328 0.151,-0.305L0.151,-0.298L0.447,-0.298L0.447,-0.309C0.447,-0.332 0.444,-0.352 0.437,-0.371C0.43,-0.39 0.42,-0.406 0.408,-0.42C0.395,-0.433 0.38,-0.444 0.363,-0.451C0.345,-0.458 0.325,-0.462 0.304,-0.462Z" style="fill-rule:nonzero;"/>
            </g>
            <g transform="matrix(40,0,0,40,552.5,328.9)">
                <path d="M0.425,-0.084L0.421,-0.084C0.388,-0.02 0.335,0.012 0.262,0.012C0.199,0.012 0.149,-0.012 0.114,-0.059C0.078,-0.106 0.06,-0.173 0.06,-0.258C0.06,-0.343 0.078,-0.41 0.114,-0.457C0.149,-0.504 0.199,-0.528 0.262,-0.528C0.335,-0.528 0.388,-0.496 0.421,-0.432L0.425,-0.432L0.425,-0.516L0.505,-0.516L0.505,0.2L0.425,0.2L0.425,-0.084ZM0.293,-0.059C0.311,-0.059 0.328,-0.061 0.344,-0.066C0.36,-0.071 0.374,-0.078 0.386,-0.087C0.398,-0.096 0.408,-0.107 0.415,-0.12C0.422,-0.133 0.425,-0.148 0.425,-0.165L0.425,-0.351C0.425,-0.368 0.422,-0.384 0.415,-0.397C0.408,-0.41 0.398,-0.421 0.386,-0.43C0.374,-0.439 0.36,-0.445 0.344,-0.45C0.328,-0.455 0.311,-0.457 0.293,-0.457C0.246,-0.457 0.21,-0.443 0.185,-0.415C0.159,-0.386 0.146,-0.349 0.146,-0.302L0.146,-0.214C0.146,-0.167 0.159,-0.13 0.185,-0.102C0.21,-0.073 0.246,-0.059 0.293,-0.059Z" style="fill-rule:nonzero;"/>
            </g>
            <g transform="matrix(40,0,0,40,576.5,328.9)">
                <rect x="0.06" y="0.095" width="0.48" height="0.074" style="fill-rule:nonzero;"/>
            </g>
            <g transform="matrix(40,0,0,40,600.5,328.9)">
                <rect x="0.06" y="0.095" width="0.48" height="0.074" style="fill-rule:nonzero;"/>
            </g>
        </g>
        <g transform="matrix(0.538961,0,0,0.538961,519.494,81.6526)">
            <path d="M632,293.8L632,340.2C632,343.401 629.401,346 626.2,346L478.8,346C475.599,346 473,343.401 473,340.2L473,293.8C473,290.599 475.599,288 478.8,288L626.2,288C629.401,288 632,290.599 632,293.8Z" style="fill:rgb(243,220,138);"/>
            <g transform="matrix(30,0,0,30,489.5,325.2)">
                <rect x="0.06" y="0.095" width="0.48" height="0.074" style="fill-rule:nonzero;"/>
            </g>
            <g transform="matrix(30,0,0,30,507.5,325.2)">
                <rect x="0.06" y="0.095" width="0.48" height="0.074" style="fill-rule:nonzero;"/>
            </g>
            <g transform="matrix(30,0,0,30,525.5,325.2)">
                <path d="M0.495,-0C0.464,-0 0.441,-0.008 0.428,-0.024C0.415,-0.04 0.406,-0.06 0.403,-0.084L0.398,-0.084C0.387,-0.054 0.369,-0.031 0.344,-0.014C0.319,0.004 0.285,0.012 0.243,0.012C0.189,0.012 0.146,-0.002 0.114,-0.03C0.082,-0.058 0.066,-0.096 0.066,-0.145C0.066,-0.193 0.084,-0.23 0.119,-0.256C0.154,-0.282 0.21,-0.295 0.288,-0.295L0.398,-0.295L0.398,-0.346C0.398,-0.384 0.387,-0.413 0.366,-0.432C0.345,-0.451 0.314,-0.46 0.275,-0.46C0.24,-0.46 0.212,-0.453 0.19,-0.44C0.168,-0.426 0.15,-0.407 0.137,-0.384L0.083,-0.424C0.09,-0.437 0.099,-0.45 0.11,-0.463C0.121,-0.476 0.135,-0.487 0.152,-0.497C0.169,-0.506 0.188,-0.514 0.209,-0.52C0.23,-0.525 0.254,-0.528 0.28,-0.528C0.341,-0.528 0.389,-0.513 0.425,-0.482C0.46,-0.451 0.478,-0.409 0.478,-0.354L0.478,-0.07L0.55,-0.07L0.55,-0L0.495,-0ZM0.257,-0.055C0.278,-0.055 0.297,-0.057 0.314,-0.063C0.331,-0.068 0.345,-0.074 0.358,-0.083C0.371,-0.091 0.381,-0.101 0.388,-0.113C0.395,-0.124 0.398,-0.137 0.398,-0.15L0.398,-0.235L0.288,-0.235C0.24,-0.235 0.205,-0.228 0.183,-0.215C0.161,-0.202 0.15,-0.182 0.15,-0.157L0.15,-0.136C0.15,-0.109 0.16,-0.089 0.179,-0.076C0.198,-0.062 0.224,-0.055 0.257,-0.055Z" style="fill-rule:nonzero;"/>
            </g>
            <g transform="matrix(30,0,0,30,543.5,325.2)">
                <path d="M0.425,-0.084L0.421,-0.084C0.388,-0.02 0.335,0.012 0.262,0.012C0.199,0.012 0.149,-0.012 0.114,-0.059C0.078,-0.106 0.06,-0.173 0.06,-0.258C0.06,-0.343 0.078,-0.41 0.114,-0.457C0.149,-0.504 0.199,-0.528 0.262,-0.528C0.335,-0.528 0.388,-0.496 0.421,-0.432L0.425,-0.432L0.425,-0.74L0.505,-0.74L0.505,-0L0.425,-0L0.425,-0.084ZM0.293,-0.059C0.311,-0.059 0.328,-0.061 0.344,-0.066C0.36,-0.071 0.374,-0.078 0.386,-0.087C0.398,-0.096 0.408,-0.107 0.415,-0.12C0.422,-0.133 0.425,-0.148 0.425,-0.165L0.425,-0.351C0.425,-0.368 0.422,-0.384 0.415,-0.397C0.408,-0.41 0.398,-0.421 0.386,-0.43C0.374,-0.439 0.36,-0.445 0.344,-0.45C0.328,-0.455 0.311,-0.457 0.293,-0.457C0.246,-0.457 0.21,-0.443 0.185,-0.415C0.159,-0.386 0.146,-0.349 0.146,-0.302L0.146,-0.214C0.146,-0.167 0.159,-0.13 0.185,-0.102C0.21,-0.073 0.246,-0.059 0.293,-0.059Z" style="fill-rule:nonzero;"/>
            </g>
            <g transform="matrix(30,0,0,30,561.5,325.2)">
                <path d="M0.425,-0.084L0.421,-0.084C0.388,-0.02 0.335,0.012 0.262,0.012C0.199,0.012 0.149,-0.012 0.114,-0.059C0.078,-0.106 0.06,-0.173 0.06,-0.258C0.06,-0.343 0.078,-0.41 0.114,-0.457C0.149,-0.504 0.199,-0.528 0.262,-0.528C0.335,-0.528 0.388,-0.496 0.421,-0.432L0.425,-0.432L0.425,-0.74L0.505,-0.74L0.505,-0L0.425,-0L0.425,-0.084ZM0.293,-0.059C0.311,-0.059 0.328,-0.061 0.344,-0.066C0.36,-0.071 0.374,-0.078 0.386,-0.087C0.398,-0.096 0.408,-0.107 0.415,-0.12C0.422,-0.133 0.425,-0.148 0.425,-0.165L0.425,-0.351C0.425,-0.368 0.422,-0.384 0.415,-0.397C0.408,-0.41 0.398,-0.421 0.386,-0.43C0.374,-0.439 0.36,-0.445 0.344,-0.45C0.328,-0.455 0.311,-0.457 0.293,-0.457C0.246,-0.457 0.21,-0.443 0.185,-0.415C0.159,-0.386 0.146,-0.349 0.146,-0.302L0.146,-0.214C0.146,-0.167 0.159,-0.13 0.185,-0.102C0.21,-0.073 0.246,-0.059 0.293,-0.059Z" style="fill-rule:nonzero;"/>
            </g>
            <g transform="matrix(30,0,0,30,579.5,325.2)">
                <rect x="0.06" y="0.095" width="0.48" height="0.074" style="fill-rule:nonzero;"/>
            </g>
            <g transform="matrix(30,0,0,30,597.5,325.2)">
                <rect x="0.06" y="0.095" width="0.48" height="0.074" style="fill-rule:nonzero;"/>
            </g>
        </g>
        <g transform="matrix(0.240668,0,0,0.538961,241.271,81.6526)">
            <path d="M632,293.8L632,340.2C632,343.401 626.18,346 619.011,346L485.989,346C478.82,346 473,343.401 473,340.2L473,293.8C473,290.599 478.82,288 485.989,288L619.011,288C626.18,288 632,290.599 632,293.8Z" style="fill:rgb(177,138,243);"/>
            <g transform="matrix(2.23944,0,0,1,-586.254,2.84217e-14)">
                <g transform="matrix(40,0,0,40,484.5,328.9)">
                    <path d="M0.062,-0.372L0.062,-0.44L0.538,-0.44L0.538,-0.372L0.062,-0.372ZM0.062,-0.172L0.062,-0.24L0.538,-0.24L0.538,-0.172L0.062,-0.172Z" style="fill-rule:nonzero;"/>
                </g>
                <g transform="matrix(40,0,0,40,508.5,328.9)">
                    <path d="M0.062,-0.372L0.062,-0.44L0.538,-0.44L0.538,-0.372L0.062,-0.372ZM0.062,-0.172L0.062,-0.24L0.538,-0.24L0.538,-0.172L0.062,-0.172Z" style="fill-rule:nonzero;"/>
                </g>
            </g>
        </g>
        <g transform="matrix(0.240668,0,0,0.538961,565.187,81.6526)">
            <path d="M632,293.8L632,340.2C632,343.401 626.18,346 619.011,346L485.989,346C478.82,346 473,343.401 473,340.2L473,293.8C473,290.599 478.82,288 485.989,288L619.011,288C626.18,288 632,290.599 632,293.8Z" style="fill:rgb(243,145,138);"/>
            <g transform="matrix(2.23944,0,0,1,-586.254,2.84217e-14)">
                <g transform="matrix(40,0,0,40,496.5,328.9)">
                    <path d="M0.262,-0.062L0.262,-0.271L0.062,-0.271L0.062,-0.339L0.262,-0.339L0.262,-0.548L0.338,-0.548L0.338,-0.339L0.538,-0.339L0.538,-0.271L0.338,-0.271L0.338,-0.062L0.262,-0.062Z" style="fill-rule:nonzero;"/>
                </g>
            </g>
        </g>
        <g transform="matrix(0.240668,0,0,0.538961,241.271,119.38)">
            <path d="M632,293.8L632,340.2C632,343.401 626.18,346 619.011,346L485.989,346C478.82,346 473,343.401 473,340.2L473,293.8C473,290.599 478.82,288 485.989,288L619.011,288C626.18,288 632,290.599 632,293.8Z" style="fill:rgb(177,138,243);"/>
            <g transform="matrix(2.23944,0,0,1,-586.254,2.84217e-14)">
                <g transform="matrix(40,0,0,40,484.5,328.9)">
                    <path d="M0.284,-0.233L0.256,-0.495L0.256,-0.698L0.344,-0.698L0.344,-0.495L0.316,-0.233L0.284,-0.233ZM0.3,0.009C0.273,0.009 0.254,0.003 0.243,-0.008C0.232,-0.019 0.226,-0.034 0.226,-0.051L0.226,-0.069C0.226,-0.086 0.232,-0.101 0.243,-0.112C0.254,-0.123 0.273,-0.129 0.3,-0.129C0.327,-0.129 0.347,-0.123 0.358,-0.112C0.369,-0.101 0.374,-0.086 0.374,-0.069L0.374,-0.051C0.374,-0.034 0.369,-0.019 0.358,-0.008C0.347,0.003 0.327,0.009 0.3,0.009Z" style="fill-rule:nonzero;"/>
                </g>
                <g transform="matrix(40,0,0,40,508.5,328.9)">
                    <path d="M0.062,-0.372L0.062,-0.44L0.538,-0.44L0.538,-0.372L0.062,-0.372ZM0.062,-0.172L0.062,-0.24L0.538,-0.24L0.538,-0.172L0.062,-0.172Z" style="fill-rule:nonzero;"/>
                </g>
            </g>
        </g>
        <g transform="matrix(0.240668,0,0,0.538961,565.187,119.38)">
            <path d="M632,293.8L632,340.2C632,343.401 626.18,346 619.011,346L485.989,346C478.82,346 473,343.401 473,340.2L473,293.8C473,290.599 478.82,288 485.989,288L619.011,288C626.18,288 632,290.599 632,293.8Z" style="fill:rgb(243,145,138);"/>
            <g transform="matrix(2.23944,0,0,1,-586.254,2.84217e-14)">
                <g transform="matrix(40,0,0,40,496.5,328.9)">
                    <rect x="0.155" y="-0.346" width="0.29" height="0.084" style="fill-rule:nonzero;"/>
                </g>
            </g>
        </g>
        <g transform="matrix(0.240668,0,0,0.538961,241.271,157.107)">
            <path d="M632,293.8L632,340.2C632,343.401 626.18,346 619.011,346L485.989,346C478.82,346 473,343.401 473,340.2L473,293.8C473,290.599 478.82,288 485.989,288L619.011,288C626.18,288 632,290.599 632,293.8Z" style="fill:rgb(177,138,243);"/>
            <g transform="matrix(2.23944,0,0,1,-586.254,2.84217e-14)">
                <g transform="matrix(40,0,0,40,496.5,328.9)">
                    <path d="M0.085,-0.265L0.085,-0.345L0.515,-0.594L0.515,-0.511L0.16,-0.31L0.16,-0.302L0.515,-0.101L0.515,-0.016L0.085,-0.265Z" style="fill-rule:nonzero;"/>
                </g>
            </g>
        </g>
        <g transform="matrix(0.240668,0,0,0.538961,565.187,157.107)">
            <path d="M632,293.8L632,340.2C632,343.401 626.18,346 619.011,346L485.989,346C478.82,346 473,343.401 473,340.2L473,293.8C473,290.599 478.82,288 485.989,288L619.011,288C626.18,288 632,290.599 632,293.8Z" style="fill:rgb(243,145,138);"/>
            <g transform="matrix(2.23944,0,0,1,-586.254,2.84217e-14)">
                <g transform="matrix(40,0,0,40,496.5,328.9)">
                    <path d="M0.175,-0.072L0.118,-0.114L0.242,-0.284L0.043,-0.35L0.064,-0.416L0.263,-0.352L0.263,-0.568L0.337,-0.568L0.337,-0.352L0.536,-0.416L0.557,-0.35L0.358,-0.284L0.482,-0.114L0.425,-0.072L0.3,-0.244L0.175,-0.072Z" style="fill-rule:nonzero;"/>
                </g>
            </g>
        </g>
        <g transform="matrix(0.240668,0,0,0.538961,241.271,194.834)">
            <path d="M632,293.8L632,340.2C632,343.401 626.18,346 619.011,346L485.989,346C478.82,346 473,343.401 473,340.2L473,293.8C473,290.599 478.82,288 485.989,288L619.011,288C626.18,288 632,290.599 632,293.8Z" style="fill:rgb(177,138,243);"/>
            <g transform="matrix(2.23944,0,0,1,-586.254,2.84217e-14)">
                <g transform="matrix(40,0,0,40,496.5,328.9)">
                    <path d="M0.085,-0.099L0.44,-0.3L0.44,-0.308L0.085,-0.509L0.085,-0.594L0.515,-0.345L0.515,-0.265L0.085,-0.016L0.085,-0.099Z" style="fill-rule:nonzero;"/>
                </g>
            </g>
        </g>
        <g transform="matrix(0.240668,0,0,0.538961,565.187,194.834)">
            <path d="M632,293.8L632,340.2C632,343.401 626.18,346 619.011,346L485.989,346C478.82,346 473,343.401 473,340.2L473,293.8C473,290.599 478.82,288 485.989,288L619.011,288C626.18,288 632,290.599 632,293.8Z" style="fill:rgb(243,145,138);"/>
            <g transform="matrix(2.23944,0,0,1,-586.254,2.84217e-14)">
                <g transform="matrix(40,0,0,40,496.5,328.9)">
                    <path d="M0.09,0.138L0.438,-0.76L0.51,-0.76L0.162,0.138L0.09,0.138Z" style="fill-rule:nonzero;"/>
                </g>
            </g>
        </g>
        <g transform="matrix(0.240668,0,0,0.538961,241.271,232.562)">
            <path d="M632,293.8L632,340.2C632,343.401 626.18,346 619.011,346L485.989,346C478.82,346 473,343.401 473,340.2L473,293.8C473,290.599 478.82,288 485.989,288L619.011,288C626.18,288 632,290.599 632,293.8Z" style="fill:rgb(177,138,243);"/>
            <g transform="matrix(2.23944,0,0,1,-586.254,2.84217e-14)">
                <g transform="matrix(40,0,0,40,484.5,328.9)">
                    <path d="M0.085,-0.265L0.085,-0.345L0.515,-0.594L0.515,-0.511L0.16,-0.31L0.16,-0.302L0.515,-0.101L0.515,-0.016L0.085,-0.265Z" style="fill-rule:nonzero;"/>
                </g>
                <g transform="matrix(40,0,0,40,508.5,328.9)">
                    <path d="M0.062,-0.372L0.062,-0.44L0.538,-0.44L0.538,-0.372L0.062,-0.372ZM0.062,-0.172L0.062,-0.24L0.538,-0.24L0.538,-0.172L0.062,-0.172Z" style="fill-rule:nonzero;"/>
                </g>
            </g>
        </g>
        <g transform="matrix(0.240668,0,0,0.538961,565.187,232.562)">
            <path d="M632,293.8L632,340.2C632,343.401 626.18,346 619.011,346L485.989,346C478.82,346 473,343.401 473,340.2L473,293.8C473,290.599 478.82,288 485.989,288L619.011,288C626.18,288 632,290.599 632,293.8Z" style="fill:rgb(243,145,138);"/>
            <g transform="matrix(2.23944,0,0,1,-586.254,2.84217e-14)">
                <g transform="matrix(40,0,0,40,484.5,328.9)">
                    <path d="M0.09,0.138L0.438,-0.76L0.51,-0.76L0.162,0.138L0.09,0.138Z" style="fill-rule:nonzero;"/>
                </g>
                <g transform="matrix(40,0,0,40,508.5,328.9)">
                    <path d="M0.09,0.138L0.438,-0.76L0.51,-0.76L0.162,0.138L0.09,0.138Z" style="fill-rule:nonzero;"/>
                </g>
            </g>
        </g>
        <g transform="matrix(0.240668,0,0,0.538961,241.271,270.289)">
            <path d="M632,293.8L632,340.2C632,343.401 626.18,346 619.011,346L485.989,346C478.82,346 473,343.401 473,340.2L473,293.8C473,290.599 478.82,288 485.989,288L619.011,288C626.18,288 632,290.599 632,293.8Z" style="fill:rgb(177,138,243);"/>
            <g transform="matrix(2.23944,0,0,1,-586.254,2.84217e-14)">
                <g transform="matrix(40,0,0,40,484.5,328.9)">
                    <path d="M0.085,-0.099L0.44,-0.3L0.44,-0.308L0.085,-0.509L0.085,-0.594L0.515,-0.345L0.515,-0.265L0.085,-0.016L0.085,-0.099Z" style="fill-rule:nonzero;"/>
                </g>
                <g transform="matrix(40,0,0,40,508.5,328.9)">
                    <path d="M0.062,-0.372L0.062,-0.44L0.538,-0.44L0.538,-0.372L0.062,-0.372ZM0.062,-0.172L0.062,-0.24L0.538,-0.24L0.538,-0.172L0.062,-0.172Z" style="fill-rule:nonzero;"/>
                </g>
            </g>
        </g>
        <g transform="matrix(0.240668,0,0,0.538961,565.187,270.289)">
            <path d="M632,293.8L632,340.2C632,343.401 626.18,346 619.011,346L485.989,346C478.82,346 473,343.401 473,340.2L473,293.8C473,290.599 478.82,288 485.989,288L619.011,288C626.18,288 632,290.599 632,293.8Z" style="fill:rgb(243,145,138);"/>
            <g transform="matrix(2.23944,0,0,1,-586.254,2.84217e-14)">
                <g transform="matrix(40,0,0,40,496.5,328.9)">
                    <path d="M0.169,-0.356C0.125,-0.356 0.089,-0.371 0.062,-0.401C0.034,-0.43 0.02,-0.474 0.02,-0.533C0.02,-0.592 0.034,-0.636 0.062,-0.666C0.089,-0.695 0.125,-0.71 0.169,-0.71C0.213,-0.71 0.249,-0.695 0.277,-0.666C0.304,-0.636 0.318,-0.592 0.318,-0.533C0.318,-0.474 0.304,-0.43 0.277,-0.401C0.249,-0.371 0.213,-0.356 0.169,-0.356ZM0.169,-0.41C0.193,-0.41 0.213,-0.418 0.228,-0.435C0.243,-0.452 0.25,-0.476 0.25,-0.508L0.25,-0.558C0.25,-0.59 0.243,-0.614 0.228,-0.631C0.213,-0.648 0.193,-0.656 0.169,-0.656C0.145,-0.656 0.126,-0.648 0.111,-0.631C0.095,-0.614 0.088,-0.59 0.088,-0.558L0.088,-0.508C0.088,-0.476 0.095,-0.452 0.111,-0.435C0.126,-0.418 0.145,-0.41 0.169,-0.41ZM0.51,-0.698L0.582,-0.698L0.422,-0.398L0.35,-0.398L0.51,-0.698ZM0.178,-0.3L0.25,-0.3L0.09,-0L0.018,-0L0.178,-0.3ZM0.431,0.012C0.387,0.012 0.351,-0.003 0.324,-0.033C0.296,-0.062 0.282,-0.106 0.282,-0.165C0.282,-0.224 0.296,-0.268 0.324,-0.298C0.351,-0.327 0.387,-0.342 0.431,-0.342C0.475,-0.342 0.511,-0.327 0.539,-0.298C0.566,-0.268 0.58,-0.224 0.58,-0.165C0.58,-0.106 0.566,-0.062 0.539,-0.033C0.511,-0.003 0.475,0.012 0.431,0.012ZM0.431,-0.042C0.455,-0.042 0.474,-0.05 0.49,-0.067C0.505,-0.084 0.512,-0.108 0.512,-0.14L0.512,-0.19C0.512,-0.222 0.505,-0.246 0.49,-0.263C0.474,-0.28 0.455,-0.288 0.431,-0.288C0.407,-0.288 0.388,-0.28 0.373,-0.263C0.358,-0.246 0.35,-0.222 0.35,-0.19L0.35,-0.14C0.35,-0.108 0.358,-0.084 0.373,-0.067C0.388,-0.05 0.407,-0.042 0.431,-0.042Z" style="fill-rule:nonzero;"/>
                </g>
            </g>
        </g>
        <g transform="matrix(0.240668,0,0,0.538961,565.187,308.016)">
            <path d="M632,293.8L632,340.2C632,343.401 626.18,346 619.011,346L485.989,346C478.82,346 473,343.401 473,340.2L473,293.8C473,290.599 478.82,288 485.989,288L619.011,288C626.18,288 632,290.599 632,293.8Z" style="fill:rgb(243,145,138);"/>
            <g transform="matrix(2.23944,0,0,1,-586.254,2.84217e-14)">
                <g transform="matrix(40,0,0,40,484.5,328.9)">
                    <path d="M0.175,-0.072L0.118,-0.114L0.242,-0.284L0.043,-0.35L0.064,-0.416L0.263,-0.352L0.263,-0.568L0.337,-0.568L0.337,-0.352L0.536,-0.416L0.557,-0.35L0.358,-0.284L0.482,-0.114L0.425,-0.072L0.3,-0.244L0.175,-0.072Z" style="fill-rule:nonzero;"/>
                </g>
                <g transform="matrix(40,0,0,40,508.5,328.9)">
                    <path d="M0.175,-0.072L0.118,-0.114L0.242,-0.284L0.043,-0.35L0.064,-0.416L0.263,-0.352L0.263,-0.568L0.337,-0.568L0.337,-0.352L0.536,-0.416L0.557,-0.35L0.358,-0.284L0.482,-0.114L0.425,-0.072L0.3,-0.244L0.175,-0.072Z" style="fill-rule:nonzero;"/>
                </g>
            </g>
        </g>
        <g transform="matrix(0.538961,0,0,0.538961,195.578,119.38)">
            <path d="M632,293.8L632,340.2C632,343.401 629.401,346 626.2,346L478.8,346C475.599,346 473,343.401 473,340.2L473,293.8C473,290.599 475.599,288 478.8,288L626.2,288C629.401,288 632,290.599 632,293.8Z" style="fill:rgb(155,243,138);"/>
            <g transform="matrix(40,0,0,40,480.5,328.9)">
                <rect x="0.06" y="0.095" width="0.48" height="0.074" style="fill-rule:nonzero;"/>
            </g>
            <g transform="matrix(40,0,0,40,504.5,328.9)">
                <rect x="0.06" y="0.095" width="0.48" height="0.074" style="fill-rule:nonzero;"/>
            </g>
            <g transform="matrix(40,0,0,40,528.5,328.9)">
                <path d="M0.098,-0L0.098,-0.516L0.178,-0.516L0.178,-0.432L0.182,-0.432C0.187,-0.445 0.194,-0.457 0.202,-0.469C0.21,-0.48 0.22,-0.49 0.232,-0.499C0.243,-0.508 0.257,-0.515 0.273,-0.52C0.289,-0.525 0.308,-0.528 0.329,-0.528C0.383,-0.528 0.426,-0.511 0.459,-0.477C0.492,-0.442 0.508,-0.394 0.508,-0.331L0.508,-0L0.428,-0L0.428,-0.317C0.428,-0.364 0.418,-0.4 0.397,-0.423C0.376,-0.446 0.346,-0.457 0.306,-0.457C0.29,-0.457 0.274,-0.455 0.259,-0.451C0.244,-0.447 0.23,-0.441 0.218,-0.433C0.206,-0.425 0.196,-0.415 0.189,-0.402C0.182,-0.389 0.178,-0.375 0.178,-0.358L0.178,-0L0.098,-0Z" style="fill-rule:nonzero;"/>
            </g>
            <g transform="matrix(40,0,0,40,552.5,328.9)">
                <path d="M0.309,0.012C0.272,0.012 0.238,0.006 0.209,-0.007C0.179,-0.02 0.154,-0.038 0.133,-0.062C0.112,-0.085 0.095,-0.114 0.084,-0.147C0.073,-0.18 0.067,-0.216 0.067,-0.257C0.067,-0.298 0.073,-0.336 0.085,-0.369C0.096,-0.402 0.112,-0.431 0.133,-0.455C0.154,-0.478 0.179,-0.496 0.208,-0.509C0.237,-0.522 0.269,-0.528 0.304,-0.528C0.339,-0.528 0.37,-0.522 0.399,-0.509C0.427,-0.496 0.451,-0.479 0.471,-0.457C0.491,-0.434 0.506,-0.408 0.517,-0.377C0.528,-0.346 0.533,-0.313 0.533,-0.276L0.533,-0.238L0.151,-0.238L0.151,-0.214C0.151,-0.191 0.155,-0.17 0.162,-0.151C0.169,-0.132 0.18,-0.115 0.194,-0.101C0.207,-0.087 0.224,-0.076 0.244,-0.069C0.263,-0.061 0.285,-0.057 0.309,-0.057C0.344,-0.057 0.374,-0.065 0.399,-0.081C0.424,-0.097 0.444,-0.119 0.457,-0.147L0.516,-0.107C0.501,-0.072 0.475,-0.044 0.44,-0.022C0.404,0.001 0.36,0.012 0.309,0.012ZM0.304,-0.462C0.282,-0.462 0.262,-0.458 0.243,-0.45C0.224,-0.442 0.208,-0.431 0.195,-0.417C0.181,-0.403 0.17,-0.387 0.163,-0.368C0.155,-0.349 0.151,-0.328 0.151,-0.305L0.151,-0.298L0.447,-0.298L0.447,-0.309C0.447,-0.332 0.444,-0.352 0.437,-0.371C0.43,-0.39 0.42,-0.406 0.408,-0.42C0.395,-0.433 0.38,-0.444 0.363,-0.451C0.345,-0.458 0.325,-0.462 0.304,-0.462Z" style="fill-rule:nonzero;"/>
            </g>
            <g transform="matrix(40,0,0,40,576.5,328.9)">
                <rect x="0.06" y="0.095" width="0.48" height="0.074" style="fill-rule:nonzero;"/>
            </g>
            <g transform="matrix(40,0,0,40,600.5,328.9)">
                <rect x="0.06" y="0.095" width="0.48" height="0.074" style="fill-rule:nonzero;"/>
            </g>
        </g>
        <g transform="matrix(0.538961,0,0,0.538961,519.494,119.38)">
            <path d="M632,293.8L632,340.2C632,343.401 629.401,346 626.2,346L478.8,346C475.599,346 473,343.401 473,340.2L473,293.8C473,290.599 475.599,288 478.8,288L626.2,288C629.401,288 632,290.599 632,293.8Z" style="fill:rgb(243,220,138);"/>
            <g transform="matrix(30,0,0,30,489.5,325.2)">
                <rect x="0.06" y="0.095" width="0.48" height="0.074" style="fill-rule:nonzero;"/>
            </g>
            <g transform="matrix(30,0,0,30,507.5,325.2)">
                <rect x="0.06" y="0.095" width="0.48" height="0.074" style="fill-rule:nonzero;"/>
            </g>
            <g transform="matrix(30,0,0,30,525.5,325.2)">
                <path d="M0.306,0.012C0.252,0.012 0.206,0.003 0.167,-0.016C0.128,-0.034 0.094,-0.058 0.067,-0.089L0.121,-0.136C0.146,-0.11 0.173,-0.09 0.202,-0.076C0.231,-0.062 0.267,-0.055 0.308,-0.055C0.348,-0.055 0.381,-0.062 0.407,-0.077C0.432,-0.091 0.445,-0.113 0.445,-0.144C0.445,-0.157 0.443,-0.169 0.438,-0.178C0.432,-0.187 0.426,-0.194 0.417,-0.199C0.408,-0.204 0.399,-0.209 0.388,-0.212C0.377,-0.215 0.366,-0.217 0.354,-0.219L0.273,-0.231C0.255,-0.234 0.236,-0.237 0.215,-0.242C0.194,-0.247 0.174,-0.254 0.157,-0.265C0.14,-0.275 0.125,-0.289 0.114,-0.306C0.102,-0.323 0.096,-0.346 0.096,-0.374C0.096,-0.4 0.101,-0.423 0.112,-0.442C0.122,-0.46 0.136,-0.476 0.155,-0.49C0.174,-0.503 0.196,-0.512 0.221,-0.519C0.246,-0.525 0.274,-0.528 0.304,-0.528C0.351,-0.528 0.391,-0.521 0.426,-0.506C0.46,-0.491 0.489,-0.471 0.514,-0.445L0.462,-0.396C0.456,-0.403 0.448,-0.411 0.44,-0.419C0.431,-0.426 0.42,-0.433 0.407,-0.44C0.394,-0.446 0.378,-0.451 0.361,-0.455C0.344,-0.459 0.324,-0.461 0.301,-0.461C0.26,-0.461 0.229,-0.454 0.208,-0.44C0.186,-0.426 0.175,-0.406 0.175,-0.379C0.175,-0.366 0.178,-0.355 0.183,-0.346C0.188,-0.337 0.194,-0.329 0.203,-0.324C0.212,-0.319 0.222,-0.315 0.233,-0.312C0.244,-0.309 0.255,-0.306 0.266,-0.304L0.347,-0.292C0.366,-0.289 0.385,-0.286 0.406,-0.281C0.427,-0.276 0.446,-0.269 0.463,-0.259C0.48,-0.248 0.495,-0.234 0.507,-0.217C0.518,-0.2 0.524,-0.177 0.524,-0.149C0.524,-0.098 0.504,-0.058 0.465,-0.03C0.425,-0.002 0.372,0.012 0.306,0.012Z" style="fill-rule:nonzero;"/>
            </g>
            <g transform="matrix(30,0,0,30,543.5,325.2)">
                <path d="M0.422,-0.084L0.418,-0.084C0.413,-0.071 0.406,-0.059 0.398,-0.048C0.39,-0.036 0.38,-0.026 0.369,-0.017C0.357,-0.008 0.343,-0.001 0.327,0.004C0.311,0.009 0.292,0.012 0.271,0.012C0.217,0.012 0.174,-0.005 0.141,-0.04C0.108,-0.074 0.092,-0.122 0.092,-0.185L0.092,-0.516L0.172,-0.516L0.172,-0.199C0.172,-0.152 0.182,-0.117 0.203,-0.094C0.224,-0.071 0.254,-0.059 0.294,-0.059C0.31,-0.059 0.326,-0.061 0.341,-0.065C0.356,-0.069 0.37,-0.075 0.382,-0.083C0.394,-0.091 0.404,-0.101 0.411,-0.114C0.418,-0.126 0.422,-0.141 0.422,-0.158L0.422,-0.516L0.502,-0.516L0.502,-0L0.422,-0L0.422,-0.084Z" style="fill-rule:nonzero;"/>
            </g>
            <g transform="matrix(30,0,0,30,561.5,325.2)">
                <path d="M0.095,-0.74L0.175,-0.74L0.175,-0.432L0.179,-0.432C0.212,-0.496 0.265,-0.528 0.338,-0.528C0.401,-0.528 0.451,-0.504 0.487,-0.457C0.522,-0.41 0.54,-0.343 0.54,-0.258C0.54,-0.173 0.522,-0.106 0.487,-0.059C0.451,-0.012 0.401,0.012 0.338,0.012C0.265,0.012 0.212,-0.02 0.179,-0.084L0.175,-0.084L0.175,-0L0.095,-0L0.095,-0.74ZM0.307,-0.059C0.354,-0.059 0.39,-0.073 0.416,-0.102C0.441,-0.13 0.454,-0.167 0.454,-0.214L0.454,-0.302C0.454,-0.349 0.441,-0.386 0.416,-0.415C0.39,-0.443 0.354,-0.457 0.307,-0.457C0.289,-0.457 0.272,-0.455 0.256,-0.45C0.24,-0.445 0.226,-0.439 0.214,-0.43C0.202,-0.421 0.193,-0.41 0.186,-0.397C0.179,-0.384 0.175,-0.368 0.175,-0.351L0.175,-0.165C0.175,-0.148 0.179,-0.133 0.186,-0.12C0.193,-0.107 0.202,-0.096 0.214,-0.087C0.226,-0.078 0.24,-0.071 0.256,-0.066C0.272,-0.061 0.289,-0.059 0.307,-0.059Z" style="fill-rule:nonzero;"/>
            </g>
            <g transform="matrix(30,0,0,30,579.5,325.2)">
                <rect x="0.06" y="0.095" width="0.48" height="0.074" style="fill-rule:nonzero;"/>
            </g>
            <g transform="matrix(30,0,0,30,597.5,325.2)">
                <rect x="0.06" y="0.095" width="0.48" height="0.074" style="fill-rule:nonzero;"/>
            </g>
        </g>
        <g transform="matrix(0.538961,0,0,0.538961,195.578,157.107)">
            <path d="M632,293.8L632,340.2C632,343.401 629.401,346 626.2,346L478.8,346C475.599,346 473,343.401 473,340.2L473,293.8C473,290.599 475.599,288 478.8,288L626.2,288C629.401,288 632,290.599 632,293.8Z" style="fill:rgb(155,243,138);"/>
            <g transform="matrix(40,0,0,40,480.5,328.9)">
                <rect x="0.06" y="0.095" width="0.48" height="0.074" style="fill-rule:nonzero;"/>
            </g>
            <g transform="matrix(40,0,0,40,504.5,328.9)">
                <rect x="0.06" y="0.095" width="0.48" height="0.074" style="fill-rule:nonzero;"/>
            </g>
            <g transform="matrix(40,0,0,40,528.5,328.9)">
                <path d="M0.08,-0.068L0.26,-0.068L0.26,-0.672L0.08,-0.672L0.08,-0.74L0.34,-0.74L0.34,-0.068L0.52,-0.068L0.52,-0L0.08,-0L0.08,-0.068Z" style="fill-rule:nonzero;"/>
            </g>
            <g transform="matrix(40,0,0,40,552.5,328.9)">
                <path d="M0.325,-0C0.286,-0 0.257,-0.011 0.239,-0.033C0.22,-0.055 0.211,-0.083 0.211,-0.118L0.211,-0.448L0.039,-0.448L0.039,-0.516L0.167,-0.516C0.184,-0.516 0.197,-0.52 0.204,-0.527C0.211,-0.534 0.214,-0.546 0.214,-0.563L0.214,-0.698L0.291,-0.698L0.291,-0.516L0.526,-0.516L0.526,-0.448L0.291,-0.448L0.291,-0.068L0.526,-0.068L0.526,-0L0.325,-0Z" style="fill-rule:nonzero;"/>
            </g>
            <g transform="matrix(40,0,0,40,576.5,328.9)">
                <rect x="0.06" y="0.095" width="0.48" height="0.074" style="fill-rule:nonzero;"/>
            </g>
            <g transform="matrix(40,0,0,40,600.5,328.9)">
                <rect x="0.06" y="0.095" width="0.48" height="0.074" style="fill-rule:nonzero;"/>
            </g>
        </g>
        <g transform="matrix(0.538961,0,0,0.538961,519.494,157.107)">
            <path d="M632,293.8L632,340.2C632,343.401 629.401,346 626.2,346L478.8,346C475.599,346 473,343.401 473,340.2L473,293.8C473,290.599 475.599,288 478.8,288L626.2,288C629.401,288 632,290.599 632,293.8Z" style="fill:rgb(243,220,138);"/>
            <g transform="matrix(30,0,0,30,489.5,325.2)">
                <rect x="0.06" y="0.095" width="0.48" height="0.074" style="fill-rule:nonzero;"/>
            </g>
            <g transform="matrix(30,0,0,30,507.5,325.2)">
                <rect x="0.06" y="0.095" width="0.48" height="0.074" style="fill-rule:nonzero;"/>
            </g>
            <g transform="matrix(30,0,0,30,525.5,325.2)">
                <path d="M0.054,-0L0.054,-0.516L0.128,-0.516L0.128,-0.456L0.132,-0.456C0.14,-0.476 0.151,-0.493 0.166,-0.507C0.181,-0.521 0.202,-0.528 0.231,-0.528C0.261,-0.528 0.283,-0.521 0.298,-0.506C0.313,-0.491 0.322,-0.471 0.325,-0.447L0.328,-0.447C0.337,-0.47 0.351,-0.49 0.368,-0.505C0.385,-0.52 0.409,-0.528 0.44,-0.528C0.482,-0.528 0.51,-0.513 0.525,-0.484C0.539,-0.455 0.546,-0.413 0.546,-0.358L0.546,-0L0.472,-0L0.472,-0.345C0.472,-0.389 0.468,-0.42 0.459,-0.437C0.45,-0.454 0.433,-0.462 0.409,-0.462C0.388,-0.462 0.37,-0.455 0.357,-0.442C0.344,-0.428 0.337,-0.407 0.337,-0.379L0.337,-0L0.263,-0L0.263,-0.345C0.263,-0.389 0.259,-0.42 0.25,-0.437C0.241,-0.454 0.224,-0.462 0.201,-0.462C0.18,-0.462 0.162,-0.455 0.149,-0.442C0.135,-0.428 0.128,-0.407 0.128,-0.379L0.128,-0L0.054,-0Z" style="fill-rule:nonzero;"/>
            </g>
            <g transform="matrix(30,0,0,30,543.5,325.2)">
                <path d="M0.422,-0.084L0.418,-0.084C0.413,-0.071 0.406,-0.059 0.398,-0.048C0.39,-0.036 0.38,-0.026 0.369,-0.017C0.357,-0.008 0.343,-0.001 0.327,0.004C0.311,0.009 0.292,0.012 0.271,0.012C0.217,0.012 0.174,-0.005 0.141,-0.04C0.108,-0.074 0.092,-0.122 0.092,-0.185L0.092,-0.516L0.172,-0.516L0.172,-0.199C0.172,-0.152 0.182,-0.117 0.203,-0.094C0.224,-0.071 0.254,-0.059 0.294,-0.059C0.31,-0.059 0.326,-0.061 0.341,-0.065C0.356,-0.069 0.37,-0.075 0.382,-0.083C0.394,-0.091 0.404,-0.101 0.411,-0.114C0.418,-0.126 0.422,-0.141 0.422,-0.158L0.422,-0.516L0.502,-0.516L0.502,-0L0.422,-0L0.422,-0.084Z" style="fill-rule:nonzero;"/>
            </g>
            <g transform="matrix(30,0,0,30,561.5,325.2)">
                <path d="M0.08,-0.068L0.26,-0.068L0.26,-0.672L0.08,-0.672L0.08,-0.74L0.34,-0.74L0.34,-0.068L0.52,-0.068L0.52,-0L0.08,-0L0.08,-0.068Z" style="fill-rule:nonzero;"/>
            </g>
            <g transform="matrix(30,0,0,30,579.5,325.2)">
                <rect x="0.06" y="0.095" width="0.48" height="0.074" style="fill-rule:nonzero;"/>
            </g>
            <g transform="matrix(30,0,0,30,597.5,325.2)">
                <rect x="0.06" y="0.095" width="0.48" height="0.074" style="fill-rule:nonzero;"/>
            </g>
        </g>
        <g transform="matrix(0.538961,0,0,0.538961,195.578,194.834)">
            <path d="M632,293.8L632,340.2C632,343.401 629.401,346 626.2,346L478.8,346C475.599,346 473,343.401 473,340.2L473,293.8C473,290.599 475.599,288 478.8,288L626.2,288C629.401,288 632,290.599 632,293.8Z" style="fill:rgb(155,243,138);"/>
            <g transform="matrix(40,0,0,40,480.5,328.9)">
                <rect x="0.06" y="0.095" width="0.48" height="0.074" style="fill-rule:nonzero;"/>
            </g>
            <g transform="matrix(40,0,0,40,504.5,328.9)">
                <rect x="0.06" y="0.095" width="0.48" height="0.074" style="fill-rule:nonzero;"/>
            </g>
            <g transform="matrix(40,0,0,40,528.5,328.9)">
                <path d="M0.309,0.012C0.272,0.012 0.238,0.006 0.209,-0.007C0.179,-0.02 0.154,-0.038 0.133,-0.062C0.112,-0.085 0.095,-0.114 0.084,-0.147C0.073,-0.18 0.067,-0.216 0.067,-0.257C0.067,-0.298 0.073,-0.336 0.085,-0.369C0.096,-0.402 0.112,-0.431 0.133,-0.455C0.154,-0.478 0.179,-0.496 0.208,-0.509C0.237,-0.522 0.269,-0.528 0.304,-0.528C0.339,-0.528 0.37,-0.522 0.399,-0.509C0.427,-0.496 0.451,-0.479 0.471,-0.457C0.491,-0.434 0.506,-0.408 0.517,-0.377C0.528,-0.346 0.533,-0.313 0.533,-0.276L0.533,-0.238L0.151,-0.238L0.151,-0.214C0.151,-0.191 0.155,-0.17 0.162,-0.151C0.169,-0.132 0.18,-0.115 0.194,-0.101C0.207,-0.087 0.224,-0.076 0.244,-0.069C0.263,-0.061 0.285,-0.057 0.309,-0.057C0.344,-0.057 0.374,-0.065 0.399,-0.081C0.424,-0.097 0.444,-0.119 0.457,-0.147L0.516,-0.107C0.501,-0.072 0.475,-0.044 0.44,-0.022C0.404,0.001 0.36,0.012 0.309,0.012ZM0.304,-0.462C0.282,-0.462 0.262,-0.458 0.243,-0.45C0.224,-0.442 0.208,-0.431 0.195,-0.417C0.181,-0.403 0.17,-0.387 0.163,-0.368C0.155,-0.349 0.151,-0.328 0.151,-0.305L0.151,-0.298L0.447,-0.298L0.447,-0.309C0.447,-0.332 0.444,-0.352 0.437,-0.371C0.43,-0.39 0.42,-0.406 0.408,-0.42C0.395,-0.433 0.38,-0.444 0.363,-0.451C0.345,-0.458 0.325,-0.462 0.304,-0.462Z" style="fill-rule:nonzero;"/>
            </g>
            <g transform="matrix(40,0,0,40,552.5,328.9)">
                <path d="M0.425,-0.084L0.421,-0.084C0.388,-0.02 0.335,0.012 0.262,0.012C0.199,0.012 0.149,-0.012 0.114,-0.059C0.078,-0.106 0.06,-0.173 0.06,-0.258C0.06,-0.343 0.078,-0.41 0.114,-0.457C0.149,-0.504 0.199,-0.528 0.262,-0.528C0.335,-0.528 0.388,-0.496 0.421,-0.432L0.425,-0.432L0.425,-0.516L0.505,-0.516L0.505,0.2L0.425,0.2L0.425,-0.084ZM0.293,-0.059C0.311,-0.059 0.328,-0.061 0.344,-0.066C0.36,-0.071 0.374,-0.078 0.386,-0.087C0.398,-0.096 0.408,-0.107 0.415,-0.12C0.422,-0.133 0.425,-0.148 0.425,-0.165L0.425,-0.351C0.425,-0.368 0.422,-0.384 0.415,-0.397C0.408,-0.41 0.398,-0.421 0.386,-0.43C0.374,-0.439 0.36,-0.445 0.344,-0.45C0.328,-0.455 0.311,-0.457 0.293,-0.457C0.246,-0.457 0.21,-0.443 0.185,-0.415C0.159,-0.386 0.146,-0.349 0.146,-0.302L0.146,-0.214C0.146,-0.167 0.159,-0.13 0.185,-0.102C0.21,-0.073 0.246,-0.059 0.293,-0.059Z" style="fill-rule:nonzero;"/>
            </g>
            <g transform="matrix(40,0,0,40,576.5,328.9)">
                <rect x="0.06" y="0.095" width="0.48" height="0.074" style="fill-rule:nonzero;"/>
            </g>
            <g transform="matrix(40,0,0,40,600.5,328.9)">
                <rect x="0.06" y="0.095" width="0.48" height="0.074" style="fill-rule:nonzero;"/>
            </g>
        </g>
        <g transform="matrix(0.538961,0,0,0.538961,519.494,194.834)">
            <path d="M632,293.8L632,340.2C632,343.401 629.401,346 626.2,346L478.8,346C475.599,346 473,343.401 473,340.2L473,293.8C473,290.599 475.599,288 478.8,288L626.2,288C629.401,288 632,290.599 632,293.8Z" style="fill:rgb(243,220,138);"/>
            <g transform="matrix(22,0,0,22,479.9,322.24)">
                <rect x="0.06" y="0.095" width="0.48" height="0.074" style="fill-rule:nonzero;"/>
            </g>
            <g transform="matrix(22,0,0,22,493.1,322.24)">
                <rect x="0.06" y="0.095" width="0.48" height="0.074" style="fill-rule:nonzero;"/>
            </g>
            <g transform="matrix(22,0,0,22,506.3,322.24)">
                <path d="M0.325,-0C0.286,-0 0.257,-0.011 0.239,-0.033C0.22,-0.055 0.211,-0.083 0.211,-0.118L0.211,-0.448L0.039,-0.448L0.039,-0.516L0.167,-0.516C0.184,-0.516 0.197,-0.52 0.204,-0.527C0.211,-0.534 0.214,-0.546 0.214,-0.563L0.214,-0.698L0.291,-0.698L0.291,-0.516L0.526,-0.516L0.526,-0.448L0.291,-0.448L0.291,-0.068L0.526,-0.068L0.526,-0L0.325,-0Z" style="fill-rule:nonzero;"/>
            </g>
            <g transform="matrix(22,0,0,22,519.5,322.24)">
                <path d="M0.077,-0.068L0.228,-0.068L0.228,-0.448L0.077,-0.448L0.077,-0.516L0.308,-0.516L0.308,-0.386L0.313,-0.386C0.324,-0.427 0.344,-0.458 0.374,-0.482C0.403,-0.505 0.441,-0.516 0.487,-0.516L0.559,-0.516L0.559,-0.436L0.462,-0.436C0.416,-0.436 0.379,-0.423 0.351,-0.396C0.322,-0.369 0.308,-0.334 0.308,-0.291L0.308,-0.068L0.508,-0.068L0.508,-0L0.077,-0L0.077,-0.068Z" style="fill-rule:nonzero;"/>
            </g>
            <g transform="matrix(22,0,0,22,532.7,322.24)">
                <path d="M0.422,-0.084L0.418,-0.084C0.413,-0.071 0.406,-0.059 0.398,-0.048C0.39,-0.036 0.38,-0.026 0.369,-0.017C0.357,-0.008 0.343,-0.001 0.327,0.004C0.311,0.009 0.292,0.012 0.271,0.012C0.217,0.012 0.174,-0.005 0.141,-0.04C0.108,-0.074 0.092,-0.122 0.092,-0.185L0.092,-0.516L0.172,-0.516L0.172,-0.199C0.172,-0.152 0.182,-0.117 0.203,-0.094C0.224,-0.071 0.254,-0.059 0.294,-0.059C0.31,-0.059 0.326,-0.061 0.341,-0.065C0.356,-0.069 0.37,-0.075 0.382,-0.083C0.394,-0.091 0.404,-0.101 0.411,-0.114C0.418,-0.126 0.422,-0.141 0.422,-0.158L0.422,-0.516L0.502,-0.516L0.502,-0L0.422,-0L0.422,-0.084Z" style="fill-rule:nonzero;"/>
            </g>
            <g transform="matrix(22,0,0,22,545.9,322.24)">
                <path d="M0.309,0.012C0.272,0.012 0.238,0.006 0.209,-0.007C0.179,-0.02 0.154,-0.038 0.133,-0.062C0.112,-0.085 0.095,-0.114 0.084,-0.147C0.073,-0.18 0.067,-0.216 0.067,-0.257C0.067,-0.298 0.073,-0.336 0.085,-0.369C0.096,-0.402 0.112,-0.431 0.133,-0.455C0.154,-0.478 0.179,-0.496 0.208,-0.509C0.237,-0.522 0.269,-0.528 0.304,-0.528C0.339,-0.528 0.37,-0.522 0.399,-0.509C0.427,-0.496 0.451,-0.479 0.471,-0.457C0.491,-0.434 0.506,-0.408 0.517,-0.377C0.528,-0.346 0.533,-0.313 0.533,-0.276L0.533,-0.238L0.151,-0.238L0.151,-0.214C0.151,-0.191 0.155,-0.17 0.162,-0.151C0.169,-0.132 0.18,-0.115 0.194,-0.101C0.207,-0.087 0.224,-0.076 0.244,-0.069C0.263,-0.061 0.285,-0.057 0.309,-0.057C0.344,-0.057 0.374,-0.065 0.399,-0.081C0.424,-0.097 0.444,-0.119 0.457,-0.147L0.516,-0.107C0.501,-0.072 0.475,-0.044 0.44,-0.022C0.404,0.001 0.36,0.012 0.309,0.012ZM0.304,-0.462C0.282,-0.462 0.262,-0.458 0.243,-0.45C0.224,-0.442 0.208,-0.431 0.195,-0.417C0.181,-0.403 0.17,-0.387 0.163,-0.368C0.155,-0.349 0.151,-0.328 0.151,-0.305L0.151,-0.298L0.447,-0.298L0.447,-0.309C0.447,-0.332 0.444,-0.352 0.437,-0.371C0.43,-0.39 0.42,-0.406 0.408,-0.42C0.395,-0.433 0.38,-0.444 0.363,-0.451C0.345,-0.458 0.325,-0.462 0.304,-0.462Z" style="fill-rule:nonzero;"/>
            </g>
            <g transform="matrix(22,0,0,22,559.1,322.24)">
                <path d="M0.425,-0.084L0.421,-0.084C0.388,-0.02 0.335,0.012 0.262,0.012C0.199,0.012 0.149,-0.012 0.114,-0.059C0.078,-0.106 0.06,-0.173 0.06,-0.258C0.06,-0.343 0.078,-0.41 0.114,-0.457C0.149,-0.504 0.199,-0.528 0.262,-0.528C0.335,-0.528 0.388,-0.496 0.421,-0.432L0.425,-0.432L0.425,-0.74L0.505,-0.74L0.505,-0L0.425,-0L0.425,-0.084ZM0.293,-0.059C0.311,-0.059 0.328,-0.061 0.344,-0.066C0.36,-0.071 0.374,-0.078 0.386,-0.087C0.398,-0.096 0.408,-0.107 0.415,-0.12C0.422,-0.133 0.425,-0.148 0.425,-0.165L0.425,-0.351C0.425,-0.368 0.422,-0.384 0.415,-0.397C0.408,-0.41 0.398,-0.421 0.386,-0.43C0.374,-0.439 0.36,-0.445 0.344,-0.45C0.328,-0.455 0.311,-0.457 0.293,-0.457C0.246,-0.457 0.21,-0.443 0.185,-0.415C0.159,-0.386 0.146,-0.349 0.146,-0.302L0.146,-0.214C0.146,-0.167 0.159,-0.13 0.185,-0.102C0.21,-0.073 0.246,-0.059 0.293,-0.059Z" style="fill-rule:nonzero;"/>
            </g>
            <g transform="matrix(22,0,0,22,572.3,322.24)">
                <path d="M0.332,-0.63C0.309,-0.63 0.292,-0.635 0.283,-0.645C0.274,-0.654 0.269,-0.666 0.269,-0.681L0.269,-0.697C0.269,-0.712 0.274,-0.724 0.283,-0.734C0.292,-0.743 0.309,-0.748 0.332,-0.748C0.355,-0.748 0.372,-0.743 0.381,-0.734C0.39,-0.724 0.395,-0.712 0.395,-0.697L0.395,-0.681C0.395,-0.666 0.39,-0.654 0.381,-0.645C0.372,-0.635 0.355,-0.63 0.332,-0.63ZM0.106,-0.068L0.292,-0.068L0.292,-0.448L0.106,-0.448L0.106,-0.516L0.372,-0.516L0.372,-0.068L0.546,-0.068L0.546,-0L0.106,-0L0.106,-0.068Z" style="fill-rule:nonzero;"/>
            </g>
            <g transform="matrix(22,0,0,22,585.5,322.24)">
                <path d="M0.249,-0L0.064,-0.516L0.145,-0.516L0.219,-0.3L0.299,-0.067L0.303,-0.067L0.383,-0.3L0.457,-0.516L0.536,-0.516L0.351,-0L0.249,-0Z" style="fill-rule:nonzero;"/>
            </g>
            <g transform="matrix(22,0,0,22,598.7,322.24)">
                <rect x="0.06" y="0.095" width="0.48" height="0.074" style="fill-rule:nonzero;"/>
            </g>
            <g transform="matrix(22,0,0,22,611.9,322.24)">
                <rect x="0.06" y="0.095" width="0.48" height="0.074" style="fill-rule:nonzero;"/>
            </g>
        </g>
        <g transform="matrix(0.538961,0,0,0.538961,195.578,232.562)">
            <path d="M632,293.8L632,340.2C632,343.401 629.401,346 626.2,346L478.8,346C475.599,346 473,343.401 473,340.2L473,293.8C473,290.599 475.599,288 478.8,288L626.2,288C629.401,288 632,290.599 632,293.8Z" style="fill:rgb(155,243,138);"/>
            <g transform="matrix(40,0,0,40,480.5,328.9)">
                <rect x="0.06" y="0.095" width="0.48" height="0.074" style="fill-rule:nonzero;"/>
            </g>
            <g transform="matrix(40,0,0,40,504.5,328.9)">
                <rect x="0.06" y="0.095" width="0.48" height="0.074" style="fill-rule:nonzero;"/>
            </g>
            <g transform="matrix(40,0,0,40,528.5,328.9)">
                <path d="M0.561,0.059C0.561,0.111 0.539,0.15 0.496,0.175C0.453,0.2 0.388,0.212 0.301,0.212C0.218,0.212 0.158,0.201 0.122,0.179C0.085,0.157 0.067,0.125 0.067,0.084C0.067,0.056 0.074,0.034 0.089,0.019C0.104,0.004 0.124,-0.008 0.151,-0.015L0.151,-0.027C0.136,-0.034 0.125,-0.044 0.117,-0.055C0.109,-0.066 0.105,-0.081 0.105,-0.098C0.105,-0.125 0.114,-0.145 0.132,-0.158C0.149,-0.171 0.171,-0.181 0.198,-0.188L0.198,-0.192C0.166,-0.206 0.141,-0.227 0.124,-0.254C0.106,-0.281 0.097,-0.313 0.097,-0.35C0.097,-0.376 0.102,-0.4 0.111,-0.422C0.12,-0.444 0.134,-0.463 0.152,-0.479C0.169,-0.494 0.19,-0.506 0.215,-0.515C0.24,-0.524 0.267,-0.528 0.297,-0.528C0.336,-0.528 0.37,-0.521 0.399,-0.507L0.399,-0.516C0.399,-0.536 0.404,-0.553 0.413,-0.566C0.422,-0.579 0.438,-0.586 0.461,-0.586L0.556,-0.586L0.556,-0.516L0.44,-0.516L0.44,-0.481C0.459,-0.465 0.473,-0.446 0.483,-0.424C0.493,-0.402 0.498,-0.377 0.498,-0.35C0.498,-0.324 0.493,-0.3 0.484,-0.278C0.474,-0.256 0.46,-0.237 0.443,-0.222C0.426,-0.206 0.405,-0.194 0.38,-0.185C0.355,-0.176 0.327,-0.172 0.297,-0.172C0.288,-0.172 0.28,-0.172 0.272,-0.173C0.264,-0.174 0.256,-0.175 0.248,-0.176C0.24,-0.175 0.232,-0.173 0.223,-0.17C0.214,-0.167 0.206,-0.163 0.199,-0.158C0.192,-0.153 0.186,-0.147 0.181,-0.14C0.176,-0.133 0.174,-0.126 0.174,-0.117C0.174,-0.102 0.182,-0.092 0.197,-0.087C0.212,-0.082 0.232,-0.079 0.257,-0.079L0.371,-0.079C0.438,-0.079 0.486,-0.067 0.516,-0.042C0.546,-0.017 0.561,0.017 0.561,0.059ZM0.486,0.063C0.486,0.042 0.478,0.026 0.461,0.014C0.444,0.001 0.415,-0.005 0.374,-0.005L0.195,-0.005C0.16,0.009 0.143,0.032 0.143,0.065C0.143,0.088 0.152,0.107 0.17,0.124C0.188,0.14 0.218,0.148 0.26,0.148L0.338,0.148C0.385,0.148 0.421,0.141 0.447,0.127C0.473,0.112 0.486,0.091 0.486,0.063ZM0.297,-0.234C0.337,-0.234 0.367,-0.243 0.386,-0.262C0.405,-0.281 0.414,-0.305 0.414,-0.336L0.414,-0.365C0.414,-0.396 0.405,-0.42 0.386,-0.439C0.367,-0.457 0.337,-0.466 0.297,-0.466C0.257,-0.466 0.228,-0.457 0.209,-0.439C0.19,-0.42 0.181,-0.396 0.181,-0.365L0.181,-0.336C0.181,-0.305 0.19,-0.281 0.209,-0.262C0.228,-0.243 0.257,-0.234 0.297,-0.234Z" style="fill-rule:nonzero;"/>
            </g>
            <g transform="matrix(40,0,0,40,552.5,328.9)">
                <path d="M0.325,-0C0.286,-0 0.257,-0.011 0.239,-0.033C0.22,-0.055 0.211,-0.083 0.211,-0.118L0.211,-0.448L0.039,-0.448L0.039,-0.516L0.167,-0.516C0.184,-0.516 0.197,-0.52 0.204,-0.527C0.211,-0.534 0.214,-0.546 0.214,-0.563L0.214,-0.698L0.291,-0.698L0.291,-0.516L0.526,-0.516L0.526,-0.448L0.291,-0.448L0.291,-0.068L0.526,-0.068L0.526,-0L0.325,-0Z" style="fill-rule:nonzero;"/>
            </g>
            <g transform="matrix(40,0,0,40,576.5,328.9)">
                <rect x="0.06" y="0.095" width="0.48" height="0.074" style="fill-rule:nonzero;"/>
            </g>
            <g transform="matrix(40,0,0,40,600.5,328.9)">
                <rect x="0.06" y="0.095" width="0.48" height="0.074" style="fill-rule:nonzero;"/>
            </g>
        </g>
        <g transform="matrix(0.538961,0,0,0.538961,519.494,232.562)">
            <path d="M632,293.8L632,340.2C632,343.401 629.401,346 626.2,346L478.8,346C475.599,346 473,343.401 473,340.2L473,293.8C473,290.599 475.599,288 478.8,288L626.2,288C629.401,288 632,290.599 632,293.8Z" style="fill:rgb(243,220,138);"/>
            <g transform="matrix(22,0,0,22,479.9,322.24)">
                <rect x="0.06" y="0.095" width="0.48" height="0.074" style="fill-rule:nonzero;"/>
            </g>
            <g transform="matrix(22,0,0,22,493.1,322.24)">
                <rect x="0.06" y="0.095" width="0.48" height="0.074" style="fill-rule:nonzero;"/>
            </g>
            <g transform="matrix(22,0,0,22,506.3,322.24)">
                <path d="M0.108,-0.448L0.038,-0.448L0.038,-0.516L0.108,-0.516L0.108,-0.622C0.108,-0.657 0.117,-0.685 0.136,-0.707C0.154,-0.729 0.183,-0.74 0.222,-0.74L0.345,-0.74L0.345,-0.672L0.188,-0.672L0.188,-0.516L0.345,-0.516L0.345,-0.448L0.188,-0.448L0.188,-0L0.108,-0L0.108,-0.448ZM0.422,-0.74L0.502,-0.74L0.502,-0L0.422,-0L0.422,-0.74Z" style="fill-rule:nonzero;"/>
            </g>
            <g transform="matrix(22,0,0,22,519.5,322.24)">
                <path d="M0.3,0.012C0.264,0.012 0.232,0.006 0.203,-0.007C0.173,-0.02 0.149,-0.038 0.129,-0.062C0.108,-0.085 0.093,-0.114 0.082,-0.147C0.071,-0.18 0.066,-0.217 0.066,-0.258C0.066,-0.299 0.071,-0.336 0.082,-0.369C0.093,-0.402 0.108,-0.431 0.129,-0.455C0.149,-0.478 0.173,-0.496 0.203,-0.509C0.232,-0.522 0.264,-0.528 0.3,-0.528C0.336,-0.528 0.369,-0.522 0.398,-0.509C0.427,-0.496 0.451,-0.478 0.472,-0.455C0.492,-0.431 0.507,-0.402 0.518,-0.369C0.529,-0.336 0.534,-0.299 0.534,-0.258C0.534,-0.217 0.529,-0.18 0.518,-0.147C0.507,-0.114 0.492,-0.085 0.472,-0.062C0.451,-0.038 0.427,-0.02 0.398,-0.007C0.369,0.006 0.336,0.012 0.3,0.012ZM0.3,-0.057C0.345,-0.057 0.381,-0.07 0.408,-0.097C0.435,-0.124 0.449,-0.165 0.449,-0.221L0.449,-0.295C0.449,-0.351 0.435,-0.392 0.408,-0.419C0.381,-0.446 0.345,-0.459 0.3,-0.459C0.255,-0.459 0.219,-0.446 0.192,-0.419C0.165,-0.392 0.151,-0.351 0.151,-0.295L0.151,-0.221C0.151,-0.165 0.165,-0.124 0.192,-0.097C0.219,-0.07 0.255,-0.057 0.3,-0.057Z" style="fill-rule:nonzero;"/>
            </g>
            <g transform="matrix(22,0,0,22,532.7,322.24)">
                <path d="M0.3,0.012C0.264,0.012 0.232,0.006 0.203,-0.007C0.173,-0.02 0.149,-0.038 0.129,-0.062C0.108,-0.085 0.093,-0.114 0.082,-0.147C0.071,-0.18 0.066,-0.217 0.066,-0.258C0.066,-0.299 0.071,-0.336 0.082,-0.369C0.093,-0.402 0.108,-0.431 0.129,-0.455C0.149,-0.478 0.173,-0.496 0.203,-0.509C0.232,-0.522 0.264,-0.528 0.3,-0.528C0.336,-0.528 0.369,-0.522 0.398,-0.509C0.427,-0.496 0.451,-0.478 0.472,-0.455C0.492,-0.431 0.507,-0.402 0.518,-0.369C0.529,-0.336 0.534,-0.299 0.534,-0.258C0.534,-0.217 0.529,-0.18 0.518,-0.147C0.507,-0.114 0.492,-0.085 0.472,-0.062C0.451,-0.038 0.427,-0.02 0.398,-0.007C0.369,0.006 0.336,0.012 0.3,0.012ZM0.3,-0.057C0.345,-0.057 0.381,-0.07 0.408,-0.097C0.435,-0.124 0.449,-0.165 0.449,-0.221L0.449,-0.295C0.449,-0.351 0.435,-0.392 0.408,-0.419C0.381,-0.446 0.345,-0.459 0.3,-0.459C0.255,-0.459 0.219,-0.446 0.192,-0.419C0.165,-0.392 0.151,-0.351 0.151,-0.295L0.151,-0.221C0.151,-0.165 0.165,-0.124 0.192,-0.097C0.219,-0.07 0.255,-0.057 0.3,-0.057Z" style="fill-rule:nonzero;"/>
            </g>
            <g transform="matrix(22,0,0,22,545.9,322.24)">
                <path d="M0.077,-0.068L0.228,-0.068L0.228,-0.448L0.077,-0.448L0.077,-0.516L0.308,-0.516L0.308,-0.386L0.313,-0.386C0.324,-0.427 0.344,-0.458 0.374,-0.482C0.403,-0.505 0.441,-0.516 0.487,-0.516L0.559,-0.516L0.559,-0.436L0.462,-0.436C0.416,-0.436 0.379,-0.423 0.351,-0.396C0.322,-0.369 0.308,-0.334 0.308,-0.291L0.308,-0.068L0.508,-0.068L0.508,-0L0.077,-0L0.077,-0.068Z" style="fill-rule:nonzero;"/>
            </g>
            <g transform="matrix(22,0,0,22,559.1,322.24)">
                <path d="M0.425,-0.084L0.421,-0.084C0.388,-0.02 0.335,0.012 0.262,0.012C0.199,0.012 0.149,-0.012 0.114,-0.059C0.078,-0.106 0.06,-0.173 0.06,-0.258C0.06,-0.343 0.078,-0.41 0.114,-0.457C0.149,-0.504 0.199,-0.528 0.262,-0.528C0.335,-0.528 0.388,-0.496 0.421,-0.432L0.425,-0.432L0.425,-0.74L0.505,-0.74L0.505,-0L0.425,-0L0.425,-0.084ZM0.293,-0.059C0.311,-0.059 0.328,-0.061 0.344,-0.066C0.36,-0.071 0.374,-0.078 0.386,-0.087C0.398,-0.096 0.408,-0.107 0.415,-0.12C0.422,-0.133 0.425,-0.148 0.425,-0.165L0.425,-0.351C0.425,-0.368 0.422,-0.384 0.415,-0.397C0.408,-0.41 0.398,-0.421 0.386,-0.43C0.374,-0.439 0.36,-0.445 0.344,-0.45C0.328,-0.455 0.311,-0.457 0.293,-0.457C0.246,-0.457 0.21,-0.443 0.185,-0.415C0.159,-0.386 0.146,-0.349 0.146,-0.302L0.146,-0.214C0.146,-0.167 0.159,-0.13 0.185,-0.102C0.21,-0.073 0.246,-0.059 0.293,-0.059Z" style="fill-rule:nonzero;"/>
            </g>
            <g transform="matrix(22,0,0,22,572.3,322.24)">
                <path d="M0.332,-0.63C0.309,-0.63 0.292,-0.635 0.283,-0.645C0.274,-0.654 0.269,-0.666 0.269,-0.681L0.269,-0.697C0.269,-0.712 0.274,-0.724 0.283,-0.734C0.292,-0.743 0.309,-0.748 0.332,-0.748C0.355,-0.748 0.372,-0.743 0.381,-0.734C0.39,-0.724 0.395,-0.712 0.395,-0.697L0.395,-0.681C0.395,-0.666 0.39,-0.654 0.381,-0.645C0.372,-0.635 0.355,-0.63 0.332,-0.63ZM0.106,-0.068L0.292,-0.068L0.292,-0.448L0.106,-0.448L0.106,-0.516L0.372,-0.516L0.372,-0.068L0.546,-0.068L0.546,-0L0.106,-0L0.106,-0.068Z" style="fill-rule:nonzero;"/>
            </g>
            <g transform="matrix(22,0,0,22,585.5,322.24)">
                <path d="M0.249,-0L0.064,-0.516L0.145,-0.516L0.219,-0.3L0.299,-0.067L0.303,-0.067L0.383,-0.3L0.457,-0.516L0.536,-0.516L0.351,-0L0.249,-0Z" style="fill-rule:nonzero;"/>
            </g>
            <g transform="matrix(22,0,0,22,598.7,322.24)">
                <rect x="0.06" y="0.095" width="0.48" height="0.074" style="fill-rule:nonzero;"/>
            </g>
            <g transform="matrix(22,0,0,22,611.9,322.24)">
                <rect x="0.06" y="0.095" width="0.48" height="0.074" style="fill-rule:nonzero;"/>
            </g>
        </g>
        <g transform="matrix(0.538961,0,0,0.538961,195.578,270.289)">
            <path d="M632,293.8L632,340.2C632,343.401 629.401,346 626.2,346L478.8,346C475.599,346 473,343.401 473,340.2L473,293.8C473,290.599 475.599,288 478.8,288L626.2,288C629.401,288 632,290.599 632,293.8Z" style="fill:rgb(155,243,138);"/>
            <g transform="matrix(40,0,0,40,480.5,328.9)">
                <rect x="0.06" y="0.095" width="0.48" height="0.074" style="fill-rule:nonzero;"/>
            </g>
            <g transform="matrix(40,0,0,40,504.5,328.9)">
                <rect x="0.06" y="0.095" width="0.48" height="0.074" style="fill-rule:nonzero;"/>
            </g>
            <g transform="matrix(40,0,0,40,528.5,328.9)">
                <path d="M0.08,-0.068L0.26,-0.068L0.26,-0.672L0.08,-0.672L0.08,-0.74L0.34,-0.74L0.34,-0.068L0.52,-0.068L0.52,-0L0.08,-0L0.08,-0.068Z" style="fill-rule:nonzero;"/>
            </g>
            <g transform="matrix(40,0,0,40,552.5,328.9)">
                <path d="M0.309,0.012C0.272,0.012 0.238,0.006 0.209,-0.007C0.179,-0.02 0.154,-0.038 0.133,-0.062C0.112,-0.085 0.095,-0.114 0.084,-0.147C0.073,-0.18 0.067,-0.216 0.067,-0.257C0.067,-0.298 0.073,-0.336 0.085,-0.369C0.096,-0.402 0.112,-0.431 0.133,-0.455C0.154,-0.478 0.179,-0.496 0.208,-0.509C0.237,-0.522 0.269,-0.528 0.304,-0.528C0.339,-0.528 0.37,-0.522 0.399,-0.509C0.427,-0.496 0.451,-0.479 0.471,-0.457C0.491,-0.434 0.506,-0.408 0.517,-0.377C0.528,-0.346 0.533,-0.313 0.533,-0.276L0.533,-0.238L0.151,-0.238L0.151,-0.214C0.151,-0.191 0.155,-0.17 0.162,-0.151C0.169,-0.132 0.18,-0.115 0.194,-0.101C0.207,-0.087 0.224,-0.076 0.244,-0.069C0.263,-0.061 0.285,-0.057 0.309,-0.057C0.344,-0.057 0.374,-0.065 0.399,-0.081C0.424,-0.097 0.444,-0.119 0.457,-0.147L0.516,-0.107C0.501,-0.072 0.475,-0.044 0.44,-0.022C0.404,0.001 0.36,0.012 0.309,0.012ZM0.304,-0.462C0.282,-0.462 0.262,-0.458 0.243,-0.45C0.224,-0.442 0.208,-0.431 0.195,-0.417C0.181,-0.403 0.17,-0.387 0.163,-0.368C0.155,-0.349 0.151,-0.328 0.151,-0.305L0.151,-0.298L0.447,-0.298L0.447,-0.309C0.447,-0.332 0.444,-0.352 0.437,-0.371C0.43,-0.39 0.42,-0.406 0.408,-0.42C0.395,-0.433 0.38,-0.444 0.363,-0.451C0.345,-0.458 0.325,-0.462 0.304,-0.462Z" style="fill-rule:nonzero;"/>
            </g>
            <g transform="matrix(40,0,0,40,576.5,328.9)">
                <rect x="0.06" y="0.095" width="0.48" height="0.074" style="fill-rule:nonzero;"/>
            </g>
            <g transform="matrix(40,0,0,40,600.5,328.9)">
                <rect x="0.06" y="0.095" width="0.48" height="0.074" style="fill-rule:nonzero;"/>
            </g>
        </g>
        <g transform="matrix(0.538961,0,0,0.538961,519.494,270.289)">
            <path d="M632,293.8L632,340.2C632,343.401 629.401,346 626.2,346L478.8,346C475.599,346 473,343.401 473,340.2L473,293.8C473,290.599 475.599,288 478.8,288L626.2,288C629.401,288 632,290.599 632,293.8Z" style="fill:rgb(243,220,138);"/>
            <g transform="matrix(30,0,0,30,489.5,325.2)">
                <rect x="0.06" y="0.095" width="0.48" height="0.074" style="fill-rule:nonzero;"/>
            </g>
            <g transform="matrix(30,0,0,30,507.5,325.2)">
                <rect x="0.06" y="0.095" width="0.48" height="0.074" style="fill-rule:nonzero;"/>
            </g>
            <g transform="matrix(30,0,0,30,525.5,325.2)">
                <path d="M0.054,-0L0.054,-0.516L0.128,-0.516L0.128,-0.456L0.132,-0.456C0.14,-0.476 0.151,-0.493 0.166,-0.507C0.181,-0.521 0.202,-0.528 0.231,-0.528C0.261,-0.528 0.283,-0.521 0.298,-0.506C0.313,-0.491 0.322,-0.471 0.325,-0.447L0.328,-0.447C0.337,-0.47 0.351,-0.49 0.368,-0.505C0.385,-0.52 0.409,-0.528 0.44,-0.528C0.482,-0.528 0.51,-0.513 0.525,-0.484C0.539,-0.455 0.546,-0.413 0.546,-0.358L0.546,-0L0.472,-0L0.472,-0.345C0.472,-0.389 0.468,-0.42 0.459,-0.437C0.45,-0.454 0.433,-0.462 0.409,-0.462C0.388,-0.462 0.37,-0.455 0.357,-0.442C0.344,-0.428 0.337,-0.407 0.337,-0.379L0.337,-0L0.263,-0L0.263,-0.345C0.263,-0.389 0.259,-0.42 0.25,-0.437C0.241,-0.454 0.224,-0.462 0.201,-0.462C0.18,-0.462 0.162,-0.455 0.149,-0.442C0.135,-0.428 0.128,-0.407 0.128,-0.379L0.128,-0L0.054,-0Z" style="fill-rule:nonzero;"/>
            </g>
            <g transform="matrix(30,0,0,30,543.5,325.2)">
                <path d="M0.3,0.012C0.264,0.012 0.232,0.006 0.203,-0.007C0.173,-0.02 0.149,-0.038 0.129,-0.062C0.108,-0.085 0.093,-0.114 0.082,-0.147C0.071,-0.18 0.066,-0.217 0.066,-0.258C0.066,-0.299 0.071,-0.336 0.082,-0.369C0.093,-0.402 0.108,-0.431 0.129,-0.455C0.149,-0.478 0.173,-0.496 0.203,-0.509C0.232,-0.522 0.264,-0.528 0.3,-0.528C0.336,-0.528 0.369,-0.522 0.398,-0.509C0.427,-0.496 0.451,-0.478 0.472,-0.455C0.492,-0.431 0.507,-0.402 0.518,-0.369C0.529,-0.336 0.534,-0.299 0.534,-0.258C0.534,-0.217 0.529,-0.18 0.518,-0.147C0.507,-0.114 0.492,-0.085 0.472,-0.062C0.451,-0.038 0.427,-0.02 0.398,-0.007C0.369,0.006 0.336,0.012 0.3,0.012ZM0.3,-0.057C0.345,-0.057 0.381,-0.07 0.408,-0.097C0.435,-0.124 0.449,-0.165 0.449,-0.221L0.449,-0.295C0.449,-0.351 0.435,-0.392 0.408,-0.419C0.381,-0.446 0.345,-0.459 0.3,-0.459C0.255,-0.459 0.219,-0.446 0.192,-0.419C0.165,-0.392 0.151,-0.351 0.151,-0.295L0.151,-0.221C0.151,-0.165 0.165,-0.124 0.192,-0.097C0.219,-0.07 0.255,-0.057 0.3,-0.057Z" style="fill-rule:nonzero;"/>
            </g>
            <g transform="matrix(30,0,0,30,561.5,325.2)">
                <path d="M0.425,-0.084L0.421,-0.084C0.388,-0.02 0.335,0.012 0.262,0.012C0.199,0.012 0.149,-0.012 0.114,-0.059C0.078,-0.106 0.06,-0.173 0.06,-0.258C0.06,-0.343 0.078,-0.41 0.114,-0.457C0.149,-0.504 0.199,-0.528 0.262,-0.528C0.335,-0.528 0.388,-0.496 0.421,-0.432L0.425,-0.432L0.425,-0.74L0.505,-0.74L0.505,-0L0.425,-0L0.425,-0.084ZM0.293,-0.059C0.311,-0.059 0.328,-0.061 0.344,-0.066C0.36,-0.071 0.374,-0.078 0.386,-0.087C0.398,-0.096 0.408,-0.107 0.415,-0.12C0.422,-0.133 0.425,-0.148 0.425,-0.165L0.425,-0.351C0.425,-0.368 0.422,-0.384 0.415,-0.397C0.408,-0.41 0.398,-0.421 0.386,-0.43C0.374,-0.439 0.36,-0.445 0.344,-0.45C0.328,-0.455 0.311,-0.457 0.293,-0.457C0.246,-0.457 0.21,-0.443 0.185,-0.415C0.159,-0.386 0.146,-0.349 0.146,-0.302L0.146,-0.214C0.146,-0.167 0.159,-0.13 0.185,-0.102C0.21,-0.073 0.246,-0.059 0.293,-0.059Z" style="fill-rule:nonzero;"/>
            </g>
            <g transform="matrix(30,0,0,30,579.5,325.2)">
                <rect x="0.06" y="0.095" width="0.48" height="0.074" style="fill-rule:nonzero;"/>
            </g>
            <g transform="matrix(30,0,0,30,597.5,325.2)">
                <rect x="0.06" y="0.095" width="0.48" height="0.074" style="fill-rule:nonzero;"/>
            </g>
        </g>
        <g transform="matrix(0.538961,0,0,0.538961,519.494,308.016)">
            <path d="M632,293.8L632,340.2C632,343.401 629.401,346 626.2,346L478.8,346C475.599,346 473,343.401 473,340.2L473,293.8C473,290.599 475.599,288 478.8,288L626.2,288C629.401,288 632,290.599 632,293.8Z" style="fill:rgb(243,220,138);"/>
            <g transform="matrix(30,0,0,30,489.5,325.2)">
                <rect x="0.06" y="0.095" width="0.48" height="0.074" style="fill-rule:nonzero;"/>
            </g>
            <g transform="matrix(30,0,0,30,507.5,325.2)">
                <rect x="0.06" y="0.095" width="0.48" height="0.074" style="fill-rule:nonzero;"/>
            </g>
            <g transform="matrix(30,0,0,30,525.5,325.2)">
                <path d="M0.095,-0.516L0.175,-0.516L0.175,-0.432L0.179,-0.432C0.212,-0.496 0.265,-0.528 0.338,-0.528C0.401,-0.528 0.451,-0.504 0.487,-0.457C0.522,-0.41 0.54,-0.343 0.54,-0.258C0.54,-0.173 0.522,-0.106 0.487,-0.059C0.451,-0.012 0.401,0.012 0.338,0.012C0.265,0.012 0.212,-0.02 0.179,-0.084L0.175,-0.084L0.175,0.2L0.095,0.2L0.095,-0.516ZM0.307,-0.059C0.354,-0.059 0.39,-0.073 0.416,-0.102C0.441,-0.13 0.454,-0.167 0.454,-0.214L0.454,-0.302C0.454,-0.349 0.441,-0.386 0.416,-0.415C0.39,-0.443 0.354,-0.457 0.307,-0.457C0.289,-0.457 0.272,-0.455 0.256,-0.45C0.24,-0.445 0.226,-0.439 0.214,-0.43C0.202,-0.421 0.193,-0.41 0.186,-0.397C0.179,-0.384 0.175,-0.368 0.175,-0.351L0.175,-0.165C0.175,-0.148 0.179,-0.133 0.186,-0.12C0.193,-0.107 0.202,-0.096 0.214,-0.087C0.226,-0.078 0.24,-0.071 0.256,-0.066C0.272,-0.061 0.289,-0.059 0.307,-0.059Z" style="fill-rule:nonzero;"/>
            </g>
            <g transform="matrix(30,0,0,30,543.5,325.2)">
                <path d="M0.3,0.012C0.264,0.012 0.232,0.006 0.203,-0.007C0.173,-0.02 0.149,-0.038 0.129,-0.062C0.108,-0.085 0.093,-0.114 0.082,-0.147C0.071,-0.18 0.066,-0.217 0.066,-0.258C0.066,-0.299 0.071,-0.336 0.082,-0.369C0.093,-0.402 0.108,-0.431 0.129,-0.455C0.149,-0.478 0.173,-0.496 0.203,-0.509C0.232,-0.522 0.264,-0.528 0.3,-0.528C0.336,-0.528 0.369,-0.522 0.398,-0.509C0.427,-0.496 0.451,-0.478 0.472,-0.455C0.492,-0.431 0.507,-0.402 0.518,-0.369C0.529,-0.336 0.534,-0.299 0.534,-0.258C0.534,-0.217 0.529,-0.18 0.518,-0.147C0.507,-0.114 0.492,-0.085 0.472,-0.062C0.451,-0.038 0.427,-0.02 0.398,-0.007C0.369,0.006 0.336,0.012 0.3,0.012ZM0.3,-0.057C0.345,-0.057 0.381,-0.07 0.408,-0.097C0.435,-0.124 0.449,-0.165 0.449,-0.221L0.449,-0.295C0.449,-0.351 0.435,-0.392 0.408,-0.419C0.381,-0.446 0.345,-0.459 0.3,-0.459C0.255,-0.459 0.219,-0.446 0.192,-0.419C0.165,-0.392 0.151,-0.351 0.151,-0.295L0.151,-0.221C0.151,-0.165 0.165,-0.124 0.192,-0.097C0.219,-0.07 0.255,-0.057 0.3,-0.057Z" style="fill-rule:nonzero;"/>
            </g>
            <g transform="matrix(30,0,0,30,561.5,325.2)">
                <path d="M0.03,-0.516L0.101,-0.516L0.16,-0.07L0.169,-0.07L0.257,-0.516L0.345,-0.516L0.433,-0.07L0.442,-0.07L0.501,-0.516L0.57,-0.516L0.491,-0L0.387,-0L0.305,-0.432L0.297,-0.432L0.213,-0L0.109,-0L0.03,-0.516Z" style="fill-rule:nonzero;"/>
            </g>
            <g transform="matrix(30,0,0,30,579.5,325.2)">
                <rect x="0.06" y="0.095" width="0.48" height="0.074" style="fill-rule:nonzero;"/>
            </g>
            <g transform="matrix(30,0,0,30,597.5,325.2)">
                <rect x="0.06" y="0.095" width="0.48" height="0.074" style="fill-rule:nonzero;"/>
            </g>
        </g>
        <g id="primary" transform="matrix(1.73643,0,0,1.73643,411.52,236.873)">
            <path d="M11.778,7.632L3.018,18.002L5.158,10.002L1.068,10.002C1.045,10.004 1.023,10.005 1,10.005C0.451,10.005 -0,9.553 -0,9.005C-0,8.881 0.023,8.758 0.068,8.642L3.298,0.642C3.467,0.244 3.865,-0.011 4.298,0.002L8.638,0.002C8.661,0.001 8.683,-0 8.706,-0C9.254,-0 9.706,0.451 9.706,1C9.706,1.124 9.683,1.247 9.638,1.362L7.718,6.002L11.018,6.002C11.56,6.011 12.001,6.46 12.001,7.002C12.001,7.232 11.922,7.454 11.778,7.632Z" style="fill:rgb(248,213,131);fill-rule:nonzero;"/>
        </g>
        <g id="primary1" serif:id="primary" transform="matrix(1.73643,0,0,1.73643,735.436,236.873)">
            <path d="M11.778,7.632L3.018,18.002L5.158,10.002L1.068,10.002C1.045,10.004 1.023,10.005 1,10.005C0.451,10.005 -0,9.553 -0,9.005C-0,8.881 0.023,8.758 0.068,8.642L3.298,0.642C3.467,0.244 3.865,-0.011 4.298,0.002L8.638,0.002C8.661,0.001 8.683,-0 8.706,-0C9.254,-0 9.706,0.451 9.706,1C9.706,1.124 9.683,1.247 9.638,1.362L7.718,6.002L11.018,6.002C11.56,6.011 12.001,6.46 12.001,7.002C12.001,7.232 11.922,7.454 11.778,7.632Z" style="fill:rgb(248,213,131);fill-rule:nonzero;"/>
        </g>
        <g id="primary2" serif:id="primary" transform="matrix(1.73643,0,0,1.73643,411.52,274.601)">
            <path d="M11.778,7.632L3.018,18.002L5.158,10.002L1.068,10.002C1.045,10.004 1.023,10.005 1,10.005C0.451,10.005 -0,9.553 -0,9.005C-0,8.881 0.023,8.758 0.068,8.642L3.298,0.642C3.467,0.244 3.865,-0.011 4.298,0.002L8.638,0.002C8.661,0.001 8.683,-0 8.706,-0C9.254,-0 9.706,0.451 9.706,1C9.706,1.124 9.683,1.247 9.638,1.362L7.718,6.002L11.018,6.002C11.56,6.011 12.001,6.46 12.001,7.002C12.001,7.232 11.922,7.454 11.778,7.632Z" style="fill:rgb(248,213,131);fill-rule:nonzero;"/>
        </g>
        <g id="primary3" serif:id="primary" transform="matrix(1.73643,0,0,1.73643,735.436,274.601)">
            <path d="M11.778,7.632L3.018,18.002L5.158,10.002L1.068,10.002C1.045,10.004 1.023,10.005 1,10.005C0.451,10.005 -0,9.553 -0,9.005C-0,8.881 0.023,8.758 0.068,8.642L3.298,0.642C3.467,0.244 3.865,-0.011 4.298,0.002L8.638,0.002C8.661,0.001 8.683,-0 8.706,-0C9.254,-0 9.706,0.451 9.706,1C9.706,1.124 9.683,1.247 9.638,1.362L7.718,6.002L11.018,6.002C11.56,6.011 12.001,6.46 12.001,7.002C12.001,7.232 11.922,7.454 11.778,7.632Z" style="fill:rgb(248,213,131);fill-rule:nonzero;"/>
        </g>
        <g id="primary4" serif:id="primary" transform="matrix(1.73643,0,0,1.73643,411.52,312.328)">
            <path d="M11.778,7.632L3.018,18.002L5.158,10.002L1.068,10.002C1.045,10.004 1.023,10.005 1,10.005C0.451,10.005 -0,9.553 -0,9.005C-0,8.881 0.023,8.758 0.068,8.642L3.298,0.642C3.467,0.244 3.865,-0.011 4.298,0.002L8.638,0.002C8.661,0.001 8.683,-0 8.706,-0C9.254,-0 9.706,0.451 9.706,1C9.706,1.124 9.683,1.247 9.638,1.362L7.718,6.002L11.018,6.002C11.56,6.011 12.001,6.46 12.001,7.002C12.001,7.232 11.922,7.454 11.778,7.632Z" style="fill:rgb(248,213,131);fill-rule:nonzero;"/>
        </g>
        <g id="primary5" serif:id="primary" transform="matrix(1.73643,0,0,1.73643,735.436,312.328)">
            <path d="M11.778,7.632L3.018,18.002L5.158,10.002L1.068,10.002C1.045,10.004 1.023,10.005 1,10.005C0.451,10.005 -0,9.553 -0,9.005C-0,8.881 0.023,8.758 0.068,8.642L3.298,0.642C3.467,0.244 3.865,-0.011 4.298,0.002L8.638,0.002C8.661,0.001 8.683,-0 8.706,-0C9.254,-0 9.706,0.451 9.706,1C9.706,1.124 9.683,1.247 9.638,1.362L7.718,6.002L11.018,6.002C11.56,6.011 12.001,6.46 12.001,7.002C12.001,7.232 11.922,7.454 11.778,7.632Z" style="fill:rgb(248,213,131);fill-rule:nonzero;"/>
        </g>
        <g id="primary6" serif:id="primary" transform="matrix(1.73643,0,0,1.73643,411.52,350.055)">
            <path d="M11.778,7.632L3.018,18.002L5.158,10.002L1.068,10.002C1.045,10.004 1.023,10.005 1,10.005C0.451,10.005 -0,9.553 -0,9.005C-0,8.881 0.023,8.758 0.068,8.642L3.298,0.642C3.467,0.244 3.865,-0.011 4.298,0.002L8.638,0.002C8.661,0.001 8.683,-0 8.706,-0C9.254,-0 9.706,0.451 9.706,1C9.706,1.124 9.683,1.247 9.638,1.362L7.718,6.002L11.018,6.002C11.56,6.011 12.001,6.46 12.001,7.002C12.001,7.232 11.922,7.454 11.778,7.632Z" style="fill:rgb(248,213,131);fill-rule:nonzero;"/>
        </g>
        <g id="primary7" serif:id="primary" transform="matrix(1.73643,0,0,1.73643,735.436,350.055)">
            <path d="M11.778,7.632L3.018,18.002L5.158,10.002L1.068,10.002C1.045,10.004 1.023,10.005 1,10.005C0.451,10.005 -0,9.553 -0,9.005C-0,8.881 0.023,8.758 0.068,8.642L3.298,0.642C3.467,0.244 3.865,-0.011 4.298,0.002L8.638,0.002C8.661,0.001 8.683,-0 8.706,-0C9.254,-0 9.706,0.451 9.706,1C9.706,1.124 9.683,1.247 9.638,1.362L7.718,6.002L11.018,6.002C11.56,6.011 12.001,6.46 12.001,7.002C12.001,7.232 11.922,7.454 11.778,7.632Z" style="fill:rgb(248,213,131);fill-rule:nonzero;"/>
        </g>
        <g id="primary8" serif:id="primary" transform="matrix(1.73643,0,0,1.73643,411.52,387.782)">
            <path d="M11.778,7.632L3.018,18.002L5.158,10.002L1.068,10.002C1.045,10.004 1.023,10.005 1,10.005C0.451,10.005 -0,9.553 -0,9.005C-0,8.881 0.023,8.758 0.068,8.642L3.298,0.642C3.467,0.244 3.865,-0.011 4.298,0.002L8.638,0.002C8.661,0.001 8.683,-0 8.706,-0C9.254,-0 9.706,0.451 9.706,1C9.706,1.124 9.683,1.247 9.638,1.362L7.718,6.002L11.018,6.002C11.56,6.011 12.001,6.46 12.001,7.002C12.001,7.232 11.922,7.454 11.778,7.632Z" style="fill:rgb(248,213,131);fill-rule:nonzero;"/>
        </g>
        <g id="primary9" serif:id="primary" transform="matrix(1.73643,0,0,1.73643,735.436,387.782)">
            <path d="M11.778,7.632L3.018,18.002L5.158,10.002L1.068,10.002C1.045,10.004 1.023,10.005 1,10.005C0.451,10.005 -0,9.553 -0,9.005C-0,8.881 0.023,8.758 0.068,8.642L3.298,0.642C3.467,0.244 3.865,-0.011 4.298,0.002L8.638,0.002C8.661,0.001 8.683,-0 8.706,-0C9.254,-0 9.706,0.451 9.706,1C9.706,1.124 9.683,1.247 9.638,1.362L7.718,6.002L11.018,6.002C11.56,6.011 12.001,6.46 12.001,7.002C12.001,7.232 11.922,7.454 11.778,7.632Z" style="fill:rgb(248,213,131);fill-rule:nonzero;"/>
        </g>
        <g id="primary10" serif:id="primary" transform="matrix(1.73643,0,0,1.73643,411.52,425.51)">
            <path d="M11.778,7.632L3.018,18.002L5.158,10.002L1.068,10.002C1.045,10.004 1.023,10.005 1,10.005C0.451,10.005 -0,9.553 -0,9.005C-0,8.881 0.023,8.758 0.068,8.642L3.298,0.642C3.467,0.244 3.865,-0.011 4.298,0.002L8.638,0.002C8.661,0.001 8.683,-0 8.706,-0C9.254,-0 9.706,0.451 9.706,1C9.706,1.124 9.683,1.247 9.638,1.362L7.718,6.002L11.018,6.002C11.56,6.011 12.001,6.46 12.001,7.002C12.001,7.232 11.922,7.454 11.778,7.632Z" style="fill:rgb(248,213,131);fill-rule:nonzero;"/>
        </g>
        <g id="primary11" serif:id="primary" transform="matrix(1.73643,0,0,1.73643,735.436,425.51)">
            <path d="M11.778,7.632L3.018,18.002L5.158,10.002L1.068,10.002C1.045,10.004 1.023,10.005 1,10.005C0.451,10.005 -0,9.553 -0,9.005C-0,8.881 0.023,8.758 0.068,8.642L3.298,0.642C3.467,0.244 3.865,-0.011 4.298,0.002L8.638,0.002C8.661,0.001 8.683,-0 8.706,-0C9.254,-0 9.706,0.451 9.706,1C9.706,1.124 9.683,1.247 9.638,1.362L7.718,6.002L11.018,6.002C11.56,6.011 12.001,6.46 12.001,7.002C12.001,7.232 11.922,7.454 11.778,7.632Z" style="fill:rgb(248,213,131);fill-rule:nonzero;"/>
        </g>
        <g id="primary12" serif:id="primary" transform="matrix(1.73643,0,0,1.73643,735.436,463.237)">
            <path d="M11.778,7.632L3.018,18.002L5.158,10.002L1.068,10.002C1.045,10.004 1.023,10.005 1,10.005C0.451,10.005 -0,9.553 -0,9.005C-0,8.881 0.023,8.758 0.068,8.642L3.298,0.642C3.467,0.244 3.865,-0.011 4.298,0.002L8.638,0.002C8.661,0.001 8.683,-0 8.706,-0C9.254,-0 9.706,0.451 9.706,1C9.706,1.124 9.683,1.247 9.638,1.362L7.718,6.002L11.018,6.002C11.56,6.011 12.001,6.46 12.001,7.002C12.001,7.232 11.922,7.454 11.778,7.632Z" style="fill:rgb(248,213,131);fill-rule:nonzero;"/>
        </g>
    </g>
</svg>
