<?xml version="1.0" encoding="UTF-8" standalone="no"?>
<!DOCTYPE svg PUBLIC "-//W3C//DTD SVG 1.1//EN" "http://www.w3.org/Graphics/SVG/1.1/DTD/svg11.dtd">
<svg width="350px" height="90px" version="1.1" xmlns="http://www.w3.org/2000/svg" xmlns:xlink="http://www.w3.org/1999/xlink" xml:space="preserve" xmlns:serif="http://www.serif.com/" style="fill-rule:evenodd;clip-rule:evenodd;stroke-linecap:round;stroke-linejoin:round;stroke-miterlimit:1.5;">
    <g transform="matrix(1,0,0,1,-517.639,-189.957)">
        <g transform="matrix(0.476597,0,0,0.476597,270.934,93.3323)">
            <g transform="matrix(2.09821,-0,-0,2.09821,517.639,202.738)">
                <path d="M50.303,56.591C50.303,58.17 51.585,59.451 53.163,59.451C54.741,59.451 56.022,58.17 56.022,56.591C56.022,55.013 54.741,53.732 53.163,53.732C51.585,53.732 50.303,55.013 50.303,56.591Z" style="fill:rgb(128,128,128);"/>
                <path d="M300.695,53.732L296.406,59.451L292.116,53.732L300.695,53.732Z" style="fill:rgb(128,128,128);"/>
                <path d="M53.163,54.876L53.163,32.533L296.406,32.533L296.406,54.876" style="fill:none;stroke:rgb(128,128,128);stroke-width:1.91px;stroke-dasharray:5.72,3.81,0,0,0,0;"/>
            </g>
        </g>
        <g transform="matrix(0.476597,0,0,0.476597,259.209,160.348)">
            <g transform="matrix(64.2181,0,0,64.2181,538,249)">
                <path d="M0.495,-0C0.464,-0 0.441,-0.008 0.428,-0.024C0.415,-0.04 0.406,-0.06 0.403,-0.084L0.398,-0.084C0.387,-0.054 0.369,-0.031 0.344,-0.014C0.319,0.004 0.285,0.012 0.243,0.012C0.189,0.012 0.146,-0.002 0.114,-0.03C0.082,-0.058 0.066,-0.096 0.066,-0.145C0.066,-0.193 0.084,-0.23 0.119,-0.256C0.154,-0.282 0.21,-0.295 0.288,-0.295L0.398,-0.295L0.398,-0.346C0.398,-0.384 0.387,-0.413 0.366,-0.432C0.345,-0.451 0.314,-0.46 0.275,-0.46C0.24,-0.46 0.212,-0.453 0.19,-0.44C0.168,-0.426 0.15,-0.407 0.137,-0.384L0.083,-0.424C0.09,-0.437 0.099,-0.45 0.11,-0.463C0.121,-0.476 0.135,-0.487 0.152,-0.497C0.169,-0.506 0.188,-0.514 0.209,-0.52C0.23,-0.525 0.254,-0.528 0.28,-0.528C0.341,-0.528 0.389,-0.513 0.425,-0.482C0.46,-0.451 0.478,-0.409 0.478,-0.354L0.478,-0.07L0.55,-0.07L0.55,-0L0.495,-0ZM0.257,-0.055C0.278,-0.055 0.297,-0.057 0.314,-0.063C0.331,-0.068 0.345,-0.074 0.358,-0.083C0.371,-0.091 0.381,-0.101 0.388,-0.113C0.395,-0.124 0.398,-0.137 0.398,-0.15L0.398,-0.235L0.288,-0.235C0.24,-0.235 0.205,-0.228 0.183,-0.215C0.161,-0.202 0.15,-0.182 0.15,-0.157L0.15,-0.136C0.15,-0.109 0.16,-0.089 0.179,-0.076C0.198,-0.062 0.224,-0.055 0.257,-0.055Z" style="fill-rule:nonzero;"/>
            </g>
            <g transform="matrix(64.2181,0,0,64.2181,615.062,249)">
                <path d="M0.062,-0.361L0.062,-0.479L0.538,-0.479L0.538,-0.361L0.062,-0.361ZM0.062,-0.131L0.062,-0.249L0.538,-0.249L0.538,-0.131L0.062,-0.131Z" style="fill:rgb(13,121,242);fill-rule:nonzero;"/>
            </g>
            <g transform="matrix(64.2181,0,0,64.2181,653.593,249)">
                <path d="M0.062,-0.361L0.062,-0.479L0.538,-0.479L0.538,-0.361L0.062,-0.361ZM0.062,-0.131L0.062,-0.249L0.538,-0.249L0.538,-0.131L0.062,-0.131Z" style="fill:rgb(13,121,242);fill-rule:nonzero;"/>
            </g>
            <g transform="matrix(64.2181,0,0,64.2181,730.654,249)">
                <path d="M0.095,-0.74L0.175,-0.74L0.175,-0.432L0.179,-0.432C0.212,-0.496 0.265,-0.528 0.338,-0.528C0.401,-0.528 0.451,-0.504 0.487,-0.457C0.522,-0.41 0.54,-0.343 0.54,-0.258C0.54,-0.173 0.522,-0.106 0.487,-0.059C0.451,-0.012 0.401,0.012 0.338,0.012C0.265,0.012 0.212,-0.02 0.179,-0.084L0.175,-0.084L0.175,-0L0.095,-0L0.095,-0.74ZM0.307,-0.059C0.354,-0.059 0.39,-0.073 0.416,-0.102C0.441,-0.13 0.454,-0.167 0.454,-0.214L0.454,-0.302C0.454,-0.349 0.441,-0.386 0.416,-0.415C0.39,-0.443 0.354,-0.457 0.307,-0.457C0.289,-0.457 0.272,-0.455 0.256,-0.45C0.24,-0.445 0.226,-0.439 0.214,-0.43C0.202,-0.421 0.193,-0.41 0.186,-0.397C0.179,-0.384 0.175,-0.368 0.175,-0.351L0.175,-0.165C0.175,-0.148 0.179,-0.133 0.186,-0.12C0.193,-0.107 0.202,-0.096 0.214,-0.087C0.226,-0.078 0.24,-0.071 0.256,-0.066C0.272,-0.061 0.289,-0.059 0.307,-0.059Z" style="fill-rule:nonzero;"/>
            </g>
        </g>
        <g transform="matrix(0.476597,0,0,0.476597,502.544,153.86)">
            <g transform="matrix(64.2181,0,0,64.2181,538,249)">
                <rect x="0.06" y="0.071" width="0.48" height="0.121" style="fill:rgb(13,121,242);fill-rule:nonzero;"/>
            </g>
            <g transform="matrix(64.2181,0,0,64.2181,576.531,249)">
                <rect x="0.06" y="0.071" width="0.48" height="0.121" style="fill:rgb(13,121,242);fill-rule:nonzero;"/>
            </g>
            <g transform="matrix(64.2181,0,0,64.2181,615.062,249)">
                <path d="M0.314,0.012C0.227,0.012 0.162,-0.012 0.117,-0.06C0.072,-0.108 0.05,-0.173 0.05,-0.256C0.05,-0.298 0.056,-0.336 0.068,-0.37C0.079,-0.403 0.096,-0.432 0.118,-0.456C0.139,-0.479 0.166,-0.497 0.197,-0.51C0.228,-0.522 0.262,-0.528 0.301,-0.528C0.34,-0.528 0.374,-0.522 0.405,-0.51C0.436,-0.497 0.462,-0.48 0.483,-0.457C0.504,-0.434 0.521,-0.407 0.533,-0.375C0.544,-0.342 0.55,-0.306 0.55,-0.266L0.55,-0.222L0.197,-0.222L0.197,-0.213C0.197,-0.18 0.207,-0.153 0.228,-0.133C0.249,-0.112 0.279,-0.102 0.319,-0.102C0.35,-0.102 0.376,-0.108 0.398,-0.12C0.42,-0.131 0.439,-0.147 0.455,-0.166L0.535,-0.079C0.515,-0.054 0.487,-0.033 0.451,-0.015C0.415,0.003 0.369,0.012 0.314,0.012ZM0.302,-0.422C0.27,-0.422 0.245,-0.412 0.226,-0.393C0.207,-0.373 0.197,-0.346 0.197,-0.313L0.197,-0.305L0.405,-0.305L0.405,-0.313C0.405,-0.347 0.396,-0.374 0.378,-0.393C0.359,-0.412 0.334,-0.422 0.302,-0.422Z" style="fill:rgb(13,121,242);fill-rule:nonzero;"/>
            </g>
            <g transform="matrix(64.2181,0,0,64.2181,653.593,249)">
                <path d="M0.393,-0.094L0.386,-0.094C0.373,-0.063 0.354,-0.037 0.331,-0.018C0.307,0.002 0.274,0.012 0.233,0.012C0.204,0.012 0.178,0.007 0.155,-0.004C0.131,-0.015 0.111,-0.031 0.094,-0.053C0.077,-0.075 0.063,-0.103 0.054,-0.137C0.044,-0.171 0.039,-0.211 0.039,-0.258C0.039,-0.305 0.044,-0.345 0.054,-0.379C0.063,-0.413 0.077,-0.441 0.094,-0.463C0.111,-0.485 0.131,-0.501 0.155,-0.512C0.178,-0.523 0.204,-0.528 0.233,-0.528C0.254,-0.528 0.272,-0.525 0.288,-0.52C0.304,-0.515 0.318,-0.507 0.331,-0.498C0.343,-0.489 0.354,-0.478 0.363,-0.465C0.372,-0.452 0.379,-0.437 0.386,-0.422L0.393,-0.422L0.393,-0.516L0.541,-0.516L0.541,0.2L0.393,0.2L0.393,-0.094ZM0.297,-0.103C0.323,-0.103 0.345,-0.109 0.365,-0.122C0.384,-0.135 0.393,-0.155 0.393,-0.182L0.393,-0.334C0.393,-0.361 0.384,-0.381 0.365,-0.394C0.345,-0.407 0.323,-0.413 0.297,-0.413C0.264,-0.413 0.238,-0.403 0.22,-0.383C0.202,-0.362 0.193,-0.334 0.193,-0.298L0.193,-0.218C0.193,-0.182 0.202,-0.154 0.22,-0.134C0.238,-0.113 0.264,-0.103 0.297,-0.103Z" style="fill:rgb(13,121,242);fill-rule:nonzero;"/>
            </g>
            <g transform="matrix(64.2181,0,0,64.2181,692.124,249)">
                <rect x="0.06" y="0.071" width="0.48" height="0.121" style="fill:rgb(13,121,242);fill-rule:nonzero;"/>
            </g>
            <g transform="matrix(64.2181,0,0,64.2181,730.654,249)">
                <rect x="0.06" y="0.071" width="0.48" height="0.121" style="fill:rgb(13,121,242);fill-rule:nonzero;"/>
            </g>
        </g>
        <g id="primary" transform="matrix(3.97119,0,0,3.97119,668.593,191.625)">
            <path d="M11.778,7.632L3.018,18.002L5.158,10.002L1.068,10.002C1.045,10.004 1.023,10.005 1,10.005C0.451,10.005 -0,9.553 -0,9.005C-0,8.881 0.023,8.758 0.068,8.642L3.298,0.642C3.467,0.244 3.865,-0.011 4.298,0.002L8.638,0.002C8.661,0.001 8.683,-0 8.706,-0C9.254,-0 9.706,0.451 9.706,1C9.706,1.124 9.683,1.247 9.638,1.362L7.718,6.002L11.018,6.002C11.56,6.011 12.001,6.46 12.001,7.002C12.001,7.232 11.922,7.454 11.778,7.632Z" style="fill:rgb(242,175,13);fill-rule:nonzero;stroke:black;stroke-width:0.84px;stroke-miterlimit:4;"/>
        </g>
    </g>
</svg>
