<svg xmlns="http://www.w3.org/2000/svg" xmlns:xlink="http://www.w3.org/1999/xlink" width="747" height="510" fill-rule="evenodd" stroke-linecap="round" stroke-miterlimit="10" xmlns:v="https://vecta.io/nano"><style><![CDATA[.B{stroke-linejoin:round}.C{stroke-miterlimit:1.5}.D{stroke:#000}.E{stroke-width:2.355}.F{fill-rule:nonzero}.G{fill:#efd854}.H{fill:#ebebeb}.I{fill:#86d675}]]></style><g transform="scale(.389062 .472222)"><g fill="none" class="D E"><use xlink:href="#B"/><path d="M1529.315 209.647v252.845" class="B C"/></g><use xlink:href="#C" class="B C D E H"/><use xlink:href="#D" class="F"/><use xlink:href="#E" class="B C D E H"/><use xlink:href="#D" x="1336.544" class="F"/><use xlink:href="#E" x="-668.271" y="0.316" class="B C D E H"/><use xlink:href="#D" x="668.273" y="0.316" class="F"/><use xlink:href="#C" y="338.823" class="B C D E G"/><path d="M107.304 523.536v5.336H70.832c0-1.334.231-2.668.848-3.875.925-2.033 2.39-4.066 4.395-6.035 2.082-2.033 5.012-4.32 8.867-6.925 6.014-4.002 10.101-7.242 12.183-9.593 2.082-2.414 3.161-4.638 3.161-6.734 0-2.224-.925-4.066-2.853-5.591s-4.472-2.287-7.557-2.287c-3.239 0-5.86.826-7.788 2.414-2.005 1.588-2.93 3.875-3.007 6.734l-6.94-.635c.463-4.256 2.236-7.496 5.398-9.784 3.084-2.224 7.248-3.367 12.492-3.367 5.32 0 9.484 1.207 12.569 3.621s4.627 5.464 4.627 9.021c0 1.842-.386 3.621-1.311 5.336-.925 1.779-2.39 3.621-4.472 5.591-2.159 1.906-5.629 4.574-10.487 8.005-4.087 2.795-6.708 4.701-7.865 5.718s-2.082 2.033-2.853 3.049h27.065z" class="F"/><use xlink:href="#E" y="338.823" class="B C D E G"/><use xlink:href="#D" x="1336.544" y="338.823" class="F"/><use xlink:href="#F" class="B C D E H"/><use xlink:href="#G" class="F"/><use xlink:href="#E" x="102.81" class="B C D E H"/><use xlink:href="#G" x="1336.543" class="F"/><use xlink:href="#E" x="-565.46" y="0.316" class="B C D E H"/><use xlink:href="#G" x="668.273" y="0.317" class="F"/><use xlink:href="#F" y="338.823" class="B C D E G"/><use xlink:href="#H" class="F"/><use xlink:href="#E" x="102.81" y="338.823" class="B C D E G"/><use xlink:href="#G" x="1336.543" y="338.824" class="F"/><use xlink:href="#E" x="-1130.921" class="B C D E H"/><use xlink:href="#I" class="F"/><use xlink:href="#E" x="205.62" class="B C D E H"/><use xlink:href="#I" x="1336.542" class="F"/><use xlink:href="#E" x="-462.648" y="0.316" class="B C D E H"/><use xlink:href="#I" x="668.274" y="0.316" class="F"/><use xlink:href="#E" x="-1130.921" y="338.823" class="B C D E G"/><use xlink:href="#J" class="F"/><use xlink:href="#E" x="205.62" y="465.882" class="B C D E G"/><use xlink:href="#I" x="1336.542" y="465.882" class="F"/><use xlink:href="#E" x="102.81" y="465.882" class="B C D E G"/><use xlink:href="#I" x="1233.732" y="465.882" class="F"/><use xlink:href="#E" x="-462.648" y="339.139" class="B C D E G"/><use xlink:href="#I" x="668.274" y="339.139" class="F"/><use xlink:href="#E" x="-1028.11" class="B C D E H"/><use xlink:href="#H" x="205.623" y="-338.823" class="F"/><use xlink:href="#E" x="308.44" class="B C D E H"/><use xlink:href="#H" x="1542.173" y="-338.823" class="F"/><use xlink:href="#E" x="-359.837" y="0.316" class="B C D E H"/><use xlink:href="#H" x="873.896" y="-338.507" class="F"/><use xlink:href="#E" x="-1028.11" y="338.823" class="B C D E G"/><path d="M390.6 504.223c-2.853-.889-4.935-2.096-6.246-3.621-1.388-1.588-2.082-3.494-2.082-5.654 0-3.304 1.465-6.099 4.318-8.386 2.93-2.224 6.786-3.367 11.566-3.367s8.713 1.144 11.643 3.494c2.93 2.287 4.395 5.082 4.395 8.386 0 2.096-.694 3.939-2.005 5.527-1.388 1.588-3.393 2.732-6.169 3.621 3.393.889 6.014 2.351 7.788 4.384s2.622 4.447 2.622 7.242c0 3.939-1.619 7.179-5.012 9.847-3.316 2.605-7.711 3.939-13.186 3.939-5.398 0-9.793-1.334-13.186-4.002-3.316-2.605-4.935-5.972-4.935-9.911 0-2.986.848-5.464 2.699-7.433s4.395-3.367 7.788-4.066zm-1.388-9.466c0 2.16.848 3.875 2.545 5.273 1.696 1.334 3.855 2.033 6.554 2.033 2.622 0 4.704-.699 6.4-2.033s2.545-2.986 2.545-4.955c0-2.033-.925-3.812-2.622-5.209-1.696-1.334-3.855-2.033-6.4-2.033-2.622 0-4.704.635-6.477 2.033-1.696 1.334-2.545 2.986-2.545 4.892zm-2.159 20.965c0 1.652.463 3.176 1.388 4.638.925 1.525 2.236 2.668 4.087 3.494 1.773.826 3.701 1.207 5.783 1.207 3.239 0 5.937-.889 8.019-2.605 2.159-1.715 3.161-3.875 3.161-6.544s-1.08-4.892-3.239-6.671c-2.159-1.715-4.858-2.605-8.173-2.605-3.161 0-5.783.889-7.865 2.605-2.159 1.715-3.161 3.875-3.161 6.48z" class="F"/><use xlink:href="#E" x="308.44" y="592.941" class="B C D E G"/><use xlink:href="#H" x="1542.173" y="254.118" class="F"/><use xlink:href="#E" x="308.44" y="719.999" class="B C D E G"/><g class="F"><use xlink:href="#D" x="1623.54" y="719.999"/><use xlink:href="#K"/></g><use xlink:href="#E" x="205.62" y="592.941" class="B C D E G"/><use xlink:href="#J" x="1336.541" y="254.118" class="F"/><use xlink:href="#E" x="-359.837" y="339.139" class="B C D E G"/><use xlink:href="#H" x="873.896" y="0.316" class="F"/><use xlink:href="#E" x="-925.299" class="B C D E H"/><use xlink:href="#L" class="F"/><use xlink:href="#E" x="411.25" class="B C D E H"/><use xlink:href="#L" x="1336.549" class="F"/><use xlink:href="#E" x="-257.026" y="0.316" class="B C D E H"/><use xlink:href="#L" x="668.273" y="0.317" class="F"/><use xlink:href="#E" x="-925.299" y="338.823" class="B C D E G"/><g class="F"><use xlink:href="#D" x="389.801" y="338.823"/><use xlink:href="#K" x="-1233.739" y="-381.176"/></g><use xlink:href="#E" x="411.25" y="719.999" class="B C D E G"/><use xlink:href="#L" x="1336.549" y="720" class="F"/><use xlink:href="#E" x="411.25" y="847.058" class="B C D E G"/><g class="F"><use xlink:href="#D" x="1726.35" y="847.058"/><use xlink:href="#L" x="1357.99" y="847.059"/></g><use xlink:href="#E" x="-257.026" y="339.139" class="B C D E G"/><use xlink:href="#L" x="668.273" y="339.14" class="F"/><g fill="none" class="D E"><use xlink:href="#B" x="-1439.355"/><path d="M89.96 209.647v252.845" class="B C"/><use xlink:href="#B" x="-102.811"/><path d="M1426.504 209.647v252.845" class="B C"/><use xlink:href="#B" x="-1336.544"/><path d="M192.771 209.647v252.845" class="B C"/><use xlink:href="#B" x="-1233.733"/><path d="M295.582 209.647v252.845" class="B C"/><use xlink:href="#B" x="102.811" y="127.058"/><path d="M1632.126 209.647v379.904" class="B C"/><use xlink:href="#B" x="-565.46" y="0.318"/><path d="M963.855 209.963V462.81" class="B C"/><use xlink:href="#B" x="-1130.921"/><path d="M398.393 209.647v252.845" class="B C"/><use xlink:href="#B" x="205.623" y="254.116"/><path d="M1734.937 209.647v506.962" class="B C"/><use xlink:href="#B" x="-462.648" y="0.318"/><path d="M1066.666 209.963V462.81" class="B C"/><use xlink:href="#B" x="-1028.11"/><path d="M501.204 209.647v252.845" class="B C"/><use xlink:href="#B" x="308.434" y="381.177"/><path d="M1837.748 209.648v634.022" class="B C"/><use xlink:href="#B" x="-359.837" y="0.318"/><path d="M1169.477 209.963V462.81" class="B C"/></g><path d="M38.554 294.353H552.61v84.706H38.554z" class="B C D E I"/><g class="F"><use xlink:href="#M"/><use xlink:href="#N"/><use xlink:href="#O"/><use xlink:href="#P"/><path d="M342.271 333.594h-45.108v-4.32h45.108v4.32zm0 12.325h-45.108v-4.32h45.108v4.32z"/><use xlink:href="#Q"/><use xlink:href="#O" x="220.839"/></g><path d="M1375.098 294.353h514.056v84.706h-514.056z" class="B C D E I"/><g class="F"><use xlink:href="#M" x="1286.886"/><use xlink:href="#N" x="1286.887"/><use xlink:href="#O" x="1286.886"/><path d="M1537.63 353.859l-1.157 1.461-1.08.445-.463.508-1.157.826-.463.508-1.388.699-2.622 2.16-1.388.508c-.386.572-.848 1.08-1.465 1.461l-.308.191-.54.826-1.08.826c-.848.191-1.542.318-1.928.318-.154 0-.54-.064-1.157-.127-.077-.191-.077-.445-.077-.762 0-.381.077-.826.308-1.398l.231-.635.231-.254c.154-.699.694-1.207 1.542-1.525l.077-.191.771-.889.308-.889.386-.445.848-.318.154-.254c.077-.254.231-.445.617-.635l.463-.254v-.635l.694-.127c0-.445.154-.953.463-1.461l.771-.508c0-.127.077-.318.154-.572 0-.064 0-.191.077-.318v-.318l.463-.508c.694-.762 1.696-1.144 2.853-1.144.848 0 1.773.191 2.853.572l.231.254 1.465.318.308 2.287z"/><use xlink:href="#R"/><use xlink:href="#P" x="1358.288"/><path d="M1680.897 333.594h-45.108v-4.32h45.108v4.32zm0 12.325h-45.108v-4.32h45.108v4.32z"/><use xlink:href="#O" x="1491.841"/><path d="M1782.218 339.756h-19.894v16.772h-5.32v-16.772h-19.894v-4.32h19.894v-16.772h5.32v16.772h19.894v4.32z"/><use xlink:href="#R" x="248.751"/></g><path d="M706.827 294.67h514.056v84.706H706.827z" class="B C D E I"/><g class="F"><use xlink:href="#O" x="670.933" y="0.317"/><path d="M980.588 339.882l-44.337 14.993v-4.765l36.549-12.198-36.549-12.261v-4.765l44.337 14.993v4.002z"/><use xlink:href="#Q" x="638.702" y="0.316"/><path d="M269.981 39.917c3.804 0 6.803.964 8.924 2.833s3.219 4.52 3.219 7.955v19.948a.62.62 0 0 1-.219.482.99.99 0 0 1-.658.241h-8.558c-.219 0-.439-.06-.585-.241a.52.52 0 0 1-.293-.482v-18.08c0-1.627-.512-2.953-1.536-3.917s-2.414-1.446-4.096-1.446-3.072.482-4.17 1.446-1.609 2.23-1.609 3.857v18.14a.62.62 0 0 1-.219.482.99.99 0 0 1-.658.241h-8.485c-.219 0-.439-.06-.585-.241a.52.52 0 0 1-.293-.482v-18.08c0-1.627-.512-2.893-1.609-3.917-1.097-.964-2.487-1.446-4.17-1.446-1.536 0-2.853.362-3.877 1.145-1.097.783-1.682 1.808-1.902 3.194v19.105a.62.62 0 0 1-.219.482.99.99 0 0 1-.658.241h-8.558c-.219 0-.439-.06-.585-.241a.52.52 0 0 1-.293-.482V41.123c0-.181.073-.362.293-.542.146-.121.366-.181.585-.181h8.558a1.35 1.35 0 0 1 .658.181c.146.181.219.362.219.542v2.35c0 .121.073.181.146.241s.219 0 .293-.121c1.975-2.471 5.12-3.676 9.29-3.676 2.414 0 4.608.422 6.437 1.266s3.219 2.049 4.17 3.616c.146.241.293.241.512 0 1.097-1.627 2.56-2.893 4.389-3.676s3.877-1.205 6.145-1.205zm34.381 0c3.145 0 5.998.422 8.485 1.326s4.462 2.17 5.852 3.737c1.317 1.567 2.048 3.315 2.048 5.243v20.431a.62.62 0 0 1-.219.482.99.99 0 0 1-.658.241h-8.558c-.219 0-.439-.06-.585-.241a.52.52 0 0 1-.293-.482v-1.989c0-.121-.073-.181-.146-.241s-.219 0-.293.121c-2.048 2.23-5.34 3.315-9.875 3.315-3.804 0-6.876-.783-9.217-2.29s-3.511-3.797-3.511-6.75c0-3.074 1.317-5.484 3.95-7.232 2.633-1.687 6.364-2.531 11.265-2.531h7.461c.219 0 .366-.121.366-.301V51.43c0-1.326-.512-2.35-1.463-3.134-.951-.723-2.414-1.085-4.389-1.085-1.536 0-2.78.241-3.731.663-1.024.422-1.682 1.085-1.975 1.868-.146.422-.439.663-.951.603l-8.851-.964c-.585-.06-.878-.241-.805-.542.219-1.687 1.024-3.194 2.487-4.58 1.39-1.386 3.292-2.411 5.706-3.194 2.341-.783 4.974-1.145 7.9-1.145zm-1.463 25.614c2.121 0 3.877-.482 5.34-1.386s2.194-2.109 2.194-3.556v-2.17c0-.181-.146-.301-.366-.301H304.8c-2.194 0-3.877.362-5.12 1.025-1.317.663-1.902 1.627-1.902 2.893 0 1.085.439 1.929 1.39 2.531.951.663 2.194.964 3.731.964zm58.665-16.815c.878 2.049 1.317 4.46 1.317 7.232s-.439 5.304-1.39 7.533c-1.097 2.591-2.926 4.58-5.267 6.087-2.414 1.507-5.413 2.29-8.997 2.29-3.511 0-6.218-1.025-8.193-3.013-.073-.121-.219-.181-.293-.121s-.146.121-.146.241v12.897c0 .181-.073.362-.219.542a1.35 1.35 0 0 1-.658.181h-8.558c-.219 0-.439-.06-.585-.181-.219-.181-.293-.362-.293-.542V41.123c0-.181.073-.362.293-.542.146-.121.366-.181.585-.181h8.558a1.35 1.35 0 0 1 .658.181c.146.181.219.362.219.542v1.989c0 .121.073.181.146.181.073.06.219 0 .293-.06 2.048-2.23 4.901-3.315 8.485-3.315 3.365 0 6.291.783 8.778 2.29 2.414 1.567 4.17 3.737 5.267 6.509zm-11.192 13.5c1.244-1.567 1.829-3.676 1.829-6.388 0-2.531-.512-4.52-1.536-6.027-1.097-1.748-2.926-2.591-5.413-2.591-2.268 0-3.95.844-5.047 2.591-1.024 1.446-1.536 3.496-1.536 6.087 0 2.712.512 4.761 1.609 6.268 1.097 1.627 2.78 2.411 4.974 2.411s3.877-.783 5.12-2.35zm1190.286-22.238c1.756 0 3.145.301 4.17.844.366.181.512.482.439.904l-1.536 6.87c-.073.482-.366.603-1.024.422-.731-.181-1.609-.301-2.56-.301-.366 0-.951.06-1.609.121-1.756.121-3.219.663-4.462 1.567-1.244.964-1.829 2.23-1.829 3.797v16.453a.62.62 0 0 1-.219.482.99.99 0 0 1-.658.241h-8.558c-.219 0-.439-.06-.585-.241a.52.52 0 0 1-.293-.482V41.123c0-.181.073-.362.293-.542.146-.121.366-.181.585-.181h8.558a1.35 1.35 0 0 1 .658.181c.146.181.219.362.219.542v2.29c0 .121.073.181.146.241s.146 0 .219-.06c1.975-2.411 4.682-3.616 8.046-3.616z"/><use xlink:href="#S"/><path d="M1612.272 29.913c0-.181.073-.362.293-.542.146-.121.366-.181.585-.181h8.558a1.35 1.35 0 0 1 .658.181c.146.181.219.362.219.542v40.741a.62.62 0 0 1-.219.482.99.99 0 0 1-.658.241h-8.558c-.219 0-.439-.06-.585-.241a.52.52 0 0 1-.293-.482v-1.989c0-.121-.073-.181-.146-.241a.61.61 0 0 0-.293.121c-2.048 2.23-4.828 3.315-8.412 3.315-3.438 0-6.364-.783-8.778-2.35-2.487-1.567-4.243-3.737-5.34-6.449-.805-2.109-1.244-4.52-1.244-7.292 0-2.833.439-5.364 1.317-7.473 1.097-2.591 2.853-4.641 5.34-6.147 2.414-1.446 5.34-2.23 8.924-2.23 3.511 0 6.218 1.025 8.193 3.013.073.121.219.181.293.121s.146-.121.146-.241V29.913zm-1.536 32.062c.951-1.507 1.463-3.496 1.463-6.087 0-2.712-.512-4.821-1.609-6.328-1.097-1.567-2.78-2.35-4.901-2.35-2.268 0-4.023.783-5.194 2.35-1.244 1.567-1.829 3.676-1.829 6.388 0 2.411.512 4.4 1.536 6.027 1.244 1.748 2.999 2.591 5.413 2.591 2.194 0 3.877-.844 5.12-2.591zm41.548-20.852c0-.181.073-.362.293-.542.146-.121.366-.181.585-.181h8.558a1.35 1.35 0 0 1 .658.181c.146.181.219.362.219.542v29.531a.62.62 0 0 1-.219.482.99.99 0 0 1-.658.241h-8.558c-.219 0-.439-.06-.585-.241a.52.52 0 0 1-.293-.482v-2.049c0-.121-.073-.181-.146-.241a.4.4 0 0 0-.293.181c-1.975 2.17-4.974 3.254-9.071 3.254-3.731 0-6.73-.904-9.144-2.772s-3.584-4.46-3.584-7.774v-20.13c0-.181.073-.362.293-.542.146-.121.366-.181.585-.181h8.485a1.35 1.35 0 0 1 .658.181c.146.181.219.362.219.542v18.02c0 1.627.512 2.893 1.609 3.917 1.024 1.025 2.487 1.507 4.316 1.507 1.682 0 2.999-.422 4.096-1.266 1.097-.783 1.756-1.868 1.975-3.194V41.123zm34.453 30.736c-3.877 0-7.242-.783-10.095-2.411-2.926-1.627-4.901-3.797-6.145-6.629-.805-1.989-1.244-4.4-1.244-7.112s.439-5.002 1.244-6.991c1.17-2.712 3.219-4.882 6.071-6.449s6.291-2.35 10.168-2.35 7.315.783 10.314 2.411c2.926 1.627 4.901 3.616 5.852 6.087.366.964.585 1.687.585 2.17v.121c0 .362-.219.603-.731.663l-8.412 1.025h-.146c-.439 0-.731-.181-.878-.603l-.219-.964c-.366-1.025-1.097-1.929-2.268-2.591s-2.56-1.025-4.17-1.025c-1.536 0-2.853.301-3.95.964s-1.829 1.507-2.268 2.652c-.512 1.205-.805 2.833-.805 4.942s.219 3.737.731 4.942a5.44 5.44 0 0 0 2.341 2.833c1.097.663 2.414 1.025 3.95 1.025s2.853-.362 4.023-1.025a5.18 5.18 0 0 0 2.341-2.712c.073-.06.073-.181.073-.362.073-.06.073-.121.073-.181.073-.482.366-.663 1.024-.603l8.412 1.085c.512.06.731.301.731.663 0 .301-.146.904-.439 1.808-1.024 2.712-2.999 4.821-5.925 6.328-2.999 1.507-6.364 2.29-10.241 2.29z"/><use xlink:href="#S" x="160.051"/><path d="M908.628 40.655a1.35 1.35 0 0 1 .658.181c.146.181.219.362.219.542v5.725a.62.62 0 0 1-.219.482.99.99 0 0 1-.658.241h-7.096c-.219 0-.366.121-.366.301V70.97a.62.62 0 0 1-.219.482.99.99 0 0 1-.658.241h-8.558c-.219 0-.439-.06-.585-.241a.52.52 0 0 1-.293-.482V48.128c0-.181-.146-.301-.366-.301h-4.316c-.219 0-.439-.06-.585-.241a.52.52 0 0 1-.293-.482v-5.725c0-.181.073-.362.293-.542.146-.121.366-.181.585-.181h4.316c.219 0 .366-.121.366-.301v-1.326c0-2.471.439-4.46 1.39-5.846s2.414-2.35 4.535-2.953c2.048-.542 4.901-.783 8.558-.723h2.78a1.35 1.35 0 0 1 .658.181c.146.181.219.362.219.542v4.882a.62.62 0 0 1-.219.482.99.99 0 0 1-.658.241h-2.414c-1.682.06-2.853.301-3.511.844-.731.542-1.024 1.567-1.024 3.013v.663c0 .181.146.301.366.301h7.096zm12.435-3.435c-1.682 0-2.999-.482-4.096-1.386s-1.682-1.989-1.682-3.375.512-2.531 1.609-3.435 2.487-1.326 4.17-1.326 3.072.422 4.17 1.326 1.609 2.049 1.609 3.435-.512 2.471-1.609 3.375-2.487 1.386-4.17 1.386zm-4.389 34.473c-.219 0-.439-.06-.585-.241a.52.52 0 0 1-.293-.482V41.379c0-.181.073-.362.293-.542.146-.121.366-.181.585-.181h8.558a1.35 1.35 0 0 1 .658.181c.146.181.219.362.219.542V70.97a.62.62 0 0 1-.219.482.99.99 0 0 1-.658.241h-8.558zm18.289 0c-.219 0-.439-.06-.585-.241a.52.52 0 0 1-.293-.482V30.229c0-.181.073-.362.293-.542.146-.121.366-.181.585-.181h8.558a1.35 1.35 0 0 1 .658.181c.146.181.219.362.219.542V70.97a.62.62 0 0 1-.219.482.99.99 0 0 1-.658.241h-8.558zm38.549-24.89a.62.62 0 0 1-.219.482.99.99 0 0 1-.658.241h-7.022c-.219 0-.366.121-.366.301v12.777c0 1.326.366 2.29 1.024 2.953s1.682.964 3.145.964h2.414a1.35 1.35 0 0 1 .658.181c.146.181.219.362.219.542v5.725c0 .422-.293.723-.878.783l-4.389.121c-4.023 0-7.096-.542-9.071-1.687-1.975-1.085-2.999-3.134-3.072-6.208V47.827c0-.181-.146-.301-.366-.301h-4.17c-.219 0-.439-.06-.585-.241a.52.52 0 0 1-.293-.482v-5.364c0-.181.073-.362.293-.542.146-.121.366-.181.585-.181h4.17c.219 0 .366-.121.366-.301v-7.172c0-.181.073-.362.293-.542.146-.121.366-.181.585-.181h8.193a1.35 1.35 0 0 1 .658.181c.146.181.219.362.219.542v7.172c0 .181.146.301.366.301h7.022a1.35 1.35 0 0 1 .658.181c.146.181.219.362.219.542v5.364z"/><use xlink:href="#S" x="-569.779" y="0.316"/><path d="M1037.884 40.294c1.756 0 3.145.301 4.17.844.366.181.512.482.439.904l-1.536 6.87c-.073.482-.366.603-1.024.422-.731-.181-1.609-.301-2.56-.301-.366 0-.951.06-1.609.121-1.756.121-3.219.663-4.462 1.567-1.244.964-1.829 2.23-1.829 3.797V70.97a.62.62 0 0 1-.219.482c-.219.181-.439.241-.658.241h-8.558c-.219 0-.439-.06-.585-.241a.52.52 0 0 1-.293-.482V41.439c0-.181.073-.362.293-.542.146-.121.366-.181.585-.181h8.558c.219 0 .439.06.658.181.146.181.219.362.219.542v2.29c0 .121.073.181.146.241s.146 0 .219-.06c1.975-2.411 4.682-3.616 8.046-3.616z"/></g><g fill="none" class="D"><g class="E"><use xlink:href="#B" x="102.977" y="254.118"/><path d="M1632.292 675.53v41.08" class="B C"/><use xlink:href="#B" x="205.624" y="381.177"/><path d="M1734.939 802.589v41.08" class="B C"/><use xlink:href="#B" x="308.435" y="508.236"/><path d="M1837.75 929.648v41.08" class="B C"/></g><g stroke-width="2.398"><use xlink:href="#B" x="0.002" y="127.059"/><path d="M1529.317 550.589v38.963" class="B C"/></g></g></g><defs ><path id="B" d="M1546.664 452.963l-17.349 9.529-17.349-9.529"/><path id="C" d="M141.365 142.33v49.93c0 9.597-9.456 17.388-21.105 17.388H59.659c-11.649 0-21.105-7.791-21.105-17.388v-49.93c0-9.597 9.456-17.388 21.105-17.388h60.602c11.649 0 21.105 7.791 21.105 17.388z"/><path id="D" d="M97.28 190.049h-6.786v-35.577c-1.619 1.271-3.778 2.541-6.477 3.812-2.622 1.334-5.012 2.287-7.094 2.922v-5.4c3.778-1.461 7.094-3.24 9.947-5.336s4.858-4.129 6.014-6.099h4.395v45.678z"/><path id="E" d="M1477.909 142.33v49.93c0 9.597-9.456 17.388-21.105 17.388h-60.602c-11.649 0-21.105-7.791-21.105-17.388v-49.93c0-9.597 9.456-17.388 21.105-17.388h60.602c11.649 0 21.105 7.791 21.105 17.388z"/><path id="F" d="M244.176 142.33v49.93c0 9.597-9.456 17.388-21.105 17.388H162.47c-11.649 0-21.105-7.791-21.105-17.388v-49.93c0-9.597 9.456-17.388 21.105-17.388h60.602c11.649 0 21.105 7.791 21.105 17.388z"/><path id="G" d="M210.115 184.712v5.336h-36.472c0-1.334.231-2.668.848-3.875.925-2.033 2.39-4.066 4.395-6.035 2.082-2.033 5.012-4.32 8.867-6.925 6.014-4.002 10.101-7.242 12.183-9.593 2.082-2.414 3.161-4.638 3.161-6.734 0-2.224-.925-4.066-2.853-5.591s-4.472-2.287-7.557-2.287c-3.239 0-5.86.826-7.788 2.414-2.005 1.588-2.93 3.875-3.007 6.734l-6.94-.635c.463-4.256 2.236-7.496 5.398-9.784 3.084-2.224 7.248-3.367 12.492-3.367 5.32 0 9.484 1.207 12.569 3.621s4.627 5.464 4.627 9.021c0 1.842-.386 3.621-1.311 5.336-.925 1.779-2.39 3.621-4.472 5.591-2.159 1.906-5.629 4.574-10.487 8.005-4.087 2.795-6.708 4.701-7.865 5.718s-2.082 2.033-2.853 3.049h27.065z"/><path id="H" d="M196.235 528.872v-10.864h-23.904v-5.146l25.137-29.478h5.552v29.478h7.48v5.146h-7.48v10.864h-6.786zm0-16.009v-20.52l-17.272 20.52h17.272z"/><path id="I" d="M277.379 178.042l6.786-.762c.771 3.176 2.082 5.464 3.933 6.861 1.928 1.398 4.164 2.096 6.863 2.096 3.161 0 5.86-.889 8.096-2.732 2.159-1.842 3.239-4.066 3.239-6.734 0-2.605-1.002-4.701-3.007-6.353-2.005-1.715-4.627-2.541-7.788-2.541-1.234 0-2.853.254-4.781.635l.771-4.892c.463.064.848.064 1.08.064 2.93 0 5.475-.635 7.788-1.842 2.313-1.271 3.47-3.176 3.47-5.781 0-2.033-.848-3.748-2.467-5.082-1.696-1.334-3.855-1.969-6.554-1.969-2.622 0-4.858.635-6.554 2.033-1.773 1.334-2.93 3.367-3.393 6.099l-6.786-.953c.848-3.748 2.699-6.671 5.629-8.704 2.93-2.096 6.554-3.113 10.949-3.113a22.27 22.27 0 0 1 8.328 1.588c2.545 1.08 4.472 2.541 5.783 4.384 1.388 1.842 2.082 3.812 2.082 5.845 0 1.969-.694 3.748-1.928 5.4-1.311 1.588-3.161 2.859-5.706 3.812 3.239.635 5.783 1.906 7.634 3.875 1.773 1.969 2.699 4.384 2.699 7.369 0 3.939-1.773 7.306-5.32 10.101-3.47 2.732-7.942 4.129-13.263 4.129-4.858 0-8.867-1.207-12.106-3.558-3.161-2.414-5.012-5.464-5.475-9.275z"/><path id="J" d="M312.541 494.503l-6.786.445c-.617-2.16-1.465-3.748-2.545-4.765-1.851-1.588-4.087-2.351-6.786-2.351-2.159 0-4.087.445-5.706 1.461-2.082 1.271-3.778 3.176-5.012 5.591-1.234 2.478-1.851 5.972-1.928 10.546 1.619-2.033 3.624-3.558 6.014-4.574 2.313-1.016 4.781-1.461 7.402-1.461 4.472 0 8.328 1.334 11.489 4.066 3.239 2.732 4.781 6.289 4.781 10.673 0 2.795-.694 5.464-2.236 7.941-1.465 2.414-3.547 4.32-6.169 5.591-2.545 1.334-5.552 1.969-8.867 1.969-5.629 0-10.255-1.715-13.802-5.146-3.547-3.367-5.32-9.021-5.32-16.899 0-8.767 1.928-15.184 5.86-19.186 3.47-3.431 8.096-5.209 13.88-5.209 4.395 0 7.942 1.016 10.718 3.049 2.776 1.969 4.395 4.765 5.012 8.259zm-27.682 19.631c0 1.906.463 3.748 1.465 5.527s2.39 3.113 4.164 4.002c1.773.953 3.624 1.398 5.629 1.398 2.853 0 5.32-.953 7.325-2.859 2.082-1.906 3.084-4.511 3.084-7.751 0-3.176-1.002-5.654-3.007-7.433-2.082-1.779-4.627-2.732-7.711-2.732-3.007 0-5.629.953-7.788 2.732-2.082 1.779-3.161 4.193-3.161 7.115z"/><path id="K" d="M1738.182 887.622c0-5.4.617-9.72 2.005-12.96 1.311-3.304 3.316-5.845 5.937-7.624 2.699-1.779 6.014-2.668 10.024-2.668 2.93 0 5.552.508 7.788 1.461 2.236 1.016 4.087 2.414 5.552 4.256s2.545 4.129 3.393 6.798 1.234 6.226 1.234 10.736c0 5.336-.617 9.656-2.005 12.896-1.311 3.304-3.316 5.845-5.937 7.624s-6.014 2.668-10.024 2.668c-5.32 0-9.484-1.588-12.569-4.701-3.624-3.812-5.398-9.974-5.398-18.487zm6.94 0c0 7.433 1.08 12.452 3.161 14.929 2.159 2.414 4.781 3.685 7.865 3.685s5.706-1.271 7.865-3.748c2.082-2.478 3.161-7.433 3.161-14.866 0-7.496-1.08-12.452-3.161-14.929-2.159-2.478-4.781-3.685-7.942-3.685-3.084 0-5.629 1.08-7.48 3.24-2.313 2.795-3.47 7.878-3.47 15.374z"/><path id="L" d="M483.002 178.105l7.094-.445c.54 2.859 1.696 4.955 3.624 6.416s4.241 2.16 6.94 2.16c3.316 0 6.092-1.016 8.328-3.049s3.393-4.701 3.393-8.068c0-3.176-1.08-5.718-3.239-7.56-2.236-1.779-5.012-2.732-8.559-2.732-2.159 0-4.164.381-5.937 1.207-1.696.826-3.084 1.906-4.087 3.176l-6.4-.635 5.32-23.379h27.451v5.336h-21.976l-3.007 12.198c3.316-1.906 6.786-2.859 10.41-2.859 4.858 0 8.945 1.398 12.26 4.129 3.316 2.795 4.935 6.289 4.935 10.609 0 4.129-1.465 7.687-4.395 10.673-3.47 3.685-8.328 5.527-14.496 5.527-5.012 0-9.099-1.144-12.26-3.431-3.161-2.351-5.012-5.4-5.398-9.275z"/><path id="M" d="M172.71 318.601c0 .826-.617 1.715-1.851 2.541l-.617-.318-1.234.572-1.542-2.478c-.077-.635-.308-1.144-.617-1.588l-.463.191-1.311-.572-.463-.064-1.002.508-1.619-.381-.54.191c-.463.445-.925.635-1.388.635-.231 0-.386 0-.54-.064v.635l-1.928 2.478c-.077.445-.231 1.207-.54 2.351l-.694.381-.308.699-.386.572.386 1.271-.925 1.144-.308.953-.308.508.077.889-1.08 2.287.154 1.08c-.077.191-.386.762-.925 1.779l-.077.254c.54-.191.925-.254 1.311-.318l.463.064c.077-.064.308-.127.694-.191h.231l2.622.127.231-.127 1.08-.127c.54 0 1.08.127 1.696.318.617-.127 1.157-.191 1.619-.191.386 0 .771.064 1.08.191h.694l1.002.191c1.851.064 2.776.635 2.776 1.842 0 .318-.077.762-.231 1.207l-3.47.826-2.005-.254c-.54.127-1.542.254-2.853.445l-.386-.318c-.386.318-.848.445-1.465.445h-.848l-2.159.826-1.08-.445h-.386c-.386.445-.925.699-1.542.826l.077.381-.308.889.463 1.08-1.002 1.652.231 2.541-.386.889.231.889-.771 1.398.231.762c.077.064.077.127.077.318 0 .064-.077.508-.308 1.334-.231.889-.308 1.779-.308 2.605v.572c.077.064.308.318.848.826l-.54 1.08.54 1.271-.386 1.016.848 3.113.231 3.431 1.234 1.271-.694 1.398c.617.889.925 1.588.925 2.16v.191c0 .064 0 .191.077.318v.318c0 1.588-1.157 2.478-3.393 2.541l-.617-1.016-.925-.445-.154-1.144-1.542-3.558v-.699c-.231-.762-.308-1.207-.308-1.334 0-.191 0-.381.077-.445l-.231-1.08.231-1.08-.231-.699v-1.398l-.771-4.002.154-.127-.154-.699.154-.889-.54-.826.463-.699v-3.304l.386-.381v-2.287l.231-.508-.231-1.969.308-.762c.077-.699.386-2.351.925-4.828h-.308l-1.002-.254h-1.157l-2.159.254-1.311-.254-2.236.381-.771-.127c-.231.064-.54.064-.925.064-2.236-.826-3.47-1.525-3.624-1.969l-.386-1.08c.694-1.652 1.619-2.478 2.776-2.478.077 0 .925.127 2.622.445l4.472.127 2.159-.381 1.851.064.694.064.231-.826.154-1.842.386-.762-.231-1.271c0-.445.231-.889.617-1.207l-.077-.699.848-.762.386-1.906.308-.318-.231-.826c.617-.572.925-1.08.925-1.461-.077-.254-.077-.381-.077-.381 0 .318.386-.635 1.157-2.922l.54-.318.077-1.398.154.318v-.191c0-.699.386-1.271 1.08-1.588l.463-.572.925-1.842h.154c.54 0 .848-.254.848-.826v-.254l2.159-.635h.617c.694-.191 1.388-.254 2.082-.254h.54l.386-.127 1.696-.318 2.005.381c.077.064.308.127.617.191.54-.191.848-.254 1.08-.254.694 0 1.388.445 2.005 1.334l1.08.635.771 1.271 1.157.953.308 1.779v.191z"/><path id="N" d="M198.001 315.424c0 .826-.54 1.588-1.619 2.224l-.308.318-.848.572c-.231.572-.925 1.08-2.082 1.461-.617.064-.925.889-.925 2.605l-.694-.127c-.925.635-1.619 1.398-2.082 2.287-.231.572-.54 1.08-.925 1.461v.635l-.848 1.08-.077 1.016-1.002 1.461v.635l-.54 1.588c-.54 1.525-.771 2.986-.771 4.32 0 .445 0 .699.077.889l.231.826-.386.508.308.508-.386.635.308.699-.308 1.588.54 1.525.617 2.096.694 3.113.386.508-.077.318c.54.381.848.826.848 1.271v.191c-.077.064-.077.127-.077.191l.463.889 1.08.953.771 1.652c.386.318.54.572.617.826l.54.953h1.465v.508c0 1.461.925 2.795 2.776 3.939v1.08c0 1.08-.925 1.842-2.776 2.224l-1.465.318-1.851-.508-.386-.826-.463-.318-2.082-2.351-1.388-2.224-1.619-1.842.231-.635-1.002-1.652v-.191l-.617-.254c-.077-.762-.463-1.652-1.157-2.668v-.064c0-.127-.231-1.016-.617-2.605l-.463-.699v-.889c-.077.064-.154.318-.231.635l-.308-3.939v-1.461l-.463-1.588.231-.445c-.154-.381-.231-.635-.231-.826 0 .191.154-.508.463-2.224l-.694-1.715.694-.953.386-3.304h.54l.231-.889.54-2.16.694-1.271 1.002-1.271.386-1.334.694-1.334 1.157-1.398.848-.318c.848-1.715 2.236-3.113 4.164-4.193l.231-.127.231-.572 1.311-.445.848-.699.694-.889 2.082-.762c1.619.064 2.39.508 2.39 1.461z"/><path id="O" d="M235.63 355.638c-1.234 1.207-2.313 1.779-3.316 1.779h-.154l-1.234.508-1.388-.572-1.157-.254-1.851-1.144-1.851-.254-2.313-1.652-2.313-2.478-2.39-1.969-.077-.381c-.848-.826-1.542-1.588-2.005-2.287l-.231-.445-.771-.572c-.077-.381-.231-.635-.386-.826l-.386.318h-.617l-.848 1.08-.231.508-1.157.635-.386 1.334-1.311.826a3.17 3.17 0 0 1-.848 1.525l-.925.318-.077.572-1.002 1.144-1.619 1.08v.191l-2.467 2.096-1.928 2.224-.848 1.08-.771.445-2.93 2.096-1.696-1.398.463-1.461.771-.635.154-.699.848-.572.54-1.207c.077.064.154.064.231.064.154 0 .308.064.54.127l.925-1.652.617-.254.848-1.334.386-1.461 1.08-.318c.154-.381.463-.762.925-1.08v-.127c0-.572.386-1.08 1.157-1.525.54 0 .848-.445.925-1.271l.54-.254.231-.508.386-.127c.386-.508.771-.889 1.311-1.08l.694-1.334.463-.254v-.889l.848-.254.848-.508.308-.889c.077-.191.386-.445.771-.699l-.54-.572-.154-.445-.308-.127-1.465-2.287-1.311-1.842-.925-1.588-1.619-1.461.463-.826-.463-1.715 2.853-.508 2.467.381.308 1.144 1.542 1.334-.154.572.694 1.271 1.157 1.271.154 1.271.617 1.207.617-.508v-.508c.308-.064.54-.127.617-.191l.308-.064c.386-.318.617-.572.771-.889v-.254l.848-.318-.077-.191c.231-.191.694-.508 1.311-.889v-.635l1.002-.064.925-.508.231-.762 1.157-.381v-.191l.308.064.231.508c.617-1.08 1.234-1.715 1.928-1.969l.617-.572 1.311-.191 2.545-.572 1.08 1.461.694.508c0 1.271-.694 2.096-2.082 2.478l-.231.064-4.858 3.304-.694.953-1.157.381-.925.826-1.08 1.016-1.542.508-.308.699h-.463l1.002 1.207.308 1.016.308.381.771.318c.231.318.463.826.771 1.525l.077.318 1.851.953.463 1.588 1.157.762.771.953 1.234.635.231.445.617.318.308.318.848.191 1.002 1.271.848-.127 1.311.572 4.241.381.154 1.461z"/><path id="P" d="M257.452 343.123l-.694.953-.386 3.304h-.54l-.154.889-.617 2.16-.617 1.271-1.08 1.271-.386 1.334-.694 1.334-1.157 1.398-.771.254c-.848 1.715-2.236 3.176-4.241 4.256l-.231.127-.154.572-1.388.445-.771.699-.771.889-2.082.762c-.925-.064-1.542-.127-1.851-.318s-.463-.572-.463-1.271.54-1.398 1.542-2.096l.308-.318.925-.572c.231-.635.848-1.144 2.005-1.525.694-.064 1.002-.889 1.002-2.541l.617.127c.848-.572 1.619-1.334 2.159-2.287.231-.572.463-1.08.848-1.461v-.635l.848-1.08.077-1.016 1.002-1.461v-.635l.617-1.588c.54-1.969.771-3.494.771-4.511 0-.318 0-.572-.077-.699l-.308-.826.386-.508-.308-.508.386-.635-.231-.699.308-1.588-.617-1.525-1.311-5.209-.386-.508.077-.318c-.54-.381-.848-.826-.848-1.271 0-.064 0-.127.077-.191v-.191l-.386-.889-1.157-.953-.771-1.652c-.386-.191-.54-.508-.617-.826l-.463-1.016h-1.542v-.572c0-1.398-.925-2.668-2.776-3.812v-1.08c0-1.08.925-1.842 2.776-2.224l1.542-.318 1.851.508.308.826.463.254 2.082 2.351 1.465 2.224 1.542 1.842-.231.699 1.002 1.652.077.191.54.254c.231 1.08.617 1.969 1.157 2.668v.127l.617 2.541.463.699v.889c0 .191.077 0 .231-.635l.386 3.939v1.461l.386 1.588-.231.381c.154.381.231.699.231.889s-.154.953-.386 2.287l.617 1.652z"/><path id="Q" d="M418.531 354.368l-.386 1.398-1.157.381.308.064c-.925.572-1.928.889-3.007 1.016l-.771-.064c-.54.318-1.157.508-1.696.508-.231 0-.463 0-.54-.064-.077 0-.231 0-.386.064h-.694c-.077-.064-.154-.064-.231-.064l-.771-.191h-1.08l-1.311-.445-.771.381-.617-.254-1.234.191c-.308-.254-.463-.508-.463-.699-.231.064-.463.064-.848.064-.617 0-1.157-.127-1.542-.445h-.308c-.308 0-.617-.064-.925-.191l-.617.191c-.54-.318-1.388-.699-2.699-1.144-.694 0-1.542-.191-2.545-.508h-1.619l-.231-.445-2.005.127c-.694-.318-1.002-.445-1.002-.508v-.127l-.231.381-.925.254-.154-.064c-.54.445-1.234.699-2.082.762h-.154l-.54.572h-.54c-.54 0-1.08.064-1.542.191l-.077.508-1.851.064c-.463.381-.925.572-1.465.572-.308 0-.617-.064-.925-.191l-.848.254-2.082-.064-3.239-1.016-1.08-.826-.463-1.144c-.077-.254-.077-.572-.077-.889v-.254c.077-.127.077-.191.077-.254l.231-1.334-.463-.572c1.773-1.334 2.853-1.969 3.393-2.033l1.08-.635.925.127.463-.254 2.236-.254c-.077 0 0 0 .386.064.771-.127 1.465-.191 2.005-.191.694 0 1.08.064 1.311.127l1.851.572 2.005.254 2.467.826c.463-.191 1.002-.318 1.619-.381l-.077-.191c1.002-.445 1.773-.699 2.313-.762h.231l.463-.826 1.928-.826 1.234-.445c.077-.445.386-.826.771-1.016l.077-.508c.694-.191 1.157-.254 1.311-.254.231 0 .308 0 .386.064l.848-.762v-.508l.617.254.308-1.525 1.696-.191c.231-.508.771-.889 1.542-1.08l.925-.508.308-.762c.077-.191.154-.445.308-.635.077-.191.154-.318.154-.381v-.064c0-.508.154-.889.463-1.08l-.231-1.08.617-.635v-.953l-1.157-1.461c-.386-.699-1.619-1.334-3.701-1.969l-.617.064-1.388-.762h-1.388l-.386-.445-.463.064-1.465-.318-.617.127-.925-.191-1.773.191-.308-.191-.617.318-.694-.318c-.617.064-1.157.064-1.619.064-.54.254-1.08.381-1.619.381l-1.234.572-1.696.254-.231.254-.848.318-.308-.127c-.077.064-.308.318-.694.699h-.308v.445l-1.08.127v.762l-1.851.445c-.231.127-.463.318-.694.508 0 .318-.308.635-.925 1.016l-3.007.254-1.388-1.08-.771-1.588v-.572c0-.826.386-1.461 1.157-1.906.308-.699.925-1.207 1.851-1.398l.154-.381h1.002l.077-.191 4.01-1.525.54.064.386-.191v-.127c1.234-.572 2.545-.826 3.933-.826h.463c.231.064.386.064.463.064 1.157-.572 2.39-.889 3.624-.889h.694l2.313.191 2.082-.127 2.159.381 1.773.318.463.127h-.154l1.002.445c.848.064 1.542.254 2.159.445.077.127.308.318.617.572l.617-.064 1.002.889 2.082.635 3.007 2.541.463 1.271 1.234.381-.386.953.154 1.08v.318c-.077.191-.077.254-.077.318l.463 1.016-.54.826.154.699c-.077.508-.231.953-.54 1.398l-1.08 1.207-.848 1.144a4.48 4.48 0 0 1-1.928 1.461l-.771 1.398-.771.191-.231.318c-.386.572-1.234.953-2.467 1.271-.694.445-1.08.889-1.157 1.207l-1.388.762c-.077-.064-.231-.127-.463-.127-.077 0-.231 0-.463.064s-.386.064-.54.064c-.077 0-.077 0-.154-.064h-.231l-1.773 1.144.386.191c-.077.064-.617.381-1.619.826l-1.773.572 2.776.191 1.465.572h1.465l.308.381 1.465.064c.077.318.386.508.771.508.154 0 .386-.064.694-.127a1.09 1.09 0 0 1 .154.572l-.077.064c0-.064.308.064.848.318l1.157-.572.694.318 1.619.064 1.542-.191 1.002.445 1.928.318 1.157-.381h1.08c.54-.191 1.08-.318 1.773-.318s1.234.064 1.696.254l.771 1.016zm-33.542-2.732l-1.08-.381-2.39-.445-1.234.191h-2.236l-1.465.318-1.157.953.617.572-.154.508 1.388.318 2.159-.191 2.313-.318 1.696-.635 1.542-.889z"/><path id="R" d="M1586.748 344.521c-.154.445-.386 1.016-.694 1.588l.077.381.54 2.287-.54 2.414.231 1.144-.463.826.308 2.795-.308.445v1.842l-.077 1.461.231.635-.154 4.002.617 1.144-.463.508.231 1.08-.386.318.386 1.08-.694.635v.445l-.308.572c-.154.699-.694 1.779-1.696 3.113l-.54 1.588-.771.381-.231.191-.694.762-.771.953-1.311.572c-.617.953-1.311 1.461-2.159 1.588-.231.191-.463.318-.54.381l-.231.191-1.08.381-.617.508h-.771l-.386.508-1.388-.254-1.465.762-1.388-.254-2.545.318-.54-.064-.386.127-2.545-.381h-1.157l-.463-.381-3.084-.826-2.622-.318-.386-.572-1.388-.127-.463-1.08-.925-.191-.617-.953-1.465-.445-1.234-1.461-2.236-1.144.154-1.207c-.077-.064-.308-.889-.694-2.478 0-.699.154-1.525.54-2.478v-.572l.771-.318.463-1.08.308.127.771-1.016 1.388-.889 1.08-.254 2.082-1.398 2.005.127c.54-.445 1.157-.635 2.005-.635 1.157.445 1.773 1.016 1.773 1.715 0 .445-.231.826-.694 1.271l-1.08.445-1.157.699-1.157.254-.694 1.08h-1.157l-.463.635-1.002.699.077.953-.617.889.308.635.54 1.016 1.696.889.386.953 2.082 1.334 1.157.064 1.388.889h1.388l.848.699 1.08-.064.617.381 3.701-.127 2.39-.635 1.465.064 1.619-.762a3.59 3.59 0 0 1 1.08-.191c.077-.064.308-.127.54-.254l.386-.508.771.191.308-.254v-.508c.077-.254.386-.445 1.002-.635.231-.445.617-.762 1.234-1.08.154-.191.308-.699.386-1.398l1.08-.508.231-.445c.231-.318.386-.699.617-1.08l.077-.191.231-2.478.308-.191v-1.016l-.308-.953.463-.762-.154-1.715c0-.381 0-.826.077-1.271.077-.508.077-.826.077-.889v-3.24l-.54-.826.54-1.334-.154-1.271v-3.24l-.231-.826.308-.445v-.826c0-.318 0-.508.077-.572l-.617-1.461v-2.224l-.848 1.144-.925.572-.925.762-.617.191-.231.762-.694.318-.077.191-1.08.762-1.465 1.461-2.082 1.779-.771.191-.231.318-2.313 1.398h-.694l-.771.635-.308.635-1.696.445-.308.445-1.157.127-1.619.889-1.311.254-.617.381-.848.127-.231.127c-.694.572-1.696.889-3.161.889-1.542 0-2.776-.381-3.624-1.207l-1.696-2.096-.077-1.207-.925-2.287v-1.906l-.308-.762.463-.635-.386-1.398.54-.381.077-.635.463-.762-.154-1.334.308-.508v-.445c0-.889.154-1.906.54-3.113l-.231-1.715.231-1.588-.694-2.287.154-.445-.308-.381.925-2.033c.231-.699.308-1.334.308-2.033.617-.254 1.234-.381 1.851-.381a5.22 5.22 0 0 1 1.388.191l.694 1.271 1.311.762-.386 1.525.694.953-.308.635 1.002.699-.925 1.398.463 1.652-.54.699.077.127-.463 2.732v2.478l-.463.381-.308 2.224-.694.699c0 .191 0 .508.077.826v.635l.54 1.144-.54.826.154 1.016-.154.254.154.762.694.508.54-.127.077.381.54-.635h2.236c.308-.254.694-.445 1.157-.635 1.157-.699 2.236-1.08 3.161-1.144l.077-.826 5.475-2.478.308-.508c-.154.064-.308.127-.386.191.154-.064.54-.254 1.08-.572l.308-.826.54-.699 1.08-.318.617-.762.386.064.463-.254.925-.826.386-.064.077-.191 1.388-1.207.848-1.144a2.85 2.85 0 0 0 1.465-.889l1.08-1.842-.154-1.969.771-.254v-.191l-.463-1.144.077-.254c-.386-.445-.54-.826-.54-1.08 0-.445.308-1.016.925-1.715v.191l.308-.635.077-.254v.191c.386-.826 1.465-1.271 3.084-1.334l2.467 1.969.231 1.652.771 1.08-.463 1.016.077.445v.318l-.386.572.231.381v1.016l-.308 1.016.308 1.398v1.016l.231.445-.154 1.207.54 1.588z"/><path id="S" d="M1582.28 52.694c.293 1.507.366 3.254.293 5.123-.073.482-.366.723-.951.723h-22.603c-.293 0-.366.121-.293.301.146.783.439 1.627.805 2.411 1.244 2.23 3.877 3.375 7.754 3.375 3.145-.06 5.559-1.085 7.388-3.134.219-.241.439-.362.658-.362.146 0 .293.06.512.241l5.267 4.279c.219.181.366.362.366.542 0 .06-.073.241-.293.482-1.609 1.627-3.657 2.953-6.218 3.797-2.56.904-5.34 1.386-8.339 1.386-4.17 0-7.754-.783-10.607-2.35-2.926-1.567-5.047-3.737-6.291-6.569-1.024-1.989-1.536-4.641-1.536-7.895 0-2.23.366-4.158 1.097-5.846 1.097-2.833 3.072-5.123 5.925-6.81 2.78-1.687 6.071-2.531 9.948-2.531 4.901 0 8.778 1.145 11.777 3.496 2.926 2.35 4.682 5.424 5.34 9.341zm-17.044-5.484c-3.072 0-5.12 1.205-6.071 3.556-.219.542-.366 1.145-.512 1.929 0 .181.146.301.366.301h12.655c.293 0 .366-.121.293-.301-.219-1.145-.366-1.748-.366-1.687-.439-1.205-1.17-2.17-2.268-2.833s-2.487-.964-4.096-.964z"/></defs></svg>