<svg xmlns="http://www.w3.org/2000/svg" xmlns:xlink="http://www.w3.org/1999/xlink" width="750" height="590" fill-rule="evenodd" stroke-linecap="round" stroke-linejoin="round" stroke-miterlimit="1.5" xmlns:v="https://vecta.io/nano"><style><![CDATA[.B{fill-rule:nonzero}.C{fill:#707487}.D{fill:none}.E{fill:#c7cfe2}.F{stroke-dasharray:5,4,0,0,0,0}.G{stroke:#000}.H{fill:#959cb3}.I{fill:#a2aac2}.J{fill:#afb9d2}.K{fill:#a045ea}.L{stroke-width:2.225}.M{stroke-width:2.339}.N{fill:#d4d4d4}.O{stroke:#d4d4d4}.P{fill:#ff6464}]]></style><g transform="scale(.390625 .546296)"><path d="M120 124h282v483" stroke="#bababa" stroke-width="4" transform="matrix(-2.56 0 0 1.83051 1159.68 -104.339)" class="D"/><g class="B"><path d="M148.461 92.288a14.56 14.56 0 0 0 4.02-.575c1.273-.383 2.68-.958 4.087-1.677l4.825 4.935c-1.675 1.054-3.685 1.869-6.031 2.492-2.278.623-4.825.91-7.505.91-3.886 0-7.237-.575-10.051-1.677-2.881-1.15-5.026-2.779-6.567-4.839-1.474-2.06-2.278-4.456-2.278-7.187 0-2.683.804-5.127 2.345-7.283 1.541-2.108 3.752-3.785 6.634-4.983s6.232-1.821 10.118-1.821c2.747 0 5.16.287 7.304.815 2.211.575 4.222 1.39 6.031 2.492l-4.691 4.648c-2.613-1.294-5.361-1.964-8.175-1.964-2.613 0-4.624.671-6.031 1.964-1.474 1.294-2.211 3.306-2.211 6.133 0 2.731.737 4.696 2.211 5.845 1.407 1.198 3.417 1.773 5.964 1.773zm40.9-2.922c0 1.006.402 1.725 1.206 2.204s2.01.719 3.484.719c1.675 0 3.35-.287 5.16-.815l2.613 5.223c-3.015 1.102-6.567 1.677-10.52 1.677-4.289 0-7.505-.862-9.649-2.635-2.077-1.725-3.149-4.216-3.149-7.331V66.415h-10.788v-5.318h21.644v28.269zm52.896.67c0 .958.201 1.677.536 2.108.402.479 1.005.815 1.876 1.054l-2.211 5.079c-2.211-.144-4.087-.479-5.495-1.006-1.474-.575-2.613-1.39-3.484-2.396-1.34 1.15-3.082 2.012-5.227 2.635-2.144.575-4.356.862-6.768.862-2.479 0-4.624-.335-6.5-1.006-1.876-.719-3.283-1.677-4.356-2.923-1.005-1.246-1.474-2.635-1.474-4.264 0-1.869.67-3.45 2.077-4.791s3.417-2.348 6.098-3.019c2.68-.719 5.83-1.054 9.582-1.054h4.892v-.958c0-2.683-2.412-4.025-7.17-4.025-1.206 0-2.747.096-4.624.383-1.809.24-3.618.575-5.428 1.006l-2.479-5.175c2.278-.623 4.691-1.102 7.237-1.437s4.892-.527 6.969-.527c5.361 0 9.381.815 11.994 2.348 2.68 1.581 3.953 3.833 3.953 6.9v10.206zm-17.02 2.827c1.206 0 2.479-.287 3.752-.815 1.273-.479 2.211-1.198 2.814-2.06v-4.264h-2.68c-2.948 0-5.16.335-6.634 1.006-1.407.671-2.144 1.629-2.144 2.923 0 1.006.402 1.773 1.273 2.348s2.077.862 3.618.862z"/><use xlink:href="#B"/><use xlink:href="#B" x="41.237"/><path d="M411.154 80.358c0 6.373-2.077 10.829-6.366 13.368-4.222 2.539-9.783 3.833-16.685 3.833h-12.866V63.492h12.061c4.624 0 8.644.479 12.128 1.39 3.484.958 6.299 2.635 8.51 5.127 2.144 2.492 3.216 5.941 3.216 10.349zm-11.659 0c0-2.923-.469-5.175-1.34-6.804-.871-1.581-2.077-2.731-3.618-3.306s-3.417-.91-5.629-.91h-2.345v22.376h2.345c2.278 0 4.155-.335 5.696-1.006s2.747-1.869 3.618-3.498c.804-1.677 1.273-3.977 1.273-6.852zm46.126-9.679c2.144 0 4.155.24 5.964.767l-2.01 10.924h-6.768v-4.791c-2.01.24-3.819 1.006-5.361 2.348-1.608 1.294-2.814 2.971-3.685 4.935v7.475h7.17v5.223h-22.85v-5.223h4.825V76.62h-4.825v-5.175h13.067l2.01 5.893c1.34-2.252 2.948-3.929 5.026-5.031 2.01-1.102 4.49-1.629 7.438-1.629zm29.174-.096c3.685 0 6.835.575 9.515 1.725s4.691 2.731 6.098 4.839c1.407 2.06 2.077 4.504 2.077 7.283 0 2.923-.67 5.414-2.077 7.475-1.407 2.108-3.484 3.689-6.098 4.839-2.68 1.102-5.83 1.629-9.515 1.629-3.752 0-6.902-.527-9.582-1.629s-4.691-2.683-6.098-4.791c-1.34-2.06-2.077-4.552-2.077-7.475 0-2.779.737-5.175 2.144-7.283 1.407-2.06 3.417-3.689 6.098-4.839 2.68-1.198 5.83-1.773 9.515-1.773zm0 5.75c-2.211 0-3.886.671-4.959 1.964s-1.608 3.354-1.608 6.181c0 2.875.536 4.983 1.608 6.277s2.68 1.917 4.959 1.917c2.211 0 3.886-.623 4.959-1.964 1.005-1.294 1.541-3.402 1.541-6.277 0-2.779-.536-4.839-1.608-6.133s-2.68-1.964-4.892-1.964zm41.169-18.543c1.206 0 2.345.192 3.283.575s1.742.91 2.278 1.581.804 1.39.804 2.252c0 .815-.268 1.533-.804 2.204s-1.34 1.198-2.278 1.581c-1.005.383-2.077.575-3.283.575-1.273 0-2.345-.192-3.35-.575s-1.742-.91-2.278-1.581c-.603-.671-.871-1.39-.871-2.204 0-.862.268-1.581.871-2.252.536-.671 1.273-1.198 2.278-1.581s2.077-.575 3.35-.575zm-14.34 13.655h20.907V92.24h9.247v5.318H501.29V92.24h10.386V76.764h-10.051v-5.318zm60.601-11.163l10.855.815v36.462h-9.649l-.536-2.875a12.24 12.24 0 0 1-4.222 2.683c-1.675.671-3.618 1.006-5.897 1.006-2.948 0-5.428-.527-7.438-1.677s-3.484-2.779-4.49-4.839c-1.005-2.108-1.474-4.552-1.474-7.427 0-2.683.603-5.031 1.742-7.139 1.206-2.108 2.881-3.737 5.093-4.935 2.144-1.15 4.758-1.773 7.706-1.773 3.283 0 6.031.815 8.309 2.444V60.282zm-5.361 16.003c-2.01 0-3.551.671-4.624 1.964-1.139 1.342-1.675 3.402-1.675 6.229 0 3.019.469 5.175 1.474 6.373 1.005 1.246 2.345 1.821 4.155 1.821 2.278 0 4.289-1.006 6.031-3.019V78.441c-.804-.719-1.675-1.246-2.479-1.629a7.87 7.87 0 0 0-2.881-.527z"/><g fill="#4d4d4d"><use xlink:href="#C"/><use xlink:href="#D"/><use xlink:href="#E"/><use xlink:href="#F"/><use xlink:href="#G"/><path d="M337.509 183.996h26.266v2.746h-26.266z"/><use xlink:href="#C" x="189.045"/><use xlink:href="#H"/><use xlink:href="#I"/><use xlink:href="#E" x="220.553"/><use xlink:href="#J"/><use xlink:href="#C" x="137.154" y="319.17"/><use xlink:href="#D" x="137.154" y="319.17"/><use xlink:href="#E" x="137.154" y="319.17"/><use xlink:href="#F" x="137.154" y="319.17"/><use xlink:href="#G" x="137.154" y="319.17"/><path d="M474.663 503.166h26.266v2.746h-26.266z"/><use xlink:href="#C" x="326.199" y="319.17"/><use xlink:href="#H" x="137.154" y="319.17"/><use xlink:href="#I" x="137.154" y="319.17"/><use xlink:href="#E" x="357.707" y="319.17"/><use xlink:href="#J" x="137.154" y="319.17"/><use xlink:href="#C" x="137.154" y="568.127"/><use xlink:href="#D" x="137.154" y="568.128"/><use xlink:href="#E" x="137.154" y="568.128"/><use xlink:href="#F" x="137.154" y="568.128"/><use xlink:href="#G" x="137.154" y="568.128"/><path d="M474.663 752.123h26.266v2.746h-26.266z"/><use xlink:href="#C" x="326.199" y="568.127"/><use xlink:href="#H" x="137.154" y="568.128"/><use xlink:href="#I" x="137.154" y="568.128"/><use xlink:href="#E" x="357.707" y="568.128"/><use xlink:href="#J" x="137.154" y="568.128"/><use xlink:href="#C" x="140.76" y="818.907"/><use xlink:href="#D" x="140.76" y="818.907"/><use xlink:href="#E" x="140.76" y="818.907"/><use xlink:href="#F" x="140.76" y="818.907"/><use xlink:href="#G" x="140.76" y="818.907"/><path d="M478.269 1002.903h26.266v2.746h-26.266z"/><use xlink:href="#C" x="329.805" y="818.907"/><use xlink:href="#H" x="140.76" y="818.907"/><use xlink:href="#I" x="140.76" y="818.907"/><use xlink:href="#E" x="361.313" y="818.907"/><use xlink:href="#J" x="140.76" y="818.907"/></g></g><g transform="matrix(2.56 0 0 1.83051 -476.16 -156.624)"><g stroke-width="1.22" fill="#ebebeb" class="G"><use xlink:href="#K" transform="matrix(.582474 0 0 1 319.825 0)"/><use xlink:href="#K" transform="matrix(.582474 0 0 1 319.825 42.3661)"/><use xlink:href="#K" transform="matrix(.582474 0 0 1 319.825 84.7323)"/><use xlink:href="#K" transform="matrix(.582474 0 0 1 319.825 127.098)"/><use xlink:href="#K" transform="matrix(.582474 0 0 1 319.825 169.465)"/><use xlink:href="#K" transform="matrix(.582474 0 0 1 319.825 211.831)"/><use xlink:href="#K" transform="matrix(.582474 0 0 1 319.825 254.197)"/><use xlink:href="#K" transform="matrix(.582474 0 0 1 319.825 296.563)"/></g><g fill="#14c67c" class="B"><path d="M809.746 176.11h-3.8v11.64h-3.36v-11.64h-4v-2.58h11.5l-.34 2.58zm10.448.42c.64 0 1.24.1 1.78.32l-.6 4.56h-2.02v-2c-.6.1-1.14.42-1.6.98-.48.54-.84 1.24-1.1 2.06v3.12h2.14v2.18h-6.82v-2.18h1.44v-6.56h-1.44v-2.16h3.9l.6 2.46c.4-.94.88-1.64 1.5-2.1.6-.46 1.34-.68 2.22-.68zm7.228 7.78c0 .52.08.86.28 1.08.18.2.46.3.82.3.34 0 .68-.1 1-.3.34-.22.62-.5.86-.88v-7.66h3.24v10.9h-2.84l-.14-1.28c-.36.52-.84.92-1.44 1.2s-1.22.42-1.9.42c-1.04 0-1.82-.28-2.34-.88s-.78-1.42-.78-2.5v-7.86h3.24v7.46z"/><use xlink:href="#L"/></g><g fill="#c61414" class="B"><path d="M802.315 346.4h-5.64v3.76h5v2.42h-5v5.64h-3.36V344h9.34l-.34 2.4zm11.688 8.68c0 .4.06.7.16.88.12.2.3.34.56.44l-.66 2.12c-.66-.06-1.22-.2-1.64-.42-.44-.24-.78-.58-1.04-1-.4.48-.92.84-1.56 1.1-.64.24-1.3.36-2.02.36-.74 0-1.38-.14-1.94-.42-.56-.3-.98-.7-1.3-1.22-.3-.52-.44-1.1-.44-1.78 0-.78.2-1.44.62-2s1.02-.98 1.82-1.26c.8-.3 1.74-.44 2.86-.44h1.46v-.4c0-1.12-.72-1.68-2.14-1.68a6.62 6.62 0 0 0-1.38.16 12.07 12.07 0 0 0-1.62.42l-.74-2.16c.68-.26 1.4-.46 2.16-.6s1.46-.22 2.08-.22c1.6 0 2.8.34 3.58.98.8.66 1.18 1.6 1.18 2.88v4.26zm-5.08 1.18c.36 0 .74-.12 1.12-.34.38-.2.66-.5.84-.86v-1.78h-.8c-.88 0-1.54.14-1.98.42-.42.28-.64.68-.64 1.22 0 .42.12.74.38.98s.62.36 1.08.36zm13.908-1.46c0 .42.12.72.36.92s.6.3 1.04.3c.5 0 1-.12 1.54-.34l.78 2.18c-.9.46-1.96.7-3.14.7-1.28 0-2.24-.36-2.88-1.1-.62-.72-.94-1.76-.94-3.06v-9.18h-3.22V343h6.46v11.8zm10.987 1.46c.56 0 1-.1 1.32-.28.32-.16.5-.42.5-.76 0-.24-.08-.44-.2-.58-.14-.16-.38-.3-.74-.44-.34-.14-.9-.32-1.66-.52-1.08-.3-1.92-.7-2.5-1.22-.58-.5-.86-1.22-.86-2.12 0-.66.18-1.24.54-1.76.36-.5.9-.9 1.62-1.18.7-.28 1.56-.44 2.56-.44 1.72 0 3.2.44 4.4 1.34l-1.28 1.9c-.48-.28-.96-.52-1.48-.68a5.25 5.25 0 0 0-1.54-.24c-.54 0-.92.06-1.18.2a.68.68 0 0 0-.38.64.65.65 0 0 0 .2.48c.12.12.36.26.72.4s.9.32 1.64.52c.8.22 1.44.46 1.92.72.5.26.88.62 1.16 1.06.28.42.42.98.42 1.66 0 .78-.24 1.42-.7 1.98-.46.54-1.08.94-1.86 1.22s-1.64.4-2.6.4c-1.02 0-1.92-.14-2.74-.42-.82-.3-1.52-.7-2.1-1.22l1.62-1.82c.46.36.96.64 1.5.84s1.1.32 1.7.32z"/><use xlink:href="#L" x="5.277" y="170.47"/></g></g><g class="B"><path d="M1698.662 50.098h-138.447c-8.461 0-15.383 3.696-15.383 8.214v32.856h169.214V58.312c0-4.518-6.922-8.214-15.383-8.214z" fill="#4caf50"/><path d="M1544.831 91.167v8.214c0 4.518 6.922 8.214 15.383 8.214h65.378V97.328c0-1.232 1.538-2.054 3.846-2.054s3.846.821 3.846 2.054v10.267h65.378c8.461 0 15.383-3.696 15.383-8.214v-8.214h-169.214z" fill="#37474f"/><path d="M1564.06 95.274h7.692v12.321h-7.692V95.274zm15.383 0h7.691v12.321h-7.691V95.274zm15.383 0h7.692v12.321h-7.692V95.274zm15.383 0h7.692v12.321h-7.692V95.274zm30.766 0h7.692v12.321h-7.692V95.274zm15.383 0h7.692v12.321h-7.692V95.274zm15.383 0h7.691v12.321h-7.691V95.274zm15.383 0h7.692v12.321h-7.692V95.274z" fill="#ff9800"/><path d="M1614.055 62.419h30.766v20.535h-30.766V62.419zm46.149 0h30.766v20.535h-30.766V62.419zm-92.298 0h30.766v20.535h-30.766V62.419z" fill="#37474f"/></g><use xlink:href="#M"/><path d="M570.959 169.84h852.913" class="D F G L"/><use xlink:href="#M" y="313.416"/><path d="M570.959 191.089H903.68l408.602 292.168h111.59" class="D F G L"/><g transform="matrix(1.67524 0 0 1.19787 -450.586 -330.296)"><circle cx="960" cy="417" r="24" class="K"/><path d="M.096-.495v-.068c.063-.006.107-.016.133-.031s.043-.048.056-.102h.069V0H.26v-.495H.096z" fill="#fff" transform="matrix(37 0 0 37 950.081 429.95)" class="B"/></g><g transform="matrix(1.67524 0 0 1.19787 -757.46 -266.602)"><circle cx="1061" cy="453.95" r="24" class="K"/><path d="M.331-.248v-.316l-.225.316h.225zM.332 0v-.171H.025v-.086l.321-.444H.42v.453h.103v.077H.42V0H.332z" fill="#fff" transform="matrix(37 0 0 37 1051.081 466.9)" class="B"/></g><use xlink:href="#M" x="-1144.891" y="319.169" class="N"/><path d="M266.24 212.339V489.01h12.741" class="D F M O"/><use xlink:href="#M" x="-1144.89" y="568.128" class="N"/><path d="M222.721 212.339v525.629h56.261" class="D F L O"/><use xlink:href="#M" x="-1141.286" y="818.908" class="N"/><path d="M181.222 212.339v776.409h101.363" class="D F M O"/><path d="M1420.8 178.46l15.36 8.237-15.36 8.237V178.46z"/><path d="M680.955 489.01H960l422.789-302.312h41.083" class="D F G M"/><use xlink:href="#M" x="-0.007" y="34.032"/><path d="M680.948 737.966h284.833l421.196-534.093h36.887" class="D F G L"/><g transform="matrix(1.67524 0 0 1.19787 -706.151 -11.8035)"><circle cx="960" cy="417" r="24" class="K"/><path d="M.031 0c.004-.06.016-.113.038-.157s.063-.085.126-.122l.094-.054c.042-.024.072-.045.088-.063.027-.027.04-.057.04-.092 0-.041-.012-.073-.036-.097S.324-.621.283-.621c-.06 0-.102.023-.125.068-.012.025-.019.059-.02.102h-.09C.049-.512.061-.562.082-.6.12-.668.187-.702.284-.702c.08 0 .138.022.175.065a.22.22 0 0 1 .056.145c0 .056-.02.104-.059.143-.023.023-.064.051-.123.084l-.067.037C.234-.21.209-.193.191-.177.158-.149.138-.118.129-.083h.382V0h-.48z" fill="#fff" transform="matrix(37 0 0 37 950.081 429.95)" class="B"/></g><g transform="matrix(1.67524 0 0 1.19787 -706.151 238.456)"><circle cx="960" cy="417" r="24" class="K"/><path d="M.26.019C.177.019.117-.004.08-.049S.024-.15.024-.215h.092c.004.045.012.078.025.099.023.037.064.055.124.055a.16.16 0 0 0 .111-.037c.028-.025.042-.057.042-.096 0-.048-.015-.082-.044-.101S.303-.324.251-.324l-.036.001V-.4l.023.002h.02c.033 0 .06-.005.081-.016.037-.018.056-.05.056-.097 0-.035-.013-.062-.038-.081S.304-.62.271-.62c-.059 0-.099.019-.122.058C.137-.54.13-.509.128-.47H.042c0-.052.01-.096.031-.133C.109-.668.172-.7.262-.7c.071 0 .126.016.165.047s.059.078.059.138c0 .043-.012.078-.035.105-.014.016-.033.029-.055.039.036.01.065.029.086.058s.031.064.031.106c0 .067-.022.121-.066.163S.34.019.26.019z" fill="#fff" transform="matrix(37 0 0 37 950.081 429.95)" class="B"/></g><use xlink:href="#M" y="335.38"/><path d="M680.955 988.748h261.33l437.555-483.527h44.032" class="D F G M"/><g transform="matrix(1.67524 0 0 1.19787 -706.151 489.236)"><circle cx="960" cy="417" r="24" class="K"/><path d="M.124-.178c.005.05.029.085.069.104.021.01.045.014.073.014.052 0 .09-.016.115-.049s.038-.07.038-.111c0-.049-.015-.086-.045-.113s-.065-.04-.107-.04a.16.16 0 0 0-.078.018c-.021.011-.04.028-.055.048L.058-.311.111-.688h.363v.085H.177l-.03.195C.163-.421.179-.43.193-.436.219-.447.25-.452.284-.452c.064 0 .118.021.163.062s.067.094.067.157a.27.27 0 0 1-.062.175c-.04.05-.106.076-.195.076C.2.018.149.002.106-.031S.037-.112.032-.178h.092z" fill="#fff" transform="matrix(37 0 0 37 950.081 429.95)" class="B"/></g><g transform="matrix(.53 0 0 .378972 619.286 311.186)"><g class="B H"><use xlink:href="#N"/><path d="M335.989 186l-16 54-64 16-64-16-16-54h160z"/></g><g class="E B"><use xlink:href="#O"/><use xlink:href="#P"/><use xlink:href="#Q"/></g><use xlink:href="#R" class="B C"/><g class="P"><path d="M231.99 248h48v48h-48z"/><circle cx="255.99" cy="144" r="31"/></g><g class="B"><path d="M112.087 232l.042.001.042-.001h-.084z" class="H"/><use xlink:href="#S" class="E"/><g class="C"><use xlink:href="#T"/><use xlink:href="#U"/></g><use xlink:href="#V" class="E"/><use xlink:href="#T" x="288.022" class="C"/><use xlink:href="#W" class="I"/></g><path d="M151.99 472h80v32h-80z" class="C"/><circle cx="191.99" cy="352" r="16" class="J"/><use xlink:href="#W" x="128" class="B I"/><path d="M279.99 472h80v32h-80z" class="C"/><circle cx="319.99" cy="352" r="16" class="J"/><use xlink:href="#X" class="B"/></g><g transform="matrix(.53 0 0 .378972 619.286 561.966)"><g class="B H"><use xlink:href="#N"/><path d="M335.989 186l-16 54-64 16-64-16-16-54h160z"/></g><g class="E B"><use xlink:href="#O"/><use xlink:href="#P"/><use xlink:href="#Q"/></g><use xlink:href="#R" class="B C"/><g class="P"><path d="M231.99 248h48v48h-48z"/><circle cx="255.99" cy="144" r="31"/></g><g class="B"><path d="M112.087 232l.042.001.042-.001h-.084z" class="H"/><use xlink:href="#S" class="E"/><g class="C"><use xlink:href="#T"/><use xlink:href="#U"/></g><use xlink:href="#V" class="E"/><use xlink:href="#T" x="288.022" class="C"/><use xlink:href="#W" class="I"/></g><path d="M151.99 472h80v32h-80z" class="C"/><circle cx="191.99" cy="352" r="16" class="J"/><use xlink:href="#W" x="128" class="B I"/><path d="M279.99 472h80v32h-80z" class="C"/><circle cx="319.99" cy="352" r="16" class="J"/><use xlink:href="#X" class="B"/></g><g transform="matrix(.53 0 0 .378972 619.286 812.746)"><g class="B H"><use xlink:href="#N"/><path d="M335.989 186l-16 54-64 16-64-16-16-54h160z"/></g><g class="E B"><use xlink:href="#O"/><use xlink:href="#P"/><use xlink:href="#Q"/></g><use xlink:href="#R" class="B C"/><g class="P"><path d="M231.99 248h48v48h-48z"/><circle cx="255.99" cy="144" r="31"/></g><g class="B"><path d="M112.087 232l.042.001.042-.001h-.084z" class="H"/><use xlink:href="#S" class="E"/><g class="C"><use xlink:href="#T"/><use xlink:href="#U"/></g><use xlink:href="#V" class="E"/><use xlink:href="#T" x="288.022" class="C"/><use xlink:href="#W" class="I"/></g><path d="M151.99 472h80v32h-80z" class="C"/><circle cx="191.99" cy="352" r="16" class="J"/><use xlink:href="#W" x="128" class="B I"/><path d="M279.99 472h80v32h-80z" class="C"/><circle cx="319.99" cy="352" r="16" class="J"/><use xlink:href="#X" class="B"/></g></g><defs ><path id="B" d="M267.41 92.863c1.876 0 3.35-.24 4.423-.671 1.072-.383 1.675-1.006 1.675-1.821 0-.575-.268-1.054-.67-1.39-.469-.383-1.273-.719-2.479-1.054-1.139-.335-3.015-.767-5.562-1.246-3.618-.719-6.433-1.677-8.376-2.923-1.943-1.198-2.881-2.923-2.881-5.079 0-1.581.603-2.971 1.809-4.216 1.206-1.198 3.015-2.156 5.428-2.827 2.345-.671 5.227-1.054 8.577-1.054 5.763 0 10.721 1.054 14.742 3.21l-4.289 4.552c-1.608-.671-3.216-1.246-4.959-1.629s-3.484-.575-5.16-.575c-1.809 0-3.082.144-3.953.479s-1.273.862-1.273 1.533c0 .431.201.815.67 1.15.402.287 1.206.623 2.412.958s3.015.767 5.495 1.246c2.68.527 4.825 1.102 6.433 1.725 1.675.623 2.948 1.485 3.886 2.539.938 1.006 1.407 2.348 1.407 3.977 0 1.869-.804 3.402-2.345 4.743-1.541 1.294-3.618 2.252-6.232 2.923s-5.495.958-8.711.958c-3.417 0-6.433-.335-9.18-1.006-2.747-.719-5.093-1.677-7.036-2.923l5.428-4.36c1.541.862 3.216 1.533 5.026 2.012s3.685.767 5.696.767z"/><path id="C" d="M193.182 159.76c2.56 0 4.71.403 6.451 1.245 1.792.842 3.123 2.014 4.045 3.551.87 1.538 1.331 3.368 1.331 5.492 0 2.014-.461 3.844-1.382 5.382s-2.253 2.746-4.045 3.624-3.942 1.318-6.451 1.318c-2.56 0-4.762-.439-6.502-1.281-1.792-.842-3.123-2.014-4.045-3.588-.922-1.538-1.382-3.332-1.382-5.418 0-2.05.461-3.881 1.382-5.418s2.304-2.746 4.096-3.624c1.792-.842 3.942-1.281 6.502-1.281zm0 2.563c-2.406 0-4.198.622-5.427 1.904s-1.792 3.222-1.792 5.858c0 2.599.563 4.503 1.792 5.784 1.178 1.281 2.97 1.904 5.376 1.904s4.198-.622 5.376-1.904 1.792-3.222 1.792-5.821-.614-4.54-1.792-5.821-2.97-1.904-5.325-1.904z"/><path id="D" d="M218.546 162.725c1.024-.952 2.202-1.684 3.533-2.197s2.816-.769 4.352-.769c3.584 0 6.195.879 7.885 2.709 1.638 1.794 2.509 4.32 2.509 7.578 0 2.014-.461 3.807-1.28 5.345-.819 1.574-2.099 2.782-3.738 3.661s-3.635 1.318-5.939 1.318c-1.638 0-3.072-.22-4.301-.622s-2.304-1.025-3.226-1.867l-.358 2.05h-3.84v-27.714l4.403-.403v10.91zm6.246 15.083c2.355 0 4.147-.659 5.376-1.94s1.843-3.258 1.843-5.858c0-2.563-.563-4.503-1.69-5.784-1.075-1.281-2.714-1.94-4.813-1.94-1.434 0-2.714.293-3.891.915a10.95 10.95 0 0 0-3.072 2.27v9.775c.768.805 1.638 1.428 2.765 1.904 1.075.439 2.253.659 3.482.659z"/><path id="E" d="M249.132 171.182c.051 1.464.461 2.673 1.178 3.661.768.988 1.741 1.721 2.918 2.197s2.509.696 3.994.696c1.331 0 2.611-.146 3.738-.439 1.178-.293 2.355-.732 3.635-1.355l2.048 2.087c-1.28.732-2.765 1.318-4.454 1.721-1.638.403-3.328.622-5.018.622-2.662 0-4.915-.439-6.861-1.281-1.894-.842-3.328-2.05-4.352-3.624-.973-1.538-1.434-3.332-1.434-5.382 0-2.014.461-3.771 1.485-5.345.973-1.574 2.406-2.782 4.198-3.661 1.843-.879 3.942-1.318 6.349-1.318 2.355 0 4.352.366 6.042 1.172 1.69.769 2.97 1.867 3.84 3.332.922 1.464 1.382 3.185 1.382 5.162 0 .586-.051 1.172-.102 1.757h-18.586zm7.475-8.86c-2.099 0-3.84.549-5.171 1.611-1.382 1.098-2.099 2.673-2.304 4.796h14.438c-.051-2.087-.717-3.661-1.946-4.759s-2.867-1.647-5.018-1.647z"/><path id="F" d="M290.47 180.078c-.717 1.464-1.587 2.746-2.56 3.807-1.024 1.098-2.304 1.977-3.891 2.673-1.638.732-3.584 1.135-5.888 1.318l-.717-2.526c1.843-.22 3.328-.549 4.454-.988 1.126-.476 1.997-1.025 2.611-1.721s1.229-1.611 1.792-2.709h-1.485l-9.677-19.77h4.71l7.936 17.353 7.834-17.353h4.557l-9.677 19.916z"/><path id="G" d="M318.087 177.772c2.099 0 3.789-.293 5.018-.879 1.229-.549 1.843-1.318 1.843-2.27 0-.659-.154-1.208-.461-1.611-.358-.403-.973-.805-1.946-1.172-.973-.329-2.355-.659-4.301-1.025-2.099-.366-3.84-.769-5.171-1.208s-2.406-1.025-3.123-1.757c-.768-.696-1.126-1.611-1.126-2.709s.461-2.05 1.331-2.856 2.099-1.428 3.686-1.867 3.43-.659 5.478-.659c2.099 0 3.994.183 5.632.586 1.69.403 3.174.915 4.403 1.574l-1.946 2.16a15.27 15.27 0 0 0-3.635-1.318c-1.28-.293-2.714-.476-4.403-.476-2.048 0-3.584.256-4.557.696-.922.476-1.434 1.098-1.434 1.904 0 .586.256 1.062.666 1.464.461.366 1.178.696 2.202.988s2.509.659 4.506 1.025c1.997.403 3.635.805 4.915 1.281s2.253 1.098 2.97 1.904c.717.769 1.075 1.721 1.075 2.929 0 1.318-.512 2.453-1.587 3.332-1.126.879-2.509 1.538-4.301 1.94-1.741.403-3.686.622-5.734.622-4.352 0-7.987-.879-10.854-2.673l2.56-2.087c1.075.696 2.355 1.208 3.789 1.574a18.04 18.04 0 0 0 4.506.586z"/><path id="H" d="M428.48 160.162l-4.813 19.77h-6.246l-3.584-14.498-3.891 14.498h-6.093l-5.018-19.77h4.506l3.533 17.829 4.403-15.303h5.222l4.198 15.303 3.482-17.829h4.301z"/><path id="I" d="M434.695 179.932v-19.77h3.738l.358 2.746c1.126-.988 2.509-1.757 4.147-2.306a15.04 15.04 0 0 1 5.018-.842c2.611 0 4.557.476 5.837 1.501 1.28.988 1.894 2.416 1.894 4.32v14.351h-4.403v-12.045c0-1.464-.102-2.599-.307-3.368-.256-.769-.666-1.355-1.331-1.721-.717-.366-1.69-.586-3.072-.586-1.485 0-2.918.329-4.198.988-1.331.659-2.406 1.428-3.277 2.343v14.388h-4.403z"/><path id="J" d="M516.399 159.723c.717 0 1.382.037 1.946.11l1.946.329-.614 6.7h-3.635v-4.21h-.256c-2.099 0-3.942.513-5.427 1.611-1.536 1.062-2.714 2.709-3.686 4.869v8.384h5.632v2.416h-14.336v-2.416h4.301v-14.937h-4.301v-2.416h7.68l.819 4.686c1.126-1.721 2.458-3.002 3.994-3.844s3.533-1.281 5.939-1.281z"/><path id="K" d="M766 159.634h194V202H766z"/><path id="L" d="M839.289 183.25c.1.86.38 1.48.84 1.88s1.06.6 1.78.6c.92 0 1.86-.3 2.8-.9l1.3 1.78c-.54.46-1.18.82-1.92 1.08-.74.28-1.54.4-2.44.4-1.22 0-2.24-.24-3.1-.72a4.73 4.73 0 0 1-1.92-2.04c-.42-.86-.64-1.88-.64-3.02a7.03 7.03 0 0 1 .62-2.94c.42-.9 1.04-1.58 1.84-2.1s1.74-.78 2.86-.78c1.02 0 1.92.24 2.7.68.76.44 1.36 1.08 1.78 1.92s.62 1.84.62 3c0 .44-.02.82-.06 1.16h-7.06zm2.02-4.58c-.6 0-1.08.22-1.42.64-.36.44-.56 1.1-.64 1.98h4c-.02-1.74-.66-2.62-1.94-2.62z"/><path id="M" d="M1420.8 161.603l15.36 8.237-15.36 8.237v-16.475z"/><path id="N" d="M215.989 86V44.323C215.989 22.712 234.002 8 256.168 8h.176c22.166 0 39.645 14.712 39.645 36.323V86h-80z"/><path id="O" d="M367.989 152.938c0 12.968-9.887 25.996-22.309 28.95l-66.792 17.583c-12.422 2.954-32.682 2.963-45.106.02l-67.297-17.624c-12.425-2.943-22.496-15.962-22.496-28.93v-52.97C143.989 87 154.308 88 167.065 88h178.282c12.758 0 22.642 7 22.642 19.968v44.97z"/><path id="P" d="M200.565 240c-17.677 0-32.007 14.323-32.007 32s14.33 32 32.007 32h31.423v-64h-31.423z"/><path id="Q" d="M311.786 240c17.677 0 32.007 14.323 32.007 32s-14.33 32-32.007 32h-31.797v-64h31.797z"/><path id="R" d="M143.989 104h-40.673c-12.871 0-23.305 11.129-23.305 24s10.434 24 23.305 24h40.673v-48z"/><path id="S" d="M112.13 232.001c-13.1.015-24.141 6.997-24.141 19.565v60.432c0 8.838 7.164 16.002 16.002 16.002h15.996c8.838 0 16.002-7.164 16.002-16.002v-60.432c0-12.568-10.759-19.55-23.859-19.565z"/><path id="T" d="M87.989 296v15.998c0 8.838 7.164 16.002 16.002 16.002h15.996c8.838 0 16.002-7.164 16.002-16.002V296h-48z"/><path id="U" d="M367.989 104h40.695c12.871 0 23.305 11.129 23.305 24s-10.434 24-23.305 24h-40.695v-48z"/><path id="V" d="M399.87 232.001c-13.1.015-23.859 6.997-23.859 19.565v60.432c0 8.838 7.164 16.002 16.002 16.002h15.996c8.838 0 16.002-7.164 16.002-16.002v-60.432c0-12.568-11.041-19.55-24.141-19.565z"/><path id="W" d="M195.925 400h-7.63c-19.788 0-36.306 12.622-36.306 32.41V504h80v-71.59c0-19.788-16.277-32.41-36.064-32.41z"/><path id="X" d="M407.989 224.758V160h.695c16.969 0 31.305-14.654 31.305-32s-14.336-32-31.305-32h-35.247c-4.551-9.803-14.851-16-28.09-16h-41.358V44.323C303.989 19.055 283.506 0 256.344 0h-.176c-27.467 0-48.18 19.055-48.18 44.323V80h-40.923c-.851 0-1.691-.004-2.518-.009-9.011-.047-17.509-.095-23.393 5.758-2.636 2.622-4.263 6.064-4.878 10.251h-32.961c-16.969 0-31.304 14.654-31.304 32s14.335 32 31.304 32h.673v64.762c-14.466 2.788-24 13.031-24 26.804v60.432c0 13.235 10.767 24.002 24.002 24.002h15.996c13.235 0 24.002-10.767 24.002-24.002v-60.432c0-13.84-9.544-24.114-24-26.842V160h16.741c2.898 14.009 14.07 26.328 27.814 29.63l4.528 1.186 13.478 45.487c-13.032 6.602-21.991 20.119-21.991 35.697 0 16.146 9.623 30.078 23.43 36.39v20.986c-9.311 3.302-16 12.194-16 22.624s6.689 19.322 16 22.624V392c0 .06.008.118.009.177-23.09 1.849-40.009 18.522-40.009 40.233V496a8 8 0 1 0 0 16h96a8 8 0 1 0 0-16v-63.59c0-22.155-16.595-38.552-40.008-40.254.001-.052.008-.103.008-.156v-17.376c9.311-3.302 16-12.194 16-22.624s-6.689-19.322-16-22.624v-17.391l.577.015h31.423a8 8 0 0 0 8-8h32a8 8 0 0 0 8 8h31.797c.068 0 .135-.005.203-.005v17.381c-9.311 3.302-16 12.194-16 22.624s6.689 19.322 16 22.624V392c0 .06.008.118.009.177-23.09 1.849-40.009 18.522-40.009 40.233V496a8 8 0 1 0 0 16h96a8 8 0 1 0 0-16v-63.59c0-22.155-16.595-38.552-40.008-40.254.001-.052.008-.103.008-.156v-17.376c9.311-3.302 16-12.194 16-22.624s-6.689-19.322-16-22.624V308.56c14.008-6.23 23.805-20.268 23.805-36.56 0-15.708-9.107-29.324-22.316-35.864l13.404-45.238 4.749-1.25c13.653-3.294 24.748-15.621 27.624-29.648h16.734v64.728c-14.443 2.735-23.977 13.006-23.977 26.838v43.979c-.008.151-.023.301-.023.454s.014.303.023.454v15.544c0 13.235 10.767 24.002 24.002 24.002h15.996c13.235 0 24.002-10.767 24.002-24.002v-60.432c0-13.779-9.544-24.025-24.022-26.807zM119.987 320h-15.996c-4.412 0-8.002-3.59-8.002-8.002V304h32v7.998c0 4.412-3.59 8.002-8.002 8.002zm8.002-68.434V288h-32v-36.434c0-8.52 8.682-11.554 16.137-11.566 2.742.005 15.863.61 15.863 11.566zm32 244.434v-16h64v16h-64zm64-63.59V464h-64v-31.59c0-16.771 14.673-24.41 28.306-24.41h7.63c13.516 0 28.064 7.639 28.064 24.41zm-32-72.41a8.01 8.01 0 0 1-8-8 8.01 8.01 0 0 1 8-8 8.01 8.01 0 0 1 8 8 8.01 8.01 0 0 1-8 8zm96 136v-16h64v16h-64zm64-63.59V464h-64v-31.59c0-16.771 14.673-24.41 28.306-24.41h7.63c13.516 0 28.064 7.639 28.064 24.41zm-32-72.41a8.01 8.01 0 0 1-8-8 8.01 8.01 0 0 1 8-8 8.01 8.01 0 0 1 8 8 8.01 8.01 0 0 1-8 8zm104-232c0 8.673-7.009 16-15.305 16h-32.695v-32h32.695c8.296 0 15.305 7.327 15.305 16zm-200-83.677c0-16.411 13.534-28.323 32.18-28.323h.176c18.336 0 31.645 11.912 31.645 28.323V80h-64l-.001-35.677zM88.011 128c0-8.673 7.008-16 15.304-16h32.673v32h-32.673c-8.295 0-15.304-7.327-15.304-16zm112.554 168c-13.237 0-24.007-10.767-24.007-24s10.77-24 24.007-24h23.423v48h-23.423zm39.424-8v-32h32v32h-32zm71.797 8h-23.797v-48h23.797c13.238 0 24.007 10.767 24.007 24s-10.769 24-24.007 24zm2.21-63.936c-.732-.04-1.468-.064-2.21-.064h-31.797a8 8 0 0 0-8 8h-32a8 8 0 0 0-8-8h-31.423c-.866 0-1.723.037-2.576.092l-10.826-36.538 44.592 11.678c.061.016.122.031.183.045 6.826 1.617 15.579 2.425 24.338 2.425 8.8 0 17.607-.816 24.463-2.447l.186-.046 43.857-11.545-10.787 36.4zm45.993-79.125c0 9.391-7.4 19.084-16.16 21.167l-.186.046-66.696 17.558c-11.205 2.642-30.028 2.65-41.234.018l-67.202-17.599a5.37 5.37 0 0 0-.182-.045c-8.857-2.099-16.34-11.782-16.34-21.145v-52.97c0-2.232.446-2.871.449-2.875 1.137-1.161 8.222-1.121 12.023-1.103l2.604.009h178.282c4.402 0 14.642 1.166 14.642 11.968v44.971zM399.874 240c7.456.013 16.138 3.047 16.138 11.566V288h-32v-36.434c-.001-10.956 13.119-11.561 15.862-11.566zm8.136 80h-15.996c-4.412 0-8.002-3.59-8.002-8.002V304h32v7.998c-.001 4.412-3.59 8.002-8.002 8.002zM294.74 134.029c.829 3.243 1.249 6.596 1.249 9.966 0 22.136-18.008 40.144-40.144 40.144s-40.144-18.008-40.144-40.144 18.008-40.144 40.144-40.144a40.29 40.29 0 0 1 10.165 1.3 8 8 0 1 1-4.042 15.48c-1.985-.518-4.044-.781-6.123-.781-13.313 0-24.144 10.83-24.144 24.144s10.831 24.144 24.144 24.144 24.144-10.831 24.144-24.144c0-2.036-.252-4.056-.751-6.005a8 8 0 0 1 5.771-9.731c4.279-1.095 8.637 1.491 9.731 5.771zM279.989 48a8 8 0 0 1-8 8h-32a8 8 0 1 1 0-16h32a8 8 0 0 1 8 8z"/></defs></svg>