<svg xmlns="http://www.w3.org/2000/svg" xmlns:xlink="http://www.w3.org/1999/xlink" width="643" height="408" fill-rule="evenodd" stroke-linecap="round" stroke-linejoin="round" stroke-miterlimit="1.5" xmlns:v="https://vecta.io/nano"><style><![CDATA[.B{fill-rule:nonzero}.C{stroke-width:2}.D{stroke-miterlimit:2}.E{stroke-width:1.013}.F{stroke-width:2.23}]]></style><circle cx="215.438" cy="97" r="96" fill="#d3e8fd" stroke="#0963bd" class="C"/><g fill="#0963bd" stroke="#1461b6" class="B D E"><use xlink:href="#B"/><use xlink:href="#C"/><use xlink:href="#D"/><use xlink:href="#E"/><use xlink:href="#F"/><use xlink:href="#G"/><path d="M203.591 90.167v1.762l.02 2.876.162 2.552c.142 1.478.385 2.673.729 3.625.365 1.033.83 1.681 1.397 1.985.668.365 1.296.263 1.863-.284.527-.527.932-1.296 1.235-2.329.304-.952.506-2.045.628-3.281l.142-3.342-.162-3.443a.62.62 0 0 1 .162-.486c.122-.142.284-.203.466-.223s.324.041.486.162c.142.122.203.284.223.466l.182 3.504c.02 1.033-.041 2.207-.162 3.504-.142 1.316-.365 2.491-.668 3.544-.385 1.235-.911 2.187-1.6 2.876-.304.304-.608.527-.952.689-.344.142-.729.223-1.154.203a3.05 3.05 0 0 1-1.337-.385c-.851-.466-1.519-1.357-2.005-2.714-.365-1.033-.628-2.329-.79-3.929l-.162-2.572-.041-2.977v-1.782c0-.182.061-.324.203-.466.122-.142.284-.203.466-.203.162 0 .324.061.466.182a.66.66 0 0 1 .203.486z"/><use xlink:href="#H"/><use xlink:href="#E" x="48.503"/><use xlink:href="#I"/><use xlink:href="#J"/><path d="M250.92 95.858l4.536-.365c.182 0 .344.061.486.182s.203.284.203.466-.061.344-.182.486-.284.203-.466.203c-.952.02-2.43.142-4.415.365h-.142l-.02 5.326 5.954-.324c.182 0 .344.061.486.182s.203.284.203.466-.061.344-.182.486-.284.203-.466.203l-2.005.081-2.41.142-2.025.142c-.081.02-.162.041-.263.041-.182-.02-.344-.081-.466-.223-.142-.142-.203-.284-.182-.466l.081-3.099-.041-3.443-.101-2.977-.162-3.301c-.02-.182.041-.344.182-.486.122-.142.263-.203.446-.223.061 0 .142 0 .203.02l6.116-.506c.182-.02.324.041.466.162a.72.72 0 0 1 .223.466.62.62 0 0 1-.162.486c-.142.142-.304.203-.486.223l-5.63.466.203 4.82h.02z"/><use xlink:href="#C" x="106.485"/><use xlink:href="#K"/><use xlink:href="#L"/></g><g transform="matrix(.763106 0 0 1 -272.621 -240)"><path d="M519.397 308.215H363V363h156.438" fill="none" stroke="#0963bd" transform="matrix(1.02539 0 0 1 -13.6532 1.39258)" class="F"/><g fill="#0963bd" class="B"><path d="M383.379 336.291l5.871-.36a1.12 1.12 0 0 1 .629.18c.183.12.262.28.262.46s-.079.34-.236.48-.367.2-.603.2l-5.713.36h-.183l-.026 5.26 7.705-.32a1.12 1.12 0 0 1 .629.18c.183.12.262.28.262.46s-.079.34-.236.48-.367.2-.603.2l-2.595.08-3.119.14-2.621.14a1.71 1.71 0 0 1-.341.04c-.236-.02-.446-.08-.603-.22-.183-.14-.262-.28-.236-.46l.105-3.06-.052-3.4-.131-2.94-.21-3.26c-.026-.18.052-.34.236-.48.157-.14.341-.2.577-.22a1.16 1.16 0 0 1 .262.02l7.915-.5a.9.9 0 0 1 .603.16c.183.14.262.28.288.46s-.052.34-.21.48c-.183.14-.393.2-.629.22l-7.286.46.262 4.76h.026zm11.374-1.4l.157 1.3.183 1.38a2.37 2.37 0 0 1 .026.44l.629-1.04c.55-.82 1.127-1.38 1.73-1.7a2.66 2.66 0 0 1 1.389-.32c.498.04.97.22 1.389.56.315.26.577.68.812 1.28.131.34.236.74.367 1.2a8.48 8.48 0 0 1 .786-1.26c.498-.72.996-1.28 1.494-1.68.76-.58 1.52-.8 2.306-.7.498.06.944.3 1.284.7.262.28.472.66.655 1.12.288.74.472 1.7.577 2.9.079.62.105 1.3.131 2.06l.026 1.78a7.95 7.95 0 0 0 0 1.12c0 .18-.079.34-.236.48-.183.14-.367.2-.603.2a1.12 1.12 0 0 1-.629-.18c-.183-.14-.262-.28-.262-.46a7.95 7.95 0 0 1 0-1.12l-.026-1.74-.105-2.04c-.131-1.14-.288-2.02-.524-2.64-.131-.34-.288-.58-.419-.74-.026-.06-.079-.08-.105-.1l-.079-.06c-.183-.02-.419.1-.76.36-.393.3-.786.74-1.206 1.36-.367.5-.681 1.04-.944 1.6-.288.56-.446.98-.524 1.24-.079.38-.131 1.14-.131 2.24a1.3 1.3 0 0 0 .026.26l.052.38c.026.18.026.3 0 .4-.026.08-.052.16-.105.24-.183.3-.498.42-.917.36a.97.97 0 0 1-.577-.26c-.026-.04-.079-.08-.131-.14l-.079-.2v-.14c-.026-.06-.026-.14-.026-.24-.026-.14-.026-.36-.052-.64v-.42c-.026-.18-.052-.54-.052-.56-.105-.98-.262-1.9-.446-2.8-.131-.6-.288-1.1-.419-1.5-.157-.4-.288-.64-.419-.74s-.21-.14-.288-.16c-.052 0-.131.02-.236.08-.367.18-.76.6-1.179 1.24a10.92 10.92 0 0 0-.996 1.78l-.577 1.44c-.131.5-.21 1.1-.288 1.82-.026.06 0 .26.026.58a1.75 1.75 0 0 1 .026.28v.1a.57.57 0 0 1-.052.2c-.105.2-.315.34-.603.4-.367.08-.655 0-.891-.24l-.157-.2v-.08c-.026-.02-.026-.04-.026-.06-.183-.76-.288-1.88-.315-3.36l-.079-2.6-.157-1.36-.183-1.28c-.026-.18.052-.36.21-.5s.367-.2.603-.22a.97.97 0 0 1 .629.16.59.59 0 0 1 .288.44zm16.721 9.16l.026 3c0 .18-.079.32-.262.46a1.04 1.04 0 0 1-.603.18c-.262 0-.446-.06-.603-.2-.183-.14-.262-.3-.262-.48v-3.1l-.052-2.88.026-2.1c0-.64-.026-1.32-.105-2.04a18.01 18.01 0 0 0-.262-2.04.54.54 0 0 1 .183-.5.9.9 0 0 1 .577-.26c.21-.02.446.02.629.12.183.12.315.26.341.44l.157.98c.76-.78 1.625-1.22 2.595-1.3.76-.06 1.441.08 2.07.42a4.81 4.81 0 0 1 1.573 1.36 5.68 5.68 0 0 1 .865 1.78c.183.66.236 1.34.183 2.02-.079.7-.341 1.36-.812 2-.498.64-1.153 1.16-2.018 1.56a5.14 5.14 0 0 1-1.441.46c-.498.1-.97.16-1.415.14-.446 0-.891 0-1.389-.02zm-.026-1.32c.681.06 1.31.06 1.861 0a4.26 4.26 0 0 0 1.52-.38c.76-.36 1.31-.88 1.651-1.56a3.38 3.38 0 0 0 .341-2.08c-.105-.7-.367-1.36-.812-1.94-.288-.42-.629-.72-.97-.9a1.86 1.86 0 0 0-.996-.22c-.367.02-.786.22-1.206.58-.472.38-.891.98-1.337 1.8l-.052.08v2.92 1.7z"/><use xlink:href="#M"/><path d="M439.911 334.571l-.079 2.92-.079 3.48.026 2.76.157 3.3c.026.18-.052.34-.21.48s-.367.2-.603.22a.97.97 0 0 1-.629-.16c-.183-.12-.262-.28-.288-.46l-.183-4.36c-.262.24-.55.44-.839.62a5.16 5.16 0 0 1-2.228.72 3.93 3.93 0 0 1-2.07-.38 3.79 3.79 0 0 1-1.415-1.18c-.367-.48-.603-1.04-.681-1.64-.131-.92.079-1.94.629-3.04.524-1.1 1.206-1.98 2.07-2.64 1.101-.86 2.202-1.16 3.328-.92.498.1.944.32 1.363.64v-.4c0-.18.079-.32.262-.46a1.12 1.12 0 0 1 .629-.18.93.93 0 0 1 .603.2c.157.14.236.3.236.48zm-1.861 2.86c-.498-1.1-1.075-1.72-1.704-1.86-.446-.1-.996.08-1.625.56-.681.54-1.258 1.28-1.677 2.18-.446.92-.629 1.72-.524 2.42a2.36 2.36 0 0 0 .446 1.14c.236.34.498.58.839.72.708.34 1.468.24 2.333-.26.681-.42 1.31-1.18 1.861-2.32.026-.02.026-.04.052-.06l.052-2.42c-.026-.04-.026-.08-.052-.1zm4.901-2.66c-.026.14-.052.46-.105.96l-.157 1.26-.105 1.42c-.026.62-.026 1.1.026 1.48.079 1.04.288 1.84.655 2.38a1.8 1.8 0 0 0 1.494.8c.367 0 .734-.16 1.101-.5.393-.34.76-.86 1.101-1.56.472-.9.865-2.08 1.153-3.52l.315-1.62.105-.62c.026-.1.026-.16.026-.2 0-.02 0-.06.026-.08v-.04l.052-.12a.38.38 0 0 1 .131-.14c.183-.16.446-.24.734-.22s.524.12.681.3c.026.06.079.12.105.18.026.04.026.08.026.12v.06c0 3.22.315 6 .917 8.38.052.18.026.34-.105.48-.131.16-.341.26-.577.3a1.39 1.39 0 0 1-.655-.1c-.21-.12-.341-.26-.367-.44a21.18 21.18 0 0 1-.603-2.88c-.079.22-.183.42-.288.62-.419.82-.891 1.48-1.389 1.94-.734.66-1.573 1-2.542.98-1.337-.02-2.333-.54-3.014-1.54-.498-.7-.786-1.66-.865-2.88-.052-.4-.052-.92-.026-1.58l.105-1.52.157-1.3.105-.92c.026-.18.131-.32.315-.44a1.05 1.05 0 0 1 .655-.16c.236.02.419.08.603.22.157.14.236.32.21.5z"/><use xlink:href="#N"/><use xlink:href="#O"/><use xlink:href="#M" x="53.806"/><use xlink:href="#P"/></g></g><circle cx="215.876" cy="311" r="96" fill="#fefdae" stroke="#6f6d01" class="C"/><g fill="#6f6d01" stroke="#706d00" class="B D E"><path d="M181.509 304.025l.101 6.562 4.698-.365-.243-6.42a.66.66 0 0 1 .203-.486.64.64 0 0 1 .466-.182c.182 0 .344.061.486.182.122.142.182.304.182.486l.243 6.42c.243.101.365.304.385.567.02.243-.081.446-.284.587l.749 5.893c.02.182-.02.365-.122.506-.122.142-.263.243-.446.263-.203.02-.365-.02-.506-.122-.142-.122-.243-.263-.263-.446l-.729-5.914-4.82.365-.02 1.256.041 2.167.02 2.228c0 .182-.061.344-.203.466s-.304.182-.486.182-.344-.061-.466-.203-.182-.304-.182-.486c.02-.466 0-1.175-.02-2.147l-.041-2.207.02-1.134h-.061a.62.62 0 0 1-.486-.162c-.142-.122-.223-.284-.243-.466a.62.62 0 0 1 .162-.486c.122-.122.263-.203.446-.223l.182-.02-.101-6.582a.62.62 0 0 1 .162-.486c.122-.142.284-.203.466-.223a.62.62 0 0 1 .486.162c.142.122.203.284.223.466z"/><use xlink:href="#B" x="46.066" y="214"/><use xlink:href="#Q"/><use xlink:href="#B" x="65.082" y="214"/><use xlink:href="#C" x="65.082" y="214"/><use xlink:href="#D" x="65.082" y="214"/><use xlink:href="#J" x="-9.181" y="214"/><use xlink:href="#E" x="67.695" y="214"/></g><g transform="matrix(.763106 0 0 1 -272.183 -26)"><path d="M519.397 308.215H363V363h156.438" fill="none" stroke="#706d00" transform="matrix(1.02539 0 0 1 -13.6532 1.39258)" class="F"/><g fill="#706d00" class="B"><path d="M396.037 337.331c1.494-.28 2.857-.76 4.062-1.44 1.179-.68 1.913-1.48 2.202-2.42.21-.74-.157-1.28-1.101-1.66-.446-.18-.97-.3-1.573-.36s-1.127-.06-1.599.02c-.603.1-1.022.2-1.258.3-.105.04-.262.1-.446.2l-.341.16.052 5.2zm1.441 1.06l8.465 4.92c.183.1.315.24.367.42s0 .34-.105.5c-.131.14-.315.24-.55.28s-.446.02-.655-.08c-2.49-1.22-5.478-2.98-8.99-5.26v.4c0 .42.026 1.12.052 2.14.026.98.052 1.7.026 2.2 0 .18-.079.34-.262.46s-.393.18-.629.18-.446-.06-.603-.2-.236-.3-.236-.48c.026-.46 0-1.16-.026-2.12l-.052-2.18-.105-8.96c-.026-.18.052-.34.21-.48s.367-.2.603-.22a.97.97 0 0 1 .629.16c.183.12.262.28.288.46v.08l.079-.02c.393-.16.97-.3 1.677-.4.655-.12 1.363-.14 2.175-.06s1.52.24 2.175.5c.76.3 1.31.72 1.704 1.26s.472 1.16.262 1.86c-.315 1.12-1.075 2.08-2.306 2.86s-2.621 1.38-4.193 1.78z"/><use xlink:href="#N" x="-45.026"/><path d="M420.464 334.771c-.026.14-.052.46-.105.96l-.157 1.26-.105 1.42c-.026.62-.026 1.1.026 1.48.079 1.04.288 1.84.655 2.38a1.8 1.8 0 0 0 1.494.8c.367 0 .734-.16 1.101-.5.393-.34.76-.86 1.101-1.56.472-.9.865-2.08 1.153-3.52l.315-1.62.105-.62c.026-.1.026-.16.026-.2 0-.02 0-.06.026-.08v-.04l.052-.12c.026-.06.079-.1.131-.14.183-.16.446-.24.734-.22s.524.12.681.3c.026.06.079.12.105.18.026.04.026.08.026.12v.06c0 3.22.315 6 .917 8.38.052.18.026.34-.105.48-.131.16-.341.26-.577.3a1.39 1.39 0 0 1-.655-.1c-.21-.12-.341-.26-.367-.44-.262-.94-.472-1.9-.603-2.88-.079.22-.183.42-.288.62-.419.82-.891 1.48-1.389 1.94-.734.66-1.573 1-2.542.98-1.337-.02-2.333-.54-3.014-1.54-.498-.7-.786-1.66-.865-2.88-.052-.4-.052-.92-.026-1.58l.105-1.52.157-1.3.105-.92c.026-.18.131-.32.315-.44a1.05 1.05 0 0 1 .655-.16c.236.02.419.08.603.22.157.14.236.32.21.5z"/><use xlink:href="#O" x="-33.81"/><use xlink:href="#R"/><use xlink:href="#S"/><use xlink:href="#R" x="6.867"/><path d="M451.495 334.191l.891.02.97.02c.183.02.472.02.812.02l.917-.04.786-.06c.026 0 .105 0 .236-.02l.446-.06.472-.06.734-.08c.131-.02.262-.02.341-.02a.94.94 0 0 1 .236.02c.262.04.446.14.577.32.131.14.157.3.131.48l-.079.2c-.026.08-.079.18-.157.3l-.577.78-1.782 2.2-3.04 3.62-1.153 1.22 2.228-.06 4.875-.14c.236 0 .446.06.603.2s.236.3.236.48-.079.34-.262.46-.393.18-.629.18l-4.744.14-2.778.08h-1.258c-.052-.02-.105-.02-.157-.02-.183-.02-.341-.08-.498-.2-.21-.18-.288-.38-.21-.62l.079-.16a.43.43 0 0 1 .105-.12 1.39 1.39 0 0 1 .157-.18l.55-.52 1.389-1.46 3.066-3.6 1.704-2.12-.577.08-.944.06-1.022.04h-.891l-.996-.04-.839-.02c-.236 0-.446-.06-.603-.2s-.236-.3-.236-.48.079-.34.262-.46.393-.18.629-.18z"/><use xlink:href="#M" x="41.567"/><use xlink:href="#P" x="-12.239"/></g></g><circle cx="427.029" cy="311" r="96" fill="#b7fdad" stroke="#1d760c" class="C"/><g fill="#1d760c" stroke="#1d760f" class="B D E"><use xlink:href="#F" x="188.088" y="214"/><use xlink:href="#L" x="103.517" y="214"/><use xlink:href="#H" x="180.231" y="214"/><use xlink:href="#J" x="154.471" y="214"/><use xlink:href="#I" x="170.693" y="214"/><use xlink:href="#L" x="139.545" y="214"/><use xlink:href="#Q" x="230.017"/><path d="M440.102 309.858l4.536-.365c.182 0 .344.061.486.182s.203.284.203.466-.061.344-.182.486-.284.203-.466.203c-.952.02-2.43.142-4.415.365h-.142l-.041 6.096c-.02.182-.081.344-.223.486-.142.122-.284.182-.466.162s-.344-.081-.466-.223c-.142-.142-.203-.284-.182-.466l.081-3.099-.041-3.443-.101-2.977-.162-3.301c-.02-.182.041-.344.182-.486.122-.142.263-.203.446-.223a.69.69 0 0 1 .203.02l6.116-.506c.182-.02.324.041.466.162a.72.72 0 0 1 .223.466.62.62 0 0 1-.162.486c-.142.142-.304.203-.486.223l-5.63.466.203 4.82h.02z"/><use xlink:href="#J" x="199.328" y="214"/><use xlink:href="#G" x="255.366" y="214"/><use xlink:href="#I" x="224.482" y="214"/><use xlink:href="#L" x="193.334" y="214"/></g><g transform="matrix(.763106 0 0 1 245.408 -26)"><path d="M519.397 308.215H363V363h156.438" fill="none" stroke="#1d760f" transform="matrix(-1.02539 0 0 1 891.187 1.39258)" class="F"/><g fill="#1d760f" class="B"><path d="M418.367 333.571c0-.42-.105-.82-.315-1.22-.236-.38-.524-.7-.865-.92-.681-.44-1.389-.38-2.123.16-.367.26-.708.66-1.022 1.18-.341.52-.577 1.04-.76 1.54-.367 1.08-.524 2.36-.498 3.84.052 1.64.367 2.82.917 3.56.603.78 1.415 1.28 2.385 1.46a3.41 3.41 0 0 0 2.726-.64c.97-.7 1.782-1.88 2.464-3.58.079-.18.21-.3.446-.4a1.04 1.04 0 0 1 .655-.04c.236.06.393.16.524.32.105.18.131.34.052.52-.76 1.9-1.756 3.28-2.935 4.14-1.284.94-2.726 1.26-4.324.96-1.441-.26-2.595-.96-3.46-2.06-.734-.94-1.127-2.34-1.179-4.2-.026-1.6.157-3 .55-4.2.21-.6.498-1.22.891-1.84s.839-1.14 1.363-1.52c.498-.36 1.022-.6 1.573-.72s1.048-.14 1.546-.04c.472.1.917.28 1.337.56a4.22 4.22 0 0 1 1.31 1.38c.315.58.472 1.16.472 1.76 0 .18-.079.34-.236.46a1 1 0 0 1-.629.2c-.236 0-.446-.06-.603-.2-.183-.12-.262-.28-.262-.46z"/><use xlink:href="#P" x="-60.725"/><use xlink:href="#N" x="-19.316"/><use xlink:href="#M" x="24.741"/><use xlink:href="#P" x="-29.065"/></g></g><circle cx="427.029" cy="97" r="96" fill="#f4b6d5" stroke="#6e113f" class="C"/><g fill="#6e113f" stroke="#6d1240" class="B D E"><use xlink:href="#E" x="201.657"/><path d="M387.852 92.132l.304 3.888c.041-.02.081-.02.101-.041.02 0 .041 0 .061-.02h.041c.02 0 .02 0 .041-.02l.182-.122.263-.122c.02-.02.041-.02.061-.041h.041l.041-.041h.041l.041-.041.061-.061.567-.425 2.005-1.64c.628-.668.871-1.296.77-1.843-.081-.527-.567-.77-1.478-.749-.425.02-.871.081-1.337.223s-.81.284-1.073.466c-.041.02-.284.223-.729.587zm.405 5.529l.162 4.678h.061a5.94 5.94 0 0 0 2.957-.344c.952-.365 1.661-.749 2.106-1.175.992-.952 1.316-1.904.972-2.876-.263-.709-.851-1.134-1.762-1.296-.83-.142-1.721-.081-2.694.203-.446.122-.891.304-1.337.567l-.425.223c-.02.02-.02.02-.041.02zm3.463-2.43c.446-.02.871.02 1.256.101 1.438.243 2.369.972 2.795 2.167.284.79.284 1.539.02 2.288s-.709 1.418-1.337 2.005c-.547.506-1.296.972-2.228 1.357-.932.405-2.207.587-3.828.527-.02 0-.061 0-.101-.02-.122.203-.304.304-.547.304a.64.64 0 0 1-.466-.182.66.66 0 0 1-.203-.486c0-3.321-.243-7.594-.729-12.799-.02-.182.041-.365.162-.506.101-.142.263-.203.446-.223s.365.041.506.142c.142.122.203.284.223.466l.02.162a.88.88 0 0 1 .142-.122c.344-.223.81-.425 1.397-.608s1.154-.263 1.701-.284a3.25 3.25 0 0 1 .891.061c.263.061.547.142.83.263a1.79 1.79 0 0 1 .729.567c.203.263.344.587.405.952.162.992-.223 2.005-1.134 2.997a10.37 10.37 0 0 1-.952.871z"/><use xlink:href="#G" x="203.096"/><use xlink:href="#K" x="136.406"/><path d="M416.185 96.911c1.154-.284 2.207-.77 3.139-1.458.911-.689 1.478-1.499 1.701-2.45.162-.749-.122-1.296-.851-1.681-.344-.182-.749-.304-1.215-.365s-.871-.061-1.235.02c-.466.101-.79.203-.972.304-.081.041-.203.101-.344.203l-.263.162.041 5.266zm1.114 1.073c2.531 2.147 4.698 3.807 6.541 4.982a.7.7 0 0 1 .284.425c.041.182 0 .344-.081.506a.7.7 0 0 1-.425.284.64.64 0 0 1-.506-.081c-1.924-1.235-4.233-3.018-6.946-5.326v.405l.041 2.167.02 2.228c0 .182-.061.344-.203.466s-.304.182-.486.182-.344-.061-.466-.203-.182-.304-.182-.486c.02-.466 0-1.175-.02-2.147l-.041-2.207-.081-9.073a.62.62 0 0 1 .162-.486c.122-.142.284-.203.466-.223a.62.62 0 0 1 .486.162c.142.122.203.284.223.466v.081l.061-.02c.304-.162.749-.304 1.296-.405.506-.122 1.053-.142 1.681-.061s1.175.243 1.681.506a3.08 3.08 0 0 1 1.316 1.276c.304.547.365 1.175.203 1.883-.243 1.134-.83 2.106-1.782 2.896s-2.025 1.397-3.24 1.802z"/><use xlink:href="#E" x="251.943"/><use xlink:href="#D" x="274.118"/><use xlink:href="#D" x="284.144"/><use xlink:href="#J" x="209.88"/><path d="M463.979 90.572c-.182.02-.304.041-.405.081-.871.344-1.559 1.134-2.066 2.39-.486 1.235-.709 2.633-.648 4.192.061 1.6.405 2.896.992 3.929.628 1.073 1.438 1.64 2.45 1.701 1.073.081 1.944-.466 2.613-1.64.668-1.195 1.013-2.653.992-4.415s-.385-3.24-1.134-4.435c-.709-1.134-1.64-1.742-2.795-1.802zm.83-1.235c1.276.284 2.309 1.053 3.099 2.329.871 1.397 1.316 3.099 1.337 5.144.02 1.985-.385 3.686-1.175 5.083a5.05 5.05 0 0 1-1.62 1.762c-.668.425-1.397.608-2.228.547-1.478-.101-2.653-.891-3.524-2.369-.709-1.235-1.114-2.734-1.175-4.536-.061-1.742.182-3.321.749-4.739.648-1.62 1.58-2.673 2.815-3.159l.182-.061c.101-.061.223-.101.344-.101h.304c.041 0 .263-.02.304-.02.02 0 .041 0 .061-.02.182-.02.365.02.527.142zm-2.714-1.58c.709-.385 1.458-.891 2.248-1.519.142-.101.324-.162.506-.142.182.041.324.122.446.243.101.142.162.304.142.486s-.101.344-.243.466c-.871.668-1.681 1.215-2.45 1.64-.162.101-.344.122-.506.061-.182-.061-.324-.162-.405-.324-.101-.162-.122-.324-.061-.527.061-.182.162-.304.324-.385z"/><use xlink:href="#C" x="317.762"/></g><g transform="matrix(.763106 0 0 1 245.408 -240)"><path d="M519.397 308.215H363V363h156.438" fill="none" stroke="#6d1240" transform="matrix(-1.02539 0 0 1 891.187 1.39258)" class="F"/><g fill="#6d1240" class="B"><path d="M392.905 333.591c-.341-.74-.734-1.3-1.179-1.72s-.839-.66-1.232-.74c-.341-.06-.734.04-1.179.3-.472.26-.97.8-1.468 1.62-.393.62-.708 1.42-.944 2.36s-.315 1.9-.288 2.88c.026 1.04.236 1.96.629 2.74.367.8.891 1.38 1.573 1.76.76.42 1.468.48 2.149.2s1.363-.84 2.018-1.7c.524-.7.97-1.5 1.337-2.38l.262-.68h-.079l-1.887-.02h-1.363l-1.284.04-.629.02a1 1 0 0 1-.629-.2c-.183-.12-.262-.28-.262-.46s.079-.32.262-.46c.157-.14.341-.2.577-.2l.655-.02 1.284-.04h1.363l2.018.02.786.06c.131.02.262.04.341.08.262.06.446.18.55.34a.7.7 0 0 1 .131.52c-.026.1-.052.24-.079.38-.079.3-.183.64-.367 1.02-.393.96-.891 1.84-1.494 2.64-.812 1.06-1.704 1.8-2.673 2.2-1.337.54-2.647.46-3.984-.28a4.96 4.96 0 0 1-2.149-2.3c-.472-.98-.734-2.06-.786-3.24a10.8 10.8 0 0 1 .315-3.18c.262-1.06.629-1.94 1.075-2.66.629-.98 1.337-1.72 2.123-2.18s1.625-.62 2.516-.46c1.468.28 2.673 1.36 3.617 3.26.079.18.079.34-.026.5-.105.18-.262.3-.472.36-.236.06-.446.06-.655-.02-.236-.08-.393-.2-.472-.36z"/><use xlink:href="#N" x="-54.606"/><path d="M410.649 337.991c.288-.42.603-.8.944-1.16.76-.86 1.546-1.5 2.333-1.9 1.101-.56 2.123-.62 3.093-.18.629.28 1.127.88 1.494 1.82.288.68.498 1.54.655 2.6.236 1.54.315 3.08.288 4.62 0 .18-.079.32-.262.46a1.1 1.1 0 0 1-.603.18c-.236 0-.446-.06-.603-.2-.183-.14-.262-.3-.262-.48.026-1.42-.052-2.9-.288-4.42-.131-1-.341-1.78-.577-2.36-.236-.62-.498-.98-.734-1.1-.341-.14-.76-.1-1.258.16-.577.3-1.206.82-1.861 1.56-.577.66-1.075 1.34-1.52 2.06-.446.74-.681 1.28-.734 1.62-.052.24-.079.58-.105 1.02l-.079 1.14c0 .02 0 .06-.026.08v.04c0 .06-.026.1-.052.16-.052.06-.105.12-.183.18-.236.18-.498.24-.812.18a.87.87 0 0 1-.55-.3l-.079-.16-.026-.14c-.026-.02-.026-.04-.026-.08s0-.14.026-.28l.026-.72.052-1.12.026-1.32v-.86-.92c-.026-.16-.026-.44-.052-.82l-.052-.92-.105-.78-.183-.86c-.052-.18 0-.34.131-.5.131-.14.315-.24.55-.28a1.5 1.5 0 0 1 .655.1c.183.1.315.26.341.44.236.9.393 2.06.419 3.44z"/><use xlink:href="#N" x="-31.699"/><use xlink:href="#P" x="-52.771"/><use xlink:href="#M" x="21.373"/><use xlink:href="#S" x="9.213"/><use xlink:href="#R" x="16.079"/><path d="M460.707 334.191l.891.02.97.02c.183.02.472.02.812.02l.917-.04.786-.06c.026 0 .105 0 .236-.02l.446-.06.472-.06.734-.08c.131-.02.262-.02.341-.02a.94.94 0 0 1 .236.02c.262.04.446.14.577.32.131.14.157.3.131.48l-.079.2c-.026.08-.079.18-.157.3l-.577.78-1.782 2.2-3.04 3.62-1.153 1.22 2.228-.06 4.875-.14c.236 0 .446.06.603.2s.236.3.236.48-.079.34-.262.46-.393.18-.629.18l-4.744.14-2.778.08h-1.258c-.052-.02-.105-.02-.157-.02-.183-.02-.341-.08-.498-.2-.21-.18-.288-.38-.21-.62l.079-.16c.026-.04.052-.08.105-.12a1.39 1.39 0 0 1 .157-.18l.55-.52 1.389-1.46 3.066-3.6 1.704-2.12-.577.08-.944.06-1.022.04h-.891l-.996-.04-.839-.02c-.236 0-.446-.06-.603-.2s-.236-.3-.236-.48.079-.34.262-.46.393-.18.629-.18z"/><use xlink:href="#M" x="50.779"/><use xlink:href="#P" x="-3.027"/></g></g><defs ><path id="B" d="M144.435 95.858l4.536-.365c.182 0 .344.061.486.182s.203.284.203.466-.061.344-.182.486-.284.203-.466.203c-.952.02-2.43.142-4.415.365h-.142l-.02 5.326 5.954-.324c.182 0 .344.061.486.182s.203.284.203.466-.061.344-.182.486-.284.203-.466.203l-2.005.081-2.41.142-2.025.142c-.081.02-.162.041-.263.041-.182-.02-.344-.081-.466-.223-.142-.142-.203-.284-.182-.466l.081-3.099-.041-3.443-.101-2.977-.162-3.301c-.02-.182.041-.344.182-.486.122-.142.263-.203.446-.223a.69.69 0 0 1 .203.02l6.116-.506c.182-.02.324.041.466.162a.72.72 0 0 1 .223.466.62.62 0 0 1-.162.486c-.142.142-.304.203-.486.223l-5.63.466.203 4.82h.02z"/><path id="C" d="M152.556 103.412l.081-2.815v-3.524l-.02-2.815v-3.382c.02-.162.02-.284.02-.385.02-.101.061-.182.101-.263a.56.56 0 0 1 .304-.304c.182-.101.385-.101.587 0 .243.101.486.344.729.689.142.223.304.506.486.871l.405.871.263.587c1.6 3.018 3.159 5.59 4.638 7.696.02.02.162.223.425.648l-.304-2.471-.223-3.645-.041-2.633-.041-2.754c0-.182.061-.344.182-.486s.284-.203.466-.203.344.061.486.182.203.284.203.466l.041 2.754.041 2.633.223 3.605c0 .101.101.911.284 2.45l.182 1.458.061.506v.284c0 .041 0 .081-.02.101-.02.162-.101.284-.243.385-.284.223-.587.223-.911.02-.122-.061-.243-.182-.365-.324-.182-.182-.385-.466-.648-.83l-.527-.83-.365-.547c-1.519-2.167-3.099-4.779-4.719-7.858a5.33 5.33 0 0 1-.304-.648l-.081-.162v1.519l.02 2.835v3.564l-.081 2.835a.72.72 0 0 1-.223.466c-.142.122-.304.182-.466.162-.182-.02-.344-.081-.466-.223-.142-.142-.203-.304-.182-.486z"/><path id="D" d="M168.596 93.104c0-.425-.081-.83-.243-1.235-.182-.385-.405-.709-.668-.932-.527-.446-1.073-.385-1.64.162-.284.263-.547.668-.79 1.195-.263.527-.446 1.053-.587 1.559-.284 1.094-.405 2.39-.385 3.888.041 1.661.284 2.856.709 3.605.466.79 1.094 1.296 1.843 1.478.77.182 1.478-.041 2.106-.648.749-.709 1.377-1.904 1.904-3.625.061-.182.162-.304.344-.405.162-.081.324-.101.506-.041s.304.162.405.324c.081.182.101.344.041.527-.587 1.924-1.357 3.321-2.268 4.192-.992.952-2.106 1.276-3.342.972-1.114-.263-2.005-.972-2.673-2.086-.567-.952-.871-2.369-.911-4.253-.02-1.62.122-3.038.425-4.253a10.46 10.46 0 0 1 .689-1.863c.304-.628.648-1.154 1.053-1.539.385-.365.79-.608 1.215-.729s.81-.142 1.195-.041c.365.101.709.284 1.033.567.425.365.749.83 1.013 1.397a4.6 4.6 0 0 1 .365 1.782.64.64 0 0 1-.182.466.66.66 0 0 1-.486.203c-.182 0-.344-.061-.466-.203-.142-.122-.203-.284-.203-.466z"/><path id="E" d="M175.522 99.017l4.395-.142-1.458-4.941-.527-2.086-.446 1.276-1.964 5.893zm-.446 1.357l-1.053 3.402c-.061.182-.162.304-.324.405-.162.081-.324.101-.506.061-.182-.061-.304-.162-.385-.324a.64.64 0 0 1-.081-.506l.972-3.139c-.142-.122-.223-.284-.243-.466a.62.62 0 0 1 .162-.486c.122-.142.284-.203.466-.223l.689-2.025.79-2.349.668-2.005.628-1.823.385-1.013.142-.344a.33.33 0 0 1 .061-.122c.02-.041.041-.081.061-.101.041-.061.081-.101.122-.122.142-.142.324-.182.527-.162.162.02.304.101.405.243.041.02.061.061.081.101s.041.081.061.101c.02.041.02.101.041.162l.101.365.304 1.154.608 2.45 1.6 5.326c.263.101.405.304.405.608 0 .101-.02.203-.061.284.689 1.762 1.418 3.119 2.187 4.05a.62.62 0 0 1 .162.486.78.78 0 0 1-.223.466c-.142.101-.324.162-.506.142s-.344-.101-.446-.243c-.871-1.053-1.701-2.552-2.471-4.516l-5.326.162z"/><path id="F" d="M186.499 98.268v.911l.041 2.167.02 2.228c0 .182-.061.344-.203.466s-.304.182-.486.182-.344-.061-.466-.203-.182-.304-.182-.486c.02-.466 0-1.175-.02-2.147l-.041-2.207-.081-9.073a.62.62 0 0 1 .162-.486c.122-.142.284-.203.466-.223a.62.62 0 0 1 .486.162c.142.122.203.284.223.466s.02.344.02.527c.304-.304.628-.567.992-.81.446-.284.952-.486 1.539-.608a5.22 5.22 0 0 1 1.681-.041c.608.101 1.154.324 1.62.668a2.89 2.89 0 0 1 .992 1.499c.182.709.203 1.397.061 2.025a4.59 4.59 0 0 1-.81 1.782c-.405.567-.851 1.033-1.357 1.418-.506.405-1.033.729-1.58.952-.648.284-1.681.567-3.078.83zm.02-1.357c1.134-.223 1.985-.466 2.531-.689.992-.425 1.802-1.094 2.41-1.964.587-.871.77-1.762.506-2.633-.182-.689-.689-1.094-1.519-1.215s-1.6.041-2.288.466c-.628.405-1.154 1.013-1.559 1.823-.02.041-.061.081-.081.101v4.111z"/><path id="G" d="M200.553 93.306c-.041-.101-.101-.263-.162-.506l-.162-.527-.162-.425a2.5 2.5 0 0 0-.203-.405l-.243-.284c-.466-.466-1.033-.608-1.701-.425s-1.134.587-1.377 1.235c-.182.466-.02 1.033.446 1.681.081.122.182.243.284.365.101.142.203.243.284.344l.385.385.324.344.446.425.385.385.709.689c.182.182.405.446.668.749l.648.81.486.871c.182.344.304.648.365.952s.101.628.101.972c-.02.365-.061.729-.162 1.094-.203.668-.547 1.175-1.053 1.559s-1.094.608-1.721.689c-.587.061-1.175.02-1.762-.122a4.66 4.66 0 0 1-1.6-.749c-.587-.425-1.033-.992-1.337-1.701-.324-.689-.486-1.397-.547-2.147a.62.62 0 0 1 .162-.486c.122-.142.284-.203.466-.223s.324.041.486.162c.142.122.203.284.223.466a4.88 4.88 0 0 0 .405 1.64c.223.506.527.911.911 1.195a3.33 3.33 0 0 0 1.154.527 3.04 3.04 0 0 0 1.276.101c.871-.101 1.418-.547 1.64-1.316.081-.223.122-.466.122-.689s-.02-.446-.081-.668a5.65 5.65 0 0 0-.243-.689l-.385-.668c-.142-.203-.324-.425-.527-.668l-.628-.689-1.094-1.094-.446-.405-.365-.385-.405-.425-.324-.385c-.142-.142-.243-.284-.344-.425-.749-1.033-.952-2.005-.608-2.916a3.1 3.1 0 0 1 .911-1.316c.405-.365.851-.628 1.357-.77a3.11 3.11 0 0 1 1.559-.041c.547.122 1.013.385 1.438.79.142.142.284.304.405.486.122.203.223.405.324.628s.162.425.223.567c.061.162.122.365.182.608l.122.425c.061.182.061.344-.02.506-.101.162-.223.263-.405.324s-.344.061-.506-.041c-.162-.081-.263-.203-.324-.385z"/><path id="H" d="M213.474 90.349c.263 5.448.344 9.498.243 12.171l5.954-.324c.182 0 .344.061.486.182s.203.284.203.466-.061.344-.182.486-.284.203-.466.203l-2.005.081-2.41.142-2.025.142c-.081.02-.162.041-.263.041-.182-.02-.344-.081-.466-.223-.142-.142-.203-.284-.182-.466l.081-3.099-.041-3.443-.101-2.977-.162-3.301c-.02-.182.041-.344.182-.486.122-.142.284-.203.466-.223s.324.041.466.162a.72.72 0 0 1 .223.466z"/><path id="I" d="M233.604 103.675l-.041-4.881-.061-4.86-.02-1.175-.041-.79v-1.175-.425c.02-.061.02-.122.041-.182.02-.162.081-.304.182-.405.122-.122.263-.182.405-.203s.263 0 .324.041l.182.081c.061.061.122.122.182.203.061.061.122.162.203.304l.425.83.729 1.64c.365.83.851 1.782 1.458 2.835.405.709.749 1.235 1.033 1.58l.081.081.324-.729 1.215-2.835 1.276-2.876.506-.992c.081-.142.162-.243.223-.324.061-.061.101-.122.162-.182a.97.97 0 0 1 .425-.182c.344-.02.608.122.81.446.081.142.142.304.203.527.101.304.182.709.263 1.256l.122.81.081.81.041.385c.466 3.868 1.134 7.331 2.005 10.41.041.182.02.344-.061.506-.101.162-.223.263-.405.324-.182.041-.344.02-.506-.061-.162-.101-.263-.223-.324-.405-.871-3.139-1.559-6.683-2.045-10.612 0-.02 0-.162-.02-.385s-.061-.486-.081-.77l-.122-.81-.041-.223-.02.061-1.276 2.815-1.215 2.835-.405.972c-.061.122-.122.223-.142.304-.02.041-.041.081-.061.101-.02.041-.041.061-.061.081-.061.101-.142.162-.243.203-.344.182-.689.142-1.053-.081-.223-.122-.446-.324-.668-.608-.344-.405-.749-.992-1.175-1.762-.648-1.114-1.154-2.106-1.519-2.977l-.081-.182c.02.527.02.83.02.911l.061 4.86.041 4.881c0 .182-.061.344-.182.486-.142.122-.304.182-.486.182a.64.64 0 0 1-.466-.182.66.66 0 0 1-.203-.486z"/><path id="J" d="M248.53 90.025c.061.992.081 4.03.081 9.154l.041 2.167.02 2.228c0 .182-.061.344-.203.466s-.304.182-.486.182-.344-.061-.466-.203-.182-.304-.182-.486c.02-.466 0-1.175-.02-2.147l-.041-2.207-.081-9.073a.62.62 0 0 1 .162-.486c.122-.142.284-.203.466-.223a.62.62 0 0 1 .486.162c.142.122.203.284.223.466z"/><path id="K" d="M269.369 89.641c1.762.061 4.516-.041 8.263-.263a.62.62 0 0 1 .486.162c.142.122.203.263.223.446s-.041.344-.162.466c-.122.142-.284.203-.466.223l-3.645.203c.365 5.225.506 9.437.425 12.637 0 .162-.061.304-.203.446-.142.122-.284.182-.466.182a.56.56 0 0 1-.466-.203c-.142-.142-.203-.284-.203-.466.081-3.18-.061-7.351-.405-12.556a65.55 65.55 0 0 1-3.423.02c-.182 0-.344-.061-.466-.203a.64.64 0 0 1-.182-.466c0-.182.061-.344.203-.466.142-.101.304-.162.486-.162z"/><path id="L" d="M282.756 90.572c-.182.02-.304.041-.405.081-.871.344-1.559 1.134-2.066 2.39-.486 1.235-.709 2.633-.648 4.192.061 1.6.405 2.896.992 3.929.628 1.073 1.438 1.64 2.45 1.701 1.073.081 1.944-.466 2.613-1.64.668-1.195 1.013-2.653.992-4.415s-.385-3.24-1.134-4.435c-.709-1.134-1.64-1.742-2.795-1.802zm.83-1.235c1.276.284 2.309 1.053 3.099 2.329.871 1.397 1.316 3.099 1.337 5.144.02 1.985-.385 3.686-1.175 5.083a5.05 5.05 0 0 1-1.62 1.762c-.668.425-1.397.608-2.228.547-1.478-.101-2.653-.891-3.524-2.369-.709-1.235-1.114-2.734-1.175-4.536-.061-1.742.182-3.321.749-4.739.648-1.62 1.58-2.673 2.815-3.159l.182-.061c.101-.061.223-.101.344-.101h.304c.041 0 .263-.02.304-.02.02 0 .041 0 .061-.02.182-.02.365.02.527.142z"/><path id="M" d="M427.042 341.711c-.498-.9-.865-1.5-1.127-1.76-.577-.54-1.31-.8-2.228-.78s-1.625.34-2.149.96c-.708.82-.786 1.52-.183 2.1.262.26.629.44 1.153.56.472.14 1.048.16 1.677.08.76-.12 1.73-.5 2.857-1.16zm-4.796-6.66c1.494-1.06 2.857-1.42 4.062-1.06.97.28 1.704 1.02 2.228 2.2l.393 1.16c.131.42.236.86.315 1.32l.183 1.16.105 1.12.079.76c0 .02.052.4.183 1.1l.079.62c.026.24.052.42.026.52l-.079.18c-.079.18-.236.3-.446.36-.341.14-.681.1-.97-.1-.079-.06-.131-.12-.183-.2a1.84 1.84 0 0 1-.157-.34l-.105-.28c-.026-.1-.052-.16-.079-.18l-.183-.4c-1.127.64-2.202 1.02-3.197 1.16-.944.14-1.808.1-2.595-.1-.812-.2-1.441-.54-1.913-1.02-.498-.48-.76-1.04-.734-1.7 0-.66.262-1.3.812-1.92.55-.64 1.284-1.1 2.175-1.36s1.808-.28 2.726-.1c.891.2 1.677.6 2.306 1.2.105.1.21.24.341.38-.183-1.22-.419-2.18-.734-2.9-.341-.8-.76-1.28-1.206-1.42-.524-.16-1.284.1-2.28.8a.85.85 0 0 1-.603.18c-.236-.02-.446-.08-.603-.22-.183-.14-.262-.3-.236-.48a.59.59 0 0 1 .288-.44z"/><path id="N" d="M458.807 337.391c.105-.02.262-.02.472-.04-.079-.3-.236-.6-.498-.94-.288-.36-.577-.64-.917-.86s-.629-.32-.865-.32c-.734 0-1.389.36-1.966 1.08-.262.34-.498.72-.681 1.14h2.437l2.018-.06zm-4.822 1.44l-.052.34c-.105 1.14.105 2.06.655 2.78.524.74 1.31 1.1 2.333 1.12.55.02.996-.04 1.337-.18s.812-.4 1.363-.8c.131-.1.262-.2.393-.34l.367-.36.367-.48.341-.42c.131-.16.341-.26.577-.3.236-.02.446 0 .655.1.183.1.315.26.367.44.026.18 0 .36-.131.5-.026.02-.157.14-.341.36l-.419.52-.472.5c-.183.2-.367.36-.55.46-.655.48-1.284.82-1.835 1.04s-1.258.32-2.07.3c-.917-.02-1.677-.2-2.333-.54-.681-.34-1.153-.78-1.494-1.32-.341-.52-.577-1.1-.708-1.68s-.183-1.2-.105-1.82c.131-1.32.577-2.46 1.337-3.42.917-1.16 2.07-1.74 3.433-1.72.681 0 1.31.18 1.861.56s1.022.8 1.415 1.3c.341.46.577.9.708 1.32.079.24.105.46.079.66-.052.3-.236.54-.524.72-.183.1-.419.16-.76.22l-.839.08-2.123.06h-2.831z"/><path id="O" d="M463.027 332.831l2.464.04.288-2.46c.026-.18.131-.34.315-.46a1.19 1.19 0 0 1 .655-.14c.236.02.419.1.577.24.131.14.21.3.183.48l-.288 2.3 2.044-.1a.97.97 0 0 1 .629.16.59.59 0 0 1 .288.44c.026.18-.052.34-.21.48s-.367.2-.603.22l-2.28.1c-.341 3.54-.288 6.16.131 7.9.131.44.288.76.498.94.21.2.393.3.577.32.21.02.472-.06.76-.24.288-.16.603-.44.891-.86.341-.16.655-.88.996-2.16.079-.18.21-.3.419-.4a1.04 1.04 0 0 1 .655-.04c.236.06.393.18.524.34.105.16.105.32.026.5-.288 1.02-.655 1.8-1.101 2.36-.393.58-.891 1.04-1.468 1.38-.603.32-1.206.46-1.861.42-.681-.06-1.232-.28-1.677-.72-.472-.42-.76-.96-.917-1.62-.472-1.8-.524-4.5-.183-8.08a91.12 91.12 0 0 1-2.437-.04c-.236-.02-.419-.08-.603-.22-.157-.12-.236-.28-.21-.46s.105-.32.288-.46a.97.97 0 0 1 .629-.16z"/><path id="P" d="M484.622 341.211v-2.06-.76l-.052-.86c-.026-.18-.026-.44-.052-.74s-.079-.58-.131-.84l-.157-.76c-.052-.18 0-.34.131-.5.131-.14.315-.24.55-.28.21-.02.446 0 .655.1.183.1.315.26.341.44.236.82.367 1.78.419 2.88l.917-.9c1.441-1.26 2.962-2.16 4.56-2.66.236-.08.446-.08.681-.02.21.08.367.2.472.36.079.18.079.34 0 .5-.105.18-.262.3-.472.36-1.363.44-2.673 1.22-3.931 2.32-1.337 1.18-2.044 2.26-2.175 3.28-.026.06-.026.12-.026.18v1.72l-.026.68v.3.04c-.026.02-.026.06-.026.08l-.052.12a.67.67 0 0 1-.419.32c-.183.08-.341.1-.498.06l-.367-.14c-.079-.04-.157-.08-.21-.14s-.105-.12-.131-.2c0-.02 0-.06-.026-.1v-.14l-.026-1.42.052-1.22z"/><path id="Q" d="M199.716 310.911c1.154-.284 2.207-.77 3.139-1.458.911-.689 1.478-1.499 1.701-2.45.162-.749-.122-1.296-.851-1.681-.344-.182-.749-.304-1.215-.365s-.871-.061-1.235.02c-.466.101-.79.203-.972.304a2.41 2.41 0 0 0-.344.203l-.263.162.041 5.266zm1.114 1.073c2.531 2.147 4.698 3.807 6.541 4.982a.7.7 0 0 1 .284.425c.041.182 0 .344-.081.506a.7.7 0 0 1-.425.284.64.64 0 0 1-.506-.081c-1.924-1.235-4.233-3.018-6.946-5.326v.405l.041 2.167.02 2.228c0 .182-.061.344-.203.466s-.304.182-.486.182-.344-.061-.466-.203-.182-.304-.182-.486c.02-.466 0-1.175-.02-2.147l-.041-2.207-.081-9.073a.62.62 0 0 1 .162-.486c.122-.142.284-.203.466-.223a.62.62 0 0 1 .486.162c.142.122.203.284.223.466v.081l.061-.02c.304-.162.749-.304 1.296-.405.506-.122 1.053-.142 1.681-.061s1.175.243 1.681.506a3.08 3.08 0 0 1 1.316 1.276c.304.547.365 1.175.203 1.883-.243 1.134-.83 2.106-1.782 2.896s-2.025 1.397-3.24 1.802z"/><path id="R" d="M441.352 334.991c.131 1.2.157 2.7.105 4.5l-.131 4.4c0 .18-.079.34-.236.48-.183.12-.393.18-.629.18s-.446-.06-.603-.18c-.183-.14-.262-.3-.262-.48l.131-4.44c.052-1.62.026-3.08-.105-4.34-.026-.18.052-.36.21-.5s.367-.2.603-.22a.97.97 0 0 1 .629.16c.157.12.262.26.288.44zm-.367-3.82c.183.12.262.28.262.46s-.079.34-.236.46a1 1 0 0 1-.629.2c-.236 0-.446-.06-.603-.2-.183-.12-.262-.28-.262-.46s.079-.34.262-.48c.157-.12.367-.18.603-.18s.446.06.603.2z"/><path id="S" d="M444.785 330.531c.079.98.105 3.98.105 9.04l.052 2.14.026 2.2c0 .18-.079.34-.262.46s-.393.18-.629.18-.446-.06-.603-.2-.236-.3-.236-.48c.026-.46 0-1.16-.026-2.12l-.052-2.18-.105-8.96c-.026-.18.052-.34.21-.48s.367-.2.603-.22a.97.97 0 0 1 .629.16c.183.12.262.28.288.46z"/></defs></svg>