<svg xmlns="http://www.w3.org/2000/svg" xmlns:xlink="http://www.w3.org/1999/xlink" width="528" height="97" fill-rule="evenodd" stroke-linecap="round" stroke-linejoin="round" stroke-miterlimit="1.5" xmlns:v="https://vecta.io/nano"><style><![CDATA[.B{fill-rule:nonzero}]]></style><g transform="matrix(.534239 0 0 .534239 -135.076 -75.8246)"><circle cx="692" cy="660" r="27" fill="#f0f849" transform="matrix(1.10519 0 0 1.10519 126.506 -557.504)"/><g fill="gray" class="B"><path d="M271.324 150.412l4.379.56v38.543h-3.819l-.407-3.615c-1.018 1.426-2.189 2.495-3.513 3.157-1.324.713-2.749 1.069-4.328 1.069-3.462 0-6.059-1.273-7.841-3.87-1.731-2.546-2.597-6.008-2.597-10.438 0-2.8.407-5.244 1.273-7.434s2.088-3.87 3.717-5.092 3.564-1.833 5.804-1.833c1.527 0 2.953.255 4.124.815 1.222.509 2.291 1.324 3.208 2.393v-14.256zm-6.212 14.562c-2.291 0-4.073.916-5.295 2.749-1.222 1.782-1.833 4.481-1.833 8.096 0 3.564.56 6.212 1.68 8.045 1.12 1.782 2.749 2.699 4.888 2.699 2.597 0 4.888-1.426 6.772-4.328v-13.747c-.764-1.12-1.629-1.986-2.699-2.597s-2.24-.916-3.513-.916zm24.56 12.373c.051 2.037.458 3.717 1.171 5.092.764 1.375 1.731 2.393 2.902 3.055s2.495.967 3.971.967c1.324 0 2.597-.204 3.717-.611 1.171-.407 2.342-1.018 3.615-1.884l2.037 2.902c-1.273 1.018-2.749 1.833-4.43 2.393-1.629.56-3.31.866-4.99.866-2.648 0-4.888-.611-6.823-1.782-1.884-1.171-3.31-2.851-4.328-5.041-.967-2.138-1.426-4.633-1.426-7.485 0-2.8.458-5.244 1.477-7.434.967-2.189 2.393-3.87 4.175-5.092 1.833-1.222 3.92-1.833 6.314-1.833 2.342 0 4.328.509 6.008 1.629 1.68 1.069 2.953 2.597 3.819 4.633.916 2.037 1.375 4.43 1.375 7.179l-.102 2.444h-18.482zm7.434-12.322c-2.088 0-3.819.764-5.142 2.24-1.375 1.527-2.088 3.717-2.291 6.67h14.358c-.051-2.902-.713-5.092-1.935-6.619s-2.851-2.291-4.99-2.291z"/><use xlink:href="#B"/></g><path d="M398.335 161.461c1.578 0 2.851.509 3.819 1.629 1.018 1.069 1.527 3.055 1.527 5.957v20.468h-4.073V169.76c0-1.324-.051-2.291-.153-2.953s-.255-1.12-.56-1.477c-.305-.305-.764-.458-1.426-.458-1.782 0-3.411 1.069-4.786 3.31v21.334h-4.124V169.76l-.102-2.953c-.102-.662-.305-1.12-.611-1.477-.255-.305-.764-.458-1.375-.458-1.833 0-3.411 1.069-4.837 3.31v21.334h-4.022v-27.494h3.411l.305 3.208c.815-1.222 1.68-2.138 2.648-2.8.916-.662 2.037-.967 3.31-.967 2.597 0 4.277 1.171 4.99 3.615.815-1.171 1.68-2.088 2.648-2.699s2.088-.916 3.411-.916zm26.444 28.258c-.713 2.037-1.578 3.819-2.546 5.295a12.27 12.27 0 0 1-3.87 3.717c-1.629 1.018-3.564 1.578-5.855 1.833l-.713-3.513c1.833-.305 3.31-.764 4.43-1.375 1.12-.662 1.986-1.426 2.597-2.393s1.222-2.24 1.782-3.768h-1.477l-9.623-27.494h4.684l7.892 24.134 7.79-24.134h4.531l-9.623 27.698z" class="B"/><use xlink:href="#B" x="125.331" class="B"/><path d="M478.585 181.522c0 1.782.356 3.055 1.12 3.87s1.935 1.222 3.513 1.222c1.426 0 2.851-.407 4.226-1.273 1.375-.815 2.444-1.833 3.208-3.106v-20.213h4.379v27.494h-3.717l-.356-3.717a10.43 10.43 0 0 1-3.971 3.157c-1.578.764-3.208 1.171-4.837 1.171-2.648 0-4.633-.713-5.957-2.088-1.324-1.426-1.986-3.411-1.986-6.008v-20.01h4.379v19.501zm26.955 7.993v-27.494h3.717l.356 3.819c1.12-1.375 2.495-2.444 4.124-3.208 1.68-.815 3.31-1.171 4.99-1.171 2.597 0 4.531.662 5.804 2.088 1.273 1.375 1.884 3.36 1.884 6.008v19.959h-4.379v-16.751c0-2.037-.102-3.615-.305-4.684-.255-1.069-.662-1.884-1.324-2.393-.713-.509-1.68-.815-3.055-.815-1.477 0-2.902.458-4.175 1.375-1.324.916-2.393 1.986-3.259 3.259v20.01h-4.379z" class="B"/><use xlink:href="#C" class="B"/><path d="M574.06 171.237c0 3.564.407 6.67 1.222 9.267.815 2.648 1.986 5.041 3.615 7.179 1.578 2.138 3.666 4.379 6.314 6.721l-2.291 2.444c-3.055-2.495-5.499-4.939-7.434-7.332s-3.411-5.041-4.481-8.045c-1.018-2.953-1.527-6.364-1.527-10.234s.509-7.281 1.527-10.234c1.069-2.953 2.546-5.652 4.481-8.045s4.379-4.837 7.434-7.332l2.291 2.444c-2.648 2.342-4.786 4.633-6.364 6.721-1.578 2.138-2.8 4.531-3.564 7.128-.815 2.648-1.222 5.753-1.222 9.318z" class="B"/><g fill="#e40df2" class="B"><path d="M619.241 183.507c0 1.069.153 1.884.509 2.393s.916.866 1.731 1.12l-1.069 3.106c-2.648-.356-4.328-1.629-5.041-3.87-.967 1.273-2.189 2.24-3.717 2.902a12.68 12.68 0 0 1-4.888.967c-1.833 0-3.411-.356-4.735-1.069-1.375-.662-2.393-1.68-3.106-2.953s-1.069-2.749-1.069-4.481c0-2.851 1.12-4.99 3.31-6.517 2.24-1.527 5.448-2.291 9.623-2.291h4.022v-2.291c0-1.884-.56-3.31-1.68-4.175s-2.749-1.273-4.888-1.273c-2.037 0-4.43.458-7.128 1.426l-1.171-3.31c3.055-1.171 6.059-1.731 9.012-1.731 3.36 0 5.906.764 7.637 2.342 1.782 1.578 2.648 3.768 2.648 6.517v13.187zm-11.354 3.259c1.324 0 2.648-.356 3.87-1.018 1.222-.713 2.24-1.629 3.055-2.851v-7.077h-3.971c-2.902 0-4.99.509-6.314 1.477s-1.935 2.444-1.935 4.277c0 3.462 1.731 5.193 5.295 5.193z"/><use xlink:href="#D"/><path d="M697.914 165.585c1.018-1.324 2.189-2.342 3.513-3.055a9.08 9.08 0 0 1 4.328-1.069c3.564 0 6.161 1.222 7.841 3.768 1.629 2.495 2.495 6.008 2.495 10.54 0 2.8-.458 5.295-1.273 7.434-.815 2.189-2.088 3.87-3.717 5.092s-3.615 1.833-5.906 1.833c-1.629 0-3.055-.305-4.277-.866s-2.291-1.426-3.208-2.597l-.356 2.851h-3.819v-38.543l4.379-.56v15.173zm6.212 20.977c2.342 0 4.124-.916 5.346-2.699s1.833-4.531 1.833-8.146c0-3.564-.56-6.263-1.68-8.045-1.069-1.782-2.699-2.699-4.786-2.699a6.3 6.3 0 0 0-3.87 1.273c-1.171.815-2.189 1.884-3.055 3.157v13.594c.764 1.12 1.629 1.986 2.749 2.648 1.069.611 2.24.916 3.462.916z"/><use xlink:href="#D" x="93.997"/><use xlink:href="#C" x="250.662"/></g><use xlink:href="#D" x="187.996" class="B"/><path d="M895.89 158.559h-7.841l1.12 9.878-9.012-4.124-2.444 7.434 9.725 1.935-6.67 7.332 6.314 4.582 4.888-8.605 4.888 8.605 6.263-4.582-6.67-7.332 9.725-1.935-2.444-7.434-8.961 4.124 1.12-9.878z" class="B"/><use xlink:href="#D" x="281.994" class="B"/><g fill="#29a538" class="B"><path d="M989.734 149.903l8.248.866v38.747h-7.332l-.407-3.055c-.866 1.171-1.884 2.138-3.208 2.851-1.273.713-2.749 1.069-4.481 1.069-2.24 0-4.124-.56-5.652-1.782s-2.648-2.953-3.411-5.142c-.764-2.24-1.12-4.837-1.12-7.892 0-2.851.458-5.346 1.324-7.586.916-2.24 2.189-3.971 3.87-5.244 1.629-1.222 3.615-1.884 5.855-1.884 2.495 0 4.582.866 6.314 2.597v-13.544zm-4.073 17.006c-1.527 0-2.699.713-3.513 2.088-.866 1.426-1.273 3.615-1.273 6.619 0 3.208.356 5.499 1.12 6.772.764 1.324 1.782 1.935 3.157 1.935 1.731 0 3.259-1.069 4.582-3.208V169.2c-.611-.764-1.273-1.324-1.884-1.731-.662-.356-1.375-.56-2.189-.56z"/><use xlink:href="#E"/><path d="M1075.074 178.059c.255 2.189.967 3.768 2.138 4.786s2.699 1.527 4.531 1.527c2.342 0 4.735-.764 7.128-2.291l3.31 4.531c-1.375 1.171-3.004 2.088-4.888 2.749-1.884.713-3.92 1.018-6.212 1.018-3.106 0-5.703-.611-7.892-1.833-2.138-1.222-3.768-2.953-4.888-5.193-1.069-2.189-1.629-4.786-1.629-7.688 0-2.749.56-5.244 1.578-7.485 1.069-2.291 2.648-4.022 4.684-5.346s4.43-1.986 7.281-1.986c2.597 0 4.888.611 6.874 1.731 1.935 1.12 3.462 2.749 4.531 4.888s1.578 4.684 1.578 7.637a25.3 25.3 0 0 1-.153 2.953h-17.973zm5.142-11.66c-1.527 0-2.749.56-3.615 1.629-.916 1.12-1.426 2.8-1.629 5.041h10.183c-.051-4.43-1.68-6.67-4.939-6.67z"/><use xlink:href="#E" x="93.996"/><path d="M1179.559 149.903c3.615 0 6.772.611 9.521 1.731l-2.24 5.397c-1.884-.713-3.87-1.018-5.957-1.018-1.68 0-2.851.255-3.513.866-.713.611-1.069 1.578-1.069 2.953v3.717h9.012l-.916 5.703h-8.096v20.264h-8.197v-20.264h-5.855v-5.703h5.855v-4.022c0-1.833.407-3.513 1.324-4.939.866-1.477 2.189-2.597 3.92-3.462 1.731-.815 3.819-1.222 6.212-1.222z"/></g><path d="M1209.822 171.237c0-3.564-.356-6.67-1.171-9.318-.815-2.597-1.986-4.99-3.564-7.128-1.629-2.088-3.717-4.379-6.415-6.721l2.291-2.444c3.055 2.495 5.55 4.939 7.485 7.332s3.411 5.092 4.43 8.045c1.069 2.953 1.578 6.364 1.578 10.234s-.509 7.281-1.578 10.234a25.82 25.82 0 0 1-4.43 8.045c-1.935 2.393-4.43 4.837-7.485 7.332l-2.291-2.444c2.648-2.342 4.786-4.582 6.364-6.721s2.8-4.531 3.615-7.179c.764-2.597 1.171-5.703 1.171-9.267zm22.524-8.401c0-.764.204-1.426.56-2.088a3.68 3.68 0 0 1 1.527-1.527c.611-.356 1.324-.56 2.138-.56a4.32 4.32 0 0 1 2.138.56 3.68 3.68 0 0 1 1.527 1.527c.407.662.56 1.324.56 2.088s-.153 1.477-.56 2.138c-.356.662-.866 1.171-1.527 1.578-.611.356-1.375.56-2.138.56a4.18 4.18 0 0 1-2.138-.56c-.662-.407-1.171-.916-1.527-1.578a4.47 4.47 0 0 1-.56-2.138zm0 18.839c0-.764.204-1.426.56-2.088a3.68 3.68 0 0 1 1.527-1.527c.611-.407 1.324-.56 2.138-.56.764 0 1.477.153 2.138.56a3.68 3.68 0 0 1 1.527 1.527c.407.662.56 1.324.56 2.088 0 .815-.153 1.527-.56 2.138-.356.662-.866 1.171-1.527 1.578-.611.356-1.375.56-2.138.56a4.18 4.18 0 0 1-2.138-.56c-.662-.407-1.171-.916-1.527-1.578-.356-.611-.56-1.324-.56-2.138z" class="B"/><path d="M891.299 264.95v-23.596h278.811v-21.91l33.709 33.708-33.709 33.708v-21.91H891.299z" fill="none" stroke="#000" stroke-width="1.034"/><path d="M891.294 321.217l.177-6.139v-7.685l-.044-6.139v-7.376c.044-.353.044-.618.044-.839.044-.221.133-.398.221-.574a1.22 1.22 0 0 1 .663-.663c.398-.221.839-.221 1.281 0 .53.221 1.06.751 1.59 1.502.309.486.663 1.104 1.06 1.899l.883 1.899.574 1.281c3.489 6.581 6.89 12.191 10.115 16.784.044.044.353.486.928 1.413l-.663-5.389-.486-7.95c-.044-1.193-.044-3.136-.088-5.742l-.088-6.007a1.58 1.58 0 0 1 .398-1.06c.265-.309.618-.442 1.016-.442a1.58 1.58 0 0 1 1.06.398c.309.265.442.618.442 1.016.044 1.369.044 3.401.088 6.007l.088 5.742.486 7.862c0 .221.221 1.988.618 5.344.221 1.413.353 2.473.398 3.18a15.33 15.33 0 0 0 .133 1.104v.618c0 .088 0 .177-.044.221-.044.353-.221.618-.53.839-.618.486-1.281.486-1.988.044-.265-.133-.53-.398-.795-.707-.398-.398-.839-1.016-1.413-1.811-.309-.486-.707-1.06-1.148-1.811l-.795-1.193c-3.313-4.726-6.758-10.424-10.291-17.137-.133-.221-.353-.663-.663-1.413l-.177-.353v3.313l.044 6.184v7.774l-.177 6.184c-.044.398-.177.707-.486 1.016-.309.265-.663.398-1.016.353-.398-.044-.751-.177-1.016-.486-.309-.309-.442-.663-.398-1.06zm31.683-18.197l-.663-.177c-.177-.044-.309-.088-.398-.088-1.148.044-2.208.751-3.18 2.076-1.016 1.369-1.723 3.048-2.12 5.124-.353 2.076-.265 3.975.221 5.654.486 1.723 1.369 2.871 2.606 3.533 1.546.751 2.959.618 4.24-.442 1.369-1.104 2.341-2.783 2.915-5.035.53-2.164.486-4.24-.088-6.228-.618-1.988-1.811-3.445-3.533-4.417zm1.06-2.738a1.06 1.06 0 0 1 .53.309 10.1 10.1 0 0 1 3.092 2.694c.795 1.148 1.369 2.297 1.678 3.489.309 1.237.53 2.518.574 3.843a11.69 11.69 0 0 1-.486 3.754c-.707 2.915-2.032 5.124-3.931 6.625-2.253 1.811-4.726 2.076-7.376.707-1.016-.486-1.899-1.237-2.606-2.208a7.48 7.48 0 0 1-1.502-3.092c-.265-1.104-.442-2.253-.486-3.489-.088-1.237 0-2.385.265-3.489.442-2.518 1.281-4.638 2.562-6.36 1.546-2.032 3.313-3.092 5.389-3.224h.044a1.48 1.48 0 0 1 1.148-.044c.398.133.751.309 1.104.486zm9.901 1.368l.265 2.871.309 3.048c.044.309.044.618.044.972l1.06-2.297c.928-1.811 1.899-3.048 2.915-3.754.751-.53 1.546-.751 2.341-.707.839.088 1.634.486 2.341 1.237.53.574.972 1.502 1.369 2.827.221.751.398 1.634.618 2.65.398-1.016.839-1.943 1.325-2.783.839-1.59 1.678-2.827 2.518-3.71 1.281-1.281 2.562-1.767 3.887-1.546.839.133 1.59.663 2.164 1.546.442.618.795 1.458 1.104 2.473.486 1.634.795 3.754.972 6.404l.221 4.549.044 3.931v2.473a1.58 1.58 0 0 1-.398 1.06 1.34 1.34 0 0 1-1.016.442 1.58 1.58 0 0 1-1.06-.398 1.34 1.34 0 0 1-.442-1.016 23.08 23.08 0 0 1 0-2.473l-.044-3.843-.177-4.505c-.221-2.518-.486-4.461-.883-5.83a6.57 6.57 0 0 0-.707-1.634c-.044-.133-.133-.177-.177-.221l-.133-.133c-.309-.044-.707.221-1.281.795-.663.663-1.325 1.634-2.032 3.003-.618 1.104-1.148 2.297-1.59 3.533-.486 1.237-.751 2.164-.883 2.738-.133.839-.221 2.518-.221 4.947a3.74 3.74 0 0 0 .044.574l.088.839c.044.398.044.663 0 .883-.044.177-.088.353-.177.53-.309.663-.839.928-1.546.795-.398-.044-.707-.265-.972-.574-.044-.088-.133-.177-.221-.309l-.133-.442v-.309c-.044-.133-.044-.309-.044-.53-.044-.309-.044-.795-.088-1.413v-.928l-.088-1.237-.751-6.184-.707-3.313c-.265-.883-.486-1.413-.707-1.634s-.353-.309-.486-.353c-.088 0-.221.044-.398.177-.618.398-1.281 1.325-1.988 2.738-.618 1.193-1.193 2.473-1.678 3.931l-.972 3.18c-.221 1.104-.353 2.429-.486 4.019-.044.133 0 .574.044 1.281.044.353.044.574.044.618v.221a1.57 1.57 0 0 1-.088.442c-.177.442-.53.751-1.016.883-.618.177-1.104 0-1.502-.53l-.265-.442v-.177c-.044-.044-.044-.088-.044-.133-.309-1.678-.486-4.152-.53-7.42l-.133-5.742-.265-3.003-.309-2.827c-.044-.398.088-.795.353-1.104s.618-.442 1.016-.486.751.088 1.06.353.442.574.486.972zm28.511.221c.221 2.65.265 5.963.177 9.938l-.221 9.717a1.58 1.58 0 0 1-.398 1.06c-.309.265-.663.398-1.06.398s-.751-.133-1.016-.398c-.309-.309-.442-.663-.442-1.06l.221-9.805-.177-9.585c-.044-.398.088-.795.353-1.104s.618-.442 1.016-.486.751.088 1.06.353c.265.265.442.574.486.972zm-.618-8.436c.309.265.442.618.442 1.016s-.133.751-.398 1.016c-.309.309-.663.442-1.06.442s-.751-.133-1.016-.442c-.309-.265-.442-.618-.442-1.016s.133-.751.442-1.06c.265-.265.618-.398 1.016-.398s.751.133 1.016.442zm6.242 15.062a20.93 20.93 0 0 1 1.59-2.562c1.281-1.899 2.606-3.313 3.931-4.196 1.855-1.237 3.578-1.369 5.212-.398 1.06.618 1.899 1.943 2.518 4.019.486 1.502.839 3.401 1.104 5.742.398 3.401.53 6.802.486 10.203a1.34 1.34 0 0 1-.442 1.016c-.309.265-.663.398-1.016.398-.398 0-.751-.133-1.016-.442-.309-.309-.442-.663-.442-1.06.044-3.136-.088-6.404-.486-9.761-.221-2.208-.574-3.931-.972-5.212-.398-1.369-.839-2.164-1.237-2.429-.574-.309-1.281-.221-2.12.353-.972.663-2.032 1.811-3.136 3.445-.972 1.458-1.811 2.959-2.562 4.549-.751 1.634-1.148 2.827-1.237 3.578-.088.53-.133 1.281-.177 2.253l-.133 2.518c0 .044 0 .133-.044.177v.088c0 .133-.044.221-.088.353-.088.133-.177.265-.309.398a1.34 1.34 0 0 1-1.369.398 1.42 1.42 0 0 1-.928-.663c-.044-.133-.088-.221-.133-.353l-.044-.309c-.044-.044-.044-.088-.044-.177s0-.309.044-.618c.044-.972.044-1.502.044-1.59 0-.398.044-1.193.088-2.473.044-1.237.044-2.208.044-2.915v-1.899-2.032c-.044-.353-.044-.972-.088-1.811s-.044-1.546-.088-2.032-.133-1.06-.177-1.723c-.088-.663-.177-1.325-.309-1.899-.088-.398 0-.751.221-1.104a1.52 1.52 0 0 1 .928-.618c.353-.044.751.044 1.104.221.309.221.53.574.574.972.398 1.988.663 4.549.707 7.597zm29.357 8.215c-.839-1.988-1.458-3.313-1.899-3.887-.972-1.193-2.208-1.767-3.754-1.723s-2.738.751-3.622 2.12c-1.193 1.811-1.325 3.357-.309 4.638.442.574 1.06.972 1.943 1.237.795.309 1.767.353 2.827.177 1.281-.265 2.915-1.104 4.814-2.562zm-8.083-14.708c2.518-2.341 4.814-3.136 6.846-2.341 1.634.618 2.871 2.253 3.754 4.859l.663 2.562a28.5 28.5 0 0 1 .53 2.915l.309 2.562.177 2.473.133 1.678c0 .044.088.883.309 2.429l.133 1.369c.044.53.088.928.044 1.148l-.133.398c-.133.398-.398.663-.751.795-.574.309-1.148.221-1.634-.221-.133-.133-.221-.265-.309-.442s-.177-.442-.265-.751l-.177-.618c-.044-.221-.088-.353-.133-.398l-.309-.883c-1.899 1.413-3.71 2.253-5.389 2.562-1.59.309-3.048.221-4.373-.221-1.369-.442-2.429-1.193-3.224-2.253-.839-1.06-1.281-2.297-1.237-3.754 0-1.458.442-2.871 1.369-4.24.928-1.413 2.164-2.429 3.666-3.003s3.048-.618 4.594-.221c1.502.442 2.827 1.325 3.887 2.65.177.221.353.53.574.839-.309-2.694-.707-4.814-1.237-6.404-.574-1.767-1.281-2.827-2.032-3.136-.883-.353-2.164.221-3.843 1.767-.309.309-.663.442-1.016.398-.398-.044-.751-.177-1.016-.486-.309-.309-.442-.663-.398-1.06s.177-.707.486-.972zm17.513-9.982c.133 2.164.177 8.79.177 19.964 0 .928.044 2.473.088 4.726.044 2.164.088 3.754.044 4.859 0 .398-.133.751-.442 1.016s-.663.398-1.06.398-.751-.133-1.016-.442-.398-.663-.398-1.06c.044-1.016 0-2.562-.044-4.682l-.088-4.814-.177-19.787c-.044-.398.088-.751.353-1.06s.618-.442 1.016-.486.751.088 1.06.353.442.618.486 1.016zm13.707 15.149c.177-.044.442-.044.795-.088-.133-.663-.398-1.325-.839-2.076-.486-.795-.972-1.413-1.546-1.899s-1.06-.707-1.458-.707c-1.237 0-2.341.795-3.313 2.385a13.19 13.19 0 0 0-1.148 2.518h4.108l3.401-.133zm-8.127 3.18l-.088.751c-.177 2.518.177 4.549 1.104 6.139.883 1.634 2.208 2.429 3.931 2.473.928.044 1.678-.088 2.253-.398s1.369-.883 2.297-1.767c.221-.221.442-.442.663-.751l.618-.795.618-1.06.574-.928c.221-.353.574-.574.972-.663.398-.044.751 0 1.104.221.309.221.53.574.618.972.044.398 0 .795-.221 1.104-.044.044-.265.309-.574.795l-.707 1.148-.795 1.104c-.309.442-.618.795-.928 1.016-1.104 1.06-2.164 1.811-3.092 2.297s-2.12.707-3.489.663c-1.546-.044-2.827-.442-3.931-1.193-1.148-.751-1.943-1.723-2.518-2.915-.574-1.148-.972-2.429-1.193-3.71s-.309-2.65-.177-4.019c.221-2.915.972-5.433 2.253-7.553 1.546-2.562 3.489-3.843 5.786-3.798 1.148 0 2.208.398 3.136 1.237s1.723 1.767 2.385 2.871c.574 1.016.972 1.988 1.193 2.915.133.53.177 1.016.133 1.458-.088.663-.398 1.193-.883 1.59-.309.221-.707.353-1.281.486l-1.413.177-3.578.133h-4.77zm27.098-5.565c-.133-.133-.353-.309-.663-.574l-.574-.53c-.088-.088-.221-.221-.442-.353s-.398-.265-.53-.309-.309-.133-.53-.177c-1.104-.221-1.943-.044-2.606.618-.663.618-.795 1.413-.442 2.385.177.486.53 1.016 1.06 1.546.53.574 1.369 1.325 2.518 2.297l.53.486 1.988 1.767c.486.486 1.016 1.193 1.59 2.032.574.883.883 1.723 1.016 2.562.177 1.369-.044 2.562-.618 3.578-.618 1.016-1.458 1.811-2.562 2.297-.972.486-2.032.707-3.224.663s-2.297-.309-3.313-.883c-1.104-.618-1.988-1.369-2.65-2.253-.663-.839-1.237-1.899-1.811-3.18a1.48 1.48 0 0 1-.044-1.148c.133-.353.398-.618.795-.795.353-.177.707-.177 1.104-.044.353.133.618.398.795.751.486 1.06.928 1.899 1.413 2.518.486.663 1.06 1.193 1.811 1.59.574.309 1.237.486 1.943.53s1.369-.088 1.943-.398c1.193-.574 1.723-1.502 1.502-2.783-.088-.663-.442-1.369-1.016-2.076s-1.458-1.546-2.562-2.518c-.088-.088-.353-.309-.751-.663l-.883-.707-.795-.751a6.54 6.54 0 0 1-.795-.839l-.707-.795-.618-.928c-.177-.309-.309-.574-.398-.883-.353-1.06-.442-2.076-.221-3.003s.663-1.767 1.325-2.429 1.502-1.104 2.429-1.369c.928-.221 1.899-.221 2.871 0 .398.088.751.221 1.104.353.309.133.663.309.972.53l.751.574.707.663.53.53c.309.265.442.574.486.972s-.088.751-.353 1.06c-.309.309-.618.442-1.016.486s-.751-.088-1.06-.398z" class="B"/></g><defs ><path id="B" d="M333.785 150.412c1.426 0 2.749.102 3.92.356 1.222.255 2.393.611 3.513 1.12l-1.375 3.259c-1.731-.764-3.717-1.12-5.906-1.12-3.87 0-5.804 1.477-5.804 4.531v5.601h9.318l-.458 3.462h-8.859v21.894h-4.379v-21.894h-6.568v-3.462h6.568v-5.499c0-1.629.458-3.106 1.324-4.328.866-1.273 2.037-2.24 3.564-2.902 1.527-.713 3.208-1.018 5.142-1.018z"/><path id="C" d="M549.295 186.308c2.444 0 4.837-.764 7.179-2.393l2.138 2.902c-1.222.967-2.648 1.782-4.328 2.393-1.731.611-3.36.916-4.99.916-2.699 0-4.99-.611-6.925-1.782-1.986-1.12-3.462-2.8-4.43-4.939-1.018-2.138-1.527-4.633-1.527-7.536 0-2.749.509-5.244 1.527-7.434 1.018-2.138 2.546-3.87 4.481-5.142 1.935-1.222 4.277-1.833 6.925-1.833 3.513 0 6.568 1.069 9.216 3.157l-2.138 2.953c-2.393-1.629-4.735-2.444-7.128-2.444-1.629 0-3.004.356-4.226 1.171s-2.189 2.037-2.902 3.615c-.662 1.629-1.018 3.615-1.018 5.957 0 3.513.764 6.161 2.24 7.892 1.426 1.731 3.411 2.546 5.906 2.546z"/><path id="D" d="M641.308 180.911c.764 0 1.527.204 2.138.56.662.407 1.171.916 1.527 1.527.356.662.56 1.324.56 2.088 0 .662-.102 1.324-.255 1.935-.153.662-.407 1.375-.764 2.189l-4.226 9.674h-3.971l2.495-10.285c-.509-.407-.916-.916-1.222-1.527s-.458-1.273-.458-1.986c0-.764.153-1.426.509-2.088.407-.611.866-1.12 1.527-1.527.611-.356 1.324-.56 2.138-.56z"/><path id="E" d="M1017.298 178.772a6.12 6.12 0 0 1 2.902.713 5.58 5.58 0 0 1 2.037 2.037c.509.866.713 1.833.713 2.902 0 .916-.153 1.884-.407 2.8-.305.916-.916 2.342-1.833 4.379l-3.768 8.554h-5.499l2.699-11.1c-.815-.509-1.426-1.171-1.884-1.986-.407-.815-.611-1.731-.611-2.699 0-1.069.255-1.986.764-2.851.458-.866 1.171-1.527 1.986-2.037a6.12 6.12 0 0 1 2.902-.713z"/></defs></svg>