<svg xmlns="http://www.w3.org/2000/svg" xmlns:xlink="http://www.w3.org/1999/xlink" width="528" height="97" fill-rule="evenodd" stroke-linecap="round" stroke-linejoin="round" stroke-miterlimit="1.5" xmlns:v="https://vecta.io/nano"><style><![CDATA[.B{fill-rule:nonzero}]]></style><g transform="matrix(.534239 0 0 .534239 -135.076 -262.8246)"><circle cx="692" cy="660" r="27" fill="#f0f849" transform="matrix(1.10519 0 0 1.10519 126.506 -207.019)"/><g fill="gray" class="B"><use xlink:href="#B"/><use xlink:href="#C"/><use xlink:href="#D"/></g><path d="M398.335 511.946c1.578 0 2.851.509 3.819 1.629 1.018 1.069 1.527 3.055 1.527 5.957V540h-4.073v-19.755c0-1.324-.051-2.291-.153-2.953s-.255-1.12-.56-1.477c-.305-.305-.764-.458-1.426-.458-1.782 0-3.411 1.069-4.786 3.31V540h-4.124v-19.755l-.102-2.953c-.102-.662-.305-1.12-.611-1.477-.255-.305-.764-.458-1.375-.458-1.833 0-3.411 1.069-4.837 3.31V540h-4.022v-27.494h3.411l.305 3.208c.815-1.222 1.68-2.138 2.648-2.8.916-.662 2.037-.967 3.31-.967 2.597 0 4.277 1.171 4.99 3.615.815-1.171 1.68-2.088 2.648-2.699s2.088-.916 3.411-.916zm26.444 28.258c-.713 2.037-1.578 3.819-2.546 5.295a12.27 12.27 0 0 1-3.87 3.717c-1.629 1.018-3.564 1.578-5.855 1.833l-.713-3.513c1.833-.305 3.31-.764 4.43-1.375 1.12-.662 1.986-1.426 2.597-2.393s1.222-2.24 1.782-3.768h-1.477l-9.623-27.494h4.684l7.892 24.134 7.79-24.134h4.531l-9.623 27.698z" class="B"/><use xlink:href="#D" x="125.331" class="B"/><path d="M478.585 532.007c0 1.782.356 3.055 1.12 3.87s1.935 1.222 3.513 1.222c1.426 0 2.851-.407 4.226-1.273 1.375-.815 2.444-1.833 3.208-3.106v-20.213h4.379V540h-3.717l-.356-3.717a10.43 10.43 0 0 1-3.971 3.157c-1.578.764-3.208 1.171-4.837 1.171-2.648 0-4.633-.713-5.957-2.088-1.324-1.426-1.986-3.411-1.986-6.008v-20.01h4.379v19.501zM505.54 540v-27.494h3.717l.356 3.819c1.12-1.375 2.495-2.444 4.124-3.208 1.68-.815 3.31-1.171 4.99-1.171 2.597 0 4.531.662 5.804 2.088 1.273 1.375 1.884 3.36 1.884 6.008V540h-4.379v-16.751c0-2.037-.102-3.615-.305-4.684-.255-1.069-.662-1.884-1.324-2.393-.713-.509-1.68-.815-3.055-.815-1.477 0-2.902.458-4.175 1.375-1.324.916-2.393 1.986-3.259 3.259V540h-4.379zm43.755-3.207c2.444 0 4.837-.764 7.179-2.393l2.138 2.902c-1.222.967-2.648 1.782-4.328 2.393-1.731.611-3.36.916-4.99.916-2.699 0-4.99-.611-6.925-1.782-1.986-1.12-3.462-2.8-4.43-4.939-1.018-2.138-1.527-4.633-1.527-7.536 0-2.749.509-5.244 1.527-7.434a12.54 12.54 0 0 1 4.481-5.142c1.935-1.222 4.277-1.833 6.925-1.833 3.513 0 6.568 1.069 9.216 3.157l-2.138 2.953c-2.393-1.629-4.735-2.444-7.128-2.444-1.629 0-3.004.356-4.226 1.171s-2.189 2.037-2.902 3.615c-.662 1.629-1.018 3.615-1.018 5.957 0 3.513.764 6.161 2.24 7.892 1.426 1.731 3.411 2.546 5.906 2.546zm24.765-15.071c0 3.564.407 6.67 1.222 9.267.815 2.648 1.986 5.041 3.615 7.179 1.578 2.138 3.666 4.379 6.314 6.721l-2.291 2.444c-3.055-2.495-5.499-4.939-7.434-7.332s-3.411-5.041-4.481-8.045c-1.018-2.953-1.527-6.364-1.527-10.234s.509-7.281 1.527-10.234c1.069-2.953 2.546-5.652 4.481-8.045s4.379-4.837 7.434-7.332l2.291 2.444c-2.648 2.342-4.786 4.633-6.364 6.721-1.578 2.138-2.8 4.531-3.564 7.128-.815 2.648-1.222 5.753-1.222 9.318z" class="B"/><g fill="#e40df2" class="B"><path d="M621.278 532.007c0 1.018.153 1.782.407 2.24.305.509.764.866 1.426 1.12l-1.68 5.397c-1.68-.153-3.106-.509-4.175-1.069-1.12-.611-1.986-1.477-2.648-2.546-1.018 1.222-2.342 2.138-3.971 2.8-1.629.611-3.31.916-5.142.916-1.884 0-3.513-.356-4.939-1.069a8.46 8.46 0 0 1-3.31-3.106c-.764-1.324-1.12-2.8-1.12-4.531 0-1.986.509-3.666 1.578-5.092s2.597-2.495 4.633-3.208c2.037-.764 4.43-1.12 7.281-1.12h3.717v-1.018c0-2.851-1.833-4.277-5.448-4.277-.916 0-2.088.102-3.513.407-1.375.255-2.749.611-4.124 1.069l-1.884-5.499a31.18 31.18 0 0 1 5.499-1.527c1.935-.356 3.717-.56 5.295-.56 4.073 0 7.128.866 9.114 2.495 2.037 1.68 3.004 4.073 3.004 7.332v10.845zm-12.933 3.004c.916 0 1.884-.305 2.851-.866a4.93 4.93 0 0 0 2.138-2.189v-4.531h-2.037c-2.24 0-3.92.356-5.041 1.069-1.069.713-1.629 1.731-1.629 3.106 0 1.069.305 1.884.967 2.495s1.578.916 2.749.916z"/><use xlink:href="#E"/><path d="M700.206 515.103c.866-1.171 1.935-2.088 3.157-2.749s2.546-1.018 3.92-1.018c3.462 0 6.059 1.324 7.739 3.87 1.68 2.597 2.495 6.212 2.495 10.845 0 2.902-.407 5.448-1.273 7.688s-2.138 3.971-3.768 5.244c-1.68 1.273-3.666 1.884-6.059 1.884-1.375 0-2.648-.255-3.87-.866-1.171-.56-2.189-1.426-2.953-2.495l-.356 2.495h-7.281v-38.747l8.248-.866v14.715zm4.073 19.755c3.157 0 4.735-2.902 4.735-8.707 0-2.24-.153-3.971-.509-5.244s-.866-2.189-1.477-2.699c-.662-.509-1.426-.764-2.342-.764-1.68 0-3.208 1.069-4.481 3.208v11.711c.509.815 1.12 1.477 1.782 1.884s1.426.611 2.291.611z"/><use xlink:href="#E" x="93.997"/><path d="M800.669 534.4c1.018 0 2.037-.204 3.055-.611.967-.407 2.037-1.018 3.106-1.782l3.666 5.244c-1.273 1.12-2.8 1.986-4.582 2.648-1.731.662-3.666.967-5.703.967-2.953 0-5.499-.611-7.637-1.782-2.189-1.222-3.819-2.953-4.99-5.142-1.12-2.189-1.731-4.735-1.731-7.637 0-2.851.611-5.448 1.782-7.739 1.171-2.24 2.851-4.022 5.041-5.295s4.735-1.935 7.688-1.935c2.088 0 3.92.305 5.55.866 1.68.611 3.208 1.477 4.582 2.648l-3.564 4.939c-1.986-1.375-4.073-2.088-6.212-2.088-1.986 0-3.513.713-4.582 2.088-1.12 1.375-1.68 3.513-1.68 6.517 0 2.902.56 4.99 1.68 6.212 1.069 1.273 2.597 1.884 4.531 1.884z"/></g><use xlink:href="#E" x="187.996" class="B"/><path d="M906.124 500.286l-21.894 45.569-6.466-2.953 21.996-45.569 6.364 2.953z" class="B"/><use xlink:href="#F" class="B"/><g fill="#29a538" class="B"><use xlink:href="#B" x="720.65"/><use xlink:href="#F" x="93.996"/><use xlink:href="#C" x="783.315"/><use xlink:href="#F" x="187.992"/><use xlink:href="#D" x="845.978"/></g><path d="M1209.822 521.722c0-3.564-.356-6.67-1.171-9.318-.815-2.597-1.986-4.99-3.564-7.128-1.629-2.088-3.717-4.379-6.415-6.721l2.291-2.444c3.055 2.495 5.55 4.939 7.485 7.332s3.411 5.092 4.43 8.045c1.069 2.953 1.578 6.364 1.578 10.234s-.509 7.281-1.578 10.234a25.82 25.82 0 0 1-4.43 8.045c-1.935 2.393-4.43 4.837-7.485 7.332l-2.291-2.444c2.648-2.342 4.786-4.582 6.364-6.721s2.8-4.531 3.615-7.179c.764-2.597 1.171-5.703 1.171-9.267zm22.524-8.401c0-.764.204-1.426.56-2.088a3.68 3.68 0 0 1 1.527-1.527c.611-.356 1.324-.56 2.138-.56a4.32 4.32 0 0 1 2.138.56 3.68 3.68 0 0 1 1.527 1.527c.407.662.56 1.324.56 2.088s-.153 1.477-.56 2.138c-.356.662-.866 1.171-1.527 1.578-.611.356-1.375.56-2.138.56a4.18 4.18 0 0 1-2.138-.56c-.662-.407-1.171-.916-1.527-1.578a4.47 4.47 0 0 1-.56-2.138zm0 18.839c0-.764.204-1.426.56-2.088a3.68 3.68 0 0 1 1.527-1.527c.611-.407 1.324-.56 2.138-.56.764 0 1.477.153 2.138.56a3.68 3.68 0 0 1 1.527 1.527c.407.662.56 1.324.56 2.088 0 .815-.153 1.527-.56 2.138-.356.662-.866 1.171-1.527 1.578-.611.356-1.375.56-2.138.56a4.18 4.18 0 0 1-2.138-.56c-.662-.407-1.171-.916-1.527-1.578-.356-.611-.56-1.324-.56-2.138z" class="B"/><path d="M891.296 614.235v-23.596H612.484v-21.91l-33.709 33.708 33.709 33.708v-21.91h278.811z" fill="none" stroke="#000" stroke-width="1.034"/><g class="B"><path d="M716.144 659.392v1.988l.088 4.726.044 4.859c0 .398-.133.751-.442 1.016s-.663.398-1.06.398-.751-.133-1.016-.442-.398-.663-.398-1.06c.044-1.016 0-2.562-.044-4.682l-.088-4.814-.177-19.787c-.044-.398.088-.751.353-1.06s.618-.442 1.016-.486.751.088 1.06.353.442.618.486 1.016.044.751.044 1.148a13.99 13.99 0 0 1 2.164-1.767c.972-.618 2.076-1.06 3.357-1.325 1.237-.221 2.473-.265 3.666-.088 1.325.221 2.518.707 3.533 1.458 1.016.795 1.767 1.899 2.164 3.268.398 1.546.442 3.048.133 4.417a10.01 10.01 0 0 1-1.767 3.887c-.883 1.237-1.855 2.253-2.959 3.092-1.104.883-2.253 1.59-3.445 2.076-1.413.618-3.666 1.237-6.714 1.811zm.044-2.959c2.473-.486 4.329-1.016 5.521-1.502a12.18 12.18 0 0 0 5.256-4.284c1.281-1.899 1.678-3.843 1.104-5.742-.398-1.502-1.502-2.385-3.313-2.65s-3.489.088-4.991 1.016c-1.369.883-2.518 2.208-3.401 3.975-.044.088-.133.177-.177.221v8.966z"/><use xlink:href="#G"/><use xlink:href="#H"/><use xlink:href="#I"/><path d="M781.683 657.096c-.088-1.06-.265-1.988-.486-2.738-.265-.751-.53-1.325-.839-1.678-.309-.309-.618-.574-.883-.707s-.53-.221-.751-.177c-.663.044-1.413.486-2.253 1.325-.839.883-1.458 2.164-1.943 3.887-.53 1.811-.751 3.489-.574 5.035.133 1.546.442 2.915.972 4.019s1.193 1.988 1.988 2.562c1.193.839 2.473.928 3.843.353 1.811-.751 3.533-2.606 5.212-5.477a1.56 1.56 0 0 1 .883-.707c.398-.088.751-.044 1.104.133a1.56 1.56 0 0 1 .707.883c.088.398.044.751-.133 1.104-1.988 3.445-4.196 5.698-6.625 6.758-2.385 1.016-4.594.795-6.669-.707-1.855-1.369-3.136-3.357-3.798-6.051s-.574-5.609.265-8.701c.618-2.12 1.546-3.843 2.783-5.212s2.606-2.076 4.108-2.12c1.678-.088 3.048.574 4.108 2.032 1.016 1.458 1.678 3.445 1.899 5.919.044.398-.088.751-.309 1.06-.265.309-.618.486-1.016.53s-.751-.088-1.06-.353c-.309-.221-.486-.574-.53-.972z"/><use xlink:href="#I" x="25.066"/><use xlink:href="#G" x="64.265"/><path d="M816.863 657.891a20.93 20.93 0 0 1 1.59-2.562c1.281-1.899 2.606-3.313 3.931-4.196 1.855-1.237 3.578-1.369 5.212-.398 1.06.618 1.899 1.943 2.518 4.019.486 1.502.839 3.401 1.104 5.742.398 3.401.53 6.802.486 10.203a1.34 1.34 0 0 1-.442 1.016c-.309.265-.663.398-1.016.398-.398 0-.751-.133-1.016-.442-.309-.309-.442-.663-.442-1.06.044-3.136-.088-6.404-.486-9.761-.221-2.208-.574-3.931-.972-5.212-.398-1.369-.839-2.164-1.237-2.429-.574-.309-1.281-.221-2.12.353-.972.663-2.032 1.811-3.136 3.445-.972 1.458-1.811 2.959-2.562 4.549-.751 1.634-1.148 2.827-1.237 3.578-.088.53-.133 1.281-.177 2.253l-.133 2.518c0 .044 0 .133-.044.177v.088c0 .133-.044.221-.088.353-.088.133-.177.265-.309.398a1.34 1.34 0 0 1-1.369.398 1.42 1.42 0 0 1-.928-.663c-.044-.133-.088-.221-.133-.353l-.044-.309c-.044-.044-.044-.088-.044-.177s0-.309.044-.618c.044-.972.044-1.502.044-1.59 0-.398.044-1.193.088-2.473.044-1.237.044-2.208.044-2.915v-1.899-2.032c-.044-.353-.044-.972-.088-1.811s-.044-1.546-.088-2.032-.133-1.06-.177-1.723c-.088-.663-.177-1.325-.309-1.899-.088-.398 0-.751.221-1.104a1.52 1.52 0 0 1 .928-.618c.353-.044.751.044 1.104.221.309.221.53.574.574.972.398 1.988.663 4.549.707 7.597zm29.358 8.215c-.839-1.988-1.458-3.313-1.899-3.887-.972-1.193-2.208-1.767-3.754-1.723s-2.738.751-3.622 2.12c-1.193 1.811-1.325 3.357-.309 4.638.442.574 1.06.972 1.943 1.237.795.309 1.767.353 2.827.177 1.281-.265 2.915-1.104 4.814-2.562zm-8.083-14.708c2.518-2.341 4.814-3.136 6.846-2.341 1.634.618 2.871 2.253 3.754 4.859l.663 2.562a28.5 28.5 0 0 1 .53 2.915l.309 2.562.177 2.473.133 1.678c0 .044.088.883.309 2.429l.133 1.369c.044.53.088.928.044 1.148l-.133.398c-.133.398-.398.663-.751.795-.574.309-1.148.221-1.634-.221-.133-.133-.221-.265-.309-.442s-.177-.442-.265-.751l-.177-.618c-.044-.221-.088-.353-.133-.398l-.309-.883c-1.899 1.413-3.71 2.253-5.389 2.562-1.59.309-3.048.221-4.373-.221-1.369-.442-2.429-1.193-3.224-2.253-.839-1.06-1.281-2.297-1.237-3.754 0-1.458.442-2.871 1.369-4.24.928-1.413 2.164-2.429 3.666-3.003s3.048-.618 4.594-.221c1.502.442 2.827 1.325 3.887 2.65.177.221.353.53.574.839-.309-2.694-.707-4.814-1.237-6.404-.574-1.767-1.281-2.827-2.032-3.136-.883-.353-2.164.221-3.843 1.767-.309.309-.663.442-1.016.398-.398-.044-.751-.177-1.016-.486-.309-.309-.442-.663-.398-1.06s.177-.707.486-.972zm17.513-9.982c.133 2.164.177 8.79.177 19.964 0 .928.044 2.473.088 4.726.044 2.164.088 3.754.044 4.859 0 .398-.133.751-.442 1.016s-.663.398-1.06.398-.751-.133-1.016-.442-.398-.663-.398-1.06c.044-1.016 0-2.562-.044-4.682l-.088-4.814-.177-19.787c-.044-.398.088-.751.353-1.06s.618-.442 1.016-.486.751.088 1.06.353.442.618.486 1.016zm13.707 15.149c.177-.044.442-.044.795-.088-.133-.663-.398-1.325-.839-2.076-.486-.795-.972-1.413-1.546-1.899s-1.06-.707-1.458-.707c-1.237 0-2.341.795-3.313 2.385a13.19 13.19 0 0 0-1.148 2.518h4.108l3.401-.133zm-8.127 3.18l-.088.751c-.177 2.518.177 4.549 1.104 6.139.883 1.634 2.208 2.429 3.931 2.473.928.044 1.678-.088 2.253-.398s1.369-.883 2.297-1.767c.221-.221.442-.442.663-.751l.618-.795.618-1.06.574-.928c.221-.353.574-.574.972-.663.398-.044.751 0 1.104.221.309.221.53.574.618.972.044.398 0 .795-.221 1.104-.044.044-.265.309-.574.795l-.707 1.148-.795 1.104c-.309.442-.618.795-.928 1.016-1.104 1.06-2.164 1.811-3.092 2.297s-2.12.707-3.489.663c-1.546-.044-2.827-.442-3.931-1.193-1.148-.751-1.943-1.723-2.518-2.915-.574-1.148-.972-2.429-1.193-3.71s-.309-2.65-.177-4.019c.221-2.915.972-5.433 2.253-7.553 1.546-2.562 3.489-3.843 5.786-3.798 1.148 0 2.208.398 3.136 1.237s1.723 1.767 2.385 2.871c.574 1.016.972 1.988 1.193 2.915.133.53.177 1.016.133 1.458-.088.663-.398 1.193-.883 1.59-.309.221-.707.353-1.281.486l-1.413.177-3.578.133h-4.77z"/><use xlink:href="#H" x="127.647"/></g></g><defs ><path id="B" d="M271.324 500.897l4.379.56V540h-3.819l-.407-3.615c-1.018 1.426-2.189 2.495-3.513 3.157-1.324.713-2.749 1.069-4.328 1.069-3.462 0-6.059-1.273-7.841-3.87-1.731-2.546-2.597-6.008-2.597-10.438 0-2.8.407-5.244 1.273-7.434s2.088-3.87 3.717-5.092 3.564-1.833 5.804-1.833c1.527 0 2.953.255 4.124.815 1.222.509 2.291 1.324 3.208 2.393v-14.256zm-6.212 14.562c-2.291 0-4.073.916-5.295 2.749-1.222 1.782-1.833 4.481-1.833 8.096 0 3.564.56 6.212 1.68 8.045 1.12 1.782 2.749 2.699 4.888 2.699 2.597 0 4.888-1.426 6.772-4.328v-13.747c-.764-1.12-1.629-1.986-2.699-2.597s-2.24-.916-3.513-.916z"/><path id="C" d="M289.672 527.832c.051 2.037.458 3.717 1.171 5.092.764 1.375 1.731 2.393 2.902 3.055s2.495.967 3.971.967c1.324 0 2.597-.204 3.717-.611 1.171-.407 2.342-1.018 3.615-1.884l2.037 2.902c-1.273 1.018-2.749 1.833-4.43 2.393-1.629.56-3.31.866-4.99.866-2.648 0-4.888-.611-6.823-1.782-1.884-1.171-3.31-2.851-4.328-5.041-.967-2.138-1.426-4.633-1.426-7.485 0-2.8.458-5.244 1.477-7.434.967-2.189 2.393-3.87 4.175-5.092 1.833-1.222 3.92-1.833 6.314-1.833 2.342 0 4.328.509 6.008 1.629 1.68 1.069 2.953 2.597 3.819 4.633.916 2.037 1.375 4.43 1.375 7.179l-.102 2.444h-18.482zm7.434-12.322c-2.088 0-3.819.764-5.142 2.24-1.375 1.527-2.088 3.717-2.291 6.67h14.358c-.051-2.902-.713-5.092-1.935-6.619s-2.851-2.291-4.99-2.291z"/><path id="D" d="M333.785 500.897c1.426 0 2.749.102 3.92.356 1.222.255 2.393.611 3.513 1.12l-1.375 3.259c-1.731-.764-3.717-1.12-5.906-1.12-3.87 0-5.804 1.477-5.804 4.531v5.601h9.318l-.458 3.462h-8.859V540h-4.379v-21.894h-6.568v-3.462h6.568v-5.499c0-1.629.458-3.106 1.324-4.328.866-1.273 2.037-2.24 3.564-2.902 1.527-.713 3.208-1.018 5.142-1.018z"/><path id="E" d="M641.308 529.257a6.12 6.12 0 0 1 2.902.713 5.58 5.58 0 0 1 2.037 2.037c.509.866.713 1.833.713 2.902 0 .916-.153 1.884-.407 2.8-.305.916-.916 2.342-1.833 4.379l-3.768 8.554h-5.499l2.699-11.1c-.815-.509-1.426-1.171-1.884-1.986-.407-.815-.611-1.731-.611-2.699 0-1.069.255-1.986.764-2.851.458-.866 1.171-1.527 1.986-2.037a6.12 6.12 0 0 1 2.902-.713z"/><path id="F" d="M923.302 531.396c.764 0 1.527.204 2.138.56.662.407 1.171.916 1.527 1.527.356.662.56 1.324.56 2.088 0 .662-.102 1.324-.255 1.935-.153.662-.407 1.375-.764 2.189l-4.226 9.674h-3.971l2.495-10.285c-.509-.407-.916-.916-1.222-1.527s-.458-1.273-.458-1.986c0-.764.153-1.426.509-2.088.407-.611.866-1.12 1.527-1.527.611-.356 1.324-.56 2.138-.56z"/><path id="G" d="M741.107 652.414l-.663-.177c-.177-.044-.309-.088-.398-.088-1.148.044-2.208.751-3.18 2.076-1.016 1.369-1.723 3.048-2.12 5.124-.353 2.076-.265 3.975.221 5.654.486 1.723 1.369 2.871 2.606 3.533 1.546.751 2.959.618 4.24-.442 1.369-1.104 2.341-2.783 2.915-5.035.53-2.164.486-4.24-.088-6.228-.618-1.988-1.811-3.445-3.533-4.417zm1.06-2.738a1.06 1.06 0 0 1 .53.309 10.1 10.1 0 0 1 3.092 2.694c.795 1.148 1.369 2.297 1.678 3.489.309 1.237.53 2.518.574 3.843a11.69 11.69 0 0 1-.486 3.754c-.707 2.915-2.032 5.124-3.931 6.625-2.253 1.811-4.726 2.076-7.376.707-1.016-.486-1.899-1.237-2.606-2.208a7.48 7.48 0 0 1-1.502-3.092c-.265-1.104-.442-2.253-.486-3.489-.088-1.237 0-2.385.265-3.489.442-2.518 1.281-4.638 2.562-6.36 1.546-2.032 3.313-3.092 5.389-3.224h.044a1.48 1.48 0 0 1 1.148-.044c.398.133.751.309 1.104.486z"/><path id="H" d="M760.681 654.18c-.133-.133-.353-.309-.663-.574l-.574-.53a2.15 2.15 0 0 0-.442-.353c-.221-.133-.398-.265-.53-.309s-.309-.133-.53-.177c-1.104-.221-1.943-.044-2.606.618-.663.618-.795 1.413-.442 2.385.177.486.53 1.016 1.06 1.546.53.574 1.369 1.325 2.518 2.297l.53.486 1.988 1.767c.486.486 1.016 1.193 1.59 2.032.574.883.883 1.723 1.016 2.562.177 1.369-.044 2.562-.618 3.578-.618 1.016-1.458 1.811-2.562 2.297-.972.486-2.032.707-3.224.663s-2.297-.309-3.313-.883c-1.104-.618-1.988-1.369-2.65-2.253-.663-.839-1.237-1.899-1.811-3.18a1.48 1.48 0 0 1-.044-1.148c.133-.353.398-.618.795-.795.353-.177.707-.177 1.104-.044.353.133.618.398.795.751.486 1.06.928 1.899 1.413 2.518.486.663 1.06 1.193 1.811 1.59.574.309 1.237.486 1.943.53s1.369-.088 1.943-.398c1.193-.574 1.723-1.502 1.502-2.783-.088-.663-.442-1.369-1.016-2.076s-1.458-1.546-2.562-2.518c-.088-.088-.353-.309-.751-.663l-.883-.707-.795-.751c-.353-.309-.618-.618-.795-.839l-.707-.795-.618-.928c-.177-.309-.309-.574-.398-.883-.353-1.06-.442-2.076-.221-3.003s.663-1.767 1.325-2.429 1.502-1.104 2.429-1.369c.928-.221 1.899-.221 2.871 0 .398.088.751.221 1.104.353.309.133.663.309.972.53l.751.574.707.663.53.53c.309.265.442.574.486.972s-.088.751-.353 1.06c-.309.309-.618.442-1.016.486s-.751-.088-1.06-.398z"/><path id="I" d="M768.322 651.265c.221 2.65.265 5.963.177 9.938l-.221 9.717c0 .398-.133.751-.398 1.06-.309.265-.663.398-1.06.398s-.751-.133-1.016-.398c-.309-.309-.442-.663-.442-1.06l.221-9.805-.177-9.585c-.044-.398.088-.795.353-1.104s.618-.442 1.016-.486.751.088 1.06.353c.265.265.442.574.486.972zm-.618-8.436c.309.265.442.618.442 1.016s-.133.751-.398 1.016c-.309.309-.663.442-1.06.442s-.751-.133-1.016-.442c-.309-.265-.442-.618-.442-1.016s.133-.751.442-1.06c.265-.265.618-.398 1.016-.398s.751.133 1.016.442z"/></defs></svg>