<?xml version="1.0" encoding="UTF-8" standalone="no"?>
<!DOCTYPE svg PUBLIC "-//W3C//DTD SVG 1.1//EN" "http://www.w3.org/Graphics/SVG/1.1/DTD/svg11.dtd">
<svg width="598px" height="571px" version="1.1" xmlns="http://www.w3.org/2000/svg" xmlns:xlink="http://www.w3.org/1999/xlink" xml:space="preserve" xmlns:serif="http://www.serif.com/" style="fill-rule:evenodd;clip-rule:evenodd;stroke-linecap:round;stroke-linejoin:round;stroke-miterlimit:1.5;">
    <g transform="matrix(1,0,0,1,-546,-126)">
        <g transform="matrix(1.09926,0,0,1.04807,111.79,-1.8651)">
            <rect x="395" y="122" width="544" height="544" style="fill:rgb(225,227,155);"/>
        </g>
        <g transform="matrix(1.01164,0,0,0.81403,170.235,90.9661)">
            <rect x="395" y="122" width="544" height="544" style="fill:rgb(227,179,155);"/>
        </g>
        <g transform="matrix(0.92933,0,0,0.607563,225.137,173.933)">
            <rect x="395" y="122" width="544" height="544" style="fill:rgb(155,227,225);"/>
        </g>
        <g transform="matrix(0.852328,0,0,0.386794,276.497,257.922)">
            <rect x="395" y="122" width="544" height="544" style="fill:rgb(155,155,227);"/>
        </g>
        <g transform="matrix(0.764706,0,0,0.199831,334.941,332.732)">
            <rect x="395" y="122" width="544" height="544" style="fill:rgb(225,155,227);"/>
        </g>
        <g transform="matrix(0.722222,0,0,0.722222,134.221,-13.057)">
            <g transform="matrix(37,0,0,37,599,253)">
                <path d="M0.355,-0.556C0.487,-0.556 0.552,-0.461 0.552,-0.272C0.552,-0.216 0.544,-0.166 0.528,-0.123C0.513,-0.08 0.489,-0.047 0.458,-0.023C0.426,0.002 0.388,0.014 0.344,0.014C0.287,0.014 0.241,-0.006 0.206,-0.046L0.206,0.208L0.091,0.221L0.091,-0.542L0.191,-0.542L0.198,-0.472C0.219,-0.499 0.242,-0.52 0.269,-0.535C0.296,-0.549 0.325,-0.556 0.355,-0.556ZM0.324,-0.467C0.3,-0.467 0.278,-0.46 0.258,-0.446C0.239,-0.432 0.221,-0.413 0.206,-0.39L0.206,-0.136C0.233,-0.096 0.269,-0.076 0.313,-0.076C0.353,-0.076 0.382,-0.092 0.402,-0.123C0.422,-0.155 0.432,-0.204 0.432,-0.271C0.432,-0.34 0.423,-0.389 0.405,-0.421C0.387,-0.452 0.36,-0.467 0.324,-0.467Z" style="fill-rule:nonzero;"/>
            </g>
            <g transform="matrix(37,0,0,37,621.769,253)">
                <path d="M0.308,-0.556C0.36,-0.556 0.404,-0.544 0.441,-0.521C0.478,-0.498 0.505,-0.465 0.524,-0.422C0.543,-0.38 0.552,-0.33 0.552,-0.272C0.552,-0.214 0.543,-0.164 0.524,-0.121C0.504,-0.078 0.477,-0.045 0.44,-0.022C0.403,0.002 0.359,0.014 0.308,0.014C0.256,0.014 0.211,0.002 0.175,-0.021C0.138,-0.043 0.111,-0.076 0.092,-0.119C0.073,-0.162 0.063,-0.212 0.063,-0.271C0.063,-0.327 0.073,-0.377 0.092,-0.42C0.111,-0.463 0.139,-0.496 0.176,-0.52C0.212,-0.544 0.257,-0.556 0.308,-0.556ZM0.308,-0.467C0.266,-0.467 0.235,-0.451 0.215,-0.419C0.194,-0.387 0.184,-0.337 0.184,-0.271C0.184,-0.204 0.194,-0.155 0.214,-0.123C0.235,-0.091 0.266,-0.075 0.308,-0.075C0.349,-0.075 0.381,-0.091 0.401,-0.123C0.422,-0.155 0.432,-0.204 0.432,-0.272C0.432,-0.338 0.422,-0.387 0.401,-0.419C0.381,-0.451 0.35,-0.467 0.308,-0.467Z" style="fill-rule:nonzero;"/>
            </g>
            <g transform="matrix(37,0,0,37,644.538,253)">
                <path d="M0.603,-0.542L0.515,-0L0.371,-0L0.31,-0.385L0.245,-0L0.104,-0L0.012,-0.542L0.123,-0.542L0.179,-0.071L0.255,-0.473L0.37,-0.473L0.44,-0.071L0.496,-0.542L0.603,-0.542Z" style="fill-rule:nonzero;"/>
            </g>
            <g transform="matrix(37,0,0,37,667.308,253)">
                <path d="M0.237,-0.359C0.237,-0.294 0.244,-0.237 0.258,-0.187C0.273,-0.138 0.295,-0.092 0.325,-0.049C0.355,-0.006 0.395,0.039 0.447,0.089L0.383,0.15C0.325,0.102 0.276,0.053 0.238,0.004C0.199,-0.044 0.17,-0.098 0.149,-0.158C0.129,-0.217 0.118,-0.284 0.118,-0.359C0.118,-0.434 0.129,-0.501 0.149,-0.56C0.17,-0.619 0.199,-0.674 0.238,-0.722C0.276,-0.771 0.325,-0.82 0.383,-0.868L0.447,-0.807C0.396,-0.758 0.356,-0.712 0.326,-0.67C0.296,-0.627 0.274,-0.581 0.259,-0.531C0.244,-0.481 0.237,-0.424 0.237,-0.359Z" style="fill-rule:nonzero;"/>
            </g>
            <g transform="matrix(37,0,0,37,690.077,253)">
                <path d="M0.279,-0.722C0.326,-0.722 0.366,-0.713 0.4,-0.696C0.434,-0.678 0.46,-0.654 0.477,-0.624C0.495,-0.594 0.504,-0.56 0.504,-0.522C0.504,-0.481 0.494,-0.44 0.475,-0.401C0.456,-0.362 0.425,-0.318 0.382,-0.271C0.338,-0.223 0.278,-0.164 0.199,-0.092L0.521,-0.092L0.507,-0L0.067,-0L0.067,-0.087C0.156,-0.173 0.222,-0.239 0.266,-0.288C0.31,-0.336 0.341,-0.377 0.358,-0.411C0.376,-0.445 0.385,-0.48 0.385,-0.515C0.385,-0.551 0.375,-0.579 0.355,-0.599C0.335,-0.62 0.307,-0.63 0.271,-0.63C0.24,-0.63 0.213,-0.624 0.192,-0.613C0.17,-0.601 0.149,-0.582 0.128,-0.556L0.053,-0.613C0.081,-0.649 0.114,-0.676 0.15,-0.695C0.186,-0.713 0.229,-0.722 0.279,-0.722Z" style="fill-rule:nonzero;"/>
            </g>
            <g transform="matrix(37,0,0,37,712.846,253)">
                <path d="M0.308,-0.185C0.325,-0.185 0.341,-0.181 0.356,-0.172C0.37,-0.164 0.381,-0.153 0.389,-0.139C0.397,-0.125 0.402,-0.109 0.402,-0.092C0.402,-0.077 0.399,-0.062 0.395,-0.046C0.39,-0.031 0.383,-0.012 0.372,0.012L0.293,0.193L0.204,0.193L0.254,-0.015C0.242,-0.023 0.232,-0.034 0.225,-0.048C0.218,-0.061 0.215,-0.076 0.215,-0.092C0.215,-0.109 0.219,-0.125 0.227,-0.139C0.235,-0.153 0.246,-0.164 0.261,-0.172C0.275,-0.181 0.29,-0.185 0.308,-0.185Z" style="fill-rule:nonzero;"/>
            </g>
            <g transform="matrix(37,0,0,37,735.615,253)">
                <path d="M0.468,-0.252L0.552,-0.252L0.552,-0.163L0.468,-0.163L0.468,-0L0.357,-0L0.357,-0.163L0.063,-0.163L0.063,-0.243L0.267,-0.722L0.364,-0.684L0.183,-0.252L0.357,-0.252L0.371,-0.442L0.468,-0.442L0.468,-0.252Z" style="fill-rule:nonzero;"/>
            </g>
            <g transform="matrix(37,0,0,37,758.385,253)">
                <path d="M0.378,-0.359C0.378,-0.424 0.371,-0.481 0.356,-0.531C0.342,-0.581 0.319,-0.627 0.289,-0.67C0.26,-0.712 0.219,-0.758 0.169,-0.807L0.232,-0.868C0.291,-0.82 0.339,-0.771 0.378,-0.722C0.416,-0.674 0.446,-0.619 0.466,-0.56C0.487,-0.501 0.497,-0.434 0.497,-0.359C0.497,-0.284 0.487,-0.217 0.466,-0.158C0.446,-0.098 0.416,-0.044 0.378,0.004C0.339,0.053 0.291,0.102 0.232,0.15L0.169,0.089C0.22,0.039 0.261,-0.006 0.291,-0.049C0.32,-0.092 0.343,-0.138 0.357,-0.187C0.371,-0.237 0.378,-0.294 0.378,-0.359Z" style="fill-rule:nonzero;"/>
            </g>
        </g>
        <g transform="matrix(0.722222,0,0,0.722222,156.61,46.5556)">
            <g transform="matrix(37,0,0,37,599,253)">
                <path d="M0.355,-0.556C0.487,-0.556 0.552,-0.461 0.552,-0.272C0.552,-0.216 0.544,-0.166 0.528,-0.123C0.513,-0.08 0.489,-0.047 0.458,-0.023C0.426,0.002 0.388,0.014 0.344,0.014C0.287,0.014 0.241,-0.006 0.206,-0.046L0.206,0.208L0.091,0.221L0.091,-0.542L0.191,-0.542L0.198,-0.472C0.219,-0.499 0.242,-0.52 0.269,-0.535C0.296,-0.549 0.325,-0.556 0.355,-0.556ZM0.324,-0.467C0.3,-0.467 0.278,-0.46 0.258,-0.446C0.239,-0.432 0.221,-0.413 0.206,-0.39L0.206,-0.136C0.233,-0.096 0.269,-0.076 0.313,-0.076C0.353,-0.076 0.382,-0.092 0.402,-0.123C0.422,-0.155 0.432,-0.204 0.432,-0.271C0.432,-0.34 0.423,-0.389 0.405,-0.421C0.387,-0.452 0.36,-0.467 0.324,-0.467Z" style="fill-rule:nonzero;"/>
            </g>
            <g transform="matrix(37,0,0,37,621.769,253)">
                <path d="M0.308,-0.556C0.36,-0.556 0.404,-0.544 0.441,-0.521C0.478,-0.498 0.505,-0.465 0.524,-0.422C0.543,-0.38 0.552,-0.33 0.552,-0.272C0.552,-0.214 0.543,-0.164 0.524,-0.121C0.504,-0.078 0.477,-0.045 0.44,-0.022C0.403,0.002 0.359,0.014 0.308,0.014C0.256,0.014 0.211,0.002 0.175,-0.021C0.138,-0.043 0.111,-0.076 0.092,-0.119C0.073,-0.162 0.063,-0.212 0.063,-0.271C0.063,-0.327 0.073,-0.377 0.092,-0.42C0.111,-0.463 0.139,-0.496 0.176,-0.52C0.212,-0.544 0.257,-0.556 0.308,-0.556ZM0.308,-0.467C0.266,-0.467 0.235,-0.451 0.215,-0.419C0.194,-0.387 0.184,-0.337 0.184,-0.271C0.184,-0.204 0.194,-0.155 0.214,-0.123C0.235,-0.091 0.266,-0.075 0.308,-0.075C0.349,-0.075 0.381,-0.091 0.401,-0.123C0.422,-0.155 0.432,-0.204 0.432,-0.272C0.432,-0.338 0.422,-0.387 0.401,-0.419C0.381,-0.451 0.35,-0.467 0.308,-0.467Z" style="fill-rule:nonzero;"/>
            </g>
            <g transform="matrix(37,0,0,37,644.538,253)">
                <path d="M0.603,-0.542L0.515,-0L0.371,-0L0.31,-0.385L0.245,-0L0.104,-0L0.012,-0.542L0.123,-0.542L0.179,-0.071L0.255,-0.473L0.37,-0.473L0.44,-0.071L0.496,-0.542L0.603,-0.542Z" style="fill-rule:nonzero;"/>
            </g>
            <g transform="matrix(37,0,0,37,667.308,253)">
                <path d="M0.237,-0.359C0.237,-0.294 0.244,-0.237 0.258,-0.187C0.273,-0.138 0.295,-0.092 0.325,-0.049C0.355,-0.006 0.395,0.039 0.447,0.089L0.383,0.15C0.325,0.102 0.276,0.053 0.238,0.004C0.199,-0.044 0.17,-0.098 0.149,-0.158C0.129,-0.217 0.118,-0.284 0.118,-0.359C0.118,-0.434 0.129,-0.501 0.149,-0.56C0.17,-0.619 0.199,-0.674 0.238,-0.722C0.276,-0.771 0.325,-0.82 0.383,-0.868L0.447,-0.807C0.396,-0.758 0.356,-0.712 0.326,-0.67C0.296,-0.627 0.274,-0.581 0.259,-0.531C0.244,-0.481 0.237,-0.424 0.237,-0.359Z" style="fill-rule:nonzero;"/>
            </g>
            <g transform="matrix(37,0,0,37,690.077,253)">
                <path d="M0.279,-0.722C0.326,-0.722 0.366,-0.713 0.4,-0.696C0.434,-0.678 0.46,-0.654 0.477,-0.624C0.495,-0.594 0.504,-0.56 0.504,-0.522C0.504,-0.481 0.494,-0.44 0.475,-0.401C0.456,-0.362 0.425,-0.318 0.382,-0.271C0.338,-0.223 0.278,-0.164 0.199,-0.092L0.521,-0.092L0.507,-0L0.067,-0L0.067,-0.087C0.156,-0.173 0.222,-0.239 0.266,-0.288C0.31,-0.336 0.341,-0.377 0.358,-0.411C0.376,-0.445 0.385,-0.48 0.385,-0.515C0.385,-0.551 0.375,-0.579 0.355,-0.599C0.335,-0.62 0.307,-0.63 0.271,-0.63C0.24,-0.63 0.213,-0.624 0.192,-0.613C0.17,-0.601 0.149,-0.582 0.128,-0.556L0.053,-0.613C0.081,-0.649 0.114,-0.676 0.15,-0.695C0.186,-0.713 0.229,-0.722 0.279,-0.722Z" style="fill-rule:nonzero;"/>
            </g>
            <g transform="matrix(37,0,0,37,712.846,253)">
                <path d="M0.308,-0.185C0.325,-0.185 0.341,-0.181 0.356,-0.172C0.37,-0.164 0.381,-0.153 0.389,-0.139C0.397,-0.125 0.402,-0.109 0.402,-0.092C0.402,-0.077 0.399,-0.062 0.395,-0.046C0.39,-0.031 0.383,-0.012 0.372,0.012L0.293,0.193L0.204,0.193L0.254,-0.015C0.242,-0.023 0.232,-0.034 0.225,-0.048C0.218,-0.061 0.215,-0.076 0.215,-0.092C0.215,-0.109 0.219,-0.125 0.227,-0.139C0.235,-0.153 0.246,-0.164 0.261,-0.172C0.275,-0.181 0.29,-0.185 0.308,-0.185Z" style="fill-rule:nonzero;"/>
            </g>
            <g transform="matrix(37,0,0,37,735.615,253)">
                <path d="M0.277,-0.722C0.322,-0.722 0.362,-0.714 0.396,-0.698C0.431,-0.682 0.457,-0.66 0.475,-0.633C0.494,-0.606 0.503,-0.576 0.503,-0.543C0.503,-0.515 0.497,-0.489 0.485,-0.466C0.473,-0.443 0.456,-0.424 0.435,-0.409C0.414,-0.393 0.39,-0.383 0.363,-0.376C0.393,-0.373 0.421,-0.365 0.445,-0.351C0.47,-0.338 0.489,-0.318 0.504,-0.293C0.518,-0.268 0.526,-0.238 0.526,-0.202C0.526,-0.162 0.515,-0.125 0.494,-0.092C0.473,-0.059 0.443,-0.034 0.404,-0.015C0.365,0.004 0.32,0.014 0.269,0.014C0.223,0.014 0.181,0.005 0.141,-0.011C0.101,-0.028 0.067,-0.053 0.04,-0.085L0.11,-0.147C0.13,-0.124 0.153,-0.106 0.18,-0.095C0.207,-0.083 0.235,-0.077 0.264,-0.077C0.308,-0.077 0.343,-0.089 0.368,-0.112C0.394,-0.135 0.407,-0.166 0.407,-0.206C0.407,-0.25 0.395,-0.281 0.371,-0.301C0.347,-0.32 0.313,-0.33 0.27,-0.33L0.209,-0.33L0.223,-0.414L0.266,-0.414C0.289,-0.414 0.309,-0.419 0.328,-0.427C0.347,-0.435 0.362,-0.448 0.373,-0.465C0.384,-0.481 0.39,-0.502 0.39,-0.526C0.39,-0.548 0.384,-0.568 0.374,-0.584C0.363,-0.6 0.349,-0.612 0.33,-0.621C0.312,-0.629 0.291,-0.633 0.268,-0.633C0.239,-0.633 0.213,-0.628 0.19,-0.618C0.167,-0.607 0.144,-0.591 0.121,-0.57L0.06,-0.635C0.121,-0.693 0.194,-0.722 0.277,-0.722Z" style="fill-rule:nonzero;"/>
            </g>
            <g transform="matrix(37,0,0,37,758.385,253)">
                <path d="M0.378,-0.359C0.378,-0.424 0.371,-0.481 0.356,-0.531C0.342,-0.581 0.319,-0.627 0.289,-0.67C0.26,-0.712 0.219,-0.758 0.169,-0.807L0.232,-0.868C0.291,-0.82 0.339,-0.771 0.378,-0.722C0.416,-0.674 0.446,-0.619 0.466,-0.56C0.487,-0.501 0.497,-0.434 0.497,-0.359C0.497,-0.284 0.487,-0.217 0.466,-0.158C0.446,-0.098 0.416,-0.044 0.378,0.004C0.339,0.053 0.291,0.102 0.232,0.15L0.169,0.089C0.22,0.039 0.261,-0.006 0.291,-0.049C0.32,-0.092 0.343,-0.138 0.357,-0.187C0.371,-0.237 0.378,-0.294 0.378,-0.359Z" style="fill-rule:nonzero;"/>
            </g>
        </g>
        <g transform="matrix(0.722222,0,0,0.722222,177.554,103.611)">
            <g transform="matrix(37,0,0,37,599,253)">
                <path d="M0.355,-0.556C0.487,-0.556 0.552,-0.461 0.552,-0.272C0.552,-0.216 0.544,-0.166 0.528,-0.123C0.513,-0.08 0.489,-0.047 0.458,-0.023C0.426,0.002 0.388,0.014 0.344,0.014C0.287,0.014 0.241,-0.006 0.206,-0.046L0.206,0.208L0.091,0.221L0.091,-0.542L0.191,-0.542L0.198,-0.472C0.219,-0.499 0.242,-0.52 0.269,-0.535C0.296,-0.549 0.325,-0.556 0.355,-0.556ZM0.324,-0.467C0.3,-0.467 0.278,-0.46 0.258,-0.446C0.239,-0.432 0.221,-0.413 0.206,-0.39L0.206,-0.136C0.233,-0.096 0.269,-0.076 0.313,-0.076C0.353,-0.076 0.382,-0.092 0.402,-0.123C0.422,-0.155 0.432,-0.204 0.432,-0.271C0.432,-0.34 0.423,-0.389 0.405,-0.421C0.387,-0.452 0.36,-0.467 0.324,-0.467Z" style="fill-rule:nonzero;"/>
            </g>
            <g transform="matrix(37,0,0,37,621.769,253)">
                <path d="M0.308,-0.556C0.36,-0.556 0.404,-0.544 0.441,-0.521C0.478,-0.498 0.505,-0.465 0.524,-0.422C0.543,-0.38 0.552,-0.33 0.552,-0.272C0.552,-0.214 0.543,-0.164 0.524,-0.121C0.504,-0.078 0.477,-0.045 0.44,-0.022C0.403,0.002 0.359,0.014 0.308,0.014C0.256,0.014 0.211,0.002 0.175,-0.021C0.138,-0.043 0.111,-0.076 0.092,-0.119C0.073,-0.162 0.063,-0.212 0.063,-0.271C0.063,-0.327 0.073,-0.377 0.092,-0.42C0.111,-0.463 0.139,-0.496 0.176,-0.52C0.212,-0.544 0.257,-0.556 0.308,-0.556ZM0.308,-0.467C0.266,-0.467 0.235,-0.451 0.215,-0.419C0.194,-0.387 0.184,-0.337 0.184,-0.271C0.184,-0.204 0.194,-0.155 0.214,-0.123C0.235,-0.091 0.266,-0.075 0.308,-0.075C0.349,-0.075 0.381,-0.091 0.401,-0.123C0.422,-0.155 0.432,-0.204 0.432,-0.272C0.432,-0.338 0.422,-0.387 0.401,-0.419C0.381,-0.451 0.35,-0.467 0.308,-0.467Z" style="fill-rule:nonzero;"/>
            </g>
            <g transform="matrix(37,0,0,37,644.538,253)">
                <path d="M0.603,-0.542L0.515,-0L0.371,-0L0.31,-0.385L0.245,-0L0.104,-0L0.012,-0.542L0.123,-0.542L0.179,-0.071L0.255,-0.473L0.37,-0.473L0.44,-0.071L0.496,-0.542L0.603,-0.542Z" style="fill-rule:nonzero;"/>
            </g>
            <g transform="matrix(37,0,0,37,667.308,253)">
                <path d="M0.237,-0.359C0.237,-0.294 0.244,-0.237 0.258,-0.187C0.273,-0.138 0.295,-0.092 0.325,-0.049C0.355,-0.006 0.395,0.039 0.447,0.089L0.383,0.15C0.325,0.102 0.276,0.053 0.238,0.004C0.199,-0.044 0.17,-0.098 0.149,-0.158C0.129,-0.217 0.118,-0.284 0.118,-0.359C0.118,-0.434 0.129,-0.501 0.149,-0.56C0.17,-0.619 0.199,-0.674 0.238,-0.722C0.276,-0.771 0.325,-0.82 0.383,-0.868L0.447,-0.807C0.396,-0.758 0.356,-0.712 0.326,-0.67C0.296,-0.627 0.274,-0.581 0.259,-0.531C0.244,-0.481 0.237,-0.424 0.237,-0.359Z" style="fill-rule:nonzero;"/>
            </g>
            <g transform="matrix(37,0,0,37,690.077,253)">
                <path d="M0.279,-0.722C0.326,-0.722 0.366,-0.713 0.4,-0.696C0.434,-0.678 0.46,-0.654 0.477,-0.624C0.495,-0.594 0.504,-0.56 0.504,-0.522C0.504,-0.481 0.494,-0.44 0.475,-0.401C0.456,-0.362 0.425,-0.318 0.382,-0.271C0.338,-0.223 0.278,-0.164 0.199,-0.092L0.521,-0.092L0.507,-0L0.067,-0L0.067,-0.087C0.156,-0.173 0.222,-0.239 0.266,-0.288C0.31,-0.336 0.341,-0.377 0.358,-0.411C0.376,-0.445 0.385,-0.48 0.385,-0.515C0.385,-0.551 0.375,-0.579 0.355,-0.599C0.335,-0.62 0.307,-0.63 0.271,-0.63C0.24,-0.63 0.213,-0.624 0.192,-0.613C0.17,-0.601 0.149,-0.582 0.128,-0.556L0.053,-0.613C0.081,-0.649 0.114,-0.676 0.15,-0.695C0.186,-0.713 0.229,-0.722 0.279,-0.722Z" style="fill-rule:nonzero;"/>
            </g>
            <g transform="matrix(37,0,0,37,712.846,253)">
                <path d="M0.308,-0.185C0.325,-0.185 0.341,-0.181 0.356,-0.172C0.37,-0.164 0.381,-0.153 0.389,-0.139C0.397,-0.125 0.402,-0.109 0.402,-0.092C0.402,-0.077 0.399,-0.062 0.395,-0.046C0.39,-0.031 0.383,-0.012 0.372,0.012L0.293,0.193L0.204,0.193L0.254,-0.015C0.242,-0.023 0.232,-0.034 0.225,-0.048C0.218,-0.061 0.215,-0.076 0.215,-0.092C0.215,-0.109 0.219,-0.125 0.227,-0.139C0.235,-0.153 0.246,-0.164 0.261,-0.172C0.275,-0.181 0.29,-0.185 0.308,-0.185Z" style="fill-rule:nonzero;"/>
            </g>
            <g transform="matrix(37,0,0,37,735.615,253)">
                <path d="M0.279,-0.722C0.326,-0.722 0.366,-0.713 0.4,-0.696C0.434,-0.678 0.46,-0.654 0.477,-0.624C0.495,-0.594 0.504,-0.56 0.504,-0.522C0.504,-0.481 0.494,-0.44 0.475,-0.401C0.456,-0.362 0.425,-0.318 0.382,-0.271C0.338,-0.223 0.278,-0.164 0.199,-0.092L0.521,-0.092L0.507,-0L0.067,-0L0.067,-0.087C0.156,-0.173 0.222,-0.239 0.266,-0.288C0.31,-0.336 0.341,-0.377 0.358,-0.411C0.376,-0.445 0.385,-0.48 0.385,-0.515C0.385,-0.551 0.375,-0.579 0.355,-0.599C0.335,-0.62 0.307,-0.63 0.271,-0.63C0.24,-0.63 0.213,-0.624 0.192,-0.613C0.17,-0.601 0.149,-0.582 0.128,-0.556L0.053,-0.613C0.081,-0.649 0.114,-0.676 0.15,-0.695C0.186,-0.713 0.229,-0.722 0.279,-0.722Z" style="fill-rule:nonzero;"/>
            </g>
            <g transform="matrix(37,0,0,37,758.385,253)">
                <path d="M0.378,-0.359C0.378,-0.424 0.371,-0.481 0.356,-0.531C0.342,-0.581 0.319,-0.627 0.289,-0.67C0.26,-0.712 0.219,-0.758 0.169,-0.807L0.232,-0.868C0.291,-0.82 0.339,-0.771 0.378,-0.722C0.416,-0.674 0.446,-0.619 0.466,-0.56C0.487,-0.501 0.497,-0.434 0.497,-0.359C0.497,-0.284 0.487,-0.217 0.466,-0.158C0.446,-0.098 0.416,-0.044 0.378,0.004C0.339,0.053 0.291,0.102 0.232,0.15L0.169,0.089C0.22,0.039 0.261,-0.006 0.291,-0.049C0.32,-0.092 0.343,-0.138 0.357,-0.187C0.371,-0.237 0.378,-0.294 0.378,-0.359Z" style="fill-rule:nonzero;"/>
            </g>
        </g>
        <g transform="matrix(0.722222,0,0,0.722222,201.388,153.776)">
            <g transform="matrix(37,0,0,37,599,253)">
                <path d="M0.355,-0.556C0.487,-0.556 0.552,-0.461 0.552,-0.272C0.552,-0.216 0.544,-0.166 0.528,-0.123C0.513,-0.08 0.489,-0.047 0.458,-0.023C0.426,0.002 0.388,0.014 0.344,0.014C0.287,0.014 0.241,-0.006 0.206,-0.046L0.206,0.208L0.091,0.221L0.091,-0.542L0.191,-0.542L0.198,-0.472C0.219,-0.499 0.242,-0.52 0.269,-0.535C0.296,-0.549 0.325,-0.556 0.355,-0.556ZM0.324,-0.467C0.3,-0.467 0.278,-0.46 0.258,-0.446C0.239,-0.432 0.221,-0.413 0.206,-0.39L0.206,-0.136C0.233,-0.096 0.269,-0.076 0.313,-0.076C0.353,-0.076 0.382,-0.092 0.402,-0.123C0.422,-0.155 0.432,-0.204 0.432,-0.271C0.432,-0.34 0.423,-0.389 0.405,-0.421C0.387,-0.452 0.36,-0.467 0.324,-0.467Z" style="fill-rule:nonzero;"/>
            </g>
            <g transform="matrix(37,0,0,37,621.769,253)">
                <path d="M0.308,-0.556C0.36,-0.556 0.404,-0.544 0.441,-0.521C0.478,-0.498 0.505,-0.465 0.524,-0.422C0.543,-0.38 0.552,-0.33 0.552,-0.272C0.552,-0.214 0.543,-0.164 0.524,-0.121C0.504,-0.078 0.477,-0.045 0.44,-0.022C0.403,0.002 0.359,0.014 0.308,0.014C0.256,0.014 0.211,0.002 0.175,-0.021C0.138,-0.043 0.111,-0.076 0.092,-0.119C0.073,-0.162 0.063,-0.212 0.063,-0.271C0.063,-0.327 0.073,-0.377 0.092,-0.42C0.111,-0.463 0.139,-0.496 0.176,-0.52C0.212,-0.544 0.257,-0.556 0.308,-0.556ZM0.308,-0.467C0.266,-0.467 0.235,-0.451 0.215,-0.419C0.194,-0.387 0.184,-0.337 0.184,-0.271C0.184,-0.204 0.194,-0.155 0.214,-0.123C0.235,-0.091 0.266,-0.075 0.308,-0.075C0.349,-0.075 0.381,-0.091 0.401,-0.123C0.422,-0.155 0.432,-0.204 0.432,-0.272C0.432,-0.338 0.422,-0.387 0.401,-0.419C0.381,-0.451 0.35,-0.467 0.308,-0.467Z" style="fill-rule:nonzero;"/>
            </g>
            <g transform="matrix(37,0,0,37,644.538,253)">
                <path d="M0.603,-0.542L0.515,-0L0.371,-0L0.31,-0.385L0.245,-0L0.104,-0L0.012,-0.542L0.123,-0.542L0.179,-0.071L0.255,-0.473L0.37,-0.473L0.44,-0.071L0.496,-0.542L0.603,-0.542Z" style="fill-rule:nonzero;"/>
            </g>
            <g transform="matrix(37,0,0,37,667.308,253)">
                <path d="M0.237,-0.359C0.237,-0.294 0.244,-0.237 0.258,-0.187C0.273,-0.138 0.295,-0.092 0.325,-0.049C0.355,-0.006 0.395,0.039 0.447,0.089L0.383,0.15C0.325,0.102 0.276,0.053 0.238,0.004C0.199,-0.044 0.17,-0.098 0.149,-0.158C0.129,-0.217 0.118,-0.284 0.118,-0.359C0.118,-0.434 0.129,-0.501 0.149,-0.56C0.17,-0.619 0.199,-0.674 0.238,-0.722C0.276,-0.771 0.325,-0.82 0.383,-0.868L0.447,-0.807C0.396,-0.758 0.356,-0.712 0.326,-0.67C0.296,-0.627 0.274,-0.581 0.259,-0.531C0.244,-0.481 0.237,-0.424 0.237,-0.359Z" style="fill-rule:nonzero;"/>
            </g>
            <g transform="matrix(37,0,0,37,690.077,253)">
                <path d="M0.279,-0.722C0.326,-0.722 0.366,-0.713 0.4,-0.696C0.434,-0.678 0.46,-0.654 0.477,-0.624C0.495,-0.594 0.504,-0.56 0.504,-0.522C0.504,-0.481 0.494,-0.44 0.475,-0.401C0.456,-0.362 0.425,-0.318 0.382,-0.271C0.338,-0.223 0.278,-0.164 0.199,-0.092L0.521,-0.092L0.507,-0L0.067,-0L0.067,-0.087C0.156,-0.173 0.222,-0.239 0.266,-0.288C0.31,-0.336 0.341,-0.377 0.358,-0.411C0.376,-0.445 0.385,-0.48 0.385,-0.515C0.385,-0.551 0.375,-0.579 0.355,-0.599C0.335,-0.62 0.307,-0.63 0.271,-0.63C0.24,-0.63 0.213,-0.624 0.192,-0.613C0.17,-0.601 0.149,-0.582 0.128,-0.556L0.053,-0.613C0.081,-0.649 0.114,-0.676 0.15,-0.695C0.186,-0.713 0.229,-0.722 0.279,-0.722Z" style="fill-rule:nonzero;"/>
            </g>
            <g transform="matrix(37,0,0,37,712.846,253)">
                <path d="M0.308,-0.185C0.325,-0.185 0.341,-0.181 0.356,-0.172C0.37,-0.164 0.381,-0.153 0.389,-0.139C0.397,-0.125 0.402,-0.109 0.402,-0.092C0.402,-0.077 0.399,-0.062 0.395,-0.046C0.39,-0.031 0.383,-0.012 0.372,0.012L0.293,0.193L0.204,0.193L0.254,-0.015C0.242,-0.023 0.232,-0.034 0.225,-0.048C0.218,-0.061 0.215,-0.076 0.215,-0.092C0.215,-0.109 0.219,-0.125 0.227,-0.139C0.235,-0.153 0.246,-0.164 0.261,-0.172C0.275,-0.181 0.29,-0.185 0.308,-0.185Z" style="fill-rule:nonzero;"/>
            </g>
            <g transform="matrix(37,0,0,37,735.615,253)">
                <path d="M0.402,-0.708L0.402,-0.09L0.544,-0.09L0.544,-0L0.115,-0L0.115,-0.09L0.288,-0.09L0.288,-0.59L0.132,-0.494L0.083,-0.574L0.301,-0.708L0.402,-0.708Z" style="fill-rule:nonzero;"/>
            </g>
            <g transform="matrix(37,0,0,37,758.385,253)">
                <path d="M0.378,-0.359C0.378,-0.424 0.371,-0.481 0.356,-0.531C0.342,-0.581 0.319,-0.627 0.289,-0.67C0.26,-0.712 0.219,-0.758 0.169,-0.807L0.232,-0.868C0.291,-0.82 0.339,-0.771 0.378,-0.722C0.416,-0.674 0.446,-0.619 0.466,-0.56C0.487,-0.501 0.497,-0.434 0.497,-0.359C0.497,-0.284 0.487,-0.217 0.466,-0.158C0.446,-0.098 0.416,-0.044 0.378,0.004C0.339,0.053 0.291,0.102 0.232,0.15L0.169,0.089C0.22,0.039 0.261,-0.006 0.291,-0.049C0.32,-0.092 0.343,-0.138 0.357,-0.187C0.371,-0.237 0.378,-0.294 0.378,-0.359Z" style="fill-rule:nonzero;"/>
            </g>
        </g>
        <g transform="matrix(0.722222,0,0,0.722222,214.864,214.833)">
            <g transform="matrix(37,0,0,37,599,253)">
                <path d="M0.355,-0.556C0.487,-0.556 0.552,-0.461 0.552,-0.272C0.552,-0.216 0.544,-0.166 0.528,-0.123C0.513,-0.08 0.489,-0.047 0.458,-0.023C0.426,0.002 0.388,0.014 0.344,0.014C0.287,0.014 0.241,-0.006 0.206,-0.046L0.206,0.208L0.091,0.221L0.091,-0.542L0.191,-0.542L0.198,-0.472C0.219,-0.499 0.242,-0.52 0.269,-0.535C0.296,-0.549 0.325,-0.556 0.355,-0.556ZM0.324,-0.467C0.3,-0.467 0.278,-0.46 0.258,-0.446C0.239,-0.432 0.221,-0.413 0.206,-0.39L0.206,-0.136C0.233,-0.096 0.269,-0.076 0.313,-0.076C0.353,-0.076 0.382,-0.092 0.402,-0.123C0.422,-0.155 0.432,-0.204 0.432,-0.271C0.432,-0.34 0.423,-0.389 0.405,-0.421C0.387,-0.452 0.36,-0.467 0.324,-0.467Z" style="fill-rule:nonzero;"/>
            </g>
            <g transform="matrix(37,0,0,37,621.769,253)">
                <path d="M0.308,-0.556C0.36,-0.556 0.404,-0.544 0.441,-0.521C0.478,-0.498 0.505,-0.465 0.524,-0.422C0.543,-0.38 0.552,-0.33 0.552,-0.272C0.552,-0.214 0.543,-0.164 0.524,-0.121C0.504,-0.078 0.477,-0.045 0.44,-0.022C0.403,0.002 0.359,0.014 0.308,0.014C0.256,0.014 0.211,0.002 0.175,-0.021C0.138,-0.043 0.111,-0.076 0.092,-0.119C0.073,-0.162 0.063,-0.212 0.063,-0.271C0.063,-0.327 0.073,-0.377 0.092,-0.42C0.111,-0.463 0.139,-0.496 0.176,-0.52C0.212,-0.544 0.257,-0.556 0.308,-0.556ZM0.308,-0.467C0.266,-0.467 0.235,-0.451 0.215,-0.419C0.194,-0.387 0.184,-0.337 0.184,-0.271C0.184,-0.204 0.194,-0.155 0.214,-0.123C0.235,-0.091 0.266,-0.075 0.308,-0.075C0.349,-0.075 0.381,-0.091 0.401,-0.123C0.422,-0.155 0.432,-0.204 0.432,-0.272C0.432,-0.338 0.422,-0.387 0.401,-0.419C0.381,-0.451 0.35,-0.467 0.308,-0.467Z" style="fill-rule:nonzero;"/>
            </g>
            <g transform="matrix(37,0,0,37,644.538,253)">
                <path d="M0.603,-0.542L0.515,-0L0.371,-0L0.31,-0.385L0.245,-0L0.104,-0L0.012,-0.542L0.123,-0.542L0.179,-0.071L0.255,-0.473L0.37,-0.473L0.44,-0.071L0.496,-0.542L0.603,-0.542Z" style="fill-rule:nonzero;"/>
            </g>
            <g transform="matrix(37,0,0,37,667.308,253)">
                <path d="M0.237,-0.359C0.237,-0.294 0.244,-0.237 0.258,-0.187C0.273,-0.138 0.295,-0.092 0.325,-0.049C0.355,-0.006 0.395,0.039 0.447,0.089L0.383,0.15C0.325,0.102 0.276,0.053 0.238,0.004C0.199,-0.044 0.17,-0.098 0.149,-0.158C0.129,-0.217 0.118,-0.284 0.118,-0.359C0.118,-0.434 0.129,-0.501 0.149,-0.56C0.17,-0.619 0.199,-0.674 0.238,-0.722C0.276,-0.771 0.325,-0.82 0.383,-0.868L0.447,-0.807C0.396,-0.758 0.356,-0.712 0.326,-0.67C0.296,-0.627 0.274,-0.581 0.259,-0.531C0.244,-0.481 0.237,-0.424 0.237,-0.359Z" style="fill-rule:nonzero;"/>
            </g>
            <g transform="matrix(37,0,0,37,690.077,253)">
                <path d="M0.279,-0.722C0.326,-0.722 0.366,-0.713 0.4,-0.696C0.434,-0.678 0.46,-0.654 0.477,-0.624C0.495,-0.594 0.504,-0.56 0.504,-0.522C0.504,-0.481 0.494,-0.44 0.475,-0.401C0.456,-0.362 0.425,-0.318 0.382,-0.271C0.338,-0.223 0.278,-0.164 0.199,-0.092L0.521,-0.092L0.507,-0L0.067,-0L0.067,-0.087C0.156,-0.173 0.222,-0.239 0.266,-0.288C0.31,-0.336 0.341,-0.377 0.358,-0.411C0.376,-0.445 0.385,-0.48 0.385,-0.515C0.385,-0.551 0.375,-0.579 0.355,-0.599C0.335,-0.62 0.307,-0.63 0.271,-0.63C0.24,-0.63 0.213,-0.624 0.192,-0.613C0.17,-0.601 0.149,-0.582 0.128,-0.556L0.053,-0.613C0.081,-0.649 0.114,-0.676 0.15,-0.695C0.186,-0.713 0.229,-0.722 0.279,-0.722Z" style="fill-rule:nonzero;"/>
            </g>
            <g transform="matrix(37,0,0,37,712.846,253)">
                <path d="M0.308,-0.185C0.325,-0.185 0.341,-0.181 0.356,-0.172C0.37,-0.164 0.381,-0.153 0.389,-0.139C0.397,-0.125 0.402,-0.109 0.402,-0.092C0.402,-0.077 0.399,-0.062 0.395,-0.046C0.39,-0.031 0.383,-0.012 0.372,0.012L0.293,0.193L0.204,0.193L0.254,-0.015C0.242,-0.023 0.232,-0.034 0.225,-0.048C0.218,-0.061 0.215,-0.076 0.215,-0.092C0.215,-0.109 0.219,-0.125 0.227,-0.139C0.235,-0.153 0.246,-0.164 0.261,-0.172C0.275,-0.181 0.29,-0.185 0.308,-0.185Z" style="fill-rule:nonzero;"/>
            </g>
            <g transform="matrix(37,0,0,37,735.615,253)">
                <path d="M0.308,-0.722C0.36,-0.722 0.404,-0.708 0.44,-0.679C0.476,-0.651 0.503,-0.609 0.521,-0.554C0.54,-0.499 0.549,-0.433 0.549,-0.355C0.549,-0.277 0.54,-0.21 0.521,-0.155C0.503,-0.1 0.476,-0.058 0.44,-0.029C0.404,-0.001 0.36,0.014 0.308,0.014C0.229,0.014 0.169,-0.018 0.128,-0.082C0.087,-0.145 0.067,-0.236 0.067,-0.355C0.067,-0.473 0.087,-0.564 0.128,-0.627C0.169,-0.69 0.229,-0.722 0.308,-0.722ZM0.308,-0.634C0.266,-0.634 0.234,-0.612 0.213,-0.567C0.192,-0.523 0.181,-0.452 0.181,-0.355C0.181,-0.282 0.185,-0.226 0.194,-0.185L0.394,-0.593C0.384,-0.608 0.372,-0.618 0.358,-0.625C0.344,-0.631 0.328,-0.634 0.308,-0.634ZM0.308,-0.074C0.35,-0.074 0.381,-0.096 0.403,-0.141C0.424,-0.185 0.434,-0.256 0.434,-0.355C0.434,-0.422 0.431,-0.474 0.424,-0.511L0.226,-0.108C0.236,-0.096 0.248,-0.088 0.261,-0.082C0.274,-0.077 0.29,-0.074 0.308,-0.074Z" style="fill-rule:nonzero;"/>
            </g>
            <g transform="matrix(37,0,0,37,758.385,253)">
                <path d="M0.378,-0.359C0.378,-0.424 0.371,-0.481 0.356,-0.531C0.342,-0.581 0.319,-0.627 0.289,-0.67C0.26,-0.712 0.219,-0.758 0.169,-0.807L0.232,-0.868C0.291,-0.82 0.339,-0.771 0.378,-0.722C0.416,-0.674 0.446,-0.619 0.466,-0.56C0.487,-0.501 0.497,-0.434 0.497,-0.359C0.497,-0.284 0.487,-0.217 0.466,-0.158C0.446,-0.098 0.416,-0.044 0.378,0.004C0.339,0.053 0.291,0.102 0.232,0.15L0.169,0.089C0.22,0.039 0.261,-0.006 0.291,-0.049C0.32,-0.092 0.343,-0.138 0.357,-0.187C0.371,-0.237 0.378,-0.294 0.378,-0.359Z" style="fill-rule:nonzero;"/>
            </g>
        </g>
        <g transform="matrix(0.722222,0,0,0.722222,214.727,261.107)">
            <g transform="matrix(37,0,0,37,599,253)">
                <path d="M0.475,-0.555C0.49,-0.555 0.504,-0.554 0.517,-0.552C0.53,-0.549 0.543,-0.546 0.557,-0.542L0.537,-0.342L0.455,-0.342L0.455,-0.452C0.417,-0.451 0.385,-0.436 0.357,-0.407C0.329,-0.378 0.307,-0.337 0.291,-0.283L0.291,-0.082L0.4,-0.082L0.4,-0L0.096,-0L0.096,-0.082L0.176,-0.082L0.176,-0.46L0.096,-0.46L0.096,-0.542L0.264,-0.542L0.285,-0.416C0.305,-0.463 0.331,-0.498 0.361,-0.521C0.392,-0.544 0.43,-0.555 0.475,-0.555Z" style="fill-rule:nonzero;"/>
            </g>
            <g transform="matrix(37,0,0,37,621.769,253)">
                <path d="M0.187,-0.234C0.19,-0.181 0.205,-0.141 0.232,-0.115C0.258,-0.089 0.293,-0.075 0.334,-0.075C0.36,-0.075 0.384,-0.079 0.407,-0.087C0.429,-0.095 0.452,-0.107 0.476,-0.123L0.526,-0.054C0.501,-0.033 0.471,-0.016 0.436,-0.004C0.402,0.008 0.366,0.014 0.329,0.014C0.274,0.014 0.226,0.002 0.187,-0.022C0.148,-0.046 0.118,-0.079 0.098,-0.122C0.078,-0.164 0.068,-0.214 0.068,-0.27C0.068,-0.325 0.078,-0.373 0.098,-0.417C0.118,-0.46 0.146,-0.494 0.184,-0.519C0.221,-0.544 0.265,-0.556 0.315,-0.556C0.362,-0.556 0.404,-0.545 0.439,-0.523C0.474,-0.502 0.501,-0.47 0.52,-0.43C0.539,-0.389 0.548,-0.341 0.548,-0.285C0.548,-0.266 0.547,-0.249 0.546,-0.234L0.187,-0.234ZM0.316,-0.471C0.279,-0.471 0.249,-0.458 0.226,-0.431C0.203,-0.405 0.19,-0.365 0.186,-0.312L0.437,-0.312C0.436,-0.363 0.425,-0.402 0.404,-0.43C0.383,-0.457 0.354,-0.471 0.316,-0.471Z" style="fill-rule:nonzero;"/>
            </g>
            <g transform="matrix(37,0,0,37,644.538,253)">
                <path d="M0.544,-0.029C0.523,-0.016 0.499,-0.005 0.472,0.002C0.444,0.01 0.415,0.014 0.386,0.014C0.344,0.014 0.309,0.006 0.281,-0.008C0.252,-0.023 0.23,-0.044 0.215,-0.07C0.201,-0.097 0.193,-0.128 0.193,-0.164L0.193,-0.458L0.073,-0.458L0.073,-0.542L0.193,-0.542L0.193,-0.663L0.308,-0.676L0.308,-0.542L0.491,-0.542L0.478,-0.458L0.308,-0.458L0.308,-0.165C0.308,-0.136 0.316,-0.114 0.33,-0.1C0.345,-0.086 0.369,-0.079 0.402,-0.079C0.438,-0.079 0.471,-0.088 0.502,-0.105L0.544,-0.029Z" style="fill-rule:nonzero;"/>
            </g>
            <g transform="matrix(37,0,0,37,667.308,253)">
                <path d="M0.206,-0.163C0.206,-0.132 0.212,-0.109 0.225,-0.095C0.237,-0.081 0.257,-0.074 0.284,-0.074C0.308,-0.074 0.331,-0.081 0.354,-0.095C0.377,-0.11 0.396,-0.128 0.409,-0.15L0.409,-0.542L0.524,-0.542L0.524,-0L0.425,-0L0.418,-0.069C0.398,-0.043 0.373,-0.022 0.342,-0.008C0.312,0.007 0.28,0.014 0.247,0.014C0.196,0.014 0.157,-0 0.131,-0.029C0.104,-0.057 0.091,-0.097 0.091,-0.149L0.091,-0.542L0.206,-0.542L0.206,-0.163Z" style="fill-rule:nonzero;"/>
            </g>
            <g transform="matrix(37,0,0,37,690.077,253)">
                <path d="M0.475,-0.555C0.49,-0.555 0.504,-0.554 0.517,-0.552C0.53,-0.549 0.543,-0.546 0.557,-0.542L0.537,-0.342L0.455,-0.342L0.455,-0.452C0.417,-0.451 0.385,-0.436 0.357,-0.407C0.329,-0.378 0.307,-0.337 0.291,-0.283L0.291,-0.082L0.4,-0.082L0.4,-0L0.096,-0L0.096,-0.082L0.176,-0.082L0.176,-0.46L0.096,-0.46L0.096,-0.542L0.264,-0.542L0.285,-0.416C0.305,-0.463 0.331,-0.498 0.361,-0.521C0.392,-0.544 0.43,-0.555 0.475,-0.555Z" style="fill-rule:nonzero;"/>
            </g>
            <g transform="matrix(37,0,0,37,712.846,253)">
                <path d="M0.091,-0L0.091,-0.542L0.19,-0.542L0.199,-0.471C0.221,-0.498 0.248,-0.519 0.278,-0.534C0.309,-0.549 0.341,-0.556 0.374,-0.556C0.424,-0.556 0.461,-0.542 0.487,-0.514C0.512,-0.486 0.525,-0.446 0.525,-0.395L0.525,-0L0.41,-0L0.41,-0.338C0.41,-0.371 0.408,-0.397 0.404,-0.415C0.4,-0.434 0.393,-0.447 0.382,-0.455C0.371,-0.464 0.354,-0.468 0.333,-0.468C0.308,-0.468 0.285,-0.461 0.263,-0.446C0.242,-0.431 0.223,-0.412 0.206,-0.389L0.206,-0L0.091,-0Z" style="fill-rule:nonzero;"/>
            </g>
            <g transform="matrix(37,0,0,37,758.385,253)">
                <path d="M0.402,-0.708L0.402,-0.09L0.544,-0.09L0.544,-0L0.115,-0L0.115,-0.09L0.288,-0.09L0.288,-0.59L0.132,-0.494L0.083,-0.574L0.301,-0.708L0.402,-0.708Z" style="fill-rule:nonzero;"/>
            </g>
        </g>
        <g transform="matrix(0.722222,0,0,0.722222,202.333,317.454)">
            <g transform="matrix(37,0,0,37,599,253)">
                <path d="M0.475,-0.555C0.49,-0.555 0.504,-0.554 0.517,-0.552C0.53,-0.549 0.543,-0.546 0.557,-0.542L0.537,-0.342L0.455,-0.342L0.455,-0.452C0.417,-0.451 0.385,-0.436 0.357,-0.407C0.329,-0.378 0.307,-0.337 0.291,-0.283L0.291,-0.082L0.4,-0.082L0.4,-0L0.096,-0L0.096,-0.082L0.176,-0.082L0.176,-0.46L0.096,-0.46L0.096,-0.542L0.264,-0.542L0.285,-0.416C0.305,-0.463 0.331,-0.498 0.361,-0.521C0.392,-0.544 0.43,-0.555 0.475,-0.555Z" style="fill-rule:nonzero;"/>
            </g>
            <g transform="matrix(37,0,0,37,621.769,253)">
                <path d="M0.187,-0.234C0.19,-0.181 0.205,-0.141 0.232,-0.115C0.258,-0.089 0.293,-0.075 0.334,-0.075C0.36,-0.075 0.384,-0.079 0.407,-0.087C0.429,-0.095 0.452,-0.107 0.476,-0.123L0.526,-0.054C0.501,-0.033 0.471,-0.016 0.436,-0.004C0.402,0.008 0.366,0.014 0.329,0.014C0.274,0.014 0.226,0.002 0.187,-0.022C0.148,-0.046 0.118,-0.079 0.098,-0.122C0.078,-0.164 0.068,-0.214 0.068,-0.27C0.068,-0.325 0.078,-0.373 0.098,-0.417C0.118,-0.46 0.146,-0.494 0.184,-0.519C0.221,-0.544 0.265,-0.556 0.315,-0.556C0.362,-0.556 0.404,-0.545 0.439,-0.523C0.474,-0.502 0.501,-0.47 0.52,-0.43C0.539,-0.389 0.548,-0.341 0.548,-0.285C0.548,-0.266 0.547,-0.249 0.546,-0.234L0.187,-0.234ZM0.316,-0.471C0.279,-0.471 0.249,-0.458 0.226,-0.431C0.203,-0.405 0.19,-0.365 0.186,-0.312L0.437,-0.312C0.436,-0.363 0.425,-0.402 0.404,-0.43C0.383,-0.457 0.354,-0.471 0.316,-0.471Z" style="fill-rule:nonzero;"/>
            </g>
            <g transform="matrix(37,0,0,37,644.538,253)">
                <path d="M0.544,-0.029C0.523,-0.016 0.499,-0.005 0.472,0.002C0.444,0.01 0.415,0.014 0.386,0.014C0.344,0.014 0.309,0.006 0.281,-0.008C0.252,-0.023 0.23,-0.044 0.215,-0.07C0.201,-0.097 0.193,-0.128 0.193,-0.164L0.193,-0.458L0.073,-0.458L0.073,-0.542L0.193,-0.542L0.193,-0.663L0.308,-0.676L0.308,-0.542L0.491,-0.542L0.478,-0.458L0.308,-0.458L0.308,-0.165C0.308,-0.136 0.316,-0.114 0.33,-0.1C0.345,-0.086 0.369,-0.079 0.402,-0.079C0.438,-0.079 0.471,-0.088 0.502,-0.105L0.544,-0.029Z" style="fill-rule:nonzero;"/>
            </g>
            <g transform="matrix(37,0,0,37,667.308,253)">
                <path d="M0.206,-0.163C0.206,-0.132 0.212,-0.109 0.225,-0.095C0.237,-0.081 0.257,-0.074 0.284,-0.074C0.308,-0.074 0.331,-0.081 0.354,-0.095C0.377,-0.11 0.396,-0.128 0.409,-0.15L0.409,-0.542L0.524,-0.542L0.524,-0L0.425,-0L0.418,-0.069C0.398,-0.043 0.373,-0.022 0.342,-0.008C0.312,0.007 0.28,0.014 0.247,0.014C0.196,0.014 0.157,-0 0.131,-0.029C0.104,-0.057 0.091,-0.097 0.091,-0.149L0.091,-0.542L0.206,-0.542L0.206,-0.163Z" style="fill-rule:nonzero;"/>
            </g>
            <g transform="matrix(37,0,0,37,690.077,253)">
                <path d="M0.475,-0.555C0.49,-0.555 0.504,-0.554 0.517,-0.552C0.53,-0.549 0.543,-0.546 0.557,-0.542L0.537,-0.342L0.455,-0.342L0.455,-0.452C0.417,-0.451 0.385,-0.436 0.357,-0.407C0.329,-0.378 0.307,-0.337 0.291,-0.283L0.291,-0.082L0.4,-0.082L0.4,-0L0.096,-0L0.096,-0.082L0.176,-0.082L0.176,-0.46L0.096,-0.46L0.096,-0.542L0.264,-0.542L0.285,-0.416C0.305,-0.463 0.331,-0.498 0.361,-0.521C0.392,-0.544 0.43,-0.555 0.475,-0.555Z" style="fill-rule:nonzero;"/>
            </g>
            <g transform="matrix(37,0,0,37,712.846,253)">
                <path d="M0.091,-0L0.091,-0.542L0.19,-0.542L0.199,-0.471C0.221,-0.498 0.248,-0.519 0.278,-0.534C0.309,-0.549 0.341,-0.556 0.374,-0.556C0.424,-0.556 0.461,-0.542 0.487,-0.514C0.512,-0.486 0.525,-0.446 0.525,-0.395L0.525,-0L0.41,-0L0.41,-0.338C0.41,-0.371 0.408,-0.397 0.404,-0.415C0.4,-0.434 0.393,-0.447 0.382,-0.455C0.371,-0.464 0.354,-0.468 0.333,-0.468C0.308,-0.468 0.285,-0.461 0.263,-0.446C0.242,-0.431 0.223,-0.412 0.206,-0.389L0.206,-0L0.091,-0Z" style="fill-rule:nonzero;"/>
            </g>
            <g transform="matrix(37,0,0,37,758.385,253)">
                <path d="M0.279,-0.722C0.326,-0.722 0.366,-0.713 0.4,-0.696C0.434,-0.678 0.46,-0.654 0.477,-0.624C0.495,-0.594 0.504,-0.56 0.504,-0.522C0.504,-0.481 0.494,-0.44 0.475,-0.401C0.456,-0.362 0.425,-0.318 0.382,-0.271C0.338,-0.223 0.278,-0.164 0.199,-0.092L0.521,-0.092L0.507,-0L0.067,-0L0.067,-0.087C0.156,-0.173 0.222,-0.239 0.266,-0.288C0.31,-0.336 0.341,-0.377 0.358,-0.411C0.376,-0.445 0.385,-0.48 0.385,-0.515C0.385,-0.551 0.375,-0.579 0.355,-0.599C0.335,-0.62 0.307,-0.63 0.271,-0.63C0.24,-0.63 0.213,-0.624 0.192,-0.613C0.17,-0.601 0.149,-0.582 0.128,-0.556L0.053,-0.613C0.081,-0.649 0.114,-0.676 0.15,-0.695C0.186,-0.713 0.229,-0.722 0.279,-0.722Z" style="fill-rule:nonzero;"/>
            </g>
            <g transform="matrix(37,0,0,37,803.923,253)">
                <path d="M0.364,-0.599L0.251,-0.599L0.264,-0.396L0.076,-0.47L0.042,-0.365L0.237,-0.314L0.109,-0.157L0.198,-0.092L0.308,-0.263L0.417,-0.092L0.507,-0.157L0.378,-0.314L0.574,-0.365L0.539,-0.47L0.351,-0.396L0.364,-0.599Z" style="fill-rule:nonzero;"/>
            </g>
            <g transform="matrix(37,0,0,37,849.462,253)">
                <path d="M0.402,-0.708L0.402,-0.09L0.544,-0.09L0.544,-0L0.115,-0L0.115,-0.09L0.288,-0.09L0.288,-0.59L0.132,-0.494L0.083,-0.574L0.301,-0.708L0.402,-0.708Z" style="fill-rule:nonzero;"/>
            </g>
            <g transform="matrix(37,0,0,37,895,253)">
                <path d="M0.095,-0.467L0.52,-0.467L0.52,-0.373L0.095,-0.373L0.095,-0.467ZM0.095,-0.265L0.52,-0.265L0.52,-0.171L0.095,-0.171L0.095,-0.265Z" style="fill-rule:nonzero;"/>
            </g>
            <g transform="matrix(37,0,0,37,940.538,253)">
                <path d="M0.279,-0.722C0.326,-0.722 0.366,-0.713 0.4,-0.696C0.434,-0.678 0.46,-0.654 0.477,-0.624C0.495,-0.594 0.504,-0.56 0.504,-0.522C0.504,-0.481 0.494,-0.44 0.475,-0.401C0.456,-0.362 0.425,-0.318 0.382,-0.271C0.338,-0.223 0.278,-0.164 0.199,-0.092L0.521,-0.092L0.507,-0L0.067,-0L0.067,-0.087C0.156,-0.173 0.222,-0.239 0.266,-0.288C0.31,-0.336 0.341,-0.377 0.358,-0.411C0.376,-0.445 0.385,-0.48 0.385,-0.515C0.385,-0.551 0.375,-0.579 0.355,-0.599C0.335,-0.62 0.307,-0.63 0.271,-0.63C0.24,-0.63 0.213,-0.624 0.192,-0.613C0.17,-0.601 0.149,-0.582 0.128,-0.556L0.053,-0.613C0.081,-0.649 0.114,-0.676 0.15,-0.695C0.186,-0.713 0.229,-0.722 0.279,-0.722Z" style="fill-rule:nonzero;"/>
            </g>
        </g>
        <g transform="matrix(0.722222,0,0,0.722222,178.5,373.83)">
            <g transform="matrix(37,0,0,37,599,253)">
                <path d="M0.475,-0.555C0.49,-0.555 0.504,-0.554 0.517,-0.552C0.53,-0.549 0.543,-0.546 0.557,-0.542L0.537,-0.342L0.455,-0.342L0.455,-0.452C0.417,-0.451 0.385,-0.436 0.357,-0.407C0.329,-0.378 0.307,-0.337 0.291,-0.283L0.291,-0.082L0.4,-0.082L0.4,-0L0.096,-0L0.096,-0.082L0.176,-0.082L0.176,-0.46L0.096,-0.46L0.096,-0.542L0.264,-0.542L0.285,-0.416C0.305,-0.463 0.331,-0.498 0.361,-0.521C0.392,-0.544 0.43,-0.555 0.475,-0.555Z" style="fill-rule:nonzero;"/>
            </g>
            <g transform="matrix(37,0,0,37,621.769,253)">
                <path d="M0.187,-0.234C0.19,-0.181 0.205,-0.141 0.232,-0.115C0.258,-0.089 0.293,-0.075 0.334,-0.075C0.36,-0.075 0.384,-0.079 0.407,-0.087C0.429,-0.095 0.452,-0.107 0.476,-0.123L0.526,-0.054C0.501,-0.033 0.471,-0.016 0.436,-0.004C0.402,0.008 0.366,0.014 0.329,0.014C0.274,0.014 0.226,0.002 0.187,-0.022C0.148,-0.046 0.118,-0.079 0.098,-0.122C0.078,-0.164 0.068,-0.214 0.068,-0.27C0.068,-0.325 0.078,-0.373 0.098,-0.417C0.118,-0.46 0.146,-0.494 0.184,-0.519C0.221,-0.544 0.265,-0.556 0.315,-0.556C0.362,-0.556 0.404,-0.545 0.439,-0.523C0.474,-0.502 0.501,-0.47 0.52,-0.43C0.539,-0.389 0.548,-0.341 0.548,-0.285C0.548,-0.266 0.547,-0.249 0.546,-0.234L0.187,-0.234ZM0.316,-0.471C0.279,-0.471 0.249,-0.458 0.226,-0.431C0.203,-0.405 0.19,-0.365 0.186,-0.312L0.437,-0.312C0.436,-0.363 0.425,-0.402 0.404,-0.43C0.383,-0.457 0.354,-0.471 0.316,-0.471Z" style="fill-rule:nonzero;"/>
            </g>
            <g transform="matrix(37,0,0,37,644.538,253)">
                <path d="M0.544,-0.029C0.523,-0.016 0.499,-0.005 0.472,0.002C0.444,0.01 0.415,0.014 0.386,0.014C0.344,0.014 0.309,0.006 0.281,-0.008C0.252,-0.023 0.23,-0.044 0.215,-0.07C0.201,-0.097 0.193,-0.128 0.193,-0.164L0.193,-0.458L0.073,-0.458L0.073,-0.542L0.193,-0.542L0.193,-0.663L0.308,-0.676L0.308,-0.542L0.491,-0.542L0.478,-0.458L0.308,-0.458L0.308,-0.165C0.308,-0.136 0.316,-0.114 0.33,-0.1C0.345,-0.086 0.369,-0.079 0.402,-0.079C0.438,-0.079 0.471,-0.088 0.502,-0.105L0.544,-0.029Z" style="fill-rule:nonzero;"/>
            </g>
            <g transform="matrix(37,0,0,37,667.308,253)">
                <path d="M0.206,-0.163C0.206,-0.132 0.212,-0.109 0.225,-0.095C0.237,-0.081 0.257,-0.074 0.284,-0.074C0.308,-0.074 0.331,-0.081 0.354,-0.095C0.377,-0.11 0.396,-0.128 0.409,-0.15L0.409,-0.542L0.524,-0.542L0.524,-0L0.425,-0L0.418,-0.069C0.398,-0.043 0.373,-0.022 0.342,-0.008C0.312,0.007 0.28,0.014 0.247,0.014C0.196,0.014 0.157,-0 0.131,-0.029C0.104,-0.057 0.091,-0.097 0.091,-0.149L0.091,-0.542L0.206,-0.542L0.206,-0.163Z" style="fill-rule:nonzero;"/>
            </g>
            <g transform="matrix(37,0,0,37,690.077,253)">
                <path d="M0.475,-0.555C0.49,-0.555 0.504,-0.554 0.517,-0.552C0.53,-0.549 0.543,-0.546 0.557,-0.542L0.537,-0.342L0.455,-0.342L0.455,-0.452C0.417,-0.451 0.385,-0.436 0.357,-0.407C0.329,-0.378 0.307,-0.337 0.291,-0.283L0.291,-0.082L0.4,-0.082L0.4,-0L0.096,-0L0.096,-0.082L0.176,-0.082L0.176,-0.46L0.096,-0.46L0.096,-0.542L0.264,-0.542L0.285,-0.416C0.305,-0.463 0.331,-0.498 0.361,-0.521C0.392,-0.544 0.43,-0.555 0.475,-0.555Z" style="fill-rule:nonzero;"/>
            </g>
            <g transform="matrix(37,0,0,37,712.846,253)">
                <path d="M0.091,-0L0.091,-0.542L0.19,-0.542L0.199,-0.471C0.221,-0.498 0.248,-0.519 0.278,-0.534C0.309,-0.549 0.341,-0.556 0.374,-0.556C0.424,-0.556 0.461,-0.542 0.487,-0.514C0.512,-0.486 0.525,-0.446 0.525,-0.395L0.525,-0L0.41,-0L0.41,-0.338C0.41,-0.371 0.408,-0.397 0.404,-0.415C0.4,-0.434 0.393,-0.447 0.382,-0.455C0.371,-0.464 0.354,-0.468 0.333,-0.468C0.308,-0.468 0.285,-0.461 0.263,-0.446C0.242,-0.431 0.223,-0.412 0.206,-0.389L0.206,-0L0.091,-0Z" style="fill-rule:nonzero;"/>
            </g>
            <g transform="matrix(37,0,0,37,758.385,253)">
                <path d="M0.279,-0.722C0.326,-0.722 0.366,-0.713 0.4,-0.696C0.434,-0.678 0.46,-0.654 0.477,-0.624C0.495,-0.594 0.504,-0.56 0.504,-0.522C0.504,-0.481 0.494,-0.44 0.475,-0.401C0.456,-0.362 0.425,-0.318 0.382,-0.271C0.338,-0.223 0.278,-0.164 0.199,-0.092L0.521,-0.092L0.507,-0L0.067,-0L0.067,-0.087C0.156,-0.173 0.222,-0.239 0.266,-0.288C0.31,-0.336 0.341,-0.377 0.358,-0.411C0.376,-0.445 0.385,-0.48 0.385,-0.515C0.385,-0.551 0.375,-0.579 0.355,-0.599C0.335,-0.62 0.307,-0.63 0.271,-0.63C0.24,-0.63 0.213,-0.624 0.192,-0.613C0.17,-0.601 0.149,-0.582 0.128,-0.556L0.053,-0.613C0.081,-0.649 0.114,-0.676 0.15,-0.695C0.186,-0.713 0.229,-0.722 0.279,-0.722Z" style="fill-rule:nonzero;"/>
            </g>
            <g transform="matrix(37,0,0,37,803.923,253)">
                <path d="M0.364,-0.599L0.251,-0.599L0.264,-0.396L0.076,-0.47L0.042,-0.365L0.237,-0.314L0.109,-0.157L0.198,-0.092L0.308,-0.263L0.417,-0.092L0.507,-0.157L0.378,-0.314L0.574,-0.365L0.539,-0.47L0.351,-0.396L0.364,-0.599Z" style="fill-rule:nonzero;"/>
            </g>
            <g transform="matrix(37,0,0,37,849.462,253)">
                <path d="M0.279,-0.722C0.326,-0.722 0.366,-0.713 0.4,-0.696C0.434,-0.678 0.46,-0.654 0.477,-0.624C0.495,-0.594 0.504,-0.56 0.504,-0.522C0.504,-0.481 0.494,-0.44 0.475,-0.401C0.456,-0.362 0.425,-0.318 0.382,-0.271C0.338,-0.223 0.278,-0.164 0.199,-0.092L0.521,-0.092L0.507,-0L0.067,-0L0.067,-0.087C0.156,-0.173 0.222,-0.239 0.266,-0.288C0.31,-0.336 0.341,-0.377 0.358,-0.411C0.376,-0.445 0.385,-0.48 0.385,-0.515C0.385,-0.551 0.375,-0.579 0.355,-0.599C0.335,-0.62 0.307,-0.63 0.271,-0.63C0.24,-0.63 0.213,-0.624 0.192,-0.613C0.17,-0.601 0.149,-0.582 0.128,-0.556L0.053,-0.613C0.081,-0.649 0.114,-0.676 0.15,-0.695C0.186,-0.713 0.229,-0.722 0.279,-0.722Z" style="fill-rule:nonzero;"/>
            </g>
            <g transform="matrix(37,0,0,37,895,253)">
                <path d="M0.095,-0.467L0.52,-0.467L0.52,-0.373L0.095,-0.373L0.095,-0.467ZM0.095,-0.265L0.52,-0.265L0.52,-0.171L0.095,-0.171L0.095,-0.265Z" style="fill-rule:nonzero;"/>
            </g>
            <g transform="matrix(37,0,0,37,940.538,253)">
                <path d="M0.468,-0.252L0.552,-0.252L0.552,-0.163L0.468,-0.163L0.468,-0L0.357,-0L0.357,-0.163L0.063,-0.163L0.063,-0.243L0.267,-0.722L0.364,-0.684L0.183,-0.252L0.357,-0.252L0.371,-0.442L0.468,-0.442L0.468,-0.252Z" style="fill-rule:nonzero;"/>
            </g>
        </g>
        <g transform="matrix(0.722222,0,0,0.722222,157.556,428.37)">
            <g transform="matrix(37,0,0,37,599,253)">
                <path d="M0.475,-0.555C0.49,-0.555 0.504,-0.554 0.517,-0.552C0.53,-0.549 0.543,-0.546 0.557,-0.542L0.537,-0.342L0.455,-0.342L0.455,-0.452C0.417,-0.451 0.385,-0.436 0.357,-0.407C0.329,-0.378 0.307,-0.337 0.291,-0.283L0.291,-0.082L0.4,-0.082L0.4,-0L0.096,-0L0.096,-0.082L0.176,-0.082L0.176,-0.46L0.096,-0.46L0.096,-0.542L0.264,-0.542L0.285,-0.416C0.305,-0.463 0.331,-0.498 0.361,-0.521C0.392,-0.544 0.43,-0.555 0.475,-0.555Z" style="fill-rule:nonzero;"/>
            </g>
            <g transform="matrix(37,0,0,37,621.769,253)">
                <path d="M0.187,-0.234C0.19,-0.181 0.205,-0.141 0.232,-0.115C0.258,-0.089 0.293,-0.075 0.334,-0.075C0.36,-0.075 0.384,-0.079 0.407,-0.087C0.429,-0.095 0.452,-0.107 0.476,-0.123L0.526,-0.054C0.501,-0.033 0.471,-0.016 0.436,-0.004C0.402,0.008 0.366,0.014 0.329,0.014C0.274,0.014 0.226,0.002 0.187,-0.022C0.148,-0.046 0.118,-0.079 0.098,-0.122C0.078,-0.164 0.068,-0.214 0.068,-0.27C0.068,-0.325 0.078,-0.373 0.098,-0.417C0.118,-0.46 0.146,-0.494 0.184,-0.519C0.221,-0.544 0.265,-0.556 0.315,-0.556C0.362,-0.556 0.404,-0.545 0.439,-0.523C0.474,-0.502 0.501,-0.47 0.52,-0.43C0.539,-0.389 0.548,-0.341 0.548,-0.285C0.548,-0.266 0.547,-0.249 0.546,-0.234L0.187,-0.234ZM0.316,-0.471C0.279,-0.471 0.249,-0.458 0.226,-0.431C0.203,-0.405 0.19,-0.365 0.186,-0.312L0.437,-0.312C0.436,-0.363 0.425,-0.402 0.404,-0.43C0.383,-0.457 0.354,-0.471 0.316,-0.471Z" style="fill-rule:nonzero;"/>
            </g>
            <g transform="matrix(37,0,0,37,644.538,253)">
                <path d="M0.544,-0.029C0.523,-0.016 0.499,-0.005 0.472,0.002C0.444,0.01 0.415,0.014 0.386,0.014C0.344,0.014 0.309,0.006 0.281,-0.008C0.252,-0.023 0.23,-0.044 0.215,-0.07C0.201,-0.097 0.193,-0.128 0.193,-0.164L0.193,-0.458L0.073,-0.458L0.073,-0.542L0.193,-0.542L0.193,-0.663L0.308,-0.676L0.308,-0.542L0.491,-0.542L0.478,-0.458L0.308,-0.458L0.308,-0.165C0.308,-0.136 0.316,-0.114 0.33,-0.1C0.345,-0.086 0.369,-0.079 0.402,-0.079C0.438,-0.079 0.471,-0.088 0.502,-0.105L0.544,-0.029Z" style="fill-rule:nonzero;"/>
            </g>
            <g transform="matrix(37,0,0,37,667.308,253)">
                <path d="M0.206,-0.163C0.206,-0.132 0.212,-0.109 0.225,-0.095C0.237,-0.081 0.257,-0.074 0.284,-0.074C0.308,-0.074 0.331,-0.081 0.354,-0.095C0.377,-0.11 0.396,-0.128 0.409,-0.15L0.409,-0.542L0.524,-0.542L0.524,-0L0.425,-0L0.418,-0.069C0.398,-0.043 0.373,-0.022 0.342,-0.008C0.312,0.007 0.28,0.014 0.247,0.014C0.196,0.014 0.157,-0 0.131,-0.029C0.104,-0.057 0.091,-0.097 0.091,-0.149L0.091,-0.542L0.206,-0.542L0.206,-0.163Z" style="fill-rule:nonzero;"/>
            </g>
            <g transform="matrix(37,0,0,37,690.077,253)">
                <path d="M0.475,-0.555C0.49,-0.555 0.504,-0.554 0.517,-0.552C0.53,-0.549 0.543,-0.546 0.557,-0.542L0.537,-0.342L0.455,-0.342L0.455,-0.452C0.417,-0.451 0.385,-0.436 0.357,-0.407C0.329,-0.378 0.307,-0.337 0.291,-0.283L0.291,-0.082L0.4,-0.082L0.4,-0L0.096,-0L0.096,-0.082L0.176,-0.082L0.176,-0.46L0.096,-0.46L0.096,-0.542L0.264,-0.542L0.285,-0.416C0.305,-0.463 0.331,-0.498 0.361,-0.521C0.392,-0.544 0.43,-0.555 0.475,-0.555Z" style="fill-rule:nonzero;"/>
            </g>
            <g transform="matrix(37,0,0,37,712.846,253)">
                <path d="M0.091,-0L0.091,-0.542L0.19,-0.542L0.199,-0.471C0.221,-0.498 0.248,-0.519 0.278,-0.534C0.309,-0.549 0.341,-0.556 0.374,-0.556C0.424,-0.556 0.461,-0.542 0.487,-0.514C0.512,-0.486 0.525,-0.446 0.525,-0.395L0.525,-0L0.41,-0L0.41,-0.338C0.41,-0.371 0.408,-0.397 0.404,-0.415C0.4,-0.434 0.393,-0.447 0.382,-0.455C0.371,-0.464 0.354,-0.468 0.333,-0.468C0.308,-0.468 0.285,-0.461 0.263,-0.446C0.242,-0.431 0.223,-0.412 0.206,-0.389L0.206,-0L0.091,-0Z" style="fill-rule:nonzero;"/>
            </g>
            <g transform="matrix(37,0,0,37,758.385,253)">
                <path d="M0.279,-0.722C0.326,-0.722 0.366,-0.713 0.4,-0.696C0.434,-0.678 0.46,-0.654 0.477,-0.624C0.495,-0.594 0.504,-0.56 0.504,-0.522C0.504,-0.481 0.494,-0.44 0.475,-0.401C0.456,-0.362 0.425,-0.318 0.382,-0.271C0.338,-0.223 0.278,-0.164 0.199,-0.092L0.521,-0.092L0.507,-0L0.067,-0L0.067,-0.087C0.156,-0.173 0.222,-0.239 0.266,-0.288C0.31,-0.336 0.341,-0.377 0.358,-0.411C0.376,-0.445 0.385,-0.48 0.385,-0.515C0.385,-0.551 0.375,-0.579 0.355,-0.599C0.335,-0.62 0.307,-0.63 0.271,-0.63C0.24,-0.63 0.213,-0.624 0.192,-0.613C0.17,-0.601 0.149,-0.582 0.128,-0.556L0.053,-0.613C0.081,-0.649 0.114,-0.676 0.15,-0.695C0.186,-0.713 0.229,-0.722 0.279,-0.722Z" style="fill-rule:nonzero;"/>
            </g>
            <g transform="matrix(37,0,0,37,803.923,253)">
                <path d="M0.364,-0.599L0.251,-0.599L0.264,-0.396L0.076,-0.47L0.042,-0.365L0.237,-0.314L0.109,-0.157L0.198,-0.092L0.308,-0.263L0.417,-0.092L0.507,-0.157L0.378,-0.314L0.574,-0.365L0.539,-0.47L0.351,-0.396L0.364,-0.599Z" style="fill-rule:nonzero;"/>
            </g>
            <g transform="matrix(37,0,0,37,849.462,253)">
                <path d="M0.468,-0.252L0.552,-0.252L0.552,-0.163L0.468,-0.163L0.468,-0L0.357,-0L0.357,-0.163L0.063,-0.163L0.063,-0.243L0.267,-0.722L0.364,-0.684L0.183,-0.252L0.357,-0.252L0.371,-0.442L0.468,-0.442L0.468,-0.252Z" style="fill-rule:nonzero;"/>
            </g>
            <g transform="matrix(37,0,0,37,895,253)">
                <path d="M0.095,-0.467L0.52,-0.467L0.52,-0.373L0.095,-0.373L0.095,-0.467ZM0.095,-0.265L0.52,-0.265L0.52,-0.171L0.095,-0.171L0.095,-0.265Z" style="fill-rule:nonzero;"/>
            </g>
            <g transform="matrix(37,0,0,37,940.538,253)">
                <path d="M0.529,-0.539C0.529,-0.506 0.519,-0.477 0.5,-0.452C0.48,-0.427 0.451,-0.404 0.411,-0.382C0.458,-0.361 0.494,-0.334 0.519,-0.302C0.544,-0.269 0.557,-0.232 0.557,-0.191C0.557,-0.152 0.547,-0.118 0.527,-0.087C0.507,-0.056 0.478,-0.031 0.44,-0.013C0.402,0.005 0.357,0.014 0.305,0.014C0.254,0.014 0.209,0.005 0.172,-0.013C0.135,-0.031 0.107,-0.055 0.087,-0.086C0.068,-0.116 0.058,-0.151 0.058,-0.188C0.058,-0.229 0.07,-0.264 0.094,-0.295C0.118,-0.325 0.152,-0.35 0.196,-0.37C0.158,-0.39 0.13,-0.412 0.113,-0.437C0.095,-0.462 0.087,-0.494 0.087,-0.533C0.087,-0.573 0.097,-0.607 0.118,-0.636C0.139,-0.664 0.167,-0.686 0.201,-0.7C0.234,-0.715 0.27,-0.722 0.308,-0.722C0.348,-0.722 0.384,-0.715 0.418,-0.701C0.451,-0.687 0.478,-0.666 0.498,-0.639C0.519,-0.611 0.529,-0.578 0.529,-0.539ZM0.198,-0.532C0.198,-0.51 0.203,-0.491 0.213,-0.477C0.223,-0.463 0.238,-0.451 0.256,-0.441C0.275,-0.431 0.301,-0.421 0.333,-0.41C0.363,-0.429 0.385,-0.447 0.398,-0.466C0.411,-0.484 0.417,-0.507 0.417,-0.533C0.417,-0.565 0.408,-0.591 0.389,-0.61C0.37,-0.629 0.343,-0.638 0.308,-0.638C0.273,-0.638 0.246,-0.629 0.227,-0.611C0.208,-0.592 0.198,-0.566 0.198,-0.532ZM0.439,-0.19C0.439,-0.218 0.433,-0.24 0.42,-0.257C0.407,-0.274 0.39,-0.288 0.367,-0.299C0.345,-0.31 0.313,-0.323 0.27,-0.338C0.207,-0.305 0.176,-0.257 0.176,-0.192C0.176,-0.155 0.187,-0.126 0.209,-0.105C0.232,-0.084 0.264,-0.073 0.307,-0.073C0.335,-0.073 0.359,-0.078 0.379,-0.089C0.399,-0.099 0.414,-0.113 0.424,-0.131C0.434,-0.148 0.439,-0.168 0.439,-0.19Z" style="fill-rule:nonzero;"/>
            </g>
        </g>
        <g transform="matrix(0.722222,0,0,0.722222,135.167,491.413)">
            <g transform="matrix(37,0,0,37,599,253)">
                <path d="M0.475,-0.555C0.49,-0.555 0.504,-0.554 0.517,-0.552C0.53,-0.549 0.543,-0.546 0.557,-0.542L0.537,-0.342L0.455,-0.342L0.455,-0.452C0.417,-0.451 0.385,-0.436 0.357,-0.407C0.329,-0.378 0.307,-0.337 0.291,-0.283L0.291,-0.082L0.4,-0.082L0.4,-0L0.096,-0L0.096,-0.082L0.176,-0.082L0.176,-0.46L0.096,-0.46L0.096,-0.542L0.264,-0.542L0.285,-0.416C0.305,-0.463 0.331,-0.498 0.361,-0.521C0.392,-0.544 0.43,-0.555 0.475,-0.555Z" style="fill-rule:nonzero;"/>
            </g>
            <g transform="matrix(37,0,0,37,621.769,253)">
                <path d="M0.187,-0.234C0.19,-0.181 0.205,-0.141 0.232,-0.115C0.258,-0.089 0.293,-0.075 0.334,-0.075C0.36,-0.075 0.384,-0.079 0.407,-0.087C0.429,-0.095 0.452,-0.107 0.476,-0.123L0.526,-0.054C0.501,-0.033 0.471,-0.016 0.436,-0.004C0.402,0.008 0.366,0.014 0.329,0.014C0.274,0.014 0.226,0.002 0.187,-0.022C0.148,-0.046 0.118,-0.079 0.098,-0.122C0.078,-0.164 0.068,-0.214 0.068,-0.27C0.068,-0.325 0.078,-0.373 0.098,-0.417C0.118,-0.46 0.146,-0.494 0.184,-0.519C0.221,-0.544 0.265,-0.556 0.315,-0.556C0.362,-0.556 0.404,-0.545 0.439,-0.523C0.474,-0.502 0.501,-0.47 0.52,-0.43C0.539,-0.389 0.548,-0.341 0.548,-0.285C0.548,-0.266 0.547,-0.249 0.546,-0.234L0.187,-0.234ZM0.316,-0.471C0.279,-0.471 0.249,-0.458 0.226,-0.431C0.203,-0.405 0.19,-0.365 0.186,-0.312L0.437,-0.312C0.436,-0.363 0.425,-0.402 0.404,-0.43C0.383,-0.457 0.354,-0.471 0.316,-0.471Z" style="fill-rule:nonzero;"/>
            </g>
            <g transform="matrix(37,0,0,37,644.538,253)">
                <path d="M0.544,-0.029C0.523,-0.016 0.499,-0.005 0.472,0.002C0.444,0.01 0.415,0.014 0.386,0.014C0.344,0.014 0.309,0.006 0.281,-0.008C0.252,-0.023 0.23,-0.044 0.215,-0.07C0.201,-0.097 0.193,-0.128 0.193,-0.164L0.193,-0.458L0.073,-0.458L0.073,-0.542L0.193,-0.542L0.193,-0.663L0.308,-0.676L0.308,-0.542L0.491,-0.542L0.478,-0.458L0.308,-0.458L0.308,-0.165C0.308,-0.136 0.316,-0.114 0.33,-0.1C0.345,-0.086 0.369,-0.079 0.402,-0.079C0.438,-0.079 0.471,-0.088 0.502,-0.105L0.544,-0.029Z" style="fill-rule:nonzero;"/>
            </g>
            <g transform="matrix(37,0,0,37,667.308,253)">
                <path d="M0.206,-0.163C0.206,-0.132 0.212,-0.109 0.225,-0.095C0.237,-0.081 0.257,-0.074 0.284,-0.074C0.308,-0.074 0.331,-0.081 0.354,-0.095C0.377,-0.11 0.396,-0.128 0.409,-0.15L0.409,-0.542L0.524,-0.542L0.524,-0L0.425,-0L0.418,-0.069C0.398,-0.043 0.373,-0.022 0.342,-0.008C0.312,0.007 0.28,0.014 0.247,0.014C0.196,0.014 0.157,-0 0.131,-0.029C0.104,-0.057 0.091,-0.097 0.091,-0.149L0.091,-0.542L0.206,-0.542L0.206,-0.163Z" style="fill-rule:nonzero;"/>
            </g>
            <g transform="matrix(37,0,0,37,690.077,253)">
                <path d="M0.475,-0.555C0.49,-0.555 0.504,-0.554 0.517,-0.552C0.53,-0.549 0.543,-0.546 0.557,-0.542L0.537,-0.342L0.455,-0.342L0.455,-0.452C0.417,-0.451 0.385,-0.436 0.357,-0.407C0.329,-0.378 0.307,-0.337 0.291,-0.283L0.291,-0.082L0.4,-0.082L0.4,-0L0.096,-0L0.096,-0.082L0.176,-0.082L0.176,-0.46L0.096,-0.46L0.096,-0.542L0.264,-0.542L0.285,-0.416C0.305,-0.463 0.331,-0.498 0.361,-0.521C0.392,-0.544 0.43,-0.555 0.475,-0.555Z" style="fill-rule:nonzero;"/>
            </g>
            <g transform="matrix(37,0,0,37,712.846,253)">
                <path d="M0.091,-0L0.091,-0.542L0.19,-0.542L0.199,-0.471C0.221,-0.498 0.248,-0.519 0.278,-0.534C0.309,-0.549 0.341,-0.556 0.374,-0.556C0.424,-0.556 0.461,-0.542 0.487,-0.514C0.512,-0.486 0.525,-0.446 0.525,-0.395L0.525,-0L0.41,-0L0.41,-0.338C0.41,-0.371 0.408,-0.397 0.404,-0.415C0.4,-0.434 0.393,-0.447 0.382,-0.455C0.371,-0.464 0.354,-0.468 0.333,-0.468C0.308,-0.468 0.285,-0.461 0.263,-0.446C0.242,-0.431 0.223,-0.412 0.206,-0.389L0.206,-0L0.091,-0Z" style="fill-rule:nonzero;"/>
            </g>
            <g transform="matrix(37,0,0,37,758.385,253)">
                <path d="M0.279,-0.722C0.326,-0.722 0.366,-0.713 0.4,-0.696C0.434,-0.678 0.46,-0.654 0.477,-0.624C0.495,-0.594 0.504,-0.56 0.504,-0.522C0.504,-0.481 0.494,-0.44 0.475,-0.401C0.456,-0.362 0.425,-0.318 0.382,-0.271C0.338,-0.223 0.278,-0.164 0.199,-0.092L0.521,-0.092L0.507,-0L0.067,-0L0.067,-0.087C0.156,-0.173 0.222,-0.239 0.266,-0.288C0.31,-0.336 0.341,-0.377 0.358,-0.411C0.376,-0.445 0.385,-0.48 0.385,-0.515C0.385,-0.551 0.375,-0.579 0.355,-0.599C0.335,-0.62 0.307,-0.63 0.271,-0.63C0.24,-0.63 0.213,-0.624 0.192,-0.613C0.17,-0.601 0.149,-0.582 0.128,-0.556L0.053,-0.613C0.081,-0.649 0.114,-0.676 0.15,-0.695C0.186,-0.713 0.229,-0.722 0.279,-0.722Z" style="fill-rule:nonzero;"/>
            </g>
            <g transform="matrix(37,0,0,37,803.923,253)">
                <path d="M0.364,-0.599L0.251,-0.599L0.264,-0.396L0.076,-0.47L0.042,-0.365L0.237,-0.314L0.109,-0.157L0.198,-0.092L0.308,-0.263L0.417,-0.092L0.507,-0.157L0.378,-0.314L0.574,-0.365L0.539,-0.47L0.351,-0.396L0.364,-0.599Z" style="fill-rule:nonzero;"/>
            </g>
            <g transform="matrix(37,0,0,37,849.462,253)">
                <path d="M0.529,-0.539C0.529,-0.506 0.519,-0.477 0.5,-0.452C0.48,-0.427 0.451,-0.404 0.411,-0.382C0.458,-0.361 0.494,-0.334 0.519,-0.302C0.544,-0.269 0.557,-0.232 0.557,-0.191C0.557,-0.152 0.547,-0.118 0.527,-0.087C0.507,-0.056 0.478,-0.031 0.44,-0.013C0.402,0.005 0.357,0.014 0.305,0.014C0.254,0.014 0.209,0.005 0.172,-0.013C0.135,-0.031 0.107,-0.055 0.087,-0.086C0.068,-0.116 0.058,-0.151 0.058,-0.188C0.058,-0.229 0.07,-0.264 0.094,-0.295C0.118,-0.325 0.152,-0.35 0.196,-0.37C0.158,-0.39 0.13,-0.412 0.113,-0.437C0.095,-0.462 0.087,-0.494 0.087,-0.533C0.087,-0.573 0.097,-0.607 0.118,-0.636C0.139,-0.664 0.167,-0.686 0.201,-0.7C0.234,-0.715 0.27,-0.722 0.308,-0.722C0.348,-0.722 0.384,-0.715 0.418,-0.701C0.451,-0.687 0.478,-0.666 0.498,-0.639C0.519,-0.611 0.529,-0.578 0.529,-0.539ZM0.198,-0.532C0.198,-0.51 0.203,-0.491 0.213,-0.477C0.223,-0.463 0.238,-0.451 0.256,-0.441C0.275,-0.431 0.301,-0.421 0.333,-0.41C0.363,-0.429 0.385,-0.447 0.398,-0.466C0.411,-0.484 0.417,-0.507 0.417,-0.533C0.417,-0.565 0.408,-0.591 0.389,-0.61C0.37,-0.629 0.343,-0.638 0.308,-0.638C0.273,-0.638 0.246,-0.629 0.227,-0.611C0.208,-0.592 0.198,-0.566 0.198,-0.532ZM0.439,-0.19C0.439,-0.218 0.433,-0.24 0.42,-0.257C0.407,-0.274 0.39,-0.288 0.367,-0.299C0.345,-0.31 0.313,-0.323 0.27,-0.338C0.207,-0.305 0.176,-0.257 0.176,-0.192C0.176,-0.155 0.187,-0.126 0.209,-0.105C0.232,-0.084 0.264,-0.073 0.307,-0.073C0.335,-0.073 0.359,-0.078 0.379,-0.089C0.399,-0.099 0.414,-0.113 0.424,-0.131C0.434,-0.148 0.439,-0.168 0.439,-0.19Z" style="fill-rule:nonzero;"/>
            </g>
            <g transform="matrix(37,0,0,37,895,253)">
                <path d="M0.095,-0.467L0.52,-0.467L0.52,-0.373L0.095,-0.373L0.095,-0.467ZM0.095,-0.265L0.52,-0.265L0.52,-0.171L0.095,-0.171L0.095,-0.265Z" style="fill-rule:nonzero;"/>
            </g>
            <g transform="matrix(37,0,0,37,940.538,253)">
                <path d="M0.402,-0.708L0.402,-0.09L0.544,-0.09L0.544,-0L0.115,-0L0.115,-0.09L0.288,-0.09L0.288,-0.59L0.132,-0.494L0.083,-0.574L0.301,-0.708L0.402,-0.708Z" style="fill-rule:nonzero;"/>
            </g>
            <g transform="matrix(37,0,0,37,963.308,253)">
                <path d="M0.35,-0.466C0.387,-0.466 0.421,-0.458 0.451,-0.44C0.481,-0.423 0.505,-0.397 0.523,-0.363C0.541,-0.329 0.55,-0.288 0.55,-0.239C0.55,-0.189 0.54,-0.145 0.519,-0.107C0.499,-0.069 0.472,-0.039 0.436,-0.018C0.401,0.003 0.361,0.014 0.316,0.014C0.231,0.014 0.169,-0.017 0.129,-0.078C0.09,-0.139 0.07,-0.223 0.07,-0.329C0.07,-0.408 0.081,-0.477 0.103,-0.536C0.126,-0.595 0.158,-0.641 0.2,-0.673C0.242,-0.706 0.292,-0.722 0.35,-0.722C0.404,-0.722 0.452,-0.708 0.495,-0.679L0.451,-0.605C0.42,-0.625 0.386,-0.635 0.35,-0.635C0.318,-0.635 0.29,-0.625 0.266,-0.605C0.243,-0.584 0.224,-0.555 0.211,-0.517C0.197,-0.479 0.189,-0.435 0.188,-0.383C0.23,-0.438 0.284,-0.466 0.35,-0.466ZM0.316,-0.073C0.355,-0.073 0.384,-0.088 0.404,-0.116C0.423,-0.145 0.433,-0.184 0.433,-0.234C0.433,-0.286 0.424,-0.323 0.405,-0.346C0.387,-0.369 0.36,-0.38 0.326,-0.38C0.298,-0.38 0.273,-0.373 0.249,-0.358C0.226,-0.343 0.205,-0.323 0.188,-0.297C0.189,-0.245 0.194,-0.203 0.203,-0.171C0.212,-0.138 0.226,-0.114 0.244,-0.097C0.263,-0.081 0.287,-0.073 0.316,-0.073Z" style="fill-rule:nonzero;"/>
            </g>
        </g>
        <g transform="matrix(0.722222,0,0,0.722222,151.667,35)">
            <rect x="912" y="843.073" width="57.849" height="55.927" style="fill:none;stroke:black;stroke-width:6.92px;"/>
        </g>
        <g transform="matrix(0.722222,0,0,0.722222,153.111,37.1667)">
            <g transform="matrix(1.38462,-0,-0,1.38462,544,123)">
                <path d="M265.775,334.24L270.833,346.667L257.857,343.258L265.775,334.24Z"/>
                <path d="M241.222,320.667C241.222,320.667 254.854,332.636 263.62,340.333" style="fill:none;stroke:black;stroke-width:2px;"/>
            </g>
        </g>
        <g transform="matrix(0.722222,0,0,0.722222,133.611,158.5)">
            <g transform="matrix(1.38462,-0,-0,1.38462,571,-45)">
                <path d="M257.527,468.059L244.111,468L252.208,457.302L257.527,468.059Z"/>
                <path d="M309.833,435.5C309.833,435.5 270.537,454.932 252.716,463.745" style="fill:none;stroke:black;stroke-width:2px;"/>
            </g>
        </g>
        <g transform="matrix(0.722222,0,0,0.722222,113.389,215.556)">
            <g transform="matrix(1.38462,-0,-0,1.38462,599,-124)">
                <path d="M237.305,525.115L223.889,525.056L231.986,514.358L237.305,525.115Z"/>
                <path d="M289.611,492.556C289.611,492.556 250.315,511.988 232.494,520.8" style="fill:none;stroke:black;stroke-width:2px;"/>
            </g>
        </g>
        <g transform="matrix(0.722222,0,0,0.722222,156,101.444)">
            <g transform="matrix(1.38462,-0,-0,1.38462,540,34)">
                <path d="M279.916,411.004L266.5,410.944L274.597,400.247L279.916,411.004Z"/>
                <path d="M332.222,378.444C332.222,378.444 292.926,397.876 275.105,406.689" style="fill:none;stroke:black;stroke-width:2px;"/>
            </g>
        </g>
        <g transform="matrix(0.722222,0,0,0.722222,274.444,38.6111)">
            <g transform="matrix(37,0,0,37,917,491.158)">
                <path d="M0.321,-0.526C0.321,-0.547 0.317,-0.567 0.309,-0.587C0.3,-0.606 0.289,-0.622 0.276,-0.633C0.25,-0.655 0.223,-0.652 0.195,-0.625C0.181,-0.612 0.168,-0.592 0.156,-0.566C0.143,-0.54 0.134,-0.514 0.127,-0.489C0.113,-0.435 0.107,-0.371 0.108,-0.297C0.11,-0.215 0.122,-0.156 0.143,-0.119C0.166,-0.08 0.197,-0.055 0.234,-0.046C0.272,-0.037 0.307,-0.048 0.338,-0.078C0.375,-0.113 0.406,-0.172 0.432,-0.257C0.435,-0.266 0.44,-0.272 0.449,-0.277C0.457,-0.281 0.465,-0.282 0.474,-0.279C0.483,-0.276 0.489,-0.271 0.494,-0.263C0.498,-0.254 0.499,-0.246 0.496,-0.237C0.467,-0.142 0.429,-0.073 0.384,-0.03C0.335,0.017 0.28,0.033 0.219,0.018C0.164,0.005 0.12,-0.03 0.087,-0.085C0.059,-0.132 0.044,-0.202 0.042,-0.295C0.041,-0.375 0.048,-0.445 0.063,-0.505C0.071,-0.535 0.082,-0.566 0.097,-0.597C0.112,-0.628 0.129,-0.654 0.149,-0.673C0.168,-0.691 0.188,-0.703 0.209,-0.709C0.23,-0.715 0.249,-0.716 0.268,-0.711C0.286,-0.706 0.303,-0.697 0.319,-0.683C0.34,-0.665 0.356,-0.642 0.369,-0.614C0.381,-0.585 0.387,-0.556 0.387,-0.526C0.387,-0.517 0.384,-0.509 0.378,-0.503C0.371,-0.496 0.363,-0.493 0.354,-0.493C0.345,-0.493 0.337,-0.496 0.331,-0.503C0.324,-0.509 0.321,-0.517 0.321,-0.526Z" style="fill-rule:nonzero;"/>
            </g>
            <g transform="matrix(37,0,0,37,935.315,491.158)">
                <path d="M0.246,-0.429L0.231,-0.433C0.227,-0.434 0.224,-0.435 0.222,-0.435C0.196,-0.434 0.172,-0.418 0.15,-0.388C0.127,-0.357 0.111,-0.319 0.102,-0.272C0.094,-0.225 0.096,-0.182 0.107,-0.144C0.118,-0.105 0.138,-0.079 0.166,-0.064C0.201,-0.047 0.233,-0.05 0.262,-0.074C0.293,-0.099 0.315,-0.137 0.328,-0.188C0.34,-0.237 0.339,-0.284 0.326,-0.329C0.312,-0.374 0.285,-0.407 0.246,-0.429ZM0.27,-0.491C0.275,-0.49 0.279,-0.487 0.282,-0.484C0.31,-0.468 0.333,-0.448 0.352,-0.423C0.37,-0.397 0.383,-0.371 0.39,-0.344C0.397,-0.316 0.402,-0.287 0.403,-0.257C0.404,-0.227 0.4,-0.199 0.392,-0.172C0.376,-0.106 0.346,-0.056 0.303,-0.022C0.252,0.019 0.196,0.025 0.136,-0.006C0.113,-0.017 0.093,-0.034 0.077,-0.056C0.06,-0.077 0.049,-0.1 0.043,-0.126C0.037,-0.151 0.033,-0.177 0.032,-0.205C0.03,-0.233 0.032,-0.259 0.038,-0.284C0.048,-0.341 0.067,-0.389 0.096,-0.428C0.131,-0.474 0.171,-0.498 0.218,-0.501L0.219,-0.501C0.228,-0.505 0.236,-0.505 0.245,-0.502C0.254,-0.499 0.262,-0.495 0.27,-0.491Z" style="fill-rule:nonzero;"/>
            </g>
            <g transform="matrix(37,0,0,37,950.263,491.158)">
                <path d="M0.102,-0.305C0.113,-0.326 0.125,-0.345 0.138,-0.363C0.167,-0.406 0.197,-0.438 0.227,-0.458C0.269,-0.486 0.308,-0.489 0.345,-0.467C0.369,-0.453 0.388,-0.423 0.402,-0.376C0.413,-0.342 0.421,-0.299 0.427,-0.246C0.436,-0.169 0.439,-0.092 0.438,-0.015C0.438,-0.006 0.435,0.001 0.428,0.008C0.421,0.014 0.413,0.017 0.405,0.017C0.396,0.017 0.388,0.014 0.382,0.007C0.375,0 0.372,-0.008 0.372,-0.017C0.373,-0.088 0.37,-0.162 0.361,-0.238C0.356,-0.288 0.348,-0.327 0.339,-0.356C0.33,-0.387 0.32,-0.405 0.311,-0.411C0.298,-0.418 0.282,-0.416 0.263,-0.403C0.241,-0.388 0.217,-0.362 0.192,-0.325C0.17,-0.292 0.151,-0.258 0.134,-0.222C0.117,-0.185 0.108,-0.158 0.106,-0.141C0.104,-0.129 0.103,-0.112 0.102,-0.09C0.101,-0.063 0.1,-0.044 0.099,-0.033C0.099,-0.032 0.099,-0.03 0.098,-0.029L0.098,-0.027C0.098,-0.024 0.097,-0.022 0.096,-0.019C0.094,-0.016 0.092,-0.013 0.089,-0.01C0.08,-0.001 0.07,0.002 0.058,-0.001C0.049,-0.003 0.042,-0.008 0.037,-0.016C0.036,-0.019 0.035,-0.021 0.034,-0.024L0.033,-0.031C0.032,-0.032 0.032,-0.033 0.032,-0.035C0.032,-0.037 0.032,-0.042 0.033,-0.049C0.034,-0.071 0.034,-0.083 0.034,-0.085C0.034,-0.094 0.035,-0.112 0.036,-0.141C0.037,-0.169 0.037,-0.191 0.037,-0.207L0.037,-0.25C0.037,-0.273 0.037,-0.288 0.037,-0.296C0.036,-0.304 0.036,-0.318 0.035,-0.337C0.034,-0.356 0.034,-0.372 0.033,-0.383C0.032,-0.394 0.03,-0.407 0.029,-0.422C0.027,-0.437 0.025,-0.452 0.022,-0.465C0.02,-0.474 0.022,-0.482 0.027,-0.49C0.032,-0.497 0.039,-0.502 0.048,-0.504C0.056,-0.505 0.065,-0.503 0.073,-0.499C0.08,-0.494 0.085,-0.486 0.086,-0.477C0.095,-0.432 0.101,-0.374 0.102,-0.305Z" style="fill-rule:nonzero;"/>
            </g>
            <g transform="matrix(37,0,0,37,966.617,491.158)">
                <path d="M0.381,-0.656C0.382,-0.608 0.382,-0.572 0.382,-0.549C0.382,-0.525 0.382,-0.489 0.381,-0.441C0.38,-0.393 0.38,-0.357 0.38,-0.333C0.38,-0.206 0.384,-0.1 0.393,-0.015C0.394,-0.006 0.391,0.002 0.386,0.009C0.38,0.016 0.373,0.02 0.364,0.021C0.355,0.022 0.347,0.019 0.34,0.014C0.333,0.008 0.328,0 0.327,-0.009C0.325,-0.026 0.323,-0.044 0.322,-0.063C0.313,-0.053 0.304,-0.044 0.295,-0.035C0.252,0.005 0.201,0.015 0.142,-0.005C0.087,-0.023 0.054,-0.07 0.043,-0.146C0.034,-0.207 0.041,-0.27 0.063,-0.337C0.087,-0.408 0.121,-0.455 0.165,-0.476C0.192,-0.489 0.22,-0.491 0.249,-0.48C0.272,-0.471 0.294,-0.455 0.315,-0.43C0.316,-0.532 0.316,-0.607 0.315,-0.654C0.315,-0.663 0.318,-0.671 0.325,-0.678C0.331,-0.685 0.339,-0.688 0.348,-0.688C0.357,-0.688 0.364,-0.685 0.371,-0.679C0.378,-0.672 0.381,-0.665 0.381,-0.656ZM0.314,-0.303C0.293,-0.343 0.28,-0.367 0.274,-0.374C0.257,-0.397 0.241,-0.412 0.225,-0.418C0.214,-0.422 0.204,-0.422 0.194,-0.417C0.167,-0.404 0.144,-0.37 0.126,-0.316C0.107,-0.259 0.101,-0.205 0.108,-0.155C0.115,-0.106 0.133,-0.077 0.162,-0.067C0.197,-0.056 0.226,-0.061 0.251,-0.083C0.275,-0.105 0.297,-0.137 0.316,-0.179C0.315,-0.216 0.314,-0.257 0.314,-0.302L0.314,-0.303Z" style="fill-rule:nonzero;"/>
            </g>
            <g transform="matrix(37,0,0,37,981.417,491.158)">
                <path d="M0.108,-0.455C0.113,-0.395 0.114,-0.32 0.112,-0.23C0.109,-0.09 0.107,-0.017 0.107,-0.01C0.107,-0.001 0.104,0.007 0.098,0.014C0.091,0.02 0.083,0.023 0.074,0.023C0.065,0.023 0.057,0.02 0.051,0.014C0.044,0.007 0.041,-0.001 0.041,-0.01C0.041,-0.013 0.043,-0.087 0.046,-0.232C0.048,-0.313 0.047,-0.386 0.042,-0.449C0.041,-0.458 0.044,-0.467 0.05,-0.474C0.056,-0.481 0.064,-0.484 0.073,-0.485C0.082,-0.486 0.09,-0.483 0.097,-0.477C0.103,-0.471 0.107,-0.464 0.108,-0.455ZM0.094,-0.646C0.101,-0.64 0.104,-0.632 0.104,-0.623C0.104,-0.614 0.101,-0.606 0.095,-0.6C0.088,-0.593 0.08,-0.59 0.071,-0.59C0.062,-0.59 0.054,-0.593 0.048,-0.6C0.041,-0.606 0.038,-0.614 0.038,-0.623C0.038,-0.632 0.041,-0.64 0.048,-0.647C0.054,-0.653 0.062,-0.656 0.071,-0.656C0.08,-0.656 0.088,-0.653 0.094,-0.646Z" style="fill-rule:nonzero;"/>
            </g>
            <g transform="matrix(37,0,0,37,986.338,491.158)">
                <path d="M0.278,-0.323C0.276,-0.347 0.272,-0.368 0.267,-0.385C0.261,-0.402 0.255,-0.415 0.248,-0.423C0.241,-0.43 0.234,-0.436 0.228,-0.439C0.222,-0.442 0.216,-0.444 0.211,-0.443C0.196,-0.442 0.179,-0.432 0.16,-0.413C0.141,-0.393 0.127,-0.364 0.116,-0.325C0.104,-0.284 0.099,-0.246 0.103,-0.211C0.106,-0.176 0.113,-0.145 0.125,-0.12C0.137,-0.095 0.152,-0.075 0.17,-0.062C0.197,-0.043 0.226,-0.041 0.257,-0.054C0.298,-0.071 0.337,-0.113 0.375,-0.178C0.38,-0.186 0.386,-0.191 0.395,-0.194C0.404,-0.196 0.412,-0.195 0.42,-0.191C0.428,-0.186 0.433,-0.18 0.436,-0.171C0.438,-0.162 0.437,-0.154 0.433,-0.146C0.388,-0.068 0.338,-0.017 0.283,0.007C0.229,0.03 0.179,0.025 0.132,-0.009C0.09,-0.04 0.061,-0.085 0.046,-0.146C0.031,-0.207 0.033,-0.273 0.052,-0.343C0.066,-0.391 0.087,-0.43 0.115,-0.461C0.143,-0.492 0.174,-0.508 0.208,-0.509C0.246,-0.511 0.277,-0.496 0.301,-0.463C0.324,-0.43 0.339,-0.385 0.344,-0.329C0.345,-0.32 0.342,-0.312 0.337,-0.305C0.331,-0.298 0.323,-0.294 0.314,-0.293C0.305,-0.292 0.297,-0.295 0.29,-0.301C0.283,-0.306 0.279,-0.314 0.278,-0.323Z" style="fill-rule:nonzero;"/>
            </g>
            <g transform="matrix(37,0,0,37,1002.43,491.158)">
                <path d="M0.108,-0.455C0.113,-0.395 0.114,-0.32 0.112,-0.23C0.109,-0.09 0.107,-0.017 0.107,-0.01C0.107,-0.001 0.104,0.007 0.098,0.014C0.091,0.02 0.083,0.023 0.074,0.023C0.065,0.023 0.057,0.02 0.051,0.014C0.044,0.007 0.041,-0.001 0.041,-0.01C0.041,-0.013 0.043,-0.087 0.046,-0.232C0.048,-0.313 0.047,-0.386 0.042,-0.449C0.041,-0.458 0.044,-0.467 0.05,-0.474C0.056,-0.481 0.064,-0.484 0.073,-0.485C0.082,-0.486 0.09,-0.483 0.097,-0.477C0.103,-0.471 0.107,-0.464 0.108,-0.455ZM0.094,-0.646C0.101,-0.64 0.104,-0.632 0.104,-0.623C0.104,-0.614 0.101,-0.606 0.095,-0.6C0.088,-0.593 0.08,-0.59 0.071,-0.59C0.062,-0.59 0.054,-0.593 0.048,-0.6C0.041,-0.606 0.038,-0.614 0.038,-0.623C0.038,-0.632 0.041,-0.64 0.048,-0.647C0.054,-0.653 0.062,-0.656 0.071,-0.656C0.08,-0.656 0.088,-0.653 0.094,-0.646Z" style="fill-rule:nonzero;"/>
            </g>
            <g transform="matrix(37,0,0,37,1007.35,491.158)">
                <path d="M0.246,-0.429L0.231,-0.433C0.227,-0.434 0.224,-0.435 0.222,-0.435C0.196,-0.434 0.172,-0.418 0.15,-0.388C0.127,-0.357 0.111,-0.319 0.102,-0.272C0.094,-0.225 0.096,-0.182 0.107,-0.144C0.118,-0.105 0.138,-0.079 0.166,-0.064C0.201,-0.047 0.233,-0.05 0.262,-0.074C0.293,-0.099 0.315,-0.137 0.328,-0.188C0.34,-0.237 0.339,-0.284 0.326,-0.329C0.312,-0.374 0.285,-0.407 0.246,-0.429ZM0.27,-0.491C0.275,-0.49 0.279,-0.487 0.282,-0.484C0.31,-0.468 0.333,-0.448 0.352,-0.423C0.37,-0.397 0.383,-0.371 0.39,-0.344C0.397,-0.316 0.402,-0.287 0.403,-0.257C0.404,-0.227 0.4,-0.199 0.392,-0.172C0.376,-0.106 0.346,-0.056 0.303,-0.022C0.252,0.019 0.196,0.025 0.136,-0.006C0.113,-0.017 0.093,-0.034 0.077,-0.056C0.06,-0.077 0.049,-0.1 0.043,-0.126C0.037,-0.151 0.033,-0.177 0.032,-0.205C0.03,-0.233 0.032,-0.259 0.038,-0.284C0.048,-0.341 0.067,-0.389 0.096,-0.428C0.131,-0.474 0.171,-0.498 0.218,-0.501L0.219,-0.501C0.228,-0.505 0.236,-0.505 0.245,-0.502C0.254,-0.499 0.262,-0.495 0.27,-0.491ZM0.152,-0.57L0.238,-0.672C0.244,-0.679 0.252,-0.682 0.261,-0.683C0.27,-0.684 0.278,-0.681 0.285,-0.675C0.292,-0.669 0.295,-0.662 0.296,-0.653C0.297,-0.644 0.294,-0.635 0.288,-0.628L0.202,-0.528C0.197,-0.521 0.189,-0.517 0.18,-0.516C0.171,-0.515 0.163,-0.518 0.156,-0.524C0.149,-0.529 0.145,-0.537 0.144,-0.546C0.143,-0.555 0.146,-0.563 0.152,-0.57Z" style="fill-rule:nonzero;"/>
            </g>
            <g transform="matrix(37,0,0,37,1022.3,491.158)">
                <path d="M0.102,-0.305C0.113,-0.326 0.125,-0.345 0.138,-0.363C0.167,-0.406 0.197,-0.438 0.227,-0.458C0.269,-0.486 0.308,-0.489 0.345,-0.467C0.369,-0.453 0.388,-0.423 0.402,-0.376C0.413,-0.342 0.421,-0.299 0.427,-0.246C0.436,-0.169 0.439,-0.092 0.438,-0.015C0.438,-0.006 0.435,0.001 0.428,0.008C0.421,0.014 0.413,0.017 0.405,0.017C0.396,0.017 0.388,0.014 0.382,0.007C0.375,0 0.372,-0.008 0.372,-0.017C0.373,-0.088 0.37,-0.162 0.361,-0.238C0.356,-0.288 0.348,-0.327 0.339,-0.356C0.33,-0.387 0.32,-0.405 0.311,-0.411C0.298,-0.418 0.282,-0.416 0.263,-0.403C0.241,-0.388 0.217,-0.362 0.192,-0.325C0.17,-0.292 0.151,-0.258 0.134,-0.222C0.117,-0.185 0.108,-0.158 0.106,-0.141C0.104,-0.129 0.103,-0.112 0.102,-0.09C0.101,-0.063 0.1,-0.044 0.099,-0.033C0.099,-0.032 0.099,-0.03 0.098,-0.029L0.098,-0.027C0.098,-0.024 0.097,-0.022 0.096,-0.019C0.094,-0.016 0.092,-0.013 0.089,-0.01C0.08,-0.001 0.07,0.002 0.058,-0.001C0.049,-0.003 0.042,-0.008 0.037,-0.016C0.036,-0.019 0.035,-0.021 0.034,-0.024L0.033,-0.031C0.032,-0.032 0.032,-0.033 0.032,-0.035C0.032,-0.037 0.032,-0.042 0.033,-0.049C0.034,-0.071 0.034,-0.083 0.034,-0.085C0.034,-0.094 0.035,-0.112 0.036,-0.141C0.037,-0.169 0.037,-0.191 0.037,-0.207L0.037,-0.25C0.037,-0.273 0.037,-0.288 0.037,-0.296C0.036,-0.304 0.036,-0.318 0.035,-0.337C0.034,-0.356 0.034,-0.372 0.033,-0.383C0.032,-0.394 0.03,-0.407 0.029,-0.422C0.027,-0.437 0.025,-0.452 0.022,-0.465C0.02,-0.474 0.022,-0.482 0.027,-0.49C0.032,-0.497 0.039,-0.502 0.048,-0.504C0.056,-0.505 0.065,-0.503 0.073,-0.499C0.08,-0.494 0.085,-0.486 0.086,-0.477C0.095,-0.432 0.101,-0.374 0.102,-0.305Z" style="fill-rule:nonzero;"/>
            </g>
            <g transform="matrix(37,0,0,37,917,527.007)">
                <path d="M0.381,-0.656C0.382,-0.608 0.382,-0.572 0.382,-0.549C0.382,-0.525 0.382,-0.489 0.381,-0.441C0.38,-0.393 0.38,-0.357 0.38,-0.333C0.38,-0.206 0.384,-0.1 0.393,-0.015C0.394,-0.006 0.391,0.002 0.386,0.009C0.38,0.016 0.373,0.02 0.364,0.021C0.355,0.022 0.347,0.019 0.34,0.014C0.333,0.008 0.328,0 0.327,-0.009C0.325,-0.026 0.323,-0.044 0.322,-0.063C0.313,-0.053 0.304,-0.044 0.295,-0.035C0.252,0.005 0.201,0.015 0.142,-0.005C0.087,-0.023 0.054,-0.07 0.043,-0.146C0.034,-0.207 0.041,-0.27 0.063,-0.337C0.087,-0.408 0.121,-0.455 0.165,-0.476C0.192,-0.489 0.22,-0.491 0.249,-0.48C0.272,-0.471 0.294,-0.455 0.315,-0.43C0.316,-0.532 0.316,-0.607 0.315,-0.654C0.315,-0.663 0.318,-0.671 0.325,-0.678C0.331,-0.685 0.339,-0.688 0.348,-0.688C0.357,-0.688 0.364,-0.685 0.371,-0.679C0.378,-0.672 0.381,-0.665 0.381,-0.656ZM0.314,-0.303C0.293,-0.343 0.28,-0.367 0.274,-0.374C0.257,-0.397 0.241,-0.412 0.225,-0.418C0.214,-0.422 0.204,-0.422 0.194,-0.417C0.167,-0.404 0.144,-0.37 0.126,-0.316C0.107,-0.259 0.101,-0.205 0.108,-0.155C0.115,-0.106 0.133,-0.077 0.162,-0.067C0.197,-0.056 0.226,-0.061 0.251,-0.083C0.275,-0.105 0.297,-0.137 0.316,-0.179C0.315,-0.216 0.314,-0.257 0.314,-0.302L0.314,-0.303Z" style="fill-rule:nonzero;"/>
            </g>
            <g transform="matrix(37,0,0,37,931.8,527.007)">
                <path d="M0.288,-0.335C0.292,-0.336 0.298,-0.336 0.306,-0.337C0.303,-0.352 0.297,-0.367 0.287,-0.384C0.276,-0.402 0.265,-0.416 0.252,-0.427C0.239,-0.438 0.228,-0.443 0.219,-0.443C0.191,-0.443 0.166,-0.425 0.144,-0.389C0.134,-0.372 0.125,-0.353 0.118,-0.332C0.153,-0.331 0.184,-0.331 0.211,-0.332C0.245,-0.333 0.271,-0.334 0.288,-0.335ZM0.104,-0.263L0.102,-0.246C0.098,-0.189 0.106,-0.143 0.127,-0.107C0.147,-0.07 0.177,-0.052 0.216,-0.051C0.237,-0.05 0.254,-0.053 0.267,-0.06C0.28,-0.067 0.298,-0.08 0.319,-0.1C0.324,-0.105 0.329,-0.11 0.334,-0.117C0.339,-0.124 0.344,-0.13 0.348,-0.135L0.362,-0.159L0.375,-0.18C0.38,-0.188 0.388,-0.193 0.397,-0.195C0.406,-0.196 0.414,-0.195 0.422,-0.19C0.429,-0.185 0.434,-0.177 0.436,-0.168C0.437,-0.159 0.436,-0.15 0.431,-0.143C0.43,-0.142 0.425,-0.136 0.418,-0.125L0.402,-0.099C0.397,-0.092 0.391,-0.083 0.384,-0.074C0.377,-0.064 0.37,-0.056 0.363,-0.051C0.338,-0.027 0.314,-0.01 0.293,0.001C0.272,0.012 0.245,0.017 0.214,0.016C0.179,0.015 0.15,0.006 0.125,-0.011C0.099,-0.028 0.081,-0.05 0.068,-0.077C0.055,-0.103 0.046,-0.132 0.041,-0.161C0.036,-0.19 0.034,-0.221 0.037,-0.252C0.042,-0.318 0.059,-0.375 0.088,-0.423C0.123,-0.481 0.167,-0.51 0.219,-0.509C0.245,-0.509 0.269,-0.5 0.29,-0.481C0.311,-0.462 0.329,-0.441 0.344,-0.416C0.357,-0.393 0.366,-0.371 0.371,-0.35C0.374,-0.338 0.375,-0.327 0.374,-0.317C0.372,-0.302 0.365,-0.29 0.354,-0.281C0.347,-0.276 0.338,-0.273 0.325,-0.27C0.317,-0.269 0.306,-0.267 0.293,-0.266C0.274,-0.265 0.247,-0.264 0.212,-0.263C0.183,-0.262 0.147,-0.262 0.104,-0.263Z" style="fill-rule:nonzero;"/>
            </g>
            <g transform="matrix(37,0,0,37,956.886,527.007)">
                <path d="M0.1,-0.002C0.101,0.062 0.102,0.112 0.101,0.148C0.101,0.157 0.098,0.164 0.091,0.171C0.084,0.177 0.077,0.18 0.068,0.18C0.058,0.18 0.051,0.177 0.045,0.17C0.038,0.163 0.035,0.155 0.035,0.146C0.036,0.11 0.036,0.058 0.035,-0.009C0.034,-0.076 0.033,-0.124 0.033,-0.153C0.033,-0.191 0.033,-0.226 0.034,-0.258C0.034,-0.29 0.033,-0.324 0.03,-0.36C0.028,-0.394 0.025,-0.428 0.02,-0.462C0.019,-0.471 0.021,-0.48 0.027,-0.487C0.032,-0.494 0.04,-0.499 0.049,-0.5C0.057,-0.501 0.066,-0.499 0.073,-0.494C0.08,-0.488 0.085,-0.481 0.086,-0.472L0.092,-0.423C0.121,-0.462 0.154,-0.484 0.191,-0.488C0.22,-0.491 0.246,-0.484 0.27,-0.467C0.294,-0.45 0.314,-0.427 0.33,-0.399C0.345,-0.372 0.356,-0.342 0.363,-0.31C0.37,-0.277 0.372,-0.243 0.37,-0.209C0.367,-0.174 0.357,-0.141 0.339,-0.109C0.32,-0.077 0.295,-0.051 0.262,-0.031C0.245,-0.02 0.226,-0.012 0.207,-0.008C0.188,-0.003 0.17,-0 0.153,-0.001C0.136,-0.001 0.119,-0.001 0.1,-0.002ZM0.099,-0.068C0.125,-0.065 0.149,-0.065 0.17,-0.068C0.191,-0.07 0.21,-0.076 0.228,-0.087C0.257,-0.105 0.278,-0.131 0.291,-0.165C0.304,-0.198 0.308,-0.233 0.304,-0.269C0.3,-0.304 0.29,-0.337 0.273,-0.366C0.262,-0.387 0.249,-0.402 0.236,-0.411C0.223,-0.42 0.21,-0.423 0.198,-0.422C0.184,-0.421 0.168,-0.411 0.152,-0.393C0.134,-0.374 0.118,-0.344 0.101,-0.303L0.099,-0.299C0.1,-0.27 0.1,-0.222 0.099,-0.153L0.099,-0.068Z" style="fill-rule:nonzero;"/>
            </g>
            <g transform="matrix(37,0,0,37,970.539,527.007)">
                <path d="M0.325,-0.119C0.306,-0.164 0.292,-0.194 0.282,-0.207C0.26,-0.234 0.232,-0.247 0.197,-0.246C0.162,-0.245 0.135,-0.229 0.115,-0.198C0.088,-0.157 0.085,-0.122 0.108,-0.093C0.118,-0.08 0.132,-0.071 0.152,-0.065C0.17,-0.058 0.192,-0.057 0.216,-0.061C0.245,-0.067 0.282,-0.086 0.325,-0.119ZM0.142,-0.452C0.199,-0.505 0.251,-0.523 0.297,-0.505C0.334,-0.491 0.362,-0.454 0.382,-0.395C0.387,-0.377 0.392,-0.358 0.397,-0.337C0.402,-0.316 0.406,-0.294 0.409,-0.271C0.412,-0.248 0.414,-0.229 0.416,-0.213C0.417,-0.197 0.419,-0.178 0.42,-0.157C0.421,-0.136 0.422,-0.123 0.423,-0.119C0.423,-0.118 0.425,-0.099 0.43,-0.064C0.431,-0.051 0.432,-0.04 0.433,-0.033C0.434,-0.021 0.435,-0.012 0.434,-0.007C0.433,-0.004 0.432,-0.001 0.431,0.002C0.428,0.011 0.422,0.017 0.414,0.02C0.401,0.027 0.388,0.025 0.377,0.015C0.374,0.012 0.372,0.009 0.37,0.005C0.368,0.001 0.366,-0.005 0.364,-0.012L0.36,-0.026C0.359,-0.031 0.358,-0.034 0.357,-0.035L0.35,-0.055C0.307,-0.023 0.266,-0.004 0.228,0.003C0.192,0.01 0.159,0.008 0.129,-0.002C0.098,-0.012 0.074,-0.029 0.056,-0.053C0.037,-0.077 0.027,-0.105 0.028,-0.138C0.028,-0.171 0.038,-0.203 0.059,-0.234C0.08,-0.266 0.108,-0.289 0.142,-0.302C0.176,-0.315 0.211,-0.316 0.246,-0.307C0.28,-0.297 0.31,-0.277 0.334,-0.247C0.338,-0.242 0.342,-0.235 0.347,-0.228C0.34,-0.289 0.331,-0.337 0.319,-0.373C0.306,-0.413 0.29,-0.437 0.273,-0.444C0.253,-0.452 0.224,-0.439 0.186,-0.404C0.179,-0.397 0.171,-0.394 0.163,-0.395C0.154,-0.396 0.146,-0.399 0.14,-0.406C0.133,-0.413 0.13,-0.421 0.131,-0.43C0.132,-0.439 0.135,-0.446 0.142,-0.452Z" style="fill-rule:nonzero;"/>
            </g>
            <g transform="matrix(37,0,0,37,986.523,527.007)">
                <path d="M0.037,-0.144L0.037,-0.247C0.037,-0.253 0.037,-0.266 0.037,-0.285C0.036,-0.304 0.036,-0.319 0.035,-0.328C0.034,-0.337 0.034,-0.35 0.033,-0.365C0.032,-0.38 0.03,-0.394 0.028,-0.407L0.022,-0.445C0.02,-0.454 0.022,-0.462 0.027,-0.47C0.032,-0.477 0.039,-0.482 0.048,-0.484C0.056,-0.485 0.065,-0.484 0.073,-0.479C0.08,-0.474 0.085,-0.466 0.086,-0.457C0.095,-0.416 0.1,-0.368 0.102,-0.313C0.113,-0.328 0.124,-0.343 0.137,-0.358C0.192,-0.421 0.25,-0.466 0.311,-0.491C0.32,-0.495 0.328,-0.495 0.337,-0.492C0.345,-0.488 0.351,-0.482 0.355,-0.474C0.358,-0.465 0.358,-0.457 0.355,-0.449C0.351,-0.44 0.345,-0.434 0.337,-0.431C0.285,-0.409 0.235,-0.37 0.187,-0.315C0.136,-0.256 0.109,-0.202 0.104,-0.151C0.103,-0.148 0.103,-0.145 0.103,-0.142L0.103,-0.056C0.103,-0.047 0.103,-0.035 0.102,-0.022L0.102,-0.007C0.102,-0.006 0.102,-0.006 0.102,-0.005C0.101,-0.004 0.101,-0.002 0.101,-0.001L0.099,0.005C0.096,0.012 0.091,0.018 0.083,0.021C0.076,0.025 0.07,0.026 0.064,0.024C0.057,0.021 0.053,0.019 0.05,0.017C0.047,0.015 0.044,0.013 0.042,0.01C0.04,0.007 0.038,0.004 0.037,-0C0.037,-0.001 0.037,-0.003 0.036,-0.005L0.036,-0.012C0.036,-0.02 0.035,-0.076 0.035,-0.083C0.035,-0.106 0.036,-0.127 0.037,-0.144Z" style="fill-rule:nonzero;"/>
            </g>
            <g transform="matrix(37,0,0,37,999.251,527.007)">
                <path d="M0.325,-0.119C0.306,-0.164 0.292,-0.194 0.282,-0.207C0.26,-0.234 0.232,-0.247 0.197,-0.246C0.162,-0.245 0.135,-0.229 0.115,-0.198C0.088,-0.157 0.085,-0.122 0.108,-0.093C0.118,-0.08 0.132,-0.071 0.152,-0.065C0.17,-0.058 0.192,-0.057 0.216,-0.061C0.245,-0.067 0.282,-0.086 0.325,-0.119ZM0.142,-0.452C0.199,-0.505 0.251,-0.523 0.297,-0.505C0.334,-0.491 0.362,-0.454 0.382,-0.395C0.387,-0.377 0.392,-0.358 0.397,-0.337C0.402,-0.316 0.406,-0.294 0.409,-0.271C0.412,-0.248 0.414,-0.229 0.416,-0.213C0.417,-0.197 0.419,-0.178 0.42,-0.157C0.421,-0.136 0.422,-0.123 0.423,-0.119C0.423,-0.118 0.425,-0.099 0.43,-0.064C0.431,-0.051 0.432,-0.04 0.433,-0.033C0.434,-0.021 0.435,-0.012 0.434,-0.007C0.433,-0.004 0.432,-0.001 0.431,0.002C0.428,0.011 0.422,0.017 0.414,0.02C0.401,0.027 0.388,0.025 0.377,0.015C0.374,0.012 0.372,0.009 0.37,0.005C0.368,0.001 0.366,-0.005 0.364,-0.012L0.36,-0.026C0.359,-0.031 0.358,-0.034 0.357,-0.035L0.35,-0.055C0.307,-0.023 0.266,-0.004 0.228,0.003C0.192,0.01 0.159,0.008 0.129,-0.002C0.098,-0.012 0.074,-0.029 0.056,-0.053C0.037,-0.077 0.027,-0.105 0.028,-0.138C0.028,-0.171 0.038,-0.203 0.059,-0.234C0.08,-0.266 0.108,-0.289 0.142,-0.302C0.176,-0.315 0.211,-0.316 0.246,-0.307C0.28,-0.297 0.31,-0.277 0.334,-0.247C0.338,-0.242 0.342,-0.235 0.347,-0.228C0.34,-0.289 0.331,-0.337 0.319,-0.373C0.306,-0.413 0.29,-0.437 0.273,-0.444C0.253,-0.452 0.224,-0.439 0.186,-0.404C0.179,-0.397 0.171,-0.394 0.163,-0.395C0.154,-0.396 0.146,-0.399 0.14,-0.406C0.133,-0.413 0.13,-0.421 0.131,-0.43C0.132,-0.439 0.135,-0.446 0.142,-0.452Z" style="fill-rule:nonzero;"/>
            </g>
            <g transform="matrix(37,0,0,37,1015.24,527.007)">
                <path d="M0.381,-0.656C0.382,-0.608 0.382,-0.572 0.382,-0.549C0.382,-0.525 0.382,-0.489 0.381,-0.441C0.38,-0.393 0.38,-0.357 0.38,-0.333C0.38,-0.206 0.384,-0.1 0.393,-0.015C0.394,-0.006 0.391,0.002 0.386,0.009C0.38,0.016 0.373,0.02 0.364,0.021C0.355,0.022 0.347,0.019 0.34,0.014C0.333,0.008 0.328,0 0.327,-0.009C0.325,-0.026 0.323,-0.044 0.322,-0.063C0.313,-0.053 0.304,-0.044 0.295,-0.035C0.252,0.005 0.201,0.015 0.142,-0.005C0.087,-0.023 0.054,-0.07 0.043,-0.146C0.034,-0.207 0.041,-0.27 0.063,-0.337C0.087,-0.408 0.121,-0.455 0.165,-0.476C0.192,-0.489 0.22,-0.491 0.249,-0.48C0.272,-0.471 0.294,-0.455 0.315,-0.43C0.316,-0.532 0.316,-0.607 0.315,-0.654C0.315,-0.663 0.318,-0.671 0.325,-0.678C0.331,-0.685 0.339,-0.688 0.348,-0.688C0.357,-0.688 0.364,-0.685 0.371,-0.679C0.378,-0.672 0.381,-0.665 0.381,-0.656ZM0.314,-0.303C0.293,-0.343 0.28,-0.367 0.274,-0.374C0.257,-0.397 0.241,-0.412 0.225,-0.418C0.214,-0.422 0.204,-0.422 0.194,-0.417C0.167,-0.404 0.144,-0.37 0.126,-0.316C0.107,-0.259 0.101,-0.205 0.108,-0.155C0.115,-0.106 0.133,-0.077 0.162,-0.067C0.197,-0.056 0.226,-0.061 0.251,-0.083C0.275,-0.105 0.297,-0.137 0.316,-0.179C0.315,-0.216 0.314,-0.257 0.314,-0.302L0.314,-0.303Z" style="fill-rule:nonzero;"/>
            </g>
            <g transform="matrix(37,0,0,37,1030.04,527.007)">
                <path d="M0.325,-0.119C0.306,-0.164 0.292,-0.194 0.282,-0.207C0.26,-0.234 0.232,-0.247 0.197,-0.246C0.162,-0.245 0.135,-0.229 0.115,-0.198C0.088,-0.157 0.085,-0.122 0.108,-0.093C0.118,-0.08 0.132,-0.071 0.152,-0.065C0.17,-0.058 0.192,-0.057 0.216,-0.061C0.245,-0.067 0.282,-0.086 0.325,-0.119ZM0.142,-0.452C0.199,-0.505 0.251,-0.523 0.297,-0.505C0.334,-0.491 0.362,-0.454 0.382,-0.395C0.387,-0.377 0.392,-0.358 0.397,-0.337C0.402,-0.316 0.406,-0.294 0.409,-0.271C0.412,-0.248 0.414,-0.229 0.416,-0.213C0.417,-0.197 0.419,-0.178 0.42,-0.157C0.421,-0.136 0.422,-0.123 0.423,-0.119C0.423,-0.118 0.425,-0.099 0.43,-0.064C0.431,-0.051 0.432,-0.04 0.433,-0.033C0.434,-0.021 0.435,-0.012 0.434,-0.007C0.433,-0.004 0.432,-0.001 0.431,0.002C0.428,0.011 0.422,0.017 0.414,0.02C0.401,0.027 0.388,0.025 0.377,0.015C0.374,0.012 0.372,0.009 0.37,0.005C0.368,0.001 0.366,-0.005 0.364,-0.012L0.36,-0.026C0.359,-0.031 0.358,-0.034 0.357,-0.035L0.35,-0.055C0.307,-0.023 0.266,-0.004 0.228,0.003C0.192,0.01 0.159,0.008 0.129,-0.002C0.098,-0.012 0.074,-0.029 0.056,-0.053C0.037,-0.077 0.027,-0.105 0.028,-0.138C0.028,-0.171 0.038,-0.203 0.059,-0.234C0.08,-0.266 0.108,-0.289 0.142,-0.302C0.176,-0.315 0.211,-0.316 0.246,-0.307C0.28,-0.297 0.31,-0.277 0.334,-0.247C0.338,-0.242 0.342,-0.235 0.347,-0.228C0.34,-0.289 0.331,-0.337 0.319,-0.373C0.306,-0.413 0.29,-0.437 0.273,-0.444C0.253,-0.452 0.224,-0.439 0.186,-0.404C0.179,-0.397 0.171,-0.394 0.163,-0.395C0.154,-0.396 0.146,-0.399 0.14,-0.406C0.133,-0.413 0.13,-0.421 0.131,-0.43C0.132,-0.439 0.135,-0.446 0.142,-0.452Z" style="fill-rule:nonzero;"/>
            </g>
        </g>
    </g>
</svg>
