<svg xmlns="http://www.w3.org/2000/svg" xmlns:xlink="http://www.w3.org/1999/xlink" width="598" height="571" fill-rule="evenodd" stroke-linecap="round" stroke-linejoin="round" stroke-miterlimit="1.5" xmlns:v="https://vecta.io/nano"><path d="M-.002-.001h597.997v570.15H-.002z" fill="#e1e39b"/><path d="M23.833 64.278h550.332V507.11H23.833z" fill="#e3b39b"/><path d="M46.222 122.056h505.556V452.57H46.222z" fill="#9be3e1"/><path d="M67.167 179.111h463.666v210.416H67.167z" fill="#9b9be3"/><path d="M91 231.111h416v108.708H91z" fill="#e19be3"/><g fill-rule="nonzero"><path d="M30.318 28.808c3.527 0 5.264 2.539 5.264 7.589 0 1.496-.214 2.833-.641 3.982-.401 1.149-1.042 2.031-1.871 2.672-.855.668-1.871.989-3.046.989-1.523 0-2.752-.534-3.688-1.603v6.787l-3.073.347V29.182h2.672l.187 1.871c.561-.721 1.176-1.283 1.897-1.683a4.95 4.95 0 0 1 2.298-.561zm-.828 2.378a3.01 3.01 0 0 0-1.764.561c-.508.374-.989.882-1.39 1.496v6.787c.721 1.069 1.683 1.603 2.859 1.603 1.069 0 1.844-.428 2.378-1.256.534-.855.802-2.164.802-3.955 0-1.844-.24-3.153-.721-4.008-.481-.828-1.202-1.229-2.164-1.229zm16.017-2.378c1.39 0 2.565.321 3.554.935s1.71 1.496 2.218 2.645c.508 1.122.748 2.458.748 4.008s-.24 2.886-.748 4.035c-.534 1.149-1.256 2.031-2.245 2.645-.989.641-2.164.962-3.527.962-1.39 0-2.592-.321-3.554-.935-.989-.588-1.71-1.47-2.218-2.619S38.96 38 38.96 36.423c0-1.496.267-2.833.775-3.982s1.256-2.031 2.245-2.672c.962-.641 2.164-.962 3.527-.962zm0 2.378c-1.122 0-1.951.428-2.485 1.283-.561.855-.828 2.191-.828 3.955 0 1.79.267 3.1.802 3.955.561.855 1.39 1.283 2.512 1.283 1.096 0 1.951-.428 2.485-1.283.561-.855.828-2.164.828-3.982 0-1.764-.267-3.073-.828-3.928-.534-.855-1.363-1.283-2.485-1.283zm24.327-2.004l-2.352 14.483h-3.848l-1.63-10.288-1.737 10.288H56.5l-2.458-14.483h2.966l1.496 12.586 2.031-10.742h3.073l1.871 10.742 1.496-12.586h2.859z"/><use xlink:href="#B"/><path d="M94.065 24.372c1.256 0 2.325.24 3.233.695.909.481 1.603 1.122 2.058 1.924.481.802.721 1.71.721 2.726 0 1.096-.267 2.191-.775 3.233s-1.336 2.218-2.485 3.474c-1.176 1.283-2.779 2.859-4.89 4.783h8.605l-.374 2.458H88.4V41.34l5.318-5.371c1.176-1.283 2.004-2.378 2.458-3.287.481-.909.721-1.844.721-2.779 0-.962-.267-1.71-.802-2.245-.534-.561-1.283-.828-2.245-.828-.828 0-1.55.16-2.111.454-.588.321-1.149.828-1.71 1.523l-2.004-1.523c.748-.962 1.63-1.683 2.592-2.191.962-.481 2.111-.721 3.447-.721z"/><use xlink:href="#C"/><use xlink:href="#D"/><use xlink:href="#E"/><path d="M52.707 88.42c3.527 0 5.264 2.539 5.264 7.589 0 1.496-.214 2.833-.641 3.982-.401 1.149-1.042 2.031-1.871 2.672-.855.668-1.871.989-3.046.989-1.523 0-2.752-.534-3.688-1.603v6.787l-3.073.347V88.794h2.672l.187 1.871c.561-.721 1.176-1.283 1.897-1.683a4.95 4.95 0 0 1 2.298-.561zm-.828 2.378a3.01 3.01 0 0 0-1.764.561c-.508.374-.989.882-1.39 1.496v6.787c.721 1.069 1.683 1.603 2.859 1.603 1.069 0 1.844-.428 2.378-1.256.534-.855.802-2.164.802-3.955 0-1.844-.24-3.153-.721-4.008-.481-.828-1.202-1.229-2.164-1.229z"/><use xlink:href="#F"/><path d="M92.223 88.794l-2.352 14.483h-3.848l-1.63-10.288-1.737 10.288h-3.768L76.43 88.794h2.966l1.496 12.586 2.031-10.742h3.073l1.871 10.742 1.496-12.586h2.859z"/><use xlink:href="#B" x="22.389" y="59.612"/><use xlink:href="#G"/><use xlink:href="#C" x="22.389" y="59.612"/><path d="M149.289 83.984c1.202 0 2.271.214 3.18.641.935.428 1.63 1.015 2.111 1.737a4.07 4.07 0 0 1 .748 2.405c0 .748-.16 1.443-.481 2.058s-.775 1.122-1.336 1.523c-.561.428-1.202.695-1.924.882.802.08 1.55.294 2.191.668.668.347 1.176.882 1.577 1.55.374.668.588 1.47.588 2.432 0 1.069-.294 2.058-.855 2.939s-1.363 1.55-2.405 2.058-2.245.775-3.607.775a9.07 9.07 0 0 1-3.42-.668c-1.069-.454-1.977-1.122-2.699-1.977l1.871-1.657c.534.615 1.149 1.096 1.871 1.39a5.47 5.47 0 0 0 2.245.481c1.176 0 2.111-.321 2.779-.935.695-.615 1.042-1.443 1.042-2.512 0-1.176-.321-2.004-.962-2.539-.641-.508-1.55-.775-2.699-.775h-1.63l.374-2.245h1.149c.615 0 1.149-.134 1.657-.347s.909-.561 1.202-1.015c.294-.428.454-.989.454-1.63 0-.588-.16-1.122-.428-1.55-.294-.428-.668-.748-1.176-.989-.481-.214-1.042-.321-1.657-.321-.775 0-1.47.134-2.084.401-.615.294-1.229.721-1.844 1.283l-1.63-1.737c1.63-1.55 3.581-2.325 5.799-2.325z"/><use xlink:href="#E" x="22.389" y="59.612"/><path d="M73.651 145.476c3.527 0 5.264 2.539 5.264 7.589 0 1.496-.214 2.833-.641 3.982-.401 1.149-1.042 2.031-1.871 2.672-.855.668-1.871.989-3.046.989-1.523 0-2.752-.534-3.688-1.603v6.787l-3.073.347V145.85h2.672l.187 1.871c.561-.721 1.176-1.283 1.897-1.683a4.95 4.95 0 0 1 2.298-.561zm-.828 2.378a3.01 3.01 0 0 0-1.764.561c-.508.374-.989.882-1.39 1.496v6.787c.721 1.069 1.683 1.603 2.859 1.603 1.069 0 1.844-.428 2.378-1.256.534-.855.802-2.164.802-3.955 0-1.844-.24-3.153-.721-4.008-.481-.828-1.202-1.229-2.164-1.229z"/><use xlink:href="#F" x="20.944" y="57.056"/><use xlink:href="#H"/><use xlink:href="#B" x="43.333" y="116.668"/><use xlink:href="#G" x="20.944" y="57.056"/><use xlink:href="#C" x="43.333" y="116.668"/><use xlink:href="#G" x="53.833" y="57.056"/><use xlink:href="#E" x="43.333" y="116.668"/><use xlink:href="#I"/><use xlink:href="#F" x="44.778" y="107.221"/><use xlink:href="#H" x="23.834" y="50.165"/><use xlink:href="#B" x="67.167" y="166.833"/><use xlink:href="#G" x="44.778" y="107.221"/><use xlink:href="#C" x="67.167" y="166.833"/><use xlink:href="#J"/><use xlink:href="#E" x="67.167" y="166.833"/><use xlink:href="#I" x="13.476" y="61.057"/><use xlink:href="#F" x="58.254" y="168.278"/><use xlink:href="#H" x="37.31" y="111.222"/><use xlink:href="#B" x="80.643" y="227.89"/><use xlink:href="#G" x="58.254" y="168.278"/><use xlink:href="#C" x="80.643" y="227.89"/><path d="M208.372 252.262c1.39 0 2.565.374 3.527 1.149.962.748 1.683 1.871 2.164 3.34.508 1.47.748 3.233.748 5.318s-.24 3.875-.748 5.344c-.481 1.47-1.202 2.592-2.164 3.367-.962.748-2.138 1.149-3.527 1.149-2.111 0-3.714-.855-4.81-2.565-1.096-1.683-1.63-4.115-1.63-7.295 0-3.153.534-5.585 1.63-7.268s2.699-2.539 4.81-2.539zm0 2.352c-1.122 0-1.977.588-2.539 1.79-.561 1.176-.855 3.073-.855 5.665 0 1.951.107 3.447.347 4.543l5.344-10.903c-.267-.401-.588-.668-.962-.855-.374-.16-.802-.24-1.336-.24zm0 14.964c1.122 0 1.951-.588 2.539-1.79.561-1.176.828-3.073.828-5.719 0-1.79-.08-3.18-.267-4.169l-5.291 10.769c.267.321.588.534.935.695.347.134.775.214 1.256.214z"/><use xlink:href="#E" x="80.643" y="227.89"/><use xlink:href="#K"/><use xlink:href="#L"/><path d="M148.763 317.054c-.561.347-1.202.641-1.924.828a8.37 8.37 0 0 1-2.298.321c-1.122 0-2.058-.214-2.806-.588-.775-.401-1.363-.962-1.764-1.657-.374-.721-.588-1.55-.588-2.512v-7.856h-3.207v-2.245h3.207v-3.233l3.073-.347v3.581h4.89L147 305.59h-4.543v7.83c0 .775.214 1.363.588 1.737.401.374 1.042.561 1.924.561.962 0 1.844-.24 2.672-.695l1.122 2.031z"/><use xlink:href="#M"/><use xlink:href="#K" x="65.778"/><use xlink:href="#N"/><use xlink:href="#J" x="29.784" y="107.331"/><use xlink:href="#K" x="-12.394" y="56.347"/><use xlink:href="#L" x="-12.394" y="56.347"/><use xlink:href="#O"/><use xlink:href="#M" x="-12.394" y="56.347"/><use xlink:href="#K" x="53.384" y="56.347"/><use xlink:href="#N" x="-12.394" y="56.347"/><use xlink:href="#G" x="95.057" y="270.899"/><use xlink:href="#P"/><path d="M280.575 355.257v16.514h3.795v2.405h-11.464v-2.405h4.623V358.41l-4.169 2.565-1.309-2.138 5.825-3.581h2.699zm24.685 6.44h11.357v2.512H305.26v-2.512zm0 5.398h11.357v2.512H305.26v-2.512z"/><use xlink:href="#G" x="226.612" y="270.899"/><path d="M77.804 415.721a7.39 7.39 0 0 1 1.122.08l1.069.267-.534 5.344H77.27v-2.939c-1.015.027-1.871.428-2.619 1.202s-1.336 1.871-1.764 3.314v5.371H75.8v2.191h-8.124v-2.191h2.138V418.26h-2.138v-2.191h4.489l.561 3.367c.534-1.256 1.229-2.191 2.031-2.806.828-.615 1.844-.909 3.046-.909z"/><use xlink:href="#L" x="-36.227" y="112.723"/><path d="M112.536 429.777c-.561.347-1.202.641-1.924.828a8.37 8.37 0 0 1-2.298.321c-1.122 0-2.058-.214-2.806-.588-.775-.401-1.363-.962-1.764-1.657-.374-.721-.588-1.55-.588-2.512v-7.856H99.95v-2.245h3.207v-3.233l3.073-.347v3.581h4.89l-.347 2.245h-4.543v7.83c0 .775.214 1.363.588 1.737.401.374 1.042.561 1.924.561.962 0 1.844-.24 2.672-.695l1.122 2.031z"/><use xlink:href="#M" x="-36.227" y="112.723"/><path d="M143.582 415.721a7.39 7.39 0 0 1 1.122.08l1.069.267-.534 5.344h-2.191v-2.939c-1.015.027-1.871.428-2.619 1.202s-1.336 1.871-1.764 3.314v5.371h2.913v2.191h-8.124v-2.191h2.138V418.26h-2.138v-2.191h4.489l.561 3.367c.534-1.256 1.229-2.191 2.031-2.806.828-.615 1.844-.909 3.046-.909z"/><use xlink:href="#N" x="-36.227" y="112.723"/><use xlink:href="#G" x="71.224" y="327.275"/><use xlink:href="#P" x="-23.833" y="56.376"/><use xlink:href="#G" x="137.002" y="327.275"/><use xlink:href="#Q"/><use xlink:href="#D" x="192.279" y="386.887"/><use xlink:href="#R"/><use xlink:href="#L" x="-57.171" y="167.263"/><use xlink:href="#O" x="-44.777" y="110.916"/><use xlink:href="#M" x="-57.171" y="167.263"/><use xlink:href="#R" x="65.778"/><use xlink:href="#N" x="-57.171" y="167.263"/><use xlink:href="#G" x="50.28" y="381.815"/><use xlink:href="#P" x="-44.777" y="110.916"/><use xlink:href="#D" x="105.558" y="441.427"/><use xlink:href="#Q" x="-20.944" y="54.54"/><use xlink:href="#S"/><use xlink:href="#K" x="-79.56" y="230.306"/><path d="M43.219 541.882c.08 1.416.481 2.485 1.202 3.18.695.695 1.63 1.069 2.726 1.069.695 0 1.336-.107 1.951-.321.588-.214 1.202-.534 1.844-.962l1.336 1.844c-.668.561-1.47 1.015-2.405 1.336-.909.321-1.871.481-2.859.481-1.47 0-2.752-.321-3.795-.962s-1.844-1.523-2.378-2.672c-.534-1.122-.802-2.458-.802-3.955 0-1.47.267-2.752.802-3.928.534-1.149 1.283-2.058 2.298-2.726.989-.668 2.164-.989 3.501-.989 1.256 0 2.378.294 3.314.882.935.561 1.657 1.416 2.164 2.485.508 1.096.748 2.378.748 3.875l-.053 1.363h-9.593zm3.447-6.333c-.989 0-1.79.347-2.405 1.069-.615.695-.962 1.764-1.069 3.18H49.9c-.027-1.363-.321-2.405-.882-3.153-.561-.721-1.336-1.096-2.352-1.096z"/><use xlink:href="#O" x="-67.166" y="173.959"/><use xlink:href="#M" x="-79.56" y="230.306"/><use xlink:href="#K" x="-13.782" y="230.306"/><use xlink:href="#N" x="-79.56" y="230.306"/><path d="M144.345 528.842c1.256 0 2.325.24 3.233.695.909.481 1.603 1.122 2.058 1.924.481.802.721 1.71.721 2.726 0 1.096-.267 2.191-.775 3.233s-1.336 2.218-2.485 3.474c-1.176 1.283-2.779 2.859-4.89 4.783h8.605l-.374 2.458H138.68v-2.325l5.318-5.371c1.176-1.283 2.004-2.378 2.458-3.287.481-.909.721-1.844.721-2.779 0-.962-.267-1.71-.802-2.245-.534-.561-1.283-.828-2.245-.828-.828 0-1.55.16-2.111.454-.588.321-1.149.828-1.71 1.523l-2.004-1.523c.748-.962 1.63-1.683 2.592-2.191.962-.481 2.111-.721 3.447-.721z"/><use xlink:href="#P" x="-67.166" y="173.959"/><use xlink:href="#S" x="-88.166" y="63.043"/><use xlink:href="#Q" x="-43.333" y="117.583"/><use xlink:href="#J" x="81.779" y="337.637"/><path d="M294.242 535.683c.989 0 1.897.214 2.699.695.802.454 1.443 1.149 1.924 2.058s.721 2.004.721 3.314c0 1.336-.267 2.512-.828 3.527-.534 1.015-1.256 1.817-2.218 2.378-.935.561-2.004.855-3.207.855-2.271 0-3.928-.828-4.997-2.458-1.042-1.63-1.577-3.875-1.577-6.707 0-2.111.294-3.955.882-5.531.615-1.577 1.47-2.806 2.592-3.661 1.122-.882 2.458-1.309 4.008-1.309 1.443 0 2.726.374 3.875 1.149l-1.176 1.977c-.828-.534-1.737-.802-2.699-.802a3.4 3.4 0 0 0-2.245.802c-.615.561-1.122 1.336-1.47 2.352-.374 1.015-.588 2.191-.615 3.581 1.122-1.47 2.565-2.218 4.329-2.218zm-.909 10.502c1.042 0 1.817-.401 2.352-1.149.508-.775.775-1.817.775-3.153 0-1.39-.24-2.378-.748-2.993-.481-.615-1.202-.909-2.111-.909-.748 0-1.416.187-2.058.588a5.57 5.57 0 0 0-1.63 1.63c.027 1.39.16 2.512.401 3.367.24.882.615 1.523 1.096 1.977.508.428 1.149.641 1.924.641z"/></g><path d="M264.333 517.886h41.78v40.392h-41.78z" fill="none" stroke="#000" stroke-width="4.998"/><path d="M265.776 334.241l5.058 12.427-12.976-3.409 7.918-9.018z"/><path d="M241.222 320.668l22.398 19.666" fill="none" stroke="#000" stroke-width="2"/><path d="M257.528 468.06l-13.416-.059 8.097-10.698 5.319 10.757z"/><path d="M309.834 435.501l-57.117 28.245" fill="none" stroke="#000" stroke-width="2"/><path d="M237.306 525.117l-13.416-.059 8.097-10.698 5.319 10.757z"/><path d="M289.612 492.558l-57.117 28.244" fill="none" stroke="#000" stroke-width="2"/><path d="M279.917 411.005l-13.416-.06 8.097-10.697 5.319 10.757z"/><path d="M332.223 378.445l-57.117 28.245" fill="none" stroke="#000" stroke-width="2"/><g fill-rule="nonzero"><path d="M399.299 253.28a4.32 4.32 0 0 0-.321-1.63c-.24-.508-.534-.935-.882-1.229-.695-.588-1.416-.508-2.164.214-.374.347-.721.882-1.042 1.577-.347.695-.588 1.39-.775 2.058-.374 1.443-.534 3.153-.508 5.131.053 2.191.374 3.768.935 4.757.615 1.042 1.443 1.71 2.432 1.951 1.015.24 1.951-.053 2.779-.855.989-.935 1.817-2.512 2.512-4.783a.89.89 0 0 1 .454-.534.83.83 0 0 1 .668-.053.94.94 0 0 1 .534.428c.107.24.134.454.053.695-.775 2.539-1.79 4.382-2.993 5.531-1.309 1.256-2.779 1.683-4.409 1.283-1.47-.347-2.645-1.283-3.527-2.752-.748-1.256-1.149-3.126-1.202-5.612-.027-2.138.16-4.008.561-5.612a13.8 13.8 0 0 1 .909-2.458c.401-.828.855-1.523 1.39-2.031.508-.481 1.042-.802 1.603-.962s1.069-.187 1.577-.053c.481.134.935.374 1.363.748.561.481.989 1.096 1.336 1.844a6.07 6.07 0 0 1 .481 2.352.85.85 0 0 1-.24.615.87.87 0 0 1-.641.267c-.24 0-.454-.08-.615-.267-.187-.16-.267-.374-.267-.615zm11.224 2.592l-.401-.107c-.107-.027-.187-.053-.24-.053-.695.027-1.336.454-1.924 1.256-.615.828-1.042 1.844-1.283 3.1-.214 1.256-.16 2.405.134 3.42.294 1.042.828 1.737 1.577 2.138.935.454 1.79.374 2.565-.267.828-.668 1.416-1.683 1.764-3.046.321-1.309.294-2.565-.053-3.768-.374-1.202-1.096-2.084-2.138-2.672zm.641-1.657c.134.027.24.107.321.187a6.11 6.11 0 0 1 1.871 1.63c.481.695.828 1.39 1.015 2.111.187.748.321 1.523.347 2.325a7.08 7.08 0 0 1-.294 2.271c-.428 1.764-1.229 3.1-2.378 4.008-1.363 1.096-2.859 1.256-4.463.428-.615-.294-1.149-.748-1.577-1.336-.454-.561-.748-1.176-.909-1.871a10.63 10.63 0 0 1-.294-2.111c-.053-.748 0-1.443.16-2.111.267-1.523.775-2.806 1.55-3.848.935-1.229 2.004-1.871 3.26-1.951h.027c.24-.107.454-.107.695-.027s.454.187.668.294zm6.307 4.971a12.73 12.73 0 0 1 .962-1.55c.775-1.149 1.577-2.004 2.378-2.539 1.122-.748 2.164-.828 3.153-.24.641.374 1.149 1.176 1.523 2.432.294.909.508 2.058.668 3.474.24 2.058.321 4.115.294 6.173a.81.81 0 0 1-.267.615c-.187.16-.401.24-.615.24-.24 0-.454-.08-.615-.267a.87.87 0 0 1-.267-.641 44.69 44.69 0 0 0-.294-5.906c-.134-1.336-.347-2.378-.588-3.153-.24-.828-.508-1.309-.748-1.47-.347-.187-.775-.134-1.283.214-.588.401-1.229 1.096-1.897 2.084-.588.882-1.096 1.79-1.55 2.752-.454.989-.695 1.71-.748 2.164-.053.321-.08.775-.107 1.363l-.08 1.523c0 .027 0 .08-.027.107v.053c0 .08-.027.134-.053.214a1.47 1.47 0 0 1-.187.24.81.81 0 0 1-.828.24.86.86 0 0 1-.561-.401l-.08-.214-.027-.187c-.027-.027-.027-.053-.027-.107s0-.187.027-.374l.027-.962.053-1.496.027-1.764v-1.149-1.229c-.027-.214-.027-.588-.053-1.096l-.053-1.229-.107-1.042-.187-1.149c-.053-.24 0-.454.134-.668a.92.92 0 0 1 .561-.374c.214-.027.454.027.668.134a.84.84 0 0 1 .347.588c.24 1.202.401 2.752.428 4.596z"/><use xlink:href="#T"/><use xlink:href="#U"/><path d="M448.228 258.705c-.053-.641-.16-1.202-.294-1.657-.16-.454-.321-.802-.508-1.015-.187-.187-.374-.347-.534-.428s-.321-.134-.454-.107c-.401.027-.855.294-1.363.802-.508.534-.882 1.309-1.176 2.352-.321 1.096-.454 2.111-.347 3.046.08.935.267 1.764.588 2.432s.721 1.202 1.202 1.55c.721.508 1.496.561 2.325.214 1.096-.454 2.138-1.577 3.153-3.314.134-.214.294-.347.534-.428a.96.96 0 0 1 .668.08c.214.134.347.294.428.534a.96.96 0 0 1-.08.668c-1.202 2.084-2.539 3.447-4.008 4.088-1.443.615-2.779.481-4.035-.428-1.122-.828-1.897-2.031-2.298-3.661s-.347-3.394.16-5.264c.374-1.283.935-2.325 1.683-3.153s1.577-1.256 2.485-1.283c1.015-.053 1.844.347 2.485 1.229.615.882 1.015 2.084 1.149 3.581.027.24-.053.454-.187.641-.16.187-.374.294-.615.321a.82.82 0 0 1-.641-.214c-.187-.134-.294-.347-.321-.588z"/><use xlink:href="#U" x="15.176"/><path d="M462.548 255.872l-.401-.107c-.107-.027-.187-.053-.24-.053-.695.027-1.336.454-1.924 1.256-.615.828-1.042 1.844-1.283 3.1-.214 1.256-.16 2.405.134 3.42.294 1.042.828 1.737 1.577 2.138.935.454 1.79.374 2.565-.267.828-.668 1.416-1.683 1.764-3.046.321-1.309.294-2.565-.053-3.768-.374-1.202-1.096-2.084-2.138-2.672zm.641-1.657c.134.027.24.107.321.187a6.11 6.11 0 0 1 1.871 1.63c.481.695.828 1.39 1.015 2.111.187.748.321 1.523.347 2.325a7.08 7.08 0 0 1-.294 2.271c-.428 1.764-1.229 3.1-2.378 4.008-1.363 1.096-2.859 1.256-4.463.428-.615-.294-1.149-.748-1.577-1.336-.454-.561-.748-1.176-.909-1.871a10.63 10.63 0 0 1-.294-2.111c-.053-.748 0-1.443.16-2.111.267-1.523.775-2.806 1.55-3.848.935-1.229 2.004-1.871 3.26-1.951h.027c.24-.107.454-.107.695-.027s.454.187.668.294zm-3.153-2.111l2.298-2.726c.16-.187.374-.267.615-.294a.82.82 0 0 1 .641.214c.187.16.267.347.294.588a.88.88 0 0 1-.214.668l-2.298 2.672c-.134.187-.347.294-.588.321a.82.82 0 0 1-.641-.214c-.187-.134-.294-.347-.321-.588a.82.82 0 0 1 .214-.641zm9.461 7.082a12.73 12.73 0 0 1 .962-1.55c.775-1.149 1.577-2.004 2.378-2.539 1.122-.748 2.164-.828 3.153-.24.641.374 1.149 1.176 1.523 2.432.294.909.508 2.058.668 3.474.24 2.058.321 4.115.294 6.173a.81.81 0 0 1-.267.615c-.187.16-.401.24-.615.24-.24 0-.454-.08-.615-.267a.87.87 0 0 1-.267-.641 44.69 44.69 0 0 0-.294-5.906c-.134-1.336-.347-2.378-.588-3.153-.24-.828-.508-1.309-.748-1.47-.347-.187-.775-.134-1.283.214-.588.401-1.229 1.096-1.897 2.084-.588.882-1.096 1.79-1.55 2.752-.454.989-.695 1.71-.748 2.164-.053.321-.08.775-.107 1.363l-.08 1.523c0 .027 0 .08-.027.107v.053c0 .08-.027.134-.053.214a1.45 1.45 0 0 1-.187.24.81.81 0 0 1-.828.24.86.86 0 0 1-.561-.401l-.08-.214-.027-.187c-.027-.027-.027-.053-.027-.107s0-.187.027-.374l.027-.962.053-1.496.027-1.764v-1.149-1.229c-.027-.214-.027-.588-.053-1.096l-.053-1.229-.107-1.042-.187-1.149c-.053-.24 0-.454.134-.668a.92.92 0 0 1 .561-.374c.214-.027.454.027.668.134a.84.84 0 0 1 .347.588c.24 1.202.401 2.752.428 4.596z"/><use xlink:href="#T" x="-35.834" y="25.891"/><path d="M409.106 284.275c.107-.027.267-.027.481-.053-.08-.401-.24-.802-.508-1.256-.294-.481-.588-.855-.935-1.149s-.641-.428-.882-.428c-.748 0-1.416.481-2.004 1.443a7.98 7.98 0 0 0-.695 1.523h2.485l2.058-.08zm-4.917 1.924l-.053.454c-.107 1.523.107 2.752.668 3.714.534.989 1.336 1.47 2.378 1.496.561.027 1.015-.053 1.363-.24s.828-.534 1.39-1.069c.134-.134.267-.267.401-.454l.374-.481.374-.641.347-.561c.134-.214.347-.347.588-.401.24-.027.454 0 .668.134a.98.98 0 0 1 .374.588c.027.24 0 .481-.134.668-.027.027-.16.187-.347.481l-.428.695-.481.668c-.187.267-.374.481-.561.615-.668.641-1.309 1.096-1.871 1.39s-1.283.428-2.111.401c-.935-.027-1.71-.267-2.378-.721-.695-.454-1.176-1.042-1.523-1.764-.347-.695-.588-1.47-.721-2.245a9.22 9.22 0 0 1-.107-2.432c.134-1.764.588-3.287 1.363-4.569.935-1.55 2.111-2.325 3.501-2.298.695 0 1.336.24 1.897.748a7.57 7.57 0 0 1 1.443 1.737c.347.615.588 1.202.721 1.764.08.321.107.615.08.882-.053.401-.24.721-.534.962-.187.134-.428.214-.775.294l-.855.107-2.164.08h-2.886zm18.011 6.975l.027 4.008a.81.81 0 0 1-.267.615.89.89 0 0 1-.615.24.74.74 0 0 1-.615-.267.87.87 0 0 1-.267-.641v-4.142l-.053-3.848.027-2.806-.107-2.726-.267-2.726c-.027-.24.027-.481.187-.668a.84.84 0 0 1 .588-.347.93.93 0 0 1 .641.16c.187.16.321.347.347.588l.16 1.309c.775-1.042 1.657-1.63 2.645-1.737a2.99 2.99 0 0 1 2.111.561c.641.454 1.176 1.069 1.603 1.817a8.73 8.73 0 0 1 .882 2.378c.187.882.24 1.79.187 2.699a6.49 6.49 0 0 1-.828 2.672 5.91 5.91 0 0 1-2.058 2.084c-.454.294-.962.508-1.47.615-.508.134-.989.214-1.443.187-.454 0-.909 0-1.416-.027zm-.027-1.764c.695.08 1.336.08 1.897 0a3.54 3.54 0 0 0 1.55-.508c.775-.481 1.336-1.176 1.683-2.084.347-.882.454-1.817.347-2.779-.107-.935-.374-1.817-.828-2.592-.294-.561-.641-.962-.989-1.202s-.695-.321-1.015-.294c-.374.027-.802.294-1.229.775-.481.508-.909 1.309-1.363 2.405l-.053.107v3.901 2.271z"/><use xlink:href="#V"/><path d="M441.921 289.379v-2.752-1.015l-.053-1.149c-.027-.24-.027-.588-.053-.989s-.08-.775-.134-1.122l-.16-1.015c-.053-.24 0-.454.134-.668a.92.92 0 0 1 .561-.374c.214-.027.454 0 .668.134.187.134.321.347.347.588.24 1.096.374 2.378.428 3.848l.935-1.202c1.47-1.683 3.02-2.886 4.65-3.554.24-.107.454-.107.695-.027a1.05 1.05 0 0 1 .481.481c.08.24.08.454 0 .668a.85.85 0 0 1-.481.481c-1.39.588-2.726 1.63-4.008 3.1-1.363 1.577-2.084 3.02-2.218 4.382-.027.08-.027.16-.027.24v2.298l-.027.909v.401.053c-.027.027-.027.08-.027.107l-.053.16c-.08.187-.214.347-.428.428-.187.107-.347.134-.508.08-.187-.08-.294-.134-.374-.187a.72.72 0 0 1-.214-.187c-.053-.08-.107-.16-.134-.267 0-.027 0-.08-.027-.134v-.187l-.027-1.897.053-1.63z"/><use xlink:href="#V" x="20.737"/><use xlink:href="#T" x="35.117" y="25.891"/><use xlink:href="#V" x="42.973"/></g><defs ><path id="B" d="M76.499 34.072c0 1.737.187 3.26.561 4.596a13.09 13.09 0 0 0 1.79 3.688c.802 1.149 1.871 2.352 3.26 3.688l-1.71 1.63c-1.55-1.283-2.859-2.592-3.875-3.901-1.042-1.283-1.817-2.726-2.378-4.329-.534-1.577-.828-3.367-.828-5.371s.294-3.795.828-5.371c.561-1.577 1.336-3.046 2.378-4.329 1.015-1.309 2.325-2.619 3.875-3.901l1.71 1.63c-1.363 1.309-2.432 2.539-3.233 3.661-.802 1.149-1.39 2.378-1.79 3.714s-.588 2.859-.588 4.596z"/><path id="C" d="M111.285 38.722c.454 0 .882.107 1.283.347a2.33 2.33 0 0 1 .882.882c.214.374.347.802.347 1.256 0 .401-.08.802-.187 1.229a15.11 15.11 0 0 1-.615 1.55l-2.111 4.837h-2.378l1.336-5.558c-.321-.214-.588-.508-.775-.882-.187-.347-.267-.748-.267-1.176a2.51 2.51 0 0 1 .321-1.256c.214-.374.508-.668.909-.882.374-.24.775-.347 1.256-.347z"/><path id="D" d="M132.004 36.931h2.245v2.378h-2.245v4.356h-2.966v-4.356h-7.856v-2.138l5.451-12.8 2.592 1.015-4.837 11.544h4.65l.374-5.077h2.592v5.077z"/><path id="E" d="M146.044 34.072c0-1.737-.187-3.26-.588-4.596-.374-1.336-.989-2.565-1.79-3.714-.775-1.122-1.871-2.352-3.207-3.661l1.683-1.63c1.577 1.283 2.859 2.592 3.901 3.901 1.015 1.283 1.817 2.752 2.352 4.329.561 1.577.828 3.367.828 5.371s-.267 3.795-.828 5.371a14.16 14.16 0 0 1-2.352 4.329c-1.042 1.309-2.325 2.619-3.901 3.901l-1.683-1.63c1.363-1.336 2.458-2.539 3.26-3.688.775-1.149 1.39-2.378 1.764-3.688.374-1.336.561-2.859.561-4.596z"/><path id="F" d="M67.896 88.42c1.39 0 2.565.321 3.554.935s1.71 1.496 2.218 2.645c.508 1.122.748 2.458.748 4.008s-.24 2.886-.748 4.035c-.534 1.149-1.256 2.031-2.245 2.645-.989.641-2.164.962-3.527.962-1.39 0-2.592-.321-3.554-.935-.989-.588-1.71-1.47-2.218-2.619s-.775-2.485-.775-4.062c0-1.496.267-2.833.775-3.982s1.256-2.031 2.245-2.672c.962-.641 2.164-.962 3.527-.962zm0 2.378c-1.122 0-1.951.428-2.485 1.283-.561.855-.828 2.191-.828 3.955 0 1.79.267 3.1.802 3.955.561.855 1.39 1.283 2.512 1.283 1.096 0 1.951-.428 2.485-1.283.561-.855.828-2.164.828-3.982 0-1.764-.267-3.073-.828-3.928-.534-.855-1.363-1.283-2.485-1.283z"/><path id="G" d="M116.454 83.984c1.256 0 2.325.24 3.233.695.909.481 1.603 1.122 2.058 1.924.481.802.721 1.71.721 2.726 0 1.096-.267 2.191-.775 3.233s-1.336 2.218-2.485 3.474c-1.176 1.283-2.779 2.859-4.89 4.783h8.605l-.374 2.458h-11.758v-2.325l5.318-5.371c1.176-1.283 2.004-2.378 2.458-3.287.481-.909.721-1.844.721-2.779 0-.962-.267-1.71-.802-2.245-.534-.561-1.283-.828-2.245-.828-.828 0-1.55.16-2.111.454-.588.321-1.149.828-1.71 1.523l-2.004-1.523c.748-.962 1.63-1.683 2.592-2.191.962-.481 2.111-.721 3.447-.721z"/><path id="H" d="M113.167 145.85l-2.352 14.483h-3.848l-1.63-10.288-1.737 10.288h-3.768l-2.458-14.483h2.966l1.496 12.586 2.031-10.742h3.073l1.871 10.742 1.496-12.586h2.859z"/><path id="I" d="M97.485 195.641c3.527 0 5.264 2.539 5.264 7.589 0 1.496-.214 2.833-.641 3.982-.401 1.149-1.042 2.031-1.871 2.672-.855.668-1.871.989-3.046.989-1.523 0-2.752-.534-3.688-1.603v6.787l-3.073.347v-20.389h2.672l.187 1.871c.561-.721 1.176-1.283 1.897-1.683a4.95 4.95 0 0 1 2.298-.561zm-.828 2.378a3.01 3.01 0 0 0-1.764.561c-.508.374-.989.882-1.39 1.496v6.787c.721 1.069 1.683 1.603 2.859 1.603 1.069 0 1.844-.428 2.378-1.256.534-.855.802-2.164.802-3.955 0-1.844-.24-3.153-.721-4.008-.481-.828-1.202-1.229-2.164-1.229z"/><path id="J" d="M197.408 191.579v16.514h3.795v2.405h-11.464v-2.405h4.623v-13.361l-4.169 2.565-1.309-2.138 5.825-3.581h2.699z"/><path id="K" d="M114.031 302.998a7.39 7.39 0 0 1 1.122.08l1.069.267-.534 5.344h-2.191v-2.939c-1.015.027-1.871.428-2.619 1.202s-1.336 1.871-1.764 3.314v5.371h2.913v2.191h-8.124v-2.191h2.138v-10.101h-2.138v-2.191h4.489l.561 3.367c.534-1.256 1.229-2.191 2.031-2.806.828-.615 1.844-.909 3.046-.909z"/><path id="L" d="M122.779 311.576c.08 1.416.481 2.485 1.202 3.18.695.695 1.63 1.069 2.726 1.069.695 0 1.336-.107 1.951-.321.588-.214 1.202-.534 1.844-.962l1.336 1.844c-.668.561-1.47 1.015-2.405 1.336-.909.321-1.871.481-2.859.481-1.47 0-2.752-.321-3.795-.962s-1.844-1.523-2.378-2.672c-.534-1.122-.802-2.458-.802-3.955 0-1.47.267-2.752.802-3.928.534-1.149 1.283-2.058 2.298-2.726.989-.668 2.164-.989 3.501-.989 1.256 0 2.378.294 3.314.882.935.561 1.657 1.416 2.164 2.485.508 1.096.748 2.378.748 3.875l-.053 1.363h-9.593zm3.447-6.333c-.989 0-1.79.347-2.405 1.069-.615.695-.962 1.764-1.069 3.18h6.707c-.027-1.363-.321-2.405-.882-3.153-.561-.721-1.336-1.096-2.352-1.096z"/><path id="M" d="M156.176 313.473c0 .828.16 1.443.508 1.817.321.374.855.561 1.577.561.641 0 1.256-.187 1.871-.561.615-.401 1.122-.882 1.47-1.47v-10.475h3.073v14.483h-2.645l-.187-1.844c-.534.695-1.202 1.256-2.031 1.63-.802.401-1.657.588-2.539.588-1.363 0-2.405-.374-3.1-1.149-.721-.748-1.069-1.817-1.069-3.207v-10.502h3.073v10.128z"/><path id="N" d="M185.992 317.829v-14.483h2.645l.24 1.897a6.4 6.4 0 0 1 2.111-1.683 5.81 5.81 0 0 1 2.565-.588c1.336 0 2.325.374 3.02 1.122.668.748 1.015 1.817 1.015 3.18v10.555h-3.073v-9.032c0-.882-.053-1.577-.16-2.058-.107-.508-.294-.855-.588-1.069-.294-.24-.748-.347-1.309-.347-.668 0-1.283.187-1.871.588-.561.401-1.069.909-1.523 1.523v10.395h-3.073z"/><path id="O" d="M136.369 373.401c-.561.347-1.202.641-1.924.828a8.37 8.37 0 0 1-2.298.321c-1.122 0-2.058-.214-2.806-.588-.775-.401-1.363-.962-1.764-1.657-.374-.721-.588-1.55-.588-2.512v-7.856h-3.207v-2.245h3.207v-3.233l3.073-.347v3.581h4.89l-.347 2.245h-4.543v7.83c0 .775.214 1.363.588 1.737.401.374 1.042.561 1.924.561.962 0 1.844-.24 2.672-.695l1.122 2.031z"/><path id="P" d="M246.671 358.17h-3.02l.347 5.425-5.024-1.977-.909 2.806 5.211 1.363-3.42 4.195 2.378 1.737 2.939-4.569 2.913 4.569 2.405-1.737-3.447-4.195 5.238-1.363-.935-2.806-5.024 1.977.347-5.425z"/><path id="Q" d="M281.427 418.073h11.357v2.512h-11.357v-2.512zm0 5.398h11.357v2.512h-11.357v-2.512z"/><path id="R" d="M56.86 470.261a7.39 7.39 0 0 1 1.122.08l1.069.267-.534 5.344h-2.191v-2.939c-1.015.027-1.871.428-2.619 1.202s-1.336 1.871-1.764 3.314v5.371h2.913v2.191h-8.124v-2.191h2.138V472.8h-2.138v-2.191h4.489l.561 3.367c.534-1.256 1.229-2.191 2.031-2.806.828-.615 1.844-.909 3.046-.909z"/><path id="S" d="M304.969 470.689c0 .882-.267 1.657-.775 2.325-.534.668-1.309 1.283-2.378 1.871 1.256.561 2.218 1.283 2.886 2.138.668.882 1.015 1.871 1.015 2.966 0 1.042-.267 1.951-.802 2.779s-1.309 1.496-2.325 1.977-2.218.721-3.607.721c-1.363 0-2.565-.24-3.554-.721s-1.737-1.122-2.271-1.951c-.508-.802-.775-1.737-.775-2.726 0-1.096.321-2.031.962-2.859.641-.802 1.55-1.47 2.726-2.004-1.015-.534-1.764-1.122-2.218-1.79-.481-.668-.695-1.523-.695-2.565 0-1.069.267-1.977.828-2.752.561-.748 1.309-1.336 2.218-1.71.882-.401 1.844-.588 2.859-.588 1.069 0 2.031.187 2.939.561.882.374 1.603.935 2.138 1.657.561.748.828 1.63.828 2.672zm-8.845.187c0 .588.134 1.096.401 1.47s.668.695 1.149.962c.508.267 1.202.534 2.058.828.802-.508 1.39-.989 1.737-1.496.347-.481.508-1.096.508-1.79 0-.855-.24-1.55-.748-2.058s-1.229-.748-2.164-.748-1.657.24-2.164.721c-.508.508-.775 1.202-.775 2.111zm6.44 9.139c0-.748-.16-1.336-.508-1.79s-.802-.828-1.416-1.122c-.588-.294-1.443-.641-2.592-1.042-1.683.882-2.512 2.164-2.512 3.901 0 .989.294 1.764.882 2.325.615.561 1.47.855 2.619.855.748 0 1.39-.134 1.924-.428.534-.267.935-.641 1.202-1.122.267-.454.401-.989.401-1.577z"/><path id="T" d="M436.737 249.806l.027 2.859-.027 2.886-.027 2.886.347 8.498c.027.24-.053.454-.187.641-.16.187-.347.294-.588.321s-.454-.053-.641-.187c-.187-.16-.321-.374-.347-.615l-.134-1.443-.721.748c-1.149 1.069-2.512 1.336-4.088.802-1.47-.481-2.352-1.737-2.645-3.768-.24-1.63-.053-3.314.534-5.104.641-1.897 1.55-3.153 2.726-3.714.721-.347 1.47-.401 2.245-.107.615.24 1.202.668 1.764 1.336v-5.986a.87.87 0 0 1 .267-.641c.16-.187.374-.267.615-.267a.89.89 0 0 1 .615.24.81.81 0 0 1 .267.615zm-1.79 9.433l-1.069-1.897c-.454-.615-.882-1.015-1.309-1.176-.294-.107-.561-.107-.828.027-.721.347-1.336 1.256-1.817 2.699-.508 1.523-.668 2.966-.481 4.302.187 1.309.668 2.084 1.443 2.352.935.294 1.71.16 2.378-.428.641-.588 1.229-1.443 1.737-2.565l-.053-3.287v-.027z"/><path id="U" d="M440.131 255.178c.134 1.603.16 3.607.107 6.012l-.134 5.879c0 .24-.08.454-.24.641-.187.16-.401.24-.641.24s-.454-.08-.615-.24a.87.87 0 0 1-.267-.641l.134-5.932-.107-5.799a.88.88 0 0 1 .214-.668c.16-.187.374-.267.615-.294a.82.82 0 0 1 .641.214c.16.16.267.347.294.588zm-.374-5.104c.187.16.267.374.267.615s-.08.454-.24.615a.87.87 0 0 1-.641.267c-.24 0-.454-.08-.615-.267-.187-.16-.267-.374-.267-.615a.87.87 0 0 1 .267-.641c.16-.16.374-.24.615-.24s.454.08.615.267z"/><path id="V" d="M438.073 290.047c-.508-1.202-.882-2.004-1.149-2.352-.588-.721-1.336-1.069-2.271-1.042s-1.657.454-2.191 1.283c-.721 1.096-.802 2.031-.187 2.806.267.347.641.588 1.176.748.481.187 1.069.214 1.71.107.775-.16 1.764-.668 2.913-1.55zm-4.89-8.898c1.523-1.416 2.913-1.897 4.142-1.416.989.374 1.737 1.363 2.271 2.939l.401 1.55c.134.561.24 1.149.321 1.764l.187 1.55.107 1.496.08 1.015c0 .027.053.534.187 1.47l.08.828c.027.321.053.561.027.695l-.08.24c-.08.24-.24.401-.454.481-.347.187-.695.134-.989-.134a.96.96 0 0 1-.187-.267c-.053-.107-.107-.267-.16-.454l-.107-.374c-.027-.134-.053-.214-.08-.24l-.187-.534c-1.149.855-2.245 1.363-3.26 1.55-.962.187-1.844.134-2.645-.134-.828-.267-1.47-.721-1.951-1.363-.508-.641-.775-1.39-.748-2.271 0-.882.267-1.737.828-2.565.561-.855 1.309-1.47 2.218-1.817s1.844-.374 2.779-.134c.909.267 1.71.802 2.352 1.603.107.134.214.321.347.508-.187-1.63-.428-2.913-.748-3.875-.347-1.069-.775-1.71-1.229-1.897-.534-.214-1.309.134-2.325 1.069-.187.187-.401.267-.615.24-.24-.027-.454-.107-.615-.294-.187-.187-.267-.401-.24-.641s.107-.428.294-.588z"/></defs></svg>