<svg xmlns="http://www.w3.org/2000/svg" xmlns:xlink="http://www.w3.org/1999/xlink" width="646" height="492" fill-rule="evenodd" stroke-linejoin="round" stroke-miterlimit="2" xmlns:v="https://vecta.io/nano"><style><![CDATA[.B{fill-rule:nonzero}.C{fill:#fff}.D{fill:#ff00a4}]]></style><g fill="#404040"><path d="M149.281 250.099v8.172l-12.572-12.572 12.572-12.572v8.172h377.15v-8.172l12.572 12.572-12.572 12.572v-8.172h-377.15z"/><path d="M342.256 434.274h8.172l-12.572 12.572-12.572-12.572h8.172V57.124h-8.172l12.572-12.572 12.572 12.572h-8.172v377.15z"/><g class="B"><path d="M255.833 14.059c-.135 0-.212-.058-.27-.173l-2.407-5.335c-.019-.058-.058-.077-.116-.077h-1.791c-.058 0-.096.039-.096.096v5.258c0 .058-.019.116-.058.154-.058.058-.116.077-.173.077h-2.253c-.058 0-.116-.019-.154-.077-.058-.039-.077-.096-.077-.154V.809c0-.058.019-.116.077-.173.039-.039.096-.058.154-.058h5.508c.828 0 1.541.173 2.176.501.616.327 1.098.809 1.444 1.425.327.616.501 1.329.501 2.138 0 .867-.212 1.618-.655 2.234-.443.636-1.04 1.078-1.83 1.329-.058.019-.077.077-.058.135l2.619 5.45c.019.058.039.096.039.116 0 .096-.077.154-.212.154h-2.369zM251.25 2.908c-.058 0-.096.039-.096.096v3.293c0 .058.039.096.096.096h2.523c.539 0 .982-.154 1.329-.481.327-.327.501-.732.501-1.252s-.173-.944-.501-1.271c-.347-.327-.79-.481-1.329-.481h-2.523z"/><use xlink:href="#B"/><path d="M276.613 4.391c0-.058.019-.116.077-.173.039-.039.096-.058.154-.058h2.253a.31.31 0 0 1 .173.058.31.31 0 0 1 .058.173V17.41a.31.31 0 0 1-.058.173.31.31 0 0 1-.173.058h-2.253c-.058 0-.116-.019-.154-.058-.058-.058-.077-.116-.077-.173v-4.121c0-.039-.019-.058-.039-.077s-.058 0-.077.039c-.52.636-1.233.963-2.157.963-.944 0-1.714-.25-2.35-.732-.655-.481-1.117-1.117-1.406-1.945-.231-.674-.347-1.483-.347-2.407 0-.867.116-1.637.327-2.311.289-.886.751-1.579 1.406-2.08.636-.481 1.406-.732 2.311-.732.944 0 1.676.347 2.215 1.059.019.019.058.039.077.019.019 0 .039-.019.039-.058v-.636zm-.443 6.721c.289-.481.424-1.136.424-2.003 0-.828-.135-1.464-.385-1.945-.327-.559-.77-.828-1.348-.828-.636 0-1.098.27-1.425.828-.27.52-.404 1.156-.404 1.926 0 .867.154 1.541.481 2.041a1.53 1.53 0 0 0 1.367.751c.559 0 1.001-.25 1.29-.77zm11.016-6.721c0-.058.019-.116.077-.173.039-.039.096-.058.154-.058h2.253a.31.31 0 0 1 .173.058.31.31 0 0 1 .058.173v9.437c0 .058-.019.116-.058.154-.058.058-.116.077-.173.077h-2.253c-.058 0-.116-.019-.154-.077-.058-.039-.077-.096-.077-.154v-.655c0-.039-.019-.058-.039-.077-.019 0-.058.019-.077.058-.52.693-1.31 1.04-2.388 1.04-.982 0-1.772-.289-2.407-.886s-.944-1.425-.944-2.484V4.391c0-.058.019-.116.077-.173.039-.039.096-.058.154-.058h2.234a.31.31 0 0 1 .173.058.31.31 0 0 1 .058.173v5.758c0 .52.135.924.424 1.252.27.327.655.481 1.136.481.443 0 .79-.135 1.078-.404.289-.25.462-.597.52-1.021V4.391zm6.183-1.348a1.45 1.45 0 0 1-1.078-.443 1.45 1.45 0 0 1-.443-1.078c0-.443.135-.809.424-1.098S292.926 0 293.369 0s.809.135 1.098.424.424.655.424 1.098-.135.79-.424 1.078c-.308.289-.655.443-1.098.443zm-1.156 11.016c-.058 0-.116-.019-.154-.077-.058-.039-.077-.096-.077-.154V4.372c0-.058.019-.116.077-.173.039-.039.096-.058.154-.058h2.253a.31.31 0 0 1 .173.058.31.31 0 0 1 .058.173v9.456c0 .058-.019.116-.058.154-.058.058-.116.077-.173.077h-2.253z"/><use xlink:href="#B" x="36.862"/><path d="M312.262 4.025c.462 0 .828.096 1.098.27.096.058.135.154.116.289l-.404 2.195c-.019.154-.096.193-.27.135a2.37 2.37 0 0 0-.674-.096c-.096 0-.25.019-.424.039a1.97 1.97 0 0 0-1.175.501c-.327.308-.481.713-.481 1.213v5.258c0 .058-.019.116-.058.154-.058.058-.116.077-.173.077h-2.253c-.058 0-.116-.019-.154-.077-.058-.039-.077-.096-.077-.154V4.391c0-.058.019-.116.077-.173.039-.039.096-.058.154-.058h2.253a.31.31 0 0 1 .173.058.31.31 0 0 1 .058.173v.732c0 .039.019.058.039.077s.039 0 .058-.019c.52-.77 1.233-1.156 2.118-1.156z"/><use xlink:href="#B" x="54.504"/><use xlink:href="#C"/><path d="M348.851 4.006c.828 0 1.579.135 2.234.424s1.175.693 1.541 1.194c.347.501.539 1.059.539 1.676v6.529c0 .058-.019.116-.058.154-.058.058-.116.077-.173.077h-2.253c-.058 0-.116-.019-.154-.077-.058-.039-.077-.096-.077-.154v-.636c0-.039-.019-.058-.039-.077s-.058 0-.077.039c-.539.713-1.406 1.059-2.6 1.059-1.001 0-1.81-.25-2.427-.732s-.924-1.213-.924-2.157c0-.982.347-1.753 1.04-2.311.693-.539 1.676-.809 2.966-.809h1.964a.09.09 0 0 0 .096-.096v-.424c0-.424-.135-.751-.385-1.001-.25-.231-.636-.347-1.156-.347-.404 0-.732.077-.982.212-.27.135-.443.347-.52.597-.039.135-.116.212-.25.193l-2.33-.308c-.154-.019-.231-.077-.212-.173a2.6 2.6 0 0 1 .655-1.464c.366-.443.867-.77 1.502-1.021.616-.25 1.31-.366 2.08-.366zm-.385 8.185c.559 0 1.021-.154 1.406-.443a1.36 1.36 0 0 0 .578-1.136v-.693a.09.09 0 0 0-.096-.096h-1.387c-.578 0-1.021.116-1.348.327a1 1 0 0 0-.501.924c0 .347.116.616.366.809.25.212.578.308.982.308zm-.539-9.225c-.096 0-.154-.019-.173-.077s-.019-.116.019-.193l1.021-1.945c.058-.116.154-.173.289-.173h1.945c.096 0 .154.019.193.077.019.058.019.135-.039.212l-1.367 1.945c-.058.096-.154.154-.27.154h-1.618zm11.093 11.228c-.867 0-1.618-.116-2.253-.366s-1.136-.578-1.483-1.021c-.366-.443-.539-.924-.539-1.483v-.193c0-.058.019-.116.077-.173.039-.039.096-.058.154-.058h2.138a.31.31 0 0 1 .173.058.31.31 0 0 1 .058.173v.019c0 .289.154.52.481.713.308.212.693.308 1.175.308.443 0 .79-.077 1.059-.27.27-.173.404-.385.404-.636 0-.231-.116-.404-.347-.52s-.616-.231-1.136-.366l-1.425-.443c-.828-.289-1.483-.636-1.964-1.04s-.732-1.001-.732-1.772a2.71 2.71 0 0 1 1.117-2.273c.732-.559 1.714-.828 2.927-.828.828 0 1.541.135 2.157.385.616.27 1.098.636 1.444 1.117a2.82 2.82 0 0 1 .501 1.618c0 .058-.019.116-.058.154-.058.058-.116.077-.173.077h-2.061c-.058 0-.116-.019-.154-.077-.058-.039-.077-.096-.077-.154 0-.289-.135-.52-.424-.713s-.674-.289-1.156-.289c-.424 0-.77.077-1.04.231s-.404.366-.404.636c0 .25.135.443.404.578.25.135.693.27 1.31.404l.481.116.578.173c.905.27 1.637.616 2.157 1.04s.79 1.04.79 1.849c0 .944-.366 1.695-1.117 2.215-.751.539-1.772.809-3.043.809zm15.252-8.089c0 .058-.019.116-.058.154-.058.058-.116.077-.173.077h-1.849a.09.09 0 0 0-.096.096v4.083c0 .424.096.732.27.944s.443.308.828.308h.636a.31.31 0 0 1 .173.058.31.31 0 0 1 .058.173v1.83c0 .135-.077.231-.231.25l-1.156.039c-1.059 0-1.868-.173-2.388-.539-.52-.347-.79-1.001-.809-1.984V6.433a.09.09 0 0 0-.096-.096h-1.098c-.058 0-.116-.019-.154-.077-.058-.039-.077-.096-.077-.154V4.391c0-.058.019-.116.077-.173.039-.039.096-.058.154-.058h1.098a.09.09 0 0 0 .096-.096V1.772c0-.058.019-.116.077-.173.039-.039.096-.058.154-.058h2.157a.31.31 0 0 1 .173.058.31.31 0 0 1 .058.173v2.292a.09.09 0 0 0 .096.096h1.849a.31.31 0 0 1 .173.058.31.31 0 0 1 .058.173v1.714zm3.101-3.062a1.45 1.45 0 0 1-1.078-.443 1.45 1.45 0 0 1-.443-1.078c0-.443.135-.809.424-1.098S376.93 0 377.373 0s.809.135 1.098.424.424.655.424 1.098-.135.79-.424 1.078c-.308.289-.655.443-1.098.443zm-1.156 11.016c-.058 0-.116-.019-.154-.077-.058-.039-.077-.096-.077-.154V4.372c0-.058.019-.116.077-.173.039-.039.096-.058.154-.058h2.253a.31.31 0 0 1 .173.058.31.31 0 0 1 .058.173v9.456c0 .058-.019.116-.058.154-.058.058-.116.077-.173.077h-2.253z"/><use xlink:href="#B" x="120.866"/><use xlink:href="#C" x="62.516"/><path d="M416.259 6.818c.231.655.347 1.425.347 2.311s-.116 1.695-.366 2.407a4.15 4.15 0 0 1-1.387 1.945c-.636.481-1.425.732-2.369.732-.924 0-1.637-.327-2.157-.963-.019-.039-.058-.058-.077-.039s-.039.039-.039.077v4.121a.31.31 0 0 1-.058.173.31.31 0 0 1-.173.058h-2.253c-.058 0-.116-.019-.154-.058-.058-.058-.077-.116-.077-.173V4.391c0-.058.019-.116.077-.173.039-.039.096-.058.154-.058h2.253a.31.31 0 0 1 .173.058.31.31 0 0 1 .058.173v.636c0 .039.019.058.039.058.019.019.058 0 .077-.019.539-.713 1.29-1.059 2.234-1.059.886 0 1.656.25 2.311.732.636.501 1.098 1.194 1.387 2.08zm-2.947 4.314c.327-.501.481-1.175.481-2.041 0-.809-.135-1.444-.404-1.926-.289-.559-.77-.828-1.425-.828-.597 0-1.04.27-1.329.828-.27.462-.404 1.117-.404 1.945 0 .867.135 1.521.424 2.003.289.52.732.77 1.31.77s1.021-.25 1.348-.751z"/><use xlink:href="#D"/><use xlink:href="#E"/><use xlink:href="#B" x="35.398" y="19.259"/><use xlink:href="#B" x="49.764" y="19.259"/><path d="M321.68 22.302a1.45 1.45 0 0 1-1.078-.443c-.289-.289-.424-.636-.424-1.078s.135-.809.424-1.098.636-.424 1.078-.424.809.135 1.098.424.424.655.424 1.098-.135.79-.424 1.078-.655.443-1.098.443zm-3.37 14.945c-.154 0-.231-.077-.231-.231v-1.83c0-.173.077-.231.25-.212.751.019 1.29-.077 1.598-.327.289-.25.443-.674.443-1.29l-.039-9.706c0-.058.019-.116.077-.173.039-.039.096-.058.154-.058h2.253a.31.31 0 0 1 .173.058.31.31 0 0 1 .058.173v9.668c0 1.04-.135 1.849-.424 2.427-.289.559-.77.963-1.425 1.194-.674.231-1.637.327-2.889.308z"/><use xlink:href="#B" x="65.171" y="19.259"/><use xlink:href="#F"/><path d="M351.761 23.65c0-.058.019-.116.077-.173.039-.039.096-.058.154-.058h2.253a.31.31 0 0 1 .173.058.31.31 0 0 1 .058.173v9.437c0 .058-.019.116-.058.154-.058.058-.116.077-.173.077h-2.253c-.058 0-.116-.019-.154-.077-.058-.039-.077-.096-.077-.154v-.655c0-.039-.019-.058-.039-.077-.019 0-.058.019-.077.058-.52.693-1.31 1.04-2.388 1.04-.982 0-1.772-.289-2.407-.886s-.944-1.425-.944-2.484V23.65c0-.058.019-.116.077-.173.039-.039.096-.058.154-.058h2.234a.31.31 0 0 1 .173.058.31.31 0 0 1 .058.173v5.758c0 .52.135.924.424 1.252.27.327.655.481 1.136.481.443 0 .79-.135 1.078-.404.289-.25.462-.597.52-1.021V23.65z"/><use xlink:href="#F" x="20.837"/><path d="M368.284 22.302a1.45 1.45 0 0 1-1.078-.443 1.45 1.45 0 0 1-.443-1.078c0-.443.135-.809.424-1.098s.655-.424 1.098-.424.809.135 1.098.424.424.655.424 1.098-.135.79-.424 1.078c-.308.289-.655.443-1.098.443zm-1.156 11.016c-.058 0-.116-.019-.154-.077-.058-.039-.077-.096-.077-.154v-9.456c0-.058.019-.116.077-.173.039-.039.096-.058.154-.058h2.253a.31.31 0 0 1 .173.058.31.31 0 0 1 .058.173v9.456c0 .058-.019.116-.058.154-.058.058-.116.077-.173.077h-2.253z"/><use xlink:href="#G"/><path d="M387.469 23.265c1.021 0 1.849.308 2.484.944s.944 1.483.944 2.561v6.317c0 .058-.019.116-.058.154-.058.058-.116.077-.173.077h-2.253c-.058 0-.116-.019-.154-.077-.058-.039-.077-.096-.077-.154v-5.758c0-.52-.154-.924-.424-1.252-.289-.327-.674-.481-1.156-.481s-.847.154-1.136.481-.443.732-.443 1.252v5.758c0 .058-.019.116-.058.154-.058.058-.116.077-.173.077h-2.253c-.058 0-.116-.019-.154-.077-.058-.039-.077-.096-.077-.154V23.65c0-.058.019-.116.077-.173.039-.039.096-.058.154-.058h2.253a.31.31 0 0 1 .173.058.31.31 0 0 1 .058.173v.674c0 .039.019.058.039.077s.039 0 .058-.019c.52-.751 1.31-1.117 2.35-1.117z"/><use xlink:href="#H"/><use xlink:href="#I"/><use xlink:href="#J"/><use xlink:href="#H" x="31.912"/><use xlink:href="#K"/><use xlink:href="#F" x="256.061" y="212.556"/><use xlink:href="#L"/><use xlink:href="#M"/><use xlink:href="#N"/><use xlink:href="#L" x="35.051"/><use xlink:href="#L" x="-31.788" y="19.259"/><use xlink:href="#F" x="244.789" y="231.815"/><use xlink:href="#F" x="255.012" y="231.815"/><use xlink:href="#K" x="14.203" y="19.259"/><use xlink:href="#G" x="234.175" y="231.815"/><use xlink:href="#N" x="-10.079" y="19.259"/><path d="M.231 243.197c-.058 0-.116-.019-.154-.077-.058-.039-.077-.096-.077-.154v-13.019c0-.058.019-.116.077-.173.039-.039.096-.058.154-.058h2.253a.31.31 0 0 1 .173.058.31.31 0 0 1 .058.173v13.019c0 .058-.019.116-.058.154-.058.058-.116.077-.173.077H.231zm15.638-10.053c1.001 0 1.791.308 2.35.905s.847 1.444.847 2.542v6.375c0 .058-.019.116-.058.154-.058.058-.116.077-.173.077h-2.253c-.058 0-.116-.019-.154-.077-.058-.039-.077-.096-.077-.154v-5.778c0-.52-.135-.944-.404-1.252s-.636-.462-1.078-.462-.809.154-1.098.462-.424.713-.424 1.233v5.797c0 .058-.019.116-.058.154-.058.058-.116.077-.173.077h-2.234c-.058 0-.116-.019-.154-.077-.058-.039-.077-.096-.077-.154v-5.778c0-.52-.135-.924-.424-1.252a1.44 1.44 0 0 0-1.098-.462c-.404 0-.751.116-1.021.366-.289.25-.443.578-.501 1.021v6.105c0 .058-.019.116-.058.154-.058.058-.116.077-.173.077H5.123c-.058 0-.116-.019-.154-.077-.058-.039-.077-.096-.077-.154v-9.437c0-.058.019-.116.077-.173.039-.039.096-.058.154-.058h2.253a.31.31 0 0 1 .173.058.31.31 0 0 1 .058.173v.751c0 .039.019.058.039.077s.058 0 .077-.039c.52-.79 1.348-1.175 2.446-1.175.636 0 1.213.135 1.695.404a2.65 2.65 0 0 1 1.098 1.156c.039.077.077.077.135 0 .289-.52.674-.924 1.156-1.175a3.46 3.46 0 0 1 1.618-.385zm13.944 2.812c.231.655.347 1.425.347 2.311s-.116 1.695-.366 2.407a4.15 4.15 0 0 1-1.387 1.945c-.636.481-1.425.732-2.369.732-.924 0-1.637-.327-2.157-.963-.019-.039-.058-.058-.077-.039s-.039.039-.039.077v4.121a.31.31 0 0 1-.058.173.31.31 0 0 1-.173.058h-2.253c-.058 0-.116-.019-.154-.058-.058-.058-.077-.116-.077-.173v-13.019c0-.058.019-.116.077-.173.039-.039.096-.058.154-.058h2.253a.31.31 0 0 1 .173.058.31.31 0 0 1 .058.173v.636c0 .039.019.058.039.058.019.019.058 0 .077-.019.539-.713 1.29-1.059 2.234-1.059.886 0 1.656.25 2.311.732.636.501 1.098 1.194 1.387 2.08zm-2.947 4.314c.327-.501.481-1.175.481-2.041 0-.809-.135-1.444-.404-1.926-.289-.559-.77-.828-1.425-.828-.597 0-1.04.27-1.329.828-.27.462-.404 1.117-.404 1.945 0 .867.135 1.521.424 2.003.289.52.732.77 1.31.77a1.52 1.52 0 0 0 1.348-.751zm5.279 2.927c-.058 0-.116-.019-.154-.077-.058-.039-.077-.096-.077-.154v-13.019c0-.058.019-.116.077-.173.039-.039.096-.058.154-.058h2.253a.31.31 0 0 1 .173.058.31.31 0 0 1 .058.173v13.019c0 .058-.019.116-.058.154-.058.058-.116.077-.173.077h-2.253zm5.93-11.016a1.45 1.45 0 0 1-1.521-1.521c0-.443.135-.809.424-1.098s.655-.424 1.098-.424.809.135 1.098.424.424.655.424 1.098-.135.79-.424 1.078c-.308.289-.655.443-1.098.443zm-1.156 11.016c-.058 0-.116-.019-.154-.077-.058-.039-.077-.096-.077-.154v-9.456c0-.058.019-.116.077-.173.039-.039.096-.058.154-.058h2.253a.31.31 0 0 1 .173.058.31.31 0 0 1 .058.173v9.456c0 .058-.019.116-.058.154-.058.058-.116.077-.173.077h-2.253z"/><use xlink:href="#F" x="-294.121" y="209.879"/><path d="M55.811 233.144c.828 0 1.579.135 2.234.424s1.175.693 1.541 1.194c.347.501.539 1.059.539 1.676v6.529c0 .058-.019.116-.058.154-.058.058-.116.077-.173.077H57.64c-.058 0-.116-.019-.154-.077-.058-.039-.077-.096-.077-.154v-.636c0-.039-.019-.058-.039-.077s-.058 0-.077.039c-.539.713-1.406 1.059-2.6 1.059-1.001 0-1.81-.25-2.427-.732s-.924-1.213-.924-2.157c0-.982.347-1.753 1.04-2.311.693-.539 1.676-.809 2.966-.809h1.964c.058 0 .096-.039.096-.096v-.424c0-.424-.135-.751-.385-1.001-.25-.231-.636-.347-1.156-.347-.404 0-.732.077-.982.212-.27.135-.443.347-.52.597-.039.135-.116.212-.25.193l-2.33-.308c-.154-.019-.231-.077-.212-.173.058-.539.27-1.021.655-1.464.366-.443.867-.77 1.502-1.021.616-.25 1.31-.366 2.08-.366zm-.385 8.185c.559 0 1.021-.154 1.406-.443a1.36 1.36 0 0 0 .578-1.136v-.693c0-.058-.039-.096-.096-.096h-1.387c-.578 0-1.021.116-1.348.327-.347.212-.501.52-.501.924 0 .347.116.616.366.809.25.212.578.308.982.308z"/><use xlink:href="#L" x="-536.166" y="-2.677"/><use xlink:href="#F" x="-259.589" y="209.879"/><use xlink:href="#F" x="-249.365" y="209.879"/><use xlink:href="#B" x="-163.449" y="229.138"/><use xlink:href="#O"/><use xlink:href="#D" x="-301.744" y="229.138"/><use xlink:href="#L" x="-569.724" y="16.582"/><use xlink:href="#E" x="-238.104" y="229.138"/><use xlink:href="#L" x="-544.805" y="16.582"/><path d="M72.887 254.502c0 .058-.019.116-.058.154-.058.058-.116.077-.173.077h-1.849c-.058 0-.096.039-.096.096v4.083c0 .424.096.732.27.944s.443.308.828.308h.636a.31.31 0 0 1 .231.231v1.83c0 .135-.077.231-.231.25l-1.156.039c-1.059 0-1.868-.173-2.388-.539-.52-.347-.79-1.001-.809-1.984v-5.161c0-.058-.039-.096-.096-.096h-1.098c-.058 0-.116-.019-.154-.077-.058-.039-.077-.096-.077-.154v-1.714c0-.058.019-.116.077-.173.039-.039.096-.058.154-.058h1.098c.058 0 .096-.039.096-.096v-2.292c0-.058.019-.116.077-.173.039-.039.096-.058.154-.058h2.157a.31.31 0 0 1 .173.058.31.31 0 0 1 .058.173v2.292c0 .058.039.096.096.096h1.849a.31.31 0 0 1 .231.231v1.714z"/><use xlink:href="#D" x="-343.915" y="248.397"/><use xlink:href="#O" x="-21.768" y="19.258"/><path d="M245.087 468.557c-.135 0-.212-.058-.27-.173l-2.407-5.335c-.019-.058-.058-.077-.116-.077h-1.791c-.058 0-.096.039-.096.096v5.258c0 .058-.019.116-.058.154-.058.058-.116.077-.173.077h-2.253c-.058 0-.116-.019-.154-.077-.058-.039-.077-.096-.077-.154v-13.019c0-.058.019-.116.077-.173.039-.039.096-.058.154-.058h5.508c.828 0 1.541.173 2.176.501.616.327 1.098.809 1.444 1.425.327.616.501 1.329.501 2.138 0 .867-.212 1.618-.655 2.234-.443.636-1.04 1.078-1.83 1.329-.058.019-.077.077-.058.135l2.619 5.45c.019.058.039.096.039.116 0 .096-.077.154-.212.154h-2.369zm-4.584-11.151c-.058 0-.096.039-.096.096v3.293c0 .058.039.096.096.096h2.523c.539 0 .982-.154 1.329-.481.327-.327.501-.732.501-1.252s-.173-.944-.501-1.271c-.347-.327-.79-.481-1.329-.481h-2.523z"/><use xlink:href="#B" x="-10.746" y="454.497"/><path d="M265.867 458.889c0-.058.019-.116.077-.173.039-.039.096-.058.154-.058h2.253a.31.31 0 0 1 .231.231v13.019a.31.31 0 0 1-.231.231h-2.253c-.058 0-.116-.019-.154-.058-.058-.058-.077-.116-.077-.173v-4.121c0-.039-.019-.058-.039-.077s-.058 0-.077.039c-.52.636-1.233.963-2.157.963-.944 0-1.714-.25-2.35-.732-.655-.481-1.117-1.117-1.406-1.945-.231-.674-.347-1.483-.347-2.407 0-.867.116-1.637.327-2.311.289-.886.751-1.579 1.406-2.08.636-.481 1.406-.732 2.311-.732.944 0 1.676.347 2.215 1.059.019.019.058.039.077.019.019 0 .039-.019.039-.058v-.636zm-.443 6.721c.289-.481.424-1.136.424-2.003 0-.828-.135-1.464-.385-1.945-.327-.559-.77-.828-1.348-.828-.636 0-1.098.27-1.425.828-.27.52-.404 1.156-.404 1.926 0 .867.154 1.541.481 2.041a1.53 1.53 0 0 0 1.367.751c.559 0 1.001-.25 1.29-.77z"/><use xlink:href="#M" x="-345.403" y="222.683"/><use xlink:href="#K" x="-305.634" y="222.683"/><use xlink:href="#B" x="26.115" y="454.497"/><path d="M301.515 458.523c.462 0 .828.096 1.098.27.096.058.135.154.116.289l-.404 2.195c-.019.154-.096.193-.27.135a2.37 2.37 0 0 0-.674-.096c-.096 0-.25.019-.424.039a1.97 1.97 0 0 0-1.175.501c-.327.308-.481.713-.481 1.213v5.258c0 .058-.019.116-.058.154-.058.058-.116.077-.173.077h-2.253c-.058 0-.116-.019-.154-.077-.058-.039-.077-.096-.077-.154v-9.437c0-.058.019-.116.077-.173.039-.039.096-.058.154-.058h2.253a.31.31 0 0 1 .231.231v.732c0 .039.019.058.039.077s.039 0 .058-.019c.52-.77 1.233-1.156 2.118-1.156z"/><use xlink:href="#B" x="43.756" y="454.497"/><use xlink:href="#I" x="-236.996" y="222.683"/><use xlink:href="#B" x="74.148" y="454.497"/><use xlink:href="#N" x="-281.948" y="222.683"/><use xlink:href="#D" x="-63.206" y="454.498"/><use xlink:href="#O" x="258.936" y="225.359"/><path d="M385.02 460.603c0 .058-.019.116-.058.154-.058.058-.116.077-.173.077h-1.849c-.058 0-.096.039-.096.096v4.083c0 .424.096.732.27.944s.443.308.828.308h.636a.31.31 0 0 1 .231.231v1.83c0 .135-.077.231-.231.25l-1.156.039c-1.059 0-1.868-.173-2.388-.539-.52-.347-.79-1.001-.809-1.984v-5.161c0-.058-.039-.096-.096-.096h-1.098c-.058 0-.116-.019-.154-.077-.058-.039-.077-.096-.077-.154v-1.714c0-.058.019-.116.077-.173.039-.039.096-.058.154-.058h1.098c.058 0 .096-.039.096-.096v-2.292c0-.058.019-.116.077-.173.039-.039.096-.058.154-.058h2.157a.31.31 0 0 1 .231.231v2.292c0 .058.039.096.096.096h1.849a.31.31 0 0 1 .231.231v1.714z"/><use xlink:href="#K" x="-200.136" y="222.683"/><use xlink:href="#B" x="131.613" y="454.497"/><use xlink:href="#I" x="-152.99" y="222.683"/><use xlink:href="#J" x="-152.989" y="222.682"/><use xlink:href="#D" x="10.747" y="454.498"/><path d="M290.595 474.565c0-.058.019-.116.077-.173.039-.039.096-.058.154-.058h2.253a.31.31 0 0 1 .231.231v13.019c0 .058-.019.116-.058.154-.058.058-.116.077-.173.077h-2.253c-.058 0-.116-.019-.154-.077-.058-.039-.077-.096-.077-.154v-.636c0-.039-.019-.058-.039-.077-.019 0-.058.019-.077.039-.539.713-1.271 1.059-2.215 1.059-.905 0-1.676-.25-2.311-.751-.655-.501-1.117-1.194-1.406-2.061-.212-.674-.327-1.444-.327-2.33 0-.905.116-1.714.347-2.388.289-.828.751-1.483 1.406-1.964.636-.462 1.406-.713 2.35-.713.924 0 1.637.327 2.157.963.019.039.058.058.077.039s.039-.039.039-.077v-4.121zm-.404 10.246c.25-.481.385-1.117.385-1.945 0-.867-.135-1.541-.424-2.022a1.41 1.41 0 0 0-1.29-.751 1.51 1.51 0 0 0-1.367.751c-.327.501-.481 1.175-.481 2.041 0 .77.135 1.406.404 1.926.327.559.79.828 1.425.828.578 0 1.021-.27 1.348-.828z"/><use xlink:href="#B" x="35.398" y="473.756"/><use xlink:href="#B" x="49.764" y="473.756"/><path d="M321.68 476.799a1.45 1.45 0 0 1-1.078-.443c-.289-.289-.424-.636-.424-1.078s.135-.809.424-1.098.636-.424 1.078-.424.809.135 1.098.424.424.655.424 1.098-.135.79-.424 1.078-.655.443-1.098.443zm-3.37 14.945c-.154 0-.231-.077-.231-.231v-1.83c0-.173.077-.231.25-.212.751.019 1.29-.077 1.598-.327.289-.25.443-.674.443-1.29l-.039-9.706c0-.058.019-.116.077-.173.039-.039.096-.058.154-.058h2.253a.31.31 0 0 1 .231.231v9.668c0 1.04-.135 1.849-.424 2.427-.289.559-.77.963-1.425 1.194-.674.231-1.637.327-2.889.308z"/><use xlink:href="#B" x="65.171" y="473.756"/><use xlink:href="#F" y="454.497"/><use xlink:href="#M" x="-270.082" y="241.941"/><use xlink:href="#F" x="20.837" y="454.497"/><use xlink:href="#K" x="-219.972" y="241.941"/><use xlink:href="#G" y="454.497"/><use xlink:href="#N" x="-244.254" y="241.941"/></g></g><g transform="matrix(.534965 0 0 .534964 15.401678 191.667221)"><use xlink:href="#P" transform="matrix(1.01544 0 0 1.21897 16.278 -55.6172)" class="D"/><g class="B C"><use xlink:href="#Q"/><use xlink:href="#R"/><use xlink:href="#S"/><use xlink:href="#T"/><use xlink:href="#U"/><use xlink:href="#V"/><use xlink:href="#W"/><use xlink:href="#X"/><use xlink:href="#W" x="54.7"/></g></g><g transform="matrix(.355635 0 0 .355634 85.788754 27.832271)"><use xlink:href="#P" transform="matrix(1.01544 0 0 1.21897 16.278 -55.6172)" class="D"/><g class="B C"><use xlink:href="#Q"/><use xlink:href="#R"/><use xlink:href="#S"/><use xlink:href="#T"/><use xlink:href="#U"/><use xlink:href="#V"/><use xlink:href="#W"/><use xlink:href="#X"/><use xlink:href="#W" x="54.7"/></g></g><g transform="matrix(.355635 0 0 .355634 312.802397 225.768793)"><use xlink:href="#P" transform="matrix(1.01544 0 0 1.21897 16.278 -55.6172)" class="D"/><g class="B C"><use xlink:href="#Q"/><use xlink:href="#R"/><use xlink:href="#S"/><use xlink:href="#T"/><use xlink:href="#U"/><use xlink:href="#V"/><use xlink:href="#W"/><use xlink:href="#X"/><use xlink:href="#W" x="54.7"/></g></g><g transform="matrix(.534965 0 0 .534964 242.415189 -6.26939)"><use xlink:href="#P" fill="#06f" transform="matrix(1.01544 0 0 1.21897 16.278 -55.6172)"/><g class="B C"><use xlink:href="#Y"/><use xlink:href="#Z"/><use xlink:href="#a"/><use xlink:href="#S" x="63.475" y="3.7"/><use xlink:href="#W" x="-4.975" y="3.7"/><use xlink:href="#S" x="119.625" y="3.7"/></g></g><g transform="matrix(.355635 0 0 .355634 85.788754 63.40744)"><use xlink:href="#P" fill="#06f" transform="matrix(1.01544 0 0 1.21897 16.278 -55.6172)"/><g class="B C"><use xlink:href="#Y"/><use xlink:href="#Z"/><use xlink:href="#a"/><use xlink:href="#S" x="63.475" y="3.7"/><use xlink:href="#W" x="-4.975" y="3.7"/><use xlink:href="#S" x="119.625" y="3.7"/></g></g><g transform="matrix(.355635 0 0 .355634 312.802397 261.344409)"><use xlink:href="#P" fill="#06f" transform="matrix(1.01544 0 0 1.21897 16.278 -55.6172)"/><g class="B C"><use xlink:href="#Y"/><use xlink:href="#Z"/><use xlink:href="#a"/><use xlink:href="#S" x="63.475" y="3.7"/><use xlink:href="#W" x="-4.975" y="3.7"/><use xlink:href="#S" x="119.625" y="3.7"/></g></g><defs ><path id="B" d="M268.717 8.089c.077.481.096 1.04.077 1.637-.019.154-.096.231-.25.231h-5.951c-.077 0-.096.039-.077.096a3.83 3.83 0 0 0 .212.77c.327.713 1.021 1.078 2.041 1.078.828-.019 1.464-.347 1.945-1.001.058-.077.116-.116.173-.116.039 0 .077.019.135.077l1.387 1.367c.058.058.096.116.096.173 0 .019-.019.077-.077.154-.424.52-.963.944-1.637 1.213a5.52 5.52 0 0 1-2.195.443c-1.098 0-2.041-.25-2.793-.751-.77-.501-1.329-1.194-1.656-2.099-.27-.636-.404-1.483-.404-2.523 0-.713.096-1.329.289-1.868.289-.905.809-1.637 1.56-2.176.732-.539 1.598-.809 2.619-.809 1.29 0 2.311.366 3.101 1.117.77.751 1.233 1.733 1.406 2.985zm-4.487-1.753c-.809 0-1.348.385-1.598 1.136a3.74 3.74 0 0 0-.135.616c0 .058.039.096.096.096h3.332c.077 0 .096-.039.077-.096l-.096-.539c-.116-.385-.308-.693-.597-.905s-.655-.308-1.078-.308z"/><path id="C" d="M339.799 4.006c1.001 0 1.791.308 2.35.905s.847 1.444.847 2.542v6.375c0 .058-.019.116-.058.154-.058.058-.116.077-.173.077h-2.253c-.058 0-.116-.019-.154-.077-.058-.039-.077-.096-.077-.154V8.05c0-.52-.135-.944-.404-1.252s-.636-.462-1.078-.462-.809.154-1.098.462-.424.713-.424 1.233v5.797c0 .058-.019.116-.058.154-.058.058-.116.077-.173.077h-2.234c-.058 0-.116-.019-.154-.077-.058-.039-.077-.096-.077-.154V8.05c0-.52-.135-.924-.424-1.252-.289-.308-.655-.462-1.098-.462-.404 0-.751.116-1.021.366-.289.25-.443.578-.501 1.021v6.105c0 .058-.019.116-.058.154-.058.058-.116.077-.173.077h-2.253c-.058 0-.116-.019-.154-.077-.058-.039-.077-.096-.077-.154V4.391c0-.058.019-.116.077-.173.039-.039.096-.058.154-.058h2.253a.31.31 0 0 1 .173.058.31.31 0 0 1 .058.173v.751c0 .039.019.058.039.077s.058 0 .077-.039c.52-.79 1.348-1.175 2.446-1.175.636 0 1.213.135 1.695.404s.847.655 1.098 1.156c.039.077.077.077.135 0 .289-.52.674-.924 1.156-1.175a3.46 3.46 0 0 1 1.618-.385z"/><path id="D" d="M422.672 14.213c-1.078 0-2.003-.289-2.773-.847s-1.29-1.329-1.579-2.311a7.02 7.02 0 0 1-.27-1.964 7.38 7.38 0 0 1 .27-2.041c.289-.944.828-1.695 1.598-2.234s1.695-.809 2.773-.809c1.059 0 1.945.27 2.696.79.751.539 1.271 1.29 1.579 2.234a6.35 6.35 0 0 1 .308 2.022 6.98 6.98 0 0 1-.27 1.945c-.289 1.001-.809 1.791-1.56 2.35-.77.578-1.695.867-2.773.867zm0-2.33c.424 0 .79-.135 1.078-.385s.501-.616.636-1.059a5.89 5.89 0 0 0 .154-1.348c0-.539-.058-1.001-.154-1.367-.135-.443-.366-.77-.655-1.021s-.655-.366-1.078-.366c-.443 0-.79.116-1.078.366a2.11 2.11 0 0 0-.636 1.021c-.096.308-.154.77-.154 1.367 0 .578.039 1.021.135 1.348.135.443.347.809.655 1.059.289.25.655.385 1.098.385z"/><path id="E" d="M290.595 20.068c0-.058.019-.116.077-.173.039-.039.096-.058.154-.058h2.253a.31.31 0 0 1 .173.058.31.31 0 0 1 .058.173v13.019c0 .058-.019.116-.058.154-.058.058-.116.077-.173.077h-2.253c-.058 0-.116-.019-.154-.077-.058-.039-.077-.096-.077-.154v-.636c0-.039-.019-.058-.039-.077-.019 0-.058.019-.077.039-.539.713-1.271 1.059-2.215 1.059-.905 0-1.676-.25-2.311-.751-.655-.501-1.117-1.194-1.406-2.061-.212-.674-.327-1.444-.327-2.33 0-.905.116-1.714.347-2.388.289-.828.751-1.483 1.406-1.964.636-.462 1.406-.713 2.35-.713.924 0 1.637.327 2.157.963.019.039.058.058.077.039s.039-.039.039-.077v-4.121zm-.404 10.246c.25-.481.385-1.117.385-1.945 0-.867-.135-1.541-.424-2.022a1.41 1.41 0 0 0-1.29-.751 1.51 1.51 0 0 0-1.367.751c-.327.501-.481 1.175-.481 2.041 0 .77.135 1.406.404 1.926.327.559.79.828 1.425.828.578 0 1.021-.27 1.348-.828z"/><path id="F" d="M339.995 33.472c-1.021 0-1.907-.25-2.658-.77-.77-.52-1.29-1.213-1.618-2.118-.212-.636-.327-1.406-.327-2.273s.116-1.598.327-2.234c.308-.867.847-1.56 1.598-2.061s1.656-.751 2.677-.751 1.926.25 2.715.77c.77.52 1.29 1.156 1.541 1.945.096.308.154.539.154.693v.039c0 .116-.058.193-.193.212l-2.215.327h-.039c-.116 0-.193-.058-.231-.193l-.058-.308c-.096-.327-.289-.616-.597-.828s-.674-.327-1.098-.327c-.404 0-.751.096-1.04.308s-.481.481-.597.847c-.135.385-.212.905-.212 1.579s.058 1.194.193 1.579c.116.385.327.693.616.905s.636.327 1.04.327.751-.116 1.059-.327c.289-.193.501-.501.616-.867.019-.019.019-.058.019-.116.019-.019.019-.039.019-.058.019-.154.096-.212.27-.193l2.215.347c.135.019.193.096.193.212 0 .096-.039.289-.116.578a3.56 3.56 0 0 1-1.56 2.022c-.79.481-1.676.732-2.696.732z"/><path id="G" d="M376.103 33.472c-1.078 0-2.003-.289-2.773-.847s-1.29-1.329-1.579-2.311a7.02 7.02 0 0 1-.27-1.964 7.38 7.38 0 0 1 .27-2.041c.289-.944.828-1.695 1.598-2.234s1.695-.809 2.773-.809c1.059 0 1.945.27 2.696.79.751.539 1.271 1.29 1.579 2.234a6.35 6.35 0 0 1 .308 2.022 6.98 6.98 0 0 1-.27 1.945c-.289 1.001-.809 1.791-1.56 2.35-.77.578-1.695.867-2.773.867zm0-2.33c.424 0 .79-.135 1.078-.385s.501-.616.636-1.059a5.89 5.89 0 0 0 .154-1.348c0-.539-.058-1.001-.154-1.367-.135-.443-.366-.77-.655-1.021s-.655-.366-1.078-.366c-.443 0-.79.116-1.078.366a2.11 2.11 0 0 0-.636 1.021c-.096.308-.154.77-.154 1.367 0 .578.039 1.021.135 1.348.135.443.347.809.655 1.059.289.25.655.385 1.098.385zm-1.156-8.917c-.096 0-.154-.019-.173-.077s-.019-.116.019-.193l1.021-1.945c.058-.116.154-.173.289-.173h1.945c.096 0 .154.019.193.077.019.058.019.135-.039.212l-1.367 1.945c-.058.096-.154.154-.27.154h-1.618z"/><path id="H" d="M550.415 245.874c-.058 0-.116-.019-.154-.077-.058-.039-.077-.096-.077-.154v-13.019c0-.058.019-.116.077-.173.039-.039.096-.058.154-.058h2.253a.31.31 0 0 1 .231.231v13.019c0 .058-.019.116-.058.154-.058.058-.116.077-.173.077h-2.253z"/><path id="I" d="M566.053 235.821c1.001 0 1.791.308 2.35.905s.847 1.444.847 2.542v6.375c0 .058-.019.116-.058.154-.058.058-.116.077-.173.077h-2.253c-.058 0-.116-.019-.154-.077-.058-.039-.077-.096-.077-.154v-5.778c0-.52-.135-.944-.404-1.252s-.636-.462-1.078-.462-.809.154-1.098.462-.424.713-.424 1.233v5.797c0 .058-.019.116-.058.154-.058.058-.116.077-.173.077h-2.234c-.058 0-.116-.019-.154-.077-.058-.039-.077-.096-.077-.154v-5.778c0-.52-.135-.924-.424-1.252-.289-.308-.655-.462-1.098-.462-.404 0-.751.116-1.021.366-.289.25-.443.578-.501 1.021v6.105c0 .058-.019.116-.058.154-.058.058-.116.077-.173.077h-2.253c-.058 0-.116-.019-.154-.077-.058-.039-.077-.096-.077-.154v-9.437c0-.058.019-.116.077-.173.039-.039.096-.058.154-.058h2.253a.31.31 0 0 1 .231.231v.751c0 .039.019.058.039.077s.058 0 .077-.039c.52-.79 1.348-1.175 2.446-1.175.636 0 1.213.135 1.695.404s.847.655 1.098 1.156c.039.077.077.077.135 0 .289-.52.674-.924 1.156-1.175a3.46 3.46 0 0 1 1.618-.385z"/><path id="J" d="M579.995 238.633c.231.655.347 1.425.347 2.311s-.116 1.695-.366 2.407a4.15 4.15 0 0 1-1.387 1.945c-.636.481-1.425.732-2.369.732-.924 0-1.637-.327-2.157-.963-.019-.039-.058-.058-.077-.039s-.039.039-.039.077v4.121a.31.31 0 0 1-.231.231h-2.253c-.058 0-.116-.019-.154-.058-.058-.058-.077-.116-.077-.173v-13.019c0-.058.019-.116.077-.173.039-.039.096-.058.154-.058h2.253a.31.31 0 0 1 .231.231v.636c0 .039.019.058.039.058.019.019.058 0 .077-.019.539-.713 1.29-1.059 2.234-1.059.886 0 1.656.25 2.311.732.636.501 1.098 1.194 1.387 2.08zm-2.947 4.314c.327-.501.481-1.175.481-2.041 0-.809-.135-1.444-.404-1.926-.289-.559-.77-.828-1.425-.828-.597 0-1.04.27-1.329.828-.27.462-.404 1.117-.404 1.945 0 .867.135 1.521.424 2.003.289.52.732.77 1.31.77s1.021-.25 1.348-.751z"/><path id="K" d="M588.256 234.858a1.45 1.45 0 0 1-1.521-1.521c0-.443.135-.809.424-1.098s.655-.424 1.098-.424.809.135 1.098.424.424.655.424 1.098-.135.79-.424 1.078c-.308.289-.655.443-1.098.443zm-1.156 11.016c-.058 0-.116-.019-.154-.077-.058-.039-.077-.096-.077-.154v-9.456c0-.058.019-.116.077-.173.039-.039.096-.058.154-.058h2.253a.31.31 0 0 1 .231.231v9.456c0 .058-.019.116-.058.154-.058.058-.116.077-.173.077h-2.253z"/><path id="L" d="M605.998 235.821c.828 0 1.579.135 2.234.424s1.175.693 1.541 1.194c.347.501.539 1.059.539 1.676v6.529c0 .058-.019.116-.058.154-.058.058-.116.077-.173.077h-2.253c-.058 0-.116-.019-.154-.077-.058-.039-.077-.096-.077-.154v-.636c0-.039-.019-.058-.039-.077s-.058 0-.077.039c-.539.713-1.406 1.059-2.6 1.059-1.001 0-1.81-.25-2.427-.732s-.924-1.213-.924-2.157c0-.982.347-1.753 1.04-2.311.693-.539 1.676-.809 2.966-.809h1.964c.058 0 .096-.039.096-.096v-.424c0-.424-.135-.751-.385-1.001-.25-.231-.636-.347-1.156-.347-.404 0-.732.077-.982.212-.27.135-.443.347-.52.597-.039.135-.116.212-.25.193l-2.33-.308c-.154-.019-.231-.077-.212-.173.058-.539.27-1.021.655-1.464.366-.443.867-.77 1.502-1.021.616-.25 1.31-.366 2.08-.366zm-.385 8.185c.559 0 1.021-.154 1.406-.443a1.36 1.36 0 0 0 .578-1.136v-.693c0-.058-.039-.096-.096-.096h-1.387c-.578 0-1.021.116-1.348.327-.347.212-.501.52-.501.924 0 .347.116.616.366.809.25.212.578.308.982.308z"/><path id="M" d="M621.843 236.206c0-.058.019-.116.077-.173.039-.039.096-.058.154-.058h2.253a.31.31 0 0 1 .231.231v9.437c0 .058-.019.116-.058.154-.058.058-.116.077-.173.077h-2.253c-.058 0-.116-.019-.154-.077-.058-.039-.077-.096-.077-.154v-.655c0-.039-.019-.058-.039-.077-.019 0-.058.019-.077.058-.52.693-1.31 1.04-2.388 1.04-.982 0-1.772-.289-2.407-.886s-.944-1.425-.944-2.484v-6.432c0-.058.019-.116.077-.173.039-.039.096-.058.154-.058h2.234a.31.31 0 0 1 .231.231v5.758c0 .52.135.924.424 1.252.27.327.655.481 1.136.481.443 0 .79-.135 1.078-.404.289-.25.462-.597.52-1.021v-6.066z"/><path id="N" d="M631.723 235.821c1.021 0 1.849.308 2.484.944s.944 1.483.944 2.561v6.317c0 .058-.019.116-.058.154-.058.058-.116.077-.173.077h-2.253c-.058 0-.116-.019-.154-.077-.058-.039-.077-.096-.077-.154v-5.758c0-.52-.154-.924-.424-1.252-.289-.327-.674-.481-1.156-.481s-.847.154-1.136.481-.443.732-.443 1.252v5.758c0 .058-.019.116-.058.154-.058.058-.116.077-.173.077h-2.253c-.058 0-.116-.019-.154-.077-.058-.039-.077-.096-.077-.154v-9.437c0-.058.019-.116.077-.173.039-.039.096-.058.154-.058h2.253a.31.31 0 0 1 .231.231v.674c0 .039.019.058.039.077s.039 0 .058-.019c.52-.751 1.31-1.117 2.35-1.117z"/><path id="O" d="M110.832 243.332c-.867 0-1.618-.116-2.253-.366s-1.136-.578-1.483-1.021c-.366-.443-.539-.924-.539-1.483v-.193c0-.058.019-.116.077-.173.039-.039.096-.058.154-.058h2.138a.31.31 0 0 1 .231.231v.019c0 .289.154.52.481.713.308.212.693.308 1.175.308.443 0 .79-.077 1.059-.27.27-.173.404-.385.404-.636 0-.231-.116-.404-.347-.52s-.616-.231-1.136-.366l-1.425-.443c-.828-.289-1.483-.636-1.964-1.04s-.732-1.001-.732-1.772a2.71 2.71 0 0 1 1.117-2.273c.732-.559 1.714-.828 2.927-.828.828 0 1.541.135 2.157.385.616.27 1.098.636 1.444 1.117a2.82 2.82 0 0 1 .501 1.618c0 .058-.019.116-.058.154-.058.058-.116.077-.173.077h-2.061c-.058 0-.116-.019-.154-.077-.058-.039-.077-.096-.077-.154 0-.289-.135-.52-.424-.713s-.674-.289-1.156-.289c-.424 0-.77.077-1.04.231s-.404.366-.404.636c0 .25.135.443.404.578.25.135.693.27 1.31.404l.481.116.578.173c.905.27 1.637.616 2.157 1.04s.79 1.04.79 1.849c0 .944-.366 1.695-1.117 2.215-.751.539-1.772.809-3.043.809z"/><path id="P" d="M500 269.371c0-8.484-8.268-15.371-18.451-15.371H259.451C249.268 254 241 260.887 241 269.371v27.258c0 8.484 8.268 15.371 18.451 15.371h222.098c10.183 0 18.451-6.887 18.451-15.371v-27.258z"/><path id="Q" d="M296.125 267.9c2.2 0 4.15.45 5.8 1.35s2.95 2.15 3.9 3.8c.9 1.65 1.35 3.55 1.35 5.7 0 2.1-.45 3.95-1.4 5.55s-2.3 2.85-4 3.7c-1.75.9-3.7 1.35-5.95 1.35h-7.1c-.15 0-.25.1-.25.25v12.75c0 .15-.05.3-.15.4a.61.61 0 0 1-.45.2h-5.85c-.15 0-.3-.05-.4-.2-.15-.1-.2-.25-.2-.4V268.5a.61.61 0 0 1 .2-.45c.1-.1.25-.15.4-.15h14.1zm-1.05 15.8c1.55 0 2.75-.45 3.7-1.35.95-.85 1.4-2 1.4-3.45s-.45-2.65-1.4-3.55-2.15-1.35-3.7-1.35h-6.35c-.15 0-.25.1-.25.25v9.2c0 .15.1.25.25.25h6.35z"/><path id="R" d="M323.875 276.9c1.2 0 2.15.25 2.85.7.25.15.35.4.3.75l-1.05 5.7c-.05.4-.25.5-.7.35-.5-.15-1.1-.25-1.75-.25-.25 0-.65.05-1.1.1a5.12 5.12 0 0 0-3.05 1.3c-.85.8-1.25 1.85-1.25 3.15v13.65c0 .15-.05.3-.15.4a.61.61 0 0 1-.45.2h-5.85c-.15 0-.3-.05-.4-.2-.15-.1-.2-.25-.2-.4v-24.5a.61.61 0 0 1 .2-.45c.1-.1.25-.15.4-.15h5.85c.15 0 .3.05.45.15.1.15.15.3.15.45v1.9c0 .1.05.15.1.2s.1 0 .15-.05c1.35-2 3.2-3 5.5-3z"/><path id="S" d="M340.925 303.35c-2.8 0-5.2-.75-7.2-2.2s-3.35-3.45-4.1-6c-.45-1.55-.7-3.25-.7-5.1 0-1.95.25-3.75.7-5.3.75-2.45 2.15-4.4 4.15-5.8s4.4-2.1 7.2-2.1c2.75 0 5.05.7 7 2.05 1.95 1.4 3.3 3.35 4.1 5.8.55 1.65.8 3.4.8 5.25 0 1.8-.25 3.5-.7 5.05-.75 2.6-2.1 4.65-4.05 6.1-2 1.5-4.4 2.25-7.2 2.25zm0-6.05c1.1 0 2.05-.35 2.8-1s1.3-1.6 1.65-2.75a15.29 15.29 0 0 0 .4-3.5c0-1.4-.15-2.6-.4-3.55-.35-1.15-.95-2-1.7-2.65s-1.7-.95-2.8-.95c-1.15 0-2.05.3-2.8.95s-1.3 1.5-1.65 2.65c-.25.8-.4 2-.4 3.55 0 1.5.1 2.65.35 3.5.35 1.15.9 2.1 1.7 2.75.75.65 1.7 1 2.85 1z"/><path id="T" d="M380.375 284.15c.6 1.7.9 3.7.9 6s-.3 4.4-.95 6.25c-.75 2.15-2 3.8-3.6 5.05-1.65 1.25-3.7 1.9-6.15 1.9-2.4 0-4.25-.85-5.6-2.5-.05-.1-.15-.15-.2-.1s-.1.1-.1.2v10.7c0 .15-.05.3-.15.45-.15.1-.3.15-.45.15h-5.85c-.15 0-.3-.05-.4-.15a.61.61 0 0 1-.2-.45v-33.8a.61.61 0 0 1 .2-.45c.1-.1.25-.15.4-.15h5.85c.15 0 .3.05.45.15.1.15.15.3.15.45v1.65c0 .1.05.15.1.15.05.05.15 0 .2-.05 1.4-1.85 3.35-2.75 5.8-2.75 2.3 0 4.3.65 6 1.9 1.65 1.3 2.85 3.1 3.6 5.4zm-7.65 11.2c.85-1.3 1.25-3.05 1.25-5.3 0-2.1-.35-3.75-1.05-5-.75-1.45-2-2.15-3.7-2.15-1.55 0-2.7.7-3.45 2.15-.7 1.2-1.05 2.9-1.05 5.05 0 2.25.35 3.95 1.1 5.2.75 1.35 1.9 2 3.4 2s2.65-.65 3.5-1.95z"/><path id="U" d="M389.625 274.35c-1.15 0-2.05-.4-2.8-1.15s-1.15-1.65-1.15-2.8.35-2.1 1.1-2.85 1.7-1.1 2.85-1.1 2.1.35 2.85 1.1 1.1 1.7 1.1 2.85-.35 2.05-1.1 2.8c-.8.75-1.7 1.15-2.85 1.15zm-3 28.6c-.15 0-.3-.05-.4-.2-.15-.1-.2-.25-.2-.4V277.8a.61.61 0 0 1 .2-.45c.1-.1.25-.15.4-.15h5.85c.15 0 .3.05.45.15.1.15.15.3.15.45v24.55c0 .15-.05.3-.15.4a.61.61 0 0 1-.45.2h-5.85z"/><path id="V" d="M421.325 287.45c.2 1.25.25 2.7.2 4.25-.05.4-.25.6-.65.6h-15.45c-.2 0-.25.1-.2.25.1.65.3 1.35.55 2 .85 1.85 2.65 2.8 5.3 2.8 2.15-.05 3.8-.9 5.05-2.6.15-.2.3-.3.45-.3.1 0 .2.05.35.2l3.6 3.55c.15.15.25.3.25.45 0 .05-.05.2-.2.4-1.1 1.35-2.5 2.45-4.25 3.15-1.75.75-3.65 1.15-5.7 1.15-2.85 0-5.3-.65-7.25-1.95-2-1.3-3.45-3.1-4.3-5.45-.7-1.65-1.05-3.85-1.05-6.55 0-1.85.25-3.45.75-4.85.75-2.35 2.1-4.25 4.05-5.65 1.9-1.4 4.15-2.1 6.8-2.1 3.35 0 6 .95 8.05 2.9 2 1.95 3.2 4.5 3.65 7.75zm-11.65-4.55c-2.1 0-3.5 1-4.15 2.95-.15.45-.25.95-.35 1.6 0 .15.1.25.25.25h8.65c.2 0 .25-.1.2-.25l-.25-1.4c-.3-1-.8-1.8-1.55-2.35s-1.7-.8-2.8-.8z"/><path id="W" d="M441.825 268.55a.61.61 0 0 1 .2-.45c.1-.1.25-.15.4-.15h5.85c.15 0 .3.05.45.15.1.15.15.3.15.45v33.8c0 .15-.05.3-.15.4a.61.61 0 0 1-.45.2h-5.85c-.15 0-.3-.05-.4-.2-.15-.1-.2-.25-.2-.4v-1.65c0-.1-.05-.15-.1-.2a.38.38 0 0 0-.2.1c-1.4 1.85-3.3 2.75-5.75 2.75-2.35 0-4.35-.65-6-1.95-1.7-1.3-2.9-3.1-3.65-5.35-.55-1.75-.85-3.75-.85-6.05 0-2.35.3-4.45.9-6.2.75-2.15 1.95-3.85 3.65-5.1 1.65-1.2 3.65-1.85 6.1-1.85 2.4 0 4.25.85 5.6 2.5.05.1.15.15.2.1s.1-.1.1-.2v-10.7zm-1.05 26.6c.65-1.25 1-2.9 1-5.05 0-2.25-.35-4-1.1-5.25-.75-1.3-1.9-1.95-3.35-1.95-1.55 0-2.75.65-3.55 1.95-.85 1.3-1.25 3.05-1.25 5.3 0 2 .35 3.65 1.05 5 .85 1.45 2.05 2.15 3.7 2.15 1.5 0 2.65-.7 3.5-2.15z"/><path id="X" d="M464.425 276.85c2.15 0 4.1.35 5.8 1.1s3.05 1.8 4 3.1c.9 1.3 1.4 2.75 1.4 4.35v16.95c0 .15-.05.3-.15.4a.61.61 0 0 1-.45.2h-5.85c-.15 0-.3-.05-.4-.2-.15-.1-.2-.25-.2-.4v-1.65c0-.1-.05-.15-.1-.2s-.15 0-.2.1c-1.4 1.85-3.65 2.75-6.75 2.75-2.6 0-4.7-.65-6.3-1.9s-2.4-3.15-2.4-5.6c0-2.55.9-4.55 2.7-6 1.8-1.4 4.35-2.1 7.7-2.1h5.1c.15 0 .25-.1.25-.25v-1.1c0-1.1-.35-1.95-1-2.6-.65-.6-1.65-.9-3-.9-1.05 0-1.9.2-2.55.55-.7.35-1.15.9-1.35 1.55-.1.35-.3.55-.65.5l-6.05-.8c-.4-.05-.6-.2-.55-.45.15-1.4.7-2.65 1.7-3.8.95-1.15 2.25-2 3.9-2.65 1.6-.65 3.4-.95 5.4-.95zm-1 21.25c1.45 0 2.65-.4 3.65-1.15s1.5-1.75 1.5-2.95v-1.8c0-.15-.1-.25-.25-.25h-3.6c-1.5 0-2.65.3-3.5.85-.9.55-1.3 1.35-1.3 2.4 0 .9.3 1.6.95 2.1.65.55 1.5.8 2.55.8z"/><path id="Y" d="M335 272.05c.15-.25.4-.4.7-.4h5.85c.15 0 .3.05.45.15.1.15.15.3.15.45v33.8c0 .15-.05.3-.15.4a.61.61 0 0 1-.45.2h-5.85c-.15 0-.3-.05-.4-.2-.15-.1-.2-.25-.2-.4V284c0-.15-.05-.2-.1-.2s-.15.05-.2.15l-5.3 8.3c-.15.25-.4.4-.7.4h-2.95c-.3 0-.55-.15-.7-.4l-5.3-8.3c-.05-.1-.15-.15-.2-.15-.05.05-.1.1-.1.25v22c0 .15-.05.3-.15.4a.61.61 0 0 1-.45.2h-5.85c-.15 0-.3-.05-.4-.2-.15-.1-.2-.25-.2-.4v-33.8a.61.61 0 0 1 .2-.45c.1-.1.25-.15.4-.15h5.85c.3 0 .55.15.7.4l7.5 11.65c.1.2.2.2.3 0l7.55-11.65z"/><path id="Z" d="M370.55 291.15c.2 1.25.25 2.7.2 4.25-.05.4-.25.6-.65.6h-15.45c-.2 0-.25.1-.2.25.1.65.3 1.35.55 2 .85 1.85 2.65 2.8 5.3 2.8 2.15-.05 3.8-.9 5.05-2.6.15-.2.3-.3.45-.3.1 0 .2.05.35.2l3.6 3.55c.15.15.25.3.25.45 0 .05-.05.2-.2.4-1.1 1.35-2.5 2.45-4.25 3.15-1.75.75-3.65 1.15-5.7 1.15-2.85 0-5.3-.65-7.25-1.95-2-1.3-3.45-3.1-4.3-5.45-.7-1.65-1.05-3.85-1.05-6.55 0-1.85.25-3.45.75-4.85.75-2.35 2.1-4.25 4.05-5.65 1.9-1.4 4.15-2.1 6.8-2.1 3.35 0 6 .95 8.05 2.9 2 1.95 3.2 4.5 3.65 7.75zm-11.65-4.55c-2.1 0-3.5 1-4.15 2.95-.15.45-.25.95-.35 1.6 0 .15.1.25.25.25h8.65c.2 0 .25-.1.2-.25l-.25-1.4c-.3-1-.8-1.8-1.55-2.35s-1.7-.8-2.8-.8zm-2.9-8.75c-.25 0-.4-.05-.45-.2s-.05-.3.05-.5l2.65-5.05c.15-.3.4-.45.75-.45h5.05c.25 0 .4.05.5.2.05.15.05.35-.1.55l-3.55 5.05c-.15.25-.4.4-.7.4H356z"/><path id="a" d="M389.15 286c0 .15-.05.3-.15.4a.61.61 0 0 1-.45.2h-4.8c-.15 0-.25.1-.25.25v10.6c0 1.1.25 1.9.7 2.45s1.15.8 2.15.8H388c.15 0 .3.05.45.15.1.15.15.3.15.45v4.75c0 .35-.2.6-.6.65l-3 .1c-2.75 0-4.85-.45-6.2-1.4-1.35-.9-2.05-2.6-2.1-5.15v-13.4c0-.15-.1-.25-.25-.25h-2.85c-.15 0-.3-.05-.4-.2-.15-.1-.2-.25-.2-.4v-4.45a.61.61 0 0 1 .2-.45c.1-.1.25-.15.4-.15h2.85c.15 0 .25-.1.25-.25v-5.95a.61.61 0 0 1 .2-.45c.1-.1.25-.15.4-.15h5.6c.15 0 .3.05.45.15.1.15.15.3.15.45v5.95c0 .15.1.25.25.25h4.8c.15 0 .3.05.45.15.1.15.15.3.15.45V286z"/></defs></svg>