<svg xmlns="http://www.w3.org/2000/svg" xmlns:xlink="http://www.w3.org/1999/xlink" width="600" height="120" fill-rule="evenodd" stroke-linejoin="round" stroke-miterlimit="2" xmlns:v="https://vecta.io/nano"><g fill-rule="nonzero"><use xlink:href="#B"/><use xlink:href="#C"/><use xlink:href="#D"/><path d="M154.381.002v2.3h-5.008v19.122h5.008v2.324h-7.5V.002h7.5z"/><use xlink:href="#E"/><path d="M173.26 2.302v-2.3h7.524v23.746h-7.524v-2.324h5.032V2.302h-5.032z"/><use xlink:href="#B" x="-105.589" y="46.726"/><use xlink:href="#F"/><use xlink:href="#G"/><path d="M48.791 46.728v2.3h-5.008V68.15h5.008v2.324h-7.5V46.728h7.5z"/><use xlink:href="#H"/><path d="M67.671 49.028v-2.3h7.524v23.746h-7.524V68.15h5.032V49.028h-5.032zm35.51 8.099H90.553v-2.3h12.628v2.3zm0 5.248H90.553V60.05h12.628v2.324zm20.94 4.936h-2.252l-4.864-13.467h2.564l3.427 9.753 3.427-9.753h2.588l-4.888 13.467z"/><use xlink:href="#I"/><use xlink:href="#J"/><use xlink:href="#K"/><use xlink:href="#L"/><path d="M87.914 116.04c-1.006 0-1.797-.168-2.348-.455-.575-.312-.958-.815-1.198-1.534s-.359-1.725-.359-2.995v-10.447h-2.756v-2.3H86.5v12.748c0 1.006.12 1.701.312 2.085s.575.575 1.102.575c.264 0 .551-.072.839-.264.312-.168.719-.479 1.27-.935l1.39 2.133c-.647.527-1.222.887-1.725 1.078-.479.216-1.078.312-1.773.312z"/><use xlink:href="#L" x="-76.544" y="48.418"/><use xlink:href="#M"/><use xlink:href="#N"/><use xlink:href="#B" x="26.99" y="95.144"/><use xlink:href="#O"/><use xlink:href="#G" x="132.579" y="48.418"/><use xlink:href="#P"/><use xlink:href="#B" x="171.729"/><use xlink:href="#C" x="171.729"/><use xlink:href="#D" x="171.729"/><use xlink:href="#Q"/><g fill="#ff3600"><path d="M328.383 22.238h26.263v2.3h-26.263zm32.696 2.612c-1.03 0-1.821-.144-2.42-.407-.623-.288-1.222-.767-1.797-1.486l1.821-1.558c.407.479.743.791 1.03.935s.743.216 1.366.216c.743 0 1.294-.096 1.701-.288.383-.168.671-.479.815-.935.168-.431.24-1.078.24-1.941v-.048c-.911.359-1.869.527-2.899.527-1.366 0-2.42-.24-3.211-.719-.791-.503-1.342-1.27-1.701-2.324-.335-1.078-.503-2.492-.503-4.289 0-1.366.192-2.468.527-3.307.359-.815.935-1.438 1.725-1.821.767-.383 1.821-.599 3.163-.599 1.054 0 2.037.168 2.899.455v-.144h2.516v12.077c0 1.39-.168 2.492-.503 3.307-.359.815-.911 1.414-1.677 1.797-.743.359-1.797.551-3.091.551zm-.144-7.284c1.03 0 1.773-.264 2.228-.743.455-.503.671-1.27.671-2.324v-4.098c0-.407-.216-.719-.695-.935s-1.222-.335-2.205-.335c-.791 0-1.366.096-1.773.312-.407.192-.695.527-.863 1.03-.168.479-.24 1.174-.24 2.061 0 1.318.072 2.348.24 3.067.192.719.479 1.222.887 1.51s.982.455 1.749.455z"/><use xlink:href="#L" x="198.897" y="-46.726"/><use xlink:href="#R"/><path d="M402.158 7.118v11.166h3.81v2.3h-10.136v-2.3h3.834V9.443h-2.756V7.118h5.248zm-1.653-1.965c-.719 0-1.222-.12-1.486-.383-.264-.24-.407-.719-.407-1.39 0-.695.144-1.15.407-1.414.264-.24.767-.383 1.486-.383s1.222.144 1.51.383c.264.264.407.719.407 1.414 0 .671-.144 1.15-.407 1.39-.288.264-.791.383-1.51.383z"/><use xlink:href="#R" x="26.141"/><use xlink:href="#L" x="251.178" y="-46.726"/><path d="M433.534 20.585V7.118h2.492v-.072c.671-.144 1.174-.216 1.582-.216.551 0 .982.096 1.294.24s.623.431.911.863c.359-.431.743-.719 1.102-.863.335-.144.839-.24 1.438-.24.839 0 1.462.168 1.917.527.479.335.791.911.982 1.701.216.791.312 1.917.312 3.331v8.195h-2.516V12.39c0-1.15-.048-1.965-.168-2.396s-.335-.647-.647-.647c-.383 0-.647.072-.863.24-.192.168-.335.455-.431.863s-.144.982-.144 1.701v8.435h-2.492v-8.051c0-1.222-.072-2.037-.192-2.492-.12-.479-.335-.695-.647-.695-.359 0-.671.072-.863.24s-.359.455-.431.863c-.096.407-.144.982-.144 1.701v8.435h-2.492zm12.482 1.653h26.263v2.3h-26.263z"/></g><use xlink:href="#N" x="353.863" y="-95.144"/><use xlink:href="#E" x="328.572"/><use xlink:href="#P" x="327.723" y="-95.144"/><use xlink:href="#B" x="171.729" y="46.726"/><use xlink:href="#F" x="277.318"/><use xlink:href="#G" x="277.318"/><use xlink:href="#Q" y="46.726"/><g fill="#119d67"><path d="M328.383 68.964h26.263v2.3h-26.263zm32.193-1.342c-1.198 0-2.157-.216-2.875-.671-.695-.431-1.318-1.198-1.893-2.3l1.989-1.629c.288.671.527 1.15.743 1.462a1.95 1.95 0 0 0 .767.647c.312.12.743.168 1.27.168 1.006 0 1.749-.048 2.276-.168.503-.12.839-.312 1.03-.575s.288-.647.288-1.174c0-.503-.072-.863-.24-1.102-.144-.24-.407-.407-.815-.527-.383-.12-1.054-.24-1.965-.335-1.773-.216-3.043-.623-3.81-1.174-.791-.551-1.198-1.438-1.198-2.636 0-.982.192-1.773.551-2.348.359-.599.958-1.03 1.749-1.294.791-.288 1.869-.431 3.211-.431 1.294 0 2.276.192 2.995.575s1.366 1.054 1.941 2.013l-1.821 1.773c-.335-.599-.599-1.03-.839-1.294a1.77 1.77 0 0 0-.839-.575c-.335-.12-.815-.168-1.438-.168-.815 0-1.438.048-1.869.144s-.719.288-.887.527-.24.599-.24 1.078c0 .335.096.599.264.767.168.192.431.312.791.407l1.605.264c1.366.216 2.444.455 3.211.767.767.288 1.318.719 1.653 1.27.335.575.503 1.342.503 2.3 0 1.03-.192 1.845-.599 2.468-.383.599-1.03 1.054-1.917 1.342-.911.288-2.109.431-3.594.431z"/><use xlink:href="#L" x="198.897"/><use xlink:href="#S"/><path d="M402.158 53.844v11.166h3.81v2.3h-10.136v-2.3h3.834v-8.842h-2.756v-2.324h5.248zm-1.653-1.965c-.719 0-1.222-.12-1.486-.383-.264-.24-.407-.719-.407-1.39 0-.695.144-1.15.407-1.414.264-.24.767-.383 1.486-.383s1.222.144 1.51.383c.264.264.407.719.407 1.414 0 .671-.144 1.15-.407 1.39-.288.264-.791.383-1.51.383z"/><use xlink:href="#S" x="26.141"/><use xlink:href="#L" x="251.178"/><path d="M433.534 67.311V53.844h2.492v-.072c.671-.144 1.174-.216 1.582-.216.551 0 .982.096 1.294.24s.623.431.911.863c.359-.431.743-.719 1.102-.863.335-.144.839-.24 1.438-.24.839 0 1.462.168 1.917.527.479.335.791.911.982 1.701.216.791.312 1.917.312 3.331v8.195h-2.516v-8.195c0-1.15-.048-1.965-.168-2.396s-.335-.647-.647-.647c-.383 0-.647.072-.863.24-.192.168-.335.455-.431.863s-.144.982-.144 1.701v8.435h-2.492V59.26c0-1.222-.072-2.037-.192-2.492-.12-.479-.335-.695-.647-.695-.359 0-.671.072-.863.24s-.359.455-.431.863c-.096.407-.144.982-.144 1.701v8.435h-2.492zm12.482 1.653h26.263v2.3h-26.263z"/></g><use xlink:href="#N" x="353.863" y="-48.418"/><use xlink:href="#H" x="434.161"/><path d="M502.384 71.576c.743-1.006 1.246-1.797 1.534-2.372s.431-1.078.431-1.558c-.551 0-.935-.144-1.126-.407-.216-.264-.312-.743-.312-1.462 0-.695.144-1.174.431-1.438s.791-.407 1.558-.407c.743 0 1.27.144 1.558.407s.407.743.407 1.438c0 1.078-.168 2.037-.551 2.875-.359.839-1.03 1.821-2.013 2.923h-1.917zm29.758-4.265h-2.252l-4.864-13.467h2.564l3.427 9.753 3.427-9.753h2.588l-4.888 13.467z"/><use xlink:href="#I" x="408.02"/><use xlink:href="#J" x="408.021"/><use xlink:href="#K" x="408.021"/><use xlink:href="#L" x="408.022"/><path d="M592.628 68.15c.958 0 1.821-.383 2.54-1.174.743-.791 1.318-1.917 1.725-3.355s.599-3.115.599-5.032c0-1.893-.192-3.57-.599-5.008s-.982-2.564-1.725-3.355c-.719-.791-1.582-1.198-2.54-1.198v-2.3a5.64 5.64 0 0 1 3.858 1.486c1.126.982 1.989 2.372 2.588 4.169.623 1.797.935 3.858.935 6.206 0 2.372-.312 4.433-.935 6.23-.599 1.797-1.462 3.187-2.588 4.169a5.64 5.64 0 0 1-3.858 1.486V68.15z"/><use xlink:href="#B" x="171.729" y="95.144"/><use xlink:href="#O" x="144.739"/><use xlink:href="#G" x="277.318" y="48.418"/><use xlink:href="#Q" y="95.144"/><g fill="#0060d9"><path d="M328.383 117.382h26.263v2.3h-26.263zm34.972-1.342c-1.006 0-1.797-.168-2.348-.455-.575-.312-.958-.815-1.198-1.534s-.359-1.725-.359-2.995v-10.447h-2.756v-2.3h5.248v12.748c0 1.006.12 1.701.312 2.085s.575.575 1.102.575c.264 0 .551-.072.839-.264.312-.168.719-.479 1.27-.935l1.39 2.133c-.647.527-1.222.887-1.725 1.078-.479.216-1.078.312-1.773.312z"/><use xlink:href="#L" x="198.897" y="48.418"/><use xlink:href="#M" x="275.441"/><path d="M393.735 117.382h26.263v2.3h-26.263z"/></g><use xlink:href="#N" x="301.582"/><use xlink:href="#P" x="262.371"/></g><path d="M208.685 17.326v7.528l-11.582-11.582L208.685 1.69v7.528h40.736V1.691l11.582 11.582-11.582 11.582v-7.528h-40.736zm0 46.726v7.528l-11.582-11.582 11.582-11.582v7.528h40.736v-7.528l11.582 11.582L249.42 71.58v-7.528h-40.736zm0 48.418v7.528l-11.582-11.582 11.582-11.582v7.528h40.736v-7.528l11.582 11.582-11.582 11.582v-7.528h-40.736z" fill="#737373"/><defs ><path id="B" d="M110.976 20.896c-1.366 0-2.42-.24-3.187-.719-.791-.479-1.342-1.222-1.677-2.252-.359-1.006-.527-2.372-.527-4.074s.168-3.043.527-4.074c.335-1.006.887-1.773 1.677-2.252.767-.479 1.821-.719 3.187-.719 1.342 0 2.42.24 3.187.719.791.479 1.366 1.246 1.701 2.252.335 1.03.503 2.372.503 4.074s-.168 3.067-.503 4.074c-.335 1.03-.911 1.773-1.701 2.252-.767.479-1.845.719-3.187.719zm0-2.324c.743 0 1.342-.144 1.749-.407.407-.288.695-.767.887-1.438.168-.695.264-1.629.264-2.875 0-1.222-.096-2.181-.264-2.851-.192-.695-.479-1.174-.887-1.438-.407-.288-1.006-.431-1.749-.431-.767 0-1.342.144-1.749.431-.407.264-.695.743-.863 1.438-.192.671-.264 1.629-.264 2.851 0 1.246.072 2.181.264 2.875.168.671.455 1.15.863 1.438.407.264.982.407 1.749.407z"/><path id="C" d="M124.31 20.896c-1.294 0-2.324-.168-3.091-.527-.767-.335-1.51-.935-2.157-1.797V3.165h2.492v4.121c.839-.312 1.749-.479 2.756-.479 1.294 0 2.324.24 3.091.719s1.318 1.246 1.653 2.252c.335 1.03.503 2.372.503 4.098 0 1.701-.168 3.067-.503 4.074s-.887 1.749-1.653 2.228-1.797.719-3.091.719zm0-2.324c.695 0 1.246-.144 1.653-.407.383-.288.671-.767.839-1.438s.24-1.605.24-2.851-.072-2.181-.24-2.875c-.168-.671-.455-1.15-.839-1.438-.407-.288-.958-.431-1.653-.431-.767 0-1.342.072-1.725.24s-.647.479-.791.911c-.168.431-.24 1.078-.24 1.941v5.559c.359.312.719.527 1.102.647.359.096.911.144 1.653.144z"/><path id="D" d="M135.751 24.85c-1.006 0-1.821-.144-2.42-.407-.599-.288-1.198-.767-1.797-1.486l1.821-1.558c.407.479.767.791 1.054.935.264.144.719.216 1.342.216.767 0 1.342-.096 1.725-.312.383-.192.647-.551.815-1.054.144-.527.24-1.27.24-2.276V9.443h-2.756V7.118h5.248v11.789c0 1.486-.168 2.66-.503 3.498-.335.863-.887 1.486-1.653 1.869-.743.383-1.773.575-3.115.575zm3.498-19.697c-.719 0-1.222-.12-1.486-.383-.288-.24-.407-.719-.407-1.39 0-.695.12-1.15.407-1.414.264-.24.767-.383 1.486-.383s1.222.144 1.51.383c.264.264.407.719.407 1.414 0 .671-.144 1.15-.407 1.39-.288.264-.791.383-1.51.383z"/><path id="E" d="M163.257 20.896c-1.078 0-2.061-.407-2.947-1.174-.887-.791-1.582-1.869-2.085-3.259-.503-1.366-.743-2.899-.743-4.601 0-1.677.24-3.211.743-4.577.503-1.39 1.198-2.468 2.085-3.259s1.869-1.174 2.947-1.174 2.037.383 2.923 1.174 1.605 1.869 2.109 3.259c.503 1.366.767 2.899.767 4.577 0 1.701-.264 3.235-.767 4.601-.503 1.39-1.222 2.468-2.109 3.259-.887.767-1.845 1.174-2.923 1.174zm0-2.324c.551 0 1.078-.288 1.582-.887s.911-1.414 1.222-2.444.455-2.157.455-3.379-.144-2.348-.455-3.379-.719-1.845-1.222-2.42c-.503-.599-1.03-.911-1.582-.911s-1.078.312-1.605.911c-.503.575-.911 1.39-1.222 2.42a12.52 12.52 0 0 0-.455 3.379 12.52 12.52 0 0 0 .455 3.379c.312 1.03.719 1.845 1.222 2.444.527.599 1.054.887 1.605.887zm0-5.032c-.527 0-.958-.144-1.294-.455s-.503-.719-.503-1.222a1.52 1.52 0 0 1 .503-1.174c.335-.288.767-.455 1.294-.455s.958.168 1.294.455a1.52 1.52 0 0 1 .503 1.174c0 .503-.168.911-.503 1.222s-.767.455-1.294.455z"/><path id="F" d="M18.721 67.622c-1.294 0-2.324-.168-3.091-.527-.767-.335-1.51-.935-2.157-1.797V49.891h2.492v4.121c.839-.312 1.749-.479 2.756-.479 1.294 0 2.324.24 3.091.719s1.318 1.246 1.653 2.252c.335 1.03.503 2.372.503 4.098 0 1.701-.168 3.067-.503 4.074s-.887 1.749-1.653 2.228-1.797.719-3.091.719zm0-2.324c.695 0 1.246-.144 1.653-.407.383-.288.671-.767.839-1.438s.24-1.605.24-2.851-.072-2.181-.24-2.875c-.168-.671-.455-1.15-.839-1.438-.407-.288-.958-.431-1.653-.431-.767 0-1.342.072-1.725.24s-.647.479-.791.911c-.168.431-.24 1.078-.24 1.941v5.559c.359.312.719.527 1.102.647.359.096.911.144 1.653.144z"/><path id="G" d="M30.162 71.576c-1.006 0-1.821-.144-2.42-.407-.599-.288-1.198-.767-1.797-1.486l1.821-1.558c.407.479.767.791 1.054.935.264.144.719.216 1.342.216.767 0 1.342-.096 1.725-.312.383-.192.647-.551.815-1.054.144-.527.24-1.27.24-2.276v-9.465h-2.756v-2.324h5.248v11.789c0 1.486-.168 2.66-.503 3.498-.335.863-.887 1.486-1.653 1.869-.743.383-1.773.575-3.115.575zm3.498-19.697c-.719 0-1.222-.12-1.486-.383-.288-.24-.407-.719-.407-1.39 0-.695.12-1.15.407-1.414.264-.24.767-.383 1.486-.383s1.222.144 1.51.383c.264.264.407.719.407 1.414 0 .671-.144 1.15-.407 1.39-.288.264-.791.383-1.51.383z"/><path id="H" d="M58.914 65.011h3.115v2.3h-8.698v-2.3h3.091v-10.28c-.982.575-2.157.863-3.522.863v-2.324c1.174 0 2.037-.288 2.612-.815.575-.551.863-1.414.863-2.564h2.54v15.12z"/><path id="I" d="M135.515 67.622c-1.27 0-2.3-.144-3.067-.431-.743-.312-1.294-.767-1.653-1.366-.335-.623-.503-1.438-.503-2.468 0-1.174.168-2.061.503-2.708.335-.623.863-1.078 1.629-1.318.743-.264 1.773-.383 3.091-.383h2.756v-.479c0-.623-.096-1.078-.24-1.414s-.431-.575-.815-.719c-.383-.12-.958-.192-1.701-.192-.599 0-1.078.048-1.39.168-.312.144-.575.359-.743.671s-.335.815-.503 1.462l-2.396-.599c.264-1.03.599-1.845.982-2.468s.911-1.078 1.558-1.39c.671-.288 1.486-.455 2.492-.455 1.893 0 3.235.407 4.05 1.222.791.815 1.198 2.037 1.198 3.714v5.104c0 .575.072.982.168 1.174.12.192.383.288.743.288.12 0 .383-.024.791-.048v2.3c-.168.024-.407.024-.719.024-1.27 0-2.133-.288-2.612-.863-.383.407-.887.719-1.462.887-.575.192-1.294.288-2.157.288zm0-2.324c.743 0 1.318-.072 1.701-.264.383-.168.671-.455.815-.887.144-.407.24-1.03.24-1.821v-1.078h-2.756c-.815 0-1.414.048-1.773.12-.335.096-.575.264-.719.551-.168.288-.24.767-.24 1.438 0 .527.072.935.24 1.198.144.264.407.455.791.575s.958.168 1.701.168z"/><path id="J" d="M151.388 67.622c-1.006 0-1.797-.168-2.348-.455-.575-.312-.958-.815-1.198-1.534s-.359-1.725-.359-2.995V52.191h-2.756v-2.3h5.248v12.748c0 1.006.12 1.701.312 2.085s.575.575 1.102.575c.264 0 .551-.072.839-.264.312-.168.719-.479 1.27-.935l1.39 2.133c-.647.527-1.222.887-1.725 1.078-.479.216-1.078.312-1.773.312z"/><path id="K" d="M161.847 67.622c-1.174 0-2.109-.192-2.78-.551-.695-.335-1.174-.911-1.486-1.725-.312-.791-.455-1.893-.455-3.259v-8.243h2.516v8.243c0 .887.048 1.581.168 2.013.12.455.359.767.671.935.312.192.767.264 1.366.264.911 0 1.582-.072 2.013-.216.455-.144.767-.407.935-.767s.264-.911.264-1.653v-8.818h2.516v13.467h-2.516v-.216c-.767.335-1.821.527-3.211.527z"/><path id="L" d="M175.348 53.533c1.414 0 2.516.264 3.307.791.791.503 1.366 1.318 1.677 2.444.335 1.102.479 2.588.455 4.481h-8.65c.048 1.054.168 1.869.383 2.444s.527 1.006.982 1.246 1.078.359 1.845.359c.575 0 1.03-.048 1.39-.144.359-.12.695-.312.982-.599.312-.288.647-.719 1.054-1.27l2.013 1.318c-.719 1.126-1.486 1.917-2.3 2.348-.791.431-1.845.671-3.139.671-1.438 0-2.564-.24-3.403-.719s-1.438-1.222-1.797-2.252c-.359-1.006-.551-2.372-.551-4.074s.192-3.043.551-4.074c.359-1.006.958-1.773 1.797-2.252s1.965-.719 3.403-.719zm2.875 5.415c-.096-.791-.24-1.414-.431-1.845-.192-.455-.479-.767-.887-.958-.383-.192-.887-.288-1.558-.288-.719 0-1.294.096-1.725.288s-.767.503-1.006.958c-.216.431-.359 1.054-.431 1.845h6.038z"/><path id="M" d="M106.722 115.729v-13.467h2.516v.335c.911-.431 1.965-.647 3.187-.647 1.246 0 2.205.192 2.875.527s1.15.911 1.438 1.725c.288.791.431 1.941.431 3.403v8.123h-2.516v-8.123c0-.863-.072-1.534-.216-2.013-.12-.479-.359-.815-.671-1.006-.312-.216-.767-.312-1.342-.312-.935 0-1.629.072-2.085.24-.431.168-.743.479-.887.887-.144.431-.216 1.078-.216 1.965v8.363h-2.516z"/><path id="N" d="M128.658 118.892c-1.462 0-2.732-.503-3.858-1.486s-1.989-2.372-2.588-4.169c-.623-1.797-.911-3.858-.911-6.23 0-2.348.288-4.409.911-6.206.599-1.797 1.462-3.187 2.588-4.169s2.396-1.486 3.858-1.486v2.3c-.958 0-1.797.407-2.54 1.198s-1.294 1.917-1.701 3.355-.623 3.115-.623 5.008c0 1.917.216 3.594.623 5.032s.958 2.564 1.701 3.355 1.582 1.174 2.54 1.174v2.324z"/><path id="O" d="M151.3 116.04c-1.294 0-2.324-.168-3.091-.527-.767-.335-1.51-.935-2.157-1.797V98.308h2.492v4.121c.839-.312 1.749-.479 2.756-.479 1.294 0 2.324.24 3.091.719s1.318 1.246 1.653 2.252c.335 1.03.503 2.372.503 4.098 0 1.701-.168 3.067-.503 4.074s-.887 1.749-1.653 2.228-1.797.719-3.091.719zm0-2.324c.695 0 1.246-.144 1.653-.407.383-.288.671-.767.839-1.438s.24-1.605.24-2.851-.072-2.181-.24-2.875c-.168-.671-.455-1.15-.839-1.438-.407-.288-.958-.431-1.653-.431-.767 0-1.342.072-1.725.24s-.647.479-.791.911c-.168.431-.24 1.078-.24 1.941v5.559c.359.312.719.527 1.102.647.359.096.911.144 1.653.144z"/><path id="P" d="M173.415 116.568c.958 0 1.821-.383 2.54-1.174.743-.791 1.318-1.917 1.725-3.355s.599-3.115.599-5.032c0-1.893-.192-3.57-.599-5.008s-.982-2.564-1.725-3.355c-.719-.791-1.582-1.198-2.54-1.198v-2.3a5.64 5.64 0 0 1 3.858 1.486c1.126.982 1.989 2.372 2.588 4.169.623 1.797.935 3.858.935 6.206 0 2.372-.312 4.433-.935 6.23-.599 1.797-1.462 3.187-2.588 4.169a5.64 5.64 0 0 1-3.858 1.486v-2.324z"/><path id="Q" d="M321.916 20.896c-.767 0-1.27-.144-1.558-.407s-.431-.743-.431-1.438.144-1.174.431-1.438.791-.407 1.558-.407c.743 0 1.27.144 1.558.407s.407.743.407 1.438-.12 1.174-.407 1.438-.815.407-1.558.407z"/><path id="R" d="M388.681 20.896c-1.054 0-1.917-.192-2.564-.551-.623-.359-1.102-.935-1.39-1.725-.312-.791-.455-1.845-.455-3.139V9.179h-2.708V6.855h2.708v-3.69h2.516v3.69h4.505v2.324h-4.505v6.302c0 .815.048 1.438.168 1.893.12.431.312.743.575.935s.647.264 1.15.264c.527 0 .911-.024 1.15-.096s.431-.216.527-.407c.12-.168.24-.503.383-.958l2.348.791c-.216.767-.503 1.342-.839 1.773a3.04 3.04 0 0 1-1.366.935c-.551.192-1.294.288-2.205.288z"/><path id="S" d="M388.681 67.622c-1.054 0-1.917-.192-2.564-.551-.623-.359-1.102-.935-1.39-1.725-.312-.791-.455-1.845-.455-3.139v-6.302h-2.708v-2.324h2.708v-3.69h2.516v3.69h4.505v2.324h-4.505v6.302c0 .815.048 1.438.168 1.893.12.431.312.743.575.935s.647.264 1.15.264c.527 0 .911-.024 1.15-.096s.431-.216.527-.407c.12-.168.24-.503.383-.958l2.348.791c-.216.767-.503 1.342-.839 1.773a3.04 3.04 0 0 1-1.366.935c-.551.192-1.294.288-2.205.288z"/></defs></svg>