<?xml version="1.0" encoding="UTF-8" standalone="no"?>
<!DOCTYPE svg PUBLIC "-//W3C//DTD SVG 1.1//EN" "http://www.w3.org/Graphics/SVG/1.1/DTD/svg11.dtd">
<svg width="600px" height="120px" version="1.1" xmlns="http://www.w3.org/2000/svg" xmlns:xlink="http://www.w3.org/1999/xlink" xml:space="preserve" xmlns:serif="http://www.serif.com/" style="fill-rule:evenodd;clip-rule:evenodd;stroke-linejoin:round;stroke-miterlimit:2;">
    <g transform="matrix(1,0,0,1,-54.3137,-43.7636)">
        <g transform="matrix(0.839063,0,0,0.359259,0,0)">
            <g transform="matrix(0.47597,0,0,1.11164,61.6376,-208.847)">
                <g transform="matrix(60,0,0,60,268,349)">
                    <path d="M0.273,0.013C0.216,0.013 0.172,0.003 0.14,-0.017C0.107,-0.037 0.084,-0.068 0.07,-0.111C0.055,-0.153 0.048,-0.21 0.048,-0.281C0.048,-0.352 0.055,-0.408 0.07,-0.451C0.084,-0.493 0.107,-0.525 0.14,-0.545C0.172,-0.565 0.216,-0.575 0.273,-0.575C0.329,-0.575 0.374,-0.565 0.406,-0.545C0.439,-0.525 0.463,-0.493 0.477,-0.451C0.491,-0.408 0.498,-0.352 0.498,-0.281C0.498,-0.21 0.491,-0.153 0.477,-0.111C0.463,-0.068 0.439,-0.037 0.406,-0.017C0.374,0.003 0.329,0.013 0.273,0.013ZM0.273,-0.084C0.304,-0.084 0.329,-0.09 0.346,-0.101C0.363,-0.113 0.375,-0.133 0.383,-0.161C0.39,-0.19 0.394,-0.229 0.394,-0.281C0.394,-0.332 0.39,-0.372 0.383,-0.4C0.375,-0.429 0.363,-0.449 0.346,-0.46C0.329,-0.472 0.304,-0.478 0.273,-0.478C0.241,-0.478 0.217,-0.472 0.2,-0.46C0.183,-0.449 0.171,-0.429 0.164,-0.4C0.156,-0.372 0.153,-0.332 0.153,-0.281C0.153,-0.229 0.156,-0.19 0.164,-0.161C0.171,-0.133 0.183,-0.113 0.2,-0.101C0.217,-0.09 0.241,-0.084 0.273,-0.084Z" style="fill-rule:nonzero;"/>
                </g>
                <g transform="matrix(60,0,0,60,300.727,349)">
                    <path d="M0.284,0.013C0.23,0.013 0.187,0.006 0.155,-0.009C0.123,-0.023 0.092,-0.048 0.065,-0.084L0.065,-0.727L0.169,-0.727L0.169,-0.555C0.204,-0.568 0.242,-0.575 0.284,-0.575C0.338,-0.575 0.381,-0.565 0.413,-0.545C0.445,-0.525 0.468,-0.493 0.482,-0.451C0.496,-0.408 0.503,-0.352 0.503,-0.28C0.503,-0.209 0.496,-0.152 0.482,-0.11C0.468,-0.068 0.445,-0.037 0.413,-0.017C0.381,0.003 0.338,0.013 0.284,0.013ZM0.284,-0.084C0.313,-0.084 0.336,-0.09 0.353,-0.101C0.369,-0.113 0.381,-0.133 0.388,-0.161C0.395,-0.189 0.398,-0.228 0.398,-0.28C0.398,-0.332 0.395,-0.371 0.388,-0.4C0.381,-0.428 0.369,-0.448 0.353,-0.46C0.336,-0.472 0.313,-0.478 0.284,-0.478C0.252,-0.478 0.228,-0.475 0.212,-0.468C0.196,-0.461 0.185,-0.448 0.179,-0.43C0.172,-0.412 0.169,-0.385 0.169,-0.349L0.169,-0.117C0.184,-0.104 0.199,-0.095 0.215,-0.09C0.23,-0.086 0.253,-0.084 0.284,-0.084Z" style="fill-rule:nonzero;"/>
                </g>
                <g transform="matrix(60,0,0,60,333.455,349)">
                    <path d="M0.216,0.178C0.174,0.178 0.14,0.172 0.115,0.161C0.09,0.149 0.065,0.129 0.04,0.099L0.116,0.034C0.133,0.054 0.148,0.067 0.16,0.073C0.171,0.079 0.19,0.082 0.216,0.082C0.248,0.082 0.272,0.078 0.288,0.069C0.304,0.061 0.315,0.046 0.322,0.025C0.328,0.003 0.332,-0.028 0.332,-0.07L0.332,-0.465L0.217,-0.465L0.217,-0.562L0.436,-0.562L0.436,-0.07C0.436,-0.008 0.429,0.041 0.415,0.076C0.401,0.112 0.378,0.138 0.346,0.154C0.315,0.17 0.272,0.178 0.216,0.178ZM0.362,-0.644C0.332,-0.644 0.311,-0.649 0.3,-0.66C0.288,-0.67 0.283,-0.69 0.283,-0.718C0.283,-0.747 0.288,-0.766 0.3,-0.777C0.311,-0.787 0.332,-0.793 0.362,-0.793C0.392,-0.793 0.413,-0.787 0.425,-0.777C0.436,-0.766 0.442,-0.747 0.442,-0.718C0.442,-0.69 0.436,-0.67 0.425,-0.66C0.413,-0.649 0.392,-0.644 0.362,-0.644Z" style="fill-rule:nonzero;"/>
                </g>
                <g transform="matrix(60,0,0,60,366.182,349)">
                    <path d="M0.448,-0.859L0.448,-0.763L0.239,-0.763L0.239,0.035L0.448,0.035L0.448,0.132L0.135,0.132L0.135,-0.859L0.448,-0.859Z" style="fill-rule:nonzero;"/>
                </g>
                <g transform="matrix(60,0,0,60,398.909,349)">
                    <path d="M0.273,0.013C0.228,0.013 0.187,-0.004 0.15,-0.036C0.113,-0.069 0.084,-0.114 0.063,-0.172C0.042,-0.229 0.032,-0.293 0.032,-0.364C0.032,-0.434 0.042,-0.498 0.063,-0.555C0.084,-0.613 0.113,-0.658 0.15,-0.691C0.187,-0.724 0.228,-0.74 0.273,-0.74C0.318,-0.74 0.358,-0.724 0.395,-0.691C0.432,-0.658 0.462,-0.613 0.483,-0.555C0.504,-0.498 0.515,-0.434 0.515,-0.364C0.515,-0.293 0.504,-0.229 0.483,-0.172C0.462,-0.114 0.432,-0.069 0.395,-0.036C0.358,-0.004 0.318,0.013 0.273,0.013ZM0.273,-0.084C0.296,-0.084 0.318,-0.096 0.339,-0.121C0.36,-0.146 0.377,-0.18 0.39,-0.223C0.403,-0.266 0.409,-0.313 0.409,-0.364C0.409,-0.415 0.403,-0.462 0.39,-0.505C0.377,-0.548 0.36,-0.582 0.339,-0.606C0.318,-0.631 0.296,-0.644 0.273,-0.644C0.25,-0.644 0.228,-0.631 0.206,-0.606C0.185,-0.582 0.168,-0.548 0.155,-0.505C0.143,-0.462 0.136,-0.415 0.136,-0.364C0.136,-0.313 0.143,-0.266 0.155,-0.223C0.168,-0.18 0.185,-0.146 0.206,-0.121C0.228,-0.096 0.25,-0.084 0.273,-0.084ZM0.273,-0.294C0.251,-0.294 0.233,-0.3 0.219,-0.313C0.205,-0.326 0.198,-0.343 0.198,-0.364C0.198,-0.384 0.205,-0.4 0.219,-0.413C0.233,-0.425 0.251,-0.432 0.273,-0.432C0.295,-0.432 0.313,-0.425 0.327,-0.413C0.341,-0.4 0.348,-0.384 0.348,-0.364C0.348,-0.343 0.341,-0.326 0.327,-0.313C0.313,-0.3 0.295,-0.294 0.273,-0.294Z" style="fill-rule:nonzero;"/>
                </g>
                <g transform="matrix(60,0,0,60,431.636,349)">
                    <path d="M0.145,-0.763L0.145,-0.859L0.459,-0.859L0.459,0.132L0.145,0.132L0.145,0.035L0.355,0.035L0.355,-0.763L0.145,-0.763Z" style="fill-rule:nonzero;"/>
                </g>
            </g>
        </g>
        <g transform="matrix(0.839063,0,0,0.359259,0,0)">
            <g transform="matrix(0.47597,0,0,1.11164,-64.2044,-78.7849)">
                <g transform="matrix(60,0,0,60,268,349)">
                    <path d="M0.273,0.013C0.216,0.013 0.172,0.003 0.14,-0.017C0.107,-0.037 0.084,-0.068 0.07,-0.111C0.055,-0.153 0.048,-0.21 0.048,-0.281C0.048,-0.352 0.055,-0.408 0.07,-0.451C0.084,-0.493 0.107,-0.525 0.14,-0.545C0.172,-0.565 0.216,-0.575 0.273,-0.575C0.329,-0.575 0.374,-0.565 0.406,-0.545C0.439,-0.525 0.463,-0.493 0.477,-0.451C0.491,-0.408 0.498,-0.352 0.498,-0.281C0.498,-0.21 0.491,-0.153 0.477,-0.111C0.463,-0.068 0.439,-0.037 0.406,-0.017C0.374,0.003 0.329,0.013 0.273,0.013ZM0.273,-0.084C0.304,-0.084 0.329,-0.09 0.346,-0.101C0.363,-0.113 0.375,-0.133 0.383,-0.161C0.39,-0.19 0.394,-0.229 0.394,-0.281C0.394,-0.332 0.39,-0.372 0.383,-0.4C0.375,-0.429 0.363,-0.449 0.346,-0.46C0.329,-0.472 0.304,-0.478 0.273,-0.478C0.241,-0.478 0.217,-0.472 0.2,-0.46C0.183,-0.449 0.171,-0.429 0.164,-0.4C0.156,-0.372 0.153,-0.332 0.153,-0.281C0.153,-0.229 0.156,-0.19 0.164,-0.161C0.171,-0.133 0.183,-0.113 0.2,-0.101C0.217,-0.09 0.241,-0.084 0.273,-0.084Z" style="fill-rule:nonzero;"/>
                </g>
                <g transform="matrix(60,0,0,60,300.727,349)">
                    <path d="M0.284,0.013C0.23,0.013 0.187,0.006 0.155,-0.009C0.123,-0.023 0.092,-0.048 0.065,-0.084L0.065,-0.727L0.169,-0.727L0.169,-0.555C0.204,-0.568 0.242,-0.575 0.284,-0.575C0.338,-0.575 0.381,-0.565 0.413,-0.545C0.445,-0.525 0.468,-0.493 0.482,-0.451C0.496,-0.408 0.503,-0.352 0.503,-0.28C0.503,-0.209 0.496,-0.152 0.482,-0.11C0.468,-0.068 0.445,-0.037 0.413,-0.017C0.381,0.003 0.338,0.013 0.284,0.013ZM0.284,-0.084C0.313,-0.084 0.336,-0.09 0.353,-0.101C0.369,-0.113 0.381,-0.133 0.388,-0.161C0.395,-0.189 0.398,-0.228 0.398,-0.28C0.398,-0.332 0.395,-0.371 0.388,-0.4C0.381,-0.428 0.369,-0.448 0.353,-0.46C0.336,-0.472 0.313,-0.478 0.284,-0.478C0.252,-0.478 0.228,-0.475 0.212,-0.468C0.196,-0.461 0.185,-0.448 0.179,-0.43C0.172,-0.412 0.169,-0.385 0.169,-0.349L0.169,-0.117C0.184,-0.104 0.199,-0.095 0.215,-0.09C0.23,-0.086 0.253,-0.084 0.284,-0.084Z" style="fill-rule:nonzero;"/>
                </g>
                <g transform="matrix(60,0,0,60,333.455,349)">
                    <path d="M0.216,0.178C0.174,0.178 0.14,0.172 0.115,0.161C0.09,0.149 0.065,0.129 0.04,0.099L0.116,0.034C0.133,0.054 0.148,0.067 0.16,0.073C0.171,0.079 0.19,0.082 0.216,0.082C0.248,0.082 0.272,0.078 0.288,0.069C0.304,0.061 0.315,0.046 0.322,0.025C0.328,0.003 0.332,-0.028 0.332,-0.07L0.332,-0.465L0.217,-0.465L0.217,-0.562L0.436,-0.562L0.436,-0.07C0.436,-0.008 0.429,0.041 0.415,0.076C0.401,0.112 0.378,0.138 0.346,0.154C0.315,0.17 0.272,0.178 0.216,0.178ZM0.362,-0.644C0.332,-0.644 0.311,-0.649 0.3,-0.66C0.288,-0.67 0.283,-0.69 0.283,-0.718C0.283,-0.747 0.288,-0.766 0.3,-0.777C0.311,-0.787 0.332,-0.793 0.362,-0.793C0.392,-0.793 0.413,-0.787 0.425,-0.777C0.436,-0.766 0.442,-0.747 0.442,-0.718C0.442,-0.69 0.436,-0.67 0.425,-0.66C0.413,-0.649 0.392,-0.644 0.362,-0.644Z" style="fill-rule:nonzero;"/>
                </g>
                <g transform="matrix(60,0,0,60,366.182,349)">
                    <path d="M0.448,-0.859L0.448,-0.763L0.239,-0.763L0.239,0.035L0.448,0.035L0.448,0.132L0.135,0.132L0.135,-0.859L0.448,-0.859Z" style="fill-rule:nonzero;"/>
                </g>
                <g transform="matrix(60,0,0,60,398.909,349)">
                    <path d="M0.325,-0.096L0.455,-0.096L0.455,-0L0.092,-0L0.092,-0.096L0.221,-0.096L0.221,-0.525C0.18,-0.501 0.131,-0.489 0.074,-0.489L0.074,-0.586C0.123,-0.586 0.159,-0.598 0.183,-0.62C0.207,-0.643 0.219,-0.679 0.219,-0.727L0.325,-0.727L0.325,-0.096Z" style="fill-rule:nonzero;"/>
                </g>
                <g transform="matrix(60,0,0,60,431.636,349)">
                    <path d="M0.145,-0.763L0.145,-0.859L0.459,-0.859L0.459,0.132L0.145,0.132L0.145,0.035L0.355,0.035L0.355,-0.763L0.145,-0.763Z" style="fill-rule:nonzero;"/>
                </g>
                <g transform="matrix(60,0,0,60,497.091,349)">
                    <path d="M0.536,-0.425L0.009,-0.425L0.009,-0.521L0.536,-0.521L0.536,-0.425ZM0.536,-0.206L0.009,-0.206L0.009,-0.303L0.536,-0.303L0.536,-0.206Z" style="fill-rule:nonzero;"/>
                </g>
                <g transform="matrix(60,0,0,60,562.545,349)">
                    <path d="M0.319,-0L0.225,-0L0.022,-0.562L0.129,-0.562L0.272,-0.155L0.415,-0.562L0.523,-0.562L0.319,-0Z" style="fill-rule:nonzero;"/>
                </g>
                <g transform="matrix(60,0,0,60,595.273,349)">
                    <path d="M0.249,0.013C0.196,0.013 0.153,0.007 0.121,-0.005C0.09,-0.018 0.067,-0.037 0.052,-0.062C0.038,-0.088 0.031,-0.122 0.031,-0.165C0.031,-0.214 0.038,-0.251 0.052,-0.278C0.066,-0.304 0.088,-0.323 0.12,-0.333C0.151,-0.344 0.194,-0.349 0.249,-0.349L0.364,-0.349L0.364,-0.369C0.364,-0.395 0.36,-0.414 0.354,-0.428C0.348,-0.442 0.336,-0.452 0.32,-0.458C0.304,-0.463 0.28,-0.466 0.249,-0.466C0.224,-0.466 0.204,-0.464 0.191,-0.459C0.178,-0.453 0.167,-0.444 0.16,-0.431C0.153,-0.418 0.146,-0.397 0.139,-0.37L0.039,-0.395C0.05,-0.438 0.064,-0.472 0.08,-0.498C0.096,-0.524 0.118,-0.543 0.145,-0.556C0.173,-0.568 0.207,-0.575 0.249,-0.575C0.328,-0.575 0.384,-0.558 0.418,-0.524C0.451,-0.49 0.468,-0.439 0.468,-0.369L0.468,-0.156C0.468,-0.132 0.471,-0.115 0.475,-0.107C0.48,-0.099 0.491,-0.095 0.506,-0.095C0.511,-0.095 0.522,-0.096 0.539,-0.097L0.539,-0.001C0.532,-0 0.522,-0 0.509,-0C0.456,-0 0.42,-0.012 0.4,-0.036C0.384,-0.019 0.363,-0.006 0.339,0.001C0.315,0.009 0.285,0.013 0.249,0.013ZM0.249,-0.084C0.28,-0.084 0.304,-0.087 0.32,-0.095C0.336,-0.102 0.348,-0.114 0.354,-0.132C0.36,-0.149 0.364,-0.175 0.364,-0.208L0.364,-0.253L0.249,-0.253C0.215,-0.253 0.19,-0.251 0.175,-0.248C0.161,-0.244 0.151,-0.237 0.145,-0.225C0.138,-0.213 0.135,-0.193 0.135,-0.165C0.135,-0.143 0.138,-0.126 0.145,-0.115C0.151,-0.104 0.162,-0.096 0.178,-0.091C0.194,-0.086 0.218,-0.084 0.249,-0.084Z" style="fill-rule:nonzero;"/>
                </g>
                <g transform="matrix(60,0,0,60,628,349)">
                    <path d="M0.366,0.013C0.324,0.013 0.291,0.006 0.268,-0.006C0.244,-0.019 0.228,-0.04 0.218,-0.07C0.208,-0.1 0.203,-0.142 0.203,-0.195L0.203,-0.631L0.088,-0.631L0.088,-0.727L0.307,-0.727L0.307,-0.195C0.307,-0.153 0.312,-0.124 0.32,-0.108C0.328,-0.092 0.344,-0.084 0.366,-0.084C0.377,-0.084 0.389,-0.087 0.401,-0.095C0.414,-0.102 0.431,-0.115 0.454,-0.134L0.512,-0.045C0.485,-0.023 0.461,-0.008 0.44,0C0.42,0.009 0.395,0.013 0.366,0.013Z" style="fill-rule:nonzero;"/>
                </g>
                <g transform="matrix(60,0,0,60,660.727,349)">
                    <path d="M0.257,0.013C0.208,0.013 0.169,0.005 0.141,-0.01C0.112,-0.024 0.092,-0.048 0.079,-0.082C0.066,-0.115 0.06,-0.161 0.06,-0.218L0.06,-0.562L0.165,-0.562L0.165,-0.218C0.165,-0.181 0.167,-0.152 0.172,-0.134C0.177,-0.115 0.187,-0.102 0.2,-0.095C0.213,-0.087 0.232,-0.084 0.257,-0.084C0.295,-0.084 0.323,-0.087 0.341,-0.093C0.36,-0.099 0.373,-0.11 0.38,-0.125C0.387,-0.14 0.391,-0.163 0.391,-0.194L0.391,-0.562L0.496,-0.562L0.496,-0L0.391,-0L0.391,-0.009C0.359,0.005 0.315,0.013 0.257,0.013Z" style="fill-rule:nonzero;"/>
                </g>
                <g transform="matrix(60,0,0,60,693.455,349)">
                    <path d="M0.275,-0.575C0.334,-0.575 0.38,-0.564 0.413,-0.542C0.446,-0.521 0.47,-0.487 0.483,-0.44C0.497,-0.394 0.503,-0.332 0.502,-0.253L0.141,-0.253C0.143,-0.209 0.148,-0.175 0.157,-0.151C0.166,-0.127 0.179,-0.109 0.198,-0.099C0.217,-0.089 0.243,-0.084 0.275,-0.084C0.299,-0.084 0.318,-0.086 0.333,-0.09C0.348,-0.095 0.362,-0.103 0.374,-0.115C0.387,-0.127 0.401,-0.145 0.418,-0.168L0.502,-0.113C0.472,-0.066 0.44,-0.033 0.406,-0.015C0.373,0.003 0.329,0.013 0.275,0.013C0.215,0.013 0.168,0.003 0.133,-0.017C0.098,-0.037 0.073,-0.068 0.058,-0.111C0.043,-0.153 0.035,-0.21 0.035,-0.281C0.035,-0.352 0.043,-0.408 0.058,-0.451C0.073,-0.493 0.098,-0.525 0.133,-0.545C0.168,-0.565 0.215,-0.575 0.275,-0.575ZM0.395,-0.349C0.391,-0.382 0.385,-0.408 0.377,-0.426C0.369,-0.445 0.357,-0.458 0.34,-0.466C0.324,-0.474 0.303,-0.478 0.275,-0.478C0.245,-0.478 0.221,-0.474 0.203,-0.466C0.185,-0.458 0.171,-0.445 0.161,-0.426C0.152,-0.408 0.146,-0.382 0.143,-0.349L0.395,-0.349Z" style="fill-rule:nonzero;"/>
                </g>
            </g>
        </g>
        <g transform="matrix(0.839063,0,0,0.359259,0,0)">
            <g transform="matrix(0.47597,0,0,1.11164,31.4957,55.9868)">
                <g transform="matrix(60,0,0,60,268,349)">
                    <path d="M0.366,0.013C0.324,0.013 0.291,0.006 0.268,-0.006C0.244,-0.019 0.228,-0.04 0.218,-0.07C0.208,-0.1 0.203,-0.142 0.203,-0.195L0.203,-0.631L0.088,-0.631L0.088,-0.727L0.307,-0.727L0.307,-0.195C0.307,-0.153 0.312,-0.124 0.32,-0.108C0.328,-0.092 0.344,-0.084 0.366,-0.084C0.377,-0.084 0.389,-0.087 0.401,-0.095C0.414,-0.102 0.431,-0.115 0.454,-0.134L0.512,-0.045C0.485,-0.023 0.461,-0.008 0.44,0C0.42,0.009 0.395,0.013 0.366,0.013Z" style="fill-rule:nonzero;"/>
                </g>
                <g transform="matrix(60,0,0,60,300.727,349)">
                    <path d="M0.275,-0.575C0.334,-0.575 0.38,-0.564 0.413,-0.542C0.446,-0.521 0.47,-0.487 0.483,-0.44C0.497,-0.394 0.503,-0.332 0.502,-0.253L0.141,-0.253C0.143,-0.209 0.148,-0.175 0.157,-0.151C0.166,-0.127 0.179,-0.109 0.198,-0.099C0.217,-0.089 0.243,-0.084 0.275,-0.084C0.299,-0.084 0.318,-0.086 0.333,-0.09C0.348,-0.095 0.362,-0.103 0.374,-0.115C0.387,-0.127 0.401,-0.145 0.418,-0.168L0.502,-0.113C0.472,-0.066 0.44,-0.033 0.406,-0.015C0.373,0.003 0.329,0.013 0.275,0.013C0.215,0.013 0.168,0.003 0.133,-0.017C0.098,-0.037 0.073,-0.068 0.058,-0.111C0.043,-0.153 0.035,-0.21 0.035,-0.281C0.035,-0.352 0.043,-0.408 0.058,-0.451C0.073,-0.493 0.098,-0.525 0.133,-0.545C0.168,-0.565 0.215,-0.575 0.275,-0.575ZM0.395,-0.349C0.391,-0.382 0.385,-0.408 0.377,-0.426C0.369,-0.445 0.357,-0.458 0.34,-0.466C0.324,-0.474 0.303,-0.478 0.275,-0.478C0.245,-0.478 0.221,-0.474 0.203,-0.466C0.185,-0.458 0.171,-0.445 0.161,-0.426C0.152,-0.408 0.146,-0.382 0.143,-0.349L0.395,-0.349Z" style="fill-rule:nonzero;"/>
                </g>
                <g transform="matrix(60,0,0,60,333.455,349)">
                    <path d="M0.06,-0L0.06,-0.562L0.165,-0.562L0.165,-0.548C0.203,-0.566 0.247,-0.575 0.298,-0.575C0.35,-0.575 0.39,-0.567 0.418,-0.553C0.446,-0.539 0.466,-0.515 0.478,-0.481C0.49,-0.448 0.496,-0.4 0.496,-0.339L0.496,-0L0.391,-0L0.391,-0.339C0.391,-0.375 0.388,-0.403 0.382,-0.423C0.377,-0.443 0.367,-0.457 0.354,-0.465C0.341,-0.474 0.322,-0.478 0.298,-0.478C0.259,-0.478 0.23,-0.475 0.211,-0.468C0.193,-0.461 0.18,-0.448 0.174,-0.431C0.168,-0.413 0.165,-0.386 0.165,-0.349L0.165,-0L0.06,-0Z" style="fill-rule:nonzero;"/>
                </g>
                <g transform="matrix(60,0,0,60,366.182,349)">
                    <path d="M0.43,0.132C0.369,0.132 0.316,0.111 0.269,0.07C0.222,0.029 0.186,-0.029 0.161,-0.104C0.135,-0.179 0.123,-0.265 0.123,-0.364C0.123,-0.462 0.135,-0.548 0.161,-0.623C0.186,-0.698 0.222,-0.756 0.269,-0.797C0.316,-0.838 0.369,-0.859 0.43,-0.859L0.43,-0.763C0.39,-0.763 0.355,-0.746 0.324,-0.713C0.293,-0.68 0.27,-0.633 0.253,-0.573C0.236,-0.513 0.227,-0.443 0.227,-0.364C0.227,-0.284 0.236,-0.214 0.253,-0.154C0.27,-0.094 0.293,-0.047 0.324,-0.014C0.355,0.019 0.39,0.035 0.43,0.035L0.43,0.132Z" style="fill-rule:nonzero;"/>
                </g>
                <g transform="matrix(60,0,0,60,398.909,349)">
                    <path d="M0.273,0.013C0.216,0.013 0.172,0.003 0.14,-0.017C0.107,-0.037 0.084,-0.068 0.07,-0.111C0.055,-0.153 0.048,-0.21 0.048,-0.281C0.048,-0.352 0.055,-0.408 0.07,-0.451C0.084,-0.493 0.107,-0.525 0.14,-0.545C0.172,-0.565 0.216,-0.575 0.273,-0.575C0.329,-0.575 0.374,-0.565 0.406,-0.545C0.439,-0.525 0.463,-0.493 0.477,-0.451C0.491,-0.408 0.498,-0.352 0.498,-0.281C0.498,-0.21 0.491,-0.153 0.477,-0.111C0.463,-0.068 0.439,-0.037 0.406,-0.017C0.374,0.003 0.329,0.013 0.273,0.013ZM0.273,-0.084C0.304,-0.084 0.329,-0.09 0.346,-0.101C0.363,-0.113 0.375,-0.133 0.383,-0.161C0.39,-0.19 0.394,-0.229 0.394,-0.281C0.394,-0.332 0.39,-0.372 0.383,-0.4C0.375,-0.429 0.363,-0.449 0.346,-0.46C0.329,-0.472 0.304,-0.478 0.273,-0.478C0.241,-0.478 0.217,-0.472 0.2,-0.46C0.183,-0.449 0.171,-0.429 0.164,-0.4C0.156,-0.372 0.153,-0.332 0.153,-0.281C0.153,-0.229 0.156,-0.19 0.164,-0.161C0.171,-0.133 0.183,-0.113 0.2,-0.101C0.217,-0.09 0.241,-0.084 0.273,-0.084Z" style="fill-rule:nonzero;"/>
                </g>
                <g transform="matrix(60,0,0,60,431.636,349)">
                    <path d="M0.284,0.013C0.23,0.013 0.187,0.006 0.155,-0.009C0.123,-0.023 0.092,-0.048 0.065,-0.084L0.065,-0.727L0.169,-0.727L0.169,-0.555C0.204,-0.568 0.242,-0.575 0.284,-0.575C0.338,-0.575 0.381,-0.565 0.413,-0.545C0.445,-0.525 0.468,-0.493 0.482,-0.451C0.496,-0.408 0.503,-0.352 0.503,-0.28C0.503,-0.209 0.496,-0.152 0.482,-0.11C0.468,-0.068 0.445,-0.037 0.413,-0.017C0.381,0.003 0.338,0.013 0.284,0.013ZM0.284,-0.084C0.313,-0.084 0.336,-0.09 0.353,-0.101C0.369,-0.113 0.381,-0.133 0.388,-0.161C0.395,-0.189 0.398,-0.228 0.398,-0.28C0.398,-0.332 0.395,-0.371 0.388,-0.4C0.381,-0.428 0.369,-0.448 0.353,-0.46C0.336,-0.472 0.313,-0.478 0.284,-0.478C0.252,-0.478 0.228,-0.475 0.212,-0.468C0.196,-0.461 0.185,-0.448 0.179,-0.43C0.172,-0.412 0.169,-0.385 0.169,-0.349L0.169,-0.117C0.184,-0.104 0.199,-0.095 0.215,-0.09C0.23,-0.086 0.253,-0.084 0.284,-0.084Z" style="fill-rule:nonzero;"/>
                </g>
                <g transform="matrix(60,0,0,60,464.364,349)">
                    <path d="M0.216,0.178C0.174,0.178 0.14,0.172 0.115,0.161C0.09,0.149 0.065,0.129 0.04,0.099L0.116,0.034C0.133,0.054 0.148,0.067 0.16,0.073C0.171,0.079 0.19,0.082 0.216,0.082C0.248,0.082 0.272,0.078 0.288,0.069C0.304,0.061 0.315,0.046 0.322,0.025C0.328,0.003 0.332,-0.028 0.332,-0.07L0.332,-0.465L0.217,-0.465L0.217,-0.562L0.436,-0.562L0.436,-0.07C0.436,-0.008 0.429,0.041 0.415,0.076C0.401,0.112 0.378,0.138 0.346,0.154C0.315,0.17 0.272,0.178 0.216,0.178ZM0.362,-0.644C0.332,-0.644 0.311,-0.649 0.3,-0.66C0.288,-0.67 0.283,-0.69 0.283,-0.718C0.283,-0.747 0.288,-0.766 0.3,-0.777C0.311,-0.787 0.332,-0.793 0.362,-0.793C0.392,-0.793 0.413,-0.787 0.425,-0.777C0.436,-0.766 0.442,-0.747 0.442,-0.718C0.442,-0.69 0.436,-0.67 0.425,-0.66C0.413,-0.649 0.392,-0.644 0.362,-0.644Z" style="fill-rule:nonzero;"/>
                </g>
                <g transform="matrix(60,0,0,60,497.091,349)">
                    <path d="M0.116,0.035C0.156,0.035 0.192,0.019 0.222,-0.014C0.253,-0.047 0.277,-0.094 0.294,-0.154C0.311,-0.214 0.319,-0.284 0.319,-0.364C0.319,-0.443 0.311,-0.513 0.294,-0.573C0.277,-0.633 0.253,-0.68 0.222,-0.713C0.192,-0.746 0.156,-0.763 0.116,-0.763L0.116,-0.859C0.177,-0.859 0.231,-0.838 0.277,-0.797C0.324,-0.756 0.36,-0.698 0.385,-0.623C0.411,-0.548 0.424,-0.462 0.424,-0.364C0.424,-0.265 0.411,-0.179 0.385,-0.104C0.36,-0.029 0.324,0.029 0.277,0.07C0.231,0.111 0.177,0.132 0.116,0.132L0.116,0.035Z" style="fill-rule:nonzero;"/>
                </g>
            </g>
        </g>
        <g transform="matrix(0.839063,0,0,0.359259,0,0)">
            <g transform="matrix(0.47597,0,0,1.11164,266.305,-208.847)">
                <g transform="matrix(60,0,0,60,268,349)">
                    <path d="M0.273,0.013C0.216,0.013 0.172,0.003 0.14,-0.017C0.107,-0.037 0.084,-0.068 0.07,-0.111C0.055,-0.153 0.048,-0.21 0.048,-0.281C0.048,-0.352 0.055,-0.408 0.07,-0.451C0.084,-0.493 0.107,-0.525 0.14,-0.545C0.172,-0.565 0.216,-0.575 0.273,-0.575C0.329,-0.575 0.374,-0.565 0.406,-0.545C0.439,-0.525 0.463,-0.493 0.477,-0.451C0.491,-0.408 0.498,-0.352 0.498,-0.281C0.498,-0.21 0.491,-0.153 0.477,-0.111C0.463,-0.068 0.439,-0.037 0.406,-0.017C0.374,0.003 0.329,0.013 0.273,0.013ZM0.273,-0.084C0.304,-0.084 0.329,-0.09 0.346,-0.101C0.363,-0.113 0.375,-0.133 0.383,-0.161C0.39,-0.19 0.394,-0.229 0.394,-0.281C0.394,-0.332 0.39,-0.372 0.383,-0.4C0.375,-0.429 0.363,-0.449 0.346,-0.46C0.329,-0.472 0.304,-0.478 0.273,-0.478C0.241,-0.478 0.217,-0.472 0.2,-0.46C0.183,-0.449 0.171,-0.429 0.164,-0.4C0.156,-0.372 0.153,-0.332 0.153,-0.281C0.153,-0.229 0.156,-0.19 0.164,-0.161C0.171,-0.133 0.183,-0.113 0.2,-0.101C0.217,-0.09 0.241,-0.084 0.273,-0.084Z" style="fill-rule:nonzero;"/>
                </g>
                <g transform="matrix(60,0,0,60,300.727,349)">
                    <path d="M0.284,0.013C0.23,0.013 0.187,0.006 0.155,-0.009C0.123,-0.023 0.092,-0.048 0.065,-0.084L0.065,-0.727L0.169,-0.727L0.169,-0.555C0.204,-0.568 0.242,-0.575 0.284,-0.575C0.338,-0.575 0.381,-0.565 0.413,-0.545C0.445,-0.525 0.468,-0.493 0.482,-0.451C0.496,-0.408 0.503,-0.352 0.503,-0.28C0.503,-0.209 0.496,-0.152 0.482,-0.11C0.468,-0.068 0.445,-0.037 0.413,-0.017C0.381,0.003 0.338,0.013 0.284,0.013ZM0.284,-0.084C0.313,-0.084 0.336,-0.09 0.353,-0.101C0.369,-0.113 0.381,-0.133 0.388,-0.161C0.395,-0.189 0.398,-0.228 0.398,-0.28C0.398,-0.332 0.395,-0.371 0.388,-0.4C0.381,-0.428 0.369,-0.448 0.353,-0.46C0.336,-0.472 0.313,-0.478 0.284,-0.478C0.252,-0.478 0.228,-0.475 0.212,-0.468C0.196,-0.461 0.185,-0.448 0.179,-0.43C0.172,-0.412 0.169,-0.385 0.169,-0.349L0.169,-0.117C0.184,-0.104 0.199,-0.095 0.215,-0.09C0.23,-0.086 0.253,-0.084 0.284,-0.084Z" style="fill-rule:nonzero;"/>
                </g>
                <g transform="matrix(60,0,0,60,333.455,349)">
                    <path d="M0.216,0.178C0.174,0.178 0.14,0.172 0.115,0.161C0.09,0.149 0.065,0.129 0.04,0.099L0.116,0.034C0.133,0.054 0.148,0.067 0.16,0.073C0.171,0.079 0.19,0.082 0.216,0.082C0.248,0.082 0.272,0.078 0.288,0.069C0.304,0.061 0.315,0.046 0.322,0.025C0.328,0.003 0.332,-0.028 0.332,-0.07L0.332,-0.465L0.217,-0.465L0.217,-0.562L0.436,-0.562L0.436,-0.07C0.436,-0.008 0.429,0.041 0.415,0.076C0.401,0.112 0.378,0.138 0.346,0.154C0.315,0.17 0.272,0.178 0.216,0.178ZM0.362,-0.644C0.332,-0.644 0.311,-0.649 0.3,-0.66C0.288,-0.67 0.283,-0.69 0.283,-0.718C0.283,-0.747 0.288,-0.766 0.3,-0.777C0.311,-0.787 0.332,-0.793 0.362,-0.793C0.392,-0.793 0.413,-0.787 0.425,-0.777C0.436,-0.766 0.442,-0.747 0.442,-0.718C0.442,-0.69 0.436,-0.67 0.425,-0.66C0.413,-0.649 0.392,-0.644 0.362,-0.644Z" style="fill-rule:nonzero;"/>
                </g>
                <g transform="matrix(60,0,0,60,366.182,349)">
                    <path d="M0.273,0.013C0.241,0.013 0.22,0.007 0.208,-0.004C0.196,-0.015 0.19,-0.035 0.19,-0.064C0.19,-0.093 0.196,-0.113 0.208,-0.124C0.22,-0.135 0.241,-0.141 0.273,-0.141C0.304,-0.141 0.326,-0.135 0.338,-0.124C0.35,-0.113 0.355,-0.093 0.355,-0.064C0.355,-0.035 0.35,-0.015 0.338,-0.004C0.326,0.007 0.304,0.013 0.273,0.013Z" style="fill-rule:nonzero;"/>
                </g>
                <g transform="matrix(60,0,0,60,431.636,349)">
                    <rect x="-0.548" y="0.069" width="1.096" height="0.096" style="fill:rgb(255,54,0);fill-rule:nonzero;"/>
                </g>
                <g transform="matrix(60,0,0,60,464.364,349)">
                    <path d="M0.271,0.178C0.228,0.178 0.195,0.172 0.17,0.161C0.144,0.149 0.119,0.129 0.095,0.099L0.171,0.034C0.188,0.054 0.202,0.067 0.214,0.073C0.226,0.079 0.245,0.082 0.271,0.082C0.302,0.082 0.325,0.078 0.342,0.07C0.358,0.063 0.37,0.05 0.376,0.031C0.383,0.013 0.386,-0.014 0.386,-0.05L0.386,-0.052C0.348,-0.037 0.308,-0.03 0.265,-0.03C0.208,-0.03 0.164,-0.04 0.131,-0.06C0.098,-0.081 0.075,-0.113 0.06,-0.157C0.046,-0.202 0.039,-0.261 0.039,-0.336C0.039,-0.393 0.047,-0.439 0.061,-0.474C0.076,-0.508 0.1,-0.534 0.133,-0.55C0.165,-0.566 0.209,-0.575 0.265,-0.575C0.309,-0.575 0.35,-0.568 0.386,-0.556L0.386,-0.562L0.491,-0.562L0.491,-0.058C0.491,0 0.484,0.046 0.47,0.08C0.455,0.114 0.432,0.139 0.4,0.155C0.369,0.17 0.325,0.178 0.271,0.178ZM0.265,-0.126C0.308,-0.126 0.339,-0.137 0.358,-0.157C0.377,-0.178 0.386,-0.21 0.386,-0.254L0.386,-0.425C0.386,-0.442 0.377,-0.455 0.357,-0.464C0.337,-0.473 0.306,-0.478 0.265,-0.478C0.232,-0.478 0.208,-0.474 0.191,-0.465C0.174,-0.457 0.162,-0.443 0.155,-0.422C0.148,-0.402 0.145,-0.373 0.145,-0.336C0.145,-0.281 0.148,-0.238 0.155,-0.208C0.163,-0.178 0.175,-0.157 0.192,-0.145C0.209,-0.133 0.233,-0.126 0.265,-0.126Z" style="fill:rgb(255,54,0);fill-rule:nonzero;"/>
                </g>
                <g transform="matrix(60,0,0,60,497.091,349)">
                    <path d="M0.275,-0.575C0.334,-0.575 0.38,-0.564 0.413,-0.542C0.446,-0.521 0.47,-0.487 0.483,-0.44C0.497,-0.394 0.503,-0.332 0.502,-0.253L0.141,-0.253C0.143,-0.209 0.148,-0.175 0.157,-0.151C0.166,-0.127 0.179,-0.109 0.198,-0.099C0.217,-0.089 0.243,-0.084 0.275,-0.084C0.299,-0.084 0.318,-0.086 0.333,-0.09C0.348,-0.095 0.362,-0.103 0.374,-0.115C0.387,-0.127 0.401,-0.145 0.418,-0.168L0.502,-0.113C0.472,-0.066 0.44,-0.033 0.406,-0.015C0.373,0.003 0.329,0.013 0.275,0.013C0.215,0.013 0.168,0.003 0.133,-0.017C0.098,-0.037 0.073,-0.068 0.058,-0.111C0.043,-0.153 0.035,-0.21 0.035,-0.281C0.035,-0.352 0.043,-0.408 0.058,-0.451C0.073,-0.493 0.098,-0.525 0.133,-0.545C0.168,-0.565 0.215,-0.575 0.275,-0.575ZM0.395,-0.349C0.391,-0.382 0.385,-0.408 0.377,-0.426C0.369,-0.445 0.357,-0.458 0.34,-0.466C0.324,-0.474 0.303,-0.478 0.275,-0.478C0.245,-0.478 0.221,-0.474 0.203,-0.466C0.185,-0.458 0.171,-0.445 0.161,-0.426C0.152,-0.408 0.146,-0.382 0.143,-0.349L0.395,-0.349Z" style="fill:rgb(255,54,0);fill-rule:nonzero;"/>
                </g>
                <g transform="matrix(60,0,0,60,529.818,349)">
                    <path d="M0.332,0.013C0.288,0.013 0.252,0.005 0.225,-0.01C0.199,-0.025 0.179,-0.049 0.167,-0.082C0.154,-0.115 0.148,-0.159 0.148,-0.213L0.148,-0.476L0.035,-0.476L0.035,-0.573L0.148,-0.573L0.148,-0.727L0.253,-0.727L0.253,-0.573L0.441,-0.573L0.441,-0.476L0.253,-0.476L0.253,-0.213C0.253,-0.179 0.255,-0.153 0.26,-0.134C0.265,-0.116 0.273,-0.103 0.284,-0.095C0.295,-0.087 0.311,-0.084 0.332,-0.084C0.354,-0.084 0.37,-0.085 0.38,-0.088C0.39,-0.091 0.398,-0.097 0.402,-0.105C0.407,-0.112 0.412,-0.126 0.418,-0.145L0.516,-0.112C0.507,-0.08 0.495,-0.056 0.481,-0.038C0.466,-0.02 0.447,-0.007 0.424,0.001C0.401,0.009 0.37,0.013 0.332,0.013Z" style="fill:rgb(255,54,0);fill-rule:nonzero;"/>
                </g>
                <g transform="matrix(60,0,0,60,562.545,349)">
                    <path d="M0.349,-0.562L0.349,-0.096L0.508,-0.096L0.508,-0L0.085,-0L0.085,-0.096L0.245,-0.096L0.245,-0.465L0.13,-0.465L0.13,-0.562L0.349,-0.562ZM0.28,-0.644C0.25,-0.644 0.229,-0.649 0.218,-0.66C0.207,-0.67 0.201,-0.69 0.201,-0.718C0.201,-0.747 0.207,-0.766 0.218,-0.777C0.229,-0.787 0.25,-0.793 0.28,-0.793C0.31,-0.793 0.331,-0.787 0.343,-0.777C0.354,-0.766 0.36,-0.747 0.36,-0.718C0.36,-0.69 0.354,-0.67 0.343,-0.66C0.331,-0.649 0.31,-0.644 0.28,-0.644Z" style="fill:rgb(255,54,0);fill-rule:nonzero;"/>
                </g>
                <g transform="matrix(60,0,0,60,595.273,349)">
                    <path d="M0.332,0.013C0.288,0.013 0.252,0.005 0.225,-0.01C0.199,-0.025 0.179,-0.049 0.167,-0.082C0.154,-0.115 0.148,-0.159 0.148,-0.213L0.148,-0.476L0.035,-0.476L0.035,-0.573L0.148,-0.573L0.148,-0.727L0.253,-0.727L0.253,-0.573L0.441,-0.573L0.441,-0.476L0.253,-0.476L0.253,-0.213C0.253,-0.179 0.255,-0.153 0.26,-0.134C0.265,-0.116 0.273,-0.103 0.284,-0.095C0.295,-0.087 0.311,-0.084 0.332,-0.084C0.354,-0.084 0.37,-0.085 0.38,-0.088C0.39,-0.091 0.398,-0.097 0.402,-0.105C0.407,-0.112 0.412,-0.126 0.418,-0.145L0.516,-0.112C0.507,-0.08 0.495,-0.056 0.481,-0.038C0.466,-0.02 0.447,-0.007 0.424,0.001C0.401,0.009 0.37,0.013 0.332,0.013Z" style="fill:rgb(255,54,0);fill-rule:nonzero;"/>
                </g>
                <g transform="matrix(60,0,0,60,628,349)">
                    <path d="M0.275,-0.575C0.334,-0.575 0.38,-0.564 0.413,-0.542C0.446,-0.521 0.47,-0.487 0.483,-0.44C0.497,-0.394 0.503,-0.332 0.502,-0.253L0.141,-0.253C0.143,-0.209 0.148,-0.175 0.157,-0.151C0.166,-0.127 0.179,-0.109 0.198,-0.099C0.217,-0.089 0.243,-0.084 0.275,-0.084C0.299,-0.084 0.318,-0.086 0.333,-0.09C0.348,-0.095 0.362,-0.103 0.374,-0.115C0.387,-0.127 0.401,-0.145 0.418,-0.168L0.502,-0.113C0.472,-0.066 0.44,-0.033 0.406,-0.015C0.373,0.003 0.329,0.013 0.275,0.013C0.215,0.013 0.168,0.003 0.133,-0.017C0.098,-0.037 0.073,-0.068 0.058,-0.111C0.043,-0.153 0.035,-0.21 0.035,-0.281C0.035,-0.352 0.043,-0.408 0.058,-0.451C0.073,-0.493 0.098,-0.525 0.133,-0.545C0.168,-0.565 0.215,-0.575 0.275,-0.575ZM0.395,-0.349C0.391,-0.382 0.385,-0.408 0.377,-0.426C0.369,-0.445 0.357,-0.458 0.34,-0.466C0.324,-0.474 0.303,-0.478 0.275,-0.478C0.245,-0.478 0.221,-0.474 0.203,-0.466C0.185,-0.458 0.171,-0.445 0.161,-0.426C0.152,-0.408 0.146,-0.382 0.143,-0.349L0.395,-0.349Z" style="fill:rgb(255,54,0);fill-rule:nonzero;"/>
                </g>
                <g transform="matrix(60,0,0,60,660.727,349)">
                    <path d="M0.022,-0L0.022,-0.562L0.126,-0.562L0.126,-0.565C0.154,-0.571 0.175,-0.574 0.192,-0.574C0.215,-0.574 0.233,-0.57 0.246,-0.564C0.259,-0.558 0.272,-0.546 0.284,-0.528C0.299,-0.546 0.315,-0.558 0.33,-0.564C0.344,-0.57 0.365,-0.574 0.39,-0.574C0.425,-0.574 0.451,-0.567 0.47,-0.552C0.49,-0.538 0.503,-0.514 0.511,-0.481C0.52,-0.448 0.524,-0.401 0.524,-0.342L0.524,-0L0.419,-0L0.419,-0.342C0.419,-0.39 0.417,-0.424 0.412,-0.442C0.407,-0.46 0.398,-0.469 0.385,-0.469C0.369,-0.469 0.358,-0.466 0.349,-0.459C0.341,-0.452 0.335,-0.44 0.331,-0.423C0.327,-0.406 0.325,-0.382 0.325,-0.352L0.325,-0L0.221,-0L0.221,-0.336C0.221,-0.387 0.218,-0.421 0.213,-0.44C0.208,-0.46 0.199,-0.469 0.186,-0.469C0.171,-0.469 0.158,-0.466 0.15,-0.459C0.142,-0.452 0.135,-0.44 0.132,-0.423C0.128,-0.406 0.126,-0.382 0.126,-0.352L0.126,-0L0.022,-0Z" style="fill:rgb(255,54,0);fill-rule:nonzero;"/>
                </g>
                <g transform="matrix(60,0,0,60,726.182,349)">
                    <rect x="-0.548" y="0.069" width="1.096" height="0.096" style="fill:rgb(255,54,0);fill-rule:nonzero;"/>
                </g>
                <g transform="matrix(60,0,0,60,758.909,349)">
                    <path d="M0.43,0.132C0.369,0.132 0.316,0.111 0.269,0.07C0.222,0.029 0.186,-0.029 0.161,-0.104C0.135,-0.179 0.123,-0.265 0.123,-0.364C0.123,-0.462 0.135,-0.548 0.161,-0.623C0.186,-0.698 0.222,-0.756 0.269,-0.797C0.316,-0.838 0.369,-0.859 0.43,-0.859L0.43,-0.763C0.39,-0.763 0.355,-0.746 0.324,-0.713C0.293,-0.68 0.27,-0.633 0.253,-0.573C0.236,-0.513 0.227,-0.443 0.227,-0.364C0.227,-0.284 0.236,-0.214 0.253,-0.154C0.27,-0.094 0.293,-0.047 0.324,-0.014C0.355,0.019 0.39,0.035 0.43,0.035L0.43,0.132Z" style="fill-rule:nonzero;"/>
                </g>
                <g transform="matrix(60,0,0,60,791.636,349)">
                    <path d="M0.273,0.013C0.228,0.013 0.187,-0.004 0.15,-0.036C0.113,-0.069 0.084,-0.114 0.063,-0.172C0.042,-0.229 0.032,-0.293 0.032,-0.364C0.032,-0.434 0.042,-0.498 0.063,-0.555C0.084,-0.613 0.113,-0.658 0.15,-0.691C0.187,-0.724 0.228,-0.74 0.273,-0.74C0.318,-0.74 0.358,-0.724 0.395,-0.691C0.432,-0.658 0.462,-0.613 0.483,-0.555C0.504,-0.498 0.515,-0.434 0.515,-0.364C0.515,-0.293 0.504,-0.229 0.483,-0.172C0.462,-0.114 0.432,-0.069 0.395,-0.036C0.358,-0.004 0.318,0.013 0.273,0.013ZM0.273,-0.084C0.296,-0.084 0.318,-0.096 0.339,-0.121C0.36,-0.146 0.377,-0.18 0.39,-0.223C0.403,-0.266 0.409,-0.313 0.409,-0.364C0.409,-0.415 0.403,-0.462 0.39,-0.505C0.377,-0.548 0.36,-0.582 0.339,-0.606C0.318,-0.631 0.296,-0.644 0.273,-0.644C0.25,-0.644 0.228,-0.631 0.206,-0.606C0.185,-0.582 0.168,-0.548 0.155,-0.505C0.143,-0.462 0.136,-0.415 0.136,-0.364C0.136,-0.313 0.143,-0.266 0.155,-0.223C0.168,-0.18 0.185,-0.146 0.206,-0.121C0.228,-0.096 0.25,-0.084 0.273,-0.084ZM0.273,-0.294C0.251,-0.294 0.233,-0.3 0.219,-0.313C0.205,-0.326 0.198,-0.343 0.198,-0.364C0.198,-0.384 0.205,-0.4 0.219,-0.413C0.233,-0.425 0.251,-0.432 0.273,-0.432C0.295,-0.432 0.313,-0.425 0.327,-0.413C0.341,-0.4 0.348,-0.384 0.348,-0.364C0.348,-0.343 0.341,-0.326 0.327,-0.313C0.313,-0.3 0.295,-0.294 0.273,-0.294Z" style="fill-rule:nonzero;"/>
                </g>
                <g transform="matrix(60,0,0,60,824.364,349)">
                    <path d="M0.116,0.035C0.156,0.035 0.192,0.019 0.222,-0.014C0.253,-0.047 0.277,-0.094 0.294,-0.154C0.311,-0.214 0.319,-0.284 0.319,-0.364C0.319,-0.443 0.311,-0.513 0.294,-0.573C0.277,-0.633 0.253,-0.68 0.222,-0.713C0.192,-0.746 0.156,-0.763 0.116,-0.763L0.116,-0.859C0.177,-0.859 0.231,-0.838 0.277,-0.797C0.324,-0.756 0.36,-0.698 0.385,-0.623C0.411,-0.548 0.424,-0.462 0.424,-0.364C0.424,-0.265 0.411,-0.179 0.385,-0.104C0.36,-0.029 0.324,0.029 0.277,0.07C0.231,0.111 0.177,0.132 0.116,0.132L0.116,0.035Z" style="fill-rule:nonzero;"/>
                </g>
            </g>
        </g>
        <g transform="matrix(0.839063,0,0,0.359259,0,0)">
            <g transform="matrix(0.47597,0,0,1.11164,266.305,-78.7849)">
                <g transform="matrix(60,0,0,60,268,349)">
                    <path d="M0.273,0.013C0.216,0.013 0.172,0.003 0.14,-0.017C0.107,-0.037 0.084,-0.068 0.07,-0.111C0.055,-0.153 0.048,-0.21 0.048,-0.281C0.048,-0.352 0.055,-0.408 0.07,-0.451C0.084,-0.493 0.107,-0.525 0.14,-0.545C0.172,-0.565 0.216,-0.575 0.273,-0.575C0.329,-0.575 0.374,-0.565 0.406,-0.545C0.439,-0.525 0.463,-0.493 0.477,-0.451C0.491,-0.408 0.498,-0.352 0.498,-0.281C0.498,-0.21 0.491,-0.153 0.477,-0.111C0.463,-0.068 0.439,-0.037 0.406,-0.017C0.374,0.003 0.329,0.013 0.273,0.013ZM0.273,-0.084C0.304,-0.084 0.329,-0.09 0.346,-0.101C0.363,-0.113 0.375,-0.133 0.383,-0.161C0.39,-0.19 0.394,-0.229 0.394,-0.281C0.394,-0.332 0.39,-0.372 0.383,-0.4C0.375,-0.429 0.363,-0.449 0.346,-0.46C0.329,-0.472 0.304,-0.478 0.273,-0.478C0.241,-0.478 0.217,-0.472 0.2,-0.46C0.183,-0.449 0.171,-0.429 0.164,-0.4C0.156,-0.372 0.153,-0.332 0.153,-0.281C0.153,-0.229 0.156,-0.19 0.164,-0.161C0.171,-0.133 0.183,-0.113 0.2,-0.101C0.217,-0.09 0.241,-0.084 0.273,-0.084Z" style="fill-rule:nonzero;"/>
                </g>
                <g transform="matrix(60,0,0,60,300.727,349)">
                    <path d="M0.284,0.013C0.23,0.013 0.187,0.006 0.155,-0.009C0.123,-0.023 0.092,-0.048 0.065,-0.084L0.065,-0.727L0.169,-0.727L0.169,-0.555C0.204,-0.568 0.242,-0.575 0.284,-0.575C0.338,-0.575 0.381,-0.565 0.413,-0.545C0.445,-0.525 0.468,-0.493 0.482,-0.451C0.496,-0.408 0.503,-0.352 0.503,-0.28C0.503,-0.209 0.496,-0.152 0.482,-0.11C0.468,-0.068 0.445,-0.037 0.413,-0.017C0.381,0.003 0.338,0.013 0.284,0.013ZM0.284,-0.084C0.313,-0.084 0.336,-0.09 0.353,-0.101C0.369,-0.113 0.381,-0.133 0.388,-0.161C0.395,-0.189 0.398,-0.228 0.398,-0.28C0.398,-0.332 0.395,-0.371 0.388,-0.4C0.381,-0.428 0.369,-0.448 0.353,-0.46C0.336,-0.472 0.313,-0.478 0.284,-0.478C0.252,-0.478 0.228,-0.475 0.212,-0.468C0.196,-0.461 0.185,-0.448 0.179,-0.43C0.172,-0.412 0.169,-0.385 0.169,-0.349L0.169,-0.117C0.184,-0.104 0.199,-0.095 0.215,-0.09C0.23,-0.086 0.253,-0.084 0.284,-0.084Z" style="fill-rule:nonzero;"/>
                </g>
                <g transform="matrix(60,0,0,60,333.455,349)">
                    <path d="M0.216,0.178C0.174,0.178 0.14,0.172 0.115,0.161C0.09,0.149 0.065,0.129 0.04,0.099L0.116,0.034C0.133,0.054 0.148,0.067 0.16,0.073C0.171,0.079 0.19,0.082 0.216,0.082C0.248,0.082 0.272,0.078 0.288,0.069C0.304,0.061 0.315,0.046 0.322,0.025C0.328,0.003 0.332,-0.028 0.332,-0.07L0.332,-0.465L0.217,-0.465L0.217,-0.562L0.436,-0.562L0.436,-0.07C0.436,-0.008 0.429,0.041 0.415,0.076C0.401,0.112 0.378,0.138 0.346,0.154C0.315,0.17 0.272,0.178 0.216,0.178ZM0.362,-0.644C0.332,-0.644 0.311,-0.649 0.3,-0.66C0.288,-0.67 0.283,-0.69 0.283,-0.718C0.283,-0.747 0.288,-0.766 0.3,-0.777C0.311,-0.787 0.332,-0.793 0.362,-0.793C0.392,-0.793 0.413,-0.787 0.425,-0.777C0.436,-0.766 0.442,-0.747 0.442,-0.718C0.442,-0.69 0.436,-0.67 0.425,-0.66C0.413,-0.649 0.392,-0.644 0.362,-0.644Z" style="fill-rule:nonzero;"/>
                </g>
                <g transform="matrix(60,0,0,60,366.182,349)">
                    <path d="M0.273,0.013C0.241,0.013 0.22,0.007 0.208,-0.004C0.196,-0.015 0.19,-0.035 0.19,-0.064C0.19,-0.093 0.196,-0.113 0.208,-0.124C0.22,-0.135 0.241,-0.141 0.273,-0.141C0.304,-0.141 0.326,-0.135 0.338,-0.124C0.35,-0.113 0.355,-0.093 0.355,-0.064C0.355,-0.035 0.35,-0.015 0.338,-0.004C0.326,0.007 0.304,0.013 0.273,0.013Z" style="fill-rule:nonzero;"/>
                </g>
                <g transform="matrix(60,0,0,60,431.636,349)">
                    <rect x="-0.548" y="0.069" width="1.096" height="0.096" style="fill:rgb(17,157,103);fill-rule:nonzero;"/>
                </g>
                <g transform="matrix(60,0,0,60,464.364,349)">
                    <path d="M0.25,0.013C0.2,0.013 0.16,0.004 0.13,-0.015C0.101,-0.033 0.075,-0.065 0.051,-0.111L0.134,-0.179C0.146,-0.151 0.156,-0.131 0.165,-0.118C0.174,-0.105 0.185,-0.097 0.197,-0.091C0.21,-0.086 0.228,-0.084 0.25,-0.084C0.292,-0.084 0.323,-0.086 0.345,-0.091C0.366,-0.096 0.38,-0.104 0.388,-0.115C0.396,-0.126 0.4,-0.142 0.4,-0.164C0.4,-0.185 0.397,-0.2 0.39,-0.21C0.384,-0.22 0.373,-0.227 0.356,-0.232C0.34,-0.237 0.312,-0.242 0.274,-0.246C0.2,-0.255 0.147,-0.272 0.115,-0.295C0.082,-0.318 0.065,-0.355 0.065,-0.405C0.065,-0.446 0.073,-0.479 0.088,-0.503C0.103,-0.528 0.128,-0.546 0.161,-0.557C0.194,-0.569 0.239,-0.575 0.295,-0.575C0.349,-0.575 0.39,-0.567 0.42,-0.551C0.45,-0.535 0.477,-0.507 0.501,-0.467L0.425,-0.393C0.411,-0.418 0.4,-0.436 0.39,-0.447C0.38,-0.459 0.368,-0.467 0.355,-0.471C0.341,-0.476 0.321,-0.478 0.295,-0.478C0.261,-0.478 0.235,-0.476 0.217,-0.472C0.199,-0.468 0.187,-0.46 0.18,-0.45C0.173,-0.44 0.17,-0.425 0.17,-0.405C0.17,-0.391 0.174,-0.38 0.181,-0.373C0.188,-0.365 0.199,-0.36 0.214,-0.356C0.228,-0.353 0.251,-0.349 0.281,-0.345C0.338,-0.336 0.383,-0.326 0.415,-0.313C0.447,-0.301 0.47,-0.283 0.484,-0.26C0.498,-0.236 0.505,-0.204 0.505,-0.164C0.505,-0.121 0.497,-0.087 0.48,-0.061C0.464,-0.036 0.437,-0.017 0.4,-0.005C0.362,0.007 0.312,0.013 0.25,0.013Z" style="fill:rgb(17,157,103);fill-rule:nonzero;"/>
                </g>
                <g transform="matrix(60,0,0,60,497.091,349)">
                    <path d="M0.275,-0.575C0.334,-0.575 0.38,-0.564 0.413,-0.542C0.446,-0.521 0.47,-0.487 0.483,-0.44C0.497,-0.394 0.503,-0.332 0.502,-0.253L0.141,-0.253C0.143,-0.209 0.148,-0.175 0.157,-0.151C0.166,-0.127 0.179,-0.109 0.198,-0.099C0.217,-0.089 0.243,-0.084 0.275,-0.084C0.299,-0.084 0.318,-0.086 0.333,-0.09C0.348,-0.095 0.362,-0.103 0.374,-0.115C0.387,-0.127 0.401,-0.145 0.418,-0.168L0.502,-0.113C0.472,-0.066 0.44,-0.033 0.406,-0.015C0.373,0.003 0.329,0.013 0.275,0.013C0.215,0.013 0.168,0.003 0.133,-0.017C0.098,-0.037 0.073,-0.068 0.058,-0.111C0.043,-0.153 0.035,-0.21 0.035,-0.281C0.035,-0.352 0.043,-0.408 0.058,-0.451C0.073,-0.493 0.098,-0.525 0.133,-0.545C0.168,-0.565 0.215,-0.575 0.275,-0.575ZM0.395,-0.349C0.391,-0.382 0.385,-0.408 0.377,-0.426C0.369,-0.445 0.357,-0.458 0.34,-0.466C0.324,-0.474 0.303,-0.478 0.275,-0.478C0.245,-0.478 0.221,-0.474 0.203,-0.466C0.185,-0.458 0.171,-0.445 0.161,-0.426C0.152,-0.408 0.146,-0.382 0.143,-0.349L0.395,-0.349Z" style="fill:rgb(17,157,103);fill-rule:nonzero;"/>
                </g>
                <g transform="matrix(60,0,0,60,529.818,349)">
                    <path d="M0.332,0.013C0.288,0.013 0.252,0.005 0.225,-0.01C0.199,-0.025 0.179,-0.049 0.167,-0.082C0.154,-0.115 0.148,-0.159 0.148,-0.213L0.148,-0.476L0.035,-0.476L0.035,-0.573L0.148,-0.573L0.148,-0.727L0.253,-0.727L0.253,-0.573L0.441,-0.573L0.441,-0.476L0.253,-0.476L0.253,-0.213C0.253,-0.179 0.255,-0.153 0.26,-0.134C0.265,-0.116 0.273,-0.103 0.284,-0.095C0.295,-0.087 0.311,-0.084 0.332,-0.084C0.354,-0.084 0.37,-0.085 0.38,-0.088C0.39,-0.091 0.398,-0.097 0.402,-0.105C0.407,-0.112 0.412,-0.126 0.418,-0.145L0.516,-0.112C0.507,-0.08 0.495,-0.056 0.481,-0.038C0.466,-0.02 0.447,-0.007 0.424,0.001C0.401,0.009 0.37,0.013 0.332,0.013Z" style="fill:rgb(17,157,103);fill-rule:nonzero;"/>
                </g>
                <g transform="matrix(60,0,0,60,562.545,349)">
                    <path d="M0.349,-0.562L0.349,-0.096L0.508,-0.096L0.508,-0L0.085,-0L0.085,-0.096L0.245,-0.096L0.245,-0.465L0.13,-0.465L0.13,-0.562L0.349,-0.562ZM0.28,-0.644C0.25,-0.644 0.229,-0.649 0.218,-0.66C0.207,-0.67 0.201,-0.69 0.201,-0.718C0.201,-0.747 0.207,-0.766 0.218,-0.777C0.229,-0.787 0.25,-0.793 0.28,-0.793C0.31,-0.793 0.331,-0.787 0.343,-0.777C0.354,-0.766 0.36,-0.747 0.36,-0.718C0.36,-0.69 0.354,-0.67 0.343,-0.66C0.331,-0.649 0.31,-0.644 0.28,-0.644Z" style="fill:rgb(17,157,103);fill-rule:nonzero;"/>
                </g>
                <g transform="matrix(60,0,0,60,595.273,349)">
                    <path d="M0.332,0.013C0.288,0.013 0.252,0.005 0.225,-0.01C0.199,-0.025 0.179,-0.049 0.167,-0.082C0.154,-0.115 0.148,-0.159 0.148,-0.213L0.148,-0.476L0.035,-0.476L0.035,-0.573L0.148,-0.573L0.148,-0.727L0.253,-0.727L0.253,-0.573L0.441,-0.573L0.441,-0.476L0.253,-0.476L0.253,-0.213C0.253,-0.179 0.255,-0.153 0.26,-0.134C0.265,-0.116 0.273,-0.103 0.284,-0.095C0.295,-0.087 0.311,-0.084 0.332,-0.084C0.354,-0.084 0.37,-0.085 0.38,-0.088C0.39,-0.091 0.398,-0.097 0.402,-0.105C0.407,-0.112 0.412,-0.126 0.418,-0.145L0.516,-0.112C0.507,-0.08 0.495,-0.056 0.481,-0.038C0.466,-0.02 0.447,-0.007 0.424,0.001C0.401,0.009 0.37,0.013 0.332,0.013Z" style="fill:rgb(17,157,103);fill-rule:nonzero;"/>
                </g>
                <g transform="matrix(60,0,0,60,628,349)">
                    <path d="M0.275,-0.575C0.334,-0.575 0.38,-0.564 0.413,-0.542C0.446,-0.521 0.47,-0.487 0.483,-0.44C0.497,-0.394 0.503,-0.332 0.502,-0.253L0.141,-0.253C0.143,-0.209 0.148,-0.175 0.157,-0.151C0.166,-0.127 0.179,-0.109 0.198,-0.099C0.217,-0.089 0.243,-0.084 0.275,-0.084C0.299,-0.084 0.318,-0.086 0.333,-0.09C0.348,-0.095 0.362,-0.103 0.374,-0.115C0.387,-0.127 0.401,-0.145 0.418,-0.168L0.502,-0.113C0.472,-0.066 0.44,-0.033 0.406,-0.015C0.373,0.003 0.329,0.013 0.275,0.013C0.215,0.013 0.168,0.003 0.133,-0.017C0.098,-0.037 0.073,-0.068 0.058,-0.111C0.043,-0.153 0.035,-0.21 0.035,-0.281C0.035,-0.352 0.043,-0.408 0.058,-0.451C0.073,-0.493 0.098,-0.525 0.133,-0.545C0.168,-0.565 0.215,-0.575 0.275,-0.575ZM0.395,-0.349C0.391,-0.382 0.385,-0.408 0.377,-0.426C0.369,-0.445 0.357,-0.458 0.34,-0.466C0.324,-0.474 0.303,-0.478 0.275,-0.478C0.245,-0.478 0.221,-0.474 0.203,-0.466C0.185,-0.458 0.171,-0.445 0.161,-0.426C0.152,-0.408 0.146,-0.382 0.143,-0.349L0.395,-0.349Z" style="fill:rgb(17,157,103);fill-rule:nonzero;"/>
                </g>
                <g transform="matrix(60,0,0,60,660.727,349)">
                    <path d="M0.022,-0L0.022,-0.562L0.126,-0.562L0.126,-0.565C0.154,-0.571 0.175,-0.574 0.192,-0.574C0.215,-0.574 0.233,-0.57 0.246,-0.564C0.259,-0.558 0.272,-0.546 0.284,-0.528C0.299,-0.546 0.315,-0.558 0.33,-0.564C0.344,-0.57 0.365,-0.574 0.39,-0.574C0.425,-0.574 0.451,-0.567 0.47,-0.552C0.49,-0.538 0.503,-0.514 0.511,-0.481C0.52,-0.448 0.524,-0.401 0.524,-0.342L0.524,-0L0.419,-0L0.419,-0.342C0.419,-0.39 0.417,-0.424 0.412,-0.442C0.407,-0.46 0.398,-0.469 0.385,-0.469C0.369,-0.469 0.358,-0.466 0.349,-0.459C0.341,-0.452 0.335,-0.44 0.331,-0.423C0.327,-0.406 0.325,-0.382 0.325,-0.352L0.325,-0L0.221,-0L0.221,-0.336C0.221,-0.387 0.218,-0.421 0.213,-0.44C0.208,-0.46 0.199,-0.469 0.186,-0.469C0.171,-0.469 0.158,-0.466 0.15,-0.459C0.142,-0.452 0.135,-0.44 0.132,-0.423C0.128,-0.406 0.126,-0.382 0.126,-0.352L0.126,-0L0.022,-0Z" style="fill:rgb(17,157,103);fill-rule:nonzero;"/>
                </g>
                <g transform="matrix(60,0,0,60,726.182,349)">
                    <rect x="-0.548" y="0.069" width="1.096" height="0.096" style="fill:rgb(17,157,103);fill-rule:nonzero;"/>
                </g>
                <g transform="matrix(60,0,0,60,758.909,349)">
                    <path d="M0.43,0.132C0.369,0.132 0.316,0.111 0.269,0.07C0.222,0.029 0.186,-0.029 0.161,-0.104C0.135,-0.179 0.123,-0.265 0.123,-0.364C0.123,-0.462 0.135,-0.548 0.161,-0.623C0.186,-0.698 0.222,-0.756 0.269,-0.797C0.316,-0.838 0.369,-0.859 0.43,-0.859L0.43,-0.763C0.39,-0.763 0.355,-0.746 0.324,-0.713C0.293,-0.68 0.27,-0.633 0.253,-0.573C0.236,-0.513 0.227,-0.443 0.227,-0.364C0.227,-0.284 0.236,-0.214 0.253,-0.154C0.27,-0.094 0.293,-0.047 0.324,-0.014C0.355,0.019 0.39,0.035 0.43,0.035L0.43,0.132Z" style="fill-rule:nonzero;"/>
                </g>
                <g transform="matrix(60,0,0,60,791.636,349)">
                    <path d="M0.325,-0.096L0.455,-0.096L0.455,-0L0.092,-0L0.092,-0.096L0.221,-0.096L0.221,-0.525C0.18,-0.501 0.131,-0.489 0.074,-0.489L0.074,-0.586C0.123,-0.586 0.159,-0.598 0.183,-0.62C0.207,-0.643 0.219,-0.679 0.219,-0.727L0.325,-0.727L0.325,-0.096Z" style="fill-rule:nonzero;"/>
                </g>
                <g transform="matrix(60,0,0,60,824.364,349)">
                    <path d="M0.168,0.178C0.199,0.136 0.22,0.103 0.232,0.079C0.244,0.055 0.25,0.034 0.25,0.014C0.227,0.014 0.211,0.008 0.203,-0.003C0.194,-0.014 0.19,-0.034 0.19,-0.064C0.19,-0.093 0.196,-0.113 0.208,-0.124C0.22,-0.135 0.241,-0.141 0.273,-0.141C0.304,-0.141 0.326,-0.135 0.338,-0.124C0.35,-0.113 0.355,-0.093 0.355,-0.064C0.355,-0.019 0.348,0.021 0.332,0.056C0.317,0.091 0.289,0.132 0.248,0.178L0.168,0.178Z" style="fill-rule:nonzero;"/>
                </g>
                <g transform="matrix(60,0,0,60,889.818,349)">
                    <path d="M0.319,-0L0.225,-0L0.022,-0.562L0.129,-0.562L0.272,-0.155L0.415,-0.562L0.523,-0.562L0.319,-0Z" style="fill-rule:nonzero;"/>
                </g>
                <g transform="matrix(60,0,0,60,922.545,349)">
                    <path d="M0.249,0.013C0.196,0.013 0.153,0.007 0.121,-0.005C0.09,-0.018 0.067,-0.037 0.052,-0.062C0.038,-0.088 0.031,-0.122 0.031,-0.165C0.031,-0.214 0.038,-0.251 0.052,-0.278C0.066,-0.304 0.088,-0.323 0.12,-0.333C0.151,-0.344 0.194,-0.349 0.249,-0.349L0.364,-0.349L0.364,-0.369C0.364,-0.395 0.36,-0.414 0.354,-0.428C0.348,-0.442 0.336,-0.452 0.32,-0.458C0.304,-0.463 0.28,-0.466 0.249,-0.466C0.224,-0.466 0.204,-0.464 0.191,-0.459C0.178,-0.453 0.167,-0.444 0.16,-0.431C0.153,-0.418 0.146,-0.397 0.139,-0.37L0.039,-0.395C0.05,-0.438 0.064,-0.472 0.08,-0.498C0.096,-0.524 0.118,-0.543 0.145,-0.556C0.173,-0.568 0.207,-0.575 0.249,-0.575C0.328,-0.575 0.384,-0.558 0.418,-0.524C0.451,-0.49 0.468,-0.439 0.468,-0.369L0.468,-0.156C0.468,-0.132 0.471,-0.115 0.475,-0.107C0.48,-0.099 0.491,-0.095 0.506,-0.095C0.511,-0.095 0.522,-0.096 0.539,-0.097L0.539,-0.001C0.532,-0 0.522,-0 0.509,-0C0.456,-0 0.42,-0.012 0.4,-0.036C0.384,-0.019 0.363,-0.006 0.339,0.001C0.315,0.009 0.285,0.013 0.249,0.013ZM0.249,-0.084C0.28,-0.084 0.304,-0.087 0.32,-0.095C0.336,-0.102 0.348,-0.114 0.354,-0.132C0.36,-0.149 0.364,-0.175 0.364,-0.208L0.364,-0.253L0.249,-0.253C0.215,-0.253 0.19,-0.251 0.175,-0.248C0.161,-0.244 0.151,-0.237 0.145,-0.225C0.138,-0.213 0.135,-0.193 0.135,-0.165C0.135,-0.143 0.138,-0.126 0.145,-0.115C0.151,-0.104 0.162,-0.096 0.178,-0.091C0.194,-0.086 0.218,-0.084 0.249,-0.084Z" style="fill-rule:nonzero;"/>
                </g>
                <g transform="matrix(60,0,0,60,955.273,349)">
                    <path d="M0.366,0.013C0.324,0.013 0.291,0.006 0.268,-0.006C0.244,-0.019 0.228,-0.04 0.218,-0.07C0.208,-0.1 0.203,-0.142 0.203,-0.195L0.203,-0.631L0.088,-0.631L0.088,-0.727L0.307,-0.727L0.307,-0.195C0.307,-0.153 0.312,-0.124 0.32,-0.108C0.328,-0.092 0.344,-0.084 0.366,-0.084C0.377,-0.084 0.389,-0.087 0.401,-0.095C0.414,-0.102 0.431,-0.115 0.454,-0.134L0.512,-0.045C0.485,-0.023 0.461,-0.008 0.44,0C0.42,0.009 0.395,0.013 0.366,0.013Z" style="fill-rule:nonzero;"/>
                </g>
                <g transform="matrix(60,0,0,60,988,349)">
                    <path d="M0.257,0.013C0.208,0.013 0.169,0.005 0.141,-0.01C0.112,-0.024 0.092,-0.048 0.079,-0.082C0.066,-0.115 0.06,-0.161 0.06,-0.218L0.06,-0.562L0.165,-0.562L0.165,-0.218C0.165,-0.181 0.167,-0.152 0.172,-0.134C0.177,-0.115 0.187,-0.102 0.2,-0.095C0.213,-0.087 0.232,-0.084 0.257,-0.084C0.295,-0.084 0.323,-0.087 0.341,-0.093C0.36,-0.099 0.373,-0.11 0.38,-0.125C0.387,-0.14 0.391,-0.163 0.391,-0.194L0.391,-0.562L0.496,-0.562L0.496,-0L0.391,-0L0.391,-0.009C0.359,0.005 0.315,0.013 0.257,0.013Z" style="fill-rule:nonzero;"/>
                </g>
                <g transform="matrix(60,0,0,60,1020.73,349)">
                    <path d="M0.275,-0.575C0.334,-0.575 0.38,-0.564 0.413,-0.542C0.446,-0.521 0.47,-0.487 0.483,-0.44C0.497,-0.394 0.503,-0.332 0.502,-0.253L0.141,-0.253C0.143,-0.209 0.148,-0.175 0.157,-0.151C0.166,-0.127 0.179,-0.109 0.198,-0.099C0.217,-0.089 0.243,-0.084 0.275,-0.084C0.299,-0.084 0.318,-0.086 0.333,-0.09C0.348,-0.095 0.362,-0.103 0.374,-0.115C0.387,-0.127 0.401,-0.145 0.418,-0.168L0.502,-0.113C0.472,-0.066 0.44,-0.033 0.406,-0.015C0.373,0.003 0.329,0.013 0.275,0.013C0.215,0.013 0.168,0.003 0.133,-0.017C0.098,-0.037 0.073,-0.068 0.058,-0.111C0.043,-0.153 0.035,-0.21 0.035,-0.281C0.035,-0.352 0.043,-0.408 0.058,-0.451C0.073,-0.493 0.098,-0.525 0.133,-0.545C0.168,-0.565 0.215,-0.575 0.275,-0.575ZM0.395,-0.349C0.391,-0.382 0.385,-0.408 0.377,-0.426C0.369,-0.445 0.357,-0.458 0.34,-0.466C0.324,-0.474 0.303,-0.478 0.275,-0.478C0.245,-0.478 0.221,-0.474 0.203,-0.466C0.185,-0.458 0.171,-0.445 0.161,-0.426C0.152,-0.408 0.146,-0.382 0.143,-0.349L0.395,-0.349Z" style="fill-rule:nonzero;"/>
                </g>
                <g transform="matrix(60,0,0,60,1053.45,349)">
                    <path d="M0.116,0.035C0.156,0.035 0.192,0.019 0.222,-0.014C0.253,-0.047 0.277,-0.094 0.294,-0.154C0.311,-0.214 0.319,-0.284 0.319,-0.364C0.319,-0.443 0.311,-0.513 0.294,-0.573C0.277,-0.633 0.253,-0.68 0.222,-0.713C0.192,-0.746 0.156,-0.763 0.116,-0.763L0.116,-0.859C0.177,-0.859 0.231,-0.838 0.277,-0.797C0.324,-0.756 0.36,-0.698 0.385,-0.623C0.411,-0.548 0.424,-0.462 0.424,-0.364C0.424,-0.265 0.411,-0.179 0.385,-0.104C0.36,-0.029 0.324,0.029 0.277,0.07C0.231,0.111 0.177,0.132 0.116,0.132L0.116,0.035Z" style="fill-rule:nonzero;"/>
                </g>
            </g>
        </g>
        <g transform="matrix(0.839063,0,0,0.359259,0,0)">
            <g transform="matrix(0.47597,0,0,1.11164,266.305,55.9868)">
                <g transform="matrix(60,0,0,60,268,349)">
                    <path d="M0.273,0.013C0.216,0.013 0.172,0.003 0.14,-0.017C0.107,-0.037 0.084,-0.068 0.07,-0.111C0.055,-0.153 0.048,-0.21 0.048,-0.281C0.048,-0.352 0.055,-0.408 0.07,-0.451C0.084,-0.493 0.107,-0.525 0.14,-0.545C0.172,-0.565 0.216,-0.575 0.273,-0.575C0.329,-0.575 0.374,-0.565 0.406,-0.545C0.439,-0.525 0.463,-0.493 0.477,-0.451C0.491,-0.408 0.498,-0.352 0.498,-0.281C0.498,-0.21 0.491,-0.153 0.477,-0.111C0.463,-0.068 0.439,-0.037 0.406,-0.017C0.374,0.003 0.329,0.013 0.273,0.013ZM0.273,-0.084C0.304,-0.084 0.329,-0.09 0.346,-0.101C0.363,-0.113 0.375,-0.133 0.383,-0.161C0.39,-0.19 0.394,-0.229 0.394,-0.281C0.394,-0.332 0.39,-0.372 0.383,-0.4C0.375,-0.429 0.363,-0.449 0.346,-0.46C0.329,-0.472 0.304,-0.478 0.273,-0.478C0.241,-0.478 0.217,-0.472 0.2,-0.46C0.183,-0.449 0.171,-0.429 0.164,-0.4C0.156,-0.372 0.153,-0.332 0.153,-0.281C0.153,-0.229 0.156,-0.19 0.164,-0.161C0.171,-0.133 0.183,-0.113 0.2,-0.101C0.217,-0.09 0.241,-0.084 0.273,-0.084Z" style="fill-rule:nonzero;"/>
                </g>
                <g transform="matrix(60,0,0,60,300.727,349)">
                    <path d="M0.284,0.013C0.23,0.013 0.187,0.006 0.155,-0.009C0.123,-0.023 0.092,-0.048 0.065,-0.084L0.065,-0.727L0.169,-0.727L0.169,-0.555C0.204,-0.568 0.242,-0.575 0.284,-0.575C0.338,-0.575 0.381,-0.565 0.413,-0.545C0.445,-0.525 0.468,-0.493 0.482,-0.451C0.496,-0.408 0.503,-0.352 0.503,-0.28C0.503,-0.209 0.496,-0.152 0.482,-0.11C0.468,-0.068 0.445,-0.037 0.413,-0.017C0.381,0.003 0.338,0.013 0.284,0.013ZM0.284,-0.084C0.313,-0.084 0.336,-0.09 0.353,-0.101C0.369,-0.113 0.381,-0.133 0.388,-0.161C0.395,-0.189 0.398,-0.228 0.398,-0.28C0.398,-0.332 0.395,-0.371 0.388,-0.4C0.381,-0.428 0.369,-0.448 0.353,-0.46C0.336,-0.472 0.313,-0.478 0.284,-0.478C0.252,-0.478 0.228,-0.475 0.212,-0.468C0.196,-0.461 0.185,-0.448 0.179,-0.43C0.172,-0.412 0.169,-0.385 0.169,-0.349L0.169,-0.117C0.184,-0.104 0.199,-0.095 0.215,-0.09C0.23,-0.086 0.253,-0.084 0.284,-0.084Z" style="fill-rule:nonzero;"/>
                </g>
                <g transform="matrix(60,0,0,60,333.455,349)">
                    <path d="M0.216,0.178C0.174,0.178 0.14,0.172 0.115,0.161C0.09,0.149 0.065,0.129 0.04,0.099L0.116,0.034C0.133,0.054 0.148,0.067 0.16,0.073C0.171,0.079 0.19,0.082 0.216,0.082C0.248,0.082 0.272,0.078 0.288,0.069C0.304,0.061 0.315,0.046 0.322,0.025C0.328,0.003 0.332,-0.028 0.332,-0.07L0.332,-0.465L0.217,-0.465L0.217,-0.562L0.436,-0.562L0.436,-0.07C0.436,-0.008 0.429,0.041 0.415,0.076C0.401,0.112 0.378,0.138 0.346,0.154C0.315,0.17 0.272,0.178 0.216,0.178ZM0.362,-0.644C0.332,-0.644 0.311,-0.649 0.3,-0.66C0.288,-0.67 0.283,-0.69 0.283,-0.718C0.283,-0.747 0.288,-0.766 0.3,-0.777C0.311,-0.787 0.332,-0.793 0.362,-0.793C0.392,-0.793 0.413,-0.787 0.425,-0.777C0.436,-0.766 0.442,-0.747 0.442,-0.718C0.442,-0.69 0.436,-0.67 0.425,-0.66C0.413,-0.649 0.392,-0.644 0.362,-0.644Z" style="fill-rule:nonzero;"/>
                </g>
                <g transform="matrix(60,0,0,60,366.182,349)">
                    <path d="M0.273,0.013C0.241,0.013 0.22,0.007 0.208,-0.004C0.196,-0.015 0.19,-0.035 0.19,-0.064C0.19,-0.093 0.196,-0.113 0.208,-0.124C0.22,-0.135 0.241,-0.141 0.273,-0.141C0.304,-0.141 0.326,-0.135 0.338,-0.124C0.35,-0.113 0.355,-0.093 0.355,-0.064C0.355,-0.035 0.35,-0.015 0.338,-0.004C0.326,0.007 0.304,0.013 0.273,0.013Z" style="fill-rule:nonzero;"/>
                </g>
                <g transform="matrix(60,0,0,60,431.636,349)">
                    <rect x="-0.548" y="0.069" width="1.096" height="0.096" style="fill:rgb(0,96,217);fill-rule:nonzero;"/>
                </g>
                <g transform="matrix(60,0,0,60,464.364,349)">
                    <path d="M0.366,0.013C0.324,0.013 0.291,0.006 0.268,-0.006C0.244,-0.019 0.228,-0.04 0.218,-0.07C0.208,-0.1 0.203,-0.142 0.203,-0.195L0.203,-0.631L0.088,-0.631L0.088,-0.727L0.307,-0.727L0.307,-0.195C0.307,-0.153 0.312,-0.124 0.32,-0.108C0.328,-0.092 0.344,-0.084 0.366,-0.084C0.377,-0.084 0.389,-0.087 0.401,-0.095C0.414,-0.102 0.431,-0.115 0.454,-0.134L0.512,-0.045C0.485,-0.023 0.461,-0.008 0.44,0C0.42,0.009 0.395,0.013 0.366,0.013Z" style="fill:rgb(0,96,217);fill-rule:nonzero;"/>
                </g>
                <g transform="matrix(60,0,0,60,497.091,349)">
                    <path d="M0.275,-0.575C0.334,-0.575 0.38,-0.564 0.413,-0.542C0.446,-0.521 0.47,-0.487 0.483,-0.44C0.497,-0.394 0.503,-0.332 0.502,-0.253L0.141,-0.253C0.143,-0.209 0.148,-0.175 0.157,-0.151C0.166,-0.127 0.179,-0.109 0.198,-0.099C0.217,-0.089 0.243,-0.084 0.275,-0.084C0.299,-0.084 0.318,-0.086 0.333,-0.09C0.348,-0.095 0.362,-0.103 0.374,-0.115C0.387,-0.127 0.401,-0.145 0.418,-0.168L0.502,-0.113C0.472,-0.066 0.44,-0.033 0.406,-0.015C0.373,0.003 0.329,0.013 0.275,0.013C0.215,0.013 0.168,0.003 0.133,-0.017C0.098,-0.037 0.073,-0.068 0.058,-0.111C0.043,-0.153 0.035,-0.21 0.035,-0.281C0.035,-0.352 0.043,-0.408 0.058,-0.451C0.073,-0.493 0.098,-0.525 0.133,-0.545C0.168,-0.565 0.215,-0.575 0.275,-0.575ZM0.395,-0.349C0.391,-0.382 0.385,-0.408 0.377,-0.426C0.369,-0.445 0.357,-0.458 0.34,-0.466C0.324,-0.474 0.303,-0.478 0.275,-0.478C0.245,-0.478 0.221,-0.474 0.203,-0.466C0.185,-0.458 0.171,-0.445 0.161,-0.426C0.152,-0.408 0.146,-0.382 0.143,-0.349L0.395,-0.349Z" style="fill:rgb(0,96,217);fill-rule:nonzero;"/>
                </g>
                <g transform="matrix(60,0,0,60,529.818,349)">
                    <path d="M0.06,-0L0.06,-0.562L0.165,-0.562L0.165,-0.548C0.203,-0.566 0.247,-0.575 0.298,-0.575C0.35,-0.575 0.39,-0.567 0.418,-0.553C0.446,-0.539 0.466,-0.515 0.478,-0.481C0.49,-0.448 0.496,-0.4 0.496,-0.339L0.496,-0L0.391,-0L0.391,-0.339C0.391,-0.375 0.388,-0.403 0.382,-0.423C0.377,-0.443 0.367,-0.457 0.354,-0.465C0.341,-0.474 0.322,-0.478 0.298,-0.478C0.259,-0.478 0.23,-0.475 0.211,-0.468C0.193,-0.461 0.18,-0.448 0.174,-0.431C0.168,-0.413 0.165,-0.386 0.165,-0.349L0.165,-0L0.06,-0Z" style="fill:rgb(0,96,217);fill-rule:nonzero;"/>
                </g>
                <g transform="matrix(60,0,0,60,595.273,349)">
                    <rect x="-0.548" y="0.069" width="1.096" height="0.096" style="fill:rgb(0,96,217);fill-rule:nonzero;"/>
                </g>
                <g transform="matrix(60,0,0,60,628,349)">
                    <path d="M0.43,0.132C0.369,0.132 0.316,0.111 0.269,0.07C0.222,0.029 0.186,-0.029 0.161,-0.104C0.135,-0.179 0.123,-0.265 0.123,-0.364C0.123,-0.462 0.135,-0.548 0.161,-0.623C0.186,-0.698 0.222,-0.756 0.269,-0.797C0.316,-0.838 0.369,-0.859 0.43,-0.859L0.43,-0.763C0.39,-0.763 0.355,-0.746 0.324,-0.713C0.293,-0.68 0.27,-0.633 0.253,-0.573C0.236,-0.513 0.227,-0.443 0.227,-0.364C0.227,-0.284 0.236,-0.214 0.253,-0.154C0.27,-0.094 0.293,-0.047 0.324,-0.014C0.355,0.019 0.39,0.035 0.43,0.035L0.43,0.132Z" style="fill-rule:nonzero;"/>
                </g>
                <g transform="matrix(60,0,0,60,660.727,349)">
                    <path d="M0.116,0.035C0.156,0.035 0.192,0.019 0.222,-0.014C0.253,-0.047 0.277,-0.094 0.294,-0.154C0.311,-0.214 0.319,-0.284 0.319,-0.364C0.319,-0.443 0.311,-0.513 0.294,-0.573C0.277,-0.633 0.253,-0.68 0.222,-0.713C0.192,-0.746 0.156,-0.763 0.116,-0.763L0.116,-0.859C0.177,-0.859 0.231,-0.838 0.277,-0.797C0.324,-0.756 0.36,-0.698 0.385,-0.623C0.411,-0.548 0.424,-0.462 0.424,-0.364C0.424,-0.265 0.411,-0.179 0.385,-0.104C0.36,-0.029 0.324,0.029 0.277,0.07C0.231,0.111 0.177,0.132 0.116,0.132L0.116,0.035Z" style="fill-rule:nonzero;"/>
                </g>
            </g>
        </g>
        <g transform="matrix(0.839063,0,0,0.359259,0,0)">
            <g transform="matrix(0.47597,0,0,1.11164,-91.1314,-473.762)">
                <path d="M850,579.15L850,598L821,569L850,540L850,558.85L952,558.85L952,540L981,569L952,598L952,579.15L850,579.15Z" style="fill:rgb(115,115,115);"/>
            </g>
        </g>
        <g transform="matrix(0.839063,0,0,0.359259,0,0)">
            <g transform="matrix(0.47597,0,0,1.11164,-91.1314,-343.7)">
                <path d="M850,579.15L850,598L821,569L850,540L850,558.85L952,558.85L952,540L981,569L952,598L952,579.15L850,579.15Z" style="fill:rgb(115,115,115);"/>
            </g>
        </g>
        <g transform="matrix(0.839063,0,0,0.359259,0,0)">
            <g transform="matrix(0.47597,0,0,1.11164,-91.1314,-208.928)">
                <path d="M850,579.15L850,598L821,569L850,540L850,558.85L952,558.85L952,540L981,569L952,598L952,579.15L850,579.15Z" style="fill:rgb(115,115,115);"/>
            </g>
        </g>
    </g>
</svg>
