<?xml version="1.0" encoding="UTF-8" standalone="no"?>
<!DOCTYPE svg PUBLIC "-//W3C//DTD SVG 1.1//EN" "http://www.w3.org/Graphics/SVG/1.1/DTD/svg11.dtd">
<svg width="1226px" height="456px" version="1.1" xmlns="http://www.w3.org/2000/svg" xmlns:xlink="http://www.w3.org/1999/xlink" xml:space="preserve" xmlns:serif="http://www.serif.com/" style="fill-rule:evenodd;clip-rule:evenodd;stroke-linejoin:round;stroke-miterlimit:2;">
    <g id="Mesa-de-trabajo1" serif:id="Mesa de trabajo1" transform="matrix(0.638542,0,0,0.422222,0,0)">
        <rect x="0" y="0" width="1920" height="1080" style="fill:none;"/>
        <g transform="matrix(0.340215,0,0,0.514519,1420.58,598.923)">
            <g transform="matrix(1,0,0,1,512.276,130.626)">
                <path d="M857,540.8L13,540.8L13,73.7C13,40.2 40.2,13 73.7,13L796.3,13C829.8,13 857,40.2 857,73.7L857,540.8Z" style="fill:rgb(250,252,251);fill-rule:nonzero;"/>
            </g>
            <g transform="matrix(1,0,0,1,512.276,130.626)">
                <path d="M856.9,553.8L13,553.8C5.8,553.8 0,548 0,540.8L0,73.7C0,33.1 33,0 73.7,0L796.3,0C836.9,0 870,33 870,73.7L870,540.8C869.9,548 864.1,553.8 856.9,553.8ZM26,527.8L843.9,527.8L843.9,73.7C843.9,47.4 822.5,26 796.2,26L73.7,26C47.4,26 26,47.4 26,73.7L26,527.8Z" style="fill:rgb(15,15,15);fill-rule:nonzero;"/>
            </g>
            <g transform="matrix(1,0,0,1,512.276,130.626)">
                <path d="M796.2,643.6L73.7,643.6C40.2,643.6 13,616.4 13,582.9L13,532.9L856.9,532.9L856.9,582.9C856.9,616.5 829.7,643.6 796.2,643.6Z" style="fill:rgb(157,198,175);fill-rule:nonzero;"/>
            </g>
            <g transform="matrix(1,0,0,1,512.276,130.626)">
                <path d="M796.2,656.6L73.7,656.6C33.1,656.6 -0,623.6 -0,582.9L-0,519.9L869.9,519.9L869.9,582.9C869.9,623.6 836.9,656.6 796.2,656.6ZM26,546L26,583C26,609.3 47.4,630.7 73.7,630.7L796.3,630.7C822.6,630.7 844,609.3 844,583L844,546L26,546Z" style="fill:rgb(25,25,25);fill-rule:nonzero;"/>
            </g>
            <g transform="matrix(1,0,0,1,512.276,130.626)">
                <path d="M408.5,581.7C408.5,596.237 420.463,608.2 435,608.2C449.537,608.2 461.5,596.237 461.5,581.7C461.5,567.163 449.537,555.2 435,555.2C420.463,555.2 408.5,567.163 408.5,581.7Z" style="fill:rgb(250,252,251);fill-rule:nonzero;"/>
            </g>
            <g transform="matrix(1,0,0,1,512.276,130.626)">
                <path d="M168.6,234.8C168.6,291.03 214.87,337.3 271.1,337.3C327.33,337.3 373.6,291.03 373.6,234.8C373.6,178.57 327.33,132.3 271.1,132.3C214.87,132.3 168.6,178.57 168.6,234.8Z" style="fill:rgb(250,252,251);fill-rule:nonzero;"/>
            </g>
            <g transform="matrix(1,0,0,1,512.276,130.626)">
                <path d="M271.1,350.3C207.4,350.3 155.6,298.5 155.6,234.8C155.6,171.1 207.4,119.3 271.1,119.3C334.8,119.3 386.6,171.1 386.6,234.8C386.6,298.5 334.9,350.3 271.1,350.3ZM271.1,145.2C221.7,145.2 181.6,185.4 181.6,234.7C181.6,284 221.8,324.2 271.1,324.2C320.4,324.2 360.6,284 360.6,234.7C360.6,185.4 320.5,145.2 271.1,145.2Z" style="fill:rgb(201,211,205);fill-rule:nonzero;"/>
            </g>
            <g transform="matrix(1,0,0,1,512.276,130.626)">
                <path d="M242.8,234.8C242.8,250.325 255.575,263.1 271.1,263.1C286.625,263.1 299.4,250.325 299.4,234.8L299.4,234.8C299.4,219.275 286.625,206.5 271.1,206.5C255.575,206.5 242.8,219.275 242.8,234.8L242.8,234.8Z" style="fill:rgb(15,15,15);fill-rule:nonzero;"/>
            </g>
            <g transform="matrix(1,0,0,1,512.276,130.626)">
                <path d="M496.3,234.8C496.3,291.03 542.57,337.3 598.8,337.3C655.03,337.3 701.3,291.03 701.3,234.8C701.3,178.57 655.03,132.3 598.8,132.3C542.57,132.3 496.3,178.57 496.3,234.8Z" style="fill:rgb(250,252,251);fill-rule:nonzero;"/>
            </g>
            <g transform="matrix(1,0,0,1,512.276,130.626)">
                <path d="M598.8,350.3C535.1,350.3 483.3,298.5 483.3,234.8C483.3,171.1 535.1,119.3 598.8,119.3C662.5,119.3 714.3,171.1 714.3,234.8C714.3,298.5 662.5,350.3 598.8,350.3ZM598.8,145.2C549.4,145.2 509.3,185.4 509.3,234.7C509.3,284 549.5,324.2 598.8,324.2C648.1,324.2 688.3,284 688.3,234.7C688.3,185.4 648.1,145.2 598.8,145.2Z" style="fill:rgb(201,211,205);fill-rule:nonzero;"/>
            </g>
            <g transform="matrix(1,0,0,1,512.276,130.626)">
                <path d="M570.5,234.8C570.5,250.325 583.275,263.1 598.8,263.1C614.325,263.1 627.1,250.325 627.1,234.8L627.1,234.8C627.1,219.275 614.325,206.5 598.8,206.5C583.275,206.5 570.5,219.275 570.5,234.8L570.5,234.8Z" style="fill:rgb(15,15,15);fill-rule:nonzero;"/>
            </g>
            <g transform="matrix(1,0,0,1,512.276,130.626)">
                <path d="M486.5,347C486.5,375.3 463.3,398.5 435,398.5C406.7,398.5 383.5,375.3 383.5,347" style="fill:rgb(250,252,251);fill-rule:nonzero;"/>
            </g>
            <g transform="matrix(1,0,0,1,512.276,130.626)">
                <path d="M435,411.6C399.4,411.6 370.5,382.6 370.5,347.1C370.5,339.9 376.3,334.1 383.5,334.1C390.7,334.1 396.5,339.9 396.5,347.1C396.5,368.4 413.8,385.6 435,385.6C456.3,385.6 473.5,368.3 473.5,347.1C473.5,339.9 479.3,334.1 486.5,334.1C493.7,334.1 499.5,339.9 499.5,347.1C499.5,382.6 470.5,411.6 435,411.6Z" style="fill:rgb(20,20,20);fill-rule:nonzero;"/>
            </g>
            <g transform="matrix(1,0,0,1,512.276,130.626)">
                <rect x="349.2" y="643.6" width="171.5" height="89.6" style="fill:rgb(250,252,251);fill-rule:nonzero;"/>
            </g>
            <g transform="matrix(1,0,0,1,512.276,130.626)">
                <path d="M520.7,746.2L349.2,746.2C342,746.2 336.2,740.4 336.2,733.2L336.2,643.6C336.2,636.4 342,630.6 349.2,630.6L520.7,630.6C527.9,630.6 533.7,636.4 533.7,643.6L533.7,733.2C533.7,740.4 527.9,746.2 520.7,746.2ZM362.2,720.2L507.7,720.2L507.7,656.6L362.2,656.6L362.2,720.2Z" style="fill:rgb(20,20,20);fill-rule:nonzero;"/>
            </g>
            <g transform="matrix(1,0,0,1,512.276,130.626)">
                <path d="M592.9,780.3L277,780.3C258.2,780.3 242.8,764.9 242.8,746.1C242.8,727.3 258.2,711.9 277,711.9L592.8,711.9C611.6,711.9 627,727.3 627,746.1C627,765 611.7,780.3 592.9,780.3Z" style="fill:rgb(250,252,251);fill-rule:nonzero;"/>
            </g>
            <g transform="matrix(1,0,0,1,512.276,130.626)">
                <path d="M592.9,793.3L277,793.3C251,793.3 229.8,772.1 229.8,746.1C229.8,720.1 251,698.9 277,698.9L592.8,698.9C618.8,698.9 640,720.1 640,746.1C640,772.1 618.9,793.3 592.9,793.3ZM277,725C265.3,725 255.8,734.5 255.8,746.2C255.8,757.9 265.3,767.4 277,767.4L592.8,767.4C604.5,767.4 614,757.9 614,746.2C614,734.5 604.5,725 592.8,725L277,725Z" style="fill:rgb(20,20,20);fill-rule:nonzero;"/>
            </g>
        </g>
        <g transform="matrix(0.340215,0,0,0.514519,-145.137,598.923)">
            <g transform="matrix(1,0,0,1,512.276,130.626)">
                <path d="M857,540.8L13,540.8L13,73.7C13,40.2 40.2,13 73.7,13L796.3,13C829.8,13 857,40.2 857,73.7L857,540.8Z" style="fill:rgb(250,252,251);fill-rule:nonzero;"/>
            </g>
            <g transform="matrix(1,0,0,1,512.276,130.626)">
                <path d="M856.9,553.8L13,553.8C5.8,553.8 0,548 0,540.8L0,73.7C0,33.1 33,0 73.7,0L796.3,0C836.9,0 870,33 870,73.7L870,540.8C869.9,548 864.1,553.8 856.9,553.8ZM26,527.8L843.9,527.8L843.9,73.7C843.9,47.4 822.5,26 796.2,26L73.7,26C47.4,26 26,47.4 26,73.7L26,527.8Z" style="fill:rgb(15,15,15);fill-rule:nonzero;"/>
            </g>
            <g transform="matrix(1,0,0,1,512.276,130.626)">
                <path d="M796.2,643.6L73.7,643.6C40.2,643.6 13,616.4 13,582.9L13,532.9L856.9,532.9L856.9,582.9C856.9,616.5 829.7,643.6 796.2,643.6Z" style="fill:rgb(157,198,175);fill-rule:nonzero;"/>
            </g>
            <g transform="matrix(1,0,0,1,512.276,130.626)">
                <path d="M796.2,656.6L73.7,656.6C33.1,656.6 -0,623.6 -0,582.9L-0,519.9L869.9,519.9L869.9,582.9C869.9,623.6 836.9,656.6 796.2,656.6ZM26,546L26,583C26,609.3 47.4,630.7 73.7,630.7L796.3,630.7C822.6,630.7 844,609.3 844,583L844,546L26,546Z" style="fill:rgb(25,25,25);fill-rule:nonzero;"/>
            </g>
            <g transform="matrix(1,0,0,1,512.276,130.626)">
                <path d="M408.5,581.7C408.5,596.237 420.463,608.2 435,608.2C449.537,608.2 461.5,596.237 461.5,581.7C461.5,567.163 449.537,555.2 435,555.2C420.463,555.2 408.5,567.163 408.5,581.7Z" style="fill:rgb(250,252,251);fill-rule:nonzero;"/>
            </g>
            <g transform="matrix(1,0,0,1,512.276,130.626)">
                <path d="M168.6,234.8C168.6,291.03 214.87,337.3 271.1,337.3C327.33,337.3 373.6,291.03 373.6,234.8C373.6,178.57 327.33,132.3 271.1,132.3C214.87,132.3 168.6,178.57 168.6,234.8Z" style="fill:rgb(250,252,251);fill-rule:nonzero;"/>
            </g>
            <g transform="matrix(1,0,0,1,512.276,130.626)">
                <path d="M271.1,350.3C207.4,350.3 155.6,298.5 155.6,234.8C155.6,171.1 207.4,119.3 271.1,119.3C334.8,119.3 386.6,171.1 386.6,234.8C386.6,298.5 334.9,350.3 271.1,350.3ZM271.1,145.2C221.7,145.2 181.6,185.4 181.6,234.7C181.6,284 221.8,324.2 271.1,324.2C320.4,324.2 360.6,284 360.6,234.7C360.6,185.4 320.5,145.2 271.1,145.2Z" style="fill:rgb(201,211,205);fill-rule:nonzero;"/>
            </g>
            <g transform="matrix(1,0,0,1,512.276,130.626)">
                <path d="M242.8,234.8C242.8,250.325 255.575,263.1 271.1,263.1C286.625,263.1 299.4,250.325 299.4,234.8L299.4,234.8C299.4,219.275 286.625,206.5 271.1,206.5C255.575,206.5 242.8,219.275 242.8,234.8L242.8,234.8Z" style="fill:rgb(15,15,15);fill-rule:nonzero;"/>
            </g>
            <g transform="matrix(1,0,0,1,512.276,130.626)">
                <path d="M496.3,234.8C496.3,291.03 542.57,337.3 598.8,337.3C655.03,337.3 701.3,291.03 701.3,234.8C701.3,178.57 655.03,132.3 598.8,132.3C542.57,132.3 496.3,178.57 496.3,234.8Z" style="fill:rgb(250,252,251);fill-rule:nonzero;"/>
            </g>
            <g transform="matrix(1,0,0,1,512.276,130.626)">
                <path d="M598.8,350.3C535.1,350.3 483.3,298.5 483.3,234.8C483.3,171.1 535.1,119.3 598.8,119.3C662.5,119.3 714.3,171.1 714.3,234.8C714.3,298.5 662.5,350.3 598.8,350.3ZM598.8,145.2C549.4,145.2 509.3,185.4 509.3,234.7C509.3,284 549.5,324.2 598.8,324.2C648.1,324.2 688.3,284 688.3,234.7C688.3,185.4 648.1,145.2 598.8,145.2Z" style="fill:rgb(201,211,205);fill-rule:nonzero;"/>
            </g>
            <g transform="matrix(1,0,0,1,512.276,130.626)">
                <path d="M570.5,234.8C570.5,250.325 583.275,263.1 598.8,263.1C614.325,263.1 627.1,250.325 627.1,234.8L627.1,234.8C627.1,219.275 614.325,206.5 598.8,206.5C583.275,206.5 570.5,219.275 570.5,234.8L570.5,234.8Z" style="fill:rgb(15,15,15);fill-rule:nonzero;"/>
            </g>
            <g transform="matrix(1,0,0,1,512.276,130.626)">
                <path d="M486.5,347C486.5,375.3 463.3,398.5 435,398.5C406.7,398.5 383.5,375.3 383.5,347" style="fill:rgb(250,252,251);fill-rule:nonzero;"/>
            </g>
            <g transform="matrix(1,0,0,-1,512.276,876.326)">
                <path d="M435,411.6C399.4,411.6 370.5,382.6 370.5,347.1C370.5,339.9 376.3,334.1 383.5,334.1C390.7,334.1 396.5,339.9 396.5,347.1C396.5,368.4 413.8,385.6 435,385.6C456.3,385.6 473.5,368.3 473.5,347.1C473.5,339.9 479.3,334.1 486.5,334.1C493.7,334.1 499.5,339.9 499.5,347.1C499.5,382.6 470.5,411.6 435,411.6Z" style="fill:rgb(20,20,20);fill-rule:nonzero;"/>
            </g>
            <g transform="matrix(1,0,0,1,512.276,130.626)">
                <rect x="349.2" y="643.6" width="171.5" height="89.6" style="fill:rgb(250,252,251);fill-rule:nonzero;"/>
            </g>
            <g transform="matrix(1,0,0,1,512.276,130.626)">
                <path d="M520.7,746.2L349.2,746.2C342,746.2 336.2,740.4 336.2,733.2L336.2,643.6C336.2,636.4 342,630.6 349.2,630.6L520.7,630.6C527.9,630.6 533.7,636.4 533.7,643.6L533.7,733.2C533.7,740.4 527.9,746.2 520.7,746.2ZM362.2,720.2L507.7,720.2L507.7,656.6L362.2,656.6L362.2,720.2Z" style="fill:rgb(20,20,20);fill-rule:nonzero;"/>
            </g>
            <g transform="matrix(1,0,0,1,512.276,130.626)">
                <path d="M592.9,780.3L277,780.3C258.2,780.3 242.8,764.9 242.8,746.1C242.8,727.3 258.2,711.9 277,711.9L592.8,711.9C611.6,711.9 627,727.3 627,746.1C627,765 611.7,780.3 592.9,780.3Z" style="fill:rgb(250,252,251);fill-rule:nonzero;"/>
            </g>
            <g transform="matrix(1,0,0,1,512.276,130.626)">
                <path d="M592.9,793.3L277,793.3C251,793.3 229.8,772.1 229.8,746.1C229.8,720.1 251,698.9 277,698.9L592.8,698.9C618.8,698.9 640,720.1 640,746.1C640,772.1 618.9,793.3 592.9,793.3ZM277,725C265.3,725 255.8,734.5 255.8,746.2C255.8,757.9 265.3,767.4 277,767.4L592.8,767.4C604.5,767.4 614,757.9 614,746.2C614,734.5 604.5,725 592.8,725L277,725Z" style="fill:rgb(20,20,20);fill-rule:nonzero;"/>
            </g>
        </g>
        <g transform="matrix(14.237,0,0,21.5311,1606.11,29.3831)">
            <path d="M6.293,0.293C6.48,0.105 6.735,0 7,0L15,0C16.657,0 18,1.343 18,3L18,6C18,6.552 17.552,7 17,7C16.448,7 16,6.552 16,6L16,3C16,2.448 15.552,2 15,2L8,2L8,7C8,7.552 7.552,8 7,8L2,8L2,19C2,19.552 2.448,20 3,20L5,20C5.552,20 6,20.448 6,21C6,21.552 5.552,22 5,22L3,22C1.343,22 0,20.657 0,19L0,7C0,6.735 0.105,6.48 0.293,6.293L6.293,0.293ZM3.414,6L6,6L6,3.414L3.414,6ZM16,17C16,16.448 16.448,16 17,16L18,16C18.552,16 19,16.448 19,17L19,21C19,21.552 18.552,22 18,22C17.448,22 17,21.552 17,21L17,18C16.448,18 16,17.552 16,17ZM10,19C10,18.448 10.448,18 11,18C11.552,18 12,18.448 12,19C12,19.552 11.552,20 11,20C10.448,20 10,19.552 10,19ZM11,16C9.343,16 8,17.343 8,19C8,20.657 9.343,22 11,22C12.657,22 14,20.657 14,19C14,17.343 12.657,16 11,16ZM17,11C16.448,11 16,11.448 16,12C16,12.552 16.448,13 17,13C17.552,13 18,12.552 18,12C18,11.448 17.552,11 17,11ZM14,12C14,10.343 15.343,9 17,9C18.657,9 20,10.343 20,12C20,13.657 18.657,15 17,15C15.343,15 14,13.657 14,12ZM10,9C9.448,9 9,9.448 9,10C9,10.552 9.448,11 10,11L10,14C10,14.552 10.448,15 11,15C11.552,15 12,14.552 12,14L12,10C12,9.448 11.552,9 11,9L10,9Z" style="fill:rgb(202,23,23);"/>
        </g>
        <g id="icons" transform="matrix(14.7993,0,0,22.3816,-4173.87,-24107.3)">
            <g id="Page-1">
                <g id="Dribbble-Light-Preview">
                    <g id="icons1" serif:id="icons">
                        <path id="file_py---1764-" serif:id="file_py-[#1764]" d="M288,1094C288,1093.45 287.552,1093 287,1093L286,1093L286,1095L287,1095C287.552,1095 288,1094.55 288,1094M289.996,1093.84C290.086,1095.57 288.71,1097 287,1097L286,1097L286,1098C286,1098.55 285.552,1099 285,1099C284.448,1099 284,1098.55 284,1098L284,1092C284,1091.45 284.448,1091 285,1091L286.83,1091C288.455,1091 289.911,1092.22 289.996,1093.84M296,1091C295.448,1091 295,1091.45 295,1092L295,1093C295,1093.55 294.552,1094 294,1094C293.448,1094 293,1093.55 293,1093L293,1092C293,1091.45 292.552,1091 292,1091C291.448,1091 291,1091.45 291,1092L291,1094C291,1095.11 291.895,1096 293,1096L293,1098C293,1098.55 293.448,1099 294,1099C294.552,1099 295,1098.55 295,1098L295,1096C296.105,1096 297,1095.11 297,1094L297,1092C297,1091.45 296.552,1091 296,1091M304,1084.99L304,1097C304,1098.11 303.105,1099 302,1099L300,1099C299.448,1099 299,1098.55 299,1098C299,1097.45 299.448,1097 300,1097L301,1097C301.552,1097 302,1096.55 302,1096L302,1087L298,1087C296.895,1087 296,1086.11 296,1085L296,1081L287,1081C286.448,1081 286,1081.45 286,1082L286,1088C286,1088.55 285.552,1089 285,1089C284.448,1089 284,1088.55 284,1088L284,1081C284,1079.9 284.895,1079 286,1079L297.589,1079C297.84,1079 298.082,1079.1 298.266,1079.27L303.678,1084.25C303.883,1084.44 304,1084.71 304,1084.99" style="fill:rgb(67,157,18);"/>
                    </g>
                </g>
            </g>
        </g>
        <g transform="matrix(0.717272,0,0,1.08476,286.169,-193.241)">
            <g transform="matrix(1,0,0,1,691.276,271.276)">
                <path d="M460.8,256C460.8,272.966 447.046,286.72 430.08,286.72L416.952,286.72C412.702,309.123 403.898,329.911 391.528,348.082L400.816,357.37C412.813,369.367 412.813,388.818 400.816,400.815C388.819,412.812 369.368,412.812 357.371,400.815L348.083,391.527C329.912,403.897 309.124,412.701 286.721,416.951L286.721,430.08C286.721,447.046 272.967,460.8 256.001,460.8C239.035,460.8 225.28,447.046 225.28,430.08L225.28,416.952C202.877,412.702 182.089,403.898 163.918,391.528L154.63,400.816C142.633,412.813 123.182,412.813 111.185,400.816C99.188,388.819 99.188,369.368 111.185,357.371L120.473,348.083C108.102,329.911 99.298,309.122 95.048,286.72L81.92,286.72C64.954,286.72 51.2,272.966 51.2,256C51.2,239.034 64.954,225.28 81.92,225.28L95.048,225.28C99.298,202.877 108.102,182.089 120.472,163.918L111.184,154.63C99.187,142.633 99.187,123.182 111.184,111.185C123.181,99.188 142.632,99.188 154.629,111.185L163.917,120.473C182.089,108.103 202.877,99.298 225.28,95.048L225.28,81.92C225.28,64.954 239.034,51.2 256,51.2C272.966,51.2 286.72,64.954 286.72,81.92L286.72,95.048C309.123,99.298 329.911,108.102 348.082,120.472L357.37,111.184C369.367,99.187 388.818,99.187 400.815,111.184C412.812,123.181 412.812,142.632 400.815,154.629L391.527,163.917C403.897,182.088 412.701,202.876 416.951,225.279L430.08,225.279C447.046,225.28 460.8,239.034 460.8,256Z" style="fill:rgb(165,165,165);fill-rule:nonzero;"/>
            </g>
            <g transform="matrix(1,0,0,1,691.276,271.276)">
                <path d="M374.568,256C374.568,321.483 321.483,374.568 256,374.568C190.517,374.568 137.432,321.483 137.432,256C137.432,190.517 190.517,137.432 256,137.432C321.483,137.432 374.568,190.517 374.568,256Z" style="fill:rgb(204,202,196);fill-rule:nonzero;"/>
            </g>
            <g transform="matrix(1,0,0,1,691.276,271.276)">
                <path d="M288.337,256C288.337,273.86 273.86,288.337 256,288.337C238.14,288.337 223.663,273.86 223.663,256C223.663,238.14 238.14,223.663 256,223.663C273.86,223.663 288.337,238.14 288.337,256Z" style="fill:white;fill-rule:nonzero;"/>
            </g>
            <g transform="matrix(1,0,0,1,691.276,271.276)">
                <path d="M13.228,307.988C12.794,308.058 12.359,308.093 11.932,308.093C8.033,308.093 4.6,305.267 3.96,301.294L3.789,300.23C3.079,295.822 6.075,291.674 10.484,290.962C14.882,290.246 19.04,293.249 19.752,297.657L19.923,298.721C20.634,303.129 17.637,307.278 13.228,307.988ZM33.864,344.48C31.799,340.522 26.915,338.984 22.957,341.054C18.999,343.12 17.465,348.003 19.531,351.961L20.03,352.917C21.472,355.68 24.288,357.262 27.203,357.262C28.463,357.262 29.741,356.967 30.937,356.341C34.895,354.275 36.429,349.392 34.363,345.434L33.864,344.48ZM16.168,255.997L16.17,254.876C16.183,250.411 12.573,246.782 8.108,246.769L8.085,246.769C3.63,246.769 0.014,250.375 0.001,254.831L0,256C0,260.466 3.618,264.083 8.084,264.083C12.55,264.083 16.168,260.462 16.168,255.997ZM478.136,167.52C479.578,170.283 482.394,171.865 485.309,171.865C486.569,171.865 487.847,171.57 489.043,170.944C493.001,168.878 494.535,163.995 492.469,160.037L491.97,159.081C489.905,155.123 485.021,153.586 481.063,155.655C477.105,157.721 475.571,162.604 477.637,166.562L478.136,167.52ZM328.744,279.961C324.716,278.039 319.89,279.754 317.97,283.785C317.743,284.261 317.51,284.736 317.274,285.207C315.271,289.197 316.883,294.057 320.872,296.059C322.036,296.643 323.275,296.92 324.493,296.92C327.454,296.92 330.306,295.287 331.725,292.461C332.013,291.889 332.293,291.314 332.569,290.733C334.488,286.703 332.776,281.879 328.744,279.961ZM9.117,231.813C9.469,231.859 9.82,231.881 10.168,231.881C14.169,231.881 17.646,228.91 18.175,224.836C33.604,105.876 135.847,16.168 256,16.168C260.466,16.168 264.084,12.55 264.084,8.084C264.084,3.618 260.466,0 256,0C193.428,0 133.192,22.817 86.388,64.247C39.991,105.317 10.072,161.61 2.14,222.756C1.565,227.184 4.69,231.239 9.117,231.813ZM492.076,213.279L492.247,214.343C492.887,218.316 496.319,221.142 500.219,221.142C500.646,221.142 501.08,221.109 501.515,221.037C505.924,220.327 508.92,216.177 508.21,211.769L508.039,210.705C507.329,206.296 503.171,203.292 498.771,204.01C494.362,204.722 491.365,208.871 492.076,213.279ZM256,382.653C186.163,382.653 129.347,325.837 129.347,256C129.347,186.163 186.163,129.347 256,129.347C325.837,129.347 382.653,186.163 382.653,256C382.653,325.837 325.837,382.653 256,382.653ZM256,366.484C316.922,366.484 366.484,316.921 366.484,256C366.484,195.079 316.922,145.516 256,145.516C195.078,145.516 145.516,195.078 145.516,256C145.516,316.922 195.078,366.484 256,366.484ZM502.883,280.187C498.465,279.61 494.4,282.735 493.827,287.164C478.394,406.124 376.152,495.832 256,495.832C251.534,495.832 247.916,499.45 247.916,503.916C247.916,508.382 251.534,512 256,512C318.572,512 378.808,489.183 425.611,447.753C472.008,406.683 501.928,350.391 509.859,289.244C510.435,284.816 507.31,280.761 502.883,280.187ZM503.916,247.917C499.45,247.917 495.832,251.538 495.832,256.003L495.829,257.102C495.805,261.567 499.403,265.206 503.869,265.23L503.914,265.23C508.357,265.23 511.973,261.64 511.997,257.19L512,256C512,251.534 508.382,247.917 503.916,247.917ZM256,468.884C234.603,468.884 217.196,451.477 217.196,430.08L217.196,423.515C198.655,419.249 181.148,411.994 164.994,401.885L160.346,406.533C145.217,421.663 120.599,421.663 105.467,406.534C90.338,391.404 90.338,366.786 105.467,351.655L110.116,347.007C100.006,330.854 92.752,313.345 88.486,294.805L81.92,294.805C60.523,294.805 43.116,277.398 43.116,256.001C43.116,234.604 60.523,217.197 81.92,217.197L88.485,217.197C92.751,198.656 100.006,181.149 110.115,164.995L105.466,160.347C90.337,145.217 90.337,120.599 105.466,105.468C120.595,90.342 145.213,90.34 160.345,105.468L164.993,110.117C181.146,100.007 198.655,92.753 217.195,88.487L217.195,81.92C217.195,60.523 234.602,43.116 255.999,43.116C277.396,43.116 294.803,60.523 294.803,81.92L294.803,88.485C313.344,92.751 330.852,100.006 347.005,110.115L351.653,105.466C366.785,90.338 391.403,90.34 406.532,105.466C421.661,120.596 421.661,145.214 406.532,160.345L401.883,164.994C411.991,181.146 419.246,198.654 423.512,217.195L430.079,217.195C451.476,217.195 468.883,234.602 468.883,255.999C468.883,277.396 451.476,294.803 430.079,294.803L423.512,294.803C419.246,313.344 411.991,330.851 401.883,347.004L406.532,351.653C421.661,366.783 421.661,391.401 406.532,406.532C391.403,421.66 366.785,421.661 351.653,406.532L347.005,401.883C330.853,411.993 313.343,419.247 294.803,423.513L294.803,430.078C294.804,451.477 277.397,468.884 256,468.884ZM256,452.716C268.481,452.716 278.636,442.561 278.636,430.08L278.636,416.951C278.636,413.066 281.399,409.732 285.214,409.009C306.21,405.026 325.831,396.896 343.532,384.845C346.742,382.661 351.052,383.065 353.798,385.811L363.086,395.099C371.912,403.926 386.273,403.927 395.097,395.099C403.923,386.273 403.923,371.912 395.097,363.088L385.809,353.8C383.064,351.054 382.658,346.744 384.843,343.534C396.895,325.832 405.024,306.21 409.008,285.215C409.731,281.4 413.067,278.638 416.95,278.638L430.079,278.638C442.56,278.638 452.715,268.483 452.715,256.002C452.715,243.521 442.56,233.366 430.079,233.366L416.95,233.366C413.066,233.366 409.731,230.603 409.008,226.789C405.024,205.793 396.895,186.171 384.843,168.47C382.659,165.259 383.064,160.95 385.809,158.204L395.097,148.916C403.923,140.09 403.923,125.729 395.097,116.905C386.271,108.077 371.909,108.079 363.086,116.905L353.798,126.193C351.052,128.938 346.74,129.345 343.532,127.159C325.83,115.108 306.209,106.978 285.214,102.995C281.398,102.272 278.636,98.937 278.636,95.053L278.636,81.92C278.636,69.439 268.481,59.284 256,59.284C243.519,59.284 233.364,69.439 233.364,81.92L233.364,95.049C233.364,98.934 230.601,102.268 226.786,102.991C205.791,106.974 186.169,115.103 168.467,127.156C165.256,129.341 160.945,128.935 158.201,126.189L148.914,116.901C140.088,108.076 125.726,108.075 116.903,116.902C108.077,125.728 108.077,140.089 116.903,148.913L126.191,158.201C128.936,160.947 129.342,165.258 127.157,168.467C115.105,186.169 106.976,205.79 102.993,226.785C102.27,230.601 98.935,233.363 95.051,233.363L81.92,233.363C69.439,233.363 59.284,243.518 59.284,255.999C59.284,268.48 69.439,278.635 81.92,278.635L95.049,278.635C98.934,278.635 102.268,281.398 102.991,285.213C106.974,306.209 115.103,325.83 127.155,343.531C129.34,346.741 128.935,351.051 126.189,353.797L116.901,363.085C108.075,371.911 108.075,386.272 116.901,395.096C125.727,403.924 140.089,403.922 148.912,395.096L158.199,385.809C159.762,384.245 161.833,383.441 163.919,383.441C165.496,383.441 167.084,383.901 168.466,384.842C186.169,396.895 205.791,405.024 226.785,409.007C230.601,409.73 233.363,413.065 233.363,416.949L233.363,430.078C233.364,442.561 243.519,452.716 256,452.716ZM209.219,207.523C221.839,195.342 238.454,188.632 256,188.632C293.148,188.632 323.368,218.853 323.368,256C323.368,260.466 326.986,264.084 331.452,264.084C335.918,264.084 339.536,260.466 339.536,256C339.536,209.938 302.061,172.463 255.999,172.463C234.241,172.463 213.639,180.783 197.989,195.889C194.777,198.99 194.687,204.108 197.786,207.32C200.887,210.531 206.005,210.622 209.219,207.523ZM256,215.579C278.289,215.579 296.421,233.711 296.421,256C296.421,278.289 278.289,296.421 256,296.421C233.711,296.421 215.579,278.289 215.579,256C215.579,233.711 233.711,215.579 256,215.579ZM256,231.747C242.628,231.747 231.747,242.627 231.747,256C231.747,269.373 242.627,280.253 256,280.253C269.373,280.253 280.253,269.373 280.253,256C280.253,242.627 269.372,231.747 256,231.747ZM315.071,315.07C318.228,311.912 318.228,306.794 315.071,303.637C311.913,300.481 306.795,300.481 303.638,303.637C290.913,316.362 273.995,323.369 256,323.369C218.853,323.369 188.632,293.148 188.632,256.001C188.632,251.535 185.014,247.917 180.548,247.917C176.082,247.917 172.464,251.535 172.464,256.001C172.464,302.063 209.939,339.538 256.001,339.538C278.313,339.537 299.291,330.847 315.071,315.07ZM184.948,231.262C186.029,231.75 187.16,231.982 188.274,231.982C191.351,231.982 194.294,230.213 195.645,227.226C195.823,226.831 196.005,226.439 196.19,226.049C198.104,222.016 196.387,217.193 192.353,215.28C188.322,213.366 183.498,215.084 181.584,219.117C181.355,219.597 181.132,220.081 180.912,220.566C179.074,224.633 180.88,229.422 184.948,231.262Z" style="fill:rgb(76,76,76);fill-rule:nonzero;"/>
            </g>
        </g>
        <g transform="matrix(1.364,0,0,2.36842,-264.147,-710.748)">
            <path d="M491,479.05L491,448.95L658.63,448.95L658.63,421L708,464L658.63,507L658.63,479.05L491,479.05Z" style="fill:rgb(67,157,18);"/>
        </g>
        <g transform="matrix(1.364,0,0,2.36842,559.964,-710.748)">
            <path d="M491,479.05L491,448.95L658.63,448.95L658.63,421L708,464L658.63,507L658.63,479.05L491,479.05Z" style="fill:rgb(202,23,23);"/>
        </g>
        <g transform="matrix(1.56607,0,0,2.36842,251.268,-82.8947)">
            <g transform="matrix(48.0589,0,0,48.0589,365,367.425)">
                <path d="M0.321,-0.526C0.321,-0.547 0.317,-0.567 0.309,-0.587C0.3,-0.606 0.289,-0.622 0.276,-0.633C0.25,-0.655 0.223,-0.652 0.195,-0.625C0.181,-0.612 0.168,-0.592 0.156,-0.566C0.143,-0.54 0.134,-0.514 0.127,-0.489C0.113,-0.435 0.107,-0.371 0.108,-0.297C0.11,-0.215 0.122,-0.156 0.143,-0.119C0.166,-0.08 0.197,-0.055 0.234,-0.046C0.272,-0.037 0.307,-0.048 0.338,-0.078C0.375,-0.113 0.406,-0.172 0.432,-0.257C0.435,-0.266 0.44,-0.272 0.449,-0.277C0.457,-0.281 0.465,-0.282 0.474,-0.279C0.483,-0.276 0.489,-0.271 0.494,-0.263C0.498,-0.254 0.499,-0.246 0.496,-0.237C0.467,-0.142 0.429,-0.073 0.384,-0.03C0.335,0.017 0.28,0.033 0.219,0.018C0.164,0.005 0.12,-0.03 0.087,-0.085C0.059,-0.132 0.044,-0.202 0.042,-0.295C0.041,-0.375 0.048,-0.445 0.063,-0.505C0.071,-0.535 0.082,-0.566 0.097,-0.597C0.112,-0.628 0.129,-0.654 0.149,-0.673C0.168,-0.691 0.188,-0.703 0.209,-0.709C0.23,-0.715 0.249,-0.716 0.268,-0.711C0.286,-0.706 0.303,-0.697 0.319,-0.683C0.34,-0.665 0.356,-0.642 0.369,-0.614C0.381,-0.585 0.387,-0.556 0.387,-0.526C0.387,-0.517 0.384,-0.509 0.378,-0.503C0.371,-0.496 0.363,-0.493 0.354,-0.493C0.345,-0.493 0.337,-0.496 0.331,-0.503C0.324,-0.509 0.321,-0.517 0.321,-0.526Z" style="fill:rgb(60,60,60);fill-rule:nonzero;"/>
            </g>
            <g transform="matrix(48.0589,0,0,48.0589,388.789,367.425)">
                <path d="M0.246,-0.429L0.231,-0.433C0.227,-0.434 0.224,-0.435 0.222,-0.435C0.196,-0.434 0.172,-0.418 0.15,-0.388C0.127,-0.357 0.111,-0.319 0.102,-0.272C0.094,-0.225 0.096,-0.182 0.107,-0.144C0.118,-0.105 0.138,-0.079 0.166,-0.064C0.201,-0.047 0.233,-0.05 0.262,-0.074C0.293,-0.099 0.315,-0.137 0.328,-0.188C0.34,-0.237 0.339,-0.284 0.326,-0.329C0.312,-0.374 0.285,-0.407 0.246,-0.429ZM0.27,-0.491C0.275,-0.49 0.279,-0.487 0.282,-0.484C0.31,-0.468 0.333,-0.448 0.352,-0.423C0.37,-0.397 0.383,-0.371 0.39,-0.344C0.397,-0.316 0.402,-0.287 0.403,-0.257C0.404,-0.227 0.4,-0.199 0.392,-0.172C0.376,-0.106 0.346,-0.056 0.303,-0.022C0.252,0.019 0.196,0.025 0.136,-0.006C0.113,-0.017 0.093,-0.034 0.077,-0.056C0.06,-0.077 0.049,-0.1 0.043,-0.126C0.037,-0.151 0.033,-0.177 0.032,-0.205C0.03,-0.233 0.032,-0.259 0.038,-0.284C0.048,-0.341 0.067,-0.389 0.096,-0.428C0.131,-0.474 0.171,-0.498 0.218,-0.501L0.219,-0.501C0.228,-0.505 0.236,-0.505 0.245,-0.502C0.254,-0.499 0.262,-0.495 0.27,-0.491Z" style="fill:rgb(60,60,60);fill-rule:nonzero;"/>
            </g>
            <g transform="matrix(48.0589,0,0,48.0589,408.205,367.425)">
                <path d="M0.09,-0.46C0.091,-0.447 0.093,-0.425 0.096,-0.395C0.099,-0.365 0.102,-0.342 0.103,-0.326C0.104,-0.319 0.104,-0.312 0.104,-0.304C0.112,-0.323 0.12,-0.341 0.128,-0.356C0.149,-0.397 0.171,-0.425 0.194,-0.441C0.211,-0.453 0.229,-0.458 0.247,-0.457C0.266,-0.455 0.284,-0.446 0.3,-0.429C0.312,-0.416 0.322,-0.395 0.331,-0.365C0.336,-0.348 0.34,-0.328 0.345,-0.305C0.354,-0.328 0.364,-0.349 0.375,-0.368C0.394,-0.404 0.413,-0.432 0.432,-0.452C0.461,-0.481 0.49,-0.492 0.52,-0.487C0.539,-0.484 0.556,-0.472 0.569,-0.452C0.579,-0.438 0.587,-0.419 0.594,-0.396C0.605,-0.359 0.612,-0.311 0.616,-0.251C0.619,-0.22 0.62,-0.186 0.621,-0.148C0.622,-0.11 0.622,-0.08 0.622,-0.059C0.621,-0.038 0.621,-0.019 0.622,-0.003C0.622,0.006 0.619,0.014 0.613,0.021C0.606,0.028 0.599,0.031 0.59,0.031C0.581,0.031 0.573,0.028 0.566,0.022C0.559,0.015 0.556,0.008 0.556,-0.001C0.555,-0.017 0.555,-0.036 0.556,-0.057C0.556,-0.078 0.556,-0.107 0.555,-0.144C0.554,-0.181 0.553,-0.215 0.551,-0.246C0.546,-0.303 0.54,-0.347 0.531,-0.378C0.526,-0.395 0.52,-0.407 0.515,-0.415C0.514,-0.418 0.512,-0.419 0.511,-0.42L0.508,-0.423C0.501,-0.424 0.492,-0.418 0.479,-0.405C0.464,-0.39 0.449,-0.368 0.433,-0.337C0.419,-0.312 0.407,-0.285 0.397,-0.257C0.386,-0.229 0.38,-0.208 0.377,-0.195C0.374,-0.176 0.372,-0.138 0.372,-0.083C0.372,-0.081 0.372,-0.077 0.373,-0.07L0.375,-0.051C0.376,-0.042 0.376,-0.036 0.375,-0.031C0.374,-0.027 0.373,-0.023 0.371,-0.019C0.364,-0.004 0.352,0.002 0.336,-0.001C0.327,-0.002 0.32,-0.007 0.314,-0.014C0.313,-0.016 0.311,-0.018 0.309,-0.021L0.306,-0.031L0.306,-0.038C0.305,-0.041 0.305,-0.045 0.305,-0.05C0.304,-0.057 0.304,-0.068 0.303,-0.082C0.303,-0.087 0.303,-0.094 0.303,-0.103C0.302,-0.112 0.301,-0.13 0.301,-0.131C0.297,-0.18 0.291,-0.226 0.284,-0.271C0.279,-0.301 0.273,-0.326 0.268,-0.346C0.262,-0.366 0.257,-0.378 0.252,-0.383C0.247,-0.388 0.244,-0.39 0.241,-0.391C0.239,-0.391 0.236,-0.39 0.232,-0.387C0.218,-0.378 0.203,-0.357 0.187,-0.325C0.173,-0.298 0.16,-0.269 0.149,-0.236C0.138,-0.203 0.13,-0.179 0.127,-0.164C0.122,-0.139 0.119,-0.109 0.116,-0.073C0.115,-0.07 0.116,-0.06 0.117,-0.044C0.118,-0.036 0.118,-0.031 0.118,-0.03L0.118,-0.025C0.118,-0.022 0.117,-0.018 0.116,-0.015C0.112,-0.005 0.104,0.002 0.093,0.005C0.079,0.009 0.068,0.005 0.059,-0.007L0.053,-0.017C0.053,-0.018 0.053,-0.02 0.053,-0.021C0.052,-0.022 0.052,-0.023 0.052,-0.024C0.045,-0.062 0.041,-0.118 0.04,-0.192C0.039,-0.265 0.038,-0.309 0.037,-0.322C0.036,-0.338 0.034,-0.361 0.031,-0.39L0.024,-0.454C0.023,-0.463 0.026,-0.472 0.032,-0.479C0.038,-0.486 0.046,-0.489 0.055,-0.49C0.064,-0.491 0.072,-0.488 0.079,-0.482C0.086,-0.476 0.089,-0.469 0.09,-0.46Z" style="fill:rgb(60,60,60);fill-rule:nonzero;"/>
            </g>
            <g transform="matrix(48.0589,0,0,48.0589,438.386,367.425)">
                <path d="M0.1,-0.002C0.101,0.062 0.102,0.112 0.101,0.148C0.101,0.157 0.098,0.164 0.091,0.171C0.084,0.177 0.077,0.18 0.068,0.18C0.058,0.18 0.051,0.177 0.045,0.17C0.038,0.163 0.035,0.155 0.035,0.146C0.036,0.11 0.036,0.058 0.035,-0.009C0.034,-0.076 0.033,-0.124 0.033,-0.153C0.033,-0.191 0.033,-0.226 0.034,-0.258C0.034,-0.29 0.033,-0.324 0.03,-0.36C0.028,-0.394 0.025,-0.428 0.02,-0.462C0.019,-0.471 0.021,-0.48 0.027,-0.487C0.032,-0.494 0.04,-0.499 0.049,-0.5C0.057,-0.501 0.066,-0.499 0.073,-0.494C0.08,-0.488 0.085,-0.481 0.086,-0.472L0.092,-0.423C0.121,-0.462 0.154,-0.484 0.191,-0.488C0.22,-0.491 0.246,-0.484 0.27,-0.467C0.294,-0.45 0.314,-0.427 0.33,-0.399C0.345,-0.372 0.356,-0.342 0.363,-0.31C0.37,-0.277 0.372,-0.243 0.37,-0.209C0.367,-0.174 0.357,-0.141 0.339,-0.109C0.32,-0.077 0.295,-0.051 0.262,-0.031C0.245,-0.02 0.226,-0.012 0.207,-0.008C0.188,-0.003 0.17,-0 0.153,-0.001C0.136,-0.001 0.119,-0.001 0.1,-0.002ZM0.099,-0.068C0.125,-0.065 0.149,-0.065 0.17,-0.068C0.191,-0.07 0.21,-0.076 0.228,-0.087C0.257,-0.105 0.278,-0.131 0.291,-0.165C0.304,-0.198 0.308,-0.233 0.304,-0.269C0.3,-0.304 0.29,-0.337 0.273,-0.366C0.262,-0.387 0.249,-0.402 0.236,-0.411C0.223,-0.42 0.21,-0.423 0.198,-0.422C0.184,-0.421 0.168,-0.411 0.152,-0.393C0.134,-0.374 0.118,-0.344 0.101,-0.303L0.099,-0.299C0.1,-0.27 0.1,-0.222 0.099,-0.153L0.099,-0.068Z" style="fill:rgb(60,60,60);fill-rule:nonzero;"/>
            </g>
            <g transform="matrix(48.0589,0,0,48.0589,456.12,367.425)">
                <path d="M0.108,-0.455C0.113,-0.395 0.114,-0.32 0.112,-0.23C0.109,-0.09 0.107,-0.017 0.107,-0.01C0.107,-0.001 0.104,0.007 0.098,0.014C0.091,0.02 0.083,0.023 0.074,0.023C0.065,0.023 0.057,0.02 0.051,0.014C0.044,0.007 0.041,-0.001 0.041,-0.01C0.041,-0.013 0.043,-0.087 0.046,-0.232C0.048,-0.313 0.047,-0.386 0.042,-0.449C0.041,-0.458 0.044,-0.467 0.05,-0.474C0.056,-0.481 0.064,-0.484 0.073,-0.485C0.082,-0.486 0.09,-0.483 0.097,-0.477C0.103,-0.471 0.107,-0.464 0.108,-0.455ZM0.094,-0.646C0.101,-0.64 0.104,-0.632 0.104,-0.623C0.104,-0.614 0.101,-0.606 0.095,-0.6C0.088,-0.593 0.08,-0.59 0.071,-0.59C0.062,-0.59 0.054,-0.593 0.048,-0.6C0.041,-0.606 0.038,-0.614 0.038,-0.623C0.038,-0.632 0.041,-0.64 0.048,-0.647C0.054,-0.653 0.062,-0.656 0.071,-0.656C0.08,-0.656 0.088,-0.653 0.094,-0.646Z" style="fill:rgb(60,60,60);fill-rule:nonzero;"/>
            </g>
            <g transform="matrix(48.0589,0,0,48.0589,462.511,367.425)">
                <path d="M0.106,-0.678C0.109,-0.629 0.11,-0.479 0.11,-0.226C0.11,-0.205 0.111,-0.17 0.112,-0.119C0.113,-0.07 0.114,-0.034 0.113,-0.009C0.113,0 0.11,0.008 0.103,0.014C0.096,0.02 0.088,0.023 0.079,0.023C0.07,0.023 0.062,0.02 0.056,0.013C0.05,0.006 0.047,-0.002 0.047,-0.011C0.048,-0.034 0.047,-0.069 0.046,-0.117C0.045,-0.168 0.044,-0.205 0.044,-0.226C0.044,-0.477 0.043,-0.627 0.04,-0.674C0.039,-0.683 0.042,-0.691 0.048,-0.698C0.054,-0.705 0.062,-0.708 0.071,-0.709C0.08,-0.71 0.088,-0.707 0.095,-0.701C0.102,-0.695 0.105,-0.687 0.106,-0.678Z" style="fill:rgb(60,60,60);fill-rule:nonzero;"/>
            </g>
            <g transform="matrix(48.0589,0,0,48.0589,468.711,367.425)">
                <path d="M0.325,-0.119C0.306,-0.164 0.292,-0.194 0.282,-0.207C0.26,-0.234 0.232,-0.247 0.197,-0.246C0.162,-0.245 0.135,-0.229 0.115,-0.198C0.088,-0.157 0.085,-0.122 0.108,-0.093C0.118,-0.08 0.132,-0.071 0.152,-0.065C0.17,-0.058 0.192,-0.057 0.216,-0.061C0.245,-0.067 0.282,-0.086 0.325,-0.119ZM0.142,-0.452C0.199,-0.505 0.251,-0.523 0.297,-0.505C0.334,-0.491 0.362,-0.454 0.382,-0.395C0.387,-0.377 0.392,-0.358 0.397,-0.337C0.402,-0.316 0.406,-0.294 0.409,-0.271C0.412,-0.248 0.414,-0.229 0.416,-0.213C0.417,-0.197 0.419,-0.178 0.42,-0.157C0.421,-0.136 0.422,-0.123 0.423,-0.119C0.423,-0.118 0.425,-0.099 0.43,-0.064C0.431,-0.051 0.432,-0.04 0.433,-0.033C0.434,-0.021 0.435,-0.012 0.434,-0.007C0.433,-0.004 0.432,-0.001 0.431,0.002C0.428,0.011 0.422,0.017 0.414,0.02C0.401,0.027 0.388,0.025 0.377,0.015C0.374,0.012 0.372,0.009 0.37,0.005C0.368,0.001 0.366,-0.005 0.364,-0.012L0.36,-0.026C0.359,-0.031 0.358,-0.034 0.357,-0.035L0.35,-0.055C0.307,-0.023 0.266,-0.004 0.228,0.003C0.192,0.01 0.159,0.008 0.129,-0.002C0.098,-0.012 0.074,-0.029 0.056,-0.053C0.037,-0.077 0.027,-0.105 0.028,-0.138C0.028,-0.171 0.038,-0.203 0.059,-0.234C0.08,-0.266 0.108,-0.289 0.142,-0.302C0.176,-0.315 0.211,-0.316 0.246,-0.307C0.28,-0.297 0.31,-0.277 0.334,-0.247C0.338,-0.242 0.342,-0.235 0.347,-0.228C0.34,-0.289 0.331,-0.337 0.319,-0.373C0.306,-0.413 0.29,-0.437 0.273,-0.444C0.253,-0.452 0.224,-0.439 0.186,-0.404C0.179,-0.397 0.171,-0.394 0.163,-0.395C0.154,-0.396 0.146,-0.399 0.14,-0.406C0.133,-0.413 0.13,-0.421 0.131,-0.43C0.132,-0.439 0.135,-0.446 0.142,-0.452Z" style="fill:rgb(60,60,60);fill-rule:nonzero;"/>
            </g>
            <g transform="matrix(48.0589,0,0,48.0589,489.473,367.425)">
                <path d="M0.381,-0.656C0.382,-0.608 0.382,-0.572 0.382,-0.549C0.382,-0.525 0.382,-0.489 0.381,-0.441C0.38,-0.393 0.38,-0.357 0.38,-0.333C0.38,-0.206 0.384,-0.1 0.393,-0.015C0.394,-0.006 0.391,0.002 0.386,0.009C0.38,0.016 0.373,0.02 0.364,0.021C0.355,0.022 0.347,0.019 0.34,0.014C0.333,0.008 0.328,0 0.327,-0.009C0.325,-0.026 0.323,-0.044 0.322,-0.063C0.313,-0.053 0.304,-0.044 0.295,-0.035C0.252,0.005 0.201,0.015 0.142,-0.005C0.087,-0.023 0.054,-0.07 0.043,-0.146C0.034,-0.207 0.041,-0.27 0.063,-0.337C0.087,-0.408 0.121,-0.455 0.165,-0.476C0.192,-0.489 0.22,-0.491 0.249,-0.48C0.272,-0.471 0.294,-0.455 0.315,-0.43C0.316,-0.532 0.316,-0.607 0.315,-0.654C0.315,-0.663 0.318,-0.671 0.325,-0.678C0.331,-0.685 0.339,-0.688 0.348,-0.688C0.357,-0.688 0.364,-0.685 0.371,-0.679C0.378,-0.672 0.381,-0.665 0.381,-0.656ZM0.314,-0.303C0.293,-0.343 0.28,-0.367 0.274,-0.374C0.257,-0.397 0.241,-0.412 0.225,-0.418C0.214,-0.422 0.204,-0.422 0.194,-0.417C0.167,-0.404 0.144,-0.37 0.126,-0.316C0.107,-0.259 0.101,-0.205 0.108,-0.155C0.115,-0.106 0.133,-0.077 0.162,-0.067C0.197,-0.056 0.226,-0.061 0.251,-0.083C0.275,-0.105 0.297,-0.137 0.316,-0.179C0.315,-0.216 0.314,-0.257 0.314,-0.302L0.314,-0.303Z" style="fill:rgb(60,60,60);fill-rule:nonzero;"/>
            </g>
            <g transform="matrix(48.0589,0,0,48.0589,508.696,367.425)">
                <path d="M0.246,-0.429L0.231,-0.433C0.227,-0.434 0.224,-0.435 0.222,-0.435C0.196,-0.434 0.172,-0.418 0.15,-0.388C0.127,-0.357 0.111,-0.319 0.102,-0.272C0.094,-0.225 0.096,-0.182 0.107,-0.144C0.118,-0.105 0.138,-0.079 0.166,-0.064C0.201,-0.047 0.233,-0.05 0.262,-0.074C0.293,-0.099 0.315,-0.137 0.328,-0.188C0.34,-0.237 0.339,-0.284 0.326,-0.329C0.312,-0.374 0.285,-0.407 0.246,-0.429ZM0.27,-0.491C0.275,-0.49 0.279,-0.487 0.282,-0.484C0.31,-0.468 0.333,-0.448 0.352,-0.423C0.37,-0.397 0.383,-0.371 0.39,-0.344C0.397,-0.316 0.402,-0.287 0.403,-0.257C0.404,-0.227 0.4,-0.199 0.392,-0.172C0.376,-0.106 0.346,-0.056 0.303,-0.022C0.252,0.019 0.196,0.025 0.136,-0.006C0.113,-0.017 0.093,-0.034 0.077,-0.056C0.06,-0.077 0.049,-0.1 0.043,-0.126C0.037,-0.151 0.033,-0.177 0.032,-0.205C0.03,-0.233 0.032,-0.259 0.038,-0.284C0.048,-0.341 0.067,-0.389 0.096,-0.428C0.131,-0.474 0.171,-0.498 0.218,-0.501L0.219,-0.501C0.228,-0.505 0.236,-0.505 0.245,-0.502C0.254,-0.499 0.262,-0.495 0.27,-0.491Z" style="fill:rgb(60,60,60);fill-rule:nonzero;"/>
            </g>
            <g transform="matrix(48.0589,0,0,48.0589,528.112,367.425)">
                <path d="M0.037,-0.144L0.037,-0.247C0.037,-0.253 0.037,-0.266 0.037,-0.285C0.036,-0.304 0.036,-0.319 0.035,-0.328C0.034,-0.337 0.034,-0.35 0.033,-0.365C0.032,-0.38 0.03,-0.394 0.028,-0.407L0.022,-0.445C0.02,-0.454 0.022,-0.462 0.027,-0.47C0.032,-0.477 0.039,-0.482 0.048,-0.484C0.056,-0.485 0.065,-0.484 0.073,-0.479C0.08,-0.474 0.085,-0.466 0.086,-0.457C0.095,-0.416 0.1,-0.368 0.102,-0.313C0.113,-0.328 0.124,-0.343 0.137,-0.358C0.192,-0.421 0.25,-0.466 0.311,-0.491C0.32,-0.495 0.328,-0.495 0.337,-0.492C0.345,-0.488 0.351,-0.482 0.355,-0.474C0.358,-0.465 0.358,-0.457 0.355,-0.449C0.351,-0.44 0.345,-0.434 0.337,-0.431C0.285,-0.409 0.235,-0.37 0.187,-0.315C0.136,-0.256 0.109,-0.202 0.104,-0.151C0.103,-0.148 0.103,-0.145 0.103,-0.142L0.103,-0.056C0.103,-0.047 0.103,-0.035 0.102,-0.022L0.102,-0.007C0.102,-0.006 0.102,-0.006 0.102,-0.005C0.101,-0.004 0.101,-0.002 0.101,-0.001L0.099,0.005C0.096,0.012 0.091,0.018 0.083,0.021C0.076,0.025 0.07,0.026 0.064,0.024C0.057,0.021 0.053,0.019 0.05,0.017C0.047,0.015 0.044,0.013 0.042,0.01C0.04,0.007 0.038,0.004 0.037,-0C0.037,-0.001 0.037,-0.003 0.036,-0.005L0.036,-0.012C0.036,-0.02 0.035,-0.076 0.035,-0.083C0.035,-0.106 0.036,-0.127 0.037,-0.144Z" style="fill:rgb(60,60,60);fill-rule:nonzero;"/>
            </g>
        </g>
    </g>
</svg>
