<svg xmlns="http://www.w3.org/2000/svg" xmlns:xlink="http://www.w3.org/1999/xlink" width="1226" height="456" fill-rule="evenodd" stroke-linejoin="round" stroke-miterlimit="2" xmlns:v="https://vecta.io/nano"><style><![CDATA[.B{fill:#fafcfb}.C{fill:#0f0f0f}.D{fill:#141414}.E{fill:#c9d3cd}.F{fill-rule:nonzero}]]></style><g transform="scale(.638542 .422222)"><g class="F"><path d="M1886.428 944.384h-287.141V704.053c0-17.236 9.254-31.231 20.651-31.231h245.839c11.397 0 20.651 13.995 20.651 31.231v240.332z" class="B"/><path d="M1886.394 951.073h-287.107c-2.45 0-4.423-2.984-4.423-6.689V704.053c0-20.889 11.227-37.92 25.074-37.92h245.839c13.813 0 25.074 16.979 25.074 37.92v240.332c-.034 3.705-2.007 6.689-4.457 6.689zm-282.685-13.377h278.262V704.053c0-13.532-7.281-24.543-16.228-24.543h-245.805c-8.948 0-16.228 11.011-16.228 24.543v233.643z" class="C"/><path d="M1865.743 997.277h-245.805c-11.397 0-20.651-13.995-20.651-31.231V940.32h287.107v25.726c0 17.288-9.254 31.231-20.651 31.231z" fill="#9dc6af"/><path d="M1865.743 1003.966h-245.805c-13.813 0-25.074-16.979-25.074-37.92v-32.415h295.953v32.415c0 20.941-11.227 37.92-25.074 37.92zM1603.71 947.06v19.037c0 13.532 7.281 24.543 16.228 24.543h245.839c8.948 0 16.228-11.011 16.228-24.543V947.06H1603.71z" fill="#191919"/><g class="B"><use xlink:href="#B"/><use xlink:href="#C"/></g><use xlink:href="#D" class="E"/><use xlink:href="#E" class="C"/><use xlink:href="#C" x="111.489" class="B"/><use xlink:href="#F" class="E"/><use xlink:href="#E" x="111.489" class="C"/><path d="M1760.379 844.671c0 14.561-7.893 26.498-17.521 26.498s-17.521-11.937-17.521-26.498" class="B"/><path d="M1742.858 877.909c-12.112 0-21.944-14.921-21.944-33.186 0-3.705 1.973-6.689 4.423-6.689s4.423 2.984 4.423 6.689c0 10.959 5.886 19.809 13.098 19.809 7.247 0 13.098-8.901 13.098-19.809 0-3.705 1.973-6.689 4.423-6.689s4.423 2.984 4.423 6.689c0 18.265-9.866 33.186-21.944 33.186z" class="D"/><path d="M1713.667 997.277h58.347v46.101h-58.347z" class="B"/><path d="M1772.014 1050.067h-58.347c-2.45 0-4.423-2.984-4.423-6.689v-46.101c0-3.705 1.973-6.689 4.423-6.689h58.347c2.45 0 4.423 2.984 4.423 6.689v46.101c0 3.705-1.973 6.689-4.423 6.689zm-53.924-13.377h49.501v-32.723h-49.501v32.723z" class="D"/><path d="M1796.577 1067.612h-107.474c-6.396 0-11.635-7.924-11.635-17.597s5.239-17.597 11.635-17.597h107.44c6.396 0 11.635 7.924 11.635 17.597 0 9.724-5.205 17.597-11.601 17.597z" class="B"/><path d="M1796.577 1074.3h-107.474c-8.846 0-16.058-10.908-16.058-24.285s7.213-24.285 16.058-24.285h107.44c8.846 0 16.058 10.908 16.058 24.285s-7.179 24.285-16.024 24.285zm-107.474-35.142c-3.981 0-7.213 4.888-7.213 10.908s3.232 10.908 7.213 10.908h107.44c3.981 0 7.213-4.888 7.213-10.908s-3.232-10.908-7.213-10.908h-107.44z" class="D"/><path d="M320.711 944.384H33.57V704.053c0-17.236 9.254-31.231 20.651-31.231H300.06c11.397 0 20.651 13.995 20.651 31.231v240.332z" class="B"/><path d="M320.677 951.073H33.57c-2.45 0-4.423-2.984-4.423-6.689V704.053c0-20.889 11.227-37.92 25.074-37.92H300.06c13.813 0 25.074 16.979 25.074 37.92v240.332c-.034 3.705-2.007 6.689-4.457 6.689zM37.993 937.696h278.262V704.053c0-13.532-7.281-24.543-16.228-24.543H54.221c-8.948 0-16.228 11.011-16.228 24.543v233.643z" class="C"/><path d="M300.026 997.277H54.221c-11.397 0-20.651-13.995-20.651-31.231V940.32h287.107v25.726c0 17.288-9.254 31.231-20.651 31.231z" fill="#9dc6af"/><path d="M300.026 1003.966H54.221c-13.813 0-25.074-16.979-25.074-37.92v-32.415H325.1v32.415c0 20.941-11.227 37.92-25.074 37.92zM37.993 947.06v19.037c0 13.532 7.281 24.543 16.228 24.543H300.06c8.948 0 16.228-11.011 16.228-24.543V947.06H37.993z" fill="#191919"/><g class="B"><use xlink:href="#B" x="-1565.717"/><use xlink:href="#C" x="-1565.717"/></g><use xlink:href="#D" x="-1565.717" class="E"/><use xlink:href="#E" x="-1565.717" class="C"/><use xlink:href="#C" x="-1454.228" class="B"/><use xlink:href="#F" x="-1565.717" class="E"/><use xlink:href="#E" x="-1454.228" class="C"/><path d="M194.662 844.671c0 14.561-7.893 26.498-17.521 26.498s-17.521-11.937-17.521-26.498" class="B"/><path d="M177.141 838.033c-12.112 0-21.944 14.921-21.944 33.186 0 3.705 1.973 6.689 4.423 6.689s4.423-2.984 4.423-6.689c0-10.959 5.886-19.809 13.098-19.809 7.247 0 13.098 8.901 13.098 19.809 0 3.705 1.973 6.689 4.423 6.689s4.423-2.984 4.423-6.689c0-18.265-9.866-33.186-21.944-33.186z" class="D"/><path d="M147.95 997.277h58.347v46.101H147.95z" class="B"/><path d="M206.297 1050.067H147.95c-2.45 0-4.423-2.984-4.423-6.689v-46.101c0-3.705 1.973-6.689 4.423-6.689h58.347c2.45 0 4.423 2.984 4.423 6.689v46.101c0 3.705-1.973 6.689-4.423 6.689zm-53.924-13.377h49.501v-32.723h-49.501v32.723z" class="D"/><path d="M230.86 1067.612H123.387c-6.396 0-11.635-7.924-11.635-17.597s5.239-17.597 11.635-17.597h107.44c6.396 0 11.635 7.924 11.635 17.597 0 9.724-5.205 17.597-11.601 17.597z" class="B"/><path d="M230.86 1074.3H123.387c-8.846 0-16.058-10.908-16.058-24.285s7.213-24.285 16.058-24.285h107.44c8.846 0 16.058 10.908 16.058 24.285s-7.179 24.285-16.024 24.285zm-107.474-35.142c-3.981 0-7.213 4.888-7.213 10.908s3.232 10.908 7.213 10.908h107.44c3.981 0 7.213-4.888 7.213-10.908s-3.232-10.908-7.213-10.908h-107.44z" class="D"/></g><path d="M6.293.293C6.48.105 6.735 0 7 0h8a3 3 0 0 1 3 3v3a1 1 0 1 1-2 0V3a1 1 0 0 0-1-1H8v5a1 1 0 0 1-1 1H2v11a1 1 0 0 0 1 1h2a1 1 0 1 1 0 2H3a3 3 0 0 1-3-3V7c0-.265.105-.52.293-.707l6-6zM3.414 6H6V3.414L3.414 6zM16 17a1 1 0 0 1 1-1h1a1 1 0 0 1 1 1v4a1 1 0 1 1-2 0v-3a1 1 0 0 1-1-1zm-6 2a1 1 0 1 1 2 0 1 1 0 1 1-2 0zm1-3a3 3 0 1 0 0 6 3 3 0 1 0 0-6zm6-5a1 1 0 1 0 0 2 1 1 0 1 0 0-2zm-3 1a3 3 0 1 1 6 0 3 3 0 1 1-6 0zm-4-3a1 1 0 1 0 0 2v3a1 1 0 1 0 2 0v-4a1 1 0 0 0-1-1h-1z" fill="#ca1717" transform="matrix(14.237 0 0 21.5311 1606.11 29.3831)"/><path d="M288 1094a1 1 0 0 0-1-1h-1v2h1a1 1 0 0 0 1-1m1.996-.16A3 3 0 0 1 287 1097h-1v1a1 1 0 1 1-2 0v-6a1 1 0 0 1 1-1h1.83c1.625 0 3.081 1.22 3.166 2.84M296 1091a1 1 0 0 0-1 1v1a1 1 0 1 1-2 0v-1a1 1 0 1 0-2 0v2c0 1.11.895 2 2 2v2a1 1 0 1 0 2 0v-2c1.105 0 2-.89 2-2v-2a1 1 0 0 0-1-1m8-6.01V1097c0 1.11-.895 2-2 2h-2a1 1 0 1 1 0-2h1a1 1 0 0 0 1-1v-9h-4c-1.105 0-2-.89-2-2v-4h-9a1 1 0 0 0-1 1v6a1 1 0 1 1-2 0v-7c0-1.1.895-2 2-2h11.589c.251 0 .493.1.677.27l5.412 4.98a1.01 1.01 0 0 1 .322.74" fill="#439d12" transform="matrix(14.7993 0 0 22.3816 -4173.87 -24107.3)"/><g class="F"><path d="M1112.521 378.727c0 18.404-9.865 33.324-22.035 33.324h-9.416c-3.048 24.302-9.363 46.852-18.236 66.563l6.662 10.075c8.605 13.014 8.605 34.114 0 47.127s-22.557 13.014-31.162 0l-6.662-10.075c-13.034 13.418-27.944 22.969-44.013 27.579v14.242c0 18.404-9.865 33.324-22.035 33.324s-22.035-14.92-22.035-33.324v-14.241c-16.069-4.61-30.98-14.16-44.013-27.579l-6.662 10.075c-8.605 13.014-22.557 13.014-31.162 0s-8.605-34.114 0-47.127l6.662-10.075c-8.873-19.712-15.188-42.263-18.237-66.564h-9.416c-12.169 0-22.035-14.92-22.035-33.324s9.865-33.324 22.035-33.324h9.416c3.048-24.302 9.363-46.852 18.236-66.563l-6.662-10.075c-8.605-13.014-8.605-34.114 0-47.127s22.557-13.014 31.162 0l6.662 10.075c13.034-13.418 27.945-22.97 44.014-27.58v-14.241c0-18.404 9.865-33.324 22.035-33.324s22.035 14.92 22.035 33.324v14.241c16.069 4.61 30.98 14.16 44.013 27.579l6.662-10.075c8.605-13.014 22.557-13.014 31.162 0s8.605 34.114 0 47.127l-6.662 10.075c8.873 19.711 15.188 42.261 18.236 66.563h9.417c12.169.001 22.035 14.921 22.035 33.325z" fill="#a5a5a5"/><path d="M1050.669 378.727c0 71.033-38.076 128.618-85.046 128.618s-85.046-57.584-85.046-128.618 38.076-128.618 85.046-128.618 85.046 57.584 85.046 128.618z" fill="#cccac4"/><path d="M988.818 378.727c0 19.374-10.384 35.078-23.194 35.078s-23.194-15.704-23.194-35.078 10.384-35.078 23.194-35.078 23.194 15.704 23.194 35.078z" fill="#fff"/><path d="M791.49 435.121c-.311.076-.623.114-.93.114-2.797 0-5.259-3.066-5.718-7.375l-.123-1.154c-.509-4.782 1.64-9.281 4.802-10.054 3.155-.777 6.137 2.481 6.648 7.262l.123 1.154c.51 4.782-1.64 9.282-4.802 10.052zm14.802 39.585c-1.481-4.293-4.984-5.962-7.823-3.716s-3.939 7.538-2.457 11.831l.358 1.037c1.034 2.997 3.054 4.713 5.145 4.713.904 0 1.82-.32 2.678-.999 2.839-2.241 3.939-7.538 2.457-11.831l-.358-1.035zm-12.693-95.983l.001-1.216c.009-4.843-2.58-8.78-5.783-8.794h-.016c-3.195 0-5.789 3.912-5.798 8.745l-.001 1.268c0 4.845 2.595 8.768 5.798 8.768s5.798-3.928 5.798-8.771zm331.357-95.976c1.034 2.997 3.054 4.713 5.145 4.713.904 0 1.82-.32 2.678-.999 2.839-2.241 3.939-7.538 2.457-11.831l-.358-1.037c-1.481-4.293-4.984-5.961-7.823-3.716s-3.939 7.538-2.457 11.831l.358 1.039zm-107.155 121.971c-2.889-2.085-6.351-.225-7.728 4.148l-.499 1.543c-1.437 4.328-.28 9.6 2.581 11.772.835.633 1.724.934 2.597.934 2.124 0 4.17-1.771 5.187-4.837l.605-1.874c1.376-4.372.148-9.604-2.744-11.685zM788.541 352.49a3.88 3.88 0 0 0 .754.074c2.87 0 5.364-3.223 5.743-7.642 11.067-129.043 84.403-226.355 170.585-226.355 3.203 0 5.798-3.925 5.798-8.769s-2.595-8.769-5.798-8.769c-44.881 0-88.087 24.751-121.658 69.693-33.279 44.551-54.739 105.615-60.429 171.944-.412 4.803 1.829 9.202 5.004 9.825zm346.413-20.105l.123 1.154c.459 4.31 2.921 7.375 5.718 7.375a3.82 3.82 0 0 0 .93-.114c3.162-.77 5.311-5.272 4.802-10.054l-.123-1.154c-.509-4.783-3.492-8.041-6.648-7.262-3.162.772-5.312 5.273-4.802 10.055zm-169.331 183.73c-50.092 0-90.845-61.632-90.845-137.388s40.753-137.388 90.845-137.388 90.845 61.632 90.845 137.388-40.753 137.388-90.845 137.388zm0-17.539c43.698 0 79.247-53.764 79.247-119.849s-35.549-119.849-79.247-119.849-79.247 53.763-79.247 119.849 35.549 119.849 79.247 119.849zm177.082-93.612c-3.169-.626-6.085 2.764-6.496 7.568-11.07 129.043-84.405 226.355-170.587 226.355-3.203 0-5.798 3.925-5.798 8.769s2.595 8.769 5.798 8.769c44.881 0 88.087-24.751 121.657-69.693 33.279-44.551 54.74-105.614 60.429-171.944.413-4.803-1.828-9.202-5.004-9.825zm.741-35.005c-3.203 0-5.798 3.928-5.798 8.771l-.002 1.192c-.017 4.843 2.564 8.791 5.767 8.817h.032c3.187 0 5.78-3.894 5.798-8.721l.002-1.291c0-4.845-2.595-8.768-5.798-8.768zM965.624 609.655c-15.347 0-27.833-18.882-27.833-42.093v-7.121c-13.299-4.628-25.856-12.498-37.443-23.463l-3.334 5.042c-10.852 16.412-28.509 16.412-39.363.001s-10.852-43.117 0-59.531l3.335-5.042c-7.252-17.522-12.455-36.515-15.515-56.627h-4.71c-15.347 0-27.833-18.882-27.833-42.093s12.486-42.093 27.833-42.093h4.709c3.06-20.113 8.264-39.103 15.515-56.627l-3.335-5.042c-10.852-16.412-10.852-43.117 0-59.531 10.852-16.408 28.509-16.41 39.363 0l3.334 5.043c11.586-10.967 24.145-18.836 37.443-23.463v-7.124c0-23.211 12.486-42.093 27.833-42.093s27.833 18.882 27.833 42.093v7.121c13.299 4.628 25.857 12.498 37.443 23.463l3.334-5.043c10.854-16.41 28.512-16.408 39.363 0s10.852 43.117 0 59.531l-3.335 5.043c7.25 17.521 12.454 36.513 15.514 56.626h4.71c15.347 0 27.833 18.882 27.833 42.093s-12.486 42.093-27.833 42.093h-4.71c-3.06 20.113-8.264 39.103-15.514 56.626l3.335 5.043c10.852 16.412 10.852 43.117 0 59.531s-28.509 16.411-39.363 0l-3.334-5.043c-11.585 10.967-24.145 18.836-37.443 23.463v7.121c.001 23.213-12.485 42.095-27.832 42.095zm0-17.538c8.952 0 16.236-11.016 16.236-24.555V553.32c0-4.214 1.982-7.831 4.718-8.615 15.06-4.321 29.133-13.14 41.83-26.212 2.302-2.369 5.394-1.931 7.364 1.048l6.662 10.075c6.331 9.575 16.631 9.576 22.961 0s6.331-25.152 0-34.724l-6.662-10.075c-1.969-2.979-2.26-7.654-.693-11.136 8.645-19.202 14.475-40.488 17.333-63.262.519-4.138 2.911-7.134 5.697-7.134h9.417c8.952 0 16.236-11.016 16.236-24.555s-7.284-24.555-16.236-24.555h-9.417c-2.786 0-5.178-2.997-5.697-7.134-2.858-22.776-8.688-44.061-17.333-63.262-1.567-3.483-1.276-8.157.693-11.136l6.662-10.075c6.331-9.574 6.331-25.152 0-34.724s-16.632-9.574-22.961 0l-6.662 10.075c-1.97 2.978-5.063 3.419-7.364 1.048-12.697-13.072-26.771-21.892-41.83-26.212-2.737-.784-4.718-4.402-4.718-8.615v-14.246c0-13.539-7.284-24.555-16.236-24.555s-16.236 11.016-16.236 24.555v14.242c0 4.214-1.982 7.831-4.718 8.615-15.059 4.321-29.133 13.139-41.831 26.213-2.303 2.37-5.395 1.93-7.364-1.049l-6.661-10.075c-6.331-9.573-16.632-9.574-22.961.001s-6.331 25.152 0 34.724l6.662 10.075c1.969 2.979 2.26 7.655.693 11.136-8.645 19.202-14.475 40.486-17.332 63.261-.519 4.139-2.911 7.136-5.697 7.136h-9.418c-8.952 0-16.236 11.016-16.236 24.555s7.284 24.555 16.236 24.555h9.417c2.787 0 5.178 2.997 5.697 7.136 2.857 22.776 8.688 44.06 17.332 63.261 1.567 3.482 1.277 8.157-.693 11.136l-6.662 10.075c-6.331 9.574-6.331 25.152 0 34.724s16.632 9.574 22.961 0l6.661-10.074c1.121-1.697 2.607-2.569 4.103-2.569 1.131 0 2.27.499 3.261 1.52 12.698 13.075 26.772 21.893 41.831 26.213 2.737.784 4.718 4.402 4.718 8.615v14.242c.001 13.541 7.285 24.557 16.237 24.557zm-33.555-265.976c9.052-13.213 20.969-20.492 33.555-20.492 26.645 0 48.321 32.783 48.321 73.078 0 4.845 2.595 8.769 5.798 8.769s5.798-3.925 5.798-8.769c0-49.966-26.88-90.618-59.919-90.618-15.606 0-30.384 9.025-41.609 25.412-2.304 3.364-2.368 8.916-.146 12.4s5.895 3.582 8.201.22zm33.555 8.739c15.987 0 28.993 19.669 28.993 43.847s-13.006 43.847-28.993 43.847-28.993-19.669-28.993-43.847 13.006-43.847 28.993-43.847zm0 17.538c-9.591 0-17.396 11.802-17.396 26.309s7.804 26.309 17.396 26.309 17.396-11.802 17.396-26.309-7.805-26.309-17.396-26.309zm42.37 90.385c2.264-3.426 2.264-8.977 0-12.402s-5.936-3.424-8.201 0c-9.127 13.804-21.262 21.404-34.169 21.404-26.645 0-48.321-32.783-48.321-73.078 0-4.845-2.595-8.769-5.798-8.769s-5.798 3.925-5.798 8.769c0 49.966 26.88 90.618 59.919 90.618 16.004-.001 31.051-9.428 42.369-26.542zm-93.334-90.912c.775.529 1.587.781 2.386.781 2.207 0 4.318-1.919 5.287-5.159l.391-1.277c1.373-4.375.141-9.607-2.752-11.682s-6.351-.213-7.724 4.162l-.482 1.572c-1.318 4.412-.023 9.607 2.895 11.603z" fill="#4c4c4c"/></g><path d="M491 479.05v-30.1h167.63V421L708 464l-49.37 43v-27.95H491z" fill="#439d12" transform="matrix(1.364 0 0 2.36842 -264.147 -710.748)"/><path d="M491 479.05v-30.1h167.63V421L708 464l-49.37 43v-27.95H491z" fill="#ca1717" transform="matrix(1.364 0 0 2.36842 559.964 -710.748)"/><g fill="#3c3c3c" class="F"><path d="M847.043 727.451c0-2.39-.301-4.667-.903-6.943-.677-2.163-1.505-3.984-2.484-5.236-1.957-2.504-3.989-2.163-6.096.911-1.054 1.48-2.032 3.756-2.935 6.716-.978 2.959-1.656 5.919-2.183 8.764-1.054 6.146-1.505 13.431-1.43 21.854.151 9.334 1.054 16.049 2.634 20.261 1.731 4.439 4.064 7.285 6.849 8.309 2.86 1.024 5.494-.228 7.827-3.642 2.785-3.984 5.118-10.699 7.075-20.374.226-1.024.602-1.707 1.279-2.276.602-.455 1.204-.569 1.882-.228s1.129.911 1.505 1.821c.301 1.024.376 1.935.151 2.959-2.183 10.813-5.043 18.667-8.43 23.561-3.688 5.35-7.827 7.171-12.418 5.464-4.139-1.48-7.451-5.464-9.935-11.724-2.107-5.35-3.236-13.317-3.387-23.903-.075-9.106.452-17.074 1.581-23.903.602-3.415 1.43-6.943 2.559-10.472s2.408-6.488 3.914-8.651c1.43-2.049 2.935-3.415 4.516-4.098s3.011-.797 4.441-.228c1.355.569 2.634 1.594 3.838 3.187 1.581 2.049 2.785 4.667 3.763 7.854.903 3.301 1.355 6.602 1.355 10.016 0 1.024-.226 1.935-.677 2.618-.527.797-1.129 1.138-1.806 1.138s-1.279-.341-1.731-1.138c-.527-.683-.753-1.594-.753-2.618z"/><use xlink:href="#G"/><path d="M897.319 734.963l.452 7.399.527 7.854c.075.797.075 1.594.075 2.504l1.806-5.919c1.581-4.667 3.236-7.854 4.967-9.675 1.279-1.366 2.634-1.935 3.989-1.821 1.43.228 2.785 1.252 3.989 3.187.903 1.48 1.656 3.87 2.333 7.285.376 1.935.677 4.211 1.054 6.829.677-2.618 1.43-5.008 2.258-7.171 1.43-4.098 2.86-7.285 4.29-9.561 2.183-3.301 4.365-4.553 6.623-3.984 1.43.341 2.709 1.707 3.688 3.984.753 1.594 1.355 3.756 1.882 6.374.828 4.211 1.355 9.675 1.656 16.504.226 3.529.301 7.399.376 11.724l.075 10.13c-.075 2.39-.075 4.553 0 6.374 0 1.024-.226 1.935-.677 2.732-.527.797-1.054 1.138-1.731 1.138s-1.279-.341-1.806-1.024c-.527-.797-.753-1.594-.753-2.618-.075-1.821-.075-3.984 0-6.374l-.075-9.903-.301-11.61c-.376-6.488-.828-11.496-1.505-15.025-.376-1.935-.828-3.301-1.204-4.211-.075-.341-.226-.455-.301-.569l-.226-.341c-.527-.114-1.204.569-2.183 2.049-1.129 1.707-2.258 4.211-3.462 7.74-1.054 2.846-1.957 5.919-2.709 9.106-.828 3.187-1.279 5.577-1.505 7.057-.226 2.163-.376 6.488-.376 12.748 0 .228 0 .683.075 1.48l.151 2.163c.075 1.024.075 1.707 0 2.276-.075.455-.151.911-.301 1.366-.527 1.707-1.43 2.39-2.634 2.049-.677-.114-1.204-.683-1.656-1.48-.075-.228-.226-.455-.376-.797l-.226-1.138v-.797c-.075-.341-.075-.797-.075-1.366-.075-.797-.075-2.049-.151-3.642v-2.39a101.65 101.65 0 0 1-.151-3.187c-.301-5.577-.753-10.813-1.279-15.935-.376-3.415-.828-6.26-1.204-8.537-.452-2.276-.828-3.642-1.204-4.211s-.602-.797-.828-.911c-.151 0-.376.114-.677.455-1.054 1.024-2.183 3.415-3.387 7.057-1.054 3.073-2.032 6.374-2.86 10.13s-1.43 6.488-1.656 8.195c-.376 2.846-.602 6.26-.828 10.358-.075.341 0 1.48.075 3.301.075.911.075 1.48.075 1.594v.569c0 .341-.075.797-.151 1.138-.301 1.138-.903 1.935-1.731 2.276-1.054.455-1.882 0-2.559-1.366l-.452-1.138v-.455c-.075-.114-.075-.228-.075-.341-.527-4.325-.828-10.699-.903-19.122l-.226-14.797c-.075-1.821-.226-4.439-.452-7.74l-.527-7.285c-.075-1.024.151-2.049.602-2.846s1.054-1.138 1.731-1.252 1.279.228 1.806.911.753 1.48.828 2.504zm48.019 52.131l.075 17.074c0 1.024-.226 1.821-.753 2.618-.527.683-1.054 1.024-1.731 1.024-.753 0-1.279-.341-1.731-1.138-.527-.797-.753-1.707-.753-2.732.075-4.098.075-10.016 0-17.643l-.151-16.391.075-11.951c0-3.642-.075-7.512-.301-11.61-.151-3.87-.376-7.74-.753-11.61-.075-1.024.075-2.049.527-2.846.376-.797.978-1.366 1.656-1.48.602-.114 1.279.114 1.806.683.527.683.903 1.48.978 2.504l.452 5.577c2.183-4.439 4.666-6.943 7.451-7.399 2.183-.341 4.139.455 5.946 2.39s3.312 4.553 4.516 7.74c1.129 3.073 1.957 6.488 2.484 10.13.527 3.756.677 7.626.527 11.496-.226 3.984-.978 7.74-2.333 11.382-1.43 3.642-3.312 6.602-5.795 8.878-1.279 1.252-2.709 2.163-4.139 2.618-1.43.569-2.785.911-4.064.797-1.279 0-2.559 0-3.989-.114zm-.075-7.512c1.957.341 3.763.341 5.344 0 1.581-.228 3.011-.911 4.365-2.163 2.183-2.049 3.763-5.008 4.742-8.878.978-3.756 1.279-7.74.978-11.838-.301-3.984-1.054-7.74-2.333-11.041-.828-2.39-1.806-4.098-2.785-5.122s-1.957-1.366-2.86-1.252c-1.054.114-2.258 1.252-3.462 3.301-1.355 2.163-2.559 5.577-3.838 10.244l-.151.455c.075 3.301.075 8.764 0 16.618v9.675zm28.449-44.05c.376 6.829.452 15.366.301 25.61l-.376 25.041c0 1.024-.226 1.935-.677 2.732-.527.683-1.129 1.024-1.806 1.024s-1.279-.341-1.731-1.024c-.527-.797-.753-1.707-.753-2.732l.376-25.269c.151-9.22.075-17.529-.301-24.7-.075-1.024.151-2.049.602-2.846s1.054-1.138 1.731-1.252 1.279.228 1.806.911c.452.683.753 1.48.828 2.504zm-1.054-21.74c.527.683.753 1.594.753 2.618s-.226 1.935-.677 2.618c-.527.797-1.129 1.138-1.806 1.138s-1.279-.341-1.731-1.138c-.527-.683-.753-1.594-.753-2.618s.226-1.935.753-2.732c.452-.683 1.054-1.024 1.731-1.024s1.279.341 1.731 1.138zm10.913-3.642c.226 5.577.301 22.651.301 51.448l.151 12.179.075 12.521c0 1.024-.226 1.935-.753 2.618s-1.129 1.024-1.806 1.024-1.279-.341-1.731-1.138-.677-1.707-.677-2.732c.075-2.618 0-6.602-.075-12.065l-.151-12.407-.301-50.993a4.73 4.73 0 0 1 .602-2.732c.452-.797 1.054-1.138 1.731-1.252s1.279.228 1.806.911.753 1.594.828 2.618zm26.192 63.627c-1.43-5.122-2.484-8.537-3.236-10.016-1.656-3.073-3.763-4.553-6.397-4.439s-4.666 1.935-6.172 5.464c-2.032 4.667-2.258 8.651-.527 11.951.753 1.48 1.806 2.504 3.312 3.187 1.355.797 3.011.911 4.817.455 2.183-.683 4.967-2.846 8.204-6.602zm-13.773-37.903c4.29-6.033 8.204-8.081 11.666-6.033 2.785 1.594 4.892 5.805 6.397 12.521l1.129 6.602a108.32 108.32 0 0 1 .903 7.512l.527 6.602.301 6.374c.075 2.39.151 3.87.226 4.325 0 .114.151 2.276.527 6.26l.226 3.529c.075 1.366.151 2.39.075 2.959l-.226 1.024c-.226 1.024-.677 1.707-1.279 2.049-.978.797-1.957.569-2.785-.569-.226-.341-.376-.683-.527-1.138s-.301-1.138-.452-1.935l-.301-1.594c-.075-.569-.151-.911-.226-1.024l-.527-2.276c-3.236 3.642-6.322 5.805-9.182 6.602-2.709.797-5.193.569-7.451-.569-2.333-1.138-4.139-3.073-5.494-5.805-1.43-2.732-2.183-5.919-2.107-9.675 0-3.756.753-7.399 2.333-10.927 1.581-3.642 3.688-6.26 6.247-7.74s5.193-1.594 7.827-.569c2.559 1.138 4.817 3.415 6.623 6.829.301.569.602 1.366.978 2.163-.527-6.943-1.204-12.407-2.107-16.504-.978-4.553-2.183-7.285-3.462-8.081-1.505-.911-3.688.569-6.548 4.553-.527.797-1.129 1.138-1.731 1.024-.677-.114-1.279-.455-1.731-1.252-.527-.797-.753-1.707-.677-2.732s.301-1.821.828-2.504zm50.502-23.22l.075 12.179-.075 12.293-.075 12.293c0 14.456.301 26.521.978 36.196.075 1.024-.151 1.935-.527 2.732-.452.797-.978 1.252-1.656 1.366s-1.279-.228-1.806-.797a4.89 4.89 0 0 1-.978-2.618c-.151-1.935-.301-3.984-.376-6.146-.677 1.138-1.355 2.163-2.032 3.187-3.236 4.553-7.075 5.691-11.515 3.415-4.139-2.049-6.623-7.399-7.451-16.049-.677-6.943-.151-14.114 1.505-21.74 1.806-8.081 4.365-13.431 7.677-15.821 2.032-1.48 4.139-1.707 6.322-.455 1.731 1.024 3.387 2.846 4.967 5.691v-25.496c0-1.024.226-1.935.753-2.732.452-.797 1.054-1.138 1.731-1.138s1.204.341 1.731 1.024c.527.797.753 1.594.753 2.618zm-5.043 40.18c-1.581-4.553-2.559-7.285-3.011-8.081-1.279-2.618-2.484-4.325-3.688-5.008-.828-.455-1.581-.455-2.333.114-2.032 1.48-3.763 5.35-5.118 11.496-1.43 6.488-1.882 12.634-1.355 18.326.527 5.577 1.882 8.878 4.064 10.016 2.634 1.252 4.817.683 6.698-1.821 1.806-2.504 3.462-6.146 4.892-10.927l-.151-14v-.114z"/><use xlink:href="#G" x="187.782"/><path d="M1081.113 770.931v-11.724-4.325l-.151-4.894-.151-4.211-.376-4.781-.452-4.325c-.151-1.024 0-1.935.376-2.846.376-.797.903-1.366 1.581-1.594a2.08 2.08 0 0 1 1.882.569c.527.569.903 1.48.978 2.504.677 4.667 1.054 10.13 1.204 16.391.828-1.707 1.656-3.415 2.634-5.122 4.139-7.171 8.505-12.293 13.096-15.139.677-.455 1.279-.455 1.957-.114.602.455 1.054 1.138 1.355 2.049.226 1.024.226 1.935 0 2.846-.301 1.024-.753 1.707-1.355 2.049-3.914 2.504-7.677 6.943-11.29 13.204-3.838 6.716-5.871 12.862-6.247 18.667-.075.341-.075.683-.075 1.024v9.789c0 1.024 0 2.39-.075 3.87v1.707.228c-.075.114-.075.341-.075.455l-.151.683c-.226.797-.602 1.48-1.204 1.821-.527.455-.978.569-1.43.341-.527-.341-.828-.569-1.054-.797s-.452-.455-.602-.797-.301-.683-.376-1.138c0-.114 0-.341-.075-.569v-.797l-.075-8.081a177.59 177.59 0 0 1 .151-6.943z"/></g></g><defs ><path id="B" d="M1733.842 965.428c0 7.48 4.07 13.635 9.016 13.635s9.016-6.155 9.016-13.635-4.07-13.635-9.016-13.635-9.016 6.155-9.016 13.635z"/><path id="C" d="M1652.224 786.942c0 28.931 15.742 52.738 34.872 52.738s34.872-23.807 34.872-52.738-15.742-52.738-34.872-52.738-34.872 23.807-34.872 52.738z"/><path id="D" d="M1687.096 846.369c-21.672 0-39.295-26.652-39.295-59.427s17.623-59.427 39.295-59.427 39.295 26.652 39.295 59.427-17.589 59.427-39.295 59.427zm0-105.528c-16.807 0-30.449 20.684-30.449 46.049s13.677 46.049 30.449 46.049 30.449-20.684 30.449-46.049-13.643-46.049-30.449-46.049z"/><path id="E" d="M1677.468 786.942c0 7.988 4.346 14.561 9.628 14.561s9.628-6.573 9.628-14.561h0c0-7.988-4.346-14.561-9.628-14.561s-9.628 6.573-9.628 14.561h0z"/><path id="F" d="M1798.585 846.369c-21.672 0-39.295-26.652-39.295-59.427s17.623-59.427 39.295-59.427 39.295 26.652 39.295 59.427-17.623 59.427-39.295 59.427zm0-105.528c-16.807 0-30.449 20.684-30.449 46.049s13.677 46.049 30.449 46.049 30.449-20.684 30.449-46.049-13.677-46.049-30.449-46.049z"/><path id="G" d="M878.654 738.492l-1.129-.455c-.301-.114-.527-.228-.677-.228-1.957.114-3.763 1.935-5.419 5.35-1.731 3.529-2.935 7.854-3.613 13.204-.602 5.35-.452 10.244.376 14.569.828 4.439 2.333 7.399 4.441 9.106 2.634 1.935 5.043 1.594 7.225-1.138 2.333-2.846 3.989-7.171 4.967-12.976.903-5.577.828-10.927-.151-16.049-1.054-5.122-3.086-8.878-6.021-11.382zm1.806-7.057c.376.114.677.455.903.797 2.107 1.821 3.838 4.098 5.268 6.943 1.355 2.959 2.333 5.919 2.86 8.992.527 3.187.903 6.488.978 9.903s-.226 6.602-.828 9.675c-1.204 7.512-3.462 13.204-6.698 17.074-3.838 4.667-8.053 5.35-12.569 1.821-1.731-1.252-3.236-3.187-4.441-5.691-1.279-2.39-2.107-5.008-2.559-7.968-.452-2.846-.753-5.805-.828-8.992-.151-3.187 0-6.146.452-8.992.753-6.488 2.183-11.951 4.365-16.391 2.634-5.236 5.645-7.968 9.182-8.309h.075c.677-.455 1.279-.455 1.957-.114s1.279.797 1.882 1.252z"/></defs></svg>