<svg xmlns="http://www.w3.org/2000/svg" xmlns:xlink="http://www.w3.org/1999/xlink" width="1957" height="1048" fill-rule="evenodd" stroke-linejoin="round" stroke-miterlimit="2" xmlns:v="https://vecta.io/nano"><style><![CDATA[.B{fill-rule:nonzero}.C{fill:#b7ffff}.D{fill:#c4c4ff}.E{fill:#ffe6b4}.F{fill:#ffb2b2}.G{fill:#ffb3ff}.H{fill:#b2ffb2}.I{fill:#c8deff}]]></style><path d="M-.001 92.25v-61.5h200.499V0l61.5 61.5-61.5 61.5V92.25H-.001z" fill="#ff8080"/><g class="B"><use xlink:href="#B"/><use xlink:href="#C"/><path d="M111.729 63.033c.378 1.26.546 2.562.546 3.906 0 1.302-.168 2.562-.546 3.738-.588 1.806-1.68 3.192-3.234 4.242s-3.402 1.596-5.502 1.596c-2.058 0-3.864-.504-5.418-1.554-1.554-1.008-2.604-2.394-3.234-4.116-.21-.63-.42-1.302-.546-2.1v-.084c0-.294.168-.462.504-.462h3.99c.294 0 .462.168.546.462.042.168.084.42.21.756.294.924.798 1.638 1.47 2.142s1.47.756 2.436.756 1.806-.252 2.52-.84c.714-.546 1.176-1.26 1.47-2.226.252-.672.378-1.428.378-2.31 0-.798-.126-1.596-.336-2.394-.21-.924-.63-1.638-1.344-2.142-.714-.462-1.554-.714-2.562-.714-.966 0-1.806.21-2.562.63-.798.462-1.302 1.008-1.512 1.722-.126.294-.294.42-.588.42h-4.074c-.126 0-.252-.042-.336-.168-.126-.084-.168-.21-.168-.336V47.325c0-.126.042-.252.168-.378.084-.084.21-.126.336-.126h16.338c.126 0 .252.042.378.126.084.126.126.252.126.378v3.192c0 .126-.042.252-.126.336-.126.126-.252.168-.378.168h-11.76c-.126 0-.21.084-.21.21l-.042 7.56c0 .126.042.168.084.168.042.042.126 0 .168-.042 1.302-.966 2.898-1.47 4.746-1.47 1.974 0 3.654.504 5.124 1.47 1.428 1.008 2.394 2.394 2.94 4.116z"/><use xlink:href="#D"/></g><path d="M242.248 30.75h200.249V0l61.5 61.5-61.5 61.5V92.25H242.248l30.75-30.75-30.75-30.75z" fill="#ff80ff"/><g class="B"><use xlink:href="#B" x="242.269"/><use xlink:href="#C" x="242.269"/><path d="M353.368 61.731c.756 1.428 1.134 3.15 1.134 5.208 0 1.722-.294 3.192-.84 4.494-.672 1.638-1.722 2.856-3.15 3.738-1.47.882-3.192 1.344-5.208 1.344-2.1 0-3.906-.504-5.376-1.47-1.47-.924-2.562-2.31-3.192-4.032-.462-1.176-.672-2.562-.672-4.116v-12.81c0-1.512.378-2.856 1.134-3.99s1.806-2.058 3.192-2.688c1.344-.588 2.898-.924 4.662-.924 1.722 0 3.234.294 4.578.924 1.302.63 2.352 1.47 3.108 2.604.714 1.134 1.092 2.394 1.092 3.864v.924c0 .126-.042.252-.126.336-.126.126-.252.168-.378.168h-3.864c-.126 0-.252-.042-.336-.168-.126-.084-.168-.21-.168-.336v-.294c0-1.134-.378-2.058-1.092-2.772-.756-.714-1.722-1.05-2.856-1.05-1.176 0-2.142.378-2.898 1.092-.798.756-1.176 1.722-1.176 2.898v4.578c0 .084.042.126.084.168s.126 0 .168-.042c1.176-1.134 2.814-1.722 4.872-1.722 1.638 0 3.108.336 4.368 1.05a7.83 7.83 0 0 1 2.94 3.024zM349 70.005c.42-.84.63-1.848.63-2.982 0-1.26-.252-2.352-.714-3.234-.798-1.344-2.016-2.016-3.654-2.016-1.722 0-2.982.714-3.696 2.1-.42.84-.63 1.932-.63 3.276 0 1.134.168 2.1.546 2.814.672 1.554 1.932 2.31 3.78 2.31 1.764 0 3.024-.756 3.738-2.268z"/><use xlink:href="#D" x="242.227"/></g><path d="M484.497 30.75h200.249V0l61.5 61.5-61.5 61.5V92.25H484.497l30.75-30.75-30.75-30.75z" fill="#0f0"/><g class="B"><use xlink:href="#B" x="487.129"/><use xlink:href="#C" x="487.13"/><path d="M584.452 76.221c-.42 0-.546-.21-.42-.588l9.282-24.36c.042-.168 0-.252-.168-.252h-9.03c-.126 0-.21.084-.21.21v1.89c0 .126-.042.252-.126.336-.126.126-.252.168-.378.168h-3.024c-.126 0-.252-.042-.336-.168-.126-.084-.168-.21-.168-.336v-5.796c0-.126.042-.252.168-.378.084-.084.21-.126.336-.126h17.682c.126 0 .252.042.378.126.084.126.126.252.126.378v3.36c0 .168-.042.378-.126.63l-9.24 24.486c-.084.294-.294.42-.588.42h-4.158z"/><use xlink:href="#D" x="485.366"/></g><path d="M726.246 30.75h200.249V0l61.5 61.5-61.5 61.5V92.25H726.246l30.75-30.75-30.75-30.75z" fill="#8080ff"/><g class="B"><path d="M787.596 47.115c.21-.084.42-.126.63-.126h4.032c.126 0 .252.042.378.126.084.126.126.252.126.378v28.392c0 .126-.042.252-.126.336-.126.126-.252.168-.378.168h-3.864c-.126 0-.252-.042-.336-.168-.126-.084-.168-.21-.168-.336V52.029c0-.042-.042-.126-.084-.168-.042 0-.126-.042-.168 0l-4.2 1.302c-.042.042-.126.042-.21.042-.126 0-.21-.042-.252-.126-.084-.084-.126-.21-.126-.336l-.126-2.772a.62.62 0 0 1 .336-.588l4.536-2.268z"/><use xlink:href="#C" x="726.183" y="0.168"/><path d="M837.366 63.663c.63 1.218.924 2.646.924 4.242 0 1.68-.378 3.192-1.092 4.578-.714 1.302-1.806 2.352-3.192 3.108s-3.066 1.134-4.956 1.134-3.528-.378-4.998-1.134a6.99 6.99 0 0 1-3.276-3.234c-.714-1.302-1.092-2.814-1.092-4.494 0-1.512.336-2.94.966-4.284.546-1.134 1.344-2.016 2.394-2.604.126-.084.168-.168.042-.294-.714-.504-1.344-1.218-1.89-2.1a7.4 7.4 0 0 1-1.092-3.906c0-1.764.504-3.36 1.554-4.746.756-1.092 1.764-1.932 3.066-2.562 1.302-.588 2.73-.882 4.326-.882 1.638 0 3.108.294 4.368.882 1.218.63 2.226 1.47 2.982 2.562.966 1.428 1.47 3.024 1.47 4.746 0 1.554-.378 2.898-1.134 4.032-.546.798-1.134 1.428-1.848 1.932-.126.126-.126.21 0 .294a6.28 6.28 0 0 1 2.478 2.73zm-11.928-10.836c-.336.714-.504 1.386-.504 1.932 0 .966.252 1.806.714 2.562.672 1.134 1.806 1.722 3.36 1.722 1.512 0 2.646-.588 3.444-1.764.42-.63.63-1.47.63-2.562 0-.63-.168-1.26-.462-1.932-.378-.63-.84-1.176-1.47-1.554s-1.344-.546-2.184-.546c-.798 0-1.47.168-2.1.546s-1.092.924-1.428 1.596zm7.056 17.976c.588-.798.882-1.932.882-3.318 0-1.302-.21-2.31-.672-3.024-.714-1.302-1.932-1.932-3.696-1.932-1.638 0-2.856.63-3.612 1.848-.462.756-.714 1.806-.714 3.15 0 1.302.252 2.352.756 3.15.756 1.218 1.974 1.848 3.612 1.848 1.554 0 2.73-.588 3.444-1.722zm19.614 6.048c-2.94 0-5.25-.84-6.972-2.52-1.722-1.638-2.604-3.906-2.604-6.72V55.767c0-2.814.882-4.998 2.604-6.678 1.722-1.638 4.032-2.436 6.972-2.436s5.292.798 7.056 2.436c1.722 1.68 2.604 3.864 2.604 6.678v11.844c0 2.814-.882 5.082-2.604 6.72-1.764 1.68-4.116 2.52-7.056 2.52zm0-4.242c1.47 0 2.604-.42 3.486-1.302.882-.84 1.302-1.974 1.302-3.444V55.599c0-1.47-.42-2.604-1.302-3.486-.882-.84-2.016-1.26-3.486-1.26-1.428 0-2.562.42-3.402 1.26-.882.882-1.302 2.016-1.302 3.486v12.264c0 1.47.42 2.604 1.302 3.444.84.882 1.974 1.302 3.402 1.302z"/></g><path d="M968.495 30.75h200.249V0l61.5 61.5-61.5 61.5V92.25H968.495l30.75-30.75-30.75-30.75z" fill="#0ff"/><g class="B"><use xlink:href="#E"/><use xlink:href="#C" x="968.558" y="-0.084"/><use xlink:href="#C" x="990.691" y="-0.084"/><use xlink:href="#F"/></g><use xlink:href="#G" fill="#ffc240"/><g class="B"><use xlink:href="#H"/><use xlink:href="#F" x="200.355"/><use xlink:href="#F" x="224.21"/><use xlink:href="#F" x="248.066"/></g><use xlink:href="#G" x="241.997" fill="#579aff"/><g class="B"><use xlink:href="#H" x="246.873"/><use xlink:href="#F" x="447.227"/><use xlink:href="#E" x="529.462"/><use xlink:href="#F" x="485.195"/></g><use xlink:href="#G" x="483.993" fill="#ff57a5"/><g class="B"><use xlink:href="#H" x="484.354"/><use xlink:href="#F" x="684.708"/><use xlink:href="#H" x="531.352"/><use xlink:href="#F" x="731.706"/></g><g transform="matrix(1.072624 0 0 1.000003 -151.240012 -131.000289)"><use xlink:href="#I" transform="matrix(1.10494 0 0 1 -33.5802 -20)" class="F"/><g class="B"><use xlink:href="#J"/><use xlink:href="#K"/><use xlink:href="#L"/></g></g><g transform="matrix(1.072624 0 0 1.000003 91.009181 -131.000289)"><use xlink:href="#I" transform="matrix(1.10494 0 0 1 -33.5802 -20)" class="G"/><g class="B"><use xlink:href="#K" x="-15.793"/><use xlink:href="#M"/><use xlink:href="#L" x="-1.207"/></g></g><g transform="matrix(1.072624 0 0 1.000003 333.007732 -131.000289)"><use xlink:href="#I" transform="matrix(1.10494 0 0 1 -33.5802 -20)" class="H"/><g class="B"><use xlink:href="#M" x="-46.512"/><use xlink:href="#K" x="-27.319"/><use xlink:href="#N"/><use xlink:href="#O"/><use xlink:href="#K" x="24.905"/><use xlink:href="#L" x="24.905"/></g></g><g transform="matrix(1.072624 0 0 1.000003 575.007336 -131.000289)"><use xlink:href="#I" transform="matrix(1.10494 0 0 1 -33.5802 -20)" class="D"/><g class="B"><use xlink:href="#O" x="-19.788"/><use xlink:href="#P"/><use xlink:href="#P" x="12.886"/></g></g><g transform="matrix(1.072624 0 0 1.000003 817.255477 -131.000289)"><use xlink:href="#I" transform="matrix(1.10494 0 0 1 -33.5802 -20)" class="C"/><g class="B"><use xlink:href="#Q"/><use xlink:href="#K" x="-32.572"/><use xlink:href="#N" x="-5.253"/><use xlink:href="#R"/><use xlink:href="#S"/><use xlink:href="#L" x="15.266"/><use xlink:href="#L" x="31.042"/></g></g><g transform="matrix(1.072624 0 0 1.000003 1059.499405 -131.000289)"><use xlink:href="#I" transform="matrix(1.10494 0 0 1 -33.5802 -20)" class="E"/><g class="B"><use xlink:href="#Q"/><use xlink:href="#K" x="-32.572"/><use xlink:href="#N" x="-5.253"/><use xlink:href="#R"/><use xlink:href="#S"/><use xlink:href="#L" x="15.266"/><use xlink:href="#L" x="31.042"/></g><use xlink:href="#I" transform="matrix(1.10494 0 0 1 -33.5802 -20)" class="E"/><g class="B"><path d="M154.904 267.588l6.727-.217-2.232-7.564-.806-3.193-.682 1.953-3.007 9.021zm-.682 2.077l-1.612 5.208c-.093.279-.248.465-.496.62-.248.124-.496.155-.775.093-.279-.093-.465-.248-.589-.496-.155-.248-.186-.496-.124-.775l1.488-4.805c-.217-.186-.341-.434-.372-.713s.062-.527.248-.744.434-.31.713-.341l1.054-3.1 1.209-3.596 1.023-3.069.961-2.79.589-1.55.217-.527c.031-.093.062-.155.093-.186.031-.062.062-.124.093-.155.062-.093.124-.155.186-.186.217-.217.496-.279.806-.248a.88.88 0 0 1 .62.372c.062.031.093.093.124.155s.062.124.093.155c.031.062.031.155.062.248l.155.558.465 1.767.93 3.751 2.449 8.153c.403.155.62.465.62.93a.99.99 0 0 1-.093.434c1.054 2.697 2.17 4.774 3.348 6.2.186.217.279.465.248.744a1.19 1.19 0 0 1-.341.713 1.14 1.14 0 0 1-.775.217c-.279-.031-.527-.155-.682-.372-1.333-1.612-2.604-3.906-3.782-6.913l-8.153.248z"/><use xlink:href="#T"/><use xlink:href="#U"/><use xlink:href="#V"/><path d="M209.34 254.661c-.279.031-.465.062-.62.124-1.333.527-2.387 1.736-3.162 3.658-.744 1.891-1.085 4.03-.992 6.417.093 2.449.62 4.433 1.519 6.014.961 1.643 2.201 2.511 3.751 2.604 1.643.124 2.976-.713 3.999-2.511 1.023-1.829 1.55-4.061 1.519-6.758s-.589-4.96-1.736-6.789c-1.085-1.736-2.511-2.666-4.278-2.759zm1.271-1.891c1.953.434 3.534 1.612 4.743 3.565 1.333 2.139 2.015 4.743 2.046 7.874.031 3.038-.589 5.642-1.798 7.781-.651 1.147-1.488 2.046-2.48 2.697-1.023.651-2.139.93-3.41.837-2.263-.155-4.061-1.364-5.394-3.627-1.085-1.891-1.705-4.185-1.798-6.944-.093-2.666.279-5.084 1.147-7.254.992-2.48 2.418-4.092 4.309-4.836l.279-.093c.155-.093.341-.155.527-.155h.465c.062 0 .403-.031.465-.031.031 0 .062 0 .093-.031.279-.031.558.031.806.217zm8.432 21.545l.124-4.309v-5.394l-.031-4.309v-5.177c.031-.248.031-.434.031-.589.031-.155.093-.279.155-.403.093-.217.248-.372.465-.465.279-.155.589-.155.899 0 .372.155.744.527 1.116 1.054.217.341.465.775.744 1.333l.62 1.333.403.899c2.449 4.619 4.836 8.556 7.099 11.78.031.031.248.341.651.992l-.465-3.782-.341-5.58c-.031-.837-.031-2.201-.062-4.03l-.062-4.216a1.11 1.11 0 0 1 .279-.744c.186-.217.434-.31.713-.31a1.11 1.11 0 0 1 .744.279c.217.186.31.434.31.713.031.961.031 2.387.062 4.216l.062 4.03.341 5.518c0 .155.155 1.395.434 3.751.155.992.248 1.736.279 2.232a10.76 10.76 0 0 0 .093.775v.434c0 .062 0 .124-.031.155-.031.248-.155.434-.372.589-.434.341-.899.341-1.395.031-.186-.093-.372-.279-.558-.496-.279-.279-.589-.713-.992-1.271-.217-.341-.496-.744-.806-1.271l-.558-.837c-2.325-3.317-4.743-7.316-7.223-12.028-.093-.155-.248-.465-.465-.992l-.124-.248v2.325l.031 4.34v5.456l-.124 4.34c-.031.279-.124.496-.341.713-.217.186-.465.279-.713.248-.279-.031-.527-.124-.713-.341-.217-.217-.31-.465-.279-.744zm26.226-15.469c-.062-.155-.155-.403-.248-.775l-.248-.806-.248-.651c-.093-.248-.217-.465-.31-.62l-.372-.434c-.713-.713-1.581-.93-2.604-.651s-1.736.899-2.108 1.891c-.279.713-.031 1.581.682 2.573.124.186.279.372.434.558.155.217.31.372.434.527l.589.589.496.527.682.651.589.589 1.085 1.054c.279.279.62.682 1.023 1.147l.992 1.24.744 1.333c.279.527.465.992.558 1.457s.155.961.155 1.488c-.031.558-.093 1.116-.248 1.674-.31 1.023-.837 1.798-1.612 2.387s-1.674.93-2.635 1.054c-.899.093-1.798.031-2.697-.186-.93-.248-1.736-.62-2.449-1.147-.899-.651-1.581-1.519-2.046-2.604-.496-1.054-.744-2.139-.837-3.286-.031-.279.062-.527.248-.744s.434-.31.713-.341.496.062.744.248c.217.186.31.434.341.713.062.899.279 1.736.62 2.511s.806 1.395 1.395 1.829c.527.372 1.116.651 1.767.806.651.186 1.302.248 1.953.155 1.333-.155 2.17-.837 2.511-2.015a3.15 3.15 0 0 0 .186-1.054 3.85 3.85 0 0 0-.124-1.023c-.093-.341-.217-.682-.372-1.054l-.589-1.023c-.217-.31-.496-.651-.806-1.023l-.961-1.054-1.674-1.674-.682-.62-.558-.589-.62-.651-.496-.589c-.217-.217-.372-.434-.527-.651-1.147-1.581-1.457-3.069-.93-4.464.279-.775.744-1.457 1.395-2.015.62-.558 1.302-.961 2.077-1.178.744-.217 1.55-.248 2.387-.062s1.55.589 2.201 1.209c.217.217.434.465.62.744a9.34 9.34 0 0 1 .496.961c.155.341.248.651.341.868.093.248.186.558.279.93l.186.651c.093.279.093.527-.031.775-.155.248-.341.403-.62.496s-.527.093-.775-.062c-.248-.124-.403-.31-.496-.589z"/><use xlink:href="#T" x="79.019"/><path d="M266.101 264.364c1.767-.434 3.379-1.178 4.805-2.232 1.395-1.054 2.263-2.294 2.604-3.751.248-1.147-.186-1.984-1.302-2.573-.527-.279-1.147-.465-1.86-.558s-1.333-.093-1.891.031c-.713.155-1.209.31-1.488.465a3.69 3.69 0 0 0-.527.31l-.403.248.062 8.06zm1.705 1.643c3.875 3.286 7.192 5.828 10.013 7.626a1.07 1.07 0 0 1 .434.651c.062.279 0 .527-.124.775a1.07 1.07 0 0 1-.651.434c-.279.062-.527.031-.775-.124-2.945-1.891-6.479-4.619-10.633-8.153v.62c0 .651.031 1.736.062 3.317.031 1.519.062 2.635.031 3.41 0 .279-.093.527-.31.713a1.11 1.11 0 0 1-.744.279c-.279 0-.527-.093-.713-.31a1.11 1.11 0 0 1-.279-.744c.031-.713 0-1.798-.031-3.286l-.062-3.379-.124-13.888c-.031-.279.062-.527.248-.744s.434-.31.713-.341.527.062.744.248.31.434.341.713v.124l.093-.031c.465-.248 1.147-.465 1.984-.62.775-.186 1.612-.217 2.573-.093s1.798.372 2.573.775c.899.465 1.55 1.116 2.015 1.953s.558 1.798.31 2.883c-.372 1.736-1.271 3.224-2.728 4.433a15.24 15.24 0 0 1-4.96 2.759z"/><use xlink:href="#V" x="80.817"/><path d="M285.569 266.441v1.395l.062 3.317.031 3.41c0 .279-.093.527-.31.713a1.11 1.11 0 0 1-.744.279c-.279 0-.527-.093-.713-.31a1.11 1.11 0 0 1-.279-.744c.031-.713 0-1.798-.031-3.286l-.062-3.379-.124-13.888c-.031-.279.062-.527.248-.744s.434-.31.713-.341.527.062.744.248.31.434.341.713.031.527.031.806a9.82 9.82 0 0 1 1.519-1.24c.682-.434 1.457-.744 2.356-.93.868-.155 1.736-.186 2.573-.062.93.155 1.767.496 2.48 1.023.713.558 1.24 1.333 1.519 2.294.279 1.085.31 2.139.093 3.1-.217.992-.62 1.891-1.24 2.728-.62.868-1.302 1.581-2.077 2.17-.775.62-1.581 1.116-2.418 1.457-.992.434-2.573.868-4.712 1.271zm.031-2.077c1.736-.341 3.038-.713 3.875-1.054a8.55 8.55 0 0 0 3.689-3.007c.899-1.333 1.178-2.697.775-4.03-.279-1.054-1.054-1.674-2.325-1.86s-2.449.062-3.503.713c-.961.62-1.767 1.55-2.387 2.79-.031.062-.093.124-.124.155v6.293z"/><use xlink:href="#U" x="111.817"/></g></g><g transform="matrix(1.072624 0 0 1.000003 1059.499405 -63.000098)"><use xlink:href="#I" transform="matrix(1.10494 0 0 1 -33.5802 -20)" class="E"/><g class="B"><use xlink:href="#O" x="-17.85"/><use xlink:href="#W"/></g></g><g transform="matrix(1.072624 0 0 1.000003 1301.506381 -131.000289)"><use xlink:href="#I" transform="matrix(1.10494 0 0 1 -33.5802 -20)" class="I"/><g class="B"><use xlink:href="#J" x="-4.76"/><use xlink:href="#X"/><use xlink:href="#N" x="17.833"/><use xlink:href="#Y"/></g></g><g transform="matrix(1.072624 0 0 1.000003 1543.502826 -131.000289)"><use xlink:href="#I" fill="#ffcde4" transform="matrix(1.10494 0 0 1 -33.5802 -20)"/><g class="B"><use xlink:href="#O" x="-51.816"/><use xlink:href="#K" x="-26.911"/><use xlink:href="#J" x="10.489"/><use xlink:href="#Z"/><use xlink:href="#a"/><use xlink:href="#b"/></g></g><g transform="matrix(1.072624 0 0 1.000003 1543.502826 -63.000098)"><use xlink:href="#I" fill="#ffcde4" transform="matrix(1.10494 0 0 1 -33.5802 -20)"/><g class="B"><use xlink:href="#c"/><use xlink:href="#a" x="-30.77"/><use xlink:href="#d"/><use xlink:href="#a" x="0.34"/></g></g><g transform="matrix(1.072624 0 0 1.000003 1301.748598 -63.000098)"><use xlink:href="#I" transform="matrix(1.10494 0 0 1 -33.5802 -20)" class="I"/><g class="B"><use xlink:href="#e"/><use xlink:href="#K" x="-7.446"/><use xlink:href="#J" x="29.954"/><use xlink:href="#Y" x="4.046"/></g></g><g transform="matrix(1.072624 0 0 1.000003 1300.253168 5.000093)"><use xlink:href="#I" transform="matrix(1.10494 0 0 1 -33.5802 -20)" class="I"/><g class="B"><use xlink:href="#R" x="-37.502"/><use xlink:href="#a" x="-44.251"/><use xlink:href="#Y" x="-25.194"/><use xlink:href="#L" x="-4.658"/><use xlink:href="#f"/><use xlink:href="#b" x="-9.061"/></g></g><g transform="matrix(1.072624 0 0 1.000003 1298.757738 73.000284)"><use xlink:href="#I" transform="matrix(1.10494 0 0 1 -33.5802 -20)" class="I"/><g class="B"><use xlink:href="#S" x="-48.433"/><use xlink:href="#L" x="-33.167"/><use xlink:href="#f" x="-28.509"/><path d="M237.064 265.235l-5.746 10.812a1.2 1.2 0 0 1-.68.544 1.22 1.22 0 0 1-.85-.102c-.272-.17-.442-.374-.51-.68-.102-.306-.068-.578.068-.85l6.426-12.07-5.508-9.928c-.136-.272-.17-.544-.068-.85.068-.306.238-.51.51-.68a1.22 1.22 0 0 1 .85-.102 1.2 1.2 0 0 1 .68.544l4.828 8.67 4.488-8.432c.136-.272.34-.476.646-.578.306-.068.578-.068.85.068a1.42 1.42 0 0 1 .578.68.94.94 0 0 1-.102.85l-5.168 9.758 6.97 12.308c.17.272.204.544.136.85s-.238.51-.51.68-.544.204-.85.136-.51-.238-.68-.51l-6.358-11.118z"/><use xlink:href="#f" x="-6.035"/><use xlink:href="#J" x="46.869"/></g></g><g transform="matrix(1.072624 0 0 1.000003 1297.251776 141.001006)"><use xlink:href="#I" transform="matrix(1.10494 0 0 1 -33.5802 -20)" class="I"/><g class="B"><use xlink:href="#Y" x="-87.992"/><use xlink:href="#g"/><use xlink:href="#M" x="-35.683"/><use xlink:href="#S" x="-37.23"/><use xlink:href="#N" x="5.355"/><use xlink:href="#O" x="5.355"/><use xlink:href="#J" x="47.26"/><use xlink:href="#f" x="15.742"/><use xlink:href="#M" x="47.039"/><use xlink:href="#Y" x="40.324"/></g></g><g transform="matrix(1.072624 0 0 1.000003 1295.756346 209.000241)"><use xlink:href="#I" transform="matrix(1.10494 0 0 1 -33.5802 -20)" class="I"/><g class="B"><use xlink:href="#d" x="-39.542"/><use xlink:href="#X" x="-6.953"/><use xlink:href="#L" x="-16.439"/><use xlink:href="#f" x="-11.781"/><use xlink:href="#K" x="24.123"/></g></g><g transform="matrix(1.072624 0 0 1.000003 1294.250384 277.000538)"><use xlink:href="#I" transform="matrix(1.10494 0 0 1 -33.5802 -20)" class="I"/><g class="B"><use xlink:href="#N" x="-18.598"/><use xlink:href="#h"/><use xlink:href="#f" x="-19.839"/><use xlink:href="#i"/><use xlink:href="#Y" x="3.757"/></g></g><g transform="matrix(1.072624 0 0 1.000003 1294.250384 345.000835)"><use xlink:href="#I" transform="matrix(1.10494 0 0 1 -33.5802 -20)" class="I"/><g class="B"><use xlink:href="#J" x="-8.908"/><use xlink:href="#K" x="-8.908"/><use xlink:href="#R" x="8.67"/><use xlink:href="#X" x="34.17"/></g></g><g transform="matrix(1.072624 0 0 1.000003 1058.75169 5.000093)"><use xlink:href="#I" transform="matrix(1.10494 0 0 1 -33.5802 -20)" class="E"/><g class="B"><use xlink:href="#j"/><use xlink:href="#Z" x="-61.336"/><use xlink:href="#K" x="-33.847"/><use xlink:href="#N" x="-6.528"/><use xlink:href="#f" x="-29.971"/><use xlink:href="#O" x="-2.142"/><path d="M255.186 273.871c.238.204.34.476.34.782s-.102.578-.306.782c-.238.238-.51.34-.816.34s-.578-.102-.782-.34c-.238-.204-.34-.476-.34-.782s.102-.578.34-.816c.204-.204.476-.306.782-.306s.578.102.782.34z"/><use xlink:href="#b" x="-9.248"/><use xlink:href="#S" x="32.929"/><use xlink:href="#Y" x="42.687"/></g></g><g transform="matrix(1.072624 0 0 1.000003 1058.509472 73.000284)"><use xlink:href="#I" transform="matrix(1.10494 0 0 1 -33.5802 -20)" class="E"/><g class="B"><use xlink:href="#i" x="-24.225"/><use xlink:href="#W" x="-1.615"/></g></g><g transform="matrix(1.072624 0 0 1.000003 1058.256723 141.001006)"><use xlink:href="#I" transform="matrix(1.10494 0 0 1 -33.5802 -20)" class="E"/><g class="B"><use xlink:href="#k"/><use xlink:href="#J" x="-5.916"/><use xlink:href="#a" x="-33.405"/><use xlink:href="#a" x="-15.929"/><use xlink:href="#j" x="93.483"/><use xlink:href="#g" x="89.692"/></g></g><g transform="matrix(1.072624 0 0 1.000003 1058.003974 209.000241)"><use xlink:href="#I" transform="matrix(1.10494 0 0 1 -33.5802 -20)" class="E"/><g class="B"><use xlink:href="#N" x="-27.693"/><use xlink:href="#O" x="-27.693"/><use xlink:href="#K" x="-2.788"/><use xlink:href="#L" x="-2.788"/><use xlink:href="#K" x="33.388"/></g></g><g transform="matrix(1.072624 0 0 1.000003 1057.751226 277.000538)"><use xlink:href="#I" transform="matrix(1.10494 0 0 1 -33.5802 -20)" class="E"/><g class="B"><use xlink:href="#i" x="-56.644"/><use xlink:href="#K" x="-26.979"/><use xlink:href="#O" x="-14.654"/><use xlink:href="#Y" x="-15.657"/><use xlink:href="#a" x="-2.21"/><use xlink:href="#J" x="59.755"/></g></g><g transform="matrix(1.072624 0 0 1.000003 1057.509008 345.000835)"><use xlink:href="#I" transform="matrix(1.10494 0 0 1 -33.5802 -20)" class="E"/><g class="B"><use xlink:href="#N" x="-41.769"/><use xlink:href="#O" x="-41.769"/><use xlink:href="#J" x="0.136"/><use xlink:href="#K" x="0.136"/><use xlink:href="#Y" x="-5.372"/><use xlink:href="#O" x="27.489"/><use xlink:href="#Q" x="100.436"/></g></g><g transform="matrix(1.072624 0 0 1.000003 1057.256259 413.001132)"><use xlink:href="#I" transform="matrix(1.10494 0 0 1 -33.5802 -20)" class="E"/><g class="B"><use xlink:href="#O" x="-54.145"/><use xlink:href="#L" x="-49.64"/><use xlink:href="#a" x="-40.953"/><use xlink:href="#d" x="-10.183"/><use xlink:href="#X" x="22.406"/><use xlink:href="#J" x="50.32"/><use xlink:href="#S" x="29.58"/></g></g><g transform="matrix(1.072624 0 0 1.000003 1057.256259 481.001429)"><use xlink:href="#I" transform="matrix(1.10494 0 0 1 -33.5802 -20)" class="E"/><g class="B"><use xlink:href="#k" x="32.028"/><use xlink:href="#a" x="-18.377"/></g></g><g transform="matrix(1.072624 0 0 1.000003 817.255477 -63.000098)"><use xlink:href="#I" transform="matrix(1.10494 0 0 1 -33.5802 -20)" class="C"/><g class="B"><use xlink:href="#M" x="-43.265"/><use xlink:href="#g" x="22.984"/><use xlink:href="#Y" x="-34"/><use xlink:href="#Q" x="54.978"/><use xlink:href="#a" x="-5.083"/><use xlink:href="#b" x="-5.083"/></g></g><g transform="matrix(1.072624 0 0 1.000003 817.255477 5.000093)"><use xlink:href="#I" transform="matrix(1.10494 0 0 1 -33.5802 -20)" class="C"/><g class="B"><use xlink:href="#j" x="-9.367"/><use xlink:href="#f" x="-91.732"/><use xlink:href="#N" x="-48.909"/><use xlink:href="#X" x="-36.074"/><use xlink:href="#K" x="-25.16"/><use xlink:href="#L" x="-25.16"/><use xlink:href="#l"/><use xlink:href="#K" x="36.38"/><use xlink:href="#N" x="63.699"/><use xlink:href="#f" x="40.256"/><use xlink:href="#O" x="68.085"/></g></g><g transform="matrix(1.072624 0 0 1.000003 817.255477 73.000284)"><use xlink:href="#I" transform="matrix(1.10494 0 0 1 -33.5802 -20)" class="C"/><g class="B"><use xlink:href="#Q" x="23.069"/><use xlink:href="#Y" x="-35.411"/><use xlink:href="#m"/><use xlink:href="#L" x="7.973"/></g></g><g transform="matrix(1.072624 0 0 1.000003 817.255477 141.001006)"><use xlink:href="#I" transform="matrix(1.10494 0 0 1 -33.5802 -20)" class="C"/><g class="B"><use xlink:href="#J" x="-6.239"/><use xlink:href="#X" x="-1.479"/><use xlink:href="#Z" x="-1.054"/><use xlink:href="#g" x="73.491"/></g></g><g transform="matrix(1.072624 0 0 1.000003 817.255477 209.000241)"><use xlink:href="#I" transform="matrix(1.10494 0 0 1 -33.5802 -20)" class="C"/><g class="B"><use xlink:href="#L" x="-36.737"/><use xlink:href="#X" x="4.199"/><use xlink:href="#K" x="15.113"/></g></g><path d="M968.496 511.001h192v61h-192z" class="C"/><path d="M1058.936 541.352c2.079-.476 3.975-1.292 5.653-2.448 1.641-1.156 2.662-2.516 3.063-4.114.292-1.258-.219-2.176-1.532-2.822-.62-.306-1.349-.51-2.188-.612s-1.568-.102-2.225.034c-.839.17-1.422.34-1.751.51-.146.068-.365.17-.62.34l-.474.272.073 8.84zm2.006 1.802c4.559 3.604 8.461 6.392 11.78 8.364.255.17.438.408.511.714s0 .578-.146.85c-.182.238-.438.408-.766.476a1.22 1.22 0 0 1-.912-.136c-3.465-2.074-7.622-5.066-12.509-8.942v.68c0 .714.036 1.904.073 3.638l.036 3.74c0 .306-.109.578-.365.782s-.547.306-.875.306-.62-.102-.839-.34a1.17 1.17 0 0 1-.328-.816c.036-.782 0-1.972-.036-3.604l-.073-3.706-.146-15.232c-.036-.306.073-.578.292-.816s.511-.34.839-.374.62.068.875.272.365.476.401.782v.136l.109-.034c.547-.272 1.349-.51 2.334-.68.912-.204 1.896-.238 3.027-.102s2.115.408 3.027.85c1.058.51 1.823 1.224 2.37 2.142s.656 1.972.365 3.162c-.438 1.904-1.495 3.536-3.209 4.862s-3.647 2.346-5.835 3.026z" class="B"/><g transform="matrix(1.072624 0 0 1.000003 817.255477 345.000835)"><use xlink:href="#I" transform="matrix(1.10494 0 0 1 -33.5802 -20)" class="C"/><g class="B"><use xlink:href="#d" x="-38.624"/><use xlink:href="#K" x="-10.795"/><use xlink:href="#j" x="74.052"/><use xlink:href="#K" x="23.205"/></g></g><g transform="matrix(1.072624 0 0 1.000003 817.255477 413.001132)"><use xlink:href="#I" transform="matrix(1.10494 0 0 1 -33.5802 -20)" class="C"/><g class="B"><use xlink:href="#e" x="-6.358"/><use xlink:href="#S" x="-34.544"/><use xlink:href="#L" x="-19.278"/><use xlink:href="#M" x="12.291"/><use xlink:href="#Q" x="79.526"/><use xlink:href="#f" x="15.436"/></g></g><g transform="matrix(1.072624 0 0 1.000003 817.255477 481.001429)"><use xlink:href="#I" transform="matrix(1.10494 0 0 1 -33.5802 -20)" class="C"/><g class="B"><use xlink:href="#d" x="-80.036"/><use xlink:href="#K" x="-52.207"/><use xlink:href="#j" x="32.64"/><use xlink:href="#K" x="-18.207"/><use xlink:href="#N" x="9.112"/><use xlink:href="#O" x="9.112"/><use xlink:href="#J" x="51.017"/><use xlink:href="#f" x="19.499"/><use xlink:href="#M" x="50.796"/><use xlink:href="#Y" x="44.081"/></g></g><g transform="matrix(1.072624 0 0 1.000003 817.255477 549.001726)"><use xlink:href="#I" transform="matrix(1.10494 0 0 1 -33.5802 -20)" class="C"/><g class="B"><use xlink:href="#M" x="-17.34"/><use xlink:href="#Q" x="49.895"/><use xlink:href="#M" x="12.716"/></g></g><g transform="matrix(1.072624 0 0 1.000003 817.255477 617.002024)"><use xlink:href="#I" transform="matrix(1.10494 0 0 1 -33.5802 -20)" class="C"/><g class="B"><use xlink:href="#h" x="-35.309"/><use xlink:href="#S" x="-44.37"/><use xlink:href="#l" x="-28.084"/><use xlink:href="#e" x="34.102"/><use xlink:href="#b" x="-18.309"/><use xlink:href="#K" x="44.608"/></g></g><g transform="matrix(1.072624 0 0 1.000003 817.255477 685.002321)"><use xlink:href="#I" transform="matrix(1.10494 0 0 1 -33.5802 -20)" class="C"/><g class="B"><use xlink:href="#J" x="-14.501"/><use xlink:href="#S" x="-35.241"/><use xlink:href="#Z" x="-10.064"/><use xlink:href="#a" x="-10.064"/><use xlink:href="#L" x="14.501"/></g></g><g transform="matrix(1.072624 0 0 1.000003 817.255477 753.002618)"><use xlink:href="#I" transform="matrix(1.10494 0 0 1 -33.5802 -20)" class="C"/><g class="B"><use xlink:href="#O" x="-31.025"/><use xlink:href="#L" x="-26.52"/><use xlink:href="#a" x="-17.833"/><use xlink:href="#N" x="34.051"/></g></g><g transform="matrix(1.072624 0 0 1.000003 575.007336 -63.000098)"><use xlink:href="#I" transform="matrix(1.10494 0 0 1 -33.5802 -20)" class="D"/><g class="B"><use xlink:href="#K" x="-19.992"/><use xlink:href="#e" x="26.214"/><use xlink:href="#K" x="18.768"/></g></g><g transform="matrix(1.072624 0 0 1.000003 575.007336 5.000093)"><use xlink:href="#I" transform="matrix(1.10494 0 0 1 -33.5802 -20)" class="D"/><g class="B"><use xlink:href="#O" x="-37.349"/><use xlink:href="#n"/><use xlink:href="#L" x="-21.692"/><use xlink:href="#f" x="-17.034"/><use xlink:href="#N" x="25.789"/><use xlink:href="#M" x="29.257"/></g></g><g transform="matrix(1.072624 0 0 1.000003 575.007336 73.000284)"><use xlink:href="#I" transform="matrix(1.10494 0 0 1 -33.5802 -20)" class="D"/><g class="B"><use xlink:href="#c" x="-20.009"/><use xlink:href="#K" x="-23.29"/><use xlink:href="#Y" x="-28.798"/><use xlink:href="#L" x="-8.262"/><use xlink:href="#K" x="27.914"/><use xlink:href="#Z" x="37.825"/></g></g><g transform="matrix(1.072624 0 0 1.000003 575.007336 141.001006)"><use xlink:href="#I" transform="matrix(1.10494 0 0 1 -33.5802 -20)" class="D"/><g class="B"><use xlink:href="#S" x="-49.759"/><use xlink:href="#f" x="-45.611"/><use xlink:href="#i" x="-25.772"/><use xlink:href="#i" x="-12.172"/><use xlink:href="#S" x="-3.247"/><use xlink:href="#L" x="12.019"/></g></g><g transform="matrix(1.072624 0 0 1.000003 575.007336 209.000241)"><use xlink:href="#I" transform="matrix(1.10494 0 0 1 -33.5802 -20)" class="D"/><g class="B"><use xlink:href="#a" x="-95.795"/><use xlink:href="#Z" x="-61.319"/><use xlink:href="#d" x="-48.025"/><use xlink:href="#S" x="-40.936"/><use xlink:href="#O" x="-13.345"/><use xlink:href="#Y" x="-14.348"/><use xlink:href="#f" x="-4.93"/><use xlink:href="#j" x="95.421"/><use xlink:href="#S" x="23.834"/><use xlink:href="#n" x="71.944"/><use xlink:href="#O" x="62.577"/></g></g><g transform="matrix(1.072624 0 0 1.000003 575.007336 277.000538)"><use xlink:href="#I" transform="matrix(1.10494 0 0 1 -33.5802 -20)" class="D"/><g class="B"><use xlink:href="#S" x="-62.441"/><use xlink:href="#J" x="-9.775"/><use xlink:href="#L" x="-30.175"/><use xlink:href="#K" x="6.001"/><use xlink:href="#b" x="-18.564"/><use xlink:href="#k" x="83.793"/></g></g><g transform="matrix(1.072624 0 0 1.000003 575.007336 345.000835)"><use xlink:href="#I" transform="matrix(1.10494 0 0 1 -33.5802 -20)" class="D"/><g class="B"><use xlink:href="#M" x="-26.163"/><use xlink:href="#S" x="-27.71"/><use xlink:href="#J" x="24.956"/><use xlink:href="#L" x="4.556"/></g></g><g transform="matrix(1.072624 0 0 1.000003 575.007336 413.001132)"><use xlink:href="#I" transform="matrix(1.10494 0 0 1 -33.5802 -20)" class="D"/><g class="B"><use xlink:href="#Y" x="-40.137"/><use xlink:href="#O" x="-7.276"/><use xlink:href="#L" x="-2.771"/></g></g><g transform="matrix(1.072624 0 0 1.000003 575.007336 481.001429)"><use xlink:href="#I" transform="matrix(1.10494 0 0 1 -33.5802 -20)" class="D"/><g class="B"><use xlink:href="#o"/><use xlink:href="#p"/><use xlink:href="#q"/><path d="M201.586 254.168l.15 9.72 6.96-.54-.36-9.51c0-.27.09-.51.3-.72a.95.95 0 0 1 .69-.27c.27 0 .51.09.72.27.18.21.27.45.27.72l.36 9.51c.36.15.54.45.57.84.03.36-.12.66-.42.87l1.11 8.73c.03.27-.03.54-.18.75-.18.21-.39.36-.66.39-.3.03-.54-.03-.75-.18-.21-.18-.36-.39-.39-.66l-1.08-8.76-7.14.54-.03 1.86.06 3.21.03 3.3c0 .27-.09.51-.3.69s-.45.27-.72.27-.51-.09-.69-.3-.27-.45-.27-.72c.03-.69 0-1.74-.03-3.18l-.06-3.27.03-1.68h-.09a.92.92 0 0 1-.72-.24 1.04 1.04 0 0 1-.36-.69.92.92 0 0 1 .24-.72c.18-.18.39-.3.66-.33l.27-.03-.15-9.75a.92.92 0 0 1 .24-.72c.18-.21.42-.3.69-.33a.92.92 0 0 1 .72.24c.21.18.3.42.33.69zm13.32 8.64l6.72-.54c.27 0 .51.09.72.27s.3.42.3.69-.09.51-.27.72-.42.3-.69.3c-1.41.03-3.6.21-6.54.54h-.21l-.03 7.89 8.82-.48c.27 0 .51.09.72.27s.3.42.3.69-.09.51-.27.72-.42.3-.69.3l-2.97.12-3.57.21-3 .21a1.52 1.52 0 0 1-.39.06c-.27-.03-.51-.12-.69-.33-.21-.21-.3-.42-.27-.69l.12-4.59-.06-5.1-.15-4.41-.24-4.89c-.03-.27.06-.51.27-.72.18-.21.39-.3.66-.33.09 0 .21 0 .3.03l9.06-.75c.27-.03.48.06.69.24a1.07 1.07 0 0 1 .33.69.92.92 0 0 1-.24.72c-.21.21-.45.3-.72.33l-8.34.69.3 7.14h.03z"/><use xlink:href="#o" x="78.24"/><use xlink:href="#p" x="78.24"/><use xlink:href="#q" x="78.24"/><path d="M279.826 254.168c.09 1.47.12 5.97.12 13.56 0 .63.03 1.68.06 3.21.03 1.47.06 2.55.03 3.3 0 .27-.09.51-.3.69s-.45.27-.72.27-.51-.09-.69-.3-.27-.45-.27-.72c.03-.69 0-1.74-.03-3.18l-.06-3.27-.12-13.44a.92.92 0 0 1 .24-.72c.18-.21.42-.3.69-.33a.92.92 0 0 1 .72.24c.21.18.3.42.33.69zm10.32 4.56a4.85 4.85 0 0 0-.36-1.83c-.27-.57-.6-1.05-.99-1.38-.78-.66-1.59-.57-2.43.24-.42.39-.81.99-1.17 1.77-.39.78-.66 1.56-.87 2.31-.42 1.62-.6 3.54-.57 5.76.06 2.46.42 4.23 1.05 5.34.69 1.17 1.62 1.92 2.73 2.19 1.14.27 2.19-.06 3.12-.96 1.11-1.05 2.04-2.82 2.82-5.37a1 1 0 0 1 .51-.6.93.93 0 0 1 .75-.06 1.06 1.06 0 0 1 .6.48c.12.27.15.51.06.78-.87 2.85-2.01 4.92-3.36 6.21-1.47 1.41-3.12 1.89-4.95 1.44-1.65-.39-2.97-1.44-3.96-3.09-.84-1.41-1.29-3.51-1.35-6.3-.03-2.4.18-4.5.63-6.3.24-.9.57-1.83 1.02-2.76s.96-1.71 1.56-2.28c.57-.54 1.17-.9 1.8-1.08s1.2-.21 1.77-.06a3.87 3.87 0 0 1 1.53.84c.63.54 1.11 1.23 1.5 2.07.36.87.54 1.74.54 2.64a.95.95 0 0 1-.27.69c-.21.21-.45.3-.72.3s-.51-.09-.69-.3c-.21-.18-.3-.42-.3-.69z"/><use xlink:href="#p" x="128.22"/></g></g><g transform="matrix(1.072624 0 0 1.000003 575.007336 549.001726)"><use xlink:href="#I" transform="matrix(1.10494 0 0 1 -33.5802 -20)" class="D"/><g class="B"><use xlink:href="#i" x="-21.165"/><use xlink:href="#L" x="-11.9"/></g></g><g transform="matrix(1.072624 0 0 1.000003 333.258375 -63.000098)"><use xlink:href="#I" transform="matrix(1.10494 0 0 1 -33.5802 -20)" class="H"/><g class="B"><use xlink:href="#i" x="-45.764"/><use xlink:href="#a" x="-43.588"/><use xlink:href="#J" x="18.377"/><use xlink:href="#Y" x="-7.531"/><use xlink:href="#Q" x="81.447"/></g></g><path d="M484.748 239.001h192v61h-192z" class="H"/><path d="M582.938 262.96c0-.714-.146-1.394-.438-2.074-.328-.646-.729-1.19-1.203-1.564-.948-.748-1.933-.646-2.954.272-.511.442-.985 1.122-1.422 2.006-.474.884-.802 1.768-1.058 2.618-.511 1.836-.729 4.012-.693 6.528.073 2.788.511 4.794 1.276 6.052.839 1.326 1.969 2.176 3.319 2.482 1.386.306 2.662-.068 3.793-1.088 1.349-1.19 2.48-3.196 3.428-6.086.109-.306.292-.51.62-.68.292-.136.584-.17.912-.068s.547.272.729.544c.146.306.182.578.073.884-1.058 3.23-2.443 5.576-4.085 7.038-1.787 1.598-3.793 2.142-6.017 1.632-2.006-.442-3.61-1.632-4.814-3.502-1.021-1.598-1.568-3.978-1.641-7.14-.036-2.72.219-5.1.766-7.14a16.82 16.82 0 0 1 1.24-3.128c.547-1.054 1.167-1.938 1.896-2.584.693-.612 1.422-1.02 2.188-1.224s1.459-.238 2.152-.068c.656.17 1.276.476 1.86.952.766.612 1.349 1.394 1.823 2.346.438.986.656 1.972.656 2.992 0 .306-.109.578-.328.782a1.23 1.23 0 0 1-.875.34c-.328 0-.62-.102-.839-.34-.255-.204-.365-.476-.365-.782z" class="B"/><g transform="matrix(1.072624 0 0 1.000003 333.757554 73.000284)"><use xlink:href="#I" transform="matrix(1.10494 0 0 1 -33.5802 -20)" class="H"/><g class="B"><use xlink:href="#N" x="-62.951"/><use xlink:href="#c" x="-28.747"/><use xlink:href="#K" x="-32.028"/><use xlink:href="#L" x="-32.028"/><use xlink:href="#L" x="-16.252"/><use xlink:href="#Y" x="-5.984"/><use xlink:href="#K" x="34.952"/><use xlink:href="#L" x="34.952"/><use xlink:href="#R" x="68.306"/></g></g><g transform="matrix(1.072624 0 0 1.000003 334.008196 141.001006)"><use xlink:href="#I" transform="matrix(1.10494 0 0 1 -33.5802 -20)" class="H"/><g class="B"><use xlink:href="#M" x="-44.438"/><use xlink:href="#J" x="-8.245"/><use xlink:href="#a" x="-35.734"/><use xlink:href="#L" x="-11.169"/><use xlink:href="#a" x="-2.482"/><use xlink:href="#k" x="81.923"/></g></g><g transform="matrix(1.072624 0 0 1.000003 334.257786 209.000241)"><use xlink:href="#I" transform="matrix(1.10494 0 0 1 -33.5802 -20)" class="H"/><g class="B"><use xlink:href="#c" x="16.405"/><use xlink:href="#L" x="-7.276"/></g></g><g transform="matrix(1.072624 0 0 1.000003 334.508428 277.000538)"><use xlink:href="#I" transform="matrix(1.10494 0 0 1 -33.5802 -20)" class="H"/><g class="B"><use xlink:href="#N" x="-33.49"/><use xlink:href="#O" x="-33.49"/><use xlink:href="#Q" x="39.457"/><use xlink:href="#S" x="-13.855"/><use xlink:href="#r"/><use xlink:href="#S" x="23.919"/></g></g><g transform="matrix(1.072624 0 0 1.000003 334.758018 345.000835)"><use xlink:href="#I" transform="matrix(1.10494 0 0 1 -33.5802 -20)" class="H"/><g class="B"><use xlink:href="#N" x="-8.075"/><path d="M232.593 273.395c-.612-.68-1.224-1.462-1.836-2.346-.17-.238-.238-.544-.17-.85.034-.272.204-.544.442-.714s.544-.238.85-.204a1.17 1.17 0 0 1 .714.476l1.428 1.87.034-.034c1.122-2.006 1.7-4.454 1.666-7.412s-.646-5.44-1.904-7.446c-1.19-1.904-2.754-2.924-4.692-3.026-.306.034-.51.068-.68.136-1.462.578-2.618 1.904-3.468 4.012-.816 2.074-1.19 4.42-1.088 7.038.102 2.686.68 4.862 1.666 6.596 1.054 1.802 2.414 2.754 4.114 2.856 1.088.102 2.074-.238 2.924-.952zm1.53 1.632c-1.326 1.19-2.856 1.7-4.59 1.564-2.482-.17-4.454-1.496-5.916-3.978-1.19-2.074-1.87-4.59-1.972-7.616-.102-2.924.306-5.576 1.258-7.956 1.088-2.72 2.652-4.488 4.726-5.304l.306-.102c.17-.102.374-.17.578-.17h.51c.068 0 .442-.034.51-.034.034 0 .068 0 .102-.034.306-.034.612.034.884.238 2.142.476 3.876 1.768 5.202 3.91 1.462 2.346 2.21 5.202 2.244 8.636.034 3.332-.646 6.188-1.972 8.534l-.374.612c.782.782 1.734 1.53 2.856 2.312a1.25 1.25 0 0 1 .476.748 1.14 1.14 0 0 1-.204.816 1.17 1.17 0 0 1-.714.476c-.34.034-.612-.034-.85-.204-1.156-.816-2.176-1.632-3.06-2.448z"/><use xlink:href="#L" x="-2.006"/></g></g><g transform="matrix(1.072624 0 0 1.000003 335.007607 413.001132)"><use xlink:href="#I" transform="matrix(1.10494 0 0 1 -33.5802 -20)" class="H"/><g class="B"><use xlink:href="#c" x="-33.626"/><use xlink:href="#a" x="-64.396"/><use xlink:href="#e" x="6.375"/><use xlink:href="#X" x="3.689"/><use xlink:href="#L" x="-5.797"/><use xlink:href="#K" x="30.379"/><use xlink:href="#n" x="63.223"/><path d="M285.412 257.313c1.292-2.006 2.788-3.536 4.454-4.59.986-.646 1.972-.918 2.958-.85.952.102 1.87.374 2.652.884.748.51 1.394 1.224 1.836 2.142s.646 1.87.578 2.856c-.17 2.21-1.19 4.726-3.06 7.548-1.054 1.53-2.686 3.604-4.896 6.154l-2.108 2.312 2.652-.068 7.48-.068c.306 0 .544.102.782.34.204.238.306.476.306.782s-.102.578-.34.782c-.238.238-.51.34-.816.34-.952-.034-3.4 0-7.378.068l-3.57.068h-1.564c-.068-.034-.136-.034-.204-.034l-.204-.068c-.204-.068-.374-.204-.544-.374-.238-.374-.306-.714-.136-1.054l.102-.204.068-.136.136-.136.306-.374 1.02-1.088 2.312-2.584 4.726-5.916c1.666-2.482 2.584-4.624 2.686-6.426.034-.646-.068-1.224-.34-1.768-.272-.51-.646-.918-1.088-1.19s-.952-.442-1.53-.51c-.578-.034-1.122.102-1.666.476-1.36.85-2.584 2.176-3.706 3.91-.17.238-.374.408-.68.476s-.612.034-.85-.136c-.272-.17-.442-.374-.51-.714-.068-.306-.034-.578.136-.85z"/></g></g><g transform="matrix(1.072624 0 0 1.000003 91.009181 -63.000098)"><use xlink:href="#I" transform="matrix(1.10494 0 0 1 -33.5802 -20)" class="G"/><g class="B"><use xlink:href="#N" x="-30.532"/><use xlink:href="#f" x="-53.975"/><use xlink:href="#m" x="-23.596"/><use xlink:href="#X" x="9.537"/><use xlink:href="#L" x="0.051"/><use xlink:href="#K" x="36.227"/></g></g><g transform="matrix(1.072624 0 0 1.000003 91.009181 5.000093)"><use xlink:href="#I" transform="matrix(1.10494 0 0 1 -33.5802 -20)" class="G"/><g class="B"><use xlink:href="#N" x="-33.83"/><use xlink:href="#b" x="-70.72"/><use xlink:href="#a" x="-35.292"/><use xlink:href="#Z" x="-0.816"/><use xlink:href="#a" x="-0.816"/><use xlink:href="#L" x="23.749"/></g></g><g transform="matrix(1.072624 0 0 1.000003 91.009181 73.000284)"><use xlink:href="#I" transform="matrix(1.10494 0 0 1 -33.5802 -20)" class="G"/><g class="B"><use xlink:href="#O" x="-22.083"/><use xlink:href="#M" x="-1.785"/><use xlink:href="#L" x="-2.992"/></g></g><g transform="matrix(1.072624 0 0 1.000003 91.009181 141.001006)"><use xlink:href="#I" transform="matrix(1.10494 0 0 1 -33.5802 -20)" class="G"/><g class="B"><use xlink:href="#Z" x="-37.706"/><use xlink:href="#K" x="-10.217"/><use xlink:href="#N" x="17.102"/><use xlink:href="#f" x="-6.341"/><use xlink:href="#O" x="21.488"/></g></g><g transform="matrix(1.072624 0 0 1.000003 91.009181 209.000241)"><use xlink:href="#I" transform="matrix(1.10494 0 0 1 -33.5802 -20)" class="G"/><g class="B"><use xlink:href="#M" x="-20.604"/><use xlink:href="#L" x="-21.811"/><path d="M236.792 274.517l6.222-12.342c1.802-3.434 3.74-6.766 5.746-9.996.17-.272.408-.442.714-.51s.578-.034.85.136c.238.17.408.374.476.68s.034.612-.136.85c-2.006 3.196-3.876 6.494-5.678 9.928l-6.154 12.206c-.136.306-.34.51-.646.612s-.578.068-.85-.068c-.306-.136-.51-.34-.578-.646-.102-.306-.102-.578.034-.85z"/><use xlink:href="#f" x="-0.731"/></g></g><g transform="matrix(1.072624 0 0 1.000003 91.009181 277.000538)"><use xlink:href="#I" transform="matrix(1.10494 0 0 1 -33.5802 -20)" class="G"/><g class="B"><use xlink:href="#Z" x="-32.997"/><use xlink:href="#O" x="-13.583"/><use xlink:href="#M" x="6.715"/><use xlink:href="#L" x="5.508"/></g></g><g transform="matrix(1.072624 0 0 1.000003 91.009181 345.000835)"><use xlink:href="#I" transform="matrix(1.10494 0 0 1 -33.5802 -20)" class="G"/><g class="B"><use xlink:href="#L" x="-44.438"/><use xlink:href="#a" x="-35.751"/><use xlink:href="#k" x="48.654"/><use xlink:href="#a" x="-1.751"/></g></g><path d="M242.25 647.002h192v61h-192z" class="G"/><path d="M332.106 669.329l.547 6.528c.073-.034.146-.034.182-.068.036 0 .073 0 .109-.034h.073c.036 0 .036 0 .073-.034l.328-.204.474-.204c.036-.034.073-.034.109-.068h.073l.073-.068h.073l.073-.068.109-.102 1.021-.714 3.61-2.754c1.131-1.122 1.568-2.176 1.386-3.094-.146-.884-1.021-1.292-2.662-1.258-.766.034-1.568.136-2.407.374s-1.459.476-1.933.782c-.073.034-.511.374-1.313.986zm.729 9.282l.292 7.854h.109c1.787.238 3.574.034 5.325-.578 1.714-.612 2.99-1.258 3.793-1.972 1.787-1.598 2.37-3.196 1.751-4.828-.474-1.19-1.532-1.904-3.173-2.176-1.495-.238-3.1-.136-4.85.34-.802.204-1.605.51-2.407.952l-.766.374c-.036.034-.036.034-.073.034zm6.236-4.08c.802-.034 1.568.034 2.261.17 2.589.408 4.267 1.632 5.033 3.638.511 1.326.511 2.584.036 3.842s-1.276 2.38-2.407 3.366c-.985.85-2.334 1.632-4.012 2.278-1.678.68-3.975.986-6.893.884-.036 0-.109 0-.182-.034-.219.34-.547.51-.985.51-.328 0-.62-.102-.839-.306-.255-.238-.365-.51-.365-.816 0-5.576-.438-12.75-1.313-21.488a1.07 1.07 0 0 1 .292-.85c.182-.238.474-.34.802-.374s.656.068.912.238c.255.204.365.476.401.782l.036.272a1.56 1.56 0 0 1 .255-.204c.62-.374 1.459-.714 2.516-1.02s2.079-.442 3.063-.476c.547-.034 1.094 0 1.605.102.474.102.985.238 1.495.442a3.2 3.2 0 0 1 1.313.952c.365.442.62.986.729 1.598.292 1.666-.401 3.366-2.042 5.032-.474.476-1.058.952-1.714 1.462z" class="B"/><g transform="matrix(1.072624 0 0 1.000003 -151.240012 -63.000098)"><use xlink:href="#I" transform="matrix(1.10494 0 0 1 -33.5802 -20)" class="F"/><g class="B"><use xlink:href="#K" x="-66.997"/><use xlink:href="#X" x="-41.837"/><use xlink:href="#Y" x="-56.831"/><use xlink:href="#a" x="-43.384"/><use xlink:href="#O" x="-6.494"/><use xlink:href="#a" x="-9.078"/><use xlink:href="#e" x="61.693"/><use xlink:href="#S" x="33.507"/><use xlink:href="#J" x="86.173"/></g></g><g transform="matrix(1.072624 0 0 1.000003 -151.240012 5.000093)"><use xlink:href="#I" transform="matrix(1.10494 0 0 1 -33.5802 -20)" class="F"/><g class="B"><use xlink:href="#f" x="-39.304"/><use xlink:href="#M" x="-8.007"/><use xlink:href="#L" x="-9.214"/></g></g><g transform="matrix(1.072624 0 0 1.000003 -151.240012 73.000284)"><use xlink:href="#I" transform="matrix(1.10494 0 0 1 -33.5802 -20)" class="F"/><g class="B"><use xlink:href="#i" x="-86.326"/><use xlink:href="#L" x="-77.061"/><use xlink:href="#a" x="-68.374"/><use xlink:href="#h" x="-12.886"/><use xlink:href="#n" x="11.237"/><use xlink:href="#r" x="-11.866"/><use xlink:href="#K" x="32.793"/><use xlink:href="#Y" x="27.285"/><use xlink:href="#f" x="36.703"/><use xlink:href="#O" x="64.532"/></g></g><g transform="matrix(1.072624 0 0 1.000003 -151.240012 141.001006)"><use xlink:href="#I" transform="matrix(1.10494 0 0 1 -33.5802 -20)" class="F"/><g class="B"><use xlink:href="#i" x="-65.705"/><use xlink:href="#a" x="-63.529"/><use xlink:href="#J" x="-1.564"/><use xlink:href="#Y" x="-27.472"/><use xlink:href="#J" x="30.464"/><use xlink:href="#K" x="30.464"/><use xlink:href="#b" x="5.899"/></g></g><g transform="matrix(1.072624 0 0 1.000003 -151.240012 209.000241)"><use xlink:href="#I" transform="matrix(1.10494 0 0 1 -33.5802 -20)" class="F"/><g class="B"><use xlink:href="#O" x="-62.254"/><use xlink:href="#a" x="-64.838"/><use xlink:href="#r" x="-41.684"/><use xlink:href="#Y" x="-22.933"/><use xlink:href="#J" x="35.003"/><use xlink:href="#K" x="35.003"/><use xlink:href="#b" x="10.438"/></g></g><g transform="matrix(1.072624 0 0 1.000003 -151.240012 277.000538)"><use xlink:href="#I" transform="matrix(1.10494 0 0 1 -33.5802 -20)" class="F"/><g class="B"><use xlink:href="#L" x="-35.683"/><use xlink:href="#f" x="-31.025"/><use xlink:href="#N" x="11.798"/><use xlink:href="#M" x="15.266"/></g></g><g transform="matrix(1.072624 0 0 1.000003 -151.240012 345.000835)"><use xlink:href="#I" transform="matrix(1.10494 0 0 1 -33.5802 -20)" class="F"/><g class="B"><use xlink:href="#i" x="-39.406"/><use xlink:href="#K" x="-9.741"/><use xlink:href="#O" x="2.584"/><use xlink:href="#Y" x="1.581"/></g></g><g transform="matrix(1.072624 0 0 1.000003 -151.240012 413.001132)"><use xlink:href="#I" transform="matrix(1.10494 0 0 1 -33.5802 -20)" class="F"/><g class="B"><use xlink:href="#O" x="-40.766"/><use xlink:href="#a" x="-43.35"/><use xlink:href="#Z" x="-8.874"/><use xlink:href="#a" x="-8.874"/><use xlink:href="#L" x="15.691"/></g></g><g transform="matrix(1.072624 0 0 1.000003 -151.240012 481.001429)"><use xlink:href="#I" transform="matrix(1.10494 0 0 1 -33.5802 -20)" class="F"/><g class="B"><use xlink:href="#J" x="2.533"/><use xlink:href="#M" x="-2.074"/><use xlink:href="#k" x="56.559"/></g></g><defs ><path id="B" d="M61.413 46.947c.21-.084.42-.126.63-.126h4.032c.126 0 .252.042.378.126.084.126.126.252.126.378v28.392c0 .126-.042.252-.126.336-.126.126-.252.168-.378.168h-3.864c-.126 0-.252-.042-.336-.168-.126-.084-.168-.21-.168-.336V51.861c0-.042-.042-.126-.084-.168-.042 0-.126-.042-.168 0l-4.2 1.302c-.042.042-.126.042-.21.042-.126 0-.21-.042-.252-.126-.084-.084-.126-.21-.126-.336l-.126-2.772a.62.62 0 0 1 .336-.588l4.536-2.268z"/><path id="C" d="M88.881 52.029c.462 1.176.672 2.562.672 4.116v12.81c0 1.512-.378 2.856-1.134 3.99a7.23 7.23 0 0 1-3.15 2.646c-1.386.63-2.94.966-4.704.966-1.722 0-3.234-.294-4.536-.924-1.344-.63-2.394-1.47-3.108-2.604-.756-1.134-1.134-2.394-1.134-3.864v-.924c0-.126.042-.252.168-.378.084-.084.21-.126.336-.126h3.864c.126 0 .252.042.378.126.084.126.126.252.126.378v.294c0 1.134.378 2.016 1.092 2.73.714.756 1.68 1.092 2.814 1.092 1.218 0 2.184-.378 2.982-1.134.756-.714 1.134-1.68 1.134-2.856v-4.62c0-.084-.042-.126-.084-.168s-.126 0-.168.042c-1.218 1.176-2.856 1.764-4.914 1.764-1.638 0-3.108-.336-4.326-1.05-1.26-.714-2.226-1.722-2.94-3.024-.798-1.386-1.176-3.15-1.176-5.208 0-1.722.294-3.192.84-4.494.672-1.596 1.722-2.856 3.192-3.738s3.192-1.344 5.166-1.344c2.1 0 3.906.462 5.418 1.428 1.47.966 2.562 2.352 3.192 4.074zm-4.872 7.14c.462-.882.672-1.974.672-3.276 0-1.05-.168-2.016-.546-2.814-.672-1.554-1.932-2.31-3.78-2.31-1.806 0-3.066.756-3.78 2.268-.42.924-.63 1.932-.63 2.982 0 1.26.252 2.352.756 3.234.798 1.344 1.974 2.016 3.612 2.016 1.722 0 2.982-.714 3.696-2.1z"/><path id="D" d="M125.799 76.683c-2.94 0-5.25-.84-6.972-2.52-1.722-1.638-2.604-3.906-2.604-6.72V55.599c0-2.814.882-4.998 2.604-6.678 1.722-1.638 4.032-2.436 6.972-2.436s5.292.798 7.056 2.436c1.722 1.68 2.604 3.864 2.604 6.678v11.844c0 2.814-.882 5.082-2.604 6.72-1.764 1.68-4.116 2.52-7.056 2.52zm0-4.242c1.47 0 2.604-.42 3.486-1.302.882-.84 1.302-1.974 1.302-3.444V55.431c0-1.47-.42-2.604-1.302-3.486-.882-.84-2.016-1.26-3.486-1.26-1.428 0-2.562.42-3.402 1.26-.882.882-1.302 2.016-1.302 3.486v12.264c0 1.47.42 2.604 1.302 3.444.84.882 1.974 1.302 3.402 1.302z"/><path id="E" d="M1029.971 46.863c.21-.084.42-.126.63-.126h4.032c.126 0 .252.042.378.126.084.126.126.252.126.378v28.392c0 .126-.042.252-.126.336-.126.126-.252.168-.378.168h-3.864c-.126 0-.252-.042-.336-.168-.126-.084-.168-.21-.168-.336V51.777c0-.042-.042-.126-.084-.168-.042 0-.126-.042-.168 0l-4.2 1.302c-.042.042-.126.042-.21.042-.126 0-.21-.042-.252-.126-.084-.084-.126-.21-.126-.336l-.126-2.772a.62.62 0 0 1 .336-.588l4.536-2.268z"/><path id="F" d="M1094.23 76.6c-2.94 0-5.25-.84-6.972-2.52-1.722-1.638-2.604-3.906-2.604-6.72V55.515c0-2.814.882-4.998 2.604-6.678 1.722-1.638 4.032-2.436 6.972-2.436s5.292.798 7.056 2.436c1.722 1.68 2.604 3.864 2.604 6.678V67.36c0 2.814-.882 5.082-2.604 6.72-1.764 1.68-4.116 2.52-7.056 2.52zm0-4.242c1.47 0 2.604-.42 3.486-1.302.882-.84 1.302-1.974 1.302-3.444V55.347c0-1.47-.42-2.604-1.302-3.486-.882-.84-2.016-1.26-3.486-1.26-1.428 0-2.562.42-3.402 1.26-.882.882-1.302 2.016-1.302 3.486v12.264c0 1.47.42 2.604 1.302 3.444.84.882 1.974 1.302 3.402 1.302z"/><path id="G" d="M1210.745 30.75h200.249V0l61.5 61.5-61.5 61.5V92.25h-200.249l30.75-30.75-30.75-30.75z"/><path id="H" d="M1268.166 71.686c-.042.042-.084.126-.042.168 0 .042.042.084.126.084h11.97c.126 0 .252.042.378.126.084.126.126.252.126.378v3.192c0 .126-.042.252-.126.336-.126.126-.252.168-.378.168h-18.06c-.126 0-.252-.042-.336-.168-.126-.084-.168-.21-.168-.336V72.61c0-.252.084-.462.252-.63 2.142-2.268 4.578-5.04 7.392-8.358l1.974-2.31c2.562-2.982 3.864-5.25 3.864-6.804 0-1.134-.42-2.1-1.218-2.814s-1.848-1.092-3.15-1.092-2.31.378-3.108 1.092c-.84.714-1.218 1.68-1.218 2.898v1.092c0 .126-.042.252-.126.336-.126.126-.252.168-.378.168h-3.906c-.126 0-.252-.042-.336-.168-.126-.084-.168-.21-.168-.336v-1.806a7.04 7.04 0 0 1 1.302-3.948c.798-1.134 1.932-1.974 3.318-2.604s2.898-.924 4.62-.924c1.89 0 3.528.336 4.914 1.05s2.478 1.638 3.234 2.856 1.134 2.604 1.134 4.116c0 2.31-1.218 4.956-3.654 7.938-1.344 1.68-3.57 4.2-6.636 7.56l-1.596 1.764z"/><path id="I" d="M158 254h162v61H158z"/><path id="J" d="M207.229 264.351c1.938-.476 3.706-1.292 5.27-2.448 1.53-1.156 2.482-2.516 2.856-4.114.272-1.258-.204-2.176-1.428-2.822-.578-.306-1.258-.51-2.04-.612s-1.462-.102-2.074.034c-.782.17-1.326.34-1.632.51-.136.068-.34.17-.578.34l-.442.272.068 8.84zm1.87 1.802c4.25 3.604 7.888 6.392 10.982 8.364a1.17 1.17 0 0 1 .476.714c.068.306 0 .578-.136.85a1.17 1.17 0 0 1-.714.476c-.306.068-.578.034-.85-.136-3.23-2.074-7.106-5.066-11.662-8.942v.68c0 .714.034 1.904.068 3.638.034 1.666.068 2.89.034 3.74 0 .306-.102.578-.34.782s-.51.306-.816.306-.578-.102-.782-.34-.306-.51-.306-.816c.034-.782 0-1.972-.034-3.604l-.068-3.706-.136-15.232c-.034-.306.068-.578.272-.816s.476-.34.782-.374.578.068.816.272.34.476.374.782v.136l.102-.034c.51-.272 1.258-.51 2.176-.68.85-.204 1.768-.238 2.822-.102s1.972.408 2.822.85c.986.51 1.7 1.224 2.21 2.142s.612 1.972.34 3.162c-.408 1.904-1.394 3.536-2.992 4.862s-3.4 2.346-5.44 3.026z"/><path id="K" d="M226.167 267.887l7.378-.238-2.448-8.296-.884-3.502-.748 2.142c-.204.714-1.292 4.012-3.298 9.894zm-.748 2.278a111.32 111.32 0 0 0-1.768 5.712 1.2 1.2 0 0 1-.544.68 1.22 1.22 0 0 1-.85.102c-.306-.102-.51-.272-.646-.544-.17-.272-.204-.544-.136-.85.442-1.598.986-3.332 1.632-5.27a1.18 1.18 0 0 1-.408-.782c-.034-.306.068-.578.272-.816s.476-.34.782-.374l1.156-3.4 1.326-3.944 1.122-3.366c.17-.578.51-1.598 1.054-3.06l.646-1.7c.102-.238.17-.442.238-.578.034-.102.068-.17.102-.204.034-.068.068-.136.102-.17.068-.102.136-.17.204-.204.238-.238.544-.306.884-.272.272.034.51.17.68.408.068.034.102.102.136.17s.068.136.102.17c.034.068.034.17.068.272.034.136.102.34.17.612l.51 1.938 1.02 4.114c.952 3.638 1.836 6.63 2.686 8.942a1 1 0 0 1 .68 1.02c0 .17-.034.34-.102.476 1.156 2.958 2.38 5.236 3.672 6.8.204.238.306.51.272.816s-.17.578-.374.782a1.25 1.25 0 0 1-.85.238c-.306-.034-.578-.17-.748-.408-1.462-1.768-2.856-4.284-4.148-7.582-3.026.034-6.018.102-8.942.272z"/><path id="L" d="M244.629 253.335c.442 9.146.578 15.946.408 20.434l9.996-.544c.306 0 .578.102.816.306s.34.476.34.782-.102.578-.306.816-.476.34-.782.34l-3.366.136-4.046.238-3.4.238c-.136.034-.272.068-.442.068-.306-.034-.578-.136-.782-.374-.238-.238-.34-.476-.306-.782l.136-5.202-.068-5.78-.17-4.998-.272-5.542c-.034-.306.068-.578.306-.816.204-.238.476-.34.782-.374s.544.068.782.272a1.21 1.21 0 0 1 .374.782z"/><path id="M" d="M228.802 266.629v1.53l.068 3.638.034 3.74c0 .306-.102.578-.34.782s-.51.306-.816.306-.578-.102-.782-.34-.306-.51-.306-.816c.034-.782 0-1.972-.034-3.604l-.068-3.706-.136-15.232c-.034-.306.068-.578.272-.816s.476-.34.782-.374.578.068.816.272.34.476.374.782.034.578.034.884a10.77 10.77 0 0 1 1.666-1.36c.748-.476 1.598-.816 2.584-1.02.952-.17 1.904-.204 2.822-.068 1.02.17 1.938.544 2.72 1.122.782.612 1.36 1.462 1.666 2.516.306 1.19.34 2.346.102 3.4-.238 1.088-.68 2.074-1.36 2.992-.68.952-1.428 1.734-2.278 2.38-.85.68-1.734 1.224-2.652 1.598-1.088.476-2.822.952-5.168 1.394zm.034-2.278c1.904-.374 3.332-.782 4.25-1.156 1.666-.714 3.026-1.836 4.046-3.298.986-1.462 1.292-2.958.85-4.42-.306-1.156-1.156-1.836-2.55-2.04s-2.686.068-3.842.782c-1.054.68-1.938 1.7-2.618 3.06-.034.068-.102.136-.136.17a230.85 230.85 0 0 1 0 6.902z"/><path id="N" d="M226.286 258.299c-.068-.17-.17-.442-.272-.85l-.272-.884-.272-.714c-.102-.272-.238-.51-.34-.68l-.408-.476c-.782-.782-1.734-1.02-2.856-.714s-1.904.986-2.312 2.074c-.306.782-.034 1.734.748 2.822.136.204.306.408.476.612.17.238.34.408.476.578l.646.646.544.578.748.714.646.646 1.19 1.156c.306.306.68.748 1.122 1.258l1.088 1.36.816 1.462c.306.578.51 1.088.612 1.598s.17 1.054.17 1.632c-.034.612-.102 1.224-.272 1.836-.34 1.122-.918 1.972-1.768 2.618s-1.836 1.02-2.89 1.156c-.986.102-1.972.034-2.958-.204-1.02-.272-1.904-.68-2.686-1.258-.986-.714-1.734-1.666-2.244-2.856-.544-1.156-.816-2.346-.918-3.604-.034-.306.068-.578.272-.816s.476-.34.782-.374.544.068.816.272c.238.204.34.476.374.782.068.986.306 1.904.68 2.754s.884 1.53 1.53 2.006a5.59 5.59 0 0 0 1.938.884c.714.204 1.428.272 2.142.17 1.462-.17 2.38-.918 2.754-2.21.136-.374.204-.782.204-1.156s-.034-.748-.136-1.122-.238-.748-.408-1.156l-.646-1.122c-.238-.34-.544-.714-.884-1.122l-1.054-1.156-1.836-1.836-.748-.68-.612-.646-.68-.714-.544-.646c-.238-.238-.408-.476-.578-.714-1.258-1.734-1.598-3.366-1.02-4.896a5.2 5.2 0 0 1 1.53-2.21c.68-.612 1.428-1.054 2.278-1.292.816-.238 1.7-.272 2.618-.068s1.7.646 2.414 1.326a5.41 5.41 0 0 1 .68.816c.204.34.374.68.544 1.054s.272.714.374.952a9.6 9.6 0 0 1 .306 1.02l.204.714c.102.306.102.578-.034.85a1.2 1.2 0 0 1-.68.544c-.306.102-.578.102-.85-.068-.272-.136-.442-.34-.544-.646z"/><path id="O" d="M239.444 257.959c0-.714-.136-1.394-.408-2.074-.306-.646-.68-1.19-1.122-1.564-.884-.748-1.802-.646-2.754.272-.476.442-.918 1.122-1.326 2.006-.442.884-.748 1.768-.986 2.618-.476 1.836-.68 4.012-.646 6.528.068 2.788.476 4.794 1.19 6.052.782 1.326 1.836 2.176 3.094 2.482 1.292.306 2.482-.068 3.536-1.088 1.258-1.19 2.312-3.196 3.196-6.086.102-.306.272-.51.578-.68.272-.136.544-.17.85-.068a1.2 1.2 0 0 1 .68.544c.136.306.17.578.068.884-.986 3.23-2.278 5.576-3.808 7.038-1.666 1.598-3.536 2.142-5.61 1.632-1.87-.442-3.366-1.632-4.488-3.502-.952-1.598-1.462-3.978-1.53-7.14-.034-2.72.204-5.1.714-7.14a17.56 17.56 0 0 1 1.156-3.128c.51-1.054 1.088-1.938 1.768-2.584.646-.612 1.326-1.02 2.04-1.224s1.36-.238 2.006-.068c.612.17 1.19.476 1.734.952.714.612 1.258 1.394 1.7 2.346.408.986.612 1.972.612 2.992 0 .306-.102.578-.306.782-.238.238-.51.34-.816.34s-.578-.102-.782-.34c-.238-.204-.34-.476-.34-.782z"/><path id="P" d="M231.726 262.991l-3.604.408c-.306.034-.578-.068-.782-.272a1.18 1.18 0 0 1-.408-.782c-.034-.306.068-.544.272-.816.204-.238.476-.34.782-.374l3.468-.408-.374-3.094a1.12 1.12 0 0 1 .272-.85c.17-.238.442-.374.748-.408s.578.068.816.238c.238.204.374.442.408.748l.34 3.026 3.23-.612c.306-.068.578 0 .85.136a1.17 1.17 0 0 1 .476.714c.034.306 0 .612-.17.85a1.01 1.01 0 0 1-.748.476l-3.366.646.51 3.06c.068.306.034.612-.136.85a1.17 1.17 0 0 1-.714.476 1.06 1.06 0 0 1-.85-.17c-.238-.17-.408-.374-.476-.68l-.544-3.162z"/><path id="Q" d="M176.017 252.791c.17 2.822.204 6.494.17 11.016l7.888-.612c-.272-3.434-.408-7.038-.408-10.778 0-.306.102-.578.34-.816.204-.204.476-.306.782-.306s.578.102.816.306c.204.238.306.51.306.816a138.11 138.11 0 0 0 .408 10.778c.408.17.612.51.646.952.034.408-.136.748-.476.986.272 2.992.68 6.29 1.258 9.894.034.306-.034.612-.204.85-.204.238-.442.408-.748.442-.34.034-.612-.034-.85-.204-.238-.204-.408-.442-.442-.748-.544-3.638-.952-6.936-1.224-9.928l-8.092.612c-.034 1.054-.034 1.734-.034 2.108 0 .714.034 1.904.068 3.638.034 1.666.068 2.89.034 3.74 0 .306-.102.578-.34.782s-.51.306-.816.306-.578-.102-.782-.34-.306-.51-.306-.816c.034-.782 0-1.972-.034-3.604l-.068-3.706c0-.442 0-1.054.034-1.904h-.102c-.306.034-.578-.068-.816-.272a1.18 1.18 0 0 1-.408-.782c-.034-.306.068-.578.272-.816.204-.204.442-.34.748-.374l.306-.034c.034-4.522 0-8.228-.17-11.05-.034-.306.068-.578.272-.816s.476-.34.782-.374.578.068.816.272.34.476.374.782z"/><path id="R" d="M236.061 253.981l-4.964 5.542-2.856 3.23-.816.986c.272.306.646.68 1.156 1.156l1.87 1.7 1.836 1.53 2.074 1.564 1.87 1.326 2.108 1.53 2.04 1.394a1.17 1.17 0 0 1 .476.714c.034.306-.034.612-.204.85a1.17 1.17 0 0 1-.714.476c-.306.034-.612-.034-.85-.204l-1.972-1.36-2.176-1.53-1.938-1.394-2.142-1.598-1.904-1.598-1.904-1.768-.034 1.632.068 3.638.034 3.74c0 .306-.102.578-.34.782s-.51.306-.816.306-.578-.102-.782-.34-.306-.51-.306-.816c.034-.782 0-1.972-.034-3.604l-.068-3.706-.136-15.232c-.034-.306.068-.578.272-.816s.476-.34.782-.374.578.068.816.272.34.476.374.782l.204 7.922 2.346-2.686 4.998-5.542c.204-.238.476-.34.782-.374s.544.068.782.272a1.21 1.21 0 0 1 .374.782c.034.306-.068.578-.306.816z"/><path id="S" d="M244.425 262.583l7.616-.612c.306 0 .578.102.816.306s.34.476.34.782-.102.578-.306.816-.476.34-.782.34c-1.598.034-4.08.238-7.412.612h-.238l-.034 8.942 9.996-.544c.306 0 .578.102.816.306s.34.476.34.782-.102.578-.306.816-.476.34-.782.34l-3.366.136-4.046.238-3.4.238c-.136.034-.272.068-.442.068-.306-.034-.578-.136-.782-.374-.238-.238-.34-.476-.306-.782l.136-5.202-.068-5.78-.17-4.998-.272-5.542c-.034-.306.068-.578.306-.816.204-.238.442-.34.748-.374.102 0 .238 0 .34.034 4.59-.476 8.024-.748 10.268-.85.306-.034.544.068.782.272a1.21 1.21 0 0 1 .374.782c.034.306-.068.578-.272.816-.238.238-.51.34-.816.374-2.176.102-5.338.34-9.452.782l.34 8.092h.034z"/><path id="T" d="M178.247 258.536c0-.651-.124-1.271-.372-1.891-.279-.589-.62-1.085-1.023-1.426-.806-.682-1.643-.589-2.511.248-.434.403-.837 1.023-1.209 1.829-.403.806-.682 1.612-.899 2.387-.434 1.674-.62 3.658-.589 5.952.062 2.542.434 4.371 1.085 5.518.713 1.209 1.674 1.984 2.821 2.263 1.178.279 2.263-.062 3.224-.992 1.147-1.085 2.108-2.914 2.914-5.549.093-.279.248-.465.527-.62a.96.96 0 0 1 .775-.062c.279.093.465.248.62.496.124.279.155.527.062.806-.899 2.945-2.077 5.084-3.472 6.417-1.519 1.457-3.224 1.953-5.115 1.488-1.705-.403-3.069-1.488-4.092-3.193-.868-1.457-1.333-3.627-1.395-6.51-.031-2.48.186-4.65.651-6.51a16.01 16.01 0 0 1 1.054-2.852c.465-.961.992-1.767 1.612-2.356.589-.558 1.209-.93 1.86-1.116s1.24-.217 1.829-.062c.558.155 1.085.434 1.581.868.651.558 1.147 1.271 1.55 2.139a7.04 7.04 0 0 1 .558 2.728c0 .279-.093.527-.279.713-.217.217-.465.31-.744.31s-.527-.093-.713-.31c-.217-.186-.31-.434-.31-.713z"/><path id="U" d="M184.85 253.235c2.697.093 6.913-.062 12.648-.403.279-.031.527.062.744.248a.97.97 0 0 1 .341.682.85.85 0 0 1-.248.713c-.186.217-.434.31-.713.341l-5.58.31c.558 7.998.775 14.446.651 19.344 0 .248-.093.465-.31.682-.217.186-.434.279-.713.279-.31 0-.527-.093-.713-.31a.94.94 0 0 1-.31-.713c.124-4.867-.093-11.253-.62-19.22a100.34 100.34 0 0 1-5.239.031c-.279 0-.527-.093-.713-.31-.186-.186-.279-.434-.279-.713s.093-.527.31-.713a1.26 1.26 0 0 1 .744-.248z"/><path id="V" d="M200.629 253.824c.093 1.519.124 6.169.124 14.012 0 .651.031 1.736.062 3.317.031 1.519.062 2.635.031 3.41 0 .279-.093.527-.31.713a1.11 1.11 0 0 1-.744.279c-.279 0-.527-.093-.713-.31a1.11 1.11 0 0 1-.279-.744c.031-.713 0-1.798-.031-3.286l-.062-3.379-.124-13.888c-.031-.279.062-.527.248-.744s.434-.31.713-.341.527.062.744.248.31.434.341.713z"/><path id="W" d="M241.654 262.243l-6.12.476-.034 4.726 2.618-.204 3.57-.272-.034-4.726zm-10.914-1.734l2.55.034.034-7.072c0-.306.102-.544.34-.782.238-.204.51-.306.816-.306s.544.102.782.34c.204.238.306.51.306.816l-.034 6.936 6.12-.51.034-6.018c0-.306.102-.578.34-.816.204-.204.476-.306.782-.306s.578.102.816.306c.204.238.306.51.306.816l-.034 5.814 3.842-.306c.306-.034.578.068.816.272s.34.476.374.782-.068.578-.272.816-.476.34-.782.374l-3.978.306.034 4.828 2.312-.034c.306 0 .578.102.816.306.204.238.306.51.306.816s-.102.578-.306.782c-.238.238-.51.34-.816.34l-2.21.034.408 4.794c.034.306-.068.578-.238.816s-.442.374-.748.408a1.14 1.14 0 0 1-.816-.204c-.238-.17-.408-.442-.442-.748l-.408-4.93-3.502.272-2.822.204-.136 3.604c-.034.306-.136.544-.374.748-.238.238-.51.34-.782.306-.306-.034-.578-.136-.782-.374-.238-.238-.34-.51-.306-.816l.136-3.298-3.026.068c-.306 0-.578-.102-.782-.34-.238-.204-.34-.476-.34-.782s.102-.578.34-.816c.204-.204.476-.306.782-.306l3.06-.102.034-4.794c-.918 0-1.768 0-2.618-.034-.306-.034-.578-.136-.782-.374-.238-.238-.34-.51-.306-.816.034-.272.136-.544.374-.782.238-.204.476-.306.782-.272z"/><path id="X" d="M218.551 253.029v2.958l.034 4.828.272 4.284c.238 2.482.646 4.488 1.224 6.086.612 1.734 1.394 2.822 2.346 3.332 1.122.612 2.176.442 3.128-.476.884-.884 1.564-2.176 2.074-3.91.51-1.598.85-3.434 1.054-5.508l.238-5.61-.272-5.78c-.034-.306.068-.578.272-.816s.476-.34.782-.374.544.068.816.272c.238.204.34.476.374.782l.306 5.882c.034 1.734-.068 3.706-.272 5.882-.238 2.21-.612 4.182-1.122 5.95-.646 2.074-1.53 3.672-2.686 4.828-.51.51-1.02.884-1.598 1.156a4.48 4.48 0 0 1-1.938.34c-.748-.034-1.496-.238-2.244-.646-1.428-.782-2.55-2.278-3.366-4.556-.612-1.734-1.054-3.91-1.326-6.596l-.272-4.318-.068-4.998v-2.992c0-.306.102-.544.34-.782.204-.238.476-.34.782-.34.272 0 .544.102.782.306.238.238.34.51.34.816z"/><path id="Y" d="M247.689 252.145c2.958.102 7.582-.068 13.872-.442.306-.034.578.068.816.272s.34.442.374.748-.068.578-.272.782c-.204.238-.476.34-.782.374l-6.12.34c.612 8.772.85 15.844.714 21.216 0 .272-.102.51-.34.748-.238.204-.476.306-.782.306-.34 0-.578-.102-.782-.34-.238-.238-.34-.476-.34-.782.136-5.338-.102-12.342-.68-21.08a110.05 110.05 0 0 1-5.746.034c-.306 0-.578-.102-.782-.34-.204-.204-.306-.476-.306-.782s.102-.578.34-.782c.238-.17.51-.272.816-.272z"/><path id="Z" d="M234.174 256.327l.51 6.528c.068-.034.136-.034.17-.068.034 0 .068 0 .102-.034h.068c.034 0 .034 0 .068-.034l.306-.204.442-.204c.034-.034.068-.034.102-.068h.068l.068-.068h.068l.068-.068.102-.102.952-.714 3.366-2.754c1.054-1.122 1.462-2.176 1.292-3.094-.136-.884-.952-1.292-2.482-1.258-.714.034-1.462.136-2.244.374s-1.36.476-1.802.782c-.068.034-.476.374-1.224.986zm.68 9.282l.272 7.854h.102c1.666.238 3.332.034 4.964-.578 1.598-.612 2.788-1.258 3.536-1.972 1.666-1.598 2.21-3.196 1.632-4.828-.442-1.19-1.428-1.904-2.958-2.176-1.394-.238-2.89-.136-4.522.34-.748.204-1.496.51-2.244.952l-.714.374c-.034.034-.034.034-.068.034zm5.814-4.08c.748-.034 1.462.034 2.108.17 2.414.408 3.978 1.632 4.692 3.638.476 1.326.476 2.584.034 3.842s-1.19 2.38-2.244 3.366c-.918.85-2.176 1.632-3.74 2.278-1.564.68-3.706.986-6.426.884-.034 0-.102 0-.17-.034a1 1 0 0 1-.918.51c-.306 0-.578-.102-.782-.306-.238-.238-.34-.51-.34-.816 0-5.576-.408-12.75-1.224-21.488a1.12 1.12 0 0 1 .272-.85c.17-.238.442-.34.748-.374a1.25 1.25 0 0 1 .85.238c.238.204.34.476.374.782l.034.272a1.48 1.48 0 0 1 .238-.204c.578-.374 1.36-.714 2.346-1.02s1.938-.442 2.856-.476c.51-.034 1.02 0 1.496.102.442.102.918.238 1.394.442s.884.51 1.224.952.578.986.68 1.598c.272 1.666-.374 3.366-1.904 5.032-.442.476-.986.952-1.598 1.462z"/><path id="a" d="M256.716 253.709c-.306.034-.51.068-.68.136-1.462.578-2.618 1.904-3.468 4.012-.816 2.074-1.19 4.42-1.088 7.038.102 2.686.68 4.862 1.666 6.596 1.054 1.802 2.414 2.754 4.114 2.856 1.802.136 3.264-.782 4.386-2.754 1.122-2.006 1.7-4.454 1.666-7.412s-.646-5.44-1.904-7.446c-1.19-1.904-2.754-2.924-4.692-3.026zm1.394-2.074c2.142.476 3.876 1.768 5.202 3.91 1.462 2.346 2.21 5.202 2.244 8.636.034 3.332-.646 6.188-1.972 8.534-.714 1.258-1.632 2.244-2.72 2.958-1.122.714-2.346 1.02-3.74.918-2.482-.17-4.454-1.496-5.916-3.978-1.19-2.074-1.87-4.59-1.972-7.616-.102-2.924.306-5.576 1.258-7.956 1.088-2.72 2.652-4.488 4.726-5.304l.306-.102c.17-.102.374-.17.578-.17h.51c.068 0 .442-.034.51-.034.034 0 .068 0 .102-.034.306-.034.612.034.884.238z"/><path id="b" d="M267.358 275.265l.136-4.726v-5.916l-.034-4.726v-5.678c.034-.272.034-.476.034-.646.034-.17.102-.306.17-.442.102-.238.272-.408.51-.51.306-.17.646-.17.986 0 .408.17.816.578 1.224 1.156.238.374.51.85.816 1.462l.68 1.462.442.986c2.686 5.066 5.304 9.384 7.786 12.92.034.034.272.374.714 1.088l-.51-4.148-.374-6.12c-.034-.918-.034-2.414-.068-4.42l-.068-4.624c0-.306.102-.578.306-.816s.476-.34.782-.34.578.102.816.306.34.476.34.782c.034 1.054.034 2.618.068 4.624l.068 4.42.374 6.052c0 .17.17 1.53.476 4.114.17 1.088.272 1.904.306 2.448a11.8 11.8 0 0 0 .102.85v.476c0 .068 0 .136-.034.17-.034.272-.17.476-.408.646-.476.374-.986.374-1.53.034-.204-.102-.408-.306-.612-.544-.306-.306-.646-.782-1.088-1.394-.238-.374-.544-.816-.884-1.394l-.612-.918c-2.55-3.638-5.202-8.024-7.922-13.192-.102-.17-.272-.51-.51-1.088l-.136-.272v2.55l.034 4.76v5.984l-.136 4.76a1.21 1.21 0 0 1-.374.782c-.238.204-.51.306-.782.272-.306-.034-.578-.136-.782-.374-.238-.238-.34-.51-.306-.816z"/><path id="c" d="M195.72 275.707l-.068-8.194-.102-8.16-.034-1.972-.068-1.326v-1.972-.714c.034-.102.034-.204.068-.306.034-.272.136-.51.306-.68a1.18 1.18 0 0 1 .68-.34c.238-.034.442 0 .544.068l.306.136c.102.102.204.204.306.34.102.102.204.272.34.51l.714 1.394 1.224 2.754c.612 1.394 1.428 2.992 2.448 4.76.68 1.19 1.258 2.074 1.734 2.652l.136.136.544-1.224 2.04-4.76 2.142-4.828.85-1.666c.136-.238.272-.408.374-.544.102-.102.17-.204.272-.306.238-.17.476-.272.714-.306.578-.034 1.02.204 1.36.748.136.238.238.51.34.884.17.51.306 1.19.442 2.108l.204 1.36.136 1.36.068.646c.782 6.494 1.904 12.308 3.366 17.476a1.22 1.22 0 0 1-.102.85 1.2 1.2 0 0 1-.68.544 1.22 1.22 0 0 1-.85-.102 1.2 1.2 0 0 1-.544-.68c-1.462-5.27-2.618-11.22-3.434-17.816 0-.034 0-.272-.034-.646s-.102-.816-.136-1.292l-.204-1.36-.068-.374-.034.102-2.142 4.726-2.04 4.76-.68 1.632c-.102.204-.204.374-.238.51-.034.068-.068.136-.102.17-.034.068-.068.102-.102.136-.102.17-.238.272-.408.34-.578.306-1.156.238-1.768-.136-.374-.204-.748-.544-1.122-1.02-.578-.68-1.258-1.666-1.972-2.958-1.088-1.87-1.938-3.536-2.55-4.998l-.136-.306a38.89 38.89 0 0 1 .034 1.53l.102 8.16.068 8.194c0 .306-.102.578-.306.816-.238.204-.51.306-.816.306s-.578-.102-.782-.306c-.238-.238-.34-.51-.34-.816z"/><path id="d" d="M239.036 262.073c-.986 2.414-1.496 4.896-1.53 7.378-.034 2.958.714 4.76 2.312 5.406.442.17.952.272 1.462.306s.918-.034 1.258-.204c1.156-.51 2.006-1.666 2.516-3.434.51-1.666.714-3.774.612-6.324a43.98 43.98 0 0 0-.714-6.562l-1.326-5.508c-.102-.306-.102-.578.068-.85.136-.272.34-.476.646-.578s.578-.068.85.068a1.2 1.2 0 0 1 .544.68c.51 1.53.952 3.434 1.394 5.78s.714 4.624.782 6.902c.102 2.788-.136 5.134-.714 7.038-.714 2.414-1.972 4.012-3.706 4.828-.782.306-1.564.442-2.346.408s-1.496-.17-2.142-.442c-2.55-1.054-3.808-3.57-3.74-7.582.068-2.72.612-5.44 1.666-8.126.102-.306.306-.51.612-.646.272-.102.544-.102.85 0s.51.306.646.578c.102.306.102.578 0 .884z"/><path id="e" d="M198.321 273.191c2.38.918 4.59 1.088 6.664.51 2.788-.782 4.522-2.312 5.168-4.522.612-2.006.306-4.318-.884-6.868-1.122-2.38-2.72-4.352-4.794-5.916s-4.216-2.278-6.358-2.176l.068 5.474.034 4.964.102 8.534zm-1.53-21.046c1.496-.272 2.992-.204 4.522.204 1.496.408 2.89 1.054 4.148 1.938 1.258.918 2.38 1.972 3.4 3.196.986 1.19 1.802 2.482 2.448 3.876 1.428 3.094 1.768 5.916.986 8.466a8.35 8.35 0 0 1-2.312 3.706c-1.122 1.054-2.584 1.836-4.386 2.346-2.38.68-4.862.544-7.48-.374a1.03 1.03 0 0 1-1.088.68c-.306-.034-.578-.136-.782-.374s-.306-.51-.272-.816l.102-2.006.034-2.176-.034-1.938-.068-2.176-.034-1.972-.034-5.202-.102-6.018c0-.136 0-.238.034-.34.034-.272.136-.51.306-.68s.374-.306.612-.34z"/><path id="f" d="M255.577 252.791c.102 1.666.136 6.766.136 15.368 0 .714.034 1.904.068 3.638.034 1.666.068 2.89.034 3.74 0 .306-.102.578-.34.782s-.51.306-.816.306-.578-.102-.782-.34-.306-.51-.306-.816c.034-.782 0-1.972-.034-3.604l-.068-3.706-.136-15.232c-.034-.306.068-.578.272-.816s.476-.34.782-.374.578.068.816.272.34.476.374.782z"/><path id="g" d="M190.467 252.859l-3.434 8.058-2.992 8.092-1.02 3.536-.816 3.128a1.2 1.2 0 0 1-.544.68 1.22 1.22 0 0 1-.85.102c-.306-.102-.51-.272-.646-.544-.17-.272-.204-.544-.136-.85l.85-3.162.986-3.57.272-.816c-2.992-6.12-5.406-10.812-7.242-14.042-.136-.272-.17-.544-.068-.85.068-.306.238-.51.51-.68a1.22 1.22 0 0 1 .85-.102 1.2 1.2 0 0 1 .68.544c1.734 3.06 3.808 7.106 6.29 12.138l1.802-4.454 3.4-8.024a1.2 1.2 0 0 1 .646-.646c.272-.102.544-.102.85 0 .272.136.476.34.612.612.102.306.102.578 0 .85z"/><path id="h" d="M212.822 252.553l.85 5.338 1.088 6.528.952 5.338c.034.034.068.204.102.51l.17 1.054.238 1.224.612-1.836 2.55-6.8c.034-.034.034-.068.068-.102 0-.034 0-.068.034-.136.034-.034.034-.068.034-.102l.272-.544c.17-.272.34-.476.578-.612.442-.306.884-.374 1.394-.136.306.136.612.442.918.884l.646 1.122c.408.748.884 1.768 1.462 3.06l1.326 3.06.986 2.244.306-2.108.136-1.36 1.19-7.48 1.394-9.316c.034-.306.204-.544.442-.748.238-.17.544-.238.85-.204s.544.204.748.442c.17.238.238.544.204.85l-1.428 9.316-1.156 7.48c-.034.102-.068.544-.17 1.36l-.306 2.142-.34 2.108-.238.85c-.034.136-.102.272-.136.374-.102.238-.272.408-.476.544a1.09 1.09 0 0 1-1.156.034c-.102-.034-.17-.102-.272-.204-.034-.034-.102-.102-.136-.17-.034-.034-.068-.102-.102-.136l-.646-1.292-.748-1.53-.986-2.244-1.326-3.094-1.394-2.924-.068-.136c-.238.51-.986 2.584-2.312 6.256l-1.224 3.332-.442 1.122c-.068.17-.136.306-.204.408a1.48 1.48 0 0 1-.204.238c-.238.238-.51.374-.816.374-.374.034-.68-.102-.952-.408-.102-.102-.204-.272-.306-.442s-.204-.442-.306-.782l-.442-2.006-.272-1.326-.204-1.224-.068-.578-.986-5.338-1.088-6.562-.884-5.372a1.14 1.14 0 0 1 .204-.816 1.25 1.25 0 0 1 .748-.476c.272-.034.578.034.816.204a1.25 1.25 0 0 1 .476.748z"/><path id="i" d="M240.702 262.583l7.616-.612c.306 0 .578.102.816.306s.34.476.34.782-.102.578-.306.816-.476.34-.782.34c-1.598.034-4.08.238-7.412.612h-.238c.102 3.808.068 7.208-.068 10.234-.034.306-.136.578-.374.816-.238.204-.476.306-.782.272s-.578-.136-.782-.374c-.238-.238-.34-.476-.306-.782l.136-5.202-.068-5.78-.17-4.998-.272-5.542c-.034-.306.068-.578.306-.816.204-.238.442-.34.748-.374.102 0 .238 0 .34.034 4.59-.476 8.024-.748 10.268-.85.306-.034.544.068.782.272a1.21 1.21 0 0 1 .374.782c.034.306-.068.578-.272.816-.238.238-.51.34-.816.374-2.176.102-5.338.34-9.452.782l.34 8.092h.034z"/><path id="j" d="M158.796 252.723c.51 2.006 1.054 4.828 1.7 8.5l1.598 8.398.782 3.332.238.816.306-1.02c.17-.51.34-1.156.51-1.938l.238-1.156 1.292-5.168 1.598-6.46 1.19-5.202c.068-.306.238-.544.51-.714.238-.17.544-.204.85-.136a1.17 1.17 0 0 1 .714.476c.17.238.204.544.136.85l-1.19 5.202-1.598 6.528-1.292 5.168c0 .034-.102.408-.306 1.19l-.442 1.904-.578 1.87-.374.782c-.204.374-.442.612-.748.748-.578.306-1.122.272-1.632-.102-.272-.17-.51-.476-.748-.884-.306-.476-.578-1.19-.816-2.108-.102-.17-.374-1.36-.85-3.502-.272-1.122-.816-3.944-1.598-8.5l-1.7-8.33c-.068-.306-.034-.578.136-.85s.374-.442.68-.51.578-.034.884.136c.272.17.442.374.51.68z"/><path id="k" d="M192.677 257.993c-.442-1.258-.952-2.21-1.53-2.924s-1.088-1.122-1.598-1.258c-.442-.102-.952.068-1.53.51-.612.442-1.258 1.36-1.904 2.754-.51 1.054-.918 2.414-1.224 4.012s-.408 3.23-.374 4.896c.034 1.768.306 3.332.816 4.658.476 1.36 1.156 2.346 2.04 2.992.986.714 1.904.816 2.788.34s1.768-1.428 2.618-2.89c.68-1.19 1.258-2.55 1.734-4.046l.34-1.156h-.102l-2.448-.034h-1.768l-1.666.068-.816.034c-.306 0-.578-.102-.816-.34-.238-.204-.34-.476-.34-.782s.102-.544.34-.782c.204-.238.442-.34.748-.34l.85-.034 1.666-.068h1.768l2.618.034 1.02.102c.17.034.34.068.442.136.34.102.578.306.714.578.136.238.204.544.17.884l-.102.646a11.29 11.29 0 0 1-.476 1.734c-.51 1.632-1.156 3.128-1.938 4.488-1.054 1.802-2.21 3.06-3.468 3.74-1.734.918-3.434.782-5.168-.476-1.258-.918-2.21-2.244-2.788-3.91-.612-1.666-.952-3.502-1.02-5.508a23.86 23.86 0 0 1 .408-5.406c.34-1.802.816-3.298 1.394-4.522.816-1.666 1.734-2.924 2.754-3.706s2.108-1.054 3.264-.782c1.904.476 3.468 2.312 4.692 5.542.102.306.102.578-.034.85-.136.306-.34.51-.612.612-.306.102-.578.102-.85-.034-.306-.136-.51-.34-.612-.612z"/><path id="l" d="M243.065 256.327l.51 6.528c.068-.034.136-.034.17-.068.034 0 .068 0 .102-.034h.068c.034 0 .034 0 .068-.034l.306-.204.442-.204c.034-.034.068-.034.102-.068h.068l.068-.068h.068l.068-.068.102-.102.952-.714 3.366-2.754c1.054-1.122 1.462-2.176 1.292-3.094-.136-.884-.952-1.292-2.482-1.258-.714.034-1.462.136-2.244.374s-1.36.476-1.802.782c-.068.034-.476.374-1.224.986zm.68 9.282l.272 7.854h.102c1.666.238 3.332.034 4.964-.578 1.598-.612 2.788-1.258 3.536-1.972 1.666-1.598 2.21-3.196 1.632-4.828-.442-1.19-1.428-1.904-2.958-2.176-1.394-.238-2.89-.136-4.522.34-.748.204-1.496.51-2.244.952l-.714.374c-.034.034-.034.034-.068.034zm5.814-4.08c.748-.034 1.462.034 2.108.17 2.414.408 3.978 1.632 4.692 3.638.476 1.326.476 2.584.034 3.842s-1.19 2.38-2.244 3.366c-.918.85-2.176 1.632-3.74 2.278-1.564.68-3.706.986-6.426.884-.034 0-.102 0-.17-.034a1 1 0 0 1-.918.51c-.306 0-.578-.102-.782-.306-.238-.238-.34-.51-.34-.816 0-5.576-.408-12.75-1.224-21.488a1.12 1.12 0 0 1 .272-.85c.17-.238.442-.34.748-.374a1.25 1.25 0 0 1 .85.238c.238.204.34.476.374.782l.034.272c.068-.068.136-.136.238-.204.578-.374 1.36-.714 2.346-1.02s1.938-.442 2.856-.476c.51-.034 1.02 0 1.496.102.442.102.918.238 1.394.442s.884.51 1.224.952.578.986.68 1.598c.272 1.666-.374 3.366-1.904 5.032-.442.476-.986.952-1.598 1.462z"/><path id="m" d="M227.374 275.707l-.068-8.194-.102-8.16-.034-1.972-.068-1.326v-1.972-.714c.034-.102.034-.204.068-.306.034-.272.136-.51.306-.68a1.18 1.18 0 0 1 .68-.34c.238-.034.442 0 .544.068l.306.136c.102.102.204.204.306.34.102.102.204.272.34.51l.714 1.394 1.224 2.754c.612 1.394 1.428 2.992 2.448 4.76.68 1.19 1.258 2.074 1.734 2.652l.136.136.544-1.224 2.04-4.76 2.142-4.828.85-1.666c.136-.238.272-.408.374-.544.102-.102.17-.204.272-.306.238-.17.476-.272.714-.306.578-.034 1.02.204 1.36.748.136.238.238.51.34.884.17.51.306 1.19.442 2.108l.204 1.36.136 1.36.068.646c.782 6.494 1.904 12.308 3.366 17.476a1.22 1.22 0 0 1-.102.85 1.2 1.2 0 0 1-.68.544 1.22 1.22 0 0 1-.85-.102 1.2 1.2 0 0 1-.544-.68c-1.462-5.27-2.618-11.22-3.434-17.816 0-.034 0-.272-.034-.646s-.102-.816-.136-1.292l-.204-1.36-.068-.374-.034.102-2.142 4.726-2.04 4.76-.68 1.632c-.102.204-.204.374-.238.51-.034.068-.068.136-.102.17-.034.068-.068.102-.102.136-.102.17-.238.272-.408.34-.578.306-1.156.238-1.768-.136-.374-.204-.748-.544-1.122-1.02-.578-.68-1.258-1.666-1.972-2.958-1.088-1.87-1.938-3.536-2.55-4.998l-.136-.306c.034.884.034 1.394.034 1.53l.102 8.16.068 8.194c0 .306-.102.578-.306.816-.238.204-.51.306-.816.306s-.578-.102-.782-.306c-.238-.238-.34-.51-.34-.816z"/><path id="n" d="M210.187 263.807c2.108.102 4.386 0 6.834-.272a1.25 1.25 0 0 1 .85.238c.238.204.374.442.408.748s-.068.578-.238.816c-.204.238-.442.408-.748.442-2.584.272-4.964.374-7.174.272-.306-.034-.578-.136-.782-.374-.238-.238-.34-.51-.306-.816a1.21 1.21 0 0 1 .374-.782c.238-.204.476-.306.782-.272z"/><path id="o" d="M148.216 274.388l-.06-7.23-.09-7.2-.03-1.74-.06-1.17v-1.74-.63c.03-.09.03-.18.06-.27.03-.24.12-.45.27-.6a1.04 1.04 0 0 1 .6-.3c.21-.03.39 0 .48.06l.27.12c.09.09.18.18.27.3.09.09.18.24.3.45l.63 1.23 1.08 2.43c.54 1.23 1.26 2.64 2.16 4.2.6 1.05 1.11 1.83 1.53 2.34l.12.12.48-1.08 1.8-4.2 1.89-4.26.75-1.47c.12-.21.24-.36.33-.48.09-.09.15-.18.24-.27.21-.15.42-.24.63-.27.51-.03.9.18 1.2.66.12.21.21.45.3.78.15.45.27 1.05.39 1.86l.18 1.2.12 1.2.06.57c.69 5.73 1.68 10.86 2.97 15.42.06.27.03.51-.09.75a1.06 1.06 0 0 1-.6.48c-.27.06-.51.03-.75-.09a1.06 1.06 0 0 1-.48-.6c-1.29-4.65-2.31-9.9-3.03-15.72 0-.03 0-.24-.03-.57s-.09-.72-.12-1.14l-.18-1.2-.06-.33-.03.09-1.89 4.17-1.8 4.2-.6 1.44c-.09.18-.18.33-.21.45-.03.06-.06.12-.09.15-.03.06-.06.09-.09.12a.7.7 0 0 1-.36.3c-.51.27-1.02.21-1.56-.12-.33-.18-.66-.48-.99-.9-.51-.6-1.11-1.47-1.74-2.61-.96-1.65-1.71-3.12-2.25-4.41l-.12-.27c.03.78.03 1.23.03 1.35l.09 7.2.06 7.23c0 .27-.09.51-.27.72-.21.18-.45.27-.72.27a.95.95 0 0 1-.69-.27c-.21-.21-.3-.45-.3-.72z"/><path id="p" d="M172.186 267.488l6.51-.21-2.16-7.32-.78-3.09-.66 1.89-2.91 8.73zm-.66 2.01l-1.56 5.04a1.06 1.06 0 0 1-.48.6c-.24.12-.48.15-.75.09-.27-.09-.45-.24-.57-.48-.15-.24-.18-.48-.12-.75l1.44-4.65a1.04 1.04 0 0 1-.36-.69.92.92 0 0 1 .24-.72c.18-.21.42-.3.69-.33l1.02-3 1.17-3.48.99-2.97.93-2.7.57-1.5.21-.51c.03-.09.06-.15.09-.18.03-.06.06-.12.09-.15a.51.51 0 0 1 .18-.18c.21-.21.48-.27.78-.24a.85.85 0 0 1 .6.36c.06.03.09.09.12.15s.06.12.09.15c.03.06.03.15.06.24l.15.54.45 1.71.9 3.63 2.37 7.89c.39.15.6.45.6.9 0 .15-.03.3-.09.42 1.02 2.61 2.1 4.62 3.24 6a.92.92 0 0 1 .24.72 1.15 1.15 0 0 1-.33.69c-.21.15-.48.24-.75.21s-.51-.15-.66-.36c-1.29-1.56-2.52-3.78-3.66-6.69l-7.89.24z"/><path id="q" d="M186.316 253.598c2.61.09 6.69-.06 12.24-.39a.92.92 0 0 1 .72.24c.21.18.3.39.33.66s-.06.51-.24.69c-.18.21-.42.3-.69.33l-5.4.3c.54 7.74.75 13.98.63 18.72 0 .24-.09.45-.3.66a1 1 0 0 1-.69.27c-.3 0-.51-.09-.69-.3a.91.91 0 0 1-.3-.69c.12-4.71-.09-10.89-.6-18.6-1.86.06-3.54.06-5.07.03-.27 0-.51-.09-.69-.3a.95.95 0 0 1-.27-.69c0-.27.09-.51.3-.69a1.22 1.22 0 0 1 .72-.24z"/><path id="r" d="M243.66 275.707l-.068-8.194-.102-8.16-.034-1.972-.068-1.326v-1.972-.714c.034-.102.034-.204.068-.306.034-.272.136-.51.306-.68a1.18 1.18 0 0 1 .68-.34c.238-.034.442 0 .544.068l.306.136c.102.102.204.204.306.34.102.102.204.272.34.51l.714 1.394 1.224 2.754c.612 1.394 1.428 2.992 2.448 4.76.68 1.19 1.258 2.074 1.734 2.652l.136.136.544-1.224 2.04-4.76 2.142-4.828.85-1.666c.136-.238.272-.408.374-.544.102-.102.17-.204.272-.306.238-.17.476-.272.714-.306.578-.034 1.02.204 1.36.748.136.238.238.51.34.884.17.51.306 1.19.442 2.108l.204 1.36.136 1.36.068.646c.782 6.494 1.904 12.308 3.366 17.476a1.22 1.22 0 0 1-.102.85 1.2 1.2 0 0 1-.68.544 1.22 1.22 0 0 1-.85-.102 1.2 1.2 0 0 1-.544-.68c-1.462-5.27-2.618-11.22-3.434-17.816 0-.034 0-.272-.034-.646s-.102-.816-.136-1.292l-.204-1.36-.068-.374-.034.102-2.142 4.726-2.04 4.76-.68 1.632c-.102.204-.204.374-.238.51-.034.068-.068.136-.102.17a.47.47 0 0 1-.102.136c-.102.17-.238.272-.408.34-.578.306-1.156.238-1.768-.136-.374-.204-.748-.544-1.122-1.02-.578-.68-1.258-1.666-1.972-2.958-1.088-1.87-1.938-3.536-2.55-4.998l-.136-.306a38.89 38.89 0 0 1 .034 1.53l.102 8.16.068 8.194c0 .306-.102.578-.306.816-.238.204-.51.306-.816.306s-.578-.102-.782-.306c-.238-.238-.34-.51-.34-.816z"/></defs></svg>