<?xml version="1.0" encoding="UTF-8" standalone="no"?>
<!DOCTYPE svg PUBLIC "-//W3C//DTD SVG 1.1//EN" "http://www.w3.org/Graphics/SVG/1.1/DTD/svg11.dtd">
<svg width="1414px" height="458px" version="1.1" xmlns="http://www.w3.org/2000/svg" xmlns:xlink="http://www.w3.org/1999/xlink" xml:space="preserve" xmlns:serif="http://www.serif.com/" style="fill-rule:evenodd;clip-rule:evenodd;stroke-linejoin:round;">
    <g transform="matrix(1,0,0,1,-29.4959,-18.3771)">
        <g transform="matrix(0.760937,0,0,0.447222,0,0)">
            <g id="icons" transform="matrix(6.81925,0,0,11.6028,-1897.9,-12263.4)">
                <g id="Page-1">
                    <g id="Dribbble-Light-Preview">
                        <g id="icons1" serif:id="icons">
                            <path id="file_py---1764-" serif:id="file_py-[#1764]" d="M288,1094C288,1093.45 287.552,1093 287,1093L286,1093L286,1095L287,1095C287.552,1095 288,1094.55 288,1094M289.996,1093.84C290.086,1095.57 288.71,1097 287,1097L286,1097L286,1098C286,1098.55 285.552,1099 285,1099C284.448,1099 284,1098.55 284,1098L284,1092C284,1091.45 284.448,1091 285,1091L286.83,1091C288.455,1091 289.911,1092.22 289.996,1093.84M296,1091C295.448,1091 295,1091.45 295,1092L295,1093C295,1093.55 294.552,1094 294,1094C293.448,1094 293,1093.55 293,1093L293,1092C293,1091.45 292.552,1091 292,1091C291.448,1091 291,1091.45 291,1092L291,1094C291,1095.11 291.895,1096 293,1096L293,1098C293,1098.55 293.448,1099 294,1099C294.552,1099 295,1098.55 295,1098L295,1096C296.105,1096 297,1095.11 297,1094L297,1092C297,1091.45 296.552,1091 296,1091M304,1084.99L304,1097C304,1098.11 303.105,1099 302,1099L300,1099C299.448,1099 299,1098.55 299,1098C299,1097.45 299.448,1097 300,1097L301,1097C301.552,1097 302,1096.55 302,1096L302,1087L298,1087C296.895,1087 296,1086.11 296,1085L296,1081L287,1081C286.448,1081 286,1081.45 286,1082L286,1088C286,1088.55 285.552,1089 285,1089C284.448,1089 284,1088.55 284,1088L284,1081C284,1079.9 284.895,1079 286,1079L297.589,1079C297.84,1079 298.082,1079.1 298.266,1079.27L303.678,1084.25C303.883,1084.44 304,1084.71 304,1084.99"/>
                        </g>
                    </g>
                </g>
            </g>
        </g>
        <g transform="matrix(0.760937,0,0,0.447222,0,0)">
            <g transform="matrix(1.31417,0,0,2.23602,-359.372,-545.59)">
                <g transform="matrix(2.37374,0,0,2.37374,-1583.81,-838.075)">
                    <g transform="matrix(1,0,0,1,915.276,481.28)">
                        <circle cx="54.5" cy="13.2" r="3" style="fill:rgb(208,208,208);"/>
                        <circle cx="49.5" cy="11.2" r="4.2" style="fill:rgb(208,208,208);"/>
                        <circle cx="48" cy="7.8" r="4.8" style="fill:rgb(208,208,208);"/>
                    </g>
                    <g transform="matrix(1,0,0,1,915.276,481.28)">
                        <path d="M47.1,5C49.4,5 51.3,6.4 52.1,8.4L52.1,8C52.1,5.8 50.3,4.1 48.2,4.1C47.1,4.1 46,4.6 45.3,5.4C45.8,5.1 46.4,5 47.1,5" style="fill:rgb(232,232,232);fill-rule:nonzero;"/>
                        <path d="M48.2,8.3C50.5,8.3 52.4,9.7 53.2,11.7L53.2,11.3C53.2,9.1 51.4,7.4 49.3,7.4C48.2,7.4 47.1,7.9 46.4,8.7C47,8.4 47.6,8.3 48.2,8.3" style="fill:rgb(232,232,232);fill-rule:nonzero;"/>
                        <path d="M53.4,11.7C55,11.7 56.4,12.7 57,14.2L57,13.9C57,12.3 55.7,11.1 54.2,11.1C53.4,11.1 52.6,11.5 52.1,12C52.4,11.8 52.9,11.7 53.4,11.7" style="fill:rgb(232,232,232);fill-rule:nonzero;"/>
                    </g>
                    <g transform="matrix(1,0,0,1,915.276,481.28)">
                        <path d="M63,60L1,60C0.4,60 0,60.5 0,61L0,63C0,63.5 0.4,64 1,64L63,64C63.5,64 64,63.5 64,63L64,61C64,60.5 63.5,60 63,60" style="fill:rgb(98,114,122);fill-rule:nonzero;"/>
                    </g>
                    <g transform="matrix(1,0,0,1,915.276,481.28)">
                        <path d="M39,40L27,30L27,40L15,30L15,40L3,30L3,60L51,60L51,40L39,40Z" style="fill:rgb(241,87,68);fill-rule:nonzero;"/>
                    </g>
                    <g transform="matrix(1,0,0,1,915.276,481.28)">
                        <path d="M51.8,43.2L60.2,43.2L59.8,34.8L52.2,34.8L51.8,43.2Z" style="fill:rgb(211,59,35);fill-rule:nonzero;"/>
                        <path d="M59.4,26.4L59,18L53,18L52.6,26.4L59.4,26.4Z" style="fill:rgb(211,59,35);fill-rule:nonzero;"/>
                        <path d="M51.4,51.6L51,60L61,60L60.6,51.6L51.4,51.6Z" style="fill:rgb(211,59,35);fill-rule:nonzero;"/>
                    </g>
                    <g transform="matrix(1,0,0,1,915.276,481.28)">
                        <path d="M59.4,26.4L52.6,26.4L52.2,34.8L59.8,34.8L59.4,26.4Z" style="fill:rgb(208,208,208);fill-rule:nonzero;"/>
                        <path d="M51.4,51.6L60.6,51.6L60.2,43.2L51.8,43.2L51.4,51.6Z" style="fill:rgb(208,208,208);fill-rule:nonzero;"/>
                    </g>
                    <g transform="matrix(1,0,0,1,915.276,481.28)">
                        <rect x="3" y="45" width="36" height="10" style="fill:rgb(249,243,217);fill-rule:nonzero;"/>
                    </g>
                    <g transform="matrix(1,0,0,1,915.276,481.28)">
                        <rect x="3" y="46" width="35" height="8" style="fill:rgb(180,215,238);fill-rule:nonzero;"/>
                    </g>
                    <g transform="matrix(1,0,0,1,915.276,481.28)">
                        <rect x="42" y="50" width="6" height="10" style="fill:rgb(137,102,76);fill-rule:nonzero;"/>
                    </g>
                    <g transform="matrix(1,0,0,1,915.276,481.28)">
                        <rect x="41" y="48" width="8" height="2" style="fill:rgb(211,59,35);fill-rule:nonzero;"/>
                    </g>
                    <g transform="matrix(1,0,0,1,915.276,481.28)">
                        <rect x="3" y="49.5" width="35" height="1" style="fill:rgb(249,243,217);fill-rule:nonzero;"/>
                        <rect x="14.5" y="45" width="1" height="10" style="fill:rgb(249,243,217);fill-rule:nonzero;"/>
                        <rect x="26.5" y="45" width="1" height="10" style="fill:rgb(249,243,217);fill-rule:nonzero;"/>
                    </g>
                    <g transform="matrix(1,0,0,1,915.276,481.28)">
                        <circle cx="46.5" cy="54.5" r="0.5" style="fill:rgb(219,180,113);"/>
                    </g>
                    <g transform="matrix(1,0,0,1,915.276,481.28)">
                        <rect x="42" y="60" width="6" height="2" style="fill:rgb(208,208,208);fill-rule:nonzero;"/>
                    </g>
                    <g transform="matrix(1,0,0,1,915.276,481.28)">
                        <rect x="41" y="62" width="8" height="2" style="fill:rgb(232,232,232);fill-rule:nonzero;"/>
                    </g>
                    <g transform="matrix(1,0,0,1,915.276,481.28)">
                        <circle cx="56.5" cy="16" r="2" style="fill:rgb(208,208,208);"/>
                        <circle cx="42" cy="5.1" r="5.1" style="fill:rgb(208,208,208);"/>
                        <circle cx="33.9" cy="5.9" r="5.9" style="fill:rgb(208,208,208);"/>
                        <circle cx="26.5" cy="5" r="5" style="fill:rgb(208,208,208);"/>
                        <circle cx="18.4" cy="7" r="7" style="fill:rgb(208,208,208);"/>
                        <circle cx="10.6" cy="9.2" r="9.2" style="fill:rgb(208,208,208);"/>
                    </g>
                    <g transform="matrix(1,0,0,1,915.276,481.28)">
                        <path d="M8.1,3.3C12.8,3.3 16.7,6.2 18.3,10.4C18.3,10.1 18.4,9.8 18.4,9.5C18.4,5 14.8,1.4 10.3,1.4C8,1.4 5.9,2.4 4.4,4C5.5,3.5 6.8,3.3 8.1,3.3" style="fill:rgb(232,232,232);fill-rule:nonzero;"/>
                        <path d="M16.5,2.9C20.2,2.9 23.3,5.2 24.5,8.5L24.5,7.8C24.5,4.3 21.6,1.4 18.1,1.4C16.3,1.4 14.6,2.2 13.4,3.4C14.5,3.1 15.5,2.9 16.5,2.9" style="fill:rgb(232,232,232);fill-rule:nonzero;"/>
                        <path d="M25.2,2.1C27.8,2.1 30.1,3.8 31,6.1L31,5.6C31,3 28.9,1 26.4,1C25.1,1 23.9,1.6 23.1,2.5C23.7,2.2 24.4,2.1 25.2,2.1" style="fill:rgb(232,232,232);fill-rule:nonzero;"/>
                        <path d="M32.2,2.4C35.2,2.4 37.8,4.3 38.8,7L38.8,6.4C38.8,3.5 36.5,1.2 33.6,1.2C32.1,1.2 30.7,1.8 29.8,2.9C30.5,2.6 31.4,2.4 32.2,2.4" style="fill:rgb(232,232,232);fill-rule:nonzero;"/>
                        <path d="M40.8,2.1C43.4,2.1 45.6,3.7 46.4,6L46.4,5.5C46.4,3 44.4,1.1 41.9,1.1C40.6,1.1 39.5,1.6 38.6,2.5C39.3,2.2 40,2.1 40.8,2.1" style="fill:rgb(232,232,232);fill-rule:nonzero;"/>
                        <path d="M55.7,14.9C56.8,14.9 57.7,15.6 58.1,16.5L58.1,16.3C58.1,15.3 57.3,14.4 56.2,14.4C55.7,14.4 55.2,14.6 54.8,15C55.1,14.9 55.4,14.9 55.7,14.9" style="fill:rgb(232,232,232);fill-rule:nonzero;"/>
                    </g>
                </g>
                <g transform="matrix(1,0,0,1,-4.40816,-72.7597)">
                    <g transform="matrix(35,0,0,35,600,576)">
                        <path d="M0.308,0.009C0.263,0.009 0.223,0 0.188,-0.018C0.153,-0.036 0.127,-0.062 0.108,-0.095C0.089,-0.128 0.079,-0.165 0.079,-0.208L0.079,-0.493C0.079,-0.536 0.089,-0.573 0.108,-0.606C0.127,-0.638 0.153,-0.663 0.188,-0.681C0.223,-0.699 0.263,-0.708 0.308,-0.708C0.353,-0.708 0.392,-0.699 0.427,-0.682C0.462,-0.664 0.489,-0.639 0.508,-0.607C0.527,-0.575 0.536,-0.538 0.536,-0.496L0.536,-0.495C0.536,-0.492 0.535,-0.489 0.533,-0.487C0.531,-0.485 0.529,-0.484 0.526,-0.484L0.493,-0.482C0.486,-0.482 0.483,-0.485 0.483,-0.492L0.483,-0.495C0.483,-0.545 0.467,-0.585 0.435,-0.616C0.403,-0.646 0.361,-0.661 0.308,-0.661C0.255,-0.661 0.212,-0.646 0.18,-0.616C0.148,-0.585 0.132,-0.545 0.132,-0.495L0.132,-0.205C0.132,-0.155 0.148,-0.115 0.181,-0.084C0.213,-0.053 0.255,-0.038 0.308,-0.038C0.361,-0.038 0.403,-0.053 0.435,-0.084C0.467,-0.115 0.483,-0.155 0.483,-0.205L0.483,-0.207C0.483,-0.213 0.486,-0.216 0.493,-0.216L0.526,-0.214C0.533,-0.214 0.536,-0.211 0.536,-0.205C0.536,-0.163 0.527,-0.126 0.508,-0.094C0.489,-0.061 0.462,-0.036 0.427,-0.018C0.392,0 0.353,0.009 0.308,0.009Z" style="fill-rule:nonzero;"/>
                    </g>
                    <g transform="matrix(35,0,0,35,621.245,576)">
                        <path d="M0.269,0.008C0.222,0.008 0.182,-0.004 0.149,-0.029C0.116,-0.054 0.093,-0.087 0.081,-0.128C0.074,-0.155 0.07,-0.196 0.07,-0.253C0.07,-0.31 0.074,-0.351 0.081,-0.377C0.093,-0.418 0.116,-0.451 0.149,-0.476C0.182,-0.5 0.222,-0.512 0.27,-0.512C0.317,-0.512 0.357,-0.5 0.391,-0.475C0.424,-0.45 0.447,-0.418 0.458,-0.377C0.462,-0.362 0.465,-0.345 0.466,-0.326C0.467,-0.307 0.468,-0.282 0.468,-0.253C0.468,-0.222 0.467,-0.198 0.466,-0.179C0.465,-0.16 0.462,-0.143 0.458,-0.128C0.447,-0.087 0.424,-0.054 0.391,-0.029C0.357,-0.004 0.316,0.008 0.269,0.008ZM0.269,-0.039C0.304,-0.039 0.335,-0.049 0.36,-0.069C0.385,-0.088 0.401,-0.114 0.408,-0.146C0.413,-0.164 0.415,-0.199 0.415,-0.252C0.415,-0.305 0.413,-0.341 0.409,-0.358C0.402,-0.391 0.386,-0.417 0.361,-0.436C0.335,-0.455 0.305,-0.465 0.269,-0.465C0.233,-0.465 0.203,-0.455 0.178,-0.436C0.153,-0.417 0.137,-0.391 0.13,-0.358C0.125,-0.337 0.123,-0.302 0.123,-0.252C0.123,-0.202 0.125,-0.167 0.13,-0.146C0.137,-0.113 0.153,-0.087 0.178,-0.068C0.203,-0.049 0.233,-0.039 0.269,-0.039Z" style="fill-rule:nonzero;"/>
                    </g>
                    <g transform="matrix(35,0,0,35,640.11,576)">
                        <path d="M0.587,-0.511C0.636,-0.511 0.675,-0.496 0.704,-0.467C0.733,-0.438 0.748,-0.397 0.748,-0.346L0.748,-0.01C0.748,-0.003 0.745,-0 0.738,-0L0.706,-0C0.699,-0 0.696,-0.003 0.696,-0.01L0.696,-0.336C0.696,-0.375 0.685,-0.407 0.662,-0.43C0.639,-0.452 0.609,-0.464 0.572,-0.464C0.533,-0.464 0.502,-0.453 0.479,-0.43C0.455,-0.407 0.443,-0.377 0.443,-0.338L0.443,-0.01C0.443,-0.003 0.44,-0 0.433,-0L0.401,-0C0.394,-0 0.391,-0.003 0.391,-0.01L0.391,-0.336C0.391,-0.375 0.38,-0.407 0.357,-0.43C0.334,-0.452 0.305,-0.464 0.268,-0.464C0.229,-0.464 0.198,-0.453 0.175,-0.43C0.152,-0.407 0.14,-0.377 0.14,-0.338L0.14,-0.01C0.14,-0.003 0.137,-0 0.13,-0L0.097,-0C0.09,-0 0.087,-0.003 0.087,-0.01L0.087,-0.494C0.087,-0.501 0.09,-0.504 0.097,-0.504L0.13,-0.504C0.137,-0.504 0.14,-0.501 0.14,-0.494L0.14,-0.449C0.14,-0.448 0.141,-0.447 0.142,-0.446C0.143,-0.445 0.144,-0.446 0.145,-0.447C0.159,-0.468 0.178,-0.484 0.202,-0.495C0.225,-0.506 0.252,-0.511 0.282,-0.511C0.317,-0.511 0.347,-0.503 0.372,-0.489C0.397,-0.474 0.415,-0.452 0.428,-0.425C0.429,-0.422 0.431,-0.422 0.433,-0.424C0.447,-0.453 0.467,-0.474 0.494,-0.489C0.521,-0.504 0.552,-0.511 0.587,-0.511Z" style="fill-rule:nonzero;"/>
                    </g>
                    <g transform="matrix(35,0,0,35,669.055,576)">
                        <path d="M0.466,-0.379C0.471,-0.364 0.474,-0.346 0.475,-0.328C0.476,-0.309 0.477,-0.284 0.477,-0.253C0.477,-0.222 0.476,-0.198 0.475,-0.179C0.474,-0.16 0.471,-0.142 0.467,-0.127C0.457,-0.086 0.436,-0.053 0.405,-0.029C0.373,-0.004 0.334,0.008 0.287,0.008C0.258,0.008 0.232,0.002 0.209,-0.01C0.186,-0.021 0.167,-0.038 0.153,-0.06C0.152,-0.061 0.151,-0.062 0.15,-0.062C0.149,-0.061 0.148,-0.06 0.148,-0.058L0.148,0.186C0.148,0.193 0.145,0.196 0.138,0.196L0.105,0.196C0.098,0.196 0.095,0.193 0.095,0.186L0.095,-0.494C0.095,-0.501 0.098,-0.504 0.105,-0.504L0.138,-0.504C0.145,-0.504 0.148,-0.501 0.148,-0.494L0.148,-0.446C0.148,-0.444 0.149,-0.443 0.15,-0.443C0.151,-0.442 0.152,-0.443 0.153,-0.444C0.167,-0.466 0.186,-0.483 0.209,-0.495C0.232,-0.506 0.258,-0.512 0.287,-0.512C0.332,-0.512 0.371,-0.5 0.402,-0.476C0.433,-0.452 0.455,-0.42 0.466,-0.379ZM0.41,-0.135C0.415,-0.147 0.419,-0.161 0.421,-0.177C0.423,-0.193 0.424,-0.218 0.424,-0.252C0.424,-0.287 0.423,-0.312 0.421,-0.328C0.419,-0.343 0.416,-0.358 0.411,-0.371C0.404,-0.399 0.389,-0.422 0.366,-0.439C0.343,-0.456 0.315,-0.465 0.282,-0.465C0.251,-0.465 0.225,-0.456 0.204,-0.439C0.183,-0.421 0.168,-0.398 0.161,-0.371C0.156,-0.359 0.153,-0.345 0.151,-0.329C0.149,-0.313 0.148,-0.287 0.148,-0.252C0.148,-0.217 0.149,-0.191 0.151,-0.175C0.153,-0.159 0.156,-0.144 0.161,-0.131C0.168,-0.104 0.183,-0.082 0.204,-0.065C0.225,-0.048 0.251,-0.039 0.282,-0.039C0.313,-0.039 0.339,-0.047 0.361,-0.063C0.383,-0.078 0.398,-0.099 0.406,-0.124L0.41,-0.135Z" style="fill-rule:nonzero;"/>
                    </g>
                    <g transform="matrix(35,0,0,35,688.235,576)">
                        <path d="M0.128,-0.605C0.113,-0.605 0.101,-0.61 0.092,-0.619C0.083,-0.628 0.078,-0.64 0.078,-0.655C0.078,-0.67 0.083,-0.682 0.092,-0.691C0.101,-0.7 0.113,-0.705 0.128,-0.705C0.143,-0.705 0.155,-0.7 0.164,-0.691C0.173,-0.682 0.178,-0.67 0.178,-0.655C0.178,-0.64 0.173,-0.628 0.164,-0.619C0.155,-0.61 0.143,-0.605 0.128,-0.605ZM0.109,-0.001C0.102,-0.001 0.099,-0.004 0.099,-0.011L0.099,-0.495C0.099,-0.502 0.102,-0.505 0.109,-0.505L0.142,-0.505C0.149,-0.505 0.152,-0.502 0.152,-0.495L0.152,-0.011C0.152,-0.004 0.149,-0.001 0.142,-0.001L0.109,-0.001Z" style="fill-rule:nonzero;"/>
                    </g>
                    <g transform="matrix(35,0,0,35,697.195,576)">
                        <path d="M0.097,-0C0.09,-0 0.087,-0.003 0.087,-0.01L0.087,-0.69C0.087,-0.697 0.09,-0.7 0.097,-0.7L0.13,-0.7C0.137,-0.7 0.14,-0.697 0.14,-0.69L0.14,-0.01C0.14,-0.003 0.137,-0 0.13,-0L0.097,-0Z" style="fill-rule:nonzero;"/>
                    </g>
                    <g transform="matrix(35,0,0,35,705.105,576)">
                        <path d="M0.275,-0.039C0.306,-0.039 0.333,-0.046 0.356,-0.061C0.378,-0.075 0.395,-0.095 0.408,-0.12C0.411,-0.126 0.416,-0.128 0.421,-0.125L0.447,-0.112C0.453,-0.109 0.455,-0.104 0.452,-0.099C0.437,-0.066 0.414,-0.04 0.383,-0.021C0.351,-0.002 0.314,0.008 0.271,0.008C0.224,0.008 0.185,-0.003 0.152,-0.026C0.119,-0.049 0.097,-0.08 0.085,-0.119C0.08,-0.136 0.076,-0.154 0.074,-0.175C0.072,-0.196 0.071,-0.222 0.071,-0.253C0.071,-0.286 0.072,-0.31 0.073,-0.327C0.074,-0.344 0.076,-0.359 0.079,-0.373C0.09,-0.415 0.112,-0.449 0.145,-0.474C0.178,-0.499 0.218,-0.512 0.266,-0.512C0.321,-0.512 0.364,-0.498 0.397,-0.47C0.43,-0.441 0.45,-0.402 0.458,-0.352C0.46,-0.339 0.461,-0.325 0.462,-0.308C0.463,-0.291 0.463,-0.269 0.463,-0.244C0.463,-0.237 0.46,-0.234 0.453,-0.234L0.127,-0.234C0.124,-0.234 0.123,-0.233 0.123,-0.23C0.123,-0.187 0.125,-0.159 0.128,-0.145C0.135,-0.112 0.152,-0.087 0.178,-0.068C0.203,-0.049 0.236,-0.039 0.275,-0.039ZM0.13,-0.361C0.127,-0.348 0.124,-0.322 0.123,-0.283C0.123,-0.28 0.124,-0.279 0.127,-0.279L0.406,-0.279C0.409,-0.279 0.41,-0.28 0.41,-0.283C0.41,-0.316 0.408,-0.341 0.405,-0.358C0.398,-0.39 0.382,-0.416 0.357,-0.436C0.332,-0.455 0.302,-0.465 0.266,-0.465C0.23,-0.465 0.2,-0.456 0.176,-0.437C0.152,-0.418 0.137,-0.392 0.13,-0.361Z" style="fill-rule:nonzero;"/>
                    </g>
                    <g transform="matrix(35,0,0,35,723.655,576)">
                        <path d="M0.277,-0.508C0.3,-0.508 0.319,-0.504 0.335,-0.496C0.34,-0.494 0.342,-0.49 0.341,-0.483L0.332,-0.451C0.33,-0.444 0.326,-0.442 0.319,-0.445C0.306,-0.45 0.289,-0.453 0.269,-0.452C0.232,-0.451 0.201,-0.437 0.177,-0.41C0.152,-0.382 0.14,-0.348 0.14,-0.308L0.14,-0.01C0.14,-0.003 0.137,-0 0.13,-0L0.097,-0C0.09,-0 0.087,-0.003 0.087,-0.01L0.087,-0.494C0.087,-0.501 0.09,-0.504 0.097,-0.504L0.13,-0.504C0.137,-0.504 0.14,-0.501 0.14,-0.494L0.14,-0.426C0.14,-0.424 0.141,-0.423 0.142,-0.423C0.143,-0.422 0.143,-0.423 0.144,-0.425C0.158,-0.451 0.176,-0.471 0.199,-0.486C0.221,-0.501 0.247,-0.508 0.277,-0.508Z" style="fill-rule:nonzero;"/>
                    </g>
                </g>
            </g>
        </g>
        <g transform="matrix(0.760937,0,0,0.447222,0,0)">
            <g transform="matrix(1.31417,0,0,2.23602,-333.447,-545.434)">
                <g transform="matrix(0.132584,0,0,0.132584,1103.13,332.921)">
                    <g transform="matrix(1,0,0,1,502.276,103.68)">
                        <path d="M394.1,773.5L0,598.2L0,145.2L394.1,0L394.1,773.5Z" style="fill:rgb(209,211,211);fill-rule:nonzero;"/>
                    </g>
                    <g transform="matrix(1,0,0,1,502.276,103.68)">
                        <path d="M394.1,773.5L890,588.2L890,157.2L394.1,0L394.1,773.5Z" style="fill:rgb(232,238,239);fill-rule:nonzero;"/>
                    </g>
                    <g transform="matrix(1,0,0,1,502.276,103.68)">
                        <path d="M0,598.2L470,819.2L890,590.2L395.6,423.6L0,598.2Z" style="fill:rgb(179,185,186);fill-rule:nonzero;"/>
                    </g>
                    <g transform="matrix(1,0,0,1,502.276,103.68)">
                        <path d="M165.9,577.1L450,722.9L756,582.9L890,590.2L699,520.9L165.9,577.1Z" style="fill:rgb(108,131,135);fill-rule:nonzero;"/>
                    </g>
                    <g transform="matrix(1,0,0,1,502.276,103.68)">
                        <path d="M454.5,718.3L165.9,577.1L165.9,281.2L454.5,405.4L454.5,718.3Z" style="fill:rgb(55,187,239);fill-rule:nonzero;"/>
                    </g>
                    <g transform="matrix(1,0,0,1,502.276,103.68)">
                        <path d="M454.5,718.3L712.4,577.1L712.4,282.4L454.5,405.4L454.5,718.3Z" style="fill:rgb(36,129,186);fill-rule:nonzero;"/>
                    </g>
                    <g transform="matrix(1,0,0,1,502.276,103.68)">
                        <path d="M165.9,281.2L454.5,405.4L712.4,282.4L408.8,180.1L165.9,281.2Z" style="fill:rgb(62,214,255);fill-rule:nonzero;"/>
                    </g>
                </g>
                <g transform="matrix(1,0,0,1,560.754,-72.9697)">
                    <g transform="matrix(35,0,0,35,589.377,576)">
                        <path d="M0.362,-0.702C0.419,-0.702 0.464,-0.685 0.499,-0.65C0.534,-0.614 0.551,-0.568 0.551,-0.511C0.551,-0.454 0.534,-0.409 0.499,-0.374C0.464,-0.339 0.417,-0.322 0.36,-0.322L0.152,-0.322C0.149,-0.322 0.148,-0.321 0.148,-0.318L0.148,-0.01C0.148,-0.003 0.145,-0 0.138,-0L0.105,-0C0.098,-0 0.095,-0.003 0.095,-0.01L0.095,-0.692C0.095,-0.699 0.098,-0.702 0.105,-0.702L0.362,-0.702ZM0.358,-0.367C0.4,-0.367 0.434,-0.38 0.46,-0.407C0.485,-0.433 0.498,-0.467 0.498,-0.51C0.498,-0.553 0.485,-0.588 0.46,-0.615C0.434,-0.641 0.4,-0.654 0.358,-0.654L0.152,-0.654C0.149,-0.654 0.148,-0.653 0.148,-0.65L0.148,-0.371C0.148,-0.368 0.149,-0.367 0.152,-0.367L0.358,-0.367Z" style="fill-rule:nonzero;"/>
                    </g>
                    <g transform="matrix(35,0,0,35,610.027,576)">
                        <path d="M0.059,0.2C0.054,0.2 0.052,0.197 0.052,0.19L0.052,0.164C0.052,0.157 0.055,0.154 0.062,0.154L0.066,0.154C0.091,0.153 0.111,0.149 0.126,0.142C0.14,0.134 0.152,0.12 0.163,0.099C0.173,0.078 0.185,0.046 0.199,0.003C0.2,0 0.2,-0.002 0.199,-0.003L0.028,-0.493L0.027,-0.497C0.027,-0.502 0.03,-0.504 0.036,-0.504L0.07,-0.504C0.076,-0.504 0.08,-0.501 0.082,-0.496L0.224,-0.072C0.225,-0.071 0.226,-0.07 0.227,-0.07C0.228,-0.07 0.229,-0.071 0.23,-0.072L0.368,-0.496C0.37,-0.501 0.374,-0.504 0.38,-0.504L0.414,-0.504C0.421,-0.504 0.424,-0.5 0.422,-0.493L0.233,0.051C0.218,0.094 0.203,0.126 0.19,0.147C0.177,0.168 0.161,0.182 0.143,0.189C0.124,0.196 0.099,0.2 0.066,0.2L0.059,0.2Z" style="fill-rule:nonzero;"/>
                    </g>
                    <g transform="matrix(35,0,0,35,625.742,576)">
                        <path d="M0.297,-0.469C0.297,-0.462 0.294,-0.459 0.287,-0.459L0.17,-0.459C0.167,-0.459 0.166,-0.458 0.166,-0.455L0.166,-0.139C0.166,-0.105 0.174,-0.081 0.189,-0.068C0.204,-0.054 0.229,-0.047 0.263,-0.047L0.286,-0.047C0.293,-0.047 0.296,-0.044 0.296,-0.037L0.296,-0.01C0.296,-0.003 0.293,-0 0.286,-0L0.256,0.001C0.209,0.001 0.174,-0.008 0.151,-0.026C0.127,-0.044 0.115,-0.077 0.114,-0.125L0.114,-0.455C0.114,-0.458 0.113,-0.459 0.11,-0.459L0.05,-0.459C0.043,-0.459 0.04,-0.462 0.04,-0.469L0.04,-0.494C0.04,-0.501 0.043,-0.504 0.05,-0.504L0.11,-0.504C0.113,-0.504 0.114,-0.505 0.114,-0.508L0.114,-0.622C0.114,-0.629 0.117,-0.632 0.124,-0.632L0.156,-0.632C0.163,-0.632 0.166,-0.629 0.166,-0.622L0.166,-0.508C0.166,-0.505 0.167,-0.504 0.17,-0.504L0.287,-0.504C0.294,-0.504 0.297,-0.501 0.297,-0.494L0.297,-0.469Z" style="fill-rule:nonzero;"/>
                    </g>
                    <g transform="matrix(35,0,0,35,638.308,576)">
                        <path d="M0.285,-0.511C0.336,-0.511 0.378,-0.495 0.41,-0.464C0.441,-0.433 0.457,-0.391 0.457,-0.34L0.457,-0.01C0.457,-0.003 0.454,-0 0.447,-0L0.414,-0C0.407,-0 0.404,-0.003 0.404,-0.01L0.404,-0.33C0.404,-0.369 0.392,-0.401 0.368,-0.427C0.344,-0.452 0.313,-0.464 0.274,-0.464C0.234,-0.464 0.202,-0.452 0.177,-0.428C0.152,-0.403 0.14,-0.371 0.14,-0.332L0.14,-0.01C0.14,-0.003 0.137,-0 0.13,-0L0.097,-0C0.09,-0 0.087,-0.003 0.087,-0.01L0.087,-0.69C0.087,-0.697 0.09,-0.7 0.097,-0.7L0.13,-0.7C0.137,-0.7 0.14,-0.697 0.14,-0.69L0.14,-0.445C0.14,-0.443 0.141,-0.442 0.142,-0.442C0.143,-0.441 0.143,-0.442 0.144,-0.443C0.159,-0.465 0.178,-0.482 0.202,-0.494C0.226,-0.505 0.254,-0.511 0.285,-0.511Z" style="fill-rule:nonzero;"/>
                    </g>
                    <g transform="matrix(35,0,0,35,656.822,576)">
                        <path d="M0.269,0.008C0.222,0.008 0.182,-0.004 0.149,-0.029C0.116,-0.054 0.093,-0.087 0.081,-0.128C0.074,-0.155 0.07,-0.196 0.07,-0.253C0.07,-0.31 0.074,-0.351 0.081,-0.377C0.093,-0.418 0.116,-0.451 0.149,-0.476C0.182,-0.5 0.222,-0.512 0.27,-0.512C0.317,-0.512 0.357,-0.5 0.391,-0.475C0.424,-0.45 0.447,-0.418 0.458,-0.377C0.462,-0.362 0.465,-0.345 0.466,-0.326C0.467,-0.307 0.468,-0.282 0.468,-0.253C0.468,-0.222 0.467,-0.198 0.466,-0.179C0.465,-0.16 0.462,-0.143 0.458,-0.128C0.447,-0.087 0.424,-0.054 0.391,-0.029C0.357,-0.004 0.316,0.008 0.269,0.008ZM0.269,-0.039C0.304,-0.039 0.335,-0.049 0.36,-0.069C0.385,-0.088 0.401,-0.114 0.408,-0.146C0.413,-0.164 0.415,-0.199 0.415,-0.252C0.415,-0.305 0.413,-0.341 0.409,-0.358C0.402,-0.391 0.386,-0.417 0.361,-0.436C0.335,-0.455 0.305,-0.465 0.269,-0.465C0.233,-0.465 0.203,-0.455 0.178,-0.436C0.153,-0.417 0.137,-0.391 0.13,-0.358C0.125,-0.337 0.123,-0.302 0.123,-0.252C0.123,-0.202 0.125,-0.167 0.13,-0.146C0.137,-0.113 0.153,-0.087 0.178,-0.068C0.203,-0.049 0.233,-0.039 0.269,-0.039Z" style="fill-rule:nonzero;"/>
                    </g>
                    <g transform="matrix(35,0,0,35,675.688,576)">
                        <path d="M0.285,-0.511C0.336,-0.511 0.378,-0.495 0.41,-0.464C0.441,-0.433 0.457,-0.391 0.457,-0.34L0.457,-0.01C0.457,-0.003 0.454,-0 0.447,-0L0.414,-0C0.407,-0 0.404,-0.003 0.404,-0.01L0.404,-0.33C0.404,-0.369 0.392,-0.401 0.368,-0.427C0.344,-0.452 0.313,-0.464 0.274,-0.464C0.234,-0.464 0.202,-0.452 0.177,-0.428C0.152,-0.403 0.14,-0.371 0.14,-0.332L0.14,-0.01C0.14,-0.003 0.137,-0 0.13,-0L0.097,-0C0.09,-0 0.087,-0.003 0.087,-0.01L0.087,-0.494C0.087,-0.501 0.09,-0.504 0.097,-0.504L0.13,-0.504C0.137,-0.504 0.14,-0.501 0.14,-0.494L0.14,-0.445C0.14,-0.443 0.141,-0.442 0.142,-0.442C0.143,-0.441 0.143,-0.442 0.144,-0.443C0.159,-0.465 0.178,-0.482 0.202,-0.494C0.226,-0.505 0.254,-0.511 0.285,-0.511Z" style="fill-rule:nonzero;"/>
                    </g>
                    <g transform="matrix(35,0,0,35,701.482,576)">
                        <path d="M0.271,-0C0.265,-0 0.261,-0.003 0.259,-0.008L0.038,-0.689L0.037,-0.693C0.037,-0.698 0.04,-0.7 0.046,-0.7L0.081,-0.7C0.087,-0.7 0.091,-0.697 0.093,-0.692L0.287,-0.082C0.288,-0.081 0.289,-0.08 0.29,-0.08C0.291,-0.08 0.292,-0.081 0.293,-0.082L0.489,-0.692C0.491,-0.697 0.495,-0.7 0.501,-0.7L0.534,-0.7C0.541,-0.7 0.544,-0.696 0.542,-0.689L0.32,-0.008C0.318,-0.003 0.314,-0 0.308,-0L0.271,-0Z" style="fill-rule:nonzero;"/>
                    </g>
                    <g transform="matrix(35,0,0,35,721.782,576)">
                        <path d="M0.557,-0.693C0.56,-0.698 0.564,-0.7 0.569,-0.7L0.603,-0.7C0.61,-0.7 0.613,-0.697 0.613,-0.69L0.613,-0.01C0.613,-0.003 0.61,-0 0.603,-0L0.57,-0C0.563,-0 0.56,-0.003 0.56,-0.01L0.56,-0.597C0.56,-0.599 0.559,-0.6 0.558,-0.601C0.557,-0.601 0.556,-0.6 0.555,-0.598L0.379,-0.326C0.376,-0.321 0.372,-0.319 0.367,-0.319L0.35,-0.319C0.345,-0.319 0.341,-0.321 0.338,-0.326L0.16,-0.597C0.159,-0.599 0.158,-0.6 0.157,-0.599C0.156,-0.598 0.155,-0.597 0.155,-0.595L0.155,-0.01C0.155,-0.003 0.152,-0 0.145,-0L0.112,-0C0.105,-0 0.102,-0.003 0.102,-0.01L0.102,-0.69C0.102,-0.697 0.105,-0.7 0.112,-0.7L0.147,-0.7C0.152,-0.7 0.156,-0.698 0.159,-0.693L0.355,-0.393C0.356,-0.392 0.357,-0.392 0.358,-0.392C0.359,-0.392 0.36,-0.392 0.361,-0.393L0.557,-0.693Z" style="fill-rule:nonzero;"/>
                    </g>
                </g>
            </g>
        </g>
        <g transform="matrix(0.760937,0,0,0.447222,0,0)">
            <g transform="matrix(1.31417,0,0,2.23602,-255.977,-530.486)">
                <g transform="matrix(1,0,0,1,856.059,-72.9697)">
                    <g transform="matrix(35,0,0,35,551.682,576)">
                        <path d="M0.308,0.009C0.263,0.009 0.223,0 0.188,-0.018C0.153,-0.036 0.127,-0.062 0.108,-0.095C0.089,-0.128 0.079,-0.165 0.079,-0.208L0.079,-0.493C0.079,-0.536 0.089,-0.573 0.108,-0.606C0.127,-0.638 0.153,-0.663 0.188,-0.681C0.223,-0.699 0.263,-0.708 0.308,-0.708C0.353,-0.708 0.392,-0.699 0.427,-0.682C0.462,-0.664 0.489,-0.639 0.508,-0.607C0.527,-0.575 0.536,-0.538 0.536,-0.496L0.536,-0.495C0.536,-0.492 0.535,-0.489 0.533,-0.487C0.531,-0.485 0.529,-0.484 0.526,-0.484L0.493,-0.482C0.486,-0.482 0.483,-0.485 0.483,-0.492L0.483,-0.495C0.483,-0.545 0.467,-0.585 0.435,-0.616C0.403,-0.646 0.361,-0.661 0.308,-0.661C0.255,-0.661 0.212,-0.646 0.18,-0.616C0.148,-0.585 0.132,-0.545 0.132,-0.495L0.132,-0.205C0.132,-0.155 0.148,-0.115 0.181,-0.084C0.213,-0.053 0.255,-0.038 0.308,-0.038C0.361,-0.038 0.403,-0.053 0.435,-0.084C0.467,-0.115 0.483,-0.155 0.483,-0.205L0.483,-0.207C0.483,-0.213 0.486,-0.216 0.493,-0.216L0.526,-0.214C0.533,-0.214 0.536,-0.211 0.536,-0.205C0.536,-0.163 0.527,-0.126 0.508,-0.094C0.489,-0.061 0.462,-0.036 0.427,-0.018C0.392,0 0.353,0.009 0.308,0.009Z" style="fill-rule:nonzero;"/>
                    </g>
                    <g transform="matrix(35,0,0,35,572.927,576)">
                        <path d="M0.269,0.008C0.222,0.008 0.182,-0.004 0.149,-0.029C0.116,-0.054 0.093,-0.087 0.081,-0.128C0.074,-0.155 0.07,-0.196 0.07,-0.253C0.07,-0.31 0.074,-0.351 0.081,-0.377C0.093,-0.418 0.116,-0.451 0.149,-0.476C0.182,-0.5 0.222,-0.512 0.27,-0.512C0.317,-0.512 0.357,-0.5 0.391,-0.475C0.424,-0.45 0.447,-0.418 0.458,-0.377C0.462,-0.362 0.465,-0.345 0.466,-0.326C0.467,-0.307 0.468,-0.282 0.468,-0.253C0.468,-0.222 0.467,-0.198 0.466,-0.179C0.465,-0.16 0.462,-0.143 0.458,-0.128C0.447,-0.087 0.424,-0.054 0.391,-0.029C0.357,-0.004 0.316,0.008 0.269,0.008ZM0.269,-0.039C0.304,-0.039 0.335,-0.049 0.36,-0.069C0.385,-0.088 0.401,-0.114 0.408,-0.146C0.413,-0.164 0.415,-0.199 0.415,-0.252C0.415,-0.305 0.413,-0.341 0.409,-0.358C0.402,-0.391 0.386,-0.417 0.361,-0.436C0.335,-0.455 0.305,-0.465 0.269,-0.465C0.233,-0.465 0.203,-0.455 0.178,-0.436C0.153,-0.417 0.137,-0.391 0.13,-0.358C0.125,-0.337 0.123,-0.302 0.123,-0.252C0.123,-0.202 0.125,-0.167 0.13,-0.146C0.137,-0.113 0.153,-0.087 0.178,-0.068C0.203,-0.049 0.233,-0.039 0.269,-0.039Z" style="fill-rule:nonzero;"/>
                    </g>
                    <g transform="matrix(35,0,0,35,591.792,576)">
                        <path d="M0.401,-0.69C0.401,-0.697 0.404,-0.7 0.411,-0.7L0.444,-0.7C0.451,-0.7 0.454,-0.697 0.454,-0.69L0.454,-0.01C0.454,-0.003 0.451,-0 0.444,-0L0.411,-0C0.404,-0 0.401,-0.003 0.401,-0.01L0.401,-0.059C0.401,-0.061 0.401,-0.062 0.4,-0.063C0.399,-0.063 0.397,-0.062 0.396,-0.061C0.382,-0.039 0.363,-0.022 0.34,-0.01C0.317,0.002 0.29,0.008 0.261,0.008C0.216,0.008 0.177,-0.004 0.146,-0.028C0.115,-0.052 0.093,-0.084 0.082,-0.125C0.077,-0.14 0.074,-0.158 0.073,-0.177C0.072,-0.196 0.071,-0.22 0.071,-0.251C0.071,-0.281 0.072,-0.306 0.073,-0.325C0.074,-0.344 0.077,-0.362 0.081,-0.377C0.091,-0.418 0.112,-0.451 0.144,-0.476C0.175,-0.5 0.214,-0.512 0.261,-0.512C0.29,-0.512 0.317,-0.506 0.34,-0.494C0.363,-0.482 0.382,-0.465 0.396,-0.443C0.397,-0.441 0.398,-0.44 0.399,-0.441C0.4,-0.441 0.401,-0.442 0.401,-0.444L0.401,-0.69ZM0.388,-0.133C0.393,-0.146 0.396,-0.16 0.398,-0.176C0.399,-0.192 0.4,-0.217 0.4,-0.251C0.4,-0.286 0.399,-0.312 0.397,-0.329C0.395,-0.345 0.392,-0.36 0.387,-0.373C0.38,-0.4 0.366,-0.423 0.345,-0.44C0.324,-0.456 0.298,-0.465 0.267,-0.465C0.236,-0.465 0.209,-0.456 0.186,-0.44C0.163,-0.423 0.148,-0.401 0.14,-0.374C0.134,-0.361 0.13,-0.347 0.128,-0.331C0.125,-0.314 0.124,-0.288 0.124,-0.252C0.124,-0.217 0.125,-0.192 0.127,-0.177C0.129,-0.161 0.132,-0.146 0.137,-0.133C0.144,-0.105 0.159,-0.082 0.182,-0.065C0.205,-0.048 0.233,-0.039 0.266,-0.039C0.297,-0.039 0.324,-0.048 0.345,-0.065C0.366,-0.082 0.38,-0.105 0.388,-0.133Z" style="fill-rule:nonzero;"/>
                    </g>
                    <g transform="matrix(35,0,0,35,610.727,576)">
                        <path d="M0.275,-0.039C0.306,-0.039 0.333,-0.046 0.356,-0.061C0.378,-0.075 0.395,-0.095 0.408,-0.12C0.411,-0.126 0.416,-0.128 0.421,-0.125L0.447,-0.112C0.453,-0.109 0.455,-0.104 0.452,-0.099C0.437,-0.066 0.414,-0.04 0.383,-0.021C0.351,-0.002 0.314,0.008 0.271,0.008C0.224,0.008 0.185,-0.003 0.152,-0.026C0.119,-0.049 0.097,-0.08 0.085,-0.119C0.08,-0.136 0.076,-0.154 0.074,-0.175C0.072,-0.196 0.071,-0.222 0.071,-0.253C0.071,-0.286 0.072,-0.31 0.073,-0.327C0.074,-0.344 0.076,-0.359 0.079,-0.373C0.09,-0.415 0.112,-0.449 0.145,-0.474C0.178,-0.499 0.218,-0.512 0.266,-0.512C0.321,-0.512 0.364,-0.498 0.397,-0.47C0.43,-0.441 0.45,-0.402 0.458,-0.352C0.46,-0.339 0.461,-0.325 0.462,-0.308C0.463,-0.291 0.463,-0.269 0.463,-0.244C0.463,-0.237 0.46,-0.234 0.453,-0.234L0.127,-0.234C0.124,-0.234 0.123,-0.233 0.123,-0.23C0.123,-0.187 0.125,-0.159 0.128,-0.145C0.135,-0.112 0.152,-0.087 0.178,-0.068C0.203,-0.049 0.236,-0.039 0.275,-0.039ZM0.13,-0.361C0.127,-0.348 0.124,-0.322 0.123,-0.283C0.123,-0.28 0.124,-0.279 0.127,-0.279L0.406,-0.279C0.409,-0.279 0.41,-0.28 0.41,-0.283C0.41,-0.316 0.408,-0.341 0.405,-0.358C0.398,-0.39 0.382,-0.416 0.357,-0.436C0.332,-0.455 0.302,-0.465 0.266,-0.465C0.23,-0.465 0.2,-0.456 0.176,-0.437C0.152,-0.418 0.137,-0.392 0.13,-0.361Z" style="fill-rule:nonzero;"/>
                    </g>
                    <g transform="matrix(35,0,0,35,636.277,576)">
                        <path d="M0.275,-0.039C0.306,-0.039 0.333,-0.046 0.356,-0.061C0.378,-0.075 0.395,-0.095 0.408,-0.12C0.411,-0.126 0.416,-0.128 0.421,-0.125L0.447,-0.112C0.453,-0.109 0.455,-0.104 0.452,-0.099C0.437,-0.066 0.414,-0.04 0.383,-0.021C0.351,-0.002 0.314,0.008 0.271,0.008C0.224,0.008 0.185,-0.003 0.152,-0.026C0.119,-0.049 0.097,-0.08 0.085,-0.119C0.08,-0.136 0.076,-0.154 0.074,-0.175C0.072,-0.196 0.071,-0.222 0.071,-0.253C0.071,-0.286 0.072,-0.31 0.073,-0.327C0.074,-0.344 0.076,-0.359 0.079,-0.373C0.09,-0.415 0.112,-0.449 0.145,-0.474C0.178,-0.499 0.218,-0.512 0.266,-0.512C0.321,-0.512 0.364,-0.498 0.397,-0.47C0.43,-0.441 0.45,-0.402 0.458,-0.352C0.46,-0.339 0.461,-0.325 0.462,-0.308C0.463,-0.291 0.463,-0.269 0.463,-0.244C0.463,-0.237 0.46,-0.234 0.453,-0.234L0.127,-0.234C0.124,-0.234 0.123,-0.233 0.123,-0.23C0.123,-0.187 0.125,-0.159 0.128,-0.145C0.135,-0.112 0.152,-0.087 0.178,-0.068C0.203,-0.049 0.236,-0.039 0.275,-0.039ZM0.13,-0.361C0.127,-0.348 0.124,-0.322 0.123,-0.283C0.123,-0.28 0.124,-0.279 0.127,-0.279L0.406,-0.279C0.409,-0.279 0.41,-0.28 0.41,-0.283C0.41,-0.316 0.408,-0.341 0.405,-0.358C0.398,-0.39 0.382,-0.416 0.357,-0.436C0.332,-0.455 0.302,-0.465 0.266,-0.465C0.23,-0.465 0.2,-0.456 0.176,-0.437C0.152,-0.418 0.137,-0.392 0.13,-0.361Z" style="fill-rule:nonzero;"/>
                    </g>
                    <g transform="matrix(35,0,0,35,654.407,576)">
                        <path d="M0.039,-0C0.035,-0 0.032,-0.001 0.031,-0.004C0.03,-0.007 0.03,-0.009 0.033,-0.012L0.2,-0.249C0.201,-0.251 0.201,-0.253 0.2,-0.255L0.033,-0.492C0.032,-0.493 0.031,-0.495 0.031,-0.498C0.031,-0.499 0.032,-0.501 0.033,-0.502C0.034,-0.503 0.036,-0.504 0.039,-0.504L0.074,-0.504C0.079,-0.504 0.083,-0.502 0.086,-0.498L0.227,-0.296C0.228,-0.295 0.229,-0.295 0.23,-0.295C0.231,-0.295 0.232,-0.295 0.233,-0.296L0.373,-0.498C0.376,-0.502 0.38,-0.504 0.385,-0.504L0.423,-0.504C0.427,-0.504 0.43,-0.503 0.431,-0.5C0.432,-0.497 0.432,-0.495 0.429,-0.492L0.262,-0.255C0.261,-0.253 0.261,-0.251 0.262,-0.249L0.429,-0.012C0.43,-0.011 0.431,-0.009 0.431,-0.006C0.431,-0.005 0.43,-0.003 0.429,-0.002C0.428,-0.001 0.426,-0 0.423,-0L0.387,-0C0.382,-0 0.378,-0.002 0.375,-0.006L0.235,-0.207C0.234,-0.208 0.233,-0.209 0.232,-0.209C0.231,-0.209 0.23,-0.208 0.229,-0.207L0.088,-0.006C0.085,-0.002 0.081,-0 0.076,-0L0.039,-0Z" style="fill-rule:nonzero;"/>
                    </g>
                    <g transform="matrix(35,0,0,35,670.017,576)">
                        <path d="M0.275,-0.039C0.306,-0.039 0.333,-0.046 0.356,-0.061C0.378,-0.075 0.395,-0.095 0.408,-0.12C0.411,-0.126 0.416,-0.128 0.421,-0.125L0.447,-0.112C0.453,-0.109 0.455,-0.104 0.452,-0.099C0.437,-0.066 0.414,-0.04 0.383,-0.021C0.351,-0.002 0.314,0.008 0.271,0.008C0.224,0.008 0.185,-0.003 0.152,-0.026C0.119,-0.049 0.097,-0.08 0.085,-0.119C0.08,-0.136 0.076,-0.154 0.074,-0.175C0.072,-0.196 0.071,-0.222 0.071,-0.253C0.071,-0.286 0.072,-0.31 0.073,-0.327C0.074,-0.344 0.076,-0.359 0.079,-0.373C0.09,-0.415 0.112,-0.449 0.145,-0.474C0.178,-0.499 0.218,-0.512 0.266,-0.512C0.321,-0.512 0.364,-0.498 0.397,-0.47C0.43,-0.441 0.45,-0.402 0.458,-0.352C0.46,-0.339 0.461,-0.325 0.462,-0.308C0.463,-0.291 0.463,-0.269 0.463,-0.244C0.463,-0.237 0.46,-0.234 0.453,-0.234L0.127,-0.234C0.124,-0.234 0.123,-0.233 0.123,-0.23C0.123,-0.187 0.125,-0.159 0.128,-0.145C0.135,-0.112 0.152,-0.087 0.178,-0.068C0.203,-0.049 0.236,-0.039 0.275,-0.039ZM0.13,-0.361C0.127,-0.348 0.124,-0.322 0.123,-0.283C0.123,-0.28 0.124,-0.279 0.127,-0.279L0.406,-0.279C0.409,-0.279 0.41,-0.28 0.41,-0.283C0.41,-0.316 0.408,-0.341 0.405,-0.358C0.398,-0.39 0.382,-0.416 0.357,-0.436C0.332,-0.455 0.302,-0.465 0.266,-0.465C0.23,-0.465 0.2,-0.456 0.176,-0.437C0.152,-0.418 0.137,-0.392 0.13,-0.361Z" style="fill-rule:nonzero;"/>
                    </g>
                    <g transform="matrix(35,0,0,35,688.567,576)">
                        <path d="M0.27,0.008C0.223,0.008 0.183,-0.004 0.15,-0.029C0.117,-0.054 0.094,-0.087 0.083,-0.128C0.074,-0.16 0.07,-0.202 0.07,-0.253C0.07,-0.302 0.074,-0.344 0.083,-0.377C0.094,-0.418 0.116,-0.45 0.149,-0.475C0.182,-0.5 0.223,-0.512 0.27,-0.512C0.317,-0.512 0.358,-0.5 0.393,-0.476C0.427,-0.452 0.449,-0.422 0.458,-0.386C0.461,-0.377 0.463,-0.367 0.464,-0.358L0.464,-0.356C0.464,-0.351 0.461,-0.348 0.455,-0.347L0.423,-0.343L0.421,-0.343C0.416,-0.343 0.413,-0.346 0.412,-0.352L0.409,-0.366C0.403,-0.394 0.387,-0.418 0.362,-0.437C0.337,-0.456 0.306,-0.465 0.27,-0.465C0.233,-0.465 0.203,-0.455 0.179,-0.436C0.154,-0.417 0.139,-0.391 0.132,-0.359C0.126,-0.334 0.123,-0.298 0.123,-0.252C0.123,-0.205 0.126,-0.17 0.132,-0.146C0.139,-0.113 0.154,-0.087 0.179,-0.068C0.203,-0.049 0.233,-0.039 0.27,-0.039C0.306,-0.039 0.337,-0.049 0.363,-0.068C0.388,-0.087 0.404,-0.11 0.409,-0.139L0.41,-0.144C0.411,-0.151 0.415,-0.154 0.422,-0.153L0.453,-0.148C0.46,-0.147 0.463,-0.143 0.462,-0.137L0.458,-0.119C0.449,-0.082 0.427,-0.051 0.393,-0.028C0.358,-0.004 0.317,0.008 0.27,0.008Z" style="fill-rule:nonzero;"/>
                    </g>
                    <g transform="matrix(35,0,0,35,706.627,576)">
                        <path d="M0.396,-0.494C0.396,-0.501 0.399,-0.504 0.406,-0.504L0.438,-0.504C0.445,-0.504 0.448,-0.501 0.448,-0.494L0.448,-0.01C0.448,-0.003 0.445,-0 0.438,-0L0.406,-0C0.399,-0 0.396,-0.003 0.396,-0.01L0.396,-0.059C0.396,-0.061 0.395,-0.062 0.394,-0.063C0.393,-0.063 0.392,-0.062 0.391,-0.06C0.377,-0.038 0.358,-0.021 0.335,-0.01C0.311,0.001 0.283,0.007 0.251,0.007C0.202,0.007 0.161,-0.008 0.128,-0.037C0.095,-0.066 0.079,-0.107 0.079,-0.158L0.079,-0.494C0.079,-0.501 0.082,-0.504 0.089,-0.504L0.121,-0.504C0.128,-0.504 0.131,-0.501 0.131,-0.494L0.131,-0.172C0.131,-0.132 0.143,-0.1 0.167,-0.076C0.19,-0.052 0.222,-0.04 0.261,-0.04C0.302,-0.04 0.334,-0.052 0.359,-0.077C0.384,-0.101 0.396,-0.133 0.396,-0.172L0.396,-0.494Z" style="fill-rule:nonzero;"/>
                    </g>
                    <g transform="matrix(35,0,0,35,725.352,576)">
                        <path d="M0.297,-0.469C0.297,-0.462 0.294,-0.459 0.287,-0.459L0.17,-0.459C0.167,-0.459 0.166,-0.458 0.166,-0.455L0.166,-0.139C0.166,-0.105 0.174,-0.081 0.189,-0.068C0.204,-0.054 0.229,-0.047 0.263,-0.047L0.286,-0.047C0.293,-0.047 0.296,-0.044 0.296,-0.037L0.296,-0.01C0.296,-0.003 0.293,-0 0.286,-0L0.256,0.001C0.209,0.001 0.174,-0.008 0.151,-0.026C0.127,-0.044 0.115,-0.077 0.114,-0.125L0.114,-0.455C0.114,-0.458 0.113,-0.459 0.11,-0.459L0.05,-0.459C0.043,-0.459 0.04,-0.462 0.04,-0.469L0.04,-0.494C0.04,-0.501 0.043,-0.504 0.05,-0.504L0.11,-0.504C0.113,-0.504 0.114,-0.505 0.114,-0.508L0.114,-0.622C0.114,-0.629 0.117,-0.632 0.124,-0.632L0.156,-0.632C0.163,-0.632 0.166,-0.629 0.166,-0.622L0.166,-0.508C0.166,-0.505 0.167,-0.504 0.17,-0.504L0.287,-0.504C0.294,-0.504 0.297,-0.501 0.297,-0.494L0.297,-0.469Z" style="fill-rule:nonzero;"/>
                    </g>
                    <g transform="matrix(35,0,0,35,737.917,576)">
                        <path d="M0.128,-0.605C0.113,-0.605 0.101,-0.61 0.092,-0.619C0.083,-0.628 0.078,-0.64 0.078,-0.655C0.078,-0.67 0.083,-0.682 0.092,-0.691C0.101,-0.7 0.113,-0.705 0.128,-0.705C0.143,-0.705 0.155,-0.7 0.164,-0.691C0.173,-0.682 0.178,-0.67 0.178,-0.655C0.178,-0.64 0.173,-0.628 0.164,-0.619C0.155,-0.61 0.143,-0.605 0.128,-0.605ZM0.109,-0.001C0.102,-0.001 0.099,-0.004 0.099,-0.011L0.099,-0.495C0.099,-0.502 0.102,-0.505 0.109,-0.505L0.142,-0.505C0.149,-0.505 0.152,-0.502 0.152,-0.495L0.152,-0.011C0.152,-0.004 0.149,-0.001 0.142,-0.001L0.109,-0.001Z" style="fill-rule:nonzero;"/>
                    </g>
                    <g transform="matrix(35,0,0,35,746.877,576)">
                        <path d="M0.269,0.008C0.222,0.008 0.182,-0.004 0.149,-0.029C0.116,-0.054 0.093,-0.087 0.081,-0.128C0.074,-0.155 0.07,-0.196 0.07,-0.253C0.07,-0.31 0.074,-0.351 0.081,-0.377C0.093,-0.418 0.116,-0.451 0.149,-0.476C0.182,-0.5 0.222,-0.512 0.27,-0.512C0.317,-0.512 0.357,-0.5 0.391,-0.475C0.424,-0.45 0.447,-0.418 0.458,-0.377C0.462,-0.362 0.465,-0.345 0.466,-0.326C0.467,-0.307 0.468,-0.282 0.468,-0.253C0.468,-0.222 0.467,-0.198 0.466,-0.179C0.465,-0.16 0.462,-0.143 0.458,-0.128C0.447,-0.087 0.424,-0.054 0.391,-0.029C0.357,-0.004 0.316,0.008 0.269,0.008ZM0.269,-0.039C0.304,-0.039 0.335,-0.049 0.36,-0.069C0.385,-0.088 0.401,-0.114 0.408,-0.146C0.413,-0.164 0.415,-0.199 0.415,-0.252C0.415,-0.305 0.413,-0.341 0.409,-0.358C0.402,-0.391 0.386,-0.417 0.361,-0.436C0.335,-0.455 0.305,-0.465 0.269,-0.465C0.233,-0.465 0.203,-0.455 0.178,-0.436C0.153,-0.417 0.137,-0.391 0.13,-0.358C0.125,-0.337 0.123,-0.302 0.123,-0.252C0.123,-0.202 0.125,-0.167 0.13,-0.146C0.137,-0.113 0.153,-0.087 0.178,-0.068C0.203,-0.049 0.233,-0.039 0.269,-0.039Z" style="fill-rule:nonzero;"/>
                    </g>
                    <g transform="matrix(35,0,0,35,765.742,576)">
                        <path d="M0.285,-0.511C0.336,-0.511 0.378,-0.495 0.41,-0.464C0.441,-0.433 0.457,-0.391 0.457,-0.34L0.457,-0.01C0.457,-0.003 0.454,-0 0.447,-0L0.414,-0C0.407,-0 0.404,-0.003 0.404,-0.01L0.404,-0.33C0.404,-0.369 0.392,-0.401 0.368,-0.427C0.344,-0.452 0.313,-0.464 0.274,-0.464C0.234,-0.464 0.202,-0.452 0.177,-0.428C0.152,-0.403 0.14,-0.371 0.14,-0.332L0.14,-0.01C0.14,-0.003 0.137,-0 0.13,-0L0.097,-0C0.09,-0 0.087,-0.003 0.087,-0.01L0.087,-0.494C0.087,-0.501 0.09,-0.504 0.097,-0.504L0.13,-0.504C0.137,-0.504 0.14,-0.501 0.14,-0.494L0.14,-0.445C0.14,-0.443 0.141,-0.442 0.142,-0.442C0.143,-0.441 0.143,-0.442 0.144,-0.443C0.159,-0.465 0.178,-0.482 0.202,-0.494C0.226,-0.505 0.254,-0.511 0.285,-0.511Z" style="fill-rule:nonzero;"/>
                    </g>
                </g>
                <g transform="matrix(2.54633,0,0,2.54633,-888.046,-912.811)">
                    <g transform="matrix(1,0,0,1,923.276,489.28)">
                        <rect x="0" y="0" width="48" height="48" style="fill:white;fill-opacity:0.01;"/>
                    </g>
                    <g transform="matrix(1,0,0,1,923.276,489.28)">
                        <rect x="0" y="0" width="48" height="48" style="fill:white;fill-opacity:0.01;fill-rule:nonzero;"/>
                    </g>
                    <g transform="matrix(1,0,0,1,923.276,489.28)">
                        <path d="M38,8L10,8C8.895,8 8,8.895 8,10L8,38C8,39.105 8.895,40 10,40L38,40C39.105,40 40,39.105 40,38L40,10C40,8.895 39.105,8 38,8Z" style="fill:rgb(47,136,255);fill-rule:nonzero;stroke:black;stroke-width:4px;"/>
                    </g>
                    <g transform="matrix(1,0,0,1,923.276,489.28)">
                        <rect x="18" y="18" width="12" height="12" style="fill:rgb(67,204,248);fill-rule:nonzero;stroke:white;stroke-width:4px;"/>
                    </g>
                    <g transform="matrix(1,0,0,1,923.276,489.28)">
                        <path d="M14.909,2L14.909,8L14.909,2Z" style="fill:rgb(47,136,255);"/>
                    </g>
                    <g transform="matrix(1,0,0,1,923.276,489.28)">
                        <path d="M14.909,2L14.909,8" style="fill:none;fill-rule:nonzero;stroke:black;stroke-width:4px;stroke-linecap:round;"/>
                    </g>
                    <g transform="matrix(1,0,0,1,923.276,489.28)">
                        <path d="M14.909,40L14.909,46L14.909,40Z" style="fill:rgb(47,136,255);"/>
                    </g>
                    <g transform="matrix(1,0,0,1,923.276,489.28)">
                        <path d="M14.909,40L14.909,46" style="fill:none;fill-rule:nonzero;stroke:black;stroke-width:4px;stroke-linecap:round;"/>
                    </g>
                    <g transform="matrix(1,0,0,1,923.276,489.28)">
                        <path d="M24,2L24,8L24,2Z" style="fill:rgb(47,136,255);"/>
                    </g>
                    <g transform="matrix(1,0,0,1,923.276,489.28)">
                        <path d="M24,2L24,8" style="fill:none;fill-rule:nonzero;stroke:black;stroke-width:4px;stroke-linecap:round;"/>
                    </g>
                    <g transform="matrix(1,0,0,1,923.276,489.28)">
                        <path d="M24,40L24,46L24,40Z" style="fill:rgb(47,136,255);"/>
                    </g>
                    <g transform="matrix(1,0,0,1,923.276,489.28)">
                        <path d="M24,40L24,46" style="fill:none;fill-rule:nonzero;stroke:black;stroke-width:4px;stroke-linecap:round;"/>
                    </g>
                    <g transform="matrix(1,0,0,1,923.276,489.28)">
                        <path d="M33.091,2L33.091,8L33.091,2Z" style="fill:rgb(47,136,255);"/>
                    </g>
                    <g transform="matrix(1,0,0,1,923.276,489.28)">
                        <path d="M33.091,2L33.091,8" style="fill:none;fill-rule:nonzero;stroke:black;stroke-width:4px;stroke-linecap:round;"/>
                    </g>
                    <g transform="matrix(1,0,0,1,923.276,489.28)">
                        <path d="M33.091,40L33.091,46L33.091,40Z" style="fill:rgb(47,136,255);"/>
                    </g>
                    <g transform="matrix(1,0,0,1,923.276,489.28)">
                        <path d="M33.091,40L33.091,46" style="fill:none;fill-rule:nonzero;stroke:black;stroke-width:4px;stroke-linecap:round;"/>
                    </g>
                    <g transform="matrix(1,0,0,1,923.276,489.28)">
                        <path d="M2,14.909L8,14.909L2,14.909Z" style="fill:rgb(47,136,255);"/>
                    </g>
                    <g transform="matrix(1,0,0,1,923.276,489.28)">
                        <path d="M2,14.909L8,14.909" style="fill:none;fill-rule:nonzero;stroke:black;stroke-width:4px;stroke-linecap:round;"/>
                    </g>
                    <g transform="matrix(1,0,0,1,923.276,489.28)">
                        <path d="M40,14.909L46,14.909L40,14.909Z" style="fill:rgb(47,136,255);"/>
                    </g>
                    <g transform="matrix(1,0,0,1,923.276,489.28)">
                        <path d="M40,14.909L46,14.909" style="fill:none;fill-rule:nonzero;stroke:black;stroke-width:4px;stroke-linecap:round;"/>
                    </g>
                    <g transform="matrix(1,0,0,1,923.276,489.28)">
                        <path d="M2,24L8,24L2,24Z" style="fill:rgb(47,136,255);"/>
                    </g>
                    <g transform="matrix(1,0,0,1,923.276,489.28)">
                        <path d="M2,24L8,24" style="fill:none;fill-rule:nonzero;stroke:black;stroke-width:4px;stroke-linecap:round;"/>
                    </g>
                    <g transform="matrix(1,0,0,1,923.276,489.28)">
                        <path d="M40,24L46,24L40,24Z" style="fill:rgb(47,136,255);"/>
                    </g>
                    <g transform="matrix(1,0,0,1,923.276,489.28)">
                        <path d="M40,24L46,24" style="fill:none;fill-rule:nonzero;stroke:black;stroke-width:4px;stroke-linecap:round;"/>
                    </g>
                    <g transform="matrix(1,0,0,1,923.276,489.28)">
                        <path d="M2,33.091L8,33.091L2,33.091Z" style="fill:rgb(47,136,255);"/>
                    </g>
                    <g transform="matrix(1,0,0,1,923.276,489.28)">
                        <path d="M2,33.091L8,33.091" style="fill:none;fill-rule:nonzero;stroke:black;stroke-width:4px;stroke-linecap:round;"/>
                    </g>
                    <g transform="matrix(1,0,0,1,923.276,489.28)">
                        <path d="M40,33.091L46,33.091L40,33.091Z" style="fill:rgb(47,136,255);"/>
                    </g>
                    <g transform="matrix(1,0,0,1,923.276,489.28)">
                        <path d="M40,33.091L46,33.091" style="fill:none;fill-rule:nonzero;stroke:black;stroke-width:4px;stroke-linecap:round;"/>
                    </g>
                </g>
            </g>
        </g>
        <g transform="matrix(0.760937,0,0,0.447222,0,0)">
            <g transform="matrix(1.31417,0,0,2.23602,-429.439,-863.762)">
                <g transform="matrix(1,0,0,1,348.054,-14.5794)">
                    <g transform="matrix(26,0,0,26,604.11,576)">
                        <path d="M0.544,-0.199C0.544,-0.152 0.531,-0.113 0.507,-0.084C0.482,-0.054 0.45,-0.032 0.412,-0.019C0.373,-0.006 0.332,-0 0.287,-0L0.111,-0L0.111,-0.705L0.27,-0.705C0.338,-0.705 0.396,-0.691 0.443,-0.664C0.489,-0.636 0.513,-0.591 0.513,-0.528C0.513,-0.485 0.5,-0.45 0.475,-0.424C0.45,-0.398 0.419,-0.381 0.382,-0.373C0.429,-0.365 0.468,-0.348 0.498,-0.322C0.528,-0.295 0.544,-0.255 0.544,-0.199ZM0.445,-0.527C0.445,-0.607 0.396,-0.647 0.297,-0.647L0.176,-0.647L0.176,-0.399L0.307,-0.399C0.399,-0.399 0.445,-0.442 0.445,-0.527ZM0.473,-0.193C0.473,-0.247 0.459,-0.284 0.429,-0.306C0.4,-0.327 0.361,-0.337 0.312,-0.337L0.176,-0.337L0.176,-0.059L0.309,-0.059C0.354,-0.059 0.393,-0.069 0.425,-0.088C0.457,-0.108 0.473,-0.143 0.473,-0.193Z" style="fill-rule:nonzero;"/>
                    </g>
                    <g transform="matrix(26,0,0,26,620.11,576)">
                        <path d="M0.35,0.005C0.336,0.043 0.321,0.077 0.304,0.105C0.286,0.133 0.264,0.157 0.235,0.177C0.206,0.196 0.17,0.209 0.128,0.214L0.116,0.158C0.153,0.152 0.182,0.142 0.203,0.129C0.225,0.115 0.241,0.099 0.254,0.079C0.266,0.059 0.277,0.033 0.288,-0L0.267,-0L0.073,-0.538L0.142,-0.538L0.312,-0.054L0.476,-0.538L0.542,-0.538L0.35,0.005Z" style="fill-rule:nonzero;"/>
                    </g>
                    <g transform="matrix(26,0,0,26,636.11,576)">
                        <path d="M0.523,-0.026C0.506,-0.014 0.485,-0.006 0.46,0.001C0.435,0.007 0.411,0.01 0.388,0.01C0.353,0.01 0.322,0.004 0.296,-0.009C0.27,-0.022 0.25,-0.04 0.236,-0.063C0.222,-0.086 0.215,-0.112 0.215,-0.141L0.215,-0.485L0.088,-0.485L0.088,-0.538L0.215,-0.538L0.215,-0.663L0.279,-0.67L0.279,-0.538L0.469,-0.538L0.46,-0.485L0.279,-0.485L0.279,-0.143C0.279,-0.11 0.288,-0.086 0.305,-0.07C0.323,-0.053 0.351,-0.045 0.39,-0.045C0.427,-0.045 0.462,-0.054 0.495,-0.071L0.523,-0.026Z" style="fill-rule:nonzero;"/>
                    </g>
                    <g transform="matrix(26,0,0,26,652.11,576)">
                        <path d="M0.158,-0.244C0.159,-0.2 0.167,-0.164 0.182,-0.135C0.197,-0.105 0.217,-0.084 0.242,-0.069C0.267,-0.055 0.294,-0.048 0.325,-0.048C0.352,-0.048 0.377,-0.052 0.399,-0.06C0.421,-0.068 0.444,-0.081 0.47,-0.098L0.503,-0.05C0.478,-0.031 0.451,-0.016 0.419,-0.006C0.388,0.005 0.357,0.01 0.327,0.01C0.278,0.01 0.236,-0.001 0.2,-0.024C0.165,-0.047 0.137,-0.08 0.118,-0.122C0.1,-0.164 0.09,-0.213 0.09,-0.269C0.09,-0.323 0.1,-0.371 0.119,-0.414C0.138,-0.456 0.164,-0.489 0.199,-0.513C0.234,-0.536 0.273,-0.548 0.317,-0.548C0.361,-0.548 0.398,-0.538 0.429,-0.517C0.461,-0.496 0.485,-0.466 0.501,-0.426C0.518,-0.387 0.526,-0.341 0.526,-0.288C0.526,-0.28 0.526,-0.265 0.525,-0.244L0.158,-0.244ZM0.319,-0.489C0.289,-0.489 0.263,-0.482 0.24,-0.468C0.217,-0.454 0.198,-0.433 0.184,-0.405C0.17,-0.377 0.162,-0.342 0.159,-0.301L0.466,-0.301C0.464,-0.363 0.45,-0.409 0.424,-0.441C0.398,-0.473 0.363,-0.489 0.319,-0.489Z" style="fill-rule:nonzero;"/>
                    </g>
                    <g transform="matrix(26,0,0,26,668.11,576)">
                        <path d="M0.343,-0.048C0.395,-0.048 0.444,-0.064 0.489,-0.096L0.523,-0.053C0.5,-0.034 0.472,-0.018 0.439,-0.007C0.406,0.005 0.375,0.01 0.346,0.01C0.294,0.01 0.25,-0.001 0.213,-0.024C0.177,-0.046 0.149,-0.078 0.13,-0.12C0.111,-0.162 0.101,-0.211 0.101,-0.267C0.101,-0.321 0.111,-0.369 0.13,-0.412C0.149,-0.454 0.177,-0.488 0.214,-0.512C0.251,-0.536 0.295,-0.548 0.346,-0.548C0.412,-0.548 0.47,-0.528 0.521,-0.487L0.487,-0.442C0.438,-0.475 0.39,-0.492 0.343,-0.492C0.31,-0.492 0.28,-0.483 0.254,-0.466C0.228,-0.449 0.208,-0.424 0.194,-0.39C0.179,-0.356 0.172,-0.315 0.172,-0.267C0.172,-0.218 0.179,-0.178 0.193,-0.145C0.208,-0.112 0.228,-0.088 0.254,-0.072C0.279,-0.056 0.309,-0.048 0.343,-0.048Z" style="fill-rule:nonzero;"/>
                    </g>
                    <g transform="matrix(26,0,0,26,684.11,576)">
                        <path d="M0.309,-0.548C0.357,-0.548 0.398,-0.537 0.431,-0.514C0.464,-0.492 0.489,-0.46 0.506,-0.418C0.522,-0.376 0.53,-0.327 0.53,-0.269C0.53,-0.215 0.522,-0.167 0.505,-0.125C0.488,-0.083 0.463,-0.05 0.429,-0.026C0.396,-0.002 0.355,0.01 0.308,0.01C0.259,0.01 0.219,-0.001 0.185,-0.024C0.152,-0.047 0.127,-0.08 0.11,-0.122C0.094,-0.163 0.085,-0.212 0.085,-0.268C0.085,-0.324 0.094,-0.373 0.111,-0.415C0.127,-0.457 0.153,-0.49 0.186,-0.513C0.22,-0.536 0.261,-0.548 0.309,-0.548ZM0.309,-0.492C0.206,-0.492 0.155,-0.418 0.155,-0.268C0.155,-0.12 0.206,-0.046 0.308,-0.046C0.41,-0.046 0.461,-0.121 0.461,-0.269C0.461,-0.418 0.41,-0.492 0.309,-0.492Z" style="fill-rule:nonzero;"/>
                    </g>
                    <g transform="matrix(26,0,0,26,700.11,576)">
                        <path d="M0.439,-0.765L0.503,-0.756L0.503,-0L0.448,-0L0.439,-0.074C0.419,-0.045 0.396,-0.024 0.369,-0.01C0.343,0.004 0.315,0.01 0.286,0.01C0.217,0.01 0.165,-0.015 0.13,-0.064C0.096,-0.114 0.078,-0.182 0.078,-0.268C0.078,-0.322 0.087,-0.37 0.104,-0.412C0.12,-0.455 0.145,-0.488 0.176,-0.512C0.208,-0.536 0.245,-0.548 0.289,-0.548C0.321,-0.548 0.35,-0.543 0.374,-0.531C0.399,-0.52 0.421,-0.503 0.439,-0.481L0.439,-0.765ZM0.305,-0.493C0.254,-0.493 0.216,-0.474 0.19,-0.436C0.163,-0.398 0.15,-0.342 0.15,-0.268C0.15,-0.197 0.162,-0.142 0.187,-0.103C0.211,-0.064 0.247,-0.045 0.294,-0.045C0.35,-0.045 0.399,-0.076 0.439,-0.137L0.439,-0.417C0.424,-0.441 0.404,-0.46 0.381,-0.473C0.357,-0.487 0.332,-0.493 0.305,-0.493Z" style="fill-rule:nonzero;"/>
                    </g>
                    <g transform="matrix(26,0,0,26,716.11,576)">
                        <path d="M0.158,-0.244C0.159,-0.2 0.167,-0.164 0.182,-0.135C0.197,-0.105 0.217,-0.084 0.242,-0.069C0.267,-0.055 0.294,-0.048 0.325,-0.048C0.352,-0.048 0.377,-0.052 0.399,-0.06C0.421,-0.068 0.444,-0.081 0.47,-0.098L0.503,-0.05C0.478,-0.031 0.451,-0.016 0.419,-0.006C0.388,0.005 0.357,0.01 0.327,0.01C0.278,0.01 0.236,-0.001 0.2,-0.024C0.165,-0.047 0.137,-0.08 0.118,-0.122C0.1,-0.164 0.09,-0.213 0.09,-0.269C0.09,-0.323 0.1,-0.371 0.119,-0.414C0.138,-0.456 0.164,-0.489 0.199,-0.513C0.234,-0.536 0.273,-0.548 0.317,-0.548C0.361,-0.548 0.398,-0.538 0.429,-0.517C0.461,-0.496 0.485,-0.466 0.501,-0.426C0.518,-0.387 0.526,-0.341 0.526,-0.288C0.526,-0.28 0.526,-0.265 0.525,-0.244L0.158,-0.244ZM0.319,-0.489C0.289,-0.489 0.263,-0.482 0.24,-0.468C0.217,-0.454 0.198,-0.433 0.184,-0.405C0.17,-0.377 0.162,-0.342 0.159,-0.301L0.466,-0.301C0.464,-0.363 0.45,-0.409 0.424,-0.441C0.398,-0.473 0.363,-0.489 0.319,-0.489Z" style="fill-rule:nonzero;"/>
                    </g>
                </g>
                <g transform="matrix(5.34375,0,0,4.15122,931.276,500.78)">
                    <path d="M7,0L1,0C0.448,0 0,0.448 0,1L0,7C0,7.552 0.448,8 1,8C1.552,8 2,7.552 2,7L2,2L7,2C7.552,2 8,1.552 8,1C8,0.448 7.552,0 7,0ZM31,17C30.448,17 30,17.448 30,18L30,23L25,23C24.448,23 24,23.448 24,24C24,24.552 24.448,25 25,25L31,25C31.552,25 32,24.552 32,24L32,18C32,17.448 31.552,17 31,17ZM7,23L2,23L2,18C2,17.448 1.552,17 1,17C0.448,17 0,17.448 0,18L0,24C0,24.552 0.448,25 1,25L7,25C7.552,25 8,24.552 8,24C8,23.448 7.552,23 7,23ZM31,0L25,0C24.448,0 24,0.448 24,1C24,1.552 24.448,2 25,2L30,2L30,7C30,7.552 30.448,8 31,8C31.552,8 32,7.552 32,7L32,1C32,0.448 31.552,0 31,0Z" style="fill-rule:nonzero;"/>
                </g>
            </g>
        </g>
        <g transform="matrix(0.760937,0,0,0.447222,0,0)">
            <g transform="matrix(1.31417,0,0,1.92311,-335.77,-421.26)">
                <rect x="526" y="241" width="839" height="343" style="fill:none;stroke:black;stroke-width:1.07px;stroke-linecap:round;stroke-miterlimit:1.5;"/>
            </g>
        </g>
        <g transform="matrix(0.760937,0,0,0.447222,0,0)">
            <g transform="matrix(0.999724,0,0,2.23602,-64.0494,-1225.65)">
                <path d="M274,731.825L274,711.175L363.221,711.175L363.221,692L402,721.5L363.221,751L363.221,731.825L274,731.825Z" style="fill:rgb(29,192,83);"/>
            </g>
        </g>
        <g transform="matrix(0.760937,0,0,0.447222,0,0)">
            <g transform="matrix(0.999724,0,0,2.23602,1218.87,-1241.27)">
                <path d="M274,731.825L274,711.175L363.221,711.175L363.221,692L402,721.5L363.221,751L363.221,731.825L274,731.825Z" style="fill:rgb(29,192,83);"/>
            </g>
        </g>
        <g transform="matrix(0.760937,0,0,0.447222,0,0)">
            <g transform="matrix(0.732783,0,0,2.23602,465.109,-1225.65)">
                <path d="M274,731.825L274,711.175L349.095,711.175L349.095,692L402,721.5L349.095,751L349.095,731.825L274,731.825Z" style="fill:rgb(29,192,83);fill-opacity:0.5;"/>
            </g>
        </g>
        <g transform="matrix(0.760937,0,0,0.447222,0,0)">
            <g transform="matrix(0.732783,0,0,2.23602,870.166,-1241.27)">
                <path d="M274,731.825L274,711.175L349.095,711.175L349.095,692L402,721.5L349.095,751L349.095,731.825L274,731.825Z" style="fill:rgb(29,192,83);fill-opacity:0.5;"/>
            </g>
        </g>
        <g transform="matrix(0.760937,0,0,0.447222,0,0)">
            <g transform="matrix(1.31417,0,0,2.23602,-342.9,-601.491)">
                <g transform="matrix(6.88889,0,0,6.88889,888.925,646.517)">
                    <path d="M18,6L18,10.8C18,11.92 18,12.48 17.782,12.908C17.59,13.284 17.284,13.59 16.908,13.782C16.48,14 15.92,14 14.8,14L3.2,14C2.08,14 1.52,14 1.092,13.782C0.716,13.59 0.41,13.284 0.218,12.908C0,12.48 0,11.92 0,10.8L0,3.2C0,2.08 0,1.52 0.218,1.092C0.41,0.716 0.716,0.41 1.092,0.218C1.52,0 2.08,0 3.2,0L12,0M18,6L12,0M18,6L13.6,6C13.04,6 12.76,6 12.546,5.891C12.358,5.795 12.205,5.642 12.109,5.454C12,5.24 12,4.96 12,4.4L12,0" style="fill:none;fill-rule:nonzero;stroke:black;stroke-width:0.64px;stroke-linecap:round;"/>
                </g>
                <g transform="matrix(0.763014,0,0,0.763014,417.204,200.101)">
                    <g transform="matrix(52.8097,0,0,52.8097,631,685)">
                        <path d="M0.193,-0.097C0.193,-0.117 0.198,-0.136 0.209,-0.154C0.219,-0.171 0.233,-0.185 0.251,-0.196C0.268,-0.206 0.287,-0.211 0.308,-0.211C0.328,-0.211 0.347,-0.206 0.365,-0.196C0.382,-0.185 0.396,-0.171 0.407,-0.154C0.417,-0.136 0.422,-0.117 0.422,-0.097C0.422,-0.076 0.417,-0.057 0.407,-0.04C0.396,-0.023 0.382,-0.009 0.365,0.002C0.347,0.012 0.328,0.017 0.308,0.017C0.287,0.017 0.268,0.012 0.251,0.002C0.233,-0.009 0.219,-0.023 0.209,-0.04C0.198,-0.057 0.193,-0.076 0.193,-0.097Z" style="fill-rule:nonzero;"/>
                    </g>
                    <g transform="matrix(52.8097,0,0,52.8097,663.498,685)">
                        <path d="M0.373,-0.563C0.442,-0.563 0.492,-0.538 0.524,-0.487C0.556,-0.437 0.572,-0.366 0.572,-0.274C0.572,-0.217 0.564,-0.167 0.547,-0.123C0.531,-0.079 0.507,-0.045 0.475,-0.02C0.444,0.005 0.406,0.017 0.363,0.017C0.31,0.017 0.267,-0.002 0.234,-0.039L0.234,0.21L0.072,0.227L0.072,-0.545L0.215,-0.545L0.223,-0.484C0.244,-0.511 0.267,-0.531 0.293,-0.543C0.319,-0.556 0.346,-0.563 0.373,-0.563ZM0.323,-0.443C0.305,-0.443 0.289,-0.438 0.274,-0.427C0.26,-0.416 0.246,-0.401 0.234,-0.38L0.234,-0.15C0.245,-0.133 0.258,-0.121 0.27,-0.113C0.282,-0.105 0.297,-0.102 0.314,-0.102C0.344,-0.102 0.366,-0.115 0.382,-0.142C0.397,-0.169 0.405,-0.212 0.405,-0.272C0.405,-0.316 0.402,-0.35 0.396,-0.375C0.389,-0.4 0.38,-0.418 0.368,-0.428C0.356,-0.438 0.341,-0.443 0.323,-0.443Z" style="fill-rule:nonzero;"/>
                    </g>
                    <g transform="matrix(52.8097,0,0,52.8097,695.997,685)">
                        <path d="M0.405,-0C0.381,0.074 0.344,0.129 0.295,0.166C0.247,0.203 0.182,0.224 0.1,0.228L0.082,0.114C0.117,0.109 0.146,0.103 0.168,0.094C0.19,0.085 0.208,0.074 0.221,0.059C0.235,0.044 0.247,0.024 0.257,-0L0.202,-0L0.029,-0.545L0.2,-0.545L0.306,-0.104L0.421,-0.545L0.587,-0.545L0.405,-0Z" style="fill-rule:nonzero;"/>
                    </g>
                    <g transform="matrix(52.8097,0,0,52.8097,728.495,685)">
                        <path d="M0.361,-0.11C0.381,-0.11 0.401,-0.114 0.421,-0.122C0.44,-0.13 0.461,-0.142 0.482,-0.157L0.554,-0.054C0.529,-0.032 0.499,-0.015 0.464,-0.002C0.43,0.011 0.392,0.017 0.352,0.017C0.294,0.017 0.244,0.005 0.202,-0.018C0.159,-0.042 0.127,-0.076 0.104,-0.119C0.082,-0.162 0.07,-0.212 0.07,-0.269C0.07,-0.325 0.082,-0.376 0.105,-0.421C0.128,-0.465 0.161,-0.5 0.204,-0.525C0.247,-0.55 0.297,-0.563 0.355,-0.563C0.396,-0.563 0.432,-0.557 0.464,-0.546C0.497,-0.534 0.527,-0.517 0.554,-0.494L0.484,-0.397C0.445,-0.424 0.404,-0.438 0.362,-0.438C0.323,-0.438 0.293,-0.424 0.272,-0.397C0.25,-0.37 0.239,-0.328 0.239,-0.269C0.239,-0.212 0.25,-0.171 0.272,-0.147C0.293,-0.122 0.323,-0.11 0.361,-0.11Z" style="fill-rule:nonzero;"/>
                    </g>
                </g>
            </g>
        </g>
        <g transform="matrix(0.760937,0,0,0.447222,0,0)">
            <g transform="matrix(1.31417,0,0,2.23602,-354.825,-545.59)">
                <path d="M960,484L960,602" style="fill:none;"/>
                <g transform="matrix(1,-0,-0,1,299.496,262.377)">
                    <path d="M668.004,324.623L660.504,339.623L653.004,324.623L668.004,324.623Z"/>
                    <path d="M660.504,221.623L660.504,327.623" style="fill:none;stroke:black;stroke-width:5px;stroke-linecap:round;stroke-miterlimit:1.5;"/>
                </g>
            </g>
        </g>
    </g>
</svg>
