<svg xmlns="http://www.w3.org/2000/svg" xmlns:xlink="http://www.w3.org/1999/xlink" width="1414" height="458" fill-rule="evenodd" stroke-linejoin="round" xmlns:v="https://vecta.io/nano"><style><![CDATA[.B{fill-rule:nonzero}.C{stroke:#000}.D{fill:none}.E{stroke-linecap:round}.F{stroke-width:10.185}.G{fill:#2f88ff}.H{fill:#d0d0d0}.I{fill:#e8e8e8}.J{stroke-miterlimit:1.5}]]></style><path d="M20.759 173.956a5.2 5.2 0 0 0-5.189-5.189h-5.189v10.378h5.189a5.2 5.2 0 0 0 5.189-5.189m10.357-.83a15.57 15.57 0 0 1-15.546 16.397h-5.189v5.189a5.2 5.2 0 0 1-5.189 5.189 5.2 5.2 0 0 1-5.189-5.189v-31.134a5.2 5.2 0 0 1 5.189-5.189h9.496c8.432 0 15.987 6.331 16.428 14.737m31.155-14.737a5.2 5.2 0 0 0-5.189 5.189v5.189a5.2 5.2 0 0 1-5.189 5.189 5.2 5.2 0 0 1-5.189-5.189v-5.189a5.2 5.2 0 0 0-5.189-5.189 5.2 5.2 0 0 0-5.189 5.189v10.378a10.36 10.36 0 0 0 10.378 10.378v10.378a5.2 5.2 0 0 0 5.189 5.189 5.2 5.2 0 0 0 5.189-5.189v-10.378a10.36 10.36 0 0 0 10.378-10.378v-10.378a5.2 5.2 0 0 0-5.189-5.189m41.512-31.186v62.32a10.36 10.36 0 0 1-10.378 10.378H83.028a5.2 5.2 0 0 1-5.189-5.189 5.2 5.2 0 0 1 5.189-5.189h5.189a5.2 5.2 0 0 0 5.189-5.189v-46.701H72.65a10.36 10.36 0 0 1-10.378-10.378v-20.756H15.57a5.2 5.2 0 0 0-5.189 5.189v31.134a5.2 5.2 0 0 1-5.189 5.189 5.2 5.2 0 0 1-5.189-5.189v-36.323c0-5.708 4.644-10.378 10.378-10.378h60.136c1.302 0 2.558.519 3.513 1.401l28.083 25.841a5.25 5.25 0 0 1 1.671 3.84"/><g transform="matrix(1.000001 0 0 .999997 -302.955452 -262.376851)"><g transform="matrix(2.37374 0 0 2.37374 -1583.81 -838.075)"><g class="H"><circle cx="969.776" cy="494.48" r="3"/><circle cx="964.776" cy="492.48" r="4.2"/><circle cx="963.276" cy="489.08" r="4.8"/></g><g class="B I"><path d="M962.376 486.28c2.3 0 4.2 1.4 5 3.4v-.4c0-2.2-1.8-3.9-3.9-3.9-1.1 0-2.2.5-2.9 1.3.5-.3 1.1-.4 1.8-.4"/><path d="M963.476 489.58c2.3 0 4.2 1.4 5 3.4v-.4c0-2.2-1.8-3.9-3.9-3.9-1.1 0-2.2.5-2.9 1.3.6-.3 1.2-.4 1.8-.4"/><path d="M968.676 492.98c1.6 0 3 1 3.6 2.5v-.3c0-1.6-1.3-2.8-2.8-2.8-.8 0-1.6.4-2.1.9.3-.2.8-.3 1.3-.3"/></g><path d="M978.276 541.28h-62c-.6 0-1 .5-1 1v2c0 .5.4 1 1 1h62a1.08 1.08 0 0 0 1-1v-2a1.08 1.08 0 0 0-1-1" fill="#62727a" class="B"/><path d="M954.276 521.28l-12-10v10l-12-10v10l-12-10v30h48v-20h-12z" fill="#f15744" class="B"/><path d="M967.076 524.48h8.4l-.4-8.4h-7.6l-.4 8.4zm7.6-16.8l-.4-8.4h-6l-.4 8.4h6.8zm-8 25.2l-.4 8.4h10l-.4-8.4h-9.2z" fill="#d33b23" class="B"/><path d="M974.676 507.68h-6.8l-.4 8.4h7.6l-.4-8.4zm-8 25.2h9.2l-.4-8.4h-8.4l-.4 8.4z" class="H B"/><path d="M918.276 526.28h36v10h-36z" fill="#f9f3d9" class="B"/><path d="M918.276 527.28h35v8h-35z" fill="#b4d7ee" class="B"/><path d="M957.276 531.28h6v10h-6z" fill="#89664c" class="B"/><path d="M956.276 529.28h8v2h-8z" fill="#d33b23" class="B"/><g fill="#f9f3d9" class="B"><path d="M918.276 530.78h35v1h-35z"/><path d="M929.776 526.28h1v10h-1zm12 0h1v10h-1z"/></g><circle cx="961.776" cy="535.78" r=".5" fill="#dbb471"/><g class="B"><path d="M957.276 541.28h6v2h-6z" class="H"/><path d="M956.276 543.28h8v2h-8z" class="I"/></g><g class="H"><circle cx="971.776" cy="497.28" r="2"/><circle cx="957.276" cy="486.38" r="5.1"/><circle cx="949.176" cy="487.18" r="5.9"/><circle cx="941.776" cy="486.28" r="5"/><circle cx="933.676" cy="488.28" r="7"/><circle cx="925.876" cy="490.48" r="9.2"/></g><g class="B I"><path d="M923.376 484.58c4.7 0 8.6 2.9 10.2 7.1 0-.3.1-.6.1-.9 0-4.5-3.6-8.1-8.1-8.1-2.3 0-4.4 1-5.9 2.6 1.1-.5 2.4-.7 3.7-.7"/><path d="M931.776 484.18c3.7 0 6.8 2.3 8 5.6v-.7c0-3.5-2.9-6.4-6.4-6.4-1.8 0-3.5.8-4.7 2 1.1-.3 2.1-.5 3.1-.5m8.7-.8c2.6 0 4.9 1.7 5.8 4v-.5c0-2.6-2.1-4.6-4.6-4.6a4.46 4.46 0 0 0-3.3 1.5c.6-.3 1.3-.4 2.1-.4"/><path d="M947.476 483.68c3 0 5.6 1.9 6.6 4.6v-.6c0-2.9-2.3-5.2-5.2-5.2-1.5 0-2.9.6-3.8 1.7.7-.3 1.6-.5 2.4-.5m8.6-.3c2.6 0 4.8 1.6 5.6 3.9v-.5c0-2.5-2-4.4-4.5-4.4-1.3 0-2.4.5-3.3 1.4.7-.3 1.4-.4 2.2-.4m14.9 12.8c1.1 0 2 .7 2.4 1.6v-.2c0-1-.8-1.9-1.9-1.9-.5 0-1 .2-1.4.6.3-.1.6-.1.9-.1"/></g></g><g class="B"><use xlink:href="#B"/><use xlink:href="#C"/><path d="M656.247 485.355c1.715 0 3.08.525 4.095 1.54s1.54 2.45 1.54 4.235v11.76c0 .245-.105.35-.35.35h-1.12c-.245 0-.35-.105-.35-.35v-11.41c0-1.365-.385-2.485-1.19-3.29-.805-.77-1.855-1.19-3.15-1.19-1.365 0-2.45.385-3.255 1.19-.84.805-1.26 1.855-1.26 3.22v11.48c0 .245-.105.35-.35.35h-1.12c-.245 0-.35-.105-.35-.35v-11.41c0-1.365-.385-2.485-1.19-3.29-.805-.77-1.82-1.19-3.115-1.19-1.365 0-2.45.385-3.255 1.19s-1.225 1.855-1.225 3.22v11.48c0 .245-.105.35-.35.35h-1.155c-.245 0-.35-.105-.35-.35v-16.94c0-.245.105-.35.35-.35h1.155c.245 0 .35.105.35.35v1.575c0 .035.035.07.07.105s.07 0 .105-.035c.49-.735 1.155-1.295 1.995-1.68.805-.385 1.75-.56 2.8-.56 1.225 0 2.275.28 3.15.77.875.525 1.505 1.295 1.96 2.24.035.105.105.105.175.035.49-1.015 1.19-1.75 2.135-2.275s2.03-.77 3.255-.77zm24.71 4.62c.175.525.28 1.155.315 1.785l.07 2.625-.07 2.59a9.04 9.04 0 0 1-.28 1.82c-.35 1.435-1.085 2.59-2.17 3.43-1.12.875-2.485 1.295-4.13 1.295-1.015 0-1.925-.21-2.73-.63-.805-.385-1.47-.98-1.96-1.75-.035-.035-.07-.07-.105-.07-.035.035-.07.07-.07.14v8.54c0 .245-.105.35-.35.35h-1.155c-.245 0-.35-.105-.35-.35v-23.8c0-.245.105-.35.35-.35h1.155c.245 0 .35.105.35.35v1.68c0 .07.035.105.07.105.035.035.07 0 .105-.035.49-.77 1.155-1.365 1.96-1.785.805-.385 1.715-.595 2.73-.595 1.575 0 2.94.42 4.025 1.26s1.855 1.96 2.24 3.395zm-1.96 8.54c.175-.42.315-.91.385-1.47s.105-1.435.105-2.625l-.105-2.66c-.07-.525-.175-1.05-.35-1.505-.245-.98-.77-1.785-1.575-2.38s-1.785-.91-2.94-.91c-1.085 0-1.995.315-2.73.91-.735.63-1.26 1.435-1.505 2.38-.175.42-.28.91-.35 1.47s-.105 1.47-.105 2.695l.105 2.695c.07.56.175 1.085.35 1.54.245.945.77 1.715 1.505 2.31s1.645.91 2.73.91 1.995-.28 2.765-.84a4.01 4.01 0 0 0 1.575-2.135l.14-.385z"/><use xlink:href="#D"/><path d="M696.182 503.24c-.245 0-.35-.105-.35-.35v-23.8c0-.245.105-.35.35-.35h1.155c.245 0 .35.105.35.35v23.8c0 .245-.105.35-.35.35h-1.155z"/><use xlink:href="#E"/><path d="M728.942 485.46c.805 0 1.47.14 2.03.42.175.07.245.21.21.455l-.315 1.12c-.07.245-.21.315-.455.21-.455-.175-1.05-.28-1.75-.245-1.295.035-2.38.525-3.22 1.47-.875.98-1.295 2.17-1.295 3.57v10.43c0 .245-.105.35-.35.35h-1.155c-.245 0-.35-.105-.35-.35v-16.94c0-.245.105-.35.35-.35h1.155c.245 0 .35.105.35.35v2.38c0 .07.035.105.07.105.035.035.035 0 .07-.07.49-.91 1.12-1.61 1.925-2.135.77-.525 1.68-.77 2.73-.77z"/></g></g><g transform="matrix(1.000001 0 0 .999997 -283.22816 -262.307084)" class="B"><path d="M1221.975 449.221l-52.251-23.242v-60.061l52.251-19.251v102.554z" fill="#d1d3d3"/><path d="M1221.975 449.221l65.748-24.568V367.51l-65.748-20.842v102.554z" fill="#e8eeef"/><path d="M1169.724 425.979l62.314 29.301 55.685-30.362-65.55-22.088-52.45 23.149z" fill="#b3b9ba"/><path d="M1191.719 423.182l37.667 19.331 40.571-18.562 17.766.968-25.324-9.188-70.681 7.451z" fill="#6c8387"/><path d="M1229.983 441.902l-38.264-18.721V383.95l38.264 16.467v41.486z" fill="#37bbef"/><path d="M1229.983 441.902l34.193-18.721v-39.073l-34.193 16.308v41.486z" fill="#2481ba"/><path d="M1191.719 383.95l38.264 16.467 34.193-16.308-40.253-13.563-32.205 13.404z" fill="#3ed6ff"/><path d="M1162.801 478.46c1.995 0 3.57.595 4.795 1.82 1.225 1.26 1.82 2.87 1.82 4.865s-.595 3.57-1.82 4.795-2.87 1.82-4.865 1.82h-7.28c-.105 0-.14.035-.14.14v10.78c0 .245-.105.35-.35.35h-1.155c-.245 0-.35-.105-.35-.35v-23.87c0-.245.105-.35.35-.35h8.995zm-.14 11.725c1.47 0 2.66-.455 3.57-1.4.875-.91 1.33-2.1 1.33-3.605s-.455-2.73-1.33-3.675c-.91-.91-2.1-1.365-3.57-1.365h-7.21c-.105 0-.14.035-.14.14v9.765c0 .105.035.14.14.14h7.21zm10.185 19.845c-.175 0-.245-.105-.245-.35v-.91c0-.245.105-.35.35-.35h.14c.875-.035 1.575-.175 2.1-.42.49-.28.91-.77 1.295-1.505.35-.735.77-1.855 1.26-3.36.035-.105.035-.175 0-.21l-5.985-17.15-.035-.14c0-.175.105-.245.315-.245h1.19a.42.42 0 0 1 .42.28l4.97 14.84c.035.035.07.07.105.07s.07-.035.105-.07l4.83-14.84a.42.42 0 0 1 .42-.28h1.19c.245 0 .35.14.28.385l-6.615 19.04c-.525 1.505-1.05 2.625-1.505 3.36s-1.015 1.225-1.645 1.47c-.665.245-1.54.385-2.695.385h-.245z"/><use xlink:href="#F"/><path d="M1209.037 485.145c1.785 0 3.255.56 4.375 1.645 1.085 1.085 1.645 2.555 1.645 4.34v11.55c0 .245-.105.35-.35.35h-1.155c-.245 0-.35-.105-.35-.35v-11.2c0-1.365-.42-2.485-1.26-3.395-.84-.875-1.925-1.295-3.29-1.295-1.4 0-2.52.42-3.395 1.26-.875.875-1.295 1.995-1.295 3.36v11.27c0 .245-.105.35-.35.35h-1.155c-.245 0-.35-.105-.35-.35v-23.8c0-.245.105-.35.35-.35h1.155c.245 0 .35.105.35.35v8.575c0 .07.035.105.07.105.035.035.035 0 .07-.035a5.26 5.26 0 0 1 2.03-1.785c.84-.385 1.82-.595 2.905-.595z"/><use xlink:href="#C" x="600.739" y="-0.21"/><use xlink:href="#G"/><path d="M1271.721 503.03a.42.42 0 0 1-.42-.28l-7.735-23.835-.035-.14c0-.175.105-.245.315-.245h1.225a.42.42 0 0 1 .42.28l6.79 21.35c.035.035.07.07.105.07s.07-.035.105-.07l6.86-21.35a.42.42 0 0 1 .42-.28h1.155c.245 0 .35.14.28.385l-7.77 23.835a.42.42 0 0 1-.42.28h-1.295zm30.31-24.255c.105-.175.245-.245.42-.245h1.19c.245 0 .35.105.35.35v23.8c0 .245-.105.35-.35.35h-1.155c-.245 0-.35-.105-.35-.35v-20.545c0-.07-.035-.105-.07-.14-.035 0-.07.035-.105.105l-6.16 9.52c-.105.175-.245.245-.42.245h-.595c-.175 0-.315-.07-.42-.245l-6.23-9.485c-.035-.07-.07-.105-.105-.07s-.07.07-.07.14v20.475c0 .245-.105.35-.35.35h-1.155c-.245 0-.35-.105-.35-.35v-23.8c0-.245.105-.35.35-.35h1.225c.175 0 .315.07.42.245l6.86 10.5c.035.035.07.035.105.035s.07 0 .105-.035l6.86-10.5z"/></g><g transform="matrix(1.000001 0 0 .999997 -224.27837 -255.62201)"><g class="B"><use xlink:href="#B" x="812.149" y="-0.21"/><use xlink:href="#C" x="812.149" y="-0.21"/><path d="M1461.886 478.88c0-.245.105-.35.35-.35h1.155c.245 0 .35.105.35.35v23.8c0 .245-.105.35-.35.35h-1.155c-.245 0-.35-.105-.35-.35v-1.715c0-.07 0-.105-.035-.14-.035 0-.105.035-.14.07-.49.77-1.155 1.365-1.96 1.785s-1.75.63-2.765.63c-1.575 0-2.94-.42-4.025-1.26s-1.855-1.96-2.24-3.395c-.175-.525-.28-1.155-.315-1.82l-.07-2.59.07-2.59a9.04 9.04 0 0 1 .28-1.82c.35-1.435 1.085-2.59 2.205-3.465 1.085-.84 2.45-1.26 4.095-1.26 1.015 0 1.96.21 2.765.63s1.47 1.015 1.96 1.785c.035.07.07.105.105.07.035 0 .07-.035.07-.105v-8.61zm-.455 19.495c.175-.455.28-.945.35-1.505l.07-2.625-.105-2.73c-.07-.56-.175-1.085-.35-1.54-.245-.945-.735-1.75-1.47-2.345-.735-.56-1.645-.875-2.73-.875s-2.03.315-2.835.875c-.805.595-1.33 1.365-1.61 2.31-.21.455-.35.945-.42 1.505-.105.595-.14 1.505-.14 2.765l.105 2.625c.07.56.175 1.085.35 1.54.245.98.77 1.785 1.575 2.38s1.785.91 2.94.91c1.085 0 2.03-.315 2.765-.91s1.225-1.4 1.505-2.38z"/><use xlink:href="#E" x="766.089" y="-0.21"/><use xlink:href="#E" x="791.639" y="-0.21"/><path d="M1511.831 503.03c-.14 0-.245-.035-.28-.14s-.035-.175.07-.28l5.845-8.295c.035-.07.035-.14 0-.21l-5.845-8.295c-.035-.035-.07-.105-.07-.21 0-.035.035-.105.07-.14s.105-.07.21-.07h1.225a.5.5 0 0 1 .42.21l4.935 7.07c.035.035.07.035.105.035s.07 0 .105-.035l4.9-7.07a.5.5 0 0 1 .42-.21h1.33c.14 0 .245.035.28.14s.035.175-.07.28l-5.845 8.295c-.035.07-.035.14 0 .21l5.845 8.295c.035.035.07.105.07.21 0 .035-.035.105-.07.14s-.105.07-.21.07h-1.26a.5.5 0 0 1-.42-.21l-4.9-7.035c-.035-.035-.07-.07-.105-.07s-.07.035-.105.07l-4.935 7.035a.5.5 0 0 1-.42.21h-1.295z"/><use xlink:href="#E" x="825.379" y="-0.21"/><path d="M1554.076 503.31c-1.645 0-3.045-.42-4.2-1.295a6.31 6.31 0 0 1-2.345-3.465c-.315-1.12-.455-2.59-.455-4.375 0-1.715.14-3.185.455-4.34.385-1.435 1.155-2.555 2.31-3.43s2.59-1.295 4.235-1.295 3.08.42 4.305 1.26c1.19.84 1.96 1.89 2.275 3.15.105.315.175.665.21.98v.07c0 .175-.105.28-.315.315l-1.12.14h-.07c-.175 0-.28-.105-.315-.315l-.105-.49c-.21-.98-.77-1.82-1.645-2.485s-1.96-.98-3.22-.98c-1.295 0-2.345.35-3.185 1.015-.875.665-1.4 1.575-1.645 2.695-.21.875-.315 2.135-.315 3.745 0 1.645.105 2.87.315 3.71.245 1.155.77 2.065 1.645 2.73.84.665 1.89 1.015 3.185 1.015 1.26 0 2.345-.35 3.255-1.015.875-.665 1.435-1.47 1.61-2.485l.035-.175c.035-.245.175-.35.42-.315l1.085.175c.245.035.35.175.315.385l-.14.63c-.315 1.295-1.085 2.38-2.275 3.185-1.225.84-2.66 1.26-4.305 1.26zm22.47-17.57c0-.245.105-.35.35-.35h1.12c.245 0 .35.105.35.35v16.94c0 .245-.105.35-.35.35h-1.12c-.245 0-.35-.105-.35-.35v-1.715c0-.07-.035-.105-.07-.14-.035 0-.07.035-.105.105-.49.77-1.155 1.365-1.96 1.75-.84.385-1.82.595-2.94.595-1.715 0-3.15-.525-4.305-1.54s-1.715-2.45-1.715-4.235v-11.76c0-.245.105-.35.35-.35h1.12c.245 0 .35.105.35.35v11.27c0 1.4.42 2.52 1.26 3.36.805.84 1.925 1.26 3.29 1.26 1.435 0 2.555-.42 3.43-1.295.875-.84 1.295-1.96 1.295-3.325v-11.27z"/><use xlink:href="#F" x="394.915"/><use xlink:href="#D" x="910.149" y="-0.21"/><use xlink:href="#C" x="986.099" y="-0.21"/><use xlink:href="#G" x="385.359"/></g><g fill="#fff"><path d="M1462.919 333.057h122.224v122.224h-122.224z" fill-opacity=".01"/><path d="M1462.919 333.057h122.224v122.224h-122.224z" fill-opacity=".01" class="B"/></g><g class="F B"><path d="M1559.68 353.428h-71.297a5.09 5.09 0 0 0-5.093 5.093v71.297a5.09 5.09 0 0 0 5.093 5.093h71.297a5.09 5.09 0 0 0 5.093-5.093v-71.297a5.09 5.09 0 0 0-5.093-5.093z" class="C G"/><path d="M1508.753 378.891h30.556v30.556h-30.556z" fill="#43ccf8" stroke="#fff"/></g><path d="M1500.883 338.15v15.278-15.278z" class="G"/><path d="M1500.883 338.15v15.278" class="C D E F"/><path d="M1500.883 434.911v15.278-15.278z" class="G"/><path d="M1500.883 434.911v15.278" class="C D E F"/><path d="M1524.031 338.15v15.278-15.278z" class="G"/><path d="M1524.031 338.15v15.278" class="C D E F"/><path d="M1524.031 434.911v15.278-15.278z" class="G"/><path d="M1524.031 434.911v15.278" class="C D E F"/><path d="M1547.18 338.15v15.278-15.278z" class="G"/><path d="M1547.18 338.15v15.278" class="C D E F"/><path d="M1547.18 434.911v15.278-15.278z" class="G"/><path d="M1547.18 434.911v15.278" class="C D E F"/><path d="M1468.012 371.021h15.278-15.278z" class="G"/><path d="M1468.012 371.021h15.278" class="C D E F"/><path d="M1564.773 371.021h15.278-15.278z" class="G"/><path d="M1564.773 371.021h15.278" class="C D E F"/><path d="M1468.012 394.169h15.278-15.278z" class="G"/><path d="M1468.012 394.169h15.278" class="C D E F"/><path d="M1564.773 394.169h15.278-15.278z" class="G"/><path d="M1564.773 394.169h15.278" class="C D E F"/><path d="M1468.012 417.318h15.278-15.278z" class="G"/><path d="M1468.012 417.318h15.278" class="C D E F"/><path d="M1564.773 417.318h15.278-15.278z" class="G"/><path d="M1564.773 417.318h15.278" class="C D E F"/></g><g transform="matrix(1.000001 0 0 .999997 -356.272024 -404.670369)" class="B"><path d="M966.308 556.247c0 1.222-.338 2.236-.962 2.99-.65.78-1.482 1.352-2.47 1.69-1.014.338-2.08.494-3.25.494h-4.576v-18.33h4.134c1.768 0 3.276.364 4.498 1.066 1.196.728 1.82 1.898 1.82 3.536 0 1.118-.338 2.028-.988 2.704s-1.456 1.118-2.418 1.326c1.222.208 2.236.65 3.016 1.326.78.702 1.196 1.742 1.196 3.198zm-2.574-8.528c0-2.08-1.274-3.12-3.848-3.12h-3.146v6.448h3.406c2.392 0 3.588-1.118 3.588-3.328zm.728 8.684c0-1.404-.364-2.366-1.144-2.938-.754-.546-1.768-.806-3.042-.806h-3.536v7.228h3.458c1.17 0 2.184-.26 3.016-.754.832-.52 1.248-1.43 1.248-2.73zm12.802 5.148c-.364.988-.754 1.872-1.196 2.6a6.46 6.46 0 0 1-1.794 1.872c-.754.494-1.69.832-2.782.962l-.312-1.456c.962-.156 1.716-.416 2.262-.754.572-.364.988-.78 1.326-1.3.312-.52.598-1.196.884-2.054h-.546l-5.044-13.988h1.794l4.42 12.584 4.264-12.584h1.716l-4.992 14.118zm20.498-.806c-.442.312-.988.52-1.638.702a8.02 8.02 0 0 1-1.872.234c-.91 0-1.716-.156-2.392-.494s-1.196-.806-1.56-1.404-.546-1.274-.546-2.028v-8.944h-3.302v-1.378h3.302v-3.25l1.664-.182v3.432h4.94l-.234 1.378h-4.706v8.892c0 .858.234 1.482.676 1.898.468.442 1.196.65 2.21.65.962 0 1.872-.234 2.73-.676l.728 1.17z"/><use xlink:href="#H"/><path d="M1025.082 560.173c1.352 0 2.626-.416 3.796-1.248l.884 1.118c-.598.494-1.326.91-2.184 1.196-.858.312-1.664.442-2.418.442-1.352 0-2.496-.286-3.458-.884-.936-.572-1.664-1.404-2.158-2.496s-.754-2.366-.754-3.822c0-1.404.26-2.652.754-3.77.494-1.092 1.222-1.976 2.184-2.6s2.106-.936 3.432-.936c1.716 0 3.224.52 4.55 1.586l-.884 1.17c-1.274-.858-2.522-1.3-3.744-1.3-.858 0-1.638.234-2.314.676s-1.196 1.092-1.56 1.976c-.39.884-.572 1.95-.572 3.198 0 1.274.182 2.314.546 3.172.39.858.91 1.482 1.586 1.898.65.416 1.43.624 2.314.624zm15.116-13c1.248 0 2.314.286 3.172.884.858.572 1.508 1.404 1.95 2.496.416 1.092.624 2.366.624 3.874 0 1.404-.208 2.652-.65 3.744s-1.092 1.95-1.976 2.574c-.858.624-1.924.936-3.146.936-1.274 0-2.314-.286-3.198-.884-.858-.598-1.508-1.456-1.95-2.548-.416-1.066-.65-2.34-.65-3.796s.234-2.73.676-3.822c.416-1.092 1.092-1.95 1.95-2.548.884-.598 1.95-.91 3.198-.91zm0 1.456c-2.678 0-4.004 1.924-4.004 5.824 0 3.848 1.326 5.772 3.978 5.772s3.978-1.95 3.978-5.798c0-3.874-1.326-5.798-3.952-5.798zm19.38-7.098l1.664.234v19.656h-1.43l-.234-1.924c-.52.754-1.118 1.3-1.82 1.664-.676.364-1.404.52-2.158.52-1.794 0-3.146-.65-4.056-1.924-.884-1.3-1.352-3.068-1.352-5.304 0-1.404.234-2.652.676-3.744.416-1.118 1.066-1.976 1.872-2.6.832-.624 1.794-.936 2.938-.936.832 0 1.586.13 2.21.442a4.55 4.55 0 0 1 1.69 1.3v-7.384zm-3.484 7.072c-1.326 0-2.314.494-2.99 1.482-.702.988-1.04 2.444-1.04 4.368 0 1.846.312 3.276.962 4.29.624 1.014 1.56 1.508 2.782 1.508 1.456 0 2.73-.806 3.77-2.392v-7.28c-.39-.624-.91-1.118-1.508-1.456-.624-.364-1.274-.52-1.976-.52z"/><use xlink:href="#H" x="64"/><path d="M7 0H1a1 1 0 0 0-1 1v6a1 1 0 1 0 2 0V2h5a1 1 0 1 0 0-2zm24 17a1 1 0 0 0-1 1v5h-5a1 1 0 1 0 0 2h6a1 1 0 0 0 1-1v-6a1 1 0 0 0-1-1zM7 23H2v-5a1 1 0 1 0-2 0v6a1 1 0 0 0 1 1h6a1 1 0 1 0 0-2zM31 0h-6a1 1 0 1 0 0 2h5v5a1 1 0 1 0 2 0V1a1 1 0 0 0-1-1z" transform="matrix(5.34375 0 0 4.15122 931.276 500.78)"/></g><path d="M241.005.5h839.001v295H241.005z" stroke-width=".998" class="C D J"/><g fill="#1dc053"><path d="M130.206 165.308v-20.65h67.873v-19.175l29.5 29.5-29.5 29.5v-19.175h-67.873zm976.22-6.985v-20.65h67.873v-19.175l29.5 29.5-29.5 29.5v-19.175h-67.873z"/><path d="M477.206 165.308v-20.65h41.873v-19.175l29.5 29.5-29.5 29.5v-19.175h-41.873zm308.222-6.985v-20.65h41.873v-19.175l29.5 29.5-29.5 29.5v-19.175h-41.873z" fill-opacity=".5"/></g><g transform="matrix(1.000001 0 0 .999997 -290.421297 -287.377008)"><path d="M18 6v4.8c0 1.12 0 1.68-.218 2.108-.192.376-.498.682-.874.874C16.48 14 15.92 14 14.8 14H3.2c-1.12 0-1.68 0-2.108-.218-.376-.192-.682-.498-.874-.874C0 12.48 0 11.92 0 10.8V3.2c0-1.12 0-1.68.218-2.108C.41.716.716.41 1.092.218 1.52 0 2.08 0 3.2 0H12m6 6l-6-6m6 6h-4.4c-.56 0-.84 0-1.054-.109-.188-.096-.341-.249-.437-.437C12 5.24 12 4.96 12 4.4V0" stroke-width=".64" transform="matrix(6.88889 0 0 6.88889 888.925 646.517)" class="C D E"/><path d="M906.443 718.857a4.31 4.31 0 0 1 .645-2.297 4.86 4.86 0 0 1 1.692-1.692c.685-.403 1.451-.604 2.297-.604a4.66 4.66 0 0 1 2.297.604 5.65 5.65 0 0 1 1.692 1.692 4.66 4.66 0 0 1 .604 2.297c0 .846-.201 1.612-.604 2.297a5.65 5.65 0 0 1-1.692 1.692 4.66 4.66 0 0 1-2.297.604c-.846 0-1.612-.201-2.297-.604a4.86 4.86 0 0 1-1.692-1.692c-.443-.685-.645-1.451-.645-2.297zm32.049-18.777c2.78 0 4.795 1.007 6.084 3.062 1.289 2.015 1.934 4.876 1.934 8.583 0 2.297-.322 4.312-1.007 6.084-.645 1.773-1.612 3.143-2.901 4.15-1.249 1.007-2.78 1.491-4.513 1.491-2.136 0-3.868-.766-5.198-2.256v10.033l-6.528.685v-31.107h5.762l.322 2.458c.846-1.088 1.773-1.894 2.821-2.377 1.048-.524 2.136-.806 3.224-.806zm-2.015 4.835a3.22 3.22 0 0 0-1.974.645c-.564.443-1.128 1.048-1.612 1.894v9.268c.443.685.967 1.169 1.451 1.491s1.088.443 1.773.443c1.209 0 2.095-.524 2.74-1.612.604-1.088.927-2.821.927-5.238 0-1.773-.121-3.143-.363-4.15-.282-1.007-.645-1.733-1.128-2.136s-1.088-.604-1.813-.604zm28.102 17.851c-.967 2.982-2.458 5.198-4.432 6.689-1.934 1.491-4.553 2.337-7.857 2.498l-.725-4.594c1.41-.201 2.579-.443 3.465-.806s1.612-.806 2.136-1.41c.564-.604 1.048-1.41 1.451-2.377h-2.216l-6.971-21.961h6.89l4.271 17.77 4.634-17.77h6.689l-7.334 21.961zm23.023-4.433c.806 0 1.612-.161 2.418-.484.766-.322 1.612-.806 2.458-1.41l2.901 4.15c-1.007.886-2.216 1.571-3.627 2.095-1.37.524-2.901.766-4.513.766-2.337 0-4.352-.484-6.044-1.41-1.733-.967-3.022-2.337-3.949-4.07-.886-1.733-1.37-3.747-1.37-6.044 0-2.256.484-4.312 1.41-6.125.927-1.773 2.256-3.183 3.989-4.191s3.747-1.531 6.084-1.531c1.652 0 3.103.242 4.392.685a11.68 11.68 0 0 1 3.627 2.095l-2.821 3.909c-1.571-1.088-3.224-1.652-4.916-1.652-1.571 0-2.78.564-3.627 1.652-.886 1.088-1.33 2.78-1.33 5.158 0 2.297.443 3.949 1.33 4.916.846 1.007 2.055 1.491 3.586 1.491z" class="B"/></g><path d="M668.005 324.621l-7.5 15-7.5-15h15z"/><path d="M660.505 221.622v106" stroke-width="5" class="C D E J"/><defs ><path id="B" d="M606.372 503.555c-1.575 0-2.975-.315-4.2-.945s-2.135-1.54-2.8-2.695-1.015-2.45-1.015-3.955v-9.975c0-1.505.35-2.8 1.015-3.955.665-1.12 1.575-1.995 2.8-2.625s2.625-.945 4.2-.945 2.94.315 4.165.91c1.225.63 2.17 1.505 2.835 2.625s.98 2.415.98 3.885v.035c0 .105-.035.21-.105.28s-.14.105-.245.105l-1.155.07c-.245 0-.35-.105-.35-.35v-.105c0-1.75-.56-3.15-1.68-4.235-1.12-1.05-2.59-1.575-4.445-1.575s-3.36.525-4.48 1.575c-1.12 1.085-1.68 2.485-1.68 4.235v10.15c0 1.75.56 3.15 1.715 4.235 1.12 1.085 2.59 1.61 4.445 1.61s3.325-.525 4.445-1.61 1.68-2.485 1.68-4.235v-.07c0-.21.105-.315.35-.315l1.155.07c.245 0 .35.105.35.315 0 1.47-.315 2.765-.98 3.885-.665 1.155-1.61 2.03-2.835 2.66s-2.59.945-4.165.945z"/><path id="C" d="M626.252 503.52c-1.645 0-3.045-.42-4.2-1.295s-1.96-2.03-2.38-3.465c-.245-.945-.385-2.38-.385-4.375s.14-3.43.385-4.34c.42-1.435 1.225-2.59 2.38-3.465 1.155-.84 2.555-1.26 4.235-1.26 1.645 0 3.045.42 4.235 1.295 1.155.875 1.96 1.995 2.345 3.43.14.525.245 1.12.28 1.785l.07 2.555-.07 2.59c-.035.665-.14 1.26-.28 1.785a6.31 6.31 0 0 1-2.345 3.465c-1.19.875-2.625 1.295-4.27 1.295zm0-1.645c1.225 0 2.31-.35 3.185-1.05.875-.665 1.435-1.575 1.68-2.695.175-.63.245-1.855.245-3.71s-.07-3.115-.21-3.71c-.245-1.155-.805-2.065-1.68-2.73-.91-.665-1.96-1.015-3.22-1.015s-2.31.35-3.185 1.015-1.435 1.575-1.68 2.73c-.175.735-.245 1.96-.245 3.71s.07 2.975.245 3.71c.245 1.155.805 2.065 1.68 2.73s1.925 1.015 3.185 1.015z"/><path id="D" d="M688.307 482.065c-.525 0-.945-.175-1.26-.49s-.49-.735-.49-1.26.175-.945.49-1.26.735-.49 1.26-.49.945.175 1.26.49.49.735.49 1.26-.175.945-.49 1.26-.735.49-1.26.49zm-.665 21.14c-.245 0-.35-.105-.35-.35v-16.94c0-.245.105-.35.35-.35h1.155c.245 0 .35.105.35.35v16.94c0 .245-.105.35-.35.35h-1.155z"/><path id="E" d="M710.322 501.875c1.085 0 2.03-.245 2.835-.77.77-.49 1.365-1.19 1.82-2.065.105-.21.28-.28.455-.175l.91.455c.21.105.28.28.175.455a6.09 6.09 0 0 1-2.415 2.73c-1.12.665-2.415 1.015-3.92 1.015-1.645 0-3.01-.385-4.165-1.19s-1.925-1.89-2.345-3.255c-.175-.595-.315-1.225-.385-1.96s-.105-1.645-.105-2.73l.07-2.59c.035-.595.105-1.12.21-1.61.385-1.47 1.155-2.66 2.31-3.535s2.555-1.33 4.235-1.33c1.925 0 3.43.49 4.585 1.47 1.155 1.015 1.855 2.38 2.135 4.13.07.455.105.945.14 1.54l.035 2.24c0 .245-.105.35-.35.35h-11.41c-.105 0-.14.035-.14.14 0 1.505.07 2.485.175 2.975.245 1.155.84 2.03 1.75 2.695.875.665 2.03 1.015 3.395 1.015zm-5.075-11.27c-.105.455-.21 1.365-.245 2.73 0 .105.035.14.14.14h9.765c.105 0 .14-.035.14-.14 0-1.155-.07-2.03-.175-2.625-.245-1.12-.805-2.03-1.68-2.73-.875-.665-1.925-1.015-3.185-1.015s-2.31.315-3.15.98-1.365 1.575-1.61 2.66z"/><path id="F" d="M1196.891 486.615c0 .245-.105.35-.35.35h-4.095c-.105 0-.14.035-.14.14v11.06c0 1.19.28 2.03.805 2.485.525.49 1.4.735 2.59.735h.805c.245 0 .35.105.35.35v.945c0 .245-.105.35-.35.35l-1.05.035c-1.645 0-2.87-.315-3.675-.945-.84-.63-1.26-1.785-1.295-3.465v-11.55c0-.105-.035-.14-.14-.14h-2.1c-.245 0-.35-.105-.35-.35v-.875c0-.245.105-.35.35-.35h2.1c.105 0 .14-.035.14-.14v-3.99c0-.245.105-.35.35-.35h1.12c.245 0 .35.105.35.35v3.99c0 .105.035.14.14.14h4.095c.245 0 .35.105.35.35v.875z"/><path id="G" d="M1246.417 485.145c1.785 0 3.255.56 4.375 1.645 1.085 1.085 1.645 2.555 1.645 4.34v11.55c0 .245-.105.35-.35.35h-1.155c-.245 0-.35-.105-.35-.35v-11.2c0-1.365-.42-2.485-1.26-3.395-.84-.875-1.925-1.295-3.29-1.295-1.4 0-2.52.42-3.395 1.26-.875.875-1.295 1.995-1.295 3.36v11.27c0 .245-.105.35-.35.35h-1.155c-.245 0-.35-.105-.35-.35v-16.94c0-.245.105-.35.35-.35h1.155c.245 0 .35.105.35.35v1.715c0 .07.035.105.07.105.035.035.035 0 .07-.035a5.26 5.26 0 0 1 2.03-1.785c.84-.385 1.82-.595 2.905-.595z"/><path id="H" d="M1004.272 555.077c.026 1.144.234 2.08.624 2.834.39.78.91 1.326 1.56 1.716.65.364 1.352.546 2.158.546.702 0 1.352-.104 1.924-.312s1.17-.546 1.846-.988l.858 1.248c-.65.494-1.352.884-2.184 1.144-.806.286-1.612.416-2.392.416-1.274 0-2.366-.286-3.302-.884-.91-.598-1.638-1.456-2.132-2.548-.468-1.092-.728-2.366-.728-3.822 0-1.404.26-2.652.754-3.77.494-1.092 1.17-1.95 2.08-2.574.91-.598 1.924-.91 3.068-.91s2.106.26 2.912.806c.832.546 1.456 1.326 1.872 2.366.442 1.014.65 2.21.65 3.588l-.026 1.144h-9.542zm4.186-6.37c-.78 0-1.456.182-2.054.546s-1.092.91-1.456 1.638-.572 1.638-.65 2.704h7.982c-.052-1.612-.416-2.808-1.092-3.64s-1.586-1.248-2.73-1.248z"/></defs></svg>