<svg xmlns="http://www.w3.org/2000/svg" xmlns:xlink="http://www.w3.org/1999/xlink" width="1488" height="622" fill-rule="evenodd" stroke-linejoin="round" stroke-miterlimit="1.5" xmlns:v="https://vecta.io/nano"><style><![CDATA[.B{fill:#e15ac8}.C{fill-rule:nonzero}.D{fill:none}.E{fill:#5a89e1}.F{stroke:#e15ac8}.G{stroke-width:4.17}.H{stroke:#5a89e1}.I{stroke-width:4.168}.J{stroke-width:4.169}]]></style><g class="C"><use xlink:href="#B"/><path d="M28.705 429.668c1.767 0 3.133.333 4.133.967s1.7 1.667 2.133 3.133c.4 1.433.633 3.433.6 6H23.505c.033 1.933.233 3.467.533 4.567.333 1.067.867 1.867 1.6 2.333.733.433 1.767.667 3.067.667 1.167 0 2.1-.167 2.767-.5.7-.367 1.433-1.067 2.2-2.067l1.667 1.133c-.9 1.267-1.833 2.133-2.8 2.633-.933.467-2.233.733-3.833.733-1.833 0-3.3-.333-4.333-.933-1.067-.633-1.833-1.667-2.267-3.067-.467-1.4-.7-3.333-.7-5.8s.233-4.4.7-5.8c.433-1.4 1.2-2.433 2.267-3.033 1.033-.633 2.5-.967 4.333-.967zm4.7 8.167c-.1-1.6-.3-2.833-.633-3.733-.3-.9-.8-1.533-1.433-1.933s-1.5-.567-2.633-.567c-1.233 0-2.233.167-2.933.567-.733.4-1.267 1.033-1.6 1.933-.367.9-.567 2.133-.633 3.733h9.867zm13.782 11.433c-1.633 0-2.933-.2-3.9-.6-.967-.433-1.867-1.133-2.733-2.2v-21.867h2.1v7.1c.8-1.333 2.333-2.033 4.533-2.033 1.667 0 2.967.333 3.933.967.933.6 1.633 1.633 2.033 3.033.433 1.4.633 3.333.633 5.833 0 2.467-.2 4.4-.633 5.8-.4 1.4-1.1 2.433-2.033 3.033-.967.6-2.267.933-3.933.933zm0-1.933c1.167 0 2.067-.233 2.7-.7.633-.5 1.1-1.3 1.367-2.433.3-1.1.433-2.667.433-4.7s-.133-3.633-.433-4.767c-.267-1.133-.733-1.933-1.367-2.4-.633-.5-1.533-.733-2.7-.733-1.2 0-2.133.133-2.767.433s-1.067.8-1.367 1.5c-.267.7-.4 1.7-.4 3.033v9.267c.6.6 1.2 1 1.867 1.2.633.2 1.533.3 2.667.3z"/><use xlink:href="#C"/><use xlink:href="#D"/><use xlink:href="#E"/><path d="M120.547 448.835h-2.067l-6.367-18.733h2.167l5.233 15.433 5.233-15.433h2.2l-6.4 18.733z"/><use xlink:href="#F"/><use xlink:href="#D" x="72.728"/><use xlink:href="#B" x="163.636"/><use xlink:href="#G"/><use xlink:href="#E" x="109.091"/><use xlink:href="#H"/><use xlink:href="#I"/><use xlink:href="#J"/><use xlink:href="#D" x="200"/><use xlink:href="#E" x="200"/><path d="M320.547 448.835h-2.067l-6.367-18.733h2.167l5.233 15.433 5.233-15.433h2.2l-6.4 18.733z"/><use xlink:href="#F" x="200"/><use xlink:href="#D" x="272.728"/><use xlink:href="#K"/><path d="M411.523 446.935h4.3v1.9h-10.7v-1.9h4.3v-17.3c-1.267 1.1-2.9 1.667-4.9 1.667v-1.967c1.5 0 2.7-.4 3.567-1.267.867-.833 1.3-2 1.3-3.467h2.133v22.333zm17.115 2.333c-1.367 0-2.633-.533-3.733-1.6s-2-2.533-2.633-4.467c-.667-1.9-.967-4.067-.967-6.5 0-2.4.3-4.567.967-6.5.633-1.9 1.533-3.367 2.633-4.433s2.367-1.6 3.733-1.6 2.6.533 3.733 1.6 2 2.533 2.667 4.433c.633 1.933.967 4.1.967 6.5 0 2.433-.333 4.6-.967 6.5-.667 1.933-1.533 3.4-2.667 4.467s-2.367 1.6-3.733 1.6zm0-1.933c.933 0 1.8-.433 2.6-1.333.8-.933 1.467-2.2 1.933-3.8.5-1.633.733-3.433.733-5.5 0-2.033-.233-3.867-.733-5.467-.467-1.633-1.133-2.9-1.933-3.8s-1.667-1.367-2.6-1.367-1.8.467-2.6 1.367c-.833.9-1.467 2.167-1.933 3.8-.467 1.6-.733 3.433-.733 5.467 0 2.067.267 3.867.733 5.5.467 1.6 1.1 2.867 1.933 3.8.8.9 1.667 1.333 2.6 1.333zm0-8.933c-.533 0-.967-.133-1.3-.467-.333-.3-.5-.7-.5-1.233 0-.467.167-.867.5-1.167s.767-.467 1.3-.467c.5 0 .967.167 1.3.467s.5.7.5 1.167c0 .533-.167.933-.5 1.233-.333.333-.8.467-1.3.467z"/><use xlink:href="#L"/><use xlink:href="#M"/><path d="M482.65 449.268c-1.5 0-2.667-.233-3.533-.667-.833-.467-1.433-1.167-1.8-2.2-.367-1-.533-2.4-.533-4.2v-12.1h2.1v12.1c0 1.367.1 2.4.333 3.133.2.7.6 1.233 1.133 1.533.567.333 1.333.467 2.3.467 1.367 0 2.4-.1 3.133-.367s1.267-.7 1.6-1.333c.3-.6.467-1.5.467-2.633v-12.9h2.067v18.733h-2.067v-1.367c-.567.667-1.233 1.133-2 1.4s-1.833.4-3.2.4z"/><use xlink:href="#N"/><use xlink:href="#H" x="290.909"/><use xlink:href="#E" x="436.364"/><use xlink:href="#O"/><use xlink:href="#I" x="327.272"/><path d="M599.407 424.602v1.9h-11.333v8.533h7.267v1.967h-7.267v9.933h11.333v1.9h-13.4v-24.233h13.4zm11.482 24.666c-1.933 0-3.433-.4-4.533-1.2-1.067-.8-1.833-2.1-2.333-3.9-.467-1.8-.7-4.3-.7-7.5 0-3.167.233-5.633.7-7.433.5-1.8 1.267-3.1 2.333-3.9 1.1-.767 2.6-1.167 4.533-1.167 1.3 0 2.367.167 3.2.5s1.533.9 2.1 1.667c.533.767 1 1.8 1.4 3.167l-1.967.7c-.333-1.1-.7-1.933-1.1-2.533-.367-.567-.833-1-1.4-1.233s-1.3-.367-2.233-.367c-1.4 0-2.5.333-3.3 1-.767.667-1.333 1.733-1.667 3.233s-.5 3.633-.5 6.367c0 2.767.167 4.9.5 6.433.333 1.5.9 2.6 1.667 3.267.8.667 1.9.967 3.3.967.933 0 1.667-.1 2.233-.333a3.32 3.32 0 0 0 1.4-1.233c.4-.567.767-1.367 1.1-2.433l1.967.667c-.4 1.333-.867 2.4-1.4 3.133-.567.767-1.233 1.3-2.067 1.633s-1.9.5-3.233.5z"/><use xlink:href="#M" x="163.637"/><path d="M640.22 454.335v-24.233h2.067v1.2c.833-1.067 2.4-1.633 4.733-1.633 1.733 0 3.1.333 4.067.933 1 .633 1.7 1.633 2.133 3.033.4 1.4.633 3.333.633 5.8 0 2.5-.233 4.433-.633 5.833-.433 1.4-1.133 2.433-2.133 3.067-.967.6-2.333.933-4.067.933-2.333 0-3.9-.733-4.733-2.167v7.233h-2.067zm6.8-7c1.2 0 2.167-.233 2.833-.7.667-.5 1.167-1.3 1.467-2.433s.433-2.733.433-4.767c0-2-.133-3.6-.433-4.7-.3-1.133-.8-1.933-1.467-2.4-.667-.5-1.633-.733-2.833-.733-1.467 0-2.6.2-3.467.567-.833.4-1.267 1.033-1.267 1.833v8.433c0 1.733.4 2.967 1.233 3.733.8.8 1.967 1.167 3.5 1.167z"/><use xlink:href="#D" x="581.818"/><path d="M683.25 429.668c1.767 0 3.133.333 4.133.967s1.7 1.667 2.133 3.133c.4 1.433.633 3.433.6 6H678.05c.033 1.933.233 3.467.533 4.567.333 1.067.867 1.867 1.6 2.333.733.433 1.767.667 3.067.667 1.167 0 2.1-.167 2.767-.5.7-.367 1.433-1.067 2.2-2.067l1.667 1.133c-.9 1.267-1.833 2.133-2.8 2.633-.933.467-2.233.733-3.833.733-1.833 0-3.3-.333-4.333-.933-1.067-.633-1.833-1.667-2.267-3.067-.467-1.4-.7-3.333-.7-5.8s.233-4.4.7-5.8c.433-1.4 1.2-2.433 2.267-3.033 1.033-.633 2.5-.967 4.333-.967zm4.7 8.167c-.1-1.6-.3-2.833-.633-3.733-.3-.9-.8-1.533-1.433-1.933s-1.5-.567-2.633-.567c-1.233 0-2.233.167-2.933.567-.733.4-1.267 1.033-1.6 1.933-.367.9-.567 2.133-.633 3.733h9.867zm12.648 11.433c-1.5 0-2.667-.267-3.5-.733-.8-.5-1.567-1.367-2.3-2.633l1.633-1.333c.533 1.1 1.1 1.833 1.667 2.2.567.4 1.4.567 2.5.567 1.5 0 2.667-.1 3.467-.333.833-.2 1.4-.567 1.733-1.1.367-.533.533-1.267.533-2.233 0-.833-.133-1.5-.433-1.967-.267-.467-.767-.833-1.467-1.1-.667-.233-1.667-.467-2.967-.6-2.3-.3-3.933-.833-4.867-1.6-.967-.8-1.467-1.9-1.467-3.4 0-1.333.233-2.4.667-3.167s1.133-1.333 2.133-1.667 2.4-.5 4.167-.5c1.567 0 2.767.233 3.667.633.867.433 1.633 1.167 2.333 2.233l-1.5 1.467c-.567-.933-1.167-1.567-1.767-1.9s-1.5-.5-2.733-.5c-1.267 0-2.233.1-2.933.3-.7.233-1.2.567-1.5 1.067-.3.467-.433 1.167-.433 2.033s.333 1.533.967 2c.633.433 1.733.767 3.333 1 1.8.233 3.167.567 4.133.967 1 .433 1.7 1 2.1 1.7.433.733.667 1.733.667 3 0 1.433-.267 2.533-.767 3.333s-1.3 1.367-2.4 1.733c-1.133.333-2.7.533-4.667.533z"/><use xlink:href="#F" x="581.817"/><use xlink:href="#N" x="236.361"/><use xlink:href="#P"/><use xlink:href="#F" x="636.367"/><path d="M783.809 452.435h16.933v1.9h-16.933z"/><use xlink:href="#Q"/><use xlink:href="#R"/><path d="M838.349 452.435h16.933v1.9h-16.933z"/><use xlink:href="#F" x="727.277"/><use xlink:href="#O" x="327.275"/><use xlink:href="#F" x="763.637"/><path d="M911.913 448.835v-18.733h2.067v1.233c.4-.633.833-1.033 1.233-1.267.433-.233.967-.367 1.667-.367.767 0 1.333.2 1.733.533.433.333.767.967 1.1 1.9.5-.933 1.033-1.567 1.567-1.9.567-.333 1.267-.533 2.167-.533.967 0 1.733.233 2.267.667s.9 1.167 1.133 2.167c.2 1 .333 2.433.333 4.267v12.033h-2.1v-12.033c0-1.233-.067-2.233-.167-2.933s-.3-1.2-.567-1.533c-.267-.3-.633-.433-1.067-.433-.7 0-1.233.133-1.633.433-.367.3-.633.8-.8 1.5-.167.667-.233 1.667-.233 2.9v12.1h-2.1v-11.833c0-1.3-.067-2.333-.167-3.067-.133-.733-.3-1.267-.567-1.567s-.633-.467-1.1-.467c-.667 0-1.2.133-1.6.433-.367.3-.667.8-.833 1.5-.167.667-.267 1.667-.267 2.9v12.1h-2.067z"/><use xlink:href="#F" x="799.997"/><use xlink:href="#N" x="454.541"/><use xlink:href="#H" x="745.458"/><path d="M983.809 452.435h16.933v1.9h-16.933z"/><use xlink:href="#O" x="454.545"/><use xlink:href="#Q" x="218.18"/><use xlink:href="#P" x="290.91"/><use xlink:href="#G" x="872.732"/><use xlink:href="#H" x="854.548"/><use xlink:href="#F" x="963.637"/><use xlink:href="#J" x="854.545"/><use xlink:href="#I" x="890.906"/><use xlink:href="#I" x="909.086"/><path d="M1167.563 448.835v-24.233h6.033c1.733 0 3.067.2 4.067.567.967.4 1.667 1.033 2.1 1.933.433.867.667 2.067.667 3.6 0 1.5-.2 2.6-.6 3.333s-1.1 1.333-2.133 1.8c.9.3 1.567.7 2.067 1.167s.867 1.1 1.067 1.867c.233.8.333 1.8.333 3.067 0 1.733-.2 3.1-.633 4.1-.4 1-1.1 1.7-2.1 2.133-.967.433-2.333.667-4.067.667h-6.8zm6.033-13.8c1.267 0 2.233-.1 2.9-.367.667-.233 1.133-.667 1.4-1.267.3-.633.433-1.5.433-2.7 0-1.067-.133-1.933-.433-2.533-.267-.6-.767-1.033-1.433-1.3-.667-.233-1.633-.367-2.867-.367h-3.933v8.533h3.933zm.767 11.9c1.233 0 2.167-.167 2.833-.467s1.167-.8 1.467-1.533c.267-.7.433-1.7.433-3 0-1.333-.167-2.367-.433-3.067s-.767-1.167-1.433-1.467c-.667-.267-1.633-.4-2.867-.4h-4.7v9.933h4.7zm12.88 7.833c-.667 0-1.2-.067-1.633-.2-.467-.133-.933-.4-1.467-.733l.867-1.767 1.233.633a3.14 3.14 0 0 0 1 .167c.833 0 1.533-.133 2.1-.367.533-.267 1-.7 1.4-1.3s.767-1.467 1.133-2.533l-6.1-18.567h2.2l5.033 15.633 5.067-15.633h2.2l-6.267 18.6c-.5 1.567-1.067 2.767-1.667 3.633a5.23 5.23 0 0 1-2.067 1.867c-.8.367-1.8.567-3.033.567z"/><use xlink:href="#M" x="745.455"/><path d="M1234.603 424.602v1.9h-4.9v20.433h4.9v1.9h-11.9v-1.9h4.9v-20.433h-4.9v-1.9h11.9z"/><use xlink:href="#C" x="1181.815"/><use xlink:href="#K" x="890.914"/><path d="M1302.399 434.435h-2.067l-.333-9.833h2.733l-.333 9.833z"/><use xlink:href="#R" x="490.91"/><use xlink:href="#Q" x="527.27"/><use xlink:href="#Q" x="545.45"/><use xlink:href="#H" x="1145.458"/><use xlink:href="#F" x="1254.547"/><use xlink:href="#D" x="1327.273"/><path d="M1429.669 434.435h-2.067l-.333-9.833h2.733l-.333 9.833z"/><use xlink:href="#L" x="999.996"/><use xlink:href="#L" x="1018.186"/><use xlink:href="#L" x="1036.366"/></g><g transform="matrix(.483366 -.483366 .483366 .483366 -225.719 366.569)" class="B C"><use xlink:href="#S"/><use xlink:href="#T"/><use xlink:href="#U"/><use xlink:href="#T" x="36.363"/><use xlink:href="#V"/><use xlink:href="#W"/><use xlink:href="#X"/><use xlink:href="#Y"/><use xlink:href="#Z"/><use xlink:href="#a"/><use xlink:href="#T" x="163.636"/><use xlink:href="#b"/><use xlink:href="#c"/><use xlink:href="#d"/><use xlink:href="#W" x="163.636"/><use xlink:href="#e"/><use xlink:href="#T" x="272.727"/><use xlink:href="#d" x="72.727"/><use xlink:href="#Z" x="181.818"/><use xlink:href="#S" x="345.455"/><use xlink:href="#X" x="254.545"/><use xlink:href="#f"/><use xlink:href="#f" x="18.182"/><use xlink:href="#g"/><use xlink:href="#d" x="200"/><use xlink:href="#h"/><use xlink:href="#Z" x="327.272"/><use xlink:href="#X" x="381.818"/><use xlink:href="#W" x="418.182"/><use xlink:href="#Z" x="381.818"/><use xlink:href="#i"/><use xlink:href="#T" x="545.454"/><use xlink:href="#b" x="381.818"/><path d="M918.5 380.582c1.967 0 3.533.4 4.667 1.2s1.967 2.1 2.467 3.833c.5 1.767.767 4.1.767 7.067s-.267 5.333-.767 7.1c-.5 1.733-1.333 3-2.467 3.833-1.133.8-2.7 1.2-4.667 1.2h-7.9v-24.233h7.9zm0 21.033c1.1 0 2-.3 2.633-.833s1.1-1.467 1.367-2.733.4-3.067.4-5.367-.133-4.067-.4-5.367c-.267-1.267-.733-2.167-1.367-2.7-.633-.567-1.533-.833-2.633-.833h-4.4v17.833h4.4z"/><use xlink:href="#d" x="381.818"/><use xlink:href="#W" x="545.455"/><use xlink:href="#e" x="381.818"/><use xlink:href="#T" x="654.545"/><use xlink:href="#d" x="454.545"/><use xlink:href="#i" x="163.635"/><path d="M1044.57 405.248c-1.767 0-3.2-.2-4.267-.6-1.033-.433-1.8-1.067-2.3-1.9-.467-.867-.7-2-.7-3.433 0-1.633.233-2.867.7-3.767.467-.867 1.2-1.5 2.267-1.833 1.033-.367 2.467-.533 4.3-.533h3.833v-.667c0-.867-.133-1.5-.333-1.967s-.6-.8-1.133-1c-.533-.167-1.333-.267-2.367-.267-.833 0-1.5.067-1.933.233-.433.2-.8.5-1.033.933s-.467 1.133-.7 2.033l-3.333-.833c.367-1.433.833-2.567 1.367-3.433s1.267-1.5 2.167-1.933c.933-.4 2.067-.633 3.467-.633 2.633 0 4.5.567 5.633 1.7 1.1 1.133 1.667 2.833 1.667 5.167v7.1c0 .8.1 1.367.233 1.633.167.267.533.4 1.033.4.167 0 .533-.033 1.1-.067v3.2c-.233.033-.567.033-1 .033-1.767 0-2.967-.4-3.633-1.2-.533.567-1.233 1-2.033 1.233-.8.267-1.8.4-3 .4zm0-3.233c1.033 0 1.833-.1 2.367-.367.533-.233.933-.633 1.133-1.233.2-.567.333-1.433.333-2.533v-1.5h-3.833c-1.133 0-1.967.067-2.467.167-.467.133-.8.367-1 .767-.233.4-.333 1.067-.333 2 0 .733.1 1.3.333 1.667.2.367.567.633 1.1.8s1.333.233 2.367.233z"/><use xlink:href="#W" x="654.541"/><use xlink:href="#h" x="309.095"/></g><g transform="matrix(.483366 -.483366 .483366 .483366 262.304 366.569)" class="B C"><use xlink:href="#S"/><use xlink:href="#T"/><use xlink:href="#U"/><use xlink:href="#T" x="36.363"/><use xlink:href="#V"/><use xlink:href="#W"/><use xlink:href="#X"/><use xlink:href="#Y"/><use xlink:href="#Z"/><use xlink:href="#a"/><use xlink:href="#T" x="163.636"/><use xlink:href="#b"/><use xlink:href="#c"/><use xlink:href="#d"/><use xlink:href="#W" x="163.636"/><use xlink:href="#e"/><use xlink:href="#T" x="272.727"/><use xlink:href="#d" x="72.727"/><use xlink:href="#Z" x="181.818"/><use xlink:href="#S" x="345.455"/><use xlink:href="#X" x="254.545"/><use xlink:href="#f"/><use xlink:href="#f" x="18.182"/><use xlink:href="#g"/><use xlink:href="#d" x="200"/><use xlink:href="#h"/><use xlink:href="#Z" x="327.272"/><use xlink:href="#T" x="472.727"/><use xlink:href="#j"/><use xlink:href="#f" x="145.455"/><use xlink:href="#T" x="527.273"/><use xlink:href="#k"/><use xlink:href="#h" x="127.273"/><path d="M918.167 385.648c1.967 0 3.5.367 4.6 1.1 1.1.7 1.9 1.833 2.333 3.4.467 1.533.667 3.6.633 6.233H913.7c.067 1.467.233 2.6.533 3.4s.733 1.4 1.367 1.733 1.5.5 2.567.5c.8 0 1.433-.067 1.933-.2.5-.167.967-.433 1.367-.833.433-.4.9-1 1.467-1.767l2.8 1.833c-1 1.567-2.067 2.667-3.2 3.267-1.1.6-2.567.933-4.367.933-2 0-3.567-.333-4.733-1s-2-1.7-2.5-3.133c-.5-1.4-.767-3.3-.767-5.667s.267-4.233.767-5.667c.5-1.4 1.333-2.467 2.5-3.133s2.733-1 4.733-1zm4 7.533c-.133-1.1-.333-1.967-.6-2.567-.267-.633-.667-1.067-1.233-1.333-.533-.267-1.233-.4-2.167-.4-1 0-1.8.133-2.4.4s-1.067.7-1.4 1.333c-.3.6-.5 1.467-.6 2.567h8.4z"/><use xlink:href="#c" x="400"/><path d="M945.264 407.115h18.367v3.2h-18.367z"/><use xlink:href="#k" x="90.909"/><use xlink:href="#g" x="254.545"/><use xlink:href="#V" x="618.182"/><use xlink:href="#c" x="490.908"/><use xlink:href="#W" x="636.361"/><use xlink:href="#h" x="290.905"/><use xlink:href="#W" x="672.731"/><use xlink:href="#g" x="363.638"/><use xlink:href="#V" x="727.273"/><use xlink:href="#S" x="818.18"/></g><g transform="matrix(.483366 -.483366 .483366 .483366 870.305 366.569)" class="B C"><use xlink:href="#S"/><use xlink:href="#T"/><use xlink:href="#U"/><use xlink:href="#T" x="36.363"/><use xlink:href="#V"/><use xlink:href="#W"/><use xlink:href="#X"/><use xlink:href="#Y"/><use xlink:href="#Z"/><use xlink:href="#a"/><use xlink:href="#T" x="163.636"/><use xlink:href="#b"/><use xlink:href="#c"/><use xlink:href="#d"/><use xlink:href="#W" x="163.636"/><use xlink:href="#e"/><use xlink:href="#T" x="272.727"/><use xlink:href="#d" x="72.727"/><use xlink:href="#Z" x="181.818"/><use xlink:href="#k" x="-218.181"/><use xlink:href="#g" x="-54.546"/><use xlink:href="#Y" x="254.545"/><use xlink:href="#Y" x="272.727"/><use xlink:href="#g"/><use xlink:href="#V" x="363.637"/><use xlink:href="#Z" x="309.09"/><use xlink:href="#b" x="272.727"/><path d="M803.976 410.748c-.8 0-1.5-.1-2.067-.3s-1.2-.533-1.867-1.033l1.367-2.933c.767.467 1.3.767 1.6.867.267.133.6.2.967.2.733 0 1.3-.1 1.767-.3.433-.2.833-.567 1.167-1.067.333-.467.633-1.2.967-2.2l-6.267-17.9h3.633l4.5 13.333 4.533-13.333h3.667l-6.533 18.167c-.567 1.633-1.2 2.933-1.833 3.867s-1.4 1.6-2.3 2.033c-.867.4-1.967.6-3.3.6z"/></g><g transform="matrix(.483366 -.483366 .483366 .483366 -34.36 366.569)" class="C E"><use xlink:href="#S"/><use xlink:href="#T"/><use xlink:href="#U"/><use xlink:href="#T" x="36.363"/><use xlink:href="#V"/><use xlink:href="#W"/><use xlink:href="#X"/><use xlink:href="#Y"/><use xlink:href="#Z"/><use xlink:href="#a"/><use xlink:href="#T" x="163.636"/><use xlink:href="#b"/><use xlink:href="#c"/><use xlink:href="#d"/><use xlink:href="#W" x="163.636"/><use xlink:href="#e"/><use xlink:href="#T" x="272.727"/><use xlink:href="#d" x="72.727"/><use xlink:href="#Z" x="181.818"/><path d="M671.422 380.582v3.2h-11.333v8h7.233v3.2h-7.233v9.833h-3.467v-24.233h14.8z"/><use xlink:href="#W" x="272.727"/><use xlink:href="#d" x="145.454"/><path d="M718.167 385.648c1.967 0 3.5.367 4.6 1.1 1.1.7 1.9 1.833 2.333 3.4.467 1.533.667 3.6.633 6.233H713.7c.067 1.467.233 2.6.533 3.4s.733 1.4 1.367 1.733 1.5.5 2.567.5c.8 0 1.433-.067 1.933-.2a3.45 3.45 0 0 0 1.367-.833c.433-.4.9-1 1.467-1.767l2.8 1.833c-1 1.567-2.067 2.667-3.2 3.267-1.1.6-2.567.933-4.367.933-2 0-3.567-.333-4.733-1s-2-1.7-2.5-3.133c-.5-1.4-.767-3.3-.767-5.667s.267-4.233.767-5.667c.5-1.4 1.333-2.467 2.5-3.133s2.733-1 4.733-1zm4 7.533c-.133-1.1-.333-1.967-.6-2.567-.267-.633-.667-1.067-1.233-1.333-.533-.267-1.233-.4-2.167-.4-1 0-1.8.133-2.4.4s-1.067.7-1.4 1.333c-.3.6-.5 1.467-.6 2.567h8.4zm16.582-13.033c1.367 0 2.467.133 3.3.4s1.5.7 2 1.267c.5.6.867 1.433 1.167 2.5l-3.267 1.1c-.167-.633-.333-1.067-.5-1.333s-.467-.433-.833-.567c-.4-.1-1-.167-1.867-.167-.9 0-1.567.133-2.033.333-.433.2-.733.567-.933 1.133-.167.533-.267 1.333-.267 2.433v1.733h5.4v3.233h-5.4v12.6h-3.5v-12.6h-3.733v-3.233h3.733v-1.733c0-1.767.233-3.167.667-4.167.433-1.033 1.133-1.767 2.133-2.233.967-.467 2.3-.7 3.933-.7z"/><use xlink:href="#g" x="18.182"/><use xlink:href="#j" x="-54.546"/></g><path d="M2.081 464.487h234" stroke-dasharray="5.45,2.72,5.45,2.72" stroke-width="4.16" class="D F"/><path d="M427.831 533.985l-6.25 12.5-6.25-12.5h12.5z" class="B"/><path d="M421.581 464.485v72" class="D F G"/><g class="B"><circle cx="421.583" cy="464.487" r="5"/><path d="M1219.828 533.985l-6.25 12.5-6.25-12.5h12.5z"/></g><path d="M1213.578 464.485v72" class="D F G"/><circle cx="1213.583" cy="464.487" r="5" class="B"/><path d="M888.331 533.985l-6.25 12.5-6.25-12.5h12.5z" class="E"/><path d="M882.081 464.485v72" class="D G H"/><g class="E"><circle cx="882.083" cy="464.487" r="5"/><path d="M1377.828 533.985l-6.25 12.5-6.25-12.5h12.5z"/></g><path d="M1371.578 464.485v72" class="D G H"/><circle cx="1371.583" cy="464.487" r="5" class="E"/><g class="D"><g class="F"><path d="M405.083 464.487h33m146 0h33" stroke-dasharray="11.38,5.69,11.38,5.69" class="I"/><path d="M1170.078 464.487h87" stroke-dasharray="9.6,4.8,9.6,4.8" class="J"/></g><g class="H"><path d="M259.083 464.487h100" stroke-dasharray="9.11,4.56,9.11,4.56" class="J"/><path d="M478.083 464.487h83" stroke-dasharray="9.74,4.87,9.74,4.87" stroke-width="4.165"/><path d="M1303.08 464.487h137" stroke-dasharray="7.84,3.92,7.84,3.92" class="I"/><path d="M640.082 464.487h484" stroke-dasharray="2.88,1.44,2.88,1.44" stroke-width="4.166"/></g></g><g class="C"><g class="B"><use xlink:href="#l"/><use xlink:href="#m"/><path d="M377.797 567.425l.2 2.167.233 2.3c.033.233.033.467.033.733l.8-1.733c.7-1.367 1.433-2.3 2.2-2.833.567-.4 1.167-.567 1.767-.533.633.067 1.233.367 1.767.933.4.433.733 1.133 1.033 2.133.167.567.3 1.233.467 2 .3-.767.633-1.467 1-2.1.633-1.2 1.267-2.133 1.9-2.8.967-.967 1.933-1.333 2.933-1.167.633.1 1.2.5 1.633 1.167.333.467.6 1.1.833 1.867.367 1.233.6 2.833.733 4.833l.167 3.433.033 2.967v1.867c0 .3-.1.567-.3.8-.233.233-.467.333-.767.333s-.567-.1-.8-.3c-.233-.233-.333-.467-.333-.767-.033-.533-.033-1.167 0-1.867l-.033-2.9-.133-3.4c-.167-1.9-.367-3.367-.667-4.4-.167-.567-.367-.967-.533-1.233-.033-.1-.1-.133-.133-.167l-.1-.1c-.233-.033-.533.167-.967.6-.5.5-1 1.233-1.533 2.267-.467.833-.867 1.733-1.2 2.667-.367.933-.567 1.633-.667 2.067-.1.633-.167 1.9-.167 3.733a2.82 2.82 0 0 0 .033.433l.067.633c.033.3.033.5 0 .667a1.88 1.88 0 0 1-.133.4c-.233.5-.633.7-1.167.6-.3-.033-.533-.2-.733-.433-.033-.067-.1-.133-.167-.233l-.1-.333v-.233c-.033-.1-.033-.233-.033-.4-.033-.233-.033-.6-.067-1.067v-.7l-.067-.933-.567-4.667-.533-2.5c-.2-.667-.367-1.067-.533-1.233s-.267-.233-.367-.267c-.067 0-.167.033-.3.133-.467.3-.967 1-1.5 2.067-.467.9-.9 1.867-1.267 2.967l-.733 2.4c-.167.833-.267 1.833-.367 3.033-.033.1 0 .433.033.967a3.77 3.77 0 0 1 .033.467v.167c0 .1-.033.233-.067.333-.133.333-.4.567-.767.667-.467.133-.833 0-1.133-.4l-.2-.333v-.133c-.033-.033-.033-.067-.033-.1-.233-1.267-.367-3.133-.4-5.6l-.1-4.333-.2-2.267-.233-2.133c-.033-.3.067-.6.267-.833s.467-.333.767-.367.567.067.8.267.333.433.367.733z"/><use xlink:href="#n"/><use xlink:href="#o"/><path d="M427.297 567.225c-.033.233-.067.767-.133 1.6l-.2 2.1-.133 2.367.033 2.467c.1 1.733.367 3.067.833 3.967.467.867 1.1 1.3 1.9 1.333.467 0 .933-.267 1.4-.833.5-.567.967-1.433 1.4-2.6.6-1.5 1.1-3.467 1.467-5.867l.4-2.7.133-1.033c.033-.167.033-.267.033-.333 0-.033 0-.1.033-.133v-.067l.067-.2c.033-.1.1-.167.167-.233.233-.267.567-.4.933-.367a1.12 1.12 0 0 1 .867.5c.033.1.1.2.133.3.033.067.033.133.033.2v.1c0 5.367.4 10 1.167 13.967.067.3.033.567-.133.8-.167.267-.433.433-.733.5-.3.033-.6-.033-.833-.167-.267-.2-.433-.433-.467-.733-.333-1.567-.6-3.167-.767-4.8-.1.367-.233.7-.367 1.033-.533 1.367-1.133 2.467-1.767 3.233-.933 1.1-2 1.667-3.233 1.633-1.7-.033-2.967-.9-3.833-2.567-.633-1.167-1-2.767-1.1-4.8-.067-.667-.067-1.533-.033-2.633s.1-1.933.133-2.533c.033-.567.1-1.3.2-2.167l.133-1.533c.033-.3.167-.533.4-.733s.533-.3.833-.267a1.19 1.19 0 0 1 .767.367c.2.233.3.533.267.833z"/><use xlink:href="#l" x="79.9"/><path d="M464.831 557.558l-1.7 5.133a37.34 37.34 0 0 0-1.067 5.433c-.267 1.933-.367 3.733-.233 5.433.067 1.7.433 3.4 1.033 5.067.567 1.7 1.4 3.2 2.5 4.5.2.233.3.5.267.8s-.133.533-.367.733-.5.3-.8.267-.567-.167-.767-.4c-1.267-1.5-2.233-3.2-2.9-5.1-.7-1.9-1.067-3.8-1.167-5.667s-.033-3.867.267-5.967c.267-2.1.633-4.033 1.133-5.767l1.733-5.267c.1-.267.3-.467.6-.6.267-.133.533-.133.833-.033.267.1.467.3.6.567.133.3.133.567.033.867z"/><use xlink:href="#p"/><path d="M479.964 583.558l1.7-5.133c.467-1.667.833-3.467 1.133-5.433.267-1.933.367-3.733.3-5.467-.1-1.667-.433-3.367-1-5.067a13.34 13.34 0 0 0-2.5-4.467c-.2-.233-.3-.467-.267-.8.033-.3.167-.533.4-.733.2-.2.5-.3.8-.267s.533.167.733.4c1.267 1.5 2.233 3.2 2.9 5.1.633 1.933 1 3.833 1.1 5.7s0 3.867-.3 5.967c-.3 2.133-.7 4.067-1.2 5.767l-1.733 5.233c-.1.267-.3.467-.567.6a1.04 1.04 0 0 1-.833.033c-.3-.1-.5-.3-.633-.567-.133-.3-.133-.567-.033-.867z"/><use xlink:href="#p" x="698.32" y="-2.905"/><use xlink:href="#n" x="780.553" y="-2.905"/><path d="M1194.217 557.253c.1 1.633.133 6.633.133 15.067 0 .7.033 1.867.067 3.567.033 1.633.067 2.833.033 3.667 0 .3-.1.567-.333.767s-.5.3-.8.3-.567-.1-.767-.333-.3-.5-.3-.8c.033-.767 0-1.933-.033-3.533l-.067-3.633-.133-14.933c-.033-.3.067-.567.267-.8s.467-.333.767-.367.567.067.8.267.333.467.367.767z"/><use xlink:href="#n" x="799.253" y="-2.905"/><use xlink:href="#q"/><use xlink:href="#l" x="865.92" y="-2.905"/><use xlink:href="#o" x="826.153" y="-2.905"/><use xlink:href="#r"/></g><g class="E"><use xlink:href="#q" x="-381.632" y="-0.871"/><use xlink:href="#o" x="432.121" y="-3.776"/><use xlink:href="#s"/><use xlink:href="#t"/><use xlink:href="#m" x="513.421" y="-3.776"/><use xlink:href="#q" x="-321.165" y="-0.871"/><use xlink:href="#m" x="532.355" y="-3.776"/><path d="M915.352 564.682l-.5-.133c-.133-.033-.233-.067-.3-.067-.867.033-1.667.567-2.4 1.567-.767 1.033-1.3 2.3-1.6 3.867-.267 1.567-.2 3 .167 4.267.367 1.3 1.033 2.167 1.967 2.667 1.167.567 2.233.467 3.2-.333 1.033-.833 1.767-2.1 2.2-3.8.4-1.633.367-3.2-.067-4.7-.467-1.5-1.367-2.6-2.667-3.333zm.8-2.067a.8.8 0 0 1 .4.233c.933.533 1.7 1.2 2.333 2.033.6.867 1.033 1.733 1.267 2.633.233.933.4 1.9.433 2.9s-.1 1.933-.367 2.833c-.533 2.2-1.533 3.867-2.967 5-1.7 1.367-3.567 1.567-5.567.533-.767-.367-1.433-.933-1.967-1.667-.567-.7-.933-1.467-1.133-2.333a13.2 13.2 0 0 1-.367-2.633c-.067-.933 0-1.8.2-2.633.333-1.9.967-3.5 1.933-4.8 1.167-1.533 2.5-2.333 4.067-2.433h.033c.3-.133.567-.133.867-.033s.567.233.833.367zm-3.933-2.633l2.867-3.4c.2-.233.467-.333.767-.367s.567.067.8.267.333.433.367.733-.067.6-.267.833l-2.867 3.333c-.167.233-.433.367-.733.4s-.567-.067-.8-.267c-.233-.167-.367-.433-.4-.733s.067-.567.267-.8z"/><use xlink:href="#s" x="64.9"/><use xlink:href="#n" x="432.021" y="32.557"/><use xlink:href="#p" x="375.855" y="32.557"/><path d="M857.152 615.248l.033 5c0 .3-.1.533-.333.767-.233.2-.467.3-.767.3a.92.92 0 0 1-.767-.333c-.233-.233-.333-.5-.333-.8v-5.167l-.067-4.8.033-3.5-.133-3.4-.333-3.4c-.033-.3.033-.6.233-.833.167-.233.433-.4.733-.433a1.16 1.16 0 0 1 .8.2c.233.2.4.433.433.733l.2 1.633c.967-1.3 2.067-2.033 3.3-2.167a3.73 3.73 0 0 1 2.633.7c.8.567 1.467 1.333 2 2.267.5.9.867 1.9 1.1 2.967.233 1.1.3 2.233.233 3.367-.1 1.167-.433 2.267-1.033 3.333a7.37 7.37 0 0 1-2.567 2.6c-.567.367-1.2.633-1.833.767-.633.167-1.233.267-1.8.233-.567 0-1.133 0-1.767-.033zm-.033-2.2c.867.1 1.667.1 2.367 0 .7-.067 1.333-.267 1.933-.633.967-.6 1.667-1.467 2.1-2.6.433-1.1.567-2.267.433-3.467-.133-1.167-.467-2.267-1.033-3.233-.367-.7-.8-1.2-1.233-1.5s-.867-.4-1.267-.367c-.467.033-1 .367-1.533.967-.6.633-1.133 1.633-1.7 3l-.067.133v4.867 2.833z"/><use xlink:href="#n" x="470.388" y="32.557"/><use xlink:href="#r" x="-369.231" y="35.462"/><use xlink:href="#u"/><use xlink:href="#t" x="35.933" y="36.333"/><use xlink:href="#u" x="27.734"/><use xlink:href="#m" x="926.598" y="-2.719"/><use xlink:href="#t" x="430.943" y="1.057"/><use xlink:href="#n" x="918.998" y="-2.719"/><use xlink:href="#s" x="473.41" y="1.057"/><use xlink:href="#l" x="985.898" y="-2.719"/><use xlink:href="#m" x="985.898" y="-2.719"/><path d="M1372.095 562.172c-.333-.967-.767-1.8-1.3-2.5s-1.033-1.133-1.533-1.333c-.367-.133-.667-.1-.933.1-.467.367-.867 1.133-1.2 2.3-.367 1.3-.567 3.233-.6 5.767l2.8-.233c.3-.033.6.067.833.233.233.2.367.433.4.733s-.067.567-.233.8c-.2.233-.433.4-.733.433l-3.033.233.067 1.167.3 5.133.233 4.733c0 .3-.1.567-.3.8s-.467.333-.767.333-.567-.1-.8-.3-.333-.467-.333-.767l-.233-4.733-.3-5.1-.067-1.233c-.567 0-1.167-.033-1.733-.067-.3-.033-.567-.133-.767-.4-.2-.233-.3-.5-.267-.8s.167-.533.4-.733.467-.3.767-.267l1.567.067c.033-2.767.233-4.9.667-6.4.467-1.633 1.133-2.8 2-3.433.933-.7 1.967-.833 3.1-.4.867.333 1.667.967 2.367 1.933.733.967 1.3 2.033 1.7 3.2.1.3.1.567-.033.833-.133.3-.333.467-.633.567s-.567.1-.833-.033c-.3-.133-.467-.333-.567-.633z"/><use xlink:href="#m" x="1002.531" y="-2.719"/><use xlink:href="#q" x="167.945" y="0.186"/><use xlink:href="#u" x="499.844" y="-35.276"/><use xlink:href="#t" x="535.777" y="1.057"/><use xlink:href="#o" x="1009.431" y="-2.719"/><use xlink:href="#r" x="183.279" y="0.186"/></g></g><defs ><path id="B" d="M7.523 448.835h-2.1l-3.333-24.233h2.1l2.567 19.167 2.7-11.433h2l2.7 11.433 2.533-19.167h2.133l-3.333 24.233h-2.033l-3-12.267-2.933 12.267z"/><path id="C" d="M65.401 424.602c1.833 0 3.267.367 4.3 1.133s1.767 2.033 2.2 3.767c.467 1.733.7 4.133.7 7.2s-.233 5.5-.7 7.233c-.433 1.733-1.167 2.967-2.2 3.733s-2.467 1.167-4.3 1.167h-7.2v-24.233h7.2zm0 22.333c1.3 0 2.333-.333 3.067-.933.733-.633 1.267-1.7 1.567-3.167.3-1.433.467-3.5.467-6.133 0-2.6-.167-4.667-.467-6.133s-.833-2.5-1.567-3.133-1.767-.933-3.067-.933h-5.1v20.433h5.1z"/><path id="D" d="M77.583 448.835v-18.733h2.1v3.033c.367-.9 1-1.7 1.933-2.4s1.967-1.067 3.133-1.067c1.467 0 2.6.3 3.433.867.8.567 1.5 1.6 2.1 3.1l-1.867.833c-.4-1.1-.867-1.867-1.367-2.267s-1.267-.6-2.3-.6c-1.2 0-2.2.333-2.967 1.033-.733.7-1.3 1.567-1.6 2.6-.333 1.033-.5 2.067-.5 3.1v10.5h-2.1z"/><path id="E" d="M103.198 430.102v16.833h5.3v1.9h-12.7v-1.9h5.3v-14.933h-3.8v-1.9h5.9zm-1.6-3.567c-.733 0-1.267-.133-1.533-.4s-.4-.733-.4-1.433.133-1.167.4-1.433.8-.4 1.533-.4 1.267.133 1.533.4c.3.267.433.733.433 1.433s-.133 1.167-.433 1.433c-.267.267-.8.4-1.533.4z"/><path id="F" d="M137.796 429.668c1.767 0 3.133.333 4.133.967s1.7 1.667 2.133 3.133c.4 1.433.633 3.433.6 6h-12.067c.033 1.933.233 3.467.533 4.567.333 1.067.867 1.867 1.6 2.333.733.433 1.767.667 3.067.667 1.167 0 2.1-.167 2.767-.5.7-.367 1.433-1.067 2.2-2.067l1.667 1.133c-.9 1.267-1.833 2.133-2.8 2.633-.933.467-2.233.733-3.833.733-1.833 0-3.3-.333-4.333-.933-1.067-.633-1.833-1.667-2.267-3.067-.467-1.4-.7-3.333-.7-5.8s.233-4.4.7-5.8c.433-1.4 1.2-2.433 2.267-3.033 1.033-.633 2.5-.967 4.333-.967zm4.7 8.167c-.1-1.6-.3-2.833-.633-3.733-.3-.9-.8-1.533-1.433-1.933s-1.5-.567-2.633-.567c-1.233 0-2.233.167-2.933.567-.733.4-1.267 1.033-1.6 1.933-.367.9-.567 2.133-.633 3.733h9.867z"/><path id="G" d="M191.474 449.268c-1.667 0-2.967-.2-3.933-.533-.933-.367-1.6-.933-2.033-1.733-.4-.833-.6-1.933-.6-3.333 0-1.533.2-2.7.6-3.533.433-.833 1.1-1.4 2.033-1.767.967-.367 2.267-.533 3.933-.533h4.533v-1.567c0-1.167-.167-2.1-.433-2.733s-.733-1.1-1.367-1.4c-.633-.267-1.567-.433-2.733-.433-.867 0-1.567.1-2.1.3-.5.167-.933.467-1.233.933-.333.433-.6 1.067-.8 1.867l-2-.467c.3-1.2.7-2.1 1.2-2.767.467-.667 1.1-1.167 1.9-1.433.767-.3 1.8-.467 3.033-.467 1.667 0 3 .233 3.933.667.967.433 1.633 1.133 2.067 2.067.4.933.6 2.233.6 3.867v7.7c0 .8.067 1.433.233 1.867.133.433.367.7.7.867.3.133.8.2 1.433.2v1.933c-1.133.033-2-.133-2.567-.467-.533-.3-.933-.9-1.2-1.7-.567.967-1.2 1.633-1.967 2-.767.4-1.833.6-3.233.6zm0-1.933c1.167 0 2.1-.133 2.733-.467.633-.3 1.1-.833 1.367-1.567s.433-1.767.433-3.133v-2.4h-4.533c-1.2 0-2.1.1-2.733.333-.633.2-1.1.6-1.367 1.133-.267.567-.367 1.367-.367 2.433 0 .967.1 1.7.367 2.233s.733.9 1.367 1.1c.667.233 1.567.333 2.733.333z"/><path id="H" d="M230.605 449.268c-1.367 0-2.433-.233-3.233-.7-.767-.467-1.333-1.2-1.667-2.2-.367-.967-.533-2.3-.533-4v-10.433h-3.767v-1.933h3.767v-5.4h2.1v5.4h6.3v1.933h-6.3v10.433c0 1.833.233 3.1.733 3.867.5.733 1.367 1.1 2.6 1.1 1.033 0 1.8-.1 2.233-.367.433-.233.8-.733 1.1-1.5l1.967.667c-.4 1.2-1 2-1.767 2.467-.767.433-1.933.667-3.533.667z"/><path id="I" d="M251.353 453.235c-1.767 0-3.3-.7-4.633-2.067s-2.367-3.3-3.1-5.8-1.1-5.367-1.1-8.667c0-3.267.367-6.133 1.1-8.633s1.767-4.433 3.1-5.8 2.867-2.067 4.633-2.067v1.9c-1.333 0-2.5.6-3.533 1.833-1 1.2-1.8 2.9-2.367 5.133-.567 2.2-.867 4.767-.867 7.633 0 2.9.3 5.467.867 7.667s1.367 3.933 2.367 5.133c1.033 1.2 2.2 1.833 3.533 1.833v1.9z"/><path id="J" d="M264.834 449.268c-1.733 0-3.1-.333-4.067-.933s-1.667-1.633-2.067-3.033c-.433-1.4-.633-3.333-.633-5.8 0-2.5.2-4.433.633-5.833.4-1.4 1.1-2.433 2.067-3.033.967-.633 2.333-.967 4.067-.967 1.167 0 2.133.167 2.9.5.8.333 1.433.9 1.867 1.667v-7.233h2.1v24.233h-2.1v-1.167c-.867 1.067-2.433 1.6-4.767 1.6zm0-1.933c1.467 0 2.633-.167 3.467-.567.867-.4 1.3-1 1.3-1.833v-8.433c0-1.733-.4-2.967-1.2-3.733-.833-.8-2-1.167-3.567-1.167-1.2 0-2.133.233-2.8.733-.667.467-1.167 1.267-1.467 2.4-.267 1.133-.433 2.733-.433 4.767s.167 3.6.433 4.7c.267 1.133.767 1.933 1.433 2.433.667.467 1.633.7 2.833.7z"/><path id="K" d="M370.925 454.768l2.133-3.633c.367-.8.567-1.4.567-1.867-.633 0-1.067-.167-1.3-.433s-.333-.8-.333-1.533c0-.767.133-1.267.433-1.567.3-.267.833-.4 1.667-.4.8 0 1.333.133 1.633.4.3.3.433.8.433 1.567 0 1.233-.233 2.4-.7 3.467s-1.333 2.4-2.567 4h-1.967z"/><path id="L" d="M442.287 451.335c1.333 0 2.533-.633 3.533-1.833 1.033-1.2 1.833-2.933 2.4-5.133s.833-4.767.833-7.667c0-2.867-.267-5.433-.833-7.633-.567-2.233-1.367-3.933-2.4-5.133-1-1.233-2.2-1.833-3.533-1.833v-1.9c1.767 0 3.3.7 4.633 2.067s2.367 3.3 3.133 5.8c.733 2.5 1.1 5.367 1.1 8.633 0 3.3-.367 6.167-1.1 8.667-.767 2.5-1.8 4.433-3.133 5.8s-2.867 2.067-4.633 2.067v-1.9z"/><path id="M" d="M465.001 449.268c-.833 0-1.367-.167-1.667-.433s-.433-.8-.433-1.533c0-.767.133-1.267.433-1.567.3-.267.833-.4 1.667-.4.8 0 1.333.133 1.633.4.3.3.433.8.433 1.567 0 .733-.133 1.267-.433 1.533s-.833.433-1.633.433z"/><path id="N" d="M494.965 448.835v-18.733h2.1v1.533c.567-.7 1.233-1.2 2-1.5s1.833-.467 3.133-.467c1.533 0 2.7.233 3.567.667.833.467 1.433 1.2 1.8 2.233s.533 2.467.533 4.333v11.933h-2.067v-11.933c0-1.367-.133-2.433-.367-3.2s-.6-1.3-1.167-1.633c-.533-.3-1.3-.467-2.3-.467-1.4 0-2.433.133-3.167.4s-1.233.767-1.533 1.467-.433 1.733-.433 3.1v12.267h-2.1z"/><path id="O" d="M559.078 449.268c-1.233 0-2.2-.233-2.9-.633-.7-.433-1.167-1.133-1.467-2.1s-.433-2.333-.433-4.133v-15.9h-3.833v-1.9h5.9v17.8c0 1.267.1 2.267.267 2.967.133.733.433 1.233.833 1.533.367.3.933.433 1.633.433.433 0 .833-.067 1.2-.267s.867-.533 1.467-1.033l1.233 1.8c-.833.533-1.5.933-2.067 1.133-.533.2-1.167.3-1.833.3z"/><path id="P" d="M756.439 449.268c-1.9 0-3.367-.333-4.433-.933s-1.833-1.633-2.267-3.033c-.467-1.4-.7-3.333-.7-5.833 0-2.467.233-4.433.7-5.833s1.233-2.4 2.333-3.033c1.067-.6 2.567-.933 4.5-.933 1.533 0 2.767.267 3.667.767s1.767 1.367 2.633 2.667l-1.767 1.067c-.667-1-1.3-1.7-1.933-2.033-.633-.367-1.5-.533-2.6-.533-1.433 0-2.533.233-3.3.733-.767.467-1.333 1.267-1.633 2.4-.333 1.1-.5 2.7-.5 4.733s.167 3.633.5 4.733c.3 1.133.833 1.933 1.6 2.433.733.467 1.8.7 3.2.7 1.1 0 2-.167 2.633-.533.667-.367 1.333-1.033 2.033-2.067l1.767 1.067c-.867 1.3-1.767 2.233-2.7 2.7-.933.5-2.167.767-3.733.767z"/><path id="Q" d="M810.456 449.268c-1.733 0-3.1-.333-4.067-.933-.967-.633-1.667-1.667-2.1-3.067s-.633-3.333-.633-5.8.2-4.4.633-5.8 1.133-2.433 2.1-3.033c.967-.633 2.333-.967 4.067-.967s3.1.333 4.067.967c.967.6 1.667 1.633 2.1 3.033s.633 3.333.633 5.8-.2 4.4-.633 5.8-1.133 2.433-2.1 3.067c-.967.6-2.333.933-4.067.933zm0-1.933c1.2 0 2.133-.233 2.833-.7.667-.5 1.167-1.3 1.433-2.433.3-1.1.467-2.7.467-4.733s-.167-3.633-.467-4.733c-.267-1.133-.767-1.933-1.433-2.4-.7-.5-1.633-.733-2.833-.733-1.233 0-2.167.233-2.833.733-.7.467-1.167 1.267-1.433 2.4-.3 1.1-.433 2.7-.433 4.733s.133 3.633.433 4.733c.267 1.133.733 1.933 1.433 2.433.667.467 1.6.7 2.833.7z"/><path id="R" d="M831.103 424.168c1.167 0 2.133.1 2.833.3.733.167 1.3.5 1.733.933.4.467.767 1.067 1.033 1.9l-1.967.667c-.267-.733-.633-1.233-1.1-1.5-.5-.267-1.333-.4-2.533-.4-1.033 0-1.833.133-2.4.433-.567.267-.933.733-1.167 1.367s-.367 1.567-.367 2.767v3.033h5.4v1.933h-5.4v13.233h-2.1v-13.233h-3.733v-1.933h3.733v-3.033c0-1.633.2-2.933.567-3.867s1-1.6 1.867-2 2.067-.6 3.6-.6z"/><path id="S" d="M317.333 405.248c-1.667 0-3-.3-4-.933-.967-.6-1.833-1.667-2.633-3.2l2.767-2.267c.4.933.733 1.6 1.033 2.033s.667.7 1.067.9c.433.167 1.033.233 1.767.233 1.4 0 2.433-.067 3.167-.233.7-.167 1.167-.433 1.433-.8s.4-.9.4-1.633c0-.7-.1-1.2-.333-1.533-.2-.333-.567-.567-1.133-.733-.533-.167-1.467-.333-2.733-.467-2.467-.3-4.233-.867-5.3-1.633-1.1-.767-1.667-2-1.667-3.667 0-1.367.267-2.467.767-3.267.5-.833 1.333-1.433 2.433-1.8 1.1-.4 2.6-.6 4.467-.6 1.8 0 3.167.267 4.167.8s1.9 1.467 2.7 2.8l-2.533 2.467c-.467-.833-.833-1.433-1.167-1.8-.333-.4-.733-.667-1.167-.8-.467-.167-1.133-.233-2-.233-1.133 0-2 .067-2.6.2s-1 .4-1.233.733-.333.833-.333 1.5c0 .467.133.833.367 1.067.233.267.6.433 1.1.567l2.233.367c1.9.3 3.4.633 4.467 1.067 1.067.4 1.833 1 2.3 1.767.467.8.7 1.867.7 3.2 0 1.433-.267 2.567-.833 3.433-.533.833-1.433 1.467-2.667 1.867-1.267.4-2.933.6-5 .6z"/><path id="T" d="M336.349 385.648c1.967 0 3.5.367 4.6 1.1 1.1.7 1.9 1.833 2.333 3.4.467 1.533.667 3.6.633 6.233h-12.033c.067 1.467.233 2.6.533 3.4s.733 1.4 1.367 1.733 1.5.5 2.567.5c.8 0 1.433-.067 1.933-.2.5-.167.967-.433 1.367-.833.433-.4.9-1 1.467-1.767l2.8 1.833c-1 1.567-2.067 2.667-3.2 3.267-1.1.6-2.567.933-4.367.933-2 0-3.567-.333-4.733-1s-2-1.7-2.5-3.133c-.5-1.4-.767-3.3-.767-5.667s.267-4.233.767-5.667c.5-1.4 1.333-2.467 2.5-3.133s2.733-1 4.733-1zm4 7.533c-.133-1.1-.333-1.967-.6-2.567-.267-.633-.667-1.067-1.233-1.333-.533-.267-1.233-.4-2.167-.4-1 0-1.8.133-2.4.4s-1.067.7-1.4 1.333c-.3.6-.5 1.467-.6 2.567h8.4z"/><path id="U" d="M357.564 405.248c-1.4 0-2.5-.233-3.267-.633-.8-.433-1.333-1.133-1.667-2.133s-.5-2.4-.5-4.167v-14.533h-3.833v-3.2h7.3v17.733c0 1.4.167 2.367.433 2.9s.8.8 1.533.8c.367 0 .767-.1 1.167-.367.433-.233 1-.667 1.767-1.3l1.933 2.967c-.9.733-1.7 1.233-2.4 1.5-.667.3-1.5.433-2.467.433z"/><path id="V" d="M383.727 404.815v-18.733h3.5v.467c1.267-.6 2.733-.9 4.433-.9 1.733 0 3.067.267 4 .733s1.6 1.267 2 2.4c.4 1.1.6 2.7.6 4.733v11.3h-3.5v-11.3c0-1.2-.1-2.133-.3-2.8-.167-.667-.5-1.133-.933-1.4-.433-.3-1.067-.433-1.867-.433-1.3 0-2.267.1-2.9.333-.6.233-1.033.667-1.233 1.233-.2.6-.3 1.5-.3 2.733v11.633h-3.5z"/><path id="W" d="M411.542 386.082v15.533h5.3v3.2h-14.1v-3.2h5.333v-12.3h-3.833v-3.233h7.3zm-2.3-2.733c-1 0-1.7-.167-2.067-.533-.367-.333-.567-1-.567-1.933 0-.967.2-1.6.567-1.967.367-.333 1.067-.533 2.067-.533s1.7.2 2.1.533c.367.367.567 1 .567 1.967 0 .933-.2 1.6-.567 1.933-.4.367-1.1.533-2.1.533z"/><path id="X" d="M426.658 405.248c-1.633 0-2.933-.267-3.867-.767-.967-.467-1.633-1.267-2.067-2.4-.433-1.1-.633-2.633-.633-4.533v-11.467h3.5v11.467c0 1.233.067 2.2.233 2.8.167.633.5 1.067.933 1.3.433.267 1.067.367 1.9.367 1.267 0 2.2-.1 2.8-.3.633-.2 1.067-.567 1.3-1.067s.367-1.267.367-2.3v-12.267h3.5v18.733h-3.5v-.3c-1.067.467-2.533.733-4.467.733z"/><path id="Y" d="M437.006 404.815v-18.733h3.467v-.1c.933-.2 1.633-.3 2.2-.3.767 0 1.367.133 1.8.333s.867.6 1.267 1.2c.5-.6 1.033-1 1.533-1.2.467-.2 1.167-.333 2-.333 1.167 0 2.033.233 2.667.733.667.467 1.1 1.267 1.367 2.367.3 1.1.433 2.667.433 4.633v11.4h-3.5v-11.4c0-1.6-.067-2.733-.233-3.333s-.467-.9-.9-.9c-.533 0-.9.1-1.2.333-.267.233-.467.633-.6 1.2s-.2 1.367-.2 2.367v11.733h-3.467v-11.2c0-1.7-.1-2.833-.267-3.467-.167-.667-.467-.967-.9-.967-.5 0-.933.1-1.2.333s-.5.633-.6 1.2c-.133.567-.2 1.367-.2 2.367v11.733h-3.467z"/><path id="Z" d="M463.555 405.248c-1.067 0-1.767-.2-2.167-.567s-.6-1.033-.6-2 .2-1.633.6-2 1.1-.567 2.167-.567c1.033 0 1.767.2 2.167.567s.567 1.033.567 2-.167 1.633-.567 2-1.133.567-2.167.567z"/><path id="a" d="M479.269 404.815h-3.1l-3.5-18.733h3.5l2.067 11.567 1.967-6.4h3.033l1.933 6.333 2.1-11.5h3.533l-3.567 18.733h-3.1l-2.4-7.1-2.467 7.1z"/><path id="b" d="M518.467 405.248c-1.8 0-3.233-.233-4.3-.733-1.067-.467-2.1-1.3-3-2.5v-21.433h3.467v5.733c1.167-.433 2.433-.667 3.833-.667 1.8 0 3.233.333 4.3 1s1.833 1.733 2.3 3.133c.467 1.433.7 3.3.7 5.7 0 2.367-.233 4.267-.7 5.667s-1.233 2.433-2.3 3.1-2.5 1-4.3 1zm0-3.233c.967 0 1.733-.2 2.3-.567.533-.4.933-1.067 1.167-2s.333-2.233.333-3.967-.1-3.033-.333-4c-.233-.933-.633-1.6-1.167-2-.567-.4-1.333-.6-2.3-.6-1.067 0-1.867.1-2.4.333s-.9.667-1.1 1.267c-.233.6-.333 1.5-.333 2.7v7.733c.5.433 1 .733 1.533.9.5.133 1.267.2 2.3.2z"/><path id="c" d="M536.115 405.248c-1.867 0-3.367-.333-4.433-1s-1.867-1.7-2.333-3.1-.7-3.3-.7-5.667c0-2.4.233-4.267.7-5.7.467-1.4 1.267-2.467 2.333-3.133s2.567-1 4.433-1c1.433 0 2.8.267 4.067.733v-5.8h3.5v24.233h-3.5v-.2c-1.167.4-2.533.633-4.067.633zm0-3.233c1.4 0 2.433-.133 3.067-.467.667-.3 1-.733 1-1.267v-7.167c0-1.467-.333-2.533-.967-3.2-.633-.7-1.667-1.033-3.1-1.033-1.033 0-1.867.2-2.433.6s-.967 1.067-1.2 2c-.233.967-.367 2.267-.367 4s.133 3.033.367 3.967.633 1.6 1.2 2c.567.367 1.4.567 2.433.567z"/><path id="d" d="M548.197 404.815v-18.733h3.467v1.567c.5-.533 1.1-1 1.867-1.4s1.6-.6 2.5-.6c1.167 0 2.133.167 2.9.5.767.3 1.433.8 2 1.5.533.7 1.033 1.667 1.5 2.9l-3.133 1.433c-.267-.9-.533-1.567-.767-2-.267-.4-.567-.7-.933-.867s-.9-.233-1.567-.233c-1.567 0-2.7.533-3.367 1.6-.667 1.1-1 2.667-1 4.733v9.6h-3.467z"/><path id="e" d="M592.36 404.815h-3.133l-6.767-18.733h3.567l4.767 13.567 4.767-13.567h3.6l-6.8 18.733z"/><path id="f" d="M692.585 410.315v-24.233h3.5v.2c1.167-.4 2.533-.633 4.033-.633 1.867 0 3.367.333 4.467 1 1.067.667 1.867 1.7 2.333 3.1.467 1.433.733 3.3.733 5.667s-.267 4.267-.733 5.7c-.467 1.4-1.267 2.467-2.333 3.133-1.1.667-2.6 1-4.467 1-1.433 0-2.767-.267-4.033-.733v5.8h-3.5zm7.533-8.3c1.067 0 1.867-.2 2.433-.6.6-.4 1-1.067 1.233-2s.367-2.267.367-4c0-1.7-.133-3.033-.367-3.967s-.633-1.6-1.233-1.967c-.567-.4-1.367-.6-2.433-.6-2.7 0-4.033.567-4.033 1.767v7.133c0 1.467.333 2.533.933 3.2.633.7 1.667 1.033 3.1 1.033z"/><path id="g" d="M736.282 405.248c-1.9 0-3.367-.333-4.433-1-1.1-.667-1.867-1.7-2.333-3.133-.5-1.4-.733-3.3-.733-5.667s.233-4.233.733-5.667c.467-1.4 1.233-2.467 2.333-3.133 1.067-.667 2.533-1 4.433-1 1.867 0 3.367.333 4.433 1 1.1.667 1.9 1.733 2.367 3.133.467 1.433.7 3.3.7 5.667s-.233 4.267-.7 5.667c-.467 1.433-1.267 2.467-2.367 3.133-1.067.667-2.567 1-4.433 1zm0-3.233c1.033 0 1.867-.2 2.433-.567.567-.4.967-1.067 1.233-2 .233-.967.367-2.267.367-4 0-1.7-.133-3.033-.367-3.967-.267-.967-.667-1.633-1.233-2-.567-.4-1.4-.6-2.433-.6-1.067 0-1.867.2-2.433.6-.567.367-.967 1.033-1.2 2-.267.933-.367 2.267-.367 3.967 0 1.733.1 3.033.367 4 .233.933.633 1.6 1.2 2 .567.367 1.367.567 2.433.567z"/><path id="h" d="M774.612 405.248c-1.467 0-2.667-.267-3.567-.767-.867-.5-1.533-1.3-1.933-2.4-.433-1.1-.633-2.567-.633-4.367v-8.767h-3.767v-3.233h3.767v-5.133h3.5v5.133h6.267v3.233h-6.267v8.767c0 1.133.067 2 .233 2.633.167.6.433 1.033.8 1.3s.9.367 1.6.367c.733 0 1.267-.033 1.6-.133s.6-.3.733-.567c.167-.233.333-.7.533-1.333l3.267 1.1c-.3 1.067-.7 1.867-1.167 2.467a4.23 4.23 0 0 1-1.9 1.3c-.767.267-1.8.4-3.067.4z"/><path id="i" d="M861.288 404.815h-3.4l-3.467-24.233h3.533l2.067 15.333 1.967-8.267h3.1l1.967 8.267 2.1-15.333h3.5l-3.433 24.233h-3.233l-2.433-9.3-2.267 9.3z"/><path id="j" d="M831.358 386.082h4l-6.167 9.367 6.167 9.367h-4l-4.167-6.333-4.2 6.333h-4l6.2-9.367-6.2-9.367h4l4.2 6.333 4.167-6.333z"/><path id="k" d="M882.269 405.248c-2.033 0-3.6-.333-4.8-1-1.167-.667-2-1.7-2.5-3.1-.533-1.4-.8-3.3-.8-5.7 0-2.367.267-4.267.8-5.7.5-1.4 1.367-2.433 2.533-3.1 1.2-.667 2.833-1 4.9-1 1.733 0 3.167.333 4.2.967 1.067.6 2.067 1.733 3.033 3.333l-2.9 1.7c-.5-.767-.933-1.367-1.3-1.733-.367-.4-.8-.667-1.233-.8-.467-.167-1.067-.233-1.8-.233-1.267 0-2.233.2-2.9.6-.667.367-1.167 1.033-1.433 1.967s-.4 2.267-.4 4 .133 3.067.4 4 .733 1.6 1.4 2c.633.367 1.567.567 2.8.567.733 0 1.333-.067 1.8-.233a3.46 3.46 0 0 0 1.3-.833c.4-.4.867-.967 1.4-1.767l2.867 1.767c-1 1.6-2.033 2.733-3.1 3.367-1.067.6-2.5.933-4.267.933z"/><path id="l" d="M358.531 563.991l3.133.067.367-4.1c.033-.3.167-.567.4-.767.233-.167.533-.267.833-.233s.533.167.733.4c.167.233.267.5.233.8l-.367 3.833 2.6-.167c.3-.033.567.067.8.267s.333.433.367.733-.067.567-.267.8-.467.333-.767.367l-2.9.167c-.433 5.9-.367 10.267.167 13.167.167.733.367 1.267.633 1.567.267.333.5.5.733.533.267.033.6-.1.967-.4.367-.267.767-.733 1.133-1.433.433-.267.833-1.467 1.267-3.6.1-.3.267-.5.533-.667.267-.133.533-.167.833-.067s.5.3.667.567c.133.267.133.533.033.833-.367 1.7-.833 3-1.4 3.933-.5.967-1.133 1.733-1.867 2.3-.767.533-1.533.767-2.367.7-.867-.1-1.567-.467-2.133-1.2-.6-.7-.967-1.6-1.167-2.7-.6-3-.667-7.5-.233-13.467-1.1 0-2.133-.033-3.1-.067a1.19 1.19 0 0 1-.767-.367c-.2-.2-.3-.467-.267-.767a1.19 1.19 0 0 1 .367-.767c.233-.2.5-.3.8-.267z"/><path id="m" d="M373.964 567.591c.167 2 .2 4.5.133 7.5l-.167 7.333c0 .3-.1.567-.3.8-.233.2-.5.3-.8.3s-.567-.1-.767-.3c-.233-.233-.333-.5-.333-.8l.167-7.4-.133-7.233c-.033-.3.067-.6.267-.833s.467-.333.767-.367.567.067.8.267c.2.2.333.433.367.733zm-.467-6.367c.233.2.333.467.333.767s-.1.567-.3.767c-.233.233-.5.333-.8.333s-.567-.1-.767-.333c-.233-.2-.333-.467-.333-.767s.1-.567.333-.8c.2-.2.467-.3.767-.3s.567.1.767.333z"/><path id="n" d="M405.331 571.591c.133-.033.333-.033.6-.067-.1-.5-.3-1-.633-1.567-.367-.6-.733-1.067-1.167-1.433s-.8-.533-1.1-.533c-.933 0-1.767.6-2.5 1.8-.333.567-.633 1.2-.867 1.9h3.1l2.567-.1zm-6.133 2.4l-.067.567c-.133 1.9.133 3.433.833 4.633.667 1.233 1.667 1.833 2.967 1.867.7.033 1.267-.067 1.7-.3s1.033-.667 1.733-1.333c.167-.167.333-.333.5-.567l.467-.6.467-.8.433-.7c.167-.267.433-.433.733-.5.3-.033.567 0 .833.167.233.167.4.433.467.733.033.3 0 .6-.167.833-.033.033-.2.233-.433.6l-.533.867-.6.833c-.233.333-.467.6-.7.767-.833.8-1.633 1.367-2.333 1.733s-1.6.533-2.633.5c-1.167-.033-2.133-.333-2.967-.9-.867-.567-1.467-1.3-1.9-2.2-.433-.867-.733-1.833-.9-2.8s-.233-2-.133-3.033c.167-2.2.733-4.1 1.7-5.7 1.167-1.933 2.633-2.9 4.367-2.867.867 0 1.667.3 2.367.933s1.3 1.333 1.8 2.167c.433.767.733 1.5.9 2.2.1.4.133.767.1 1.1-.067.5-.3.9-.667 1.2-.233.167-.533.267-.967.367l-1.067.133-2.7.1h-3.6z"/><path id="o" d="M418.331 568.458l-.5-.133c-.133-.033-.233-.067-.3-.067-.867.033-1.667.567-2.4 1.567-.767 1.033-1.3 2.3-1.6 3.867-.267 1.567-.2 3 .167 4.267.367 1.3 1.033 2.167 1.967 2.667 1.167.567 2.233.467 3.2-.333 1.033-.833 1.767-2.1 2.2-3.8.4-1.633.367-3.2-.067-4.7-.467-1.5-1.367-2.6-2.667-3.333zm.8-2.067a.8.8 0 0 1 .4.233c.933.533 1.7 1.2 2.333 2.033.6.867 1.033 1.733 1.267 2.633.233.933.4 1.9.433 2.9s-.1 1.933-.367 2.833c-.533 2.2-1.533 3.867-2.967 5-1.7 1.367-3.567 1.567-5.567.533-.767-.367-1.433-.933-1.967-1.667-.567-.7-.933-1.467-1.133-2.333a13.2 13.2 0 0 1-.367-2.633c-.067-.933 0-1.8.2-2.633.333-1.9.967-3.5 1.933-4.8 1.167-1.533 2.5-2.333 4.067-2.433h.033c.3-.133.567-.133.867-.033s.567.233.833.367z"/><path id="p" d="M475.797 569.791c-.1-.1-.267-.233-.5-.433l-.433-.4c-.067-.067-.167-.167-.333-.267s-.3-.2-.4-.233-.233-.1-.4-.133c-.833-.167-1.467-.033-1.967.467-.5.467-.6 1.067-.333 1.8.133.367.4.767.8 1.167.4.433 1.033 1 1.9 1.733l.4.367 1.5 1.333c.367.367.767.9 1.2 1.533.433.667.667 1.3.767 1.933.133 1.033-.033 1.933-.467 2.7-.467.767-1.1 1.367-1.933 1.733-.733.367-1.533.533-2.433.5s-1.733-.233-2.5-.667c-.833-.467-1.5-1.033-2-1.7-.5-.633-.933-1.433-1.367-2.4-.133-.3-.133-.567-.033-.867.1-.267.3-.467.6-.6.267-.133.533-.133.833-.033.267.1.467.3.6.567.367.8.7 1.433 1.067 1.9.367.5.8.9 1.367 1.2.433.233.933.367 1.467.4s1.033-.067 1.467-.3c.9-.433 1.3-1.133 1.133-2.1-.067-.5-.333-1.033-.767-1.567s-1.1-1.167-1.933-1.9c-.067-.067-.267-.233-.567-.5l-.667-.533-.6-.567c-.267-.233-.467-.467-.6-.633l-.533-.6-.467-.7c-.133-.233-.233-.433-.3-.667-.267-.8-.333-1.567-.167-2.267s.5-1.333 1-1.833 1.133-.833 1.833-1.033c.7-.167 1.433-.167 2.167 0 .3.067.567.167.833.267.233.1.5.233.733.4l.567.433.533.5.4.4c.233.2.333.433.367.733s-.067.567-.267.8a1.19 1.19 0 0 1-.767.367c-.3.033-.567-.067-.8-.3z"/><path id="q" d="M1218.651 569.086c-.067-.8-.2-1.5-.367-2.067-.2-.567-.4-1-.633-1.267-.233-.233-.467-.433-.667-.533s-.4-.167-.567-.133c-.5.033-1.067.367-1.7 1-.633.667-1.1 1.633-1.467 2.933-.4 1.367-.567 2.633-.433 3.8.1 1.167.333 2.2.733 3.033s.9 1.5 1.5 1.933c.9.633 1.867.7 2.9.267 1.367-.567 2.667-1.967 3.933-4.133.167-.267.367-.433.667-.533.3-.067.567-.033.833.1.267.167.433.367.533.667.067.3.033.567-.1.833-1.5 2.6-3.167 4.3-5 5.1-1.8.767-3.467.6-5.033-.533-1.4-1.033-2.367-2.533-2.867-4.567s-.433-4.233.2-6.567c.467-1.6 1.167-2.9 2.1-3.933s1.967-1.567 3.1-1.6c1.267-.067 2.3.433 3.1 1.533.767 1.1 1.267 2.6 1.433 4.467.033.3-.067.567-.233.8-.2.233-.467.367-.767.4s-.567-.067-.8-.267c-.233-.167-.367-.433-.4-.733z"/><path id="r" d="M1250.983 575.053v-3.433-1.267l-.067-1.433c-.033-.3-.033-.733-.067-1.233s-.1-.967-.167-1.4l-.2-1.267c-.067-.3 0-.567.167-.833a1.15 1.15 0 0 1 .7-.467c.267-.033.567 0 .833.167.233.167.4.433.433.733.3 1.367.467 2.967.533 4.8l1.167-1.5c1.833-2.1 3.767-3.6 5.8-4.433.3-.133.567-.133.867-.033a1.31 1.31 0 0 1 .6.6c.1.3.1.567 0 .833-.133.3-.333.5-.6.6-1.733.733-3.4 2.033-5 3.867-1.7 1.967-2.6 3.767-2.767 5.467-.033.1-.033.2-.033.3v2.867l-.033 1.133v.5.067c-.033.033-.033.1-.033.133l-.067.2c-.1.233-.267.433-.533.533-.233.133-.433.167-.633.1-.233-.1-.367-.167-.467-.233s-.2-.133-.267-.233-.133-.2-.167-.333c0-.033 0-.1-.033-.167v-.233l-.033-2.367.067-2.033z"/><path id="s" d="M859.119 568.815c.367-.7.767-1.333 1.2-1.933.967-1.433 1.967-2.5 2.967-3.167 1.4-.933 2.7-1.033 3.933-.3.8.467 1.433 1.467 1.9 3.033.367 1.133.633 2.567.833 4.333.3 2.567.4 5.133.367 7.7 0 .3-.1.533-.333.767-.233.2-.5.3-.767.3-.3 0-.567-.1-.767-.333-.233-.233-.333-.5-.333-.8.033-2.367-.067-4.833-.367-7.367-.167-1.667-.433-2.967-.733-3.933-.3-1.033-.633-1.633-.933-1.833-.433-.233-.967-.167-1.6.267-.733.5-1.533 1.367-2.367 2.6-.733 1.1-1.367 2.233-1.933 3.433-.567 1.233-.867 2.133-.933 2.7-.067.4-.1.967-.133 1.7l-.1 1.9c0 .033 0 .1-.033.133v.067c0 .1-.033.167-.067.267-.067.1-.133.2-.233.3-.3.3-.633.4-1.033.3a1.07 1.07 0 0 1-.7-.5l-.1-.267-.033-.233c-.033-.033-.033-.067-.033-.133s0-.233.033-.467l.033-1.2.067-1.867.033-2.2v-1.433-1.533c-.033-.267-.033-.733-.067-1.367l-.067-1.533-.133-1.3-.233-1.433c-.067-.3 0-.567.167-.833a1.15 1.15 0 0 1 .7-.467c.267-.033.567.033.833.167.233.167.4.433.433.733.3 1.5.5 3.433.533 5.733z"/><path id="t" d="M883.152 557.115l.033 3.567-.033 3.6-.033 3.6c0 4.233.133 7.767.433 10.6.033.3-.067.567-.233.8-.2.233-.433.367-.733.4s-.567-.067-.8-.233c-.233-.2-.4-.467-.433-.767-.067-.567-.133-1.167-.167-1.8-.3.333-.6.633-.9.933-1.433 1.333-3.133 1.667-5.1 1-1.833-.6-2.933-2.167-3.3-4.7-.3-2.033-.067-4.133.667-6.367.8-2.367 1.933-3.933 3.4-4.633.9-.433 1.833-.5 2.8-.133.767.3 1.5.833 2.2 1.667v-7.467c0-.3.1-.567.333-.8.2-.233.467-.333.767-.333s.533.1.767.3c.233.233.333.467.333.767zm-2.233 11.767c-.7-1.333-1.133-2.133-1.333-2.367-.567-.767-1.1-1.267-1.633-1.467-.367-.133-.7-.133-1.033.033-.9.433-1.667 1.567-2.267 3.367-.633 1.9-.833 3.7-.6 5.367.233 1.633.833 2.6 1.8 2.933 1.167.367 2.133.2 2.967-.533.8-.733 1.533-1.8 2.167-3.2l-.067-4.1v-.033z"/><path id="u" d="M902.818 611.348c-.633-1.5-1.1-2.5-1.433-2.933-.733-.9-1.667-1.333-2.833-1.3s-2.067.567-2.733 1.6c-.9 1.367-1 2.533-.233 3.5.333.433.8.733 1.467.933.6.233 1.333.267 2.133.133.967-.2 2.2-.833 3.633-1.933zm-6.1-11.1c1.9-1.767 3.633-2.367 5.167-1.767 1.233.467 2.167 1.7 2.833 3.667l.5 1.933a21.51 21.51 0 0 1 .4 2.2l.233 1.933.133 1.867.1 1.267c0 .033.067.667.233 1.833l.1 1.033c.033.4.067.7.033.867l-.1.3c-.1.3-.3.5-.567.6-.433.233-.867.167-1.233-.167-.1-.1-.167-.2-.233-.333s-.133-.333-.2-.567l-.133-.467c-.033-.167-.067-.267-.1-.3l-.233-.667c-1.433 1.067-2.8 1.7-4.067 1.933-1.2.233-2.3.167-3.3-.167-1.033-.333-1.833-.9-2.433-1.7-.633-.8-.967-1.733-.933-2.833 0-1.1.333-2.167 1.033-3.2.7-1.067 1.633-1.833 2.767-2.267s2.3-.467 3.467-.167c1.133.333 2.133 1 2.933 2 .133.167.267.4.433.633-.233-2.033-.533-3.633-.933-4.833-.433-1.333-.967-2.133-1.533-2.367-.667-.267-1.633.167-2.9 1.333-.233.233-.5.333-.767.3-.3-.033-.567-.133-.767-.367-.233-.233-.333-.5-.3-.8s.133-.533.367-.733z"/></defs></svg>